<?xml version="1.0" encoding="UTF-8" standalone="no"?>
<!DOCTYPE svg PUBLIC "-//W3C//DTD SVG 1.1//EN"
 "http://www.w3.org/Graphics/SVG/1.1/DTD/svg11.dtd">
<!-- Generated by graphviz version 10.0.1 (20240210.2158)
 -->
<!-- Title: Core::FMTdevelopment Pages: 1 -->
<svg width="302pt" height="140pt"
 viewBox="0.00 0.00 302.25 140.00" xmlns="http://www.w3.org/2000/svg" xmlns:xlink="http://www.w3.org/1999/xlink">
<g id="graph0" class="graph" transform="scale(1 1) rotate(0) translate(4 136)">
<title>Core::FMTdevelopment</title>
<!-- Node1 -->
<g id="node1" class="node">
<title>Node1</title>
<g id="a_node1"><a xlink:title=" ">
<polygon fill="#999999" stroke="#666666" points="206.88,-76 91.12,-76 91.12,-56 206.88,-56 206.88,-76"/>
<text text-anchor="middle" x="149" y="-62.5" font-family="Helvetica,sans-Serif" font-size="10.00">Core::FMTdevelopment</text>
</a>
</g>
</g>
<!-- Node3 -->
<g id="node3" class="node">
<title>Node3</title>
<g id="a_node3"><a xlink:href="classCore_1_1FMTactualdevelopment.html" target="_top" xlink:title=" ">
<polygon fill="white" stroke="#666666" points="142,-20 0,-20 0,0 142,0 142,-20"/>
<text text-anchor="middle" x="71" y="-6.5" font-family="Helvetica,sans-Serif" font-size="10.00">Core::FMTactualdevelopment</text>
</a>
</g>
</g>
<!-- Node1&#45;&gt;Node3 -->
<g id="edge2" class="edge">
<title>Node1&#45;&gt;Node3</title>
<path fill="none" stroke="#63b8ff" d="M126.28,-49.27C112.81,-39.94 96.17,-28.43 84.69,-20.48"/>
<polygon fill="#63b8ff" stroke="#63b8ff" points="123.95,-51.92 134.17,-54.73 127.94,-46.16 123.95,-51.92"/>
</g>
<!-- Node4 -->
<g id="node4" class="node">
<title>Node4</title>
<g id="a_node4"><a xlink:href="classCore_1_1FMTfuturdevelopment.html" target="_top" xlink:title=" ">
<polygon fill="white" stroke="#666666" points="294.25,-20 159.75,-20 159.75,0 294.25,0 294.25,-20"/>
<text text-anchor="middle" x="227" y="-6.5" font-family="Helvetica,sans-Serif" font-size="10.00">Core::FMTfuturdevelopment</text>
</a>
</g>
</g>
<!-- Node1&#45;&gt;Node4 -->
<g id="edge3" class="edge">
<title>Node1&#45;&gt;Node4</title>
<path fill="none" stroke="#63b8ff" d="M171.72,-49.27C185.19,-39.94 201.83,-28.43 213.31,-20.48"/>
<polygon fill="#63b8ff" stroke="#63b8ff" points="170.06,-46.16 163.83,-54.73 174.05,-51.92 170.06,-46.16"/>
</g>
<!-- Node2 -->
<g id="node2" class="node">
<title>Node2</title>
<g id="a_node2"><a xlink:href="classCore_1_1FMTobject.html" target="_top" xlink:title=" ">
<polygon fill="white" stroke="#666666" points="193,-132 105,-132 105,-112 193,-112 193,-132"/>
<text text-anchor="middle" x="149" y="-118.5" font-family="Helvetica,sans-Serif" font-size="10.00">Core::FMTobject</text>
</a>
</g>
</g>
<!-- Node2&#45;&gt;Node1 -->
<g id="edge1" class="edge">
<title>Node2&#45;&gt;Node1</title>
<path fill="none" stroke="#63b8ff" d="M149,-100.13C149,-91.9 149,-82.85 149,-76.3"/>
<polygon fill="#63b8ff" stroke="#63b8ff" points="145.5,-100.08 149,-110.08 152.5,-100.08 145.5,-100.08"/>
</g>
</g>
</svg>
