<?xml version="1.0" encoding="UTF-8" standalone="no"?>
<!DOCTYPE svg PUBLIC "-//W3C//DTD SVG 1.1//EN"
 "http://www.w3.org/Graphics/SVG/1.1/DTD/svg11.dtd">
<!-- Generated by graphviz version 8.1.0 (20230707.0739)
 -->
<!-- Title: Core::FMToutputnode Pages: 1 -->
<svg width="1011pt" height="192pt"
 viewBox="0.00 0.00 1011.25 192.00" xmlns="http://www.w3.org/2000/svg" xmlns:xlink="http://www.w3.org/1999/xlink">
<g id="graph0" class="graph" transform="scale(1 1) rotate(0) translate(4 188)">
<title>Core::FMToutputnode</title>
<!-- Node1 -->
<g id="Node000001" class="node">
<title>Node1</title>
<g id="a_Node000001"><a xlink:title=" ">
<polygon fill="#999999" stroke="#666666" points="1003.25,-108 893.5,-108 893.5,-88 1003.25,-88 1003.25,-108"/>
<text text-anchor="middle" x="948.38" y="-94.5" font-family="Helvetica,sans-Serif" font-size="10.00">Core::FMToutputnode</text>
</a>
</g>
</g>
<!-- Node2 -->
<g id="Node000002" class="node">
<title>Node2</title>
<g id="a_Node000002"><a xlink:href="classCore_1_1FMToutputsource.html" target="_top" xlink:title=" ">
<polygon fill="white" stroke="#666666" points="828.25,-108 710.25,-108 710.25,-88 828.25,-88 828.25,-108"/>
<text text-anchor="middle" x="769.25" y="-94.5" font-family="Helvetica,sans-Serif" font-size="10.00">Core::FMToutputsource</text>
</a>
</g>
</g>
<!-- Node2&#45;&gt;Node1 -->
<g id="edge1_Node000001_Node000002" class="edge">
<title>Node2&#45;&gt;Node1</title>
<g id="a_edge1_Node000001_Node000002"><a xlink:title=" ">
<path fill="none" stroke="#9a32cd" stroke-dasharray="5,2" d="M839.64,-98C857.41,-98 876.26,-98 893.14,-98"/>
<polygon fill="#9a32cd" stroke="#9a32cd" points="839.74,-94.5 829.74,-98 839.74,-101.5 839.74,-94.5"/>
</a>
</g>
<text text-anchor="middle" x="860.88" y="-112.5" font-family="Helvetica,sans-Serif" font-size="10.00" fill="grey"> factor</text>
<text text-anchor="middle" x="860.88" y="-100.5" font-family="Helvetica,sans-Serif" font-size="10.00" fill="grey">source</text>
</g>
<!-- Node3 -->
<g id="Node000003" class="node">
<title>Node3</title>
<g id="a_Node000003"><a xlink:href="classCore_1_1FMTspec.html" target="_top" xlink:title=" ">
<polygon fill="white" stroke="#666666" points="673.25,-108 590.5,-108 590.5,-88 673.25,-88 673.25,-108"/>
<text text-anchor="middle" x="631.88" y="-94.5" font-family="Helvetica,sans-Serif" font-size="10.00">Core::FMTspec</text>
</a>
</g>
</g>
<!-- Node3&#45;&gt;Node2 -->
<g id="edge2_Node000002_Node000003" class="edge">
<title>Node3&#45;&gt;Node2</title>
<g id="a_edge2_Node000002_Node000003"><a xlink:title=" ">
<path fill="none" stroke="#63b8ff" d="M684.25,-98C692.63,-98 701.36,-98 709.89,-98"/>
<polygon fill="#63b8ff" stroke="#63b8ff" points="684.49,-94.5 674.49,-98 684.49,-101.5 684.49,-94.5"/>
</a>
</g>
</g>
<!-- Node4 -->
<g id="Node000004" class="node">
<title>Node4</title>
<g id="a_Node000004"><a xlink:href="classCore_1_1FMTperbounds.html" target="_top" xlink:title=" ">
<polygon fill="white" stroke="#666666" points="491.88,-184 385.12,-184 385.12,-164 491.88,-164 491.88,-184"/>
<text text-anchor="middle" x="438.5" y="-170.5" font-family="Helvetica,sans-Serif" font-size="10.00">Core::FMTperbounds</text>
</a>
</g>
</g>
<!-- Node4&#45;&gt;Node3 -->
<g id="edge3_Node000003_Node000004" class="edge">
<title>Node4&#45;&gt;Node3</title>
<g id="a_edge3_Node000003_Node000004"><a xlink:title=" ">
<path fill="none" stroke="#9a32cd" stroke-dasharray="5,2" d="M502.6,-161.53C525.23,-155.87 550.56,-148.13 572.5,-138 589.68,-130.07 607.31,-117.21 618.64,-108.21"/>
<polygon fill="#9a32cd" stroke="#9a32cd" points="501.98,-158.32 493.08,-164.06 503.62,-165.12 501.98,-158.32"/>
</a>
</g>
<text text-anchor="middle" x="545.12" y="-159.5" font-family="Helvetica,sans-Serif" font-size="10.00" fill="grey"> per</text>
</g>
<!-- Node5 -->
<g id="Node000005" class="node">
<title>Node5</title>
<g id="a_Node000005"><a xlink:href="classCore_1_1FMTbounds.html" target="_top" xlink:title=" ">
<polygon fill="white" stroke="#666666" points="298.5,-146 176.75,-146 176.75,-126 298.5,-126 298.5,-146"/>
<text text-anchor="middle" x="237.62" y="-132.5" font-family="Helvetica,sans-Serif" font-size="10.00">Core::FMTbounds&lt; int &gt;</text>
</a>
</g>
</g>
<!-- Node5&#45;&gt;Node4 -->
<g id="edge4_Node000004_Node000005" class="edge">
<title>Node5&#45;&gt;Node4</title>
<g id="a_edge4_Node000004_Node000005"><a xlink:title=" ">
<path fill="none" stroke="#63b8ff" d="M304.1,-148.51C330.31,-153.52 360.1,-159.21 384.87,-163.94"/>
<polygon fill="#63b8ff" stroke="#63b8ff" points="304.97,-144.92 294.49,-146.48 303.66,-151.8 304.97,-144.92"/>
</a>
</g>
</g>
<!-- Node6 -->
<g id="Node000006" class="node">
<title>Node6</title>
<g id="a_Node000006"><a xlink:href="classCore_1_1FMTagebounds.html" target="_top" xlink:title=" ">
<polygon fill="white" stroke="#666666" points="493,-146 384,-146 384,-126 493,-126 493,-146"/>
<text text-anchor="middle" x="438.5" y="-132.5" font-family="Helvetica,sans-Serif" font-size="10.00">Core::FMTagebounds</text>
</a>
</g>
</g>
<!-- Node5&#45;&gt;Node6 -->
<g id="edge6_Node000006_Node000005" class="edge">
<title>Node5&#45;&gt;Node6</title>
<g id="a_edge6_Node000006_Node000005"><a xlink:title=" ">
<path fill="none" stroke="#63b8ff" d="M309.8,-136C334.11,-136 360.86,-136 383.58,-136"/>
<polygon fill="#63b8ff" stroke="#63b8ff" points="309.83,-132.5 299.83,-136 309.83,-139.5 309.83,-132.5"/>
</a>
</g>
</g>
<!-- Node7 -->
<g id="Node000007" class="node">
<title>Node7</title>
<g id="a_Node000007"><a xlink:href="classCore_1_1FMTlockbounds.html" target="_top" xlink:title=" ">
<polygon fill="white" stroke="#666666" points="494.12,-108 382.88,-108 382.88,-88 494.12,-88 494.12,-108"/>
<text text-anchor="middle" x="438.5" y="-94.5" font-family="Helvetica,sans-Serif" font-size="10.00">Core::FMTlockbounds</text>
</a>
</g>
</g>
<!-- Node5&#45;&gt;Node7 -->
<g id="edge8_Node000007_Node000005" class="edge">
<title>Node5&#45;&gt;Node7</title>
<g id="a_edge8_Node000007_Node000005"><a xlink:title=" ">
<path fill="none" stroke="#63b8ff" d="M304.18,-123.47C329.65,-118.61 358.49,-113.1 382.81,-108.45"/>
<polygon fill="#63b8ff" stroke="#63b8ff" points="303.66,-120.2 294.49,-125.52 304.97,-127.08 303.66,-120.2"/>
</a>
</g>
</g>
<!-- Node6&#45;&gt;Node3 -->
<g id="edge5_Node000003_Node000006" class="edge">
<title>Node6&#45;&gt;Node3</title>
<g id="a_edge5_Node000003_Node000006"><a xlink:title=" ">
<path fill="none" stroke="#9a32cd" stroke-dasharray="5,2" d="M504.13,-125.1C525.9,-121.22 550.3,-116.66 572.5,-112 578.21,-110.8 584.22,-109.46 590.12,-108.09"/>
<polygon fill="#9a32cd" stroke="#9a32cd" points="503.59,-121.82 494.35,-127 504.8,-128.71 503.59,-121.82"/>
</a>
</g>
<text text-anchor="middle" x="545.12" y="-124.5" font-family="Helvetica,sans-Serif" font-size="10.00" fill="grey"> age</text>
</g>
<!-- Node7&#45;&gt;Node3 -->
<g id="edge7_Node000003_Node000007" class="edge">
<title>Node7&#45;&gt;Node3</title>
<g id="a_edge7_Node000003_Node000007"><a xlink:title=" ">
<path fill="none" stroke="#9a32cd" stroke-dasharray="5,2" d="M505.56,-98C533.67,-98 565.56,-98 590.13,-98"/>
<polygon fill="#9a32cd" stroke="#9a32cd" points="505.6,-94.5 495.6,-98 505.6,-101.5 505.6,-94.5"/>
</a>
</g>
<text text-anchor="middle" x="545.12" y="-100.5" font-family="Helvetica,sans-Serif" font-size="10.00" fill="grey"> lock</text>
</g>
<!-- Node8 -->
<g id="Node000008" class="node">
<title>Node8</title>
<g id="a_Node000008"><a xlink:title=" ">
<polygon fill="white" stroke="#666666" points="499.75,-70 377.25,-70 377.25,-50 499.75,-50 499.75,-70"/>
<text text-anchor="middle" x="438.5" y="-56.5" font-family="Helvetica,sans-Serif" font-size="10.00">std::vector&lt; std::string &gt;</text>
</a>
</g>
</g>
<!-- Node8&#45;&gt;Node3 -->
<g id="edge9_Node000003_Node000008" class="edge">
<title>Node8&#45;&gt;Node3</title>
<g id="a_edge9_Node000003_Node000008"><a xlink:title=" ">
<path fill="none" stroke="#9a32cd" stroke-dasharray="5,2" d="M510.64,-70.37C530.72,-73.68 552.54,-77.63 572.5,-82 579.79,-83.6 587.52,-85.54 594.9,-87.51"/>
<polygon fill="#9a32cd" stroke="#9a32cd" points="511.43,-66.79 501,-68.65 510.32,-73.7 511.43,-66.79"/>
</a>
</g>
<text text-anchor="middle" x="545.12" y="-84.5" font-family="Helvetica,sans-Serif" font-size="10.00" fill="grey"> yieldnames</text>
</g>
<!-- Node9 -->
<g id="Node000009" class="node">
<title>Node9</title>
<g id="a_Node000009"><a xlink:title=" ">
<polygon fill="white" stroke="#666666" points="267.38,-70 207.88,-70 207.88,-50 267.38,-50 267.38,-70"/>
<text text-anchor="middle" x="237.62" y="-56.5" font-family="Helvetica,sans-Serif" font-size="10.00">std::string</text>
</a>
</g>
</g>
<!-- Node9&#45;&gt;Node8 -->
<g id="edge10_Node000008_Node000009" class="edge">
<title>Node9&#45;&gt;Node8</title>
<g id="a_edge10_Node000008_Node000009"><a xlink:title=" ">
<path fill="none" stroke="#9a32cd" stroke-dasharray="5,2" d="M278.2,-60C306.41,-60 344.87,-60 376.93,-60"/>
<polygon fill="#9a32cd" stroke="#9a32cd" points="278.54,-56.5 268.54,-60 278.54,-63.5 278.54,-56.5"/>
</a>
</g>
<text text-anchor="middle" x="337.88" y="-62.5" font-family="Helvetica,sans-Serif" font-size="10.00" fill="grey"> elements</text>
</g>
<!-- Node10 -->
<g id="Node000010" class="node">
<title>Node10</title>
<g id="a_Node000010"><a xlink:title=" ">
<polygon fill="white" stroke="#666666" points="116.88,-76 22.87,-76 22.87,-44 116.88,-44 116.88,-76"/>
<text text-anchor="start" x="30.88" y="-62.5" font-family="Helvetica,sans-Serif" font-size="10.00">std::basic_string&lt;</text>
<text text-anchor="middle" x="69.88" y="-50.5" font-family="Helvetica,sans-Serif" font-size="10.00"> Char &gt;</text>
</a>
</g>
</g>
<!-- Node10&#45;&gt;Node9 -->
<g id="edge11_Node000009_Node000010" class="edge">
<title>Node10&#45;&gt;Node9</title>
<g id="a_edge11_Node000009_Node000010"><a xlink:title=" ">
<path fill="none" stroke="#63b8ff" d="M127.85,-60C154.62,-60 185.41,-60 207.38,-60"/>
<polygon fill="#63b8ff" stroke="#63b8ff" points="128.05,-56.5 118.05,-60 128.05,-63.5 128.05,-56.5"/>
</a>
</g>
</g>
<!-- Node11 -->
<g id="Node000011" class="node">
<title>Node11</title>
<g id="a_Node000011"><a xlink:title=" ">
<polygon fill="white" stroke="#666666" points="486.62,-32 390.38,-32 390.38,0 486.62,0 486.62,-32"/>
<text text-anchor="start" x="398.38" y="-18.5" font-family="Helvetica,sans-Serif" font-size="10.00">std::vector&lt; Core::</text>
<text text-anchor="middle" x="438.5" y="-6.5" font-family="Helvetica,sans-Serif" font-size="10.00">FMTyldbounds &gt;</text>
</a>
</g>
</g>
<!-- Node11&#45;&gt;Node3 -->
<g id="edge12_Node000003_Node000011" class="edge">
<title>Node11&#45;&gt;Node3</title>
<g id="a_edge12_Node000003_Node000011"><a xlink:title=" ">
<path fill="none" stroke="#9a32cd" stroke-dasharray="5,2" d="M497.24,-28.24C521.24,-34.5 548.93,-43.32 572.5,-55 590.32,-63.83 608.38,-78.14 619.6,-87.8"/>
<polygon fill="#9a32cd" stroke="#9a32cd" points="498.41,-24.67 487.85,-25.62 496.7,-31.46 498.41,-24.67"/>
</a>
</g>
<text text-anchor="middle" x="545.12" y="-57.5" font-family="Helvetica,sans-Serif" font-size="10.00" fill="grey"> yieldbounds</text>
</g>
<!-- Node12 -->
<g id="Node000012" class="node">
<title>Node12</title>
<g id="a_Node000012"><a xlink:href="classCore_1_1FMTyldbounds.html" target="_top" xlink:title=" ">
<polygon fill="white" stroke="#666666" points="290.62,-26 184.62,-26 184.62,-6 290.62,-6 290.62,-26"/>
<text text-anchor="middle" x="237.62" y="-12.5" font-family="Helvetica,sans-Serif" font-size="10.00">Core::FMTyldbounds</text>
</a>
</g>
</g>
<!-- Node12&#45;&gt;Node11 -->
<g id="edge13_Node000011_Node000012" class="edge">
<title>Node12&#45;&gt;Node11</title>
<g id="a_edge13_Node000011_Node000012"><a xlink:title=" ">
<path fill="none" stroke="#9a32cd" stroke-dasharray="5,2" d="M301.6,-16C330.23,-16 363.54,-16 390.02,-16"/>
<polygon fill="#9a32cd" stroke="#9a32cd" points="301.88,-12.5 291.88,-16 301.88,-19.5 301.88,-12.5"/>
</a>
</g>
<text text-anchor="middle" x="337.88" y="-18.5" font-family="Helvetica,sans-Serif" font-size="10.00" fill="grey"> elements</text>
</g>
<!-- Node13 -->
<g id="Node000013" class="node">
<title>Node13</title>
<g id="a_Node000013"><a xlink:href="classCore_1_1FMTbounds.html" target="_top" xlink:title=" ">
<polygon fill="white" stroke="#666666" points="139.75,-26 0,-26 0,-6 139.75,-6 139.75,-26"/>
<text text-anchor="middle" x="69.88" y="-12.5" font-family="Helvetica,sans-Serif" font-size="10.00">Core::FMTbounds&lt; double &gt;</text>
</a>
</g>
</g>
<!-- Node13&#45;&gt;Node12 -->
<g id="edge14_Node000012_Node000013" class="edge">
<title>Node13&#45;&gt;Node12</title>
<g id="a_edge14_Node000012_Node000013"><a xlink:title=" ">
<path fill="none" stroke="#63b8ff" d="M150.98,-16C162.27,-16 173.63,-16 184.22,-16"/>
<polygon fill="#63b8ff" stroke="#63b8ff" points="151.21,-12.5 141.21,-16 151.21,-19.5 151.21,-12.5"/>
</a>
</g>
</g>
</g>
</svg>
