<?xml version="1.0" encoding="UTF-8" standalone="no"?>
<!DOCTYPE svg PUBLIC "-//W3C//DTD SVG 1.1//EN"
 "http://www.w3.org/Graphics/SVG/1.1/DTD/svg11.dtd">
<!-- Generated by graphviz version 10.0.1 (20240210.2158)
 -->
<!-- Title: Models::FMTsamodel Pages: 1 -->
<svg width="118pt" height="196pt"
 viewBox="0.00 0.00 117.75 196.00" xmlns="http://www.w3.org/2000/svg" xmlns:xlink="http://www.w3.org/1999/xlink">
<g id="graph0" class="graph" transform="scale(1 1) rotate(0) translate(4 192)">
<title>Models::FMTsamodel</title>
<!-- Node1 -->
<g id="node1" class="node">
<title>Node1</title>
<g id="a_node1"><a xlink:title=" ">
<polygon fill="#999999" stroke="#666666" points="109.75,-20 0,-20 0,0 109.75,0 109.75,-20"/>
<text text-anchor="middle" x="54.88" y="-6.5" font-family="Helvetica,sans-Serif" font-size="10.00">Models::FMTsamodel</text>
</a>
</g>
</g>
<!-- Node2 -->
<g id="node2" class="node">
<title>Node2</title>
<g id="a_node2"><a xlink:href="classModels_1_1FMTsemodel.html" target="_top" xlink:title=" ">
<polygon fill="white" stroke="#666666" points="109.75,-76 0,-76 0,-56 109.75,-56 109.75,-76"/>
<text text-anchor="middle" x="54.88" y="-62.5" font-family="Helvetica,sans-Serif" font-size="10.00">Models::FMTsemodel</text>
</a>
</g>
</g>
<!-- Node2&#45;&gt;Node1 -->
<g id="edge1" class="edge">
<title>Node2&#45;&gt;Node1</title>
<path fill="none" stroke="#63b8ff" d="M54.88,-44.13C54.88,-35.9 54.88,-26.85 54.88,-20.3"/>
<polygon fill="#63b8ff" stroke="#63b8ff" points="51.38,-44.08 54.88,-54.08 58.38,-44.08 51.38,-44.08"/>
</g>
<!-- Node3 -->
<g id="node3" class="node">
<title>Node3</title>
<g id="a_node3"><a xlink:href="classModels_1_1FMTmodel.html" target="_top" xlink:title=" ">
<polygon fill="white" stroke="#666666" points="104.5,-132 5.25,-132 5.25,-112 104.5,-112 104.5,-132"/>
<text text-anchor="middle" x="54.88" y="-118.5" font-family="Helvetica,sans-Serif" font-size="10.00">Models::FMTmodel</text>
</a>
</g>
</g>
<!-- Node3&#45;&gt;Node2 -->
<g id="edge2" class="edge">
<title>Node3&#45;&gt;Node2</title>
<path fill="none" stroke="#63b8ff" d="M54.88,-100.13C54.88,-91.9 54.88,-82.85 54.88,-76.3"/>
<polygon fill="#63b8ff" stroke="#63b8ff" points="51.38,-100.08 54.88,-110.08 58.38,-100.08 51.38,-100.08"/>
</g>
<!-- Node4 -->
<g id="node4" class="node">
<title>Node4</title>
<g id="a_node4"><a xlink:href="classCore_1_1FMTobject.html" target="_top" xlink:title=" ">
<polygon fill="white" stroke="#666666" points="98.88,-188 10.88,-188 10.88,-168 98.88,-168 98.88,-188"/>
<text text-anchor="middle" x="54.88" y="-174.5" font-family="Helvetica,sans-Serif" font-size="10.00">Core::FMTobject</text>
</a>
</g>
</g>
<!-- Node4&#45;&gt;Node3 -->
<g id="edge3" class="edge">
<title>Node4&#45;&gt;Node3</title>
<path fill="none" stroke="#63b8ff" d="M54.88,-156.13C54.88,-147.9 54.88,-138.85 54.88,-132.3"/>
<polygon fill="#63b8ff" stroke="#63b8ff" points="51.38,-156.08 54.88,-166.08 58.38,-156.08 51.38,-156.08"/>
</g>
</g>
</svg>
