<?xml version="1.0" encoding="UTF-8" standalone="no"?>
<!DOCTYPE svg PUBLIC "-//W3C//DTD SVG 1.1//EN"
 "http://www.w3.org/Graphics/SVG/1.1/DTD/svg11.dtd">
<!-- Generated by graphviz version 10.0.1 (20240210.2158)
 -->
<!-- Title: Exception::FMTquietexceptionhandler Pages: 1 -->
<svg width="1583pt" height="234pt"
 viewBox="0.00 0.00 1582.50 234.00" xmlns="http://www.w3.org/2000/svg" xmlns:xlink="http://www.w3.org/1999/xlink">
<g id="graph0" class="graph" transform="scale(1 1) rotate(0) translate(4 230)">
<title>Exception::FMTquietexceptionhandler</title>
<!-- Node1 -->
<g id="node1" class="node">
<title>Node1</title>
<g id="a_node1"><a xlink:title=" ">
<polygon fill="#999999" stroke="#666666" points="1574.5,-101 1395,-101 1395,-81 1574.5,-81 1574.5,-101"/>
<text text-anchor="middle" x="1484.75" y="-87.5" font-family="Helvetica,sans-Serif" font-size="10.00">Exception::FMTquietexceptionhandler</text>
</a>
</g>
</g>
<!-- Node2 -->
<g id="node2" class="node">
<title>Node2</title>
<g id="a_node2"><a xlink:href="classException_1_1FMTexceptionhandler.html" target="_top" xlink:title=" ">
<polygon fill="white" stroke="#666666" points="1358,-101 1199.5,-101 1199.5,-81 1358,-81 1358,-101"/>
<text text-anchor="middle" x="1278.75" y="-87.5" font-family="Helvetica,sans-Serif" font-size="10.00">Exception::FMTexceptionhandler</text>
</a>
</g>
</g>
<!-- Node2&#45;&gt;Node1 -->
<g id="edge1" class="edge">
<title>Node2&#45;&gt;Node1</title>
<path fill="none" stroke="#63b8ff" d="M1369.59,-91C1377.92,-91 1386.36,-91 1394.67,-91"/>
<polygon fill="#63b8ff" stroke="#63b8ff" points="1369.84,-87.5 1359.84,-91 1369.84,-94.5 1369.84,-87.5"/>
</g>
<!-- Node3 -->
<g id="node3" class="node">
<title>Node3</title>
<g id="a_node3"><a xlink:title=" ">
<polygon fill="white" stroke="#666666" points="1065.25,-182 941.25,-182 941.25,-150 1065.25,-150 1065.25,-182"/>
<text text-anchor="start" x="949.25" y="-168.5" font-family="Helvetica,sans-Serif" font-size="10.00">std::shared_ptr&lt; Logging</text>
<text text-anchor="middle" x="1003.25" y="-156.5" font-family="Helvetica,sans-Serif" font-size="10.00">::FMTlogger &gt;</text>
</a>
</g>
</g>
<!-- Node3&#45;&gt;Node2 -->
<g id="edge2" class="edge">
<title>Node3&#45;&gt;Node2</title>
<path fill="none" stroke="#9a32cd" stroke-dasharray="5,2" d="M1076.55,-151.2C1108.88,-144.09 1147.32,-134.96 1181.5,-125 1205.15,-118.11 1231.49,-108.68 1250.63,-101.5"/>
<polygon fill="#9a32cd" stroke="#9a32cd" points="1075.9,-147.76 1066.87,-153.31 1077.39,-154.6 1075.9,-147.76"/>
<text text-anchor="middle" x="1132.38" y="-152.5" font-family="Helvetica,sans-Serif" font-size="10.00"> _logger</text>
</g>
<!-- Node4 -->
<g id="node4" class="node">
<title>Node4</title>
<g id="a_node4"><a xlink:href="classLogging_1_1FMTlogger.html" target="_top" xlink:title=" ">
<polygon fill="white" stroke="#666666" points="891,-176 789.5,-176 789.5,-156 891,-156 891,-176"/>
<text text-anchor="middle" x="840.25" y="-162.5" font-family="Helvetica,sans-Serif" font-size="10.00">Logging::FMTlogger</text>
</a>
</g>
</g>
<!-- Node4&#45;&gt;Node3 -->
<g id="edge3" class="edge">
<title>Node4&#45;&gt;Node3</title>
<path fill="none" stroke="#9a32cd" stroke-dasharray="5,2" d="M902.6,-166C915.14,-166 928.34,-166 940.88,-166"/>
<polygon fill="#9a32cd" stroke="#9a32cd" points="902.82,-162.5 892.82,-166 902.82,-169.5 902.82,-162.5"/>
<text text-anchor="middle" x="916.12" y="-168.5" font-family="Helvetica,sans-Serif" font-size="10.00"> ptr</text>
</g>
<!-- Node5 -->
<g id="node5" class="node">
<title>Node5</title>
<g id="a_node5"><a xlink:title=" ">
<polygon fill="white" stroke="#666666" points="708.5,-226 585.25,-226 585.25,-194 708.5,-194 708.5,-226"/>
<text text-anchor="start" x="593.25" y="-212.5" font-family="Helvetica,sans-Serif" font-size="10.00">std::unique_ptr&lt; Logging</text>
<text text-anchor="middle" x="646.88" y="-200.5" font-family="Helvetica,sans-Serif" font-size="10.00">::FMTsolverlogger &gt;</text>
</a>
</g>
</g>
<!-- Node5&#45;&gt;Node4 -->
<g id="edge4" class="edge">
<title>Node5&#45;&gt;Node4</title>
<path fill="none" stroke="#9a32cd" stroke-dasharray="5,2" d="M719.85,-193.81C736.8,-189.97 754.79,-185.86 771.5,-182 779.15,-180.23 787.29,-178.33 795.17,-176.47"/>
<polygon fill="#9a32cd" stroke="#9a32cd" points="719.35,-190.34 710.37,-195.96 720.9,-197.17 719.35,-190.34"/>
<text text-anchor="middle" x="749" y="-194.5" font-family="Helvetica,sans-Serif" font-size="10.00"> solverref</text>
</g>
<!-- Node6 -->
<g id="node6" class="node">
<title>Node6</title>
<g id="a_node6"><a xlink:href="classLogging_1_1FMTsolverlogger.html" target="_top" xlink:title=" ">
<polygon fill="white" stroke="#666666" points="535,-220 408.75,-220 408.75,-200 535,-200 535,-220"/>
<text text-anchor="middle" x="471.88" y="-206.5" font-family="Helvetica,sans-Serif" font-size="10.00">Logging::FMTsolverlogger</text>
</a>
</g>
</g>
<!-- Node6&#45;&gt;Node5 -->
<g id="edge5" class="edge">
<title>Node6&#45;&gt;Node5</title>
<path fill="none" stroke="#9a32cd" stroke-dasharray="5,2" d="M546.48,-210C559.3,-210 572.52,-210 584.96,-210"/>
<polygon fill="#9a32cd" stroke="#9a32cd" points="546.85,-206.5 536.85,-210 546.85,-213.5 546.85,-206.5"/>
<text text-anchor="middle" x="560.12" y="-212.5" font-family="Helvetica,sans-Serif" font-size="10.00"> ptr</text>
</g>
<!-- Node7 -->
<g id="node7" class="node">
<title>Node7</title>
<g id="a_node7"><a xlink:title=" ">
<polygon fill="white" stroke="#666666" points="371.75,-220 263.5,-220 263.5,-200 371.75,-200 371.75,-220"/>
<text text-anchor="middle" x="317.62" y="-206.5" font-family="Helvetica,sans-Serif" font-size="10.00">CoinMessageHandler</text>
</a>
</g>
</g>
<!-- Node7&#45;&gt;Node6 -->
<g id="edge6" class="edge">
<title>Node7&#45;&gt;Node6</title>
<path fill="none" stroke="#63b8ff" d="M383.37,-210C391.61,-210 400.04,-210 408.25,-210"/>
<polygon fill="#63b8ff" stroke="#63b8ff" points="383.39,-206.5 373.39,-210 383.39,-213.5 383.39,-206.5"/>
</g>
<!-- Node8 -->
<g id="node8" class="node">
<title>Node8</title>
<g id="a_node8"><a xlink:title=" ">
<polygon fill="white" stroke="#666666" points="676.62,-176 617.12,-176 617.12,-156 676.62,-156 676.62,-176"/>
<text text-anchor="middle" x="646.88" y="-162.5" font-family="Helvetica,sans-Serif" font-size="10.00">std::string</text>
</a>
</g>
</g>
<!-- Node8&#45;&gt;Node4 -->
<g id="edge7" class="edge">
<title>Node8&#45;&gt;Node4</title>
<path fill="none" stroke="#9a32cd" stroke-dasharray="5,2" d="M688.43,-166C717.78,-166 757.65,-166 789.02,-166"/>
<polygon fill="#9a32cd" stroke="#9a32cd" points="688.45,-162.5 678.45,-166 688.45,-169.5 688.45,-162.5"/>
<text text-anchor="middle" x="749" y="-168.5" font-family="Helvetica,sans-Serif" font-size="10.00"> filepath</text>
</g>
<!-- Node9 -->
<g id="node9" class="node">
<title>Node9</title>
<g id="a_node9"><a xlink:title=" ">
<polygon fill="white" stroke="#666666" points="518.88,-182 424.88,-182 424.88,-150 518.88,-150 518.88,-182"/>
<text text-anchor="start" x="432.88" y="-168.5" font-family="Helvetica,sans-Serif" font-size="10.00">std::basic_string&lt;</text>
<text text-anchor="middle" x="471.88" y="-156.5" font-family="Helvetica,sans-Serif" font-size="10.00"> Char &gt;</text>
</a>
</g>
</g>
<!-- Node9&#45;&gt;Node8 -->
<g id="edge8" class="edge">
<title>Node9&#45;&gt;Node8</title>
<path fill="none" stroke="#63b8ff" d="M530.47,-166C559.43,-166 593.26,-166 616.78,-166"/>
<polygon fill="#63b8ff" stroke="#63b8ff" points="530.75,-162.5 520.75,-166 530.75,-169.5 530.75,-162.5"/>
</g>
<!-- Node10 -->
<g id="node10" class="node">
<title>Node10</title>
<g id="a_node10"><a xlink:title=" ">
<polygon fill="white" stroke="#666666" points="683.38,-135 610.38,-135 610.38,-115 683.38,-115 683.38,-135"/>
<text text-anchor="middle" x="646.88" y="-121.5" font-family="Helvetica,sans-Serif" font-size="10.00">std::ofstream</text>
</a>
</g>
</g>
<!-- Node10&#45;&gt;Node4 -->
<g id="edge9" class="edge">
<title>Node10&#45;&gt;Node4</title>
<path fill="none" stroke="#9a32cd" stroke-dasharray="5,2" d="M694.88,-134.13C718,-138.72 746.25,-144.47 771.5,-150 779.41,-151.73 787.82,-153.66 795.93,-155.55"/>
<polygon fill="#9a32cd" stroke="#9a32cd" points="695.62,-130.71 685.13,-132.21 694.26,-137.58 695.62,-130.71"/>
<text text-anchor="middle" x="749" y="-152.5" font-family="Helvetica,sans-Serif" font-size="10.00"> filestream</text>
</g>
<!-- Node11 -->
<g id="node11" class="node">
<title>Node11</title>
<g id="a_node11"><a xlink:title=" ">
<polygon fill="white" stroke="#666666" points="522.62,-132 421.12,-132 421.12,-100 522.62,-100 522.62,-132"/>
<text text-anchor="start" x="429.12" y="-118.5" font-family="Helvetica,sans-Serif" font-size="10.00">std::basic_ofstream</text>
<text text-anchor="middle" x="471.88" y="-106.5" font-family="Helvetica,sans-Serif" font-size="10.00">&lt; Char &gt;</text>
</a>
</g>
</g>
<!-- Node11&#45;&gt;Node10 -->
<g id="edge10" class="edge">
<title>Node11&#45;&gt;Node10</title>
<path fill="none" stroke="#63b8ff" d="M534.3,-119.2C559.63,-120.51 588.11,-121.99 609.96,-123.13"/>
<polygon fill="#63b8ff" stroke="#63b8ff" points="534.59,-115.71 524.43,-118.68 534.23,-122.7 534.59,-115.71"/>
</g>
<!-- Node12 -->
<g id="node12" class="node">
<title>Node12</title>
<g id="a_node12"><a xlink:title=" ">
<polygon fill="white" stroke="#666666" points="367.25,-132 268,-132 268,-100 367.25,-100 367.25,-132"/>
<text text-anchor="start" x="276" y="-118.5" font-family="Helvetica,sans-Serif" font-size="10.00">std::basic_ostream</text>
<text text-anchor="middle" x="317.62" y="-106.5" font-family="Helvetica,sans-Serif" font-size="10.00">&lt; Char &gt;</text>
</a>
</g>
</g>
<!-- Node12&#45;&gt;Node11 -->
<g id="edge11" class="edge">
<title>Node12&#45;&gt;Node11</title>
<path fill="none" stroke="#63b8ff" d="M379.01,-116C392.81,-116 407.33,-116 420.65,-116"/>
<polygon fill="#63b8ff" stroke="#63b8ff" points="379.15,-112.5 369.15,-116 379.15,-119.5 379.15,-112.5"/>
</g>
<!-- Node13 -->
<g id="node13" class="node">
<title>Node13</title>
<g id="a_node13"><a xlink:title=" ">
<polygon fill="white" stroke="#666666" points="226.5,-126 111.5,-126 111.5,-106 226.5,-106 226.5,-126"/>
<text text-anchor="middle" x="169" y="-112.5" font-family="Helvetica,sans-Serif" font-size="10.00">std::basic_ios&lt; Char &gt;</text>
</a>
</g>
</g>
<!-- Node13&#45;&gt;Node12 -->
<g id="edge12" class="edge">
<title>Node13&#45;&gt;Node12</title>
<path fill="none" stroke="#63b8ff" d="M237.93,-116C247.98,-116 258.16,-116 267.72,-116"/>
<polygon fill="#63b8ff" stroke="#63b8ff" points="238.2,-112.5 228.2,-116 238.2,-119.5 238.2,-112.5"/>
</g>
<!-- Node14 -->
<g id="node14" class="node">
<title>Node14</title>
<g id="a_node14"><a xlink:title=" ">
<polygon fill="white" stroke="#666666" points="74.5,-126 0,-126 0,-106 74.5,-106 74.5,-126"/>
<text text-anchor="middle" x="37.25" y="-112.5" font-family="Helvetica,sans-Serif" font-size="10.00">std::ios_base</text>
</a>
</g>
</g>
<!-- Node14&#45;&gt;Node13 -->
<g id="edge13" class="edge">
<title>Node14&#45;&gt;Node13</title>
<path fill="none" stroke="#63b8ff" d="M86.07,-116C94.32,-116 102.96,-116 111.41,-116"/>
<polygon fill="#63b8ff" stroke="#63b8ff" points="86.25,-112.5 76.25,-116 86.25,-119.5 86.25,-112.5"/>
</g>
<!-- Node15 -->
<g id="node15" class="node">
<title>Node15</title>
<g id="a_node15"><a xlink:title=" ">
<polygon fill="white" stroke="#666666" points="1060,-132 946.5,-132 946.5,-100 1060,-100 1060,-132"/>
<text text-anchor="start" x="954.5" y="-118.5" font-family="Helvetica,sans-Serif" font-size="10.00">std::vector&lt; Exception</text>
<text text-anchor="middle" x="1003.25" y="-106.5" font-family="Helvetica,sans-Serif" font-size="10.00">::FMTexc &gt;</text>
</a>
</g>
</g>
<!-- Node15&#45;&gt;Node2 -->
<g id="edge14" class="edge">
<title>Node15&#45;&gt;Node2</title>
<path fill="none" stroke="#9a32cd" stroke-dasharray="5,2" d="M1071.37,-109.86C1109.95,-106.34 1158.62,-101.89 1199.01,-98.2"/>
<polygon fill="#9a32cd" stroke="#9a32cd" points="1071.4,-106.35 1061.76,-110.74 1072.04,-113.32 1071.4,-106.35"/>
<text text-anchor="middle" x="1132.38" y="-111.5" font-family="Helvetica,sans-Serif" font-size="10.00"> errorstowarnings</text>
</g>
<!-- Node16 -->
<g id="node16" class="node">
<title>Node16</title>
<g id="a_node16"><a xlink:title=" ">
<polygon fill="white" stroke="#666666" points="1060.75,-82 945.75,-82 945.75,-50 1060.75,-50 1060.75,-82"/>
<text text-anchor="start" x="953.75" y="-68.5" font-family="Helvetica,sans-Serif" font-size="10.00">std::set&lt; boost::thread</text>
<text text-anchor="middle" x="1003.25" y="-56.5" font-family="Helvetica,sans-Serif" font-size="10.00">::id &gt;</text>
</a>
</g>
</g>
<!-- Node16&#45;&gt;Node2 -->
<g id="edge15" class="edge">
<title>Node16&#45;&gt;Node2</title>
<path fill="none" stroke="#9a32cd" stroke-dasharray="5,2" d="M1072.02,-72.19C1110.53,-75.72 1158.94,-80.14 1199.12,-83.81"/>
<polygon fill="#9a32cd" stroke="#9a32cd" points="1072.7,-68.74 1062.43,-71.32 1072.07,-75.71 1072.7,-68.74"/>
<text text-anchor="middle" x="1132.38" y="-85.5" font-family="Helvetica,sans-Serif" font-size="10.00"> registered_threads</text>
</g>
<!-- Node17 -->
<g id="node17" class="node">
<title>Node17</title>
<g id="a_node17"><a xlink:title=" ">
<polygon fill="white" stroke="#666666" points="1054.38,-32 952.12,-32 952.12,0 1054.38,0 1054.38,-32"/>
<text text-anchor="start" x="960.12" y="-18.5" font-family="Helvetica,sans-Serif" font-size="10.00">std::unordered_map</text>
<text text-anchor="middle" x="1003.25" y="-6.5" font-family="Helvetica,sans-Serif" font-size="10.00">&lt; int, size_t &gt;</text>
</a>
</g>
</g>
<!-- Node17&#45;&gt;Node2 -->
<g id="edge16" class="edge">
<title>Node17&#45;&gt;Node2</title>
<path fill="none" stroke="#9a32cd" stroke-dasharray="5,2" d="M1065.44,-28.95C1099.77,-36.6 1143.26,-46.94 1181.5,-58 1204.75,-64.72 1230.68,-73.7 1249.76,-80.6"/>
<polygon fill="#9a32cd" stroke="#9a32cd" points="1066.63,-25.63 1056.11,-26.89 1065.12,-32.47 1066.63,-25.63"/>
<text text-anchor="middle" x="1132.38" y="-60.5" font-family="Helvetica,sans-Serif" font-size="10.00"> _specificwarningcount</text>
</g>
</g>
</svg>
