<?xml version="1.0" encoding="UTF-8" standalone="no"?>
<!DOCTYPE svg PUBLIC "-//W3C//DTD SVG 1.1//EN"
 "http://www.w3.org/Graphics/SVG/1.1/DTD/svg11.dtd">
<!-- Generated by graphviz version 10.0.1 (20240210.2158)
 -->
<!-- Title: Core::FMTconstants Pages: 1 -->
<!--zoomable 240 -->
<svg id="main" version="1.1" xmlns="http://www.w3.org/2000/svg" xmlns:xlink="http://www.w3.org/1999/xlink" xml:space="preserve" onload="init(evt)">
<style type="text/css"><![CDATA[
.edge:hover path { stroke: red; }
.edge:hover polygon { stroke: red; fill: red; }
]]></style>
<script type="text/javascript"><![CDATA[
var edges = document.getElementsByTagName('g');
if (edges && edges.length) {
  for (var i=0;i<edges.length;i++) {
    if (edges[i].id.substr(0,4)=='edge') {
      edges[i].setAttribute('class','edge');
    }
  }
}
]]></script>
        <defs>
                <circle id="rim" cx="0" cy="0" r="7"/>
                <circle id="rim2" cx="0" cy="0" r="3.5"/>
                <g id="zoomPlus">
                        <use xlink:href="#rim" fill="#404040">
                                <set attributeName="fill" to="#808080" begin="zoomplus.mouseover" end="zoomplus.mouseout"/>
                        </use>
                        <path d="M-4,0h8M0,-4v8" fill="none" stroke="white" stroke-width="1.5" pointer-events="none"/>
                </g>
                <g id="zoomMin">
                        <use xlink:href="#rim" fill="#404040">
                                <set attributeName="fill" to="#808080" begin="zoomminus.mouseover" end="zoomminus.mouseout"/>
                        </use>
                        <path d="M-4,0h8" fill="none" stroke="white" stroke-width="1.5" pointer-events="none"/>
                </g>
                <g id="dirArrow">
                        <path fill="none" stroke="white" stroke-width="1.5" d="M0,-3.0v7 M-2.5,-0.5L0,-3.0L2.5,-0.5"/>
                </g>
               <g id="resetDef">
                       <use xlink:href="#rim2" fill="#404040">
                               <set attributeName="fill" to="#808080" begin="reset.mouseover" end="reset.mouseout"/>
                       </use>
               </g>
        </defs>

<script type="text/javascript">
var viewWidth = 1886;
var viewHeight = 240;
var sectionId = 'dynsection-1';
</script>
<script xlink:href="svgpan.js"/>
<svg id="graph" class="graph">
<g id="viewport">
<title>Core::FMTconstants</title>
<!-- Node1 -->
<g id="node1" class="node">
<title>Node1</title>
<g id="a_node1"><a xlink:title=" ">
<polygon fill="#999999" stroke="#666666" points="1878,-163 1773.5,-163 1773.5,-143 1878,-143 1878,-163"/>
<text text-anchor="middle" x="1825.75" y="-149.5" font-family="Helvetica,sans-Serif" font-size="10.00">Core::FMTconstants</text>
</a>
</g>
</g>
<!-- Node2 -->
<g id="node2" class="node">
<title>Node2</title>
<g id="a_node2"><a xlink:href="classCore_1_1FMTobject.html" target="_top" xlink:title=" ">
<polygon fill="white" stroke="#666666" points="1736.5,-163 1648.5,-163 1648.5,-143 1736.5,-143 1736.5,-163"/>
<text text-anchor="middle" x="1692.5" y="-149.5" font-family="Helvetica,sans-Serif" font-size="10.00">Core::FMTobject</text>
</a>
</g>
</g>
<!-- Node2&#45;&gt;Node1 -->
<g id="edge1" class="edge">
<title>Node2&#45;&gt;Node1</title>
<path fill="none" stroke="#63b8ff" d="M1748.3,-153C1756.56,-153 1765.06,-153 1773.24,-153"/>
<polygon fill="#63b8ff" stroke="#63b8ff" points="1748.35,-149.5 1738.35,-153 1748.35,-156.5 1748.35,-149.5"/>
</g>
<!-- Node3 -->
<g id="node3" class="node">
<title>Node3</title>
<g id="a_node3"><a xlink:title=" ">
<polygon fill="white" stroke="#666666" points="1562.25,-143 1428.5,-143 1428.5,-111 1562.25,-111 1562.25,-143"/>
<text text-anchor="start" x="1436.5" y="-129.5" font-family="Helvetica,sans-Serif" font-size="10.00">std::shared_ptr&lt; Exception</text>
<text text-anchor="middle" x="1495.38" y="-117.5" font-family="Helvetica,sans-Serif" font-size="10.00">::FMTexceptionhandler &gt;</text>
</a>
</g>
</g>
<!-- Node3&#45;&gt;Node2 -->
<g id="edge2" class="edge">
<title>Node3&#45;&gt;Node2</title>
<path fill="none" stroke="#9a32cd" stroke-dasharray="5,2" d="M1574.11,-137.36C1599.27,-140.71 1626.27,-144.31 1648.02,-147.21"/>
<polygon fill="#9a32cd" stroke="#9a32cd" points="1574.58,-133.89 1564.21,-136.04 1573.66,-140.83 1574.58,-133.89"/>
<text text-anchor="middle" x="1605.38" y="-147.5" font-family="Helvetica,sans-Serif" font-size="10.00"> _exhandler</text>
</g>
<!-- Node4 -->
<g id="node4" class="node">
<title>Node4</title>
<g id="a_node4"><a xlink:href="classException_1_1FMTexceptionhandler.html" target="_top" xlink:title=" ">
<polygon fill="white" stroke="#666666" points="1358,-123 1199.5,-123 1199.5,-103 1358,-103 1358,-123"/>
<text text-anchor="middle" x="1278.75" y="-109.5" font-family="Helvetica,sans-Serif" font-size="10.00">Exception::FMTexceptionhandler</text>
</a>
</g>
</g>
<!-- Node4&#45;&gt;Node3 -->
<g id="edge3" class="edge">
<title>Node4&#45;&gt;Node3</title>
<path fill="none" stroke="#9a32cd" stroke-dasharray="5,2" d="M1369.83,-118.88C1389.34,-120.15 1409.63,-121.47 1428.03,-122.67"/>
<polygon fill="#9a32cd" stroke="#9a32cd" points="1370.17,-115.39 1359.96,-118.23 1369.71,-122.38 1370.17,-115.39"/>
<text text-anchor="middle" x="1393.25" y="-124.5" font-family="Helvetica,sans-Serif" font-size="10.00"> ptr</text>
</g>
<!-- Node5 -->
<g id="node5" class="node">
<title>Node5</title>
<g id="a_node5"><a xlink:title=" ">
<polygon fill="white" stroke="#666666" points="1065.25,-188 941.25,-188 941.25,-156 1065.25,-156 1065.25,-188"/>
<text text-anchor="start" x="949.25" y="-174.5" font-family="Helvetica,sans-Serif" font-size="10.00">std::shared_ptr&lt; Logging</text>
<text text-anchor="middle" x="1003.25" y="-162.5" font-family="Helvetica,sans-Serif" font-size="10.00">::FMTlogger &gt;</text>
</a>
</g>
</g>
<!-- Node5&#45;&gt;Node2 -->
<g id="edge19" class="edge">
<title>Node5&#45;&gt;Node2</title>
<path fill="none" stroke="#9a32cd" stroke-dasharray="5,2" d="M1076.96,-173.38C1193.81,-175 1430.57,-175.82 1630.5,-161 1636.25,-160.57 1642.29,-159.97 1648.24,-159.29"/>
<polygon fill="#9a32cd" stroke="#9a32cd" points="1077.25,-169.88 1067.2,-173.24 1077.15,-176.88 1077.25,-169.88"/>
<text text-anchor="middle" x="1393.25" y="-174.5" font-family="Helvetica,sans-Serif" font-size="10.00"> _logger</text>
</g>
<!-- Node5&#45;&gt;Node4 -->
<g id="edge4" class="edge">
<title>Node5&#45;&gt;Node4</title>
<path fill="none" stroke="#9a32cd" stroke-dasharray="5,2" d="M1069.13,-152.55C1073.89,-151.29 1078.64,-150.1 1083.25,-149 1125.85,-138.88 1174.26,-129.91 1212.13,-123.46"/>
<polygon fill="#9a32cd" stroke="#9a32cd" points="1068.22,-149.17 1059.49,-155.16 1070.06,-155.92 1068.22,-149.17"/>
<text text-anchor="middle" x="1132.38" y="-151.5" font-family="Helvetica,sans-Serif" font-size="10.00"> _logger</text>
</g>
<!-- Node6 -->
<g id="node6" class="node">
<title>Node6</title>
<g id="a_node6"><a xlink:href="classLogging_1_1FMTlogger.html" target="_top" xlink:title=" ">
<polygon fill="white" stroke="#666666" points="891,-182 789.5,-182 789.5,-162 891,-162 891,-182"/>
<text text-anchor="middle" x="840.25" y="-168.5" font-family="Helvetica,sans-Serif" font-size="10.00">Logging::FMTlogger</text>
</a>
</g>
</g>
<!-- Node6&#45;&gt;Node5 -->
<g id="edge5" class="edge">
<title>Node6&#45;&gt;Node5</title>
<path fill="none" stroke="#9a32cd" stroke-dasharray="5,2" d="M902.6,-172C915.14,-172 928.34,-172 940.88,-172"/>
<polygon fill="#9a32cd" stroke="#9a32cd" points="902.82,-168.5 892.82,-172 902.82,-175.5 902.82,-168.5"/>
<text text-anchor="middle" x="916.12" y="-174.5" font-family="Helvetica,sans-Serif" font-size="10.00"> ptr</text>
</g>
<!-- Node7 -->
<g id="node7" class="node">
<title>Node7</title>
<g id="a_node7"><a xlink:title=" ">
<polygon fill="white" stroke="#666666" points="708.5,-232 585.25,-232 585.25,-200 708.5,-200 708.5,-232"/>
<text text-anchor="start" x="593.25" y="-218.5" font-family="Helvetica,sans-Serif" font-size="10.00">std::unique_ptr&lt; Logging</text>
<text text-anchor="middle" x="646.88" y="-206.5" font-family="Helvetica,sans-Serif" font-size="10.00">::FMTsolverlogger &gt;</text>
</a>
</g>
</g>
<!-- Node7&#45;&gt;Node6 -->
<g id="edge6" class="edge">
<title>Node7&#45;&gt;Node6</title>
<path fill="none" stroke="#9a32cd" stroke-dasharray="5,2" d="M719.85,-199.81C736.8,-195.97 754.79,-191.86 771.5,-188 779.15,-186.23 787.29,-184.33 795.17,-182.47"/>
<polygon fill="#9a32cd" stroke="#9a32cd" points="719.35,-196.34 710.37,-201.96 720.9,-203.17 719.35,-196.34"/>
<text text-anchor="middle" x="749" y="-200.5" font-family="Helvetica,sans-Serif" font-size="10.00"> solverref</text>
</g>
<!-- Node8 -->
<g id="node8" class="node">
<title>Node8</title>
<g id="a_node8"><a xlink:href="classLogging_1_1FMTsolverlogger.html" target="_top" xlink:title=" ">
<polygon fill="white" stroke="#666666" points="535,-226 408.75,-226 408.75,-206 535,-206 535,-226"/>
<text text-anchor="middle" x="471.88" y="-212.5" font-family="Helvetica,sans-Serif" font-size="10.00">Logging::FMTsolverlogger</text>
</a>
</g>
</g>
<!-- Node8&#45;&gt;Node7 -->
<g id="edge7" class="edge">
<title>Node8&#45;&gt;Node7</title>
<path fill="none" stroke="#9a32cd" stroke-dasharray="5,2" d="M546.48,-216C559.3,-216 572.52,-216 584.96,-216"/>
<polygon fill="#9a32cd" stroke="#9a32cd" points="546.85,-212.5 536.85,-216 546.85,-219.5 546.85,-212.5"/>
<text text-anchor="middle" x="560.12" y="-218.5" font-family="Helvetica,sans-Serif" font-size="10.00"> ptr</text>
</g>
<!-- Node9 -->
<g id="node9" class="node">
<title>Node9</title>
<g id="a_node9"><a xlink:title=" ">
<polygon fill="white" stroke="#666666" points="371.75,-226 263.5,-226 263.5,-206 371.75,-206 371.75,-226"/>
<text text-anchor="middle" x="317.62" y="-212.5" font-family="Helvetica,sans-Serif" font-size="10.00">CoinMessageHandler</text>
</a>
</g>
</g>
<!-- Node9&#45;&gt;Node8 -->
<g id="edge8" class="edge">
<title>Node9&#45;&gt;Node8</title>
<path fill="none" stroke="#63b8ff" d="M383.37,-216C391.61,-216 400.04,-216 408.25,-216"/>
<polygon fill="#63b8ff" stroke="#63b8ff" points="383.39,-212.5 373.39,-216 383.39,-219.5 383.39,-212.5"/>
</g>
<!-- Node10 -->
<g id="node10" class="node">
<title>Node10</title>
<g id="a_node10"><a xlink:title=" ">
<polygon fill="white" stroke="#666666" points="676.62,-182 617.12,-182 617.12,-162 676.62,-162 676.62,-182"/>
<text text-anchor="middle" x="646.88" y="-168.5" font-family="Helvetica,sans-Serif" font-size="10.00">std::string</text>
</a>
</g>
</g>
<!-- Node10&#45;&gt;Node6 -->
<g id="edge9" class="edge">
<title>Node10&#45;&gt;Node6</title>
<path fill="none" stroke="#9a32cd" stroke-dasharray="5,2" d="M688.43,-172C717.78,-172 757.65,-172 789.02,-172"/>
<polygon fill="#9a32cd" stroke="#9a32cd" points="688.45,-168.5 678.45,-172 688.45,-175.5 688.45,-168.5"/>
<text text-anchor="middle" x="749" y="-174.5" font-family="Helvetica,sans-Serif" font-size="10.00"> filepath</text>
</g>
<!-- Node11 -->
<g id="node11" class="node">
<title>Node11</title>
<g id="a_node11"><a xlink:title=" ">
<polygon fill="white" stroke="#666666" points="518.88,-188 424.88,-188 424.88,-156 518.88,-156 518.88,-188"/>
<text text-anchor="start" x="432.88" y="-174.5" font-family="Helvetica,sans-Serif" font-size="10.00">std::basic_string&lt;</text>
<text text-anchor="middle" x="471.88" y="-162.5" font-family="Helvetica,sans-Serif" font-size="10.00"> Char &gt;</text>
</a>
</g>
</g>
<!-- Node11&#45;&gt;Node10 -->
<g id="edge10" class="edge">
<title>Node11&#45;&gt;Node10</title>
<path fill="none" stroke="#63b8ff" d="M530.47,-172C559.43,-172 593.26,-172 616.78,-172"/>
<polygon fill="#63b8ff" stroke="#63b8ff" points="530.75,-168.5 520.75,-172 530.75,-175.5 530.75,-168.5"/>
</g>
<!-- Node12 -->
<g id="node12" class="node">
<title>Node12</title>
<g id="a_node12"><a xlink:title=" ">
<polygon fill="white" stroke="#666666" points="683.38,-141 610.38,-141 610.38,-121 683.38,-121 683.38,-141"/>
<text text-anchor="middle" x="646.88" y="-127.5" font-family="Helvetica,sans-Serif" font-size="10.00">std::ofstream</text>
</a>
</g>
</g>
<!-- Node12&#45;&gt;Node6 -->
<g id="edge11" class="edge">
<title>Node12&#45;&gt;Node6</title>
<path fill="none" stroke="#9a32cd" stroke-dasharray="5,2" d="M694.88,-140.13C718,-144.72 746.25,-150.47 771.5,-156 779.41,-157.73 787.82,-159.66 795.93,-161.55"/>
<polygon fill="#9a32cd" stroke="#9a32cd" points="695.62,-136.71 685.13,-138.21 694.26,-143.58 695.62,-136.71"/>
<text text-anchor="middle" x="749" y="-158.5" font-family="Helvetica,sans-Serif" font-size="10.00"> filestream</text>
</g>
<!-- Node13 -->
<g id="node13" class="node">
<title>Node13</title>
<g id="a_node13"><a xlink:title=" ">
<polygon fill="white" stroke="#666666" points="522.62,-138 421.12,-138 421.12,-106 522.62,-106 522.62,-138"/>
<text text-anchor="start" x="429.12" y="-124.5" font-family="Helvetica,sans-Serif" font-size="10.00">std::basic_ofstream</text>
<text text-anchor="middle" x="471.88" y="-112.5" font-family="Helvetica,sans-Serif" font-size="10.00">&lt; Char &gt;</text>
</a>
</g>
</g>
<!-- Node13&#45;&gt;Node12 -->
<g id="edge12" class="edge">
<title>Node13&#45;&gt;Node12</title>
<path fill="none" stroke="#63b8ff" d="M534.3,-125.2C559.63,-126.51 588.11,-127.99 609.96,-129.13"/>
<polygon fill="#63b8ff" stroke="#63b8ff" points="534.59,-121.71 524.43,-124.68 534.23,-128.7 534.59,-121.71"/>
</g>
<!-- Node14 -->
<g id="node14" class="node">
<title>Node14</title>
<g id="a_node14"><a xlink:title=" ">
<polygon fill="white" stroke="#666666" points="367.25,-138 268,-138 268,-106 367.25,-106 367.25,-138"/>
<text text-anchor="start" x="276" y="-124.5" font-family="Helvetica,sans-Serif" font-size="10.00">std::basic_ostream</text>
<text text-anchor="middle" x="317.62" y="-112.5" font-family="Helvetica,sans-Serif" font-size="10.00">&lt; Char &gt;</text>
</a>
</g>
</g>
<!-- Node14&#45;&gt;Node13 -->
<g id="edge13" class="edge">
<title>Node14&#45;&gt;Node13</title>
<path fill="none" stroke="#63b8ff" d="M379.01,-122C392.81,-122 407.33,-122 420.65,-122"/>
<polygon fill="#63b8ff" stroke="#63b8ff" points="379.15,-118.5 369.15,-122 379.15,-125.5 379.15,-118.5"/>
</g>
<!-- Node15 -->
<g id="node15" class="node">
<title>Node15</title>
<g id="a_node15"><a xlink:title=" ">
<polygon fill="white" stroke="#666666" points="226.5,-132 111.5,-132 111.5,-112 226.5,-112 226.5,-132"/>
<text text-anchor="middle" x="169" y="-118.5" font-family="Helvetica,sans-Serif" font-size="10.00">std::basic_ios&lt; Char &gt;</text>
</a>
</g>
</g>
<!-- Node15&#45;&gt;Node14 -->
<g id="edge14" class="edge">
<title>Node15&#45;&gt;Node14</title>
<path fill="none" stroke="#63b8ff" d="M237.93,-122C247.98,-122 258.16,-122 267.72,-122"/>
<polygon fill="#63b8ff" stroke="#63b8ff" points="238.2,-118.5 228.2,-122 238.2,-125.5 238.2,-118.5"/>
</g>
<!-- Node16 -->
<g id="node16" class="node">
<title>Node16</title>
<g id="a_node16"><a xlink:title=" ">
<polygon fill="white" stroke="#666666" points="74.5,-132 0,-132 0,-112 74.5,-112 74.5,-132"/>
<text text-anchor="middle" x="37.25" y="-118.5" font-family="Helvetica,sans-Serif" font-size="10.00">std::ios_base</text>
</a>
</g>
</g>
<!-- Node16&#45;&gt;Node15 -->
<g id="edge15" class="edge">
<title>Node16&#45;&gt;Node15</title>
<path fill="none" stroke="#63b8ff" d="M86.07,-122C94.32,-122 102.96,-122 111.41,-122"/>
<polygon fill="#63b8ff" stroke="#63b8ff" points="86.25,-118.5 76.25,-122 86.25,-125.5 86.25,-118.5"/>
</g>
<!-- Node17 -->
<g id="node17" class="node">
<title>Node17</title>
<g id="a_node17"><a xlink:title=" ">
<polygon fill="white" stroke="#666666" points="1060,-132 946.5,-132 946.5,-100 1060,-100 1060,-132"/>
<text text-anchor="start" x="954.5" y="-118.5" font-family="Helvetica,sans-Serif" font-size="10.00">std::vector&lt; Exception</text>
<text text-anchor="middle" x="1003.25" y="-106.5" font-family="Helvetica,sans-Serif" font-size="10.00">::FMTexc &gt;</text>
</a>
</g>
</g>
<!-- Node17&#45;&gt;Node4 -->
<g id="edge16" class="edge">
<title>Node17&#45;&gt;Node4</title>
<path fill="none" stroke="#9a32cd" stroke-dasharray="5,2" d="M1071.55,-114.2C1075.51,-114.13 1079.43,-114.06 1083.25,-114 1121.4,-113.42 1163.77,-113.16 1199.2,-113.04"/>
<polygon fill="#9a32cd" stroke="#9a32cd" points="1071.79,-110.7 1061.86,-114.41 1071.94,-117.7 1071.79,-110.7"/>
<text text-anchor="middle" x="1132.38" y="-116.5" font-family="Helvetica,sans-Serif" font-size="10.00"> errorstowarnings</text>
</g>
<!-- Node18 -->
<g id="node18" class="node">
<title>Node18</title>
<g id="a_node18"><a xlink:title=" ">
<polygon fill="white" stroke="#666666" points="1060.75,-82 945.75,-82 945.75,-50 1060.75,-50 1060.75,-82"/>
<text text-anchor="start" x="953.75" y="-68.5" font-family="Helvetica,sans-Serif" font-size="10.00">std::set&lt; boost::thread</text>
<text text-anchor="middle" x="1003.25" y="-56.5" font-family="Helvetica,sans-Serif" font-size="10.00">::id &gt;</text>
</a>
</g>
</g>
<!-- Node18&#45;&gt;Node4 -->
<g id="edge17" class="edge">
<title>Node18&#45;&gt;Node4</title>
<path fill="none" stroke="#9a32cd" stroke-dasharray="5,2" d="M1072.19,-77.68C1116.56,-85.3 1174,-95.17 1216.88,-102.54"/>
<polygon fill="#9a32cd" stroke="#9a32cd" points="1072.86,-74.24 1062.41,-75.99 1071.67,-81.14 1072.86,-74.24"/>
<text text-anchor="middle" x="1132.38" y="-99.5" font-family="Helvetica,sans-Serif" font-size="10.00"> registered_threads</text>
</g>
<!-- Node19 -->
<g id="node19" class="node">
<title>Node19</title>
<g id="a_node19"><a xlink:title=" ">
<polygon fill="white" stroke="#666666" points="1054.38,-32 952.12,-32 952.12,0 1054.38,0 1054.38,-32"/>
<text text-anchor="start" x="960.12" y="-18.5" font-family="Helvetica,sans-Serif" font-size="10.00">std::unordered_map</text>
<text text-anchor="middle" x="1003.25" y="-6.5" font-family="Helvetica,sans-Serif" font-size="10.00">&lt; int, size_t &gt;</text>
</a>
</g>
</g>
<!-- Node19&#45;&gt;Node4 -->
<g id="edge18" class="edge">
<title>Node19&#45;&gt;Node4</title>
<path fill="none" stroke="#9a32cd" stroke-dasharray="5,2" d="M1065.68,-29.33C1100.26,-37.65 1143.92,-49.52 1181.5,-64 1210.02,-74.99 1241.24,-91.85 1260.16,-102.65"/>
<polygon fill="#9a32cd" stroke="#9a32cd" points="1066.8,-26 1056.27,-27.1 1065.19,-32.81 1066.8,-26"/>
<text text-anchor="middle" x="1132.38" y="-66.5" font-family="Helvetica,sans-Serif" font-size="10.00"> _specificwarningcount</text>
</g>
</g>
</svg>
        <g id="navigator" transform="translate(0 0)" fill="#404254">
                <rect fill="#f2f5e9" fill-opacity="0.5" stroke="#606060" stroke-width=".5" x="0" y="0" width="60" height="60"/>
                <use id="zoomplus" xlink:href="#zoomPlus" x="17" y="9" onmousedown="handleZoom(evt,'in')"/>
                <use id="zoomminus" xlink:href="#zoomMin" x="42" y="9" onmousedown="handleZoom(evt,'out')"/>
                <use id="reset" xlink:href="#resetDef" x="30" y="36" onmousedown="handleReset()"/>
                <g id="arrowUp" xlink:href="#dirArrow" transform="translate(30 24)" onmousedown="handlePan(0,-1)">
                  <use xlink:href="#rim" fill="#404040">
                        <set attributeName="fill" to="#808080" begin="arrowUp.mouseover" end="arrowUp.mouseout"/>
                  </use>
                  <path fill="none" stroke="white" stroke-width="1.5" d="M0,-3.0v7 M-2.5,-0.5L0,-3.0L2.5,-0.5"/>
                </g>
                <g id="arrowRight" xlink:href="#dirArrow" transform="rotate(90) translate(36 -43)" onmousedown="handlePan(1,0)">
                  <use xlink:href="#rim" fill="#404040">
                        <set attributeName="fill" to="#808080" begin="arrowRight.mouseover" end="arrowRight.mouseout"/>
                  </use>
                  <path fill="none" stroke="white" stroke-width="1.5" d="M0,-3.0v7 M-2.5,-0.5L0,-3.0L2.5,-0.5"/>
                </g>
                <g id="arrowDown" xlink:href="#dirArrow" transform="rotate(180) translate(-30 -48)" onmousedown="handlePan(0,1)">
                  <use xlink:href="#rim" fill="#404040">
                        <set attributeName="fill" to="#808080" begin="arrowDown.mouseover" end="arrowDown.mouseout"/>
                  </use>
                  <path fill="none" stroke="white" stroke-width="1.5" d="M0,-3.0v7 M-2.5,-0.5L0,-3.0L2.5,-0.5"/>
                </g>
                <g id="arrowLeft" xlink:href="#dirArrow" transform="rotate(270) translate(-36 17)" onmousedown="handlePan(-1,0)">
                  <use xlink:href="#rim" fill="#404040">
                        <set attributeName="fill" to="#808080" begin="arrowLeft.mouseover" end="arrowLeft.mouseout"/>
                  </use>
                  <path fill="none" stroke="white" stroke-width="1.5" d="M0,-3.0v7 M-2.5,-0.5L0,-3.0L2.5,-0.5"/>
                </g>
        </g>
        <svg viewBox="0 0 15 15" width="100%" height="30px" preserveAspectRatio="xMaxYMin meet">
         <g id="arrow_out" transform="scale(0.3 0.3)">
          <a xlink:href="classCore_1_1FMTconstants__coll__graph_org.svg" target="_base">
           <rect id="button" ry="5" rx="5" y="6" x="6" height="38" width="38"
                fill="#f2f5e9" fill-opacity="0.5" stroke="#606060" stroke-width="1.0"/>
           <path id="arrow"
             d="M 11.500037,31.436501 C 11.940474,20.09759 22.043105,11.32322 32.158766,21.979434 L 37.068811,17.246167 C 37.068811,17.246167 37.088388,32 37.088388,32 L 22.160133,31.978069 C 22.160133,31.978069 26.997745,27.140456 26.997745,27.140456 C 18.528582,18.264221 13.291696,25.230495 11.500037,31.436501 z"
             style="fill:#404040;"/>
          </a>
         </g>
        </svg>
</svg>
