<?xml version="1.0" encoding="UTF-8" standalone="no"?>
<!DOCTYPE svg PUBLIC "-//W3C//DTD SVG 1.1//EN"
 "http://www.w3.org/Graphics/SVG/1.1/DTD/svg11.dtd">
<!-- Generated by graphviz version 8.1.0 (20230707.0739)
 -->
<!-- Title: Logging::FMTlogger Pages: 1 -->
<svg width="373pt" height="371pt"
 viewBox="0.00 0.00 372.62 371.00" xmlns="http://www.w3.org/2000/svg" xmlns:xlink="http://www.w3.org/1999/xlink">

<svg id="main" version="1.1" xmlns="http://www.w3.org/2000/svg" xmlns:xlink="http://www.w3.org/1999/xlink" xml:space="preserve" onload="init(evt)">
<style type="text/css"><![CDATA[
.node, .edge {opacity: 0.7;}
.node.selected, .edge.selected {opacity: 1;}
.edge:hover path { stroke: red; }
.edge:hover polygon { stroke: red; fill: red; }
]]></style>
<script type="application/ecmascript" xlink:href="svg.min.js"/>
<svg id="graph" class="graph">
<g id="graph0" class="graph" transform="scale(1 1) rotate(0) translate(4 367)">
<title>Logging::FMTlogger</title>
<!-- Node1 -->
<g id="Node000001" class="node">
<title>Node1</title>
<g id="a_Node000001"><a xlink:title=" ">
<polygon fill="#999999" stroke="#666666" points="241.88,-20 140.38,-20 140.38,0 241.88,0 241.88,-20"/>
<text text-anchor="middle" x="191.12" y="-6.5" font-family="Helvetica,sans-Serif" font-size="10.00">Logging::FMTlogger</text>
</a>
</g>
</g>
<!-- Node2 -->
<g id="Node000002" class="node">
<title>Node2</title>
<g id="a_Node000002"><a xlink:title=" ">
<polygon fill="white" stroke="#666666" points="138.75,-100 15.5,-100 15.5,-68 138.75,-68 138.75,-100"/>
<text text-anchor="start" x="23.5" y="-86.5" font-family="Helvetica,sans-Serif" font-size="10.00">std::unique_ptr&lt; Logging</text>
<text text-anchor="middle" x="77.12" y="-74.5" font-family="Helvetica,sans-Serif" font-size="10.00">::FMTsolverlogger &gt;</text>
</a>
</g>
</g>
<!-- Node2&#45;&gt;Node1 -->
<g id="edge1_Node000001_Node000002" class="edge">
<title>Node2&#45;&gt;Node1</title>
<g id="a_edge1_Node000001_Node000002"><a xlink:title=" ">
<path fill="none" stroke="#9a32cd" stroke-dasharray="5,2" d="M110.8,-61.73C132.48,-48.04 159.6,-30.91 176.13,-20.47"/>
<polygon fill="#9a32cd" stroke="#9a32cd" points="109.17,-59.26 102.58,-67.55 112.9,-65.17 109.17,-59.26"/>
</a>
</g>
<text text-anchor="middle" x="167.25" y="-40.5" font-family="Helvetica,sans-Serif" font-size="10.00" fill="grey"> solverref</text>
</g>
<!-- Node3 -->
<g id="Node000003" class="node">
<title>Node3</title>
<g id="a_Node000003"><a xlink:href="classLogging_1_1FMTsolverlogger.html" target="_top" xlink:title=" ">
<polygon fill="white" stroke="#666666" points="126.25,-174 0,-174 0,-154 126.25,-154 126.25,-174"/>
<text text-anchor="middle" x="63.12" y="-160.5" font-family="Helvetica,sans-Serif" font-size="10.00">Logging::FMTsolverlogger</text>
</a>
</g>
</g>
<!-- Node3&#45;&gt;Node2 -->
<g id="edge2_Node000002_Node000003" class="edge">
<title>Node3&#45;&gt;Node2</title>
<g id="a_edge2_Node000002_Node000003"><a xlink:title=" ">
<path fill="none" stroke="#9a32cd" stroke-dasharray="5,2" d="M66.66,-143.32C69.04,-130.02 72.15,-112.72 74.36,-100.42"/>
<polygon fill="#9a32cd" stroke="#9a32cd" points="63.11,-142.29 64.79,-152.75 70,-143.52 63.11,-142.29"/>
</a>
</g>
<text text-anchor="middle" x="78.25" y="-120.5" font-family="Helvetica,sans-Serif" font-size="10.00" fill="grey"> ptr</text>
</g>
<!-- Node4 -->
<g id="Node000004" class="node">
<title>Node4</title>
<g id="a_Node000004"><a xlink:title=" ">
<polygon fill="white" stroke="#666666" points="117.25,-243 9,-243 9,-223 117.25,-223 117.25,-243"/>
<text text-anchor="middle" x="63.12" y="-229.5" font-family="Helvetica,sans-Serif" font-size="10.00">CoinMessageHandler</text>
</a>
</g>
</g>
<!-- Node4&#45;&gt;Node3 -->
<g id="edge3_Node000003_Node000004" class="edge">
<title>Node4&#45;&gt;Node3</title>
<g id="a_edge3_Node000003_Node000004"><a xlink:title=" ">
<path fill="none" stroke="#63b8ff" d="M63.12,-211.9C63.12,-199.39 63.12,-183.91 63.12,-174.24"/>
<polygon fill="#63b8ff" stroke="#63b8ff" points="59.63,-211.68 63.12,-221.68 66.63,-211.68 59.63,-211.68"/>
</a>
</g>
</g>
<!-- Node5 -->
<g id="Node000005" class="node">
<title>Node5</title>
<g id="a_Node000005"><a xlink:title=" ">
<polygon fill="white" stroke="#666666" points="220.88,-94 161.38,-94 161.38,-74 220.88,-74 220.88,-94"/>
<text text-anchor="middle" x="191.12" y="-80.5" font-family="Helvetica,sans-Serif" font-size="10.00">std::string</text>
</a>
</g>
</g>
<!-- Node5&#45;&gt;Node1 -->
<g id="edge4_Node000001_Node000005" class="edge">
<title>Node5&#45;&gt;Node1</title>
<g id="a_edge4_Node000001_Node000005"><a xlink:title=" ">
<path fill="none" stroke="#9a32cd" stroke-dasharray="5,2" d="M191.12,-62.6C191.12,-48.65 191.12,-30.82 191.12,-20.19"/>
<polygon fill="#9a32cd" stroke="#9a32cd" points="187.63,-62.59 191.12,-72.59 194.63,-62.59 187.63,-62.59"/>
</a>
</g>
<text text-anchor="middle" x="208" y="-40.5" font-family="Helvetica,sans-Serif" font-size="10.00" fill="grey"> filepath</text>
</g>
<!-- Node6 -->
<g id="Node000006" class="node">
<title>Node6</title>
<g id="a_Node000006"><a xlink:title=" ">
<polygon fill="white" stroke="#666666" points="238.12,-180 144.12,-180 144.12,-148 238.12,-148 238.12,-180"/>
<text text-anchor="start" x="152.12" y="-166.5" font-family="Helvetica,sans-Serif" font-size="10.00">std::basic_string&lt;</text>
<text text-anchor="middle" x="191.12" y="-154.5" font-family="Helvetica,sans-Serif" font-size="10.00"> Char &gt;</text>
</a>
</g>
</g>
<!-- Node6&#45;&gt;Node5 -->
<g id="edge5_Node000005_Node000006" class="edge">
<title>Node6&#45;&gt;Node5</title>
<g id="a_edge5_Node000005_Node000006"><a xlink:title=" ">
<path fill="none" stroke="#63b8ff" d="M191.12,-136.66C191.12,-122.11 191.12,-104.91 191.12,-94.49"/>
<polygon fill="#63b8ff" stroke="#63b8ff" points="187.63,-136.59 191.12,-146.59 194.63,-136.59 187.63,-136.59"/>
</a>
</g>
</g>
<!-- Node7 -->
<g id="Node000007" class="node">
<title>Node7</title>
<g id="a_Node000007"><a xlink:title=" ">
<polygon fill="white" stroke="#666666" points="327.62,-94 254.62,-94 254.62,-74 327.62,-74 327.62,-94"/>
<text text-anchor="middle" x="291.12" y="-80.5" font-family="Helvetica,sans-Serif" font-size="10.00">std::ofstream</text>
</a>
</g>
</g>
<!-- Node7&#45;&gt;Node1 -->
<g id="edge6_Node000001_Node000007" class="edge">
<title>Node7&#45;&gt;Node1</title>
<g id="a_edge6_Node000001_Node000007"><a xlink:title=" ">
<path fill="none" stroke="#9a32cd" stroke-dasharray="5,2" d="M269.55,-67.26C257.65,-58.6 242.59,-47.67 229.12,-38 220.97,-32.15 211.8,-25.63 204.51,-20.46"/>
<polygon fill="#9a32cd" stroke="#9a32cd" points="267.18,-70.59 277.33,-73.65 271.31,-64.94 267.18,-70.59"/>
</a>
</g>
<text text-anchor="middle" x="266.62" y="-40.5" font-family="Helvetica,sans-Serif" font-size="10.00" fill="grey"> filestream</text>
</g>
<!-- Node8 -->
<g id="Node000008" class="node">
<title>Node8</title>
<g id="a_Node000008"><a xlink:title=" ">
<polygon fill="white" stroke="#666666" points="357.88,-180 256.38,-180 256.38,-148 357.88,-148 357.88,-180"/>
<text text-anchor="start" x="264.38" y="-166.5" font-family="Helvetica,sans-Serif" font-size="10.00">std::basic_ofstream</text>
<text text-anchor="middle" x="307.12" y="-154.5" font-family="Helvetica,sans-Serif" font-size="10.00">&lt; Char &gt;</text>
</a>
</g>
</g>
<!-- Node8&#45;&gt;Node7 -->
<g id="edge7_Node000007_Node000008" class="edge">
<title>Node8&#45;&gt;Node7</title>
<g id="a_edge7_Node000007_Node000008"><a xlink:title=" ">
<path fill="none" stroke="#63b8ff" d="M301.81,-137.09C298.81,-122.45 295.23,-105.02 293.07,-94.49"/>
<polygon fill="#63b8ff" stroke="#63b8ff" points="298.53,-137.5 303.96,-146.59 305.38,-136.09 298.53,-137.5"/>
</a>
</g>
</g>
<!-- Node9 -->
<g id="Node000009" class="node">
<title>Node9</title>
<g id="a_Node000009"><a xlink:title=" ">
<polygon fill="white" stroke="#666666" points="356.75,-249 257.5,-249 257.5,-217 356.75,-217 356.75,-249"/>
<text text-anchor="start" x="265.5" y="-235.5" font-family="Helvetica,sans-Serif" font-size="10.00">std::basic_ostream</text>
<text text-anchor="middle" x="307.12" y="-223.5" font-family="Helvetica,sans-Serif" font-size="10.00">&lt; Char &gt;</text>
</a>
</g>
</g>
<!-- Node9&#45;&gt;Node8 -->
<g id="edge8_Node000008_Node000009" class="edge">
<title>Node9&#45;&gt;Node8</title>
<g id="a_edge8_Node000008_Node000009"><a xlink:title=" ">
<path fill="none" stroke="#63b8ff" d="M307.12,-205.94C307.12,-197.2 307.12,-187.76 307.12,-180.14"/>
<polygon fill="#63b8ff" stroke="#63b8ff" points="303.63,-205.8 307.12,-215.8 310.63,-205.8 303.63,-205.8"/>
</a>
</g>
</g>
<!-- Node10 -->
<g id="Node000010" class="node">
<title>Node10</title>
<g id="a_Node000010"><a xlink:title=" ">
<polygon fill="white" stroke="#666666" points="364.62,-306 249.62,-306 249.62,-286 364.62,-286 364.62,-306"/>
<text text-anchor="middle" x="307.12" y="-292.5" font-family="Helvetica,sans-Serif" font-size="10.00">std::basic_ios&lt; Char &gt;</text>
</a>
</g>
</g>
<!-- Node10&#45;&gt;Node9 -->
<g id="edge9_Node000009_Node000010" class="edge">
<title>Node10&#45;&gt;Node9</title>
<g id="a_edge9_Node000009_Node000010"><a xlink:title=" ">
<path fill="none" stroke="#63b8ff" d="M307.12,-274.94C307.12,-266.51 307.12,-256.86 307.12,-249.06"/>
<polygon fill="#63b8ff" stroke="#63b8ff" points="303.63,-274.74 307.12,-284.74 310.63,-274.74 303.63,-274.74"/>
</a>
</g>
</g>
<!-- Node11 -->
<g id="Node000011" class="node">
<title>Node11</title>
<g id="a_Node000011"><a xlink:title=" ">
<polygon fill="white" stroke="#666666" points="344.38,-363 269.88,-363 269.88,-343 344.38,-343 344.38,-363"/>
<text text-anchor="middle" x="307.12" y="-349.5" font-family="Helvetica,sans-Serif" font-size="10.00">std::ios_base</text>
</a>
</g>
</g>
<!-- Node11&#45;&gt;Node10 -->
<g id="edge10_Node000010_Node000011" class="edge">
<title>Node11&#45;&gt;Node10</title>
<g id="a_edge10_Node000010_Node000011"><a xlink:title=" ">
<path fill="none" stroke="#63b8ff" d="M307.12,-331.99C307.12,-323.2 307.12,-313.3 307.12,-306.28"/>
<polygon fill="#63b8ff" stroke="#63b8ff" points="303.63,-331.92 307.12,-341.92 310.63,-331.92 303.63,-331.92"/>
</a>
</g>
</g>
</g>
</svg>
</svg>

<style type='text/css'>
<![CDATA[
[data-mouse-over-selected='false'] { opacity: 0.7; }
[data-mouse-over-selected='true']  { opacity: 1.0; }
]]>
</style>
<script type="application/ecmascript"><![CDATA[
document.addEventListener('DOMContentLoaded', (event) => {
  highlightEdges();
  highlightAdjacentNodes();
});
]]></script>
</svg>
