<?xml version="1.0" encoding="UTF-8" standalone="no"?>
<!DOCTYPE svg PUBLIC "-//W3C//DTD SVG 1.1//EN"
 "http://www.w3.org/Graphics/SVG/1.1/DTD/svg11.dtd">
<!-- Generated by graphviz version 10.0.1 (20240210.2158)
 -->
<!-- Title: Parallel::FMTreplanningtask Pages: 1 -->
<svg width="145pt" height="140pt"
 viewBox="0.00 0.00 144.75 140.00" xmlns="http://www.w3.org/2000/svg" xmlns:xlink="http://www.w3.org/1999/xlink">
<g id="graph0" class="graph" transform="scale(1 1) rotate(0) translate(4 136)">
<title>Parallel::FMTreplanningtask</title>
<!-- Node1 -->
<g id="node1" class="node">
<title>Node1</title>
<g id="a_node1"><a xlink:title=" ">
<polygon fill="#999999" stroke="#666666" points="136.75,-20 0,-20 0,0 136.75,0 136.75,-20"/>
<text text-anchor="middle" x="68.38" y="-6.5" font-family="Helvetica,sans-Serif" font-size="10.00">Parallel::FMTreplanningtask</text>
</a>
</g>
</g>
<!-- Node2 -->
<g id="node2" class="node">
<title>Node2</title>
<g id="a_node2"><a xlink:href="classParallel_1_1FMTtask.html" target="_top" xlink:title=" ">
<polygon fill="white" stroke="#666666" points="114.62,-76 22.12,-76 22.12,-56 114.62,-56 114.62,-76"/>
<text text-anchor="middle" x="68.38" y="-62.5" font-family="Helvetica,sans-Serif" font-size="10.00">Parallel::FMTtask</text>
</a>
</g>
</g>
<!-- Node2&#45;&gt;Node1 -->
<g id="edge1" class="edge">
<title>Node2&#45;&gt;Node1</title>
<path fill="none" stroke="#63b8ff" d="M68.38,-44.13C68.38,-35.9 68.38,-26.85 68.38,-20.3"/>
<polygon fill="#63b8ff" stroke="#63b8ff" points="64.88,-44.08 68.38,-54.08 71.88,-44.08 64.88,-44.08"/>
</g>
<!-- Node3 -->
<g id="node3" class="node">
<title>Node3</title>
<g id="a_node3"><a xlink:href="classCore_1_1FMTobject.html" target="_top" xlink:title=" ">
<polygon fill="white" stroke="#666666" points="112.38,-132 24.38,-132 24.38,-112 112.38,-112 112.38,-132"/>
<text text-anchor="middle" x="68.38" y="-118.5" font-family="Helvetica,sans-Serif" font-size="10.00">Core::FMTobject</text>
</a>
</g>
</g>
<!-- Node3&#45;&gt;Node2 -->
<g id="edge2" class="edge">
<title>Node3&#45;&gt;Node2</title>
<path fill="none" stroke="#63b8ff" d="M68.38,-100.13C68.38,-91.9 68.38,-82.85 68.38,-76.3"/>
<polygon fill="#63b8ff" stroke="#63b8ff" points="64.88,-100.08 68.38,-110.08 71.88,-100.08 64.88,-100.08"/>
</g>
</g>
</svg>
