<?xml version="1.0" encoding="UTF-8" standalone="no"?>
<!DOCTYPE svg PUBLIC "-//W3C//DTD SVG 1.1//EN"
 "http://www.w3.org/Graphics/SVG/1.1/DTD/svg11.dtd">
<!-- Generated by graphviz version 10.0.1 (20240210.2158)
 -->
<!-- Title: Exception::FMTexception Pages: 1 -->
<svg width="190pt" height="189pt"
 viewBox="0.00 0.00 189.50 189.00" xmlns="http://www.w3.org/2000/svg" xmlns:xlink="http://www.w3.org/1999/xlink">
<g id="graph0" class="graph" transform="scale(1 1) rotate(0) translate(4 185)">
<title>Exception::FMTexception</title>
<!-- Node1 -->
<g id="node1" class="node">
<title>Node1</title>
<g id="a_node1"><a xlink:title=" ">
<polygon fill="#999999" stroke="#666666" points="127,-20 0,-20 0,0 127,0 127,-20"/>
<text text-anchor="middle" x="63.5" y="-6.5" font-family="Helvetica,sans-Serif" font-size="10.00">Exception::FMTexception</text>
</a>
</g>
</g>
<!-- Node2 -->
<g id="node2" class="node">
<title>Node2</title>
<g id="a_node2"><a xlink:title=" ">
<polygon fill="white" stroke="#666666" points="86.25,-112 8.75,-112 8.75,-92 86.25,-92 86.25,-112"/>
<text text-anchor="middle" x="47.5" y="-98.5" font-family="Helvetica,sans-Serif" font-size="10.00">std::exception</text>
</a>
</g>
</g>
<!-- Node2&#45;&gt;Node1 -->
<g id="edge1" class="edge">
<title>Node2&#45;&gt;Node1</title>
<path fill="none" stroke="#63b8ff" d="M51.15,-80.48C54.5,-61.61 59.32,-34.51 61.83,-20.38"/>
<polygon fill="#63b8ff" stroke="#63b8ff" points="47.72,-79.76 49.42,-90.22 54.61,-80.98 47.72,-79.76"/>
</g>
<!-- Node3 -->
<g id="node3" class="node">
<title>Node3</title>
<g id="a_node3"><a xlink:title=" ">
<polygon fill="white" stroke="#666666" points="164.25,-112 104.75,-112 104.75,-92 164.25,-92 164.25,-112"/>
<text text-anchor="middle" x="134.5" y="-98.5" font-family="Helvetica,sans-Serif" font-size="10.00">std::string</text>
</a>
</g>
</g>
<!-- Node3&#45;&gt;Node1 -->
<g id="edge2" class="edge">
<title>Node3&#45;&gt;Node1</title>
<path fill="none" stroke="#9a32cd" stroke-dasharray="5,2" d="M120.19,-82.86C105.29,-63.97 82.53,-35.12 70.9,-20.38"/>
<polygon fill="#9a32cd" stroke="#9a32cd" points="117.29,-84.84 126.23,-90.52 122.79,-80.5 117.29,-84.84"/>
<text text-anchor="middle" x="127.62" y="-64.5" font-family="Helvetica,sans-Serif" font-size="10.00"> _msg</text>
<text text-anchor="middle" x="127.62" y="-52.5" font-family="Helvetica,sans-Serif" font-size="10.00">file</text>
<text text-anchor="middle" x="127.62" y="-40.5" font-family="Helvetica,sans-Serif" font-size="10.00">method</text>
</g>
<!-- Node4 -->
<g id="node4" class="node">
<title>Node4</title>
<g id="a_node4"><a xlink:title=" ">
<polygon fill="white" stroke="#666666" points="181.5,-181 87.5,-181 87.5,-149 181.5,-149 181.5,-181"/>
<text text-anchor="start" x="95.5" y="-167.5" font-family="Helvetica,sans-Serif" font-size="10.00">std::basic_string&lt;</text>
<text text-anchor="middle" x="134.5" y="-155.5" font-family="Helvetica,sans-Serif" font-size="10.00"> Char &gt;</text>
</a>
</g>
</g>
<!-- Node4&#45;&gt;Node3 -->
<g id="edge3" class="edge">
<title>Node4&#45;&gt;Node3</title>
<path fill="none" stroke="#63b8ff" d="M134.5,-137.36C134.5,-128.41 134.5,-119.01 134.5,-112.31"/>
<polygon fill="#63b8ff" stroke="#63b8ff" points="131,-137.09 134.5,-147.09 138,-137.09 131,-137.09"/>
</g>
</g>
</svg>
