<?xml version="1.0" encoding="UTF-8" standalone="no"?>
<!DOCTYPE svg PUBLIC "-//W3C//DTD SVG 1.1//EN"
 "http://www.w3.org/Graphics/SVG/1.1/DTD/svg11.dtd">
<!-- Generated by graphviz version 8.1.0 (20230707.0739)
 -->
<!-- Title: Parallel::FMTparallelwriter Pages: 1 -->
<!--zoomable 842 -->

<svg id="main" version="1.1" xmlns="http://www.w3.org/2000/svg" xmlns:xlink="http://www.w3.org/1999/xlink" xml:space="preserve" onload="init(evt)">
<style type="text/css"><![CDATA[
.node, .edge {opacity: 0.7;}
.node.selected, .edge.selected {opacity: 1;}
.edge:hover path { stroke: red; }
.edge:hover polygon { stroke: red; fill: red; }
]]></style>

<defs>
  <circle id="rim" cx="0" cy="0" r="7"/>
  <circle id="rim2" cx="0" cy="0" r="3.5"/>
  <g id="zoomPlus">
    <use xlink:href="#rim" fill="#404040"><set attributeName="fill" to="#808080" begin="zoomplus.mouseover" end="zoomplus.mouseout"/></use>
    <path d="M-4,0h8M0,-4v8" fill="none" stroke="white" stroke-width="1.5" pointer-events="none"/>
  </g>
  <g id="zoomMin">
    <use xlink:href="#rim" fill="#404040"><set attributeName="fill" to="#808080" begin="zoomminus.mouseover" end="zoomminus.mouseout"/></use>
    <path d="M-4,0h8" fill="none" stroke="white" stroke-width="1.5" pointer-events="none"/>
  </g>
  <g id="arrowUp" transform="translate(30 24)">
    <use xlink:href="#rim"/>
    <path pointer-events="none" fill="none" stroke="white" stroke-width="1.5" d="M0,-3.0v7 M-2.5,-0.5L0,-3.0L2.5,-0.5"/>
  </g>
  <g id="arrowRight" transform="rotate(90) translate(36 -43)">
    <use xlink:href="#rim"/>
    <path pointer-events="none" fill="none" stroke="white" stroke-width="1.5" d="M0,-3.0v7 M-2.5,-0.5L0,-3.0L2.5,-0.5"/>
  </g>
  <g id="arrowDown" transform="rotate(180) translate(-30 -48)">
    <use xlink:href="#rim"/>
    <path pointer-events="none" fill="none" stroke="white" stroke-width="1.5" d="M0,-3.0v7 M-2.5,-0.5L0,-3.0L2.5,-0.5"/>
  </g>
  <g id="arrowLeft" transform="rotate(270) translate(-36 17)">
    <use xlink:href="#rim"/>
    <path pointer-events="none" fill="none" stroke="white" stroke-width="1.5" d="M0,-3.0v7 M-2.5,-0.5L0,-3.0L2.5,-0.5"/>
  </g>
  <g id="resetDef">
    <use xlink:href="#rim2" fill="#404040"><set attributeName="fill" to="#808080" begin="reset.mouseover" end="reset.mouseout"/></use>
  </g>
</defs>
<script type="application/ecmascript">
var viewWidth = 618;
var viewHeight = 842;
var sectionId = 'dynsection-1';
</script>
<script type="application/ecmascript" xlink:href="svg.min.js"/>
<svg id="graph" class="graph">
<g id="viewport">
<title>Parallel::FMTparallelwriter</title>
<!-- Node1 -->
<g id="Node000001" class="node">
<title>Node1</title>
<g id="a_Node000001"><a xlink:title=" ">
<polygon fill="#999999" stroke="#666666" points="148.88,-20 21.12,-20 21.12,0 148.88,0 148.88,-20"/>
<text text-anchor="middle" x="85" y="-6.5" font-family="Helvetica,sans-Serif" font-size="10.00">Parallel::FMTparallelwriter</text>
</a>
</g>
</g>
<!-- Node2 -->
<g id="Node000002" class="node">
<title>Node2</title>
<g id="a_Node000002"><a xlink:href="classParser_1_1FMTmodelparser.html" target="_top" xlink:title=" ">
<polygon fill="white" stroke="#666666" points="146.62,-77 23.38,-77 23.38,-57 146.62,-57 146.62,-77"/>
<text text-anchor="middle" x="85" y="-63.5" font-family="Helvetica,sans-Serif" font-size="10.00">Parser::FMTmodelparser</text>
</a>
</g>
</g>
<!-- Node2&#45;&gt;Node1 -->
<g id="edge1_Node000001_Node000002" class="edge">
<title>Node2&#45;&gt;Node1</title>
<g id="a_edge1_Node000001_Node000002"><a xlink:title=" ">
<path fill="none" stroke="#63b8ff" d="M85,-45.99C85,-37.2 85,-27.3 85,-20.28"/>
<polygon fill="#63b8ff" stroke="#63b8ff" points="81.5,-45.92 85,-55.92 88.5,-45.92 81.5,-45.92"/>
</a>
</g>
</g>
<!-- Node3 -->
<g id="Node000003" class="node">
<title>Node3</title>
<g id="a_Node000003"><a xlink:href="classParser_1_1FMTparser.html" target="_top" xlink:title=" ">
<polygon fill="white" stroke="#666666" points="133.5,-134 36.5,-134 36.5,-114 133.5,-114 133.5,-134"/>
<text text-anchor="middle" x="85" y="-120.5" font-family="Helvetica,sans-Serif" font-size="10.00">Parser::FMTparser</text>
</a>
</g>
</g>
<!-- Node3&#45;&gt;Node2 -->
<g id="edge2_Node000002_Node000003" class="edge">
<title>Node3&#45;&gt;Node2</title>
<g id="a_edge2_Node000002_Node000003"><a xlink:title=" ">
<path fill="none" stroke="#63b8ff" d="M85,-102.99C85,-94.2 85,-84.3 85,-77.28"/>
<polygon fill="#63b8ff" stroke="#63b8ff" points="81.5,-102.92 85,-112.92 88.5,-102.92 81.5,-102.92"/>
</a>
</g>
</g>
<!-- Node4 -->
<g id="Node000004" class="node">
<title>Node4</title>
<g id="a_Node000004"><a xlink:href="classCore_1_1FMTobject.html" target="_top" xlink:title=" ">
<polygon fill="white" stroke="#666666" points="207,-191 119,-191 119,-171 207,-171 207,-191"/>
<text text-anchor="middle" x="163" y="-177.5" font-family="Helvetica,sans-Serif" font-size="10.00">Core::FMTobject</text>
</a>
</g>
</g>
<!-- Node4&#45;&gt;Node3 -->
<g id="edge3_Node000003_Node000004" class="edge">
<title>Node4&#45;&gt;Node3</title>
<g id="a_edge3_Node000003_Node000004"><a xlink:title=" ">
<path fill="none" stroke="#63b8ff" d="M140.92,-164.43C127.19,-154.75 109.97,-142.61 98.3,-134.38"/>
<polygon fill="#63b8ff" stroke="#63b8ff" points="138.58,-167.77 148.77,-170.67 142.61,-162.05 138.58,-167.77"/>
</a>
</g>
</g>
<!-- Node5 -->
<g id="Node000005" class="node">
<title>Node5</title>
<g id="a_Node000005"><a xlink:title=" ">
<polygon fill="white" stroke="#666666" points="342.88,-271 209.12,-271 209.12,-239 342.88,-239 342.88,-271"/>
<text text-anchor="start" x="217.12" y="-257.5" font-family="Helvetica,sans-Serif" font-size="10.00">std::shared_ptr&lt; Exception</text>
<text text-anchor="middle" x="276" y="-245.5" font-family="Helvetica,sans-Serif" font-size="10.00">::FMTexceptionhandler &gt;</text>
</a>
</g>
</g>
<!-- Node5&#45;&gt;Node4 -->
<g id="edge4_Node000004_Node000005" class="edge">
<title>Node5&#45;&gt;Node4</title>
<g id="a_edge4_Node000004_Node000005"><a xlink:title=" ">
<path fill="none" stroke="#9a32cd" stroke-dasharray="5,2" d="M242.62,-232.73C221.13,-219.04 194.25,-201.91 177.86,-191.47"/>
<polygon fill="#9a32cd" stroke="#9a32cd" points="240.44,-236.13 250.76,-238.55 244.21,-230.23 240.44,-236.13"/>
</a>
</g>
<text text-anchor="middle" x="248.12" y="-211.5" font-family="Helvetica,sans-Serif" font-size="10.00" fill="grey"> _exhandler</text>
</g>
<!-- Node6 -->
<g id="Node000006" class="node">
<title>Node6</title>
<g id="a_Node000006"><a xlink:href="classException_1_1FMTexceptionhandler.html" target="_top" xlink:title=" ">
<polygon fill="white" stroke="#666666" points="373.25,-341 214.75,-341 214.75,-321 373.25,-321 373.25,-341"/>
<text text-anchor="middle" x="294" y="-327.5" font-family="Helvetica,sans-Serif" font-size="10.00">Exception::FMTexceptionhandler</text>
</a>
</g>
</g>
<!-- Node6&#45;&gt;Node5 -->
<g id="edge5_Node000005_Node000006" class="edge">
<title>Node6&#45;&gt;Node5</title>
<g id="a_edge5_Node000005_Node000006"><a xlink:title=" ">
<path fill="none" stroke="#9a32cd" stroke-dasharray="5,2" d="M289.18,-310.2C286.23,-298.05 282.5,-282.73 279.76,-271.48"/>
<polygon fill="#9a32cd" stroke="#9a32cd" points="285.96,-310.74 291.72,-319.63 292.76,-309.08 285.96,-310.74"/>
</a>
</g>
<text text-anchor="middle" x="294.12" y="-291.5" font-family="Helvetica,sans-Serif" font-size="10.00" fill="grey"> ptr</text>
</g>
<!-- Node7 -->
<g id="Node000007" class="node">
<title>Node7</title>
<g id="a_Node000007"><a xlink:title=" ">
<polygon fill="white" stroke="#666666" points="225,-423 101,-423 101,-391 225,-391 225,-423"/>
<text text-anchor="start" x="109" y="-409.5" font-family="Helvetica,sans-Serif" font-size="10.00">std::shared_ptr&lt; Logging</text>
<text text-anchor="middle" x="163" y="-397.5" font-family="Helvetica,sans-Serif" font-size="10.00">::FMTlogger &gt;</text>
</a>
</g>
</g>
<!-- Node7&#45;&gt;Node4 -->
<g id="edge21_Node000004_Node000007" class="edge">
<title>Node7&#45;&gt;Node4</title>
<g id="a_edge21_Node000004_Node000007"><a xlink:title=" ">
<path fill="none" stroke="#9a32cd" stroke-dasharray="5,2" d="M163,-379.73C163,-329.7 163,-222.88 163,-191.1"/>
<polygon fill="#9a32cd" stroke="#9a32cd" points="159.5,-379.6 163,-389.6 166.5,-379.6 159.5,-379.6"/>
</a>
</g>
<text text-anchor="middle" x="180.25" y="-291.5" font-family="Helvetica,sans-Serif" font-size="10.00" fill="grey"> _logger</text>
</g>
<!-- Node7&#45;&gt;Node6 -->
<g id="edge6_Node000006_Node000007" class="edge">
<title>Node7&#45;&gt;Node6</title>
<g id="a_edge6_Node000006_Node000007"><a xlink:title=" ">
<path fill="none" stroke="#9a32cd" stroke-dasharray="5,2" d="M199.5,-385.38C224.97,-370.99 257.77,-352.47 277.27,-341.45"/>
<polygon fill="#9a32cd" stroke="#9a32cd" points="198.13,-382.7 191.14,-390.67 201.57,-388.8 198.13,-382.7"/>
</a>
</g>
<text text-anchor="middle" x="258.25" y="-363.5" font-family="Helvetica,sans-Serif" font-size="10.00" fill="grey"> _logger</text>
</g>
<!-- Node8 -->
<g id="Node000008" class="node">
<title>Node8</title>
<g id="a_Node000008"><a xlink:href="classLogging_1_1FMTlogger.html" target="_top" xlink:title=" ">
<polygon fill="white" stroke="#666666" points="213.75,-491 112.25,-491 112.25,-471 213.75,-471 213.75,-491"/>
<text text-anchor="middle" x="163" y="-477.5" font-family="Helvetica,sans-Serif" font-size="10.00">Logging::FMTlogger</text>
</a>
</g>
</g>
<!-- Node8&#45;&gt;Node7 -->
<g id="edge7_Node000007_Node000008" class="edge">
<title>Node8&#45;&gt;Node7</title>
<g id="a_edge7_Node000007_Node000008"><a xlink:title=" ">
<path fill="none" stroke="#9a32cd" stroke-dasharray="5,2" d="M163,-459.83C163,-448.31 163,-434.1 163,-423.47"/>
<polygon fill="#9a32cd" stroke="#9a32cd" points="159.5,-459.59 163,-469.59 166.5,-459.59 159.5,-459.59"/>
</a>
</g>
<text text-anchor="middle" x="170.12" y="-443.5" font-family="Helvetica,sans-Serif" font-size="10.00" fill="grey"> ptr</text>
</g>
<!-- Node9 -->
<g id="Node000009" class="node">
<title>Node9</title>
<g id="a_Node000009"><a xlink:title=" ">
<polygon fill="white" stroke="#666666" points="348.62,-571 225.38,-571 225.38,-539 348.62,-539 348.62,-571"/>
<text text-anchor="start" x="233.38" y="-557.5" font-family="Helvetica,sans-Serif" font-size="10.00">std::unique_ptr&lt; Logging</text>
<text text-anchor="middle" x="287" y="-545.5" font-family="Helvetica,sans-Serif" font-size="10.00">::FMTsolverlogger &gt;</text>
</a>
</g>
</g>
<!-- Node9&#45;&gt;Node8 -->
<g id="edge8_Node000008_Node000009" class="edge">
<title>Node9&#45;&gt;Node8</title>
<g id="a_edge8_Node000008_Node000009"><a xlink:title=" ">
<path fill="none" stroke="#9a32cd" stroke-dasharray="5,2" d="M252.51,-532.94C239.83,-525.3 225.32,-516.66 212,-509 201.56,-502.99 189.74,-496.47 180.32,-491.34"/>
<polygon fill="#9a32cd" stroke="#9a32cd" points="250.43,-536.38 260.79,-538.56 254.05,-530.39 250.43,-536.38"/>
</a>
</g>
<text text-anchor="middle" x="250.12" y="-511.5" font-family="Helvetica,sans-Serif" font-size="10.00" fill="grey"> solverref</text>
</g>
<!-- Node10 -->
<g id="Node000010" class="node">
<title>Node10</title>
<g id="a_Node000010"><a xlink:href="classLogging_1_1FMTsolverlogger.html" target="_top" xlink:title=" ">
<polygon fill="white" stroke="#666666" points="358.12,-645 231.88,-645 231.88,-625 358.12,-625 358.12,-645"/>
<text text-anchor="middle" x="295" y="-631.5" font-family="Helvetica,sans-Serif" font-size="10.00">Logging::FMTsolverlogger</text>
</a>
</g>
</g>
<!-- Node10&#45;&gt;Node9 -->
<g id="edge9_Node000009_Node000010" class="edge">
<title>Node10&#45;&gt;Node9</title>
<g id="a_edge9_Node000009_Node000010"><a xlink:title=" ">
<path fill="none" stroke="#9a32cd" stroke-dasharray="5,2" d="M292.94,-613.91C291.58,-600.67 289.83,-583.59 288.58,-571.42"/>
<polygon fill="#9a32cd" stroke="#9a32cd" points="289.55,-614.16 294.05,-623.75 296.51,-613.44 289.55,-614.16"/>
</a>
</g>
<text text-anchor="middle" x="299.12" y="-591.5" font-family="Helvetica,sans-Serif" font-size="10.00" fill="grey"> ptr</text>
</g>
<!-- Node11 -->
<g id="Node000011" class="node">
<title>Node11</title>
<g id="a_Node000011"><a xlink:title=" ">
<polygon fill="white" stroke="#666666" points="349.12,-714 240.88,-714 240.88,-694 349.12,-694 349.12,-714"/>
<text text-anchor="middle" x="295" y="-700.5" font-family="Helvetica,sans-Serif" font-size="10.00">CoinMessageHandler</text>
</a>
</g>
</g>
<!-- Node11&#45;&gt;Node10 -->
<g id="edge10_Node000010_Node000011" class="edge">
<title>Node11&#45;&gt;Node10</title>
<g id="a_edge10_Node000010_Node000011"><a xlink:title=" ">
<path fill="none" stroke="#63b8ff" d="M295,-682.9C295,-670.39 295,-654.91 295,-645.24"/>
<polygon fill="#63b8ff" stroke="#63b8ff" points="291.5,-682.68 295,-692.68 298.5,-682.68 291.5,-682.68"/>
</a>
</g>
</g>
<!-- Node12 -->
<g id="Node000012" class="node">
<title>Node12</title>
<g id="a_Node000012"><a xlink:title=" ">
<polygon fill="white" stroke="#666666" points="102.75,-565 43.25,-565 43.25,-545 102.75,-545 102.75,-565"/>
<text text-anchor="middle" x="73" y="-551.5" font-family="Helvetica,sans-Serif" font-size="10.00">std::string</text>
</a>
</g>
</g>
<!-- Node12&#45;&gt;Node3 -->
<g id="edge22_Node000003_Node000012" class="edge">
<title>Node12&#45;&gt;Node3</title>
<g id="a_edge22_Node000003_Node000012"><a xlink:title=" ">
<path fill="none" stroke="#9a32cd" stroke-dasharray="5,2" d="M73,-534.02C73,-519.57 73,-499.58 73,-482 73,-482 73,-482 73,-180 73,-163.58 78.17,-145.03 81.72,-134.21"/>
<polygon fill="#9a32cd" stroke="#9a32cd" points="69.5,-533.68 73,-543.68 76.5,-533.68 69.5,-533.68"/>
</a>
</g>
<text text-anchor="middle" x="97.38" y="-333.5" font-family="Helvetica,sans-Serif" font-size="10.00" fill="grey"> _comment</text>
<text text-anchor="middle" x="97.38" y="-321.5" font-family="Helvetica,sans-Serif" font-size="10.00" fill="grey">_location</text>
</g>
<!-- Node12&#45;&gt;Node8 -->
<g id="edge11_Node000008_Node000012" class="edge">
<title>Node12&#45;&gt;Node8</title>
<g id="a_edge11_Node000008_Node000012"><a xlink:title=" ">
<path fill="none" stroke="#9a32cd" stroke-dasharray="5,2" d="M91.1,-537.71C101,-528.97 113.6,-518.15 125.25,-509 132.98,-502.93 141.92,-496.51 149.15,-491.46"/>
<polygon fill="#9a32cd" stroke="#9a32cd" points="89.32,-534.49 84.18,-543.75 93.98,-539.72 89.32,-534.49"/>
</a>
</g>
<text text-anchor="middle" x="142.88" y="-511.5" font-family="Helvetica,sans-Serif" font-size="10.00" fill="grey"> filepath</text>
</g>
<!-- Node13 -->
<g id="Node000013" class="node">
<title>Node13</title>
<g id="a_Node000013"><a xlink:title=" ">
<polygon fill="white" stroke="#666666" points="94,-651 0,-651 0,-619 94,-619 94,-651"/>
<text text-anchor="start" x="8" y="-637.5" font-family="Helvetica,sans-Serif" font-size="10.00">std::basic_string&lt;</text>
<text text-anchor="middle" x="47" y="-625.5" font-family="Helvetica,sans-Serif" font-size="10.00"> Char &gt;</text>
</a>
</g>
</g>
<!-- Node13&#45;&gt;Node12 -->
<g id="edge12_Node000012_Node000013" class="edge">
<title>Node13&#45;&gt;Node12</title>
<g id="a_edge12_Node000012_Node000013"><a xlink:title=" ">
<path fill="none" stroke="#63b8ff" d="M55.49,-608.52C60.4,-593.79 66.29,-576.12 69.84,-565.49"/>
<polygon fill="#63b8ff" stroke="#63b8ff" points="51.98,-607 52.14,-617.59 58.62,-609.21 51.98,-607"/>
</a>
</g>
</g>
<!-- Node14 -->
<g id="Node000014" class="node">
<title>Node14</title>
<g id="a_Node000014"><a xlink:title=" ">
<polygon fill="white" stroke="#666666" points="199.5,-565 126.5,-565 126.5,-545 199.5,-545 199.5,-565"/>
<text text-anchor="middle" x="163" y="-551.5" font-family="Helvetica,sans-Serif" font-size="10.00">std::ofstream</text>
</a>
</g>
</g>
<!-- Node14&#45;&gt;Node8 -->
<g id="edge13_Node000008_Node000014" class="edge">
<title>Node14&#45;&gt;Node8</title>
<g id="a_edge13_Node000008_Node000014"><a xlink:title=" ">
<path fill="none" stroke="#9a32cd" stroke-dasharray="5,2" d="M163,-533.6C163,-519.65 163,-501.82 163,-491.19"/>
<polygon fill="#9a32cd" stroke="#9a32cd" points="159.5,-533.59 163,-543.59 166.5,-533.59 159.5,-533.59"/>
</a>
</g>
<text text-anchor="middle" x="185.5" y="-511.5" font-family="Helvetica,sans-Serif" font-size="10.00" fill="grey"> filestream</text>
</g>
<!-- Node15 -->
<g id="Node000015" class="node">
<title>Node15</title>
<g id="a_Node000015"><a xlink:title=" ">
<polygon fill="white" stroke="#666666" points="213.75,-651 112.25,-651 112.25,-619 213.75,-619 213.75,-651"/>
<text text-anchor="start" x="120.25" y="-637.5" font-family="Helvetica,sans-Serif" font-size="10.00">std::basic_ofstream</text>
<text text-anchor="middle" x="163" y="-625.5" font-family="Helvetica,sans-Serif" font-size="10.00">&lt; Char &gt;</text>
</a>
</g>
</g>
<!-- Node15&#45;&gt;Node14 -->
<g id="edge14_Node000014_Node000015" class="edge">
<title>Node15&#45;&gt;Node14</title>
<g id="a_edge14_Node000014_Node000015"><a xlink:title=" ">
<path fill="none" stroke="#63b8ff" d="M163,-607.66C163,-593.11 163,-575.91 163,-565.49"/>
<polygon fill="#63b8ff" stroke="#63b8ff" points="159.5,-607.59 163,-617.59 166.5,-607.59 159.5,-607.59"/>
</a>
</g>
</g>
<!-- Node16 -->
<g id="Node000016" class="node">
<title>Node16</title>
<g id="a_Node000016"><a xlink:title=" ">
<polygon fill="white" stroke="#666666" points="212.62,-720 113.38,-720 113.38,-688 212.62,-688 212.62,-720"/>
<text text-anchor="start" x="121.38" y="-706.5" font-family="Helvetica,sans-Serif" font-size="10.00">std::basic_ostream</text>
<text text-anchor="middle" x="163" y="-694.5" font-family="Helvetica,sans-Serif" font-size="10.00">&lt; Char &gt;</text>
</a>
</g>
</g>
<!-- Node16&#45;&gt;Node15 -->
<g id="edge15_Node000015_Node000016" class="edge">
<title>Node16&#45;&gt;Node15</title>
<g id="a_edge15_Node000015_Node000016"><a xlink:title=" ">
<path fill="none" stroke="#63b8ff" d="M163,-676.94C163,-668.2 163,-658.76 163,-651.14"/>
<polygon fill="#63b8ff" stroke="#63b8ff" points="159.5,-676.8 163,-686.8 166.5,-676.8 159.5,-676.8"/>
</a>
</g>
</g>
<!-- Node17 -->
<g id="Node000017" class="node">
<title>Node17</title>
<g id="a_Node000017"><a xlink:title=" ">
<polygon fill="white" stroke="#666666" points="220.5,-777 105.5,-777 105.5,-757 220.5,-757 220.5,-777"/>
<text text-anchor="middle" x="163" y="-763.5" font-family="Helvetica,sans-Serif" font-size="10.00">std::basic_ios&lt; Char &gt;</text>
</a>
</g>
</g>
<!-- Node17&#45;&gt;Node16 -->
<g id="edge16_Node000016_Node000017" class="edge">
<title>Node17&#45;&gt;Node16</title>
<g id="a_edge16_Node000016_Node000017"><a xlink:title=" ">
<path fill="none" stroke="#63b8ff" d="M163,-745.94C163,-737.51 163,-727.86 163,-720.06"/>
<polygon fill="#63b8ff" stroke="#63b8ff" points="159.5,-745.74 163,-755.74 166.5,-745.74 159.5,-745.74"/>
</a>
</g>
</g>
<!-- Node18 -->
<g id="Node000018" class="node">
<title>Node18</title>
<g id="a_Node000018"><a xlink:title=" ">
<polygon fill="white" stroke="#666666" points="200.25,-834 125.75,-834 125.75,-814 200.25,-814 200.25,-834"/>
<text text-anchor="middle" x="163" y="-820.5" font-family="Helvetica,sans-Serif" font-size="10.00">std::ios_base</text>
</a>
</g>
</g>
<!-- Node18&#45;&gt;Node17 -->
<g id="edge17_Node000017_Node000018" class="edge">
<title>Node18&#45;&gt;Node17</title>
<g id="a_edge17_Node000017_Node000018"><a xlink:title=" ">
<path fill="none" stroke="#63b8ff" d="M163,-802.99C163,-794.2 163,-784.3 163,-777.28"/>
<polygon fill="#63b8ff" stroke="#63b8ff" points="159.5,-802.92 163,-812.92 166.5,-802.92 159.5,-802.92"/>
</a>
</g>
</g>
<!-- Node19 -->
<g id="Node000019" class="node">
<title>Node19</title>
<g id="a_Node000019"><a xlink:title=" ">
<polygon fill="white" stroke="#666666" points="476.75,-423 363.25,-423 363.25,-391 476.75,-391 476.75,-423"/>
<text text-anchor="start" x="371.25" y="-409.5" font-family="Helvetica,sans-Serif" font-size="10.00">std::vector&lt; Exception</text>
<text text-anchor="middle" x="420" y="-397.5" font-family="Helvetica,sans-Serif" font-size="10.00">::FMTexc &gt;</text>
</a>
</g>
</g>
<!-- Node19&#45;&gt;Node6 -->
<g id="edge18_Node000006_Node000019" class="edge">
<title>Node19&#45;&gt;Node6</title>
<g id="a_edge18_Node000006_Node000019"><a xlink:title=" ">
<path fill="none" stroke="#9a32cd" stroke-dasharray="5,2" d="M411.05,-380.91C407.38,-373.6 402.44,-366.2 396,-361 384.82,-351.98 370.99,-345.77 357.15,-341.49"/>
<polygon fill="#9a32cd" stroke="#9a32cd" points="408.08,-381.84 415.3,-389.59 414.49,-379.03 408.08,-381.84"/>
</a>
</g>
<text text-anchor="middle" x="443.12" y="-363.5" font-family="Helvetica,sans-Serif" font-size="10.00" fill="grey"> errorstowarnings</text>
</g>
<!-- Node20 -->
<g id="Node000020" class="node">
<title>Node20</title>
<g id="a_Node000020"><a xlink:title=" ">
<polygon fill="white" stroke="#666666" points="609.5,-423 494.5,-423 494.5,-391 609.5,-391 609.5,-423"/>
<text text-anchor="start" x="502.5" y="-409.5" font-family="Helvetica,sans-Serif" font-size="10.00">std::set&lt; boost::thread</text>
<text text-anchor="middle" x="552" y="-397.5" font-family="Helvetica,sans-Serif" font-size="10.00">::id &gt;</text>
</a>
</g>
</g>
<!-- Node20&#45;&gt;Node6 -->
<g id="edge19_Node000006_Node000020" class="edge">
<title>Node20&#45;&gt;Node6</title>
<g id="a_edge19_Node000006_Node000020"><a xlink:title=" ">
<path fill="none" stroke="#9a32cd" stroke-dasharray="5,2" d="M525.04,-384.24C513.12,-375.69 498.53,-366.6 484,-361 449.13,-347.55 408.4,-340.32 373.62,-336.44"/>
<polygon fill="#9a32cd" stroke="#9a32cd" points="522.48,-387.45 532.59,-390.61 526.66,-381.83 522.48,-387.45"/>
</a>
</g>
<text text-anchor="middle" x="548.62" y="-363.5" font-family="Helvetica,sans-Serif" font-size="10.00" fill="grey"> registered_threads</text>
</g>
<!-- Node21 -->
<g id="Node000021" class="node">
<title>Node21</title>
<g id="a_Node000021"><a xlink:title=" ">
<polygon fill="white" stroke="#666666" points="345.12,-423 242.88,-423 242.88,-391 345.12,-391 345.12,-423"/>
<text text-anchor="start" x="250.88" y="-409.5" font-family="Helvetica,sans-Serif" font-size="10.00">std::unordered_map</text>
<text text-anchor="middle" x="294" y="-397.5" font-family="Helvetica,sans-Serif" font-size="10.00">&lt; int, size_t &gt;</text>
</a>
</g>
</g>
<!-- Node21&#45;&gt;Node6 -->
<g id="edge20_Node000006_Node000021" class="edge">
<title>Node21&#45;&gt;Node6</title>
<g id="a_edge20_Node000006_Node000021"><a xlink:title=" ">
<path fill="none" stroke="#9a32cd" stroke-dasharray="5,2" d="M294,-380.03C294,-366.55 294,-350.92 294,-341.24"/>
<polygon fill="#9a32cd" stroke="#9a32cd" points="290.5,-379.67 294,-389.67 297.5,-379.67 290.5,-379.67"/>
</a>
</g>
<text text-anchor="middle" x="343.12" y="-363.5" font-family="Helvetica,sans-Serif" font-size="10.00" fill="grey"> _specificwarningcount</text>
</g>
</g>
</svg>

<g id="navigator" transform="translate(0 0)" fill="#404254">
  <rect fill="#f2f5e9" fill-opacity="0.5" stroke="#606060" stroke-width=".5" x="0" y="0" width="60" height="60"/>
  <use id="zoomplus" xlink:href="#zoomPlus" x="17" y="9" onmousedown="handleZoom(evt,'in')"/>
  <use id="zoomminus" xlink:href="#zoomMin" x="42" y="9" onmousedown="handleZoom(evt,'out')"/>
  <use id="reset" xlink:href="#resetDef" x="30" y="36" onmousedown="handleReset()"/>
   <use id="arrowup" xlink:href="#arrowUp" x="0" y="0" onmousedown="handlePan(0,-1)"/>
  <use id="arrowright" xlink:href="#arrowRight" x="0" y="0" onmousedown="handlePan(1,0)"/>
  <use id="arrowdown" xlink:href="#arrowDown" x="0" y="0" onmousedown="handlePan(0,1)"/>
  <use id="arrowleft" xlink:href="#arrowLeft" x="0" y="0" onmousedown="handlePan(-1,0)"/>
</g>
<svg viewBox="0 0 15 15" width="100%" height="30px" preserveAspectRatio="xMaxYMin meet">
 <g id="arrow_out" transform="scale(0.3 0.3)">
  <a xlink:href="classParallel_1_1FMTparallelwriter__coll__graph_org.svg" target="_base">
   <rect id="button" ry="5" rx="5" y="6" x="6" height="38" width="38"
        fill="#f2f5e9" fill-opacity="0.5" stroke="#606060" stroke-width="1.0"/>
   <path id="arrow"
     d="M 11.500037,31.436501 C 11.940474,20.09759 22.043105,11.32322 32.158766,21.979434 L 37.068811,17.246167 C 37.068811,17.246167 37.088388,32 37.088388,32 L 22.160133,31.978069 C 22.160133,31.978069 26.997745,27.140456 26.997745,27.140456 C 18.528582,18.264221 13.291696,25.230495 11.500037,31.436501 z"
     style="fill:#404040;"/>
  </a>
 </g>
</svg>

<style type='text/css'>
<![CDATA[
[data-mouse-over-selected='false'] { opacity: 0.7; }
[data-mouse-over-selected='true']  { opacity: 1.0; }
]]>
</style>
<script type="application/ecmascript"><![CDATA[
document.addEventListener('DOMContentLoaded', (event) => {
  highlightEdges();
  highlightAdjacentNodes();
});
]]></script>
</svg>
