<?xml version="1.0" encoding="UTF-8" standalone="no"?>
<!DOCTYPE svg PUBLIC "-//W3C//DTD SVG 1.1//EN"
 "http://www.w3.org/Graphics/SVG/1.1/DTD/svg11.dtd">
<!-- Generated by graphviz version 10.0.1 (20240210.2158)
 -->
<!-- Title: Core::FMTyieldmodelTSLA Pages: 1 -->
<svg width="140pt" height="140pt"
 viewBox="0.00 0.00 140.25 140.00" xmlns="http://www.w3.org/2000/svg" xmlns:xlink="http://www.w3.org/1999/xlink">
<g id="graph0" class="graph" transform="scale(1 1) rotate(0) translate(4 136)">
<title>Core::FMTyieldmodelTSLA</title>
<!-- Node1 -->
<g id="node1" class="node">
<title>Node1</title>
<g id="a_node1"><a xlink:title=" ">
<polygon fill="#999999" stroke="#666666" points="132.25,-20 0,-20 0,0 132.25,0 132.25,-20"/>
<text text-anchor="middle" x="66.12" y="-6.5" font-family="Helvetica,sans-Serif" font-size="10.00">Core::FMTyieldmodelTSLA</text>
</a>
</g>
</g>
<!-- Node2 -->
<g id="node2" class="node">
<title>Node2</title>
<g id="a_node2"><a xlink:href="classCore_1_1FMTyieldmodel.html" target="_top" xlink:title=" ">
<polygon fill="white" stroke="#666666" points="120.25,-76 12,-76 12,-56 120.25,-56 120.25,-76"/>
<text text-anchor="middle" x="66.12" y="-62.5" font-family="Helvetica,sans-Serif" font-size="10.00">Core::FMTyieldmodel</text>
</a>
</g>
</g>
<!-- Node2&#45;&gt;Node1 -->
<g id="edge1" class="edge">
<title>Node2&#45;&gt;Node1</title>
<path fill="none" stroke="#63b8ff" d="M66.12,-44.13C66.12,-35.9 66.12,-26.85 66.12,-20.3"/>
<polygon fill="#63b8ff" stroke="#63b8ff" points="62.63,-44.08 66.13,-54.08 69.63,-44.08 62.63,-44.08"/>
</g>
<!-- Node3 -->
<g id="node3" class="node">
<title>Node3</title>
<g id="a_node3"><a xlink:href="classCore_1_1FMTobject.html" target="_top" xlink:title=" ">
<polygon fill="white" stroke="#666666" points="110.12,-132 22.12,-132 22.12,-112 110.12,-112 110.12,-132"/>
<text text-anchor="middle" x="66.12" y="-118.5" font-family="Helvetica,sans-Serif" font-size="10.00">Core::FMTobject</text>
</a>
</g>
</g>
<!-- Node3&#45;&gt;Node2 -->
<g id="edge2" class="edge">
<title>Node3&#45;&gt;Node2</title>
<path fill="none" stroke="#63b8ff" d="M66.12,-100.13C66.12,-91.9 66.12,-82.85 66.12,-76.3"/>
<polygon fill="#63b8ff" stroke="#63b8ff" points="62.63,-100.08 66.13,-110.08 69.63,-100.08 62.63,-100.08"/>
</g>
</g>
</svg>
