<?xml version="1.0" encoding="UTF-8" standalone="no"?>
<!DOCTYPE svg PUBLIC "-//W3C//DTD SVG 1.1//EN"
 "http://www.w3.org/Graphics/SVG/1.1/DTD/svg11.dtd">
<!-- Generated by graphviz version 10.0.1 (20240210.2158)
 -->
<!-- Title: Core::FMTyieldmodel Pages: 1 -->
<svg width="536pt" height="196pt"
 viewBox="0.00 0.00 535.88 196.00" xmlns="http://www.w3.org/2000/svg" xmlns:xlink="http://www.w3.org/1999/xlink">
<g id="graph0" class="graph" transform="scale(1 1) rotate(0) translate(4 192)">
<title>Core::FMTyieldmodel</title>
<!-- Node1 -->
<g id="node1" class="node">
<title>Node1</title>
<g id="a_node1"><a xlink:title=" ">
<polygon fill="#999999" stroke="#666666" points="285.25,-132 177,-132 177,-112 285.25,-112 285.25,-132"/>
<text text-anchor="middle" x="231.12" y="-118.5" font-family="Helvetica,sans-Serif" font-size="10.00">Core::FMTyieldmodel</text>
</a>
</g>
</g>
<!-- Node3 -->
<g id="node3" class="node">
<title>Node3</title>
<g id="a_node3"><a xlink:href="classCore_1_1FMTyieldmodelTSLA.html" target="_top" xlink:title=" ">
<polygon fill="white" stroke="#666666" points="132.25,-76 0,-76 0,-56 132.25,-56 132.25,-76"/>
<text text-anchor="middle" x="66.12" y="-62.5" font-family="Helvetica,sans-Serif" font-size="10.00">Core::FMTyieldmodelTSLA</text>
</a>
</g>
</g>
<!-- Node1&#45;&gt;Node3 -->
<g id="edge2" class="edge">
<title>Node1&#45;&gt;Node3</title>
<path fill="none" stroke="#63b8ff" d="M191.55,-108.05C161.85,-98.33 121.85,-85.24 95.09,-76.48"/>
<polygon fill="#63b8ff" stroke="#63b8ff" points="190.35,-111.34 200.95,-111.12 192.53,-104.69 190.35,-111.34"/>
</g>
<!-- Node4 -->
<g id="node4" class="node">
<title>Node4</title>
<g id="a_node4"><a xlink:href="classCore_1_1FMTyieldmodeldecisiontree.html" target="_top" xlink:title=" ">
<polygon fill="white" stroke="#666666" points="311.5,-76 150.75,-76 150.75,-56 311.5,-56 311.5,-76"/>
<text text-anchor="middle" x="231.12" y="-62.5" font-family="Helvetica,sans-Serif" font-size="10.00">Core::FMTyieldmodeldecisiontree</text>
</a>
</g>
</g>
<!-- Node1&#45;&gt;Node4 -->
<g id="edge3" class="edge">
<title>Node1&#45;&gt;Node4</title>
<path fill="none" stroke="#63b8ff" d="M231.12,-100.13C231.12,-91.9 231.12,-82.85 231.12,-76.3"/>
<polygon fill="#63b8ff" stroke="#63b8ff" points="227.63,-100.08 231.13,-110.08 234.63,-100.08 227.63,-100.08"/>
</g>
<!-- Node5 -->
<g id="node5" class="node">
<title>Node5</title>
<g id="a_node5"><a xlink:href="classCore_1_1FMTyieldmodelnn.html" target="_top" xlink:title=" ">
<polygon fill="white" stroke="#666666" points="448.5,-76 329.75,-76 329.75,-56 448.5,-56 448.5,-76"/>
<text text-anchor="middle" x="389.12" y="-62.5" font-family="Helvetica,sans-Serif" font-size="10.00">Core::FMTyieldmodelnn</text>
</a>
</g>
</g>
<!-- Node1&#45;&gt;Node5 -->
<g id="edge4" class="edge">
<title>Node1&#45;&gt;Node5</title>
<path fill="none" stroke="#63b8ff" d="M269.39,-107.92C297.8,-98.21 335.87,-85.2 361.39,-76.48"/>
<polygon fill="#63b8ff" stroke="#63b8ff" points="268.41,-104.56 260.08,-111.1 270.67,-111.18 268.41,-104.56"/>
</g>
<!-- Node2 -->
<g id="node2" class="node">
<title>Node2</title>
<g id="a_node2"><a xlink:href="classCore_1_1FMTobject.html" target="_top" xlink:title=" ">
<polygon fill="white" stroke="#666666" points="275.12,-188 187.12,-188 187.12,-168 275.12,-168 275.12,-188"/>
<text text-anchor="middle" x="231.12" y="-174.5" font-family="Helvetica,sans-Serif" font-size="10.00">Core::FMTobject</text>
</a>
</g>
</g>
<!-- Node2&#45;&gt;Node1 -->
<g id="edge1" class="edge">
<title>Node2&#45;&gt;Node1</title>
<path fill="none" stroke="#63b8ff" d="M231.12,-156.13C231.12,-147.9 231.12,-138.85 231.12,-132.3"/>
<polygon fill="#63b8ff" stroke="#63b8ff" points="227.63,-156.08 231.13,-166.08 234.63,-156.08 227.63,-156.08"/>
</g>
<!-- Node6 -->
<g id="node6" class="node">
<title>Node6</title>
<g id="a_node6"><a xlink:href="classCore_1_1FMTyieldmodelnep.html" target="_top" xlink:title=" ">
<polygon fill="white" stroke="#666666" points="378.12,-20 254.12,-20 254.12,0 378.12,0 378.12,-20"/>
<text text-anchor="middle" x="316.12" y="-6.5" font-family="Helvetica,sans-Serif" font-size="10.00">Core::FMTyieldmodelnep</text>
</a>
</g>
</g>
<!-- Node5&#45;&gt;Node6 -->
<g id="edge5" class="edge">
<title>Node5&#45;&gt;Node6</title>
<path fill="none" stroke="#63b8ff" d="M367.43,-48.95C354.81,-39.61 339.33,-28.16 328.69,-20.3"/>
<polygon fill="#63b8ff" stroke="#63b8ff" points="365.07,-51.56 375.19,-54.69 369.23,-45.93 365.07,-51.56"/>
</g>
<!-- Node7 -->
<g id="node7" class="node">
<title>Node7</title>
<g id="a_node7"><a xlink:href="classCore_1_1FMTyieldmodelpools.html" target="_top" xlink:title=" ">
<polygon fill="white" stroke="#666666" points="527.88,-20 396.38,-20 396.38,0 527.88,0 527.88,-20"/>
<text text-anchor="middle" x="462.12" y="-6.5" font-family="Helvetica,sans-Serif" font-size="10.00">Core::FMTyieldmodelpools</text>
</a>
</g>
</g>
<!-- Node5&#45;&gt;Node7 -->
<g id="edge6" class="edge">
<title>Node5&#45;&gt;Node7</title>
<path fill="none" stroke="#63b8ff" d="M410.82,-48.95C423.44,-39.61 438.92,-28.16 449.56,-20.3"/>
<polygon fill="#63b8ff" stroke="#63b8ff" points="409.02,-45.93 403.06,-54.69 413.18,-51.56 409.02,-45.93"/>
</g>
</g>
</svg>
