<?xml version="1.0" encoding="UTF-8" standalone="no"?>
<!DOCTYPE svg PUBLIC "-//W3C//DTD SVG 1.1//EN"
 "http://www.w3.org/Graphics/SVG/1.1/DTD/svg11.dtd">
<!-- Generated by graphviz version 10.0.1 (20240210.2158)
 -->
<!-- Title: Heuristics::FMTlpheuristic Pages: 1 -->
<svg width="392pt" height="196pt"
 viewBox="0.00 0.00 392.25 196.00" xmlns="http://www.w3.org/2000/svg" xmlns:xlink="http://www.w3.org/1999/xlink">
<g id="graph0" class="graph" transform="scale(1 1) rotate(0) translate(4 192)">
<title>Heuristics::FMTlpheuristic</title>
<!-- Node1 -->
<g id="node1" class="node">
<title>Node1</title>
<g id="a_node1"><a xlink:title=" ">
<polygon fill="#999999" stroke="#666666" points="255.12,-76 125.88,-76 125.88,-56 255.12,-56 255.12,-76"/>
<text text-anchor="middle" x="190.5" y="-62.5" font-family="Helvetica,sans-Serif" font-size="10.00">Heuristics::FMTlpheuristic</text>
</a>
</g>
</g>
<!-- Node4 -->
<g id="node4" class="node">
<title>Node4</title>
<g id="a_node4"><a xlink:href="classHeuristics_1_1FMToperatingareaclusterer.html" target="_top" xlink:title=" ">
<polygon fill="white" stroke="#666666" points="181,-20 0,-20 0,0 181,0 181,-20"/>
<text text-anchor="middle" x="90.5" y="-6.5" font-family="Helvetica,sans-Serif" font-size="10.00">Heuristics::FMToperatingareaclusterer</text>
</a>
</g>
</g>
<!-- Node1&#45;&gt;Node4 -->
<g id="edge3" class="edge">
<title>Node1&#45;&gt;Node4</title>
<path fill="none" stroke="#63b8ff" d="M163.37,-50.35C145.76,-40.84 123.35,-28.74 108.05,-20.48"/>
<polygon fill="#63b8ff" stroke="#63b8ff" points="161.29,-53.2 171.75,-54.87 164.61,-47.04 161.29,-53.2"/>
</g>
<!-- Node5 -->
<g id="node5" class="node">
<title>Node5</title>
<g id="a_node5"><a xlink:href="classHeuristics_1_1FMToperatingareascheduler.html" target="_top" xlink:title=" ">
<polygon fill="white" stroke="#666666" points="384.25,-20 198.75,-20 198.75,0 384.25,0 384.25,-20"/>
<text text-anchor="middle" x="291.5" y="-6.5" font-family="Helvetica,sans-Serif" font-size="10.00">Heuristics::FMToperatingareascheduler</text>
</a>
</g>
</g>
<!-- Node1&#45;&gt;Node5 -->
<g id="edge4" class="edge">
<title>Node1&#45;&gt;Node5</title>
<path fill="none" stroke="#63b8ff" d="M217.91,-50.35C235.68,-40.84 258.33,-28.74 273.77,-20.48"/>
<polygon fill="#63b8ff" stroke="#63b8ff" points="216.6,-47.08 209.43,-54.88 219.9,-53.25 216.6,-47.08"/>
</g>
<!-- Node2 -->
<g id="node2" class="node">
<title>Node2</title>
<g id="a_node2"><a xlink:href="classModels_1_1FMTlpsolver.html" target="_top" xlink:title=" ">
<polygon fill="white" stroke="#666666" points="243.12,-132 137.88,-132 137.88,-112 243.12,-112 243.12,-132"/>
<text text-anchor="middle" x="190.5" y="-118.5" font-family="Helvetica,sans-Serif" font-size="10.00">Models::FMTlpsolver</text>
</a>
</g>
</g>
<!-- Node2&#45;&gt;Node1 -->
<g id="edge1" class="edge">
<title>Node2&#45;&gt;Node1</title>
<path fill="none" stroke="#63b8ff" d="M190.5,-100.13C190.5,-91.9 190.5,-82.85 190.5,-76.3"/>
<polygon fill="#63b8ff" stroke="#63b8ff" points="187,-100.08 190.5,-110.08 194,-100.08 187,-100.08"/>
</g>
<!-- Node3 -->
<g id="node3" class="node">
<title>Node3</title>
<g id="a_node3"><a xlink:href="classCore_1_1FMTobject.html" target="_top" xlink:title=" ">
<polygon fill="white" stroke="#666666" points="234.5,-188 146.5,-188 146.5,-168 234.5,-168 234.5,-188"/>
<text text-anchor="middle" x="190.5" y="-174.5" font-family="Helvetica,sans-Serif" font-size="10.00">Core::FMTobject</text>
</a>
</g>
</g>
<!-- Node3&#45;&gt;Node2 -->
<g id="edge2" class="edge">
<title>Node3&#45;&gt;Node2</title>
<path fill="none" stroke="#63b8ff" d="M190.5,-156.13C190.5,-147.9 190.5,-138.85 190.5,-132.3"/>
<polygon fill="#63b8ff" stroke="#63b8ff" points="187,-156.08 190.5,-166.08 194,-156.08 187,-156.08"/>
</g>
</g>
</svg>
