<?xml version="1.0" encoding="UTF-8" standalone="no"?>
<!DOCTYPE svg PUBLIC "-//W3C//DTD SVG 1.1//EN"
 "http://www.w3.org/Graphics/SVG/1.1/DTD/svg11.dtd">
<!-- Generated by graphviz version 8.1.0 (20230707.0739)
 -->
<!-- Title: Models::FMTmodel Pages: 1 -->
<svg width="508pt" height="196pt"
 viewBox="0.00 0.00 508.38 196.00" xmlns="http://www.w3.org/2000/svg" xmlns:xlink="http://www.w3.org/1999/xlink">
<g id="graph0" class="graph" transform="scale(1 1) rotate(0) translate(4 192)">
<title>Models::FMTmodel</title>
<!-- Node1 -->
<g id="Node000001" class="node">
<title>Node1</title>
<g id="a_Node000001"><a xlink:title=" ">
<polygon fill="#999999" stroke="#666666" points="298.5,-132 199.25,-132 199.25,-112 298.5,-112 298.5,-132"/>
<text text-anchor="middle" x="248.88" y="-118.5" font-family="Helvetica,sans-Serif" font-size="10.00">Models::FMTmodel</text>
</a>
</g>
</g>
<!-- Node3 -->
<g id="Node000003" class="node">
<title>Node3</title>
<g id="a_Node000003"><a xlink:href="classModels_1_1FMTsemodel.html" target="_top" xlink:title=" ">
<polygon fill="white" stroke="#666666" points="239.75,-76 130,-76 130,-56 239.75,-56 239.75,-76"/>
<text text-anchor="middle" x="184.88" y="-62.5" font-family="Helvetica,sans-Serif" font-size="10.00">Models::FMTsemodel</text>
</a>
</g>
</g>
<!-- Node1&#45;&gt;Node3 -->
<g id="edge2_Node000001_Node000003" class="edge">
<title>Node1&#45;&gt;Node3</title>
<g id="a_edge2_Node000001_Node000003"><a xlink:title=" ">
<path fill="none" stroke="#63b8ff" d="M229.53,-104.68C218.52,-95.39 205.13,-84.09 195.9,-76.3"/>
<polygon fill="#63b8ff" stroke="#63b8ff" points="226.83,-107.82 236.73,-111.59 231.34,-102.47 226.83,-107.82"/>
</a>
</g>
</g>
<!-- Node6 -->
<g id="Node000006" class="node">
<title>Node6</title>
<g id="a_Node000006"><a xlink:href="classModels_1_1FMTsrmodel.html" target="_top" xlink:title=" ">
<polygon fill="white" stroke="#666666" points="367.62,-76 260.12,-76 260.12,-56 367.62,-56 367.62,-76"/>
<text text-anchor="middle" x="313.88" y="-62.5" font-family="Helvetica,sans-Serif" font-size="10.00">Models::FMTsrmodel</text>
</a>
</g>
</g>
<!-- Node1&#45;&gt;Node6 -->
<g id="edge5_Node000001_Node000006" class="edge">
<title>Node1&#45;&gt;Node6</title>
<g id="a_edge5_Node000001_Node000006"><a xlink:title=" ">
<path fill="none" stroke="#63b8ff" d="M268.52,-104.68C279.7,-95.39 293.31,-84.09 302.68,-76.3"/>
<polygon fill="#63b8ff" stroke="#63b8ff" points="266.65,-102.51 261.2,-111.59 271.13,-107.9 266.65,-102.51"/>
</a>
</g>
</g>
<!-- Node2 -->
<g id="Node000002" class="node">
<title>Node2</title>
<g id="a_Node000002"><a xlink:href="classCore_1_1FMTobject.html" target="_top" xlink:title=" ">
<polygon fill="white" stroke="#666666" points="292.88,-188 204.88,-188 204.88,-168 292.88,-168 292.88,-188"/>
<text text-anchor="middle" x="248.88" y="-174.5" font-family="Helvetica,sans-Serif" font-size="10.00">Core::FMTobject</text>
</a>
</g>
</g>
<!-- Node2&#45;&gt;Node1 -->
<g id="edge1_Node000001_Node000002" class="edge">
<title>Node2&#45;&gt;Node1</title>
<g id="a_edge1_Node000001_Node000002"><a xlink:title=" ">
<path fill="none" stroke="#63b8ff" d="M248.88,-156.71C248.88,-148.32 248.88,-139.01 248.88,-132.3"/>
<polygon fill="#63b8ff" stroke="#63b8ff" points="245.38,-156.59 248.88,-166.59 252.38,-156.59 245.38,-156.59"/>
</a>
</g>
</g>
<!-- Node4 -->
<g id="Node000004" class="node">
<title>Node4</title>
<g id="a_Node000004"><a xlink:href="classModels_1_1FMTsamodel.html" target="_top" xlink:title=" ">
<polygon fill="white" stroke="#666666" points="109.75,-20 0,-20 0,0 109.75,0 109.75,-20"/>
<text text-anchor="middle" x="54.88" y="-6.5" font-family="Helvetica,sans-Serif" font-size="10.00">Models::FMTsamodel</text>
</a>
</g>
</g>
<!-- Node3&#45;&gt;Node4 -->
<g id="edge3_Node000003_Node000004" class="edge">
<title>Node3&#45;&gt;Node4</title>
<g id="a_edge3_Node000003_Node000004"><a xlink:title=" ">
<path fill="none" stroke="#63b8ff" d="M152.14,-51.4C128.91,-41.75 98.32,-29.05 77.7,-20.48"/>
<polygon fill="#63b8ff" stroke="#63b8ff" points="150.65,-54.99 161.23,-55.59 153.34,-48.53 150.65,-54.99"/>
</a>
</g>
</g>
<!-- Node5 -->
<g id="Node000005" class="node">
<title>Node5</title>
<g id="a_Node000005"><a xlink:href="classModels_1_1FMTsesmodel.html" target="_top" xlink:title=" ">
<polygon fill="white" stroke="#666666" points="242.38,-20 127.38,-20 127.38,0 242.38,0 242.38,-20"/>
<text text-anchor="middle" x="184.88" y="-6.5" font-family="Helvetica,sans-Serif" font-size="10.00">Models::FMTsesmodel</text>
</a>
</g>
</g>
<!-- Node3&#45;&gt;Node5 -->
<g id="edge4_Node000003_Node000005" class="edge">
<title>Node3&#45;&gt;Node5</title>
<g id="a_edge4_Node000003_Node000005"><a xlink:title=" ">
<path fill="none" stroke="#63b8ff" d="M184.88,-44.71C184.88,-36.32 184.88,-27.01 184.88,-20.3"/>
<polygon fill="#63b8ff" stroke="#63b8ff" points="181.38,-44.59 184.88,-54.59 188.38,-44.59 181.38,-44.59"/>
</a>
</g>
</g>
<!-- Node7 -->
<g id="Node000007" class="node">
<title>Node7</title>
<g id="a_Node000007"><a xlink:href="classModels_1_1FMTlpmodel.html" target="_top" xlink:title=" ">
<polygon fill="white" stroke="#666666" points="367.25,-20 260.5,-20 260.5,0 367.25,0 367.25,-20"/>
<text text-anchor="middle" x="313.88" y="-6.5" font-family="Helvetica,sans-Serif" font-size="10.00">Models::FMTlpmodel</text>
</a>
</g>
</g>
<!-- Node6&#45;&gt;Node7 -->
<g id="edge6_Node000006_Node000007" class="edge">
<title>Node6&#45;&gt;Node7</title>
<g id="a_edge6_Node000006_Node000007"><a xlink:title=" ">
<path fill="none" stroke="#63b8ff" d="M313.88,-44.71C313.88,-36.32 313.88,-27.01 313.88,-20.3"/>
<polygon fill="#63b8ff" stroke="#63b8ff" points="310.38,-44.59 313.88,-54.59 317.38,-44.59 310.38,-44.59"/>
</a>
</g>
</g>
<!-- Node8 -->
<g id="Node000008" class="node">
<title>Node8</title>
<g id="a_Node000008"><a xlink:href="classModels_1_1FMTnssmodel.html" target="_top" xlink:title=" ">
<polygon fill="white" stroke="#666666" points="500.38,-20 385.38,-20 385.38,0 500.38,0 500.38,-20"/>
<text text-anchor="middle" x="442.88" y="-6.5" font-family="Helvetica,sans-Serif" font-size="10.00">Models::FMTnssmodel</text>
</a>
</g>
</g>
<!-- Node6&#45;&gt;Node8 -->
<g id="edge7_Node000006_Node000008" class="edge">
<title>Node6&#45;&gt;Node8</title>
<g id="a_edge7_Node000006_Node000008"><a xlink:title=" ">
<path fill="none" stroke="#63b8ff" d="M346.36,-51.4C369.41,-41.75 399.77,-29.05 420.23,-20.48"/>
<polygon fill="#63b8ff" stroke="#63b8ff" points="345.22,-48.5 337.35,-55.59 347.92,-54.96 345.22,-48.5"/>
</a>
</g>
</g>
</g>
</svg>
