<?xml version="1.0" encoding="UTF-8" standalone="no"?>
<!DOCTYPE svg PUBLIC "-//W3C//DTD SVG 1.1//EN"
 "http://www.w3.org/Graphics/SVG/1.1/DTD/svg11.dtd">
<!-- Generated by graphviz version 10.0.1 (20240210.2158)
 -->
<!-- Title: Spatial::FMTlayer&lt; T &gt; Pages: 1 -->
<!--zoomable 344 -->
<svg id="main" version="1.1" xmlns="http://www.w3.org/2000/svg" xmlns:xlink="http://www.w3.org/1999/xlink" xml:space="preserve" onload="init(evt)">
<style type="text/css"><![CDATA[
.edge:hover path { stroke: red; }
.edge:hover polygon { stroke: red; fill: red; }
]]></style>
<script type="text/javascript"><![CDATA[
var edges = document.getElementsByTagName('g');
if (edges && edges.length) {
  for (var i=0;i<edges.length;i++) {
    if (edges[i].id.substr(0,4)=='edge') {
      edges[i].setAttribute('class','edge');
    }
  }
}
]]></script>
        <defs>
                <circle id="rim" cx="0" cy="0" r="7"/>
                <circle id="rim2" cx="0" cy="0" r="3.5"/>
                <g id="zoomPlus">
                        <use xlink:href="#rim" fill="#404040">
                                <set attributeName="fill" to="#808080" begin="zoomplus.mouseover" end="zoomplus.mouseout"/>
                        </use>
                        <path d="M-4,0h8M0,-4v8" fill="none" stroke="white" stroke-width="1.5" pointer-events="none"/>
                </g>
                <g id="zoomMin">
                        <use xlink:href="#rim" fill="#404040">
                                <set attributeName="fill" to="#808080" begin="zoomminus.mouseover" end="zoomminus.mouseout"/>
                        </use>
                        <path d="M-4,0h8" fill="none" stroke="white" stroke-width="1.5" pointer-events="none"/>
                </g>
                <g id="dirArrow">
                        <path fill="none" stroke="white" stroke-width="1.5" d="M0,-3.0v7 M-2.5,-0.5L0,-3.0L2.5,-0.5"/>
                </g>
               <g id="resetDef">
                       <use xlink:href="#rim2" fill="#404040">
                               <set attributeName="fill" to="#808080" begin="reset.mouseover" end="reset.mouseout"/>
                       </use>
               </g>
        </defs>

<script type="text/javascript">
var viewWidth = 1975;
var viewHeight = 344;
var sectionId = 'dynsection-1';
</script>
<script xlink:href="svgpan.js"/>
<svg id="graph" class="graph">
<g id="viewport">
<title>Spatial::FMTlayer&lt; T &gt;</title>
<!-- Node1 -->
<g id="node1" class="node">
<title>Node1</title>
<g id="a_node1"><a xlink:title=" ">
<polygon fill="#999999" stroke="#666666" points="1967,-102 1851.25,-102 1851.25,-82 1967,-82 1967,-102"/>
<text text-anchor="middle" x="1909.12" y="-88.5" font-family="Helvetica,sans-Serif" font-size="10.00">Spatial::FMTlayer&lt; T &gt;</text>
</a>
</g>
</g>
<!-- Node2 -->
<g id="node2" class="node">
<title>Node2</title>
<g id="a_node2"><a xlink:href="classCore_1_1FMTobject.html" target="_top" xlink:title=" ">
<polygon fill="white" stroke="#666666" points="1746.25,-162 1658.25,-162 1658.25,-142 1746.25,-142 1746.25,-162"/>
<text text-anchor="middle" x="1702.25" y="-148.5" font-family="Helvetica,sans-Serif" font-size="10.00">Core::FMTobject</text>
</a>
</g>
</g>
<!-- Node2&#45;&gt;Node1 -->
<g id="edge1" class="edge">
<title>Node2&#45;&gt;Node1</title>
<path fill="none" stroke="#63b8ff" d="M1757.76,-143.32C1781.28,-138.9 1808.91,-132.79 1833.25,-125 1852.19,-118.93 1872.81,-109.63 1887.6,-102.45"/>
<polygon fill="#63b8ff" stroke="#63b8ff" points="1757.28,-139.85 1748.07,-145.08 1758.53,-146.74 1757.28,-139.85"/>
</g>
<!-- Node3 -->
<g id="node3" class="node">
<title>Node3</title>
<g id="a_node3"><a xlink:title=" ">
<polygon fill="white" stroke="#666666" points="1562.25,-223 1428.5,-223 1428.5,-191 1562.25,-191 1562.25,-223"/>
<text text-anchor="start" x="1436.5" y="-209.5" font-family="Helvetica,sans-Serif" font-size="10.00">std::shared_ptr&lt; Exception</text>
<text text-anchor="middle" x="1495.38" y="-197.5" font-family="Helvetica,sans-Serif" font-size="10.00">::FMTexceptionhandler &gt;</text>
</a>
</g>
</g>
<!-- Node3&#45;&gt;Node2 -->
<g id="edge2" class="edge">
<title>Node3&#45;&gt;Node2</title>
<path fill="none" stroke="#9a32cd" stroke-dasharray="5,2" d="M1568.53,-187.63C1600.09,-179.16 1635.86,-169.55 1662.31,-162.45"/>
<polygon fill="#9a32cd" stroke="#9a32cd" points="1567.78,-184.21 1559.03,-190.18 1569.59,-190.97 1567.78,-184.21"/>
<text text-anchor="middle" x="1605.38" y="-186.5" font-family="Helvetica,sans-Serif" font-size="10.00"> _exhandler</text>
</g>
<!-- Node4 -->
<g id="node4" class="node">
<title>Node4</title>
<g id="a_node4"><a xlink:href="classException_1_1FMTexceptionhandler.html" target="_top" xlink:title=" ">
<polygon fill="white" stroke="#666666" points="1358,-230 1199.5,-230 1199.5,-210 1358,-210 1358,-230"/>
<text text-anchor="middle" x="1278.75" y="-216.5" font-family="Helvetica,sans-Serif" font-size="10.00">Exception::FMTexceptionhandler</text>
</a>
</g>
</g>
<!-- Node4&#45;&gt;Node3 -->
<g id="edge3" class="edge">
<title>Node4&#45;&gt;Node3</title>
<path fill="none" stroke="#9a32cd" stroke-dasharray="5,2" d="M1369.83,-214.54C1389.34,-213.36 1409.63,-212.13 1428.03,-211.02"/>
<polygon fill="#9a32cd" stroke="#9a32cd" points="1369.73,-211.04 1359.96,-215.14 1370.15,-218.03 1369.73,-211.04"/>
<text text-anchor="middle" x="1393.25" y="-215.5" font-family="Helvetica,sans-Serif" font-size="10.00"> ptr</text>
</g>
<!-- Node5 -->
<g id="node5" class="node">
<title>Node5</title>
<g id="a_node5"><a xlink:title=" ">
<polygon fill="white" stroke="#666666" points="1065.25,-186 941.25,-186 941.25,-154 1065.25,-154 1065.25,-186"/>
<text text-anchor="start" x="949.25" y="-172.5" font-family="Helvetica,sans-Serif" font-size="10.00">std::shared_ptr&lt; Logging</text>
<text text-anchor="middle" x="1003.25" y="-160.5" font-family="Helvetica,sans-Serif" font-size="10.00">::FMTlogger &gt;</text>
</a>
</g>
</g>
<!-- Node5&#45;&gt;Node2 -->
<g id="edge19" class="edge">
<title>Node5&#45;&gt;Node2</title>
<path fill="none" stroke="#9a32cd" stroke-dasharray="5,2" d="M1076.85,-168.13C1221.51,-164.39 1541.77,-156.12 1658.02,-153.12"/>
<polygon fill="#9a32cd" stroke="#9a32cd" points="1076.91,-164.62 1067.01,-168.38 1077.09,-171.62 1076.91,-164.62"/>
<text text-anchor="middle" x="1393.25" y="-162.5" font-family="Helvetica,sans-Serif" font-size="10.00"> _logger</text>
</g>
<!-- Node5&#45;&gt;Node4 -->
<g id="edge4" class="edge">
<title>Node5&#45;&gt;Node4</title>
<path fill="none" stroke="#9a32cd" stroke-dasharray="5,2" d="M1076.81,-183.27C1121.88,-191.5 1178.97,-201.94 1220.78,-209.58"/>
<polygon fill="#9a32cd" stroke="#9a32cd" points="1077.58,-179.85 1067.12,-181.49 1076.33,-186.73 1077.58,-179.85"/>
<text text-anchor="middle" x="1132.38" y="-204.5" font-family="Helvetica,sans-Serif" font-size="10.00"> _logger</text>
</g>
<!-- Node6 -->
<g id="node6" class="node">
<title>Node6</title>
<g id="a_node6"><a xlink:href="classLogging_1_1FMTlogger.html" target="_top" xlink:title=" ">
<polygon fill="white" stroke="#666666" points="891,-187 789.5,-187 789.5,-167 891,-167 891,-187"/>
<text text-anchor="middle" x="840.25" y="-173.5" font-family="Helvetica,sans-Serif" font-size="10.00">Logging::FMTlogger</text>
</a>
</g>
</g>
<!-- Node6&#45;&gt;Node5 -->
<g id="edge5" class="edge">
<title>Node6&#45;&gt;Node5</title>
<path fill="none" stroke="#9a32cd" stroke-dasharray="5,2" d="M902.6,-174.33C915.14,-173.79 928.34,-173.21 940.88,-172.67"/>
<polygon fill="#9a32cd" stroke="#9a32cd" points="902.66,-170.83 892.82,-174.76 902.96,-177.82 902.66,-170.83"/>
<text text-anchor="middle" x="916.12" y="-175.5" font-family="Helvetica,sans-Serif" font-size="10.00"> ptr</text>
</g>
<!-- Node7 -->
<g id="node7" class="node">
<title>Node7</title>
<g id="a_node7"><a xlink:title=" ">
<polygon fill="white" stroke="#666666" points="708.5,-192 585.25,-192 585.25,-160 708.5,-160 708.5,-192"/>
<text text-anchor="start" x="593.25" y="-178.5" font-family="Helvetica,sans-Serif" font-size="10.00">std::unique_ptr&lt; Logging</text>
<text text-anchor="middle" x="646.88" y="-166.5" font-family="Helvetica,sans-Serif" font-size="10.00">::FMTsolverlogger &gt;</text>
</a>
</g>
</g>
<!-- Node7&#45;&gt;Node6 -->
<g id="edge6" class="edge">
<title>Node7&#45;&gt;Node6</title>
<path fill="none" stroke="#9a32cd" stroke-dasharray="5,2" d="M720.41,-176.38C743.4,-176.5 768.27,-176.63 789.3,-176.74"/>
<polygon fill="#9a32cd" stroke="#9a32cd" points="720.49,-172.88 710.47,-176.33 720.45,-179.88 720.49,-172.88"/>
<text text-anchor="middle" x="749" y="-178.5" font-family="Helvetica,sans-Serif" font-size="10.00"> solverref</text>
</g>
<!-- Node8 -->
<g id="node8" class="node">
<title>Node8</title>
<g id="a_node8"><a xlink:href="classLogging_1_1FMTsolverlogger.html" target="_top" xlink:title=" ">
<polygon fill="white" stroke="#666666" points="535,-186 408.75,-186 408.75,-166 535,-166 535,-186"/>
<text text-anchor="middle" x="471.88" y="-172.5" font-family="Helvetica,sans-Serif" font-size="10.00">Logging::FMTsolverlogger</text>
</a>
</g>
</g>
<!-- Node8&#45;&gt;Node7 -->
<g id="edge7" class="edge">
<title>Node8&#45;&gt;Node7</title>
<path fill="none" stroke="#9a32cd" stroke-dasharray="5,2" d="M546.48,-176C559.3,-176 572.52,-176 584.96,-176"/>
<polygon fill="#9a32cd" stroke="#9a32cd" points="546.85,-172.5 536.85,-176 546.85,-179.5 546.85,-172.5"/>
<text text-anchor="middle" x="560.12" y="-178.5" font-family="Helvetica,sans-Serif" font-size="10.00"> ptr</text>
</g>
<!-- Node9 -->
<g id="node9" class="node">
<title>Node9</title>
<g id="a_node9"><a xlink:title=" ">
<polygon fill="white" stroke="#666666" points="371.75,-186 263.5,-186 263.5,-166 371.75,-166 371.75,-186"/>
<text text-anchor="middle" x="317.62" y="-172.5" font-family="Helvetica,sans-Serif" font-size="10.00">CoinMessageHandler</text>
</a>
</g>
</g>
<!-- Node9&#45;&gt;Node8 -->
<g id="edge8" class="edge">
<title>Node9&#45;&gt;Node8</title>
<path fill="none" stroke="#63b8ff" d="M383.37,-176C391.61,-176 400.04,-176 408.25,-176"/>
<polygon fill="#63b8ff" stroke="#63b8ff" points="383.39,-172.5 373.39,-176 383.39,-179.5 383.39,-172.5"/>
</g>
<!-- Node10 -->
<g id="node10" class="node">
<title>Node10</title>
<g id="a_node10"><a xlink:title=" ">
<polygon fill="white" stroke="#666666" points="676.62,-135 617.12,-135 617.12,-115 676.62,-115 676.62,-135"/>
<text text-anchor="middle" x="646.88" y="-121.5" font-family="Helvetica,sans-Serif" font-size="10.00">std::string</text>
</a>
</g>
</g>
<!-- Node10&#45;&gt;Node1 -->
<g id="edge21" class="edge">
<title>Node10&#45;&gt;Node1</title>
<path fill="none" stroke="#9a32cd" stroke-dasharray="5,2" d="M688.3,-120.32C726.99,-116.25 787.02,-111 839.25,-111 839.25,-111 839.25,-111 1703.25,-111 1753.26,-111 1809.84,-105.32 1850.85,-100.17"/>
<polygon fill="#9a32cd" stroke="#9a32cd" points="688.08,-116.82 678.51,-121.38 688.83,-123.78 688.08,-116.82"/>
<text text-anchor="middle" x="1278.75" y="-113.5" font-family="Helvetica,sans-Serif" font-size="10.00"> SRS_WKT</text>
</g>
<!-- Node10&#45;&gt;Node6 -->
<g id="edge9" class="edge">
<title>Node10&#45;&gt;Node6</title>
<path fill="none" stroke="#9a32cd" stroke-dasharray="5,2" d="M687.62,-135.8C720.79,-144.81 767.78,-157.58 800.63,-166.51"/>
<polygon fill="#9a32cd" stroke="#9a32cd" points="688.97,-132.54 678.4,-133.29 687.13,-139.29 688.97,-132.54"/>
<text text-anchor="middle" x="749" y="-159.5" font-family="Helvetica,sans-Serif" font-size="10.00"> filepath</text>
</g>
<!-- Node11 -->
<g id="node11" class="node">
<title>Node11</title>
<g id="a_node11"><a xlink:title=" ">
<polygon fill="white" stroke="#666666" points="518.88,-141 424.88,-141 424.88,-109 518.88,-109 518.88,-141"/>
<text text-anchor="start" x="432.88" y="-127.5" font-family="Helvetica,sans-Serif" font-size="10.00">std::basic_string&lt;</text>
<text text-anchor="middle" x="471.88" y="-115.5" font-family="Helvetica,sans-Serif" font-size="10.00"> Char &gt;</text>
</a>
</g>
</g>
<!-- Node11&#45;&gt;Node10 -->
<g id="edge10" class="edge">
<title>Node11&#45;&gt;Node10</title>
<path fill="none" stroke="#63b8ff" d="M530.47,-125C559.43,-125 593.26,-125 616.78,-125"/>
<polygon fill="#63b8ff" stroke="#63b8ff" points="530.75,-121.5 520.75,-125 530.75,-128.5 530.75,-121.5"/>
</g>
<!-- Node12 -->
<g id="node12" class="node">
<title>Node12</title>
<g id="a_node12"><a xlink:title=" ">
<polygon fill="white" stroke="#666666" points="683.38,-230 610.38,-230 610.38,-210 683.38,-210 683.38,-230"/>
<text text-anchor="middle" x="646.88" y="-216.5" font-family="Helvetica,sans-Serif" font-size="10.00">std::ofstream</text>
</a>
</g>
</g>
<!-- Node12&#45;&gt;Node6 -->
<g id="edge11" class="edge">
<title>Node12&#45;&gt;Node6</title>
<path fill="none" stroke="#9a32cd" stroke-dasharray="5,2" d="M694.81,-209.45C724.55,-202.77 762.86,-194.16 792.55,-187.49"/>
<polygon fill="#9a32cd" stroke="#9a32cd" points="694.34,-205.97 685.35,-211.58 695.87,-212.8 694.34,-205.97"/>
<text text-anchor="middle" x="749" y="-203.5" font-family="Helvetica,sans-Serif" font-size="10.00"> filestream</text>
</g>
<!-- Node13 -->
<g id="node13" class="node">
<title>Node13</title>
<g id="a_node13"><a xlink:title=" ">
<polygon fill="white" stroke="#666666" points="522.62,-236 421.12,-236 421.12,-204 522.62,-204 522.62,-236"/>
<text text-anchor="start" x="429.12" y="-222.5" font-family="Helvetica,sans-Serif" font-size="10.00">std::basic_ofstream</text>
<text text-anchor="middle" x="471.88" y="-210.5" font-family="Helvetica,sans-Serif" font-size="10.00">&lt; Char &gt;</text>
</a>
</g>
</g>
<!-- Node13&#45;&gt;Node12 -->
<g id="edge12" class="edge">
<title>Node13&#45;&gt;Node12</title>
<path fill="none" stroke="#63b8ff" d="M534.3,-220C559.63,-220 588.11,-220 609.96,-220"/>
<polygon fill="#63b8ff" stroke="#63b8ff" points="534.43,-216.5 524.43,-220 534.43,-223.5 534.43,-216.5"/>
</g>
<!-- Node14 -->
<g id="node14" class="node">
<title>Node14</title>
<g id="a_node14"><a xlink:title=" ">
<polygon fill="white" stroke="#666666" points="367.25,-236 268,-236 268,-204 367.25,-204 367.25,-236"/>
<text text-anchor="start" x="276" y="-222.5" font-family="Helvetica,sans-Serif" font-size="10.00">std::basic_ostream</text>
<text text-anchor="middle" x="317.62" y="-210.5" font-family="Helvetica,sans-Serif" font-size="10.00">&lt; Char &gt;</text>
</a>
</g>
</g>
<!-- Node14&#45;&gt;Node13 -->
<g id="edge13" class="edge">
<title>Node14&#45;&gt;Node13</title>
<path fill="none" stroke="#63b8ff" d="M379.01,-220C392.81,-220 407.33,-220 420.65,-220"/>
<polygon fill="#63b8ff" stroke="#63b8ff" points="379.15,-216.5 369.15,-220 379.15,-223.5 379.15,-216.5"/>
</g>
<!-- Node15 -->
<g id="node15" class="node">
<title>Node15</title>
<g id="a_node15"><a xlink:title=" ">
<polygon fill="white" stroke="#666666" points="226.5,-230 111.5,-230 111.5,-210 226.5,-210 226.5,-230"/>
<text text-anchor="middle" x="169" y="-216.5" font-family="Helvetica,sans-Serif" font-size="10.00">std::basic_ios&lt; Char &gt;</text>
</a>
</g>
</g>
<!-- Node15&#45;&gt;Node14 -->
<g id="edge14" class="edge">
<title>Node15&#45;&gt;Node14</title>
<path fill="none" stroke="#63b8ff" d="M237.93,-220C247.98,-220 258.16,-220 267.72,-220"/>
<polygon fill="#63b8ff" stroke="#63b8ff" points="238.2,-216.5 228.2,-220 238.2,-223.5 238.2,-216.5"/>
</g>
<!-- Node16 -->
<g id="node16" class="node">
<title>Node16</title>
<g id="a_node16"><a xlink:title=" ">
<polygon fill="white" stroke="#666666" points="74.5,-230 0,-230 0,-210 74.5,-210 74.5,-230"/>
<text text-anchor="middle" x="37.25" y="-216.5" font-family="Helvetica,sans-Serif" font-size="10.00">std::ios_base</text>
</a>
</g>
</g>
<!-- Node16&#45;&gt;Node15 -->
<g id="edge15" class="edge">
<title>Node16&#45;&gt;Node15</title>
<path fill="none" stroke="#63b8ff" d="M86.07,-220C94.32,-220 102.96,-220 111.41,-220"/>
<polygon fill="#63b8ff" stroke="#63b8ff" points="86.25,-216.5 76.25,-220 86.25,-223.5 86.25,-216.5"/>
</g>
<!-- Node17 -->
<g id="node17" class="node">
<title>Node17</title>
<g id="a_node17"><a xlink:title=" ">
<polygon fill="white" stroke="#666666" points="1060,-236 946.5,-236 946.5,-204 1060,-204 1060,-236"/>
<text text-anchor="start" x="954.5" y="-222.5" font-family="Helvetica,sans-Serif" font-size="10.00">std::vector&lt; Exception</text>
<text text-anchor="middle" x="1003.25" y="-210.5" font-family="Helvetica,sans-Serif" font-size="10.00">::FMTexc &gt;</text>
</a>
</g>
</g>
<!-- Node17&#45;&gt;Node4 -->
<g id="edge16" class="edge">
<title>Node17&#45;&gt;Node4</title>
<path fill="none" stroke="#9a32cd" stroke-dasharray="5,2" d="M1071.37,-220C1109.95,-220 1158.62,-220 1199.01,-220"/>
<polygon fill="#9a32cd" stroke="#9a32cd" points="1071.77,-216.5 1061.77,-220 1071.77,-223.5 1071.77,-216.5"/>
<text text-anchor="middle" x="1132.38" y="-222.5" font-family="Helvetica,sans-Serif" font-size="10.00"> errorstowarnings</text>
</g>
<!-- Node18 -->
<g id="node18" class="node">
<title>Node18</title>
<g id="a_node18"><a xlink:title=" ">
<polygon fill="white" stroke="#666666" points="1060.75,-336 945.75,-336 945.75,-304 1060.75,-304 1060.75,-336"/>
<text text-anchor="start" x="953.75" y="-322.5" font-family="Helvetica,sans-Serif" font-size="10.00">std::set&lt; boost::thread</text>
<text text-anchor="middle" x="1003.25" y="-310.5" font-family="Helvetica,sans-Serif" font-size="10.00">::id &gt;</text>
</a>
</g>
</g>
<!-- Node18&#45;&gt;Node4 -->
<g id="edge17" class="edge">
<title>Node18&#45;&gt;Node4</title>
<path fill="none" stroke="#9a32cd" stroke-dasharray="5,2" d="M1072.22,-304.9C1105.69,-296.53 1146.32,-284.99 1181.5,-271 1210.49,-259.47 1242.1,-241.62 1260.9,-230.38"/>
<polygon fill="#9a32cd" stroke="#9a32cd" points="1071.51,-301.47 1062.63,-307.25 1073.17,-308.27 1071.51,-301.47"/>
<text text-anchor="middle" x="1132.38" y="-303.5" font-family="Helvetica,sans-Serif" font-size="10.00"> registered_threads</text>
</g>
<!-- Node19 -->
<g id="node19" class="node">
<title>Node19</title>
<g id="a_node19"><a xlink:title=" ">
<polygon fill="white" stroke="#666666" points="1054.38,-286 952.12,-286 952.12,-254 1054.38,-254 1054.38,-286"/>
<text text-anchor="start" x="960.12" y="-272.5" font-family="Helvetica,sans-Serif" font-size="10.00">std::unordered_map</text>
<text text-anchor="middle" x="1003.25" y="-260.5" font-family="Helvetica,sans-Serif" font-size="10.00">&lt; int, size_t &gt;</text>
</a>
</g>
</g>
<!-- Node19&#45;&gt;Node4 -->
<g id="edge18" class="edge">
<title>Node19&#45;&gt;Node4</title>
<path fill="none" stroke="#9a32cd" stroke-dasharray="5,2" d="M1065.83,-258.74C1112.17,-250.27 1175.21,-238.75 1220.47,-230.47"/>
<polygon fill="#9a32cd" stroke="#9a32cd" points="1065.43,-255.26 1056.22,-260.5 1066.69,-262.14 1065.43,-255.26"/>
<text text-anchor="middle" x="1132.38" y="-257.5" font-family="Helvetica,sans-Serif" font-size="10.00"> _specificwarningcount</text>
</g>
<!-- Node20 -->
<g id="node20" class="node">
<title>Node20</title>
<g id="a_node20"><a xlink:title=" ">
<polygon fill="white" stroke="#666666" points="1756,-83 1648.5,-83 1648.5,-63 1756,-63 1756,-83"/>
<text text-anchor="middle" x="1702.25" y="-69.5" font-family="Helvetica,sans-Serif" font-size="10.00">std::vector&lt; double &gt;</text>
</a>
</g>
</g>
<!-- Node20&#45;&gt;Node1 -->
<g id="edge20" class="edge">
<title>Node20&#45;&gt;Node1</title>
<path fill="none" stroke="#9a32cd" stroke-dasharray="5,2" d="M1767.72,-78.94C1788.63,-80.87 1811.92,-83.02 1833.25,-85 1838.97,-85.53 1844.94,-86.09 1850.89,-86.64"/>
<polygon fill="#9a32cd" stroke="#9a32cd" points="1768.17,-75.46 1757.89,-78.03 1767.52,-82.43 1768.17,-75.46"/>
<text text-anchor="middle" x="1803.62" y="-87.5" font-family="Helvetica,sans-Serif" font-size="10.00"> geotransform</text>
</g>
<!-- Node21 -->
<g id="node21" class="node">
<title>Node21</title>
<g id="a_node21"><a xlink:title=" ">
<polygon fill="white" stroke="#666666" points="1752.62,-45 1651.88,-45 1651.88,-13 1752.62,-13 1752.62,-45"/>
<text text-anchor="start" x="1659.88" y="-31.5" font-family="Helvetica,sans-Serif" font-size="10.00">std::map&lt; Spatial::</text>
<text text-anchor="middle" x="1702.25" y="-19.5" font-family="Helvetica,sans-Serif" font-size="10.00">FMTcoordinate, T &gt;</text>
</a>
</g>
</g>
<!-- Node21&#45;&gt;Node1 -->
<g id="edge22" class="edge">
<title>Node21&#45;&gt;Node1</title>
<path fill="none" stroke="#9a32cd" stroke-dasharray="5,2" d="M1763.83,-44.03C1785.82,-49.83 1810.78,-56.79 1833.25,-64 1849.64,-69.26 1867.72,-75.99 1882,-81.54"/>
<polygon fill="#9a32cd" stroke="#9a32cd" points="1764.98,-40.72 1754.42,-41.58 1763.22,-47.49 1764.98,-40.72"/>
<text text-anchor="middle" x="1803.62" y="-66.5" font-family="Helvetica,sans-Serif" font-size="10.00"> mapping</text>
</g>
<!-- Node22 -->
<g id="node22" class="node">
<title>Node22</title>
<g id="a_node22"><a xlink:href="classSpatial_1_1FMTcoordinate.html" target="_top" xlink:title=" ">
<polygon fill="white" stroke="#666666" points="1553.62,-20 1437.12,-20 1437.12,0 1553.62,0 1553.62,-20"/>
<text text-anchor="middle" x="1495.38" y="-6.5" font-family="Helvetica,sans-Serif" font-size="10.00">Spatial::FMTcoordinate</text>
</a>
</g>
</g>
<!-- Node22&#45;&gt;Node21 -->
<g id="edge23" class="edge">
<title>Node22&#45;&gt;Node21</title>
<path fill="none" stroke="#9a32cd" stroke-dasharray="5,2" d="M1565.39,-9.69C1586.36,-10.24 1609.42,-11.47 1630.5,-14 1637.36,-14.82 1644.53,-15.98 1651.57,-17.3"/>
<polygon fill="#9a32cd" stroke="#9a32cd" points="1565.56,-6.2 1555.49,-9.49 1565.42,-13.2 1565.56,-6.2"/>
<text text-anchor="middle" x="1605.38" y="-16.5" font-family="Helvetica,sans-Serif" font-size="10.00"> keys</text>
</g>
<!-- Node23 -->
<g id="node23" class="node">
<title>Node23</title>
<g id="a_node23"><a xlink:title=" ">
<polygon fill="white" stroke="#666666" points="1509.78,-58 1480.97,-58 1480.97,-38 1509.78,-38 1509.78,-58"/>
<text text-anchor="middle" x="1495.38" y="-44.5" font-family="Helvetica,sans-Serif" font-size="10.00">T</text>
</a>
</g>
</g>
<!-- Node23&#45;&gt;Node21 -->
<g id="edge24" class="edge">
<title>Node23&#45;&gt;Node21</title>
<path fill="none" stroke="#9a32cd" stroke-dasharray="5,2" d="M1521.18,-45.7C1553.38,-42.71 1610.33,-37.43 1651.58,-33.61"/>
<polygon fill="#9a32cd" stroke="#9a32cd" points="1521.28,-42.18 1511.64,-46.58 1521.92,-49.15 1521.28,-42.18"/>
<text text-anchor="middle" x="1605.38" y="-43.5" font-family="Helvetica,sans-Serif" font-size="10.00"> elements</text>
</g>
</g>
</svg>
        <g id="navigator" transform="translate(0 0)" fill="#404254">
                <rect fill="#f2f5e9" fill-opacity="0.5" stroke="#606060" stroke-width=".5" x="0" y="0" width="60" height="60"/>
                <use id="zoomplus" xlink:href="#zoomPlus" x="17" y="9" onmousedown="handleZoom(evt,'in')"/>
                <use id="zoomminus" xlink:href="#zoomMin" x="42" y="9" onmousedown="handleZoom(evt,'out')"/>
                <use id="reset" xlink:href="#resetDef" x="30" y="36" onmousedown="handleReset()"/>
                <g id="arrowUp" xlink:href="#dirArrow" transform="translate(30 24)" onmousedown="handlePan(0,-1)">
                  <use xlink:href="#rim" fill="#404040">
                        <set attributeName="fill" to="#808080" begin="arrowUp.mouseover" end="arrowUp.mouseout"/>
                  </use>
                  <path fill="none" stroke="white" stroke-width="1.5" d="M0,-3.0v7 M-2.5,-0.5L0,-3.0L2.5,-0.5"/>
                </g>
                <g id="arrowRight" xlink:href="#dirArrow" transform="rotate(90) translate(36 -43)" onmousedown="handlePan(1,0)">
                  <use xlink:href="#rim" fill="#404040">
                        <set attributeName="fill" to="#808080" begin="arrowRight.mouseover" end="arrowRight.mouseout"/>
                  </use>
                  <path fill="none" stroke="white" stroke-width="1.5" d="M0,-3.0v7 M-2.5,-0.5L0,-3.0L2.5,-0.5"/>
                </g>
                <g id="arrowDown" xlink:href="#dirArrow" transform="rotate(180) translate(-30 -48)" onmousedown="handlePan(0,1)">
                  <use xlink:href="#rim" fill="#404040">
                        <set attributeName="fill" to="#808080" begin="arrowDown.mouseover" end="arrowDown.mouseout"/>
                  </use>
                  <path fill="none" stroke="white" stroke-width="1.5" d="M0,-3.0v7 M-2.5,-0.5L0,-3.0L2.5,-0.5"/>
                </g>
                <g id="arrowLeft" xlink:href="#dirArrow" transform="rotate(270) translate(-36 17)" onmousedown="handlePan(-1,0)">
                  <use xlink:href="#rim" fill="#404040">
                        <set attributeName="fill" to="#808080" begin="arrowLeft.mouseover" end="arrowLeft.mouseout"/>
                  </use>
                  <path fill="none" stroke="white" stroke-width="1.5" d="M0,-3.0v7 M-2.5,-0.5L0,-3.0L2.5,-0.5"/>
                </g>
        </g>
        <svg viewBox="0 0 15 15" width="100%" height="30px" preserveAspectRatio="xMaxYMin meet">
         <g id="arrow_out" transform="scale(0.3 0.3)">
          <a xlink:href="classSpatial_1_1FMTlayer__coll__graph_org.svg" target="_base">
           <rect id="button" ry="5" rx="5" y="6" x="6" height="38" width="38"
                fill="#f2f5e9" fill-opacity="0.5" stroke="#606060" stroke-width="1.0"/>
           <path id="arrow"
             d="M 11.500037,31.436501 C 11.940474,20.09759 22.043105,11.32322 32.158766,21.979434 L 37.068811,17.246167 C 37.068811,17.246167 37.088388,32 37.088388,32 L 22.160133,31.978069 C 22.160133,31.978069 26.997745,27.140456 26.997745,27.140456 C 18.528582,18.264221 13.291696,25.230495 11.500037,31.436501 z"
             style="fill:#404040;"/>
          </a>
         </g>
        </svg>
</svg>
