<?xml version="1.0" encoding="UTF-8" standalone="no"?>
<!DOCTYPE svg PUBLIC "-//W3C//DTD SVG 1.1//EN"
 "http://www.w3.org/Graphics/SVG/1.1/DTD/svg11.dtd">
<!-- Generated by graphviz version 10.0.1 (20240210.2158)
 -->
<!-- Title: Parser::FMTparser Pages: 1 -->
<svg width="578pt" height="408pt"
 viewBox="0.00 0.00 578.25 408.00" xmlns="http://www.w3.org/2000/svg" xmlns:xlink="http://www.w3.org/1999/xlink">
<g id="graph0" class="graph" transform="scale(1 1) rotate(0) translate(4 404)">
<title>Parser::FMTparser</title>
<!-- Node1 -->
<g id="node1" class="node">
<title>Node1</title>
<g id="a_node1"><a xlink:title=" ">
<polygon fill="#999999" stroke="#666666" points="221,-210 124,-210 124,-190 221,-190 221,-210"/>
<text text-anchor="middle" x="172.5" y="-196.5" font-family="Helvetica,sans-Serif" font-size="10.00">Parser::FMTparser</text>
</a>
</g>
</g>
<!-- Node3 -->
<g id="node3" class="node">
<title>Node3</title>
<g id="a_node3"><a xlink:href="classParser_1_1FMTactionparser.html" target="_top" xlink:title=" ">
<polygon fill="white" stroke="#666666" points="393.38,-400 270.12,-400 270.12,-380 393.38,-380 393.38,-400"/>
<text text-anchor="middle" x="331.75" y="-386.5" font-family="Helvetica,sans-Serif" font-size="10.00">Parser::FMTactionparser</text>
</a>
</g>
</g>
<!-- Node1&#45;&gt;Node3 -->
<g id="edge2" class="edge">
<title>Node1&#45;&gt;Node3</title>
<path fill="none" stroke="#63b8ff" d="M177.88,-221.56C186.44,-258.04 208.91,-331.77 257,-371 261.2,-374.43 265.95,-377.24 270.96,-379.56"/>
<polygon fill="#63b8ff" stroke="#63b8ff" points="181.3,-220.83 175.74,-211.81 174.46,-222.33 181.3,-220.83"/>
</g>
<!-- Node4 -->
<g id="node4" class="node">
<title>Node4</title>
<g id="a_node4"><a xlink:href="classParser_1_1FMTareaparser.html" target="_top" xlink:title=" ">
<polygon fill="white" stroke="#666666" points="389.62,-362 273.88,-362 273.88,-342 389.62,-342 389.62,-362"/>
<text text-anchor="middle" x="331.75" y="-348.5" font-family="Helvetica,sans-Serif" font-size="10.00">Parser::FMTareaparser</text>
</a>
</g>
</g>
<!-- Node1&#45;&gt;Node4 -->
<g id="edge3" class="edge">
<title>Node1&#45;&gt;Node4</title>
<path fill="none" stroke="#63b8ff" d="M180.87,-220.9C192.39,-250.47 217.53,-304.16 257,-333 262.02,-336.67 267.68,-339.63 273.58,-342.02"/>
<polygon fill="#63b8ff" stroke="#63b8ff" points="184.17,-219.74 177.41,-211.59 177.61,-222.18 184.17,-219.74"/>
</g>
<!-- Node5 -->
<g id="node5" class="node">
<title>Node5</title>
<g id="a_node5"><a xlink:href="classParser_1_1FMTconstantparser.html" target="_top" xlink:title=" ">
<polygon fill="white" stroke="#666666" points="399,-324 264.5,-324 264.5,-304 399,-304 399,-324"/>
<text text-anchor="middle" x="331.75" y="-310.5" font-family="Helvetica,sans-Serif" font-size="10.00">Parser::FMTconstantparser</text>
</a>
</g>
</g>
<!-- Node1&#45;&gt;Node5 -->
<g id="edge4" class="edge">
<title>Node1&#45;&gt;Node5</title>
<path fill="none" stroke="#63b8ff" d="M185.73,-219.95C200.1,-241.7 225.97,-275.93 257,-295 262.63,-298.46 268.88,-301.29 275.28,-303.61"/>
<polygon fill="#63b8ff" stroke="#63b8ff" points="188.77,-218.21 180.44,-211.67 182.87,-221.98 188.77,-218.21"/>
</g>
<!-- Node6 -->
<g id="node6" class="node">
<title>Node6</title>
<g id="a_node6"><a xlink:href="classParser_1_1FMTlandscapeparser.html" target="_top" xlink:title=" ">
<polygon fill="white" stroke="#666666" points="402.38,-286 261.12,-286 261.12,-266 402.38,-266 402.38,-286"/>
<text text-anchor="middle" x="331.75" y="-272.5" font-family="Helvetica,sans-Serif" font-size="10.00">Parser::FMTlandscapeparser</text>
</a>
</g>
</g>
<!-- Node1&#45;&gt;Node6 -->
<g id="edge5" class="edge">
<title>Node1&#45;&gt;Node6</title>
<path fill="none" stroke="#63b8ff" d="M194.32,-217.25C210.51,-229.89 234.01,-246.58 257,-257 264.35,-260.33 272.38,-263.15 280.35,-265.52"/>
<polygon fill="#63b8ff" stroke="#63b8ff" points="196.87,-214.81 186.87,-211.3 192.5,-220.28 196.87,-214.81"/>
</g>
<!-- Node7 -->
<g id="node7" class="node">
<title>Node7</title>
<g id="a_node7"><a xlink:href="classParser_1_1FMTlifespanparser.html" target="_top" xlink:title=" ">
<polygon fill="white" stroke="#666666" points="396.75,-248 266.75,-248 266.75,-228 396.75,-228 396.75,-248"/>
<text text-anchor="middle" x="331.75" y="-234.5" font-family="Helvetica,sans-Serif" font-size="10.00">Parser::FMTlifespanparser</text>
</a>
</g>
</g>
<!-- Node1&#45;&gt;Node7 -->
<g id="edge6" class="edge">
<title>Node1&#45;&gt;Node7</title>
<path fill="none" stroke="#63b8ff" d="M228.05,-213.18C247.5,-217.88 269.13,-223.11 287.51,-227.55"/>
<polygon fill="#63b8ff" stroke="#63b8ff" points="228.9,-209.79 218.36,-210.84 227.25,-216.59 228.9,-209.79"/>
</g>
<!-- Node8 -->
<g id="node8" class="node">
<title>Node8</title>
<g id="a_node8"><a xlink:href="classParser_1_1FMTmodelparser.html" target="_top" xlink:title=" ">
<polygon fill="white" stroke="#666666" points="393.38,-210 270.12,-210 270.12,-190 393.38,-190 393.38,-210"/>
<text text-anchor="middle" x="331.75" y="-196.5" font-family="Helvetica,sans-Serif" font-size="10.00">Parser::FMTmodelparser</text>
</a>
</g>
</g>
<!-- Node1&#45;&gt;Node8 -->
<g id="edge7" class="edge">
<title>Node1&#45;&gt;Node8</title>
<path fill="none" stroke="#63b8ff" d="M232.49,-200C244.62,-200 257.42,-200 269.63,-200"/>
<polygon fill="#63b8ff" stroke="#63b8ff" points="232.62,-196.5 222.62,-200 232.62,-203.5 232.62,-196.5"/>
</g>
<!-- Node10 -->
<g id="node10" class="node">
<title>Node10</title>
<g id="a_node10"><a xlink:href="classParser_1_1FMToptimizationparser.html" target="_top" xlink:title=" ">
<polygon fill="white" stroke="#666666" points="406.5,-172 257,-172 257,-152 406.5,-152 406.5,-172"/>
<text text-anchor="middle" x="331.75" y="-158.5" font-family="Helvetica,sans-Serif" font-size="10.00">Parser::FMToptimizationparser</text>
</a>
</g>
</g>
<!-- Node1&#45;&gt;Node10 -->
<g id="edge9" class="edge">
<title>Node1&#45;&gt;Node10</title>
<path fill="none" stroke="#63b8ff" d="M228.05,-186.82C247.5,-182.12 269.13,-176.89 287.51,-172.45"/>
<polygon fill="#63b8ff" stroke="#63b8ff" points="227.25,-183.41 218.36,-189.16 228.9,-190.21 227.25,-183.41"/>
</g>
<!-- Node11 -->
<g id="node11" class="node">
<title>Node11</title>
<g id="a_node11"><a xlink:href="classParser_1_1FMToutputparser.html" target="_top" xlink:title=" ">
<polygon fill="white" stroke="#666666" points="393.75,-134 269.75,-134 269.75,-114 393.75,-114 393.75,-134"/>
<text text-anchor="middle" x="331.75" y="-120.5" font-family="Helvetica,sans-Serif" font-size="10.00">Parser::FMToutputparser</text>
</a>
</g>
</g>
<!-- Node1&#45;&gt;Node11 -->
<g id="edge10" class="edge">
<title>Node1&#45;&gt;Node11</title>
<path fill="none" stroke="#63b8ff" d="M194.32,-182.75C210.51,-170.11 234.01,-153.42 257,-143 264.35,-139.67 272.38,-136.85 280.35,-134.48"/>
<polygon fill="#63b8ff" stroke="#63b8ff" points="192.5,-179.72 186.87,-188.7 196.87,-185.19 192.5,-179.72"/>
</g>
<!-- Node12 -->
<g id="node12" class="node">
<title>Node12</title>
<g id="a_node12"><a xlink:href="classParser_1_1FMTscheduleparser.html" target="_top" xlink:title=" ">
<polygon fill="white" stroke="#666666" points="399.75,-96 263.75,-96 263.75,-76 399.75,-76 399.75,-96"/>
<text text-anchor="middle" x="331.75" y="-82.5" font-family="Helvetica,sans-Serif" font-size="10.00">Parser::FMTscheduleparser</text>
</a>
</g>
</g>
<!-- Node1&#45;&gt;Node12 -->
<g id="edge11" class="edge">
<title>Node1&#45;&gt;Node12</title>
<path fill="none" stroke="#63b8ff" d="M185.73,-180.05C200.1,-158.3 225.97,-124.07 257,-105 262.63,-101.54 268.88,-98.71 275.28,-96.39"/>
<polygon fill="#63b8ff" stroke="#63b8ff" points="182.87,-178.02 180.44,-188.33 188.77,-181.79 182.87,-178.02"/>
</g>
<!-- Node13 -->
<g id="node13" class="node">
<title>Node13</title>
<g id="a_node13"><a xlink:href="classParser_1_1FMTtransitionparser.html" target="_top" xlink:title=" ">
<polygon fill="white" stroke="#666666" points="400.12,-58 263.38,-58 263.38,-38 400.12,-38 400.12,-58"/>
<text text-anchor="middle" x="331.75" y="-44.5" font-family="Helvetica,sans-Serif" font-size="10.00">Parser::FMTtransitionparser</text>
</a>
</g>
</g>
<!-- Node1&#45;&gt;Node13 -->
<g id="edge12" class="edge">
<title>Node1&#45;&gt;Node13</title>
<path fill="none" stroke="#63b8ff" d="M180.87,-179.1C192.39,-149.53 217.53,-95.84 257,-67 261.7,-63.57 266.96,-60.75 272.45,-58.45"/>
<polygon fill="#63b8ff" stroke="#63b8ff" points="177.61,-177.82 177.41,-188.41 184.17,-180.26 177.61,-177.82"/>
</g>
<!-- Node14 -->
<g id="node14" class="node">
<title>Node14</title>
<g id="a_node14"><a xlink:href="classParser_1_1FMTyieldparser.html" target="_top" xlink:title=" ">
<polygon fill="white" stroke="#666666" points="390.38,-20 273.12,-20 273.12,0 390.38,0 390.38,-20"/>
<text text-anchor="middle" x="331.75" y="-6.5" font-family="Helvetica,sans-Serif" font-size="10.00">Parser::FMTyieldparser</text>
</a>
</g>
</g>
<!-- Node1&#45;&gt;Node14 -->
<g id="edge13" class="edge">
<title>Node1&#45;&gt;Node14</title>
<path fill="none" stroke="#63b8ff" d="M177.88,-178.44C186.44,-141.96 208.91,-68.23 257,-29 261.71,-25.16 267.11,-22.08 272.8,-19.62"/>
<polygon fill="#63b8ff" stroke="#63b8ff" points="174.46,-177.67 175.74,-188.19 181.3,-179.17 174.46,-177.67"/>
</g>
<!-- Node2 -->
<g id="node2" class="node">
<title>Node2</title>
<g id="a_node2"><a xlink:href="classCore_1_1FMTobject.html" target="_top" xlink:title=" ">
<polygon fill="white" stroke="#666666" points="88,-210 0,-210 0,-190 88,-190 88,-210"/>
<text text-anchor="middle" x="44" y="-196.5" font-family="Helvetica,sans-Serif" font-size="10.00">Core::FMTobject</text>
</a>
</g>
</g>
<!-- Node2&#45;&gt;Node1 -->
<g id="edge1" class="edge">
<title>Node2&#45;&gt;Node1</title>
<path fill="none" stroke="#63b8ff" d="M99.43,-200C107.52,-200 115.8,-200 123.74,-200"/>
<polygon fill="#63b8ff" stroke="#63b8ff" points="99.69,-196.5 89.69,-200 99.69,-203.5 99.69,-196.5"/>
</g>
<!-- Node9 -->
<g id="node9" class="node">
<title>Node9</title>
<g id="a_node9"><a xlink:href="classParallel_1_1FMTparallelwriter.html" target="_top" xlink:title=" ">
<polygon fill="white" stroke="#666666" points="570.25,-210 442.5,-210 442.5,-190 570.25,-190 570.25,-210"/>
<text text-anchor="middle" x="506.38" y="-196.5" font-family="Helvetica,sans-Serif" font-size="10.00">Parallel::FMTparallelwriter</text>
</a>
</g>
</g>
<!-- Node8&#45;&gt;Node9 -->
<g id="edge8" class="edge">
<title>Node8&#45;&gt;Node9</title>
<path fill="none" stroke="#63b8ff" d="M404.84,-200C417.23,-200 430.01,-200 442.14,-200"/>
<polygon fill="#63b8ff" stroke="#63b8ff" points="405.12,-196.5 395.12,-200 405.12,-203.5 405.12,-196.5"/>
</g>
</g>
</svg>
