<?xml version="1.0" encoding="UTF-8" standalone="no"?>
<!DOCTYPE svg PUBLIC "-//W3C//DTD SVG 1.1//EN"
 "http://www.w3.org/Graphics/SVG/1.1/DTD/svg11.dtd">
<!-- Generated by graphviz version 8.1.0 (20230707.0739)
 -->
<!-- Title: Spatial::FMTspatialschedule Pages: 1 -->
<svg width="3057pt" height="327pt"
 viewBox="0.00 0.00 3057.25 327.00" xmlns="http://www.w3.org/2000/svg" xmlns:xlink="http://www.w3.org/1999/xlink">
<g id="graph0" class="graph" transform="scale(1 1) rotate(0) translate(4 323)">
<title>Spatial::FMTspatialschedule</title>
<!-- Node1 -->
<g id="Node000001" class="node">
<title>Node1</title>
<g id="a_Node000001"><a xlink:title=" ">
<polygon fill="#999999" stroke="#666666" points="3049.25,-247 2910.25,-247 2910.25,-227 3049.25,-227 3049.25,-247"/>
<text text-anchor="middle" x="2979.75" y="-233.5" font-family="Helvetica,sans-Serif" font-size="10.00">Spatial::FMTspatialschedule</text>
</a>
</g>
</g>
<!-- Node2 -->
<g id="Node000002" class="node">
<title>Node2</title>
<g id="a_Node000002"><a xlink:href="classSpatial_1_1FMTlayer.html" target="_top" xlink:title=" ">
<polygon fill="white" stroke="#666666" points="2873.25,-211 2754.5,-211 2754.5,-179 2873.25,-179 2873.25,-211"/>
<text text-anchor="start" x="2762.5" y="-197.5" font-family="Helvetica,sans-Serif" font-size="10.00">Spatial::FMTlayer&lt;</text>
<text text-anchor="middle" x="2813.88" y="-185.5" font-family="Helvetica,sans-Serif" font-size="10.00"> Graph::FMTlinegraph &gt;</text>
</a>
</g>
</g>
<!-- Node2&#45;&gt;Node1 -->
<g id="edge1_Node000001_Node000002" class="edge">
<title>Node2&#45;&gt;Node1</title>
<g id="a_edge1_Node000001_Node000002"><a xlink:title=" ">
<path fill="none" stroke="#63b8ff" d="M2884.22,-212.77C2902.51,-217.46 2921.66,-222.37 2937.91,-226.53"/>
<polygon fill="#63b8ff" stroke="#63b8ff" points="2885.13,-209.14 2874.57,-210.04 2883.39,-215.92 2885.13,-209.14"/>
</a>
</g>
</g>
<!-- Node3 -->
<g id="Node000003" class="node">
<title>Node3</title>
<g id="a_Node000003"><a xlink:href="classCore_1_1FMTobject.html" target="_top" xlink:title=" ">
<polygon fill="white" stroke="#666666" points="1823.5,-210 1735.5,-210 1735.5,-190 1823.5,-190 1823.5,-210"/>
<text text-anchor="middle" x="1779.5" y="-196.5" font-family="Helvetica,sans-Serif" font-size="10.00">Core::FMTobject</text>
</a>
</g>
</g>
<!-- Node3&#45;&gt;Node2 -->
<g id="edge2_Node000002_Node000003" class="edge">
<title>Node3&#45;&gt;Node2</title>
<g id="a_edge2_Node000002_Node000003"><a xlink:title=" ">
<path fill="none" stroke="#63b8ff" d="M1834.71,-198.53C1893.65,-197.05 1990.63,-195 2074.25,-195 2074.25,-195 2074.25,-195 2603.88,-195 2654.67,-195 2712.42,-195 2754.32,-195"/>
<polygon fill="#63b8ff" stroke="#63b8ff" points="1834.71,-195.05 1824.8,-198.8 1834.88,-202.05 1834.71,-195.05"/>
</a>
</g>
</g>
<!-- Node25 -->
<g id="Node000025" class="node">
<title>Node25</title>
<g id="a_Node000025"><a xlink:href="classGraph_1_1FMTgraph.html" target="_top" xlink:title=" ">
<polygon fill="white" stroke="#666666" points="2181.5,-159 1969,-159 1969,-127 2181.5,-127 2181.5,-159"/>
<text text-anchor="start" x="1977" y="-145.5" font-family="Helvetica,sans-Serif" font-size="10.00">Graph::FMTgraph&lt; FMTbasevertexproperties,</text>
<text text-anchor="middle" x="2075.25" y="-133.5" font-family="Helvetica,sans-Serif" font-size="10.00"> FMTbaseedgeproperties &gt;</text>
</a>
</g>
</g>
<!-- Node3&#45;&gt;Node25 -->
<g id="edge27_Node000025_Node000003" class="edge">
<title>Node3&#45;&gt;Node25</title>
<g id="a_edge27_Node000025_Node000003"><a xlink:title=" ">
<path fill="none" stroke="#63b8ff" d="M1834.45,-189.53C1877.79,-181.12 1939.44,-169.16 1989.38,-159.47"/>
<polygon fill="#63b8ff" stroke="#63b8ff" points="1833.99,-186.25 1824.84,-191.59 1835.33,-193.12 1833.99,-186.25"/>
</a>
</g>
</g>
<!-- Node30 -->
<g id="Node000030" class="node">
<title>Node30</title>
<g id="a_Node000030"><a xlink:href="classSpatial_1_1FMTeventcontainer.html" target="_top" xlink:title=" ">
<polygon fill="white" stroke="#666666" points="2333.25,-277 2199.5,-277 2199.5,-257 2333.25,-257 2333.25,-277"/>
<text text-anchor="middle" x="2266.38" y="-263.5" font-family="Helvetica,sans-Serif" font-size="10.00">Spatial::FMTeventcontainer</text>
</a>
</g>
</g>
<!-- Node3&#45;&gt;Node30 -->
<g id="edge33_Node000030_Node000003" class="edge">
<title>Node3&#45;&gt;Node30</title>
<g id="a_edge33_Node000030_Node000003"><a xlink:title=" ">
<path fill="none" stroke="#63b8ff" d="M1834.68,-207.49C1924.17,-219.85 2102.59,-244.51 2199.33,-257.87"/>
<polygon fill="#63b8ff" stroke="#63b8ff" points="1835.34,-203.91 1824.96,-206 1834.38,-210.84 1835.34,-203.91"/>
</a>
</g>
</g>
<!-- Node4 -->
<g id="Node000004" class="node">
<title>Node4</title>
<g id="a_Node000004"><a xlink:title=" ">
<polygon fill="white" stroke="#666666" points="1582.12,-218 1448.38,-218 1448.38,-186 1582.12,-186 1582.12,-218"/>
<text text-anchor="start" x="1456.38" y="-204.5" font-family="Helvetica,sans-Serif" font-size="10.00">std::shared_ptr&lt; Exception</text>
<text text-anchor="middle" x="1515.25" y="-192.5" font-family="Helvetica,sans-Serif" font-size="10.00">::FMTexceptionhandler &gt;</text>
</a>
</g>
</g>
<!-- Node4&#45;&gt;Node3 -->
<g id="edge3_Node000003_Node000004" class="edge">
<title>Node4&#45;&gt;Node3</title>
<g id="a_edge3_Node000003_Node000004"><a xlink:title=" ">
<path fill="none" stroke="#9a32cd" stroke-dasharray="5,2" d="M1593.34,-201.41C1639.67,-201.06 1696.91,-200.62 1735.38,-200.33"/>
<polygon fill="#9a32cd" stroke="#9a32cd" points="1593.4,-197.92 1583.43,-201.5 1593.45,-204.92 1593.4,-197.92"/>
</a>
</g>
<text text-anchor="middle" x="1645.12" y="-203.5" font-family="Helvetica,sans-Serif" font-size="10.00" fill="grey"> _exhandler</text>
</g>
<!-- Node5 -->
<g id="Node000005" class="node">
<title>Node5</title>
<g id="a_Node000005"><a xlink:href="classException_1_1FMTexceptionhandler.html" target="_top" xlink:title=" ">
<polygon fill="white" stroke="#666666" points="1358,-221 1199.5,-221 1199.5,-201 1358,-201 1358,-221"/>
<text text-anchor="middle" x="1278.75" y="-207.5" font-family="Helvetica,sans-Serif" font-size="10.00">Exception::FMTexceptionhandler</text>
</a>
</g>
</g>
<!-- Node5&#45;&gt;Node4 -->
<g id="edge4_Node000004_Node000005" class="edge">
<title>Node5&#45;&gt;Node4</title>
<g id="a_edge4_Node000004_Node000005"><a xlink:title=" ">
<path fill="none" stroke="#9a32cd" stroke-dasharray="5,2" d="M1369.22,-207.57C1395.48,-206.56 1423.71,-205.47 1448.23,-204.53"/>
<polygon fill="#9a32cd" stroke="#9a32cd" points="1369.35,-204.1 1359.49,-207.98 1369.61,-211.09 1369.35,-204.1"/>
</a>
</g>
<text text-anchor="middle" x="1393.25" y="-209.5" font-family="Helvetica,sans-Serif" font-size="10.00" fill="grey"> ptr</text>
</g>
<!-- Node6 -->
<g id="Node000006" class="node">
<title>Node6</title>
<g id="a_Node000006"><a xlink:title=" ">
<polygon fill="white" stroke="#666666" points="1065.25,-159 941.25,-159 941.25,-127 1065.25,-127 1065.25,-159"/>
<text text-anchor="start" x="949.25" y="-145.5" font-family="Helvetica,sans-Serif" font-size="10.00">std::shared_ptr&lt; Logging</text>
<text text-anchor="middle" x="1003.25" y="-133.5" font-family="Helvetica,sans-Serif" font-size="10.00">::FMTlogger &gt;</text>
</a>
</g>
</g>
<!-- Node6&#45;&gt;Node3 -->
<g id="edge20_Node000003_Node000006" class="edge">
<title>Node6&#45;&gt;Node3</title>
<g id="a_edge20_Node000003_Node000006"><a xlink:title=" ">
<path fill="none" stroke="#9a32cd" stroke-dasharray="5,2" d="M1076.31,-145.41C1188.76,-149.54 1412.7,-159.31 1602,-177 1647.54,-181.26 1699.41,-188.28 1735.08,-193.45"/>
<polygon fill="#9a32cd" stroke="#9a32cd" points="1076.58,-141.88 1066.46,-145.01 1076.32,-148.87 1076.58,-141.88"/>
</a>
</g>
<text text-anchor="middle" x="1393.25" y="-164.5" font-family="Helvetica,sans-Serif" font-size="10.00" fill="grey"> _logger</text>
</g>
<!-- Node6&#45;&gt;Node5 -->
<g id="edge5_Node000005_Node000006" class="edge">
<title>Node6&#45;&gt;Node5</title>
<g id="a_edge5_Node000005_Node000006"><a xlink:title=" ">
<path fill="none" stroke="#9a32cd" stroke-dasharray="5,2" d="M1076.21,-160.89C1126.99,-173.52 1193.27,-190 1235.68,-200.54"/>
<polygon fill="#9a32cd" stroke="#9a32cd" points="1077.18,-157.28 1066.63,-158.26 1075.49,-164.07 1077.18,-157.28"/>
</a>
</g>
<text text-anchor="middle" x="1132.38" y="-190.5" font-family="Helvetica,sans-Serif" font-size="10.00" fill="grey"> _logger</text>
</g>
<!-- Node7 -->
<g id="Node000007" class="node">
<title>Node7</title>
<g id="a_Node000007"><a xlink:href="classLogging_1_1FMTlogger.html" target="_top" xlink:title=" ">
<polygon fill="white" stroke="#666666" points="891,-132 789.5,-132 789.5,-112 891,-112 891,-132"/>
<text text-anchor="middle" x="840.25" y="-118.5" font-family="Helvetica,sans-Serif" font-size="10.00">Logging::FMTlogger</text>
</a>
</g>
</g>
<!-- Node7&#45;&gt;Node6 -->
<g id="edge6_Node000006_Node000007" class="edge">
<title>Node7&#45;&gt;Node6</title>
<g id="a_edge6_Node000006_Node000007"><a xlink:title=" ">
<path fill="none" stroke="#9a32cd" stroke-dasharray="5,2" d="M901.84,-129.9C914.6,-131.57 928.09,-133.33 940.88,-135"/>
<polygon fill="#9a32cd" stroke="#9a32cd" points="902.68,-126.35 892.31,-128.53 901.77,-133.29 902.68,-126.35"/>
</a>
</g>
<text text-anchor="middle" x="916.12" y="-135.5" font-family="Helvetica,sans-Serif" font-size="10.00" fill="grey"> ptr</text>
</g>
<!-- Node8 -->
<g id="Node000008" class="node">
<title>Node8</title>
<g id="a_Node000008"><a xlink:title=" ">
<polygon fill="white" stroke="#666666" points="708.5,-169 585.25,-169 585.25,-137 708.5,-137 708.5,-169"/>
<text text-anchor="start" x="593.25" y="-155.5" font-family="Helvetica,sans-Serif" font-size="10.00">std::unique_ptr&lt; Logging</text>
<text text-anchor="middle" x="646.88" y="-143.5" font-family="Helvetica,sans-Serif" font-size="10.00">::FMTsolverlogger &gt;</text>
</a>
</g>
</g>
<!-- Node8&#45;&gt;Node7 -->
<g id="edge7_Node000007_Node000008" class="edge">
<title>Node8&#45;&gt;Node7</title>
<g id="a_edge7_Node000007_Node000008"><a xlink:title=" ">
<path fill="none" stroke="#9a32cd" stroke-dasharray="5,2" d="M719.78,-141.35C742.94,-137.6 768.08,-133.53 789.3,-130.09"/>
<polygon fill="#9a32cd" stroke="#9a32cd" points="719.27,-138.05 709.95,-143.11 720.38,-144.96 719.27,-138.05"/>
</a>
</g>
<text text-anchor="middle" x="749" y="-142.5" font-family="Helvetica,sans-Serif" font-size="10.00" fill="grey"> solverref</text>
</g>
<!-- Node9 -->
<g id="Node000009" class="node">
<title>Node9</title>
<g id="a_Node000009"><a xlink:href="classLogging_1_1FMTsolverlogger.html" target="_top" xlink:title=" ">
<polygon fill="white" stroke="#666666" points="535,-163 408.75,-163 408.75,-143 535,-143 535,-163"/>
<text text-anchor="middle" x="471.88" y="-149.5" font-family="Helvetica,sans-Serif" font-size="10.00">Logging::FMTsolverlogger</text>
</a>
</g>
</g>
<!-- Node9&#45;&gt;Node8 -->
<g id="edge8_Node000008_Node000009" class="edge">
<title>Node9&#45;&gt;Node8</title>
<g id="a_edge8_Node000008_Node000009"><a xlink:title=" ">
<path fill="none" stroke="#9a32cd" stroke-dasharray="5,2" d="M546.09,-153C559.04,-153 572.39,-153 584.96,-153"/>
<polygon fill="#9a32cd" stroke="#9a32cd" points="546.33,-149.5 536.33,-153 546.33,-156.5 546.33,-149.5"/>
</a>
</g>
<text text-anchor="middle" x="560.12" y="-155.5" font-family="Helvetica,sans-Serif" font-size="10.00" fill="grey"> ptr</text>
</g>
<!-- Node10 -->
<g id="Node000010" class="node">
<title>Node10</title>
<g id="a_Node000010"><a xlink:title=" ">
<polygon fill="white" stroke="#666666" points="371.75,-163 263.5,-163 263.5,-143 371.75,-143 371.75,-163"/>
<text text-anchor="middle" x="317.62" y="-149.5" font-family="Helvetica,sans-Serif" font-size="10.00">CoinMessageHandler</text>
</a>
</g>
</g>
<!-- Node10&#45;&gt;Node9 -->
<g id="edge9_Node000009_Node000010" class="edge">
<title>Node10&#45;&gt;Node9</title>
<g id="a_edge9_Node000009_Node000010"><a xlink:title=" ">
<path fill="none" stroke="#63b8ff" d="M382.8,-153C391.23,-153 399.85,-153 408.25,-153"/>
<polygon fill="#63b8ff" stroke="#63b8ff" points="382.87,-149.5 372.87,-153 382.87,-156.5 382.87,-149.5"/>
</a>
</g>
</g>
<!-- Node11 -->
<g id="Node000011" class="node">
<title>Node11</title>
<g id="a_Node000011"><a xlink:title=" ">
<polygon fill="white" stroke="#666666" points="676.62,-65 617.12,-65 617.12,-45 676.62,-45 676.62,-65"/>
<text text-anchor="middle" x="646.88" y="-51.5" font-family="Helvetica,sans-Serif" font-size="10.00">std::string</text>
</a>
</g>
</g>
<!-- Node11&#45;&gt;Node2 -->
<g id="edge22_Node000002_Node000011" class="edge">
<title>Node11&#45;&gt;Node2</title>
<g id="a_edge22_Node000002_Node000011"><a xlink:title=" ">
<path fill="none" stroke="#9a32cd" stroke-dasharray="5,2" d="M679.15,-40.16C716.41,-23.87 780.95,0 839.25,0 839.25,0 839.25,0 2603.88,0 2708.34,0 2782.32,-131.84 2805.31,-178.71"/>
<polygon fill="#9a32cd" stroke="#9a32cd" points="678.09,-37.25 670.4,-44.53 680.95,-43.63 678.09,-37.25"/>
</a>
</g>
<text text-anchor="middle" x="1645.12" y="-2.5" font-family="Helvetica,sans-Serif" font-size="10.00" fill="grey"> SRS_WKT</text>
</g>
<!-- Node11&#45;&gt;Node7 -->
<g id="edge10_Node000007_Node000011" class="edge">
<title>Node11&#45;&gt;Node7</title>
<g id="a_edge10_Node000007_Node000011"><a xlink:title=" ">
<path fill="none" stroke="#9a32cd" stroke-dasharray="5,2" d="M687.2,-68.07C711.54,-76.23 743.4,-87.04 771.5,-97 784.74,-101.69 799.36,-107.06 811.62,-111.62"/>
<polygon fill="#9a32cd" stroke="#9a32cd" points="688.52,-64.49 677.92,-64.63 686.3,-71.12 688.52,-64.49"/>
</a>
</g>
<text text-anchor="middle" x="749" y="-99.5" font-family="Helvetica,sans-Serif" font-size="10.00" fill="grey"> filepath</text>
</g>
<!-- Node12 -->
<g id="Node000012" class="node">
<title>Node12</title>
<g id="a_Node000012"><a xlink:title=" ">
<polygon fill="white" stroke="#666666" points="518.88,-71 424.88,-71 424.88,-39 518.88,-39 518.88,-71"/>
<text text-anchor="start" x="432.88" y="-57.5" font-family="Helvetica,sans-Serif" font-size="10.00">std::basic_string&lt;</text>
<text text-anchor="middle" x="471.88" y="-45.5" font-family="Helvetica,sans-Serif" font-size="10.00"> Char &gt;</text>
</a>
</g>
</g>
<!-- Node12&#45;&gt;Node11 -->
<g id="edge11_Node000011_Node000012" class="edge">
<title>Node12&#45;&gt;Node11</title>
<g id="a_edge11_Node000011_Node000012"><a xlink:title=" ">
<path fill="none" stroke="#63b8ff" d="M530.09,-55C559.13,-55 593.16,-55 616.78,-55"/>
<polygon fill="#63b8ff" stroke="#63b8ff" points="530.24,-51.5 520.24,-55 530.24,-58.5 530.24,-51.5"/>
</a>
</g>
</g>
<!-- Node13 -->
<g id="Node000013" class="node">
<title>Node13</title>
<g id="a_Node000013"><a xlink:title=" ">
<polygon fill="white" stroke="#666666" points="683.38,-119 610.38,-119 610.38,-99 683.38,-99 683.38,-119"/>
<text text-anchor="middle" x="646.88" y="-105.5" font-family="Helvetica,sans-Serif" font-size="10.00">std::ofstream</text>
</a>
</g>
</g>
<!-- Node13&#45;&gt;Node7 -->
<g id="edge12_Node000007_Node000013" class="edge">
<title>Node13&#45;&gt;Node7</title>
<g id="a_edge12_Node000007_Node000013"><a xlink:title=" ">
<path fill="none" stroke="#9a32cd" stroke-dasharray="5,2" d="M694.53,-110.66C717.69,-111.64 746.09,-113.07 771.5,-115 777.28,-115.44 783.33,-115.97 789.33,-116.53"/>
<polygon fill="#9a32cd" stroke="#9a32cd" points="694.75,-107.13 684.61,-110.22 694.46,-114.12 694.75,-107.13"/>
</a>
</g>
<text text-anchor="middle" x="749" y="-117.5" font-family="Helvetica,sans-Serif" font-size="10.00" fill="grey"> filestream</text>
</g>
<!-- Node14 -->
<g id="Node000014" class="node">
<title>Node14</title>
<g id="a_Node000014"><a xlink:title=" ">
<polygon fill="white" stroke="#666666" points="522.62,-125 421.12,-125 421.12,-93 522.62,-93 522.62,-125"/>
<text text-anchor="start" x="429.12" y="-111.5" font-family="Helvetica,sans-Serif" font-size="10.00">std::basic_ofstream</text>
<text text-anchor="middle" x="471.88" y="-99.5" font-family="Helvetica,sans-Serif" font-size="10.00">&lt; Char &gt;</text>
</a>
</g>
</g>
<!-- Node14&#45;&gt;Node13 -->
<g id="edge13_Node000013_Node000014" class="edge">
<title>Node14&#45;&gt;Node13</title>
<g id="a_edge13_Node000013_Node000014"><a xlink:title=" ">
<path fill="none" stroke="#63b8ff" d="M533.61,-109C559.12,-109 587.92,-109 609.96,-109"/>
<polygon fill="#63b8ff" stroke="#63b8ff" points="533.91,-105.5 523.91,-109 533.91,-112.5 533.91,-105.5"/>
</a>
</g>
</g>
<!-- Node15 -->
<g id="Node000015" class="node">
<title>Node15</title>
<g id="a_Node000015"><a xlink:title=" ">
<polygon fill="white" stroke="#666666" points="367.25,-125 268,-125 268,-93 367.25,-93 367.25,-125"/>
<text text-anchor="start" x="276" y="-111.5" font-family="Helvetica,sans-Serif" font-size="10.00">std::basic_ostream</text>
<text text-anchor="middle" x="317.62" y="-99.5" font-family="Helvetica,sans-Serif" font-size="10.00">&lt; Char &gt;</text>
</a>
</g>
</g>
<!-- Node15&#45;&gt;Node14 -->
<g id="edge14_Node000014_Node000015" class="edge">
<title>Node15&#45;&gt;Node14</title>
<g id="a_edge14_Node000014_Node000015"><a xlink:title=" ">
<path fill="none" stroke="#63b8ff" d="M378.6,-109C392.52,-109 407.2,-109 420.65,-109"/>
<polygon fill="#63b8ff" stroke="#63b8ff" points="378.64,-105.5 368.64,-109 378.64,-112.5 378.64,-105.5"/>
</a>
</g>
</g>
<!-- Node16 -->
<g id="Node000016" class="node">
<title>Node16</title>
<g id="a_Node000016"><a xlink:title=" ">
<polygon fill="white" stroke="#666666" points="226.5,-119 111.5,-119 111.5,-99 226.5,-99 226.5,-119"/>
<text text-anchor="middle" x="169" y="-105.5" font-family="Helvetica,sans-Serif" font-size="10.00">std::basic_ios&lt; Char &gt;</text>
</a>
</g>
</g>
<!-- Node16&#45;&gt;Node15 -->
<g id="edge15_Node000015_Node000016" class="edge">
<title>Node16&#45;&gt;Node15</title>
<g id="a_edge15_Node000015_Node000016"><a xlink:title=" ">
<path fill="none" stroke="#63b8ff" d="M237.61,-109C247.76,-109 258.06,-109 267.72,-109"/>
<polygon fill="#63b8ff" stroke="#63b8ff" points="237.69,-105.5 227.69,-109 237.69,-112.5 237.69,-105.5"/>
</a>
</g>
</g>
<!-- Node17 -->
<g id="Node000017" class="node">
<title>Node17</title>
<g id="a_Node000017"><a xlink:title=" ">
<polygon fill="white" stroke="#666666" points="74.5,-119 0,-119 0,-99 74.5,-99 74.5,-119"/>
<text text-anchor="middle" x="37.25" y="-105.5" font-family="Helvetica,sans-Serif" font-size="10.00">std::ios_base</text>
</a>
</g>
</g>
<!-- Node17&#45;&gt;Node16 -->
<g id="edge16_Node000016_Node000017" class="edge">
<title>Node17&#45;&gt;Node16</title>
<g id="a_edge16_Node000016_Node000017"><a xlink:title=" ">
<path fill="none" stroke="#63b8ff" d="M85.5,-109C93.92,-109 102.77,-109 111.41,-109"/>
<polygon fill="#63b8ff" stroke="#63b8ff" points="85.74,-105.5 75.74,-109 85.74,-112.5 85.74,-105.5"/>
</a>
</g>
</g>
<!-- Node18 -->
<g id="Node000018" class="node">
<title>Node18</title>
<g id="a_Node000018"><a xlink:title=" ">
<polygon fill="white" stroke="#666666" points="1060,-269 946.5,-269 946.5,-237 1060,-237 1060,-269"/>
<text text-anchor="start" x="954.5" y="-255.5" font-family="Helvetica,sans-Serif" font-size="10.00">std::vector&lt; Exception</text>
<text text-anchor="middle" x="1003.25" y="-243.5" font-family="Helvetica,sans-Serif" font-size="10.00">::FMTexc &gt;</text>
</a>
</g>
</g>
<!-- Node18&#45;&gt;Node5 -->
<g id="edge17_Node000005_Node000018" class="edge">
<title>Node18&#45;&gt;Node5</title>
<g id="a_edge17_Node000005_Node000018"><a xlink:title=" ">
<path fill="none" stroke="#9a32cd" stroke-dasharray="5,2" d="M1070.96,-242.76C1113.08,-236.29 1167.34,-227.95 1209.71,-221.45"/>
<polygon fill="#9a32cd" stroke="#9a32cd" points="1070.61,-239.42 1061.26,-244.4 1071.67,-246.34 1070.61,-239.42"/>
</a>
</g>
<text text-anchor="middle" x="1132.38" y="-242.5" font-family="Helvetica,sans-Serif" font-size="10.00" fill="grey"> errorstowarnings</text>
</g>
<!-- Node19 -->
<g id="Node000019" class="node">
<title>Node19</title>
<g id="a_Node000019"><a xlink:title=" ">
<polygon fill="white" stroke="#666666" points="1060.75,-219 945.75,-219 945.75,-187 1060.75,-187 1060.75,-219"/>
<text text-anchor="start" x="953.75" y="-205.5" font-family="Helvetica,sans-Serif" font-size="10.00">std::set&lt; boost::thread</text>
<text text-anchor="middle" x="1003.25" y="-193.5" font-family="Helvetica,sans-Serif" font-size="10.00">::id &gt;</text>
</a>
</g>
</g>
<!-- Node19&#45;&gt;Node5 -->
<g id="edge18_Node000005_Node000019" class="edge">
<title>Node19&#45;&gt;Node5</title>
<g id="a_edge18_Node000005_Node000019"><a xlink:title=" ">
<path fill="none" stroke="#9a32cd" stroke-dasharray="5,2" d="M1071.52,-204.97C1110.12,-206.1 1158.76,-207.52 1199.12,-208.7"/>
<polygon fill="#9a32cd" stroke="#9a32cd" points="1072.02,-201.45 1061.92,-204.66 1071.81,-208.45 1072.02,-201.45"/>
</a>
</g>
<text text-anchor="middle" x="1132.38" y="-210.5" font-family="Helvetica,sans-Serif" font-size="10.00" fill="grey"> registered_threads</text>
</g>
<!-- Node20 -->
<g id="Node000020" class="node">
<title>Node20</title>
<g id="a_Node000020"><a xlink:title=" ">
<polygon fill="white" stroke="#666666" points="1054.38,-319 952.12,-319 952.12,-287 1054.38,-287 1054.38,-319"/>
<text text-anchor="start" x="960.12" y="-305.5" font-family="Helvetica,sans-Serif" font-size="10.00">std::unordered_map</text>
<text text-anchor="middle" x="1003.25" y="-293.5" font-family="Helvetica,sans-Serif" font-size="10.00">&lt; int, size_t &gt;</text>
</a>
</g>
</g>
<!-- Node20&#45;&gt;Node5 -->
<g id="edge19_Node000005_Node000020" class="edge">
<title>Node20&#45;&gt;Node5</title>
<g id="a_edge19_Node000005_Node000020"><a xlink:title=" ">
<path fill="none" stroke="#9a32cd" stroke-dasharray="5,2" d="M1065.07,-289.71C1099.66,-281.45 1143.53,-269.78 1181.5,-256 1208.9,-246.05 1239.14,-231.24 1258.28,-221.36"/>
<polygon fill="#9a32cd" stroke="#9a32cd" points="1064.58,-286.47 1055.64,-292.16 1066.18,-293.28 1064.58,-286.47"/>
</a>
</g>
<text text-anchor="middle" x="1132.38" y="-286.5" font-family="Helvetica,sans-Serif" font-size="10.00" fill="grey"> _specificwarningcount</text>
</g>
<!-- Node21 -->
<g id="Node000021" class="node">
<title>Node21</title>
<g id="a_Node000021"><a xlink:title=" ">
<polygon fill="white" stroke="#666666" points="2656.62,-243 2549.12,-243 2549.12,-223 2656.62,-223 2656.62,-243"/>
<text text-anchor="middle" x="2602.88" y="-229.5" font-family="Helvetica,sans-Serif" font-size="10.00">std::vector&lt; double &gt;</text>
</a>
</g>
</g>
<!-- Node21&#45;&gt;Node2 -->
<g id="edge21_Node000002_Node000021" class="edge">
<title>Node21&#45;&gt;Node2</title>
<g id="a_edge21_Node000002_Node000021"><a xlink:title=" ">
<path fill="none" stroke="#9a32cd" stroke-dasharray="5,2" d="M2667.9,-221.44C2689.67,-217.51 2714.15,-213.07 2736.5,-209 2742.2,-207.96 2748.14,-206.88 2754.08,-205.79"/>
<polygon fill="#9a32cd" stroke="#9a32cd" points="2667.34,-218.17 2658.12,-223.39 2668.58,-225.06 2667.34,-218.17"/>
</a>
</g>
<text text-anchor="middle" x="2706.88" y="-221.5" font-family="Helvetica,sans-Serif" font-size="10.00" fill="grey"> geotransform</text>
</g>
<!-- Node22 -->
<g id="Node000022" class="node">
<title>Node22</title>
<g id="a_Node000022"><a xlink:title=" ">
<polygon fill="white" stroke="#666666" points="2659.25,-167 2546.5,-167 2546.5,-123 2659.25,-123 2659.25,-167"/>
<text text-anchor="start" x="2554.5" y="-153.5" font-family="Helvetica,sans-Serif" font-size="10.00">std::map&lt; Spatial::</text>
<text text-anchor="start" x="2554.5" y="-141.5" font-family="Helvetica,sans-Serif" font-size="10.00">FMTcoordinate, Graph</text>
<text text-anchor="middle" x="2602.88" y="-129.5" font-family="Helvetica,sans-Serif" font-size="10.00">::FMTlinegraph &gt;</text>
</a>
</g>
</g>
<!-- Node22&#45;&gt;Node2 -->
<g id="edge23_Node000002_Node000022" class="edge">
<title>Node22&#45;&gt;Node2</title>
<g id="a_edge23_Node000002_Node000022"><a xlink:title=" ">
<path fill="none" stroke="#9a32cd" stroke-dasharray="5,2" d="M2670.05,-154.98C2691.41,-158.73 2715.09,-163.45 2736.5,-169 2746.94,-171.71 2758.01,-175.14 2768.39,-178.61"/>
<polygon fill="#9a32cd" stroke="#9a32cd" points="2670.89,-151.4 2660.45,-153.16 2669.71,-158.3 2670.89,-151.4"/>
</a>
</g>
<text text-anchor="middle" x="2706.88" y="-171.5" font-family="Helvetica,sans-Serif" font-size="10.00" fill="grey"> mapping</text>
</g>
<!-- Node23 -->
<g id="Node000023" class="node">
<title>Node23</title>
<g id="a_Node000023"><a xlink:href="classSpatial_1_1FMTcoordinate.html" target="_top" xlink:title=" ">
<polygon fill="white" stroke="#666666" points="2467.75,-117 2351.25,-117 2351.25,-97 2467.75,-97 2467.75,-117"/>
<text text-anchor="middle" x="2409.5" y="-103.5" font-family="Helvetica,sans-Serif" font-size="10.00">Spatial::FMTcoordinate</text>
</a>
</g>
</g>
<!-- Node23&#45;&gt;Node22 -->
<g id="edge24_Node000022_Node000023" class="edge">
<title>Node23&#45;&gt;Node22</title>
<g id="a_edge24_Node000022_Node000023"><a xlink:title=" ">
<path fill="none" stroke="#9a32cd" stroke-dasharray="5,2" d="M2478.74,-119.36C2495.06,-122.41 2512.41,-125.75 2528.5,-129 2534.25,-130.16 2540.25,-131.41 2546.22,-132.68"/>
<polygon fill="#9a32cd" stroke="#9a32cd" points="2479.66,-115.78 2469.19,-117.39 2478.38,-122.66 2479.66,-115.78"/>
</a>
</g>
<text text-anchor="middle" x="2507.12" y="-131.5" font-family="Helvetica,sans-Serif" font-size="10.00" fill="grey"> keys</text>
</g>
<!-- Node24 -->
<g id="Node000024" class="node">
<title>Node24</title>
<g id="a_Node000024"><a xlink:href="classGraph_1_1FMTlinegraph.html" target="_top" xlink:title=" ">
<polygon fill="white" stroke="#666666" points="2462.88,-155 2356.12,-155 2356.12,-135 2462.88,-135 2462.88,-155"/>
<text text-anchor="middle" x="2409.5" y="-141.5" font-family="Helvetica,sans-Serif" font-size="10.00">Graph::FMTlinegraph</text>
</a>
</g>
</g>
<!-- Node24&#45;&gt;Node22 -->
<g id="edge25_Node000022_Node000024" class="edge">
<title>Node24&#45;&gt;Node22</title>
<g id="a_edge25_Node000022_Node000024"><a xlink:title=" ">
<path fill="none" stroke="#9a32cd" stroke-dasharray="5,2" d="M2474.14,-145C2497.47,-145 2523.67,-145 2546.24,-145"/>
<polygon fill="#9a32cd" stroke="#9a32cd" points="2474.3,-141.5 2464.3,-145 2474.3,-148.5 2474.3,-141.5"/>
</a>
</g>
<text text-anchor="middle" x="2507.12" y="-147.5" font-family="Helvetica,sans-Serif" font-size="10.00" fill="grey"> elements</text>
</g>
<!-- Node25&#45;&gt;Node24 -->
<g id="edge26_Node000024_Node000025" class="edge">
<title>Node25&#45;&gt;Node24</title>
<g id="a_edge26_Node000024_Node000025"><a xlink:title=" ">
<path fill="none" stroke="#63b8ff" d="M2192.82,-143.7C2248.37,-144.04 2312.04,-144.42 2355.73,-144.68"/>
<polygon fill="#63b8ff" stroke="#63b8ff" points="2192.85,-140.2 2182.83,-143.64 2192.81,-147.2 2192.85,-140.2"/>
</a>
</g>
</g>
<!-- Node26 -->
<g id="Node000026" class="node">
<title>Node26</title>
<g id="a_Node000026"><a xlink:title=" ">
<polygon fill="white" stroke="#666666" points="1837,-172 1722,-172 1722,-140 1837,-140 1837,-172"/>
<text text-anchor="start" x="1730" y="-158.5" font-family="Helvetica,sans-Serif" font-size="10.00">std::vector&lt; FMTvertex</text>
<text text-anchor="middle" x="1779.5" y="-146.5" font-family="Helvetica,sans-Serif" font-size="10.00">_pair &gt;</text>
</a>
</g>
</g>
<!-- Node26&#45;&gt;Node25 -->
<g id="edge28_Node000025_Node000026" class="edge">
<title>Node26&#45;&gt;Node25</title>
<g id="a_edge28_Node000025_Node000026"><a xlink:title=" ">
<path fill="none" stroke="#9a32cd" stroke-dasharray="5,2" d="M1848.07,-147.4C1861.52,-146 1875.57,-144.76 1888.75,-144 1914.63,-142.5 1942.58,-141.84 1968.73,-141.65"/>
<polygon fill="#9a32cd" stroke="#9a32cd" points="1847.99,-144 1838.43,-148.55 1848.75,-150.96 1847.99,-144"/>
</a>
</g>
<text text-anchor="middle" x="1919.88" y="-146.5" font-family="Helvetica,sans-Serif" font-size="10.00" fill="grey"> developments</text>
</g>
<!-- Node27 -->
<g id="Node000027" class="node">
<title>Node27</title>
<g id="a_Node000027"><a xlink:title=" ">
<polygon fill="white" stroke="#666666" points="1870.75,-122 1688.25,-122 1688.25,-66 1870.75,-66 1870.75,-122"/>
<text text-anchor="start" x="1696.25" y="-108.5" font-family="Helvetica,sans-Serif" font-size="10.00">std::vector&lt; Graph</text>
<text text-anchor="start" x="1696.25" y="-96.5" font-family="Helvetica,sans-Serif" font-size="10.00">::FMToutputnodecache</text>
<text text-anchor="start" x="1696.25" y="-84.5" font-family="Helvetica,sans-Serif" font-size="10.00">&lt; FMTvertex_descriptor</text>
<text text-anchor="middle" x="1779.5" y="-72.5" font-family="Helvetica,sans-Serif" font-size="10.00"> FMT_COMMA FMTvertex_iterator &gt; &gt;</text>
</a>
</g>
</g>
<!-- Node27&#45;&gt;Node25 -->
<g id="edge29_Node000025_Node000027" class="edge">
<title>Node27&#45;&gt;Node25</title>
<g id="a_edge29_Node000025_Node000027"><a xlink:title=" ">
<path fill="none" stroke="#9a32cd" stroke-dasharray="5,2" d="M1881.65,-110.87C1912.05,-115.94 1945.35,-121.5 1975.59,-126.54"/>
<polygon fill="#9a32cd" stroke="#9a32cd" points="1882.47,-107.29 1872.03,-109.1 1881.32,-114.2 1882.47,-107.29"/>
</a>
</g>
<text text-anchor="middle" x="1919.88" y="-124.5" font-family="Helvetica,sans-Serif" font-size="10.00" fill="grey"> nodescache</text>
</g>
<!-- Node28 -->
<g id="Node000028" class="node">
<title>Node28</title>
<g id="a_Node000028"><a xlink:href="classGraph_1_1FMToutputnodecache.html" target="_top" xlink:title=" ">
<polygon fill="white" stroke="#666666" points="1602,-115 1428.5,-115 1428.5,-71 1602,-71 1602,-115"/>
<text text-anchor="start" x="1436.5" y="-101.5" font-family="Helvetica,sans-Serif" font-size="10.00">Graph::FMToutputnodecache</text>
<text text-anchor="start" x="1436.5" y="-89.5" font-family="Helvetica,sans-Serif" font-size="10.00">&lt; FMTvertex_descriptor</text>
<text text-anchor="middle" x="1515.25" y="-77.5" font-family="Helvetica,sans-Serif" font-size="10.00"> FMT_COMMA FMTvertex_iterator &gt;</text>
</a>
</g>
</g>
<!-- Node28&#45;&gt;Node27 -->
<g id="edge30_Node000027_Node000028" class="edge">
<title>Node28&#45;&gt;Node27</title>
<g id="a_edge30_Node000027_Node000028"><a xlink:title=" ">
<path fill="none" stroke="#9a32cd" stroke-dasharray="5,2" d="M1613.24,-93.37C1637.76,-93.46 1663.99,-93.56 1688.16,-93.66"/>
<polygon fill="#9a32cd" stroke="#9a32cd" points="1613.5,-89.87 1603.48,-93.33 1613.47,-96.87 1613.5,-89.87"/>
</a>
</g>
<text text-anchor="middle" x="1645.12" y="-96.5" font-family="Helvetica,sans-Serif" font-size="10.00" fill="grey"> elements</text>
</g>
<!-- Node29 -->
<g id="Node000029" class="node">
<title>Node29</title>
<g id="a_Node000029"><a xlink:href="classGraph_1_1FMTgraphstats.html" target="_top" xlink:title=" ">
<polygon fill="white" stroke="#666666" points="1836.25,-48 1722.75,-48 1722.75,-28 1836.25,-28 1836.25,-48"/>
<text text-anchor="middle" x="1779.5" y="-34.5" font-family="Helvetica,sans-Serif" font-size="10.00">Graph::FMTgraphstats</text>
</a>
</g>
</g>
<!-- Node29&#45;&gt;Node25 -->
<g id="edge31_Node000025_Node000029" class="edge">
<title>Node29&#45;&gt;Node25</title>
<g id="a_edge31_Node000025_Node000029"><a xlink:title=" ">
<path fill="none" stroke="#9a32cd" stroke-dasharray="5,2" d="M1846.9,-50.45C1854.99,-52.42 1863.1,-54.6 1870.75,-57 1932.42,-76.33 2001.07,-107.47 2040.79,-126.5"/>
<polygon fill="#9a32cd" stroke="#9a32cd" points="1847.83,-46.84 1837.3,-47.99 1846.25,-53.66 1847.83,-46.84"/>
</a>
</g>
<text text-anchor="middle" x="1919.88" y="-89.5" font-family="Helvetica,sans-Serif" font-size="10.00" fill="grey"> stats</text>
</g>
<!-- Node30&#45;&gt;Node1 -->
<g id="edge32_Node000001_Node000030" class="edge">
<title>Node30&#45;&gt;Node1</title>
<g id="a_edge32_Node000001_Node000030"><a xlink:title=" ">
<path fill="none" stroke="#9a32cd" stroke-dasharray="5,2" d="M2344.66,-272.85C2391.38,-275.9 2452.14,-279 2506.12,-279 2506.12,-279 2506.12,-279 2814.88,-279 2865.54,-279 2922.33,-259.93 2953.99,-247.49"/>
<polygon fill="#9a32cd" stroke="#9a32cd" points="2344.92,-269.3 2334.71,-272.12 2344.46,-276.28 2344.92,-269.3"/>
</a>
</g>
<text text-anchor="middle" x="2602.88" y="-281.5" font-family="Helvetica,sans-Serif" font-size="10.00" fill="grey"> events</text>
</g>
</g>
</svg>
