<?xml version="1.0" encoding="UTF-8" standalone="no"?>
<!DOCTYPE svg PUBLIC "-//W3C//DTD SVG 1.1//EN"
 "http://www.w3.org/Graphics/SVG/1.1/DTD/svg11.dtd">
<!-- Generated by graphviz version 8.1.0 (20230707.0739)
 -->
<!-- Title: Models::FMTsemodel Pages: 1 -->
<svg width="250pt" height="196pt"
 viewBox="0.00 0.00 250.38 196.00" xmlns="http://www.w3.org/2000/svg" xmlns:xlink="http://www.w3.org/1999/xlink">

<svg id="main" version="1.1" xmlns="http://www.w3.org/2000/svg" xmlns:xlink="http://www.w3.org/1999/xlink" xml:space="preserve" onload="init(evt)">
<style type="text/css"><![CDATA[
.node, .edge {opacity: 0.7;}
.node.selected, .edge.selected {opacity: 1;}
.edge:hover path { stroke: red; }
.edge:hover polygon { stroke: red; fill: red; }
]]></style>
<script type="application/ecmascript" xlink:href="svg.min.js"/>
<svg id="graph" class="graph">
<g id="graph0" class="graph" transform="scale(1 1) rotate(0) translate(4 192)">
<title>Models::FMTsemodel</title>
<!-- Node1 -->
<g id="Node000001" class="node">
<title>Node1</title>
<g id="a_Node000001"><a xlink:title=" ">
<polygon fill="#999999" stroke="#666666" points="174.75,-76 65,-76 65,-56 174.75,-56 174.75,-76"/>
<text text-anchor="middle" x="119.88" y="-62.5" font-family="Helvetica,sans-Serif" font-size="10.00">Models::FMTsemodel</text>
</a>
</g>
</g>
<!-- Node4 -->
<g id="Node000004" class="node">
<title>Node4</title>
<g id="a_Node000004"><a xlink:href="classModels_1_1FMTsamodel.html" target="_top" xlink:title=" ">
<polygon fill="white" stroke="#666666" points="109.75,-20 0,-20 0,0 109.75,0 109.75,-20"/>
<text text-anchor="middle" x="54.88" y="-6.5" font-family="Helvetica,sans-Serif" font-size="10.00">Models::FMTsamodel</text>
</a>
</g>
</g>
<!-- Node1&#45;&gt;Node4 -->
<g id="edge3_Node000001_Node000004" class="edge">
<title>Node1&#45;&gt;Node4</title>
<g id="a_edge3_Node000001_Node000004"><a xlink:title=" ">
<path fill="none" stroke="#63b8ff" d="M100.23,-48.68C89.05,-39.39 75.44,-28.09 66.07,-20.3"/>
<polygon fill="#63b8ff" stroke="#63b8ff" points="97.62,-51.9 107.55,-55.59 102.1,-46.51 97.62,-51.9"/>
</a>
</g>
</g>
<!-- Node5 -->
<g id="Node000005" class="node">
<title>Node5</title>
<g id="a_Node000005"><a xlink:href="classModels_1_1FMTsesmodel.html" target="_top" xlink:title=" ">
<polygon fill="white" stroke="#666666" points="242.38,-20 127.38,-20 127.38,0 242.38,0 242.38,-20"/>
<text text-anchor="middle" x="184.88" y="-6.5" font-family="Helvetica,sans-Serif" font-size="10.00">Models::FMTsesmodel</text>
</a>
</g>
</g>
<!-- Node1&#45;&gt;Node5 -->
<g id="edge4_Node000001_Node000005" class="edge">
<title>Node1&#45;&gt;Node5</title>
<g id="a_edge4_Node000001_Node000005"><a xlink:title=" ">
<path fill="none" stroke="#63b8ff" d="M139.52,-48.68C150.7,-39.39 164.31,-28.09 173.68,-20.3"/>
<polygon fill="#63b8ff" stroke="#63b8ff" points="137.65,-46.51 132.2,-55.59 142.13,-51.9 137.65,-46.51"/>
</a>
</g>
</g>
<!-- Node2 -->
<g id="Node000002" class="node">
<title>Node2</title>
<g id="a_Node000002"><a xlink:href="classModels_1_1FMTmodel.html" target="_top" xlink:title=" ">
<polygon fill="white" stroke="#666666" points="169.5,-132 70.25,-132 70.25,-112 169.5,-112 169.5,-132"/>
<text text-anchor="middle" x="119.88" y="-118.5" font-family="Helvetica,sans-Serif" font-size="10.00">Models::FMTmodel</text>
</a>
</g>
</g>
<!-- Node2&#45;&gt;Node1 -->
<g id="edge1_Node000001_Node000002" class="edge">
<title>Node2&#45;&gt;Node1</title>
<g id="a_edge1_Node000001_Node000002"><a xlink:title=" ">
<path fill="none" stroke="#63b8ff" d="M119.88,-100.71C119.88,-92.32 119.88,-83.01 119.88,-76.3"/>
<polygon fill="#63b8ff" stroke="#63b8ff" points="116.38,-100.59 119.88,-110.59 123.38,-100.59 116.38,-100.59"/>
</a>
</g>
</g>
<!-- Node3 -->
<g id="Node000003" class="node">
<title>Node3</title>
<g id="a_Node000003"><a xlink:href="classCore_1_1FMTobject.html" target="_top" xlink:title=" ">
<polygon fill="white" stroke="#666666" points="163.88,-188 75.88,-188 75.88,-168 163.88,-168 163.88,-188"/>
<text text-anchor="middle" x="119.88" y="-174.5" font-family="Helvetica,sans-Serif" font-size="10.00">Core::FMTobject</text>
</a>
</g>
</g>
<!-- Node3&#45;&gt;Node2 -->
<g id="edge2_Node000002_Node000003" class="edge">
<title>Node3&#45;&gt;Node2</title>
<g id="a_edge2_Node000002_Node000003"><a xlink:title=" ">
<path fill="none" stroke="#63b8ff" d="M119.88,-156.71C119.88,-148.32 119.88,-139.01 119.88,-132.3"/>
<polygon fill="#63b8ff" stroke="#63b8ff" points="116.38,-156.59 119.88,-166.59 123.38,-156.59 116.38,-156.59"/>
</a>
</g>
</g>
</g>
</svg>
</svg>

<style type='text/css'>
<![CDATA[
[data-mouse-over-selected='false'] { opacity: 0.7; }
[data-mouse-over-selected='true']  { opacity: 1.0; }
]]>
</style>
<script type="application/ecmascript"><![CDATA[
document.addEventListener('DOMContentLoaded', (event) => {
  highlightEdges();
  highlightAdjacentNodes();
});
]]></script>
</svg>
