<?xml version="1.0" encoding="UTF-8" standalone="no"?>
<!DOCTYPE svg PUBLIC "-//W3C//DTD SVG 1.1//EN"
 "http://www.w3.org/Graphics/SVG/1.1/DTD/svg11.dtd">
<!-- Generated by graphviz version 10.0.1 (20240210.2158)
 -->
<!-- Title: Heuristics::FMToperatingareascheduler Pages: 1 -->
<!--zoomable 849 -->
<svg id="main" version="1.1" xmlns="http://www.w3.org/2000/svg" xmlns:xlink="http://www.w3.org/1999/xlink" xml:space="preserve" onload="init(evt)">
<style type="text/css"><![CDATA[
.edge:hover path { stroke: red; }
.edge:hover polygon { stroke: red; fill: red; }
]]></style>
<script type="text/javascript"><![CDATA[
var edges = document.getElementsByTagName('g');
if (edges && edges.length) {
  for (var i=0;i<edges.length;i++) {
    if (edges[i].id.substr(0,4)=='edge') {
      edges[i].setAttribute('class','edge');
    }
  }
}
]]></script>
        <defs>
                <circle id="rim" cx="0" cy="0" r="7"/>
                <circle id="rim2" cx="0" cy="0" r="3.5"/>
                <g id="zoomPlus">
                        <use xlink:href="#rim" fill="#404040">
                                <set attributeName="fill" to="#808080" begin="zoomplus.mouseover" end="zoomplus.mouseout"/>
                        </use>
                        <path d="M-4,0h8M0,-4v8" fill="none" stroke="white" stroke-width="1.5" pointer-events="none"/>
                </g>
                <g id="zoomMin">
                        <use xlink:href="#rim" fill="#404040">
                                <set attributeName="fill" to="#808080" begin="zoomminus.mouseover" end="zoomminus.mouseout"/>
                        </use>
                        <path d="M-4,0h8" fill="none" stroke="white" stroke-width="1.5" pointer-events="none"/>
                </g>
                <g id="dirArrow">
                        <path fill="none" stroke="white" stroke-width="1.5" d="M0,-3.0v7 M-2.5,-0.5L0,-3.0L2.5,-0.5"/>
                </g>
               <g id="resetDef">
                       <use xlink:href="#rim2" fill="#404040">
                               <set attributeName="fill" to="#808080" begin="reset.mouseover" end="reset.mouseout"/>
                       </use>
               </g>
        </defs>

<script type="text/javascript">
var viewWidth = 646;
var viewHeight = 849;
var sectionId = 'dynsection-1';
</script>
<script xlink:href="svgpan.js"/>
<svg id="graph" class="graph">
<g id="viewport">
<title>Heuristics::FMToperatingareascheduler</title>
<!-- Node1 -->
<g id="node1" class="node">
<title>Node1</title>
<g id="a_node1"><a xlink:title=" ">
<polygon fill="#999999" stroke="#666666" points="375.88,-20 190.38,-20 190.38,0 375.88,0 375.88,-20"/>
<text text-anchor="middle" x="283.12" y="-6.5" font-family="Helvetica,sans-Serif" font-size="10.00">Heuristics::FMToperatingareascheduler</text>
</a>
</g>
</g>
<!-- Node2 -->
<g id="node2" class="node">
<title>Node2</title>
<g id="a_node2"><a xlink:href="classHeuristics_1_1FMTlpheuristic.html" target="_top" xlink:title=" ">
<polygon fill="white" stroke="#666666" points="347.75,-77 218.5,-77 218.5,-57 347.75,-57 347.75,-77"/>
<text text-anchor="middle" x="283.12" y="-63.5" font-family="Helvetica,sans-Serif" font-size="10.00">Heuristics::FMTlpheuristic</text>
</a>
</g>
</g>
<!-- Node2&#45;&gt;Node1 -->
<g id="edge1" class="edge">
<title>Node2&#45;&gt;Node1</title>
<path fill="none" stroke="#63b8ff" d="M283.12,-45.69C283.12,-36.97 283.12,-27.22 283.12,-20.28"/>
<polygon fill="#63b8ff" stroke="#63b8ff" points="279.63,-45.4 283.13,-55.4 286.63,-45.4 279.63,-45.4"/>
</g>
<!-- Node3 -->
<g id="node3" class="node">
<title>Node3</title>
<g id="a_node3"><a xlink:href="classModels_1_1FMTlpsolver.html" target="_top" xlink:title=" ">
<polygon fill="white" stroke="#666666" points="335.75,-134 230.5,-134 230.5,-114 335.75,-114 335.75,-134"/>
<text text-anchor="middle" x="283.12" y="-120.5" font-family="Helvetica,sans-Serif" font-size="10.00">Models::FMTlpsolver</text>
</a>
</g>
</g>
<!-- Node3&#45;&gt;Node2 -->
<g id="edge2" class="edge">
<title>Node3&#45;&gt;Node2</title>
<path fill="none" stroke="#63b8ff" d="M283.12,-102.69C283.12,-93.97 283.12,-84.22 283.12,-77.28"/>
<polygon fill="#63b8ff" stroke="#63b8ff" points="279.63,-102.4 283.13,-112.4 286.63,-102.4 279.63,-102.4"/>
</g>
<!-- Node4 -->
<g id="node4" class="node">
<title>Node4</title>
<g id="a_node4"><a xlink:href="classCore_1_1FMTobject.html" target="_top" xlink:title=" ">
<polygon fill="white" stroke="#666666" points="266.12,-202 178.12,-202 178.12,-182 266.12,-182 266.12,-202"/>
<text text-anchor="middle" x="222.12" y="-188.5" font-family="Helvetica,sans-Serif" font-size="10.00">Core::FMTobject</text>
</a>
</g>
</g>
<!-- Node4&#45;&gt;Node3 -->
<g id="edge3" class="edge">
<title>Node4&#45;&gt;Node3</title>
<path fill="none" stroke="#63b8ff" d="M238.53,-173.25C250.08,-160.76 265.08,-144.53 274.4,-134.44"/>
<polygon fill="#63b8ff" stroke="#63b8ff" points="236.11,-170.71 231.89,-180.43 241.25,-175.46 236.11,-170.71"/>
</g>
<!-- Node5 -->
<g id="node5" class="node">
<title>Node5</title>
<g id="a_node5"><a xlink:title=" ">
<polygon fill="white" stroke="#666666" points="381,-282 247.25,-282 247.25,-250 381,-250 381,-282"/>
<text text-anchor="start" x="255.25" y="-268.5" font-family="Helvetica,sans-Serif" font-size="10.00">std::shared_ptr&lt; Exception</text>
<text text-anchor="middle" x="314.12" y="-256.5" font-family="Helvetica,sans-Serif" font-size="10.00">::FMTexceptionhandler &gt;</text>
</a>
</g>
</g>
<!-- Node5&#45;&gt;Node4 -->
<g id="edge4" class="edge">
<title>Node5&#45;&gt;Node4</title>
<path fill="none" stroke="#9a32cd" stroke-dasharray="5,2" d="M285.94,-242.94C268.53,-229.32 247.09,-212.54 234.02,-202.31"/>
<polygon fill="#9a32cd" stroke="#9a32cd" points="283.39,-245.39 293.42,-248.8 287.7,-239.88 283.39,-245.39"/>
<text text-anchor="middle" x="296.25" y="-222.5" font-family="Helvetica,sans-Serif" font-size="10.00"> _exhandler</text>
</g>
<!-- Node6 -->
<g id="node6" class="node">
<title>Node6</title>
<g id="a_node6"><a xlink:href="classException_1_1FMTexceptionhandler.html" target="_top" xlink:title=" ">
<polygon fill="white" stroke="#666666" points="407.38,-350 248.88,-350 248.88,-330 407.38,-330 407.38,-350"/>
<text text-anchor="middle" x="328.12" y="-336.5" font-family="Helvetica,sans-Serif" font-size="10.00">Exception::FMTexceptionhandler</text>
</a>
</g>
</g>
<!-- Node6&#45;&gt;Node5 -->
<g id="edge5" class="edge">
<title>Node6&#45;&gt;Node5</title>
<path fill="none" stroke="#9a32cd" stroke-dasharray="5,2" d="M324.13,-318.46C321.91,-307.01 319.18,-292.99 317.13,-282.47"/>
<polygon fill="#9a32cd" stroke="#9a32cd" points="320.66,-318.95 326.01,-328.1 327.53,-317.62 320.66,-318.95"/>
<text text-anchor="middle" x="329.25" y="-302.5" font-family="Helvetica,sans-Serif" font-size="10.00"> ptr</text>
</g>
<!-- Node7 -->
<g id="node7" class="node">
<title>Node7</title>
<g id="a_node7"><a xlink:title=" ">
<polygon fill="white" stroke="#666666" points="253.12,-430 129.12,-430 129.12,-398 253.12,-398 253.12,-430"/>
<text text-anchor="start" x="137.12" y="-416.5" font-family="Helvetica,sans-Serif" font-size="10.00">std::shared_ptr&lt; Logging</text>
<text text-anchor="middle" x="191.12" y="-404.5" font-family="Helvetica,sans-Serif" font-size="10.00">::FMTlogger &gt;</text>
</a>
</g>
</g>
<!-- Node7&#45;&gt;Node4 -->
<g id="edge21" class="edge">
<title>Node7&#45;&gt;Node4</title>
<path fill="none" stroke="#9a32cd" stroke-dasharray="5,2" d="M194.9,-386.23C201.85,-336.91 216.36,-233.88 220.81,-202.36"/>
<polygon fill="#9a32cd" stroke="#9a32cd" points="191.45,-385.64 193.52,-396.03 198.38,-386.62 191.45,-385.64"/>
<text text-anchor="middle" x="224.38" y="-302.5" font-family="Helvetica,sans-Serif" font-size="10.00"> _logger</text>
</g>
<!-- Node7&#45;&gt;Node6 -->
<g id="edge6" class="edge">
<title>Node7&#45;&gt;Node6</title>
<path fill="none" stroke="#9a32cd" stroke-dasharray="5,2" d="M230.54,-392.28C256.76,-378.5 289.97,-361.05 310.1,-350.47"/>
<polygon fill="#9a32cd" stroke="#9a32cd" points="229.08,-389.1 221.85,-396.85 232.33,-395.3 229.08,-389.1"/>
<text text-anchor="middle" x="293.38" y="-370.5" font-family="Helvetica,sans-Serif" font-size="10.00"> _logger</text>
</g>
<!-- Node8 -->
<g id="node8" class="node">
<title>Node8</title>
<g id="a_node8"><a xlink:href="classLogging_1_1FMTlogger.html" target="_top" xlink:title=" ">
<polygon fill="white" stroke="#666666" points="241.88,-498 140.38,-498 140.38,-478 241.88,-478 241.88,-498"/>
<text text-anchor="middle" x="191.12" y="-484.5" font-family="Helvetica,sans-Serif" font-size="10.00">Logging::FMTlogger</text>
</a>
</g>
</g>
<!-- Node8&#45;&gt;Node7 -->
<g id="edge7" class="edge">
<title>Node8&#45;&gt;Node7</title>
<path fill="none" stroke="#9a32cd" stroke-dasharray="5,2" d="M191.12,-466.1C191.12,-454.71 191.12,-440.87 191.12,-430.47"/>
<polygon fill="#9a32cd" stroke="#9a32cd" points="187.63,-466.07 191.13,-476.07 194.63,-466.07 187.63,-466.07"/>
<text text-anchor="middle" x="198.25" y="-450.5" font-family="Helvetica,sans-Serif" font-size="10.00"> ptr</text>
</g>
<!-- Node9 -->
<g id="node9" class="node">
<title>Node9</title>
<g id="a_node9"><a xlink:title=" ">
<polygon fill="white" stroke="#666666" points="138.75,-578 15.5,-578 15.5,-546 138.75,-546 138.75,-578"/>
<text text-anchor="start" x="23.5" y="-564.5" font-family="Helvetica,sans-Serif" font-size="10.00">std::unique_ptr&lt; Logging</text>
<text text-anchor="middle" x="77.12" y="-552.5" font-family="Helvetica,sans-Serif" font-size="10.00">::FMTsolverlogger &gt;</text>
</a>
</g>
</g>
<!-- Node9&#45;&gt;Node8 -->
<g id="edge8" class="edge">
<title>Node9&#45;&gt;Node8</title>
<path fill="none" stroke="#9a32cd" stroke-dasharray="5,2" d="M111.09,-539.55C132.72,-525.89 159.67,-508.86 176.13,-498.47"/>
<polygon fill="#9a32cd" stroke="#9a32cd" points="109.45,-536.45 102.86,-544.75 113.18,-542.37 109.45,-536.45"/>
<text text-anchor="middle" x="167.25" y="-518.5" font-family="Helvetica,sans-Serif" font-size="10.00"> solverref</text>
</g>
<!-- Node10 -->
<g id="node10" class="node">
<title>Node10</title>
<g id="a_node10"><a xlink:href="classLogging_1_1FMTsolverlogger.html" target="_top" xlink:title=" ">
<polygon fill="white" stroke="#666666" points="126.25,-652 0,-652 0,-632 126.25,-632 126.25,-652"/>
<text text-anchor="middle" x="63.12" y="-638.5" font-family="Helvetica,sans-Serif" font-size="10.00">Logging::FMTsolverlogger</text>
</a>
</g>
</g>
<!-- Node10&#45;&gt;Node9 -->
<g id="edge9" class="edge">
<title>Node10&#45;&gt;Node9</title>
<path fill="none" stroke="#9a32cd" stroke-dasharray="5,2" d="M66.8,-620.51C69.17,-607.32 72.2,-590.47 74.36,-578.42"/>
<polygon fill="#9a32cd" stroke="#9a32cd" points="63.38,-619.8 65.05,-630.26 70.27,-621.03 63.38,-619.8"/>
<text text-anchor="middle" x="78.25" y="-598.5" font-family="Helvetica,sans-Serif" font-size="10.00"> ptr</text>
</g>
<!-- Node11 -->
<g id="node11" class="node">
<title>Node11</title>
<g id="a_node11"><a xlink:title=" ">
<polygon fill="white" stroke="#666666" points="117.25,-721 9,-721 9,-701 117.25,-701 117.25,-721"/>
<text text-anchor="middle" x="63.12" y="-707.5" font-family="Helvetica,sans-Serif" font-size="10.00">CoinMessageHandler</text>
</a>
</g>
</g>
<!-- Node11&#45;&gt;Node10 -->
<g id="edge10" class="edge">
<title>Node11&#45;&gt;Node10</title>
<path fill="none" stroke="#63b8ff" d="M63.12,-689.51C63.12,-677.07 63.12,-661.81 63.12,-652.24"/>
<polygon fill="#63b8ff" stroke="#63b8ff" points="59.63,-689.17 63.13,-699.17 66.63,-689.17 59.63,-689.17"/>
</g>
<!-- Node12 -->
<g id="node12" class="node">
<title>Node12</title>
<g id="a_node12"><a xlink:title=" ">
<polygon fill="white" stroke="#666666" points="220.88,-572 161.38,-572 161.38,-552 220.88,-552 220.88,-572"/>
<text text-anchor="middle" x="191.12" y="-558.5" font-family="Helvetica,sans-Serif" font-size="10.00">std::string</text>
</a>
</g>
</g>
<!-- Node12&#45;&gt;Node8 -->
<g id="edge11" class="edge">
<title>Node12&#45;&gt;Node8</title>
<path fill="none" stroke="#9a32cd" stroke-dasharray="5,2" d="M191.12,-540.18C191.12,-526.29 191.12,-508.71 191.12,-498.19"/>
<polygon fill="#9a32cd" stroke="#9a32cd" points="187.63,-540.07 191.13,-550.07 194.63,-540.07 187.63,-540.07"/>
<text text-anchor="middle" x="208" y="-518.5" font-family="Helvetica,sans-Serif" font-size="10.00"> filepath</text>
</g>
<!-- Node13 -->
<g id="node13" class="node">
<title>Node13</title>
<g id="a_node13"><a xlink:title=" ">
<polygon fill="white" stroke="#666666" points="238.12,-658 144.12,-658 144.12,-626 238.12,-626 238.12,-658"/>
<text text-anchor="start" x="152.12" y="-644.5" font-family="Helvetica,sans-Serif" font-size="10.00">std::basic_string&lt;</text>
<text text-anchor="middle" x="191.12" y="-632.5" font-family="Helvetica,sans-Serif" font-size="10.00"> Char &gt;</text>
</a>
</g>
</g>
<!-- Node13&#45;&gt;Node12 -->
<g id="edge12" class="edge">
<title>Node13&#45;&gt;Node12</title>
<path fill="none" stroke="#63b8ff" d="M191.12,-614.23C191.12,-599.77 191.12,-582.81 191.12,-572.49"/>
<polygon fill="#63b8ff" stroke="#63b8ff" points="187.63,-614.08 191.13,-624.08 194.63,-614.08 187.63,-614.08"/>
</g>
<!-- Node14 -->
<g id="node14" class="node">
<title>Node14</title>
<g id="a_node14"><a xlink:title=" ">
<polygon fill="white" stroke="#666666" points="327.62,-572 254.62,-572 254.62,-552 327.62,-552 327.62,-572"/>
<text text-anchor="middle" x="291.12" y="-558.5" font-family="Helvetica,sans-Serif" font-size="10.00">std::ofstream</text>
</a>
</g>
</g>
<!-- Node14&#45;&gt;Node8 -->
<g id="edge13" class="edge">
<title>Node14&#45;&gt;Node8</title>
<path fill="none" stroke="#9a32cd" stroke-dasharray="5,2" d="M269.2,-545C257.35,-536.38 242.46,-525.58 229.12,-516 220.97,-510.15 211.8,-503.63 204.51,-498.46"/>
<polygon fill="#9a32cd" stroke="#9a32cd" points="266.96,-547.7 277.1,-550.76 271.08,-542.05 266.96,-547.7"/>
<text text-anchor="middle" x="267.62" y="-518.5" font-family="Helvetica,sans-Serif" font-size="10.00"> filestream</text>
</g>
<!-- Node15 -->
<g id="node15" class="node">
<title>Node15</title>
<g id="a_node15"><a xlink:title=" ">
<polygon fill="white" stroke="#666666" points="357.88,-658 256.38,-658 256.38,-626 357.88,-626 357.88,-658"/>
<text text-anchor="start" x="264.38" y="-644.5" font-family="Helvetica,sans-Serif" font-size="10.00">std::basic_ofstream</text>
<text text-anchor="middle" x="307.12" y="-632.5" font-family="Helvetica,sans-Serif" font-size="10.00">&lt; Char &gt;</text>
</a>
</g>
</g>
<!-- Node15&#45;&gt;Node14 -->
<g id="edge14" class="edge">
<title>Node15&#45;&gt;Node14</title>
<path fill="none" stroke="#63b8ff" d="M301.72,-614.66C298.74,-600.11 295.21,-582.91 293.07,-572.49"/>
<polygon fill="#63b8ff" stroke="#63b8ff" points="298.22,-615.01 303.66,-624.11 305.08,-613.61 298.22,-615.01"/>
</g>
<!-- Node16 -->
<g id="node16" class="node">
<title>Node16</title>
<g id="a_node16"><a xlink:title=" ">
<polygon fill="white" stroke="#666666" points="356.75,-727 257.5,-727 257.5,-695 356.75,-695 356.75,-727"/>
<text text-anchor="start" x="265.5" y="-713.5" font-family="Helvetica,sans-Serif" font-size="10.00">std::basic_ostream</text>
<text text-anchor="middle" x="307.12" y="-701.5" font-family="Helvetica,sans-Serif" font-size="10.00">&lt; Char &gt;</text>
</a>
</g>
</g>
<!-- Node16&#45;&gt;Node15 -->
<g id="edge15" class="edge">
<title>Node16&#45;&gt;Node15</title>
<path fill="none" stroke="#63b8ff" d="M307.12,-683.35C307.12,-674.78 307.12,-665.59 307.12,-658.14"/>
<polygon fill="#63b8ff" stroke="#63b8ff" points="303.63,-683.28 307.13,-693.28 310.63,-683.28 303.63,-683.28"/>
</g>
<!-- Node17 -->
<g id="node17" class="node">
<title>Node17</title>
<g id="a_node17"><a xlink:title=" ">
<polygon fill="white" stroke="#666666" points="364.62,-784 249.62,-784 249.62,-764 364.62,-764 364.62,-784"/>
<text text-anchor="middle" x="307.12" y="-770.5" font-family="Helvetica,sans-Serif" font-size="10.00">std::basic_ios&lt; Char &gt;</text>
</a>
</g>
</g>
<!-- Node17&#45;&gt;Node16 -->
<g id="edge16" class="edge">
<title>Node17&#45;&gt;Node16</title>
<path fill="none" stroke="#63b8ff" d="M307.12,-752.36C307.12,-744.07 307.12,-734.69 307.12,-727.06"/>
<polygon fill="#63b8ff" stroke="#63b8ff" points="303.63,-752.22 307.13,-762.22 310.63,-752.22 303.63,-752.22"/>
</g>
<!-- Node18 -->
<g id="node18" class="node">
<title>Node18</title>
<g id="a_node18"><a xlink:title=" ">
<polygon fill="white" stroke="#666666" points="344.38,-841 269.88,-841 269.88,-821 344.38,-821 344.38,-841"/>
<text text-anchor="middle" x="307.12" y="-827.5" font-family="Helvetica,sans-Serif" font-size="10.00">std::ios_base</text>
</a>
</g>
</g>
<!-- Node18&#45;&gt;Node17 -->
<g id="edge17" class="edge">
<title>Node18&#45;&gt;Node17</title>
<path fill="none" stroke="#63b8ff" d="M307.12,-809.69C307.12,-800.97 307.12,-791.22 307.12,-784.28"/>
<polygon fill="#63b8ff" stroke="#63b8ff" points="303.63,-809.4 307.13,-819.4 310.63,-809.4 303.63,-809.4"/>
</g>
<!-- Node19 -->
<g id="node19" class="node">
<title>Node19</title>
<g id="a_node19"><a xlink:title=" ">
<polygon fill="white" stroke="#666666" points="384.88,-430 271.38,-430 271.38,-398 384.88,-398 384.88,-430"/>
<text text-anchor="start" x="279.38" y="-416.5" font-family="Helvetica,sans-Serif" font-size="10.00">std::vector&lt; Exception</text>
<text text-anchor="middle" x="328.12" y="-404.5" font-family="Helvetica,sans-Serif" font-size="10.00">::FMTexc &gt;</text>
</a>
</g>
</g>
<!-- Node19&#45;&gt;Node6 -->
<g id="edge18" class="edge">
<title>Node19&#45;&gt;Node6</title>
<path fill="none" stroke="#9a32cd" stroke-dasharray="5,2" d="M328.12,-386.34C328.12,-373.7 328.12,-359.41 328.12,-350.31"/>
<polygon fill="#9a32cd" stroke="#9a32cd" points="324.63,-386.22 328.13,-396.22 331.63,-386.22 324.63,-386.22"/>
<text text-anchor="middle" x="365.25" y="-370.5" font-family="Helvetica,sans-Serif" font-size="10.00"> errorstowarnings</text>
</g>
<!-- Node20 -->
<g id="node20" class="node">
<title>Node20</title>
<g id="a_node20"><a xlink:title=" ">
<polygon fill="white" stroke="#666666" points="517.62,-430 402.62,-430 402.62,-398 517.62,-398 517.62,-430"/>
<text text-anchor="start" x="410.62" y="-416.5" font-family="Helvetica,sans-Serif" font-size="10.00">std::set&lt; boost::thread</text>
<text text-anchor="middle" x="460.12" y="-404.5" font-family="Helvetica,sans-Serif" font-size="10.00">::id &gt;</text>
</a>
</g>
</g>
<!-- Node20&#45;&gt;Node6 -->
<g id="edge19" class="edge">
<title>Node20&#45;&gt;Node6</title>
<path fill="none" stroke="#9a32cd" stroke-dasharray="5,2" d="M436.38,-390.04C427.42,-382.26 416.8,-374.03 406.12,-368 393.02,-360.6 377.55,-354.73 363.85,-350.38"/>
<polygon fill="#9a32cd" stroke="#9a32cd" points="433.83,-392.45 443.6,-396.55 438.52,-387.25 433.83,-392.45"/>
<text text-anchor="middle" x="464.75" y="-370.5" font-family="Helvetica,sans-Serif" font-size="10.00"> registered_threads</text>
</g>
<!-- Node21 -->
<g id="node21" class="node">
<title>Node21</title>
<g id="a_node21"><a xlink:title=" ">
<polygon fill="white" stroke="#666666" points="638.25,-430 536,-430 536,-398 638.25,-398 638.25,-430"/>
<text text-anchor="start" x="544" y="-416.5" font-family="Helvetica,sans-Serif" font-size="10.00">std::unordered_map</text>
<text text-anchor="middle" x="587.12" y="-404.5" font-family="Helvetica,sans-Serif" font-size="10.00">&lt; int, size_t &gt;</text>
</a>
</g>
</g>
<!-- Node21&#45;&gt;Node6 -->
<g id="edge20" class="edge">
<title>Node21&#45;&gt;Node6</title>
<path fill="none" stroke="#9a32cd" stroke-dasharray="5,2" d="M556.62,-391.54C542.98,-382.93 526.35,-373.7 510.12,-368 477.58,-356.56 440.1,-349.96 407.65,-346.17"/>
<polygon fill="#9a32cd" stroke="#9a32cd" points="554.42,-394.28 564.71,-396.82 558.25,-388.42 554.42,-394.28"/>
<text text-anchor="middle" x="585.25" y="-370.5" font-family="Helvetica,sans-Serif" font-size="10.00"> _specificwarningcount</text>
</g>
<!-- Node22 -->
<g id="node22" class="node">
<title>Node22</title>
<g id="a_node22"><a xlink:href="classModels_1_1FMTmatrixbuild.html" target="_top" xlink:title=" ">
<polygon fill="white" stroke="#666666" points="404.25,-202 284,-202 284,-182 404.25,-182 404.25,-202"/>
<text text-anchor="middle" x="344.12" y="-188.5" font-family="Helvetica,sans-Serif" font-size="10.00">Models::FMTmatrixbuild</text>
</a>
</g>
</g>
<!-- Node22&#45;&gt;Node3 -->
<g id="edge22" class="edge">
<title>Node22&#45;&gt;Node3</title>
<path fill="none" stroke="#9a32cd" stroke-dasharray="5,2" d="M327.72,-173.25C316.17,-160.76 301.17,-144.53 291.85,-134.44"/>
<polygon fill="#9a32cd" stroke="#9a32cd" points="325,-175.46 334.36,-180.43 330.14,-170.71 325,-175.46"/>
<text text-anchor="middle" x="346.25" y="-154.5" font-family="Helvetica,sans-Serif" font-size="10.00"> matrixcache</text>
</g>
</g>
</svg>
        <g id="navigator" transform="translate(0 0)" fill="#404254">
                <rect fill="#f2f5e9" fill-opacity="0.5" stroke="#606060" stroke-width=".5" x="0" y="0" width="60" height="60"/>
                <use id="zoomplus" xlink:href="#zoomPlus" x="17" y="9" onmousedown="handleZoom(evt,'in')"/>
                <use id="zoomminus" xlink:href="#zoomMin" x="42" y="9" onmousedown="handleZoom(evt,'out')"/>
                <use id="reset" xlink:href="#resetDef" x="30" y="36" onmousedown="handleReset()"/>
                <g id="arrowUp" xlink:href="#dirArrow" transform="translate(30 24)" onmousedown="handlePan(0,-1)">
                  <use xlink:href="#rim" fill="#404040">
                        <set attributeName="fill" to="#808080" begin="arrowUp.mouseover" end="arrowUp.mouseout"/>
                  </use>
                  <path fill="none" stroke="white" stroke-width="1.5" d="M0,-3.0v7 M-2.5,-0.5L0,-3.0L2.5,-0.5"/>
                </g>
                <g id="arrowRight" xlink:href="#dirArrow" transform="rotate(90) translate(36 -43)" onmousedown="handlePan(1,0)">
                  <use xlink:href="#rim" fill="#404040">
                        <set attributeName="fill" to="#808080" begin="arrowRight.mouseover" end="arrowRight.mouseout"/>
                  </use>
                  <path fill="none" stroke="white" stroke-width="1.5" d="M0,-3.0v7 M-2.5,-0.5L0,-3.0L2.5,-0.5"/>
                </g>
                <g id="arrowDown" xlink:href="#dirArrow" transform="rotate(180) translate(-30 -48)" onmousedown="handlePan(0,1)">
                  <use xlink:href="#rim" fill="#404040">
                        <set attributeName="fill" to="#808080" begin="arrowDown.mouseover" end="arrowDown.mouseout"/>
                  </use>
                  <path fill="none" stroke="white" stroke-width="1.5" d="M0,-3.0v7 M-2.5,-0.5L0,-3.0L2.5,-0.5"/>
                </g>
                <g id="arrowLeft" xlink:href="#dirArrow" transform="rotate(270) translate(-36 17)" onmousedown="handlePan(-1,0)">
                  <use xlink:href="#rim" fill="#404040">
                        <set attributeName="fill" to="#808080" begin="arrowLeft.mouseover" end="arrowLeft.mouseout"/>
                  </use>
                  <path fill="none" stroke="white" stroke-width="1.5" d="M0,-3.0v7 M-2.5,-0.5L0,-3.0L2.5,-0.5"/>
                </g>
        </g>
        <svg viewBox="0 0 15 15" width="100%" height="30px" preserveAspectRatio="xMaxYMin meet">
         <g id="arrow_out" transform="scale(0.3 0.3)">
          <a xlink:href="classHeuristics_1_1FMToperatingareascheduler__coll__graph_org.svg" target="_base">
           <rect id="button" ry="5" rx="5" y="6" x="6" height="38" width="38"
                fill="#f2f5e9" fill-opacity="0.5" stroke="#606060" stroke-width="1.0"/>
           <path id="arrow"
             d="M 11.500037,31.436501 C 11.940474,20.09759 22.043105,11.32322 32.158766,21.979434 L 37.068811,17.246167 C 37.068811,17.246167 37.088388,32 37.088388,32 L 22.160133,31.978069 C 22.160133,31.978069 26.997745,27.140456 26.997745,27.140456 C 18.528582,18.264221 13.291696,25.230495 11.500037,31.436501 z"
             style="fill:#404040;"/>
          </a>
         </g>
        </svg>
</svg>
