<?xml version="1.0" encoding="UTF-8" standalone="no"?>
<!DOCTYPE svg PUBLIC "-//W3C//DTD SVG 1.1//EN"
 "http://www.w3.org/Graphics/SVG/1.1/DTD/svg11.dtd">
<!-- Generated by graphviz version 8.1.0 (20230707.0739)
 -->
<!-- Title: C:/Users/CYRGU3/OneDrive &#45; BuroVirtuel/Bureau/FMT/FMT/Include/FMTactionparser.hpp Pages: 1 -->
<!--zoomable 300 -->

<svg id="main" version="1.1" xmlns="http://www.w3.org/2000/svg" xmlns:xlink="http://www.w3.org/1999/xlink" xml:space="preserve" onload="init(evt)">
<style type="text/css"><![CDATA[
.node, .edge {opacity: 0.7;}
.node.selected, .edge.selected {opacity: 1;}
.edge:hover path { stroke: red; }
.edge:hover polygon { stroke: red; fill: red; }
]]></style>

<defs>
  <circle id="rim" cx="0" cy="0" r="7"/>
  <circle id="rim2" cx="0" cy="0" r="3.5"/>
  <g id="zoomPlus">
    <use xlink:href="#rim" fill="#404040"><set attributeName="fill" to="#808080" begin="zoomplus.mouseover" end="zoomplus.mouseout"/></use>
    <path d="M-4,0h8M0,-4v8" fill="none" stroke="white" stroke-width="1.5" pointer-events="none"/>
  </g>
  <g id="zoomMin">
    <use xlink:href="#rim" fill="#404040"><set attributeName="fill" to="#808080" begin="zoomminus.mouseover" end="zoomminus.mouseout"/></use>
    <path d="M-4,0h8" fill="none" stroke="white" stroke-width="1.5" pointer-events="none"/>
  </g>
  <g id="arrowUp" transform="translate(30 24)">
    <use xlink:href="#rim"/>
    <path pointer-events="none" fill="none" stroke="white" stroke-width="1.5" d="M0,-3.0v7 M-2.5,-0.5L0,-3.0L2.5,-0.5"/>
  </g>
  <g id="arrowRight" transform="rotate(90) translate(36 -43)">
    <use xlink:href="#rim"/>
    <path pointer-events="none" fill="none" stroke="white" stroke-width="1.5" d="M0,-3.0v7 M-2.5,-0.5L0,-3.0L2.5,-0.5"/>
  </g>
  <g id="arrowDown" transform="rotate(180) translate(-30 -48)">
    <use xlink:href="#rim"/>
    <path pointer-events="none" fill="none" stroke="white" stroke-width="1.5" d="M0,-3.0v7 M-2.5,-0.5L0,-3.0L2.5,-0.5"/>
  </g>
  <g id="arrowLeft" transform="rotate(270) translate(-36 17)">
    <use xlink:href="#rim"/>
    <path pointer-events="none" fill="none" stroke="white" stroke-width="1.5" d="M0,-3.0v7 M-2.5,-0.5L0,-3.0L2.5,-0.5"/>
  </g>
  <g id="resetDef">
    <use xlink:href="#rim2" fill="#404040"><set attributeName="fill" to="#808080" begin="reset.mouseover" end="reset.mouseout"/></use>
  </g>
</defs>
<script type="application/ecmascript">
var viewWidth = 1299;
var viewHeight = 300;
var sectionId = 'dynsection-0';
</script>
<script type="application/ecmascript" xlink:href="svg.min.js"/>
<svg id="graph" class="graph">
<g id="viewport">
<title>C:/Users/CYRGU3/OneDrive &#45; BuroVirtuel/Bureau/FMT/FMT/Include/FMTactionparser.hpp</title>
<!-- Node1 -->
<g id="Node000001" class="node">
<title>Node1</title>
<g id="a_Node000001"><a xlink:title=" ">
<polygon fill="#999999" stroke="#666666" points="551.36,-292 384.61,-292 384.61,-248 551.36,-248 551.36,-292"/>
<text text-anchor="start" x="392.61" y="-278.5" font-family="Helvetica,sans-Serif" font-size="10.00">C:/Users/CYRGU3/OneDrive</text>
<text text-anchor="start" x="392.61" y="-266.5" font-family="Helvetica,sans-Serif" font-size="10.00"> &#45; BuroVirtuel/Bureau/FMT</text>
<text text-anchor="middle" x="467.99" y="-254.5" font-family="Helvetica,sans-Serif" font-size="10.00">/FMT/Include/FMTactionparser.hpp</text>
</a>
</g>
</g>
<!-- Node2 -->
<g id="Node000002" class="node">
<title>Node2</title>
<g id="a_Node000002"><a xlink:href="FMTparser_8hpp.html" target="_top" xlink:title=" ">
<polygon fill="white" stroke="#666666" points="508.61,-212 427.36,-212 427.36,-192 508.61,-192 508.61,-212"/>
<text text-anchor="middle" x="467.99" y="-198.5" font-family="Helvetica,sans-Serif" font-size="10.00">FMTparser.hpp</text>
</a>
</g>
</g>
<!-- Node1&#45;&gt;Node2 -->
<g id="edge1_Node000001_Node000002" class="edge">
<title>Node1&#45;&gt;Node2</title>
<g id="a_edge1_Node000001_Node000002"><a xlink:title=" ">
<path fill="none" stroke="#63b8ff" d="M467.99,-247.75C467.99,-239.94 467.99,-231.11 467.99,-223.38"/>
<polygon fill="#63b8ff" stroke="#63b8ff" points="471.49,-223.42 467.99,-213.42 464.49,-223.42 471.49,-223.42"/>
</a>
</g>
</g>
<!-- Node3 -->
<g id="Node000003" class="node">
<title>Node3</title>
<g id="a_Node000003"><a xlink:title=" ">
<polygon fill="#e0e0e0" stroke="#999999" points="112.86,-150 27.11,-150 27.11,-130 112.86,-130 112.86,-150"/>
<text text-anchor="middle" x="69.99" y="-136.5" font-family="Helvetica,sans-Serif" font-size="10.00">boost/regex.hpp</text>
</a>
</g>
</g>
<!-- Node1&#45;&gt;Node3 -->
<g id="edge28_Node000001_Node000003" class="edge">
<title>Node1&#45;&gt;Node3</title>
<g id="a_edge28_Node000001_Node000003"><a xlink:title=" ">
<path fill="none" stroke="#63b8ff" d="M401.37,-247.58C317.98,-220.76 177.83,-175.68 109.64,-153.75"/>
<polygon fill="#63b8ff" stroke="#63b8ff" points="110.93,-150.17 100.33,-150.44 108.78,-156.83 110.93,-150.17"/>
</a>
</g>
</g>
<!-- Node8 -->
<g id="Node000008" class="node">
<title>Node8</title>
<g id="a_Node000008"><a xlink:title=" ">
<polygon fill="#e0e0e0" stroke="#999999" points="1290.74,-82 1249.24,-82 1249.24,-62 1290.74,-62 1290.74,-82"/>
<text text-anchor="middle" x="1269.99" y="-68.5" font-family="Helvetica,sans-Serif" font-size="10.00">vector</text>
</a>
</g>
</g>
<!-- Node1&#45;&gt;Node8 -->
<g id="edge29_Node000001_Node000008" class="edge">
<title>Node1&#45;&gt;Node8</title>
<g id="a_edge29_Node000001_Node000008"><a xlink:title=" ">
<path fill="none" stroke="#63b8ff" d="M551.51,-249.57C647.99,-227.1 811.49,-188.99 951.99,-156 1080.02,-125.94 1116.34,-132.82 1239.99,-88 1240.92,-87.66 1241.86,-87.3 1242.81,-86.92"/>
<polygon fill="#63b8ff" stroke="#63b8ff" points="1244.15,-89.71 1251.84,-82.43 1241.28,-83.33 1244.15,-89.71"/>
</a>
</g>
</g>
<!-- Node10 -->
<g id="Node000010" class="node">
<title>Node10</title>
<g id="a_Node000010"><a xlink:href="FMTutility_8hpp.html" target="_top" xlink:title=" ">
<polygon fill="white" stroke="#666666" points="487.74,-20 410.24,-20 410.24,0 487.74,0 487.74,-20"/>
<text text-anchor="middle" x="448.99" y="-6.5" font-family="Helvetica,sans-Serif" font-size="10.00">FMTutility.hpp</text>
</a>
</g>
</g>
<!-- Node1&#45;&gt;Node10 -->
<g id="edge27_Node000001_Node000010" class="edge">
<title>Node1&#45;&gt;Node10</title>
<g id="a_edge27_Node000001_Node000010"><a xlink:title=" ">
<path fill="none" stroke="#63b8ff" d="M384.25,-260.22C266.72,-245.97 62.22,-213.44 17.99,-156 -82.4,-25.66 266.25,-11.44 399.4,-10.66"/>
<polygon fill="#63b8ff" stroke="#63b8ff" points="399.11,-14.15 409.1,-10.62 399.09,-7.15 399.11,-14.15"/>
</a>
</g>
</g>
<!-- Node23 -->
<g id="Node000023" class="node">
<title>Node23</title>
<g id="a_Node000023"><a xlink:title=" ">
<polygon fill="#e0e0e0" stroke="#999999" points="1033.36,-212 998.61,-212 998.61,-192 1033.36,-192 1033.36,-212"/>
<text text-anchor="middle" x="1015.99" y="-198.5" font-family="Helvetica,sans-Serif" font-size="10.00">map</text>
</a>
</g>
</g>
<!-- Node1&#45;&gt;Node23 -->
<g id="edge30_Node000001_Node000023" class="edge">
<title>Node1&#45;&gt;Node23</title>
<g id="a_edge30_Node000001_Node000023"><a xlink:title=" ">
<path fill="none" stroke="#63b8ff" d="M551.49,-264.25C654.26,-257.38 833.76,-242.06 984.99,-212 985.95,-211.81 986.92,-211.6 987.91,-211.38"/>
<polygon fill="#63b8ff" stroke="#63b8ff" points="988.6,-214.56 997.41,-208.67 986.85,-207.78 988.6,-214.56"/>
</a>
</g>
</g>
<!-- Node2&#45;&gt;Node3 -->
<g id="edge2_Node000002_Node000003" class="edge">
<title>Node2&#45;&gt;Node3</title>
<g id="a_edge2_Node000002_Node000003"><a xlink:title=" ">
<path fill="none" stroke="#63b8ff" d="M426.9,-197.69C361.76,-191.98 230.96,-178.67 121.99,-156 118.13,-155.2 114.13,-154.25 110.16,-153.24"/>
<polygon fill="#63b8ff" stroke="#63b8ff" points="111.33,-149.66 100.77,-150.43 109.5,-156.42 111.33,-149.66"/>
</a>
</g>
</g>
<!-- Node4 -->
<g id="Node000004" class="node">
<title>Node4</title>
<g id="a_Node000004"><a xlink:title=" ">
<polygon fill="#e0e0e0" stroke="#999999" points="420.99,-150 374.99,-150 374.99,-130 420.99,-130 420.99,-150"/>
<text text-anchor="middle" x="397.99" y="-136.5" font-family="Helvetica,sans-Serif" font-size="10.00">iterator</text>
</a>
</g>
</g>
<!-- Node2&#45;&gt;Node4 -->
<g id="edge3_Node000002_Node000004" class="edge">
<title>Node2&#45;&gt;Node4</title>
<g id="a_edge3_Node000002_Node000004"><a xlink:title=" ">
<path fill="none" stroke="#63b8ff" d="M457.05,-191.62C446.3,-182.41 429.69,-168.17 416.81,-157.14"/>
<polygon fill="#63b8ff" stroke="#63b8ff" points="419.49,-153.96 409.62,-150.11 414.93,-159.28 419.49,-153.96"/>
</a>
</g>
</g>
<!-- Node5 -->
<g id="Node000005" class="node">
<title>Node5</title>
<g id="a_Node000005"><a xlink:title=" ">
<polygon fill="#e0e0e0" stroke="#999999" points="623.74,-20 570.24,-20 570.24,0 623.74,0 623.74,-20"/>
<text text-anchor="middle" x="596.99" y="-6.5" font-family="Helvetica,sans-Serif" font-size="10.00">iostream</text>
</a>
</g>
</g>
<!-- Node2&#45;&gt;Node5 -->
<g id="edge4_Node000002_Node000005" class="edge">
<title>Node2&#45;&gt;Node5</title>
<g id="a_edge4_Node000002_Node000005"><a xlink:title=" ">
<path fill="none" stroke="#63b8ff" d="M469.79,-191.53C475.42,-162.83 493.3,-77.49 510.99,-56 523.7,-40.55 543.11,-29.76 560.28,-22.62"/>
<polygon fill="#63b8ff" stroke="#63b8ff" points="561,-25.71 569.06,-18.83 558.47,-19.18 561,-25.71"/>
</a>
</g>
</g>
<!-- Node6 -->
<g id="Node000006" class="node">
<title>Node6</title>
<g id="a_Node000006"><a xlink:title=" ">
<polygon fill="#e0e0e0" stroke="#999999" points="883.11,-150 834.86,-150 834.86,-130 883.11,-130 883.11,-150"/>
<text text-anchor="middle" x="858.99" y="-136.5" font-family="Helvetica,sans-Serif" font-size="10.00">fstream</text>
</a>
</g>
</g>
<!-- Node2&#45;&gt;Node6 -->
<g id="edge5_Node000002_Node000006" class="edge">
<title>Node2&#45;&gt;Node6</title>
<g id="a_edge5_Node000002_Node000006"><a xlink:title=" ">
<path fill="none" stroke="#63b8ff" d="M509.11,-199.08C575.6,-195.24 710.43,-184.39 820.99,-156 823.19,-155.43 825.43,-154.78 827.68,-154.06"/>
<polygon fill="#63b8ff" stroke="#63b8ff" points="828.76,-157.03 836.99,-150.36 826.4,-150.44 828.76,-157.03"/>
</a>
</g>
</g>
<!-- Node7 -->
<g id="Node000007" class="node">
<title>Node7</title>
<g id="a_Node000007"><a xlink:title=" ">
<polygon fill="#e0e0e0" stroke="#999999" points="808.99,-20 768.99,-20 768.99,0 808.99,0 808.99,-20"/>
<text text-anchor="middle" x="788.99" y="-6.5" font-family="Helvetica,sans-Serif" font-size="10.00">string</text>
</a>
</g>
</g>
<!-- Node2&#45;&gt;Node7 -->
<g id="edge6_Node000002_Node000007" class="edge">
<title>Node2&#45;&gt;Node7</title>
<g id="a_edge6_Node000002_Node000007"><a xlink:title=" ">
<path fill="none" stroke="#63b8ff" d="M473.53,-191.78C478.91,-182.75 487.23,-168.55 493.99,-156 517.54,-112.25 504.26,-85.85 543.99,-56 577.37,-30.91 699.82,-18.07 757.95,-13.27"/>
<polygon fill="#63b8ff" stroke="#63b8ff" points="757.98,-16.7 767.68,-12.42 757.43,-9.72 757.98,-16.7"/>
</a>
</g>
</g>
<!-- Node2&#45;&gt;Node8 -->
<g id="edge7_Node000002_Node000008" class="edge">
<title>Node2&#45;&gt;Node8</title>
<g id="a_edge7_Node000002_Node000008"><a xlink:title=" ">
<path fill="none" stroke="#63b8ff" d="M509.06,-198.06C583.8,-192.25 738.87,-177.92 787.99,-156 808.15,-147 805.59,-132.46 825.99,-124 996.58,-53.22 1062.24,-138.19 1239.99,-88 1241.31,-87.63 1242.65,-87.19 1243.98,-86.72"/>
<polygon fill="#63b8ff" stroke="#63b8ff" points="1245.14,-89.59 1252.93,-82.41 1242.36,-83.17 1245.14,-89.59"/>
</a>
</g>
</g>
<!-- Node9 -->
<g id="Node000009" class="node">
<title>Node9</title>
<g id="a_Node000009"><a xlink:title=" ">
<polygon fill="#e0e0e0" stroke="#999999" points="943.11,-150 900.86,-150 900.86,-130 943.11,-130 943.11,-150"/>
<text text-anchor="middle" x="921.99" y="-136.5" font-family="Helvetica,sans-Serif" font-size="10.00">queue</text>
</a>
</g>
</g>
<!-- Node2&#45;&gt;Node9 -->
<g id="edge8_Node000002_Node000009" class="edge">
<title>Node2&#45;&gt;Node9</title>
<g id="a_edge8_Node000002_Node000009"><a xlink:title=" ">
<path fill="none" stroke="#63b8ff" d="M508.96,-201.45C585.73,-201.26 755.76,-195.87 891.99,-156 893.31,-155.61 894.64,-155.17 895.97,-154.69"/>
<polygon fill="#63b8ff" stroke="#63b8ff" points="897.14,-157.56 904.91,-150.35 894.35,-151.14 897.14,-157.56"/>
</a>
</g>
</g>
<!-- Node2&#45;&gt;Node10 -->
<g id="edge9_Node000002_Node000010" class="edge">
<title>Node2&#45;&gt;Node10</title>
<g id="a_edge9_Node000002_Node000010"><a xlink:title=" ">
<path fill="none" stroke="#63b8ff" d="M467.04,-191.58C464.11,-162.2 455.07,-71.81 451,-31.16"/>
<polygon fill="#63b8ff" stroke="#63b8ff" points="454.41,-31.08 449.93,-21.48 447.45,-31.78 454.41,-31.08"/>
</a>
</g>
</g>
<!-- Node11 -->
<g id="Node000011" class="node">
<title>Node11</title>
<g id="a_Node000011"><a xlink:title=" ">
<polygon fill="#e0e0e0" stroke="#999999" points="168.86,-150 131.11,-150 131.11,-130 168.86,-130 168.86,-150"/>
<text text-anchor="middle" x="149.99" y="-136.5" font-family="Helvetica,sans-Serif" font-size="10.00">array</text>
</a>
</g>
</g>
<!-- Node2&#45;&gt;Node11 -->
<g id="edge10_Node000002_Node000011" class="edge">
<title>Node2&#45;&gt;Node11</title>
<g id="a_edge10_Node000002_Node000011"><a xlink:title=" ">
<path fill="none" stroke="#63b8ff" d="M427.1,-199C370,-195.23 263.75,-184.69 177.99,-156 177.05,-155.69 176.1,-155.34 175.16,-154.98"/>
<polygon fill="#63b8ff" stroke="#63b8ff" points="176.81,-151.42 166.27,-150.38 173.86,-157.77 176.81,-151.42"/>
</a>
</g>
</g>
<!-- Node12 -->
<g id="Node000012" class="node">
<title>Node12</title>
<g id="a_Node000012"><a xlink:title=" ">
<polygon fill="#e0e0e0" stroke="#999999" points="226.99,-150 186.99,-150 186.99,-130 226.99,-130 226.99,-150"/>
<text text-anchor="middle" x="206.99" y="-136.5" font-family="Helvetica,sans-Serif" font-size="10.00">ctime</text>
</a>
</g>
</g>
<!-- Node2&#45;&gt;Node12 -->
<g id="edge11_Node000002_Node000012" class="edge">
<title>Node2&#45;&gt;Node12</title>
<g id="a_edge11_Node000002_Node000012"><a xlink:title=" ">
<path fill="none" stroke="#63b8ff" d="M427.25,-196.67C380.19,-190.86 300.9,-178.56 235.99,-156 235.05,-155.67 234.11,-155.32 233.16,-154.95"/>
<polygon fill="#63b8ff" stroke="#63b8ff" points="234.74,-151.37 224.19,-150.41 231.84,-157.74 234.74,-151.37"/>
</a>
</g>
</g>
<!-- Node13 -->
<g id="Node000013" class="node">
<title>Node13</title>
<g id="a_Node000013"><a xlink:title=" ">
<polygon fill="#e0e0e0" stroke="#999999" points="356.61,-156 245.36,-156 245.36,-124 356.61,-124 356.61,-156"/>
<text text-anchor="start" x="253.36" y="-142.5" font-family="Helvetica,sans-Serif" font-size="10.00">boost/thread/recursive</text>
<text text-anchor="middle" x="300.99" y="-130.5" font-family="Helvetica,sans-Serif" font-size="10.00">_mutex.hpp</text>
</a>
</g>
</g>
<!-- Node2&#45;&gt;Node13 -->
<g id="edge12_Node000002_Node000013" class="edge">
<title>Node2&#45;&gt;Node13</title>
<g id="a_edge12_Node000002_Node000013"><a xlink:title=" ">
<path fill="none" stroke="#63b8ff" d="M441.89,-191.62C418.51,-183.22 383.47,-170.64 354.19,-160.12"/>
<polygon fill="#63b8ff" stroke="#63b8ff" points="355.7,-156.58 345.1,-156.49 353.33,-163.17 355.7,-156.58"/>
</a>
</g>
</g>
<!-- Node14 -->
<g id="Node000014" class="node">
<title>Node14</title>
<g id="a_Node000014"><a xlink:href="FMTobject_8hpp.html" target="_top" xlink:title=" ">
<polygon fill="white" stroke="#666666" points="779.24,-150 698.74,-150 698.74,-130 779.24,-130 779.24,-150"/>
<text text-anchor="middle" x="738.99" y="-136.5" font-family="Helvetica,sans-Serif" font-size="10.00">FMTobject.hpp</text>
</a>
</g>
</g>
<!-- Node2&#45;&gt;Node14 -->
<g id="edge13_Node000002_Node000014" class="edge">
<title>Node2&#45;&gt;Node14</title>
<g id="a_edge13_Node000002_Node000014"><a xlink:title=" ">
<path fill="none" stroke="#63b8ff" d="M508.85,-191.95C556.75,-181.35 636.17,-163.76 688.05,-152.28"/>
<polygon fill="#63b8ff" stroke="#63b8ff" points="688.67,-155.5 697.68,-149.93 687.16,-148.67 688.67,-155.5"/>
</a>
</g>
</g>
<!-- Node14&#45;&gt;Node8 -->
<g id="edge25_Node000014_Node000008" class="edge">
<title>Node14&#45;&gt;Node8</title>
<g id="a_edge25_Node000014_Node000008"><a xlink:title=" ">
<path fill="none" stroke="#63b8ff" d="M769.03,-129.56C776.77,-127.43 785.13,-125.39 792.99,-124 989.23,-89.17 1048,-141.55 1239.99,-88 1241.31,-87.63 1242.65,-87.2 1243.98,-86.73"/>
<polygon fill="#63b8ff" stroke="#63b8ff" points="1245.14,-89.61 1252.94,-82.44 1242.37,-83.18 1245.14,-89.61"/>
</a>
</g>
</g>
<!-- Node15 -->
<g id="Node000015" class="node">
<title>Node15</title>
<g id="a_Node000015"><a xlink:title=" ">
<polygon fill="#e0e0e0" stroke="#999999" points="1118.36,-88 1023.61,-88 1023.61,-56 1118.36,-56 1118.36,-88"/>
<text text-anchor="start" x="1031.61" y="-74.5" font-family="Helvetica,sans-Serif" font-size="10.00">boost/serialization</text>
<text text-anchor="middle" x="1070.99" y="-62.5" font-family="Helvetica,sans-Serif" font-size="10.00">/shared_ptr.hpp</text>
</a>
</g>
</g>
<!-- Node14&#45;&gt;Node15 -->
<g id="edge14_Node000014_Node000015" class="edge">
<title>Node14&#45;&gt;Node15</title>
<g id="a_edge14_Node000014_Node000015"><a xlink:title=" ">
<path fill="none" stroke="#63b8ff" d="M770.83,-129.55C778.07,-127.57 785.77,-125.6 792.99,-124 888.44,-102.89 914.23,-107.69 1009.99,-88 1010.79,-87.84 1011.59,-87.67 1012.41,-87.5"/>
<polygon fill="#63b8ff" stroke="#63b8ff" points="1013.1,-90.71 1022.12,-85.14 1011.6,-83.87 1013.1,-90.71"/>
</a>
</g>
</g>
<!-- Node16 -->
<g id="Node000016" class="node">
<title>Node16</title>
<g id="a_Node000016"><a xlink:title=" ">
<polygon fill="#e0e0e0" stroke="#999999" points="1231.36,-88 1136.61,-88 1136.61,-56 1231.36,-56 1231.36,-88"/>
<text text-anchor="start" x="1144.61" y="-74.5" font-family="Helvetica,sans-Serif" font-size="10.00">boost/serialization</text>
<text text-anchor="middle" x="1183.99" y="-62.5" font-family="Helvetica,sans-Serif" font-size="10.00">/nvp.hpp</text>
</a>
</g>
</g>
<!-- Node14&#45;&gt;Node16 -->
<g id="edge15_Node000014_Node000016" class="edge">
<title>Node14&#45;&gt;Node16</title>
<g id="a_edge15_Node000014_Node000016"><a xlink:title=" ">
<path fill="none" stroke="#63b8ff" d="M769.62,-129.55C777.2,-127.48 785.34,-125.46 792.99,-124 936.19,-96.58 978.2,-114.2 1125.43,-88.09"/>
<polygon fill="#63b8ff" stroke="#63b8ff" points="1126,-91.36 1135.21,-86.13 1124.75,-84.47 1126,-91.36"/>
</a>
</g>
</g>
<!-- Node17 -->
<g id="Node000017" class="node">
<title>Node17</title>
<g id="a_Node000017"><a xlink:title=" ">
<polygon fill="#e0e0e0" stroke="#999999" points="647.36,-88 552.61,-88 552.61,-56 647.36,-56 647.36,-88"/>
<text text-anchor="start" x="560.61" y="-74.5" font-family="Helvetica,sans-Serif" font-size="10.00">boost/serialization</text>
<text text-anchor="middle" x="599.99" y="-62.5" font-family="Helvetica,sans-Serif" font-size="10.00">/export.hpp</text>
</a>
</g>
</g>
<!-- Node14&#45;&gt;Node17 -->
<g id="edge16_Node000014_Node000017" class="edge">
<title>Node14&#45;&gt;Node17</title>
<g id="a_edge16_Node000014_Node000017"><a xlink:title=" ">
<path fill="none" stroke="#63b8ff" d="M719.07,-129.54C699.12,-120.07 667.81,-105.2 642.29,-93.09"/>
<polygon fill="#63b8ff" stroke="#63b8ff" points="644.01,-89.56 633.48,-88.43 641.01,-95.88 644.01,-89.56"/>
</a>
</g>
</g>
<!-- Node18 -->
<g id="Node000018" class="node">
<title>Node18</title>
<g id="a_Node000018"><a xlink:href="FMTexception_8hpp.html" target="_top" xlink:title=" ">
<polygon fill="white" stroke="#666666" points="968.11,-82 871.86,-82 871.86,-62 968.11,-62 968.11,-82"/>
<text text-anchor="middle" x="919.99" y="-68.5" font-family="Helvetica,sans-Serif" font-size="10.00">FMTexception.hpp</text>
</a>
</g>
</g>
<!-- Node14&#45;&gt;Node18 -->
<g id="edge17_Node000014_Node000018" class="edge">
<title>Node14&#45;&gt;Node18</title>
<g id="a_edge17_Node000014_Node000018"><a xlink:title=" ">
<path fill="none" stroke="#63b8ff" d="M764.92,-129.54C796.1,-118.17 848.62,-99.02 883.79,-86.2"/>
<polygon fill="#63b8ff" stroke="#63b8ff" points="884.91,-89.15 893.1,-82.44 882.51,-82.58 884.91,-89.15"/>
</a>
</g>
</g>
<!-- Node20 -->
<g id="Node000020" class="node">
<title>Node20</title>
<g id="a_Node000020"><a xlink:title=" ">
<polygon fill="#e0e0e0" stroke="#999999" points="1019.61,-20 968.36,-20 968.36,0 1019.61,0 1019.61,-20"/>
<text text-anchor="middle" x="993.99" y="-6.5" font-family="Helvetica,sans-Serif" font-size="10.00">memory</text>
</a>
</g>
</g>
<!-- Node14&#45;&gt;Node20 -->
<g id="edge23_Node000014_Node000020" class="edge">
<title>Node14&#45;&gt;Node20</title>
<g id="a_edge23_Node000014_Node000020"><a xlink:title=" ">
<path fill="none" stroke="#63b8ff" d="M771.43,-129.55C778.51,-127.61 785.98,-125.66 792.99,-124 874.08,-104.83 917.36,-146.21 976.99,-88 991.96,-73.39 995.11,-48.78 995.22,-31.32"/>
<polygon fill="#63b8ff" stroke="#63b8ff" points="998.69,-31.24 994.91,-21.35 991.7,-31.44 998.69,-31.24"/>
</a>
</g>
</g>
<!-- Node21 -->
<g id="Node000021" class="node">
<title>Node21</title>
<g id="a_Node000021"><a xlink:title=" ">
<polygon fill="#e0e0e0" stroke="#999999" points="710.61,-82 665.36,-82 665.36,-62 710.61,-62 710.61,-82"/>
<text text-anchor="middle" x="687.99" y="-68.5" font-family="Helvetica,sans-Serif" font-size="10.00">chrono</text>
</a>
</g>
</g>
<!-- Node14&#45;&gt;Node21 -->
<g id="edge24_Node000014_Node000021" class="edge">
<title>Node14&#45;&gt;Node21</title>
<g id="a_edge24_Node000014_Node000021"><a xlink:title=" ">
<path fill="none" stroke="#63b8ff" d="M731.68,-129.54C723.95,-119.55 711.58,-103.53 701.97,-91.09"/>
<polygon fill="#63b8ff" stroke="#63b8ff" points="704.16,-89.21 695.28,-83.44 698.63,-93.49 704.16,-89.21"/>
</a>
</g>
</g>
<!-- Node22 -->
<g id="Node000022" class="node">
<title>Node22</title>
<g id="a_Node000022"><a xlink:title=" ">
<polygon fill="#e0e0e0" stroke="#999999" points="853.36,-88 728.61,-88 728.61,-56 853.36,-56 853.36,-88"/>
<text text-anchor="start" x="736.61" y="-74.5" font-family="Helvetica,sans-Serif" font-size="10.00">boost/dll/runtime_symbol</text>
<text text-anchor="middle" x="790.99" y="-62.5" font-family="Helvetica,sans-Serif" font-size="10.00">_info.hpp</text>
</a>
</g>
</g>
<!-- Node14&#45;&gt;Node22 -->
<g id="edge26_Node000014_Node000022" class="edge">
<title>Node14&#45;&gt;Node22</title>
<g id="a_edge26_Node000014_Node000022"><a xlink:title=" ">
<path fill="none" stroke="#63b8ff" d="M746.44,-129.54C753.13,-121.05 763.24,-108.21 772.14,-96.92"/>
<polygon fill="#63b8ff" stroke="#63b8ff" points="775.49,-99.32 778.93,-89.3 769.99,-94.99 775.49,-99.32"/>
</a>
</g>
</g>
<!-- Node18&#45;&gt;Node5 -->
<g id="edge20_Node000018_Node000005" class="edge">
<title>Node18&#45;&gt;Node5</title>
<g id="a_edge20_Node000018_Node000005"><a xlink:title=" ">
<path fill="none" stroke="#63b8ff" d="M885.44,-61.55C877.75,-59.59 869.62,-57.63 861.99,-56 781.63,-38.82 686.45,-23.98 634.85,-16.4"/>
<polygon fill="#63b8ff" stroke="#63b8ff" points="635.62,-12.82 625.22,-14.84 634.61,-19.75 635.62,-12.82"/>
</a>
</g>
</g>
<!-- Node18&#45;&gt;Node7 -->
<g id="edge19_Node000018_Node000007" class="edge">
<title>Node18&#45;&gt;Node7</title>
<g id="a_edge19_Node000018_Node000007"><a xlink:title=" ">
<path fill="none" stroke="#63b8ff" d="M899.52,-61.62C877.98,-51.76 843.86,-36.13 819.23,-24.85"/>
<polygon fill="#63b8ff" stroke="#63b8ff" points="820.86,-21.29 810.31,-20.31 817.95,-27.66 820.86,-21.29"/>
</a>
</g>
</g>
<!-- Node18&#45;&gt;Node10 -->
<g id="edge22_Node000018_Node000010" class="edge">
<title>Node18&#45;&gt;Node10</title>
<g id="a_edge22_Node000018_Node000010"><a xlink:title=" ">
<path fill="none" stroke="#63b8ff" d="M886.74,-61.52C878.69,-59.47 870.07,-57.48 861.99,-56 793.47,-43.47 593.24,-24.23 499.06,-15.54"/>
<polygon fill="#63b8ff" stroke="#63b8ff" points="499.39,-11.96 489.11,-14.53 498.75,-18.94 499.39,-11.96"/>
</a>
</g>
</g>
<!-- Node19 -->
<g id="Node000019" class="node">
<title>Node19</title>
<g id="a_Node000019"><a xlink:title=" ">
<polygon fill="#e0e0e0" stroke="#999999" points="948.99,-20 890.99,-20 890.99,0 948.99,0 948.99,-20"/>
<text text-anchor="middle" x="919.99" y="-6.5" font-family="Helvetica,sans-Serif" font-size="10.00">exception</text>
</a>
</g>
</g>
<!-- Node18&#45;&gt;Node19 -->
<g id="edge18_Node000018_Node000019" class="edge">
<title>Node18&#45;&gt;Node19</title>
<g id="a_edge18_Node000018_Node000019"><a xlink:title=" ">
<path fill="none" stroke="#63b8ff" d="M919.99,-61.62C919.99,-53.48 919.99,-41.39 919.99,-31.07"/>
<polygon fill="#63b8ff" stroke="#63b8ff" points="923.49,-31.11 919.99,-21.11 916.49,-31.11 923.49,-31.11"/>
</a>
</g>
</g>
<!-- Node18&#45;&gt;Node20 -->
<g id="edge21_Node000018_Node000020" class="edge">
<title>Node18&#45;&gt;Node20</title>
<g id="a_edge21_Node000018_Node000020"><a xlink:title=" ">
<path fill="none" stroke="#63b8ff" d="M931.55,-61.62C943.02,-52.32 960.81,-37.9 974.47,-26.82"/>
<polygon fill="#63b8ff" stroke="#63b8ff" points="976.18,-29.13 981.75,-20.11 971.78,-23.69 976.18,-29.13"/>
</a>
</g>
</g>
</g>
</svg>

<g id="navigator" transform="translate(0 0)" fill="#404254">
  <rect fill="#f2f5e9" fill-opacity="0.5" stroke="#606060" stroke-width=".5" x="0" y="0" width="60" height="60"/>
  <use id="zoomplus" xlink:href="#zoomPlus" x="17" y="9" onmousedown="handleZoom(evt,'in')"/>
  <use id="zoomminus" xlink:href="#zoomMin" x="42" y="9" onmousedown="handleZoom(evt,'out')"/>
  <use id="reset" xlink:href="#resetDef" x="30" y="36" onmousedown="handleReset()"/>
   <use id="arrowup" xlink:href="#arrowUp" x="0" y="0" onmousedown="handlePan(0,-1)"/>
  <use id="arrowright" xlink:href="#arrowRight" x="0" y="0" onmousedown="handlePan(1,0)"/>
  <use id="arrowdown" xlink:href="#arrowDown" x="0" y="0" onmousedown="handlePan(0,1)"/>
  <use id="arrowleft" xlink:href="#arrowLeft" x="0" y="0" onmousedown="handlePan(-1,0)"/>
</g>
<svg viewBox="0 0 15 15" width="100%" height="30px" preserveAspectRatio="xMaxYMin meet">
 <g id="arrow_out" transform="scale(0.3 0.3)">
  <a xlink:href="FMTactionparser_8hpp__incl_org.svg" target="_base">
   <rect id="button" ry="5" rx="5" y="6" x="6" height="38" width="38"
        fill="#f2f5e9" fill-opacity="0.5" stroke="#606060" stroke-width="1.0"/>
   <path id="arrow"
     d="M 11.500037,31.436501 C 11.940474,20.09759 22.043105,11.32322 32.158766,21.979434 L 37.068811,17.246167 C 37.068811,17.246167 37.088388,32 37.088388,32 L 22.160133,31.978069 C 22.160133,31.978069 26.997745,27.140456 26.997745,27.140456 C 18.528582,18.264221 13.291696,25.230495 11.500037,31.436501 z"
     style="fill:#404040;"/>
  </a>
 </g>
</svg>

<style type='text/css'>
<![CDATA[
[data-mouse-over-selected='false'] { opacity: 0.7; }
[data-mouse-over-selected='true']  { opacity: 1.0; }
]]>
</style>
<script type="application/ecmascript"><![CDATA[
document.addEventListener('DOMContentLoaded', (event) => {
  highlightEdges();
  highlightAdjacentNodes();
});
]]></script>
</svg>
