<?xml version="1.0" encoding="UTF-8" standalone="no"?>
<!DOCTYPE svg PUBLIC "-//W3C//DTD SVG 1.1//EN"
 "http://www.w3.org/Graphics/SVG/1.1/DTD/svg11.dtd">
<!-- Generated by graphviz version 8.1.0 (20230707.0739)
 -->
<!-- Title: C:/Temp/out/FMT/Include/FMTactualdevelopment.hpp Pages: 1 -->
<!--zoomable 344 -->

<svg id="main" version="1.1" xmlns="http://www.w3.org/2000/svg" xmlns:xlink="http://www.w3.org/1999/xlink" xml:space="preserve" onload="init(evt)">
<style type="text/css"><![CDATA[
.node, .edge {opacity: 0.7;}
.node.selected, .edge.selected {opacity: 1;}
.edge:hover path { stroke: red; }
.edge:hover polygon { stroke: red; fill: red; }
]]></style>

<defs>
  <circle id="rim" cx="0" cy="0" r="7"/>
  <circle id="rim2" cx="0" cy="0" r="3.5"/>
  <g id="zoomPlus">
    <use xlink:href="#rim" fill="#404040"><set attributeName="fill" to="#808080" begin="zoomplus.mouseover" end="zoomplus.mouseout"/></use>
    <path d="M-4,0h8M0,-4v8" fill="none" stroke="white" stroke-width="1.5" pointer-events="none"/>
  </g>
  <g id="zoomMin">
    <use xlink:href="#rim" fill="#404040"><set attributeName="fill" to="#808080" begin="zoomminus.mouseover" end="zoomminus.mouseout"/></use>
    <path d="M-4,0h8" fill="none" stroke="white" stroke-width="1.5" pointer-events="none"/>
  </g>
  <g id="arrowUp" transform="translate(30 24)">
    <use xlink:href="#rim"/>
    <path pointer-events="none" fill="none" stroke="white" stroke-width="1.5" d="M0,-3.0v7 M-2.5,-0.5L0,-3.0L2.5,-0.5"/>
  </g>
  <g id="arrowRight" transform="rotate(90) translate(36 -43)">
    <use xlink:href="#rim"/>
    <path pointer-events="none" fill="none" stroke="white" stroke-width="1.5" d="M0,-3.0v7 M-2.5,-0.5L0,-3.0L2.5,-0.5"/>
  </g>
  <g id="arrowDown" transform="rotate(180) translate(-30 -48)">
    <use xlink:href="#rim"/>
    <path pointer-events="none" fill="none" stroke="white" stroke-width="1.5" d="M0,-3.0v7 M-2.5,-0.5L0,-3.0L2.5,-0.5"/>
  </g>
  <g id="arrowLeft" transform="rotate(270) translate(-36 17)">
    <use xlink:href="#rim"/>
    <path pointer-events="none" fill="none" stroke="white" stroke-width="1.5" d="M0,-3.0v7 M-2.5,-0.5L0,-3.0L2.5,-0.5"/>
  </g>
  <g id="resetDef">
    <use xlink:href="#rim2" fill="#404040"><set attributeName="fill" to="#808080" begin="reset.mouseover" end="reset.mouseout"/></use>
  </g>
</defs>
<script type="application/ecmascript">
var viewWidth = 2357;
var viewHeight = 344;
var sectionId = 'dynsection-0';
</script>
<script type="application/ecmascript" xlink:href="svg.min.js"/>
<svg id="graph" class="graph">
<g id="viewport">
<title>C:/Temp/out/FMT/Include/FMTactualdevelopment.hpp</title>
<!-- Node1 -->
<g id="Node000001" class="node">
<title>Node1</title>
<g id="a_Node000001"><a xlink:title=" ">
<polygon fill="#999999" stroke="#666666" points="1630.26,-336 1492.76,-336 1492.76,-304 1630.26,-304 1630.26,-336"/>
<text text-anchor="start" x="1500.76" y="-322.5" font-family="Helvetica,sans-Serif" font-size="10.00">C:/Temp/out/FMT/Include</text>
<text text-anchor="middle" x="1561.51" y="-310.5" font-family="Helvetica,sans-Serif" font-size="10.00">/FMTactualdevelopment.hpp</text>
</a>
</g>
</g>
<!-- Node2 -->
<g id="Node000002" class="node">
<title>Node2</title>
<g id="a_Node000002"><a xlink:href="FMTdevelopment_8hpp.html" target="_top" xlink:title=" ">
<polygon fill="white" stroke="#666666" points="1332.63,-268 1224.38,-268 1224.38,-248 1332.63,-248 1332.63,-268"/>
<text text-anchor="middle" x="1278.51" y="-254.5" font-family="Helvetica,sans-Serif" font-size="10.00">FMTdevelopment.hpp</text>
</a>
</g>
</g>
<!-- Node1&#45;&gt;Node2 -->
<g id="edge1_Node000001_Node000002" class="edge">
<title>Node1&#45;&gt;Node2</title>
<g id="a_edge1_Node000001_Node000002"><a xlink:title=" ">
<path fill="none" stroke="#63b8ff" d="M1492.28,-304.32C1443.5,-293.98 1379.05,-280.32 1333.72,-270.71"/>
<polygon fill="#63b8ff" stroke="#63b8ff" points="1334.72,-267.13 1324.21,-268.48 1333.26,-273.97 1334.72,-267.13"/>
</a>
</g>
</g>
<!-- Node9 -->
<g id="Node000009" class="node">
<title>Node9</title>
<g id="a_Node000009"><a xlink:title=" ">
<polygon fill="#e0e0e0" stroke="#999999" points="1817.88,-156 1723.13,-156 1723.13,-124 1817.88,-124 1817.88,-156"/>
<text text-anchor="start" x="1731.13" y="-142.5" font-family="Helvetica,sans-Serif" font-size="10.00">boost/serialization</text>
<text text-anchor="middle" x="1770.51" y="-130.5" font-family="Helvetica,sans-Serif" font-size="10.00">/serialization.hpp</text>
</a>
</g>
</g>
<!-- Node1&#45;&gt;Node9 -->
<g id="edge50_Node000001_Node000009" class="edge">
<title>Node1&#45;&gt;Node9</title>
<g id="a_edge50_Node000001_Node000009"><a xlink:title=" ">
<path fill="none" stroke="#63b8ff" d="M1598.66,-303.66C1637.05,-286.24 1696.71,-254.61 1735.51,-212 1747.5,-198.84 1756.32,-180.81 1762.1,-166.22"/>
<polygon fill="#63b8ff" stroke="#63b8ff" points="1765.58,-167.91 1765.78,-157.32 1759.02,-165.47 1765.58,-167.91"/>
</a>
</g>
</g>
<!-- Node11 -->
<g id="Node000011" class="node">
<title>Node11</title>
<g id="a_Node000011"><a xlink:title=" ">
<polygon fill="#e0e0e0" stroke="#999999" points="617.88,-156 523.13,-156 523.13,-124 617.88,-124 617.88,-156"/>
<text text-anchor="start" x="531.13" y="-142.5" font-family="Helvetica,sans-Serif" font-size="10.00">boost/serialization</text>
<text text-anchor="middle" x="570.51" y="-130.5" font-family="Helvetica,sans-Serif" font-size="10.00">/nvp.hpp</text>
</a>
</g>
</g>
<!-- Node1&#45;&gt;Node11 -->
<g id="edge51_Node000001_Node000011" class="edge">
<title>Node1&#45;&gt;Node11</title>
<g id="a_edge51_Node000001_Node000011"><a xlink:title=" ">
<path fill="none" stroke="#63b8ff" d="M1492.64,-310.14C1368.8,-293.79 1100.54,-256.45 876.51,-212 789.84,-194.8 690.3,-170.94 628.9,-155.73"/>
<polygon fill="#63b8ff" stroke="#63b8ff" points="629.82,-152.1 619.27,-153.09 628.13,-158.89 629.82,-152.1"/>
</a>
</g>
</g>
<!-- Node12 -->
<g id="Node000012" class="node">
<title>Node12</title>
<g id="a_Node000012"><a xlink:title=" ">
<polygon fill="#e0e0e0" stroke="#999999" points="1823.88,-88 1729.13,-88 1729.13,-56 1823.88,-56 1823.88,-88"/>
<text text-anchor="start" x="1737.13" y="-74.5" font-family="Helvetica,sans-Serif" font-size="10.00">boost/serialization</text>
<text text-anchor="middle" x="1776.51" y="-62.5" font-family="Helvetica,sans-Serif" font-size="10.00">/export.hpp</text>
</a>
</g>
</g>
<!-- Node1&#45;&gt;Node12 -->
<g id="edge52_Node000001_Node000012" class="edge">
<title>Node1&#45;&gt;Node12</title>
<g id="a_edge52_Node000001_Node000012"><a xlink:title=" ">
<path fill="none" stroke="#63b8ff" d="M1630.62,-310.57C1773.49,-291.57 2093.44,-240.36 2157.51,-156 2218.74,-75.38 2229.51,-146.8 1853.51,-88 1847.39,-87.04 1841.01,-85.95 1834.66,-84.81"/>
<polygon fill="#63b8ff" stroke="#63b8ff" points="1835.53,-81.22 1825.06,-82.84 1834.25,-88.1 1835.53,-81.22"/>
</a>
</g>
</g>
<!-- Node3 -->
<g id="Node000003" class="node">
<title>Node3</title>
<g id="a_Node000003"><a xlink:href="FMTmask_8hpp.html" target="_top" xlink:title=" ">
<polygon fill="white" stroke="#666666" points="1176.63,-212 1098.38,-212 1098.38,-192 1176.63,-192 1176.63,-212"/>
<text text-anchor="middle" x="1137.51" y="-198.5" font-family="Helvetica,sans-Serif" font-size="10.00">FMTmask.hpp</text>
</a>
</g>
</g>
<!-- Node2&#45;&gt;Node3 -->
<g id="edge2_Node000002_Node000003" class="edge">
<title>Node2&#45;&gt;Node3</title>
<g id="a_edge2_Node000002_Node000003"><a xlink:title=" ">
<path fill="none" stroke="#63b8ff" d="M1253.95,-247.59C1231.34,-238.94 1197.57,-226 1172.21,-216.29"/>
<polygon fill="#63b8ff" stroke="#63b8ff" points="1173.85,-212.79 1163.26,-212.48 1171.35,-219.32 1173.85,-212.79"/>
</a>
</g>
</g>
<!-- Node2&#45;&gt;Node9 -->
<g id="edge21_Node000002_Node000009" class="edge">
<title>Node2&#45;&gt;Node9</title>
<g id="a_edge21_Node000002_Node000009"><a xlink:title=" ">
<path fill="none" stroke="#63b8ff" d="M1333.07,-256.27C1433.99,-254.11 1645.36,-245.6 1709.51,-212 1729.61,-201.47 1745.92,-181.31 1756.61,-165.16"/>
<polygon fill="#63b8ff" stroke="#63b8ff" points="1759.87,-167.54 1762.23,-157.21 1753.95,-163.81 1759.87,-167.54"/>
</a>
</g>
</g>
<!-- Node2&#45;&gt;Node11 -->
<g id="edge22_Node000002_Node000011" class="edge">
<title>Node2&#45;&gt;Node11</title>
<g id="a_edge22_Node000002_Node000011"><a xlink:title=" ">
<path fill="none" stroke="#63b8ff" d="M1224.17,-248.28C1116.29,-230.95 867.47,-190.83 658.51,-156 648.85,-154.39 638.61,-152.66 628.65,-150.97"/>
<polygon fill="#63b8ff" stroke="#63b8ff" points="629.44,-147.39 619,-149.16 628.27,-154.29 629.44,-147.39"/>
</a>
</g>
</g>
<!-- Node2&#45;&gt;Node12 -->
<g id="edge35_Node000002_Node000012" class="edge">
<title>Node2&#45;&gt;Node12</title>
<g id="a_edge35_Node000002_Node000012"><a xlink:title=" ">
<path fill="none" stroke="#63b8ff" d="M1333.08,-251.06C1412.41,-240.71 1562.56,-214.62 1676.51,-156 1696.14,-145.9 1697.54,-138.12 1714.51,-124 1725.92,-114.5 1738.57,-104.08 1749.45,-95.14"/>
<polygon fill="#63b8ff" stroke="#63b8ff" points="1751.23,-97.39 1756.74,-88.34 1746.79,-91.98 1751.23,-97.39"/>
</a>
</g>
</g>
<!-- Node13 -->
<g id="Node000013" class="node">
<title>Node13</title>
<g id="a_Node000013"><a xlink:title=" ">
<polygon fill="#e0e0e0" stroke="#999999" points="1667.88,-156 1573.13,-156 1573.13,-124 1667.88,-124 1667.88,-156"/>
<text text-anchor="start" x="1581.13" y="-142.5" font-family="Helvetica,sans-Serif" font-size="10.00">boost/serialization</text>
<text text-anchor="middle" x="1620.51" y="-130.5" font-family="Helvetica,sans-Serif" font-size="10.00">/string.hpp</text>
</a>
</g>
</g>
<!-- Node2&#45;&gt;Node13 -->
<g id="edge23_Node000002_Node000013" class="edge">
<title>Node2&#45;&gt;Node13</title>
<g id="a_edge23_Node000002_Node000013"><a xlink:title=" ">
<path fill="none" stroke="#63b8ff" d="M1306.5,-247.51C1362.87,-228.39 1491.01,-184.92 1565,-159.83"/>
<polygon fill="#63b8ff" stroke="#63b8ff" points="1565.72,-162.94 1574.07,-156.41 1563.47,-156.31 1565.72,-162.94"/>
</a>
</g>
</g>
<!-- Node18 -->
<g id="Node000018" class="node">
<title>Node18</title>
<g id="a_Node000018"><a xlink:title=" ">
<polygon fill="#e0e0e0" stroke="#999999" points="696.13,-20 644.88,-20 644.88,0 696.13,0 696.13,-20"/>
<text text-anchor="middle" x="670.51" y="-6.5" font-family="Helvetica,sans-Serif" font-size="10.00">memory</text>
</a>
</g>
</g>
<!-- Node2&#45;&gt;Node18 -->
<g id="edge33_Node000002_Node000018" class="edge">
<title>Node2&#45;&gt;Node18</title>
<g id="a_edge33_Node000002_Node000018"><a xlink:title=" ">
<path fill="none" stroke="#63b8ff" d="M1223.99,-256.72C1032.96,-255.41 394.56,-248.37 193.51,-212 114.81,-197.76 69.44,-220.75 22.51,-156 -43.22,-65.32 47.19,-89.05 172.51,-56 340.46,-11.7 550.1,-9.16 633.66,-10.16"/>
<polygon fill="#63b8ff" stroke="#63b8ff" points="633.54,-13.68 643.59,-10.32 633.64,-6.68 633.54,-13.68"/>
</a>
</g>
</g>
<!-- Node20 -->
<g id="Node000020" class="node">
<title>Node20</title>
<g id="a_Node000020"><a xlink:title=" ">
<polygon fill="#e0e0e0" stroke="#999999" points="73.26,-150 31.76,-150 31.76,-130 73.26,-130 73.26,-150"/>
<text text-anchor="middle" x="52.51" y="-136.5" font-family="Helvetica,sans-Serif" font-size="10.00">vector</text>
</a>
</g>
</g>
<!-- Node2&#45;&gt;Node20 -->
<g id="edge34_Node000002_Node000020" class="edge">
<title>Node2&#45;&gt;Node20</title>
<g id="a_edge34_Node000002_Node000020"><a xlink:title=" ">
<path fill="none" stroke="#63b8ff" d="M1224.03,-256.05C1045.24,-252.7 477.49,-240.06 296.51,-212 201.48,-197.27 178.38,-187.47 87.51,-156 86.02,-155.49 84.52,-154.94 83,-154.37"/>
<polygon fill="#63b8ff" stroke="#63b8ff" points="84.63,-150.85 74.04,-150.38 82.03,-157.35 84.63,-150.85"/>
</a>
</g>
</g>
<!-- Node21 -->
<g id="Node000021" class="node">
<title>Node21</title>
<g id="a_Node000021"><a xlink:href="FMTobject_8hpp.html" target="_top" xlink:title=" ">
<polygon fill="white" stroke="#666666" points="385.76,-212 305.26,-212 305.26,-192 385.76,-192 385.76,-212"/>
<text text-anchor="middle" x="345.51" y="-198.5" font-family="Helvetica,sans-Serif" font-size="10.00">FMTobject.hpp</text>
</a>
</g>
</g>
<!-- Node2&#45;&gt;Node21 -->
<g id="edge24_Node000002_Node000021" class="edge">
<title>Node2&#45;&gt;Node21</title>
<g id="a_edge24_Node000002_Node000021"><a xlink:title=" ">
<path fill="none" stroke="#63b8ff" d="M1223.97,-253.84C1057.66,-244.22 558.43,-215.32 396.69,-205.96"/>
<polygon fill="#63b8ff" stroke="#63b8ff" points="397.27,-202.43 387.08,-205.35 396.86,-209.42 397.27,-202.43"/>
</a>
</g>
</g>
<!-- Node25 -->
<g id="Node000025" class="node">
<title>Node25</title>
<g id="a_Node000025"><a xlink:href="FMTexceptionhandler_8hpp.html" target="_top" xlink:title=" ">
<polygon fill="white" stroke="#666666" points="1947.38,-212 1819.63,-212 1819.63,-192 1947.38,-192 1947.38,-212"/>
<text text-anchor="middle" x="1883.51" y="-198.5" font-family="Helvetica,sans-Serif" font-size="10.00">FMTexceptionhandler.hpp</text>
</a>
</g>
</g>
<!-- Node2&#45;&gt;Node25 -->
<g id="edge36_Node000002_Node000025" class="edge">
<title>Node2&#45;&gt;Node25</title>
<g id="a_edge36_Node000002_Node000025"><a xlink:title=" ">
<path fill="none" stroke="#63b8ff" d="M1333,-252.14C1441.55,-242.45 1684.94,-220.72 1808.49,-209.7"/>
<polygon fill="#63b8ff" stroke="#63b8ff" points="1808.69,-213.1 1818.34,-208.73 1808.07,-206.13 1808.69,-213.1"/>
</a>
</g>
</g>
<!-- Node4 -->
<g id="Node000004" class="node">
<title>Node4</title>
<g id="a_Node000004"><a xlink:title=" ">
<polygon fill="#e0e0e0" stroke="#999999" points="839.38,-150 711.63,-150 711.63,-130 839.38,-130 839.38,-150"/>
<text text-anchor="middle" x="775.51" y="-136.5" font-family="Helvetica,sans-Serif" font-size="10.00">boost/dynamic_bitset.hpp</text>
</a>
</g>
</g>
<!-- Node3&#45;&gt;Node4 -->
<g id="edge3_Node000003_Node000004" class="edge">
<title>Node3&#45;&gt;Node4</title>
<g id="a_edge3_Node000003_Node000004"><a xlink:title=" ">
<path fill="none" stroke="#63b8ff" d="M1098.14,-195.48C1042.43,-187.54 937.46,-172.05 848.51,-156 842.7,-154.95 836.64,-153.8 830.61,-152.62"/>
<polygon fill="#63b8ff" stroke="#63b8ff" points="831.33,-148.99 820.84,-150.46 829.96,-155.86 831.33,-148.99"/>
</a>
</g>
</g>
<!-- Node5 -->
<g id="Node000005" class="node">
<title>Node5</title>
<g id="a_Node000005"><a xlink:title=" ">
<polygon fill="#e0e0e0" stroke="#999999" points="985.76,-150 857.26,-150 857.26,-130 985.76,-130 985.76,-150"/>
<text text-anchor="middle" x="921.51" y="-136.5" font-family="Helvetica,sans-Serif" font-size="10.00">boost/unordered_map.hpp</text>
</a>
</g>
</g>
<!-- Node3&#45;&gt;Node5 -->
<g id="edge4_Node000003_Node000005" class="edge">
<title>Node3&#45;&gt;Node5</title>
<g id="a_edge4_Node000003_Node000005"><a xlink:title=" ">
<path fill="none" stroke="#63b8ff" d="M1103.76,-191.62C1066.62,-181.31 1006.77,-164.68 965.86,-153.32"/>
<polygon fill="#63b8ff" stroke="#63b8ff" points="966.95,-149.71 956.38,-150.41 965.08,-156.46 966.95,-149.71"/>
</a>
</g>
</g>
<!-- Node6 -->
<g id="Node000006" class="node">
<title>Node6</title>
<g id="a_Node000006"><a xlink:title=" ">
<polygon fill="#e0e0e0" stroke="#999999" points="1132.76,-150 1004.26,-150 1004.26,-130 1132.76,-130 1132.76,-150"/>
<text text-anchor="middle" x="1068.51" y="-136.5" font-family="Helvetica,sans-Serif" font-size="10.00">boost/algorithm/string.hpp</text>
</a>
</g>
</g>
<!-- Node3&#45;&gt;Node6 -->
<g id="edge5_Node000003_Node000006" class="edge">
<title>Node3&#45;&gt;Node6</title>
<g id="a_edge5_Node000003_Node000006"><a xlink:title=" ">
<path fill="none" stroke="#63b8ff" d="M1126.73,-191.62C1116.13,-182.41 1099.76,-168.17 1087.07,-157.14"/>
<polygon fill="#63b8ff" stroke="#63b8ff" points="1089.83,-154.03 1079.99,-150.11 1085.24,-159.32 1089.83,-154.03"/>
</a>
</g>
</g>
<!-- Node7 -->
<g id="Node000007" class="node">
<title>Node7</title>
<g id="a_Node000007"><a xlink:title=" ">
<polygon fill="#e0e0e0" stroke="#999999" points="1260.38,-156 1150.63,-156 1150.63,-124 1260.38,-124 1260.38,-156"/>
<text text-anchor="start" x="1158.63" y="-142.5" font-family="Helvetica,sans-Serif" font-size="10.00">boost/algorithm/string</text>
<text text-anchor="middle" x="1205.51" y="-130.5" font-family="Helvetica,sans-Serif" font-size="10.00">/join.hpp</text>
</a>
</g>
</g>
<!-- Node3&#45;&gt;Node7 -->
<g id="edge6_Node000003_Node000007" class="edge">
<title>Node3&#45;&gt;Node7</title>
<g id="a_edge6_Node000003_Node000007"><a xlink:title=" ">
<path fill="none" stroke="#63b8ff" d="M1148.13,-191.62C1156.65,-184.11 1168.95,-173.26 1179.98,-163.52"/>
<polygon fill="#63b8ff" stroke="#63b8ff" points="1181.9,-166.61 1187.09,-157.37 1177.27,-161.37 1181.9,-166.61"/>
</a>
</g>
</g>
<!-- Node8 -->
<g id="Node000008" class="node">
<title>Node8</title>
<g id="a_Node000008"><a xlink:title=" ">
<polygon fill="#e0e0e0" stroke="#999999" points="1405.01,-150 1278.01,-150 1278.01,-130 1405.01,-130 1405.01,-150"/>
<text text-anchor="middle" x="1341.51" y="-136.5" font-family="Helvetica,sans-Serif" font-size="10.00">boost/functional/hash.hpp</text>
</a>
</g>
</g>
<!-- Node3&#45;&gt;Node8 -->
<g id="edge7_Node000003_Node000008" class="edge">
<title>Node3&#45;&gt;Node8</title>
<g id="a_edge7_Node000003_Node000008"><a xlink:title=" ">
<path fill="none" stroke="#63b8ff" d="M1169.38,-191.62C1204.31,-181.35 1260.51,-164.82 1299.13,-153.47"/>
<polygon fill="#63b8ff" stroke="#63b8ff" points="1299.92,-156.59 1308.52,-150.41 1297.94,-149.87 1299.92,-156.59"/>
</a>
</g>
</g>
<!-- Node3&#45;&gt;Node9 -->
<g id="edge8_Node000003_Node000009" class="edge">
<title>Node3&#45;&gt;Node9</title>
<g id="a_edge8_Node000003_Node000009"><a xlink:title=" ">
<path fill="none" stroke="#63b8ff" d="M1176.84,-198.73C1265.96,-193.36 1490.07,-178.63 1676.51,-156 1688.06,-154.6 1700.38,-152.83 1712.16,-151.01"/>
<polygon fill="#63b8ff" stroke="#63b8ff" points="1712.46,-154.35 1721.79,-149.33 1711.36,-147.43 1712.46,-154.35"/>
</a>
</g>
</g>
<!-- Node10 -->
<g id="Node000010" class="node">
<title>Node10</title>
<g id="a_Node000010"><a xlink:title=" ">
<polygon fill="#e0e0e0" stroke="#999999" points="1517.88,-156 1423.13,-156 1423.13,-124 1517.88,-124 1517.88,-156"/>
<text text-anchor="start" x="1431.13" y="-142.5" font-family="Helvetica,sans-Serif" font-size="10.00">boost/serialization</text>
<text text-anchor="middle" x="1470.51" y="-130.5" font-family="Helvetica,sans-Serif" font-size="10.00">/split_free.hpp</text>
</a>
</g>
</g>
<!-- Node3&#45;&gt;Node10 -->
<g id="edge9_Node000003_Node000010" class="edge">
<title>Node3&#45;&gt;Node10</title>
<g id="a_edge9_Node000003_Node000010"><a xlink:title=" ">
<path fill="none" stroke="#63b8ff" d="M1176.73,-195.9C1228.57,-188.87 1322.89,-175.14 1412.33,-156.35"/>
<polygon fill="#63b8ff" stroke="#63b8ff" points="1412.88,-159.6 1421.93,-154.09 1411.42,-152.75 1412.88,-159.6"/>
</a>
</g>
</g>
<!-- Node3&#45;&gt;Node11 -->
<g id="edge10_Node000003_Node000011" class="edge">
<title>Node3&#45;&gt;Node11</title>
<g id="a_edge10_Node000003_Node000011"><a xlink:title=" ">
<path fill="none" stroke="#63b8ff" d="M1097.88,-199.53C1012.25,-195.91 803.76,-184.67 631.51,-156 630.7,-155.87 629.89,-155.73 629.07,-155.58"/>
<polygon fill="#63b8ff" stroke="#63b8ff" points="629.8,-151.96 619.32,-153.49 628.46,-158.83 629.8,-151.96"/>
</a>
</g>
</g>
<!-- Node3&#45;&gt;Node12 -->
<g id="edge11_Node000003_Node000012" class="edge">
<title>Node3&#45;&gt;Node12</title>
<g id="a_edge11_Node000003_Node000012"><a xlink:title=" ">
<path fill="none" stroke="#63b8ff" d="M1097.95,-199.87C995.7,-196.54 728.76,-185.11 702.51,-156 692.98,-145.44 692.67,-134.27 702.51,-124 734.19,-90.9 1480.75,-90.37 1526.51,-88 1592.25,-84.59 1667.66,-79.97 1718.32,-76.76"/>
<polygon fill="#63b8ff" stroke="#63b8ff" points="1718.3,-80.2 1728.06,-76.08 1717.86,-73.22 1718.3,-80.2"/>
</a>
</g>
</g>
<!-- Node3&#45;&gt;Node13 -->
<g id="edge12_Node000003_Node000013" class="edge">
<title>Node3&#45;&gt;Node13</title>
<g id="a_edge12_Node000003_Node000013"><a xlink:title=" ">
<path fill="none" stroke="#63b8ff" d="M1177.03,-198.57C1252.03,-193.57 1419.99,-180.48 1559.51,-156 1560.31,-155.86 1561.13,-155.71 1561.94,-155.56"/>
<polygon fill="#63b8ff" stroke="#63b8ff" points="1562.57,-158.8 1571.69,-153.41 1561.19,-151.94 1562.57,-158.8"/>
</a>
</g>
</g>
<!-- Node14 -->
<g id="Node000014" class="node">
<title>Node14</title>
<g id="a_Node000014"><a xlink:href="FMTexception_8hpp.html" target="_top" xlink:title=" ">
<polygon fill="white" stroke="#666666" points="1517.63,-82 1421.38,-82 1421.38,-62 1517.63,-62 1517.63,-82"/>
<text text-anchor="middle" x="1469.51" y="-68.5" font-family="Helvetica,sans-Serif" font-size="10.00">FMTexception.hpp</text>
</a>
</g>
</g>
<!-- Node3&#45;&gt;Node14 -->
<g id="edge13_Node000003_Node000014" class="edge">
<title>Node3&#45;&gt;Node14</title>
<g id="a_edge13_Node000003_Node000014"><a xlink:title=" ">
<path fill="none" stroke="#63b8ff" d="M1098.11,-200.18C990.57,-197.54 698.12,-187.49 669.51,-156 659.95,-145.47 659.78,-134.37 669.51,-124 694.79,-97.05 1228.96,-79.71 1410.07,-74.59"/>
<polygon fill="#63b8ff" stroke="#63b8ff" points="1410.07,-78.06 1419.97,-74.28 1409.88,-71.06 1410.07,-78.06"/>
</a>
</g>
</g>
<!-- Node16 -->
<g id="Node000016" class="node">
<title>Node16</title>
<g id="a_Node000016"><a xlink:title=" ">
<polygon fill="#e0e0e0" stroke="#999999" points="1597.51,-20 1557.51,-20 1557.51,0 1597.51,0 1597.51,-20"/>
<text text-anchor="middle" x="1577.51" y="-6.5" font-family="Helvetica,sans-Serif" font-size="10.00">string</text>
</a>
</g>
</g>
<!-- Node3&#45;&gt;Node16 -->
<g id="edge20_Node000003_Node000016" class="edge">
<title>Node3&#45;&gt;Node16</title>
<g id="a_edge20_Node000003_Node000016"><a xlink:title=" ">
<path fill="none" stroke="#63b8ff" d="M1176.92,-201.57C1264.8,-202.04 1473.25,-198.53 1526.51,-156 1565.15,-125.14 1574.57,-62.97 1576.83,-31"/>
<polygon fill="#63b8ff" stroke="#63b8ff" points="1580.36,-31.52 1577.39,-21.35 1573.37,-31.15 1580.36,-31.52"/>
</a>
</g>
</g>
<!-- Node3&#45;&gt;Node20 -->
<g id="edge19_Node000003_Node000020" class="edge">
<title>Node3&#45;&gt;Node20</title>
<g id="a_edge19_Node000003_Node000020"><a xlink:title=" ">
<path fill="none" stroke="#63b8ff" d="M1097.93,-200.16C934.87,-196.58 314.68,-181.52 120.51,-156 108.43,-154.41 95.32,-151.75 83.86,-149.1"/>
<polygon fill="#63b8ff" stroke="#63b8ff" points="85.02,-145.54 74.48,-146.61 83.38,-152.35 85.02,-145.54"/>
</a>
</g>
</g>
<!-- Node15 -->
<g id="Node000015" class="node">
<title>Node15</title>
<g id="a_Node000015"><a xlink:title=" ">
<polygon fill="#e0e0e0" stroke="#999999" points="1467.51,-20 1409.51,-20 1409.51,0 1467.51,0 1467.51,-20"/>
<text text-anchor="middle" x="1438.51" y="-6.5" font-family="Helvetica,sans-Serif" font-size="10.00">exception</text>
</a>
</g>
</g>
<!-- Node14&#45;&gt;Node15 -->
<g id="edge14_Node000014_Node000015" class="edge">
<title>Node14&#45;&gt;Node15</title>
<g id="a_edge14_Node000014_Node000015"><a xlink:title=" ">
<path fill="none" stroke="#63b8ff" d="M1464.66,-61.62C1460.27,-53.12 1453.66,-40.33 1448.19,-29.74"/>
<polygon fill="#63b8ff" stroke="#63b8ff" points="1450.92,-28.39 1443.22,-21.11 1444.7,-31.6 1450.92,-28.39"/>
</a>
</g>
</g>
<!-- Node14&#45;&gt;Node16 -->
<g id="edge15_Node000014_Node000016" class="edge">
<title>Node14&#45;&gt;Node16</title>
<g id="a_edge15_Node000014_Node000016"><a xlink:title=" ">
<path fill="none" stroke="#63b8ff" d="M1486.38,-61.62C1503.74,-51.98 1531.02,-36.83 1551.21,-25.61"/>
<polygon fill="#63b8ff" stroke="#63b8ff" points="1552.71,-28.23 1559.75,-20.31 1549.31,-22.11 1552.71,-28.23"/>
</a>
</g>
</g>
<!-- Node17 -->
<g id="Node000017" class="node">
<title>Node17</title>
<g id="a_Node000017"><a xlink:title=" ">
<polygon fill="#e0e0e0" stroke="#999999" points="1539.26,-20 1485.76,-20 1485.76,0 1539.26,0 1539.26,-20"/>
<text text-anchor="middle" x="1512.51" y="-6.5" font-family="Helvetica,sans-Serif" font-size="10.00">iostream</text>
</a>
</g>
</g>
<!-- Node14&#45;&gt;Node17 -->
<g id="edge16_Node000014_Node000017" class="edge">
<title>Node14&#45;&gt;Node17</title>
<g id="a_edge16_Node000014_Node000017"><a xlink:title=" ">
<path fill="none" stroke="#63b8ff" d="M1476.23,-61.62C1482.51,-52.86 1492.06,-39.53 1499.79,-28.75"/>
<polygon fill="#63b8ff" stroke="#63b8ff" points="1503,-31.28 1505.98,-21.11 1497.31,-27.2 1503,-31.28"/>
</a>
</g>
</g>
<!-- Node14&#45;&gt;Node18 -->
<g id="edge17_Node000014_Node000018" class="edge">
<title>Node14&#45;&gt;Node18</title>
<g id="a_edge17_Node000014_Node000018"><a xlink:title=" ">
<path fill="none" stroke="#63b8ff" d="M1434.96,-61.5C1426.08,-59.37 1416.49,-57.35 1407.51,-56 1141.18,-15.97 815.61,-11.34 707.41,-10.96"/>
<polygon fill="#63b8ff" stroke="#63b8ff" points="707.47,-7.46 697.46,-10.94 707.46,-14.46 707.47,-7.46"/>
</a>
</g>
</g>
<!-- Node19 -->
<g id="Node000019" class="node">
<title>Node19</title>
<g id="a_Node000019"><a xlink:href="FMTutility_8hpp.html" target="_top" xlink:title=" ">
<polygon fill="white" stroke="#666666" points="1391.26,-20 1313.76,-20 1313.76,0 1391.26,0 1391.26,-20"/>
<text text-anchor="middle" x="1352.51" y="-6.5" font-family="Helvetica,sans-Serif" font-size="10.00">FMTutility.hpp</text>
</a>
</g>
</g>
<!-- Node14&#45;&gt;Node19 -->
<g id="edge18_Node000014_Node000019" class="edge">
<title>Node14&#45;&gt;Node19</title>
<g id="a_edge18_Node000014_Node000019"><a xlink:title=" ">
<path fill="none" stroke="#63b8ff" d="M1451.23,-61.62C1432.25,-51.89 1402.34,-36.55 1380.4,-25.31"/>
<polygon fill="#63b8ff" stroke="#63b8ff" points="1382.16,-21.76 1371.66,-20.31 1378.96,-27.99 1382.16,-21.76"/>
</a>
</g>
</g>
<!-- Node21&#45;&gt;Node11 -->
<g id="edge26_Node000021_Node000011" class="edge">
<title>Node21&#45;&gt;Node11</title>
<g id="a_edge26_Node000021_Node000011"><a xlink:title=" ">
<path fill="none" stroke="#63b8ff" d="M380.66,-191.62C415.8,-182.26 470.44,-167.69 512.09,-156.58"/>
<polygon fill="#63b8ff" stroke="#63b8ff" points="512.89,-159.72 521.65,-153.76 511.09,-152.96 512.89,-159.72"/>
</a>
</g>
</g>
<!-- Node21&#45;&gt;Node12 -->
<g id="edge27_Node000021_Node000012" class="edge">
<title>Node21&#45;&gt;Node12</title>
<g id="a_edge27_Node000021_Node000012"><a xlink:title=" ">
<path fill="none" stroke="#63b8ff" d="M384.94,-191.56C411.82,-184.15 447.63,-172.36 476.51,-156 495.72,-145.12 493.91,-131.94 514.51,-124 619.5,-83.55 1414.12,-93.37 1526.51,-88 1592.26,-84.86 1667.67,-80.19 1718.33,-76.89"/>
<polygon fill="#63b8ff" stroke="#63b8ff" points="1718.32,-80.34 1728.07,-76.19 1717.86,-73.35 1718.32,-80.34"/>
</a>
</g>
</g>
<!-- Node21&#45;&gt;Node14 -->
<g id="edge28_Node000021_Node000014" class="edge">
<title>Node21&#45;&gt;Node14</title>
<g id="a_edge28_Node000021_Node000014"><a xlink:title=" ">
<path fill="none" stroke="#63b8ff" d="M344.61,-191.6C343.62,-174.98 344.29,-140.6 364.51,-124 405.19,-90.59 1187.04,-77 1410.39,-73.78"/>
<polygon fill="#63b8ff" stroke="#63b8ff" points="1410.27,-77.27 1420.22,-73.63 1410.17,-70.27 1410.27,-77.27"/>
</a>
</g>
</g>
<!-- Node21&#45;&gt;Node18 -->
<g id="edge29_Node000021_Node000018" class="edge">
<title>Node21&#45;&gt;Node18</title>
<g id="a_edge29_Node000021_Node000018"><a xlink:title=" ">
<path fill="none" stroke="#63b8ff" d="M304.88,-195.69C243.28,-187.22 132.13,-170.17 120.51,-156 111.49,-145 111.52,-135.02 120.51,-124 185.95,-43.75 521.57,-18.87 633.86,-12.73"/>
<polygon fill="#63b8ff" stroke="#63b8ff" points="633.82,-16.18 643.62,-12.16 633.45,-9.19 633.82,-16.18"/>
</a>
</g>
</g>
<!-- Node21&#45;&gt;Node20 -->
<g id="edge31_Node000021_Node000020" class="edge">
<title>Node21&#45;&gt;Node20</title>
<g id="a_edge31_Node000021_Node000020"><a xlink:title=" ">
<path fill="none" stroke="#63b8ff" d="M305.07,-196.89C253.7,-191 162.69,-178.34 87.51,-156 85.77,-155.48 83.99,-154.9 82.22,-154.28"/>
<polygon fill="#63b8ff" stroke="#63b8ff" points="83.79,-150.75 73.2,-150.39 81.25,-157.27 83.79,-150.75"/>
</a>
</g>
</g>
<!-- Node22 -->
<g id="Node000022" class="node">
<title>Node22</title>
<g id="a_Node000022"><a xlink:title=" ">
<polygon fill="#e0e0e0" stroke="#999999" points="467.88,-156 373.13,-156 373.13,-124 467.88,-124 467.88,-156"/>
<text text-anchor="start" x="381.13" y="-142.5" font-family="Helvetica,sans-Serif" font-size="10.00">boost/serialization</text>
<text text-anchor="middle" x="420.51" y="-130.5" font-family="Helvetica,sans-Serif" font-size="10.00">/shared_ptr.hpp</text>
</a>
</g>
</g>
<!-- Node21&#45;&gt;Node22 -->
<g id="edge25_Node000021_Node000022" class="edge">
<title>Node21&#45;&gt;Node22</title>
<g id="a_edge25_Node000021_Node000022"><a xlink:title=" ">
<path fill="none" stroke="#63b8ff" d="M357.23,-191.62C366.71,-184.04 380.45,-173.05 392.71,-163.24"/>
<polygon fill="#63b8ff" stroke="#63b8ff" points="394.67,-165.35 400.29,-156.37 390.3,-159.89 394.67,-165.35"/>
</a>
</g>
</g>
<!-- Node23 -->
<g id="Node000023" class="node">
<title>Node23</title>
<g id="a_Node000023"><a xlink:title=" ">
<polygon fill="#e0e0e0" stroke="#999999" points="175.13,-150 129.88,-150 129.88,-130 175.13,-130 175.13,-150"/>
<text text-anchor="middle" x="152.51" y="-136.5" font-family="Helvetica,sans-Serif" font-size="10.00">chrono</text>
</a>
</g>
</g>
<!-- Node21&#45;&gt;Node23 -->
<g id="edge30_Node000021_Node000023" class="edge">
<title>Node21&#45;&gt;Node23</title>
<g id="a_edge30_Node000021_Node000023"><a xlink:title=" ">
<path fill="none" stroke="#63b8ff" d="M304.89,-191.63C271.98,-183.57 224.64,-170.9 184.51,-156 183.42,-155.59 182.31,-155.17 181.2,-154.72"/>
<polygon fill="#63b8ff" stroke="#63b8ff" points="182.81,-151.17 172.24,-150.41 180.03,-157.6 182.81,-151.17"/>
</a>
</g>
</g>
<!-- Node24 -->
<g id="Node000024" class="node">
<title>Node24</title>
<g id="a_Node000024"><a xlink:title=" ">
<polygon fill="#e0e0e0" stroke="#999999" points="317.88,-156 193.13,-156 193.13,-124 317.88,-124 317.88,-156"/>
<text text-anchor="start" x="201.13" y="-142.5" font-family="Helvetica,sans-Serif" font-size="10.00">boost/dll/runtime_symbol</text>
<text text-anchor="middle" x="255.51" y="-130.5" font-family="Helvetica,sans-Serif" font-size="10.00">_info.hpp</text>
</a>
</g>
</g>
<!-- Node21&#45;&gt;Node24 -->
<g id="edge32_Node000021_Node000024" class="edge">
<title>Node21&#45;&gt;Node24</title>
<g id="a_edge32_Node000021_Node000024"><a xlink:title=" ">
<path fill="none" stroke="#63b8ff" d="M331.45,-191.62C319.74,-183.82 302.61,-172.4 287.59,-162.38"/>
<polygon fill="#63b8ff" stroke="#63b8ff" points="289.83,-159.01 279.57,-156.37 285.95,-164.83 289.83,-159.01"/>
</a>
</g>
</g>
<!-- Node25&#45;&gt;Node9 -->
<g id="edge44_Node000025_Node000009" class="edge">
<title>Node25&#45;&gt;Node9</title>
<g id="a_edge44_Node000025_Node000009"><a xlink:title=" ">
<path fill="none" stroke="#63b8ff" d="M1865.85,-191.62C1850.67,-183.56 1828.22,-171.64 1808.92,-161.4"/>
<polygon fill="#63b8ff" stroke="#63b8ff" points="1810.94,-157.97 1800.46,-156.37 1807.65,-164.15 1810.94,-157.97"/>
</a>
</g>
</g>
<!-- Node25&#45;&gt;Node11 -->
<g id="edge45_Node000025_Node000011" class="edge">
<title>Node25&#45;&gt;Node11</title>
<g id="a_edge45_Node000025_Node000011"><a xlink:title=" ">
<path fill="none" stroke="#63b8ff" d="M1819.4,-200.25C1641.74,-197.8 1128.07,-188.24 702.51,-156 678.29,-154.16 651.65,-151.3 628.69,-148.57"/>
<polygon fill="#63b8ff" stroke="#63b8ff" points="629.43,-145.01 619.08,-147.28 628.59,-151.96 629.43,-145.01"/>
</a>
</g>
</g>
<!-- Node25&#45;&gt;Node12 -->
<g id="edge46_Node000025_Node000012" class="edge">
<title>Node25&#45;&gt;Node12</title>
<g id="a_edge46_Node000025_Node000012"><a xlink:title=" ">
<path fill="none" stroke="#63b8ff" d="M1882.75,-191.99C1881.04,-176.57 1875.67,-144.78 1859.51,-124 1849.9,-111.65 1836.39,-101.56 1823.06,-93.71"/>
<polygon fill="#63b8ff" stroke="#63b8ff" points="1824.89,-90.17 1814.44,-88.4 1821.5,-96.3 1824.89,-90.17"/>
</a>
</g>
</g>
<!-- Node25&#45;&gt;Node18 -->
<g id="edge47_Node000025_Node000018" class="edge">
<title>Node25&#45;&gt;Node18</title>
<g id="a_edge47_Node000025_Node000018"><a xlink:title=" ">
<path fill="none" stroke="#63b8ff" d="M1877.93,-191.61C1866.59,-172.87 1840.73,-131.96 1826.51,-124 1745.92,-78.91 1504.44,-96.77 1412.51,-88 1141.37,-62.14 814.95,-26.8 707.07,-15.01"/>
<polygon fill="#63b8ff" stroke="#63b8ff" points="707.77,-11.46 697.45,-13.85 707.01,-18.42 707.77,-11.46"/>
</a>
</g>
</g>
<!-- Node26 -->
<g id="Node000026" class="node">
<title>Node26</title>
<g id="a_Node000026"><a xlink:href="FMTlogger_8hpp.html" target="_top" xlink:title=" ">
<polygon fill="white" stroke="#666666" points="2284.76,-150 2204.26,-150 2204.26,-130 2284.76,-130 2284.76,-150"/>
<text text-anchor="middle" x="2244.51" y="-136.5" font-family="Helvetica,sans-Serif" font-size="10.00">FMTlogger.hpp</text>
</a>
</g>
</g>
<!-- Node25&#45;&gt;Node26 -->
<g id="edge37_Node000025_Node000026" class="edge">
<title>Node25&#45;&gt;Node26</title>
<g id="a_edge37_Node000025_Node000026"><a xlink:title=" ">
<path fill="none" stroke="#63b8ff" d="M1942.06,-191.52C1997.55,-182.51 2083.23,-168.5 2157.51,-156 2169.08,-154.05 2181.51,-151.93 2193.25,-149.91"/>
<polygon fill="#63b8ff" stroke="#63b8ff" points="2193.54,-153.24 2202.8,-148.09 2192.35,-146.34 2193.54,-153.24"/>
</a>
</g>
</g>
<!-- Node29 -->
<g id="Node000029" class="node">
<title>Node29</title>
<g id="a_Node000029"><a xlink:title=" ">
<polygon fill="#e0e0e0" stroke="#999999" points="2148.88,-150 2066.13,-150 2066.13,-130 2148.88,-130 2148.88,-150"/>
<text text-anchor="middle" x="2107.51" y="-136.5" font-family="Helvetica,sans-Serif" font-size="10.00">unordered_map</text>
</a>
</g>
</g>
<!-- Node25&#45;&gt;Node29 -->
<g id="edge43_Node000025_Node000029" class="edge">
<title>Node25&#45;&gt;Node29</title>
<g id="a_edge43_Node000025_Node000029"><a xlink:title=" ">
<path fill="none" stroke="#63b8ff" d="M1921.4,-191.51C1956.51,-182.63 2010.15,-168.84 2056.51,-156 2059.47,-155.18 2062.52,-154.32 2065.59,-153.44"/>
<polygon fill="#63b8ff" stroke="#63b8ff" points="2066.36,-156.58 2074.99,-150.44 2064.42,-149.85 2066.36,-156.58"/>
</a>
</g>
</g>
<!-- Node30 -->
<g id="Node000030" class="node">
<title>Node30</title>
<g id="a_Node000030"><a xlink:title=" ">
<polygon fill="#e0e0e0" stroke="#999999" points="1941.26,-150 1911.76,-150 1911.76,-130 1941.26,-130 1941.26,-150"/>
<text text-anchor="middle" x="1926.51" y="-136.5" font-family="Helvetica,sans-Serif" font-size="10.00">set</text>
</a>
</g>
</g>
<!-- Node25&#45;&gt;Node30 -->
<g id="edge48_Node000025_Node000030" class="edge">
<title>Node25&#45;&gt;Node30</title>
<g id="a_edge48_Node000025_Node000030"><a xlink:title=" ">
<path fill="none" stroke="#63b8ff" d="M1890.23,-191.62C1896.51,-182.86 1906.06,-169.53 1913.79,-158.75"/>
<polygon fill="#63b8ff" stroke="#63b8ff" points="1917,-161.28 1919.98,-151.11 1911.31,-157.2 1917,-161.28"/>
</a>
</g>
</g>
<!-- Node31 -->
<g id="Node000031" class="node">
<title>Node31</title>
<g id="a_Node000031"><a xlink:title=" ">
<polygon fill="#e0e0e0" stroke="#999999" points="2047.88,-150 1959.13,-150 1959.13,-130 2047.88,-130 2047.88,-150"/>
<text text-anchor="middle" x="2003.51" y="-136.5" font-family="Helvetica,sans-Serif" font-size="10.00">boost/thread.hpp</text>
</a>
</g>
</g>
<!-- Node25&#45;&gt;Node31 -->
<g id="edge49_Node000025_Node000031" class="edge">
<title>Node25&#45;&gt;Node31</title>
<g id="a_edge49_Node000025_Node000031"><a xlink:title=" ">
<path fill="none" stroke="#63b8ff" d="M1902.26,-191.62C1921.81,-181.85 1952.68,-166.41 1975.2,-155.15"/>
<polygon fill="#63b8ff" stroke="#63b8ff" points="1976.51,-157.91 1983.89,-150.31 1973.38,-151.65 1976.51,-157.91"/>
</a>
</g>
</g>
<!-- Node26&#45;&gt;Node12 -->
<g id="edge38_Node000026_Node000012" class="edge">
<title>Node26&#45;&gt;Node12</title>
<g id="a_edge38_Node000026_Node000012"><a xlink:title=" ">
<path fill="none" stroke="#63b8ff" d="M2213.57,-129.56C2206.08,-127.51 2198.05,-125.5 2190.51,-124 2065.19,-99.02 1915.94,-84.25 1835.29,-77.48"/>
<polygon fill="#63b8ff" stroke="#63b8ff" points="1835.63,-73.91 1825.37,-76.57 1835.05,-80.89 1835.63,-73.91"/>
</a>
</g>
</g>
<!-- Node26&#45;&gt;Node14 -->
<g id="edge42_Node000026_Node000014" class="edge">
<title>Node26&#45;&gt;Node14</title>
<g id="a_edge42_Node000026_Node000014"><a xlink:title=" ">
<path fill="none" stroke="#63b8ff" d="M2203.91,-131.16C2189.32,-128.57 2172.72,-125.87 2157.51,-124 2036.44,-109.11 1672.46,-85.63 1528.78,-76.65"/>
<polygon fill="#63b8ff" stroke="#63b8ff" points="1529.2,-73.11 1519,-75.98 1528.77,-80.1 1529.2,-73.11"/>
</a>
</g>
</g>
<!-- Node26&#45;&gt;Node16 -->
<g id="edge41_Node000026_Node000016" class="edge">
<title>Node26&#45;&gt;Node16</title>
<g id="a_edge41_Node000026_Node000016"><a xlink:title=" ">
<path fill="none" stroke="#63b8ff" d="M2212.07,-129.52C2204.99,-127.58 2197.52,-125.64 2190.51,-124 1969.41,-72.39 1698.99,-29.48 1608.59,-15.67"/>
<polygon fill="#63b8ff" stroke="#63b8ff" points="1609.17,-12.07 1598.76,-14.02 1608.12,-18.99 1609.17,-12.07"/>
</a>
</g>
</g>
<!-- Node27 -->
<g id="Node000027" class="node">
<title>Node27</title>
<g id="a_Node000027"><a xlink:title=" ">
<polygon fill="#e0e0e0" stroke="#999999" points="2349.13,-88 2237.88,-88 2237.88,-56 2349.13,-56 2349.13,-88"/>
<text text-anchor="start" x="2245.88" y="-74.5" font-family="Helvetica,sans-Serif" font-size="10.00">boost/thread/recursive</text>
<text text-anchor="middle" x="2293.51" y="-62.5" font-family="Helvetica,sans-Serif" font-size="10.00">_mutex.hpp</text>
</a>
</g>
</g>
<!-- Node26&#45;&gt;Node27 -->
<g id="edge39_Node000026_Node000027" class="edge">
<title>Node26&#45;&gt;Node27</title>
<g id="a_edge39_Node000026_Node000027"><a xlink:title=" ">
<path fill="none" stroke="#63b8ff" d="M2251.53,-129.54C2257.84,-121.05 2267.36,-108.21 2275.75,-96.92"/>
<polygon fill="#63b8ff" stroke="#63b8ff" points="2279,-99.42 2282.15,-89.3 2273.38,-95.24 2279,-99.42"/>
</a>
</g>
</g>
<!-- Node28 -->
<g id="Node000028" class="node">
<title>Node28</title>
<g id="a_Node000028"><a xlink:title=" ">
<polygon fill="#e0e0e0" stroke="#999999" points="2219.63,-82 2171.38,-82 2171.38,-62 2219.63,-62 2219.63,-82"/>
<text text-anchor="middle" x="2195.51" y="-68.5" font-family="Helvetica,sans-Serif" font-size="10.00">fstream</text>
</a>
</g>
</g>
<!-- Node26&#45;&gt;Node28 -->
<g id="edge40_Node000026_Node000028" class="edge">
<title>Node26&#45;&gt;Node28</title>
<g id="a_edge40_Node000026_Node000028"><a xlink:title=" ">
<path fill="none" stroke="#63b8ff" d="M2237.49,-129.54C2230.07,-119.55 2218.18,-103.53 2208.94,-91.09"/>
<polygon fill="#63b8ff" stroke="#63b8ff" points="2211.29,-89.38 2202.52,-83.44 2205.67,-93.55 2211.29,-89.38"/>
</a>
</g>
</g>
</g>
</svg>

<g id="navigator" transform="translate(0 0)" fill="#404254">
  <rect fill="#f2f5e9" fill-opacity="0.5" stroke="#606060" stroke-width=".5" x="0" y="0" width="60" height="60"/>
  <use id="zoomplus" xlink:href="#zoomPlus" x="17" y="9" onmousedown="handleZoom(evt,'in')"/>
  <use id="zoomminus" xlink:href="#zoomMin" x="42" y="9" onmousedown="handleZoom(evt,'out')"/>
  <use id="reset" xlink:href="#resetDef" x="30" y="36" onmousedown="handleReset()"/>
   <use id="arrowup" xlink:href="#arrowUp" x="0" y="0" onmousedown="handlePan(0,-1)"/>
  <use id="arrowright" xlink:href="#arrowRight" x="0" y="0" onmousedown="handlePan(1,0)"/>
  <use id="arrowdown" xlink:href="#arrowDown" x="0" y="0" onmousedown="handlePan(0,1)"/>
  <use id="arrowleft" xlink:href="#arrowLeft" x="0" y="0" onmousedown="handlePan(-1,0)"/>
</g>
<svg viewBox="0 0 15 15" width="100%" height="30px" preserveAspectRatio="xMaxYMin meet">
 <g id="arrow_out" transform="scale(0.3 0.3)">
  <a xlink:href="FMTactualdevelopment_8hpp__incl_org.svg" target="_base">
   <rect id="button" ry="5" rx="5" y="6" x="6" height="38" width="38"
        fill="#f2f5e9" fill-opacity="0.5" stroke="#606060" stroke-width="1.0"/>
   <path id="arrow"
     d="M 11.500037,31.436501 C 11.940474,20.09759 22.043105,11.32322 32.158766,21.979434 L 37.068811,17.246167 C 37.068811,17.246167 37.088388,32 37.088388,32 L 22.160133,31.978069 C 22.160133,31.978069 26.997745,27.140456 26.997745,27.140456 C 18.528582,18.264221 13.291696,25.230495 11.500037,31.436501 z"
     style="fill:#404040;"/>
  </a>
 </g>
</svg>

<style type='text/css'>
<![CDATA[
[data-mouse-over-selected='false'] { opacity: 0.7; }
[data-mouse-over-selected='true']  { opacity: 1.0; }
]]>
</style>
<script type="application/ecmascript"><![CDATA[
document.addEventListener('DOMContentLoaded', (event) => {
  highlightEdges();
  highlightAdjacentNodes();
});
]]></script>
</svg>
