<?xml version="1.0" encoding="UTF-8" standalone="no"?>
<!DOCTYPE svg PUBLIC "-//W3C//DTD SVG 1.1//EN"
 "http://www.w3.org/Graphics/SVG/1.1/DTD/svg11.dtd">
<!-- Generated by graphviz version 10.0.1 (20240210.2158)
 -->
<!-- Title: D:/FMT/Include/FMTactionparser.hpp Pages: 1 -->
<!--zoomable 276 -->
<svg id="main" version="1.1" xmlns="http://www.w3.org/2000/svg" xmlns:xlink="http://www.w3.org/1999/xlink" xml:space="preserve" onload="init(evt)">
<style type="text/css"><![CDATA[
.edge:hover path { stroke: red; }
.edge:hover polygon { stroke: red; fill: red; }
]]></style>
<script type="text/javascript"><![CDATA[
var edges = document.getElementsByTagName('g');
if (edges && edges.length) {
  for (var i=0;i<edges.length;i++) {
    if (edges[i].id.substr(0,4)=='edge') {
      edges[i].setAttribute('class','edge');
    }
  }
}
]]></script>
        <defs>
                <circle id="rim" cx="0" cy="0" r="7"/>
                <circle id="rim2" cx="0" cy="0" r="3.5"/>
                <g id="zoomPlus">
                        <use xlink:href="#rim" fill="#404040">
                                <set attributeName="fill" to="#808080" begin="zoomplus.mouseover" end="zoomplus.mouseout"/>
                        </use>
                        <path d="M-4,0h8M0,-4v8" fill="none" stroke="white" stroke-width="1.5" pointer-events="none"/>
                </g>
                <g id="zoomMin">
                        <use xlink:href="#rim" fill="#404040">
                                <set attributeName="fill" to="#808080" begin="zoomminus.mouseover" end="zoomminus.mouseout"/>
                        </use>
                        <path d="M-4,0h8" fill="none" stroke="white" stroke-width="1.5" pointer-events="none"/>
                </g>
                <g id="dirArrow">
                        <path fill="none" stroke="white" stroke-width="1.5" d="M0,-3.0v7 M-2.5,-0.5L0,-3.0L2.5,-0.5"/>
                </g>
               <g id="resetDef">
                       <use xlink:href="#rim2" fill="#404040">
                               <set attributeName="fill" to="#808080" begin="reset.mouseover" end="reset.mouseout"/>
                       </use>
               </g>
        </defs>

<script type="text/javascript">
var viewWidth = 1299;
var viewHeight = 276;
var sectionId = 'dynsection-0';
</script>
<script xlink:href="svgpan.js"/>
<svg id="graph" class="graph">
<g id="viewport">
<title>D:/FMT/Include/FMTactionparser.hpp</title>
<!-- Node1 -->
<g id="node1" class="node">
<title>Node1</title>
<g id="a_node1"><a xlink:title=" ">
<polygon fill="#999999" stroke="#666666" points="556.46,-268 379.96,-268 379.96,-248 556.46,-248 556.46,-268"/>
<text text-anchor="middle" x="468.21" y="-254.5" font-family="Helvetica,sans-Serif" font-size="10.00">D:/FMT/Include/FMTactionparser.hpp</text>
</a>
</g>
</g>
<!-- Node2 -->
<g id="node2" class="node">
<title>Node2</title>
<g id="a_node2"><a xlink:href="FMTparser_8hpp.html" target="_top" xlink:title=" ">
<polygon fill="white" stroke="#666666" points="508.83,-212 427.58,-212 427.58,-192 508.83,-192 508.83,-212"/>
<text text-anchor="middle" x="468.21" y="-198.5" font-family="Helvetica,sans-Serif" font-size="10.00">FMTparser.hpp</text>
</a>
</g>
</g>
<!-- Node1&#45;&gt;Node2 -->
<g id="edge1" class="edge">
<title>Node1&#45;&gt;Node2</title>
<path fill="none" stroke="#63b8ff" d="M468.21,-247.59C468.21,-241.01 468.21,-231.96 468.21,-223.73"/>
<polygon fill="#63b8ff" stroke="#63b8ff" points="471.71,-223.81 468.21,-213.81 464.71,-223.81 471.71,-223.81"/>
</g>
<!-- Node3 -->
<g id="node3" class="node">
<title>Node3</title>
<g id="a_node3"><a xlink:title=" ">
<polygon fill="#e0e0e0" stroke="#999999" points="113.08,-150 27.33,-150 27.33,-130 113.08,-130 113.08,-150"/>
<text text-anchor="middle" x="70.21" y="-136.5" font-family="Helvetica,sans-Serif" font-size="10.00">boost/regex.hpp</text>
</a>
</g>
</g>
<!-- Node1&#45;&gt;Node3 -->
<g id="edge28" class="edge">
<title>Node1&#45;&gt;Node3</title>
<path fill="none" stroke="#63b8ff" d="M435.64,-247.51C364.18,-226.68 193.65,-176.98 113.38,-153.58"/>
<polygon fill="#63b8ff" stroke="#63b8ff" points="114.7,-150.32 104.12,-150.88 112.74,-157.04 114.7,-150.32"/>
</g>
<!-- Node8 -->
<g id="node8" class="node">
<title>Node8</title>
<g id="a_node8"><a xlink:title=" ">
<polygon fill="#e0e0e0" stroke="#999999" points="1290.96,-82 1249.46,-82 1249.46,-62 1290.96,-62 1290.96,-82"/>
<text text-anchor="middle" x="1270.21" y="-68.5" font-family="Helvetica,sans-Serif" font-size="10.00">vector</text>
</a>
</g>
</g>
<!-- Node1&#45;&gt;Node8 -->
<g id="edge29" class="edge">
<title>Node1&#45;&gt;Node8</title>
<path fill="none" stroke="#63b8ff" d="M515.7,-247.52C602.51,-230.09 792.59,-191.49 952.21,-156 1080.59,-127.45 1116.56,-132.82 1240.21,-88 1241.01,-87.71 1241.82,-87.4 1242.63,-87.08"/>
<polygon fill="#63b8ff" stroke="#63b8ff" points="1243.97,-90.32 1251.68,-83.04 1241.12,-83.92 1243.97,-90.32"/>
</g>
<!-- Node10 -->
<g id="node10" class="node">
<title>Node10</title>
<g id="a_node10"><a xlink:href="FMTutility_8hpp.html" target="_top" xlink:title=" ">
<polygon fill="white" stroke="#666666" points="487.96,-20 410.46,-20 410.46,0 487.96,0 487.96,-20"/>
<text text-anchor="middle" x="449.21" y="-6.5" font-family="Helvetica,sans-Serif" font-size="10.00">FMTutility.hpp</text>
</a>
</g>
</g>
<!-- Node1&#45;&gt;Node10 -->
<g id="edge27" class="edge">
<title>Node1&#45;&gt;Node10</title>
<path fill="none" stroke="#63b8ff" d="M379.56,-250.13C261.36,-238.91 61.94,-212.01 18.21,-156 -82.94,-26.45 265.45,-11.71 399.13,-10.73"/>
<polygon fill="#63b8ff" stroke="#63b8ff" points="398.76,-14.23 408.74,-10.68 398.72,-7.23 398.76,-14.23"/>
</g>
<!-- Node23 -->
<g id="node23" class="node">
<title>Node23</title>
<g id="a_node23"><a xlink:title=" ">
<polygon fill="#e0e0e0" stroke="#999999" points="1033.58,-212 998.83,-212 998.83,-192 1033.58,-192 1033.58,-212"/>
<text text-anchor="middle" x="1016.21" y="-198.5" font-family="Helvetica,sans-Serif" font-size="10.00">map</text>
</a>
</g>
</g>
<!-- Node1&#45;&gt;Node23 -->
<g id="edge30" class="edge">
<title>Node1&#45;&gt;Node23</title>
<path fill="none" stroke="#63b8ff" d="M556.74,-254.56C660.26,-250.49 836.42,-239.8 985.21,-212 986.04,-211.85 986.87,-211.68 987.71,-211.5"/>
<polygon fill="#63b8ff" stroke="#63b8ff" points="988.34,-214.95 997.18,-209.11 986.63,-208.16 988.34,-214.95"/>
</g>
<!-- Node2&#45;&gt;Node3 -->
<g id="edge2" class="edge">
<title>Node2&#45;&gt;Node3</title>
<path fill="none" stroke="#63b8ff" d="M427.13,-197.69C361.98,-191.98 231.18,-178.67 122.21,-156 118.58,-155.24 114.82,-154.36 111.08,-153.42"/>
<polygon fill="#63b8ff" stroke="#63b8ff" points="112.01,-150.04 101.45,-150.82 110.19,-156.8 112.01,-150.04"/>
</g>
<!-- Node4 -->
<g id="node4" class="node">
<title>Node4</title>
<g id="a_node4"><a xlink:title=" ">
<polygon fill="#e0e0e0" stroke="#999999" points="421.21,-150 375.21,-150 375.21,-130 421.21,-130 421.21,-150"/>
<text text-anchor="middle" x="398.21" y="-136.5" font-family="Helvetica,sans-Serif" font-size="10.00">iterator</text>
</a>
</g>
</g>
<!-- Node2&#45;&gt;Node4 -->
<g id="edge3" class="edge">
<title>Node2&#45;&gt;Node4</title>
<path fill="none" stroke="#63b8ff" d="M457.27,-191.62C446.63,-182.5 430.23,-168.45 417.41,-157.46"/>
<polygon fill="#63b8ff" stroke="#63b8ff" points="419.86,-154.95 409.99,-151.1 415.3,-160.26 419.86,-154.95"/>
</g>
<!-- Node5 -->
<g id="node5" class="node">
<title>Node5</title>
<g id="a_node5"><a xlink:title=" ">
<polygon fill="#e0e0e0" stroke="#999999" points="623.96,-20 570.46,-20 570.46,0 623.96,0 623.96,-20"/>
<text text-anchor="middle" x="597.21" y="-6.5" font-family="Helvetica,sans-Serif" font-size="10.00">iostream</text>
</a>
</g>
</g>
<!-- Node2&#45;&gt;Node5 -->
<g id="edge4" class="edge">
<title>Node2&#45;&gt;Node5</title>
<path fill="none" stroke="#63b8ff" d="M470.02,-191.53C475.64,-162.83 493.52,-77.49 511.21,-56 523.8,-40.7 542.97,-29.96 560.02,-22.82"/>
<polygon fill="#63b8ff" stroke="#63b8ff" points="560.82,-26.26 568.87,-19.38 558.28,-19.74 560.82,-26.26"/>
</g>
<!-- Node6 -->
<g id="node6" class="node">
<title>Node6</title>
<g id="a_node6"><a xlink:title=" ">
<polygon fill="#e0e0e0" stroke="#999999" points="883.33,-150 835.08,-150 835.08,-130 883.33,-130 883.33,-150"/>
<text text-anchor="middle" x="859.21" y="-136.5" font-family="Helvetica,sans-Serif" font-size="10.00">fstream</text>
</a>
</g>
</g>
<!-- Node2&#45;&gt;Node6 -->
<g id="edge5" class="edge">
<title>Node2&#45;&gt;Node6</title>
<path fill="none" stroke="#63b8ff" d="M509.33,-199.08C575.82,-195.24 710.66,-184.39 821.21,-156 823.32,-155.46 825.47,-154.83 827.63,-154.14"/>
<polygon fill="#63b8ff" stroke="#63b8ff" points="828.55,-157.53 836.79,-150.87 826.19,-150.94 828.55,-157.53"/>
</g>
<!-- Node7 -->
<g id="node7" class="node">
<title>Node7</title>
<g id="a_node7"><a xlink:title=" ">
<polygon fill="#e0e0e0" stroke="#999999" points="809.21,-20 769.21,-20 769.21,0 809.21,0 809.21,-20"/>
<text text-anchor="middle" x="789.21" y="-6.5" font-family="Helvetica,sans-Serif" font-size="10.00">string</text>
</a>
</g>
</g>
<!-- Node2&#45;&gt;Node7 -->
<g id="edge6" class="edge">
<title>Node2&#45;&gt;Node7</title>
<path fill="none" stroke="#63b8ff" d="M473.75,-191.78C479.13,-182.75 487.45,-168.55 494.21,-156 517.76,-112.25 504.48,-85.85 544.21,-56 577.45,-31.02 699.02,-18.17 757.44,-13.33"/>
<polygon fill="#63b8ff" stroke="#63b8ff" points="757.7,-16.82 767.39,-12.54 757.14,-9.84 757.7,-16.82"/>
</g>
<!-- Node2&#45;&gt;Node8 -->
<g id="edge7" class="edge">
<title>Node2&#45;&gt;Node8</title>
<path fill="none" stroke="#63b8ff" d="M509.28,-198.06C584.02,-192.25 739.09,-177.92 788.21,-156 808.37,-147 805.82,-132.46 826.21,-124 996.8,-53.22 1062.46,-138.19 1240.21,-88 1241.39,-87.67 1242.57,-87.29 1243.76,-86.87"/>
<polygon fill="#63b8ff" stroke="#63b8ff" points="1244.95,-90.17 1252.76,-83.01 1242.19,-83.74 1244.95,-90.17"/>
</g>
<!-- Node9 -->
<g id="node9" class="node">
<title>Node9</title>
<g id="a_node9"><a xlink:title=" ">
<polygon fill="#e0e0e0" stroke="#999999" points="943.33,-150 901.08,-150 901.08,-130 943.33,-130 943.33,-150"/>
<text text-anchor="middle" x="922.21" y="-136.5" font-family="Helvetica,sans-Serif" font-size="10.00">queue</text>
</a>
</g>
</g>
<!-- Node2&#45;&gt;Node9 -->
<g id="edge8" class="edge">
<title>Node2&#45;&gt;Node9</title>
<path fill="none" stroke="#63b8ff" d="M509.18,-201.45C585.95,-201.26 755.98,-195.87 892.21,-156 893.38,-155.66 894.57,-155.27 895.75,-154.85"/>
<polygon fill="#63b8ff" stroke="#63b8ff" points="896.96,-158.14 904.75,-150.96 894.18,-151.71 896.96,-158.14"/>
</g>
<!-- Node2&#45;&gt;Node10 -->
<g id="edge9" class="edge">
<title>Node2&#45;&gt;Node10</title>
<path fill="none" stroke="#63b8ff" d="M467.27,-191.58C464.34,-162.33 455.37,-72.59 451.28,-31.69"/>
<polygon fill="#63b8ff" stroke="#63b8ff" points="454.79,-31.59 450.31,-21.99 447.82,-32.28 454.79,-31.59"/>
</g>
<!-- Node11 -->
<g id="node11" class="node">
<title>Node11</title>
<g id="a_node11"><a xlink:title=" ">
<polygon fill="#e0e0e0" stroke="#999999" points="169.08,-150 131.33,-150 131.33,-130 169.08,-130 169.08,-150"/>
<text text-anchor="middle" x="150.21" y="-136.5" font-family="Helvetica,sans-Serif" font-size="10.00">array</text>
</a>
</g>
</g>
<!-- Node2&#45;&gt;Node11 -->
<g id="edge10" class="edge">
<title>Node2&#45;&gt;Node11</title>
<path fill="none" stroke="#63b8ff" d="M427.32,-199C370.22,-195.23 263.97,-184.69 178.21,-156 177.4,-155.73 176.6,-155.44 175.79,-155.13"/>
<polygon fill="#63b8ff" stroke="#63b8ff" points="177.41,-152.02 166.86,-151.01 174.48,-158.38 177.41,-152.02"/>
</g>
<!-- Node12 -->
<g id="node12" class="node">
<title>Node12</title>
<g id="a_node12"><a xlink:title=" ">
<polygon fill="#e0e0e0" stroke="#999999" points="227.21,-150 187.21,-150 187.21,-130 227.21,-130 227.21,-150"/>
<text text-anchor="middle" x="207.21" y="-136.5" font-family="Helvetica,sans-Serif" font-size="10.00">ctime</text>
</a>
</g>
</g>
<!-- Node2&#45;&gt;Node12 -->
<g id="edge11" class="edge">
<title>Node2&#45;&gt;Node12</title>
<path fill="none" stroke="#63b8ff" d="M427.47,-196.67C380.41,-190.86 301.12,-178.56 236.21,-156 235.41,-155.72 234.6,-155.42 233.79,-155.11"/>
<polygon fill="#63b8ff" stroke="#63b8ff" points="235.34,-151.97 224.79,-151.03 232.45,-158.35 235.34,-151.97"/>
</g>
<!-- Node13 -->
<g id="node13" class="node">
<title>Node13</title>
<g id="a_node13"><a xlink:title=" ">
<polygon fill="#e0e0e0" stroke="#999999" points="356.83,-156 245.58,-156 245.58,-124 356.83,-124 356.83,-156"/>
<text text-anchor="start" x="253.58" y="-142.5" font-family="Helvetica,sans-Serif" font-size="10.00">boost/thread/recursive</text>
<text text-anchor="middle" x="301.21" y="-130.5" font-family="Helvetica,sans-Serif" font-size="10.00">_mutex.hpp</text>
</a>
</g>
</g>
<!-- Node2&#45;&gt;Node13 -->
<g id="edge12" class="edge">
<title>Node2&#45;&gt;Node13</title>
<path fill="none" stroke="#63b8ff" d="M442.12,-191.62C418.83,-183.26 384,-170.75 354.8,-160.25"/>
<polygon fill="#63b8ff" stroke="#63b8ff" points="356.34,-157.09 345.75,-157 353.98,-163.68 356.34,-157.09"/>
</g>
<!-- Node14 -->
<g id="node14" class="node">
<title>Node14</title>
<g id="a_node14"><a xlink:href="FMTobject_8hpp.html" target="_top" xlink:title=" ">
<polygon fill="white" stroke="#666666" points="779.46,-150 698.96,-150 698.96,-130 779.46,-130 779.46,-150"/>
<text text-anchor="middle" x="739.21" y="-136.5" font-family="Helvetica,sans-Serif" font-size="10.00">FMTobject.hpp</text>
</a>
</g>
</g>
<!-- Node2&#45;&gt;Node14 -->
<g id="edge13" class="edge">
<title>Node2&#45;&gt;Node14</title>
<path fill="none" stroke="#63b8ff" d="M509.07,-191.95C556.88,-181.37 636.06,-163.84 687.94,-152.35"/>
<polygon fill="#63b8ff" stroke="#63b8ff" points="688.41,-155.83 697.42,-150.25 686.9,-149 688.41,-155.83"/>
</g>
<!-- Node14&#45;&gt;Node8 -->
<g id="edge25" class="edge">
<title>Node14&#45;&gt;Node8</title>
<path fill="none" stroke="#63b8ff" d="M769.25,-129.56C776.99,-127.43 785.35,-125.39 793.21,-124 989.45,-89.17 1048.23,-141.55 1240.21,-88 1241.39,-87.67 1242.57,-87.3 1243.76,-86.88"/>
<polygon fill="#63b8ff" stroke="#63b8ff" points="1244.95,-90.18 1252.77,-83.03 1242.2,-83.74 1244.95,-90.18"/>
</g>
<!-- Node15 -->
<g id="node15" class="node">
<title>Node15</title>
<g id="a_node15"><a xlink:title=" ">
<polygon fill="#e0e0e0" stroke="#999999" points="1118.58,-88 1023.83,-88 1023.83,-56 1118.58,-56 1118.58,-88"/>
<text text-anchor="start" x="1031.83" y="-74.5" font-family="Helvetica,sans-Serif" font-size="10.00">boost/serialization</text>
<text text-anchor="middle" x="1071.21" y="-62.5" font-family="Helvetica,sans-Serif" font-size="10.00">/shared_ptr.hpp</text>
</a>
</g>
</g>
<!-- Node14&#45;&gt;Node15 -->
<g id="edge14" class="edge">
<title>Node14&#45;&gt;Node15</title>
<path fill="none" stroke="#63b8ff" d="M771.05,-129.55C778.3,-127.57 785.99,-125.6 793.21,-124 888.66,-102.89 914.45,-107.69 1010.21,-88 1010.88,-87.86 1011.55,-87.72 1012.22,-87.58"/>
<polygon fill="#63b8ff" stroke="#63b8ff" points="1012.84,-91.03 1021.86,-85.46 1011.34,-84.19 1012.84,-91.03"/>
</g>
<!-- Node16 -->
<g id="node16" class="node">
<title>Node16</title>
<g id="a_node16"><a xlink:title=" ">
<polygon fill="#e0e0e0" stroke="#999999" points="1231.58,-88 1136.83,-88 1136.83,-56 1231.58,-56 1231.58,-88"/>
<text text-anchor="start" x="1144.83" y="-74.5" font-family="Helvetica,sans-Serif" font-size="10.00">boost/serialization</text>
<text text-anchor="middle" x="1184.21" y="-62.5" font-family="Helvetica,sans-Serif" font-size="10.00">/nvp.hpp</text>
</a>
</g>
</g>
<!-- Node14&#45;&gt;Node16 -->
<g id="edge15" class="edge">
<title>Node14&#45;&gt;Node16</title>
<path fill="none" stroke="#63b8ff" d="M769.84,-129.55C777.42,-127.48 785.56,-125.46 793.21,-124 936.27,-96.61 978.34,-114.17 1125.21,-88.16"/>
<polygon fill="#63b8ff" stroke="#63b8ff" points="1125.73,-91.63 1134.94,-86.4 1124.48,-84.74 1125.73,-91.63"/>
</g>
<!-- Node17 -->
<g id="node17" class="node">
<title>Node17</title>
<g id="a_node17"><a xlink:title=" ">
<polygon fill="#e0e0e0" stroke="#999999" points="647.58,-88 552.83,-88 552.83,-56 647.58,-56 647.58,-88"/>
<text text-anchor="start" x="560.83" y="-74.5" font-family="Helvetica,sans-Serif" font-size="10.00">boost/serialization</text>
<text text-anchor="middle" x="600.21" y="-62.5" font-family="Helvetica,sans-Serif" font-size="10.00">/export.hpp</text>
</a>
</g>
</g>
<!-- Node14&#45;&gt;Node17 -->
<g id="edge16" class="edge">
<title>Node14&#45;&gt;Node17</title>
<path fill="none" stroke="#63b8ff" d="M719.29,-129.54C699.43,-120.11 668.3,-105.33 642.85,-93.25"/>
<polygon fill="#63b8ff" stroke="#63b8ff" points="644.6,-90.2 634.07,-89.08 641.6,-96.53 644.6,-90.2"/>
</g>
<!-- Node18 -->
<g id="node18" class="node">
<title>Node18</title>
<g id="a_node18"><a xlink:href="FMTexception_8hpp.html" target="_top" xlink:title=" ">
<polygon fill="white" stroke="#666666" points="968.33,-82 872.08,-82 872.08,-62 968.33,-62 968.33,-82"/>
<text text-anchor="middle" x="920.21" y="-68.5" font-family="Helvetica,sans-Serif" font-size="10.00">FMTexception.hpp</text>
</a>
</g>
</g>
<!-- Node14&#45;&gt;Node18 -->
<g id="edge17" class="edge">
<title>Node14&#45;&gt;Node18</title>
<path fill="none" stroke="#63b8ff" d="M765.14,-129.54C796.19,-118.22 848.39,-99.19 883.56,-86.37"/>
<polygon fill="#63b8ff" stroke="#63b8ff" points="884.71,-89.67 892.9,-82.96 882.31,-83.09 884.71,-89.67"/>
</g>
<!-- Node20 -->
<g id="node20" class="node">
<title>Node20</title>
<g id="a_node20"><a xlink:title=" ">
<polygon fill="#e0e0e0" stroke="#999999" points="1019.83,-20 968.58,-20 968.58,0 1019.83,0 1019.83,-20"/>
<text text-anchor="middle" x="994.21" y="-6.5" font-family="Helvetica,sans-Serif" font-size="10.00">memory</text>
</a>
</g>
</g>
<!-- Node14&#45;&gt;Node20 -->
<g id="edge23" class="edge">
<title>Node14&#45;&gt;Node20</title>
<path fill="none" stroke="#63b8ff" d="M771.66,-129.55C778.73,-127.61 786.2,-125.66 793.21,-124 874.3,-104.83 917.58,-146.21 977.21,-88 992.04,-73.53 995.27,-49.25 995.44,-31.83"/>
<polygon fill="#63b8ff" stroke="#63b8ff" points="998.94,-31.76 995.17,-21.86 991.94,-31.95 998.94,-31.76"/>
</g>
<!-- Node21 -->
<g id="node21" class="node">
<title>Node21</title>
<g id="a_node21"><a xlink:title=" ">
<polygon fill="#e0e0e0" stroke="#999999" points="710.83,-82 665.58,-82 665.58,-62 710.83,-62 710.83,-82"/>
<text text-anchor="middle" x="688.21" y="-68.5" font-family="Helvetica,sans-Serif" font-size="10.00">chrono</text>
</a>
</g>
</g>
<!-- Node14&#45;&gt;Node21 -->
<g id="edge24" class="edge">
<title>Node14&#45;&gt;Node21</title>
<path fill="none" stroke="#63b8ff" d="M731.9,-129.54C724.25,-119.64 712.04,-103.84 702.47,-91.46"/>
<polygon fill="#63b8ff" stroke="#63b8ff" points="705.31,-89.41 696.43,-83.64 699.77,-93.69 705.31,-89.41"/>
</g>
<!-- Node22 -->
<g id="node22" class="node">
<title>Node22</title>
<g id="a_node22"><a xlink:title=" ">
<polygon fill="#e0e0e0" stroke="#999999" points="853.58,-88 728.83,-88 728.83,-56 853.58,-56 853.58,-88"/>
<text text-anchor="start" x="736.83" y="-74.5" font-family="Helvetica,sans-Serif" font-size="10.00">boost/dll/runtime_symbol</text>
<text text-anchor="middle" x="791.21" y="-62.5" font-family="Helvetica,sans-Serif" font-size="10.00">_info.hpp</text>
</a>
</g>
</g>
<!-- Node14&#45;&gt;Node22 -->
<g id="edge26" class="edge">
<title>Node14&#45;&gt;Node22</title>
<path fill="none" stroke="#63b8ff" d="M746.66,-129.54C753.29,-121.13 763.26,-108.47 772.1,-97.25"/>
<polygon fill="#63b8ff" stroke="#63b8ff" points="774.78,-99.51 778.22,-89.49 769.28,-95.18 774.78,-99.51"/>
</g>
<!-- Node18&#45;&gt;Node5 -->
<g id="edge20" class="edge">
<title>Node18&#45;&gt;Node5</title>
<path fill="none" stroke="#63b8ff" d="M885.67,-61.55C877.97,-59.59 869.84,-57.63 862.21,-56 782.19,-38.89 687.47,-24.11 635.72,-16.49"/>
<polygon fill="#63b8ff" stroke="#63b8ff" points="636.34,-13.04 625.94,-15.06 635.33,-19.97 636.34,-13.04"/>
</g>
<!-- Node18&#45;&gt;Node7 -->
<g id="edge19" class="edge">
<title>Node18&#45;&gt;Node7</title>
<path fill="none" stroke="#63b8ff" d="M899.74,-61.62C878.3,-51.81 844.39,-36.27 819.78,-25"/>
<polygon fill="#63b8ff" stroke="#63b8ff" points="821.46,-21.92 810.91,-20.94 818.54,-28.29 821.46,-21.92"/>
</g>
<!-- Node18&#45;&gt;Node10 -->
<g id="edge22" class="edge">
<title>Node18&#45;&gt;Node10</title>
<path fill="none" stroke="#63b8ff" d="M886.96,-61.52C878.91,-59.47 870.29,-57.48 862.21,-56 793.76,-43.49 593.87,-24.27 499.57,-15.57"/>
<polygon fill="#63b8ff" stroke="#63b8ff" points="500.12,-12.1 489.84,-14.67 499.48,-19.07 500.12,-12.1"/>
</g>
<!-- Node19 -->
<g id="node19" class="node">
<title>Node19</title>
<g id="a_node19"><a xlink:title=" ">
<polygon fill="#e0e0e0" stroke="#999999" points="949.21,-20 891.21,-20 891.21,0 949.21,0 949.21,-20"/>
<text text-anchor="middle" x="920.21" y="-6.5" font-family="Helvetica,sans-Serif" font-size="10.00">exception</text>
</a>
</g>
</g>
<!-- Node18&#45;&gt;Node19 -->
<g id="edge18" class="edge">
<title>Node18&#45;&gt;Node19</title>
<path fill="none" stroke="#63b8ff" d="M920.21,-61.62C920.21,-53.56 920.21,-41.65 920.21,-31.41"/>
<polygon fill="#63b8ff" stroke="#63b8ff" points="923.71,-31.63 920.21,-21.63 916.71,-31.63 923.71,-31.63"/>
</g>
<!-- Node18&#45;&gt;Node20 -->
<g id="edge21" class="edge">
<title>Node18&#45;&gt;Node20</title>
<path fill="none" stroke="#63b8ff" d="M931.77,-61.62C943.13,-52.41 960.7,-38.17 974.31,-27.14"/>
<polygon fill="#63b8ff" stroke="#63b8ff" points="976.23,-30.08 981.79,-21.07 971.82,-24.65 976.23,-30.08"/>
</g>
</g>
</svg>
        <g id="navigator" transform="translate(0 0)" fill="#404254">
                <rect fill="#f2f5e9" fill-opacity="0.5" stroke="#606060" stroke-width=".5" x="0" y="0" width="60" height="60"/>
                <use id="zoomplus" xlink:href="#zoomPlus" x="17" y="9" onmousedown="handleZoom(evt,'in')"/>
                <use id="zoomminus" xlink:href="#zoomMin" x="42" y="9" onmousedown="handleZoom(evt,'out')"/>
                <use id="reset" xlink:href="#resetDef" x="30" y="36" onmousedown="handleReset()"/>
                <g id="arrowUp" xlink:href="#dirArrow" transform="translate(30 24)" onmousedown="handlePan(0,-1)">
                  <use xlink:href="#rim" fill="#404040">
                        <set attributeName="fill" to="#808080" begin="arrowUp.mouseover" end="arrowUp.mouseout"/>
                  </use>
                  <path fill="none" stroke="white" stroke-width="1.5" d="M0,-3.0v7 M-2.5,-0.5L0,-3.0L2.5,-0.5"/>
                </g>
                <g id="arrowRight" xlink:href="#dirArrow" transform="rotate(90) translate(36 -43)" onmousedown="handlePan(1,0)">
                  <use xlink:href="#rim" fill="#404040">
                        <set attributeName="fill" to="#808080" begin="arrowRight.mouseover" end="arrowRight.mouseout"/>
                  </use>
                  <path fill="none" stroke="white" stroke-width="1.5" d="M0,-3.0v7 M-2.5,-0.5L0,-3.0L2.5,-0.5"/>
                </g>
                <g id="arrowDown" xlink:href="#dirArrow" transform="rotate(180) translate(-30 -48)" onmousedown="handlePan(0,1)">
                  <use xlink:href="#rim" fill="#404040">
                        <set attributeName="fill" to="#808080" begin="arrowDown.mouseover" end="arrowDown.mouseout"/>
                  </use>
                  <path fill="none" stroke="white" stroke-width="1.5" d="M0,-3.0v7 M-2.5,-0.5L0,-3.0L2.5,-0.5"/>
                </g>
                <g id="arrowLeft" xlink:href="#dirArrow" transform="rotate(270) translate(-36 17)" onmousedown="handlePan(-1,0)">
                  <use xlink:href="#rim" fill="#404040">
                        <set attributeName="fill" to="#808080" begin="arrowLeft.mouseover" end="arrowLeft.mouseout"/>
                  </use>
                  <path fill="none" stroke="white" stroke-width="1.5" d="M0,-3.0v7 M-2.5,-0.5L0,-3.0L2.5,-0.5"/>
                </g>
        </g>
        <svg viewBox="0 0 15 15" width="100%" height="30px" preserveAspectRatio="xMaxYMin meet">
         <g id="arrow_out" transform="scale(0.3 0.3)">
          <a xlink:href="FMTactionparser_8hpp__incl_org.svg" target="_base">
           <rect id="button" ry="5" rx="5" y="6" x="6" height="38" width="38"
                fill="#f2f5e9" fill-opacity="0.5" stroke="#606060" stroke-width="1.0"/>
           <path id="arrow"
             d="M 11.500037,31.436501 C 11.940474,20.09759 22.043105,11.32322 32.158766,21.979434 L 37.068811,17.246167 C 37.068811,17.246167 37.088388,32 37.088388,32 L 22.160133,31.978069 C 22.160133,31.978069 26.997745,27.140456 26.997745,27.140456 C 18.528582,18.264221 13.291696,25.230495 11.500037,31.436501 z"
             style="fill:#404040;"/>
          </a>
         </g>
        </svg>
</svg>
