<?xml version="1.0" encoding="UTF-8" standalone="no"?>
<!DOCTYPE svg PUBLIC "-//W3C//DTD SVG 1.1//EN"
 "http://www.w3.org/Graphics/SVG/1.1/DTD/svg11.dtd">
<!-- Generated by graphviz version 8.1.0 (20230707.0739)
 -->
<!-- Title: C:/Temp/out/FMT/Include/FMTareaparser.hpp Pages: 1 -->
<svg width="1386pt" height="288pt"
 viewBox="0.00 0.00 1386.23 288.00" xmlns="http://www.w3.org/2000/svg" xmlns:xlink="http://www.w3.org/1999/xlink">
<g id="graph0" class="graph" transform="scale(1 1) rotate(0) translate(4 284)">
<title>C:/Temp/out/FMT/Include/FMTareaparser.hpp</title>
<!-- Node1 -->
<g id="Node000001" class="node">
<title>Node1</title>
<g id="a_Node000001"><a xlink:title=" ">
<polygon fill="#999999" stroke="#666666" points="482.61,-280 357.11,-280 357.11,-248 482.61,-248 482.61,-280"/>
<text text-anchor="start" x="365.11" y="-266.5" font-family="Helvetica,sans-Serif" font-size="10.00">C:/Temp/out/FMT/Include</text>
<text text-anchor="middle" x="419.86" y="-254.5" font-family="Helvetica,sans-Serif" font-size="10.00">/FMTareaparser.hpp</text>
</a>
</g>
</g>
<!-- Node2 -->
<g id="Node000002" class="node">
<title>Node2</title>
<g id="a_Node000002"><a xlink:href="FMTparser_8hpp.html" target="_top" xlink:title=" ">
<polygon fill="white" stroke="#666666" points="460.48,-212 379.23,-212 379.23,-192 460.48,-192 460.48,-212"/>
<text text-anchor="middle" x="419.86" y="-198.5" font-family="Helvetica,sans-Serif" font-size="10.00">FMTparser.hpp</text>
</a>
</g>
</g>
<!-- Node1&#45;&gt;Node2 -->
<g id="edge1_Node000001_Node000002" class="edge">
<title>Node1&#45;&gt;Node2</title>
<g id="a_edge1_Node000001_Node000002"><a xlink:title=" ">
<path fill="none" stroke="#63b8ff" d="M419.86,-247.55C419.86,-240.17 419.86,-231.24 419.86,-223.32"/>
<polygon fill="#63b8ff" stroke="#63b8ff" points="423.36,-223.41 419.86,-213.41 416.36,-223.41 423.36,-223.41"/>
</a>
</g>
</g>
<!-- Node3 -->
<g id="Node000003" class="node">
<title>Node3</title>
<g id="a_Node000003"><a xlink:title=" ">
<polygon fill="#e0e0e0" stroke="#999999" points="111.73,-150 25.98,-150 25.98,-130 111.73,-130 111.73,-150"/>
<text text-anchor="middle" x="68.86" y="-136.5" font-family="Helvetica,sans-Serif" font-size="10.00">boost/regex.hpp</text>
</a>
</g>
</g>
<!-- Node1&#45;&gt;Node3 -->
<g id="edge32_Node000001_Node000003" class="edge">
<title>Node1&#45;&gt;Node3</title>
<g id="a_edge32_Node000001_Node000003"><a xlink:title=" ">
<path fill="none" stroke="#63b8ff" d="M371.56,-247.52C340.91,-237.59 300.47,-224.31 264.86,-212 208.46,-192.51 143.4,-168.67 104.24,-154.17"/>
<polygon fill="#63b8ff" stroke="#63b8ff" points="105.74,-150.63 95.14,-150.43 103.3,-157.19 105.74,-150.63"/>
</a>
</g>
</g>
<!-- Node4 -->
<g id="Node000004" class="node">
<title>Node4</title>
<g id="a_Node000004"><a xlink:title=" ">
<polygon fill="#e0e0e0" stroke="#999999" points="175.86,-150 129.86,-150 129.86,-130 175.86,-130 175.86,-150"/>
<text text-anchor="middle" x="152.86" y="-136.5" font-family="Helvetica,sans-Serif" font-size="10.00">iterator</text>
</a>
</g>
</g>
<!-- Node1&#45;&gt;Node4 -->
<g id="edge27_Node000001_Node000004" class="edge">
<title>Node1&#45;&gt;Node4</title>
<g id="a_edge27_Node000001_Node000004"><a xlink:title=" ">
<path fill="none" stroke="#63b8ff" d="M385.56,-247.52C339.74,-226.82 256.07,-188.9 184.86,-156 184.13,-155.66 183.39,-155.32 182.64,-154.97"/>
<polygon fill="#63b8ff" stroke="#63b8ff" points="184.36,-151.45 173.81,-150.4 181.4,-157.79 184.36,-151.45"/>
</a>
</g>
</g>
<!-- Node7 -->
<g id="Node000007" class="node">
<title>Node7</title>
<g id="a_Node000007"><a xlink:title=" ">
<polygon fill="#e0e0e0" stroke="#999999" points="1297.86,-20 1257.86,-20 1257.86,0 1297.86,0 1297.86,-20"/>
<text text-anchor="middle" x="1277.86" y="-6.5" font-family="Helvetica,sans-Serif" font-size="10.00">string</text>
</a>
</g>
</g>
<!-- Node1&#45;&gt;Node7 -->
<g id="edge29_Node000001_Node000007" class="edge">
<title>Node1&#45;&gt;Node7</title>
<g id="a_edge29_Node000001_Node000007"><a xlink:title=" ">
<path fill="none" stroke="#63b8ff" d="M483.07,-256.47C560.92,-248.03 697.1,-232.04 812.86,-212 928.48,-191.99 957.59,-186.64 1070.86,-156 1165.15,-130.5 1222.46,-167.04 1279.86,-88 1291.8,-71.56 1288.86,-47.51 1284.5,-30.68"/>
<polygon fill="#63b8ff" stroke="#63b8ff" points="1287.63,-29.94 1281.42,-21.36 1280.93,-31.94 1287.63,-29.94"/>
</a>
</g>
</g>
<!-- Node8 -->
<g id="Node000008" class="node">
<title>Node8</title>
<g id="a_Node000008"><a xlink:title=" ">
<polygon fill="#e0e0e0" stroke="#999999" points="1249.61,-82 1208.11,-82 1208.11,-62 1249.61,-62 1249.61,-82"/>
<text text-anchor="middle" x="1228.86" y="-68.5" font-family="Helvetica,sans-Serif" font-size="10.00">vector</text>
</a>
</g>
</g>
<!-- Node1&#45;&gt;Node8 -->
<g id="edge30_Node000001_Node000008" class="edge">
<title>Node1&#45;&gt;Node8</title>
<g id="a_edge30_Node000001_Node000008"><a xlink:title=" ">
<path fill="none" stroke="#63b8ff" d="M482.79,-254.72C590.58,-239.83 817,-205.38 1003.86,-156 1092.6,-132.55 1114.3,-123.71 1198.86,-88 1199.6,-87.69 1200.35,-87.36 1201.11,-87.03"/>
<polygon fill="#63b8ff" stroke="#63b8ff" points="1202.38,-89.83 1209.95,-82.42 1199.41,-83.49 1202.38,-89.83"/>
</a>
</g>
</g>
<!-- Node10 -->
<g id="Node000010" class="node">
<title>Node10</title>
<g id="a_Node000010"><a xlink:href="FMTutility_8hpp.html" target="_top" xlink:title=" ">
<polygon fill="white" stroke="#666666" points="476.61,-20 399.11,-20 399.11,0 476.61,0 476.61,-20"/>
<text text-anchor="middle" x="437.86" y="-6.5" font-family="Helvetica,sans-Serif" font-size="10.00">FMTutility.hpp</text>
</a>
</g>
</g>
<!-- Node1&#45;&gt;Node10 -->
<g id="edge31_Node000001_Node000010" class="edge">
<title>Node1&#45;&gt;Node10</title>
<g id="a_edge31_Node000001_Node000010"><a xlink:title=" ">
<path fill="none" stroke="#63b8ff" d="M356.75,-262.8C222.31,-260.15 -73.06,-241.23 16.86,-124 62.14,-64.96 286.23,-29.95 387.74,-16.89"/>
<polygon fill="#63b8ff" stroke="#63b8ff" points="388.14,-20.24 397.62,-15.51 387.26,-13.29 388.14,-20.24"/>
</a>
</g>
</g>
<!-- Node23 -->
<g id="Node000023" class="node">
<title>Node23</title>
<g id="a_Node000023"><a xlink:title=" ">
<polygon fill="#e0e0e0" stroke="#999999" points="1378.23,-212 1343.48,-212 1343.48,-192 1378.23,-192 1378.23,-212"/>
<text text-anchor="middle" x="1360.86" y="-198.5" font-family="Helvetica,sans-Serif" font-size="10.00">map</text>
</a>
</g>
</g>
<!-- Node1&#45;&gt;Node23 -->
<g id="edge28_Node000001_Node000023" class="edge">
<title>Node1&#45;&gt;Node23</title>
<g id="a_edge28_Node000001_Node000023"><a xlink:title=" ">
<path fill="none" stroke="#63b8ff" d="M482.85,-261.33C661.07,-256.3 1166.48,-239.92 1329.86,-212 1330.67,-211.86 1331.48,-211.71 1332.3,-211.55"/>
<polygon fill="#63b8ff" stroke="#63b8ff" points="1333.1,-214.71 1341.99,-208.93 1331.44,-207.91 1333.1,-214.71"/>
</a>
</g>
</g>
<!-- Node2&#45;&gt;Node3 -->
<g id="edge2_Node000002_Node000003" class="edge">
<title>Node2&#45;&gt;Node3</title>
<g id="a_edge2_Node000002_Node000003"><a xlink:title=" ">
<path fill="none" stroke="#63b8ff" d="M378.92,-196.57C321.04,-189.91 212.14,-175.95 120.86,-156 117.21,-155.2 113.45,-154.29 109.69,-153.32"/>
<polygon fill="#63b8ff" stroke="#63b8ff" points="110.78,-149.72 100.21,-150.48 108.94,-156.48 110.78,-149.72"/>
</a>
</g>
</g>
<!-- Node2&#45;&gt;Node4 -->
<g id="edge3_Node000002_Node000004" class="edge">
<title>Node2&#45;&gt;Node4</title>
<g id="a_edge3_Node000002_Node000004"><a xlink:title=" ">
<path fill="none" stroke="#63b8ff" d="M378.75,-196.28C331.22,-190.11 251.04,-177.48 184.86,-156 183.54,-155.57 182.22,-155.11 180.88,-154.61"/>
<polygon fill="#63b8ff" stroke="#63b8ff" points="182.39,-151.03 171.82,-150.37 179.68,-157.48 182.39,-151.03"/>
</a>
</g>
</g>
<!-- Node5 -->
<g id="Node000005" class="node">
<title>Node5</title>
<g id="a_Node000005"><a xlink:title=" ">
<polygon fill="#e0e0e0" stroke="#999999" points="548.61,-20 495.11,-20 495.11,0 548.61,0 548.61,-20"/>
<text text-anchor="middle" x="521.86" y="-6.5" font-family="Helvetica,sans-Serif" font-size="10.00">iostream</text>
</a>
</g>
</g>
<!-- Node2&#45;&gt;Node5 -->
<g id="edge4_Node000002_Node000005" class="edge">
<title>Node2&#45;&gt;Node5</title>
<g id="a_edge4_Node000002_Node000005"><a xlink:title=" ">
<path fill="none" stroke="#63b8ff" d="M424.92,-191.58C440.82,-161.95 490.05,-70.25 511.59,-30.13"/>
<polygon fill="#63b8ff" stroke="#63b8ff" points="515.12,-31.95 516.77,-21.48 508.96,-28.63 515.12,-31.95"/>
</a>
</g>
</g>
<!-- Node6 -->
<g id="Node000006" class="node">
<title>Node6</title>
<g id="a_Node000006"><a xlink:title=" ">
<polygon fill="#e0e0e0" stroke="#999999" points="241.98,-150 193.73,-150 193.73,-130 241.98,-130 241.98,-150"/>
<text text-anchor="middle" x="217.86" y="-136.5" font-family="Helvetica,sans-Serif" font-size="10.00">fstream</text>
</a>
</g>
</g>
<!-- Node2&#45;&gt;Node6 -->
<g id="edge5_Node000002_Node000006" class="edge">
<title>Node2&#45;&gt;Node6</title>
<g id="a_edge5_Node000002_Node000006"><a xlink:title=" ">
<path fill="none" stroke="#63b8ff" d="M378.99,-192.13C344.39,-184.15 293.74,-171.34 250.86,-156 249.59,-155.55 248.31,-155.07 247.01,-154.56"/>
<polygon fill="#63b8ff" stroke="#63b8ff" points="248.76,-151.08 238.18,-150.43 246.04,-157.53 248.76,-151.08"/>
</a>
</g>
</g>
<!-- Node2&#45;&gt;Node7 -->
<g id="edge6_Node000002_Node000007" class="edge">
<title>Node2&#45;&gt;Node7</title>
<g id="a_edge6_Node000002_Node000007"><a xlink:title=" ">
<path fill="none" stroke="#63b8ff" d="M460.88,-200.42C556.65,-198.51 802.12,-190.37 1003.86,-156 1119.49,-136.3 1176.7,-171.71 1258.86,-88 1273.6,-72.98 1277.51,-48.45 1278.27,-31.12"/>
<polygon fill="#63b8ff" stroke="#63b8ff" points="1281.78,-31.28 1278.38,-21.25 1274.78,-31.21 1281.78,-31.28"/>
</a>
</g>
</g>
<!-- Node2&#45;&gt;Node8 -->
<g id="edge7_Node000002_Node000008" class="edge">
<title>Node2&#45;&gt;Node8</title>
<g id="a_edge7_Node000002_Node000008"><a xlink:title=" ">
<path fill="none" stroke="#63b8ff" d="M460.77,-200.22C578.59,-196.88 927.54,-179.4 1198.86,-88 1199.96,-87.63 1201.08,-87.22 1202.19,-86.79"/>
<polygon fill="#63b8ff" stroke="#63b8ff" points="1203.35,-89.66 1211.08,-82.41 1200.52,-83.26 1203.35,-89.66"/>
</a>
</g>
</g>
<!-- Node9 -->
<g id="Node000009" class="node">
<title>Node9</title>
<g id="a_Node000009"><a xlink:title=" ">
<polygon fill="#e0e0e0" stroke="#999999" points="301.98,-150 259.73,-150 259.73,-130 301.98,-130 301.98,-150"/>
<text text-anchor="middle" x="280.86" y="-136.5" font-family="Helvetica,sans-Serif" font-size="10.00">queue</text>
</a>
</g>
</g>
<!-- Node2&#45;&gt;Node9 -->
<g id="edge8_Node000002_Node000009" class="edge">
<title>Node2&#45;&gt;Node9</title>
<g id="a_edge8_Node000002_Node000009"><a xlink:title=" ">
<path fill="none" stroke="#63b8ff" d="M395.83,-191.66C373.6,-182.88 339.73,-169.16 310.86,-156 310.26,-155.73 309.66,-155.45 309.05,-155.17"/>
<polygon fill="#63b8ff" stroke="#63b8ff" points="310.69,-151.59 300.16,-150.41 307.66,-157.9 310.69,-151.59"/>
</a>
</g>
</g>
<!-- Node2&#45;&gt;Node10 -->
<g id="edge9_Node000002_Node000010" class="edge">
<title>Node2&#45;&gt;Node10</title>
<g id="a_edge9_Node000002_Node000010"><a xlink:title=" ">
<path fill="none" stroke="#63b8ff" d="M420.95,-191.7C422,-182.6 423.62,-168.36 424.86,-156 429.34,-111.31 433.87,-58.8 436.21,-30.85"/>
<polygon fill="#63b8ff" stroke="#63b8ff" points="439.76,-31.42 437.1,-21.17 432.78,-30.84 439.76,-31.42"/>
</a>
</g>
</g>
<!-- Node11 -->
<g id="Node000011" class="node">
<title>Node11</title>
<g id="a_Node000011"><a xlink:title=" ">
<polygon fill="#e0e0e0" stroke="#999999" points="357.73,-150 319.98,-150 319.98,-130 357.73,-130 357.73,-150"/>
<text text-anchor="middle" x="338.86" y="-136.5" font-family="Helvetica,sans-Serif" font-size="10.00">array</text>
</a>
</g>
</g>
<!-- Node2&#45;&gt;Node11 -->
<g id="edge10_Node000002_Node000011" class="edge">
<title>Node2&#45;&gt;Node11</title>
<g id="a_edge10_Node000002_Node000011"><a xlink:title=" ">
<path fill="none" stroke="#63b8ff" d="M407.2,-191.62C394.6,-182.29 375.03,-167.79 360.05,-156.7"/>
<polygon fill="#63b8ff" stroke="#63b8ff" points="362.54,-153.45 352.43,-150.31 358.38,-159.07 362.54,-153.45"/>
</a>
</g>
</g>
<!-- Node12 -->
<g id="Node000012" class="node">
<title>Node12</title>
<g id="a_Node000012"><a xlink:title=" ">
<polygon fill="#e0e0e0" stroke="#999999" points="415.86,-150 375.86,-150 375.86,-130 415.86,-130 415.86,-150"/>
<text text-anchor="middle" x="395.86" y="-136.5" font-family="Helvetica,sans-Serif" font-size="10.00">ctime</text>
</a>
</g>
</g>
<!-- Node2&#45;&gt;Node12 -->
<g id="edge11_Node000002_Node000012" class="edge">
<title>Node2&#45;&gt;Node12</title>
<g id="a_edge11_Node000002_Node000012"><a xlink:title=" ">
<path fill="none" stroke="#63b8ff" d="M416.11,-191.62C412.74,-183.21 407.7,-170.6 403.49,-160.07"/>
<polygon fill="#63b8ff" stroke="#63b8ff" points="406.47,-159.1 399.5,-151.11 399.97,-161.7 406.47,-159.1"/>
</a>
</g>
</g>
<!-- Node13 -->
<g id="Node000013" class="node">
<title>Node13</title>
<g id="a_Node000013"><a xlink:title=" ">
<polygon fill="#e0e0e0" stroke="#999999" points="621.48,-156 510.23,-156 510.23,-124 621.48,-124 621.48,-156"/>
<text text-anchor="start" x="518.23" y="-142.5" font-family="Helvetica,sans-Serif" font-size="10.00">boost/thread/recursive</text>
<text text-anchor="middle" x="565.86" y="-130.5" font-family="Helvetica,sans-Serif" font-size="10.00">_mutex.hpp</text>
</a>
</g>
</g>
<!-- Node2&#45;&gt;Node13 -->
<g id="edge12_Node000002_Node000013" class="edge">
<title>Node2&#45;&gt;Node13</title>
<g id="a_edge12_Node000002_Node000013"><a xlink:title=" ">
<path fill="none" stroke="#63b8ff" d="M442.67,-191.62C462.76,-183.37 492.68,-171.07 518,-160.67"/>
<polygon fill="#63b8ff" stroke="#63b8ff" points="519.25,-163.53 527.16,-156.49 516.58,-157.05 519.25,-163.53"/>
</a>
</g>
</g>
<!-- Node14 -->
<g id="Node000014" class="node">
<title>Node14</title>
<g id="a_Node000014"><a xlink:href="FMTobject_8hpp.html" target="_top" xlink:title=" ">
<polygon fill="white" stroke="#666666" points="829.11,-150 748.61,-150 748.61,-130 829.11,-130 829.11,-150"/>
<text text-anchor="middle" x="788.86" y="-136.5" font-family="Helvetica,sans-Serif" font-size="10.00">FMTobject.hpp</text>
</a>
</g>
</g>
<!-- Node2&#45;&gt;Node14 -->
<g id="edge13_Node000002_Node000014" class="edge">
<title>Node2&#45;&gt;Node14</title>
<g id="a_edge13_Node000002_Node000014"><a xlink:title=" ">
<path fill="none" stroke="#63b8ff" d="M460.76,-194.35C528.54,-183.33 664,-161.3 737.9,-149.29"/>
<polygon fill="#63b8ff" stroke="#63b8ff" points="738.03,-152.65 747.34,-147.59 736.91,-145.74 738.03,-152.65"/>
</a>
</g>
</g>
<!-- Node14&#45;&gt;Node8 -->
<g id="edge25_Node000014_Node000008" class="edge">
<title>Node14&#45;&gt;Node8</title>
<g id="a_edge25_Node000014_Node000008"><a xlink:title=" ">
<path fill="none" stroke="#63b8ff" d="M829.28,-135.73C918.58,-128.21 1130.2,-108.77 1198.86,-88 1200.14,-87.61 1201.44,-87.17 1202.74,-86.69"/>
<polygon fill="#63b8ff" stroke="#63b8ff" points="1203.69,-89.66 1211.45,-82.45 1200.89,-83.24 1203.69,-89.66"/>
</a>
</g>
</g>
<!-- Node15 -->
<g id="Node000015" class="node">
<title>Node15</title>
<g id="a_Node000015"><a xlink:title=" ">
<polygon fill="#e0e0e0" stroke="#999999" points="964.23,-88 869.48,-88 869.48,-56 964.23,-56 964.23,-88"/>
<text text-anchor="start" x="877.48" y="-74.5" font-family="Helvetica,sans-Serif" font-size="10.00">boost/serialization</text>
<text text-anchor="middle" x="916.86" y="-62.5" font-family="Helvetica,sans-Serif" font-size="10.00">/shared_ptr.hpp</text>
</a>
</g>
</g>
<!-- Node14&#45;&gt;Node15 -->
<g id="edge14_Node000014_Node000015" class="edge">
<title>Node14&#45;&gt;Node15</title>
<g id="a_edge14_Node000014_Node000015"><a xlink:title=" ">
<path fill="none" stroke="#63b8ff" d="M807.2,-129.54C825.46,-120.12 854.09,-105.37 877.51,-93.29"/>
<polygon fill="#63b8ff" stroke="#63b8ff" points="878.9,-95.99 886.18,-88.3 875.69,-89.77 878.9,-95.99"/>
</a>
</g>
</g>
<!-- Node16 -->
<g id="Node000016" class="node">
<title>Node16</title>
<g id="a_Node000016"><a xlink:title=" ">
<polygon fill="#e0e0e0" stroke="#999999" points="1077.23,-88 982.48,-88 982.48,-56 1077.23,-56 1077.23,-88"/>
<text text-anchor="start" x="990.48" y="-74.5" font-family="Helvetica,sans-Serif" font-size="10.00">boost/serialization</text>
<text text-anchor="middle" x="1029.86" y="-62.5" font-family="Helvetica,sans-Serif" font-size="10.00">/nvp.hpp</text>
</a>
</g>
</g>
<!-- Node14&#45;&gt;Node16 -->
<g id="edge15_Node000014_Node000016" class="edge">
<title>Node14&#45;&gt;Node16</title>
<g id="a_edge15_Node000014_Node000016"><a xlink:title=" ">
<path fill="none" stroke="#63b8ff" d="M823.39,-129.54C862.03,-118.96 925.27,-101.64 971.6,-88.95"/>
<polygon fill="#63b8ff" stroke="#63b8ff" points="972.38,-92.1 981.1,-86.08 970.53,-85.34 972.38,-92.1"/>
</a>
</g>
</g>
<!-- Node17 -->
<g id="Node000017" class="node">
<title>Node17</title>
<g id="a_Node000017"><a xlink:title=" ">
<polygon fill="#e0e0e0" stroke="#999999" points="1190.23,-88 1095.48,-88 1095.48,-56 1190.23,-56 1190.23,-88"/>
<text text-anchor="start" x="1103.48" y="-74.5" font-family="Helvetica,sans-Serif" font-size="10.00">boost/serialization</text>
<text text-anchor="middle" x="1142.86" y="-62.5" font-family="Helvetica,sans-Serif" font-size="10.00">/export.hpp</text>
</a>
</g>
</g>
<!-- Node14&#45;&gt;Node17 -->
<g id="edge16_Node000014_Node000017" class="edge">
<title>Node14&#45;&gt;Node17</title>
<g id="a_edge16_Node000014_Node000017"><a xlink:title=" ">
<path fill="none" stroke="#63b8ff" d="M829.43,-133.18C884.8,-124.99 987.32,-108.93 1084.44,-88.19"/>
<polygon fill="#63b8ff" stroke="#63b8ff" points="1085,-91.44 1094.04,-85.91 1083.52,-84.6 1085,-91.44"/>
</a>
</g>
</g>
<!-- Node18 -->
<g id="Node000018" class="node">
<title>Node18</title>
<g id="a_Node000018"><a xlink:href="FMTexception_8hpp.html" target="_top" xlink:title=" ">
<polygon fill="white" stroke="#666666" points="707.98,-82 611.73,-82 611.73,-62 707.98,-62 707.98,-82"/>
<text text-anchor="middle" x="659.86" y="-68.5" font-family="Helvetica,sans-Serif" font-size="10.00">FMTexception.hpp</text>
</a>
</g>
</g>
<!-- Node14&#45;&gt;Node18 -->
<g id="edge17_Node000014_Node000018" class="edge">
<title>Node14&#45;&gt;Node18</title>
<g id="a_edge17_Node000014_Node000018"><a xlink:title=" ">
<path fill="none" stroke="#63b8ff" d="M770.38,-129.54C748.82,-118.52 712.96,-100.17 687.96,-87.38"/>
<polygon fill="#63b8ff" stroke="#63b8ff" points="689.8,-83.88 679.31,-82.44 686.61,-90.11 689.8,-83.88"/>
</a>
</g>
</g>
<!-- Node20 -->
<g id="Node000020" class="node">
<title>Node20</title>
<g id="a_Node000020"><a xlink:title=" ">
<polygon fill="#e0e0e0" stroke="#999999" points="617.48,-20 566.23,-20 566.23,0 617.48,0 617.48,-20"/>
<text text-anchor="middle" x="591.86" y="-6.5" font-family="Helvetica,sans-Serif" font-size="10.00">memory</text>
</a>
</g>
</g>
<!-- Node14&#45;&gt;Node20 -->
<g id="edge23_Node000014_Node000020" class="edge">
<title>Node14&#45;&gt;Node20</title>
<g id="a_edge23_Node000014_Node000020"><a xlink:title=" ">
<path fill="none" stroke="#63b8ff" d="M748.33,-136.77C684.44,-132.31 564.84,-119.82 538.86,-88 529.86,-76.98 532.88,-68.91 538.86,-56 544.46,-43.88 555.12,-33.84 565.41,-26.33"/>
<polygon fill="#63b8ff" stroke="#63b8ff" points="566.89,-28.89 573.23,-20.41 562.98,-23.08 566.89,-28.89"/>
</a>
</g>
</g>
<!-- Node21 -->
<g id="Node000021" class="node">
<title>Node21</title>
<g id="a_Node000021"><a xlink:title=" ">
<polygon fill="#e0e0e0" stroke="#999999" points="593.48,-82 548.23,-82 548.23,-62 593.48,-62 593.48,-82"/>
<text text-anchor="middle" x="570.86" y="-68.5" font-family="Helvetica,sans-Serif" font-size="10.00">chrono</text>
</a>
</g>
</g>
<!-- Node14&#45;&gt;Node21 -->
<g id="edge24_Node000014_Node000021" class="edge">
<title>Node14&#45;&gt;Node21</title>
<g id="a_edge24_Node000014_Node000021"><a xlink:title=" ">
<path fill="none" stroke="#63b8ff" d="M748.32,-130C710.22,-121.05 651.87,-106.06 602.86,-88 601.76,-87.6 600.66,-87.17 599.54,-86.73"/>
<polygon fill="#63b8ff" stroke="#63b8ff" points="601.15,-83.18 590.58,-82.43 598.38,-89.6 601.15,-83.18"/>
</a>
</g>
</g>
<!-- Node22 -->
<g id="Node000022" class="node">
<title>Node22</title>
<g id="a_Node000022"><a xlink:title=" ">
<polygon fill="#e0e0e0" stroke="#999999" points="851.23,-88 726.48,-88 726.48,-56 851.23,-56 851.23,-88"/>
<text text-anchor="start" x="734.48" y="-74.5" font-family="Helvetica,sans-Serif" font-size="10.00">boost/dll/runtime_symbol</text>
<text text-anchor="middle" x="788.86" y="-62.5" font-family="Helvetica,sans-Serif" font-size="10.00">_info.hpp</text>
</a>
</g>
</g>
<!-- Node14&#45;&gt;Node22 -->
<g id="edge26_Node000014_Node000022" class="edge">
<title>Node14&#45;&gt;Node22</title>
<g id="a_edge26_Node000014_Node000022"><a xlink:title=" ">
<path fill="none" stroke="#63b8ff" d="M788.86,-129.54C788.86,-121.64 788.86,-109.97 788.86,-99.29"/>
<polygon fill="#63b8ff" stroke="#63b8ff" points="792.36,-99.3 788.86,-89.3 785.36,-99.3 792.36,-99.3"/>
</a>
</g>
</g>
<!-- Node18&#45;&gt;Node5 -->
<g id="edge20_Node000018_Node000005" class="edge">
<title>Node18&#45;&gt;Node5</title>
<g id="a_edge20_Node000018_Node000005"><a xlink:title=" ">
<path fill="none" stroke="#63b8ff" d="M638.3,-61.62C615.41,-51.67 579.02,-35.85 553.02,-24.55"/>
<polygon fill="#63b8ff" stroke="#63b8ff" points="554.84,-21.09 544.27,-20.31 552.04,-27.51 554.84,-21.09"/>
</a>
</g>
</g>
<!-- Node18&#45;&gt;Node7 -->
<g id="edge19_Node000018_Node000007" class="edge">
<title>Node18&#45;&gt;Node7</title>
<g id="a_edge19_Node000018_Node000007"><a xlink:title=" ">
<path fill="none" stroke="#63b8ff" d="M692.47,-61.51C700.69,-59.41 709.55,-57.4 717.86,-56 917.41,-22.44 1161.31,-13.72 1246.62,-11.62"/>
<polygon fill="#63b8ff" stroke="#63b8ff" points="1246.44,-15.1 1256.36,-11.37 1246.28,-8.1 1246.44,-15.1"/>
</a>
</g>
</g>
<!-- Node18&#45;&gt;Node10 -->
<g id="edge22_Node000018_Node000010" class="edge">
<title>Node18&#45;&gt;Node10</title>
<g id="a_edge22_Node000018_Node000010"><a xlink:title=" ">
<path fill="none" stroke="#63b8ff" d="M625.17,-61.62C586.92,-51.29 525.22,-34.61 483.17,-23.25"/>
<polygon fill="#63b8ff" stroke="#63b8ff" points="484.23,-19.64 473.67,-20.41 482.41,-26.4 484.23,-19.64"/>
</a>
</g>
</g>
<!-- Node19 -->
<g id="Node000019" class="node">
<title>Node19</title>
<g id="a_Node000019"><a xlink:title=" ">
<polygon fill="#e0e0e0" stroke="#999999" points="693.86,-20 635.86,-20 635.86,0 693.86,0 693.86,-20"/>
<text text-anchor="middle" x="664.86" y="-6.5" font-family="Helvetica,sans-Serif" font-size="10.00">exception</text>
</a>
</g>
</g>
<!-- Node18&#45;&gt;Node19 -->
<g id="edge18_Node000018_Node000019" class="edge">
<title>Node18&#45;&gt;Node19</title>
<g id="a_edge18_Node000018_Node000019"><a xlink:title=" ">
<path fill="none" stroke="#63b8ff" d="M660.64,-61.62C661.32,-53.48 662.33,-41.39 663.19,-31.07"/>
<polygon fill="#63b8ff" stroke="#63b8ff" points="666.76,-31.37 664.1,-21.11 659.78,-30.79 666.76,-31.37"/>
</a>
</g>
</g>
<!-- Node18&#45;&gt;Node20 -->
<g id="edge21_Node000018_Node000020" class="edge">
<title>Node18&#45;&gt;Node20</title>
<g id="a_edge21_Node000018_Node000020"><a xlink:title=" ">
<path fill="none" stroke="#63b8ff" d="M649.23,-61.62C638.79,-52.41 622.65,-38.17 610.15,-27.14"/>
<polygon fill="#63b8ff" stroke="#63b8ff" points="613,-25.1 603.19,-21.11 608.37,-30.35 613,-25.1"/>
</a>
</g>
</g>
</g>
</svg>
