<?xml version="1.0" encoding="UTF-8" standalone="no"?>
<!DOCTYPE svg PUBLIC "-//W3C//DTD SVG 1.1//EN"
 "http://www.w3.org/Graphics/SVG/1.1/DTD/svg11.dtd">
<!-- Generated by graphviz version 10.0.1 (20240210.2158)
 -->
<!-- Title: D:/FMT/Include/FMTactualdevelopment.hpp Pages: 1 -->
<svg width="2071pt" height="532pt"
 viewBox="0.00 0.00 2071.23 532.00" xmlns="http://www.w3.org/2000/svg" xmlns:xlink="http://www.w3.org/1999/xlink">
<g id="graph0" class="graph" transform="scale(1 1) rotate(0) translate(4 528)">
<title>D:/FMT/Include/FMTactualdevelopment.hpp</title>
<!-- Node1 -->
<g id="node1" class="node">
<title>Node1</title>
<g id="a_node1"><a xlink:title=" ">
<polygon fill="#999999" stroke="#666666" points="1342.56,-524 1139.06,-524 1139.06,-504 1342.56,-504 1342.56,-524"/>
<text text-anchor="middle" x="1240.81" y="-510.5" font-family="Helvetica,sans-Serif" font-size="10.00">D:/FMT/Include/FMTactualdevelopment.hpp</text>
</a>
</g>
</g>
<!-- Node2 -->
<g id="node2" class="node">
<title>Node2</title>
<g id="a_node2"><a xlink:href="FMTbasevertexproperties_8hpp.html" target="_top" xlink:title=" ">
<polygon fill="white" stroke="#666666" points="1124.06,-468 911.56,-468 911.56,-448 1124.06,-448 1124.06,-468"/>
<text text-anchor="middle" x="1017.81" y="-454.5" font-family="Helvetica,sans-Serif" font-size="10.00">D:/FMT/Include/FMTbasevertexproperties.hpp</text>
</a>
</g>
</g>
<!-- Node1&#45;&gt;Node2 -->
<g id="edge1" class="edge">
<title>Node1&#45;&gt;Node2</title>
<path fill="none" stroke="#63b8ff" d="M1190.73,-500.88C1150.25,-491.07 1094.07,-477.47 1056.86,-468.46"/>
<polygon fill="#63b8ff" stroke="#63b8ff" points="1189.69,-504.22 1200.24,-503.18 1191.34,-497.42 1189.69,-504.22"/>
</g>
<!-- Node4 -->
<g id="node4" class="node">
<title>Node4</title>
<g id="a_node4"><a xlink:href="FMTgraph_8hpp.html" target="_top" xlink:title=" ">
<polygon fill="white" stroke="#666666" points="905.43,-356 758.18,-356 758.18,-336 905.43,-336 905.43,-356"/>
<text text-anchor="middle" x="831.81" y="-342.5" font-family="Helvetica,sans-Serif" font-size="10.00">D:/FMT/Include/FMTgraph.hpp</text>
</a>
</g>
</g>
<!-- Node1&#45;&gt;Node4 -->
<g id="edge51" class="edge">
<title>Node1&#45;&gt;Node4</title>
<path fill="none" stroke="#63b8ff" d="M1127.22,-508.46C1043.73,-503.19 938.81,-491.91 902.81,-468 861.21,-440.38 840.7,-379.4 834.18,-356.2"/>
<polygon fill="#63b8ff" stroke="#63b8ff" points="1126.89,-511.95 1137.08,-509.06 1127.31,-504.96 1126.89,-511.95"/>
</g>
<!-- Node10 -->
<g id="node10" class="node">
<title>Node10</title>
<g id="a_node10"><a xlink:href="Rdeclarations_8hpp.html" target="_top" xlink:title=" ">
<polygon fill="white" stroke="#666666" points="1251.31,-76 1088.31,-76 1088.31,-56 1251.31,-56 1251.31,-76"/>
<text text-anchor="middle" x="1169.81" y="-62.5" font-family="Helvetica,sans-Serif" font-size="10.00">D:/FMT/Include/Rdeclarations.hpp</text>
</a>
</g>
</g>
<!-- Node1&#45;&gt;Node10 -->
<g id="edge67" class="edge">
<title>Node1&#45;&gt;Node10</title>
<path fill="none" stroke="#63b8ff" d="M1229.7,-493.6C1218.49,-472.15 1202.81,-436.23 1202.81,-403 1202.81,-403 1202.81,-403 1202.81,-345 1202.81,-266.28 1147.52,-262.05 1120.81,-188 1112.17,-164.06 1111.49,-157.31 1108.81,-132 1107.87,-123.16 1104.8,-119.93 1108.81,-112 1117.05,-95.67 1134.33,-83.81 1148.39,-76.37"/>
<polygon fill="#63b8ff" stroke="#63b8ff" points="1226.61,-495.24 1234.47,-502.34 1232.75,-491.88 1226.61,-495.24"/>
</g>
<!-- Node26 -->
<g id="node26" class="node">
<title>Node26</title>
<g id="a_node26"><a xlink:href="FMTmodel_8hpp.html" target="_top" xlink:title=" ">
<polygon fill="white" stroke="#666666" points="1405.56,-412 1256.06,-412 1256.06,-392 1405.56,-392 1405.56,-412"/>
<text text-anchor="middle" x="1330.81" y="-398.5" font-family="Helvetica,sans-Serif" font-size="10.00">D:/FMT/Include/FMTmodel.hpp</text>
</a>
</g>
</g>
<!-- Node1&#45;&gt;Node26 -->
<g id="edge52" class="edge">
<title>Node1&#45;&gt;Node26</title>
<path fill="none" stroke="#63b8ff" d="M1244.9,-492.58C1248.43,-478.9 1254.6,-461.07 1264.81,-448 1277.01,-432.37 1296.18,-420.16 1310.71,-412.43"/>
<polygon fill="#63b8ff" stroke="#63b8ff" points="1241.51,-491.72 1242.71,-502.25 1248.34,-493.28 1241.51,-491.72"/>
</g>
<!-- Node29 -->
<g id="node29" class="node">
<title>Node29</title>
<g id="a_node29"><a xlink:href="FMTreplanningtask_8hpp.html" target="_top" xlink:title=" ">
<polygon fill="white" stroke="#666666" points="1731.93,-412 1545.68,-412 1545.68,-392 1731.93,-392 1731.93,-412"/>
<text text-anchor="middle" x="1638.81" y="-398.5" font-family="Helvetica,sans-Serif" font-size="10.00">D:/FMT/Include/FMTreplanningtask.hpp</text>
</a>
</g>
</g>
<!-- Node1&#45;&gt;Node29 -->
<g id="edge62" class="edge">
<title>Node1&#45;&gt;Node29</title>
<path fill="none" stroke="#63b8ff" d="M1251.92,-494.11C1261.9,-478.97 1278.02,-458.58 1297.81,-448 1339.41,-425.76 1459.55,-413.83 1545.44,-407.95"/>
<polygon fill="#63b8ff" stroke="#63b8ff" points="1249.15,-491.94 1246.82,-502.27 1255.08,-495.65 1249.15,-491.94"/>
</g>
<!-- Node30 -->
<g id="node30" class="node">
<title>Node30</title>
<g id="a_node30"><a xlink:href="PYexportCore_8hpp.html" target="_top" xlink:title=" ">
<polygon fill="white" stroke="#666666" points="1471.06,-468 1306.56,-468 1306.56,-448 1471.06,-448 1471.06,-468"/>
<text text-anchor="middle" x="1388.81" y="-454.5" font-family="Helvetica,sans-Serif" font-size="10.00">D:/FMT/Include/PYexportCore.hpp</text>
</a>
</g>
</g>
<!-- Node1&#45;&gt;Node30 -->
<g id="edge66" class="edge">
<title>Node1&#45;&gt;Node30</title>
<path fill="none" stroke="#63b8ff" d="M1277.36,-499.66C1303.89,-489.98 1339.14,-477.12 1362.82,-468.48"/>
<polygon fill="#63b8ff" stroke="#63b8ff" points="1276.2,-496.36 1268.01,-503.08 1278.6,-502.94 1276.2,-496.36"/>
</g>
<!-- Node31 -->
<g id="node31" class="node">
<title>Node31</title>
<g id="a_node31"><a xlink:href="RexportCore_8hpp.html" target="_top" xlink:title=" ">
<polygon fill="white" stroke="#666666" points="1646.68,-468 1488.93,-468 1488.93,-448 1646.68,-448 1646.68,-468"/>
<text text-anchor="middle" x="1567.81" y="-454.5" font-family="Helvetica,sans-Serif" font-size="10.00">D:/FMT/Include/RexportCore.hpp</text>
</a>
</g>
</g>
<!-- Node1&#45;&gt;Node31 -->
<g id="edge68" class="edge">
<title>Node1&#45;&gt;Node31</title>
<path fill="none" stroke="#63b8ff" d="M1309.34,-501.68C1368.99,-491.83 1454.46,-477.72 1510.54,-468.46"/>
<polygon fill="#63b8ff" stroke="#63b8ff" points="1308.93,-498.2 1299.63,-503.29 1310.07,-505.11 1308.93,-498.2"/>
</g>
<!-- Node3 -->
<g id="node3" class="node">
<title>Node3</title>
<g id="a_node3"><a xlink:href="FMTvertexproperties_8hpp.html" target="_top" xlink:title=" ">
<polygon fill="white" stroke="#666666" points="1095.56,-412 904.06,-412 904.06,-392 1095.56,-392 1095.56,-412"/>
<text text-anchor="middle" x="999.81" y="-398.5" font-family="Helvetica,sans-Serif" font-size="10.00">D:/FMT/Include/FMTvertexproperties.hpp</text>
</a>
</g>
</g>
<!-- Node2&#45;&gt;Node3 -->
<g id="edge2" class="edge">
<title>Node2&#45;&gt;Node3</title>
<path fill="none" stroke="#63b8ff" d="M1011.04,-436.71C1008.25,-428.32 1005.14,-419.01 1002.91,-412.3"/>
<polygon fill="#63b8ff" stroke="#63b8ff" points="1007.71,-437.78 1014.19,-446.16 1014.35,-435.56 1007.71,-437.78"/>
</g>
<!-- Node3&#45;&gt;Node4 -->
<g id="edge3" class="edge">
<title>Node3&#45;&gt;Node4</title>
<path fill="none" stroke="#63b8ff" d="M959.91,-388.18C929.63,-378.44 888.67,-365.28 861.3,-356.48"/>
<polygon fill="#63b8ff" stroke="#63b8ff" points="958.51,-391.4 969.1,-391.13 960.65,-384.74 958.51,-391.4"/>
</g>
<!-- Node20 -->
<g id="node20" class="node">
<title>Node20</title>
<g id="a_node20"><a xlink:href="FMTsrmodel_8hpp.html" target="_top" xlink:title=" ">
<polygon fill="white" stroke="#666666" points="1356.68,-188 1198.93,-188 1198.93,-168 1356.68,-168 1356.68,-188"/>
<text text-anchor="middle" x="1277.81" y="-174.5" font-family="Helvetica,sans-Serif" font-size="10.00">D:/FMT/Include/FMTsrmodel.hpp</text>
</a>
</g>
</g>
<!-- Node3&#45;&gt;Node20 -->
<g id="edge50" class="edge">
<title>Node3&#45;&gt;Node20</title>
<path fill="none" stroke="#63b8ff" d="M1025.52,-385.71C1068.5,-359.54 1156.61,-303.24 1221.81,-244 1241.43,-226.17 1260.84,-201.71 1270.84,-188.46"/>
<polygon fill="#63b8ff" stroke="#63b8ff" points="1023.9,-382.6 1017.15,-390.77 1027.52,-388.59 1023.9,-382.6"/>
</g>
<!-- Node25 -->
<g id="node25" class="node">
<title>Node25</title>
<g id="a_node25"><a xlink:href="FMTgraphdescription_8hpp.html" target="_top" xlink:title=" ">
<polygon fill="white" stroke="#666666" points="209.06,-356 14.56,-356 14.56,-336 209.06,-336 209.06,-356"/>
<text text-anchor="middle" x="111.81" y="-342.5" font-family="Helvetica,sans-Serif" font-size="10.00">D:/FMT/Include/FMTgraphdescription.hpp</text>
</a>
</g>
</g>
<!-- Node3&#45;&gt;Node25 -->
<g id="edge49" class="edge">
<title>Node3&#45;&gt;Node25</title>
<path fill="none" stroke="#63b8ff" d="M892.31,-395.56C742.31,-387.79 461.74,-372.6 222.81,-356 218.47,-355.7 214.03,-355.38 209.55,-355.05"/>
<polygon fill="#63b8ff" stroke="#63b8ff" points="892.08,-399.05 902.25,-396.07 892.45,-392.06 892.08,-399.05"/>
</g>
<!-- Node5 -->
<g id="node5" class="node">
<title>Node5</title>
<g id="a_node5"><a xlink:href="FMTlinegraph_8hpp.html" target="_top" xlink:title=" ">
<polygon fill="white" stroke="#666666" points="1098.93,-300 936.68,-300 936.68,-280 1098.93,-280 1098.93,-300"/>
<text text-anchor="middle" x="1017.81" y="-286.5" font-family="Helvetica,sans-Serif" font-size="10.00">D:/FMT/Include/FMTlinegraph.hpp</text>
</a>
</g>
</g>
<!-- Node4&#45;&gt;Node5 -->
<g id="edge4" class="edge">
<title>Node4&#45;&gt;Node5</title>
<path fill="none" stroke="#63b8ff" d="M875.09,-332.43C908.7,-322.67 954.58,-309.35 985.15,-300.48"/>
<polygon fill="#63b8ff" stroke="#63b8ff" points="874.29,-329.02 865.66,-335.17 876.24,-335.74 874.29,-329.02"/>
</g>
<!-- Node15 -->
<g id="node15" class="node">
<title>Node15</title>
<g id="a_node15"><a xlink:href="RexportSpatial_8hpp.html" target="_top" xlink:title=" ">
<polygon fill="white" stroke="#666666" points="855.56,-188 688.06,-188 688.06,-168 855.56,-168 855.56,-188"/>
<text text-anchor="middle" x="771.81" y="-174.5" font-family="Helvetica,sans-Serif" font-size="10.00">D:/FMT/Include/RexportSpatial.hpp</text>
</a>
</g>
</g>
<!-- Node4&#45;&gt;Node15 -->
<g id="edge48" class="edge">
<title>Node4&#45;&gt;Node15</title>
<path fill="none" stroke="#63b8ff" d="M746.54,-343.46C611.09,-340.13 359.17,-329.94 331.81,-300 281.19,-244.63 546.24,-204.97 687.63,-188.07"/>
<polygon fill="#63b8ff" stroke="#63b8ff" points="746.09,-346.95 756.17,-343.69 746.25,-339.96 746.09,-346.95"/>
</g>
<!-- Node16 -->
<g id="node16" class="node">
<title>Node16</title>
<g id="a_node16"><a xlink:href="FMToperatingareascheme_8hpp.html" target="_top" xlink:title=" ">
<polygon fill="white" stroke="#666666" points="223.93,-188 7.68,-188 7.68,-168 223.93,-168 223.93,-188"/>
<text text-anchor="middle" x="115.81" y="-174.5" font-family="Helvetica,sans-Serif" font-size="10.00">D:/FMT/Include/FMToperatingareascheme.hpp</text>
</a>
</g>
</g>
<!-- Node4&#45;&gt;Node16 -->
<g id="edge23" class="edge">
<title>Node4&#45;&gt;Node16</title>
<path fill="none" stroke="#63b8ff" d="M746.56,-342.01C622.48,-336.9 398.57,-324.55 321.81,-300 240.82,-274.1 157.44,-212.09 127.43,-188.41"/>
<polygon fill="#63b8ff" stroke="#63b8ff" points="746.23,-345.5 756.37,-342.41 746.52,-338.51 746.23,-345.5"/>
</g>
<!-- Node19 -->
<g id="node19" class="node">
<title>Node19</title>
<g id="a_node19"><a xlink:href="FMToutputnodecache_8hpp.html" target="_top" xlink:title=" ">
<polygon fill="white" stroke="#666666" points="538.56,-300 341.06,-300 341.06,-280 538.56,-280 538.56,-300"/>
<text text-anchor="middle" x="439.81" y="-286.5" font-family="Helvetica,sans-Serif" font-size="10.00">D:/FMT/Include/FMToutputnodecache.hpp</text>
</a>
</g>
</g>
<!-- Node4&#45;&gt;Node19 -->
<g id="edge31" class="edge">
<title>Node4&#45;&gt;Node19</title>
<path fill="none" stroke="#63b8ff" d="M746.76,-334.05C673.47,-324.18 569.37,-309.83 503.18,-300.46"/>
<polygon fill="#63b8ff" stroke="#63b8ff" points="745.92,-337.47 756.3,-335.33 746.85,-330.53 745.92,-337.47"/>
</g>
<!-- Node4&#45;&gt;Node20 -->
<g id="edge33" class="edge">
<title>Node4&#45;&gt;Node20</title>
<path fill="none" stroke="#63b8ff" d="M917.06,-341.12C973.04,-336.18 1046.89,-325.05 1107.81,-300 1142.82,-285.6 1233.97,-214.07 1266.26,-188.28"/>
<polygon fill="#63b8ff" stroke="#63b8ff" points="916.94,-337.62 907.26,-341.93 917.52,-344.59 916.94,-337.62"/>
</g>
<!-- Node23 -->
<g id="node23" class="node">
<title>Node23</title>
<g id="a_node23"><a xlink:href="PYexportGraph_8hpp.html" target="_top" xlink:title=" ">
<polygon fill="white" stroke="#666666" points="727.06,-300 556.56,-300 556.56,-280 727.06,-280 727.06,-300"/>
<text text-anchor="middle" x="641.81" y="-286.5" font-family="Helvetica,sans-Serif" font-size="10.00">D:/FMT/Include/PYexportGraph.hpp</text>
</a>
</g>
</g>
<!-- Node4&#45;&gt;Node23 -->
<g id="edge46" class="edge">
<title>Node4&#45;&gt;Node23</title>
<path fill="none" stroke="#63b8ff" d="M788.03,-332.56C753.66,-322.79 706.52,-309.39 675.16,-300.48"/>
<polygon fill="#63b8ff" stroke="#63b8ff" points="786.68,-335.81 797.25,-335.18 788.59,-329.08 786.68,-335.81"/>
</g>
<!-- Node24 -->
<g id="node24" class="node">
<title>Node24</title>
<g id="a_node24"><a xlink:href="PYexportSpatial_8hpp.html" target="_top" xlink:title=" ">
<polygon fill="white" stroke="#666666" points="918.93,-300 744.68,-300 744.68,-280 918.93,-280 918.93,-300"/>
<text text-anchor="middle" x="831.81" y="-286.5" font-family="Helvetica,sans-Serif" font-size="10.00">D:/FMT/Include/PYexportSpatial.hpp</text>
</a>
</g>
</g>
<!-- Node4&#45;&gt;Node24 -->
<g id="edge47" class="edge">
<title>Node4&#45;&gt;Node24</title>
<path fill="none" stroke="#63b8ff" d="M831.81,-324.13C831.81,-315.9 831.81,-306.85 831.81,-300.3"/>
<polygon fill="#63b8ff" stroke="#63b8ff" points="828.31,-324.08 831.81,-334.08 835.31,-324.08 828.31,-324.08"/>
</g>
<!-- Node6 -->
<g id="node6" class="node">
<title>Node6</title>
<g id="a_node6"><a xlink:href="FMTspatialschedule_8hpp.html" target="_top" xlink:title=" ">
<polygon fill="white" stroke="#666666" points="990.18,-244 799.43,-244 799.43,-224 990.18,-224 990.18,-244"/>
<text text-anchor="middle" x="894.81" y="-230.5" font-family="Helvetica,sans-Serif" font-size="10.00">D:/FMT/Include/FMTspatialschedule.hpp</text>
</a>
</g>
</g>
<!-- Node5&#45;&gt;Node6 -->
<g id="edge5" class="edge">
<title>Node5&#45;&gt;Node6</title>
<path fill="none" stroke="#63b8ff" d="M985.94,-275.01C964.07,-265.41 935.65,-252.93 916.4,-244.48"/>
<polygon fill="#63b8ff" stroke="#63b8ff" points="984.43,-278.17 994.99,-278.99 987.25,-271.76 984.43,-278.17"/>
</g>
<!-- Node5&#45;&gt;Node10 -->
<g id="edge21" class="edge">
<title>Node5&#45;&gt;Node10</title>
<path fill="none" stroke="#63b8ff" d="M1014.32,-268.68C1009.38,-232.77 1004.66,-157.59 1041.81,-112 1056.69,-93.74 1079.47,-82.88 1101.72,-76.42"/>
<polygon fill="#63b8ff" stroke="#63b8ff" points="1010.79,-268.78 1015.78,-278.13 1017.71,-267.72 1010.79,-268.78"/>
</g>
<!-- Node5&#45;&gt;Node15 -->
<g id="edge22" class="edge">
<title>Node5&#45;&gt;Node15</title>
<path fill="none" stroke="#63b8ff" d="M940.9,-277.77C879.54,-268.16 802.04,-254.28 790.81,-244 774.85,-229.4 772.01,-202.21 771.68,-188.07"/>
<polygon fill="#63b8ff" stroke="#63b8ff" points="940.24,-281.21 950.66,-279.29 941.31,-274.3 940.24,-281.21"/>
</g>
<!-- Node7 -->
<g id="node7" class="node">
<title>Node7</title>
<g id="a_node7"><a xlink:href="FMTsemodel_8hpp.html" target="_top" xlink:title=" ">
<polygon fill="white" stroke="#666666" points="1574.81,-188 1414.81,-188 1414.81,-168 1574.81,-168 1574.81,-188"/>
<text text-anchor="middle" x="1494.81" y="-174.5" font-family="Helvetica,sans-Serif" font-size="10.00">D:/FMT/Include/FMTsemodel.hpp</text>
</a>
</g>
</g>
<!-- Node6&#45;&gt;Node7 -->
<g id="edge6" class="edge">
<title>Node6&#45;&gt;Node7</title>
<path fill="none" stroke="#63b8ff" d="M1001.76,-223.37C1120.03,-212.73 1307.87,-195.82 1414.31,-186.24"/>
<polygon fill="#63b8ff" stroke="#63b8ff" points="1001.69,-219.87 992.05,-224.25 1002.32,-226.84 1001.69,-219.87"/>
</g>
<!-- Node6&#45;&gt;Node15 -->
<g id="edge20" class="edge">
<title>Node6&#45;&gt;Node15</title>
<path fill="none" stroke="#63b8ff" d="M862.94,-219.01C841.07,-209.41 812.65,-196.93 793.4,-188.48"/>
<polygon fill="#63b8ff" stroke="#63b8ff" points="861.43,-222.17 871.99,-222.99 864.25,-215.76 861.43,-222.17"/>
</g>
<!-- Node8 -->
<g id="node8" class="node">
<title>Node8</title>
<g id="a_node8"><a xlink:href="FMTsamodel_8hpp.html" target="_top" xlink:title=" ">
<polygon fill="white" stroke="#666666" points="2014.81,-132 1854.81,-132 1854.81,-112 2014.81,-112 2014.81,-132"/>
<text text-anchor="middle" x="1934.81" y="-118.5" font-family="Helvetica,sans-Serif" font-size="10.00">D:/FMT/Include/FMTsamodel.hpp</text>
</a>
</g>
</g>
<!-- Node7&#45;&gt;Node8 -->
<g id="edge7" class="edge">
<title>Node7&#45;&gt;Node8</title>
<path fill="none" stroke="#63b8ff" d="M1583.28,-166.14C1663.59,-156.29 1780.83,-141.9 1857.47,-132.49"/>
<polygon fill="#63b8ff" stroke="#63b8ff" points="1583.2,-162.62 1573.71,-167.32 1584.06,-169.57 1583.2,-162.62"/>
</g>
<!-- Node9 -->
<g id="node9" class="node">
<title>Node9</title>
<g id="a_node9"><a xlink:href="PYexportModel_8hpp.html" target="_top" xlink:title=" ">
<polygon fill="white" stroke="#666666" points="1854.06,-76 1683.56,-76 1683.56,-56 1854.06,-56 1854.06,-76"/>
<text text-anchor="middle" x="1768.81" y="-62.5" font-family="Helvetica,sans-Serif" font-size="10.00">D:/FMT/Include/PYexportModel.hpp</text>
</a>
</g>
</g>
<!-- Node7&#45;&gt;Node9 -->
<g id="edge17" class="edge">
<title>Node7&#45;&gt;Node9</title>
<path fill="none" stroke="#63b8ff" d="M1586.22,-176.37C1666.68,-173.64 1775.21,-163.92 1802.81,-132 1817.71,-114.75 1795.15,-89.85 1780.23,-76.42"/>
<polygon fill="#63b8ff" stroke="#63b8ff" points="1586.47,-172.86 1576.58,-176.66 1586.68,-179.86 1586.47,-172.86"/>
</g>
<!-- Node7&#45;&gt;Node10 -->
<g id="edge18" class="edge">
<title>Node7&#45;&gt;Node10</title>
<path fill="none" stroke="#63b8ff" d="M1464.78,-162.59C1446.75,-153.87 1423.39,-142.45 1402.81,-132 1385.79,-123.36 1382.7,-118.65 1364.81,-112 1320.35,-95.49 1267.86,-83.79 1228.55,-76.47"/>
<polygon fill="#63b8ff" stroke="#63b8ff" points="1463.09,-165.66 1473.62,-166.85 1466.13,-159.36 1463.09,-165.66"/>
</g>
<!-- Node11 -->
<g id="node11" class="node">
<title>Node11</title>
<g id="a_node11"><a xlink:href="RexportModel_8hpp.html" target="_top" xlink:title=" ">
<polygon fill="white" stroke="#666666" points="2035.68,-76 1871.93,-76 1871.93,-56 2035.68,-56 2035.68,-76"/>
<text text-anchor="middle" x="1953.81" y="-62.5" font-family="Helvetica,sans-Serif" font-size="10.00">D:/FMT/Include/RexportModel.hpp</text>
</a>
</g>
</g>
<!-- Node7&#45;&gt;Node11 -->
<g id="edge19" class="edge">
<title>Node7&#45;&gt;Node11</title>
<path fill="none" stroke="#63b8ff" d="M1586.28,-176.31C1737.38,-174.22 2025.61,-165.79 2056.81,-132 2080.18,-106.67 2032.03,-87.25 1993.97,-76.48"/>
<polygon fill="#63b8ff" stroke="#63b8ff" points="1586.67,-172.81 1576.71,-176.44 1586.76,-179.81 1586.67,-172.81"/>
</g>
<!-- Node12 -->
<g id="node12" class="node">
<title>Node12</title>
<g id="a_node12"><a xlink:href="FMTsesmodel_8hpp.html" target="_top" xlink:title=" ">
<polygon fill="white" stroke="#666666" points="1577.43,-132 1412.18,-132 1412.18,-112 1577.43,-112 1577.43,-132"/>
<text text-anchor="middle" x="1494.81" y="-118.5" font-family="Helvetica,sans-Serif" font-size="10.00">D:/FMT/Include/FMTsesmodel.hpp</text>
</a>
</g>
</g>
<!-- Node7&#45;&gt;Node12 -->
<g id="edge11" class="edge">
<title>Node7&#45;&gt;Node12</title>
<path fill="none" stroke="#63b8ff" d="M1494.81,-156.13C1494.81,-147.9 1494.81,-138.85 1494.81,-132.3"/>
<polygon fill="#63b8ff" stroke="#63b8ff" points="1491.31,-156.08 1494.81,-166.08 1498.31,-156.08 1491.31,-156.08"/>
</g>
<!-- Node8&#45;&gt;Node9 -->
<g id="edge8" class="edge">
<title>Node8&#45;&gt;Node9</title>
<path fill="none" stroke="#63b8ff" d="M1894.99,-108.05C1865.11,-98.33 1824.87,-85.24 1797.95,-76.48"/>
<polygon fill="#63b8ff" stroke="#63b8ff" points="1893.86,-111.36 1904.45,-111.13 1896.02,-104.7 1893.86,-111.36"/>
</g>
<!-- Node8&#45;&gt;Node10 -->
<g id="edge9" class="edge">
<title>Node8&#45;&gt;Node10</title>
<path fill="none" stroke="#63b8ff" d="M1842.92,-114.51C1692.37,-103.89 1395.55,-82.94 1251.74,-72.78"/>
<polygon fill="#63b8ff" stroke="#63b8ff" points="1842.65,-118 1852.87,-115.22 1843.14,-111.02 1842.65,-118"/>
</g>
<!-- Node8&#45;&gt;Node11 -->
<g id="edge10" class="edge">
<title>Node8&#45;&gt;Node11</title>
<path fill="none" stroke="#63b8ff" d="M1941.84,-101C1944.82,-92.54 1948.15,-83.08 1950.53,-76.3"/>
<polygon fill="#63b8ff" stroke="#63b8ff" points="1938.64,-99.57 1938.62,-110.17 1945.24,-101.89 1938.64,-99.57"/>
</g>
<!-- Node12&#45;&gt;Node9 -->
<g id="edge14" class="edge">
<title>Node12&#45;&gt;Node9</title>
<path fill="none" stroke="#63b8ff" d="M1554.11,-109.31C1604,-99.48 1674.42,-85.6 1720.82,-76.46"/>
<polygon fill="#63b8ff" stroke="#63b8ff" points="1553.47,-105.87 1544.33,-111.24 1554.82,-112.74 1553.47,-105.87"/>
</g>
<!-- Node12&#45;&gt;Node10 -->
<g id="edge15" class="edge">
<title>Node12&#45;&gt;Node10</title>
<path fill="none" stroke="#63b8ff" d="M1426.69,-109.68C1367.4,-99.83 1282.45,-85.72 1226.72,-76.46"/>
<polygon fill="#63b8ff" stroke="#63b8ff" points="1425.89,-113.1 1436.33,-111.28 1427.04,-106.19 1425.89,-113.1"/>
</g>
<!-- Node12&#45;&gt;Node11 -->
<g id="edge16" class="edge">
<title>Node12&#45;&gt;Node11</title>
<path fill="none" stroke="#63b8ff" d="M1586.85,-110.17C1670.63,-100.32 1793.1,-85.91 1873.13,-76.49"/>
<polygon fill="#63b8ff" stroke="#63b8ff" points="1586.57,-106.68 1577.05,-111.32 1587.39,-113.63 1586.57,-106.68"/>
</g>
<!-- Node13 -->
<g id="node13" class="node">
<title>Node13</title>
<g id="a_node13"><a xlink:href="FMTpythonpickle_8hpp.html" target="_top" xlink:title=" ">
<polygon fill="white" stroke="#666666" points="433.81,-76 255.81,-76 255.81,-56 433.81,-56 433.81,-76"/>
<text text-anchor="middle" x="344.81" y="-62.5" font-family="Helvetica,sans-Serif" font-size="10.00">D:/FMT/Include/FMTpythonpickle.hpp</text>
</a>
</g>
</g>
<!-- Node12&#45;&gt;Node13 -->
<g id="edge12" class="edge">
<title>Node12&#45;&gt;Node13</title>
<path fill="none" stroke="#63b8ff" d="M1400.5,-114.19C1388.49,-113.41 1376.36,-112.65 1364.81,-112 1021.04,-92.52 611.69,-76.69 434.21,-70.19"/>
<polygon fill="#63b8ff" stroke="#63b8ff" points="1400.23,-117.68 1410.44,-114.85 1400.7,-110.7 1400.23,-117.68"/>
</g>
<!-- Node14 -->
<g id="node14" class="node">
<title>Node14</title>
<g id="a_node14"><a xlink:href="PYexportHeuristics_8hpp.html" target="_top" xlink:title=" ">
<polygon fill="white" stroke="#666666" points="321.68,-20 133.93,-20 133.93,0 321.68,0 321.68,-20"/>
<text text-anchor="middle" x="227.81" y="-6.5" font-family="Helvetica,sans-Serif" font-size="10.00">D:/FMT/Include/PYexportHeuristics.hpp</text>
</a>
</g>
</g>
<!-- Node13&#45;&gt;Node14 -->
<g id="edge13" class="edge">
<title>Node13&#45;&gt;Node14</title>
<path fill="none" stroke="#63b8ff" d="M314.21,-50.88C293.45,-41.3 266.57,-28.89 248.34,-20.48"/>
<polygon fill="#63b8ff" stroke="#63b8ff" points="312.51,-53.95 323.05,-54.96 315.44,-47.59 312.51,-53.95"/>
</g>
<!-- Node16&#45;&gt;Node14 -->
<g id="edge29" class="edge">
<title>Node16&#45;&gt;Node14</title>
<path fill="none" stroke="#63b8ff" d="M85.8,-162.28C43.95,-139.83 -23.38,-95.47 8.81,-56 24.87,-36.3 81.84,-24.97 133.65,-18.62"/>
<polygon fill="#63b8ff" stroke="#63b8ff" points="83.98,-165.29 94.47,-166.8 87.22,-159.08 83.98,-165.29"/>
</g>
<!-- Node17 -->
<g id="node17" class="node">
<title>Node17</title>
<g id="a_node17"><a xlink:href="FMToperatingareascheduler_8hpp.html" target="_top" xlink:title=" ">
<polygon fill="white" stroke="#666666" points="297.68,-132 73.93,-132 73.93,-112 297.68,-112 297.68,-132"/>
<text text-anchor="middle" x="185.81" y="-118.5" font-family="Helvetica,sans-Serif" font-size="10.00">D:/FMT/Include/FMToperatingareascheduler.hpp</text>
</a>
</g>
</g>
<!-- Node16&#45;&gt;Node17 -->
<g id="edge24" class="edge">
<title>Node16&#45;&gt;Node17</title>
<path fill="none" stroke="#63b8ff" d="M136.96,-160.68C149.01,-151.39 163.66,-140.09 173.75,-132.3"/>
<polygon fill="#63b8ff" stroke="#63b8ff" points="134.98,-157.79 129.2,-166.67 139.25,-163.33 134.98,-157.79"/>
</g>
<!-- Node18 -->
<g id="node18" class="node">
<title>Node18</title>
<g id="a_node18"><a xlink:href="RexportHeuristics_8hpp.html" target="_top" xlink:title=" ">
<polygon fill="white" stroke="#666666" points="199.31,-76 18.31,-76 18.31,-56 199.31,-56 199.31,-76"/>
<text text-anchor="middle" x="108.81" y="-62.5" font-family="Helvetica,sans-Serif" font-size="10.00">D:/FMT/Include/RexportHeuristics.hpp</text>
</a>
</g>
</g>
<!-- Node16&#45;&gt;Node18 -->
<g id="edge30" class="edge">
<title>Node16&#45;&gt;Node18</title>
<path fill="none" stroke="#63b8ff" d="M89.94,-161.16C80.15,-153.65 70.11,-143.75 64.81,-132 55.11,-110.51 78.61,-88.38 94.87,-76.29"/>
<polygon fill="#63b8ff" stroke="#63b8ff" points="87.65,-163.83 97.84,-166.72 91.68,-158.1 87.65,-163.83"/>
</g>
<!-- Node17&#45;&gt;Node10 -->
<g id="edge27" class="edge">
<title>Node17&#45;&gt;Node10</title>
<path fill="none" stroke="#63b8ff" d="M309.07,-114.24C512.99,-103.04 915.15,-80.98 1087.85,-71.5"/>
<polygon fill="#63b8ff" stroke="#63b8ff" points="309.03,-110.73 299.24,-114.78 309.41,-117.72 309.03,-110.73"/>
</g>
<!-- Node17&#45;&gt;Node13 -->
<g id="edge25" class="edge">
<title>Node17&#45;&gt;Node13</title>
<path fill="none" stroke="#63b8ff" d="M224.32,-107.92C252.9,-98.21 291.22,-85.2 316.89,-76.48"/>
<polygon fill="#63b8ff" stroke="#63b8ff" points="223.28,-104.58 214.93,-111.11 225.53,-111.21 223.28,-104.58"/>
</g>
<!-- Node17&#45;&gt;Node14 -->
<g id="edge26" class="edge">
<title>Node17&#45;&gt;Node14</title>
<path fill="none" stroke="#63b8ff" d="M196.25,-101.32C200.16,-93.55 204.45,-84.48 207.81,-76 215.45,-56.68 222.04,-33.2 225.41,-20.41"/>
<polygon fill="#63b8ff" stroke="#63b8ff" points="193.15,-99.71 191.67,-110.2 199.37,-102.92 193.15,-99.71"/>
</g>
<!-- Node17&#45;&gt;Node18 -->
<g id="edge28" class="edge">
<title>Node17&#45;&gt;Node18</title>
<path fill="none" stroke="#63b8ff" d="M162.99,-105C149.76,-95.72 133.55,-84.35 122.32,-76.48"/>
<polygon fill="#63b8ff" stroke="#63b8ff" points="160.96,-107.85 171.15,-110.72 164.98,-102.12 160.96,-107.85"/>
</g>
<!-- Node19&#45;&gt;Node4 -->
<g id="edge32" class="edge">
<title>Node19&#45;&gt;Node4</title>
<path fill="none" stroke="#63b8ff" d="M524.76,-301.94C598.04,-311.8 702.13,-326.15 768.36,-335.53"/>
<polygon fill="#63b8ff" stroke="#63b8ff" points="525.61,-298.52 515.23,-300.66 524.68,-305.46 525.61,-298.52"/>
</g>
<!-- Node20&#45;&gt;Node9 -->
<g id="edge43" class="edge">
<title>Node20&#45;&gt;Node9</title>
<path fill="none" stroke="#63b8ff" d="M1368.27,-170.27C1508.52,-159.61 1763.11,-139.33 1769.81,-132 1783.65,-116.83 1777.31,-90.38 1772.48,-76.35"/>
<polygon fill="#63b8ff" stroke="#63b8ff" points="1368.35,-166.75 1358.65,-171 1368.88,-173.73 1368.35,-166.75"/>
</g>
<!-- Node20&#45;&gt;Node10 -->
<g id="edge44" class="edge">
<title>Node20&#45;&gt;Node10</title>
<path fill="none" stroke="#63b8ff" d="M1234.32,-163.42C1218.02,-156.38 1200.61,-146.2 1188.81,-132 1175.28,-115.73 1171.38,-90.2 1170.26,-76.48"/>
<polygon fill="#63b8ff" stroke="#63b8ff" points="1232.81,-166.59 1243.4,-167.05 1235.41,-160.09 1232.81,-166.59"/>
</g>
<!-- Node20&#45;&gt;Node11 -->
<g id="edge45" class="edge">
<title>Node20&#45;&gt;Node11</title>
<path fill="none" stroke="#63b8ff" d="M1368.45,-170.49C1381,-169.63 1393.72,-168.78 1405.81,-168 1474.45,-163.59 1976.6,-182.03 2023.81,-132 2043.49,-111.13 2004.6,-88.78 1977.32,-76.49"/>
<polygon fill="#63b8ff" stroke="#63b8ff" points="1368.25,-167 1358.51,-171.18 1368.73,-173.98 1368.25,-167"/>
</g>
<!-- Node21 -->
<g id="node21" class="node">
<title>Node21</title>
<g id="a_node21"><a xlink:href="FMTlpmodel_8hpp.html" target="_top" xlink:title=" ">
<polygon fill="white" stroke="#666666" points="1355.31,-132 1198.31,-132 1198.31,-112 1355.31,-112 1355.31,-132"/>
<text text-anchor="middle" x="1276.81" y="-118.5" font-family="Helvetica,sans-Serif" font-size="10.00">D:/FMT/Include/FMTlpmodel.hpp</text>
</a>
</g>
</g>
<!-- Node20&#45;&gt;Node21 -->
<g id="edge34" class="edge">
<title>Node20&#45;&gt;Node21</title>
<path fill="none" stroke="#63b8ff" d="M1277.42,-156.13C1277.27,-147.9 1277.1,-138.85 1276.98,-132.3"/>
<polygon fill="#63b8ff" stroke="#63b8ff" points="1273.92,-156.15 1277.6,-166.08 1280.92,-156.02 1273.92,-156.15"/>
</g>
<!-- Node22 -->
<g id="node22" class="node">
<title>Node22</title>
<g id="a_node22"><a xlink:href="FMTnssmodel_8hpp.html" target="_top" xlink:title=" ">
<polygon fill="white" stroke="#666666" points="1760.43,-132 1595.18,-132 1595.18,-112 1760.43,-112 1760.43,-132"/>
<text text-anchor="middle" x="1677.81" y="-118.5" font-family="Helvetica,sans-Serif" font-size="10.00">D:/FMT/Include/FMTnssmodel.hpp</text>
</a>
</g>
</g>
<!-- Node20&#45;&gt;Node22 -->
<g id="edge39" class="edge">
<title>Node20&#45;&gt;Node22</title>
<path fill="none" stroke="#63b8ff" d="M1358.92,-166.05C1431.99,-156.18 1538.31,-141.83 1607.75,-132.46"/>
<polygon fill="#63b8ff" stroke="#63b8ff" points="1358.88,-162.52 1349.44,-167.33 1359.82,-169.46 1358.88,-162.52"/>
</g>
<!-- Node21&#45;&gt;Node9 -->
<g id="edge36" class="edge">
<title>Node21&#45;&gt;Node9</title>
<path fill="none" stroke="#63b8ff" d="M1366.88,-111.11C1457.03,-101.22 1594.72,-86.11 1683.24,-76.39"/>
<polygon fill="#63b8ff" stroke="#63b8ff" points="1366.64,-107.62 1357.09,-112.19 1367.41,-114.58 1366.64,-107.62"/>
</g>
<!-- Node21&#45;&gt;Node10 -->
<g id="edge37" class="edge">
<title>Node21&#45;&gt;Node10</title>
<path fill="none" stroke="#63b8ff" d="M1248.04,-106.48C1229.16,-96.96 1205.03,-84.78 1188.59,-76.48"/>
<polygon fill="#63b8ff" stroke="#63b8ff" points="1246.31,-109.53 1256.82,-110.91 1249.47,-103.28 1246.31,-109.53"/>
</g>
<!-- Node21&#45;&gt;Node11 -->
<g id="edge38" class="edge">
<title>Node21&#45;&gt;Node11</title>
<path fill="none" stroke="#63b8ff" d="M1366.73,-114.34C1506.39,-103.95 1769.1,-84.23 1862.81,-76 1865.65,-75.75 1868.55,-75.49 1871.47,-75.22"/>
<polygon fill="#63b8ff" stroke="#63b8ff" points="1366.89,-110.82 1357.17,-115.05 1367.4,-117.8 1366.89,-110.82"/>
</g>
<!-- Node21&#45;&gt;Node13 -->
<g id="edge35" class="edge">
<title>Node21&#45;&gt;Node13</title>
<path fill="none" stroke="#63b8ff" d="M1186.71,-115.78C1008.27,-105.44 611.83,-82.47 434.07,-72.17"/>
<polygon fill="#63b8ff" stroke="#63b8ff" points="1186.45,-119.27 1196.64,-116.35 1186.86,-112.28 1186.45,-119.27"/>
</g>
<!-- Node22&#45;&gt;Node9 -->
<g id="edge40" class="edge">
<title>Node22&#45;&gt;Node9</title>
<path fill="none" stroke="#63b8ff" d="M1703.4,-105.81C1719.28,-96.39 1739.18,-84.58 1752.83,-76.48"/>
<polygon fill="#63b8ff" stroke="#63b8ff" points="1701.77,-102.71 1694.96,-110.82 1705.34,-108.73 1701.77,-102.71"/>
</g>
<!-- Node22&#45;&gt;Node10 -->
<g id="edge41" class="edge">
<title>Node22&#45;&gt;Node10</title>
<path fill="none" stroke="#63b8ff" d="M1583.4,-110.96C1488.02,-100.83 1342.17,-85.32 1251.58,-75.69"/>
<polygon fill="#63b8ff" stroke="#63b8ff" points="1582.95,-114.44 1593.27,-112.01 1583.69,-107.48 1582.95,-114.44"/>
</g>
<!-- Node22&#45;&gt;Node11 -->
<g id="edge42" class="edge">
<title>Node22&#45;&gt;Node11</title>
<path fill="none" stroke="#63b8ff" d="M1737.23,-109.37C1787.5,-99.54 1858.63,-85.62 1905.47,-76.46"/>
<polygon fill="#63b8ff" stroke="#63b8ff" points="1736.82,-105.89 1727.68,-111.24 1738.17,-112.76 1736.82,-105.89"/>
</g>
<!-- Node26&#45;&gt;Node4 -->
<g id="edge53" class="edge">
<title>Node26&#45;&gt;Node4</title>
<path fill="none" stroke="#63b8ff" d="M1244.18,-391.63C1148.44,-381.27 995.89,-364.76 905.63,-354.99"/>
<polygon fill="#63b8ff" stroke="#63b8ff" points="1243.74,-395.1 1254.06,-392.69 1244.49,-388.14 1243.74,-395.1"/>
</g>
<!-- Node26&#45;&gt;Node7 -->
<g id="edge55" class="edge">
<title>Node26&#45;&gt;Node7</title>
<path fill="none" stroke="#63b8ff" d="M1344.47,-382.5C1377.96,-337.18 1463.15,-221.86 1487.94,-188.3"/>
<polygon fill="#63b8ff" stroke="#63b8ff" points="1341.67,-380.4 1338.54,-390.53 1347.3,-384.56 1341.67,-380.4"/>
</g>
<!-- Node26&#45;&gt;Node9 -->
<g id="edge57" class="edge">
<title>Node26&#45;&gt;Node9</title>
<path fill="none" stroke="#63b8ff" d="M1349.16,-384.31C1365.8,-369.9 1391.53,-349.34 1416.81,-336 1417.79,-335.48 2023.16,-132.9 2023.81,-132 2028.99,-124.78 2029.52,-118.81 2023.81,-112 2012.7,-98.76 1922.95,-85.19 1853.04,-76.47"/>
<polygon fill="#63b8ff" stroke="#63b8ff" points="1347.22,-381.36 1342.05,-390.6 1351.86,-386.6 1347.22,-381.36"/>
</g>
<!-- Node26&#45;&gt;Node10 -->
<g id="edge59" class="edge">
<title>Node26&#45;&gt;Node10</title>
<path fill="none" stroke="#63b8ff" d="M1316.63,-382.85C1290.63,-349.95 1233.01,-278.81 1178.81,-224 1161.75,-206.76 1151.43,-208.06 1137.81,-188 1118.18,-159.11 1103.29,-143.77 1117.81,-112 1124.9,-96.47 1140.3,-84.25 1152.5,-76.49"/>
<polygon fill="#63b8ff" stroke="#63b8ff" points="1313.77,-384.88 1322.7,-390.58 1319.28,-380.55 1313.77,-384.88"/>
</g>
<!-- Node26&#45;&gt;Node11 -->
<g id="edge60" class="edge">
<title>Node26&#45;&gt;Node11</title>
<path fill="none" stroke="#63b8ff" d="M1358.61,-386.35C1375.02,-377.64 1396.16,-366.32 1414.81,-356 1430.48,-347.32 1433.37,-343.14 1449.81,-336 1577.03,-280.7 1962.32,-247.07 2039.81,-132 2056.85,-106.7 2017.32,-87.26 1986.35,-76.48"/>
<polygon fill="#63b8ff" stroke="#63b8ff" points="1357.12,-383.18 1349.92,-390.95 1360.39,-389.37 1357.12,-383.18"/>
</g>
<!-- Node26&#45;&gt;Node13 -->
<g id="edge54" class="edge">
<title>Node26&#45;&gt;Node13</title>
<path fill="none" stroke="#63b8ff" d="M1244.17,-395.52C1005.17,-379.99 352.13,-334.56 321.81,-300 263.36,-233.39 321.13,-111.26 339.57,-76.47"/>
<polygon fill="#63b8ff" stroke="#63b8ff" points="1243.86,-399.01 1254.06,-396.16 1244.31,-392.02 1243.86,-399.01"/>
</g>
<!-- Node26&#45;&gt;Node20 -->
<g id="edge56" class="edge">
<title>Node26&#45;&gt;Node20</title>
<path fill="none" stroke="#63b8ff" d="M1325.97,-380.75C1314.88,-334.28 1287.94,-221.43 1280.03,-188.3"/>
<polygon fill="#63b8ff" stroke="#63b8ff" points="1322.52,-381.36 1328.24,-390.27 1329.33,-379.73 1322.52,-381.36"/>
</g>
<!-- Node27 -->
<g id="node27" class="node">
<title>Node27</title>
<g id="a_node27"><a xlink:href="PYexportParallel_8hpp.html" target="_top" xlink:title=" ">
<polygon fill="white" stroke="#666666" points="1823.06,-356 1646.56,-356 1646.56,-336 1823.06,-336 1823.06,-356"/>
<text text-anchor="middle" x="1734.81" y="-342.5" font-family="Helvetica,sans-Serif" font-size="10.00">D:/FMT/Include/PYexportParallel.hpp</text>
</a>
</g>
</g>
<!-- Node26&#45;&gt;Node27 -->
<g id="edge58" class="edge">
<title>Node26&#45;&gt;Node27</title>
<path fill="none" stroke="#63b8ff" d="M1412.73,-390.05C1486.54,-380.18 1593.91,-365.83 1664.05,-356.46"/>
<polygon fill="#63b8ff" stroke="#63b8ff" points="1412.59,-386.54 1403.14,-391.33 1413.52,-393.48 1412.59,-386.54"/>
</g>
<!-- Node28 -->
<g id="node28" class="node">
<title>Node28</title>
<g id="a_node28"><a xlink:href="RexportParallel_8hpp.html" target="_top" xlink:title=" ">
<polygon fill="white" stroke="#666666" points="1628.68,-356 1458.93,-356 1458.93,-336 1628.68,-336 1628.68,-356"/>
<text text-anchor="middle" x="1543.81" y="-342.5" font-family="Helvetica,sans-Serif" font-size="10.00">D:/FMT/Include/RexportParallel.hpp</text>
</a>
</g>
</g>
<!-- Node26&#45;&gt;Node28 -->
<g id="edge61" class="edge">
<title>Node26&#45;&gt;Node28</title>
<path fill="none" stroke="#63b8ff" d="M1378.88,-388.81C1417.49,-379.02 1470.95,-365.47 1506.41,-356.48"/>
<polygon fill="#63b8ff" stroke="#63b8ff" points="1378.21,-385.37 1369.37,-391.22 1379.93,-392.16 1378.21,-385.37"/>
</g>
<!-- Node29&#45;&gt;Node10 -->
<g id="edge64" class="edge">
<title>Node29&#45;&gt;Node10</title>
<path fill="none" stroke="#63b8ff" d="M1743.49,-396.62C1803.8,-390.07 1862.17,-374.16 1831.81,-336 1649.49,-106.87 1400.46,-391.38 1189.81,-188 1158.56,-157.83 1164.41,-98.91 1168.08,-76.21"/>
<polygon fill="#63b8ff" stroke="#63b8ff" points="1743.34,-393.12 1733.74,-397.59 1744.04,-400.09 1743.34,-393.12"/>
</g>
<!-- Node29&#45;&gt;Node27 -->
<g id="edge63" class="edge">
<title>Node29&#45;&gt;Node27</title>
<path fill="none" stroke="#63b8ff" d="M1665.33,-386.08C1682.15,-376.62 1703.41,-364.66 1717.95,-356.48"/>
<polygon fill="#63b8ff" stroke="#63b8ff" points="1663.85,-382.9 1656.85,-390.85 1667.28,-389 1663.85,-382.9"/>
</g>
<!-- Node29&#45;&gt;Node28 -->
<g id="edge65" class="edge">
<title>Node29&#45;&gt;Node28</title>
<path fill="none" stroke="#63b8ff" d="M1612.56,-386.08C1595.91,-376.62 1574.87,-364.66 1560.48,-356.48"/>
<polygon fill="#63b8ff" stroke="#63b8ff" points="1610.52,-388.95 1620.94,-390.85 1613.98,-382.86 1610.52,-388.95"/>
</g>
</g>
</svg>
