<?xml version="1.0" encoding="UTF-8" standalone="no"?>
<!DOCTYPE svg PUBLIC "-//W3C//DTD SVG 1.1//EN"
 "http://www.w3.org/Graphics/SVG/1.1/DTD/svg11.dtd">
<!-- Generated by graphviz version 8.1.0 (20230707.0739)
 -->
<!-- Title: C:/Users/CYRGU3/OneDrive &#45; BuroVirtuel/Bureau/FMT/FMT/Include/FMTbounds.hpp Pages: 1 -->
<svg width="907pt" height="176pt"
 viewBox="0.00 0.00 906.88 176.00" xmlns="http://www.w3.org/2000/svg" xmlns:xlink="http://www.w3.org/1999/xlink">
<g id="graph0" class="graph" transform="scale(1 1) rotate(0) translate(4 172)">
<title>C:/Users/CYRGU3/OneDrive &#45; BuroVirtuel/Bureau/FMT/FMT/Include/FMTbounds.hpp</title>
<!-- Node1 -->
<g id="Node000001" class="node">
<title>Node1</title>
<g id="a_Node000001"><a xlink:title=" ">
<polygon fill="#999999" stroke="#666666" points="444.5,-168 299.5,-168 299.5,-124 444.5,-124 444.5,-168"/>
<text text-anchor="start" x="307.5" y="-154.5" font-family="Helvetica,sans-Serif" font-size="10.00">C:/Users/CYRGU3/OneDrive</text>
<text text-anchor="start" x="307.5" y="-142.5" font-family="Helvetica,sans-Serif" font-size="10.00"> &#45; BuroVirtuel/Bureau/FMT</text>
<text text-anchor="middle" x="372" y="-130.5" font-family="Helvetica,sans-Serif" font-size="10.00">/FMT/Include/FMTbounds.hpp</text>
</a>
</g>
</g>
<!-- Node2 -->
<g id="Node000002" class="node">
<title>Node2</title>
<g id="a_Node000002"><a xlink:title=" ">
<polygon fill="#e0e0e0" stroke="#999999" points="76.62,-82 37.38,-82 37.38,-62 76.62,-62 76.62,-82"/>
<text text-anchor="middle" x="57" y="-68.5" font-family="Helvetica,sans-Serif" font-size="10.00">limits</text>
</a>
</g>
</g>
<!-- Node1&#45;&gt;Node2 -->
<g id="edge1_Node000001_Node000002" class="edge">
<title>Node1&#45;&gt;Node2</title>
<g id="a_edge1_Node000001_Node000002"><a xlink:title=" ">
<path fill="none" stroke="#63b8ff" d="M299.11,-136.23C240.4,-127.8 156.36,-112.65 86,-88 85.06,-87.67 84.12,-87.32 83.17,-86.95"/>
<polygon fill="#63b8ff" stroke="#63b8ff" points="84.76,-83.36 74.21,-82.39 81.85,-89.73 84.76,-83.36"/>
</a>
</g>
</g>
<!-- Node3 -->
<g id="Node000003" class="node">
<title>Node3</title>
<g id="a_Node000003"><a xlink:title=" ">
<polygon fill="#e0e0e0" stroke="#999999" points="129.38,-82 94.62,-82 94.62,-62 129.38,-62 129.38,-82"/>
<text text-anchor="middle" x="112" y="-68.5" font-family="Helvetica,sans-Serif" font-size="10.00">map</text>
</a>
</g>
</g>
<!-- Node1&#45;&gt;Node3 -->
<g id="edge2_Node000001_Node000003" class="edge">
<title>Node1&#45;&gt;Node3</title>
<g id="a_edge2_Node000001_Node000003"><a xlink:title=" ">
<path fill="none" stroke="#63b8ff" d="M299.08,-132.38C252.36,-123.02 190.96,-108.36 139,-88 138.39,-87.76 137.78,-87.51 137.17,-87.25"/>
<polygon fill="#63b8ff" stroke="#63b8ff" points="138.88,-83.71 128.36,-82.46 135.81,-89.99 138.88,-83.71"/>
</a>
</g>
</g>
<!-- Node4 -->
<g id="Node000004" class="node">
<title>Node4</title>
<g id="a_Node000004"><a xlink:href="FMTexception_8hpp.html" target="_top" xlink:title=" ">
<polygon fill="white" stroke="#666666" points="244.12,-82 147.88,-82 147.88,-62 244.12,-62 244.12,-82"/>
<text text-anchor="middle" x="196" y="-68.5" font-family="Helvetica,sans-Serif" font-size="10.00">FMTexception.hpp</text>
</a>
</g>
</g>
<!-- Node1&#45;&gt;Node4 -->
<g id="edge3_Node000001_Node000004" class="edge">
<title>Node1&#45;&gt;Node4</title>
<g id="a_edge3_Node000001_Node000004"><a xlink:title=" ">
<path fill="none" stroke="#63b8ff" d="M319.67,-123.59C290.28,-111.57 254.5,-96.93 229.01,-86.5"/>
<polygon fill="#63b8ff" stroke="#63b8ff" points="230.68,-82.99 220.1,-82.45 228.03,-89.47 230.68,-82.99"/>
</a>
</g>
</g>
<!-- Node9 -->
<g id="Node000009" class="node">
<title>Node9</title>
<g id="a_Node000009"><a xlink:href="FMTutility_8hpp.html" target="_top" xlink:title=" ">
<polygon fill="white" stroke="#666666" points="351.75,-20 274.25,-20 274.25,0 351.75,0 351.75,-20"/>
<text text-anchor="middle" x="313" y="-6.5" font-family="Helvetica,sans-Serif" font-size="10.00">FMTutility.hpp</text>
</a>
</g>
</g>
<!-- Node1&#45;&gt;Node9 -->
<g id="edge9_Node000001_Node000009" class="edge">
<title>Node1&#45;&gt;Node9</title>
<g id="a_edge9_Node000001_Node000009"><a xlink:title=" ">
<path fill="none" stroke="#63b8ff" d="M326.39,-123.76C312.45,-114.82 298.76,-102.96 291,-88 281.24,-69.2 290.89,-45.5 300.31,-29.39"/>
<polygon fill="#63b8ff" stroke="#63b8ff" points="303.57,-31.78 305.96,-21.46 297.66,-28.04 303.57,-31.78"/>
</a>
</g>
</g>
<!-- Node10 -->
<g id="Node000010" class="node">
<title>Node10</title>
<g id="a_Node000010"><a xlink:title=" ">
<polygon fill="#e0e0e0" stroke="#999999" points="341.75,-82 300.25,-82 300.25,-62 341.75,-62 341.75,-82"/>
<text text-anchor="middle" x="321" y="-68.5" font-family="Helvetica,sans-Serif" font-size="10.00">vector</text>
</a>
</g>
</g>
<!-- Node1&#45;&gt;Node10 -->
<g id="edge10_Node000001_Node000010" class="edge">
<title>Node1&#45;&gt;Node10</title>
<g id="a_edge10_Node000001_Node000010"><a xlink:title=" ">
<path fill="none" stroke="#63b8ff" d="M356.97,-123.79C349.66,-113.46 340.95,-101.16 333.93,-91.26"/>
<polygon fill="#63b8ff" stroke="#63b8ff" points="336.23,-89.45 327.6,-83.31 330.52,-93.49 336.23,-89.45"/>
</a>
</g>
</g>
<!-- Node11 -->
<g id="Node000011" class="node">
<title>Node11</title>
<g id="a_Node000011"><a xlink:title=" ">
<polygon fill="#e0e0e0" stroke="#999999" points="486.5,-82 359.5,-82 359.5,-62 486.5,-62 486.5,-82"/>
<text text-anchor="middle" x="423" y="-68.5" font-family="Helvetica,sans-Serif" font-size="10.00">boost/functional/hash.hpp</text>
</a>
</g>
</g>
<!-- Node1&#45;&gt;Node11 -->
<g id="edge11_Node000001_Node000011" class="edge">
<title>Node1&#45;&gt;Node11</title>
<g id="a_edge11_Node000001_Node000011"><a xlink:title=" ">
<path fill="none" stroke="#63b8ff" d="M387.03,-123.79C394.34,-113.46 403.05,-101.16 410.07,-91.26"/>
<polygon fill="#63b8ff" stroke="#63b8ff" points="413.48,-93.49 416.4,-83.31 407.77,-89.45 413.48,-93.49"/>
</a>
</g>
</g>
<!-- Node12 -->
<g id="Node000012" class="node">
<title>Node12</title>
<g id="a_Node000012"><a xlink:title=" ">
<polygon fill="#e0e0e0" stroke="#999999" points="599.38,-88 504.62,-88 504.62,-56 599.38,-56 599.38,-88"/>
<text text-anchor="start" x="512.62" y="-74.5" font-family="Helvetica,sans-Serif" font-size="10.00">boost/serialization</text>
<text text-anchor="middle" x="552" y="-62.5" font-family="Helvetica,sans-Serif" font-size="10.00">/serialization.hpp</text>
</a>
</g>
</g>
<!-- Node1&#45;&gt;Node12 -->
<g id="edge12_Node000001_Node000012" class="edge">
<title>Node1&#45;&gt;Node12</title>
<g id="a_edge12_Node000001_Node000012"><a xlink:title=" ">
<path fill="none" stroke="#63b8ff" d="M425.52,-123.59C450.18,-113.73 479.25,-102.1 503.29,-92.48"/>
<polygon fill="#63b8ff" stroke="#63b8ff" points="504.28,-95.46 512.26,-88.5 501.68,-88.96 504.28,-95.46"/>
</a>
</g>
</g>
<!-- Node13 -->
<g id="Node000013" class="node">
<title>Node13</title>
<g id="a_Node000013"><a xlink:title=" ">
<polygon fill="#e0e0e0" stroke="#999999" points="712.38,-88 617.62,-88 617.62,-56 712.38,-56 712.38,-88"/>
<text text-anchor="start" x="625.62" y="-74.5" font-family="Helvetica,sans-Serif" font-size="10.00">boost/serialization</text>
<text text-anchor="middle" x="665" y="-62.5" font-family="Helvetica,sans-Serif" font-size="10.00">/nvp.hpp</text>
</a>
</g>
</g>
<!-- Node1&#45;&gt;Node13 -->
<g id="edge13_Node000001_Node000013" class="edge">
<title>Node1&#45;&gt;Node13</title>
<g id="a_edge13_Node000001_Node000013"><a xlink:title=" ">
<path fill="none" stroke="#63b8ff" d="M444.92,-127.79C489.05,-117.28 546.72,-103.39 606.96,-88.24"/>
<polygon fill="#63b8ff" stroke="#63b8ff" points="607.59,-91.43 616.43,-85.59 605.88,-84.65 607.59,-91.43"/>
</a>
</g>
</g>
<!-- Node14 -->
<g id="Node000014" class="node">
<title>Node14</title>
<g id="a_Node000014"><a xlink:title=" ">
<polygon fill="#e0e0e0" stroke="#999999" points="825.38,-88 730.62,-88 730.62,-56 825.38,-56 825.38,-88"/>
<text text-anchor="start" x="738.62" y="-74.5" font-family="Helvetica,sans-Serif" font-size="10.00">boost/serialization</text>
<text text-anchor="middle" x="778" y="-62.5" font-family="Helvetica,sans-Serif" font-size="10.00">/string.hpp</text>
</a>
</g>
</g>
<!-- Node1&#45;&gt;Node14 -->
<g id="edge14_Node000001_Node000014" class="edge">
<title>Node1&#45;&gt;Node14</title>
<g id="a_edge14_Node000001_Node000014"><a xlink:title=" ">
<path fill="none" stroke="#63b8ff" d="M444.9,-135.16C513.35,-125.46 618.76,-109.3 719.51,-88.2"/>
<polygon fill="#63b8ff" stroke="#63b8ff" points="720.13,-91.43 729.19,-85.94 718.68,-84.58 720.13,-91.43"/>
</a>
</g>
</g>
<!-- Node15 -->
<g id="Node000015" class="node">
<title>Node15</title>
<g id="a_Node000015"><a xlink:title=" ">
<polygon fill="#e0e0e0" stroke="#999999" points="898.88,-82 843.12,-82 843.12,-62 898.88,-62 898.88,-82"/>
<text text-anchor="middle" x="871" y="-68.5" font-family="Helvetica,sans-Serif" font-size="10.00">algorithm</text>
</a>
</g>
</g>
<!-- Node1&#45;&gt;Node15 -->
<g id="edge15_Node000001_Node000015" class="edge">
<title>Node1&#45;&gt;Node15</title>
<g id="a_edge15_Node000001_Node000015"><a xlink:title=" ">
<path fill="none" stroke="#63b8ff" d="M444.72,-141.92C536.68,-136.69 699.26,-122.97 834,-88 836.06,-87.46 838.16,-86.84 840.26,-86.16"/>
<polygon fill="#63b8ff" stroke="#63b8ff" points="841.39,-89.11 849.58,-82.39 838.99,-82.53 841.39,-89.11"/>
</a>
</g>
</g>
<!-- Node5 -->
<g id="Node000005" class="node">
<title>Node5</title>
<g id="a_Node000005"><a xlink:title=" ">
<polygon fill="#e0e0e0" stroke="#999999" points="58,-20 0,-20 0,0 58,0 58,-20"/>
<text text-anchor="middle" x="29" y="-6.5" font-family="Helvetica,sans-Serif" font-size="10.00">exception</text>
</a>
</g>
</g>
<!-- Node4&#45;&gt;Node5 -->
<g id="edge4_Node000004_Node000005" class="edge">
<title>Node4&#45;&gt;Node5</title>
<g id="a_edge4_Node000004_Node000005"><a xlink:title=" ">
<path fill="none" stroke="#63b8ff" d="M169.91,-61.62C141.8,-51.53 96.88,-35.39 65.33,-24.05"/>
<polygon fill="#63b8ff" stroke="#63b8ff" points="66.78,-20.5 56.19,-20.41 64.41,-27.08 66.78,-20.5"/>
</a>
</g>
</g>
<!-- Node6 -->
<g id="Node000006" class="node">
<title>Node6</title>
<g id="a_Node000006"><a xlink:title=" ">
<polygon fill="#e0e0e0" stroke="#999999" points="116,-20 76,-20 76,0 116,0 116,-20"/>
<text text-anchor="middle" x="96" y="-6.5" font-family="Helvetica,sans-Serif" font-size="10.00">string</text>
</a>
</g>
</g>
<!-- Node4&#45;&gt;Node6 -->
<g id="edge5_Node000004_Node000006" class="edge">
<title>Node4&#45;&gt;Node6</title>
<g id="a_edge5_Node000004_Node000006"><a xlink:title=" ">
<path fill="none" stroke="#63b8ff" d="M180.38,-61.62C164.45,-52.07 139.51,-37.11 120.87,-25.92"/>
<polygon fill="#63b8ff" stroke="#63b8ff" points="122.89,-22.45 112.52,-20.31 119.29,-28.46 122.89,-22.45"/>
</a>
</g>
</g>
<!-- Node7 -->
<g id="Node000007" class="node">
<title>Node7</title>
<g id="a_Node000007"><a xlink:title=" ">
<polygon fill="#e0e0e0" stroke="#999999" points="187.75,-20 134.25,-20 134.25,0 187.75,0 187.75,-20"/>
<text text-anchor="middle" x="161" y="-6.5" font-family="Helvetica,sans-Serif" font-size="10.00">iostream</text>
</a>
</g>
</g>
<!-- Node4&#45;&gt;Node7 -->
<g id="edge6_Node000004_Node000007" class="edge">
<title>Node4&#45;&gt;Node7</title>
<g id="a_edge6_Node000004_Node000007"><a xlink:title=" ">
<path fill="none" stroke="#63b8ff" d="M190.53,-61.62C185.52,-53.03 177.96,-40.07 171.74,-29.41"/>
<polygon fill="#63b8ff" stroke="#63b8ff" points="174.38,-27.99 166.32,-21.11 168.33,-31.51 174.38,-27.99"/>
</a>
</g>
</g>
<!-- Node8 -->
<g id="Node000008" class="node">
<title>Node8</title>
<g id="a_Node000008"><a xlink:title=" ">
<polygon fill="#e0e0e0" stroke="#999999" points="256.62,-20 205.38,-20 205.38,0 256.62,0 256.62,-20"/>
<text text-anchor="middle" x="231" y="-6.5" font-family="Helvetica,sans-Serif" font-size="10.00">memory</text>
</a>
</g>
</g>
<!-- Node4&#45;&gt;Node8 -->
<g id="edge7_Node000004_Node000008" class="edge">
<title>Node4&#45;&gt;Node8</title>
<g id="a_edge7_Node000004_Node000008"><a xlink:title=" ">
<path fill="none" stroke="#63b8ff" d="M201.47,-61.62C206.48,-53.03 214.04,-40.07 220.26,-29.41"/>
<polygon fill="#63b8ff" stroke="#63b8ff" points="223.67,-31.51 225.68,-21.11 217.62,-27.99 223.67,-31.51"/>
</a>
</g>
</g>
<!-- Node4&#45;&gt;Node9 -->
<g id="edge8_Node000004_Node000009" class="edge">
<title>Node4&#45;&gt;Node9</title>
<g id="a_edge8_Node000004_Node000009"><a xlink:title=" ">
<path fill="none" stroke="#63b8ff" d="M214.28,-61.62C233.26,-51.89 263.17,-36.55 285.1,-25.31"/>
<polygon fill="#63b8ff" stroke="#63b8ff" points="286.55,-27.99 293.85,-20.31 283.35,-21.76 286.55,-27.99"/>
</a>
</g>
</g>
</g>
</svg>
