<?xml version="1.0" encoding="UTF-8" standalone="no"?>
<!DOCTYPE svg PUBLIC "-//W3C//DTD SVG 1.1//EN"
 "http://www.w3.org/Graphics/SVG/1.1/DTD/svg11.dtd">
<!-- Generated by graphviz version 10.0.1 (20240210.2158)
 -->
<!-- Title: D:/FMT/Include/FMTbasevertexproperties.hpp Pages: 1 -->
<!--zoomable 400 -->
<svg id="main" version="1.1" xmlns="http://www.w3.org/2000/svg" xmlns:xlink="http://www.w3.org/1999/xlink" xml:space="preserve" onload="init(evt)">
<style type="text/css"><![CDATA[
.edge:hover path { stroke: red; }
.edge:hover polygon { stroke: red; fill: red; }
]]></style>
<script type="text/javascript"><![CDATA[
var edges = document.getElementsByTagName('g');
if (edges && edges.length) {
  for (var i=0;i<edges.length;i++) {
    if (edges[i].id.substr(0,4)=='edge') {
      edges[i].setAttribute('class','edge');
    }
  }
}
]]></script>
        <defs>
                <circle id="rim" cx="0" cy="0" r="7"/>
                <circle id="rim2" cx="0" cy="0" r="3.5"/>
                <g id="zoomPlus">
                        <use xlink:href="#rim" fill="#404040">
                                <set attributeName="fill" to="#808080" begin="zoomplus.mouseover" end="zoomplus.mouseout"/>
                        </use>
                        <path d="M-4,0h8M0,-4v8" fill="none" stroke="white" stroke-width="1.5" pointer-events="none"/>
                </g>
                <g id="zoomMin">
                        <use xlink:href="#rim" fill="#404040">
                                <set attributeName="fill" to="#808080" begin="zoomminus.mouseover" end="zoomminus.mouseout"/>
                        </use>
                        <path d="M-4,0h8" fill="none" stroke="white" stroke-width="1.5" pointer-events="none"/>
                </g>
                <g id="dirArrow">
                        <path fill="none" stroke="white" stroke-width="1.5" d="M0,-3.0v7 M-2.5,-0.5L0,-3.0L2.5,-0.5"/>
                </g>
               <g id="resetDef">
                       <use xlink:href="#rim2" fill="#404040">
                               <set attributeName="fill" to="#808080" begin="reset.mouseover" end="reset.mouseout"/>
                       </use>
               </g>
        </defs>

<script type="text/javascript">
var viewWidth = 2642;
var viewHeight = 400;
var sectionId = 'dynsection-0';
</script>
<script xlink:href="svgpan.js"/>
<svg id="graph" class="graph">
<g id="viewport">
<title>D:/FMT/Include/FMTbasevertexproperties.hpp</title>
<!-- Node1 -->
<g id="node1" class="node">
<title>Node1</title>
<g id="a_node1"><a xlink:title=" ">
<polygon fill="#999999" stroke="#666666" points="2457.5,-392 2245,-392 2245,-372 2457.5,-372 2457.5,-392"/>
<text text-anchor="middle" x="2351.25" y="-378.5" font-family="Helvetica,sans-Serif" font-size="10.00">D:/FMT/Include/FMTbasevertexproperties.hpp</text>
</a>
</g>
</g>
<!-- Node2 -->
<g id="node2" class="node">
<title>Node2</title>
<g id="a_node2"><a xlink:href="FMTfuturdevelopment_8hpp.html" target="_top" xlink:title=" ">
<polygon fill="white" stroke="#666666" points="2368.75,-330 2241.75,-330 2241.75,-310 2368.75,-310 2368.75,-330"/>
<text text-anchor="middle" x="2305.25" y="-316.5" font-family="Helvetica,sans-Serif" font-size="10.00">FMTfuturdevelopment.hpp</text>
</a>
</g>
</g>
<!-- Node1&#45;&gt;Node2 -->
<g id="edge1" class="edge">
<title>Node1&#45;&gt;Node2</title>
<path fill="none" stroke="#63b8ff" d="M2344.06,-371.62C2337.41,-362.94 2327.33,-349.8 2319.11,-339.08"/>
<polygon fill="#63b8ff" stroke="#63b8ff" points="2322.02,-337.12 2313.16,-331.31 2316.46,-341.38 2322.02,-337.12"/>
</g>
<!-- Node10 -->
<g id="node10" class="node">
<title>Node10</title>
<g id="a_node10"><a xlink:title=" ">
<polygon fill="#e0e0e0" stroke="#999999" points="485.62,-156 390.88,-156 390.88,-124 485.62,-124 485.62,-156"/>
<text text-anchor="start" x="398.88" y="-142.5" font-family="Helvetica,sans-Serif" font-size="10.00">boost/serialization</text>
<text text-anchor="middle" x="438.25" y="-130.5" font-family="Helvetica,sans-Serif" font-size="10.00">/serialization.hpp</text>
</a>
</g>
</g>
<!-- Node1&#45;&gt;Node10 -->
<g id="edge59" class="edge">
<title>Node1&#45;&gt;Node10</title>
<path fill="none" stroke="#63b8ff" d="M2244.67,-379.65C1875.46,-374.27 665.44,-350.45 513.25,-268 474.92,-247.23 454.4,-197.92 444.96,-167.21"/>
<polygon fill="#63b8ff" stroke="#63b8ff" points="448.41,-166.55 442.28,-157.91 441.68,-168.48 448.41,-166.55"/>
</g>
<!-- Node19 -->
<g id="node19" class="node">
<title>Node19</title>
<g id="a_node19"><a xlink:title=" ">
<polygon fill="#e0e0e0" stroke="#999999" points="1538.88,-20 1487.62,-20 1487.62,0 1538.88,0 1538.88,-20"/>
<text text-anchor="middle" x="1513.25" y="-6.5" font-family="Helvetica,sans-Serif" font-size="10.00">memory</text>
</a>
</g>
</g>
<!-- Node1&#45;&gt;Node19 -->
<g id="edge62" class="edge">
<title>Node1&#45;&gt;Node19</title>
<path fill="none" stroke="#63b8ff" d="M2357.91,-371.78C2363.99,-362.98 2372.83,-349.14 2378.25,-336 2391.69,-303.41 2397.25,-294.25 2397.25,-259 2397.25,-259 2397.25,-259 2397.25,-139 2397.25,-71.57 2334.28,-77.15 2270.25,-56 2134.34,-11.09 1683.19,-10.01 1550.35,-10.7"/>
<polygon fill="#63b8ff" stroke="#63b8ff" points="1550.71,-7.2 1540.73,-10.76 1550.75,-14.2 1550.71,-7.2"/>
</g>
<!-- Node33 -->
<g id="node33" class="node">
<title>Node33</title>
<g id="a_node33"><a xlink:href="FMTactualdevelopment_8hpp.html" target="_top" xlink:title=" ">
<polygon fill="white" stroke="#666666" points="1689.5,-330 1555,-330 1555,-310 1689.5,-310 1689.5,-330"/>
<text text-anchor="middle" x="1622.25" y="-316.5" font-family="Helvetica,sans-Serif" font-size="10.00">FMTactualdevelopment.hpp</text>
</a>
</g>
</g>
<!-- Node1&#45;&gt;Node33 -->
<g id="edge54" class="edge">
<title>Node1&#45;&gt;Node33</title>
<path fill="none" stroke="#63b8ff" d="M2244.86,-372.24C2096.83,-360.06 1832.15,-338.28 1700.73,-327.46"/>
<polygon fill="#63b8ff" stroke="#63b8ff" points="1701.35,-324 1691.1,-326.67 1700.78,-330.98 1701.35,-324"/>
</g>
<!-- Node34 -->
<g id="node34" class="node">
<title>Node34</title>
<g id="a_node34"><a xlink:title=" ">
<polygon fill="#e0e0e0" stroke="#999999" points="2519.62,-336 2424.88,-336 2424.88,-304 2519.62,-304 2519.62,-336"/>
<text text-anchor="start" x="2432.88" y="-322.5" font-family="Helvetica,sans-Serif" font-size="10.00">boost/serialization</text>
<text text-anchor="middle" x="2472.25" y="-310.5" font-family="Helvetica,sans-Serif" font-size="10.00">/unique_ptr.hpp</text>
</a>
</g>
</g>
<!-- Node1&#45;&gt;Node34 -->
<g id="edge60" class="edge">
<title>Node1&#45;&gt;Node34</title>
<path fill="none" stroke="#63b8ff" d="M2370.16,-371.62C2386.42,-363.56 2410.45,-351.64 2431.12,-341.4"/>
<polygon fill="#63b8ff" stroke="#63b8ff" points="2432.49,-344.62 2439.89,-337.05 2429.38,-338.35 2432.49,-344.62"/>
</g>
<!-- Node35 -->
<g id="node35" class="node">
<title>Node35</title>
<g id="a_node35"><a xlink:title=" ">
<polygon fill="#e0e0e0" stroke="#999999" points="2634.38,-336 2538.12,-336 2538.12,-304 2634.38,-304 2634.38,-336"/>
<text text-anchor="start" x="2546.12" y="-322.5" font-family="Helvetica,sans-Serif" font-size="10.00">boost/serialization</text>
<text text-anchor="middle" x="2586.25" y="-310.5" font-family="Helvetica,sans-Serif" font-size="10.00">/split_member.hpp</text>
</a>
</g>
</g>
<!-- Node1&#45;&gt;Node35 -->
<g id="edge61" class="edge">
<title>Node1&#45;&gt;Node35</title>
<path fill="none" stroke="#63b8ff" d="M2388.55,-371.56C2422.07,-363.07 2472.94,-350.16 2526.69,-336.39"/>
<polygon fill="#63b8ff" stroke="#63b8ff" points="2527.55,-339.79 2536.37,-333.91 2525.81,-333.01 2527.55,-339.79"/>
</g>
<!-- Node3 -->
<g id="node3" class="node">
<title>Node3</title>
<g id="a_node3"><a xlink:href="FMTdevelopment_8hpp.html" target="_top" xlink:title=" ">
<polygon fill="white" stroke="#666666" points="1676.38,-268 1568.12,-268 1568.12,-248 1676.38,-248 1676.38,-268"/>
<text text-anchor="middle" x="1622.25" y="-254.5" font-family="Helvetica,sans-Serif" font-size="10.00">FMTdevelopment.hpp</text>
</a>
</g>
</g>
<!-- Node2&#45;&gt;Node3 -->
<g id="edge2" class="edge">
<title>Node2&#45;&gt;Node3</title>
<path fill="none" stroke="#63b8ff" d="M2241.3,-313.38C2111.74,-302 1819.42,-276.32 1688.2,-264.79"/>
<polygon fill="#63b8ff" stroke="#63b8ff" points="1688.54,-261.31 1678.28,-263.92 1687.93,-268.28 1688.54,-261.31"/>
</g>
<!-- Node2&#45;&gt;Node10 -->
<g id="edge51" class="edge">
<title>Node2&#45;&gt;Node10</title>
<path fill="none" stroke="#63b8ff" d="M2241.46,-316.81C1946.89,-306.44 725.54,-260.85 562.25,-212 527.37,-201.57 491.72,-179.76 467.66,-163.05"/>
<polygon fill="#63b8ff" stroke="#63b8ff" points="469.81,-160.29 459.63,-157.35 465.76,-165.99 469.81,-160.29"/>
</g>
<!-- Node13 -->
<g id="node13" class="node">
<title>Node13</title>
<g id="a_node13"><a xlink:title=" ">
<polygon fill="#e0e0e0" stroke="#999999" points="1575.62,-88 1480.88,-88 1480.88,-56 1575.62,-56 1575.62,-88"/>
<text text-anchor="start" x="1488.88" y="-74.5" font-family="Helvetica,sans-Serif" font-size="10.00">boost/serialization</text>
<text text-anchor="middle" x="1528.25" y="-62.5" font-family="Helvetica,sans-Serif" font-size="10.00">/export.hpp</text>
</a>
</g>
</g>
<!-- Node2&#45;&gt;Node13 -->
<g id="edge53" class="edge">
<title>Node2&#45;&gt;Node13</title>
<path fill="none" stroke="#63b8ff" d="M2306.69,-309.8C2311.05,-278.16 2320.61,-173.07 2264.25,-124 2213.66,-79.95 1753.08,-73.84 1587.33,-73.08"/>
<polygon fill="#63b8ff" stroke="#63b8ff" points="1587.45,-69.58 1577.43,-73.04 1587.42,-76.58 1587.45,-69.58"/>
</g>
<!-- Node2&#45;&gt;Node19 -->
<g id="edge52" class="edge">
<title>Node2&#45;&gt;Node19</title>
<path fill="none" stroke="#63b8ff" d="M2312.99,-309.76C2327.92,-290.95 2359.25,-246.32 2359.25,-203 2359.25,-203 2359.25,-203 2359.25,-139 2359.25,-50.1 2263.44,-77.8 2177.25,-56 2057.06,-25.6 1671.76,-14.54 1550.29,-11.76"/>
<polygon fill="#63b8ff" stroke="#63b8ff" points="1550.65,-8.27 1540.57,-11.55 1550.49,-15.27 1550.65,-8.27"/>
</g>
<!-- Node4 -->
<g id="node4" class="node">
<title>Node4</title>
<g id="a_node4"><a xlink:href="FMTmask_8hpp.html" target="_top" xlink:title=" ">
<polygon fill="white" stroke="#666666" points="1273.38,-212 1195.12,-212 1195.12,-192 1273.38,-192 1273.38,-212"/>
<text text-anchor="middle" x="1234.25" y="-198.5" font-family="Helvetica,sans-Serif" font-size="10.00">FMTmask.hpp</text>
</a>
</g>
</g>
<!-- Node3&#45;&gt;Node4 -->
<g id="edge3" class="edge">
<title>Node3&#45;&gt;Node4</title>
<path fill="none" stroke="#63b8ff" d="M1567.89,-249.43C1492.76,-238.98 1358.19,-220.25 1285.02,-210.07"/>
<polygon fill="#63b8ff" stroke="#63b8ff" points="1285.7,-206.63 1275.32,-208.72 1284.74,-213.56 1285.7,-206.63"/>
</g>
<!-- Node3&#45;&gt;Node10 -->
<g id="edge22" class="edge">
<title>Node3&#45;&gt;Node10</title>
<path fill="none" stroke="#63b8ff" d="M1567.71,-257C1385.29,-256.63 797.62,-252.26 613.25,-212 609.91,-211.27 536.76,-181.4 486.11,-160.64"/>
<polygon fill="#63b8ff" stroke="#63b8ff" points="487.65,-157.5 477.07,-156.94 485,-163.97 487.65,-157.5"/>
</g>
<!-- Node12 -->
<g id="node12" class="node">
<title>Node12</title>
<g id="a_node12"><a xlink:title=" ">
<polygon fill="#e0e0e0" stroke="#999999" points="1763.62,-156 1668.88,-156 1668.88,-124 1763.62,-124 1763.62,-156"/>
<text text-anchor="start" x="1676.88" y="-142.5" font-family="Helvetica,sans-Serif" font-size="10.00">boost/serialization</text>
<text text-anchor="middle" x="1716.25" y="-130.5" font-family="Helvetica,sans-Serif" font-size="10.00">/nvp.hpp</text>
</a>
</g>
</g>
<!-- Node3&#45;&gt;Node12 -->
<g id="edge23" class="edge">
<title>Node3&#45;&gt;Node12</title>
<path fill="none" stroke="#63b8ff" d="M1629.94,-247.51C1644.39,-229.68 1675.99,-190.68 1696.68,-165.15"/>
<polygon fill="#63b8ff" stroke="#63b8ff" points="1699.23,-167.56 1702.81,-157.59 1693.79,-163.15 1699.23,-167.56"/>
</g>
<!-- Node3&#45;&gt;Node13 -->
<g id="edge36" class="edge">
<title>Node3&#45;&gt;Node13</title>
<path fill="none" stroke="#63b8ff" d="M1667.49,-247.52C1743.88,-229.54 1885.22,-186.59 1832.25,-124 1801.48,-87.64 1666.54,-77.19 1587.15,-74.19"/>
<polygon fill="#63b8ff" stroke="#63b8ff" points="1587.49,-70.7 1577.38,-73.86 1587.25,-77.7 1587.49,-70.7"/>
</g>
<!-- Node14 -->
<g id="node14" class="node">
<title>Node14</title>
<g id="a_node14"><a xlink:title=" ">
<polygon fill="#e0e0e0" stroke="#999999" points="1650.62,-156 1555.88,-156 1555.88,-124 1650.62,-124 1650.62,-156"/>
<text text-anchor="start" x="1563.88" y="-142.5" font-family="Helvetica,sans-Serif" font-size="10.00">boost/serialization</text>
<text text-anchor="middle" x="1603.25" y="-130.5" font-family="Helvetica,sans-Serif" font-size="10.00">/string.hpp</text>
</a>
</g>
</g>
<!-- Node3&#45;&gt;Node14 -->
<g id="edge24" class="edge">
<title>Node3&#45;&gt;Node14</title>
<path fill="none" stroke="#63b8ff" d="M1620.7,-247.51C1617.86,-230.22 1611.78,-193.05 1607.6,-167.54"/>
<polygon fill="#63b8ff" stroke="#63b8ff" points="1611.09,-167.21 1606.02,-157.91 1604.18,-168.34 1611.09,-167.21"/>
</g>
<!-- Node3&#45;&gt;Node19 -->
<g id="edge34" class="edge">
<title>Node3&#45;&gt;Node19</title>
<path fill="none" stroke="#63b8ff" d="M1567.7,-255.29C1376.27,-248.75 743.5,-222.22 684.25,-156 574.43,-33.25 1301.02,-14.25 1475.97,-11.46"/>
<polygon fill="#63b8ff" stroke="#63b8ff" points="1475.91,-14.96 1485.85,-11.31 1475.8,-7.96 1475.91,-14.96"/>
</g>
<!-- Node21 -->
<g id="node21" class="node">
<title>Node21</title>
<g id="a_node21"><a xlink:title=" ">
<polygon fill="#e0e0e0" stroke="#999999" points="1823,-150 1781.5,-150 1781.5,-130 1823,-130 1823,-150"/>
<text text-anchor="middle" x="1802.25" y="-136.5" font-family="Helvetica,sans-Serif" font-size="10.00">vector</text>
</a>
</g>
</g>
<!-- Node3&#45;&gt;Node21 -->
<g id="edge35" class="edge">
<title>Node3&#45;&gt;Node21</title>
<path fill="none" stroke="#63b8ff" d="M1636.98,-247.51C1668.04,-227.49 1740.5,-180.8 1778.31,-156.42"/>
<polygon fill="#63b8ff" stroke="#63b8ff" points="1779.79,-159.64 1786.3,-151.28 1775.99,-153.76 1779.79,-159.64"/>
</g>
<!-- Node22 -->
<g id="node22" class="node">
<title>Node22</title>
<g id="a_node22"><a xlink:href="FMTobject_8hpp.html" target="_top" xlink:title=" ">
<polygon fill="white" stroke="#666666" points="1967.5,-212 1887,-212 1887,-192 1967.5,-192 1967.5,-212"/>
<text text-anchor="middle" x="1927.25" y="-198.5" font-family="Helvetica,sans-Serif" font-size="10.00">FMTobject.hpp</text>
</a>
</g>
</g>
<!-- Node3&#45;&gt;Node22 -->
<g id="edge25" class="edge">
<title>Node3&#45;&gt;Node22</title>
<path fill="none" stroke="#63b8ff" d="M1675.73,-247.53C1731.99,-237.57 1819.93,-222 1875.52,-212.16"/>
<polygon fill="#63b8ff" stroke="#63b8ff" points="1875.8,-215.66 1885.04,-210.47 1874.58,-208.77 1875.8,-215.66"/>
</g>
<!-- Node26 -->
<g id="node26" class="node">
<title>Node26</title>
<g id="a_node26"><a xlink:href="FMTexceptionhandler_8hpp.html" target="_top" xlink:title=" ">
<polygon fill="white" stroke="#666666" points="427.12,-212 299.38,-212 299.38,-192 427.12,-192 427.12,-212"/>
<text text-anchor="middle" x="363.25" y="-198.5" font-family="Helvetica,sans-Serif" font-size="10.00">FMTexceptionhandler.hpp</text>
</a>
</g>
</g>
<!-- Node3&#45;&gt;Node26 -->
<g id="edge37" class="edge">
<title>Node3&#45;&gt;Node26</title>
<path fill="none" stroke="#63b8ff" d="M1567.75,-254.66C1367.24,-246.06 670.21,-216.17 438.67,-206.23"/>
<polygon fill="#63b8ff" stroke="#63b8ff" points="439,-202.75 428.86,-205.81 438.7,-209.74 439,-202.75"/>
</g>
<!-- Node5 -->
<g id="node5" class="node">
<title>Node5</title>
<g id="a_node5"><a xlink:title=" ">
<polygon fill="#e0e0e0" stroke="#999999" points="1079.12,-150 951.38,-150 951.38,-130 1079.12,-130 1079.12,-150"/>
<text text-anchor="middle" x="1015.25" y="-136.5" font-family="Helvetica,sans-Serif" font-size="10.00">boost/dynamic_bitset.hpp</text>
</a>
</g>
</g>
<!-- Node4&#45;&gt;Node5 -->
<g id="edge4" class="edge">
<title>Node4&#45;&gt;Node5</title>
<path fill="none" stroke="#63b8ff" d="M1200.03,-191.62C1162.45,-181.33 1101.95,-164.75 1060.48,-153.39"/>
<polygon fill="#63b8ff" stroke="#63b8ff" points="1061.62,-150.07 1051.05,-150.81 1059.77,-156.83 1061.62,-150.07"/>
</g>
<!-- Node6 -->
<g id="node6" class="node">
<title>Node6</title>
<g id="a_node6"><a xlink:title=" ">
<polygon fill="#e0e0e0" stroke="#999999" points="1225.5,-150 1097,-150 1097,-130 1225.5,-130 1225.5,-150"/>
<text text-anchor="middle" x="1161.25" y="-136.5" font-family="Helvetica,sans-Serif" font-size="10.00">boost/unordered_map.hpp</text>
</a>
</g>
</g>
<!-- Node4&#45;&gt;Node6 -->
<g id="edge5" class="edge">
<title>Node4&#45;&gt;Node6</title>
<path fill="none" stroke="#63b8ff" d="M1222.84,-191.62C1211.64,-182.41 1194.31,-168.17 1180.88,-157.14"/>
<polygon fill="#63b8ff" stroke="#63b8ff" points="1183.45,-154.72 1173.51,-151.07 1179.01,-160.13 1183.45,-154.72"/>
</g>
<!-- Node7 -->
<g id="node7" class="node">
<title>Node7</title>
<g id="a_node7"><a xlink:title=" ">
<polygon fill="#e0e0e0" stroke="#999999" points="1372.5,-150 1244,-150 1244,-130 1372.5,-130 1372.5,-150"/>
<text text-anchor="middle" x="1308.25" y="-136.5" font-family="Helvetica,sans-Serif" font-size="10.00">boost/algorithm/string.hpp</text>
</a>
</g>
</g>
<!-- Node4&#45;&gt;Node7 -->
<g id="edge6" class="edge">
<title>Node4&#45;&gt;Node7</title>
<path fill="none" stroke="#63b8ff" d="M1245.81,-191.62C1257.17,-182.41 1274.74,-168.17 1288.35,-157.14"/>
<polygon fill="#63b8ff" stroke="#63b8ff" points="1290.27,-160.08 1295.84,-151.07 1285.86,-154.65 1290.27,-160.08"/>
</g>
<!-- Node8 -->
<g id="node8" class="node">
<title>Node8</title>
<g id="a_node8"><a xlink:title=" ">
<polygon fill="#e0e0e0" stroke="#999999" points="1500.12,-156 1390.38,-156 1390.38,-124 1500.12,-124 1500.12,-156"/>
<text text-anchor="start" x="1398.38" y="-142.5" font-family="Helvetica,sans-Serif" font-size="10.00">boost/algorithm/string</text>
<text text-anchor="middle" x="1445.25" y="-130.5" font-family="Helvetica,sans-Serif" font-size="10.00">/join.hpp</text>
</a>
</g>
</g>
<!-- Node4&#45;&gt;Node8 -->
<g id="edge7" class="edge">
<title>Node4&#45;&gt;Node8</title>
<path fill="none" stroke="#63b8ff" d="M1267.22,-191.62C1297.28,-183.08 1342.58,-170.19 1379.96,-159.57"/>
<polygon fill="#63b8ff" stroke="#63b8ff" points="1380.66,-163.01 1389.32,-156.9 1378.74,-156.27 1380.66,-163.01"/>
</g>
<!-- Node9 -->
<g id="node9" class="node">
<title>Node9</title>
<g id="a_node9"><a xlink:title=" ">
<polygon fill="#e0e0e0" stroke="#999999" points="820.75,-150 693.75,-150 693.75,-130 820.75,-130 820.75,-150"/>
<text text-anchor="middle" x="757.25" y="-136.5" font-family="Helvetica,sans-Serif" font-size="10.00">boost/functional/hash.hpp</text>
</a>
</g>
</g>
<!-- Node4&#45;&gt;Node9 -->
<g id="edge8" class="edge">
<title>Node4&#45;&gt;Node9</title>
<path fill="none" stroke="#63b8ff" d="M1194.81,-197.82C1122.33,-191.7 963.22,-177.02 830.25,-156 823.95,-155 817.36,-153.83 810.84,-152.6"/>
<polygon fill="#63b8ff" stroke="#63b8ff" points="811.95,-149.25 801.46,-150.76 810.6,-156.12 811.95,-149.25"/>
</g>
<!-- Node4&#45;&gt;Node10 -->
<g id="edge9" class="edge">
<title>Node4&#45;&gt;Node10</title>
<path fill="none" stroke="#63b8ff" d="M1194.94,-201.07C1084.59,-200.74 762.76,-196.13 499.25,-156 498.58,-155.9 497.9,-155.79 497.22,-155.68"/>
<polygon fill="#63b8ff" stroke="#63b8ff" points="498,-152.26 487.53,-153.89 496.72,-159.15 498,-152.26"/>
</g>
<!-- Node11 -->
<g id="node11" class="node">
<title>Node11</title>
<g id="a_node11"><a xlink:title=" ">
<polygon fill="#e0e0e0" stroke="#999999" points="933.62,-156 838.88,-156 838.88,-124 933.62,-124 933.62,-156"/>
<text text-anchor="start" x="846.88" y="-142.5" font-family="Helvetica,sans-Serif" font-size="10.00">boost/serialization</text>
<text text-anchor="middle" x="886.25" y="-130.5" font-family="Helvetica,sans-Serif" font-size="10.00">/split_free.hpp</text>
</a>
</g>
</g>
<!-- Node4&#45;&gt;Node11 -->
<g id="edge10" class="edge">
<title>Node4&#45;&gt;Node11</title>
<path fill="none" stroke="#63b8ff" d="M1194.8,-196.31C1140.61,-189.56 1039.9,-175.93 945.06,-156.46"/>
<polygon fill="#63b8ff" stroke="#63b8ff" points="945.81,-153.04 935.31,-154.43 944.38,-159.9 945.81,-153.04"/>
</g>
<!-- Node4&#45;&gt;Node12 -->
<g id="edge11" class="edge">
<title>Node4&#45;&gt;Node12</title>
<path fill="none" stroke="#63b8ff" d="M1273.79,-198.82C1347.4,-194.34 1510.54,-182.37 1657.48,-156.13"/>
<polygon fill="#63b8ff" stroke="#63b8ff" points="1657.77,-159.64 1666.99,-154.41 1656.52,-152.75 1657.77,-159.64"/>
</g>
<!-- Node4&#45;&gt;Node13 -->
<g id="edge12" class="edge">
<title>Node4&#45;&gt;Node13</title>
<path fill="none" stroke="#63b8ff" d="M1273.78,-199.81C1341.56,-196.93 1475.88,-187.34 1509.25,-156 1524.38,-141.79 1528.63,-118.2 1529.38,-99.79"/>
<polygon fill="#63b8ff" stroke="#63b8ff" points="1532.88,-99.85 1529.43,-89.84 1525.88,-99.82 1532.88,-99.85"/>
</g>
<!-- Node4&#45;&gt;Node14 -->
<g id="edge13" class="edge">
<title>Node4&#45;&gt;Node14</title>
<path fill="none" stroke="#63b8ff" d="M1273.84,-196.45C1332.67,-189.41 1446.52,-174.72 1542.25,-156 1542.92,-155.87 1543.59,-155.74 1544.27,-155.6"/>
<polygon fill="#63b8ff" stroke="#63b8ff" points="1544.87,-159.05 1553.92,-153.54 1543.41,-152.21 1544.87,-159.05"/>
</g>
<!-- Node15 -->
<g id="node15" class="node">
<title>Node15</title>
<g id="a_node15"><a xlink:href="FMTexception_8hpp.html" target="_top" xlink:title=" ">
<polygon fill="white" stroke="#666666" points="561.38,-82 465.12,-82 465.12,-62 561.38,-62 561.38,-82"/>
<text text-anchor="middle" x="513.25" y="-68.5" font-family="Helvetica,sans-Serif" font-size="10.00">FMTexception.hpp</text>
</a>
</g>
</g>
<!-- Node4&#45;&gt;Node15 -->
<g id="edge14" class="edge">
<title>Node4&#45;&gt;Node15</title>
<path fill="none" stroke="#63b8ff" d="M1194.82,-199.66C1085.57,-195.65 780.71,-182.36 684.25,-156 628.53,-140.77 569.05,-107.56 537.01,-88.08"/>
<polygon fill="#63b8ff" stroke="#63b8ff" points="539.25,-85.35 528.9,-83.07 535.57,-91.3 539.25,-85.35"/>
</g>
<!-- Node17 -->
<g id="node17" class="node">
<title>Node17</title>
<g id="a_node17"><a xlink:title=" ">
<polygon fill="#e0e0e0" stroke="#999999" points="413.25,-20 373.25,-20 373.25,0 413.25,0 413.25,-20"/>
<text text-anchor="middle" x="393.25" y="-6.5" font-family="Helvetica,sans-Serif" font-size="10.00">string</text>
</a>
</g>
</g>
<!-- Node4&#45;&gt;Node17 -->
<g id="edge21" class="edge">
<title>Node4&#45;&gt;Node17</title>
<path fill="none" stroke="#63b8ff" d="M1194.73,-200.04C1074.74,-196.85 715.98,-185.05 603.25,-156 533.54,-138.03 513.15,-132.09 456.25,-88 435.11,-71.62 416.49,-46.88 405.08,-29.89"/>
<polygon fill="#63b8ff" stroke="#63b8ff" points="408.16,-28.2 399.77,-21.72 402.29,-32.02 408.16,-28.2"/>
</g>
<!-- Node4&#45;&gt;Node21 -->
<g id="edge20" class="edge">
<title>Node4&#45;&gt;Node21</title>
<path fill="none" stroke="#63b8ff" d="M1273.61,-199.64C1381.18,-195.61 1678.28,-182.37 1772.25,-156 1773.43,-155.67 1774.61,-155.29 1775.8,-154.88"/>
<polygon fill="#63b8ff" stroke="#63b8ff" points="1776.99,-158.18 1784.81,-151.02 1774.24,-151.74 1776.99,-158.18"/>
</g>
<!-- Node16 -->
<g id="node16" class="node">
<title>Node16</title>
<g id="a_node16"><a xlink:title=" ">
<polygon fill="#e0e0e0" stroke="#999999" points="585.25,-20 527.25,-20 527.25,0 585.25,0 585.25,-20"/>
<text text-anchor="middle" x="556.25" y="-6.5" font-family="Helvetica,sans-Serif" font-size="10.00">exception</text>
</a>
</g>
</g>
<!-- Node15&#45;&gt;Node16 -->
<g id="edge15" class="edge">
<title>Node15&#45;&gt;Node16</title>
<path fill="none" stroke="#63b8ff" d="M519.97,-61.62C526.13,-53.03 535.42,-40.07 543.06,-29.41"/>
<polygon fill="#63b8ff" stroke="#63b8ff" points="545.86,-31.51 548.84,-21.34 540.17,-27.43 545.86,-31.51"/>
</g>
<!-- Node15&#45;&gt;Node17 -->
<g id="edge16" class="edge">
<title>Node15&#45;&gt;Node17</title>
<path fill="none" stroke="#63b8ff" d="M494.5,-61.62C475.04,-51.89 444.35,-36.55 421.86,-25.31"/>
<polygon fill="#63b8ff" stroke="#63b8ff" points="423.73,-22.33 413.22,-20.99 420.6,-28.59 423.73,-22.33"/>
</g>
<!-- Node18 -->
<g id="node18" class="node">
<title>Node18</title>
<g id="a_node18"><a xlink:title=" ">
<polygon fill="#e0e0e0" stroke="#999999" points="657,-20 603.5,-20 603.5,0 657,0 657,-20"/>
<text text-anchor="middle" x="630.25" y="-6.5" font-family="Helvetica,sans-Serif" font-size="10.00">iostream</text>
</a>
</g>
</g>
<!-- Node15&#45;&gt;Node18 -->
<g id="edge17" class="edge">
<title>Node15&#45;&gt;Node18</title>
<path fill="none" stroke="#63b8ff" d="M531.53,-61.62C550.42,-51.94 580.15,-36.69 602.06,-25.46"/>
<polygon fill="#63b8ff" stroke="#63b8ff" points="603.45,-28.68 610.75,-21 600.26,-22.45 603.45,-28.68"/>
</g>
<!-- Node15&#45;&gt;Node19 -->
<g id="edge18" class="edge">
<title>Node15&#45;&gt;Node19</title>
<path fill="none" stroke="#63b8ff" d="M547.13,-61.58C556.2,-59.39 566.04,-57.32 575.25,-56 753.78,-30.36 1324.39,-15.43 1475.98,-11.84"/>
<polygon fill="#63b8ff" stroke="#63b8ff" points="1475.93,-15.35 1485.84,-11.61 1475.76,-8.35 1475.93,-15.35"/>
</g>
<!-- Node20 -->
<g id="node20" class="node">
<title>Node20</title>
<g id="a_node20"><a xlink:href="FMTutility_8hpp.html" target="_top" xlink:title=" ">
<polygon fill="white" stroke="#666666" points="509,-20 431.5,-20 431.5,0 509,0 509,-20"/>
<text text-anchor="middle" x="470.25" y="-6.5" font-family="Helvetica,sans-Serif" font-size="10.00">FMTutility.hpp</text>
</a>
</g>
</g>
<!-- Node15&#45;&gt;Node20 -->
<g id="edge19" class="edge">
<title>Node15&#45;&gt;Node20</title>
<path fill="none" stroke="#63b8ff" d="M506.53,-61.62C500.37,-53.03 491.08,-40.07 483.44,-29.41"/>
<polygon fill="#63b8ff" stroke="#63b8ff" points="486.33,-27.43 477.66,-21.34 480.64,-31.51 486.33,-27.43"/>
</g>
<!-- Node22&#45;&gt;Node12 -->
<g id="edge27" class="edge">
<title>Node22&#45;&gt;Node12</title>
<path fill="none" stroke="#63b8ff" d="M1894.28,-191.62C1862.29,-182.53 1813.04,-168.52 1774.45,-157.55"/>
<polygon fill="#63b8ff" stroke="#63b8ff" points="1775.9,-154.32 1765.32,-154.95 1773.98,-161.06 1775.9,-154.32"/>
</g>
<!-- Node22&#45;&gt;Node13 -->
<g id="edge28" class="edge">
<title>Node22&#45;&gt;Node13</title>
<path fill="none" stroke="#63b8ff" d="M1927.34,-191.71C1926.95,-175.27 1923.57,-141.18 1903.25,-124 1856.71,-84.65 1680.7,-75.55 1587.3,-73.52"/>
<polygon fill="#63b8ff" stroke="#63b8ff" points="1587.64,-70.03 1577.57,-73.33 1587.5,-77.03 1587.64,-70.03"/>
</g>
<!-- Node22&#45;&gt;Node15 -->
<g id="edge29" class="edge">
<title>Node22&#45;&gt;Node15</title>
<path fill="none" stroke="#63b8ff" d="M1919.56,-191.66C1904.76,-174.49 1870.4,-138.36 1832.25,-124 1713.61,-79.36 814.81,-73.79 573,-73.1"/>
<polygon fill="#63b8ff" stroke="#63b8ff" points="573.18,-69.6 563.17,-73.07 573.16,-76.6 573.18,-69.6"/>
</g>
<!-- Node22&#45;&gt;Node19 -->
<g id="edge30" class="edge">
<title>Node22&#45;&gt;Node19</title>
<path fill="none" stroke="#63b8ff" d="M1967.7,-198.54C2052.97,-192.96 2244.96,-178.04 2264.25,-156 2273.62,-145.3 2273.53,-134.78 2264.25,-124 2170.22,-14.77 1689.06,-9.69 1550.58,-10.54"/>
<polygon fill="#63b8ff" stroke="#63b8ff" points="1550.85,-7.04 1540.88,-10.61 1550.9,-14.04 1550.85,-7.04"/>
</g>
<!-- Node22&#45;&gt;Node21 -->
<g id="edge32" class="edge">
<title>Node22&#45;&gt;Node21</title>
<path fill="none" stroke="#63b8ff" d="M1907.72,-191.62C1887.35,-181.85 1855.19,-166.41 1831.74,-155.15"/>
<polygon fill="#63b8ff" stroke="#63b8ff" points="1833.54,-152.14 1823.01,-150.96 1830.51,-158.45 1833.54,-152.14"/>
</g>
<!-- Node23 -->
<g id="node23" class="node">
<title>Node23</title>
<g id="a_node23"><a xlink:title=" ">
<polygon fill="#e0e0e0" stroke="#999999" points="2049.62,-156 1954.88,-156 1954.88,-124 2049.62,-124 2049.62,-156"/>
<text text-anchor="start" x="1962.88" y="-142.5" font-family="Helvetica,sans-Serif" font-size="10.00">boost/serialization</text>
<text text-anchor="middle" x="2002.25" y="-130.5" font-family="Helvetica,sans-Serif" font-size="10.00">/shared_ptr.hpp</text>
</a>
</g>
</g>
<!-- Node22&#45;&gt;Node23 -->
<g id="edge26" class="edge">
<title>Node22&#45;&gt;Node23</title>
<path fill="none" stroke="#63b8ff" d="M1938.97,-191.62C1948.36,-184.11 1961.93,-173.26 1974.09,-163.52"/>
<polygon fill="#63b8ff" stroke="#63b8ff" points="1976.23,-166.3 1981.85,-157.32 1971.86,-160.83 1976.23,-166.3"/>
</g>
<!-- Node24 -->
<g id="node24" class="node">
<title>Node24</title>
<g id="a_node24"><a xlink:title=" ">
<polygon fill="#e0e0e0" stroke="#999999" points="2112.88,-150 2067.62,-150 2067.62,-130 2112.88,-130 2112.88,-150"/>
<text text-anchor="middle" x="2090.25" y="-136.5" font-family="Helvetica,sans-Serif" font-size="10.00">chrono</text>
</a>
</g>
</g>
<!-- Node22&#45;&gt;Node24 -->
<g id="edge31" class="edge">
<title>Node22&#45;&gt;Node24</title>
<path fill="none" stroke="#63b8ff" d="M1957.77,-191.54C1984.54,-183.01 2024.37,-169.71 2058.25,-156 2059.04,-155.68 2059.84,-155.35 2060.64,-155.02"/>
<polygon fill="#63b8ff" stroke="#63b8ff" points="2062,-158.24 2069.72,-150.99 2059.16,-151.84 2062,-158.24"/>
</g>
<!-- Node25 -->
<g id="node25" class="node">
<title>Node25</title>
<g id="a_node25"><a xlink:title=" ">
<polygon fill="#e0e0e0" stroke="#999999" points="2255.62,-156 2130.88,-156 2130.88,-124 2255.62,-124 2255.62,-156"/>
<text text-anchor="start" x="2138.88" y="-142.5" font-family="Helvetica,sans-Serif" font-size="10.00">boost/dll/runtime_symbol</text>
<text text-anchor="middle" x="2193.25" y="-130.5" font-family="Helvetica,sans-Serif" font-size="10.00">_info.hpp</text>
</a>
</g>
</g>
<!-- Node22&#45;&gt;Node25 -->
<g id="edge33" class="edge">
<title>Node22&#45;&gt;Node25</title>
<path fill="none" stroke="#63b8ff" d="M1967.94,-191.82C2008.11,-182.76 2070.44,-168.7 2119.37,-157.66"/>
<polygon fill="#63b8ff" stroke="#63b8ff" points="2120.09,-161.09 2129.07,-155.48 2118.54,-154.26 2120.09,-161.09"/>
</g>
<!-- Node26&#45;&gt;Node10 -->
<g id="edge45" class="edge">
<title>Node26&#45;&gt;Node10</title>
<path fill="none" stroke="#63b8ff" d="M374.97,-191.62C384.36,-184.11 397.93,-173.26 410.09,-163.52"/>
<polygon fill="#63b8ff" stroke="#63b8ff" points="412.23,-166.3 417.85,-157.32 407.86,-160.83 412.23,-166.3"/>
</g>
<!-- Node26&#45;&gt;Node12 -->
<g id="edge46" class="edge">
<title>Node26&#45;&gt;Node12</title>
<path fill="none" stroke="#63b8ff" d="M427.49,-200.66C651.09,-199.18 1395.33,-191.76 1657.16,-156"/>
<polygon fill="#63b8ff" stroke="#63b8ff" points="1657.61,-159.47 1667.02,-154.6 1656.62,-152.54 1657.61,-159.47"/>
</g>
<!-- Node26&#45;&gt;Node13 -->
<g id="edge47" class="edge">
<title>Node26&#45;&gt;Node13</title>
<path fill="none" stroke="#63b8ff" d="M391.05,-191.54C441.96,-174.66 553.91,-139.68 651.25,-124 956.25,-74.88 1327.64,-71.56 1469.42,-72.32"/>
<polygon fill="#63b8ff" stroke="#63b8ff" points="1469.29,-75.82 1479.31,-72.38 1469.33,-68.82 1469.29,-75.82"/>
</g>
<!-- Node26&#45;&gt;Node19 -->
<g id="edge48" class="edge">
<title>Node26&#45;&gt;Node19</title>
<path fill="none" stroke="#63b8ff" d="M362.59,-191.62C362.01,-175.34 363.37,-141.91 382.25,-124 443.97,-65.45 492.38,-122.26 570.25,-88 592.06,-78.41 590.83,-64.05 613.25,-56 695.3,-26.52 1316.9,-14.26 1476.16,-11.58"/>
<polygon fill="#63b8ff" stroke="#63b8ff" points="1475.78,-15.09 1485.72,-11.43 1475.67,-8.09 1475.78,-15.09"/>
</g>
<!-- Node27 -->
<g id="node27" class="node">
<title>Node27</title>
<g id="a_node27"><a xlink:href="FMTlogger_8hpp.html" target="_top" xlink:title=" ">
<polygon fill="white" stroke="#666666" points="80.5,-150 0,-150 0,-130 80.5,-130 80.5,-150"/>
<text text-anchor="middle" x="40.25" y="-136.5" font-family="Helvetica,sans-Serif" font-size="10.00">FMTlogger.hpp</text>
</a>
</g>
</g>
<!-- Node26&#45;&gt;Node27 -->
<g id="edge38" class="edge">
<title>Node26&#45;&gt;Node27</title>
<path fill="none" stroke="#63b8ff" d="M299.1,-192.95C243.27,-185.35 160.36,-172.64 89.25,-156 86.12,-155.27 82.9,-154.44 79.68,-153.57"/>
<polygon fill="#63b8ff" stroke="#63b8ff" points="80.87,-150.27 70.29,-150.87 78.94,-157 80.87,-150.27"/>
</g>
<!-- Node30 -->
<g id="node30" class="node">
<title>Node30</title>
<g id="a_node30"><a xlink:title=" ">
<polygon fill="#e0e0e0" stroke="#999999" points="335.62,-150 252.88,-150 252.88,-130 335.62,-130 335.62,-150"/>
<text text-anchor="middle" x="294.25" y="-136.5" font-family="Helvetica,sans-Serif" font-size="10.00">unordered_map</text>
</a>
</g>
</g>
<!-- Node26&#45;&gt;Node30 -->
<g id="edge44" class="edge">
<title>Node26&#45;&gt;Node30</title>
<path fill="none" stroke="#63b8ff" d="M352.47,-191.62C341.98,-182.5 325.81,-168.45 313.18,-157.46"/>
<polygon fill="#63b8ff" stroke="#63b8ff" points="315.71,-155.03 305.87,-151.11 311.12,-160.31 315.71,-155.03"/>
</g>
<!-- Node31 -->
<g id="node31" class="node">
<title>Node31</title>
<g id="a_node31"><a xlink:title=" ">
<polygon fill="#e0e0e0" stroke="#999999" points="128,-150 98.5,-150 98.5,-130 128,-130 128,-150"/>
<text text-anchor="middle" x="113.25" y="-136.5" font-family="Helvetica,sans-Serif" font-size="10.00">set</text>
</a>
</g>
</g>
<!-- Node26&#45;&gt;Node31 -->
<g id="edge49" class="edge">
<title>Node26&#45;&gt;Node31</title>
<path fill="none" stroke="#63b8ff" d="M299.15,-194.51C252.92,-188.34 189.69,-176.8 137.25,-156 137.02,-155.91 136.79,-155.82 136.56,-155.72"/>
<polygon fill="#63b8ff" stroke="#63b8ff" points="138.33,-152.69 127.84,-151.17 135.09,-158.9 138.33,-152.69"/>
</g>
<!-- Node32 -->
<g id="node32" class="node">
<title>Node32</title>
<g id="a_node32"><a xlink:title=" ">
<polygon fill="#e0e0e0" stroke="#999999" points="234.62,-150 145.88,-150 145.88,-130 234.62,-130 234.62,-150"/>
<text text-anchor="middle" x="190.25" y="-136.5" font-family="Helvetica,sans-Serif" font-size="10.00">boost/thread.hpp</text>
</a>
</g>
</g>
<!-- Node26&#45;&gt;Node32 -->
<g id="edge50" class="edge">
<title>Node26&#45;&gt;Node32</title>
<path fill="none" stroke="#63b8ff" d="M336.22,-191.62C307.1,-181.53 260.57,-165.39 227.88,-154.05"/>
<polygon fill="#63b8ff" stroke="#63b8ff" points="229.4,-150.87 218.81,-150.9 227.11,-157.49 229.4,-150.87"/>
</g>
<!-- Node27&#45;&gt;Node13 -->
<g id="edge39" class="edge">
<title>Node27&#45;&gt;Node13</title>
<path fill="none" stroke="#63b8ff" d="M66.65,-129.54C73.88,-127.33 81.79,-125.25 89.25,-124 361.24,-78.36 1233.39,-73.51 1469.07,-73.04"/>
<polygon fill="#63b8ff" stroke="#63b8ff" points="1468.95,-76.54 1478.94,-73.02 1468.94,-69.54 1468.95,-76.54"/>
</g>
<!-- Node27&#45;&gt;Node15 -->
<g id="edge43" class="edge">
<title>Node27&#45;&gt;Node15</title>
<path fill="none" stroke="#63b8ff" d="M68.01,-129.57C74.89,-127.49 82.29,-125.47 89.25,-124 217.46,-96.89 370.74,-82.9 453.36,-76.84"/>
<polygon fill="#63b8ff" stroke="#63b8ff" points="453.55,-80.34 463.28,-76.13 453.05,-73.36 453.55,-80.34"/>
</g>
<!-- Node27&#45;&gt;Node17 -->
<g id="edge42" class="edge">
<title>Node27&#45;&gt;Node17</title>
<path fill="none" stroke="#63b8ff" d="M32.69,-129.53C20.2,-112.68 -1.61,-77.25 17.25,-56 39.99,-30.37 275.04,-16.64 361.53,-12.43"/>
<polygon fill="#63b8ff" stroke="#63b8ff" points="361.61,-15.93 371.43,-11.96 361.28,-8.94 361.61,-15.93"/>
</g>
<!-- Node28 -->
<g id="node28" class="node">
<title>Node28</title>
<g id="a_node28"><a xlink:title=" ">
<polygon fill="#e0e0e0" stroke="#999999" points="137.88,-88 26.62,-88 26.62,-56 137.88,-56 137.88,-88"/>
<text text-anchor="start" x="34.62" y="-74.5" font-family="Helvetica,sans-Serif" font-size="10.00">boost/thread/recursive</text>
<text text-anchor="middle" x="82.25" y="-62.5" font-family="Helvetica,sans-Serif" font-size="10.00">_mutex.hpp</text>
</a>
</g>
</g>
<!-- Node27&#45;&gt;Node28 -->
<g id="edge40" class="edge">
<title>Node27&#45;&gt;Node28</title>
<path fill="none" stroke="#63b8ff" d="M46.27,-129.54C51.51,-121.3 59.36,-108.97 66.39,-97.93"/>
<polygon fill="#63b8ff" stroke="#63b8ff" points="69.28,-99.89 71.7,-89.58 63.38,-96.14 69.28,-99.89"/>
</g>
<!-- Node29 -->
<g id="node29" class="node">
<title>Node29</title>
<g id="a_node29"><a xlink:title=" ">
<polygon fill="#e0e0e0" stroke="#999999" points="204.38,-82 156.12,-82 156.12,-62 204.38,-62 204.38,-82"/>
<text text-anchor="middle" x="180.25" y="-68.5" font-family="Helvetica,sans-Serif" font-size="10.00">fstream</text>
</a>
</g>
</g>
<!-- Node27&#45;&gt;Node29 -->
<g id="edge41" class="edge">
<title>Node27&#45;&gt;Node29</title>
<path fill="none" stroke="#63b8ff" d="M60.31,-129.54C83.8,-118.47 122.96,-100.01 150.11,-87.21"/>
<polygon fill="#63b8ff" stroke="#63b8ff" points="151.31,-90.51 158.86,-83.08 148.32,-84.18 151.31,-90.51"/>
</g>
<!-- Node33&#45;&gt;Node3 -->
<g id="edge55" class="edge">
<title>Node33&#45;&gt;Node3</title>
<path fill="none" stroke="#63b8ff" d="M1622.25,-309.62C1622.25,-301.56 1622.25,-289.65 1622.25,-279.41"/>
<polygon fill="#63b8ff" stroke="#63b8ff" points="1625.75,-279.63 1622.25,-269.63 1618.75,-279.63 1625.75,-279.63"/>
</g>
<!-- Node33&#45;&gt;Node10 -->
<g id="edge56" class="edge">
<title>Node33&#45;&gt;Node10</title>
<path fill="none" stroke="#63b8ff" d="M1554.78,-319.14C1331.28,-319.16 624.21,-315.43 534.25,-268 523.13,-262.14 479.35,-200.49 454.93,-165.29"/>
<polygon fill="#63b8ff" stroke="#63b8ff" points="458.03,-163.61 449.46,-157.38 452.27,-167.59 458.03,-163.61"/>
</g>
<!-- Node33&#45;&gt;Node12 -->
<g id="edge57" class="edge">
<title>Node33&#45;&gt;Node12</title>
<path fill="none" stroke="#63b8ff" d="M1639.33,-309.53C1653.74,-300.66 1673.8,-286.07 1685.25,-268 1704.85,-237.08 1712.05,-194.71 1714.71,-167.59"/>
<polygon fill="#63b8ff" stroke="#63b8ff" points="1718.18,-168.06 1715.51,-157.8 1711.2,-167.48 1718.18,-168.06"/>
</g>
<!-- Node33&#45;&gt;Node13 -->
<g id="edge58" class="edge">
<title>Node33&#45;&gt;Node13</title>
<path fill="none" stroke="#63b8ff" d="M1554.5,-318C1358.26,-313.53 796.24,-289.13 684.25,-156 675.09,-145.12 674.5,-134.36 684.25,-124 711.14,-95.44 1281.66,-79.01 1469.13,-74.37"/>
<polygon fill="#63b8ff" stroke="#63b8ff" points="1468.97,-77.88 1478.88,-74.13 1468.8,-70.88 1468.97,-77.88"/>
</g>
</g>
</svg>
        <g id="navigator" transform="translate(0 0)" fill="#404254">
                <rect fill="#f2f5e9" fill-opacity="0.5" stroke="#606060" stroke-width=".5" x="0" y="0" width="60" height="60"/>
                <use id="zoomplus" xlink:href="#zoomPlus" x="17" y="9" onmousedown="handleZoom(evt,'in')"/>
                <use id="zoomminus" xlink:href="#zoomMin" x="42" y="9" onmousedown="handleZoom(evt,'out')"/>
                <use id="reset" xlink:href="#resetDef" x="30" y="36" onmousedown="handleReset()"/>
                <g id="arrowUp" xlink:href="#dirArrow" transform="translate(30 24)" onmousedown="handlePan(0,-1)">
                  <use xlink:href="#rim" fill="#404040">
                        <set attributeName="fill" to="#808080" begin="arrowUp.mouseover" end="arrowUp.mouseout"/>
                  </use>
                  <path fill="none" stroke="white" stroke-width="1.5" d="M0,-3.0v7 M-2.5,-0.5L0,-3.0L2.5,-0.5"/>
                </g>
                <g id="arrowRight" xlink:href="#dirArrow" transform="rotate(90) translate(36 -43)" onmousedown="handlePan(1,0)">
                  <use xlink:href="#rim" fill="#404040">
                        <set attributeName="fill" to="#808080" begin="arrowRight.mouseover" end="arrowRight.mouseout"/>
                  </use>
                  <path fill="none" stroke="white" stroke-width="1.5" d="M0,-3.0v7 M-2.5,-0.5L0,-3.0L2.5,-0.5"/>
                </g>
                <g id="arrowDown" xlink:href="#dirArrow" transform="rotate(180) translate(-30 -48)" onmousedown="handlePan(0,1)">
                  <use xlink:href="#rim" fill="#404040">
                        <set attributeName="fill" to="#808080" begin="arrowDown.mouseover" end="arrowDown.mouseout"/>
                  </use>
                  <path fill="none" stroke="white" stroke-width="1.5" d="M0,-3.0v7 M-2.5,-0.5L0,-3.0L2.5,-0.5"/>
                </g>
                <g id="arrowLeft" xlink:href="#dirArrow" transform="rotate(270) translate(-36 17)" onmousedown="handlePan(-1,0)">
                  <use xlink:href="#rim" fill="#404040">
                        <set attributeName="fill" to="#808080" begin="arrowLeft.mouseover" end="arrowLeft.mouseout"/>
                  </use>
                  <path fill="none" stroke="white" stroke-width="1.5" d="M0,-3.0v7 M-2.5,-0.5L0,-3.0L2.5,-0.5"/>
                </g>
        </g>
        <svg viewBox="0 0 15 15" width="100%" height="30px" preserveAspectRatio="xMaxYMin meet">
         <g id="arrow_out" transform="scale(0.3 0.3)">
          <a xlink:href="FMTbasevertexproperties_8hpp__incl_org.svg" target="_base">
           <rect id="button" ry="5" rx="5" y="6" x="6" height="38" width="38"
                fill="#f2f5e9" fill-opacity="0.5" stroke="#606060" stroke-width="1.0"/>
           <path id="arrow"
             d="M 11.500037,31.436501 C 11.940474,20.09759 22.043105,11.32322 32.158766,21.979434 L 37.068811,17.246167 C 37.068811,17.246167 37.088388,32 37.088388,32 L 22.160133,31.978069 C 22.160133,31.978069 26.997745,27.140456 26.997745,27.140456 C 18.528582,18.264221 13.291696,25.230495 11.500037,31.436501 z"
             style="fill:#404040;"/>
          </a>
         </g>
        </svg>
</svg>
