<?xml version="1.0" encoding="UTF-8" standalone="no"?>
<!DOCTYPE svg PUBLIC "-//W3C//DTD SVG 1.1//EN"
 "http://www.w3.org/Graphics/SVG/1.1/DTD/svg11.dtd">
<!-- Generated by graphviz version 8.1.0 (20230707.0739)
 -->
<!-- Title: C:/Temp/out/FMT/Include/FMTbasevertexproperties.hpp Pages: 1 -->
<!--zoomable 584 -->

<svg id="main" version="1.1" xmlns="http://www.w3.org/2000/svg" xmlns:xlink="http://www.w3.org/1999/xlink" xml:space="preserve" onload="init(evt)">
<style type="text/css"><![CDATA[
.node, .edge {opacity: 0.7;}
.node.selected, .edge.selected {opacity: 1;}
.edge:hover path { stroke: red; }
.edge:hover polygon { stroke: red; fill: red; }
]]></style>

<defs>
  <circle id="rim" cx="0" cy="0" r="7"/>
  <circle id="rim2" cx="0" cy="0" r="3.5"/>
  <g id="zoomPlus">
    <use xlink:href="#rim" fill="#404040"><set attributeName="fill" to="#808080" begin="zoomplus.mouseover" end="zoomplus.mouseout"/></use>
    <path d="M-4,0h8M0,-4v8" fill="none" stroke="white" stroke-width="1.5" pointer-events="none"/>
  </g>
  <g id="zoomMin">
    <use xlink:href="#rim" fill="#404040"><set attributeName="fill" to="#808080" begin="zoomminus.mouseover" end="zoomminus.mouseout"/></use>
    <path d="M-4,0h8" fill="none" stroke="white" stroke-width="1.5" pointer-events="none"/>
  </g>
  <g id="arrowUp" transform="translate(30 24)">
    <use xlink:href="#rim"/>
    <path pointer-events="none" fill="none" stroke="white" stroke-width="1.5" d="M0,-3.0v7 M-2.5,-0.5L0,-3.0L2.5,-0.5"/>
  </g>
  <g id="arrowRight" transform="rotate(90) translate(36 -43)">
    <use xlink:href="#rim"/>
    <path pointer-events="none" fill="none" stroke="white" stroke-width="1.5" d="M0,-3.0v7 M-2.5,-0.5L0,-3.0L2.5,-0.5"/>
  </g>
  <g id="arrowDown" transform="rotate(180) translate(-30 -48)">
    <use xlink:href="#rim"/>
    <path pointer-events="none" fill="none" stroke="white" stroke-width="1.5" d="M0,-3.0v7 M-2.5,-0.5L0,-3.0L2.5,-0.5"/>
  </g>
  <g id="arrowLeft" transform="rotate(270) translate(-36 17)">
    <use xlink:href="#rim"/>
    <path pointer-events="none" fill="none" stroke="white" stroke-width="1.5" d="M0,-3.0v7 M-2.5,-0.5L0,-3.0L2.5,-0.5"/>
  </g>
  <g id="resetDef">
    <use xlink:href="#rim2" fill="#404040"><set attributeName="fill" to="#808080" begin="reset.mouseover" end="reset.mouseout"/></use>
  </g>
</defs>
<script type="application/ecmascript">
var viewWidth = 1038;
var viewHeight = 584;
var sectionId = 'dynsection-1';
</script>
<script type="application/ecmascript" xlink:href="svg.min.js"/>
<svg id="graph" class="graph">
<g id="viewport">
<title>C:/Temp/out/FMT/Include/FMTbasevertexproperties.hpp</title>
<!-- Node1 -->
<g id="Node000001" class="node">
<title>Node1</title>
<g id="a_Node000001"><a xlink:title=" ">
<polygon fill="#999999" stroke="#666666" points="578.26,-576 431.76,-576 431.76,-544 578.26,-544 578.26,-576"/>
<text text-anchor="start" x="439.76" y="-562.5" font-family="Helvetica,sans-Serif" font-size="10.00">C:/Temp/out/FMT/Include</text>
<text text-anchor="middle" x="505.01" y="-550.5" font-family="Helvetica,sans-Serif" font-size="10.00">/FMTbasevertexproperties.hpp</text>
</a>
</g>
</g>
<!-- Node2 -->
<g id="Node000002" class="node">
<title>Node2</title>
<g id="a_Node000002"><a xlink:href="FMTvertexproperties_8hpp.html" target="_top" xlink:title=" ">
<polygon fill="white" stroke="#666666" points="567.76,-508 442.26,-508 442.26,-476 567.76,-476 567.76,-508"/>
<text text-anchor="start" x="450.26" y="-494.5" font-family="Helvetica,sans-Serif" font-size="10.00">C:/Temp/out/FMT/Include</text>
<text text-anchor="middle" x="505.01" y="-482.5" font-family="Helvetica,sans-Serif" font-size="10.00">/FMTvertexproperties.hpp</text>
</a>
</g>
</g>
<!-- Node1&#45;&gt;Node2 -->
<g id="edge1_Node000001_Node000002" class="edge">
<title>Node1&#45;&gt;Node2</title>
<g id="a_edge1_Node000001_Node000002"><a xlink:title=" ">
<path fill="none" stroke="#63b8ff" d="M505.01,-532.89C505.01,-524.52 505.01,-515.54 505.01,-508.22"/>
<polygon fill="#63b8ff" stroke="#63b8ff" points="501.51,-532.69 505.01,-542.69 508.51,-532.69 501.51,-532.69"/>
</a>
</g>
</g>
<!-- Node3 -->
<g id="Node000003" class="node">
<title>Node3</title>
<g id="a_Node000003"><a xlink:href="FMTgraph_8hpp.html" target="_top" xlink:title=" ">
<polygon fill="white" stroke="#666666" points="567.76,-440 442.26,-440 442.26,-408 567.76,-408 567.76,-440"/>
<text text-anchor="start" x="450.26" y="-426.5" font-family="Helvetica,sans-Serif" font-size="10.00">C:/Temp/out/FMT/Include</text>
<text text-anchor="middle" x="505.01" y="-414.5" font-family="Helvetica,sans-Serif" font-size="10.00">/FMTgraph.hpp</text>
</a>
</g>
</g>
<!-- Node2&#45;&gt;Node3 -->
<g id="edge2_Node000002_Node000003" class="edge">
<title>Node2&#45;&gt;Node3</title>
<g id="a_edge2_Node000002_Node000003"><a xlink:title=" ">
<path fill="none" stroke="#63b8ff" d="M505.01,-464.89C505.01,-456.52 505.01,-447.54 505.01,-440.22"/>
<polygon fill="#63b8ff" stroke="#63b8ff" points="501.51,-464.69 505.01,-474.69 508.51,-464.69 501.51,-464.69"/>
</a>
</g>
</g>
<!-- Node19 -->
<g id="Node000019" class="node">
<title>Node19</title>
<g id="a_Node000019"><a xlink:href="FMTsrmodel_8hpp.html" target="_top" xlink:title=" ">
<polygon fill="white" stroke="#666666" points="221.76,-236 96.26,-236 96.26,-204 221.76,-204 221.76,-236"/>
<text text-anchor="start" x="104.26" y="-222.5" font-family="Helvetica,sans-Serif" font-size="10.00">C:/Temp/out/FMT/Include</text>
<text text-anchor="middle" x="159.01" y="-210.5" font-family="Helvetica,sans-Serif" font-size="10.00">/FMTsrmodel.hpp</text>
</a>
</g>
</g>
<!-- Node2&#45;&gt;Node19 -->
<g id="edge49_Node000002_Node000019" class="edge">
<title>Node2&#45;&gt;Node19</title>
<g id="a_edge49_Node000002_Node000019"><a xlink:title=" ">
<path fill="none" stroke="#63b8ff" d="M433.52,-472.45C373.95,-454.29 289.39,-421.99 229.01,-372 185.38,-335.88 167.53,-266.56 161.55,-236.04"/>
<polygon fill="#63b8ff" stroke="#63b8ff" points="432.38,-476.06 442.97,-475.56 434.39,-469.35 432.38,-476.06"/>
</a>
</g>
</g>
<!-- Node24 -->
<g id="Node000024" class="node">
<title>Node24</title>
<g id="a_Node000024"><a xlink:href="FMTgraphdescription_8hpp.html" target="_top" xlink:title=" ">
<polygon fill="white" stroke="#666666" points="714.26,-440 585.76,-440 585.76,-408 714.26,-408 714.26,-440"/>
<text text-anchor="start" x="593.76" y="-426.5" font-family="Helvetica,sans-Serif" font-size="10.00">C:/Temp/out/FMT/Include</text>
<text text-anchor="middle" x="650.01" y="-414.5" font-family="Helvetica,sans-Serif" font-size="10.00">/FMTgraphdescription.hpp</text>
</a>
</g>
</g>
<!-- Node2&#45;&gt;Node24 -->
<g id="edge48_Node000002_Node000024" class="edge">
<title>Node2&#45;&gt;Node24</title>
<g id="a_edge48_Node000002_Node000024"><a xlink:title=" ">
<path fill="none" stroke="#63b8ff" d="M548.89,-471.03C570.42,-461.23 595.95,-449.61 615.97,-440.49"/>
<polygon fill="#63b8ff" stroke="#63b8ff" points="547.66,-468.2 540,-475.53 550.56,-474.57 547.66,-468.2"/>
</a>
</g>
</g>
<!-- Node4 -->
<g id="Node000004" class="node">
<title>Node4</title>
<g id="a_Node000004"><a xlink:href="FMTlinegraph_8hpp.html" target="_top" xlink:title=" ">
<polygon fill="white" stroke="#666666" points="420.76,-372 295.26,-372 295.26,-340 420.76,-340 420.76,-372"/>
<text text-anchor="start" x="303.26" y="-358.5" font-family="Helvetica,sans-Serif" font-size="10.00">C:/Temp/out/FMT/Include</text>
<text text-anchor="middle" x="358.01" y="-346.5" font-family="Helvetica,sans-Serif" font-size="10.00">/FMTlinegraph.hpp</text>
</a>
</g>
</g>
<!-- Node3&#45;&gt;Node4 -->
<g id="edge3_Node000003_Node000004" class="edge">
<title>Node3&#45;&gt;Node4</title>
<g id="a_edge3_Node000003_Node000004"><a xlink:title=" ">
<path fill="none" stroke="#63b8ff" d="M460.52,-403.03C438.7,-393.23 412.81,-381.61 392.51,-372.49"/>
<polygon fill="#63b8ff" stroke="#63b8ff" points="458.99,-406.62 469.54,-407.53 461.85,-400.24 458.99,-406.62"/>
</a>
</g>
</g>
<!-- Node14 -->
<g id="Node000014" class="node">
<title>Node14</title>
<g id="a_Node000014"><a xlink:href="RexportSpatial_8hpp.html" target="_top" xlink:title=" ">
<polygon fill="white" stroke="#666666" points="365.76,-236 240.26,-236 240.26,-204 365.76,-204 365.76,-236"/>
<text text-anchor="start" x="248.26" y="-222.5" font-family="Helvetica,sans-Serif" font-size="10.00">C:/Temp/out/FMT/Include</text>
<text text-anchor="middle" x="303.01" y="-210.5" font-family="Helvetica,sans-Serif" font-size="10.00">/RexportSpatial.hpp</text>
</a>
</g>
</g>
<!-- Node3&#45;&gt;Node14 -->
<g id="edge47_Node000003_Node000014" class="edge">
<title>Node3&#45;&gt;Node14</title>
<g id="a_edge47_Node000003_Node000014"><a xlink:title=" ">
<path fill="none" stroke="#63b8ff" d="M431.31,-415.61C375,-408.26 304.05,-394.73 286.01,-372 254.19,-331.92 280.36,-265.87 294.9,-236.23"/>
<polygon fill="#63b8ff" stroke="#63b8ff" points="430.64,-419.18 441,-416.95 431.52,-412.23 430.64,-419.18"/>
</a>
</g>
</g>
<!-- Node15 -->
<g id="Node000015" class="node">
<title>Node15</title>
<g id="a_Node000015"><a xlink:href="FMToperatingareascheme_8hpp.html" target="_top" xlink:title=" ">
<polygon fill="white" stroke="#666666" points="1022.13,-236 871.88,-236 871.88,-204 1022.13,-204 1022.13,-236"/>
<text text-anchor="start" x="879.88" y="-222.5" font-family="Helvetica,sans-Serif" font-size="10.00">C:/Temp/out/FMT/Include</text>
<text text-anchor="middle" x="947.01" y="-210.5" font-family="Helvetica,sans-Serif" font-size="10.00">/FMToperatingareascheme.hpp</text>
</a>
</g>
</g>
<!-- Node3&#45;&gt;Node15 -->
<g id="edge22_Node000003_Node000015" class="edge">
<title>Node3&#45;&gt;Node15</title>
<g id="a_edge22_Node000003_Node000015"><a xlink:title=" ">
<path fill="none" stroke="#63b8ff" d="M578.61,-408.03C656.61,-398.3 816.85,-407.44 868.01,-372 915.92,-338.81 936.87,-267.28 943.99,-236.07"/>
<polygon fill="#63b8ff" stroke="#63b8ff" points="578.57,-404.64 569.17,-409.53 579.57,-411.57 578.57,-404.64"/>
</a>
</g>
</g>
<!-- Node18 -->
<g id="Node000018" class="node">
<title>Node18</title>
<g id="a_Node000018"><a xlink:href="FMToutputnodecache_8hpp.html" target="_top" xlink:title=" ">
<polygon fill="white" stroke="#666666" points="570.76,-372 439.26,-372 439.26,-340 570.76,-340 570.76,-372"/>
<text text-anchor="start" x="447.26" y="-358.5" font-family="Helvetica,sans-Serif" font-size="10.00">C:/Temp/out/FMT/Include</text>
<text text-anchor="middle" x="505.01" y="-346.5" font-family="Helvetica,sans-Serif" font-size="10.00">/FMToutputnodecache.hpp</text>
</a>
</g>
</g>
<!-- Node3&#45;&gt;Node18 -->
<g id="edge30_Node000003_Node000018" class="edge">
<title>Node3&#45;&gt;Node18</title>
<g id="a_edge30_Node000003_Node000018"><a xlink:title=" ">
<path fill="none" stroke="#63b8ff" d="M498.39,-396.89C498.06,-388.52 498.34,-379.54 499.22,-372.22"/>
<polygon fill="#63b8ff" stroke="#63b8ff" points="494.96,-396.98 499.21,-406.69 501.94,-396.46 494.96,-396.98"/>
</a>
</g>
</g>
<!-- Node3&#45;&gt;Node19 -->
<g id="edge32_Node000003_Node000019" class="edge">
<title>Node3&#45;&gt;Node19</title>
<g id="a_edge32_Node000003_Node000019"><a xlink:title=" ">
<path fill="none" stroke="#63b8ff" d="M431.23,-420.72C381.59,-416.09 316.59,-403.74 268.01,-372 214.96,-337.34 179.25,-267.24 165.42,-236.28"/>
<polygon fill="#63b8ff" stroke="#63b8ff" points="430.64,-424.27 440.9,-421.62 431.23,-417.29 430.64,-424.27"/>
</a>
</g>
</g>
<!-- Node22 -->
<g id="Node000022" class="node">
<title>Node22</title>
<g id="a_Node000022"><a xlink:href="PYexportGraph_8hpp.html" target="_top" xlink:title=" ">
<polygon fill="white" stroke="#666666" points="714.76,-372 589.26,-372 589.26,-340 714.76,-340 714.76,-372"/>
<text text-anchor="start" x="597.26" y="-358.5" font-family="Helvetica,sans-Serif" font-size="10.00">C:/Temp/out/FMT/Include</text>
<text text-anchor="middle" x="652.01" y="-346.5" font-family="Helvetica,sans-Serif" font-size="10.00">/PYexportGraph.hpp</text>
</a>
</g>
</g>
<!-- Node3&#45;&gt;Node22 -->
<g id="edge45_Node000003_Node000022" class="edge">
<title>Node3&#45;&gt;Node22</title>
<g id="a_edge45_Node000003_Node000022"><a xlink:title=" ">
<path fill="none" stroke="#63b8ff" d="M549.5,-403.03C571.32,-393.23 597.2,-381.61 617.5,-372.49"/>
<polygon fill="#63b8ff" stroke="#63b8ff" points="548.16,-400.24 540.47,-407.53 551.03,-406.62 548.16,-400.24"/>
</a>
</g>
</g>
<!-- Node23 -->
<g id="Node000023" class="node">
<title>Node23</title>
<g id="a_Node000023"><a xlink:href="PYexportSpatial_8hpp.html" target="_top" xlink:title=" ">
<polygon fill="white" stroke="#666666" points="858.76,-372 733.26,-372 733.26,-340 858.76,-340 858.76,-372"/>
<text text-anchor="start" x="741.26" y="-358.5" font-family="Helvetica,sans-Serif" font-size="10.00">C:/Temp/out/FMT/Include</text>
<text text-anchor="middle" x="796.01" y="-346.5" font-family="Helvetica,sans-Serif" font-size="10.00">/PYexportSpatial.hpp</text>
</a>
</g>
</g>
<!-- Node3&#45;&gt;Node23 -->
<g id="edge46_Node000003_Node000023" class="edge">
<title>Node3&#45;&gt;Node23</title>
<g id="a_edge46_Node000003_Node000023"><a xlink:title=" ">
<path fill="none" stroke="#63b8ff" d="M578.71,-406.28C626.33,-395.48 687.64,-381.58 732.99,-371.29"/>
<polygon fill="#63b8ff" stroke="#63b8ff" points="578.13,-403.05 569.15,-408.68 579.68,-409.88 578.13,-403.05"/>
</a>
</g>
</g>
<!-- Node5 -->
<g id="Node000005" class="node">
<title>Node5</title>
<g id="a_Node000005"><a xlink:href="FMTspatialschedule_8hpp.html" target="_top" xlink:title=" ">
<polygon fill="white" stroke="#666666" points="458.76,-304 333.26,-304 333.26,-272 458.76,-272 458.76,-304"/>
<text text-anchor="start" x="341.26" y="-290.5" font-family="Helvetica,sans-Serif" font-size="10.00">C:/Temp/out/FMT/Include</text>
<text text-anchor="middle" x="396.01" y="-278.5" font-family="Helvetica,sans-Serif" font-size="10.00">/FMTspatialschedule.hpp</text>
</a>
</g>
</g>
<!-- Node4&#45;&gt;Node5 -->
<g id="edge4_Node000004_Node000005" class="edge">
<title>Node4&#45;&gt;Node5</title>
<g id="a_edge4_Node000004_Node000005"><a xlink:title=" ">
<path fill="none" stroke="#63b8ff" d="M372.23,-330.3C377.27,-321.55 382.79,-311.96 387.24,-304.22"/>
<polygon fill="#63b8ff" stroke="#63b8ff" points="368.78,-328.28 366.82,-338.69 374.84,-331.77 368.78,-328.28"/>
</a>
</g>
</g>
<!-- Node9 -->
<g id="Node000009" class="node">
<title>Node9</title>
<g id="a_Node000009"><a xlink:href="Rdeclarations_8hpp.html" target="_top" xlink:title=" ">
<polygon fill="white" stroke="#666666" points="643.76,-100 518.26,-100 518.26,-68 643.76,-68 643.76,-100"/>
<text text-anchor="start" x="526.26" y="-86.5" font-family="Helvetica,sans-Serif" font-size="10.00">C:/Temp/out/FMT/Include</text>
<text text-anchor="middle" x="581.01" y="-74.5" font-family="Helvetica,sans-Serif" font-size="10.00">/Rdeclarations.hpp</text>
</a>
</g>
</g>
<!-- Node4&#45;&gt;Node9 -->
<g id="edge20_Node000004_Node000009" class="edge">
<title>Node4&#45;&gt;Node9</title>
<g id="a_edge20_Node000004_Node000009"><a xlink:title=" ">
<path fill="none" stroke="#63b8ff" d="M415.36,-335.94C514.12,-301.82 709.36,-228.24 747.01,-168 754.55,-155.94 755.46,-147.44 747.01,-136 734.42,-118.97 685.65,-105.27 644.2,-96.37"/>
<polygon fill="#63b8ff" stroke="#63b8ff" points="414.28,-332.95 405.96,-339.51 416.55,-339.57 414.28,-332.95"/>
</a>
</g>
</g>
<!-- Node4&#45;&gt;Node14 -->
<g id="edge21_Node000004_Node000014" class="edge">
<title>Node4&#45;&gt;Node14</title>
<g id="a_edge21_Node000004_Node000014"><a xlink:title=" ">
<path fill="none" stroke="#63b8ff" d="M339.43,-330.79C333.84,-322.62 328.11,-313.23 324.01,-304 313.99,-281.45 308.14,-253.25 305.26,-236.2"/>
<polygon fill="#63b8ff" stroke="#63b8ff" points="337.15,-332.63 345.82,-338.73 342.85,-328.56 337.15,-332.63"/>
</a>
</g>
</g>
<!-- Node6 -->
<g id="Node000006" class="node">
<title>Node6</title>
<g id="a_Node000006"><a xlink:href="FMTsemodel_8hpp.html" target="_top" xlink:title=" ">
<polygon fill="white" stroke="#666666" points="509.76,-236 384.26,-236 384.26,-204 509.76,-204 509.76,-236"/>
<text text-anchor="start" x="392.26" y="-222.5" font-family="Helvetica,sans-Serif" font-size="10.00">C:/Temp/out/FMT/Include</text>
<text text-anchor="middle" x="447.01" y="-210.5" font-family="Helvetica,sans-Serif" font-size="10.00">/FMTsemodel.hpp</text>
</a>
</g>
</g>
<!-- Node5&#45;&gt;Node6 -->
<g id="edge5_Node000005_Node000006" class="edge">
<title>Node5&#45;&gt;Node6</title>
<g id="a_edge5_Node000005_Node000006"><a xlink:title=" ">
<path fill="none" stroke="#63b8ff" d="M414.44,-263.15C421.38,-254.17 429.07,-244.21 435.24,-236.22"/>
<polygon fill="#63b8ff" stroke="#63b8ff" points="411.18,-260.64 407.84,-270.69 416.72,-264.92 411.18,-260.64"/>
</a>
</g>
</g>
<!-- Node5&#45;&gt;Node14 -->
<g id="edge19_Node000005_Node000014" class="edge">
<title>Node5&#45;&gt;Node14</title>
<g id="a_edge19_Node000005_Node000014"><a xlink:title=" ">
<path fill="none" stroke="#63b8ff" d="M365.6,-265.42C352.27,-255.96 336.94,-245.08 324.78,-236.45"/>
<polygon fill="#63b8ff" stroke="#63b8ff" points="363.26,-268.76 373.44,-271.69 367.31,-263.05 363.26,-268.76"/>
</a>
</g>
</g>
<!-- Node7 -->
<g id="Node000007" class="node">
<title>Node7</title>
<g id="a_Node000007"><a xlink:href="FMTsamodel_8hpp.html" target="_top" xlink:title=" ">
<polygon fill="white" stroke="#666666" points="394.76,-168 269.26,-168 269.26,-136 394.76,-136 394.76,-168"/>
<text text-anchor="start" x="277.26" y="-154.5" font-family="Helvetica,sans-Serif" font-size="10.00">C:/Temp/out/FMT/Include</text>
<text text-anchor="middle" x="332.01" y="-142.5" font-family="Helvetica,sans-Serif" font-size="10.00">/FMTsamodel.hpp</text>
</a>
</g>
</g>
<!-- Node6&#45;&gt;Node7 -->
<g id="edge6_Node000006_Node000007" class="edge">
<title>Node6&#45;&gt;Node7</title>
<g id="a_edge6_Node000006_Node000007"><a xlink:title=" ">
<path fill="none" stroke="#63b8ff" d="M410.54,-198.07C393.75,-188.44 374.2,-177.21 358.8,-168.38"/>
<polygon fill="#63b8ff" stroke="#63b8ff" points="408.63,-201.58 419.05,-203.53 412.11,-195.51 408.63,-201.58"/>
</a>
</g>
</g>
<!-- Node8 -->
<g id="Node000008" class="node">
<title>Node8</title>
<g id="a_Node000008"><a xlink:href="PYexportModel_8hpp.html" target="_top" xlink:title=" ">
<polygon fill="white" stroke="#666666" points="222.76,-100 97.26,-100 97.26,-68 222.76,-68 222.76,-100"/>
<text text-anchor="start" x="105.26" y="-86.5" font-family="Helvetica,sans-Serif" font-size="10.00">C:/Temp/out/FMT/Include</text>
<text text-anchor="middle" x="160.01" y="-74.5" font-family="Helvetica,sans-Serif" font-size="10.00">/PYexportModel.hpp</text>
</a>
</g>
</g>
<!-- Node6&#45;&gt;Node8 -->
<g id="edge16_Node000006_Node000008" class="edge">
<title>Node6&#45;&gt;Node8</title>
<g id="a_edge16_Node000006_Node000008"><a xlink:title=" ">
<path fill="none" stroke="#63b8ff" d="M373.16,-204.08C292.87,-195.27 120.12,-215.52 78.01,-168 68.58,-157.36 71.1,-148.43 78.01,-136 86.88,-120.03 103.07,-108.41 118.73,-100.34"/>
<polygon fill="#63b8ff" stroke="#63b8ff" points="372.47,-207.65 382.85,-205.53 373.41,-200.72 372.47,-207.65"/>
</a>
</g>
</g>
<!-- Node6&#45;&gt;Node9 -->
<g id="edge17_Node000006_Node000009" class="edge">
<title>Node6&#45;&gt;Node9</title>
<g id="a_edge17_Node000006_Node000009"><a xlink:title=" ">
<path fill="none" stroke="#63b8ff" d="M520.95,-216.1C595.71,-211.43 703.84,-199.31 730.01,-168 759.78,-132.39 697.23,-109.27 644.25,-96.69"/>
<polygon fill="#63b8ff" stroke="#63b8ff" points="520.96,-212.65 511.18,-216.73 521.37,-219.64 520.96,-212.65"/>
</a>
</g>
</g>
<!-- Node10 -->
<g id="Node000010" class="node">
<title>Node10</title>
<g id="a_Node000010"><a xlink:href="RexportModel_8hpp.html" target="_top" xlink:title=" ">
<polygon fill="white" stroke="#666666" points="385.76,-100 260.26,-100 260.26,-68 385.76,-68 385.76,-100"/>
<text text-anchor="start" x="268.26" y="-86.5" font-family="Helvetica,sans-Serif" font-size="10.00">C:/Temp/out/FMT/Include</text>
<text text-anchor="middle" x="323.01" y="-74.5" font-family="Helvetica,sans-Serif" font-size="10.00">/RexportModel.hpp</text>
</a>
</g>
</g>
<!-- Node6&#45;&gt;Node10 -->
<g id="edge18_Node000006_Node000010" class="edge">
<title>Node6&#45;&gt;Node10</title>
<g id="a_edge18_Node000006_Node000010"><a xlink:title=" ">
<path fill="none" stroke="#63b8ff" d="M373.18,-203.33C324.06,-192.16 267.26,-177.5 260.01,-168 242,-144.42 272.92,-116.99 297.47,-100.32"/>
<polygon fill="#63b8ff" stroke="#63b8ff" points="372.32,-206.95 382.84,-205.73 373.86,-200.12 372.32,-206.95"/>
</a>
</g>
</g>
<!-- Node11 -->
<g id="Node000011" class="node">
<title>Node11</title>
<g id="a_Node000011"><a xlink:href="FMTsesmodel_8hpp.html" target="_top" xlink:title=" ">
<polygon fill="white" stroke="#666666" points="720.76,-168 595.26,-168 595.26,-136 720.76,-136 720.76,-168"/>
<text text-anchor="start" x="603.26" y="-154.5" font-family="Helvetica,sans-Serif" font-size="10.00">C:/Temp/out/FMT/Include</text>
<text text-anchor="middle" x="658.01" y="-142.5" font-family="Helvetica,sans-Serif" font-size="10.00">/FMTsesmodel.hpp</text>
</a>
</g>
</g>
<!-- Node6&#45;&gt;Node11 -->
<g id="edge10_Node000006_Node000011" class="edge">
<title>Node6&#45;&gt;Node11</title>
<g id="a_edge10_Node000006_Node000011"><a xlink:title=" ">
<path fill="none" stroke="#63b8ff" d="M506.65,-200.34C538.81,-190.28 578.03,-178.02 608.48,-168.49"/>
<polygon fill="#63b8ff" stroke="#63b8ff" points="505.98,-197.2 497.48,-203.53 508.07,-203.88 505.98,-197.2"/>
</a>
</g>
</g>
<!-- Node7&#45;&gt;Node8 -->
<g id="edge7_Node000007_Node000008" class="edge">
<title>Node7&#45;&gt;Node8</title>
<g id="a_edge7_Node000007_Node000008"><a xlink:title=" ">
<path fill="none" stroke="#63b8ff" d="M281.68,-131.69C255.79,-121.76 224.67,-109.81 200.38,-100.49"/>
<polygon fill="#63b8ff" stroke="#63b8ff" points="280.09,-135.21 290.68,-135.53 282.6,-128.68 280.09,-135.21"/>
</a>
</g>
</g>
<!-- Node7&#45;&gt;Node9 -->
<g id="edge8_Node000007_Node000009" class="edge">
<title>Node7&#45;&gt;Node9</title>
<g id="a_edge8_Node000007_Node000009"><a xlink:title=" ">
<path fill="none" stroke="#63b8ff" d="M400.92,-132.73C439.14,-122.6 486.16,-110.14 522.56,-100.49"/>
<polygon fill="#63b8ff" stroke="#63b8ff" points="400.16,-129.58 391.39,-135.53 401.95,-136.35 400.16,-129.58"/>
</a>
</g>
</g>
<!-- Node7&#45;&gt;Node10 -->
<g id="edge9_Node000007_Node000010" class="edge">
<title>Node7&#45;&gt;Node10</title>
<g id="a_edge9_Node000007_Node000010"><a xlink:title=" ">
<path fill="none" stroke="#63b8ff" d="M328.45,-124.89C327.31,-116.52 326.08,-107.54 325.08,-100.22"/>
<polygon fill="#63b8ff" stroke="#63b8ff" points="325.1,-125.26 329.92,-134.69 332.04,-124.31 325.1,-125.26"/>
</a>
</g>
</g>
<!-- Node11&#45;&gt;Node8 -->
<g id="edge13_Node000011_Node000008" class="edge">
<title>Node11&#45;&gt;Node8</title>
<g id="a_edge13_Node000011_Node000008"><a xlink:title=" ">
<path fill="none" stroke="#63b8ff" d="M584.35,-140.8C572.22,-139.17 559.76,-137.51 548.01,-136 416.13,-119.02 382.64,-118.82 251.01,-100 241.97,-98.71 232.45,-97.25 223.1,-95.76"/>
<polygon fill="#63b8ff" stroke="#63b8ff" points="583.54,-144.36 593.92,-142.23 584.48,-137.42 583.54,-144.36"/>
</a>
</g>
</g>
<!-- Node11&#45;&gt;Node9 -->
<g id="edge14_Node000011_Node000009" class="edge">
<title>Node11&#45;&gt;Node9</title>
<g id="a_edge14_Node000011_Node000009"><a xlink:title=" ">
<path fill="none" stroke="#63b8ff" d="M631.87,-128.6C621.07,-119.34 608.81,-108.83 599.04,-100.45"/>
<polygon fill="#63b8ff" stroke="#63b8ff" points="629.28,-131.84 639.15,-135.69 633.83,-126.53 629.28,-131.84"/>
</a>
</g>
</g>
<!-- Node11&#45;&gt;Node10 -->
<g id="edge15_Node000011_Node000010" class="edge">
<title>Node11&#45;&gt;Node10</title>
<g id="a_edge15_Node000011_Node000010"><a xlink:title=" ">
<path fill="none" stroke="#63b8ff" d="M584.56,-136.53C525.17,-124.83 442.43,-108.53 386.02,-97.41"/>
<polygon fill="#63b8ff" stroke="#63b8ff" points="583.51,-140.09 594,-138.59 584.86,-133.22 583.51,-140.09"/>
</a>
</g>
</g>
<!-- Node12 -->
<g id="Node000012" class="node">
<title>Node12</title>
<g id="a_Node000012"><a xlink:href="FMTpythonpickle_8hpp.html" target="_top" xlink:title=" ">
<polygon fill="white" stroke="#666666" points="801.76,-100 676.26,-100 676.26,-68 801.76,-68 801.76,-100"/>
<text text-anchor="start" x="684.26" y="-86.5" font-family="Helvetica,sans-Serif" font-size="10.00">C:/Temp/out/FMT/Include</text>
<text text-anchor="middle" x="739.01" y="-74.5" font-family="Helvetica,sans-Serif" font-size="10.00">/FMTpythonpickle.hpp</text>
</a>
</g>
</g>
<!-- Node11&#45;&gt;Node12 -->
<g id="edge11_Node000011_Node000012" class="edge">
<title>Node11&#45;&gt;Node12</title>
<g id="a_edge11_Node000011_Node000012"><a xlink:title=" ">
<path fill="none" stroke="#63b8ff" d="M685.16,-128.87C696.61,-119.55 709.66,-108.91 720.04,-100.45"/>
<polygon fill="#63b8ff" stroke="#63b8ff" points="683.34,-126.66 677.79,-135.69 687.76,-132.09 683.34,-126.66"/>
</a>
</g>
</g>
<!-- Node13 -->
<g id="Node000013" class="node">
<title>Node13</title>
<g id="a_Node000013"><a xlink:href="PYexportHeuristics_8hpp.html" target="_top" xlink:title=" ">
<polygon fill="white" stroke="#666666" points="919.76,-32 794.26,-32 794.26,0 919.76,0 919.76,-32"/>
<text text-anchor="start" x="802.26" y="-18.5" font-family="Helvetica,sans-Serif" font-size="10.00">C:/Temp/out/FMT/Include</text>
<text text-anchor="middle" x="857.01" y="-6.5" font-family="Helvetica,sans-Serif" font-size="10.00">/PYexportHeuristics.hpp</text>
</a>
</g>
</g>
<!-- Node12&#45;&gt;Node13 -->
<g id="edge12_Node000012_Node000013" class="edge">
<title>Node12&#45;&gt;Node13</title>
<g id="a_edge12_Node000012_Node000013"><a xlink:title=" ">
<path fill="none" stroke="#63b8ff" d="M775.95,-62.34C793.28,-52.65 813.57,-41.3 829.52,-32.38"/>
<polygon fill="#63b8ff" stroke="#63b8ff" points="774.69,-59.59 767.67,-67.53 778.11,-65.7 774.69,-59.59"/>
</a>
</g>
</g>
<!-- Node15&#45;&gt;Node13 -->
<g id="edge28_Node000015_Node000013" class="edge">
<title>Node15&#45;&gt;Node13</title>
<g id="a_edge28_Node000015_Node000013"><a xlink:title=" ">
<path fill="none" stroke="#63b8ff" d="M972.29,-196.6C1003.95,-165.82 1050.53,-109.53 1020.01,-68 997.18,-36.94 955.5,-24.27 920.01,-19.33"/>
<polygon fill="#63b8ff" stroke="#63b8ff" points="970.48,-193.44 965.62,-202.85 975.29,-198.53 970.48,-193.44"/>
</a>
</g>
</g>
<!-- Node16 -->
<g id="Node000016" class="node">
<title>Node16</title>
<g id="a_Node000016"><a xlink:href="FMToperatingareascheduler_8hpp.html" target="_top" xlink:title=" ">
<polygon fill="white" stroke="#666666" points="972.88,-168 815.13,-168 815.13,-136 972.88,-136 972.88,-168"/>
<text text-anchor="start" x="823.13" y="-154.5" font-family="Helvetica,sans-Serif" font-size="10.00">C:/Temp/out/FMT/Include</text>
<text text-anchor="middle" x="894.01" y="-142.5" font-family="Helvetica,sans-Serif" font-size="10.00">/FMToperatingareascheduler.hpp</text>
</a>
</g>
</g>
<!-- Node15&#45;&gt;Node16 -->
<g id="edge23_Node000015_Node000016" class="edge">
<title>Node15&#45;&gt;Node16</title>
<g id="a_edge23_Node000015_Node000016"><a xlink:title=" ">
<path fill="none" stroke="#63b8ff" d="M927.85,-195.15C920.64,-186.17 912.64,-176.21 906.23,-168.22"/>
<polygon fill="#63b8ff" stroke="#63b8ff" points="925.73,-197.09 934.72,-202.69 931.18,-192.7 925.73,-197.09"/>
</a>
</g>
</g>
<!-- Node17 -->
<g id="Node000017" class="node">
<title>Node17</title>
<g id="a_Node000017"><a xlink:href="RexportHeuristics_8hpp.html" target="_top" xlink:title=" ">
<polygon fill="white" stroke="#666666" points="1010.76,-100 885.26,-100 885.26,-68 1010.76,-68 1010.76,-100"/>
<text text-anchor="start" x="893.26" y="-86.5" font-family="Helvetica,sans-Serif" font-size="10.00">C:/Temp/out/FMT/Include</text>
<text text-anchor="middle" x="948.01" y="-74.5" font-family="Helvetica,sans-Serif" font-size="10.00">/RexportHeuristics.hpp</text>
</a>
</g>
</g>
<!-- Node15&#45;&gt;Node17 -->
<g id="edge29_Node000015_Node000017" class="edge">
<title>Node15&#45;&gt;Node17</title>
<g id="a_edge29_Node000015_Node000017"><a xlink:title=" ">
<path fill="none" stroke="#63b8ff" d="M967.64,-195.28C973.45,-187.17 979,-177.69 982.01,-168 986.22,-154.42 986.13,-149.61 982.01,-136 978,-122.76 969.29,-109.82 961.7,-100.28"/>
<polygon fill="#63b8ff" stroke="#63b8ff" points="964.42,-192.73 961.09,-202.79 969.96,-197 964.42,-192.73"/>
</a>
</g>
</g>
<!-- Node16&#45;&gt;Node9 -->
<g id="edge26_Node000016_Node000009" class="edge">
<title>Node16&#45;&gt;Node9</title>
<g id="a_edge26_Node000016_Node000009"><a xlink:title=" ">
<path fill="none" stroke="#63b8ff" d="M810.05,-133.3C757.87,-122.29 691.88,-108.38 644.15,-98.31"/>
<polygon fill="#63b8ff" stroke="#63b8ff" points="809.12,-136.89 819.62,-135.53 810.56,-130.04 809.12,-136.89"/>
</a>
</g>
</g>
<!-- Node16&#45;&gt;Node12 -->
<g id="edge24_Node000016_Node000012" class="edge">
<title>Node16&#45;&gt;Node12</title>
<g id="a_edge24_Node000016_Node000012"><a xlink:title=" ">
<path fill="none" stroke="#63b8ff" d="M847.72,-131.29C824.58,-121.44 796.99,-109.69 775.39,-100.49"/>
<polygon fill="#63b8ff" stroke="#63b8ff" points="846.1,-134.83 856.67,-135.53 848.84,-128.39 846.1,-134.83"/>
</a>
</g>
</g>
<!-- Node16&#45;&gt;Node13 -->
<g id="edge25_Node000016_Node000013" class="edge">
<title>Node16&#45;&gt;Node13</title>
<g id="a_edge25_Node000016_Node000013"><a xlink:title=" ">
<path fill="none" stroke="#63b8ff" d="M884.28,-125.27C881.42,-117.24 878.42,-108.31 876.01,-100 869.26,-76.72 863.36,-49.2 859.99,-32.43"/>
<polygon fill="#63b8ff" stroke="#63b8ff" points="881.31,-126.33 888.03,-134.53 887.89,-123.93 881.31,-126.33"/>
</a>
</g>
</g>
<!-- Node16&#45;&gt;Node17 -->
<g id="edge27_Node000016_Node000017" class="edge">
<title>Node16&#45;&gt;Node17</title>
<g id="a_edge27_Node000016_Node000017"><a xlink:title=" ">
<path fill="none" stroke="#63b8ff" d="M913.29,-127.43C920.7,-118.38 928.95,-108.29 935.55,-100.22"/>
<polygon fill="#63b8ff" stroke="#63b8ff" points="910.16,-124.74 906.53,-134.69 915.57,-129.17 910.16,-124.74"/>
</a>
</g>
</g>
<!-- Node18&#45;&gt;Node3 -->
<g id="edge31_Node000018_Node000003" class="edge">
<title>Node18&#45;&gt;Node3</title>
<g id="a_edge31_Node000018_Node000003"><a xlink:title=" ">
<path fill="none" stroke="#63b8ff" d="M511.62,-383.02C511.95,-391.38 511.68,-400.36 510.81,-407.69"/>
<polygon fill="#63b8ff" stroke="#63b8ff" points="515.05,-382.93 510.8,-373.22 508.07,-383.46 515.05,-382.93"/>
</a>
</g>
</g>
<!-- Node19&#45;&gt;Node8 -->
<g id="edge42_Node000019_Node000008" class="edge">
<title>Node19&#45;&gt;Node8</title>
<g id="a_edge42_Node000019_Node000008"><a xlink:title=" ">
<path fill="none" stroke="#63b8ff" d="M85.31,-206.07C34.81,-193.77 -18.76,-171.75 7.01,-136 27.47,-107.61 64.43,-94.78 96.9,-89.09"/>
<polygon fill="#63b8ff" stroke="#63b8ff" points="84.48,-209.7 95.01,-208.54 86.06,-202.88 84.48,-209.7"/>
</a>
</g>
</g>
<!-- Node19&#45;&gt;Node9 -->
<g id="edge43_Node000019_Node000009" class="edge">
<title>Node19&#45;&gt;Node9</title>
<g id="a_edge43_Node000019_Node000009"><a xlink:title=" ">
<path fill="none" stroke="#63b8ff" d="M232.93,-204.02C317.15,-194.22 494.1,-209.21 548.01,-168 569.32,-151.71 576.9,-119.53 579.57,-100.38"/>
<polygon fill="#63b8ff" stroke="#63b8ff" points="232.59,-200.67 223.16,-205.5 233.55,-207.61 232.59,-200.67"/>
</a>
</g>
</g>
<!-- Node19&#45;&gt;Node10 -->
<g id="edge44_Node000019_Node000010" class="edge">
<title>Node19&#45;&gt;Node10</title>
<g id="a_edge44_Node000019_Node000010"><a xlink:title=" ">
<path fill="none" stroke="#63b8ff" d="M108.79,-198.18C96.55,-190.57 84.98,-180.64 78.01,-168 71.13,-155.55 69.03,-147.03 78.01,-136 83.82,-128.86 189.34,-108.82 259.98,-96.09"/>
<polygon fill="#63b8ff" stroke="#63b8ff" points="106.8,-201.64 117.22,-203.55 110.26,-195.56 106.8,-201.64"/>
</a>
</g>
</g>
<!-- Node20 -->
<g id="Node000020" class="node">
<title>Node20</title>
<g id="a_Node000020"><a xlink:href="FMTlpmodel_8hpp.html" target="_top" xlink:title=" ">
<polygon fill="white" stroke="#666666" points="538.76,-168 413.26,-168 413.26,-136 538.76,-136 538.76,-168"/>
<text text-anchor="start" x="421.26" y="-154.5" font-family="Helvetica,sans-Serif" font-size="10.00">C:/Temp/out/FMT/Include</text>
<text text-anchor="middle" x="476.01" y="-142.5" font-family="Helvetica,sans-Serif" font-size="10.00">/FMTlpmodel.hpp</text>
</a>
</g>
</g>
<!-- Node19&#45;&gt;Node20 -->
<g id="edge33_Node000019_Node000020" class="edge">
<title>Node19&#45;&gt;Node20</title>
<g id="a_edge33_Node000019_Node000020"><a xlink:title=" ">
<path fill="none" stroke="#63b8ff" d="M232.91,-203.6C309.65,-187.63 330.42,-183.32 404.01,-168 406.88,-167.4 409.82,-166.79 412.79,-166.17"/>
<polygon fill="#63b8ff" stroke="#63b8ff" points="232.3,-200.36 223.22,-205.83 233.73,-207.22 232.3,-200.36"/>
</a>
</g>
</g>
<!-- Node21 -->
<g id="Node000021" class="node">
<title>Node21</title>
<g id="a_Node000021"><a xlink:href="FMTnssmodel_8hpp.html" target="_top" xlink:title=" ">
<polygon fill="white" stroke="#666666" points="212.76,-168 87.26,-168 87.26,-136 212.76,-136 212.76,-168"/>
<text text-anchor="start" x="95.26" y="-154.5" font-family="Helvetica,sans-Serif" font-size="10.00">C:/Temp/out/FMT/Include</text>
<text text-anchor="middle" x="150.01" y="-142.5" font-family="Helvetica,sans-Serif" font-size="10.00">/FMTnssmodel.hpp</text>
</a>
</g>
</g>
<!-- Node19&#45;&gt;Node21 -->
<g id="edge38_Node000019_Node000021" class="edge">
<title>Node19&#45;&gt;Node21</title>
<g id="a_edge38_Node000019_Node000021"><a xlink:title=" ">
<path fill="none" stroke="#63b8ff" d="M155.45,-192.89C154.31,-184.52 153.08,-175.54 152.08,-168.22"/>
<polygon fill="#63b8ff" stroke="#63b8ff" points="152.1,-193.26 156.92,-202.69 159.04,-192.31 152.1,-193.26"/>
</a>
</g>
</g>
<!-- Node20&#45;&gt;Node8 -->
<g id="edge35_Node000020_Node000008" class="edge">
<title>Node20&#45;&gt;Node8</title>
<g id="a_edge35_Node000020_Node000008"><a xlink:title=" ">
<path fill="none" stroke="#63b8ff" d="M402.21,-135.59C347.86,-124.23 274.73,-108.96 223.09,-98.17"/>
<polygon fill="#63b8ff" stroke="#63b8ff" points="401.32,-139.18 411.82,-137.8 402.75,-132.33 401.32,-139.18"/>
</a>
</g>
</g>
<!-- Node20&#45;&gt;Node9 -->
<g id="edge36_Node000020_Node000009" class="edge">
<title>Node20&#45;&gt;Node9</title>
<g id="a_edge36_Node000020_Node000009"><a xlink:title=" ">
<path fill="none" stroke="#63b8ff" d="M509.74,-129.8C524.96,-120.23 542.62,-109.13 556.54,-100.38"/>
<polygon fill="#63b8ff" stroke="#63b8ff" points="508.23,-127.24 501.63,-135.53 511.95,-133.17 508.23,-127.24"/>
</a>
</g>
</g>
<!-- Node20&#45;&gt;Node10 -->
<g id="edge37_Node000020_Node000010" class="edge">
<title>Node20&#45;&gt;Node10</title>
<g id="a_edge37_Node000020_Node000010"><a xlink:title=" ">
<path fill="none" stroke="#63b8ff" d="M430.32,-131.29C407.48,-121.44 380.24,-109.69 358.92,-100.49"/>
<polygon fill="#63b8ff" stroke="#63b8ff" points="428.57,-134.78 439.14,-135.53 431.34,-128.35 428.57,-134.78"/>
</a>
</g>
</g>
<!-- Node20&#45;&gt;Node12 -->
<g id="edge34_Node000020_Node000012" class="edge">
<title>Node20&#45;&gt;Node12</title>
<g id="a_edge34_Node000020_Node000012"><a xlink:title=" ">
<path fill="none" stroke="#63b8ff" d="M548.28,-132.86C588.74,-122.71 638.66,-110.18 677.28,-100.49"/>
<polygon fill="#63b8ff" stroke="#63b8ff" points="547.52,-129.7 538.67,-135.53 549.22,-136.49 547.52,-129.7"/>
</a>
</g>
</g>
<!-- Node21&#45;&gt;Node8 -->
<g id="edge39_Node000021_Node000008" class="edge">
<title>Node21&#45;&gt;Node8</title>
<g id="a_edge39_Node000021_Node000008"><a xlink:title=" ">
<path fill="none" stroke="#63b8ff" d="M153.96,-124.89C155.23,-116.52 156.59,-107.54 157.7,-100.22"/>
<polygon fill="#63b8ff" stroke="#63b8ff" points="150.36,-124.28 152.33,-134.69 157.29,-125.33 150.36,-124.28"/>
</a>
</g>
</g>
<!-- Node21&#45;&gt;Node9 -->
<g id="edge40_Node000021_Node000009" class="edge">
<title>Node21&#45;&gt;Node9</title>
<g id="a_edge40_Node000021_Node000009"><a xlink:title=" ">
<path fill="none" stroke="#63b8ff" d="M224,-139.67C306.91,-126.97 439.93,-106.6 518.06,-94.64"/>
<polygon fill="#63b8ff" stroke="#63b8ff" points="223.5,-136.36 214.14,-141.33 224.56,-143.28 223.5,-136.36"/>
</a>
</g>
</g>
<!-- Node21&#45;&gt;Node10 -->
<g id="edge41_Node000021_Node000010" class="edge">
<title>Node21&#45;&gt;Node10</title>
<g id="a_edge41_Node000021_Node000010"><a xlink:title=" ">
<path fill="none" stroke="#63b8ff" d="M200.63,-131.69C226.67,-121.76 257.97,-109.81 282.4,-100.49"/>
<polygon fill="#63b8ff" stroke="#63b8ff" points="199.66,-128.69 191.57,-135.53 202.16,-135.23 199.66,-128.69"/>
</a>
</g>
</g>
</g>
</svg>

<g id="navigator" transform="translate(0 0)" fill="#404254">
  <rect fill="#f2f5e9" fill-opacity="0.5" stroke="#606060" stroke-width=".5" x="0" y="0" width="60" height="60"/>
  <use id="zoomplus" xlink:href="#zoomPlus" x="17" y="9" onmousedown="handleZoom(evt,'in')"/>
  <use id="zoomminus" xlink:href="#zoomMin" x="42" y="9" onmousedown="handleZoom(evt,'out')"/>
  <use id="reset" xlink:href="#resetDef" x="30" y="36" onmousedown="handleReset()"/>
   <use id="arrowup" xlink:href="#arrowUp" x="0" y="0" onmousedown="handlePan(0,-1)"/>
  <use id="arrowright" xlink:href="#arrowRight" x="0" y="0" onmousedown="handlePan(1,0)"/>
  <use id="arrowdown" xlink:href="#arrowDown" x="0" y="0" onmousedown="handlePan(0,1)"/>
  <use id="arrowleft" xlink:href="#arrowLeft" x="0" y="0" onmousedown="handlePan(-1,0)"/>
</g>
<svg viewBox="0 0 15 15" width="100%" height="30px" preserveAspectRatio="xMaxYMin meet">
 <g id="arrow_out" transform="scale(0.3 0.3)">
  <a xlink:href="FMTbasevertexproperties_8hpp__dep__incl_org.svg" target="_base">
   <rect id="button" ry="5" rx="5" y="6" x="6" height="38" width="38"
        fill="#f2f5e9" fill-opacity="0.5" stroke="#606060" stroke-width="1.0"/>
   <path id="arrow"
     d="M 11.500037,31.436501 C 11.940474,20.09759 22.043105,11.32322 32.158766,21.979434 L 37.068811,17.246167 C 37.068811,17.246167 37.088388,32 37.088388,32 L 22.160133,31.978069 C 22.160133,31.978069 26.997745,27.140456 26.997745,27.140456 C 18.528582,18.264221 13.291696,25.230495 11.500037,31.436501 z"
     style="fill:#404040;"/>
  </a>
 </g>
</svg>

<style type='text/css'>
<![CDATA[
[data-mouse-over-selected='false'] { opacity: 0.7; }
[data-mouse-over-selected='true']  { opacity: 1.0; }
]]>
</style>
<script type="application/ecmascript"><![CDATA[
document.addEventListener('DOMContentLoaded', (event) => {
  highlightEdges();
  highlightAdjacentNodes();
});
]]></script>
</svg>
