<?xml version="1.0" encoding="UTF-8" standalone="no"?>
<!DOCTYPE svg PUBLIC "-//W3C//DTD SVG 1.1//EN"
 "http://www.w3.org/Graphics/SVG/1.1/DTD/svg11.dtd">
<!-- Generated by graphviz version 10.0.1 (20240210.2158)
 -->
<!-- Title: D:/FMT/Include/FMTbindingspatialaction.hpp Pages: 1 -->
<svg width="217pt" height="84pt"
 viewBox="0.00 0.00 216.75 84.00" xmlns="http://www.w3.org/2000/svg" xmlns:xlink="http://www.w3.org/1999/xlink">
<g id="graph0" class="graph" transform="scale(1 1) rotate(0) translate(4 80)">
<title>D:/FMT/Include/FMTbindingspatialaction.hpp</title>
<!-- Node1 -->
<g id="node1" class="node">
<title>Node1</title>
<g id="a_node1"><a xlink:title=" ">
<polygon fill="#999999" stroke="#666666" points="208.75,-76 0,-76 0,-56 208.75,-56 208.75,-76"/>
<text text-anchor="middle" x="104.38" y="-62.5" font-family="Helvetica,sans-Serif" font-size="10.00">D:/FMT/Include/FMTbindingspatialaction.hpp</text>
</a>
</g>
</g>
<!-- Node2 -->
<g id="node2" class="node">
<title>Node2</title>
<g id="a_node2"><a xlink:title=" ">
<polygon fill="#e0e0e0" stroke="#999999" points="67.12,-20 25.62,-20 25.62,0 67.12,0 67.12,-20"/>
<text text-anchor="middle" x="46.38" y="-6.5" font-family="Helvetica,sans-Serif" font-size="10.00">vector</text>
</a>
</g>
</g>
<!-- Node1&#45;&gt;Node2 -->
<g id="edge1" class="edge">
<title>Node1&#45;&gt;Node2</title>
<path fill="none" stroke="#63b8ff" d="M94.27,-55.59C86.12,-48.01 74.44,-37.13 64.66,-28.02"/>
<polygon fill="#63b8ff" stroke="#63b8ff" points="67.17,-25.58 57.47,-21.33 62.4,-30.71 67.17,-25.58"/>
</g>
<!-- Node3 -->
<g id="node3" class="node">
<title>Node3</title>
<g id="a_node3"><a xlink:title=" ">
<polygon fill="#e0e0e0" stroke="#999999" points="124,-20 84.75,-20 84.75,0 124,0 124,-20"/>
<text text-anchor="middle" x="104.38" y="-6.5" font-family="Helvetica,sans-Serif" font-size="10.00">limits</text>
</a>
</g>
</g>
<!-- Node1&#45;&gt;Node3 -->
<g id="edge2" class="edge">
<title>Node1&#45;&gt;Node3</title>
<path fill="none" stroke="#63b8ff" d="M104.38,-55.59C104.38,-49.01 104.38,-39.96 104.38,-31.73"/>
<polygon fill="#63b8ff" stroke="#63b8ff" points="107.88,-31.81 104.38,-21.81 100.88,-31.81 107.88,-31.81"/>
</g>
<!-- Node4 -->
<g id="node4" class="node">
<title>Node4</title>
<g id="a_node4"><a xlink:title=" ">
<polygon fill="#e0e0e0" stroke="#999999" points="189.12,-20 141.62,-20 141.62,0 189.12,0 189.12,-20"/>
<text text-anchor="middle" x="165.38" y="-6.5" font-family="Helvetica,sans-Serif" font-size="10.00">cstddef</text>
</a>
</g>
</g>
<!-- Node1&#45;&gt;Node4 -->
<g id="edge3" class="edge">
<title>Node1&#45;&gt;Node4</title>
<path fill="none" stroke="#63b8ff" d="M115,-55.59C123.66,-47.93 136.11,-36.91 146.46,-27.75"/>
<polygon fill="#63b8ff" stroke="#63b8ff" points="148.57,-30.55 153.74,-21.3 143.93,-25.31 148.57,-30.55"/>
</g>
</g>
</svg>
