<?xml version="1.0" encoding="UTF-8" standalone="no"?>
<!DOCTYPE svg PUBLIC "-//W3C//DTD SVG 1.1//EN"
 "http://www.w3.org/Graphics/SVG/1.1/DTD/svg11.dtd">
<!-- Generated by graphviz version 10.0.1 (20240210.2158)
 -->
<!-- Title: D:/FMT/Include/FMTconstants.hpp Pages: 1 -->
<!--zoomable 276 -->
<svg id="main" version="1.1" xmlns="http://www.w3.org/2000/svg" xmlns:xlink="http://www.w3.org/1999/xlink" xml:space="preserve" onload="init(evt)">
<style type="text/css"><![CDATA[
.edge:hover path { stroke: red; }
.edge:hover polygon { stroke: red; fill: red; }
]]></style>
<script type="text/javascript"><![CDATA[
var edges = document.getElementsByTagName('g');
if (edges && edges.length) {
  for (var i=0;i<edges.length;i++) {
    if (edges[i].id.substr(0,4)=='edge') {
      edges[i].setAttribute('class','edge');
    }
  }
}
]]></script>
        <defs>
                <circle id="rim" cx="0" cy="0" r="7"/>
                <circle id="rim2" cx="0" cy="0" r="3.5"/>
                <g id="zoomPlus">
                        <use xlink:href="#rim" fill="#404040">
                                <set attributeName="fill" to="#808080" begin="zoomplus.mouseover" end="zoomplus.mouseout"/>
                        </use>
                        <path d="M-4,0h8M0,-4v8" fill="none" stroke="white" stroke-width="1.5" pointer-events="none"/>
                </g>
                <g id="zoomMin">
                        <use xlink:href="#rim" fill="#404040">
                                <set attributeName="fill" to="#808080" begin="zoomminus.mouseover" end="zoomminus.mouseout"/>
                        </use>
                        <path d="M-4,0h8" fill="none" stroke="white" stroke-width="1.5" pointer-events="none"/>
                </g>
                <g id="dirArrow">
                        <path fill="none" stroke="white" stroke-width="1.5" d="M0,-3.0v7 M-2.5,-0.5L0,-3.0L2.5,-0.5"/>
                </g>
               <g id="resetDef">
                       <use xlink:href="#rim2" fill="#404040">
                               <set attributeName="fill" to="#808080" begin="reset.mouseover" end="reset.mouseout"/>
                       </use>
               </g>
        </defs>

<script type="text/javascript">
var viewWidth = 1358;
var viewHeight = 276;
var sectionId = 'dynsection-0';
</script>
<script xlink:href="svgpan.js"/>
<svg id="graph" class="graph">
<g id="viewport">
<title>D:/FMT/Include/FMTconstants.hpp</title>
<!-- Node1 -->
<g id="node1" class="node">
<title>Node1</title>
<g id="a_node1"><a xlink:title=" ">
<polygon fill="#999999" stroke="#666666" points="714.25,-268 548.25,-268 548.25,-248 714.25,-248 714.25,-268"/>
<text text-anchor="middle" x="631.25" y="-254.5" font-family="Helvetica,sans-Serif" font-size="10.00">D:/FMT/Include/FMTconstants.hpp</text>
</a>
</g>
</g>
<!-- Node2 -->
<g id="node2" class="node">
<title>Node2</title>
<g id="a_node2"><a xlink:title=" ">
<polygon fill="#e0e0e0" stroke="#999999" points="128.5,-212 0,-212 0,-192 128.5,-192 128.5,-212"/>
<text text-anchor="middle" x="64.25" y="-198.5" font-family="Helvetica,sans-Serif" font-size="10.00">boost/unordered_map.hpp</text>
</a>
</g>
</g>
<!-- Node1&#45;&gt;Node2 -->
<g id="edge1" class="edge">
<title>Node1&#45;&gt;Node2</title>
<path fill="none" stroke="#63b8ff" d="M548.13,-249.94C450.79,-241.54 284.71,-226.77 142.25,-212 141.57,-211.93 140.89,-211.86 140.21,-211.79"/>
<polygon fill="#63b8ff" stroke="#63b8ff" points="140.75,-208.33 130.44,-210.74 140.01,-215.29 140.75,-208.33"/>
</g>
<!-- Node3 -->
<g id="node3" class="node">
<title>Node3</title>
<g id="a_node3"><a xlink:title=" ">
<polygon fill="#e0e0e0" stroke="#999999" points="921.62,-156 826.88,-156 826.88,-124 921.62,-124 921.62,-156"/>
<text text-anchor="start" x="834.88" y="-142.5" font-family="Helvetica,sans-Serif" font-size="10.00">boost/serialization</text>
<text text-anchor="middle" x="874.25" y="-130.5" font-family="Helvetica,sans-Serif" font-size="10.00">/serialization.hpp</text>
</a>
</g>
</g>
<!-- Node1&#45;&gt;Node3 -->
<g id="edge2" class="edge">
<title>Node1&#45;&gt;Node3</title>
<path fill="none" stroke="#63b8ff" d="M651.14,-247.51C690.45,-228.74 778.9,-186.51 831.87,-161.23"/>
<polygon fill="#63b8ff" stroke="#63b8ff" points="833.08,-164.53 840.6,-157.07 830.06,-158.21 833.08,-164.53"/>
</g>
<!-- Node4 -->
<g id="node4" class="node">
<title>Node4</title>
<g id="a_node4"><a xlink:title=" ">
<polygon fill="#e0e0e0" stroke="#999999" points="808.62,-156 713.88,-156 713.88,-124 808.62,-124 808.62,-156"/>
<text text-anchor="start" x="721.88" y="-142.5" font-family="Helvetica,sans-Serif" font-size="10.00">boost/serialization</text>
<text text-anchor="middle" x="761.25" y="-130.5" font-family="Helvetica,sans-Serif" font-size="10.00">/nvp.hpp</text>
</a>
</g>
</g>
<!-- Node1&#45;&gt;Node4 -->
<g id="edge3" class="edge">
<title>Node1&#45;&gt;Node4</title>
<path fill="none" stroke="#63b8ff" d="M641.89,-247.51C662.22,-229.36 707.12,-189.3 735.68,-163.82"/>
<polygon fill="#63b8ff" stroke="#63b8ff" points="737.72,-166.69 742.85,-157.42 733.06,-161.47 737.72,-166.69"/>
</g>
<!-- Node5 -->
<g id="node5" class="node">
<title>Node5</title>
<g id="a_node5"><a xlink:title=" ">
<polygon fill="#e0e0e0" stroke="#999999" points="346.62,-88 251.88,-88 251.88,-56 346.62,-56 346.62,-88"/>
<text text-anchor="start" x="259.88" y="-74.5" font-family="Helvetica,sans-Serif" font-size="10.00">boost/serialization</text>
<text text-anchor="middle" x="299.25" y="-62.5" font-family="Helvetica,sans-Serif" font-size="10.00">/export.hpp</text>
</a>
</g>
</g>
<!-- Node1&#45;&gt;Node5 -->
<g id="edge4" class="edge">
<title>Node1&#45;&gt;Node5</title>
<path fill="none" stroke="#63b8ff" d="M549.63,-247.54C446.72,-233.74 278.66,-204.33 241.25,-156 225.78,-136.02 245.97,-112.31 266.65,-95.36"/>
<polygon fill="#63b8ff" stroke="#63b8ff" points="268.79,-98.13 274.55,-89.24 264.5,-92.6 268.79,-98.13"/>
</g>
<!-- Node6 -->
<g id="node6" class="node">
<title>Node6</title>
<g id="a_node6"><a xlink:title=" ">
<polygon fill="#e0e0e0" stroke="#999999" points="696,-150 654.5,-150 654.5,-130 696,-130 696,-150"/>
<text text-anchor="middle" x="675.25" y="-136.5" font-family="Helvetica,sans-Serif" font-size="10.00">vector</text>
</a>
</g>
</g>
<!-- Node1&#45;&gt;Node6 -->
<g id="edge5" class="edge">
<title>Node1&#45;&gt;Node6</title>
<path fill="none" stroke="#63b8ff" d="M634.85,-247.51C642.01,-228.64 658.16,-186.05 667.73,-160.82"/>
<polygon fill="#63b8ff" stroke="#63b8ff" points="670.91,-162.31 671.19,-151.71 664.37,-159.82 670.91,-162.31"/>
</g>
<!-- Node7 -->
<g id="node7" class="node">
<title>Node7</title>
<g id="a_node7"><a xlink:title=" ">
<polygon fill="#e0e0e0" stroke="#999999" points="429.25,-20 389.25,-20 389.25,0 429.25,0 429.25,-20"/>
<text text-anchor="middle" x="409.25" y="-6.5" font-family="Helvetica,sans-Serif" font-size="10.00">string</text>
</a>
</g>
</g>
<!-- Node1&#45;&gt;Node7 -->
<g id="edge6" class="edge">
<title>Node1&#45;&gt;Node7</title>
<path fill="none" stroke="#63b8ff" d="M548.04,-251.01C464.61,-244.07 342.49,-231.07 299.25,-212 263.74,-196.34 248.69,-191.16 232.25,-156 221.98,-134.03 238.08,-61.74 243.25,-56 261.06,-36.23 334.54,-22.17 377.54,-15.46"/>
<polygon fill="#63b8ff" stroke="#63b8ff" points="377.92,-18.94 387.29,-13.99 376.88,-12.02 377.92,-18.94"/>
</g>
<!-- Node8 -->
<g id="node8" class="node">
<title>Node8</title>
<g id="a_node8"><a xlink:href="FMTobject_8hpp.html" target="_top" xlink:title=" ">
<polygon fill="white" stroke="#666666" points="628.5,-212 548,-212 548,-192 628.5,-192 628.5,-212"/>
<text text-anchor="middle" x="588.25" y="-198.5" font-family="Helvetica,sans-Serif" font-size="10.00">FMTobject.hpp</text>
</a>
</g>
</g>
<!-- Node1&#45;&gt;Node8 -->
<g id="edge7" class="edge">
<title>Node1&#45;&gt;Node8</title>
<path fill="none" stroke="#63b8ff" d="M623.76,-247.59C617.96,-240.32 609.76,-230.02 602.7,-221.15"/>
<polygon fill="#63b8ff" stroke="#63b8ff" points="605.56,-219.12 596.6,-213.48 600.09,-223.49 605.56,-219.12"/>
</g>
<!-- Node17 -->
<g id="node17" class="node">
<title>Node17</title>
<g id="a_node17"><a xlink:href="FMTexceptionhandler_8hpp.html" target="_top" xlink:title=" ">
<polygon fill="white" stroke="#666666" points="1081.12,-212 953.38,-212 953.38,-192 1081.12,-192 1081.12,-212"/>
<text text-anchor="middle" x="1017.25" y="-198.5" font-family="Helvetica,sans-Serif" font-size="10.00">FMTexceptionhandler.hpp</text>
</a>
</g>
</g>
<!-- Node1&#45;&gt;Node17 -->
<g id="edge21" class="edge">
<title>Node1&#45;&gt;Node17</title>
<path fill="none" stroke="#63b8ff" d="M698.93,-247.53C766.96,-238.01 871.61,-223.38 942.16,-213.5"/>
<polygon fill="#63b8ff" stroke="#63b8ff" points="942.26,-217.02 951.68,-212.17 941.29,-210.09 942.26,-217.02"/>
</g>
<!-- Node8&#45;&gt;Node4 -->
<g id="edge9" class="edge">
<title>Node8&#45;&gt;Node4</title>
<path fill="none" stroke="#63b8ff" d="M615.28,-191.62C639.4,-183.26 675.48,-170.75 705.74,-160.25"/>
<polygon fill="#63b8ff" stroke="#63b8ff" points="706.85,-163.57 715.16,-156.99 704.56,-156.96 706.85,-163.57"/>
</g>
<!-- Node8&#45;&gt;Node5 -->
<g id="edge10" class="edge">
<title>Node8&#45;&gt;Node5</title>
<path fill="none" stroke="#63b8ff" d="M547.8,-198.54C462.53,-192.96 270.54,-178.04 251.25,-156 235.28,-137.75 253.03,-113.39 271.3,-95.79"/>
<polygon fill="#63b8ff" stroke="#63b8ff" points="273.45,-98.56 278.49,-89.24 268.74,-93.39 273.45,-98.56"/>
</g>
<!-- Node8&#45;&gt;Node6 -->
<g id="edge19" class="edge">
<title>Node8&#45;&gt;Node6</title>
<path fill="none" stroke="#63b8ff" d="M601.84,-191.62C615.38,-182.29 636.4,-167.79 652.49,-156.7"/>
<polygon fill="#63b8ff" stroke="#63b8ff" points="654.26,-159.73 660.51,-151.17 650.29,-153.96 654.26,-159.73"/>
</g>
<!-- Node9 -->
<g id="node9" class="node">
<title>Node9</title>
<g id="a_node9"><a xlink:title=" ">
<polygon fill="#e0e0e0" stroke="#999999" points="354.62,-156 259.88,-156 259.88,-124 354.62,-124 354.62,-156"/>
<text text-anchor="start" x="267.88" y="-142.5" font-family="Helvetica,sans-Serif" font-size="10.00">boost/serialization</text>
<text text-anchor="middle" x="307.25" y="-130.5" font-family="Helvetica,sans-Serif" font-size="10.00">/shared_ptr.hpp</text>
</a>
</g>
</g>
<!-- Node8&#45;&gt;Node9 -->
<g id="edge8" class="edge">
<title>Node8&#45;&gt;Node9</title>
<path fill="none" stroke="#63b8ff" d="M547.84,-193.73C504.97,-185.84 435.01,-172.45 365.93,-156.55"/>
<polygon fill="#63b8ff" stroke="#63b8ff" points="366.86,-153.17 356.33,-154.32 365.28,-159.99 366.86,-153.17"/>
</g>
<!-- Node10 -->
<g id="node10" class="node">
<title>Node10</title>
<g id="a_node10"><a xlink:href="FMTexception_8hpp.html" target="_top" xlink:title=" ">
<polygon fill="white" stroke="#666666" points="598.38,-82 502.12,-82 502.12,-62 598.38,-62 598.38,-82"/>
<text text-anchor="middle" x="550.25" y="-68.5" font-family="Helvetica,sans-Serif" font-size="10.00">FMTexception.hpp</text>
</a>
</g>
</g>
<!-- Node8&#45;&gt;Node10 -->
<g id="edge11" class="edge">
<title>Node8&#45;&gt;Node10</title>
<path fill="none" stroke="#63b8ff" d="M586.36,-191.9C583.27,-177.4 576.72,-148.21 569.25,-124 566.04,-113.59 561.86,-102.21 558.25,-92.85"/>
<polygon fill="#63b8ff" stroke="#63b8ff" points="561.56,-91.71 554.63,-83.7 555.05,-94.28 561.56,-91.71"/>
</g>
<!-- Node13 -->
<g id="node13" class="node">
<title>Node13</title>
<g id="a_node13"><a xlink:title=" ">
<polygon fill="#e0e0e0" stroke="#999999" points="741.88,-20 690.62,-20 690.62,0 741.88,0 741.88,-20"/>
<text text-anchor="middle" x="716.25" y="-6.5" font-family="Helvetica,sans-Serif" font-size="10.00">memory</text>
</a>
</g>
</g>
<!-- Node8&#45;&gt;Node13 -->
<g id="edge17" class="edge">
<title>Node8&#45;&gt;Node13</title>
<path fill="none" stroke="#63b8ff" d="M594.6,-191.58C614.6,-161.88 676.6,-69.86 703.54,-29.87"/>
<polygon fill="#63b8ff" stroke="#63b8ff" points="706.33,-31.98 709.02,-21.73 700.53,-28.07 706.33,-31.98"/>
</g>
<!-- Node15 -->
<g id="node15" class="node">
<title>Node15</title>
<g id="a_node15"><a xlink:title=" ">
<polygon fill="#e0e0e0" stroke="#999999" points="417.88,-150 372.62,-150 372.62,-130 417.88,-130 417.88,-150"/>
<text text-anchor="middle" x="395.25" y="-136.5" font-family="Helvetica,sans-Serif" font-size="10.00">chrono</text>
</a>
</g>
</g>
<!-- Node8&#45;&gt;Node15 -->
<g id="edge18" class="edge">
<title>Node8&#45;&gt;Node15</title>
<path fill="none" stroke="#63b8ff" d="M547.63,-191.63C514.72,-183.57 467.38,-170.9 427.25,-156 426.29,-155.65 425.33,-155.27 424.35,-154.89"/>
<polygon fill="#63b8ff" stroke="#63b8ff" points="425.94,-151.76 415.37,-151.01 423.17,-158.19 425.94,-151.76"/>
</g>
<!-- Node16 -->
<g id="node16" class="node">
<title>Node16</title>
<g id="a_node16"><a xlink:title=" ">
<polygon fill="#e0e0e0" stroke="#999999" points="560.62,-156 435.88,-156 435.88,-124 560.62,-124 560.62,-156"/>
<text text-anchor="start" x="443.88" y="-142.5" font-family="Helvetica,sans-Serif" font-size="10.00">boost/dll/runtime_symbol</text>
<text text-anchor="middle" x="498.25" y="-130.5" font-family="Helvetica,sans-Serif" font-size="10.00">_info.hpp</text>
</a>
</g>
</g>
<!-- Node8&#45;&gt;Node16 -->
<g id="edge20" class="edge">
<title>Node8&#45;&gt;Node16</title>
<path fill="none" stroke="#63b8ff" d="M574.19,-191.62C562.59,-183.89 545.68,-172.62 530.75,-162.67"/>
<polygon fill="#63b8ff" stroke="#63b8ff" points="532.83,-159.85 522.57,-157.21 528.95,-165.67 532.83,-159.85"/>
</g>
<!-- Node10&#45;&gt;Node7 -->
<g id="edge13" class="edge">
<title>Node10&#45;&gt;Node7</title>
<path fill="none" stroke="#63b8ff" d="M528.22,-61.62C504.39,-51.49 466.25,-35.26 439.6,-23.91"/>
<polygon fill="#63b8ff" stroke="#63b8ff" points="441.27,-20.82 430.69,-20.13 438.53,-27.26 441.27,-20.82"/>
</g>
<!-- Node11 -->
<g id="node11" class="node">
<title>Node11</title>
<g id="a_node11"><a xlink:title=" ">
<polygon fill="#e0e0e0" stroke="#999999" points="505.25,-20 447.25,-20 447.25,0 505.25,0 505.25,-20"/>
<text text-anchor="middle" x="476.25" y="-6.5" font-family="Helvetica,sans-Serif" font-size="10.00">exception</text>
</a>
</g>
</g>
<!-- Node10&#45;&gt;Node11 -->
<g id="edge12" class="edge">
<title>Node10&#45;&gt;Node11</title>
<path fill="none" stroke="#63b8ff" d="M538.69,-61.62C527.33,-52.41 509.76,-38.17 496.15,-27.14"/>
<polygon fill="#63b8ff" stroke="#63b8ff" points="498.64,-24.65 488.66,-21.07 494.23,-30.08 498.64,-24.65"/>
</g>
<!-- Node12 -->
<g id="node12" class="node">
<title>Node12</title>
<g id="a_node12"><a xlink:title=" ">
<polygon fill="#e0e0e0" stroke="#999999" points="577,-20 523.5,-20 523.5,0 577,0 577,-20"/>
<text text-anchor="middle" x="550.25" y="-6.5" font-family="Helvetica,sans-Serif" font-size="10.00">iostream</text>
</a>
</g>
</g>
<!-- Node10&#45;&gt;Node12 -->
<g id="edge14" class="edge">
<title>Node10&#45;&gt;Node12</title>
<path fill="none" stroke="#63b8ff" d="M550.25,-61.62C550.25,-53.56 550.25,-41.65 550.25,-31.41"/>
<polygon fill="#63b8ff" stroke="#63b8ff" points="553.75,-31.63 550.25,-21.63 546.75,-31.63 553.75,-31.63"/>
</g>
<!-- Node10&#45;&gt;Node13 -->
<g id="edge15" class="edge">
<title>Node10&#45;&gt;Node13</title>
<path fill="none" stroke="#63b8ff" d="M576.19,-61.62C604,-51.57 648.39,-35.53 679.73,-24.2"/>
<polygon fill="#63b8ff" stroke="#63b8ff" points="680.58,-27.61 688.8,-20.92 678.2,-21.03 680.58,-27.61"/>
</g>
<!-- Node14 -->
<g id="node14" class="node">
<title>Node14</title>
<g id="a_node14"><a xlink:href="FMTutility_8hpp.html" target="_top" xlink:title=" ">
<polygon fill="white" stroke="#666666" points="673,-20 595.5,-20 595.5,0 673,0 673,-20"/>
<text text-anchor="middle" x="634.25" y="-6.5" font-family="Helvetica,sans-Serif" font-size="10.00">FMTutility.hpp</text>
</a>
</g>
</g>
<!-- Node10&#45;&gt;Node14 -->
<g id="edge16" class="edge">
<title>Node10&#45;&gt;Node14</title>
<path fill="none" stroke="#63b8ff" d="M563.38,-61.62C576.44,-52.29 596.74,-37.79 612.27,-26.7"/>
<polygon fill="#63b8ff" stroke="#63b8ff" points="613.88,-29.85 619.99,-21.19 609.81,-24.15 613.88,-29.85"/>
</g>
<!-- Node17&#45;&gt;Node3 -->
<g id="edge29" class="edge">
<title>Node17&#45;&gt;Node3</title>
<path fill="none" stroke="#63b8ff" d="M994.91,-191.62C975.32,-183.41 946.19,-171.18 921.46,-160.81"/>
<polygon fill="#63b8ff" stroke="#63b8ff" points="923.14,-157.72 912.56,-157.08 920.43,-164.17 923.14,-157.72"/>
</g>
<!-- Node17&#45;&gt;Node4 -->
<g id="edge30" class="edge">
<title>Node17&#45;&gt;Node4</title>
<path fill="none" stroke="#63b8ff" d="M973.28,-191.52C935.25,-183.22 878.54,-170.59 820.05,-156.39"/>
<polygon fill="#63b8ff" stroke="#63b8ff" points="821.13,-153.05 810.58,-154.08 819.47,-159.85 821.13,-153.05"/>
</g>
<!-- Node17&#45;&gt;Node5 -->
<g id="edge31" class="edge">
<title>Node17&#45;&gt;Node5</title>
<path fill="none" stroke="#63b8ff" d="M1006.92,-191.54C984.88,-171.4 934.87,-125.95 930.25,-124 830.47,-81.91 552.12,-97.57 444.25,-88 415.92,-85.49 384.53,-82.29 358.21,-79.49"/>
<polygon fill="#63b8ff" stroke="#63b8ff" points="358.71,-76.03 348.4,-78.44 357.97,-82.99 358.71,-76.03"/>
</g>
<!-- Node17&#45;&gt;Node13 -->
<g id="edge32" class="edge">
<title>Node17&#45;&gt;Node13</title>
<path fill="none" stroke="#63b8ff" d="M1032.86,-191.77C1044.48,-183.9 1059.47,-171.44 1066.25,-156 1084.13,-115.31 1095.6,-89.37 1066.25,-56 1045.82,-32.77 839.71,-18.18 753.67,-13.06"/>
<polygon fill="#63b8ff" stroke="#63b8ff" points="754.06,-9.58 743.87,-12.49 753.65,-16.57 754.06,-9.58"/>
</g>
<!-- Node18 -->
<g id="node18" class="node">
<title>Node18</title>
<g id="a_node18"><a xlink:href="FMTlogger_8hpp.html" target="_top" xlink:title=" ">
<polygon fill="white" stroke="#666666" points="1057.5,-150 977,-150 977,-130 1057.5,-130 1057.5,-150"/>
<text text-anchor="middle" x="1017.25" y="-136.5" font-family="Helvetica,sans-Serif" font-size="10.00">FMTlogger.hpp</text>
</a>
</g>
</g>
<!-- Node17&#45;&gt;Node18 -->
<g id="edge22" class="edge">
<title>Node17&#45;&gt;Node18</title>
<path fill="none" stroke="#63b8ff" d="M1017.25,-191.62C1017.25,-183.56 1017.25,-171.65 1017.25,-161.41"/>
<polygon fill="#63b8ff" stroke="#63b8ff" points="1020.75,-161.63 1017.25,-151.63 1013.75,-161.63 1020.75,-161.63"/>
</g>
<!-- Node21 -->
<g id="node21" class="node">
<title>Node21</title>
<g id="a_node21"><a xlink:title=" ">
<polygon fill="#e0e0e0" stroke="#999999" points="1195.62,-150 1112.88,-150 1112.88,-130 1195.62,-130 1195.62,-150"/>
<text text-anchor="middle" x="1154.25" y="-136.5" font-family="Helvetica,sans-Serif" font-size="10.00">unordered_map</text>
</a>
</g>
</g>
<!-- Node17&#45;&gt;Node21 -->
<g id="edge28" class="edge">
<title>Node17&#45;&gt;Node21</title>
<path fill="none" stroke="#63b8ff" d="M1038.66,-191.62C1061.18,-181.76 1096.86,-166.13 1122.63,-154.85"/>
<polygon fill="#63b8ff" stroke="#63b8ff" points="1123.85,-158.13 1131.61,-150.92 1121.04,-151.72 1123.85,-158.13"/>
</g>
<!-- Node22 -->
<g id="node22" class="node">
<title>Node22</title>
<g id="a_node22"><a xlink:title=" ">
<polygon fill="#e0e0e0" stroke="#999999" points="1243,-150 1213.5,-150 1213.5,-130 1243,-130 1243,-150"/>
<text text-anchor="middle" x="1228.25" y="-136.5" font-family="Helvetica,sans-Serif" font-size="10.00">set</text>
</a>
</g>
</g>
<!-- Node17&#45;&gt;Node22 -->
<g id="edge33" class="edge">
<title>Node17&#45;&gt;Node22</title>
<path fill="none" stroke="#63b8ff" d="M1077.76,-191.56C1115.16,-184.49 1163.61,-173.06 1204.25,-156 1204.48,-155.9 1204.7,-155.81 1204.93,-155.71"/>
<polygon fill="#63b8ff" stroke="#63b8ff" points="1206.44,-158.87 1213.62,-151.08 1203.15,-152.69 1206.44,-158.87"/>
</g>
<!-- Node23 -->
<g id="node23" class="node">
<title>Node23</title>
<g id="a_node23"><a xlink:title=" ">
<polygon fill="#e0e0e0" stroke="#999999" points="1349.62,-150 1260.88,-150 1260.88,-130 1349.62,-130 1349.62,-150"/>
<text text-anchor="middle" x="1305.25" y="-136.5" font-family="Helvetica,sans-Serif" font-size="10.00">boost/thread.hpp</text>
</a>
</g>
</g>
<!-- Node17&#45;&gt;Node23 -->
<g id="edge34" class="edge">
<title>Node17&#45;&gt;Node23</title>
<path fill="none" stroke="#63b8ff" d="M1074.05,-191.55C1121.83,-183.25 1191.82,-170.31 1252.25,-156 1255.59,-155.21 1259.03,-154.35 1262.48,-153.45"/>
<polygon fill="#63b8ff" stroke="#63b8ff" points="1263.21,-156.87 1271.96,-150.89 1261.39,-150.12 1263.21,-156.87"/>
</g>
<!-- Node18&#45;&gt;Node5 -->
<g id="edge23" class="edge">
<title>Node18&#45;&gt;Node5</title>
<path fill="none" stroke="#63b8ff" d="M987.5,-129.57C979.69,-127.41 971.21,-125.36 963.25,-124 728.33,-83.9 665.57,-109.77 428.25,-88 405.31,-85.9 380.13,-83.08 358.15,-80.46"/>
<polygon fill="#63b8ff" stroke="#63b8ff" points="358.83,-77.02 348.48,-79.29 357.99,-83.96 358.83,-77.02"/>
</g>
<!-- Node18&#45;&gt;Node7 -->
<g id="edge26" class="edge">
<title>Node18&#45;&gt;Node7</title>
<path fill="none" stroke="#63b8ff" d="M987.21,-129.54C979.47,-127.41 971.11,-125.38 963.25,-124 860.08,-105.9 589.35,-129.68 493.25,-88 463.86,-75.26 438.05,-47.83 423.04,-29.4"/>
<polygon fill="#63b8ff" stroke="#63b8ff" points="425.9,-27.37 416.98,-21.65 420.39,-31.68 425.9,-27.37"/>
</g>
<!-- Node18&#45;&gt;Node10 -->
<g id="edge27" class="edge">
<title>Node18&#45;&gt;Node10</title>
<path fill="none" stroke="#63b8ff" d="M986.31,-129.56C978.82,-127.51 970.79,-125.5 963.25,-124 838.83,-99.18 690.76,-84.41 610.04,-77.59"/>
<polygon fill="#63b8ff" stroke="#63b8ff" points="610.39,-74.1 600.14,-76.76 609.81,-81.08 610.39,-74.1"/>
</g>
<!-- Node19 -->
<g id="node19" class="node">
<title>Node19</title>
<g id="a_node19"><a xlink:title=" ">
<polygon fill="#e0e0e0" stroke="#999999" points="1056.88,-88 945.62,-88 945.62,-56 1056.88,-56 1056.88,-88"/>
<text text-anchor="start" x="953.62" y="-74.5" font-family="Helvetica,sans-Serif" font-size="10.00">boost/thread/recursive</text>
<text text-anchor="middle" x="1001.25" y="-62.5" font-family="Helvetica,sans-Serif" font-size="10.00">_mutex.hpp</text>
</a>
</g>
</g>
<!-- Node18&#45;&gt;Node19 -->
<g id="edge24" class="edge">
<title>Node18&#45;&gt;Node19</title>
<path fill="none" stroke="#63b8ff" d="M1014.96,-129.54C1013.04,-121.64 1010.21,-109.97 1007.62,-99.29"/>
<polygon fill="#63b8ff" stroke="#63b8ff" points="1011.07,-98.67 1005.32,-89.77 1004.27,-100.32 1011.07,-98.67"/>
</g>
<!-- Node20 -->
<g id="node20" class="node">
<title>Node20</title>
<g id="a_node20"><a xlink:title=" ">
<polygon fill="#e0e0e0" stroke="#999999" points="927.38,-82 879.12,-82 879.12,-62 927.38,-62 927.38,-82"/>
<text text-anchor="middle" x="903.25" y="-68.5" font-family="Helvetica,sans-Serif" font-size="10.00">fstream</text>
</a>
</g>
</g>
<!-- Node18&#45;&gt;Node20 -->
<g id="edge25" class="edge">
<title>Node18&#45;&gt;Node20</title>
<path fill="none" stroke="#63b8ff" d="M1000.92,-129.54C982.21,-118.71 951.3,-100.82 929.27,-88.06"/>
<polygon fill="#63b8ff" stroke="#63b8ff" points="931.27,-85.18 920.86,-83.2 927.76,-91.24 931.27,-85.18"/>
</g>
</g>
</svg>
        <g id="navigator" transform="translate(0 0)" fill="#404254">
                <rect fill="#f2f5e9" fill-opacity="0.5" stroke="#606060" stroke-width=".5" x="0" y="0" width="60" height="60"/>
                <use id="zoomplus" xlink:href="#zoomPlus" x="17" y="9" onmousedown="handleZoom(evt,'in')"/>
                <use id="zoomminus" xlink:href="#zoomMin" x="42" y="9" onmousedown="handleZoom(evt,'out')"/>
                <use id="reset" xlink:href="#resetDef" x="30" y="36" onmousedown="handleReset()"/>
                <g id="arrowUp" xlink:href="#dirArrow" transform="translate(30 24)" onmousedown="handlePan(0,-1)">
                  <use xlink:href="#rim" fill="#404040">
                        <set attributeName="fill" to="#808080" begin="arrowUp.mouseover" end="arrowUp.mouseout"/>
                  </use>
                  <path fill="none" stroke="white" stroke-width="1.5" d="M0,-3.0v7 M-2.5,-0.5L0,-3.0L2.5,-0.5"/>
                </g>
                <g id="arrowRight" xlink:href="#dirArrow" transform="rotate(90) translate(36 -43)" onmousedown="handlePan(1,0)">
                  <use xlink:href="#rim" fill="#404040">
                        <set attributeName="fill" to="#808080" begin="arrowRight.mouseover" end="arrowRight.mouseout"/>
                  </use>
                  <path fill="none" stroke="white" stroke-width="1.5" d="M0,-3.0v7 M-2.5,-0.5L0,-3.0L2.5,-0.5"/>
                </g>
                <g id="arrowDown" xlink:href="#dirArrow" transform="rotate(180) translate(-30 -48)" onmousedown="handlePan(0,1)">
                  <use xlink:href="#rim" fill="#404040">
                        <set attributeName="fill" to="#808080" begin="arrowDown.mouseover" end="arrowDown.mouseout"/>
                  </use>
                  <path fill="none" stroke="white" stroke-width="1.5" d="M0,-3.0v7 M-2.5,-0.5L0,-3.0L2.5,-0.5"/>
                </g>
                <g id="arrowLeft" xlink:href="#dirArrow" transform="rotate(270) translate(-36 17)" onmousedown="handlePan(-1,0)">
                  <use xlink:href="#rim" fill="#404040">
                        <set attributeName="fill" to="#808080" begin="arrowLeft.mouseover" end="arrowLeft.mouseout"/>
                  </use>
                  <path fill="none" stroke="white" stroke-width="1.5" d="M0,-3.0v7 M-2.5,-0.5L0,-3.0L2.5,-0.5"/>
                </g>
        </g>
        <svg viewBox="0 0 15 15" width="100%" height="30px" preserveAspectRatio="xMaxYMin meet">
         <g id="arrow_out" transform="scale(0.3 0.3)">
          <a xlink:href="FMTconstants_8hpp__incl_org.svg" target="_base">
           <rect id="button" ry="5" rx="5" y="6" x="6" height="38" width="38"
                fill="#f2f5e9" fill-opacity="0.5" stroke="#606060" stroke-width="1.0"/>
           <path id="arrow"
             d="M 11.500037,31.436501 C 11.940474,20.09759 22.043105,11.32322 32.158766,21.979434 L 37.068811,17.246167 C 37.068811,17.246167 37.088388,32 37.088388,32 L 22.160133,31.978069 C 22.160133,31.978069 26.997745,27.140456 26.997745,27.140456 C 18.528582,18.264221 13.291696,25.230495 11.500037,31.436501 z"
             style="fill:#404040;"/>
          </a>
         </g>
        </svg>
</svg>
