<?xml version="1.0" encoding="UTF-8" standalone="no"?>
<!DOCTYPE svg PUBLIC "-//W3C//DTD SVG 1.1//EN"
 "http://www.w3.org/Graphics/SVG/1.1/DTD/svg11.dtd">
<!-- Generated by graphviz version 10.0.1 (20240210.2158)
 -->
<!-- Title: D:/FMT/Include/FMTconstraint.hpp Pages: 1 -->
<svg width="2880pt" height="444pt"
 viewBox="0.00 0.00 2879.76 444.00" xmlns="http://www.w3.org/2000/svg" xmlns:xlink="http://www.w3.org/1999/xlink">
<g id="graph0" class="graph" transform="scale(1 1) rotate(0) translate(4 440)">
<title>D:/FMT/Include/FMTconstraint.hpp</title>
<!-- Node1 -->
<g id="node1" class="node">
<title>Node1</title>
<g id="a_node1"><a xlink:title=" ">
<polygon fill="#999999" stroke="#666666" points="1033,-436 867,-436 867,-416 1033,-416 1033,-436"/>
<text text-anchor="middle" x="950" y="-422.5" font-family="Helvetica,sans-Serif" font-size="10.00">D:/FMT/Include/FMTconstraint.hpp</text>
</a>
</g>
</g>
<!-- Node2 -->
<g id="node2" class="node">
<title>Node2</title>
<g id="a_node2"><a xlink:href="FMToutput_8hpp.html" target="_top" xlink:title=" ">
<polygon fill="white" stroke="#666666" points="1322.62,-380 1241.38,-380 1241.38,-360 1322.62,-360 1322.62,-380"/>
<text text-anchor="middle" x="1282" y="-366.5" font-family="Helvetica,sans-Serif" font-size="10.00">FMToutput.hpp</text>
</a>
</g>
</g>
<!-- Node1&#45;&gt;Node2 -->
<g id="edge1" class="edge">
<title>Node1&#45;&gt;Node2</title>
<path fill="none" stroke="#63b8ff" d="M1008.21,-415.53C1070.93,-405.33 1169.82,-389.25 1230.01,-379.46"/>
<polygon fill="#63b8ff" stroke="#63b8ff" points="1230.35,-382.95 1239.66,-377.89 1229.22,-376.04 1230.35,-382.95"/>
</g>
<!-- Node3 -->
<g id="node3" class="node">
<title>Node3</title>
<g id="a_node3"><a xlink:title=" ">
<polygon fill="#e0e0e0" stroke="#999999" points="664.75,-150 623.25,-150 623.25,-130 664.75,-130 664.75,-150"/>
<text text-anchor="middle" x="644" y="-136.5" font-family="Helvetica,sans-Serif" font-size="10.00">vector</text>
</a>
</g>
</g>
<!-- Node1&#45;&gt;Node3 -->
<g id="edge86" class="edge">
<title>Node1&#45;&gt;Node3</title>
<path fill="none" stroke="#63b8ff" d="M866.8,-425.49C780.55,-424 654.02,-415.58 623,-380 594.87,-347.73 625.45,-213.2 638.6,-161.43"/>
<polygon fill="#63b8ff" stroke="#63b8ff" points="641.95,-162.44 641.07,-151.88 635.18,-160.68 641.95,-162.44"/>
</g>
<!-- Node4 -->
<g id="node4" class="node">
<title>Node4</title>
<g id="a_node4"><a xlink:title=" ">
<polygon fill="#e0e0e0" stroke="#999999" points="865,-20 825,-20 825,0 865,0 865,-20"/>
<text text-anchor="middle" x="845" y="-6.5" font-family="Helvetica,sans-Serif" font-size="10.00">string</text>
</a>
</g>
</g>
<!-- Node1&#45;&gt;Node4 -->
<g id="edge87" class="edge">
<title>Node1&#45;&gt;Node4</title>
<path fill="none" stroke="#63b8ff" d="M866.82,-423.62C692.72,-420.19 295.1,-409.3 163,-380 86.86,-363.11 0,-392.99 0,-315 0,-315 0,-315 0,-201 0,-143.13 54.77,-152.73 105,-124 171.36,-86.04 188.77,-74.31 263,-56 368.77,-29.92 707.35,-15.91 813.12,-12.09"/>
<polygon fill="#63b8ff" stroke="#63b8ff" points="813.18,-15.59 823.05,-11.73 812.93,-8.59 813.18,-15.59"/>
</g>
<!-- Node8 -->
<g id="node8" class="node">
<title>Node8</title>
<g id="a_node8"><a xlink:href="FMTbounds_8hpp.html" target="_top" xlink:title=" ">
<polygon fill="white" stroke="#666666" points="2508.88,-212 2423.12,-212 2423.12,-192 2508.88,-192 2508.88,-212"/>
<text text-anchor="middle" x="2466" y="-198.5" font-family="Helvetica,sans-Serif" font-size="10.00">FMTbounds.hpp</text>
</a>
</g>
</g>
<!-- Node1&#45;&gt;Node8 -->
<g id="edge89" class="edge">
<title>Node1&#45;&gt;Node8</title>
<path fill="none" stroke="#63b8ff" d="M1033.26,-422.25C1320.01,-412.33 2255.92,-376.25 2380,-324 2414.53,-309.46 2422.09,-299.08 2443,-268 2452.21,-254.31 2458.17,-236.52 2461.71,-223.02"/>
<polygon fill="#63b8ff" stroke="#63b8ff" points="2465.06,-224.07 2463.95,-213.53 2458.24,-222.46 2465.06,-224.07"/>
</g>
<!-- Node9 -->
<g id="node9" class="node">
<title>Node9</title>
<g id="a_node9"><a xlink:title=" ">
<polygon fill="#e0e0e0" stroke="#999999" points="2809.62,-150 2770.38,-150 2770.38,-130 2809.62,-130 2809.62,-150"/>
<text text-anchor="middle" x="2790" y="-136.5" font-family="Helvetica,sans-Serif" font-size="10.00">limits</text>
</a>
</g>
</g>
<!-- Node1&#45;&gt;Node9 -->
<g id="edge88" class="edge">
<title>Node1&#45;&gt;Node9</title>
<path fill="none" stroke="#63b8ff" d="M1033.47,-424.17C1381.5,-420.18 2699,-399.5 2699,-315 2699,-315 2699,-315 2699,-257 2699,-213.69 2738.76,-176.95 2765.72,-157.02"/>
<polygon fill="#63b8ff" stroke="#63b8ff" points="2767.61,-159.97 2773.74,-151.33 2763.56,-154.26 2767.61,-159.97"/>
</g>
<!-- Node17 -->
<g id="node17" class="node">
<title>Node17</title>
<g id="a_node17"><a xlink:title=" ">
<polygon fill="#e0e0e0" stroke="#999999" points="2550.38,-156 2455.62,-156 2455.62,-124 2550.38,-124 2550.38,-156"/>
<text text-anchor="start" x="2463.62" y="-142.5" font-family="Helvetica,sans-Serif" font-size="10.00">boost/serialization</text>
<text text-anchor="middle" x="2503" y="-130.5" font-family="Helvetica,sans-Serif" font-size="10.00">/serialization.hpp</text>
</a>
</g>
</g>
<!-- Node1&#45;&gt;Node17 -->
<g id="edge90" class="edge">
<title>Node1&#45;&gt;Node17</title>
<path fill="none" stroke="#63b8ff" d="M1033.37,-423.63C1360.29,-417.7 2537,-391.1 2537,-315 2537,-315 2537,-315 2537,-257 2537,-224.9 2524.86,-189.74 2515.09,-166.64"/>
<polygon fill="#63b8ff" stroke="#63b8ff" points="2518.39,-165.46 2511.16,-157.73 2511.99,-168.29 2518.39,-165.46"/>
</g>
<!-- Node18 -->
<g id="node18" class="node">
<title>Node18</title>
<g id="a_node18"><a xlink:title=" ">
<polygon fill="#e0e0e0" stroke="#999999" points="1311.38,-156 1216.62,-156 1216.62,-124 1311.38,-124 1311.38,-156"/>
<text text-anchor="start" x="1224.62" y="-142.5" font-family="Helvetica,sans-Serif" font-size="10.00">boost/serialization</text>
<text text-anchor="middle" x="1264" y="-130.5" font-family="Helvetica,sans-Serif" font-size="10.00">/nvp.hpp</text>
</a>
</g>
</g>
<!-- Node1&#45;&gt;Node18 -->
<g id="edge91" class="edge">
<title>Node1&#45;&gt;Node18</title>
<path fill="none" stroke="#63b8ff" d="M960.45,-415.55C1004.25,-375.93 1173.83,-222.55 1238.63,-163.94"/>
<polygon fill="#63b8ff" stroke="#63b8ff" points="1240.86,-166.64 1245.93,-157.34 1236.17,-161.45 1240.86,-166.64"/>
</g>
<!-- Node27 -->
<g id="node27" class="node">
<title>Node27</title>
<g id="a_node27"><a xlink:title=" ">
<polygon fill="#e0e0e0" stroke="#999999" points="740.38,-88 645.62,-88 645.62,-56 740.38,-56 740.38,-88"/>
<text text-anchor="start" x="653.62" y="-74.5" font-family="Helvetica,sans-Serif" font-size="10.00">boost/serialization</text>
<text text-anchor="middle" x="693" y="-62.5" font-family="Helvetica,sans-Serif" font-size="10.00">/export.hpp</text>
</a>
</g>
</g>
<!-- Node1&#45;&gt;Node27 -->
<g id="edge92" class="edge">
<title>Node1&#45;&gt;Node27</title>
<path fill="none" stroke="#63b8ff" d="M866.59,-423.16C648.13,-417.25 76,-394.19 76,-315 76,-315 76,-315 76,-201 76,-87.67 480.15,-73.94 634.26,-72.83"/>
<polygon fill="#63b8ff" stroke="#63b8ff" points="633.86,-76.33 643.84,-72.77 633.82,-69.33 633.86,-76.33"/>
</g>
<!-- Node2&#45;&gt;Node3 -->
<g id="edge2" class="edge">
<title>Node2&#45;&gt;Node3</title>
<path fill="none" stroke="#63b8ff" d="M1240.94,-364.1C1159.7,-353.49 973.61,-324.66 827,-268 759.66,-241.97 693.21,-186.37 662.17,-158.16"/>
<polygon fill="#63b8ff" stroke="#63b8ff" points="664.55,-155.59 654.82,-151.38 659.8,-160.74 664.55,-155.59"/>
</g>
<!-- Node2&#45;&gt;Node4 -->
<g id="edge3" class="edge">
<title>Node2&#45;&gt;Node4</title>
<path fill="none" stroke="#63b8ff" d="M1284.26,-359.65C1294.41,-317.12 1334.76,-143.12 1320,-124 1264.98,-52.74 974.24,-21.94 876.83,-13.51"/>
<polygon fill="#63b8ff" stroke="#63b8ff" points="877.2,-10.03 866.94,-12.68 876.61,-17.01 877.2,-10.03"/>
</g>
<!-- Node5 -->
<g id="node5" class="node">
<title>Node5</title>
<g id="a_node5"><a xlink:title=" ">
<polygon fill="#e0e0e0" stroke="#999999" points="1278,-324 1238,-324 1238,-304 1278,-304 1278,-324"/>
<text text-anchor="middle" x="1258" y="-310.5" font-family="Helvetica,sans-Serif" font-size="10.00">stack</text>
</a>
</g>
</g>
<!-- Node2&#45;&gt;Node5 -->
<g id="edge4" class="edge">
<title>Node2&#45;&gt;Node5</title>
<path fill="none" stroke="#63b8ff" d="M1277.82,-359.59C1274.76,-352.7 1270.49,-343.1 1266.7,-334.57"/>
<polygon fill="#63b8ff" stroke="#63b8ff" points="1270.01,-333.4 1262.75,-325.68 1263.61,-336.24 1270.01,-333.4"/>
</g>
<!-- Node6 -->
<g id="node6" class="node">
<title>Node6</title>
<g id="a_node6"><a xlink:title=" ">
<polygon fill="#e0e0e0" stroke="#999999" points="604.75,-150 575.25,-150 575.25,-130 604.75,-130 604.75,-150"/>
<text text-anchor="middle" x="590" y="-136.5" font-family="Helvetica,sans-Serif" font-size="10.00">set</text>
</a>
</g>
</g>
<!-- Node2&#45;&gt;Node6 -->
<g id="edge5" class="edge">
<title>Node2&#45;&gt;Node6</title>
<path fill="none" stroke="#63b8ff" d="M1241.2,-369.21C1120.9,-369.33 769.44,-365.99 664,-324 590.93,-294.9 560.69,-283.06 527,-212 515.79,-188.35 542.74,-166.71 564.82,-153.7"/>
<polygon fill="#63b8ff" stroke="#63b8ff" points="566.39,-156.83 573.45,-148.92 563,-150.7 566.39,-156.83"/>
</g>
<!-- Node7 -->
<g id="node7" class="node">
<title>Node7</title>
<g id="a_node7"><a xlink:href="FMToutputsource_8hpp.html" target="_top" xlink:title=" ">
<polygon fill="white" stroke="#666666" points="1628.25,-324 1517.75,-324 1517.75,-304 1628.25,-304 1628.25,-324"/>
<text text-anchor="middle" x="1573" y="-310.5" font-family="Helvetica,sans-Serif" font-size="10.00">FMToutputsource.hpp</text>
</a>
</g>
</g>
<!-- Node2&#45;&gt;Node7 -->
<g id="edge6" class="edge">
<title>Node2&#45;&gt;Node7</title>
<path fill="none" stroke="#63b8ff" d="M1323.08,-361.38C1371.99,-352.3 1454.17,-337.05 1510.87,-326.53"/>
<polygon fill="#63b8ff" stroke="#63b8ff" points="1511.17,-330.03 1520.36,-324.77 1509.89,-323.15 1511.17,-330.03"/>
</g>
<!-- Node2&#45;&gt;Node8 -->
<g id="edge81" class="edge">
<title>Node2&#45;&gt;Node8</title>
<path fill="none" stroke="#63b8ff" d="M1322.88,-369.08C1507.2,-369.21 2256.19,-367.08 2351,-324 2399.2,-302.1 2437.16,-249.85 2454.96,-221.71"/>
<polygon fill="#63b8ff" stroke="#63b8ff" points="2457.74,-223.86 2459.98,-213.51 2451.78,-220.21 2457.74,-223.86"/>
</g>
<!-- Node2&#45;&gt;Node17 -->
<g id="edge84" class="edge">
<title>Node2&#45;&gt;Node17</title>
<path fill="none" stroke="#63b8ff" d="M1323.11,-364.61C1389.36,-357.35 1523.78,-341.85 1637,-324 1901.94,-282.23 1968.26,-270.58 2230,-212 2304.44,-195.34 2389.37,-172.67 2444.46,-157.47"/>
<polygon fill="#63b8ff" stroke="#63b8ff" points="2445.24,-160.88 2453.95,-154.84 2443.37,-154.14 2445.24,-160.88"/>
</g>
<!-- Node19 -->
<g id="node19" class="node">
<title>Node19</title>
<g id="a_node19"><a xlink:title=" ">
<polygon fill="#e0e0e0" stroke="#999999" points="1537.38,-156 1442.62,-156 1442.62,-124 1537.38,-124 1537.38,-156"/>
<text text-anchor="start" x="1450.62" y="-142.5" font-family="Helvetica,sans-Serif" font-size="10.00">boost/serialization</text>
<text text-anchor="middle" x="1490" y="-130.5" font-family="Helvetica,sans-Serif" font-size="10.00">/string.hpp</text>
</a>
</g>
</g>
<!-- Node2&#45;&gt;Node19 -->
<g id="edge83" class="edge">
<title>Node2&#45;&gt;Node19</title>
<path fill="none" stroke="#63b8ff" d="M1296.42,-359.72C1329.45,-337.79 1411.45,-279.5 1459,-212 1468.72,-198.2 1476.36,-180.88 1481.62,-166.79"/>
<polygon fill="#63b8ff" stroke="#63b8ff" points="1484.78,-168.35 1484.82,-157.75 1478.18,-166.01 1484.78,-168.35"/>
</g>
<!-- Node2&#45;&gt;Node27 -->
<g id="edge85" class="edge">
<title>Node2&#45;&gt;Node27</title>
<path fill="none" stroke="#63b8ff" d="M1241.11,-367.98C1115.13,-364.58 734.24,-352.18 614,-324 424.27,-279.53 317.22,-318.06 209,-156 201.1,-144.17 199.48,-134.57 209,-124 236.96,-92.94 510.84,-79.42 633.79,-74.89"/>
<polygon fill="#63b8ff" stroke="#63b8ff" points="633.82,-78.39 643.69,-74.53 633.57,-71.4 633.82,-78.39"/>
</g>
<!-- Node30 -->
<g id="node30" class="node">
<title>Node30</title>
<g id="a_node30"><a xlink:href="FMTobject_8hpp.html" target="_top" xlink:title=" ">
<polygon fill="white" stroke="#666666" points="616.25,-212 535.75,-212 535.75,-192 616.25,-192 616.25,-212"/>
<text text-anchor="middle" x="576" y="-198.5" font-family="Helvetica,sans-Serif" font-size="10.00">FMTobject.hpp</text>
</a>
</g>
</g>
<!-- Node2&#45;&gt;Node30 -->
<g id="edge82" class="edge">
<title>Node2&#45;&gt;Node30</title>
<path fill="none" stroke="#63b8ff" d="M1241.28,-369.44C1125.39,-370.14 795.9,-368.1 699,-324 649.44,-301.44 608.25,-249.91 588.52,-221.93"/>
<polygon fill="#63b8ff" stroke="#63b8ff" points="591.44,-219.99 582.9,-213.71 585.66,-223.94 591.44,-219.99"/>
</g>
<!-- Node40 -->
<g id="node40" class="node">
<title>Node40</title>
<g id="a_node40"><a xlink:href="FMToperator_8hpp.html" target="_top" xlink:title=" ">
<polygon fill="white" stroke="#666666" points="1423.75,-212 1334.25,-212 1334.25,-192 1423.75,-192 1423.75,-212"/>
<text text-anchor="middle" x="1379" y="-198.5" font-family="Helvetica,sans-Serif" font-size="10.00">FMToperator.hpp</text>
</a>
</g>
</g>
<!-- Node2&#45;&gt;Node40 -->
<g id="edge73" class="edge">
<title>Node2&#45;&gt;Node40</title>
<path fill="none" stroke="#63b8ff" d="M1291.2,-359.54C1299.4,-350.8 1311.4,-337.19 1320,-324 1341.93,-290.34 1361.01,-247.34 1371.18,-222.71"/>
<polygon fill="#63b8ff" stroke="#63b8ff" points="1374.35,-224.2 1374.86,-213.62 1367.86,-221.57 1374.35,-224.2"/>
</g>
<!-- Node7&#45;&gt;Node3 -->
<g id="edge37" class="edge">
<title>Node7&#45;&gt;Node3</title>
<path fill="none" stroke="#63b8ff" d="M1517.5,-310.84C1362.05,-304.58 929.68,-285.79 868,-268 846.66,-261.84 723.44,-188.7 669.4,-156.29"/>
<polygon fill="#63b8ff" stroke="#63b8ff" points="671.23,-153.31 660.86,-151.16 667.63,-159.31 671.23,-153.31"/>
</g>
<!-- Node7&#45;&gt;Node4 -->
<g id="edge39" class="edge">
<title>Node7&#45;&gt;Node4</title>
<path fill="none" stroke="#63b8ff" d="M1517.58,-311.03C1272.52,-301.72 294.46,-258.35 209,-156 127.79,-58.75 674.38,-20.73 813.39,-12.69"/>
<polygon fill="#63b8ff" stroke="#63b8ff" points="813.54,-16.19 823.32,-12.13 813.14,-9.2 813.54,-16.19"/>
</g>
<!-- Node7&#45;&gt;Node8 -->
<g id="edge7" class="edge">
<title>Node7&#45;&gt;Node8</title>
<path fill="none" stroke="#63b8ff" d="M1628.71,-311.19C1733.3,-307.26 1966.01,-295.91 2160,-268 2252.42,-254.7 2358.71,-229.95 2418.56,-215.13"/>
<polygon fill="#63b8ff" stroke="#63b8ff" points="2419.22,-218.57 2428.07,-212.76 2417.52,-211.78 2419.22,-218.57"/>
</g>
<!-- Node15 -->
<g id="node15" class="node">
<title>Node15</title>
<g id="a_node15"><a xlink:href="FMTutility_8hpp.html" target="_top" xlink:title=" ">
<polygon fill="white" stroke="#666666" points="2215.75,-20 2138.25,-20 2138.25,0 2215.75,0 2215.75,-20"/>
<text text-anchor="middle" x="2177" y="-6.5" font-family="Helvetica,sans-Serif" font-size="10.00">FMTutility.hpp</text>
</a>
</g>
</g>
<!-- Node7&#45;&gt;Node15 -->
<g id="edge40" class="edge">
<title>Node7&#45;&gt;Node15</title>
<path fill="none" stroke="#63b8ff" d="M1628.62,-310.38C1860.5,-298.88 2741.78,-249.26 2819,-156 2905.97,-50.97 2909.88,-119.2 2633,-56 2488.19,-22.94 2312.04,-14.17 2227.3,-11.84"/>
<polygon fill="#63b8ff" stroke="#63b8ff" points="2227.56,-8.35 2217.47,-11.59 2227.38,-15.34 2227.56,-8.35"/>
</g>
<!-- Node7&#45;&gt;Node17 -->
<g id="edge38" class="edge">
<title>Node7&#45;&gt;Node17</title>
<path fill="none" stroke="#63b8ff" d="M1628.71,-304.55C1765.85,-283.43 2130.76,-225.17 2444.05,-156.33"/>
<polygon fill="#63b8ff" stroke="#63b8ff" points="2444.68,-159.78 2453.7,-154.21 2443.18,-152.94 2444.68,-159.78"/>
</g>
<!-- Node21 -->
<g id="node21" class="node">
<title>Node21</title>
<g id="a_node21"><a xlink:href="FMTmask_8hpp.html" target="_top" xlink:title=" ">
<polygon fill="white" stroke="#666666" points="1671.12,-212 1592.88,-212 1592.88,-192 1671.12,-192 1671.12,-212"/>
<text text-anchor="middle" x="1632" y="-198.5" font-family="Helvetica,sans-Serif" font-size="10.00">FMTmask.hpp</text>
</a>
</g>
</g>
<!-- Node7&#45;&gt;Node21 -->
<g id="edge23" class="edge">
<title>Node7&#45;&gt;Node21</title>
<path fill="none" stroke="#63b8ff" d="M1583.63,-303.64C1592.65,-295.16 1605.31,-281.9 1613,-268 1620.68,-254.12 1625.54,-236.82 1628.42,-223.56"/>
<polygon fill="#63b8ff" stroke="#63b8ff" points="1631.85,-224.3 1630.32,-213.81 1624.97,-222.96 1631.85,-224.3"/>
</g>
<!-- Node28 -->
<g id="node28" class="node">
<title>Node28</title>
<g id="a_node28"><a xlink:title=" ">
<polygon fill="#e0e0e0" stroke="#999999" points="1603.75,-268 1526.25,-268 1526.25,-248 1603.75,-248 1603.75,-268"/>
<text text-anchor="middle" x="1565" y="-254.5" font-family="Helvetica,sans-Serif" font-size="10.00">unordered_set</text>
</a>
</g>
</g>
<!-- Node7&#45;&gt;Node28 -->
<g id="edge41" class="edge">
<title>Node7&#45;&gt;Node28</title>
<path fill="none" stroke="#63b8ff" d="M1571.61,-303.59C1570.62,-296.93 1569.26,-287.75 1568.03,-279.44"/>
<polygon fill="#63b8ff" stroke="#63b8ff" points="1571.53,-279.17 1566.6,-269.8 1564.6,-280.2 1571.53,-279.17"/>
</g>
<!-- Node29 -->
<g id="node29" class="node">
<title>Node29</title>
<g id="a_node29"><a xlink:href="FMTdevelopment_8hpp.html" target="_top" xlink:title=" ">
<polygon fill="white" stroke="#666666" points="985.12,-268 876.88,-268 876.88,-248 985.12,-248 985.12,-268"/>
<text text-anchor="middle" x="931" y="-254.5" font-family="Helvetica,sans-Serif" font-size="10.00">FMTdevelopment.hpp</text>
</a>
</g>
</g>
<!-- Node7&#45;&gt;Node29 -->
<g id="edge42" class="edge">
<title>Node7&#45;&gt;Node29</title>
<path fill="none" stroke="#63b8ff" d="M1517.43,-308.33C1399.27,-298.39 1123.56,-275.2 996.84,-264.54"/>
<polygon fill="#63b8ff" stroke="#63b8ff" points="997.18,-261.05 986.92,-263.7 996.6,-268.03 997.18,-261.05"/>
</g>
<!-- Node8&#45;&gt;Node3 -->
<g id="edge17" class="edge">
<title>Node8&#45;&gt;Node3</title>
<path fill="none" stroke="#63b8ff" d="M2422.65,-200.42C2236,-197.78 1482.36,-185.75 864,-156 797.38,-152.79 719.55,-147.01 676.62,-143.63"/>
<polygon fill="#63b8ff" stroke="#63b8ff" points="676.98,-140.15 666.73,-142.85 676.42,-147.13 676.98,-140.15"/>
</g>
<!-- Node8&#45;&gt;Node9 -->
<g id="edge8" class="edge">
<title>Node8&#45;&gt;Node9</title>
<path fill="none" stroke="#63b8ff" d="M2509.03,-197.86C2566.33,-192.88 2670.43,-181.04 2756,-156 2757.39,-155.59 2758.8,-155.14 2760.22,-154.66"/>
<polygon fill="#63b8ff" stroke="#63b8ff" points="2761.47,-157.93 2769.5,-151.02 2758.91,-151.41 2761.47,-157.93"/>
</g>
<!-- Node10 -->
<g id="node10" class="node">
<title>Node10</title>
<g id="a_node10"><a xlink:title=" ">
<polygon fill="#e0e0e0" stroke="#999999" points="2714.38,-150 2679.62,-150 2679.62,-130 2714.38,-130 2714.38,-150"/>
<text text-anchor="middle" x="2697" y="-136.5" font-family="Helvetica,sans-Serif" font-size="10.00">map</text>
</a>
</g>
</g>
<!-- Node8&#45;&gt;Node10 -->
<g id="edge9" class="edge">
<title>Node8&#45;&gt;Node10</title>
<path fill="none" stroke="#63b8ff" d="M2509.12,-195.47C2551.4,-189.15 2617.15,-176.87 2671,-156 2671.49,-155.81 2671.97,-155.62 2672.46,-155.41"/>
<polygon fill="#63b8ff" stroke="#63b8ff" points="2673.8,-158.66 2681.19,-151.06 2670.68,-152.39 2673.8,-158.66"/>
</g>
<!-- Node11 -->
<g id="node11" class="node">
<title>Node11</title>
<g id="a_node11"><a xlink:href="FMTexception_8hpp.html" target="_top" xlink:title=" ">
<polygon fill="white" stroke="#666666" points="1501.12,-82 1404.88,-82 1404.88,-62 1501.12,-62 1501.12,-82"/>
<text text-anchor="middle" x="1453" y="-68.5" font-family="Helvetica,sans-Serif" font-size="10.00">FMTexception.hpp</text>
</a>
</g>
</g>
<!-- Node8&#45;&gt;Node11 -->
<g id="edge10" class="edge">
<title>Node8&#45;&gt;Node11</title>
<path fill="none" stroke="#63b8ff" d="M2508.14,-191.5C2527.12,-184.89 2547.76,-173.93 2559,-156 2566.56,-143.95 2568.82,-134.29 2559,-124 2522.63,-85.91 1737.74,-75.66 1512.77,-73.5"/>
<polygon fill="#63b8ff" stroke="#63b8ff" points="1513.1,-70 1503.07,-73.41 1513.03,-77 1513.1,-70"/>
</g>
<!-- Node8&#45;&gt;Node15 -->
<g id="edge16" class="edge">
<title>Node8&#45;&gt;Node15</title>
<path fill="none" stroke="#63b8ff" d="M2509.23,-201.95C2596.58,-202.43 2781.08,-195.33 2723,-124 2660.61,-47.37 2350.46,-21.1 2227.42,-13.6"/>
<polygon fill="#63b8ff" stroke="#63b8ff" points="2227.81,-10.11 2217.62,-13.02 2227.4,-17.1 2227.81,-10.11"/>
</g>
<!-- Node16 -->
<g id="node16" class="node">
<title>Node16</title>
<g id="a_node16"><a xlink:title=" ">
<polygon fill="#e0e0e0" stroke="#999999" points="1903.5,-150 1776.5,-150 1776.5,-130 1903.5,-130 1903.5,-150"/>
<text text-anchor="middle" x="1840" y="-136.5" font-family="Helvetica,sans-Serif" font-size="10.00">boost/functional/hash.hpp</text>
</a>
</g>
</g>
<!-- Node8&#45;&gt;Node16 -->
<g id="edge18" class="edge">
<title>Node8&#45;&gt;Node16</title>
<path fill="none" stroke="#63b8ff" d="M2422.78,-199.27C2329.36,-195.14 2101.8,-182.98 1913,-156 1906.44,-155.06 1899.57,-153.9 1892.8,-152.64"/>
<polygon fill="#63b8ff" stroke="#63b8ff" points="1893.51,-149.21 1883.03,-150.73 1892.17,-156.08 1893.51,-149.21"/>
</g>
<!-- Node8&#45;&gt;Node17 -->
<g id="edge19" class="edge">
<title>Node8&#45;&gt;Node17</title>
<path fill="none" stroke="#63b8ff" d="M2471.78,-191.62C2476.03,-184.73 2482.03,-175.01 2487.62,-165.93"/>
<polygon fill="#63b8ff" stroke="#63b8ff" points="2490.6,-167.78 2492.87,-157.43 2484.64,-164.1 2490.6,-167.78"/>
</g>
<!-- Node8&#45;&gt;Node18 -->
<g id="edge20" class="edge">
<title>Node8&#45;&gt;Node18</title>
<path fill="none" stroke="#63b8ff" d="M2422.7,-199.8C2280.81,-195.72 1816.95,-181.23 1434,-156 1396.98,-153.56 1355.49,-149.92 1322.77,-146.83"/>
<polygon fill="#63b8ff" stroke="#63b8ff" points="1323.38,-143.38 1313.09,-145.91 1322.72,-150.34 1323.38,-143.38"/>
</g>
<!-- Node8&#45;&gt;Node19 -->
<g id="edge21" class="edge">
<title>Node8&#45;&gt;Node19</title>
<path fill="none" stroke="#63b8ff" d="M2422.9,-199.61C2298.53,-195.42 1928.35,-181.55 1622,-156 1598.01,-154 1571.64,-151.14 1548.82,-148.45"/>
<polygon fill="#63b8ff" stroke="#63b8ff" points="1549.44,-145 1539.09,-147.28 1548.61,-151.95 1549.44,-145"/>
</g>
<!-- Node20 -->
<g id="node20" class="node">
<title>Node20</title>
<g id="a_node20"><a xlink:title=" ">
<polygon fill="#e0e0e0" stroke="#999999" points="2661.88,-150 2606.12,-150 2606.12,-130 2661.88,-130 2661.88,-150"/>
<text text-anchor="middle" x="2634" y="-136.5" font-family="Helvetica,sans-Serif" font-size="10.00">algorithm</text>
</a>
</g>
</g>
<!-- Node8&#45;&gt;Node20 -->
<g id="edge22" class="edge">
<title>Node8&#45;&gt;Node20</title>
<path fill="none" stroke="#63b8ff" d="M2492.25,-191.62C2520.4,-181.57 2565.32,-165.53 2597.04,-154.2"/>
<polygon fill="#63b8ff" stroke="#63b8ff" points="2597.99,-157.58 2606.23,-150.92 2595.64,-150.98 2597.99,-157.58"/>
</g>
<!-- Node11&#45;&gt;Node4 -->
<g id="edge12" class="edge">
<title>Node11&#45;&gt;Node4</title>
<path fill="none" stroke="#63b8ff" d="M1418.11,-61.56C1409.31,-59.45 1399.86,-57.43 1391,-56 1197.23,-24.77 961.09,-14.65 876.78,-11.9"/>
<polygon fill="#63b8ff" stroke="#63b8ff" points="877.08,-8.41 866.98,-11.59 876.86,-15.4 877.08,-8.41"/>
</g>
<!-- Node12 -->
<g id="node12" class="node">
<title>Node12</title>
<g id="a_node12"><a xlink:title=" ">
<polygon fill="#e0e0e0" stroke="#999999" points="1519,-20 1461,-20 1461,0 1519,0 1519,-20"/>
<text text-anchor="middle" x="1490" y="-6.5" font-family="Helvetica,sans-Serif" font-size="10.00">exception</text>
</a>
</g>
</g>
<!-- Node11&#45;&gt;Node12 -->
<g id="edge11" class="edge">
<title>Node11&#45;&gt;Node12</title>
<path fill="none" stroke="#63b8ff" d="M1458.78,-61.62C1464.03,-53.12 1471.91,-40.33 1478.45,-29.74"/>
<polygon fill="#63b8ff" stroke="#63b8ff" points="1481.32,-31.75 1483.59,-21.4 1475.36,-28.08 1481.32,-31.75"/>
</g>
<!-- Node13 -->
<g id="node13" class="node">
<title>Node13</title>
<g id="a_node13"><a xlink:title=" ">
<polygon fill="#e0e0e0" stroke="#999999" points="1442.75,-20 1389.25,-20 1389.25,0 1442.75,0 1442.75,-20"/>
<text text-anchor="middle" x="1416" y="-6.5" font-family="Helvetica,sans-Serif" font-size="10.00">iostream</text>
</a>
</g>
</g>
<!-- Node11&#45;&gt;Node13 -->
<g id="edge13" class="edge">
<title>Node11&#45;&gt;Node13</title>
<path fill="none" stroke="#63b8ff" d="M1447.22,-61.62C1441.97,-53.12 1434.09,-40.33 1427.55,-29.74"/>
<polygon fill="#63b8ff" stroke="#63b8ff" points="1430.64,-28.08 1422.41,-21.4 1424.68,-31.75 1430.64,-28.08"/>
</g>
<!-- Node14 -->
<g id="node14" class="node">
<title>Node14</title>
<g id="a_node14"><a xlink:title=" ">
<polygon fill="#e0e0e0" stroke="#999999" points="448.62,-20 397.38,-20 397.38,0 448.62,0 448.62,-20"/>
<text text-anchor="middle" x="423" y="-6.5" font-family="Helvetica,sans-Serif" font-size="10.00">memory</text>
</a>
</g>
</g>
<!-- Node11&#45;&gt;Node14 -->
<g id="edge14" class="edge">
<title>Node11&#45;&gt;Node14</title>
<path fill="none" stroke="#63b8ff" d="M1404.7,-68.19C1227.75,-57.88 617.05,-22.3 460.04,-13.16"/>
<polygon fill="#63b8ff" stroke="#63b8ff" points="460.4,-9.67 450.22,-12.59 460,-16.66 460.4,-9.67"/>
</g>
<!-- Node11&#45;&gt;Node15 -->
<g id="edge15" class="edge">
<title>Node11&#45;&gt;Node15</title>
<path fill="none" stroke="#63b8ff" d="M1487.55,-61.54C1496.44,-59.42 1506.02,-57.38 1515,-56 1741.3,-21.19 2015.25,-13.31 2126.45,-11.52"/>
<polygon fill="#63b8ff" stroke="#63b8ff" points="2126.49,-15.02 2136.43,-11.37 2126.38,-8.02 2126.49,-15.02"/>
</g>
<!-- Node21&#45;&gt;Node3 -->
<g id="edge35" class="edge">
<title>Node21&#45;&gt;Node3</title>
<path fill="none" stroke="#63b8ff" d="M1592.39,-199.11C1475.71,-193.47 1123.16,-175.92 831,-156 776.61,-152.29 713.4,-147.02 676.16,-143.81"/>
<polygon fill="#63b8ff" stroke="#63b8ff" points="676.79,-140.36 666.53,-142.98 676.19,-147.33 676.79,-140.36"/>
</g>
<!-- Node21&#45;&gt;Node4 -->
<g id="edge36" class="edge">
<title>Node21&#45;&gt;Node4</title>
<path fill="none" stroke="#63b8ff" d="M1620.44,-191.56C1609.57,-182.6 1592.94,-168.65 1579,-156 1563.87,-142.27 1563.9,-133.84 1546,-124 1485.92,-90.96 1458.1,-117.06 1396,-88 1374.42,-77.9 1375.26,-64.48 1353,-56 1265.23,-22.55 973.99,-13.64 876.85,-11.56"/>
<polygon fill="#63b8ff" stroke="#63b8ff" points="877.06,-8.07 866.99,-11.37 876.92,-15.07 877.06,-8.07"/>
</g>
<!-- Node21&#45;&gt;Node11 -->
<g id="edge34" class="edge">
<title>Node21&#45;&gt;Node11</title>
<path fill="none" stroke="#63b8ff" d="M1627.8,-191.63C1620.22,-175.67 1602.79,-143.1 1579,-124 1556.89,-106.26 1527.8,-93.94 1503.13,-85.86"/>
<polygon fill="#63b8ff" stroke="#63b8ff" points="1504.19,-82.52 1493.6,-82.89 1502.11,-89.21 1504.19,-82.52"/>
</g>
<!-- Node21&#45;&gt;Node16 -->
<g id="edge28" class="edge">
<title>Node21&#45;&gt;Node16</title>
<path fill="none" stroke="#63b8ff" d="M1664.5,-191.62C1700.04,-181.37 1757.16,-164.9 1796.53,-153.54"/>
<polygon fill="#63b8ff" stroke="#63b8ff" points="1797.29,-156.96 1805.93,-150.83 1795.35,-150.24 1797.29,-156.96"/>
</g>
<!-- Node21&#45;&gt;Node17 -->
<g id="edge29" class="edge">
<title>Node21&#45;&gt;Node17</title>
<path fill="none" stroke="#63b8ff" d="M1671.38,-199.88C1809.52,-195.78 2272.51,-180.66 2443.91,-156.03"/>
<polygon fill="#63b8ff" stroke="#63b8ff" points="2444.39,-159.49 2453.76,-154.54 2443.35,-152.57 2444.39,-159.49"/>
</g>
<!-- Node21&#45;&gt;Node18 -->
<g id="edge31" class="edge">
<title>Node21&#45;&gt;Node18</title>
<path fill="none" stroke="#63b8ff" d="M1592.62,-194.58C1527.89,-184.03 1398.67,-162.96 1322.98,-150.62"/>
<polygon fill="#63b8ff" stroke="#63b8ff" points="1323.69,-147.19 1313.26,-149.03 1322.57,-154.1 1323.69,-147.19"/>
</g>
<!-- Node21&#45;&gt;Node19 -->
<g id="edge33" class="edge">
<title>Node21&#45;&gt;Node19</title>
<path fill="none" stroke="#63b8ff" d="M1609.81,-191.62C1590.45,-183.44 1561.69,-171.29 1537.21,-160.95"/>
<polygon fill="#63b8ff" stroke="#63b8ff" points="1538.63,-157.75 1528.06,-157.08 1535.9,-164.2 1538.63,-157.75"/>
</g>
<!-- Node22 -->
<g id="node22" class="node">
<title>Node22</title>
<g id="a_node22"><a xlink:title=" ">
<polygon fill="#e0e0e0" stroke="#999999" points="1758.88,-150 1631.12,-150 1631.12,-130 1758.88,-130 1758.88,-150"/>
<text text-anchor="middle" x="1695" y="-136.5" font-family="Helvetica,sans-Serif" font-size="10.00">boost/dynamic_bitset.hpp</text>
</a>
</g>
</g>
<!-- Node21&#45;&gt;Node22 -->
<g id="edge24" class="edge">
<title>Node21&#45;&gt;Node22</title>
<path fill="none" stroke="#63b8ff" d="M1641.84,-191.62C1651.33,-182.59 1665.9,-168.72 1677.38,-157.78"/>
<polygon fill="#63b8ff" stroke="#63b8ff" points="1679.51,-160.59 1684.34,-151.16 1674.68,-155.52 1679.51,-160.59"/>
</g>
<!-- Node23 -->
<g id="node23" class="node">
<title>Node23</title>
<g id="a_node23"><a xlink:title=" ">
<polygon fill="#e0e0e0" stroke="#999999" points="2050.25,-150 1921.75,-150 1921.75,-130 2050.25,-130 2050.25,-150"/>
<text text-anchor="middle" x="1986" y="-136.5" font-family="Helvetica,sans-Serif" font-size="10.00">boost/unordered_map.hpp</text>
</a>
</g>
</g>
<!-- Node21&#45;&gt;Node23 -->
<g id="edge25" class="edge">
<title>Node21&#45;&gt;Node23</title>
<path fill="none" stroke="#63b8ff" d="M1671.5,-195.17C1725.8,-187.04 1826.5,-171.53 1912,-156 1917.66,-154.97 1923.55,-153.86 1929.43,-152.71"/>
<polygon fill="#63b8ff" stroke="#63b8ff" points="1930.04,-156.16 1939.17,-150.79 1928.69,-149.29 1930.04,-156.16"/>
</g>
<!-- Node24 -->
<g id="node24" class="node">
<title>Node24</title>
<g id="a_node24"><a xlink:title=" ">
<polygon fill="#e0e0e0" stroke="#999999" points="2197.25,-150 2068.75,-150 2068.75,-130 2197.25,-130 2197.25,-150"/>
<text text-anchor="middle" x="2133" y="-136.5" font-family="Helvetica,sans-Serif" font-size="10.00">boost/algorithm/string.hpp</text>
</a>
</g>
</g>
<!-- Node21&#45;&gt;Node24 -->
<g id="edge26" class="edge">
<title>Node21&#45;&gt;Node24</title>
<path fill="none" stroke="#63b8ff" d="M1671.6,-198.09C1747.2,-192.26 1917.17,-177.8 2059,-156 2065.39,-155.02 2072.07,-153.86 2078.68,-152.62"/>
<polygon fill="#63b8ff" stroke="#63b8ff" points="2079.05,-156.12 2088.2,-150.78 2077.72,-149.24 2079.05,-156.12"/>
</g>
<!-- Node25 -->
<g id="node25" class="node">
<title>Node25</title>
<g id="a_node25"><a xlink:title=" ">
<polygon fill="#e0e0e0" stroke="#999999" points="2324.88,-156 2215.12,-156 2215.12,-124 2324.88,-124 2324.88,-156"/>
<text text-anchor="start" x="2223.12" y="-142.5" font-family="Helvetica,sans-Serif" font-size="10.00">boost/algorithm/string</text>
<text text-anchor="middle" x="2270" y="-130.5" font-family="Helvetica,sans-Serif" font-size="10.00">/join.hpp</text>
</a>
</g>
</g>
<!-- Node21&#45;&gt;Node25 -->
<g id="edge27" class="edge">
<title>Node21&#45;&gt;Node25</title>
<path fill="none" stroke="#63b8ff" d="M1671.56,-199.97C1763.35,-197.13 1998.04,-187.34 2203.63,-156.2"/>
<polygon fill="#63b8ff" stroke="#63b8ff" points="2204.1,-159.67 2213.45,-154.69 2203.03,-152.75 2204.1,-159.67"/>
</g>
<!-- Node26 -->
<g id="node26" class="node">
<title>Node26</title>
<g id="a_node26"><a xlink:title=" ">
<polygon fill="#e0e0e0" stroke="#999999" points="2437.38,-156 2342.62,-156 2342.62,-124 2437.38,-124 2437.38,-156"/>
<text text-anchor="start" x="2350.62" y="-142.5" font-family="Helvetica,sans-Serif" font-size="10.00">boost/serialization</text>
<text text-anchor="middle" x="2390" y="-130.5" font-family="Helvetica,sans-Serif" font-size="10.00">/split_free.hpp</text>
</a>
</g>
</g>
<!-- Node21&#45;&gt;Node26 -->
<g id="edge30" class="edge">
<title>Node21&#45;&gt;Node26</title>
<path fill="none" stroke="#63b8ff" d="M1671.62,-199.49C1796.93,-194.57 2184.53,-178.08 2331.21,-156.2"/>
<polygon fill="#63b8ff" stroke="#63b8ff" points="2331.34,-159.72 2340.68,-154.71 2330.26,-152.8 2331.34,-159.72"/>
</g>
<!-- Node21&#45;&gt;Node27 -->
<g id="edge32" class="edge">
<title>Node21&#45;&gt;Node27</title>
<path fill="none" stroke="#63b8ff" d="M1592.56,-199.12C1440.57,-191.81 899.52,-165.27 864,-156 813.5,-142.83 760.14,-114.26 726.72,-94.34"/>
<polygon fill="#63b8ff" stroke="#63b8ff" points="728.68,-91.43 718.31,-89.24 725.05,-97.42 728.68,-91.43"/>
</g>
<!-- Node29&#45;&gt;Node3 -->
<g id="edge57" class="edge">
<title>Node29&#45;&gt;Node3</title>
<path fill="none" stroke="#63b8ff" d="M905.59,-247.57C881.63,-238.62 844.76,-224.69 813,-212 805.51,-209.01 686.43,-159.14 679,-156 677.87,-155.52 676.73,-155.04 675.57,-154.55"/>
<polygon fill="#63b8ff" stroke="#63b8ff" points="677.05,-151.37 666.48,-150.67 674.3,-157.81 677.05,-151.37"/>
</g>
<!-- Node29&#45;&gt;Node14 -->
<g id="edge56" class="edge">
<title>Node29&#45;&gt;Node14</title>
<path fill="none" stroke="#63b8ff" d="M876.44,-253.67C713.21,-243.17 237.22,-208.26 193,-156 171.74,-130.88 208.12,-64.62 218,-56 242.65,-34.5 333.53,-21.03 385.64,-14.89"/>
<polygon fill="#63b8ff" stroke="#63b8ff" points="386.02,-18.37 395.56,-13.76 385.22,-11.42 386.02,-18.37"/>
</g>
<!-- Node29&#45;&gt;Node17 -->
<g id="edge44" class="edge">
<title>Node29&#45;&gt;Node17</title>
<path fill="none" stroke="#63b8ff" d="M985.58,-254.81C1218.78,-245.22 2133.37,-205.31 2444.01,-156.08"/>
<polygon fill="#63b8ff" stroke="#63b8ff" points="2444.44,-159.55 2453.75,-154.49 2443.32,-152.65 2444.44,-159.55"/>
</g>
<!-- Node29&#45;&gt;Node18 -->
<g id="edge45" class="edge">
<title>Node29&#45;&gt;Node18</title>
<path fill="none" stroke="#63b8ff" d="M942.73,-247.71C961.24,-233.51 998.85,-206.54 1035,-192 1104.2,-164.16 1128.78,-173.03 1205.04,-156.32"/>
<polygon fill="#63b8ff" stroke="#63b8ff" points="1205.7,-159.75 1214.67,-154.12 1204.15,-152.93 1205.7,-159.75"/>
</g>
<!-- Node29&#45;&gt;Node19 -->
<g id="edge46" class="edge">
<title>Node29&#45;&gt;Node19</title>
<path fill="none" stroke="#63b8ff" d="M985.3,-257.42C1098.75,-257.45 1356.74,-252.86 1433,-212 1452.09,-201.77 1467.07,-182.16 1476.87,-166.13"/>
<polygon fill="#63b8ff" stroke="#63b8ff" points="1479.85,-167.98 1481.8,-157.57 1473.78,-164.49 1479.85,-167.98"/>
</g>
<!-- Node29&#45;&gt;Node21 -->
<g id="edge43" class="edge">
<title>Node29&#45;&gt;Node21</title>
<path fill="none" stroke="#63b8ff" d="M985.42,-252.81C1117.38,-242.64 1452.91,-216.8 1581.13,-206.92"/>
<polygon fill="#63b8ff" stroke="#63b8ff" points="1581.31,-210.42 1591.01,-206.16 1580.77,-203.44 1581.31,-210.42"/>
</g>
<!-- Node29&#45;&gt;Node27 -->
<g id="edge58" class="edge">
<title>Node29&#45;&gt;Node27</title>
<path fill="none" stroke="#63b8ff" d="M913.68,-247.53C889.58,-234.49 844.45,-210.5 805,-192 767.85,-174.58 747.73,-186.23 720,-156 705.78,-140.5 699.05,-117.41 695.86,-99.52"/>
<polygon fill="#63b8ff" stroke="#63b8ff" points="699.36,-99.25 694.42,-89.88 692.43,-100.28 699.36,-99.25"/>
</g>
<!-- Node29&#45;&gt;Node30 -->
<g id="edge47" class="edge">
<title>Node29&#45;&gt;Node30</title>
<path fill="none" stroke="#63b8ff" d="M876.7,-248.74C808.95,-238.43 693.94,-220.94 627.52,-210.84"/>
<polygon fill="#63b8ff" stroke="#63b8ff" points="628.4,-207.43 617.99,-209.39 627.35,-214.35 628.4,-207.43"/>
</g>
<!-- Node34 -->
<g id="node34" class="node">
<title>Node34</title>
<g id="a_node34"><a xlink:href="FMTexceptionhandler_8hpp.html" target="_top" xlink:title=" ">
<polygon fill="white" stroke="#666666" points="982.88,-212 855.12,-212 855.12,-192 982.88,-192 982.88,-212"/>
<text text-anchor="middle" x="919" y="-198.5" font-family="Helvetica,sans-Serif" font-size="10.00">FMTexceptionhandler.hpp</text>
</a>
</g>
</g>
<!-- Node29&#45;&gt;Node34 -->
<g id="edge59" class="edge">
<title>Node29&#45;&gt;Node34</title>
<path fill="none" stroke="#63b8ff" d="M928.91,-247.59C927.43,-240.93 925.39,-231.75 923.54,-223.44"/>
<polygon fill="#63b8ff" stroke="#63b8ff" points="926.98,-222.78 921.39,-213.78 920.15,-224.3 926.98,-222.78"/>
</g>
<!-- Node30&#45;&gt;Node3 -->
<g id="edge54" class="edge">
<title>Node30&#45;&gt;Node3</title>
<path fill="none" stroke="#63b8ff" d="M586.62,-191.62C596.96,-182.5 612.9,-168.45 625.35,-157.46"/>
<polygon fill="#63b8ff" stroke="#63b8ff" points="627.35,-160.35 632.54,-151.11 622.72,-155.11 627.35,-160.35"/>
</g>
<!-- Node30&#45;&gt;Node11 -->
<g id="edge51" class="edge">
<title>Node30&#45;&gt;Node11</title>
<path fill="none" stroke="#63b8ff" d="M616.7,-199.21C702.81,-194.96 900.61,-182.53 962,-156 982.27,-147.24 979.72,-132.72 1000,-124 1069.29,-94.21 1286.52,-80.51 1392.99,-75.45"/>
<polygon fill="#63b8ff" stroke="#63b8ff" points="1393.14,-78.95 1402.97,-74.99 1392.82,-71.96 1393.14,-78.95"/>
</g>
<!-- Node30&#45;&gt;Node14 -->
<g id="edge52" class="edge">
<title>Node30&#45;&gt;Node14</title>
<path fill="none" stroke="#63b8ff" d="M535.42,-199.01C444.43,-194.12 230.38,-180.16 209,-156 150.02,-89.35 310.85,-38.94 386.32,-19.62"/>
<polygon fill="#63b8ff" stroke="#63b8ff" points="386.91,-23.08 395.76,-17.25 385.21,-16.29 386.91,-23.08"/>
</g>
<!-- Node30&#45;&gt;Node18 -->
<g id="edge49" class="edge">
<title>Node30&#45;&gt;Node18</title>
<path fill="none" stroke="#63b8ff" d="M616.61,-199.09C733.89,-193.44 1072.62,-176 1205.19,-156.01"/>
<polygon fill="#63b8ff" stroke="#63b8ff" points="1205.42,-159.52 1214.75,-154.49 1204.33,-152.6 1205.42,-159.52"/>
</g>
<!-- Node30&#45;&gt;Node27 -->
<g id="edge50" class="edge">
<title>Node30&#45;&gt;Node27</title>
<path fill="none" stroke="#63b8ff" d="M571.02,-191.54C563.6,-176.01 551.96,-144.77 566,-124 581.36,-101.28 608.68,-88.68 634.06,-81.69"/>
<polygon fill="#63b8ff" stroke="#63b8ff" points="634.82,-85.11 643.69,-79.31 633.14,-78.32 634.82,-85.11"/>
</g>
<!-- Node31 -->
<g id="node31" class="node">
<title>Node31</title>
<g id="a_node31"><a xlink:title=" ">
<polygon fill="#e0e0e0" stroke="#999999" points="455.38,-156 360.62,-156 360.62,-124 455.38,-124 455.38,-156"/>
<text text-anchor="start" x="368.62" y="-142.5" font-family="Helvetica,sans-Serif" font-size="10.00">boost/serialization</text>
<text text-anchor="middle" x="408" y="-130.5" font-family="Helvetica,sans-Serif" font-size="10.00">/shared_ptr.hpp</text>
</a>
</g>
</g>
<!-- Node30&#45;&gt;Node31 -->
<g id="edge48" class="edge">
<title>Node30&#45;&gt;Node31</title>
<path fill="none" stroke="#63b8ff" d="M549.75,-191.62C526.33,-183.26 491.29,-170.75 461.91,-160.25"/>
<polygon fill="#63b8ff" stroke="#63b8ff" points="463.39,-157.07 452.8,-157 461.04,-163.66 463.39,-157.07"/>
</g>
<!-- Node32 -->
<g id="node32" class="node">
<title>Node32</title>
<g id="a_node32"><a xlink:title=" ">
<polygon fill="#e0e0e0" stroke="#999999" points="518.62,-150 473.38,-150 473.38,-130 518.62,-130 518.62,-150"/>
<text text-anchor="middle" x="496" y="-136.5" font-family="Helvetica,sans-Serif" font-size="10.00">chrono</text>
</a>
</g>
</g>
<!-- Node30&#45;&gt;Node32 -->
<g id="edge53" class="edge">
<title>Node30&#45;&gt;Node32</title>
<path fill="none" stroke="#63b8ff" d="M563.5,-191.62C551.17,-182.38 532.09,-168.07 517.35,-157.01"/>
<polygon fill="#63b8ff" stroke="#63b8ff" points="519.72,-154.42 509.62,-151.22 515.52,-160.02 519.72,-154.42"/>
</g>
<!-- Node33 -->
<g id="node33" class="node">
<title>Node33</title>
<g id="a_node33"><a xlink:title=" ">
<polygon fill="#e0e0e0" stroke="#999999" points="342.38,-156 217.62,-156 217.62,-124 342.38,-124 342.38,-156"/>
<text text-anchor="start" x="225.62" y="-142.5" font-family="Helvetica,sans-Serif" font-size="10.00">boost/dll/runtime_symbol</text>
<text text-anchor="middle" x="280" y="-130.5" font-family="Helvetica,sans-Serif" font-size="10.00">_info.hpp</text>
</a>
</g>
</g>
<!-- Node30&#45;&gt;Node33 -->
<g id="edge55" class="edge">
<title>Node30&#45;&gt;Node33</title>
<path fill="none" stroke="#63b8ff" d="M535.52,-192.96C492.92,-184.47 423.61,-170.62 353.99,-156.4"/>
<polygon fill="#63b8ff" stroke="#63b8ff" points="354.8,-152.99 344.31,-154.42 353.4,-159.85 354.8,-152.99"/>
</g>
<!-- Node34&#45;&gt;Node6 -->
<g id="edge71" class="edge">
<title>Node34&#45;&gt;Node6</title>
<path fill="none" stroke="#63b8ff" d="M854.92,-199.15C791.87,-195.6 693.74,-185.34 614,-156 613.64,-155.87 613.27,-155.73 612.91,-155.58"/>
<polygon fill="#63b8ff" stroke="#63b8ff" points="614.53,-152.48 604.04,-150.98 611.31,-158.69 614.53,-152.48"/>
</g>
<!-- Node34&#45;&gt;Node14 -->
<g id="edge70" class="edge">
<title>Node34&#45;&gt;Node14</title>
<path fill="none" stroke="#63b8ff" d="M863.91,-191.56C839.73,-185.04 812.47,-174.12 793,-156 757.46,-122.91 787.75,-85.26 749,-56 704.2,-22.18 536.12,-13.76 460.4,-11.68"/>
<polygon fill="#63b8ff" stroke="#63b8ff" points="460.67,-8.19 450.58,-11.44 460.49,-15.18 460.67,-8.19"/>
</g>
<!-- Node34&#45;&gt;Node17 -->
<g id="edge67" class="edge">
<title>Node34&#45;&gt;Node17</title>
<path fill="none" stroke="#63b8ff" d="M983.04,-199.52C1254.45,-193.2 2302.04,-168.27 2444.15,-155.63"/>
<polygon fill="#63b8ff" stroke="#63b8ff" points="2444.21,-159.14 2453.76,-154.57 2443.44,-152.18 2444.21,-159.14"/>
</g>
<!-- Node34&#45;&gt;Node18 -->
<g id="edge68" class="edge">
<title>Node34&#45;&gt;Node18</title>
<path fill="none" stroke="#63b8ff" d="M983.11,-192.9C1039.18,-185.38 1123.01,-173.09 1205.14,-156.26"/>
<polygon fill="#63b8ff" stroke="#63b8ff" points="1205.63,-159.73 1214.71,-154.27 1204.21,-152.88 1205.63,-159.73"/>
</g>
<!-- Node34&#45;&gt;Node27 -->
<g id="edge69" class="edge">
<title>Node34&#45;&gt;Node27</title>
<path fill="none" stroke="#63b8ff" d="M854.9,-193.45C822.77,-187.28 784.51,-176.13 755,-156 733.53,-141.36 716.55,-116.82 705.83,-98.2"/>
<polygon fill="#63b8ff" stroke="#63b8ff" points="709.01,-96.72 701.12,-89.64 702.87,-100.09 709.01,-96.72"/>
</g>
<!-- Node35 -->
<g id="node35" class="node">
<title>Node35</title>
<g id="a_node35"><a xlink:href="FMTlogger_8hpp.html" target="_top" xlink:title=" ">
<polygon fill="white" stroke="#666666" points="953.25,-150 872.75,-150 872.75,-130 953.25,-130 953.25,-150"/>
<text text-anchor="middle" x="913" y="-136.5" font-family="Helvetica,sans-Serif" font-size="10.00">FMTlogger.hpp</text>
</a>
</g>
</g>
<!-- Node34&#45;&gt;Node35 -->
<g id="edge60" class="edge">
<title>Node34&#45;&gt;Node35</title>
<path fill="none" stroke="#63b8ff" d="M918.06,-191.62C917.26,-183.56 916.07,-171.65 915.04,-161.41"/>
<polygon fill="#63b8ff" stroke="#63b8ff" points="918.54,-161.22 914.06,-151.62 911.57,-161.92 918.54,-161.22"/>
</g>
<!-- Node38 -->
<g id="node38" class="node">
<title>Node38</title>
<g id="a_node38"><a xlink:title=" ">
<polygon fill="#e0e0e0" stroke="#999999" points="1198.38,-150 1115.62,-150 1115.62,-130 1198.38,-130 1198.38,-150"/>
<text text-anchor="middle" x="1157" y="-136.5" font-family="Helvetica,sans-Serif" font-size="10.00">unordered_map</text>
</a>
</g>
</g>
<!-- Node34&#45;&gt;Node38 -->
<g id="edge66" class="edge">
<title>Node34&#45;&gt;Node38</title>
<path fill="none" stroke="#63b8ff" d="M960.74,-191.58C998.74,-182.86 1056.32,-169.27 1106,-156 1108.91,-155.22 1111.9,-154.4 1114.92,-153.56"/>
<polygon fill="#63b8ff" stroke="#63b8ff" points="1115.68,-156.98 1124.33,-150.87 1113.75,-150.25 1115.68,-156.98"/>
</g>
<!-- Node39 -->
<g id="node39" class="node">
<title>Node39</title>
<g id="a_node39"><a xlink:title=" ">
<polygon fill="#e0e0e0" stroke="#999999" points="1097.38,-150 1008.62,-150 1008.62,-130 1097.38,-130 1097.38,-150"/>
<text text-anchor="middle" x="1053" y="-136.5" font-family="Helvetica,sans-Serif" font-size="10.00">boost/thread.hpp</text>
</a>
</g>
</g>
<!-- Node34&#45;&gt;Node39 -->
<g id="edge72" class="edge">
<title>Node34&#45;&gt;Node39</title>
<path fill="none" stroke="#63b8ff" d="M939.94,-191.62C961.87,-181.81 996.56,-166.27 1021.73,-155"/>
<polygon fill="#63b8ff" stroke="#63b8ff" points="1023.13,-158.21 1030.83,-150.93 1020.27,-151.82 1023.13,-158.21"/>
</g>
<!-- Node35&#45;&gt;Node4 -->
<g id="edge64" class="edge">
<title>Node35&#45;&gt;Node4</title>
<path fill="none" stroke="#63b8ff" d="M901.07,-129.77C889.83,-120.44 873.36,-104.99 864,-88 854.25,-70.3 849.43,-47.59 847.1,-31.43"/>
<polygon fill="#63b8ff" stroke="#63b8ff" points="850.58,-31.1 845.9,-21.59 843.64,-31.95 850.58,-31.1"/>
</g>
<!-- Node35&#45;&gt;Node11 -->
<g id="edge65" class="edge">
<title>Node35&#45;&gt;Node11</title>
<path fill="none" stroke="#63b8ff" d="M943.63,-129.54C951.21,-127.46 959.35,-125.45 967,-124 1119.06,-95.11 1301.23,-81.49 1393.35,-76.06"/>
<polygon fill="#63b8ff" stroke="#63b8ff" points="1393.38,-79.56 1403.16,-75.49 1392.97,-72.57 1393.38,-79.56"/>
</g>
<!-- Node35&#45;&gt;Node27 -->
<g id="edge61" class="edge">
<title>Node35&#45;&gt;Node27</title>
<path fill="none" stroke="#63b8ff" d="M881.48,-129.54C847.67,-119.4 793.22,-103.07 751.52,-90.55"/>
<polygon fill="#63b8ff" stroke="#63b8ff" points="752.7,-87.26 742.11,-87.73 750.69,-93.96 752.7,-87.26"/>
</g>
<!-- Node36 -->
<g id="node36" class="node">
<title>Node36</title>
<g id="a_node36"><a xlink:title=" ">
<polygon fill="#e0e0e0" stroke="#999999" points="984.62,-88 873.38,-88 873.38,-56 984.62,-56 984.62,-88"/>
<text text-anchor="start" x="881.38" y="-74.5" font-family="Helvetica,sans-Serif" font-size="10.00">boost/thread/recursive</text>
<text text-anchor="middle" x="929" y="-62.5" font-family="Helvetica,sans-Serif" font-size="10.00">_mutex.hpp</text>
</a>
</g>
</g>
<!-- Node35&#45;&gt;Node36 -->
<g id="edge62" class="edge">
<title>Node35&#45;&gt;Node36</title>
<path fill="none" stroke="#63b8ff" d="M915.29,-129.54C917.21,-121.64 920.04,-109.97 922.63,-99.29"/>
<polygon fill="#63b8ff" stroke="#63b8ff" points="925.98,-100.32 924.93,-89.77 919.18,-98.67 925.98,-100.32"/>
</g>
<!-- Node37 -->
<g id="node37" class="node">
<title>Node37</title>
<g id="a_node37"><a xlink:title=" ">
<polygon fill="#e0e0e0" stroke="#999999" points="1051.12,-82 1002.88,-82 1002.88,-62 1051.12,-62 1051.12,-82"/>
<text text-anchor="middle" x="1027" y="-68.5" font-family="Helvetica,sans-Serif" font-size="10.00">fstream</text>
</a>
</g>
</g>
<!-- Node35&#45;&gt;Node37 -->
<g id="edge63" class="edge">
<title>Node35&#45;&gt;Node37</title>
<path fill="none" stroke="#63b8ff" d="M929.33,-129.54C948.04,-118.71 978.95,-100.82 1000.98,-88.06"/>
<polygon fill="#63b8ff" stroke="#63b8ff" points="1002.49,-91.24 1009.39,-83.2 998.98,-85.18 1002.49,-91.24"/>
</g>
<!-- Node40&#45;&gt;Node3 -->
<g id="edge76" class="edge">
<title>Node40&#45;&gt;Node3</title>
<path fill="none" stroke="#63b8ff" d="M1333.75,-197.89C1235.34,-191.05 994.49,-173.88 793,-156 752.76,-152.43 706.48,-147.67 676.31,-144.48"/>
<polygon fill="#63b8ff" stroke="#63b8ff" points="677.02,-141.03 666.71,-143.45 676.28,-147.99 677.02,-141.03"/>
</g>
<!-- Node40&#45;&gt;Node4 -->
<g id="edge75" class="edge">
<title>Node40&#45;&gt;Node4</title>
<path fill="none" stroke="#63b8ff" d="M1333.89,-200.06C1214.84,-197.18 898.95,-186.68 864,-156 828.8,-125.1 834.47,-63.42 840.38,-31.38"/>
<polygon fill="#63b8ff" stroke="#63b8ff" points="843.76,-32.31 842.35,-21.81 836.91,-30.9 843.76,-32.31"/>
</g>
<!-- Node40&#45;&gt;Node11 -->
<g id="edge80" class="edge">
<title>Node40&#45;&gt;Node11</title>
<path fill="none" stroke="#63b8ff" d="M1380.07,-191.86C1382.16,-176.8 1387.78,-146.22 1401,-124 1408.9,-110.72 1421.11,-98.5 1431.71,-89.35"/>
<polygon fill="#63b8ff" stroke="#63b8ff" points="1433.79,-92.17 1439.3,-83.11 1429.35,-86.76 1433.79,-92.17"/>
</g>
<!-- Node40&#45;&gt;Node15 -->
<g id="edge74" class="edge">
<title>Node40&#45;&gt;Node15</title>
<path fill="none" stroke="#63b8ff" d="M1382.78,-191.54C1389.99,-174.84 1407.4,-140.33 1434,-124 1551.18,-52.04 1979.14,-21.97 2126.63,-13.59"/>
<polygon fill="#63b8ff" stroke="#63b8ff" points="2126.69,-17.1 2136.48,-13.05 2126.3,-10.11 2126.69,-17.1"/>
</g>
<!-- Node40&#45;&gt;Node16 -->
<g id="edge77" class="edge">
<title>Node40&#45;&gt;Node16</title>
<path fill="none" stroke="#63b8ff" d="M1424.11,-197.11C1496.78,-190.56 1644.18,-176.02 1768,-156 1774.07,-155.02 1780.4,-153.88 1786.68,-152.67"/>
<polygon fill="#63b8ff" stroke="#63b8ff" points="1787.25,-156.12 1796.37,-150.74 1785.88,-149.26 1787.25,-156.12"/>
</g>
<!-- Node40&#45;&gt;Node17 -->
<g id="edge78" class="edge">
<title>Node40&#45;&gt;Node17</title>
<path fill="none" stroke="#63b8ff" d="M1424.19,-198.99C1465.73,-197.15 1529.01,-194.36 1584,-192 1963.35,-175.75 2064.86,-212.4 2443.96,-156.06"/>
<polygon fill="#63b8ff" stroke="#63b8ff" points="2444.4,-159.53 2453.77,-154.59 2443.36,-152.61 2444.4,-159.53"/>
</g>
<!-- Node40&#45;&gt;Node18 -->
<g id="edge79" class="edge">
<title>Node40&#45;&gt;Node18</title>
<path fill="none" stroke="#63b8ff" d="M1361.03,-191.62C1345.72,-183.63 1323.15,-171.86 1303.63,-161.68"/>
<polygon fill="#63b8ff" stroke="#63b8ff" points="1305.29,-158.6 1294.81,-157.07 1302.05,-164.8 1305.29,-158.6"/>
</g>
</g>
</svg>
