<?xml version="1.0" encoding="UTF-8" standalone="no"?>
<!DOCTYPE svg PUBLIC "-//W3C//DTD SVG 1.1//EN"
 "http://www.w3.org/Graphics/SVG/1.1/DTD/svg11.dtd">
<!-- Generated by graphviz version 10.0.1 (20240210.2158)
 -->
<!-- Title: D:/FMT/Include/FMTdata.hpp Pages: 1 -->
<svg width="690pt" height="140pt"
 viewBox="0.00 0.00 690.38 140.00" xmlns="http://www.w3.org/2000/svg" xmlns:xlink="http://www.w3.org/1999/xlink">
<g id="graph0" class="graph" transform="scale(1 1) rotate(0) translate(4 136)">
<title>D:/FMT/Include/FMTdata.hpp</title>
<!-- Node1 -->
<g id="node1" class="node">
<title>Node1</title>
<g id="a_node1"><a xlink:title=" ">
<polygon fill="#999999" stroke="#666666" points="450.5,-132 308.5,-132 308.5,-112 450.5,-112 450.5,-132"/>
<text text-anchor="middle" x="379.5" y="-118.5" font-family="Helvetica,sans-Serif" font-size="10.00">D:/FMT/Include/FMTdata.hpp</text>
</a>
</g>
</g>
<!-- Node2 -->
<g id="node2" class="node">
<title>Node2</title>
<g id="a_node2"><a xlink:href="FMTageyieldhandler_8hpp.html" target="_top" xlink:title=" ">
<polygon fill="white" stroke="#666666" points="202.88,-76 12.12,-76 12.12,-56 202.88,-56 202.88,-76"/>
<text text-anchor="middle" x="107.5" y="-62.5" font-family="Helvetica,sans-Serif" font-size="10.00">D:/FMT/Include/FMTageyieldhandler.hpp</text>
</a>
</g>
</g>
<!-- Node1&#45;&gt;Node2 -->
<g id="edge1" class="edge">
<title>Node1&#45;&gt;Node2</title>
<path fill="none" stroke="#63b8ff" d="M320.63,-109.31C271.1,-99.48 201.2,-85.6 155.14,-76.46"/>
<polygon fill="#63b8ff" stroke="#63b8ff" points="319.84,-112.72 330.33,-111.24 321.2,-105.86 319.84,-112.72"/>
</g>
<!-- Node5 -->
<g id="node5" class="node">
<title>Node5</title>
<g id="a_node5"><a xlink:href="RexportCore_8hpp.html" target="_top" xlink:title=" ">
<polygon fill="white" stroke="#666666" points="521.38,-20 363.62,-20 363.62,0 521.38,0 521.38,-20"/>
<text text-anchor="middle" x="442.5" y="-6.5" font-family="Helvetica,sans-Serif" font-size="10.00">D:/FMT/Include/RexportCore.hpp</text>
</a>
</g>
</g>
<!-- Node1&#45;&gt;Node5 -->
<g id="edge10" class="edge">
<title>Node1&#45;&gt;Node5</title>
<path fill="none" stroke="#63b8ff" d="M400.15,-103.94C408.43,-96.17 417.42,-86.39 423.5,-76 434.07,-57.94 439.12,-33.57 441.23,-20.39"/>
<polygon fill="#63b8ff" stroke="#63b8ff" points="397.91,-101.25 392.76,-110.51 402.56,-106.49 397.91,-101.25"/>
</g>
<!-- Node6 -->
<g id="node6" class="node">
<title>Node6</title>
<g id="a_node6"><a xlink:href="FMTcomplexyieldhandler_8hpp.html" target="_top" xlink:title=" ">
<polygon fill="white" stroke="#666666" points="682.38,-76 470.62,-76 470.62,-56 682.38,-56 682.38,-76"/>
<text text-anchor="middle" x="576.5" y="-62.5" font-family="Helvetica,sans-Serif" font-size="10.00">D:/FMT/Include/FMTcomplexyieldhandler.hpp</text>
</a>
</g>
</g>
<!-- Node1&#45;&gt;Node6 -->
<g id="edge5" class="edge">
<title>Node1&#45;&gt;Node6</title>
<path fill="none" stroke="#63b8ff" d="M424.88,-108.56C460.52,-98.79 509.4,-85.39 541.92,-76.48"/>
<polygon fill="#63b8ff" stroke="#63b8ff" points="423.99,-105.17 415.27,-111.19 425.84,-111.93 423.99,-105.17"/>
</g>
<!-- Node7 -->
<g id="node7" class="node">
<title>Node7</title>
<g id="a_node7"><a xlink:href="FMTtimeyieldhandler_8hpp.html" target="_top" xlink:title=" ">
<polygon fill="white" stroke="#666666" points="414.38,-76 220.62,-76 220.62,-56 414.38,-56 414.38,-76"/>
<text text-anchor="middle" x="317.5" y="-62.5" font-family="Helvetica,sans-Serif" font-size="10.00">D:/FMT/Include/FMTtimeyieldhandler.hpp</text>
</a>
</g>
</g>
<!-- Node1&#45;&gt;Node7 -->
<g id="edge6" class="edge">
<title>Node1&#45;&gt;Node7</title>
<path fill="none" stroke="#63b8ff" d="M360.13,-104.13C349.58,-94.94 336.94,-83.93 328.18,-76.3"/>
<polygon fill="#63b8ff" stroke="#63b8ff" points="357.72,-106.67 367.56,-110.6 362.32,-101.39 357.72,-106.67"/>
</g>
<!-- Node3 -->
<g id="node3" class="node">
<title>Node3</title>
<g id="a_node3"><a xlink:href="PYexportCore_8hpp.html" target="_top" xlink:title=" ">
<polygon fill="white" stroke="#666666" points="345.75,-20 181.25,-20 181.25,0 345.75,0 345.75,-20"/>
<text text-anchor="middle" x="263.5" y="-6.5" font-family="Helvetica,sans-Serif" font-size="10.00">D:/FMT/Include/PYexportCore.hpp</text>
</a>
</g>
</g>
<!-- Node2&#45;&gt;Node3 -->
<g id="edge2" class="edge">
<title>Node2&#45;&gt;Node3</title>
<path fill="none" stroke="#63b8ff" d="M145.29,-51.92C173.33,-42.21 210.92,-29.2 236.11,-20.48"/>
<polygon fill="#63b8ff" stroke="#63b8ff" points="144.41,-48.52 136.1,-55.1 146.7,-55.14 144.41,-48.52"/>
</g>
<!-- Node4 -->
<g id="node4" class="node">
<title>Node4</title>
<g id="a_node4"><a xlink:href="Rdeclarations_8hpp.html" target="_top" xlink:title=" ">
<polygon fill="white" stroke="#666666" points="163,-20 0,-20 0,0 163,0 163,-20"/>
<text text-anchor="middle" x="81.5" y="-6.5" font-family="Helvetica,sans-Serif" font-size="10.00">D:/FMT/Include/Rdeclarations.hpp</text>
</a>
</g>
</g>
<!-- Node2&#45;&gt;Node4 -->
<g id="edge3" class="edge">
<title>Node2&#45;&gt;Node4</title>
<path fill="none" stroke="#63b8ff" d="M98.01,-45.29C93.9,-36.75 89.28,-27.16 85.98,-20.3"/>
<polygon fill="#63b8ff" stroke="#63b8ff" points="94.82,-46.74 102.31,-54.23 101.13,-43.7 94.82,-46.74"/>
</g>
<!-- Node2&#45;&gt;Node5 -->
<g id="edge4" class="edge">
<title>Node2&#45;&gt;Node5</title>
<path fill="none" stroke="#63b8ff" d="M177.33,-53.74C238.46,-43.89 326.27,-29.74 383.83,-20.46"/>
<polygon fill="#63b8ff" stroke="#63b8ff" points="177.05,-50.24 167.73,-55.29 178.16,-57.16 177.05,-50.24"/>
</g>
<!-- Node7&#45;&gt;Node3 -->
<g id="edge7" class="edge">
<title>Node7&#45;&gt;Node3</title>
<path fill="none" stroke="#63b8ff" d="M300.07,-47.57C291,-38.5 280.28,-27.78 272.8,-20.3"/>
<polygon fill="#63b8ff" stroke="#63b8ff" points="297.48,-49.93 307.02,-54.52 302.43,-44.98 297.48,-49.93"/>
</g>
<!-- Node7&#45;&gt;Node4 -->
<g id="edge8" class="edge">
<title>Node7&#45;&gt;Node4</title>
<path fill="none" stroke="#63b8ff" d="M265.06,-53C222.18,-43.19 162.37,-29.51 122.83,-20.46"/>
<polygon fill="#63b8ff" stroke="#63b8ff" points="264.12,-56.38 274.65,-55.19 265.68,-49.55 264.12,-56.38"/>
</g>
<!-- Node7&#45;&gt;Node5 -->
<g id="edge9" class="edge">
<title>Node7&#45;&gt;Node5</title>
<path fill="none" stroke="#63b8ff" d="M349.58,-51.14C371.84,-41.52 400.91,-28.97 420.56,-20.48"/>
<polygon fill="#63b8ff" stroke="#63b8ff" points="348.45,-47.81 340.66,-54.99 351.23,-54.24 348.45,-47.81"/>
</g>
</g>
</svg>
