<?xml version="1.0" encoding="UTF-8" standalone="no"?>
<!DOCTYPE svg PUBLIC "-//W3C//DTD SVG 1.1//EN"
 "http://www.w3.org/Graphics/SVG/1.1/DTD/svg11.dtd">
<!-- Generated by graphviz version 10.0.1 (20240210.2158)
 -->
<!-- Title: D:/FMT/Include/FMTdebugexceptionhandler.hpp Pages: 1 -->
<svg width="406pt" height="84pt"
 viewBox="0.00 0.00 405.62 84.00" xmlns="http://www.w3.org/2000/svg" xmlns:xlink="http://www.w3.org/1999/xlink">
<g id="graph0" class="graph" transform="scale(1 1) rotate(0) translate(4 80)">
<title>D:/FMT/Include/FMTdebugexceptionhandler.hpp</title>
<!-- Node1 -->
<g id="node1" class="node">
<title>Node1</title>
<g id="a_node1"><a xlink:title=" ">
<polygon fill="#999999" stroke="#666666" points="312,-76 89,-76 89,-56 312,-56 312,-76"/>
<text text-anchor="middle" x="200.5" y="-62.5" font-family="Helvetica,sans-Serif" font-size="10.00">D:/FMT/Include/FMTdebugexceptionhandler.hpp</text>
</a>
</g>
</g>
<!-- Node2 -->
<g id="node2" class="node">
<title>Node2</title>
<g id="a_node2"><a xlink:href="PYexportExceptions_8hpp.html" target="_top" xlink:title=" ">
<polygon fill="white" stroke="#666666" points="193,-20 0,-20 0,0 193,0 193,-20"/>
<text text-anchor="middle" x="96.5" y="-6.5" font-family="Helvetica,sans-Serif" font-size="10.00">D:/FMT/Include/PYexportExceptions.hpp</text>
</a>
</g>
</g>
<!-- Node1&#45;&gt;Node2 -->
<g id="edge1" class="edge">
<title>Node1&#45;&gt;Node2</title>
<path fill="none" stroke="#63b8ff" d="M172.28,-50.35C153.98,-40.84 130.66,-28.74 114.76,-20.48"/>
<polygon fill="#63b8ff" stroke="#63b8ff" points="170.55,-53.39 181.04,-54.9 173.78,-47.18 170.55,-53.39"/>
</g>
<!-- Node3 -->
<g id="node3" class="node">
<title>Node3</title>
<g id="a_node3"><a xlink:href="RexportExceptions_8hpp.html" target="_top" xlink:title=" ">
<polygon fill="white" stroke="#666666" points="397.62,-20 211.38,-20 211.38,0 397.62,0 397.62,-20"/>
<text text-anchor="middle" x="304.5" y="-6.5" font-family="Helvetica,sans-Serif" font-size="10.00">D:/FMT/Include/RexportExceptions.hpp</text>
</a>
</g>
</g>
<!-- Node1&#45;&gt;Node3 -->
<g id="edge2" class="edge">
<title>Node1&#45;&gt;Node3</title>
<path fill="none" stroke="#63b8ff" d="M228.72,-50.35C247.02,-40.84 270.34,-28.74 286.24,-20.48"/>
<polygon fill="#63b8ff" stroke="#63b8ff" points="227.22,-47.18 219.96,-54.9 230.45,-53.39 227.22,-47.18"/>
</g>
</g>
</svg>
