<?xml version="1.0" encoding="UTF-8" standalone="no"?>
<!DOCTYPE svg PUBLIC "-//W3C//DTD SVG 1.1//EN"
 "http://www.w3.org/Graphics/SVG/1.1/DTD/svg11.dtd">
<!-- Generated by graphviz version 10.0.1 (20240210.2158)
 -->
<!-- Title: D:/FMT/Include/FMTerror.hpp Pages: 1 -->
<svg width="575pt" height="152pt"
 viewBox="0.00 0.00 575.38 152.00" xmlns="http://www.w3.org/2000/svg" xmlns:xlink="http://www.w3.org/1999/xlink">
<g id="graph0" class="graph" transform="scale(1 1) rotate(0) translate(4 148)">
<title>D:/FMT/Include/FMTerror.hpp</title>
<!-- Node1 -->
<g id="node1" class="node">
<title>Node1</title>
<g id="a_node1"><a xlink:title=" ">
<polygon fill="#999999" stroke="#666666" points="329.38,-144 186.62,-144 186.62,-124 329.38,-124 329.38,-144"/>
<text text-anchor="middle" x="258" y="-130.5" font-family="Helvetica,sans-Serif" font-size="10.00">D:/FMT/Include/FMTerror.hpp</text>
</a>
</g>
</g>
<!-- Node2 -->
<g id="node2" class="node">
<title>Node2</title>
<g id="a_node2"><a xlink:href="FMTexception_8hpp.html" target="_top" xlink:title=" ">
<polygon fill="white" stroke="#666666" points="192.12,-82 95.88,-82 95.88,-62 192.12,-62 192.12,-82"/>
<text text-anchor="middle" x="144" y="-68.5" font-family="Helvetica,sans-Serif" font-size="10.00">FMTexception.hpp</text>
</a>
</g>
</g>
<!-- Node1&#45;&gt;Node2 -->
<g id="edge1" class="edge">
<title>Node1&#45;&gt;Node2</title>
<path fill="none" stroke="#63b8ff" d="M240.19,-123.62C221.87,-113.98 193.08,-98.83 171.76,-87.61"/>
<polygon fill="#63b8ff" stroke="#63b8ff" points="173.51,-84.57 163.03,-83.01 170.25,-90.77 173.51,-84.57"/>
</g>
<!-- Node4 -->
<g id="node4" class="node">
<title>Node4</title>
<g id="a_node4"><a xlink:title=" ">
<polygon fill="#e0e0e0" stroke="#999999" points="40,-20 0,-20 0,0 40,0 40,-20"/>
<text text-anchor="middle" x="20" y="-6.5" font-family="Helvetica,sans-Serif" font-size="10.00">string</text>
</a>
</g>
</g>
<!-- Node1&#45;&gt;Node4 -->
<g id="edge7" class="edge">
<title>Node1&#45;&gt;Node4</title>
<path fill="none" stroke="#63b8ff" d="M186.39,-123.96C154.21,-117.51 116.85,-106.55 87,-88 63.22,-73.22 43.27,-47.36 31.49,-29.72"/>
<polygon fill="#63b8ff" stroke="#63b8ff" points="34.69,-28.23 26.34,-21.7 28.8,-32.01 34.69,-28.23"/>
</g>
<!-- Node8 -->
<g id="node8" class="node">
<title>Node8</title>
<g id="a_node8"><a xlink:title=" ">
<polygon fill="#e0e0e0" stroke="#999999" points="305.38,-88 210.62,-88 210.62,-56 305.38,-56 305.38,-88"/>
<text text-anchor="start" x="218.62" y="-74.5" font-family="Helvetica,sans-Serif" font-size="10.00">boost/serialization</text>
<text text-anchor="middle" x="258" y="-62.5" font-family="Helvetica,sans-Serif" font-size="10.00">/serialization.hpp</text>
</a>
</g>
</g>
<!-- Node1&#45;&gt;Node8 -->
<g id="edge8" class="edge">
<title>Node1&#45;&gt;Node8</title>
<path fill="none" stroke="#63b8ff" d="M258,-123.62C258,-117.1 258,-108.05 258,-99.4"/>
<polygon fill="#63b8ff" stroke="#63b8ff" points="261.5,-99.65 258,-89.65 254.5,-99.65 261.5,-99.65"/>
</g>
<!-- Node9 -->
<g id="node9" class="node">
<title>Node9</title>
<g id="a_node9"><a xlink:title=" ">
<polygon fill="#e0e0e0" stroke="#999999" points="454.38,-82 323.62,-82 323.62,-62 454.38,-62 454.38,-82"/>
<text text-anchor="middle" x="389" y="-68.5" font-family="Helvetica,sans-Serif" font-size="10.00">boost/graph/exception.hpp</text>
</a>
</g>
</g>
<!-- Node1&#45;&gt;Node9 -->
<g id="edge9" class="edge">
<title>Node1&#45;&gt;Node9</title>
<path fill="none" stroke="#63b8ff" d="M278.47,-123.62C299.91,-113.81 333.82,-98.27 358.43,-87"/>
<polygon fill="#63b8ff" stroke="#63b8ff" points="359.66,-90.29 367.3,-82.94 356.75,-83.92 359.66,-90.29"/>
</g>
<!-- Node10 -->
<g id="node10" class="node">
<title>Node10</title>
<g id="a_node10"><a xlink:title=" ">
<polygon fill="#e0e0e0" stroke="#999999" points="567.38,-88 472.62,-88 472.62,-56 567.38,-56 567.38,-88"/>
<text text-anchor="start" x="480.62" y="-74.5" font-family="Helvetica,sans-Serif" font-size="10.00">boost/serialization</text>
<text text-anchor="middle" x="520" y="-62.5" font-family="Helvetica,sans-Serif" font-size="10.00">/nvp.hpp</text>
</a>
</g>
</g>
<!-- Node1&#45;&gt;Node10 -->
<g id="edge10" class="edge">
<title>Node1&#45;&gt;Node10</title>
<path fill="none" stroke="#63b8ff" d="M303.72,-123.53C342.91,-115.28 401.13,-102.74 460.96,-88.44"/>
<polygon fill="#63b8ff" stroke="#63b8ff" points="461.77,-91.84 470.67,-86.1 460.13,-85.04 461.77,-91.84"/>
</g>
<!-- Node3 -->
<g id="node3" class="node">
<title>Node3</title>
<g id="a_node3"><a xlink:title=" ">
<polygon fill="#e0e0e0" stroke="#999999" points="116,-20 58,-20 58,0 116,0 116,-20"/>
<text text-anchor="middle" x="87" y="-6.5" font-family="Helvetica,sans-Serif" font-size="10.00">exception</text>
</a>
</g>
</g>
<!-- Node2&#45;&gt;Node3 -->
<g id="edge2" class="edge">
<title>Node2&#45;&gt;Node3</title>
<path fill="none" stroke="#63b8ff" d="M135.09,-61.62C126.68,-52.77 113.85,-39.26 103.55,-28.43"/>
<polygon fill="#63b8ff" stroke="#63b8ff" points="106.12,-26.05 96.7,-21.21 101.05,-30.87 106.12,-26.05"/>
</g>
<!-- Node2&#45;&gt;Node4 -->
<g id="edge3" class="edge">
<title>Node2&#45;&gt;Node4</title>
<path fill="none" stroke="#63b8ff" d="M124.62,-61.62C104.51,-51.89 72.81,-36.55 49.57,-25.31"/>
<polygon fill="#63b8ff" stroke="#63b8ff" points="51.13,-22.17 40.6,-20.97 48.08,-28.47 51.13,-22.17"/>
</g>
<!-- Node5 -->
<g id="node5" class="node">
<title>Node5</title>
<g id="a_node5"><a xlink:title=" ">
<polygon fill="#e0e0e0" stroke="#999999" points="187.75,-20 134.25,-20 134.25,0 187.75,0 187.75,-20"/>
<text text-anchor="middle" x="161" y="-6.5" font-family="Helvetica,sans-Serif" font-size="10.00">iostream</text>
</a>
</g>
</g>
<!-- Node2&#45;&gt;Node5 -->
<g id="edge4" class="edge">
<title>Node2&#45;&gt;Node5</title>
<path fill="none" stroke="#63b8ff" d="M146.66,-61.62C148.97,-53.48 152.39,-41.39 155.31,-31.07"/>
<polygon fill="#63b8ff" stroke="#63b8ff" points="158.65,-32.14 158.01,-21.57 151.91,-30.24 158.65,-32.14"/>
</g>
<!-- Node6 -->
<g id="node6" class="node">
<title>Node6</title>
<g id="a_node6"><a xlink:title=" ">
<polygon fill="#e0e0e0" stroke="#999999" points="256.62,-20 205.38,-20 205.38,0 256.62,0 256.62,-20"/>
<text text-anchor="middle" x="231" y="-6.5" font-family="Helvetica,sans-Serif" font-size="10.00">memory</text>
</a>
</g>
</g>
<!-- Node2&#45;&gt;Node6 -->
<g id="edge5" class="edge">
<title>Node2&#45;&gt;Node6</title>
<path fill="none" stroke="#63b8ff" d="M157.59,-61.62C171.13,-52.29 192.15,-37.79 208.24,-26.7"/>
<polygon fill="#63b8ff" stroke="#63b8ff" points="210.01,-29.73 216.26,-21.17 206.04,-23.96 210.01,-29.73"/>
</g>
<!-- Node7 -->
<g id="node7" class="node">
<title>Node7</title>
<g id="a_node7"><a xlink:href="FMTutility_8hpp.html" target="_top" xlink:title=" ">
<polygon fill="white" stroke="#666666" points="351.75,-20 274.25,-20 274.25,0 351.75,0 351.75,-20"/>
<text text-anchor="middle" x="313" y="-6.5" font-family="Helvetica,sans-Serif" font-size="10.00">FMTutility.hpp</text>
</a>
</g>
</g>
<!-- Node2&#45;&gt;Node7 -->
<g id="edge6" class="edge">
<title>Node2&#45;&gt;Node7</title>
<path fill="none" stroke="#63b8ff" d="M170.41,-61.62C198.72,-51.57 243.91,-35.53 275.82,-24.2"/>
<polygon fill="#63b8ff" stroke="#63b8ff" points="276.82,-27.56 285.07,-20.91 274.48,-20.96 276.82,-27.56"/>
</g>
</g>
</svg>
