<?xml version="1.0" encoding="UTF-8" standalone="no"?>
<!DOCTYPE svg PUBLIC "-//W3C//DTD SVG 1.1//EN"
 "http://www.w3.org/Graphics/SVG/1.1/DTD/svg11.dtd">
<!-- Generated by graphviz version 8.1.0 (20230707.0739)
 -->
<!-- Title: C:/Temp/out/FMT/Include/FMTevent.hpp Pages: 1 -->
<!--zoomable 448 -->

<svg id="main" version="1.1" xmlns="http://www.w3.org/2000/svg" xmlns:xlink="http://www.w3.org/1999/xlink" xml:space="preserve" onload="init(evt)">
<style type="text/css"><![CDATA[
.node, .edge {opacity: 0.7;}
.node.selected, .edge.selected {opacity: 1;}
.edge:hover path { stroke: red; }
.edge:hover polygon { stroke: red; fill: red; }
]]></style>

<defs>
  <circle id="rim" cx="0" cy="0" r="7"/>
  <circle id="rim2" cx="0" cy="0" r="3.5"/>
  <g id="zoomPlus">
    <use xlink:href="#rim" fill="#404040"><set attributeName="fill" to="#808080" begin="zoomplus.mouseover" end="zoomplus.mouseout"/></use>
    <path d="M-4,0h8M0,-4v8" fill="none" stroke="white" stroke-width="1.5" pointer-events="none"/>
  </g>
  <g id="zoomMin">
    <use xlink:href="#rim" fill="#404040"><set attributeName="fill" to="#808080" begin="zoomminus.mouseover" end="zoomminus.mouseout"/></use>
    <path d="M-4,0h8" fill="none" stroke="white" stroke-width="1.5" pointer-events="none"/>
  </g>
  <g id="arrowUp" transform="translate(30 24)">
    <use xlink:href="#rim"/>
    <path pointer-events="none" fill="none" stroke="white" stroke-width="1.5" d="M0,-3.0v7 M-2.5,-0.5L0,-3.0L2.5,-0.5"/>
  </g>
  <g id="arrowRight" transform="rotate(90) translate(36 -43)">
    <use xlink:href="#rim"/>
    <path pointer-events="none" fill="none" stroke="white" stroke-width="1.5" d="M0,-3.0v7 M-2.5,-0.5L0,-3.0L2.5,-0.5"/>
  </g>
  <g id="arrowDown" transform="rotate(180) translate(-30 -48)">
    <use xlink:href="#rim"/>
    <path pointer-events="none" fill="none" stroke="white" stroke-width="1.5" d="M0,-3.0v7 M-2.5,-0.5L0,-3.0L2.5,-0.5"/>
  </g>
  <g id="arrowLeft" transform="rotate(270) translate(-36 17)">
    <use xlink:href="#rim"/>
    <path pointer-events="none" fill="none" stroke="white" stroke-width="1.5" d="M0,-3.0v7 M-2.5,-0.5L0,-3.0L2.5,-0.5"/>
  </g>
  <g id="resetDef">
    <use xlink:href="#rim2" fill="#404040"><set attributeName="fill" to="#808080" begin="reset.mouseover" end="reset.mouseout"/></use>
  </g>
</defs>
<script type="application/ecmascript">
var viewWidth = 566;
var viewHeight = 448;
var sectionId = 'dynsection-1';
</script>
<script type="application/ecmascript" xlink:href="svg.min.js"/>
<svg id="graph" class="graph">
<g id="viewport">
<title>C:/Temp/out/FMT/Include/FMTevent.hpp</title>
<!-- Node1 -->
<g id="Node000001" class="node">
<title>Node1</title>
<g id="a_Node000001"><a xlink:title=" ">
<polygon fill="#999999" stroke="#666666" points="363.5,-440 238,-440 238,-408 363.5,-408 363.5,-440"/>
<text text-anchor="start" x="246" y="-426.5" font-family="Helvetica,sans-Serif" font-size="10.00">C:/Temp/out/FMT/Include</text>
<text text-anchor="middle" x="300.75" y="-414.5" font-family="Helvetica,sans-Serif" font-size="10.00">/FMTevent.hpp</text>
</a>
</g>
</g>
<!-- Node2 -->
<g id="Node000002" class="node">
<title>Node2</title>
<g id="a_Node000002"><a xlink:href="FMTeventcontainer_8hpp.html" target="_top" xlink:title=" ">
<polygon fill="white" stroke="#666666" points="318.5,-372 193,-372 193,-340 318.5,-340 318.5,-372"/>
<text text-anchor="start" x="201" y="-358.5" font-family="Helvetica,sans-Serif" font-size="10.00">C:/Temp/out/FMT/Include</text>
<text text-anchor="middle" x="255.75" y="-346.5" font-family="Helvetica,sans-Serif" font-size="10.00">/FMTeventcontainer.hpp</text>
</a>
</g>
</g>
<!-- Node1&#45;&gt;Node2 -->
<g id="edge1_Node000001_Node000002" class="edge">
<title>Node1&#45;&gt;Node2</title>
<g id="a_edge1_Node000001_Node000002"><a xlink:title=" ">
<path fill="none" stroke="#63b8ff" d="M284.3,-398.87C278.22,-389.96 271.52,-380.12 266.13,-372.22"/>
<polygon fill="#63b8ff" stroke="#63b8ff" points="281.79,-400.4 290.31,-406.69 287.57,-396.46 281.79,-400.4"/>
</a>
</g>
</g>
<!-- Node12 -->
<g id="Node000012" class="node">
<title>Node12</title>
<g id="a_Node000012"><a xlink:href="RexportSpatial_8hpp.html" target="_top" xlink:title=" ">
<polygon fill="white" stroke="#666666" points="409.5,-236 284,-236 284,-204 409.5,-204 409.5,-236"/>
<text text-anchor="start" x="292" y="-222.5" font-family="Helvetica,sans-Serif" font-size="10.00">C:/Temp/out/FMT/Include</text>
<text text-anchor="middle" x="346.75" y="-210.5" font-family="Helvetica,sans-Serif" font-size="10.00">/RexportSpatial.hpp</text>
</a>
</g>
</g>
<!-- Node1&#45;&gt;Node12 -->
<g id="edge19_Node000001_Node000012" class="edge">
<title>Node1&#45;&gt;Node12</title>
<g id="a_edge19_Node000001_Node000012"><a xlink:title=" ">
<path fill="none" stroke="#63b8ff" d="M316.26,-398.06C320.63,-390.01 324.95,-380.87 327.75,-372 342.87,-324.13 346.01,-264.14 346.63,-236.39"/>
<polygon fill="#63b8ff" stroke="#63b8ff" points="312.75,-396.15 310.81,-406.57 318.82,-399.63 312.75,-396.15"/>
</a>
</g>
</g>
<!-- Node3 -->
<g id="Node000003" class="node">
<title>Node3</title>
<g id="a_Node000003"><a xlink:href="FMTspatialschedule_8hpp.html" target="_top" xlink:title=" ">
<polygon fill="white" stroke="#666666" points="318.5,-304 193,-304 193,-272 318.5,-272 318.5,-304"/>
<text text-anchor="start" x="201" y="-290.5" font-family="Helvetica,sans-Serif" font-size="10.00">C:/Temp/out/FMT/Include</text>
<text text-anchor="middle" x="255.75" y="-278.5" font-family="Helvetica,sans-Serif" font-size="10.00">/FMTspatialschedule.hpp</text>
</a>
</g>
</g>
<!-- Node2&#45;&gt;Node3 -->
<g id="edge2_Node000002_Node000003" class="edge">
<title>Node2&#45;&gt;Node3</title>
<g id="a_edge2_Node000002_Node000003"><a xlink:title=" ">
<path fill="none" stroke="#63b8ff" d="M255.75,-328.89C255.75,-320.52 255.75,-311.54 255.75,-304.22"/>
<polygon fill="#63b8ff" stroke="#63b8ff" points="252.25,-328.69 255.75,-338.69 259.25,-328.69 252.25,-328.69"/>
</a>
</g>
</g>
<!-- Node13 -->
<g id="Node000013" class="node">
<title>Node13</title>
<g id="a_Node000013"><a xlink:href="PYexportSpatial_8hpp.html" target="_top" xlink:title=" ">
<polygon fill="white" stroke="#666666" points="174.5,-304 49,-304 49,-272 174.5,-272 174.5,-304"/>
<text text-anchor="start" x="57" y="-290.5" font-family="Helvetica,sans-Serif" font-size="10.00">C:/Temp/out/FMT/Include</text>
<text text-anchor="middle" x="111.75" y="-278.5" font-family="Helvetica,sans-Serif" font-size="10.00">/PYexportSpatial.hpp</text>
</a>
</g>
</g>
<!-- Node2&#45;&gt;Node13 -->
<g id="edge18_Node000002_Node000013" class="edge">
<title>Node2&#45;&gt;Node13</title>
<g id="a_edge18_Node000002_Node000013"><a xlink:title=" ">
<path fill="none" stroke="#63b8ff" d="M212.13,-335.01C190.67,-325.17 165.21,-313.5 145.3,-304.38"/>
<polygon fill="#63b8ff" stroke="#63b8ff" points="210.44,-338.54 220.99,-339.53 213.36,-332.18 210.44,-338.54"/>
</a>
</g>
</g>
<!-- Node4 -->
<g id="Node000004" class="node">
<title>Node4</title>
<g id="a_Node000004"><a xlink:href="FMTsemodel_8hpp.html" target="_top" xlink:title=" ">
<polygon fill="white" stroke="#666666" points="265.5,-236 140,-236 140,-204 265.5,-204 265.5,-236"/>
<text text-anchor="start" x="148" y="-222.5" font-family="Helvetica,sans-Serif" font-size="10.00">C:/Temp/out/FMT/Include</text>
<text text-anchor="middle" x="202.75" y="-210.5" font-family="Helvetica,sans-Serif" font-size="10.00">/FMTsemodel.hpp</text>
</a>
</g>
</g>
<!-- Node3&#45;&gt;Node4 -->
<g id="edge3_Node000003_Node000004" class="edge">
<title>Node3&#45;&gt;Node4</title>
<g id="a_edge3_Node000003_Node000004"><a xlink:title=" ">
<path fill="none" stroke="#63b8ff" d="M236.6,-263.15C229.39,-254.17 221.39,-244.21 214.98,-236.22"/>
<polygon fill="#63b8ff" stroke="#63b8ff" points="234.47,-265.09 243.46,-270.69 239.93,-260.7 234.47,-265.09"/>
</a>
</g>
</g>
<!-- Node3&#45;&gt;Node12 -->
<g id="edge17_Node000003_Node000012" class="edge">
<title>Node3&#45;&gt;Node12</title>
<g id="a_edge17_Node000003_Node000012"><a xlink:title=" ">
<path fill="none" stroke="#63b8ff" d="M285.51,-265.42C298.54,-255.96 313.55,-245.08 325.44,-236.45"/>
<polygon fill="#63b8ff" stroke="#63b8ff" points="283.9,-262.99 277.86,-271.69 288.01,-268.65 283.9,-262.99"/>
</a>
</g>
</g>
<!-- Node5 -->
<g id="Node000005" class="node">
<title>Node5</title>
<g id="a_Node000005"><a xlink:href="FMTsamodel_8hpp.html" target="_top" xlink:title=" ">
<polygon fill="white" stroke="#666666" points="265.5,-168 140,-168 140,-136 265.5,-136 265.5,-168"/>
<text text-anchor="start" x="148" y="-154.5" font-family="Helvetica,sans-Serif" font-size="10.00">C:/Temp/out/FMT/Include</text>
<text text-anchor="middle" x="202.75" y="-142.5" font-family="Helvetica,sans-Serif" font-size="10.00">/FMTsamodel.hpp</text>
</a>
</g>
</g>
<!-- Node4&#45;&gt;Node5 -->
<g id="edge4_Node000004_Node000005" class="edge">
<title>Node4&#45;&gt;Node5</title>
<g id="a_edge4_Node000004_Node000005"><a xlink:title=" ">
<path fill="none" stroke="#63b8ff" d="M202.75,-192.89C202.75,-184.52 202.75,-175.54 202.75,-168.22"/>
<polygon fill="#63b8ff" stroke="#63b8ff" points="199.25,-192.69 202.75,-202.69 206.25,-192.69 199.25,-192.69"/>
</a>
</g>
</g>
<!-- Node6 -->
<g id="Node000006" class="node">
<title>Node6</title>
<g id="a_Node000006"><a xlink:href="PYexportModel_8hpp.html" target="_top" xlink:title=" ">
<polygon fill="white" stroke="#666666" points="125.5,-100 0,-100 0,-68 125.5,-68 125.5,-100"/>
<text text-anchor="start" x="8" y="-86.5" font-family="Helvetica,sans-Serif" font-size="10.00">C:/Temp/out/FMT/Include</text>
<text text-anchor="middle" x="62.75" y="-74.5" font-family="Helvetica,sans-Serif" font-size="10.00">/PYexportModel.hpp</text>
</a>
</g>
</g>
<!-- Node4&#45;&gt;Node6 -->
<g id="edge14_Node000004_Node000006" class="edge">
<title>Node4&#45;&gt;Node6</title>
<g id="a_edge14_Node000004_Node000006"><a xlink:title=" ">
<path fill="none" stroke="#63b8ff" d="M163.82,-198.24C150.02,-189.88 134.92,-179.48 122.75,-168 101.02,-147.5 81.97,-118.16 71.44,-100.41"/>
<polygon fill="#63b8ff" stroke="#63b8ff" points="161.71,-201.65 172.11,-203.7 165.26,-195.62 161.71,-201.65"/>
</a>
</g>
</g>
<!-- Node7 -->
<g id="Node000007" class="node">
<title>Node7</title>
<g id="a_Node000007"><a xlink:href="Rdeclarations_8hpp.html" target="_top" xlink:title=" ">
<polygon fill="white" stroke="#666666" points="269.5,-100 144,-100 144,-68 269.5,-68 269.5,-100"/>
<text text-anchor="start" x="152" y="-86.5" font-family="Helvetica,sans-Serif" font-size="10.00">C:/Temp/out/FMT/Include</text>
<text text-anchor="middle" x="206.75" y="-74.5" font-family="Helvetica,sans-Serif" font-size="10.00">/Rdeclarations.hpp</text>
</a>
</g>
</g>
<!-- Node4&#45;&gt;Node7 -->
<g id="edge15_Node000004_Node000007" class="edge">
<title>Node4&#45;&gt;Node7</title>
<g id="a_edge15_Node000004_Node000007"><a xlink:title=" ">
<path fill="none" stroke="#63b8ff" d="M159.16,-197.91C147.85,-190.17 137.08,-180.24 130.75,-168 124.22,-155.37 124.06,-148.55 130.75,-136 139.12,-120.3 154.72,-108.57 169.61,-100.35"/>
<polygon fill="#63b8ff" stroke="#63b8ff" points="156.94,-201.28 167.27,-203.65 160.67,-195.36 156.94,-201.28"/>
</a>
</g>
</g>
<!-- Node8 -->
<g id="Node000008" class="node">
<title>Node8</title>
<g id="a_Node000008"><a xlink:href="RexportModel_8hpp.html" target="_top" xlink:title=" ">
<polygon fill="white" stroke="#666666" points="413.5,-100 288,-100 288,-68 413.5,-68 413.5,-100"/>
<text text-anchor="start" x="296" y="-86.5" font-family="Helvetica,sans-Serif" font-size="10.00">C:/Temp/out/FMT/Include</text>
<text text-anchor="middle" x="350.75" y="-74.5" font-family="Helvetica,sans-Serif" font-size="10.00">/RexportModel.hpp</text>
</a>
</g>
</g>
<!-- Node4&#45;&gt;Node8 -->
<g id="edge16_Node000004_Node000008" class="edge">
<title>Node4&#45;&gt;Node8</title>
<g id="a_edge16_Node000004_Node000008"><a xlink:title=" ">
<path fill="none" stroke="#63b8ff" d="M276.25,-202.76C337.95,-188.96 416.44,-170.92 418.75,-168 437.59,-144.19 404.87,-117.05 378.61,-100.48"/>
<polygon fill="#63b8ff" stroke="#63b8ff" points="275.72,-199.51 266.73,-205.11 277.25,-206.35 275.72,-199.51"/>
</a>
</g>
</g>
<!-- Node9 -->
<g id="Node000009" class="node">
<title>Node9</title>
<g id="a_Node000009"><a xlink:href="FMTsesmodel_8hpp.html" target="_top" xlink:title=" ">
<polygon fill="white" stroke="#666666" points="409.5,-168 284,-168 284,-136 409.5,-136 409.5,-168"/>
<text text-anchor="start" x="292" y="-154.5" font-family="Helvetica,sans-Serif" font-size="10.00">C:/Temp/out/FMT/Include</text>
<text text-anchor="middle" x="346.75" y="-142.5" font-family="Helvetica,sans-Serif" font-size="10.00">/FMTsesmodel.hpp</text>
</a>
</g>
</g>
<!-- Node4&#45;&gt;Node9 -->
<g id="edge8_Node000004_Node000009" class="edge">
<title>Node4&#45;&gt;Node9</title>
<g id="a_edge8_Node000004_Node000009"><a xlink:title=" ">
<path fill="none" stroke="#63b8ff" d="M246.37,-199.01C267.83,-189.17 293.29,-177.5 313.2,-168.38"/>
<polygon fill="#63b8ff" stroke="#63b8ff" points="245.14,-196.18 237.51,-203.53 248.06,-202.54 245.14,-196.18"/>
</a>
</g>
</g>
<!-- Node5&#45;&gt;Node6 -->
<g id="edge5_Node000005_Node000006" class="edge">
<title>Node5&#45;&gt;Node6</title>
<g id="a_edge5_Node000005_Node000006"><a xlink:title=" ">
<path fill="none" stroke="#63b8ff" d="M160.06,-130.88C139.26,-121.07 114.64,-109.46 95.37,-100.38"/>
<polygon fill="#63b8ff" stroke="#63b8ff" points="158.39,-134.43 168.93,-135.53 161.37,-128.1 158.39,-134.43"/>
</a>
</g>
</g>
<!-- Node5&#45;&gt;Node7 -->
<g id="edge6_Node000005_Node000007" class="edge">
<title>Node5&#45;&gt;Node7</title>
<g id="a_edge6_Node000005_Node000007"><a xlink:title=" ">
<path fill="none" stroke="#63b8ff" d="M204.33,-124.89C204.84,-116.52 205.38,-107.54 205.83,-100.22"/>
<polygon fill="#63b8ff" stroke="#63b8ff" points="200.79,-124.5 203.68,-134.69 207.78,-124.92 200.79,-124.5"/>
</a>
</g>
</g>
<!-- Node5&#45;&gt;Node8 -->
<g id="edge7_Node000005_Node000008" class="edge">
<title>Node5&#45;&gt;Node8</title>
<g id="a_edge7_Node000005_Node000008"><a xlink:title=" ">
<path fill="none" stroke="#63b8ff" d="M247.24,-131.16C269.28,-121.33 295.48,-109.65 316.01,-100.49"/>
<polygon fill="#63b8ff" stroke="#63b8ff" points="246.16,-128.26 238.45,-135.53 249.01,-134.65 246.16,-128.26"/>
</a>
</g>
</g>
<!-- Node9&#45;&gt;Node6 -->
<g id="edge11_Node000009_Node000006" class="edge">
<title>Node9&#45;&gt;Node6</title>
<g id="a_edge11_Node000009_Node000006"><a xlink:title=" ">
<path fill="none" stroke="#63b8ff" d="M273.26,-133.92C227.49,-123.29 169.23,-109.74 125.6,-99.61"/>
<polygon fill="#63b8ff" stroke="#63b8ff" points="272.19,-137.5 282.72,-136.35 273.77,-130.68 272.19,-137.5"/>
</a>
</g>
</g>
<!-- Node9&#45;&gt;Node7 -->
<g id="edge12_Node000009_Node000007" class="edge">
<title>Node9&#45;&gt;Node7</title>
<g id="a_edge12_Node000009_Node000007"><a xlink:title=" ">
<path fill="none" stroke="#63b8ff" d="M304.06,-130.88C283.26,-121.07 258.64,-109.46 239.37,-100.38"/>
<polygon fill="#63b8ff" stroke="#63b8ff" points="302.39,-134.43 312.93,-135.53 305.37,-128.1 302.39,-134.43"/>
</a>
</g>
</g>
<!-- Node9&#45;&gt;Node8 -->
<g id="edge13_Node000009_Node000008" class="edge">
<title>Node9&#45;&gt;Node8</title>
<g id="a_edge13_Node000009_Node000008"><a xlink:title=" ">
<path fill="none" stroke="#63b8ff" d="M348.33,-124.89C348.84,-116.52 349.38,-107.54 349.83,-100.22"/>
<polygon fill="#63b8ff" stroke="#63b8ff" points="344.79,-124.5 347.68,-134.69 351.78,-124.92 344.79,-124.5"/>
</a>
</g>
</g>
<!-- Node10 -->
<g id="Node000010" class="node">
<title>Node10</title>
<g id="a_Node000010"><a xlink:href="FMTpythonpickle_8hpp.html" target="_top" xlink:title=" ">
<polygon fill="white" stroke="#666666" points="557.5,-100 432,-100 432,-68 557.5,-68 557.5,-100"/>
<text text-anchor="start" x="440" y="-86.5" font-family="Helvetica,sans-Serif" font-size="10.00">C:/Temp/out/FMT/Include</text>
<text text-anchor="middle" x="494.75" y="-74.5" font-family="Helvetica,sans-Serif" font-size="10.00">/FMTpythonpickle.hpp</text>
</a>
</g>
</g>
<!-- Node9&#45;&gt;Node10 -->
<g id="edge9_Node000009_Node000010" class="edge">
<title>Node9&#45;&gt;Node10</title>
<g id="a_edge9_Node000009_Node000010"><a xlink:title=" ">
<path fill="none" stroke="#63b8ff" d="M391.24,-131.16C413.28,-121.33 439.48,-109.65 460.01,-100.49"/>
<polygon fill="#63b8ff" stroke="#63b8ff" points="390.16,-128.26 382.45,-135.53 393.01,-134.65 390.16,-128.26"/>
</a>
</g>
</g>
<!-- Node11 -->
<g id="Node000011" class="node">
<title>Node11</title>
<g id="a_Node000011"><a xlink:href="PYexportHeuristics_8hpp.html" target="_top" xlink:title=" ">
<polygon fill="white" stroke="#666666" points="557.5,-32 432,-32 432,0 557.5,0 557.5,-32"/>
<text text-anchor="start" x="440" y="-18.5" font-family="Helvetica,sans-Serif" font-size="10.00">C:/Temp/out/FMT/Include</text>
<text text-anchor="middle" x="494.75" y="-6.5" font-family="Helvetica,sans-Serif" font-size="10.00">/PYexportHeuristics.hpp</text>
</a>
</g>
</g>
<!-- Node10&#45;&gt;Node11 -->
<g id="edge10_Node000010_Node000011" class="edge">
<title>Node10&#45;&gt;Node11</title>
<g id="a_edge10_Node000010_Node000011"><a xlink:title=" ">
<path fill="none" stroke="#63b8ff" d="M494.75,-56.89C494.75,-48.52 494.75,-39.54 494.75,-32.22"/>
<polygon fill="#63b8ff" stroke="#63b8ff" points="491.25,-56.69 494.75,-66.69 498.25,-56.69 491.25,-56.69"/>
</a>
</g>
</g>
</g>
</svg>

<g id="navigator" transform="translate(0 0)" fill="#404254">
  <rect fill="#f2f5e9" fill-opacity="0.5" stroke="#606060" stroke-width=".5" x="0" y="0" width="60" height="60"/>
  <use id="zoomplus" xlink:href="#zoomPlus" x="17" y="9" onmousedown="handleZoom(evt,'in')"/>
  <use id="zoomminus" xlink:href="#zoomMin" x="42" y="9" onmousedown="handleZoom(evt,'out')"/>
  <use id="reset" xlink:href="#resetDef" x="30" y="36" onmousedown="handleReset()"/>
   <use id="arrowup" xlink:href="#arrowUp" x="0" y="0" onmousedown="handlePan(0,-1)"/>
  <use id="arrowright" xlink:href="#arrowRight" x="0" y="0" onmousedown="handlePan(1,0)"/>
  <use id="arrowdown" xlink:href="#arrowDown" x="0" y="0" onmousedown="handlePan(0,1)"/>
  <use id="arrowleft" xlink:href="#arrowLeft" x="0" y="0" onmousedown="handlePan(-1,0)"/>
</g>
<svg viewBox="0 0 15 15" width="100%" height="30px" preserveAspectRatio="xMaxYMin meet">
 <g id="arrow_out" transform="scale(0.3 0.3)">
  <a xlink:href="FMTevent_8hpp__dep__incl_org.svg" target="_base">
   <rect id="button" ry="5" rx="5" y="6" x="6" height="38" width="38"
        fill="#f2f5e9" fill-opacity="0.5" stroke="#606060" stroke-width="1.0"/>
   <path id="arrow"
     d="M 11.500037,31.436501 C 11.940474,20.09759 22.043105,11.32322 32.158766,21.979434 L 37.068811,17.246167 C 37.068811,17.246167 37.088388,32 37.088388,32 L 22.160133,31.978069 C 22.160133,31.978069 26.997745,27.140456 26.997745,27.140456 C 18.528582,18.264221 13.291696,25.230495 11.500037,31.436501 z"
     style="fill:#404040;"/>
  </a>
 </g>
</svg>

<style type='text/css'>
<![CDATA[
[data-mouse-over-selected='false'] { opacity: 0.7; }
[data-mouse-over-selected='true']  { opacity: 1.0; }
]]>
</style>
<script type="application/ecmascript"><![CDATA[
document.addEventListener('DOMContentLoaded', (event) => {
  highlightEdges();
  highlightAdjacentNodes();
});
]]></script>
</svg>
