<?xml version="1.0" encoding="UTF-8" standalone="no"?>
<!DOCTYPE svg PUBLIC "-//W3C//DTD SVG 1.1//EN"
 "http://www.w3.org/Graphics/SVG/1.1/DTD/svg11.dtd">
<!-- Generated by graphviz version 8.1.0 (20230707.0739)
 -->
<!-- Title: C:/Users/CYRGU3/OneDrive &#45; BuroVirtuel/Bureau/FMT/FMT/Include/FMTevent.hpp Pages: 1 -->
<svg width="703pt" height="532pt"
 viewBox="0.00 0.00 703.38 532.00" xmlns="http://www.w3.org/2000/svg" xmlns:xlink="http://www.w3.org/1999/xlink">
<g id="graph0" class="graph" transform="scale(1 1) rotate(0) translate(4 528)">
<title>C:/Users/CYRGU3/OneDrive &#45; BuroVirtuel/Bureau/FMT/FMT/Include/FMTevent.hpp</title>
<!-- Node1 -->
<g id="Node000001" class="node">
<title>Node1</title>
<g id="a_Node000001"><a xlink:title=" ">
<polygon fill="#999999" stroke="#666666" points="427.88,-524 288.88,-524 288.88,-480 427.88,-480 427.88,-524"/>
<text text-anchor="start" x="296.88" y="-510.5" font-family="Helvetica,sans-Serif" font-size="10.00">C:/Users/CYRGU3/OneDrive</text>
<text text-anchor="start" x="296.88" y="-498.5" font-family="Helvetica,sans-Serif" font-size="10.00"> &#45; BuroVirtuel/Bureau/FMT</text>
<text text-anchor="middle" x="358.38" y="-486.5" font-family="Helvetica,sans-Serif" font-size="10.00">/FMT/Include/FMTevent.hpp</text>
</a>
</g>
</g>
<!-- Node2 -->
<g id="Node000002" class="node">
<title>Node2</title>
<g id="a_Node000002"><a xlink:href="FMTeventcontainer_8hpp.html" target="_top" xlink:title=" ">
<polygon fill="white" stroke="#666666" points="387.25,-444 211.5,-444 211.5,-400 387.25,-400 387.25,-444"/>
<text text-anchor="start" x="219.5" y="-430.5" font-family="Helvetica,sans-Serif" font-size="10.00">C:/Users/CYRGU3/OneDrive</text>
<text text-anchor="start" x="219.5" y="-418.5" font-family="Helvetica,sans-Serif" font-size="10.00"> &#45; BuroVirtuel/Bureau/FMT</text>
<text text-anchor="middle" x="299.38" y="-406.5" font-family="Helvetica,sans-Serif" font-size="10.00">/FMT/Include/FMTeventcontainer.hpp</text>
</a>
</g>
</g>
<!-- Node1&#45;&gt;Node2 -->
<g id="edge1_Node000001_Node000002" class="edge">
<title>Node1&#45;&gt;Node2</title>
<g id="a_edge1_Node000001_Node000002"><a xlink:title=" ">
<path fill="none" stroke="#63b8ff" d="M335.73,-471.06C328.98,-462.13 321.72,-452.54 315.48,-444.29"/>
<polygon fill="#63b8ff" stroke="#63b8ff" points="333.43,-472.82 342.25,-478.69 339.01,-468.6 333.43,-472.82"/>
</a>
</g>
</g>
<!-- Node12 -->
<g id="Node000012" class="node">
<title>Node12</title>
<g id="a_Node000012"><a xlink:href="RexportSpatial_8hpp.html" target="_top" xlink:title=" ">
<polygon fill="white" stroke="#666666" points="497.25,-284 339.5,-284 339.5,-240 497.25,-240 497.25,-284"/>
<text text-anchor="start" x="347.5" y="-270.5" font-family="Helvetica,sans-Serif" font-size="10.00">C:/Users/CYRGU3/OneDrive</text>
<text text-anchor="start" x="347.5" y="-258.5" font-family="Helvetica,sans-Serif" font-size="10.00"> &#45; BuroVirtuel/Bureau/FMT</text>
<text text-anchor="middle" x="418.38" y="-246.5" font-family="Helvetica,sans-Serif" font-size="10.00">/FMT/Include/RexportSpatial.hpp</text>
</a>
</g>
</g>
<!-- Node1&#45;&gt;Node12 -->
<g id="edge19_Node000001_Node000012" class="edge">
<title>Node1&#45;&gt;Node12</title>
<g id="a_edge19_Node000001_Node000012"><a xlink:title=" ">
<path fill="none" stroke="#63b8ff" d="M382.32,-470.72C387.77,-462.47 392.96,-453.24 396.38,-444 416.7,-389.08 419.14,-319.01 418.93,-284.37"/>
<polygon fill="#63b8ff" stroke="#63b8ff" points="378.99,-468.38 376.14,-478.58 384.73,-472.38 378.99,-468.38"/>
</a>
</g>
</g>
<!-- Node3 -->
<g id="Node000003" class="node">
<title>Node3</title>
<g id="a_Node000003"><a xlink:href="FMTspatialschedule_8hpp.html" target="_top" xlink:title=" ">
<polygon fill="white" stroke="#666666" points="389.88,-364 208.88,-364 208.88,-320 389.88,-320 389.88,-364"/>
<text text-anchor="start" x="216.88" y="-350.5" font-family="Helvetica,sans-Serif" font-size="10.00">C:/Users/CYRGU3/OneDrive</text>
<text text-anchor="start" x="216.88" y="-338.5" font-family="Helvetica,sans-Serif" font-size="10.00"> &#45; BuroVirtuel/Bureau/FMT</text>
<text text-anchor="middle" x="299.38" y="-326.5" font-family="Helvetica,sans-Serif" font-size="10.00">/FMT/Include/FMTspatialschedule.hpp</text>
</a>
</g>
</g>
<!-- Node2&#45;&gt;Node3 -->
<g id="edge2_Node000002_Node000003" class="edge">
<title>Node2&#45;&gt;Node3</title>
<g id="a_edge2_Node000002_Node000003"><a xlink:title=" ">
<path fill="none" stroke="#63b8ff" d="M299.38,-388.82C299.38,-380.54 299.38,-371.85 299.38,-364.29"/>
<polygon fill="#63b8ff" stroke="#63b8ff" points="295.88,-388.69 299.38,-398.69 302.88,-388.69 295.88,-388.69"/>
</a>
</g>
</g>
<!-- Node13 -->
<g id="Node000013" class="node">
<title>Node13</title>
<g id="a_Node000013"><a xlink:href="PYexportSpatial_8hpp.html" target="_top" xlink:title=" ">
<polygon fill="white" stroke="#666666" points="190.62,-364 26.12,-364 26.12,-320 190.62,-320 190.62,-364"/>
<text text-anchor="start" x="34.12" y="-350.5" font-family="Helvetica,sans-Serif" font-size="10.00">C:/Users/CYRGU3/OneDrive</text>
<text text-anchor="start" x="34.12" y="-338.5" font-family="Helvetica,sans-Serif" font-size="10.00"> &#45; BuroVirtuel/Bureau/FMT</text>
<text text-anchor="middle" x="108.38" y="-326.5" font-family="Helvetica,sans-Serif" font-size="10.00">/FMT/Include/PYexportSpatial.hpp</text>
</a>
</g>
</g>
<!-- Node2&#45;&gt;Node13 -->
<g id="edge18_Node000002_Node000013" class="edge">
<title>Node2&#45;&gt;Node13</title>
<g id="a_edge18_Node000002_Node000013"><a xlink:title=" ">
<path fill="none" stroke="#63b8ff" d="M236.95,-395.51C212.29,-385.44 184.27,-374 160.7,-364.37"/>
<polygon fill="#63b8ff" stroke="#63b8ff" points="235.35,-399.04 245.93,-399.58 238,-392.56 235.35,-399.04"/>
</a>
</g>
</g>
<!-- Node4 -->
<g id="Node000004" class="node">
<title>Node4</title>
<g id="a_Node000004"><a xlink:href="FMTsemodel_8hpp.html" target="_top" xlink:title=" ">
<polygon fill="white" stroke="#666666" points="321.5,-284 171.25,-284 171.25,-240 321.5,-240 321.5,-284"/>
<text text-anchor="start" x="179.25" y="-270.5" font-family="Helvetica,sans-Serif" font-size="10.00">C:/Users/CYRGU3/OneDrive</text>
<text text-anchor="start" x="179.25" y="-258.5" font-family="Helvetica,sans-Serif" font-size="10.00"> &#45; BuroVirtuel/Bureau/FMT</text>
<text text-anchor="middle" x="246.38" y="-246.5" font-family="Helvetica,sans-Serif" font-size="10.00">/FMT/Include/FMTsemodel.hpp</text>
</a>
</g>
</g>
<!-- Node3&#45;&gt;Node4 -->
<g id="edge3_Node000003_Node000004" class="edge">
<title>Node3&#45;&gt;Node4</title>
<g id="a_edge3_Node000003_Node000004"><a xlink:title=" ">
<path fill="none" stroke="#63b8ff" d="M278.84,-310.78C272.83,-301.93 266.39,-292.45 260.84,-284.29"/>
<polygon fill="#63b8ff" stroke="#63b8ff" points="276.38,-312.38 284.89,-318.69 282.17,-308.45 276.38,-312.38"/>
</a>
</g>
</g>
<!-- Node3&#45;&gt;Node12 -->
<g id="edge17_Node000003_Node000012" class="edge">
<title>Node3&#45;&gt;Node12</title>
<g id="a_edge17_Node000003_Node000012"><a xlink:title=" ">
<path fill="none" stroke="#63b8ff" d="M340.84,-313.82C355.6,-304.15 372,-293.4 385.9,-284.29"/>
<polygon fill="#63b8ff" stroke="#63b8ff" points="339.34,-311.28 332.89,-319.69 343.17,-317.13 339.34,-311.28"/>
</a>
</g>
</g>
<!-- Node5 -->
<g id="Node000005" class="node">
<title>Node5</title>
<g id="a_Node000005"><a xlink:href="FMTsamodel_8hpp.html" target="_top" xlink:title=" ">
<polygon fill="white" stroke="#666666" points="321.5,-204 171.25,-204 171.25,-160 321.5,-160 321.5,-204"/>
<text text-anchor="start" x="179.25" y="-190.5" font-family="Helvetica,sans-Serif" font-size="10.00">C:/Users/CYRGU3/OneDrive</text>
<text text-anchor="start" x="179.25" y="-178.5" font-family="Helvetica,sans-Serif" font-size="10.00"> &#45; BuroVirtuel/Bureau/FMT</text>
<text text-anchor="middle" x="246.38" y="-166.5" font-family="Helvetica,sans-Serif" font-size="10.00">/FMT/Include/FMTsamodel.hpp</text>
</a>
</g>
</g>
<!-- Node4&#45;&gt;Node5 -->
<g id="edge4_Node000004_Node000005" class="edge">
<title>Node4&#45;&gt;Node5</title>
<g id="a_edge4_Node000004_Node000005"><a xlink:title=" ">
<path fill="none" stroke="#63b8ff" d="M246.38,-228.82C246.38,-220.54 246.38,-211.85 246.38,-204.29"/>
<polygon fill="#63b8ff" stroke="#63b8ff" points="242.88,-228.69 246.38,-238.69 249.88,-228.69 242.88,-228.69"/>
</a>
</g>
</g>
<!-- Node6 -->
<g id="Node000006" class="node">
<title>Node6</title>
<g id="a_Node000006"><a xlink:href="PYexportModel_8hpp.html" target="_top" xlink:title=" ">
<polygon fill="white" stroke="#666666" points="160.75,-124 0,-124 0,-80 160.75,-80 160.75,-124"/>
<text text-anchor="start" x="8" y="-110.5" font-family="Helvetica,sans-Serif" font-size="10.00">C:/Users/CYRGU3/OneDrive</text>
<text text-anchor="start" x="8" y="-98.5" font-family="Helvetica,sans-Serif" font-size="10.00"> &#45; BuroVirtuel/Bureau/FMT</text>
<text text-anchor="middle" x="80.38" y="-86.5" font-family="Helvetica,sans-Serif" font-size="10.00">/FMT/Include/PYexportModel.hpp</text>
</a>
</g>
</g>
<!-- Node4&#45;&gt;Node6 -->
<g id="edge14_Node000004_Node000006" class="edge">
<title>Node4&#45;&gt;Node6</title>
<g id="a_edge14_Node000004_Node000006"><a xlink:title=" ">
<path fill="none" stroke="#63b8ff" d="M192.83,-234.16C178.51,-225.62 163.62,-215.39 151.38,-204 125.95,-180.35 104.27,-146.19 91.78,-124.29"/>
<polygon fill="#63b8ff" stroke="#63b8ff" points="190.71,-237.56 201.13,-239.53 194.21,-231.5 190.71,-237.56"/>
</a>
</g>
</g>
<!-- Node7 -->
<g id="Node000007" class="node">
<title>Node7</title>
<g id="a_Node000007"><a xlink:href="Rdeclarations_8hpp.html" target="_top" xlink:title=" ">
<polygon fill="white" stroke="#666666" points="332,-124 178.75,-124 178.75,-80 332,-80 332,-124"/>
<text text-anchor="start" x="186.75" y="-110.5" font-family="Helvetica,sans-Serif" font-size="10.00">C:/Users/CYRGU3/OneDrive</text>
<text text-anchor="start" x="186.75" y="-98.5" font-family="Helvetica,sans-Serif" font-size="10.00"> &#45; BuroVirtuel/Bureau/FMT</text>
<text text-anchor="middle" x="255.38" y="-86.5" font-family="Helvetica,sans-Serif" font-size="10.00">/FMT/Include/Rdeclarations.hpp</text>
</a>
</g>
</g>
<!-- Node4&#45;&gt;Node7 -->
<g id="edge15_Node000004_Node000007" class="edge">
<title>Node4&#45;&gt;Node7</title>
<g id="a_edge15_Node000004_Node000007"><a xlink:title=" ">
<path fill="none" stroke="#63b8ff" d="M189.38,-233.56C178.53,-225.6 168.63,-215.8 162.38,-204 153.22,-186.72 152.82,-177.06 162.38,-160 170.89,-144.8 185.29,-133.16 200.26,-124.49"/>
<polygon fill="#63b8ff" stroke="#63b8ff" points="186.99,-236.85 197.24,-239.55 190.92,-231.05 186.99,-236.85"/>
</a>
</g>
</g>
<!-- Node8 -->
<g id="Node000008" class="node">
<title>Node8</title>
<g id="a_Node000008"><a xlink:href="RexportModel_8hpp.html" target="_top" xlink:title=" ">
<polygon fill="white" stroke="#666666" points="504.38,-124 350.38,-124 350.38,-80 504.38,-80 504.38,-124"/>
<text text-anchor="start" x="358.38" y="-110.5" font-family="Helvetica,sans-Serif" font-size="10.00">C:/Users/CYRGU3/OneDrive</text>
<text text-anchor="start" x="358.38" y="-98.5" font-family="Helvetica,sans-Serif" font-size="10.00"> &#45; BuroVirtuel/Bureau/FMT</text>
<text text-anchor="middle" x="427.38" y="-86.5" font-family="Helvetica,sans-Serif" font-size="10.00">/FMT/Include/RexportModel.hpp</text>
</a>
</g>
</g>
<!-- Node4&#45;&gt;Node8 -->
<g id="edge16_Node000004_Node000008" class="edge">
<title>Node4&#45;&gt;Node8</title>
<g id="a_edge16_Node000004_Node000008"><a xlink:title=" ">
<path fill="none" stroke="#63b8ff" d="M332.22,-239.86C411.24,-225.76 456.56,-262.73 504.38,-204 516.72,-188.84 513.18,-177.46 504.38,-160 496.97,-145.3 483.77,-133.44 470.37,-124.43"/>
<polygon fill="#63b8ff" stroke="#63b8ff" points="332,-236.54 322.9,-241.96 333.39,-243.4 332,-236.54"/>
</a>
</g>
</g>
<!-- Node9 -->
<g id="Node000009" class="node">
<title>Node9</title>
<g id="a_Node000009"><a xlink:href="FMTsesmodel_8hpp.html" target="_top" xlink:title=" ">
<polygon fill="white" stroke="#666666" points="495.12,-204 339.62,-204 339.62,-160 495.12,-160 495.12,-204"/>
<text text-anchor="start" x="347.62" y="-190.5" font-family="Helvetica,sans-Serif" font-size="10.00">C:/Users/CYRGU3/OneDrive</text>
<text text-anchor="start" x="347.62" y="-178.5" font-family="Helvetica,sans-Serif" font-size="10.00"> &#45; BuroVirtuel/Bureau/FMT</text>
<text text-anchor="middle" x="417.38" y="-166.5" font-family="Helvetica,sans-Serif" font-size="10.00">/FMT/Include/FMTsesmodel.hpp</text>
</a>
</g>
</g>
<!-- Node4&#45;&gt;Node9 -->
<g id="edge8_Node000004_Node000009" class="edge">
<title>Node4&#45;&gt;Node9</title>
<g id="a_edge8_Node000004_Node000009"><a xlink:title=" ">
<path fill="none" stroke="#63b8ff" d="M302.93,-235.2C324.8,-225.23 349.54,-213.94 370.41,-204.42"/>
<polygon fill="#63b8ff" stroke="#63b8ff" points="301.75,-232.35 294.1,-239.69 304.65,-238.72 301.75,-232.35"/>
</a>
</g>
</g>
<!-- Node5&#45;&gt;Node6 -->
<g id="edge5_Node000005_Node000006" class="edge">
<title>Node5&#45;&gt;Node6</title>
<g id="a_edge5_Node000005_Node000006"><a xlink:title=" ">
<path fill="none" stroke="#63b8ff" d="M191.19,-155.07C170.03,-145.13 146.13,-133.9 125.97,-124.42"/>
<polygon fill="#63b8ff" stroke="#63b8ff" points="189.48,-158.6 200.01,-159.69 192.45,-152.27 189.48,-158.6"/>
</a>
</g>
</g>
<!-- Node5&#45;&gt;Node7 -->
<g id="edge6_Node000005_Node000007" class="edge">
<title>Node5&#45;&gt;Node7</title>
<g id="a_edge6_Node000005_Node000007"><a xlink:title=" ">
<path fill="none" stroke="#63b8ff" d="M250.09,-148.82C251.04,-140.54 252.05,-131.85 252.92,-124.29"/>
<polygon fill="#63b8ff" stroke="#63b8ff" points="246.5,-148.35 248.83,-158.69 253.46,-149.15 246.5,-148.35"/>
</a>
</g>
</g>
<!-- Node5&#45;&gt;Node8 -->
<g id="edge7_Node000005_Node000008" class="edge">
<title>Node5&#45;&gt;Node8</title>
<g id="a_edge7_Node000005_Node000008"><a xlink:title=" ">
<path fill="none" stroke="#63b8ff" d="M305.92,-155.34C329.15,-145.33 355.47,-133.99 377.66,-124.42"/>
<polygon fill="#63b8ff" stroke="#63b8ff" points="304.63,-152.51 296.83,-159.69 307.4,-158.94 304.63,-152.51"/>
</a>
</g>
</g>
<!-- Node9&#45;&gt;Node6 -->
<g id="edge11_Node000009_Node000006" class="edge">
<title>Node9&#45;&gt;Node6</title>
<g id="a_edge11_Node000009_Node000006"><a xlink:title=" ">
<path fill="none" stroke="#63b8ff" d="M328.7,-159.63C257.22,-143.1 237.63,-139.68 169.38,-124 166.59,-123.36 163.76,-122.71 160.9,-122.04"/>
<polygon fill="#63b8ff" stroke="#63b8ff" points="327.6,-163.2 338.14,-162.05 329.18,-156.38 327.6,-163.2"/>
</a>
</g>
</g>
<!-- Node9&#45;&gt;Node7 -->
<g id="edge12_Node000009_Node000007" class="edge">
<title>Node9&#45;&gt;Node7</title>
<g id="a_edge12_Node000009_Node000007"><a xlink:title=" ">
<path fill="none" stroke="#63b8ff" d="M363.24,-154.93C342.66,-145.02 319.46,-133.86 299.87,-124.42"/>
<polygon fill="#63b8ff" stroke="#63b8ff" points="361.58,-158.5 372.11,-159.69 364.62,-152.19 361.58,-158.5"/>
</a>
</g>
</g>
<!-- Node9&#45;&gt;Node8 -->
<g id="edge13_Node000009_Node000008" class="edge">
<title>Node9&#45;&gt;Node8</title>
<g id="a_edge13_Node000009_Node000008"><a xlink:title=" ">
<path fill="none" stroke="#63b8ff" d="M421.5,-148.82C422.56,-140.54 423.68,-131.85 424.65,-124.29"/>
<polygon fill="#63b8ff" stroke="#63b8ff" points="417.91,-148.32 420.11,-158.69 424.85,-149.21 417.91,-148.32"/>
</a>
</g>
</g>
<!-- Node10 -->
<g id="Node000010" class="node">
<title>Node10</title>
<g id="a_Node000010"><a xlink:href="FMTpythonpickle_8hpp.html" target="_top" xlink:title=" ">
<polygon fill="white" stroke="#666666" points="690.5,-124 522.25,-124 522.25,-80 690.5,-80 690.5,-124"/>
<text text-anchor="start" x="530.25" y="-110.5" font-family="Helvetica,sans-Serif" font-size="10.00">C:/Users/CYRGU3/OneDrive</text>
<text text-anchor="start" x="530.25" y="-98.5" font-family="Helvetica,sans-Serif" font-size="10.00"> &#45; BuroVirtuel/Bureau/FMT</text>
<text text-anchor="middle" x="606.38" y="-86.5" font-family="Helvetica,sans-Serif" font-size="10.00">/FMT/Include/FMTpythonpickle.hpp</text>
</a>
</g>
</g>
<!-- Node9&#45;&gt;Node10 -->
<g id="edge9_Node000009_Node000010" class="edge">
<title>Node9&#45;&gt;Node10</title>
<g id="a_edge9_Node000009_Node000010"><a xlink:title=" ">
<path fill="none" stroke="#63b8ff" d="M479.15,-155.51C503.55,-145.44 531.27,-134 554.6,-124.37"/>
<polygon fill="#63b8ff" stroke="#63b8ff" points="478.18,-152.53 470.27,-159.58 480.85,-159 478.18,-152.53"/>
</a>
</g>
</g>
<!-- Node11 -->
<g id="Node000011" class="node">
<title>Node11</title>
<g id="a_Node000011"><a xlink:href="PYexportHeuristics_8hpp.html" target="_top" xlink:title=" ">
<polygon fill="white" stroke="#666666" points="695.38,-44 517.38,-44 517.38,0 695.38,0 695.38,-44"/>
<text text-anchor="start" x="525.38" y="-30.5" font-family="Helvetica,sans-Serif" font-size="10.00">C:/Users/CYRGU3/OneDrive</text>
<text text-anchor="start" x="525.38" y="-18.5" font-family="Helvetica,sans-Serif" font-size="10.00"> &#45; BuroVirtuel/Bureau/FMT</text>
<text text-anchor="middle" x="606.38" y="-6.5" font-family="Helvetica,sans-Serif" font-size="10.00">/FMT/Include/PYexportHeuristics.hpp</text>
</a>
</g>
</g>
<!-- Node10&#45;&gt;Node11 -->
<g id="edge10_Node000010_Node000011" class="edge">
<title>Node10&#45;&gt;Node11</title>
<g id="a_edge10_Node000010_Node000011"><a xlink:title=" ">
<path fill="none" stroke="#63b8ff" d="M606.38,-68.82C606.38,-60.54 606.38,-51.85 606.38,-44.29"/>
<polygon fill="#63b8ff" stroke="#63b8ff" points="602.88,-68.69 606.38,-78.69 609.88,-68.69 602.88,-68.69"/>
</a>
</g>
</g>
</g>
</svg>
