<?xml version="1.0" encoding="UTF-8" standalone="no"?>
<!DOCTYPE svg PUBLIC "-//W3C//DTD SVG 1.1//EN"
 "http://www.w3.org/Graphics/SVG/1.1/DTD/svg11.dtd">
<!-- Generated by graphviz version 10.0.1 (20240210.2158)
 -->
<!-- Title: D:/FMT/Include/FMTExceptionHandler.h Pages: 1 -->
<svg width="998pt" height="288pt"
 viewBox="0.00 0.00 997.75 288.00" xmlns="http://www.w3.org/2000/svg" xmlns:xlink="http://www.w3.org/1999/xlink">
<g id="graph0" class="graph" transform="scale(1 1) rotate(0) translate(4 284)">
<title>D:/FMT/Include/FMTExceptionHandler.h</title>
<!-- Node1 -->
<g id="node1" class="node">
<title>Node1</title>
<g id="a_node1"><a xlink:title=" ">
<polygon fill="#999999" stroke="#666666" points="695.38,-280 547.38,-280 547.38,-248 695.38,-248 695.38,-280"/>
<text text-anchor="start" x="555.38" y="-266.5" font-family="Helvetica,sans-Serif" font-size="10.00">D:/FMT/Include/FMTException</text>
<text text-anchor="middle" x="621.38" y="-254.5" font-family="Helvetica,sans-Serif" font-size="10.00">Handler.h</text>
</a>
</g>
</g>
<!-- Node2 -->
<g id="node2" class="node">
<title>Node2</title>
<g id="a_node2"><a xlink:href="FMTLogger_8h.html" target="_top" xlink:title=" ">
<polygon fill="white" stroke="#666666" points="347.88,-206 274.88,-206 274.88,-186 347.88,-186 347.88,-206"/>
<text text-anchor="middle" x="311.38" y="-192.5" font-family="Helvetica,sans-Serif" font-size="10.00">FMTLogger.h</text>
</a>
</g>
</g>
<!-- Node1&#45;&gt;Node2 -->
<g id="edge1" class="edge">
<title>Node1&#45;&gt;Node2</title>
<path fill="none" stroke="#63b8ff" d="M548.69,-247.53C490.25,-235.08 409.82,-217.96 359.22,-207.19"/>
<polygon fill="#63b8ff" stroke="#63b8ff" points="359.95,-203.76 349.44,-205.1 358.49,-210.61 359.95,-203.76"/>
</g>
<!-- Node3 -->
<g id="node3" class="node">
<title>Node3</title>
<g id="a_node3"><a xlink:title=" ">
<polygon fill="#e0e0e0" stroke="#999999" points="94.75,-144 0,-144 0,-112 94.75,-112 94.75,-144"/>
<text text-anchor="start" x="8" y="-130.5" font-family="Helvetica,sans-Serif" font-size="10.00">boost/serialization</text>
<text text-anchor="middle" x="47.38" y="-118.5" font-family="Helvetica,sans-Serif" font-size="10.00">/export.hpp</text>
</a>
</g>
</g>
<!-- Node1&#45;&gt;Node3 -->
<g id="edge17" class="edge">
<title>Node1&#45;&gt;Node3</title>
<path fill="none" stroke="#63b8ff" d="M547.14,-257.19C474.46,-250.38 361.03,-236.74 265.38,-212 203.39,-195.97 134.82,-168.08 91.44,-149.1"/>
<polygon fill="#63b8ff" stroke="#63b8ff" points="92.92,-145.93 82.36,-145.09 90.09,-152.33 92.92,-145.93"/>
</g>
<!-- Node7 -->
<g id="node7" class="node">
<title>Node7</title>
<g id="a_node7"><a xlink:title=" ">
<polygon fill="#e0e0e0" stroke="#999999" points="487,-76 435.75,-76 435.75,-56 487,-56 487,-76"/>
<text text-anchor="middle" x="461.38" y="-62.5" font-family="Helvetica,sans-Serif" font-size="10.00">memory</text>
</a>
</g>
</g>
<!-- Node1&#45;&gt;Node7 -->
<g id="edge18" class="edge">
<title>Node1&#45;&gt;Node7</title>
<path fill="none" stroke="#63b8ff" d="M572.78,-247.6C553.75,-239.54 533.02,-227.95 518.38,-212 485.24,-175.91 470.46,-118.31 464.65,-87.7"/>
<polygon fill="#63b8ff" stroke="#63b8ff" points="468.1,-87.11 462.94,-77.86 461.2,-88.31 468.1,-87.11"/>
</g>
<!-- Node12 -->
<g id="node12" class="node">
<title>Node12</title>
<g id="a_node12"><a xlink:title=" ">
<polygon fill="#e0e0e0" stroke="#999999" points="609.75,-206 527,-206 527,-186 609.75,-186 609.75,-206"/>
<text text-anchor="middle" x="568.38" y="-192.5" font-family="Helvetica,sans-Serif" font-size="10.00">unordered_map</text>
</a>
</g>
</g>
<!-- Node1&#45;&gt;Node12 -->
<g id="edge14" class="edge">
<title>Node1&#45;&gt;Node12</title>
<path fill="none" stroke="#63b8ff" d="M609.08,-247.69C601.3,-238 591.19,-225.41 582.99,-215.2"/>
<polygon fill="#63b8ff" stroke="#63b8ff" points="585.79,-213.1 576.8,-207.5 580.34,-217.48 585.79,-213.1"/>
</g>
<!-- Node13 -->
<g id="node13" class="node">
<title>Node13</title>
<g id="a_node13"><a xlink:title=" ">
<polygon fill="#e0e0e0" stroke="#999999" points="722.75,-212 628,-212 628,-180 722.75,-180 722.75,-212"/>
<text text-anchor="start" x="636" y="-198.5" font-family="Helvetica,sans-Serif" font-size="10.00">boost/serialization</text>
<text text-anchor="middle" x="675.38" y="-186.5" font-family="Helvetica,sans-Serif" font-size="10.00">/serialization.hpp</text>
</a>
</g>
</g>
<!-- Node1&#45;&gt;Node13 -->
<g id="edge15" class="edge">
<title>Node1&#45;&gt;Node13</title>
<path fill="none" stroke="#63b8ff" d="M633.9,-247.69C640.37,-239.78 648.43,-229.94 655.71,-221.04"/>
<polygon fill="#63b8ff" stroke="#63b8ff" points="658.34,-223.35 661.96,-213.4 652.92,-218.92 658.34,-223.35"/>
</g>
<!-- Node14 -->
<g id="node14" class="node">
<title>Node14</title>
<g id="a_node14"><a xlink:title=" ">
<polygon fill="#e0e0e0" stroke="#999999" points="835.75,-212 741,-212 741,-180 835.75,-180 835.75,-212"/>
<text text-anchor="start" x="749" y="-198.5" font-family="Helvetica,sans-Serif" font-size="10.00">boost/serialization</text>
<text text-anchor="middle" x="788.38" y="-186.5" font-family="Helvetica,sans-Serif" font-size="10.00">/nvp.hpp</text>
</a>
</g>
</g>
<!-- Node1&#45;&gt;Node14 -->
<g id="edge16" class="edge">
<title>Node1&#45;&gt;Node14</title>
<path fill="none" stroke="#63b8ff" d="M660.53,-247.53C683.9,-238.29 713.79,-226.48 738.79,-216.6"/>
<polygon fill="#63b8ff" stroke="#63b8ff" points="739.76,-219.98 747.77,-213.05 737.18,-213.47 739.76,-219.98"/>
</g>
<!-- Node15 -->
<g id="node15" class="node">
<title>Node15</title>
<g id="a_node15"><a xlink:title=" ">
<polygon fill="#e0e0e0" stroke="#999999" points="883.12,-206 853.62,-206 853.62,-186 883.12,-186 883.12,-206"/>
<text text-anchor="middle" x="868.38" y="-192.5" font-family="Helvetica,sans-Serif" font-size="10.00">set</text>
</a>
</g>
</g>
<!-- Node1&#45;&gt;Node15 -->
<g id="edge19" class="edge">
<title>Node1&#45;&gt;Node15</title>
<path fill="none" stroke="#63b8ff" d="M695.84,-252.38C740.11,-244.5 796.75,-231.67 844.38,-212 844.6,-211.91 844.83,-211.81 845.06,-211.71"/>
<polygon fill="#63b8ff" stroke="#63b8ff" points="846.56,-214.88 853.76,-207.1 843.28,-208.69 846.56,-214.88"/>
</g>
<!-- Node16 -->
<g id="node16" class="node">
<title>Node16</title>
<g id="a_node16"><a xlink:title=" ">
<polygon fill="#e0e0e0" stroke="#999999" points="989.75,-206 901,-206 901,-186 989.75,-186 989.75,-206"/>
<text text-anchor="middle" x="945.38" y="-192.5" font-family="Helvetica,sans-Serif" font-size="10.00">boost/thread.hpp</text>
</a>
</g>
</g>
<!-- Node1&#45;&gt;Node16 -->
<g id="edge20" class="edge">
<title>Node1&#45;&gt;Node16</title>
<path fill="none" stroke="#63b8ff" d="M695.65,-250.87C750.32,-241.5 826.31,-227.53 892.38,-212 895.76,-211.2 899.25,-210.33 902.74,-209.42"/>
<polygon fill="#63b8ff" stroke="#63b8ff" points="903.62,-212.81 912.37,-206.82 901.8,-206.05 903.62,-212.81"/>
</g>
<!-- Node2&#45;&gt;Node3 -->
<g id="edge2" class="edge">
<title>Node2&#45;&gt;Node3</title>
<path fill="none" stroke="#63b8ff" d="M274.39,-185.75C230.63,-174.81 157.23,-156.46 105.77,-143.6"/>
<polygon fill="#63b8ff" stroke="#63b8ff" points="106.84,-140.26 96.29,-141.23 105.14,-147.05 106.84,-140.26"/>
</g>
<!-- Node4 -->
<g id="node4" class="node">
<title>Node4</title>
<g id="a_node4"><a xlink:title=" ">
<polygon fill="#e0e0e0" stroke="#999999" points="367,-144 255.75,-144 255.75,-112 367,-112 367,-144"/>
<text text-anchor="start" x="263.75" y="-130.5" font-family="Helvetica,sans-Serif" font-size="10.00">boost/thread/recursive</text>
<text text-anchor="middle" x="311.38" y="-118.5" font-family="Helvetica,sans-Serif" font-size="10.00">_mutex.hpp</text>
</a>
</g>
</g>
<!-- Node2&#45;&gt;Node4 -->
<g id="edge3" class="edge">
<title>Node2&#45;&gt;Node4</title>
<path fill="none" stroke="#63b8ff" d="M311.38,-185.54C311.38,-177.72 311.38,-166.22 311.38,-155.63"/>
<polygon fill="#63b8ff" stroke="#63b8ff" points="314.88,-155.81 311.38,-145.81 307.88,-155.81 314.88,-155.81"/>
</g>
<!-- Node5 -->
<g id="node5" class="node">
<title>Node5</title>
<g id="a_node5"><a xlink:title=" ">
<polygon fill="#e0e0e0" stroke="#999999" points="433.5,-138 385.25,-138 385.25,-118 433.5,-118 433.5,-138"/>
<text text-anchor="middle" x="409.38" y="-124.5" font-family="Helvetica,sans-Serif" font-size="10.00">fstream</text>
</a>
</g>
</g>
<!-- Node2&#45;&gt;Node5 -->
<g id="edge4" class="edge">
<title>Node2&#45;&gt;Node5</title>
<path fill="none" stroke="#63b8ff" d="M325.42,-185.54C341.21,-174.91 367.11,-157.47 385.97,-144.76"/>
<polygon fill="#63b8ff" stroke="#63b8ff" points="387.77,-147.77 394.1,-139.28 383.86,-141.97 387.77,-147.77"/>
</g>
<!-- Node6 -->
<g id="node6" class="node">
<title>Node6</title>
<g id="a_node6"><a xlink:title=" ">
<polygon fill="#e0e0e0" stroke="#999999" points="180.38,-20 140.38,-20 140.38,0 180.38,0 180.38,-20"/>
<text text-anchor="middle" x="160.38" y="-6.5" font-family="Helvetica,sans-Serif" font-size="10.00">string</text>
</a>
</g>
</g>
<!-- Node2&#45;&gt;Node6 -->
<g id="edge5" class="edge">
<title>Node2&#45;&gt;Node6</title>
<path fill="none" stroke="#63b8ff" d="M274.72,-186.46C227.22,-175.02 149.49,-154.91 141.38,-144 116.29,-110.28 135.93,-58.15 149.76,-30.22"/>
<polygon fill="#63b8ff" stroke="#63b8ff" points="152.78,-31.99 154.31,-21.51 146.58,-28.75 152.78,-31.99"/>
</g>
<!-- Node2&#45;&gt;Node7 -->
<g id="edge6" class="edge">
<title>Node2&#45;&gt;Node7</title>
<path fill="none" stroke="#63b8ff" d="M348.32,-190.04C377.94,-184.12 418.38,-171.32 442.38,-144 455.99,-128.5 460.17,-104.77 461.31,-87.75"/>
<polygon fill="#63b8ff" stroke="#63b8ff" points="464.8,-87.92 461.63,-77.81 457.81,-87.69 464.8,-87.92"/>
</g>
<!-- Node8 -->
<g id="node8" class="node">
<title>Node8</title>
<g id="a_node8"><a xlink:href="FMTException_8h.html" target="_top" xlink:title=" ">
<polygon fill="white" stroke="#666666" points="238,-138 150.75,-138 150.75,-118 238,-118 238,-138"/>
<text text-anchor="middle" x="194.38" y="-124.5" font-family="Helvetica,sans-Serif" font-size="10.00">FMTException.h</text>
</a>
</g>
</g>
<!-- Node2&#45;&gt;Node8 -->
<g id="edge7" class="edge">
<title>Node2&#45;&gt;Node8</title>
<path fill="none" stroke="#63b8ff" d="M294.61,-185.54C275.41,-174.71 243.69,-156.82 221.08,-144.06"/>
<polygon fill="#63b8ff" stroke="#63b8ff" points="222.85,-141.05 212.43,-139.18 219.42,-147.14 222.85,-141.05"/>
</g>
<!-- Node8&#45;&gt;Node6 -->
<g id="edge9" class="edge">
<title>Node8&#45;&gt;Node6</title>
<path fill="none" stroke="#63b8ff" d="M191.61,-117.6C188.59,-107.37 183.63,-90.52 179.38,-76 174.96,-60.95 169.99,-43.94 166.24,-31.1"/>
<polygon fill="#63b8ff" stroke="#63b8ff" points="169.66,-30.33 163.5,-21.71 162.94,-32.29 169.66,-30.33"/>
</g>
<!-- Node8&#45;&gt;Node7 -->
<g id="edge11" class="edge">
<title>Node8&#45;&gt;Node7</title>
<path fill="none" stroke="#63b8ff" d="M225.62,-117.58C232.44,-115.64 239.63,-113.68 246.38,-112 308.28,-96.62 381.08,-82.12 424.11,-73.93"/>
<polygon fill="#63b8ff" stroke="#63b8ff" points="424.76,-77.36 433.93,-72.07 423.46,-70.49 424.76,-77.36"/>
</g>
<!-- Node9 -->
<g id="node9" class="node">
<title>Node9</title>
<g id="a_node9"><a xlink:title=" ">
<polygon fill="#e0e0e0" stroke="#999999" points="246.38,-76 188.38,-76 188.38,-56 246.38,-56 246.38,-76"/>
<text text-anchor="middle" x="217.38" y="-62.5" font-family="Helvetica,sans-Serif" font-size="10.00">exception</text>
</a>
</g>
</g>
<!-- Node8&#45;&gt;Node9 -->
<g id="edge8" class="edge">
<title>Node8&#45;&gt;Node9</title>
<path fill="none" stroke="#63b8ff" d="M197.97,-117.62C201.13,-109.39 205.83,-97.13 209.81,-86.74"/>
<polygon fill="#63b8ff" stroke="#63b8ff" points="213.03,-88.12 213.34,-77.53 206.49,-85.61 213.03,-88.12"/>
</g>
<!-- Node10 -->
<g id="node10" class="node">
<title>Node10</title>
<g id="a_node10"><a xlink:title=" ">
<polygon fill="#e0e0e0" stroke="#999999" points="318.12,-76 264.62,-76 264.62,-56 318.12,-56 318.12,-76"/>
<text text-anchor="middle" x="291.38" y="-62.5" font-family="Helvetica,sans-Serif" font-size="10.00">iostream</text>
</a>
</g>
</g>
<!-- Node8&#45;&gt;Node10 -->
<g id="edge10" class="edge">
<title>Node8&#45;&gt;Node10</title>
<path fill="none" stroke="#63b8ff" d="M209.53,-117.62C224.84,-108.16 248.73,-93.38 266.75,-82.23"/>
<polygon fill="#63b8ff" stroke="#63b8ff" points="268.37,-85.34 275.04,-77.11 264.69,-79.39 268.37,-85.34"/>
</g>
<!-- Node11 -->
<g id="node11" class="node">
<title>Node11</title>
<g id="a_node11"><a xlink:href="FMTutility_8h.html" target="_top" xlink:title=" ">
<polygon fill="white" stroke="#666666" points="402.88,-76 335.88,-76 335.88,-56 402.88,-56 402.88,-76"/>
<text text-anchor="middle" x="369.38" y="-62.5" font-family="Helvetica,sans-Serif" font-size="10.00">FMTutility.h</text>
</a>
</g>
</g>
<!-- Node8&#45;&gt;Node11 -->
<g id="edge12" class="edge">
<title>Node8&#45;&gt;Node11</title>
<path fill="none" stroke="#63b8ff" d="M221.72,-117.62C251.17,-107.53 298.24,-91.39 331.31,-80.05"/>
<polygon fill="#63b8ff" stroke="#63b8ff" points="332.18,-83.45 340.5,-76.9 329.91,-76.83 332.18,-83.45"/>
</g>
<!-- Node11&#45;&gt;Node6 -->
<g id="edge13" class="edge">
<title>Node11&#45;&gt;Node6</title>
<path fill="none" stroke="#63b8ff" d="M335.8,-56.32C296.06,-46.06 230.42,-29.1 191.69,-19.09"/>
<polygon fill="#63b8ff" stroke="#63b8ff" points="192.62,-15.72 182.06,-16.6 190.87,-22.49 192.62,-15.72"/>
</g>
</g>
</svg>
