<?xml version="1.0" encoding="UTF-8" standalone="no"?>
<!DOCTYPE svg PUBLIC "-//W3C//DTD SVG 1.1//EN"
 "http://www.w3.org/Graphics/SVG/1.1/DTD/svg11.dtd">
<!-- Generated by graphviz version 8.1.0 (20230707.0739)
 -->
<!-- Title: C:/Temp/out/FMT/Include/FMTeventrelation.hpp Pages: 1 -->
<svg width="860pt" height="220pt"
 viewBox="0.00 0.00 860.38 220.00" xmlns="http://www.w3.org/2000/svg" xmlns:xlink="http://www.w3.org/1999/xlink">
<g id="graph0" class="graph" transform="scale(1 1) rotate(0) translate(4 216)">
<title>C:/Temp/out/FMT/Include/FMTeventrelation.hpp</title>
<!-- Node1 -->
<g id="Node000001" class="node">
<title>Node1</title>
<g id="a_Node000001"><a xlink:title=" ">
<polygon fill="#999999" stroke="#666666" points="546.38,-212 420.88,-212 420.88,-180 546.38,-180 546.38,-212"/>
<text text-anchor="start" x="428.88" y="-198.5" font-family="Helvetica,sans-Serif" font-size="10.00">C:/Temp/out/FMT/Include</text>
<text text-anchor="middle" x="483.62" y="-186.5" font-family="Helvetica,sans-Serif" font-size="10.00">/FMTeventrelation.hpp</text>
</a>
</g>
</g>
<!-- Node2 -->
<g id="Node000002" class="node">
<title>Node2</title>
<g id="a_Node000002"><a xlink:href="FMTcoordinate_8hpp.html" target="_top" xlink:title=" ">
<polygon fill="white" stroke="#666666" points="468.25,-144 369,-144 369,-124 468.25,-124 468.25,-144"/>
<text text-anchor="middle" x="418.62" y="-130.5" font-family="Helvetica,sans-Serif" font-size="10.00">FMTcoordinate.hpp</text>
</a>
</g>
</g>
<!-- Node1&#45;&gt;Node2 -->
<g id="edge1_Node000001_Node000002" class="edge">
<title>Node1&#45;&gt;Node2</title>
<g id="a_edge1_Node000001_Node000002"><a xlink:title=" ">
<path fill="none" stroke="#63b8ff" d="M466.89,-179.55C457.67,-171.04 446.22,-160.48 436.79,-151.77"/>
<polygon fill="#63b8ff" stroke="#63b8ff" points="439.54,-149.62 429.82,-145.41 434.79,-154.76 439.54,-149.62"/>
</a>
</g>
</g>
<!-- Node16 -->
<g id="Node000016" class="node">
<title>Node16</title>
<g id="a_Node000016"><a xlink:title=" ">
<polygon fill="#e0e0e0" stroke="#999999" points="613.12,-144 486.12,-144 486.12,-124 613.12,-124 613.12,-144"/>
<text text-anchor="middle" x="549.62" y="-130.5" font-family="Helvetica,sans-Serif" font-size="10.00">boost/functional/hash.hpp</text>
</a>
</g>
</g>
<!-- Node1&#45;&gt;Node16 -->
<g id="edge17_Node000001_Node000016" class="edge">
<title>Node1&#45;&gt;Node16</title>
<g id="a_edge17_Node000001_Node000016"><a xlink:title=" ">
<path fill="none" stroke="#63b8ff" d="M500.62,-179.55C509.98,-171.04 521.6,-160.48 531.18,-151.77"/>
<polygon fill="#63b8ff" stroke="#63b8ff" points="533.23,-154.72 538.28,-145.41 528.52,-149.54 533.23,-154.72"/>
</a>
</g>
</g>
<!-- Node3 -->
<g id="Node000003" class="node">
<title>Node3</title>
<g id="a_Node000003"><a xlink:title=" ">
<polygon fill="#e0e0e0" stroke="#999999" points="51.25,-20 0,-20 0,0 51.25,0 51.25,-20"/>
<text text-anchor="middle" x="25.62" y="-6.5" font-family="Helvetica,sans-Serif" font-size="10.00">memory</text>
</a>
</g>
</g>
<!-- Node2&#45;&gt;Node3 -->
<g id="edge2_Node000002_Node000003" class="edge">
<title>Node2&#45;&gt;Node3</title>
<g id="a_edge2_Node000002_Node000003"><a xlink:title=" ">
<path fill="none" stroke="#63b8ff" d="M368.56,-131.04C287.03,-127.06 129.95,-115.94 82.62,-88 59.86,-74.56 43.4,-48.13 34.18,-30.02"/>
<polygon fill="#63b8ff" stroke="#63b8ff" points="36.97,-28.75 29.49,-21.25 30.66,-31.78 36.97,-28.75"/>
</a>
</g>
</g>
<!-- Node4 -->
<g id="Node000004" class="node">
<title>Node4</title>
<g id="a_Node000004"><a xlink:title=" ">
<polygon fill="#e0e0e0" stroke="#999999" points="350.88,-82 222.38,-82 222.38,-62 350.88,-62 350.88,-82"/>
<text text-anchor="middle" x="286.62" y="-68.5" font-family="Helvetica,sans-Serif" font-size="10.00">boost/unordered_map.hpp</text>
</a>
</g>
</g>
<!-- Node2&#45;&gt;Node4 -->
<g id="edge3_Node000002_Node000004" class="edge">
<title>Node2&#45;&gt;Node4</title>
<g id="a_edge3_Node000002_Node000004"><a xlink:title=" ">
<path fill="none" stroke="#63b8ff" d="M398,-123.62C376.3,-113.76 341.92,-98.13 317.09,-86.85"/>
<polygon fill="#63b8ff" stroke="#63b8ff" points="318.66,-83.26 308.11,-82.31 315.76,-89.63 318.66,-83.26"/>
</a>
</g>
</g>
<!-- Node5 -->
<g id="Node000005" class="node">
<title>Node5</title>
<g id="a_Node000005"><a xlink:title=" ">
<polygon fill="#e0e0e0" stroke="#999999" points="410.38,-82 368.88,-82 368.88,-62 410.38,-62 410.38,-82"/>
<text text-anchor="middle" x="389.62" y="-68.5" font-family="Helvetica,sans-Serif" font-size="10.00">vector</text>
</a>
</g>
</g>
<!-- Node2&#45;&gt;Node5 -->
<g id="edge4_Node000002_Node000005" class="edge">
<title>Node2&#45;&gt;Node5</title>
<g id="a_edge4_Node000002_Node000005"><a xlink:title=" ">
<path fill="none" stroke="#63b8ff" d="M414.09,-123.62C409.98,-115.12 403.8,-102.33 398.68,-91.74"/>
<polygon fill="#63b8ff" stroke="#63b8ff" points="401.53,-90.59 394.03,-83.11 395.23,-93.64 401.53,-90.59"/>
</a>
</g>
</g>
<!-- Node6 -->
<g id="Node000006" class="node">
<title>Node6</title>
<g id="a_Node000006"><a xlink:title=" ">
<polygon fill="#e0e0e0" stroke="#999999" points="466.5,-82 428.75,-82 428.75,-62 466.5,-62 466.5,-82"/>
<text text-anchor="middle" x="447.62" y="-68.5" font-family="Helvetica,sans-Serif" font-size="10.00">array</text>
</a>
</g>
</g>
<!-- Node2&#45;&gt;Node6 -->
<g id="edge5_Node000002_Node000006" class="edge">
<title>Node2&#45;&gt;Node6</title>
<g id="a_edge5_Node000002_Node000006"><a xlink:title=" ">
<path fill="none" stroke="#63b8ff" d="M423.16,-123.62C427.27,-115.12 433.45,-102.33 438.57,-91.74"/>
<polygon fill="#63b8ff" stroke="#63b8ff" points="442.02,-93.64 443.22,-83.11 435.72,-90.59 442.02,-93.64"/>
</a>
</g>
</g>
<!-- Node7 -->
<g id="Node000007" class="node">
<title>Node7</title>
<g id="a_Node000007"><a xlink:title=" ">
<polygon fill="#e0e0e0" stroke="#999999" points="579,-88 484.25,-88 484.25,-56 579,-56 579,-88"/>
<text text-anchor="start" x="492.25" y="-74.5" font-family="Helvetica,sans-Serif" font-size="10.00">boost/serialization</text>
<text text-anchor="middle" x="531.62" y="-62.5" font-family="Helvetica,sans-Serif" font-size="10.00">/serialization.hpp</text>
</a>
</g>
</g>
<!-- Node2&#45;&gt;Node7 -->
<g id="edge6_Node000002_Node000007" class="edge">
<title>Node2&#45;&gt;Node7</title>
<g id="a_edge6_Node000002_Node000007"><a xlink:title=" ">
<path fill="none" stroke="#63b8ff" d="M436.28,-123.62C451.47,-115.56 473.91,-103.64 493.21,-93.4"/>
<polygon fill="#63b8ff" stroke="#63b8ff" points="494.48,-96.15 501.67,-88.37 491.2,-89.97 494.48,-96.15"/>
</a>
</g>
</g>
<!-- Node8 -->
<g id="Node000008" class="node">
<title>Node8</title>
<g id="a_Node000008"><a xlink:title=" ">
<polygon fill="#e0e0e0" stroke="#999999" points="692,-88 597.25,-88 597.25,-56 692,-56 692,-88"/>
<text text-anchor="start" x="605.25" y="-74.5" font-family="Helvetica,sans-Serif" font-size="10.00">boost/serialization</text>
<text text-anchor="middle" x="644.62" y="-62.5" font-family="Helvetica,sans-Serif" font-size="10.00">/nvp.hpp</text>
</a>
</g>
</g>
<!-- Node2&#45;&gt;Node8 -->
<g id="edge7_Node000002_Node000008" class="edge">
<title>Node2&#45;&gt;Node8</title>
<g id="a_edge7_Node000002_Node000008"><a xlink:title=" ">
<path fill="none" stroke="#63b8ff" d="M454.19,-123.56C489.64,-114.15 544.68,-99.54 586.49,-88.44"/>
<polygon fill="#63b8ff" stroke="#63b8ff" points="587.31,-91.57 596.08,-85.62 585.52,-84.81 587.31,-91.57"/>
</a>
</g>
</g>
<!-- Node9 -->
<g id="Node000009" class="node">
<title>Node9</title>
<g id="a_Node000009"><a xlink:title=" ">
<polygon fill="#e0e0e0" stroke="#999999" points="805,-88 710.25,-88 710.25,-56 805,-56 805,-88"/>
<text text-anchor="start" x="718.25" y="-74.5" font-family="Helvetica,sans-Serif" font-size="10.00">boost/serialization</text>
<text text-anchor="middle" x="757.62" y="-62.5" font-family="Helvetica,sans-Serif" font-size="10.00">/array.hpp</text>
</a>
</g>
</g>
<!-- Node2&#45;&gt;Node9 -->
<g id="edge8_Node000002_Node000009" class="edge">
<title>Node2&#45;&gt;Node9</title>
<g id="a_edge8_Node000002_Node000009"><a xlink:title=" ">
<path fill="none" stroke="#63b8ff" d="M468.62,-125.3C536.92,-114.74 655.15,-96.31 699.24,-88.04"/>
<polygon fill="#63b8ff" stroke="#63b8ff" points="699.68,-91.32 708.81,-85.95 698.32,-84.46 699.68,-91.32"/>
</a>
</g>
</g>
<!-- Node10 -->
<g id="Node000010" class="node">
<title>Node10</title>
<g id="a_Node000010"><a xlink:title=" ">
<polygon fill="#e0e0e0" stroke="#999999" points="109.62,-20 69.62,-20 69.62,0 109.62,0 109.62,-20"/>
<text text-anchor="middle" x="89.62" y="-6.5" font-family="Helvetica,sans-Serif" font-size="10.00">string</text>
</a>
</g>
</g>
<!-- Node2&#45;&gt;Node10 -->
<g id="edge9_Node000002_Node000010" class="edge">
<title>Node2&#45;&gt;Node10</title>
<g id="a_edge9_Node000002_Node000010"><a xlink:title=" ">
<path fill="none" stroke="#63b8ff" d="M368.64,-133.05C288.43,-132 136.25,-125.03 99.62,-88 85.07,-73.28 84.38,-48.51 86.15,-31.05"/>
<polygon fill="#63b8ff" stroke="#63b8ff" points="89.73,-31.73 87.64,-21.34 82.8,-30.76 89.73,-31.73"/>
</a>
</g>
</g>
<!-- Node11 -->
<g id="Node000011" class="node">
<title>Node11</title>
<g id="a_Node000011"><a xlink:title=" ">
<polygon fill="#e0e0e0" stroke="#999999" points="852.38,-82 822.88,-82 822.88,-62 852.38,-62 852.38,-82"/>
<text text-anchor="middle" x="837.62" y="-68.5" font-family="Helvetica,sans-Serif" font-size="10.00">set</text>
</a>
</g>
</g>
<!-- Node2&#45;&gt;Node11 -->
<g id="edge10_Node000002_Node000011" class="edge">
<title>Node2&#45;&gt;Node11</title>
<g id="a_edge10_Node000002_Node000011"><a xlink:title=" ">
<path fill="none" stroke="#63b8ff" d="M468.5,-125.23C471.58,-124.8 474.65,-124.39 477.62,-124 626.56,-104.67 671.67,-137.05 813.62,-88 814.23,-87.79 814.84,-87.56 815.45,-87.32"/>
<polygon fill="#63b8ff" stroke="#63b8ff" points="816.7,-90.1 823.96,-82.39 813.48,-83.88 816.7,-90.1"/>
</a>
</g>
</g>
<!-- Node12 -->
<g id="Node000012" class="node">
<title>Node12</title>
<g id="a_Node000012"><a xlink:href="FMTexception_8hpp.html" target="_top" xlink:title=" ">
<polygon fill="white" stroke="#666666" points="204.75,-82 108.5,-82 108.5,-62 204.75,-62 204.75,-82"/>
<text text-anchor="middle" x="156.62" y="-68.5" font-family="Helvetica,sans-Serif" font-size="10.00">FMTexception.hpp</text>
</a>
</g>
</g>
<!-- Node2&#45;&gt;Node12 -->
<g id="edge11_Node000002_Node000012" class="edge">
<title>Node2&#45;&gt;Node12</title>
<g id="a_edge11_Node000002_Node000012"><a xlink:title=" ">
<path fill="none" stroke="#63b8ff" d="M372.91,-123.53C331.28,-114.77 268.17,-101.16 213.62,-88 209.82,-87.08 205.88,-86.1 201.93,-85.1"/>
<polygon fill="#63b8ff" stroke="#63b8ff" points="203.09,-81.53 192.53,-82.43 201.35,-88.31 203.09,-81.53"/>
</a>
</g>
</g>
<!-- Node12&#45;&gt;Node3 -->
<g id="edge15_Node000012_Node000003" class="edge">
<title>Node12&#45;&gt;Node3</title>
<g id="a_edge15_Node000012_Node000003"><a xlink:title=" ">
<path fill="none" stroke="#63b8ff" d="M136.16,-61.62C114.62,-51.76 80.5,-36.13 55.86,-24.85"/>
<polygon fill="#63b8ff" stroke="#63b8ff" points="57.5,-21.29 46.95,-20.31 54.58,-27.66 57.5,-21.29"/>
</a>
</g>
</g>
<!-- Node12&#45;&gt;Node10 -->
<g id="edge13_Node000012_Node000010" class="edge">
<title>Node12&#45;&gt;Node10</title>
<g id="a_edge13_Node000012_Node000010"><a xlink:title=" ">
<path fill="none" stroke="#63b8ff" d="M146.16,-61.62C135.87,-52.41 119.97,-38.17 107.65,-27.14"/>
<polygon fill="#63b8ff" stroke="#63b8ff" points="110.59,-25.18 100.8,-21.11 105.92,-30.39 110.59,-25.18"/>
</a>
</g>
</g>
<!-- Node13 -->
<g id="Node000013" class="node">
<title>Node13</title>
<g id="a_Node000013"><a xlink:title=" ">
<polygon fill="#e0e0e0" stroke="#999999" points="185.62,-20 127.62,-20 127.62,0 185.62,0 185.62,-20"/>
<text text-anchor="middle" x="156.62" y="-6.5" font-family="Helvetica,sans-Serif" font-size="10.00">exception</text>
</a>
</g>
</g>
<!-- Node12&#45;&gt;Node13 -->
<g id="edge12_Node000012_Node000013" class="edge">
<title>Node12&#45;&gt;Node13</title>
<g id="a_edge12_Node000012_Node000013"><a xlink:title=" ">
<path fill="none" stroke="#63b8ff" d="M156.62,-61.62C156.62,-53.48 156.62,-41.39 156.62,-31.07"/>
<polygon fill="#63b8ff" stroke="#63b8ff" points="160.13,-31.11 156.62,-21.11 153.13,-31.11 160.13,-31.11"/>
</a>
</g>
</g>
<!-- Node14 -->
<g id="Node000014" class="node">
<title>Node14</title>
<g id="a_Node000014"><a xlink:title=" ">
<polygon fill="#e0e0e0" stroke="#999999" points="257.38,-20 203.88,-20 203.88,0 257.38,0 257.38,-20"/>
<text text-anchor="middle" x="230.62" y="-6.5" font-family="Helvetica,sans-Serif" font-size="10.00">iostream</text>
</a>
</g>
</g>
<!-- Node12&#45;&gt;Node14 -->
<g id="edge14_Node000012_Node000014" class="edge">
<title>Node12&#45;&gt;Node14</title>
<g id="a_edge14_Node000012_Node000014"><a xlink:title=" ">
<path fill="none" stroke="#63b8ff" d="M168.19,-61.62C179.66,-52.32 197.45,-37.9 211.11,-26.82"/>
<polygon fill="#63b8ff" stroke="#63b8ff" points="212.82,-29.13 218.39,-20.11 208.41,-23.69 212.82,-29.13"/>
</a>
</g>
</g>
<!-- Node15 -->
<g id="Node000015" class="node">
<title>Node15</title>
<g id="a_Node000015"><a xlink:href="FMTutility_8hpp.html" target="_top" xlink:title=" ">
<polygon fill="white" stroke="#666666" points="353.38,-20 275.88,-20 275.88,0 353.38,0 353.38,-20"/>
<text text-anchor="middle" x="314.62" y="-6.5" font-family="Helvetica,sans-Serif" font-size="10.00">FMTutility.hpp</text>
</a>
</g>
</g>
<!-- Node12&#45;&gt;Node15 -->
<g id="edge16_Node000012_Node000015" class="edge">
<title>Node12&#45;&gt;Node15</title>
<g id="a_edge16_Node000012_Node000015"><a xlink:title=" ">
<path fill="none" stroke="#63b8ff" d="M181.31,-61.62C207.79,-51.57 250.03,-35.53 279.86,-24.2"/>
<polygon fill="#63b8ff" stroke="#63b8ff" points="280.74,-27.23 288.85,-20.41 278.26,-20.69 280.74,-27.23"/>
</a>
</g>
</g>
</g>
</svg>
