<?xml version="1.0" encoding="UTF-8" standalone="no"?>
<!DOCTYPE svg PUBLIC "-//W3C//DTD SVG 1.1//EN"
 "http://www.w3.org/Graphics/SVG/1.1/DTD/svg11.dtd">
<!-- Generated by graphviz version 8.1.0 (20230707.0739)
 -->
<!-- Title: C:/Users/CYRGU3/OneDrive &#45; BuroVirtuel/Bureau/FMT/FMT/Include/FMTfork.hpp Pages: 1 -->
<!--zoomable 300 -->

<svg id="main" version="1.1" xmlns="http://www.w3.org/2000/svg" xmlns:xlink="http://www.w3.org/1999/xlink" xml:space="preserve" onload="init(evt)">
<style type="text/css"><![CDATA[
.node, .edge {opacity: 0.7;}
.node.selected, .edge.selected {opacity: 1;}
.edge:hover path { stroke: red; }
.edge:hover polygon { stroke: red; fill: red; }
]]></style>

<defs>
  <circle id="rim" cx="0" cy="0" r="7"/>
  <circle id="rim2" cx="0" cy="0" r="3.5"/>
  <g id="zoomPlus">
    <use xlink:href="#rim" fill="#404040"><set attributeName="fill" to="#808080" begin="zoomplus.mouseover" end="zoomplus.mouseout"/></use>
    <path d="M-4,0h8M0,-4v8" fill="none" stroke="white" stroke-width="1.5" pointer-events="none"/>
  </g>
  <g id="zoomMin">
    <use xlink:href="#rim" fill="#404040"><set attributeName="fill" to="#808080" begin="zoomminus.mouseover" end="zoomminus.mouseout"/></use>
    <path d="M-4,0h8" fill="none" stroke="white" stroke-width="1.5" pointer-events="none"/>
  </g>
  <g id="arrowUp" transform="translate(30 24)">
    <use xlink:href="#rim"/>
    <path pointer-events="none" fill="none" stroke="white" stroke-width="1.5" d="M0,-3.0v7 M-2.5,-0.5L0,-3.0L2.5,-0.5"/>
  </g>
  <g id="arrowRight" transform="rotate(90) translate(36 -43)">
    <use xlink:href="#rim"/>
    <path pointer-events="none" fill="none" stroke="white" stroke-width="1.5" d="M0,-3.0v7 M-2.5,-0.5L0,-3.0L2.5,-0.5"/>
  </g>
  <g id="arrowDown" transform="rotate(180) translate(-30 -48)">
    <use xlink:href="#rim"/>
    <path pointer-events="none" fill="none" stroke="white" stroke-width="1.5" d="M0,-3.0v7 M-2.5,-0.5L0,-3.0L2.5,-0.5"/>
  </g>
  <g id="arrowLeft" transform="rotate(270) translate(-36 17)">
    <use xlink:href="#rim"/>
    <path pointer-events="none" fill="none" stroke="white" stroke-width="1.5" d="M0,-3.0v7 M-2.5,-0.5L0,-3.0L2.5,-0.5"/>
  </g>
  <g id="resetDef">
    <use xlink:href="#rim2" fill="#404040"><set attributeName="fill" to="#808080" begin="reset.mouseover" end="reset.mouseout"/></use>
  </g>
</defs>
<script type="application/ecmascript">
var viewWidth = 2159;
var viewHeight = 300;
var sectionId = 'dynsection-0';
</script>
<script type="application/ecmascript" xlink:href="svg.min.js"/>
<svg id="graph" class="graph">
<g id="viewport">
<title>C:/Users/CYRGU3/OneDrive &#45; BuroVirtuel/Bureau/FMT/FMT/Include/FMTfork.hpp</title>
<!-- Node1 -->
<g id="Node000001" class="node">
<title>Node1</title>
<g id="a_Node000001"><a xlink:title=" ">
<polygon fill="#999999" stroke="#666666" points="972.01,-292 833.01,-292 833.01,-248 972.01,-248 972.01,-292"/>
<text text-anchor="start" x="841.01" y="-278.5" font-family="Helvetica,sans-Serif" font-size="10.00">C:/Users/CYRGU3/OneDrive</text>
<text text-anchor="start" x="841.01" y="-266.5" font-family="Helvetica,sans-Serif" font-size="10.00"> &#45; BuroVirtuel/Bureau/FMT</text>
<text text-anchor="middle" x="902.51" y="-254.5" font-family="Helvetica,sans-Serif" font-size="10.00">/FMT/Include/FMTfork.hpp</text>
</a>
</g>
</g>
<!-- Node2 -->
<g id="Node000002" class="node">
<title>Node2</title>
<g id="a_Node000002"><a xlink:href="FMTtransitionmask_8hpp.html" target="_top" xlink:title=" ">
<polygon fill="white" stroke="#666666" points="465.51,-206 347.51,-206 347.51,-186 465.51,-186 465.51,-206"/>
<text text-anchor="middle" x="406.51" y="-192.5" font-family="Helvetica,sans-Serif" font-size="10.00">FMTtransitionmask.hpp</text>
</a>
</g>
</g>
<!-- Node1&#45;&gt;Node2 -->
<g id="edge1_Node000001_Node000002" class="edge">
<title>Node1&#45;&gt;Node2</title>
<g id="a_edge1_Node000001_Node000002"><a xlink:title=" ">
<path fill="none" stroke="#63b8ff" d="M832.76,-258.87C738.43,-245.18 571.16,-220.9 476.64,-207.18"/>
<polygon fill="#63b8ff" stroke="#63b8ff" points="477.17,-203.58 466.77,-205.6 476.16,-210.5 477.17,-203.58"/>
</a>
</g>
</g>
<!-- Node3 -->
<g id="Node000003" class="node">
<title>Node3</title>
<g id="a_Node000003"><a xlink:href="FMTbounds_8hpp.html" target="_top" xlink:title=" ">
<polygon fill="white" stroke="#666666" points="362.38,-144 276.63,-144 276.63,-124 362.38,-124 362.38,-144"/>
<text text-anchor="middle" x="319.51" y="-130.5" font-family="Helvetica,sans-Serif" font-size="10.00">FMTbounds.hpp</text>
</a>
</g>
</g>
<!-- Node1&#45;&gt;Node3 -->
<g id="edge42_Node000001_Node000003" class="edge">
<title>Node1&#45;&gt;Node3</title>
<g id="a_edge42_Node000001_Node000003"><a xlink:title=" ">
<path fill="none" stroke="#63b8ff" d="M832.55,-266.39C689.77,-260.42 375.14,-243.79 338.51,-212 322.45,-198.07 318.85,-172.94 318.52,-155.18"/>
<polygon fill="#63b8ff" stroke="#63b8ff" points="322.04,-155.35 318.7,-145.3 315.04,-155.24 322.04,-155.35"/>
</a>
</g>
</g>
<!-- Node12 -->
<g id="Node000012" class="node">
<title>Node12</title>
<g id="a_Node000012"><a xlink:title=" ">
<polygon fill="#e0e0e0" stroke="#999999" points="739.26,-82 697.76,-82 697.76,-62 739.26,-62 739.26,-82"/>
<text text-anchor="middle" x="718.51" y="-68.5" font-family="Helvetica,sans-Serif" font-size="10.00">vector</text>
</a>
</g>
</g>
<!-- Node1&#45;&gt;Node12 -->
<g id="edge43_Node000001_Node000012" class="edge">
<title>Node1&#45;&gt;Node12</title>
<g id="a_edge43_Node000001_Node000012"><a xlink:title=" ">
<path fill="none" stroke="#63b8ff" d="M882.47,-247.65C845.56,-208.34 767.58,-125.27 734.2,-89.72"/>
<polygon fill="#63b8ff" stroke="#63b8ff" points="737.48,-88.03 728.08,-83.13 732.37,-92.82 737.48,-88.03"/>
</a>
</g>
</g>
<!-- Node14 -->
<g id="Node000014" class="node">
<title>Node14</title>
<g id="a_Node000014"><a xlink:title=" ">
<polygon fill="#e0e0e0" stroke="#999999" points="175.88,-88 81.13,-88 81.13,-56 175.88,-56 175.88,-88"/>
<text text-anchor="start" x="89.13" y="-74.5" font-family="Helvetica,sans-Serif" font-size="10.00">boost/serialization</text>
<text text-anchor="middle" x="128.51" y="-62.5" font-family="Helvetica,sans-Serif" font-size="10.00">/serialization.hpp</text>
</a>
</g>
</g>
<!-- Node1&#45;&gt;Node14 -->
<g id="edge44_Node000001_Node000014" class="edge">
<title>Node1&#45;&gt;Node14</title>
<g id="a_edge44_Node000001_Node000014"><a xlink:title=" ">
<path fill="none" stroke="#63b8ff" d="M832.64,-266.62C698.78,-261.34 411.18,-246.29 318.51,-212 249.6,-186.51 183.78,-128.28 150.69,-95.86"/>
<polygon fill="#63b8ff" stroke="#63b8ff" points="153.56,-93.78 144,-89.2 148.62,-98.74 153.56,-93.78"/>
</a>
</g>
</g>
<!-- Node15 -->
<g id="Node000015" class="node">
<title>Node15</title>
<g id="a_Node000015"><a xlink:title=" ">
<polygon fill="#e0e0e0" stroke="#999999" points="997.88,-88 903.13,-88 903.13,-56 997.88,-56 997.88,-88"/>
<text text-anchor="start" x="911.13" y="-74.5" font-family="Helvetica,sans-Serif" font-size="10.00">boost/serialization</text>
<text text-anchor="middle" x="950.51" y="-62.5" font-family="Helvetica,sans-Serif" font-size="10.00">/nvp.hpp</text>
</a>
</g>
</g>
<!-- Node1&#45;&gt;Node15 -->
<g id="edge46_Node000001_Node000015" class="edge">
<title>Node1&#45;&gt;Node15</title>
<g id="a_edge46_Node000001_Node000015"><a xlink:title=" ">
<path fill="none" stroke="#63b8ff" d="M897.81,-247.93C892.37,-218.88 886.08,-165.42 902.51,-124 906.74,-113.32 914.39,-103.57 922.36,-95.53"/>
<polygon fill="#63b8ff" stroke="#63b8ff" points="924.41,-98.47 929.31,-89.08 919.62,-93.36 924.41,-98.47"/>
</a>
</g>
</g>
<!-- Node24 -->
<g id="Node000024" class="node">
<title>Node24</title>
<g id="a_Node000024"><a xlink:title=" ">
<polygon fill="#e0e0e0" stroke="#999999" points="1794.88,-88 1700.13,-88 1700.13,-56 1794.88,-56 1794.88,-88"/>
<text text-anchor="start" x="1708.13" y="-74.5" font-family="Helvetica,sans-Serif" font-size="10.00">boost/serialization</text>
<text text-anchor="middle" x="1747.51" y="-62.5" font-family="Helvetica,sans-Serif" font-size="10.00">/export.hpp</text>
</a>
</g>
</g>
<!-- Node1&#45;&gt;Node24 -->
<g id="edge47_Node000001_Node000024" class="edge">
<title>Node1&#45;&gt;Node24</title>
<g id="a_edge47_Node000001_Node000024"><a xlink:title=" ">
<path fill="none" stroke="#63b8ff" d="M915.37,-247.76C929.34,-226.75 953.69,-195.56 983.51,-180 1261.28,-35.07 1376.93,-146.33 1689.01,-88.1"/>
<polygon fill="#63b8ff" stroke="#63b8ff" points="1689.55,-91.37 1698.72,-86.05 1688.24,-84.49 1689.55,-91.37"/>
</a>
</g>
</g>
<!-- Node26 -->
<g id="Node000026" class="node">
<title>Node26</title>
<g id="a_Node000026"><a xlink:title=" ">
<polygon fill="#e0e0e0" stroke="#999999" points="1131.63,-212 1035.38,-212 1035.38,-180 1131.63,-180 1131.63,-212"/>
<text text-anchor="start" x="1043.38" y="-198.5" font-family="Helvetica,sans-Serif" font-size="10.00">boost/serialization</text>
<text text-anchor="middle" x="1083.51" y="-186.5" font-family="Helvetica,sans-Serif" font-size="10.00">/split_member.hpp</text>
</a>
</g>
</g>
<!-- Node1&#45;&gt;Node26 -->
<g id="edge45_Node000001_Node000026" class="edge">
<title>Node1&#45;&gt;Node26</title>
<g id="a_edge45_Node000001_Node000026"><a xlink:title=" ">
<path fill="none" stroke="#63b8ff" d="M956.32,-247.59C981.12,-237.73 1010.35,-226.1 1034.53,-216.48"/>
<polygon fill="#63b8ff" stroke="#63b8ff" points="1035.55,-219.44 1043.55,-212.5 1032.97,-212.94 1035.55,-219.44"/>
</a>
</g>
</g>
<!-- Node27 -->
<g id="Node000027" class="node">
<title>Node27</title>
<g id="a_Node000027"><a xlink:title=" ">
<polygon fill="#e0e0e0" stroke="#999999" points="1244.88,-212 1150.13,-212 1150.13,-180 1244.88,-180 1244.88,-212"/>
<text text-anchor="start" x="1158.13" y="-198.5" font-family="Helvetica,sans-Serif" font-size="10.00">boost/serialization</text>
<text text-anchor="middle" x="1197.51" y="-186.5" font-family="Helvetica,sans-Serif" font-size="10.00">/unique_ptr.hpp</text>
</a>
</g>
</g>
<!-- Node1&#45;&gt;Node27 -->
<g id="edge48_Node000001_Node000027" class="edge">
<title>Node1&#45;&gt;Node27</title>
<g id="a_edge48_Node000001_Node000027"><a xlink:title=" ">
<path fill="none" stroke="#63b8ff" d="M972.38,-252.7C1017.36,-242.1 1077.33,-227.79 1139.27,-212.28"/>
<polygon fill="#63b8ff" stroke="#63b8ff" points="1139.79,-215.51 1148.63,-209.68 1138.08,-208.72 1139.79,-215.51"/>
</a>
</g>
</g>
<!-- Node28 -->
<g id="Node000028" class="node">
<title>Node28</title>
<g id="a_Node000028"><a xlink:title=" ">
<polygon fill="#e0e0e0" stroke="#999999" points="1357.88,-212 1263.13,-212 1263.13,-180 1357.88,-180 1357.88,-212"/>
<text text-anchor="start" x="1271.13" y="-198.5" font-family="Helvetica,sans-Serif" font-size="10.00">boost/serialization</text>
<text text-anchor="middle" x="1310.51" y="-186.5" font-family="Helvetica,sans-Serif" font-size="10.00">/vector.hpp</text>
</a>
</g>
</g>
<!-- Node1&#45;&gt;Node28 -->
<g id="edge49_Node000001_Node000028" class="edge">
<title>Node1&#45;&gt;Node28</title>
<g id="a_edge49_Node000001_Node000028"><a xlink:title=" ">
<path fill="none" stroke="#63b8ff" d="M972.47,-259.66C1041.22,-250.03 1149.26,-233.67 1252.12,-212.17"/>
<polygon fill="#63b8ff" stroke="#63b8ff" points="1252.63,-215.43 1261.69,-209.94 1251.19,-208.58 1252.63,-215.43"/>
</a>
</g>
</g>
<!-- Node29 -->
<g id="Node000029" class="node">
<title>Node29</title>
<g id="a_Node000029"><a xlink:href="FMTobject_8hpp.html" target="_top" xlink:title=" ">
<polygon fill="white" stroke="#666666" points="1787.76,-144 1707.26,-144 1707.26,-124 1787.76,-124 1787.76,-144"/>
<text text-anchor="middle" x="1747.51" y="-130.5" font-family="Helvetica,sans-Serif" font-size="10.00">FMTobject.hpp</text>
</a>
</g>
</g>
<!-- Node1&#45;&gt;Node29 -->
<g id="edge50_Node000001_Node000029" class="edge">
<title>Node1&#45;&gt;Node29</title>
<g id="a_edge50_Node000001_Node000029"><a xlink:title=" ">
<path fill="none" stroke="#63b8ff" d="M933.41,-247.54C948.58,-236.94 967.07,-223.9 983.51,-212 1002.81,-198.03 1004.14,-188.19 1026.51,-180 1149.61,-134.92 1552.46,-133.46 1696.08,-134.44"/>
<polygon fill="#63b8ff" stroke="#63b8ff" points="1695.74,-137.94 1705.77,-134.52 1695.79,-130.94 1695.74,-137.94"/>
</a>
</g>
</g>
<!-- Node2&#45;&gt;Node3 -->
<g id="edge2_Node000002_Node000003" class="edge">
<title>Node2&#45;&gt;Node3</title>
<g id="a_edge2_Node000002_Node000003"><a xlink:title=" ">
<path fill="none" stroke="#63b8ff" d="M392.91,-185.62C379.25,-176.2 357.96,-161.52 341.82,-150.39"/>
<polygon fill="#63b8ff" stroke="#63b8ff" points="344.22,-147.11 334.01,-144.31 340.25,-152.87 344.22,-147.11"/>
</a>
</g>
</g>
<!-- Node8 -->
<g id="Node000008" class="node">
<title>Node8</title>
<g id="a_Node000008"><a xlink:title=" ">
<polygon fill="#e0e0e0" stroke="#999999" points="1045.51,-20 1005.51,-20 1005.51,0 1045.51,0 1045.51,-20"/>
<text text-anchor="middle" x="1025.51" y="-6.5" font-family="Helvetica,sans-Serif" font-size="10.00">string</text>
</a>
</g>
</g>
<!-- Node2&#45;&gt;Node8 -->
<g id="edge40_Node000002_Node000008" class="edge">
<title>Node2&#45;&gt;Node8</title>
<g id="a_edge40_Node000002_Node000008"><a xlink:title=" ">
<path fill="none" stroke="#63b8ff" d="M401.4,-185.71C388.56,-160.95 358.29,-92.74 392.51,-56 433.88,-11.58 873.17,-10.29 994.57,-10.79"/>
<polygon fill="#63b8ff" stroke="#63b8ff" points="994.29,-14.29 1004.31,-10.84 994.32,-7.3 994.29,-14.29"/>
</a>
</g>
</g>
<!-- Node11 -->
<g id="Node000011" class="node">
<title>Node11</title>
<g id="a_Node000011"><a xlink:href="FMTutility_8hpp.html" target="_top" xlink:title=" ">
<polygon fill="white" stroke="#666666" points="541.26,-20 463.76,-20 463.76,0 541.26,0 541.26,-20"/>
<text text-anchor="middle" x="502.51" y="-6.5" font-family="Helvetica,sans-Serif" font-size="10.00">FMTutility.hpp</text>
</a>
</g>
</g>
<!-- Node2&#45;&gt;Node11 -->
<g id="edge41_Node000002_Node000011" class="edge">
<title>Node2&#45;&gt;Node11</title>
<g id="a_edge41_Node000002_Node000011"><a xlink:title=" ">
<path fill="none" stroke="#63b8ff" d="M347.21,-193.2C216.55,-187.27 -77.14,-162.07 19.51,-56 48.29,-24.41 335,-14.63 452.59,-11.93"/>
<polygon fill="#63b8ff" stroke="#63b8ff" points="452.51,-15.41 462.43,-11.69 452.35,-8.41 452.51,-15.41"/>
</a>
</g>
</g>
<!-- Node2&#45;&gt;Node14 -->
<g id="edge39_Node000002_Node000014" class="edge">
<title>Node2&#45;&gt;Node14</title>
<g id="a_edge39_Node000002_Node000014"><a xlink:title=" ">
<path fill="none" stroke="#63b8ff" d="M377.62,-185.54C349.23,-175.98 304.84,-160.31 267.51,-144 232.34,-128.64 193.55,-108.54 165.9,-93.66"/>
<polygon fill="#63b8ff" stroke="#63b8ff" points="167.71,-90.11 157.25,-88.43 164.37,-96.27 167.71,-90.11"/>
</a>
</g>
</g>
<!-- Node18 -->
<g id="Node000018" class="node">
<title>Node18</title>
<g id="a_Node000018"><a xlink:href="FMTmask_8hpp.html" target="_top" xlink:title=" ">
<polygon fill="white" stroke="#666666" points="989.63,-144 911.38,-144 911.38,-124 989.63,-124 989.63,-144"/>
<text text-anchor="middle" x="950.51" y="-130.5" font-family="Helvetica,sans-Serif" font-size="10.00">FMTmask.hpp</text>
</a>
</g>
</g>
<!-- Node2&#45;&gt;Node18 -->
<g id="edge18_Node000002_Node000018" class="edge">
<title>Node2&#45;&gt;Node18</title>
<g id="a_edge18_Node000002_Node000018"><a xlink:title=" ">
<path fill="none" stroke="#63b8ff" d="M465.76,-188.46C573.52,-176.58 799.74,-151.63 900.38,-140.53"/>
<polygon fill="#63b8ff" stroke="#63b8ff" points="900.6,-143.92 910.15,-139.34 899.83,-136.96 900.6,-143.92"/>
</a>
</g>
</g>
<!-- Node25 -->
<g id="Node000025" class="node">
<title>Node25</title>
<g id="a_Node000025"><a xlink:href="FMTmaskfilter_8hpp.html" target="_top" xlink:title=" ">
<polygon fill="white" stroke="#666666" points="717.63,-144 621.38,-144 621.38,-124 717.63,-124 717.63,-144"/>
<text text-anchor="middle" x="669.51" y="-130.5" font-family="Helvetica,sans-Serif" font-size="10.00">FMTmaskfilter.hpp</text>
</a>
</g>
</g>
<!-- Node2&#45;&gt;Node25 -->
<g id="edge32_Node000002_Node000025" class="edge">
<title>Node2&#45;&gt;Node25</title>
<g id="a_edge32_Node000002_Node000025"><a xlink:title=" ">
<path fill="none" stroke="#63b8ff" d="M447.89,-185.56C493.71,-175.11 567.66,-158.24 617.4,-146.89"/>
<polygon fill="#63b8ff" stroke="#63b8ff" points="617.96,-150.12 626.93,-144.48 616.4,-143.3 617.96,-150.12"/>
</a>
</g>
</g>
<!-- Node4 -->
<g id="Node000004" class="node">
<title>Node4</title>
<g id="a_Node000004"><a xlink:title=" ">
<polygon fill="#e0e0e0" stroke="#999999" points="233.13,-82 193.88,-82 193.88,-62 233.13,-62 233.13,-82"/>
<text text-anchor="middle" x="213.51" y="-68.5" font-family="Helvetica,sans-Serif" font-size="10.00">limits</text>
</a>
</g>
</g>
<!-- Node3&#45;&gt;Node4 -->
<g id="edge3_Node000003_Node000004" class="edge">
<title>Node3&#45;&gt;Node4</title>
<g id="a_edge3_Node000003_Node000004"><a xlink:title=" ">
<path fill="none" stroke="#63b8ff" d="M302.94,-123.62C285.91,-113.98 259.14,-98.83 239.32,-87.61"/>
<polygon fill="#63b8ff" stroke="#63b8ff" points="241.38,-84.19 230.95,-82.31 237.93,-90.28 241.38,-84.19"/>
</a>
</g>
</g>
<!-- Node5 -->
<g id="Node000005" class="node">
<title>Node5</title>
<g id="a_Node000005"><a xlink:title=" ">
<polygon fill="#e0e0e0" stroke="#999999" points="62.88,-82 28.13,-82 28.13,-62 62.88,-62 62.88,-82"/>
<text text-anchor="middle" x="45.51" y="-68.5" font-family="Helvetica,sans-Serif" font-size="10.00">map</text>
</a>
</g>
</g>
<!-- Node3&#45;&gt;Node5 -->
<g id="edge4_Node000003_Node000005" class="edge">
<title>Node3&#45;&gt;Node5</title>
<g id="a_edge4_Node000003_Node000005"><a xlink:title=" ">
<path fill="none" stroke="#63b8ff" d="M276.45,-129.45C226.28,-124.34 141.45,-112.67 72.51,-88 71.75,-87.73 70.99,-87.44 70.23,-87.13"/>
<polygon fill="#63b8ff" stroke="#63b8ff" points="72.05,-83.64 61.52,-82.47 69.02,-89.95 72.05,-83.64"/>
</a>
</g>
</g>
<!-- Node6 -->
<g id="Node000006" class="node">
<title>Node6</title>
<g id="a_Node000006"><a xlink:href="FMTexception_8hpp.html" target="_top" xlink:title=" ">
<polygon fill="white" stroke="#666666" points="1295.63,-82 1199.38,-82 1199.38,-62 1295.63,-62 1295.63,-82"/>
<text text-anchor="middle" x="1247.51" y="-68.5" font-family="Helvetica,sans-Serif" font-size="10.00">FMTexception.hpp</text>
</a>
</g>
</g>
<!-- Node3&#45;&gt;Node6 -->
<g id="edge5_Node000003_Node000006" class="edge">
<title>Node3&#45;&gt;Node6</title>
<g id="a_edge5_Node000003_Node000006"><a xlink:title=" ">
<path fill="none" stroke="#63b8ff" d="M362.85,-131.28C527.42,-124.7 1108.45,-100.78 1190.51,-88 1195.55,-87.21 1200.79,-86.17 1205.96,-84.99"/>
<polygon fill="#63b8ff" stroke="#63b8ff" points="1206.52,-88.21 1215.39,-82.42 1204.85,-81.41 1206.52,-88.21"/>
</a>
</g>
</g>
<!-- Node3&#45;&gt;Node11 -->
<g id="edge11_Node000003_Node000011" class="edge">
<title>Node3&#45;&gt;Node11</title>
<g id="a_edge11_Node000003_Node000011"><a xlink:title=" ">
<path fill="none" stroke="#63b8ff" d="M321.81,-123.7C326.29,-107.55 337.7,-74.3 359.51,-56 385.78,-33.94 422.91,-22.67 452.75,-16.92"/>
<polygon fill="#63b8ff" stroke="#63b8ff" points="453.14,-20.23 462.38,-15.05 451.93,-13.34 453.14,-20.23"/>
</a>
</g>
</g>
<!-- Node3&#45;&gt;Node12 -->
<g id="edge12_Node000003_Node000012" class="edge">
<title>Node3&#45;&gt;Node12</title>
<g id="a_edge12_Node000003_Node000012"><a xlink:title=" ">
<path fill="none" stroke="#63b8ff" d="M362.79,-128.26C426.18,-121.07 547.88,-106.26 650.51,-88 662.5,-85.87 675.59,-83.09 687.06,-80.5"/>
<polygon fill="#63b8ff" stroke="#63b8ff" points="687.5,-83.76 696.46,-78.11 685.93,-76.94 687.5,-83.76"/>
</a>
</g>
</g>
<!-- Node13 -->
<g id="Node000013" class="node">
<title>Node13</title>
<g id="a_Node000013"><a xlink:title=" ">
<polygon fill="#e0e0e0" stroke="#999999" points="641.01,-82 514.01,-82 514.01,-62 641.01,-62 641.01,-82"/>
<text text-anchor="middle" x="577.51" y="-68.5" font-family="Helvetica,sans-Serif" font-size="10.00">boost/functional/hash.hpp</text>
</a>
</g>
</g>
<!-- Node3&#45;&gt;Node13 -->
<g id="edge13_Node000003_Node000013" class="edge">
<title>Node3&#45;&gt;Node13</title>
<g id="a_edge13_Node000003_Node000013"><a xlink:title=" ">
<path fill="none" stroke="#63b8ff" d="M360.1,-123.56C404.96,-113.13 477.29,-96.31 526.08,-84.96"/>
<polygon fill="#63b8ff" stroke="#63b8ff" points="526.77,-88.16 535.72,-82.48 525.19,-81.34 526.77,-88.16"/>
</a>
</g>
</g>
<!-- Node3&#45;&gt;Node14 -->
<g id="edge14_Node000003_Node000014" class="edge">
<title>Node3&#45;&gt;Node14</title>
<g id="a_edge14_Node000003_Node000014"><a xlink:title=" ">
<path fill="none" stroke="#63b8ff" d="M289.66,-123.62C262.18,-114.99 220.65,-101.95 186.63,-91.26"/>
<polygon fill="#63b8ff" stroke="#63b8ff" points="187.92,-87.68 177.33,-88.02 185.83,-94.36 187.92,-87.68"/>
</a>
</g>
</g>
<!-- Node3&#45;&gt;Node15 -->
<g id="edge15_Node000003_Node000015" class="edge">
<title>Node3&#45;&gt;Node15</title>
<g id="a_edge15_Node000003_Node000015"><a xlink:title=" ">
<path fill="none" stroke="#63b8ff" d="M362.76,-132.32C457.31,-130.25 689.51,-122.03 891.84,-88.27"/>
<polygon fill="#63b8ff" stroke="#63b8ff" points="892.4,-91.55 901.67,-86.43 891.23,-84.65 892.4,-91.55"/>
</a>
</g>
</g>
<!-- Node16 -->
<g id="Node000016" class="node">
<title>Node16</title>
<g id="a_Node000016"><a xlink:title=" ">
<polygon fill="#e0e0e0" stroke="#999999" points="495.88,-88 401.13,-88 401.13,-56 495.88,-56 495.88,-88"/>
<text text-anchor="start" x="409.13" y="-74.5" font-family="Helvetica,sans-Serif" font-size="10.00">boost/serialization</text>
<text text-anchor="middle" x="448.51" y="-62.5" font-family="Helvetica,sans-Serif" font-size="10.00">/string.hpp</text>
</a>
</g>
</g>
<!-- Node3&#45;&gt;Node16 -->
<g id="edge16_Node000003_Node000016" class="edge">
<title>Node3&#45;&gt;Node16</title>
<g id="a_edge16_Node000003_Node000016"><a xlink:title=" ">
<path fill="none" stroke="#63b8ff" d="M339.66,-123.62C357.18,-115.48 383.14,-103.4 405.32,-93.09"/>
<polygon fill="#63b8ff" stroke="#63b8ff" points="406.61,-95.88 414.2,-88.49 403.66,-89.53 406.61,-95.88"/>
</a>
</g>
</g>
<!-- Node17 -->
<g id="Node000017" class="node">
<title>Node17</title>
<g id="a_Node000017"><a xlink:title=" ">
<polygon fill="#e0e0e0" stroke="#999999" points="307.38,-82 251.63,-82 251.63,-62 307.38,-62 307.38,-82"/>
<text text-anchor="middle" x="279.51" y="-68.5" font-family="Helvetica,sans-Serif" font-size="10.00">algorithm</text>
</a>
</g>
</g>
<!-- Node3&#45;&gt;Node17 -->
<g id="edge17_Node000003_Node000017" class="edge">
<title>Node3&#45;&gt;Node17</title>
<g id="a_edge17_Node000003_Node000017"><a xlink:title=" ">
<path fill="none" stroke="#63b8ff" d="M313.26,-123.62C307.47,-114.94 298.71,-101.8 291.56,-91.08"/>
<polygon fill="#63b8ff" stroke="#63b8ff" points="294.04,-89.49 285.58,-83.11 288.22,-93.37 294.04,-89.49"/>
</a>
</g>
</g>
<!-- Node7 -->
<g id="Node000007" class="node">
<title>Node7</title>
<g id="a_Node000007"><a xlink:title=" ">
<polygon fill="#e0e0e0" stroke="#999999" points="1239.51,-20 1181.51,-20 1181.51,0 1239.51,0 1239.51,-20"/>
<text text-anchor="middle" x="1210.51" y="-6.5" font-family="Helvetica,sans-Serif" font-size="10.00">exception</text>
</a>
</g>
</g>
<!-- Node6&#45;&gt;Node7 -->
<g id="edge6_Node000006_Node000007" class="edge">
<title>Node6&#45;&gt;Node7</title>
<g id="a_edge6_Node000006_Node000007"><a xlink:title=" ">
<path fill="none" stroke="#63b8ff" d="M1241.73,-61.62C1236.43,-53.03 1228.43,-40.07 1221.86,-29.41"/>
<polygon fill="#63b8ff" stroke="#63b8ff" points="1224.35,-27.79 1216.13,-21.11 1218.4,-31.46 1224.35,-27.79"/>
</a>
</g>
</g>
<!-- Node6&#45;&gt;Node8 -->
<g id="edge7_Node000006_Node000008" class="edge">
<title>Node6&#45;&gt;Node8</title>
<g id="a_edge7_Node000006_Node000008"><a xlink:title=" ">
<path fill="none" stroke="#63b8ff" d="M1212.82,-61.62C1169.92,-50.03 1097.56,-30.47 1056.46,-19.37"/>
<polygon fill="#63b8ff" stroke="#63b8ff" points="1057.56,-15.77 1046.99,-16.54 1055.73,-22.53 1057.56,-15.77"/>
</a>
</g>
</g>
<!-- Node9 -->
<g id="Node000009" class="node">
<title>Node9</title>
<g id="a_Node000009"><a xlink:title=" ">
<polygon fill="#e0e0e0" stroke="#999999" points="1311.26,-20 1257.76,-20 1257.76,0 1311.26,0 1311.26,-20"/>
<text text-anchor="middle" x="1284.51" y="-6.5" font-family="Helvetica,sans-Serif" font-size="10.00">iostream</text>
</a>
</g>
</g>
<!-- Node6&#45;&gt;Node9 -->
<g id="edge8_Node000006_Node000009" class="edge">
<title>Node6&#45;&gt;Node9</title>
<g id="a_edge8_Node000006_Node000009"><a xlink:title=" ">
<path fill="none" stroke="#63b8ff" d="M1253.29,-61.62C1258.59,-53.03 1266.58,-40.07 1273.16,-29.41"/>
<polygon fill="#63b8ff" stroke="#63b8ff" points="1276.62,-31.46 1278.89,-21.11 1270.66,-27.79 1276.62,-31.46"/>
</a>
</g>
</g>
<!-- Node10 -->
<g id="Node000010" class="node">
<title>Node10</title>
<g id="a_Node000010"><a xlink:title=" ">
<polygon fill="#e0e0e0" stroke="#999999" points="1632.13,-20 1580.88,-20 1580.88,0 1632.13,0 1632.13,-20"/>
<text text-anchor="middle" x="1606.51" y="-6.5" font-family="Helvetica,sans-Serif" font-size="10.00">memory</text>
</a>
</g>
</g>
<!-- Node6&#45;&gt;Node10 -->
<g id="edge9_Node000006_Node000010" class="edge">
<title>Node6&#45;&gt;Node10</title>
<g id="a_edge9_Node000006_Node000010"><a xlink:title=" ">
<path fill="none" stroke="#63b8ff" d="M1281.12,-61.5C1288.77,-59.52 1296.89,-57.57 1304.51,-56 1399.43,-36.5 1512.79,-21.9 1569.85,-15.15"/>
<polygon fill="#63b8ff" stroke="#63b8ff" points="1569.96,-18.54 1579.48,-13.9 1569.15,-11.59 1569.96,-18.54"/>
</a>
</g>
</g>
<!-- Node6&#45;&gt;Node11 -->
<g id="edge10_Node000006_Node000011" class="edge">
<title>Node6&#45;&gt;Node11</title>
<g id="a_edge10_Node000006_Node000011"><a xlink:title=" ">
<path fill="none" stroke="#63b8ff" d="M1216.08,-61.58C1207.83,-59.42 1198.89,-57.36 1190.51,-56 953.83,-17.48 666.26,-11.69 552.39,-10.99"/>
<polygon fill="#63b8ff" stroke="#63b8ff" points="552.61,-7.49 542.6,-10.94 552.58,-14.49 552.61,-7.49"/>
</a>
</g>
</g>
<!-- Node18&#45;&gt;Node6 -->
<g id="edge29_Node000018_Node000006" class="edge">
<title>Node18&#45;&gt;Node6</title>
<g id="a_edge29_Node000018_Node000006"><a xlink:title=" ">
<path fill="none" stroke="#63b8ff" d="M990.12,-125.93C1048.02,-115.54 1152.97,-96.45 1190.51,-88 1194.55,-87.09 1198.73,-86.09 1202.92,-85.06"/>
<polygon fill="#63b8ff" stroke="#63b8ff" points="1203.41,-88.29 1212.24,-82.44 1201.69,-81.51 1203.41,-88.29"/>
</a>
</g>
</g>
<!-- Node18&#45;&gt;Node8 -->
<g id="edge31_Node000018_Node000008" class="edge">
<title>Node18&#45;&gt;Node8</title>
<g id="a_edge31_Node000018_Node000008"><a xlink:title=" ">
<path fill="none" stroke="#63b8ff" d="M967.48,-123.55C980.11,-115.66 996.78,-103.25 1006.51,-88 1017.59,-70.63 1022.21,-47.25 1024.13,-30.82"/>
<polygon fill="#63b8ff" stroke="#63b8ff" points="1027.67,-31.56 1025.11,-21.28 1020.7,-30.91 1027.67,-31.56"/>
</a>
</g>
</g>
<!-- Node18&#45;&gt;Node12 -->
<g id="edge30_Node000018_Node000012" class="edge">
<title>Node18&#45;&gt;Node12</title>
<g id="a_edge30_Node000018_Node000012"><a xlink:title=" ">
<path fill="none" stroke="#63b8ff" d="M910.99,-127.14C869.68,-120.33 803.35,-107.49 748.51,-88 747.57,-87.67 746.63,-87.31 745.68,-86.94"/>
<polygon fill="#63b8ff" stroke="#63b8ff" points="747.2,-83.34 736.64,-82.47 744.35,-89.73 747.2,-83.34"/>
</a>
</g>
</g>
<!-- Node18&#45;&gt;Node13 -->
<g id="edge23_Node000018_Node000013" class="edge">
<title>Node18&#45;&gt;Node13</title>
<g id="a_edge23_Node000018_Node000013"><a xlink:title=" ">
<path fill="none" stroke="#63b8ff" d="M910.94,-126.64C848.18,-116.54 724.95,-96.72 647.15,-84.2"/>
<polygon fill="#63b8ff" stroke="#63b8ff" points="647.92,-80.62 637.49,-82.49 646.81,-87.53 647.92,-80.62"/>
</a>
</g>
</g>
<!-- Node18&#45;&gt;Node14 -->
<g id="edge24_Node000018_Node000014" class="edge">
<title>Node18&#45;&gt;Node14</title>
<g id="a_edge24_Node000018_Node000014"><a xlink:title=" ">
<path fill="none" stroke="#63b8ff" d="M910.89,-131.15C769.6,-124.47 293.57,-101.42 186.97,-88"/>
<polygon fill="#63b8ff" stroke="#63b8ff" points="187.72,-84.43 177.33,-86.49 186.74,-91.36 187.72,-84.43"/>
</a>
</g>
</g>
<!-- Node18&#45;&gt;Node15 -->
<g id="edge26_Node000018_Node000015" class="edge">
<title>Node18&#45;&gt;Node15</title>
<g id="a_edge26_Node000018_Node000015"><a xlink:title=" ">
<path fill="none" stroke="#63b8ff" d="M950.51,-123.62C950.51,-117.02 950.51,-107.84 950.51,-99.11"/>
<polygon fill="#63b8ff" stroke="#63b8ff" points="954.01,-99.14 950.51,-89.14 947.01,-99.14 954.01,-99.14"/>
</a>
</g>
</g>
<!-- Node18&#45;&gt;Node16 -->
<g id="edge28_Node000018_Node000016" class="edge">
<title>Node18&#45;&gt;Node16</title>
<g id="a_edge28_Node000018_Node000016"><a xlink:title=" ">
<path fill="none" stroke="#63b8ff" d="M911.13,-131.16C834.79,-127.14 661.23,-115.76 506.96,-88.28"/>
<polygon fill="#63b8ff" stroke="#63b8ff" points="507.82,-84.7 497.35,-86.36 506.57,-91.59 507.82,-84.7"/>
</a>
</g>
</g>
<!-- Node19 -->
<g id="Node000019" class="node">
<title>Node19</title>
<g id="a_Node000019"><a xlink:title=" ">
<polygon fill="#e0e0e0" stroke="#999999" points="885.38,-82 757.63,-82 757.63,-62 885.38,-62 885.38,-82"/>
<text text-anchor="middle" x="821.51" y="-68.5" font-family="Helvetica,sans-Serif" font-size="10.00">boost/dynamic_bitset.hpp</text>
</a>
</g>
</g>
<!-- Node18&#45;&gt;Node19 -->
<g id="edge19_Node000018_Node000019" class="edge">
<title>Node18&#45;&gt;Node19</title>
<g id="a_edge19_Node000018_Node000019"><a xlink:title=" ">
<path fill="none" stroke="#63b8ff" d="M930.35,-123.62C909.15,-113.76 875.55,-98.13 851.28,-86.85"/>
<polygon fill="#63b8ff" stroke="#63b8ff" points="853.07,-83.35 842.52,-82.31 850.11,-89.7 853.07,-83.35"/>
</a>
</g>
</g>
<!-- Node20 -->
<g id="Node000020" class="node">
<title>Node20</title>
<g id="a_Node000020"><a xlink:title=" ">
<polygon fill="#e0e0e0" stroke="#999999" points="1181.76,-82 1053.26,-82 1053.26,-62 1181.76,-62 1181.76,-82"/>
<text text-anchor="middle" x="1117.51" y="-68.5" font-family="Helvetica,sans-Serif" font-size="10.00">boost/unordered_map.hpp</text>
</a>
</g>
</g>
<!-- Node18&#45;&gt;Node20 -->
<g id="edge20_Node000018_Node000020" class="edge">
<title>Node18&#45;&gt;Node20</title>
<g id="a_edge20_Node000018_Node000020"><a xlink:title=" ">
<path fill="none" stroke="#63b8ff" d="M976.6,-123.62C1004.71,-113.53 1049.63,-97.39 1081.18,-86.05"/>
<polygon fill="#63b8ff" stroke="#63b8ff" points="1082.09,-89.08 1090.32,-82.41 1079.73,-82.5 1082.09,-89.08"/>
</a>
</g>
</g>
<!-- Node21 -->
<g id="Node000021" class="node">
<title>Node21</title>
<g id="a_Node000021"><a xlink:title=" ">
<polygon fill="#e0e0e0" stroke="#999999" points="1441.76,-82 1313.26,-82 1313.26,-62 1441.76,-62 1441.76,-82"/>
<text text-anchor="middle" x="1377.51" y="-68.5" font-family="Helvetica,sans-Serif" font-size="10.00">boost/algorithm/string.hpp</text>
</a>
</g>
</g>
<!-- Node18&#45;&gt;Node21 -->
<g id="edge21_Node000018_Node000021" class="edge">
<title>Node18&#45;&gt;Node21</title>
<g id="a_edge21_Node000018_Node000021"><a xlink:title=" ">
<path fill="none" stroke="#63b8ff" d="M990.12,-126.05C994.63,-125.33 999.17,-124.63 1003.51,-124 1136.85,-104.72 1171.52,-109.58 1304.51,-88 1310.73,-86.99 1317.22,-85.82 1323.66,-84.59"/>
<polygon fill="#63b8ff" stroke="#63b8ff" points="1324.25,-87.85 1333.38,-82.48 1322.9,-80.98 1324.25,-87.85"/>
</a>
</g>
</g>
<!-- Node22 -->
<g id="Node000022" class="node">
<title>Node22</title>
<g id="a_Node000022"><a xlink:title=" ">
<polygon fill="#e0e0e0" stroke="#999999" points="1569.38,-88 1459.63,-88 1459.63,-56 1569.38,-56 1569.38,-88"/>
<text text-anchor="start" x="1467.63" y="-74.5" font-family="Helvetica,sans-Serif" font-size="10.00">boost/algorithm/string</text>
<text text-anchor="middle" x="1514.51" y="-62.5" font-family="Helvetica,sans-Serif" font-size="10.00">/join.hpp</text>
</a>
</g>
</g>
<!-- Node18&#45;&gt;Node22 -->
<g id="edge22_Node000018_Node000022" class="edge">
<title>Node18&#45;&gt;Node22</title>
<g id="a_edge22_Node000018_Node000022"><a xlink:title=" ">
<path fill="none" stroke="#63b8ff" d="M990.1,-125.89C994.61,-125.19 999.15,-124.54 1003.51,-124 1197.8,-99.73 1251.71,-118.15 1448.74,-88.12"/>
<polygon fill="#63b8ff" stroke="#63b8ff" points="1449.11,-91.45 1458.45,-86.46 1448.03,-84.53 1449.11,-91.45"/>
</a>
</g>
</g>
<!-- Node23 -->
<g id="Node000023" class="node">
<title>Node23</title>
<g id="a_Node000023"><a xlink:title=" ">
<polygon fill="#e0e0e0" stroke="#999999" points="1681.88,-88 1587.13,-88 1587.13,-56 1681.88,-56 1681.88,-88"/>
<text text-anchor="start" x="1595.13" y="-74.5" font-family="Helvetica,sans-Serif" font-size="10.00">boost/serialization</text>
<text text-anchor="middle" x="1634.51" y="-62.5" font-family="Helvetica,sans-Serif" font-size="10.00">/split_free.hpp</text>
</a>
</g>
</g>
<!-- Node18&#45;&gt;Node23 -->
<g id="edge25_Node000018_Node000023" class="edge">
<title>Node18&#45;&gt;Node23</title>
<g id="a_edge25_Node000018_Node000023"><a xlink:title=" ">
<path fill="none" stroke="#63b8ff" d="M990.09,-125.81C994.61,-125.13 999.15,-124.5 1003.51,-124 1254.38,-94.93 1323.92,-128.39 1576.09,-88.2"/>
<polygon fill="#63b8ff" stroke="#63b8ff" points="1576.37,-91.53 1585.68,-86.48 1575.25,-84.62 1576.37,-91.53"/>
</a>
</g>
</g>
<!-- Node18&#45;&gt;Node24 -->
<g id="edge27_Node000018_Node000024" class="edge">
<title>Node18&#45;&gt;Node24</title>
<g id="a_edge27_Node000018_Node000024"><a xlink:title=" ">
<path fill="none" stroke="#63b8ff" d="M990.09,-125.76C994.6,-125.09 999.15,-124.48 1003.51,-124 1303.84,-90.74 1386.48,-134.11 1688.91,-88"/>
<polygon fill="#63b8ff" stroke="#63b8ff" points="1689.42,-91.31 1698.76,-86.32 1688.35,-84.39 1689.42,-91.31"/>
</a>
</g>
</g>
<!-- Node25&#45;&gt;Node11 -->
<g id="edge38_Node000025_Node000011" class="edge">
<title>Node25&#45;&gt;Node11</title>
<g id="a_edge38_Node000025_Node000011"><a xlink:title=" ">
<path fill="none" stroke="#63b8ff" d="M669.97,-123.56C670.22,-107.51 668.32,-74.78 650.51,-56 625.19,-29.3 584.58,-18.29 552.3,-13.82"/>
<polygon fill="#63b8ff" stroke="#63b8ff" points="553.05,-10.27 542.7,-12.54 552.21,-17.22 553.05,-10.27"/>
</a>
</g>
</g>
<!-- Node25&#45;&gt;Node12 -->
<g id="edge36_Node000025_Node000012" class="edge">
<title>Node25&#45;&gt;Node12</title>
<g id="a_edge36_Node000025_Node000012"><a xlink:title=" ">
<path fill="none" stroke="#63b8ff" d="M677.16,-123.62C684.4,-114.77 695.43,-101.26 704.28,-90.43"/>
<polygon fill="#63b8ff" stroke="#63b8ff" points="707.45,-93.07 711.07,-83.11 702.03,-88.64 707.45,-93.07"/>
</a>
</g>
</g>
<!-- Node25&#45;&gt;Node13 -->
<g id="edge37_Node000025_Node000013" class="edge">
<title>Node25&#45;&gt;Node13</title>
<g id="a_edge37_Node000025_Node000013"><a xlink:title=" ">
<path fill="none" stroke="#63b8ff" d="M655.13,-123.62C640.55,-114.11 617.75,-99.24 600.62,-88.08"/>
<polygon fill="#63b8ff" stroke="#63b8ff" points="603.07,-84.84 592.78,-82.31 599.25,-90.7 603.07,-84.84"/>
</a>
</g>
</g>
<!-- Node25&#45;&gt;Node14 -->
<g id="edge34_Node000025_Node000014" class="edge">
<title>Node25&#45;&gt;Node14</title>
<g id="a_edge34_Node000025_Node000014"><a xlink:title=" ">
<path fill="none" stroke="#63b8ff" d="M620.96,-131.21C535.1,-127.47 350.8,-116.78 187.1,-88.29"/>
<polygon fill="#63b8ff" stroke="#63b8ff" points="187.81,-84.68 177.35,-86.39 186.59,-91.57 187.81,-84.68"/>
</a>
</g>
</g>
<!-- Node25&#45;&gt;Node15 -->
<g id="edge35_Node000025_Node000015" class="edge">
<title>Node25&#45;&gt;Node15</title>
<g id="a_edge35_Node000025_Node000015"><a xlink:title=" ">
<path fill="none" stroke="#63b8ff" d="M717.98,-124.24C761.36,-116.19 826.92,-103.51 892.4,-88.42"/>
<polygon fill="#63b8ff" stroke="#63b8ff" points="892.95,-91.65 901.9,-85.97 891.37,-84.83 892.95,-91.65"/>
</a>
</g>
</g>
<!-- Node25&#45;&gt;Node19 -->
<g id="edge33_Node000025_Node000019" class="edge">
<title>Node25&#45;&gt;Node19</title>
<g id="a_edge33_Node000025_Node000019"><a xlink:title=" ">
<path fill="none" stroke="#63b8ff" d="M693.26,-123.62C718.62,-113.62 759.01,-97.67 787.69,-86.35"/>
<polygon fill="#63b8ff" stroke="#63b8ff" points="788.66,-89.34 796.67,-82.41 786.09,-82.82 788.66,-89.34"/>
</a>
</g>
</g>
<!-- Node29&#45;&gt;Node6 -->
<g id="edge54_Node000029_Node000006" class="edge">
<title>Node29&#45;&gt;Node6</title>
<g id="a_edge54_Node000029_Node000006"><a xlink:title=" ">
<path fill="none" stroke="#63b8ff" d="M1706.9,-131C1628.55,-126.67 1451.32,-114.61 1304.51,-88 1299.85,-87.16 1295.02,-86.13 1290.22,-85.01"/>
<polygon fill="#63b8ff" stroke="#63b8ff" points="1291.41,-81.45 1280.87,-82.45 1289.73,-88.25 1291.41,-81.45"/>
</a>
</g>
</g>
<!-- Node29&#45;&gt;Node10 -->
<g id="edge55_Node000029_Node000010" class="edge">
<title>Node29&#45;&gt;Node10</title>
<g id="a_edge55_Node000029_Node000010"><a xlink:title=" ">
<path fill="none" stroke="#63b8ff" d="M1766.65,-123.52C1779.69,-115.9 1795.91,-103.86 1803.51,-88 1809.65,-75.17 1812.37,-67.12 1803.51,-56 1783.84,-31.34 1694.62,-19.12 1643.25,-14.03"/>
<polygon fill="#63b8ff" stroke="#63b8ff" points="1643.88,-10.48 1633.59,-13.03 1643.22,-17.45 1643.88,-10.48"/>
</a>
</g>
</g>
<!-- Node29&#45;&gt;Node12 -->
<g id="edge57_Node000029_Node000012" class="edge">
<title>Node29&#45;&gt;Node12</title>
<g id="a_edge57_Node000029_Node000012"><a xlink:title=" ">
<path fill="none" stroke="#63b8ff" d="M1707,-133.41C1543.79,-134.73 934.18,-136.27 748.51,-88 746.99,-87.61 745.47,-87.13 743.94,-86.59"/>
<polygon fill="#63b8ff" stroke="#63b8ff" points="745.78,-83.14 735.21,-82.39 743.01,-89.57 745.78,-83.14"/>
</a>
</g>
</g>
<!-- Node29&#45;&gt;Node15 -->
<g id="edge52_Node000029_Node000015" class="edge">
<title>Node29&#45;&gt;Node15</title>
<g id="a_edge52_Node000029_Node000015"><a xlink:title=" ">
<path fill="none" stroke="#63b8ff" d="M1706.97,-131.74C1598.99,-128.11 1295.5,-116 1044.51,-88 1032.94,-86.71 1020.62,-84.99 1008.84,-83.18"/>
<polygon fill="#63b8ff" stroke="#63b8ff" points="1009.63,-79.61 999.21,-81.51 1008.54,-86.52 1009.63,-79.61"/>
</a>
</g>
</g>
<!-- Node29&#45;&gt;Node24 -->
<g id="edge53_Node000029_Node000024" class="edge">
<title>Node29&#45;&gt;Node24</title>
<g id="a_edge53_Node000029_Node000024"><a xlink:title=" ">
<path fill="none" stroke="#63b8ff" d="M1747.51,-123.62C1747.51,-117.02 1747.51,-107.84 1747.51,-99.11"/>
<polygon fill="#63b8ff" stroke="#63b8ff" points="1751.01,-99.14 1747.51,-89.14 1744.01,-99.14 1751.01,-99.14"/>
</a>
</g>
</g>
<!-- Node30 -->
<g id="Node000030" class="node">
<title>Node30</title>
<g id="a_Node000030"><a xlink:title=" ">
<polygon fill="#e0e0e0" stroke="#999999" points="1944.88,-88 1850.13,-88 1850.13,-56 1944.88,-56 1944.88,-88"/>
<text text-anchor="start" x="1858.13" y="-74.5" font-family="Helvetica,sans-Serif" font-size="10.00">boost/serialization</text>
<text text-anchor="middle" x="1897.51" y="-62.5" font-family="Helvetica,sans-Serif" font-size="10.00">/shared_ptr.hpp</text>
</a>
</g>
</g>
<!-- Node29&#45;&gt;Node30 -->
<g id="edge51_Node000029_Node000030" class="edge">
<title>Node29&#45;&gt;Node30</title>
<g id="a_edge51_Node000029_Node000030"><a xlink:title=" ">
<path fill="none" stroke="#63b8ff" d="M1770.94,-123.62C1791.68,-115.33 1822.59,-102.96 1848.68,-92.53"/>
<polygon fill="#63b8ff" stroke="#63b8ff" points="1849.8,-95.45 1857.78,-88.49 1847.2,-88.95 1849.8,-95.45"/>
</a>
</g>
</g>
<!-- Node31 -->
<g id="Node000031" class="node">
<title>Node31</title>
<g id="a_Node000031"><a xlink:title=" ">
<polygon fill="#e0e0e0" stroke="#999999" points="2008.13,-82 1962.88,-82 1962.88,-62 2008.13,-62 2008.13,-82"/>
<text text-anchor="middle" x="1985.51" y="-68.5" font-family="Helvetica,sans-Serif" font-size="10.00">chrono</text>
</a>
</g>
</g>
<!-- Node29&#45;&gt;Node31 -->
<g id="edge56_Node000029_Node000031" class="edge">
<title>Node29&#45;&gt;Node31</title>
<g id="a_edge56_Node000029_Node000031"><a xlink:title=" ">
<path fill="none" stroke="#63b8ff" d="M1788.11,-126.89C1830.18,-119.92 1897.51,-106.97 1953.51,-88 1954.78,-87.57 1956.07,-87.1 1957.37,-86.61"/>
<polygon fill="#63b8ff" stroke="#63b8ff" points="1958.34,-89.57 1966.18,-82.44 1955.61,-83.13 1958.34,-89.57"/>
</a>
</g>
</g>
<!-- Node32 -->
<g id="Node000032" class="node">
<title>Node32</title>
<g id="a_Node000032"><a xlink:title=" ">
<polygon fill="#e0e0e0" stroke="#999999" points="2150.88,-88 2026.13,-88 2026.13,-56 2150.88,-56 2150.88,-88"/>
<text text-anchor="start" x="2034.13" y="-74.5" font-family="Helvetica,sans-Serif" font-size="10.00">boost/dll/runtime_symbol</text>
<text text-anchor="middle" x="2088.51" y="-62.5" font-family="Helvetica,sans-Serif" font-size="10.00">_info.hpp</text>
</a>
</g>
</g>
<!-- Node29&#45;&gt;Node32 -->
<g id="edge58_Node000029_Node000032" class="edge">
<title>Node29&#45;&gt;Node32</title>
<g id="a_edge58_Node000029_Node000032"><a xlink:title=" ">
<path fill="none" stroke="#63b8ff" d="M1787.86,-126.83C1838.61,-118.95 1928.67,-104.56 2015.03,-88.42"/>
<polygon fill="#63b8ff" stroke="#63b8ff" points="2015.64,-91.68 2024.82,-86.4 2014.34,-84.81 2015.64,-91.68"/>
</a>
</g>
</g>
</g>
</svg>

<g id="navigator" transform="translate(0 0)" fill="#404254">
  <rect fill="#f2f5e9" fill-opacity="0.5" stroke="#606060" stroke-width=".5" x="0" y="0" width="60" height="60"/>
  <use id="zoomplus" xlink:href="#zoomPlus" x="17" y="9" onmousedown="handleZoom(evt,'in')"/>
  <use id="zoomminus" xlink:href="#zoomMin" x="42" y="9" onmousedown="handleZoom(evt,'out')"/>
  <use id="reset" xlink:href="#resetDef" x="30" y="36" onmousedown="handleReset()"/>
   <use id="arrowup" xlink:href="#arrowUp" x="0" y="0" onmousedown="handlePan(0,-1)"/>
  <use id="arrowright" xlink:href="#arrowRight" x="0" y="0" onmousedown="handlePan(1,0)"/>
  <use id="arrowdown" xlink:href="#arrowDown" x="0" y="0" onmousedown="handlePan(0,1)"/>
  <use id="arrowleft" xlink:href="#arrowLeft" x="0" y="0" onmousedown="handlePan(-1,0)"/>
</g>
<svg viewBox="0 0 15 15" width="100%" height="30px" preserveAspectRatio="xMaxYMin meet">
 <g id="arrow_out" transform="scale(0.3 0.3)">
  <a xlink:href="FMTfork_8hpp__incl_org.svg" target="_base">
   <rect id="button" ry="5" rx="5" y="6" x="6" height="38" width="38"
        fill="#f2f5e9" fill-opacity="0.5" stroke="#606060" stroke-width="1.0"/>
   <path id="arrow"
     d="M 11.500037,31.436501 C 11.940474,20.09759 22.043105,11.32322 32.158766,21.979434 L 37.068811,17.246167 C 37.068811,17.246167 37.088388,32 37.088388,32 L 22.160133,31.978069 C 22.160133,31.978069 26.997745,27.140456 26.997745,27.140456 C 18.528582,18.264221 13.291696,25.230495 11.500037,31.436501 z"
     style="fill:#404040;"/>
  </a>
 </g>
</svg>

<style type='text/css'>
<![CDATA[
[data-mouse-over-selected='false'] { opacity: 0.7; }
[data-mouse-over-selected='true']  { opacity: 1.0; }
]]>
</style>
<script type="application/ecmascript"><![CDATA[
document.addEventListener('DOMContentLoaded', (event) => {
  highlightEdges();
  highlightAdjacentNodes();
});
]]></script>
</svg>
