<?xml version="1.0" encoding="UTF-8" standalone="no"?>
<!DOCTYPE svg PUBLIC "-//W3C//DTD SVG 1.1//EN"
 "http://www.w3.org/Graphics/SVG/1.1/DTD/svg11.dtd">
<!-- Generated by graphviz version 10.0.1 (20240210.2158)
 -->
<!-- Title: D:/FMT/Include/FMTfuturdevelopment.hpp Pages: 1 -->
<svg width="1551pt" height="532pt"
 viewBox="0.00 0.00 1550.89 532.00" xmlns="http://www.w3.org/2000/svg" xmlns:xlink="http://www.w3.org/1999/xlink">
<g id="graph0" class="graph" transform="scale(1 1) rotate(0) translate(4 528)">
<title>D:/FMT/Include/FMTfuturdevelopment.hpp</title>
<!-- Node1 -->
<g id="node1" class="node">
<title>Node1</title>
<g id="a_node1"><a xlink:title=" ">
<polygon fill="#999999" stroke="#666666" points="1273.01,-524 1077.01,-524 1077.01,-504 1273.01,-504 1273.01,-524"/>
<text text-anchor="middle" x="1175.01" y="-510.5" font-family="Helvetica,sans-Serif" font-size="10.00">D:/FMT/Include/FMTfuturdevelopment.hpp</text>
</a>
</g>
</g>
<!-- Node2 -->
<g id="node2" class="node">
<title>Node2</title>
<g id="a_node2"><a xlink:href="FMTbasevertexproperties_8hpp.html" target="_top" xlink:title=" ">
<polygon fill="white" stroke="#666666" points="688.26,-468 475.76,-468 475.76,-448 688.26,-448 688.26,-468"/>
<text text-anchor="middle" x="582.01" y="-454.5" font-family="Helvetica,sans-Serif" font-size="10.00">D:/FMT/Include/FMTbasevertexproperties.hpp</text>
</a>
</g>
</g>
<!-- Node1&#45;&gt;Node2 -->
<g id="edge1" class="edge">
<title>Node1&#45;&gt;Node2</title>
<path fill="none" stroke="#63b8ff" d="M1065.47,-503.03C957.16,-493.16 792.61,-478.18 686.2,-468.49"/>
<polygon fill="#63b8ff" stroke="#63b8ff" points="1064.97,-506.49 1075.25,-503.92 1065.61,-499.52 1064.97,-506.49"/>
</g>
<!-- Node4 -->
<g id="node4" class="node">
<title>Node4</title>
<g id="a_node4"><a xlink:href="FMTgraph_8hpp.html" target="_top" xlink:title=" ">
<polygon fill="white" stroke="#666666" points="703.64,-356 556.39,-356 556.39,-336 703.64,-336 703.64,-356"/>
<text text-anchor="middle" x="630.01" y="-342.5" font-family="Helvetica,sans-Serif" font-size="10.00">D:/FMT/Include/FMTgraph.hpp</text>
</a>
</g>
</g>
<!-- Node1&#45;&gt;Node4 -->
<g id="edge51" class="edge">
<title>Node1&#45;&gt;Node4</title>
<path fill="none" stroke="#63b8ff" d="M1133.33,-500.31C1028.07,-468.24 753.32,-384.56 660.87,-356.4"/>
<polygon fill="#63b8ff" stroke="#63b8ff" points="1132.12,-503.59 1142.7,-503.16 1134.15,-496.9 1132.12,-503.59"/>
</g>
<!-- Node10 -->
<g id="node10" class="node">
<title>Node10</title>
<g id="a_node10"><a xlink:href="Rdeclarations_8hpp.html" target="_top" xlink:title=" ">
<polygon fill="white" stroke="#666666" points="864.51,-76 701.51,-76 701.51,-56 864.51,-56 864.51,-76"/>
<text text-anchor="middle" x="783.01" y="-62.5" font-family="Helvetica,sans-Serif" font-size="10.00">D:/FMT/Include/Rdeclarations.hpp</text>
</a>
</g>
</g>
<!-- Node1&#45;&gt;Node10 -->
<g id="edge53" class="edge">
<title>Node1&#45;&gt;Node10</title>
<path fill="none" stroke="#63b8ff" d="M1175.01,-492.32C1175.01,-470.22 1175.01,-434.13 1175.01,-403 1175.01,-403 1175.01,-403 1175.01,-289 1175.01,-218.37 974.17,-143.63 911.01,-112 880.58,-96.76 843.72,-84.38 817.39,-76.5"/>
<polygon fill="#63b8ff" stroke="#63b8ff" points="1171.51,-492.07 1175.01,-502.07 1178.51,-492.07 1171.51,-492.07"/>
</g>
<!-- Node26 -->
<g id="node26" class="node">
<title>Node26</title>
<g id="a_node26"><a xlink:href="PYexportCore_8hpp.html" target="_top" xlink:title=" ">
<polygon fill="white" stroke="#666666" points="1367.26,-468 1202.76,-468 1202.76,-448 1367.26,-448 1367.26,-468"/>
<text text-anchor="middle" x="1285.01" y="-454.5" font-family="Helvetica,sans-Serif" font-size="10.00">D:/FMT/Include/PYexportCore.hpp</text>
</a>
</g>
</g>
<!-- Node1&#45;&gt;Node26 -->
<g id="edge52" class="edge">
<title>Node1&#45;&gt;Node26</title>
<path fill="none" stroke="#63b8ff" d="M1204.32,-498.61C1223.76,-489.07 1248.72,-476.81 1265.7,-468.48"/>
<polygon fill="#63b8ff" stroke="#63b8ff" points="1202.97,-495.38 1195.53,-502.93 1206.05,-501.66 1202.97,-495.38"/>
</g>
<!-- Node27 -->
<g id="node27" class="node">
<title>Node27</title>
<g id="a_node27"><a xlink:href="RexportCore_8hpp.html" target="_top" xlink:title=" ">
<polygon fill="white" stroke="#666666" points="1542.89,-468 1385.14,-468 1385.14,-448 1542.89,-448 1542.89,-468"/>
<text text-anchor="middle" x="1464.01" y="-454.5" font-family="Helvetica,sans-Serif" font-size="10.00">D:/FMT/Include/RexportCore.hpp</text>
</a>
</g>
</g>
<!-- Node1&#45;&gt;Node27 -->
<g id="edge54" class="edge">
<title>Node1&#45;&gt;Node27</title>
<path fill="none" stroke="#63b8ff" d="M1236.9,-501.44C1289.56,-491.6 1364.25,-477.64 1413.4,-468.46"/>
<polygon fill="#63b8ff" stroke="#63b8ff" points="1236.36,-497.98 1227.17,-503.25 1237.64,-504.86 1236.36,-497.98"/>
</g>
<!-- Node3 -->
<g id="node3" class="node">
<title>Node3</title>
<g id="a_node3"><a xlink:href="FMTvertexproperties_8hpp.html" target="_top" xlink:title=" ">
<polygon fill="white" stroke="#666666" points="606.76,-412 415.26,-412 415.26,-392 606.76,-392 606.76,-412"/>
<text text-anchor="middle" x="511.01" y="-398.5" font-family="Helvetica,sans-Serif" font-size="10.00">D:/FMT/Include/FMTvertexproperties.hpp</text>
</a>
</g>
</g>
<!-- Node2&#45;&gt;Node3 -->
<g id="edge2" class="edge">
<title>Node2&#45;&gt;Node3</title>
<path fill="none" stroke="#63b8ff" d="M560.55,-440.68C548.34,-431.39 533.48,-420.09 523.24,-412.3"/>
<polygon fill="#63b8ff" stroke="#63b8ff" points="558.36,-443.41 568.44,-446.68 562.6,-437.84 558.36,-443.41"/>
</g>
<!-- Node3&#45;&gt;Node4 -->
<g id="edge3" class="edge">
<title>Node3&#45;&gt;Node4</title>
<path fill="none" stroke="#63b8ff" d="M542.13,-386.88C563.25,-377.3 590.58,-364.89 609.12,-356.48"/>
<polygon fill="#63b8ff" stroke="#63b8ff" points="540.78,-383.65 533.12,-390.97 543.67,-390.02 540.78,-383.65"/>
</g>
<!-- Node20 -->
<g id="node20" class="node">
<title>Node20</title>
<g id="a_node20"><a xlink:href="FMTsrmodel_8hpp.html" target="_top" xlink:title=" ">
<polygon fill="white" stroke="#666666" points="291.89,-188 134.14,-188 134.14,-168 291.89,-168 291.89,-188"/>
<text text-anchor="middle" x="213.01" y="-174.5" font-family="Helvetica,sans-Serif" font-size="10.00">D:/FMT/Include/FMTsrmodel.hpp</text>
</a>
</g>
</g>
<!-- Node3&#45;&gt;Node20 -->
<g id="edge50" class="edge">
<title>Node3&#45;&gt;Node20</title>
<path fill="none" stroke="#63b8ff" d="M430.35,-389.19C399.25,-382.43 364.21,-371.98 335.01,-356 275.68,-323.54 262.62,-304.31 232.01,-244 222.54,-225.34 217.06,-201.2 214.59,-188.23"/>
<polygon fill="#63b8ff" stroke="#63b8ff" points="429.62,-392.62 440.13,-391.22 431.04,-385.76 429.62,-392.62"/>
</g>
<!-- Node25 -->
<g id="node25" class="node">
<title>Node25</title>
<g id="a_node25"><a xlink:href="FMTgraphdescription_8hpp.html" target="_top" xlink:title=" ">
<polygon fill="white" stroke="#666666" points="538.26,-356 343.76,-356 343.76,-336 538.26,-336 538.26,-356"/>
<text text-anchor="middle" x="441.01" y="-342.5" font-family="Helvetica,sans-Serif" font-size="10.00">D:/FMT/Include/FMTgraphdescription.hpp</text>
</a>
</g>
</g>
<!-- Node3&#45;&gt;Node25 -->
<g id="edge49" class="edge">
<title>Node3&#45;&gt;Node25</title>
<path fill="none" stroke="#63b8ff" d="M489.86,-384.68C477.81,-375.39 463.16,-364.09 453.07,-356.3"/>
<polygon fill="#63b8ff" stroke="#63b8ff" points="487.56,-387.33 497.62,-390.67 491.84,-381.79 487.56,-387.33"/>
</g>
<!-- Node5 -->
<g id="node5" class="node">
<title>Node5</title>
<g id="a_node5"><a xlink:href="FMTlinegraph_8hpp.html" target="_top" xlink:title=" ">
<polygon fill="white" stroke="#666666" points="475.14,-300 312.89,-300 312.89,-280 475.14,-280 475.14,-300"/>
<text text-anchor="middle" x="394.01" y="-286.5" font-family="Helvetica,sans-Serif" font-size="10.00">D:/FMT/Include/FMTlinegraph.hpp</text>
</a>
</g>
</g>
<!-- Node4&#45;&gt;Node5 -->
<g id="edge4" class="edge">
<title>Node4&#45;&gt;Node5</title>
<path fill="none" stroke="#63b8ff" d="M577.57,-333C534.69,-323.19 474.89,-309.51 435.34,-300.46"/>
<polygon fill="#63b8ff" stroke="#63b8ff" points="576.63,-336.38 587.16,-335.19 578.19,-329.55 576.63,-336.38"/>
</g>
<!-- Node15 -->
<g id="node15" class="node">
<title>Node15</title>
<g id="a_node15"><a xlink:href="RexportSpatial_8hpp.html" target="_top" xlink:title=" ">
<polygon fill="white" stroke="#666666" points="655.76,-188 488.26,-188 488.26,-168 655.76,-168 655.76,-188"/>
<text text-anchor="middle" x="572.01" y="-174.5" font-family="Helvetica,sans-Serif" font-size="10.00">D:/FMT/Include/RexportSpatial.hpp</text>
</a>
</g>
</g>
<!-- Node4&#45;&gt;Node15 -->
<g id="edge48" class="edge">
<title>Node4&#45;&gt;Node15</title>
<path fill="none" stroke="#63b8ff" d="M565.15,-331.84C548.31,-325.16 532.09,-315.12 522.01,-300 508.96,-280.43 549.71,-213.39 565.78,-188.45"/>
<polygon fill="#63b8ff" stroke="#63b8ff" points="563.64,-335.02 574.23,-335.06 565.98,-328.42 563.64,-335.02"/>
</g>
<!-- Node16 -->
<g id="node16" class="node">
<title>Node16</title>
<g id="a_node16"><a xlink:href="FMToperatingareascheme_8hpp.html" target="_top" xlink:title=" ">
<polygon fill="white" stroke="#666666" points="1318.14,-188 1101.89,-188 1101.89,-168 1318.14,-168 1318.14,-188"/>
<text text-anchor="middle" x="1210.01" y="-174.5" font-family="Helvetica,sans-Serif" font-size="10.00">D:/FMT/Include/FMToperatingareascheme.hpp</text>
</a>
</g>
</g>
<!-- Node4&#45;&gt;Node16 -->
<g id="edge23" class="edge">
<title>Node4&#45;&gt;Node16</title>
<path fill="none" stroke="#63b8ff" d="M715.42,-345.28C836.55,-344.31 1050.98,-337.17 1118.01,-300 1165.32,-273.76 1195.86,-211.96 1206.15,-188.37"/>
<polygon fill="#63b8ff" stroke="#63b8ff" points="715.49,-341.78 705.51,-345.34 715.53,-348.78 715.49,-341.78"/>
</g>
<!-- Node19 -->
<g id="node19" class="node">
<title>Node19</title>
<g id="a_node19"><a xlink:href="FMToutputnodecache_8hpp.html" target="_top" xlink:title=" ">
<polygon fill="white" stroke="#666666" points="728.76,-300 531.26,-300 531.26,-280 728.76,-280 728.76,-300"/>
<text text-anchor="middle" x="630.01" y="-286.5" font-family="Helvetica,sans-Serif" font-size="10.00">D:/FMT/Include/FMToutputnodecache.hpp</text>
</a>
</g>
</g>
<!-- Node4&#45;&gt;Node19 -->
<g id="edge31" class="edge">
<title>Node4&#45;&gt;Node19</title>
<path fill="none" stroke="#63b8ff" d="M623.43,-324.43C622.98,-316.11 623.42,-306.93 624.77,-300.3"/>
<polygon fill="#63b8ff" stroke="#63b8ff" points="619.93,-324.57 624.57,-334.09 626.88,-323.75 619.93,-324.57"/>
</g>
<!-- Node4&#45;&gt;Node20 -->
<g id="edge33" class="edge">
<title>Node4&#45;&gt;Node20</title>
<path fill="none" stroke="#63b8ff" d="M544.59,-334.86C451.51,-323.56 314.35,-306.08 304.01,-300 257.56,-272.69 227.15,-211.53 216.88,-188.24"/>
<polygon fill="#63b8ff" stroke="#63b8ff" points="544.14,-338.33 554.49,-336.06 544.98,-331.38 544.14,-338.33"/>
</g>
<!-- Node23 -->
<g id="node23" class="node">
<title>Node23</title>
<g id="a_node23"><a xlink:href="PYexportGraph_8hpp.html" target="_top" xlink:title=" ">
<polygon fill="white" stroke="#666666" points="917.26,-300 746.76,-300 746.76,-280 917.26,-280 917.26,-300"/>
<text text-anchor="middle" x="832.01" y="-286.5" font-family="Helvetica,sans-Serif" font-size="10.00">D:/FMT/Include/PYexportGraph.hpp</text>
</a>
</g>
</g>
<!-- Node4&#45;&gt;Node23 -->
<g id="edge46" class="edge">
<title>Node4&#45;&gt;Node23</title>
<path fill="none" stroke="#63b8ff" d="M676.07,-332.69C712.66,-322.91 763.06,-309.43 796.55,-300.48"/>
<polygon fill="#63b8ff" stroke="#63b8ff" points="675.42,-329.24 666.66,-335.2 677.22,-336 675.42,-329.24"/>
</g>
<!-- Node24 -->
<g id="node24" class="node">
<title>Node24</title>
<g id="a_node24"><a xlink:href="PYexportSpatial_8hpp.html" target="_top" xlink:title=" ">
<polygon fill="white" stroke="#666666" points="1109.14,-300 934.89,-300 934.89,-280 1109.14,-280 1109.14,-300"/>
<text text-anchor="middle" x="1022.01" y="-286.5" font-family="Helvetica,sans-Serif" font-size="10.00">D:/FMT/Include/PYexportSpatial.hpp</text>
</a>
</g>
</g>
<!-- Node4&#45;&gt;Node24 -->
<g id="edge47" class="edge">
<title>Node4&#45;&gt;Node24</title>
<path fill="none" stroke="#63b8ff" d="M709.95,-333.99C781.54,-324.13 885.44,-309.81 953.36,-300.46"/>
<polygon fill="#63b8ff" stroke="#63b8ff" points="709.67,-330.49 700.24,-335.33 710.63,-337.43 709.67,-330.49"/>
</g>
<!-- Node6 -->
<g id="node6" class="node">
<title>Node6</title>
<g id="a_node6"><a xlink:href="FMTspatialschedule_8hpp.html" target="_top" xlink:title=" ">
<polygon fill="white" stroke="#666666" points="485.39,-244 294.64,-244 294.64,-224 485.39,-224 485.39,-244"/>
<text text-anchor="middle" x="390.01" y="-230.5" font-family="Helvetica,sans-Serif" font-size="10.00">D:/FMT/Include/FMTspatialschedule.hpp</text>
</a>
</g>
</g>
<!-- Node5&#45;&gt;Node6 -->
<g id="edge5" class="edge">
<title>Node5&#45;&gt;Node6</title>
<path fill="none" stroke="#63b8ff" d="M392.47,-268.13C391.86,-259.9 391.19,-250.85 390.7,-244.3"/>
<polygon fill="#63b8ff" stroke="#63b8ff" points="388.97,-268.37 393.2,-278.08 395.96,-267.85 388.97,-268.37"/>
</g>
<!-- Node5&#45;&gt;Node10 -->
<g id="edge21" class="edge">
<title>Node5&#45;&gt;Node10</title>
<path fill="none" stroke="#63b8ff" d="M462.91,-277.59C587.55,-255.39 842.39,-202.32 894.01,-132 914.43,-104.19 869.77,-86.27 831.15,-76.44"/>
<polygon fill="#63b8ff" stroke="#63b8ff" points="462.35,-274.13 453.11,-279.31 463.57,-281.03 462.35,-274.13"/>
</g>
<!-- Node5&#45;&gt;Node15 -->
<g id="edge22" class="edge">
<title>Node5&#45;&gt;Node15</title>
<path fill="none" stroke="#63b8ff" d="M430.65,-275.32C450.12,-267.37 474.08,-256.46 494.01,-244 520.91,-227.18 548.55,-201.88 562.58,-188.34"/>
<polygon fill="#63b8ff" stroke="#63b8ff" points="429.46,-272.03 421.46,-278.98 432.05,-278.53 429.46,-272.03"/>
</g>
<!-- Node7 -->
<g id="node7" class="node">
<title>Node7</title>
<g id="a_node7"><a xlink:href="FMTsemodel_8hpp.html" target="_top" xlink:title=" ">
<polygon fill="white" stroke="#666666" points="470.01,-188 310.01,-188 310.01,-168 470.01,-168 470.01,-188"/>
<text text-anchor="middle" x="390.01" y="-174.5" font-family="Helvetica,sans-Serif" font-size="10.00">D:/FMT/Include/FMTsemodel.hpp</text>
</a>
</g>
</g>
<!-- Node6&#45;&gt;Node7 -->
<g id="edge6" class="edge">
<title>Node6&#45;&gt;Node7</title>
<path fill="none" stroke="#63b8ff" d="M390.01,-212.13C390.01,-203.9 390.01,-194.85 390.01,-188.3"/>
<polygon fill="#63b8ff" stroke="#63b8ff" points="386.51,-212.08 390.01,-222.08 393.51,-212.08 386.51,-212.08"/>
</g>
<!-- Node6&#45;&gt;Node15 -->
<g id="edge20" class="edge">
<title>Node6&#45;&gt;Node15</title>
<path fill="none" stroke="#63b8ff" d="M432.37,-220.43C465.26,-210.67 510.15,-197.35 540.06,-188.48"/>
<polygon fill="#63b8ff" stroke="#63b8ff" points="431.76,-216.96 423.16,-223.16 433.75,-223.67 431.76,-216.96"/>
</g>
<!-- Node8 -->
<g id="node8" class="node">
<title>Node8</title>
<g id="a_node8"><a xlink:href="FMTsamodel_8hpp.html" target="_top" xlink:title=" ">
<polygon fill="white" stroke="#666666" points="470.01,-132 310.01,-132 310.01,-112 470.01,-112 470.01,-132"/>
<text text-anchor="middle" x="390.01" y="-118.5" font-family="Helvetica,sans-Serif" font-size="10.00">D:/FMT/Include/FMTsamodel.hpp</text>
</a>
</g>
</g>
<!-- Node7&#45;&gt;Node8 -->
<g id="edge7" class="edge">
<title>Node7&#45;&gt;Node8</title>
<path fill="none" stroke="#63b8ff" d="M390.01,-156.13C390.01,-147.9 390.01,-138.85 390.01,-132.3"/>
<polygon fill="#63b8ff" stroke="#63b8ff" points="386.51,-156.08 390.01,-166.08 393.51,-156.08 386.51,-156.08"/>
</g>
<!-- Node9 -->
<g id="node9" class="node">
<title>Node9</title>
<g id="a_node9"><a xlink:href="PYexportModel_8hpp.html" target="_top" xlink:title=" ">
<polygon fill="white" stroke="#666666" points="467.26,-76 296.76,-76 296.76,-56 467.26,-56 467.26,-76"/>
<text text-anchor="middle" x="382.01" y="-62.5" font-family="Helvetica,sans-Serif" font-size="10.00">D:/FMT/Include/PYexportModel.hpp</text>
</a>
</g>
</g>
<!-- Node7&#45;&gt;Node9 -->
<g id="edge17" class="edge">
<title>Node7&#45;&gt;Node9</title>
<path fill="none" stroke="#63b8ff" d="M340.46,-163.32C325.12,-156.5 309.93,-146.5 301.01,-132 285.57,-106.89 322.89,-87.34 351.88,-76.49"/>
<polygon fill="#63b8ff" stroke="#63b8ff" points="339.03,-166.52 349.62,-166.98 341.63,-160.02 339.03,-166.52"/>
</g>
<!-- Node7&#45;&gt;Node10 -->
<g id="edge18" class="edge">
<title>Node7&#45;&gt;Node10</title>
<path fill="none" stroke="#63b8ff" d="M481.12,-168.08C557.75,-163.78 848.7,-162.99 877.01,-132 899.23,-107.68 853.11,-87.57 817.93,-76.44"/>
<polygon fill="#63b8ff" stroke="#63b8ff" points="481.3,-164.55 471.57,-168.76 481.79,-171.54 481.3,-164.55"/>
</g>
<!-- Node11 -->
<g id="node11" class="node">
<title>Node11</title>
<g id="a_node11"><a xlink:href="RexportModel_8hpp.html" target="_top" xlink:title=" ">
<polygon fill="white" stroke="#666666" points="261.89,-76 98.14,-76 98.14,-56 261.89,-56 261.89,-76"/>
<text text-anchor="middle" x="180.01" y="-62.5" font-family="Helvetica,sans-Serif" font-size="10.00">D:/FMT/Include/RexportModel.hpp</text>
</a>
</g>
</g>
<!-- Node7&#45;&gt;Node11 -->
<g id="edge19" class="edge">
<title>Node7&#45;&gt;Node11</title>
<path fill="none" stroke="#63b8ff" d="M298.44,-166.69C209.33,-156.21 86.26,-140.37 79.01,-132 56.83,-106.38 103.51,-87.1 140.56,-76.43"/>
<polygon fill="#63b8ff" stroke="#63b8ff" points="297.84,-170.14 308.18,-167.83 298.65,-163.19 297.84,-170.14"/>
</g>
<!-- Node12 -->
<g id="node12" class="node">
<title>Node12</title>
<g id="a_node12"><a xlink:href="FMTsesmodel_8hpp.html" target="_top" xlink:title=" ">
<polygon fill="white" stroke="#666666" points="867.64,-132 702.39,-132 702.39,-112 867.64,-112 867.64,-132"/>
<text text-anchor="middle" x="785.01" y="-118.5" font-family="Helvetica,sans-Serif" font-size="10.00">D:/FMT/Include/FMTsesmodel.hpp</text>
</a>
</g>
</g>
<!-- Node7&#45;&gt;Node12 -->
<g id="edge11" class="edge">
<title>Node7&#45;&gt;Node12</title>
<path fill="none" stroke="#63b8ff" d="M470.56,-165.99C542.7,-156.13 647.4,-141.81 715.84,-132.46"/>
<polygon fill="#63b8ff" stroke="#63b8ff" points="470.2,-162.5 460.77,-167.33 471.15,-169.44 470.2,-162.5"/>
</g>
<!-- Node8&#45;&gt;Node9 -->
<g id="edge8" class="edge">
<title>Node8&#45;&gt;Node9</title>
<path fill="none" stroke="#63b8ff" d="M386.96,-100.43C385.73,-92.11 384.37,-82.93 383.39,-76.3"/>
<polygon fill="#63b8ff" stroke="#63b8ff" points="383.47,-100.72 388.4,-110.1 390.39,-99.69 383.47,-100.72"/>
</g>
<!-- Node8&#45;&gt;Node10 -->
<g id="edge9" class="edge">
<title>Node8&#45;&gt;Node10</title>
<path fill="none" stroke="#63b8ff" d="M470.15,-109.99C541.93,-100.13 646.09,-85.81 714.19,-76.46"/>
<polygon fill="#63b8ff" stroke="#63b8ff" points="469.85,-106.5 460.42,-111.33 470.8,-113.43 469.85,-106.5"/>
</g>
<!-- Node8&#45;&gt;Node11 -->
<g id="edge10" class="edge">
<title>Node8&#45;&gt;Node11</title>
<path fill="none" stroke="#63b8ff" d="M342.62,-108.81C304.55,-99.02 251.84,-85.47 216.88,-76.48"/>
<polygon fill="#63b8ff" stroke="#63b8ff" points="341.41,-112.12 351.97,-111.22 343.15,-105.34 341.41,-112.12"/>
</g>
<!-- Node12&#45;&gt;Node9 -->
<g id="edge14" class="edge">
<title>Node12&#45;&gt;Node9</title>
<path fill="none" stroke="#63b8ff" d="M703.29,-110.05C629.67,-100.18 522.56,-85.83 452.59,-76.46"/>
<polygon fill="#63b8ff" stroke="#63b8ff" points="702.48,-113.47 712.85,-111.33 703.41,-106.53 702.48,-113.47"/>
</g>
<!-- Node12&#45;&gt;Node10 -->
<g id="edge15" class="edge">
<title>Node12&#45;&gt;Node10</title>
<path fill="none" stroke="#63b8ff" d="M784.24,-100.13C783.93,-91.9 783.6,-82.85 783.36,-76.3"/>
<polygon fill="#63b8ff" stroke="#63b8ff" points="780.74,-100.22 784.61,-110.08 787.73,-99.96 780.74,-100.22"/>
</g>
<!-- Node12&#45;&gt;Node11 -->
<g id="edge16" class="edge">
<title>Node12&#45;&gt;Node11</title>
<path fill="none" stroke="#63b8ff" d="M691.04,-112.61C573.51,-102.12 374.16,-84.33 262.35,-74.35"/>
<polygon fill="#63b8ff" stroke="#63b8ff" points="690.38,-116.07 700.65,-113.47 691,-109.09 690.38,-116.07"/>
</g>
<!-- Node13 -->
<g id="node13" class="node">
<title>Node13</title>
<g id="a_node13"><a xlink:href="FMTpythonpickle_8hpp.html" target="_top" xlink:title=" ">
<polygon fill="white" stroke="#666666" points="1061.01,-76 883.01,-76 883.01,-56 1061.01,-56 1061.01,-76"/>
<text text-anchor="middle" x="972.01" y="-62.5" font-family="Helvetica,sans-Serif" font-size="10.00">D:/FMT/Include/FMTpythonpickle.hpp</text>
</a>
</g>
</g>
<!-- Node12&#45;&gt;Node13 -->
<g id="edge12" class="edge">
<title>Node12&#45;&gt;Node13</title>
<path fill="none" stroke="#63b8ff" d="M828.53,-108.43C862.32,-98.67 908.45,-85.35 939.18,-76.48"/>
<polygon fill="#63b8ff" stroke="#63b8ff" points="827.68,-105.04 819.04,-111.17 829.62,-111.76 827.68,-105.04"/>
</g>
<!-- Node14 -->
<g id="node14" class="node">
<title>Node14</title>
<g id="a_node14"><a xlink:href="PYexportHeuristics_8hpp.html" target="_top" xlink:title=" ">
<polygon fill="white" stroke="#666666" points="1182.89,-20 995.14,-20 995.14,0 1182.89,0 1182.89,-20"/>
<text text-anchor="middle" x="1089.01" y="-6.5" font-family="Helvetica,sans-Serif" font-size="10.00">D:/FMT/Include/PYexportHeuristics.hpp</text>
</a>
</g>
</g>
<!-- Node13&#45;&gt;Node14 -->
<g id="edge13" class="edge">
<title>Node13&#45;&gt;Node14</title>
<path fill="none" stroke="#63b8ff" d="M1002.61,-50.88C1023.37,-41.3 1050.25,-28.89 1068.47,-20.48"/>
<polygon fill="#63b8ff" stroke="#63b8ff" points="1001.38,-47.59 993.77,-54.96 1004.31,-53.95 1001.38,-47.59"/>
</g>
<!-- Node16&#45;&gt;Node14 -->
<g id="edge29" class="edge">
<title>Node16&#45;&gt;Node14</title>
<path fill="none" stroke="#63b8ff" d="M1237.79,-161.98C1276.62,-139.08 1339.06,-94.08 1308.01,-56 1291.95,-36.3 1234.98,-24.97 1183.17,-18.62"/>
<polygon fill="#63b8ff" stroke="#63b8ff" points="1236.28,-158.81 1229.35,-166.82 1239.76,-164.89 1236.28,-158.81"/>
</g>
<!-- Node17 -->
<g id="node17" class="node">
<title>Node17</title>
<g id="a_node17"><a xlink:href="FMToperatingareascheduler_8hpp.html" target="_top" xlink:title=" ">
<polygon fill="white" stroke="#666666" points="1251.89,-132 1028.14,-132 1028.14,-112 1251.89,-112 1251.89,-132"/>
<text text-anchor="middle" x="1140.01" y="-118.5" font-family="Helvetica,sans-Serif" font-size="10.00">D:/FMT/Include/FMToperatingareascheduler.hpp</text>
</a>
</g>
</g>
<!-- Node16&#45;&gt;Node17 -->
<g id="edge24" class="edge">
<title>Node16&#45;&gt;Node17</title>
<path fill="none" stroke="#63b8ff" d="M1188.86,-160.68C1176.81,-151.39 1162.16,-140.09 1152.07,-132.3"/>
<polygon fill="#63b8ff" stroke="#63b8ff" points="1186.56,-163.33 1196.62,-166.67 1190.84,-157.79 1186.56,-163.33"/>
</g>
<!-- Node18 -->
<g id="node18" class="node">
<title>Node18</title>
<g id="a_node18"><a xlink:href="RexportHeuristics_8hpp.html" target="_top" xlink:title=" ">
<polygon fill="white" stroke="#666666" points="1298.51,-76 1117.51,-76 1117.51,-56 1298.51,-56 1298.51,-76"/>
<text text-anchor="middle" x="1208.01" y="-62.5" font-family="Helvetica,sans-Serif" font-size="10.00">D:/FMT/Include/RexportHeuristics.hpp</text>
</a>
</g>
</g>
<!-- Node16&#45;&gt;Node18 -->
<g id="edge30" class="edge">
<title>Node16&#45;&gt;Node18</title>
<path fill="none" stroke="#63b8ff" d="M1235.64,-161.4C1252.4,-149.04 1269.7,-130.78 1261.01,-112 1253.76,-96.34 1238.07,-84.13 1225.64,-76.41"/>
<polygon fill="#63b8ff" stroke="#63b8ff" points="1234.07,-158.23 1227.8,-166.77 1238.03,-164 1234.07,-158.23"/>
</g>
<!-- Node17&#45;&gt;Node10 -->
<g id="edge27" class="edge">
<title>Node17&#45;&gt;Node10</title>
<path fill="none" stroke="#63b8ff" d="M1066.41,-109.87C1001.23,-100.01 907.13,-85.77 845.53,-76.46"/>
<polygon fill="#63b8ff" stroke="#63b8ff" points="1065.51,-113.27 1075.92,-111.31 1066.56,-106.35 1065.51,-113.27"/>
</g>
<!-- Node17&#45;&gt;Node13 -->
<g id="edge25" class="edge">
<title>Node17&#45;&gt;Node13</title>
<path fill="none" stroke="#63b8ff" d="M1100.12,-108.18C1069.84,-98.44 1028.87,-85.28 1001.5,-76.48"/>
<polygon fill="#63b8ff" stroke="#63b8ff" points="1098.72,-111.4 1109.31,-111.13 1100.86,-104.74 1098.72,-111.4"/>
</g>
<!-- Node17&#45;&gt;Node14 -->
<g id="edge26" class="edge">
<title>Node17&#45;&gt;Node14</title>
<path fill="none" stroke="#63b8ff" d="M1125.43,-102.58C1119.72,-94.72 1113.49,-85.25 1109.01,-76 1099.85,-57.08 1093.76,-33.05 1090.9,-20.16"/>
<polygon fill="#63b8ff" stroke="#63b8ff" points="1122.46,-104.46 1131.29,-110.32 1128.04,-100.23 1122.46,-104.46"/>
</g>
<!-- Node17&#45;&gt;Node18 -->
<g id="edge28" class="edge">
<title>Node17&#45;&gt;Node18</title>
<path fill="none" stroke="#63b8ff" d="M1160.56,-104.68C1172.26,-95.39 1186.5,-84.09 1196.3,-76.3"/>
<polygon fill="#63b8ff" stroke="#63b8ff" points="1158.7,-101.69 1153.04,-110.65 1163.05,-107.17 1158.7,-101.69"/>
</g>
<!-- Node19&#45;&gt;Node4 -->
<g id="edge32" class="edge">
<title>Node19&#45;&gt;Node4</title>
<path fill="none" stroke="#63b8ff" d="M636.6,-311.73C637.04,-319.96 636.6,-329.01 635.28,-335.59"/>
<polygon fill="#63b8ff" stroke="#63b8ff" points="640.07,-311.33 635.43,-301.8 633.12,-312.14 640.07,-311.33"/>
</g>
<!-- Node20&#45;&gt;Node9 -->
<g id="edge43" class="edge">
<title>Node20&#45;&gt;Node9</title>
<path fill="none" stroke="#63b8ff" d="M137.02,-165.07C95.22,-155.27 56.07,-138.6 79.01,-112 93.14,-95.61 211.77,-81.88 296.32,-74.04"/>
<polygon fill="#63b8ff" stroke="#63b8ff" points="136.25,-168.48 146.76,-167.2 137.75,-161.64 136.25,-168.48"/>
</g>
<!-- Node20&#45;&gt;Node10 -->
<g id="edge44" class="edge">
<title>Node20&#45;&gt;Node10</title>
<path fill="none" stroke="#63b8ff" d="M303.62,-167.78C460.06,-153.1 506.34,-175.71 654.01,-132 672.69,-126.47 675.63,-120.8 693.01,-112 717.48,-99.61 745.79,-85.49 764.02,-76.43"/>
<polygon fill="#63b8ff" stroke="#63b8ff" points="303.28,-164.3 293.67,-168.76 303.97,-171.26 303.28,-164.3"/>
</g>
<!-- Node20&#45;&gt;Node11 -->
<g id="edge45" class="edge">
<title>Node20&#45;&gt;Node11</title>
<path fill="none" stroke="#63b8ff" d="M122.24,-168.24C74.43,-161.54 22.71,-150.27 8.01,-132 -21.55,-95.25 40.31,-79.27 97.9,-72.32"/>
<polygon fill="#63b8ff" stroke="#63b8ff" points="121.76,-171.7 132.14,-169.56 122.69,-164.77 121.76,-171.7"/>
</g>
<!-- Node21 -->
<g id="node21" class="node">
<title>Node21</title>
<g id="a_node21"><a xlink:href="FMTlpmodel_8hpp.html" target="_top" xlink:title=" ">
<polygon fill="white" stroke="#666666" points="645.51,-132 488.51,-132 488.51,-112 645.51,-112 645.51,-132"/>
<text text-anchor="middle" x="567.01" y="-118.5" font-family="Helvetica,sans-Serif" font-size="10.00">D:/FMT/Include/FMTlpmodel.hpp</text>
</a>
</g>
</g>
<!-- Node20&#45;&gt;Node21 -->
<g id="edge34" class="edge">
<title>Node20&#45;&gt;Node21</title>
<path fill="none" stroke="#63b8ff" d="M286.4,-165.81C351.01,-155.95 444.06,-141.76 505.02,-132.46"/>
<polygon fill="#63b8ff" stroke="#63b8ff" points="285.93,-162.34 276.58,-167.3 286.99,-169.26 285.93,-162.34"/>
</g>
<!-- Node22 -->
<g id="node22" class="node">
<title>Node22</title>
<g id="a_node22"><a xlink:href="FMTnssmodel_8hpp.html" target="_top" xlink:title=" ">
<polygon fill="white" stroke="#666666" points="253.64,-132 88.39,-132 88.39,-112 253.64,-112 253.64,-132"/>
<text text-anchor="middle" x="171.01" y="-118.5" font-family="Helvetica,sans-Serif" font-size="10.00">D:/FMT/Include/FMTnssmodel.hpp</text>
</a>
</g>
</g>
<!-- Node20&#45;&gt;Node22 -->
<g id="edge39" class="edge">
<title>Node20&#45;&gt;Node22</title>
<path fill="none" stroke="#63b8ff" d="M198.79,-158.72C191.89,-149.84 183.88,-139.55 178.24,-132.3"/>
<polygon fill="#63b8ff" stroke="#63b8ff" points="195.86,-160.65 204.77,-166.4 201.39,-156.36 195.86,-160.65"/>
</g>
<!-- Node21&#45;&gt;Node9 -->
<g id="edge36" class="edge">
<title>Node21&#45;&gt;Node9</title>
<path fill="none" stroke="#63b8ff" d="M523.96,-108.43C490.53,-98.67 444.89,-85.35 414.49,-76.48"/>
<polygon fill="#63b8ff" stroke="#63b8ff" points="522.75,-111.73 533.33,-111.17 524.72,-105.01 522.75,-111.73"/>
</g>
<!-- Node21&#45;&gt;Node10 -->
<g id="edge37" class="edge">
<title>Node21&#45;&gt;Node10</title>
<path fill="none" stroke="#63b8ff" d="M615.76,-108.81C654.92,-99.02 709.13,-85.47 745.09,-76.48"/>
<polygon fill="#63b8ff" stroke="#63b8ff" points="614.96,-105.41 606.1,-111.23 616.66,-112.2 614.96,-105.41"/>
</g>
<!-- Node21&#45;&gt;Node11 -->
<g id="edge38" class="edge">
<title>Node21&#45;&gt;Node11</title>
<path fill="none" stroke="#63b8ff" d="M488.1,-109.99C417.41,-100.13 314.84,-85.81 247.79,-76.46"/>
<polygon fill="#63b8ff" stroke="#63b8ff" points="487.27,-113.41 497.66,-111.32 488.24,-106.47 487.27,-113.41"/>
</g>
<!-- Node21&#45;&gt;Node13 -->
<g id="edge35" class="edge">
<title>Node21&#45;&gt;Node13</title>
<path fill="none" stroke="#63b8ff" d="M649.14,-110.05C723.13,-100.18 830.77,-85.83 901.08,-76.46"/>
<polygon fill="#63b8ff" stroke="#63b8ff" points="648.97,-106.54 639.52,-111.33 649.9,-113.48 648.97,-106.54"/>
</g>
<!-- Node22&#45;&gt;Node9 -->
<g id="edge40" class="edge">
<title>Node22&#45;&gt;Node9</title>
<path fill="none" stroke="#63b8ff" d="M218.63,-108.81C256.89,-99.02 309.84,-85.47 344.97,-76.48"/>
<polygon fill="#63b8ff" stroke="#63b8ff" points="218.05,-105.35 209.23,-111.22 219.79,-112.13 218.05,-105.35"/>
</g>
<!-- Node22&#45;&gt;Node10 -->
<g id="edge41" class="edge">
<title>Node22&#45;&gt;Node10</title>
<path fill="none" stroke="#63b8ff" d="M265.15,-112.69C384.5,-102.16 588.32,-84.18 701.39,-74.2"/>
<polygon fill="#63b8ff" stroke="#63b8ff" points="265.03,-109.19 255.37,-113.56 265.64,-116.16 265.03,-109.19"/>
</g>
<!-- Node22&#45;&gt;Node11 -->
<g id="edge42" class="edge">
<title>Node22&#45;&gt;Node11</title>
<path fill="none" stroke="#63b8ff" d="M174.44,-100.43C175.83,-92.11 177.36,-82.93 178.46,-76.3"/>
<polygon fill="#63b8ff" stroke="#63b8ff" points="171.02,-99.66 172.83,-110.1 177.92,-100.81 171.02,-99.66"/>
</g>
</g>
</svg>
