<?xml version="1.0" encoding="UTF-8" standalone="no"?>
<!DOCTYPE svg PUBLIC "-//W3C//DTD SVG 1.1//EN"
 "http://www.w3.org/Graphics/SVG/1.1/DTD/svg11.dtd">
<!-- Generated by graphviz version 8.1.0 (20230707.0739)
 -->
<!-- Title: C:/Temp/out/FMT/Include/FMTgraphstats.hpp Pages: 1 -->
<svg width="913pt" height="232pt"
 viewBox="0.00 0.00 912.71 232.00" xmlns="http://www.w3.org/2000/svg" xmlns:xlink="http://www.w3.org/1999/xlink">
<g id="graph0" class="graph" transform="scale(1 1) rotate(0) translate(4 228)">
<title>C:/Temp/out/FMT/Include/FMTgraphstats.hpp</title>
<!-- Node1 -->
<g id="Node000001" class="node">
<title>Node1</title>
<g id="a_Node000001"><a xlink:title=" ">
<polygon fill="#999999" stroke="#666666" points="344.12,-224 218.62,-224 218.62,-192 344.12,-192 344.12,-224"/>
<text text-anchor="start" x="226.62" y="-210.5" font-family="Helvetica,sans-Serif" font-size="10.00">C:/Temp/out/FMT/Include</text>
<text text-anchor="middle" x="281.38" y="-198.5" font-family="Helvetica,sans-Serif" font-size="10.00">/FMTgraphstats.hpp</text>
</a>
</g>
</g>
<!-- Node2 -->
<g id="Node000002" class="node">
<title>Node2</title>
<g id="a_Node000002"><a xlink:title=" ">
<polygon fill="#e0e0e0" stroke="#999999" points="94.75,-156 0,-156 0,-124 94.75,-124 94.75,-156"/>
<text text-anchor="start" x="8" y="-142.5" font-family="Helvetica,sans-Serif" font-size="10.00">boost/serialization</text>
<text text-anchor="middle" x="47.38" y="-130.5" font-family="Helvetica,sans-Serif" font-size="10.00">/serialization.hpp</text>
</a>
</g>
</g>
<!-- Node1&#45;&gt;Node2 -->
<g id="edge1_Node000001_Node000002" class="edge">
<title>Node1&#45;&gt;Node2</title>
<g id="a_edge1_Node000001_Node000002"><a xlink:title=" ">
<path fill="none" stroke="#63b8ff" d="M226.51,-191.53C190.09,-181.25 142.34,-167.79 105.3,-157.34"/>
<polygon fill="#63b8ff" stroke="#63b8ff" points="106.73,-153.82 96.16,-154.48 104.83,-160.56 106.73,-153.82"/>
</a>
</g>
</g>
<!-- Node3 -->
<g id="Node000003" class="node">
<title>Node3</title>
<g id="a_Node000003"><a xlink:title=" ">
<polygon fill="#e0e0e0" stroke="#999999" points="244.75,-88 150,-88 150,-56 244.75,-56 244.75,-88"/>
<text text-anchor="start" x="158" y="-74.5" font-family="Helvetica,sans-Serif" font-size="10.00">boost/serialization</text>
<text text-anchor="middle" x="197.38" y="-62.5" font-family="Helvetica,sans-Serif" font-size="10.00">/nvp.hpp</text>
</a>
</g>
</g>
<!-- Node1&#45;&gt;Node3 -->
<g id="edge2_Node000001_Node000003" class="edge">
<title>Node1&#45;&gt;Node3</title>
<g id="a_edge2_Node000001_Node000003"><a xlink:title=" ">
<path fill="none" stroke="#63b8ff" d="M271.74,-191.63C257.31,-168.61 229.94,-124.95 212.74,-97.5"/>
<polygon fill="#63b8ff" stroke="#63b8ff" points="215.18,-95.81 206.9,-89.19 209.24,-99.52 215.18,-95.81"/>
</a>
</g>
</g>
<!-- Node4 -->
<g id="Node000004" class="node">
<title>Node4</title>
<g id="a_Node000004"><a xlink:title=" ">
<polygon fill="#e0e0e0" stroke="#999999" points="357.75,-88 263,-88 263,-56 357.75,-56 357.75,-88"/>
<text text-anchor="start" x="271" y="-74.5" font-family="Helvetica,sans-Serif" font-size="10.00">boost/serialization</text>
<text text-anchor="middle" x="310.38" y="-62.5" font-family="Helvetica,sans-Serif" font-size="10.00">/export.hpp</text>
</a>
</g>
</g>
<!-- Node1&#45;&gt;Node4 -->
<g id="edge3_Node000001_Node000004" class="edge">
<title>Node1&#45;&gt;Node4</title>
<g id="a_edge3_Node000001_Node000004"><a xlink:title=" ">
<path fill="none" stroke="#63b8ff" d="M284.7,-191.63C289.62,-168.91 298.88,-126.1 304.84,-98.6"/>
<polygon fill="#63b8ff" stroke="#63b8ff" points="308.39,-99.71 307.09,-89.19 301.55,-98.23 308.39,-99.71"/>
</a>
</g>
</g>
<!-- Node5 -->
<g id="Node000005" class="node">
<title>Node5</title>
<g id="a_Node000005"><a xlink:title=" ">
<polygon fill="#e0e0e0" stroke="#999999" points="405,-20 353.75,-20 353.75,0 405,0 405,-20"/>
<text text-anchor="middle" x="379.38" y="-6.5" font-family="Helvetica,sans-Serif" font-size="10.00">memory</text>
</a>
</g>
</g>
<!-- Node1&#45;&gt;Node5 -->
<g id="edge4_Node000001_Node000005" class="edge">
<title>Node1&#45;&gt;Node5</title>
<g id="a_edge4_Node000001_Node000005"><a xlink:title=" ">
<path fill="none" stroke="#63b8ff" d="M247.91,-191.65C194.1,-164.93 98.49,-107.75 141.38,-56 166.52,-25.66 282.41,-15.62 342.7,-12.43"/>
<polygon fill="#63b8ff" stroke="#63b8ff" points="342.81,-15.88 352.62,-11.89 342.46,-8.88 342.81,-15.88"/>
</a>
</g>
</g>
<!-- Node6 -->
<g id="Node000006" class="node">
<title>Node6</title>
<g id="a_Node000006"><a xlink:title=" ">
<polygon fill="#e0e0e0" stroke="#999999" points="824.38,-20 784.38,-20 784.38,0 824.38,0 824.38,-20"/>
<text text-anchor="middle" x="804.38" y="-6.5" font-family="Helvetica,sans-Serif" font-size="10.00">string</text>
</a>
</g>
</g>
<!-- Node1&#45;&gt;Node6 -->
<g id="edge5_Node000001_Node000006" class="edge">
<title>Node1&#45;&gt;Node6</title>
<g id="a_edge5_Node000001_Node000006"><a xlink:title=" ">
<path fill="none" stroke="#63b8ff" d="M344.38,-204.62C487.17,-197.75 828.49,-172.65 898.38,-88 907.43,-77.03 905.96,-68.03 898.38,-56 884.6,-34.13 856.92,-22.65 835.15,-16.78"/>
<polygon fill="#63b8ff" stroke="#63b8ff" points="836.26,-13.21 825.72,-14.27 834.62,-20.01 836.26,-13.21"/>
</a>
</g>
</g>
<!-- Node7 -->
<g id="Node000007" class="node">
<title>Node7</title>
<g id="a_Node000007"><a xlink:href="FMTobject_8hpp.html" target="_top" xlink:title=" ">
<polygon fill="white" stroke="#666666" points="474.62,-150 394.12,-150 394.12,-130 474.62,-130 474.62,-150"/>
<text text-anchor="middle" x="434.38" y="-136.5" font-family="Helvetica,sans-Serif" font-size="10.00">FMTobject.hpp</text>
</a>
</g>
</g>
<!-- Node1&#45;&gt;Node7 -->
<g id="edge6_Node000001_Node000007" class="edge">
<title>Node1&#45;&gt;Node7</title>
<g id="a_edge6_Node000001_Node000007"><a xlink:title=" ">
<path fill="none" stroke="#63b8ff" d="M317.25,-191.53C343.06,-180.39 377.57,-165.51 402.43,-154.78"/>
<polygon fill="#63b8ff" stroke="#63b8ff" points="403.65,-157.63 411.44,-150.46 400.88,-151.21 403.65,-157.63"/>
</a>
</g>
</g>
<!-- Node7&#45;&gt;Node3 -->
<g id="edge8_Node000007_Node000003" class="edge">
<title>Node7&#45;&gt;Node3</title>
<g id="a_edge8_Node000007_Node000003"><a xlink:title=" ">
<path fill="none" stroke="#63b8ff" d="M400.42,-129.54C362.66,-119.03 301,-101.86 255.52,-89.19"/>
<polygon fill="#63b8ff" stroke="#63b8ff" points="256.78,-85.63 246.21,-86.32 254.9,-92.37 256.78,-85.63"/>
</a>
</g>
</g>
<!-- Node7&#45;&gt;Node4 -->
<g id="edge9_Node000007_Node000004" class="edge">
<title>Node7&#45;&gt;Node4</title>
<g id="a_edge9_Node000007_Node000004"><a xlink:title=" ">
<path fill="none" stroke="#63b8ff" d="M416.61,-129.54C398.99,-120.17 371.43,-105.5 348.8,-93.45"/>
<polygon fill="#63b8ff" stroke="#63b8ff" points="350.59,-89.91 340.12,-88.3 347.31,-96.09 350.59,-89.91"/>
</a>
</g>
</g>
<!-- Node7&#45;&gt;Node5 -->
<g id="edge16_Node000007_Node000005" class="edge">
<title>Node7&#45;&gt;Node5</title>
<g id="a_edge16_Node000007_Node000005"><a xlink:title=" ">
<path fill="none" stroke="#63b8ff" d="M427.97,-129.56C421.4,-119.57 411.2,-103.18 404.38,-88 395.92,-69.21 388.95,-46.68 384.54,-30.86"/>
<polygon fill="#63b8ff" stroke="#63b8ff" points="387.66,-30 381.68,-21.25 380.9,-31.82 387.66,-30"/>
</a>
</g>
</g>
<!-- Node8 -->
<g id="Node000008" class="node">
<title>Node8</title>
<g id="a_Node000008"><a xlink:title=" ">
<polygon fill="#e0e0e0" stroke="#999999" points="825.75,-88 731,-88 731,-56 825.75,-56 825.75,-88"/>
<text text-anchor="start" x="739" y="-74.5" font-family="Helvetica,sans-Serif" font-size="10.00">boost/serialization</text>
<text text-anchor="middle" x="778.38" y="-62.5" font-family="Helvetica,sans-Serif" font-size="10.00">/shared_ptr.hpp</text>
</a>
</g>
</g>
<!-- Node7&#45;&gt;Node8 -->
<g id="edge7_Node000007_Node000008" class="edge">
<title>Node7&#45;&gt;Node8</title>
<g id="a_edge7_Node000007_Node000008"><a xlink:title=" ">
<path fill="none" stroke="#63b8ff" d="M474.98,-132.85C528.75,-124.48 626.73,-108.41 720.07,-88.18"/>
<polygon fill="#63b8ff" stroke="#63b8ff" points="720.53,-91.44 729.55,-85.89 719.03,-84.61 720.53,-91.44"/>
</a>
</g>
</g>
<!-- Node9 -->
<g id="Node000009" class="node">
<title>Node9</title>
<g id="a_Node000009"><a xlink:href="FMTexception_8hpp.html" target="_top" xlink:title=" ">
<polygon fill="white" stroke="#666666" points="569.5,-82 473.25,-82 473.25,-62 569.5,-62 569.5,-82"/>
<text text-anchor="middle" x="521.38" y="-68.5" font-family="Helvetica,sans-Serif" font-size="10.00">FMTexception.hpp</text>
</a>
</g>
</g>
<!-- Node7&#45;&gt;Node9 -->
<g id="edge10_Node000007_Node000009" class="edge">
<title>Node7&#45;&gt;Node9</title>
<g id="a_edge10_Node000007_Node000009"><a xlink:title=" ">
<path fill="none" stroke="#63b8ff" d="M446.84,-129.54C460.79,-118.96 483.64,-101.63 500.37,-88.94"/>
<polygon fill="#63b8ff" stroke="#63b8ff" points="502.08,-91.27 507.93,-82.44 497.85,-85.69 502.08,-91.27"/>
</a>
</g>
</g>
<!-- Node13 -->
<g id="Node000013" class="node">
<title>Node13</title>
<g id="a_Node000013"><a xlink:title=" ">
<polygon fill="#e0e0e0" stroke="#999999" points="889,-82 843.75,-82 843.75,-62 889,-62 889,-82"/>
<text text-anchor="middle" x="866.38" y="-68.5" font-family="Helvetica,sans-Serif" font-size="10.00">chrono</text>
</a>
</g>
</g>
<!-- Node7&#45;&gt;Node13 -->
<g id="edge17_Node000007_Node000013" class="edge">
<title>Node7&#45;&gt;Node13</title>
<g id="a_edge17_Node000007_Node000013"><a xlink:title=" ">
<path fill="none" stroke="#63b8ff" d="M474.96,-137.97C548.17,-135.22 706.64,-125.09 834.38,-88 835.88,-87.56 837.41,-87.06 838.94,-86.51"/>
<polygon fill="#63b8ff" stroke="#63b8ff" points="839.92,-89.48 847.82,-82.42 837.24,-83.02 839.92,-89.48"/>
</a>
</g>
</g>
<!-- Node14 -->
<g id="Node000014" class="node">
<title>Node14</title>
<g id="a_Node000014"><a xlink:title=" ">
<polygon fill="#e0e0e0" stroke="#999999" points="455.12,-82 413.62,-82 413.62,-62 455.12,-62 455.12,-82"/>
<text text-anchor="middle" x="434.38" y="-68.5" font-family="Helvetica,sans-Serif" font-size="10.00">vector</text>
</a>
</g>
</g>
<!-- Node7&#45;&gt;Node14 -->
<g id="edge18_Node000007_Node000014" class="edge">
<title>Node7&#45;&gt;Node14</title>
<g id="a_edge18_Node000007_Node000014"><a xlink:title=" ">
<path fill="none" stroke="#63b8ff" d="M434.38,-129.54C434.38,-120.13 434.38,-105.39 434.38,-93.32"/>
<polygon fill="#63b8ff" stroke="#63b8ff" points="437.88,-93.44 434.38,-83.44 430.88,-93.44 437.88,-93.44"/>
</a>
</g>
</g>
<!-- Node15 -->
<g id="Node000015" class="node">
<title>Node15</title>
<g id="a_Node000015"><a xlink:title=" ">
<polygon fill="#e0e0e0" stroke="#999999" points="712.75,-88 588,-88 588,-56 712.75,-56 712.75,-88"/>
<text text-anchor="start" x="596" y="-74.5" font-family="Helvetica,sans-Serif" font-size="10.00">boost/dll/runtime_symbol</text>
<text text-anchor="middle" x="650.38" y="-62.5" font-family="Helvetica,sans-Serif" font-size="10.00">_info.hpp</text>
</a>
</g>
</g>
<!-- Node7&#45;&gt;Node15 -->
<g id="edge19_Node000007_Node000015" class="edge">
<title>Node7&#45;&gt;Node15</title>
<g id="a_edge19_Node000007_Node000015"><a xlink:title=" ">
<path fill="none" stroke="#63b8ff" d="M465.32,-129.54C497.62,-119.67 549.11,-103.94 589.58,-91.57"/>
<polygon fill="#63b8ff" stroke="#63b8ff" points="590.34,-94.7 598.88,-88.43 588.3,-88 590.34,-94.7"/>
</a>
</g>
</g>
<!-- Node9&#45;&gt;Node5 -->
<g id="edge14_Node000009_Node000005" class="edge">
<title>Node9&#45;&gt;Node5</title>
<g id="a_edge14_Node000009_Node000005"><a xlink:title=" ">
<path fill="none" stroke="#63b8ff" d="M499.19,-61.62C475.64,-51.67 438.2,-35.85 411.44,-24.55"/>
<polygon fill="#63b8ff" stroke="#63b8ff" points="412.98,-20.98 402.41,-20.31 410.26,-27.43 412.98,-20.98"/>
</a>
</g>
</g>
<!-- Node9&#45;&gt;Node6 -->
<g id="edge12_Node000009_Node000006" class="edge">
<title>Node9&#45;&gt;Node6</title>
<g id="a_edge12_Node000009_Node000006"><a xlink:title=" ">
<path fill="none" stroke="#63b8ff" d="M556.57,-61.56C564.08,-59.64 571.97,-57.7 579.38,-56 648.35,-40.2 729.93,-24.66 773.42,-16.63"/>
<polygon fill="#63b8ff" stroke="#63b8ff" points="773.92,-19.91 783.13,-14.66 772.66,-13.02 773.92,-19.91"/>
</a>
</g>
</g>
<!-- Node10 -->
<g id="Node000010" class="node">
<title>Node10</title>
<g id="a_Node000010"><a xlink:title=" ">
<polygon fill="#e0e0e0" stroke="#999999" points="481.38,-20 423.38,-20 423.38,0 481.38,0 481.38,-20"/>
<text text-anchor="middle" x="452.38" y="-6.5" font-family="Helvetica,sans-Serif" font-size="10.00">exception</text>
</a>
</g>
</g>
<!-- Node9&#45;&gt;Node10 -->
<g id="edge11_Node000009_Node000010" class="edge">
<title>Node9&#45;&gt;Node10</title>
<g id="a_edge11_Node000009_Node000010"><a xlink:title=" ">
<path fill="none" stroke="#63b8ff" d="M510.59,-61.62C500,-52.41 483.62,-38.17 470.93,-27.14"/>
<polygon fill="#63b8ff" stroke="#63b8ff" points="473.7,-24.03 463.85,-20.11 469.1,-29.32 473.7,-24.03"/>
</a>
</g>
</g>
<!-- Node11 -->
<g id="Node000011" class="node">
<title>Node11</title>
<g id="a_Node000011"><a xlink:title=" ">
<polygon fill="#e0e0e0" stroke="#999999" points="553.12,-20 499.62,-20 499.62,0 553.12,0 553.12,-20"/>
<text text-anchor="middle" x="526.38" y="-6.5" font-family="Helvetica,sans-Serif" font-size="10.00">iostream</text>
</a>
</g>
</g>
<!-- Node9&#45;&gt;Node11 -->
<g id="edge13_Node000009_Node000011" class="edge">
<title>Node9&#45;&gt;Node11</title>
<g id="a_edge13_Node000009_Node000011"><a xlink:title=" ">
<path fill="none" stroke="#63b8ff" d="M522.16,-61.62C522.84,-53.48 523.84,-41.39 524.7,-31.07"/>
<polygon fill="#63b8ff" stroke="#63b8ff" points="528.27,-31.37 525.62,-21.11 521.3,-30.79 528.27,-31.37"/>
</a>
</g>
</g>
<!-- Node12 -->
<g id="Node000012" class="node">
<title>Node12</title>
<g id="a_Node000012"><a xlink:href="FMTutility_8hpp.html" target="_top" xlink:title=" ">
<polygon fill="white" stroke="#666666" points="649.12,-20 571.62,-20 571.62,0 649.12,0 649.12,-20"/>
<text text-anchor="middle" x="610.38" y="-6.5" font-family="Helvetica,sans-Serif" font-size="10.00">FMTutility.hpp</text>
</a>
</g>
</g>
<!-- Node9&#45;&gt;Node12 -->
<g id="edge15_Node000009_Node000012" class="edge">
<title>Node9&#45;&gt;Node12</title>
<g id="a_edge15_Node000009_Node000012"><a xlink:title=" ">
<path fill="none" stroke="#63b8ff" d="M535.28,-61.62C549.26,-52.2 571.04,-37.52 587.55,-26.39"/>
<polygon fill="#63b8ff" stroke="#63b8ff" points="589.23,-28.8 595.57,-20.31 585.32,-23 589.23,-28.8"/>
</a>
</g>
</g>
</g>
</svg>
