<?xml version="1.0" encoding="UTF-8" standalone="no"?>
<!DOCTYPE svg PUBLIC "-//W3C//DTD SVG 1.1//EN"
 "http://www.w3.org/Graphics/SVG/1.1/DTD/svg11.dtd">
<!-- Generated by graphviz version 10.0.1 (20240210.2158)
 -->
<!-- Title: D:/FMT/Include/FMTInvalidMaskrange.h Pages: 1 -->
<svg width="844pt" height="300pt"
 viewBox="0.00 0.00 844.09 300.00" xmlns="http://www.w3.org/2000/svg" xmlns:xlink="http://www.w3.org/1999/xlink">
<g id="graph0" class="graph" transform="scale(1 1) rotate(0) translate(4 296)">
<title>D:/FMT/Include/FMTInvalidMaskrange.h</title>
<!-- Node1 -->
<g id="node1" class="node">
<title>Node1</title>
<g id="a_node1"><a xlink:title=" ">
<polygon fill="#999999" stroke="#666666" points="717.09,-292 586.34,-292 586.34,-260 717.09,-260 717.09,-292"/>
<text text-anchor="start" x="594.34" y="-278.5" font-family="Helvetica,sans-Serif" font-size="10.00">D:/FMT/Include/FMTInvalid</text>
<text text-anchor="middle" x="651.71" y="-266.5" font-family="Helvetica,sans-Serif" font-size="10.00">Maskrange.h</text>
</a>
</g>
</g>
<!-- Node2 -->
<g id="node2" class="node">
<title>Node2</title>
<g id="a_node2"><a xlink:href="FMTError_8h.html" target="_top" xlink:title=" ">
<polygon fill="white" stroke="#666666" points="321.09,-218 256.34,-218 256.34,-198 321.09,-198 321.09,-218"/>
<text text-anchor="middle" x="288.71" y="-204.5" font-family="Helvetica,sans-Serif" font-size="10.00">FMTError.h</text>
</a>
</g>
</g>
<!-- Node1&#45;&gt;Node2 -->
<g id="edge1" class="edge">
<title>Node1&#45;&gt;Node2</title>
<path fill="none" stroke="#63b8ff" d="M585.98,-263.05C512.5,-249.69 395.59,-228.43 332.51,-216.96"/>
<polygon fill="#63b8ff" stroke="#63b8ff" points="333.33,-213.56 322.87,-215.21 332.08,-220.44 333.33,-213.56"/>
</g>
<!-- Node3 -->
<g id="node3" class="node">
<title>Node3</title>
<g id="a_node3"><a xlink:href="FMTException_8h.html" target="_top" xlink:title=" ">
<polygon fill="white" stroke="#666666" points="516.34,-150 429.09,-150 429.09,-130 516.34,-130 516.34,-150"/>
<text text-anchor="middle" x="472.71" y="-136.5" font-family="Helvetica,sans-Serif" font-size="10.00">FMTException.h</text>
</a>
</g>
</g>
<!-- Node1&#45;&gt;Node3 -->
<g id="edge18" class="edge">
<title>Node1&#45;&gt;Node3</title>
<path fill="none" stroke="#63b8ff" d="M631.18,-259.63C596.93,-233.99 528.5,-182.76 493.85,-156.83"/>
<polygon fill="#63b8ff" stroke="#63b8ff" points="496.35,-154.32 486.25,-151.13 492.15,-159.93 496.35,-154.32"/>
</g>
<!-- Node5 -->
<g id="node5" class="node">
<title>Node5</title>
<g id="a_node5"><a xlink:title=" ">
<polygon fill="#e0e0e0" stroke="#999999" points="640.71,-20 600.71,-20 600.71,0 640.71,0 640.71,-20"/>
<text text-anchor="middle" x="620.71" y="-6.5" font-family="Helvetica,sans-Serif" font-size="10.00">string</text>
</a>
</g>
</g>
<!-- Node1&#45;&gt;Node5 -->
<g id="edge19" class="edge">
<title>Node1&#45;&gt;Node5</title>
<path fill="none" stroke="#63b8ff" d="M661.44,-259.54C683.64,-222.1 733.26,-124.56 694.71,-56 685.49,-39.6 667.61,-28.48 651.73,-21.4"/>
<polygon fill="#63b8ff" stroke="#63b8ff" points="653.17,-18.21 642.59,-17.69 650.54,-24.7 653.17,-18.21"/>
</g>
<!-- Node8 -->
<g id="node8" class="node">
<title>Node8</title>
<g id="a_node8"><a xlink:href="FMTutility_8h.html" target="_top" xlink:title=" ">
<polygon fill="white" stroke="#666666" points="685.21,-82 618.21,-82 618.21,-62 685.21,-62 685.21,-82"/>
<text text-anchor="middle" x="651.71" y="-68.5" font-family="Helvetica,sans-Serif" font-size="10.00">FMTutility.h</text>
</a>
</g>
</g>
<!-- Node1&#45;&gt;Node8 -->
<g id="edge17" class="edge">
<title>Node1&#45;&gt;Node8</title>
<path fill="none" stroke="#63b8ff" d="M651.71,-259.82C651.71,-224.05 651.71,-134.46 651.71,-93.73"/>
<polygon fill="#63b8ff" stroke="#63b8ff" points="655.21,-93.87 651.71,-83.87 648.21,-93.87 655.21,-93.87"/>
</g>
<!-- Node15 -->
<g id="node15" class="node">
<title>Node15</title>
<g id="a_node15"><a xlink:title=" ">
<polygon fill="#e0e0e0" stroke="#999999" points="836.09,-224 741.34,-224 741.34,-192 836.09,-192 836.09,-224"/>
<text text-anchor="start" x="749.34" y="-210.5" font-family="Helvetica,sans-Serif" font-size="10.00">boost/serialization</text>
<text text-anchor="middle" x="788.71" y="-198.5" font-family="Helvetica,sans-Serif" font-size="10.00">/export.hpp</text>
</a>
</g>
</g>
<!-- Node1&#45;&gt;Node15 -->
<g id="edge20" class="edge">
<title>Node1&#45;&gt;Node15</title>
<path fill="none" stroke="#63b8ff" d="M683.83,-259.53C702.56,-250.51 726.39,-239.03 746.6,-229.29"/>
<polygon fill="#63b8ff" stroke="#63b8ff" points="747.94,-232.53 755.43,-225.03 744.9,-226.22 747.94,-232.53"/>
</g>
<!-- Node2&#45;&gt;Node3 -->
<g id="edge2" class="edge">
<title>Node2&#45;&gt;Node3</title>
<path fill="none" stroke="#63b8ff" d="M315.08,-197.54C346.77,-186.17 400.17,-167.02 435.91,-154.2"/>
<polygon fill="#63b8ff" stroke="#63b8ff" points="436.74,-157.62 444.97,-150.95 434.38,-151.03 436.74,-157.62"/>
</g>
<!-- Node2&#45;&gt;Node5 -->
<g id="edge12" class="edge">
<title>Node2&#45;&gt;Node5</title>
<path fill="none" stroke="#63b8ff" d="M255.92,-206.08C188.89,-203.43 39.89,-193.37 8.71,-156 -4.6,-140.05 -1.93,-73.15 15.71,-56 57.06,-15.81 470.42,-11.45 589.04,-11.03"/>
<polygon fill="#63b8ff" stroke="#63b8ff" points="589,-14.53 598.99,-11 588.98,-7.53 589,-14.53"/>
</g>
<!-- Node10 -->
<g id="node10" class="node">
<title>Node10</title>
<g id="a_node10"><a xlink:title=" ">
<polygon fill="#e0e0e0" stroke="#999999" points="119.09,-88 24.34,-88 24.34,-56 119.09,-56 119.09,-88"/>
<text text-anchor="start" x="32.34" y="-74.5" font-family="Helvetica,sans-Serif" font-size="10.00">boost/serialization</text>
<text text-anchor="middle" x="71.71" y="-62.5" font-family="Helvetica,sans-Serif" font-size="10.00">/base_object.hpp</text>
</a>
</g>
</g>
<!-- Node2&#45;&gt;Node10 -->
<g id="edge16" class="edge">
<title>Node2&#45;&gt;Node10</title>
<path fill="none" stroke="#63b8ff" d="M289.47,-197.57C290.3,-180.47 289.43,-144.21 269.71,-124 226.93,-80.14 194.86,-101.63 130.37,-88.14"/>
<polygon fill="#63b8ff" stroke="#63b8ff" points="131.3,-84.77 120.77,-85.89 129.7,-91.58 131.3,-84.77"/>
</g>
<!-- Node12 -->
<g id="node12" class="node">
<title>Node12</title>
<g id="a_node12"><a xlink:title=" ">
<polygon fill="#e0e0e0" stroke="#999999" points="411.09,-156 316.34,-156 316.34,-124 411.09,-124 411.09,-156"/>
<text text-anchor="start" x="324.34" y="-142.5" font-family="Helvetica,sans-Serif" font-size="10.00">boost/serialization</text>
<text text-anchor="middle" x="363.71" y="-130.5" font-family="Helvetica,sans-Serif" font-size="10.00">/serialization.hpp</text>
</a>
</g>
</g>
<!-- Node2&#45;&gt;Node12 -->
<g id="edge13" class="edge">
<title>Node2&#45;&gt;Node12</title>
<path fill="none" stroke="#63b8ff" d="M299.46,-197.54C309.49,-188.71 324.86,-175.19 338.05,-163.58"/>
<polygon fill="#63b8ff" stroke="#63b8ff" points="339.99,-166.53 345.19,-157.3 335.37,-161.28 339.99,-166.53"/>
</g>
<!-- Node13 -->
<g id="node13" class="node">
<title>Node13</title>
<g id="a_node13"><a xlink:title=" ">
<polygon fill="#e0e0e0" stroke="#999999" points="148.09,-150 17.34,-150 17.34,-130 148.09,-130 148.09,-150"/>
<text text-anchor="middle" x="82.71" y="-136.5" font-family="Helvetica,sans-Serif" font-size="10.00">boost/graph/exception.hpp</text>
</a>
</g>
</g>
<!-- Node2&#45;&gt;Node13 -->
<g id="edge14" class="edge">
<title>Node2&#45;&gt;Node13</title>
<path fill="none" stroke="#63b8ff" d="M259.2,-197.54C223.48,-186.1 163.16,-166.77 123.14,-153.95"/>
<polygon fill="#63b8ff" stroke="#63b8ff" points="124.21,-150.62 113.61,-150.9 122.07,-157.28 124.21,-150.62"/>
</g>
<!-- Node14 -->
<g id="node14" class="node">
<title>Node14</title>
<g id="a_node14"><a xlink:title=" ">
<polygon fill="#e0e0e0" stroke="#999999" points="261.09,-156 166.34,-156 166.34,-124 261.09,-124 261.09,-156"/>
<text text-anchor="start" x="174.34" y="-142.5" font-family="Helvetica,sans-Serif" font-size="10.00">boost/serialization</text>
<text text-anchor="middle" x="213.71" y="-130.5" font-family="Helvetica,sans-Serif" font-size="10.00">/nvp.hpp</text>
</a>
</g>
</g>
<!-- Node2&#45;&gt;Node14 -->
<g id="edge15" class="edge">
<title>Node2&#45;&gt;Node14</title>
<path fill="none" stroke="#63b8ff" d="M277.97,-197.54C267.93,-188.71 252.57,-175.19 239.38,-163.58"/>
<polygon fill="#63b8ff" stroke="#63b8ff" points="242.06,-161.28 232.24,-157.3 237.43,-166.53 242.06,-161.28"/>
</g>
<!-- Node4 -->
<g id="node4" class="node">
<title>Node4</title>
<g id="a_node4"><a xlink:title=" ">
<polygon fill="#e0e0e0" stroke="#999999" points="420.71,-82 362.71,-82 362.71,-62 420.71,-62 420.71,-82"/>
<text text-anchor="middle" x="391.71" y="-68.5" font-family="Helvetica,sans-Serif" font-size="10.00">exception</text>
</a>
</g>
</g>
<!-- Node3&#45;&gt;Node4 -->
<g id="edge3" class="edge">
<title>Node3&#45;&gt;Node4</title>
<path fill="none" stroke="#63b8ff" d="M461.11,-129.54C448.36,-119.15 427.63,-102.27 412.14,-89.65"/>
<polygon fill="#63b8ff" stroke="#63b8ff" points="414.43,-87 404.47,-83.39 410.01,-92.42 414.43,-87"/>
</g>
<!-- Node3&#45;&gt;Node5 -->
<g id="edge4" class="edge">
<title>Node3&#45;&gt;Node5</title>
<path fill="none" stroke="#63b8ff" d="M499.1,-129.62C520.23,-121.15 549.7,-107.09 570.71,-88 588.81,-71.56 603.17,-47.18 611.78,-30.27"/>
<polygon fill="#63b8ff" stroke="#63b8ff" points="614.69,-32.28 615.92,-21.76 608.4,-29.22 614.69,-32.28"/>
</g>
<!-- Node6 -->
<g id="node6" class="node">
<title>Node6</title>
<g id="a_node6"><a xlink:title=" ">
<polygon fill="#e0e0e0" stroke="#999999" points="492.46,-82 438.96,-82 438.96,-62 492.46,-62 492.46,-82"/>
<text text-anchor="middle" x="465.71" y="-68.5" font-family="Helvetica,sans-Serif" font-size="10.00">iostream</text>
</a>
</g>
</g>
<!-- Node3&#45;&gt;Node6 -->
<g id="edge5" class="edge">
<title>Node3&#45;&gt;Node6</title>
<path fill="none" stroke="#63b8ff" d="M471.71,-129.54C470.72,-120.23 469.18,-105.7 467.91,-93.7"/>
<polygon fill="#63b8ff" stroke="#63b8ff" points="471.41,-93.52 466.87,-83.94 464.45,-94.26 471.41,-93.52"/>
</g>
<!-- Node7 -->
<g id="node7" class="node">
<title>Node7</title>
<g id="a_node7"><a xlink:title=" ">
<polygon fill="#e0e0e0" stroke="#999999" points="561.34,-82 510.09,-82 510.09,-62 561.34,-62 561.34,-82"/>
<text text-anchor="middle" x="535.71" y="-68.5" font-family="Helvetica,sans-Serif" font-size="10.00">memory</text>
</a>
</g>
</g>
<!-- Node3&#45;&gt;Node7 -->
<g id="edge6" class="edge">
<title>Node3&#45;&gt;Node7</title>
<path fill="none" stroke="#63b8ff" d="M481.74,-129.54C491.38,-119.45 506.87,-103.22 518.79,-90.73"/>
<polygon fill="#63b8ff" stroke="#63b8ff" points="521.28,-93.18 525.66,-83.53 516.22,-88.35 521.28,-93.18"/>
</g>
<!-- Node3&#45;&gt;Node8 -->
<g id="edge7" class="edge">
<title>Node3&#45;&gt;Node8</title>
<path fill="none" stroke="#63b8ff" d="M498.36,-129.54C529.06,-118.22 580.69,-99.19 615.46,-86.37"/>
<polygon fill="#63b8ff" stroke="#63b8ff" points="616.52,-89.71 624.69,-82.96 614.1,-83.14 616.52,-89.71"/>
</g>
<!-- Node9 -->
<g id="node9" class="node">
<title>Node9</title>
<g id="a_node9"><a xlink:title=" ">
<polygon fill="#e0e0e0" stroke="#999999" points="232.09,-88 137.34,-88 137.34,-56 232.09,-56 232.09,-88"/>
<text text-anchor="start" x="145.34" y="-74.5" font-family="Helvetica,sans-Serif" font-size="10.00">boost/serialization</text>
<text text-anchor="middle" x="184.71" y="-62.5" font-family="Helvetica,sans-Serif" font-size="10.00">/access.hpp</text>
</a>
</g>
</g>
<!-- Node3&#45;&gt;Node9 -->
<g id="edge9" class="edge">
<title>Node3&#45;&gt;Node9</title>
<path fill="none" stroke="#63b8ff" d="M440.87,-129.56C433.92,-127.62 426.59,-125.67 419.71,-124 344.64,-105.81 322.23,-106.21 243.51,-88.33"/>
<polygon fill="#63b8ff" stroke="#63b8ff" points="244.56,-84.98 234.03,-86.14 242.99,-91.8 244.56,-84.98"/>
</g>
<!-- Node3&#45;&gt;Node10 -->
<g id="edge10" class="edge">
<title>Node3&#45;&gt;Node10</title>
<path fill="none" stroke="#63b8ff" d="M442.36,-129.55C435,-127.5 427.12,-125.5 419.71,-124 295.47,-98.89 258.68,-111.88 130.53,-88.16"/>
<polygon fill="#63b8ff" stroke="#63b8ff" points="131.46,-84.78 120.99,-86.35 130.16,-91.65 131.46,-84.78"/>
</g>
<!-- Node11 -->
<g id="node11" class="node">
<title>Node11</title>
<g id="a_node11"><a xlink:title=" ">
<polygon fill="#e0e0e0" stroke="#999999" points="345.09,-88 250.34,-88 250.34,-56 345.09,-56 345.09,-88"/>
<text text-anchor="start" x="258.34" y="-74.5" font-family="Helvetica,sans-Serif" font-size="10.00">boost/serialization</text>
<text text-anchor="middle" x="297.71" y="-62.5" font-family="Helvetica,sans-Serif" font-size="10.00">/string.hpp</text>
</a>
</g>
</g>
<!-- Node3&#45;&gt;Node11 -->
<g id="edge11" class="edge">
<title>Node3&#45;&gt;Node11</title>
<path fill="none" stroke="#63b8ff" d="M447.64,-129.54C422.08,-119.9 381.7,-104.67 349.28,-92.45"/>
<polygon fill="#63b8ff" stroke="#63b8ff" points="350.63,-89.22 340.04,-88.96 348.16,-95.77 350.63,-89.22"/>
</g>
<!-- Node8&#45;&gt;Node5 -->
<g id="edge8" class="edge">
<title>Node8&#45;&gt;Node5</title>
<path fill="none" stroke="#63b8ff" d="M646.87,-61.62C642.52,-53.21 636.01,-40.6 630.57,-30.07"/>
<polygon fill="#63b8ff" stroke="#63b8ff" points="633.82,-28.74 626.12,-21.46 627.6,-31.95 633.82,-28.74"/>
</g>
</g>
</svg>
