<?xml version="1.0" encoding="UTF-8" standalone="no"?>
<!DOCTYPE svg PUBLIC "-//W3C//DTD SVG 1.1//EN"
 "http://www.w3.org/Graphics/SVG/1.1/DTD/svg11.dtd">
<!-- Generated by graphviz version 10.0.1 (20240210.2158)
 -->
<!-- Title: D:/FMT/Include/FMTlandscapeparser.hpp Pages: 1 -->
<!--zoomable 276 -->
<svg id="main" version="1.1" xmlns="http://www.w3.org/2000/svg" xmlns:xlink="http://www.w3.org/1999/xlink" xml:space="preserve" onload="init(evt)">
<style type="text/css"><![CDATA[
.edge:hover path { stroke: red; }
.edge:hover polygon { stroke: red; fill: red; }
]]></style>
<script type="text/javascript"><![CDATA[
var edges = document.getElementsByTagName('g');
if (edges && edges.length) {
  for (var i=0;i<edges.length;i++) {
    if (edges[i].id.substr(0,4)=='edge') {
      edges[i].setAttribute('class','edge');
    }
  }
}
]]></script>
        <defs>
                <circle id="rim" cx="0" cy="0" r="7"/>
                <circle id="rim2" cx="0" cy="0" r="3.5"/>
                <g id="zoomPlus">
                        <use xlink:href="#rim" fill="#404040">
                                <set attributeName="fill" to="#808080" begin="zoomplus.mouseover" end="zoomplus.mouseout"/>
                        </use>
                        <path d="M-4,0h8M0,-4v8" fill="none" stroke="white" stroke-width="1.5" pointer-events="none"/>
                </g>
                <g id="zoomMin">
                        <use xlink:href="#rim" fill="#404040">
                                <set attributeName="fill" to="#808080" begin="zoomminus.mouseover" end="zoomminus.mouseout"/>
                        </use>
                        <path d="M-4,0h8" fill="none" stroke="white" stroke-width="1.5" pointer-events="none"/>
                </g>
                <g id="dirArrow">
                        <path fill="none" stroke="white" stroke-width="1.5" d="M0,-3.0v7 M-2.5,-0.5L0,-3.0L2.5,-0.5"/>
                </g>
               <g id="resetDef">
                       <use xlink:href="#rim2" fill="#404040">
                               <set attributeName="fill" to="#808080" begin="reset.mouseover" end="reset.mouseout"/>
                       </use>
               </g>
        </defs>

<script type="text/javascript">
var viewWidth = 1001;
var viewHeight = 276;
var sectionId = 'dynsection-0';
</script>
<script xlink:href="svgpan.js"/>
<svg id="graph" class="graph">
<g id="viewport">
<title>D:/FMT/Include/FMTlandscapeparser.hpp</title>
<!-- Node1 -->
<g id="node1" class="node">
<title>Node1</title>
<g id="a_node1"><a xlink:title=" ">
<polygon fill="#999999" stroke="#666666" points="804.13,-268 609.63,-268 609.63,-248 804.13,-248 804.13,-268"/>
<text text-anchor="middle" x="706.88" y="-254.5" font-family="Helvetica,sans-Serif" font-size="10.00">D:/FMT/Include/FMTlandscapeparser.hpp</text>
</a>
</g>
</g>
<!-- Node2 -->
<g id="node2" class="node">
<title>Node2</title>
<g id="a_node2"><a xlink:href="FMTparser_8hpp.html" target="_top" xlink:title=" ">
<polygon fill="white" stroke="#666666" points="566.51,-212 485.26,-212 485.26,-192 566.51,-192 566.51,-212"/>
<text text-anchor="middle" x="525.88" y="-198.5" font-family="Helvetica,sans-Serif" font-size="10.00">FMTparser.hpp</text>
</a>
</g>
</g>
<!-- Node1&#45;&gt;Node2 -->
<g id="edge1" class="edge">
<title>Node1&#45;&gt;Node2</title>
<path fill="none" stroke="#63b8ff" d="M675.36,-247.59C645.69,-238.74 601.05,-225.43 568.28,-215.65"/>
<polygon fill="#63b8ff" stroke="#63b8ff" points="569.69,-212.42 559.11,-212.91 567.69,-219.13 569.69,-212.42"/>
</g>
<!-- Node3 -->
<g id="node3" class="node">
<title>Node3</title>
<g id="a_node3"><a xlink:title=" ">
<polygon fill="#e0e0e0" stroke="#999999" points="106.76,-150 21.01,-150 21.01,-130 106.76,-130 106.76,-150"/>
<text text-anchor="middle" x="63.88" y="-136.5" font-family="Helvetica,sans-Serif" font-size="10.00">boost/regex.hpp</text>
</a>
</g>
</g>
<!-- Node1&#45;&gt;Node3 -->
<g id="edge28" class="edge">
<title>Node1&#45;&gt;Node3</title>
<path fill="none" stroke="#63b8ff" d="M641.05,-247.56C532.24,-231.52 308.27,-196.72 120.88,-156 116.9,-155.13 112.78,-154.17 108.65,-153.17"/>
<polygon fill="#63b8ff" stroke="#63b8ff" points="109.85,-149.86 99.29,-150.82 108.14,-156.65 109.85,-149.86"/>
</g>
<!-- Node7 -->
<g id="node7" class="node">
<title>Node7</title>
<g id="a_node7"><a xlink:title=" ">
<polygon fill="#e0e0e0" stroke="#999999" points="912.88,-20 872.88,-20 872.88,0 912.88,0 912.88,-20"/>
<text text-anchor="middle" x="892.88" y="-6.5" font-family="Helvetica,sans-Serif" font-size="10.00">string</text>
</a>
</g>
</g>
<!-- Node1&#45;&gt;Node7 -->
<g id="edge29" class="edge">
<title>Node1&#45;&gt;Node7</title>
<path fill="none" stroke="#63b8ff" d="M725.15,-247.66C765.08,-226.03 859.37,-168.19 893.88,-88 901.56,-70.17 900.21,-47.8 897.6,-31.77"/>
<polygon fill="#63b8ff" stroke="#63b8ff" points="901.03,-31.11 895.68,-21.97 894.17,-32.46 901.03,-31.11"/>
</g>
<!-- Node8 -->
<g id="node8" class="node">
<title>Node8</title>
<g id="a_node8"><a xlink:title=" ">
<polygon fill="#e0e0e0" stroke="#999999" points="864.63,-82 823.13,-82 823.13,-62 864.63,-62 864.63,-82"/>
<text text-anchor="middle" x="843.88" y="-68.5" font-family="Helvetica,sans-Serif" font-size="10.00">vector</text>
</a>
</g>
</g>
<!-- Node1&#45;&gt;Node8 -->
<g id="edge31" class="edge">
<title>Node1&#45;&gt;Node8</title>
<path fill="none" stroke="#63b8ff" d="M714.32,-247.63C728.35,-229.9 759.56,-190.18 784.88,-156 801.1,-134.12 819.16,-108.52 830.98,-91.6"/>
<polygon fill="#63b8ff" stroke="#63b8ff" points="833.75,-93.75 836.59,-83.54 828,-89.75 833.75,-93.75"/>
</g>
<!-- Node10 -->
<g id="node10" class="node">
<title>Node10</title>
<g id="a_node10"><a xlink:href="FMTutility_8hpp.html" target="_top" xlink:title=" ">
<polygon fill="white" stroke="#666666" points="97.63,-20 20.13,-20 20.13,0 97.63,0 97.63,-20"/>
<text text-anchor="middle" x="58.88" y="-6.5" font-family="Helvetica,sans-Serif" font-size="10.00">FMTutility.hpp</text>
</a>
</g>
</g>
<!-- Node1&#45;&gt;Node10 -->
<g id="edge27" class="edge">
<title>Node1&#45;&gt;Node10</title>
<path fill="none" stroke="#63b8ff" d="M609.21,-249.97C426.85,-235.83 49.51,-201.38 11.88,-156 -19.53,-118.11 19.51,-58.75 43.21,-29.11"/>
<polygon fill="#63b8ff" stroke="#63b8ff" points="45.88,-31.37 49.57,-21.43 40.49,-26.9 45.88,-31.37"/>
</g>
<!-- Node23 -->
<g id="node23" class="node">
<title>Node23</title>
<g id="a_node23"><a xlink:title=" ">
<polygon fill="#e0e0e0" stroke="#999999" points="993.26,-212 958.51,-212 958.51,-192 993.26,-192 993.26,-212"/>
<text text-anchor="middle" x="975.88" y="-198.5" font-family="Helvetica,sans-Serif" font-size="10.00">map</text>
</a>
</g>
</g>
<!-- Node1&#45;&gt;Node23 -->
<g id="edge30" class="edge">
<title>Node1&#45;&gt;Node23</title>
<path fill="none" stroke="#63b8ff" d="M765.41,-247.54C813.79,-239.34 884.15,-226.52 944.88,-212 945.7,-211.8 946.53,-211.6 947.36,-211.39"/>
<polygon fill="#63b8ff" stroke="#63b8ff" points="948.06,-214.83 956.8,-208.83 946.23,-208.07 948.06,-214.83"/>
</g>
<!-- Node2&#45;&gt;Node3 -->
<g id="edge2" class="edge">
<title>Node2&#45;&gt;Node3</title>
<path fill="none" stroke="#63b8ff" d="M484.78,-198.43C411.28,-193.4 252.68,-180.53 120.88,-156 116.54,-155.19 112.04,-154.23 107.55,-153.19"/>
<polygon fill="#63b8ff" stroke="#63b8ff" points="108.57,-149.83 98.02,-150.84 106.89,-156.63 108.57,-149.83"/>
</g>
<!-- Node4 -->
<g id="node4" class="node">
<title>Node4</title>
<g id="a_node4"><a xlink:title=" ">
<polygon fill="#e0e0e0" stroke="#999999" points="338.88,-150 292.88,-150 292.88,-130 338.88,-130 338.88,-150"/>
<text text-anchor="middle" x="315.88" y="-136.5" font-family="Helvetica,sans-Serif" font-size="10.00">iterator</text>
</a>
</g>
</g>
<!-- Node2&#45;&gt;Node4 -->
<g id="edge3" class="edge">
<title>Node2&#45;&gt;Node4</title>
<path fill="none" stroke="#63b8ff" d="M484.9,-191.93C449.57,-183.74 397.37,-170.73 352.88,-156 351.32,-155.48 349.73,-154.93 348.13,-154.36"/>
<polygon fill="#63b8ff" stroke="#63b8ff" points="349.63,-151.18 339.04,-150.9 347.14,-157.73 349.63,-151.18"/>
</g>
<!-- Node5 -->
<g id="node5" class="node">
<title>Node5</title>
<g id="a_node5"><a xlink:title=" ">
<polygon fill="#e0e0e0" stroke="#999999" points="275.63,-20 222.13,-20 222.13,0 275.63,0 275.63,-20"/>
<text text-anchor="middle" x="248.88" y="-6.5" font-family="Helvetica,sans-Serif" font-size="10.00">iostream</text>
</a>
</g>
</g>
<!-- Node2&#45;&gt;Node5 -->
<g id="edge4" class="edge">
<title>Node2&#45;&gt;Node5</title>
<path fill="none" stroke="#63b8ff" d="M498.56,-191.51C474.62,-182.95 439.02,-169.64 408.88,-156 380.99,-143.37 376.96,-133.59 347.88,-124 298.34,-107.66 149.83,-127.62 115.88,-88 106.63,-77.2 107.59,-67.56 115.88,-56 137.24,-26.23 179.36,-15.91 210.51,-12.45"/>
<polygon fill="#63b8ff" stroke="#63b8ff" points="210.68,-15.95 220.33,-11.58 210.06,-8.98 210.68,-15.95"/>
</g>
<!-- Node6 -->
<g id="node6" class="node">
<title>Node6</title>
<g id="a_node6"><a xlink:title=" ">
<polygon fill="#e0e0e0" stroke="#999999" points="602.01,-150 553.76,-150 553.76,-130 602.01,-130 602.01,-150"/>
<text text-anchor="middle" x="577.88" y="-136.5" font-family="Helvetica,sans-Serif" font-size="10.00">fstream</text>
</a>
</g>
</g>
<!-- Node2&#45;&gt;Node6 -->
<g id="edge5" class="edge">
<title>Node2&#45;&gt;Node6</title>
<path fill="none" stroke="#63b8ff" d="M534.01,-191.62C541.61,-182.86 553.16,-169.53 562.5,-158.75"/>
<polygon fill="#63b8ff" stroke="#63b8ff" points="565.09,-161.11 569,-151.26 559.8,-156.52 565.09,-161.11"/>
</g>
<!-- Node2&#45;&gt;Node7 -->
<g id="edge6" class="edge">
<title>Node2&#45;&gt;Node7</title>
<path fill="none" stroke="#63b8ff" d="M566.64,-199.88C619.16,-197.12 712.33,-187.73 784.88,-156 830.49,-136.06 846.6,-129.63 873.88,-88 885.07,-70.93 889.67,-47.82 891.57,-31.38"/>
<polygon fill="#63b8ff" stroke="#63b8ff" points="895.01,-32.1 892.41,-21.83 888.04,-31.48 895.01,-32.1"/>
</g>
<!-- Node2&#45;&gt;Node8 -->
<g id="edge7" class="edge">
<title>Node2&#45;&gt;Node8</title>
<path fill="none" stroke="#63b8ff" d="M525.15,-191.53C524.44,-175.12 525.61,-141.48 544.88,-124 586.14,-86.59 738.48,-99.89 792.88,-88 799.08,-86.65 805.63,-84.94 811.89,-83.16"/>
<polygon fill="#63b8ff" stroke="#63b8ff" points="812.67,-86.58 821.27,-80.39 810.69,-79.87 812.67,-86.58"/>
</g>
<!-- Node9 -->
<g id="node9" class="node">
<title>Node9</title>
<g id="a_node9"><a xlink:title=" ">
<polygon fill="#e0e0e0" stroke="#999999" points="662.01,-150 619.76,-150 619.76,-130 662.01,-130 662.01,-150"/>
<text text-anchor="middle" x="640.88" y="-136.5" font-family="Helvetica,sans-Serif" font-size="10.00">queue</text>
</a>
</g>
</g>
<!-- Node2&#45;&gt;Node9 -->
<g id="edge8" class="edge">
<title>Node2&#45;&gt;Node9</title>
<path fill="none" stroke="#63b8ff" d="M543.85,-191.62C562.34,-181.98 591.38,-166.83 612.88,-155.61"/>
<polygon fill="#63b8ff" stroke="#63b8ff" points="614.45,-158.74 621.7,-151.01 611.21,-152.53 614.45,-158.74"/>
</g>
<!-- Node2&#45;&gt;Node10 -->
<g id="edge9" class="edge">
<title>Node2&#45;&gt;Node10</title>
<path fill="none" stroke="#63b8ff" d="M484.96,-197.93C394.21,-190.85 181.88,-172.72 153.88,-156 105.77,-127.27 77.39,-63.62 65.49,-31.05"/>
<polygon fill="#63b8ff" stroke="#63b8ff" points="68.81,-29.95 62.22,-21.65 62.2,-32.25 68.81,-29.95"/>
</g>
<!-- Node11 -->
<g id="node11" class="node">
<title>Node11</title>
<g id="a_node11"><a xlink:title=" ">
<polygon fill="#e0e0e0" stroke="#999999" points="717.76,-150 680.01,-150 680.01,-130 717.76,-130 717.76,-150"/>
<text text-anchor="middle" x="698.88" y="-136.5" font-family="Helvetica,sans-Serif" font-size="10.00">array</text>
</a>
</g>
</g>
<!-- Node2&#45;&gt;Node11 -->
<g id="edge10" class="edge">
<title>Node2&#45;&gt;Node11</title>
<path fill="none" stroke="#63b8ff" d="M563.22,-191.53C592.93,-183.49 635.26,-170.91 670.88,-156 671.37,-155.8 671.85,-155.59 672.34,-155.38"/>
<polygon fill="#63b8ff" stroke="#63b8ff" points="673.73,-158.6 681.19,-151.08 670.67,-152.3 673.73,-158.6"/>
</g>
<!-- Node12 -->
<g id="node12" class="node">
<title>Node12</title>
<g id="a_node12"><a xlink:title=" ">
<polygon fill="#e0e0e0" stroke="#999999" points="775.88,-150 735.88,-150 735.88,-130 775.88,-130 775.88,-150"/>
<text text-anchor="middle" x="755.88" y="-136.5" font-family="Helvetica,sans-Serif" font-size="10.00">ctime</text>
</a>
</g>
</g>
<!-- Node2&#45;&gt;Node12 -->
<g id="edge11" class="edge">
<title>Node2&#45;&gt;Node12</title>
<path fill="none" stroke="#63b8ff" d="M566.8,-195.01C608.04,-188.24 673.11,-175.55 726.88,-156 727.66,-155.72 728.45,-155.42 729.24,-155.1"/>
<polygon fill="#63b8ff" stroke="#63b8ff" points="730.33,-158.45 737.97,-151.11 727.42,-152.08 730.33,-158.45"/>
</g>
<!-- Node13 -->
<g id="node13" class="node">
<title>Node13</title>
<g id="a_node13"><a xlink:title=" ">
<polygon fill="#e0e0e0" stroke="#999999" points="274.51,-156 163.26,-156 163.26,-124 274.51,-124 274.51,-156"/>
<text text-anchor="start" x="171.26" y="-142.5" font-family="Helvetica,sans-Serif" font-size="10.00">boost/thread/recursive</text>
<text text-anchor="middle" x="218.88" y="-130.5" font-family="Helvetica,sans-Serif" font-size="10.00">_mutex.hpp</text>
</a>
</g>
</g>
<!-- Node2&#45;&gt;Node13 -->
<g id="edge12" class="edge">
<title>Node2&#45;&gt;Node13</title>
<path fill="none" stroke="#63b8ff" d="M485.1,-193.97C439.17,-185.93 362.04,-172.06 286.07,-156.4"/>
<polygon fill="#63b8ff" stroke="#63b8ff" points="286.85,-152.99 276.35,-154.39 285.43,-159.85 286.85,-152.99"/>
</g>
<!-- Node14 -->
<g id="node14" class="node">
<title>Node14</title>
<g id="a_node14"><a xlink:href="FMTobject_8hpp.html" target="_top" xlink:title=" ">
<polygon fill="white" stroke="#666666" points="498.13,-150 417.63,-150 417.63,-130 498.13,-130 498.13,-150"/>
<text text-anchor="middle" x="457.88" y="-136.5" font-family="Helvetica,sans-Serif" font-size="10.00">FMTobject.hpp</text>
</a>
</g>
</g>
<!-- Node2&#45;&gt;Node14 -->
<g id="edge13" class="edge">
<title>Node2&#45;&gt;Node14</title>
<path fill="none" stroke="#63b8ff" d="M515.26,-191.62C504.92,-182.5 488.99,-168.45 476.54,-157.46"/>
<polygon fill="#63b8ff" stroke="#63b8ff" points="479.16,-155.11 469.35,-151.11 474.53,-160.35 479.16,-155.11"/>
</g>
<!-- Node14&#45;&gt;Node8 -->
<g id="edge25" class="edge">
<title>Node14&#45;&gt;Node8</title>
<path fill="none" stroke="#63b8ff" d="M488.82,-129.55C496.32,-127.5 504.34,-125.5 511.88,-124 642.31,-98.13 680.48,-122.54 808.88,-88 810.68,-87.52 812.51,-86.96 814.34,-86.34"/>
<polygon fill="#63b8ff" stroke="#63b8ff" points="815.11,-89.8 823.2,-82.96 812.61,-83.26 815.11,-89.8"/>
</g>
<!-- Node15 -->
<g id="node15" class="node">
<title>Node15</title>
<g id="a_node15"><a xlink:title=" ">
<polygon fill="#e0e0e0" stroke="#999999" points="362.26,-88 267.51,-88 267.51,-56 362.26,-56 362.26,-88"/>
<text text-anchor="start" x="275.51" y="-74.5" font-family="Helvetica,sans-Serif" font-size="10.00">boost/serialization</text>
<text text-anchor="middle" x="314.88" y="-62.5" font-family="Helvetica,sans-Serif" font-size="10.00">/shared_ptr.hpp</text>
</a>
</g>
</g>
<!-- Node14&#45;&gt;Node15 -->
<g id="edge14" class="edge">
<title>Node14&#45;&gt;Node15</title>
<path fill="none" stroke="#63b8ff" d="M437.4,-129.54C416.97,-120.11 384.94,-105.33 358.76,-93.25"/>
<polygon fill="#63b8ff" stroke="#63b8ff" points="360.23,-90.07 349.69,-89.06 357.3,-96.43 360.23,-90.07"/>
</g>
<!-- Node16 -->
<g id="node16" class="node">
<title>Node16</title>
<g id="a_node16"><a xlink:title=" ">
<polygon fill="#e0e0e0" stroke="#999999" points="590.26,-88 495.51,-88 495.51,-56 590.26,-56 590.26,-88"/>
<text text-anchor="start" x="503.51" y="-74.5" font-family="Helvetica,sans-Serif" font-size="10.00">boost/serialization</text>
<text text-anchor="middle" x="542.88" y="-62.5" font-family="Helvetica,sans-Serif" font-size="10.00">/nvp.hpp</text>
</a>
</g>
</g>
<!-- Node14&#45;&gt;Node16 -->
<g id="edge15" class="edge">
<title>Node14&#45;&gt;Node16</title>
<path fill="none" stroke="#63b8ff" d="M470.06,-129.54C481.54,-120.63 499.18,-106.93 514.23,-95.25"/>
<polygon fill="#63b8ff" stroke="#63b8ff" points="516.23,-98.13 521.98,-89.23 511.94,-92.6 516.23,-98.13"/>
</g>
<!-- Node17 -->
<g id="node17" class="node">
<title>Node17</title>
<g id="a_node17"><a xlink:title=" ">
<polygon fill="#e0e0e0" stroke="#999999" points="703.26,-88 608.51,-88 608.51,-56 703.26,-56 703.26,-88"/>
<text text-anchor="start" x="616.51" y="-74.5" font-family="Helvetica,sans-Serif" font-size="10.00">boost/serialization</text>
<text text-anchor="middle" x="655.88" y="-62.5" font-family="Helvetica,sans-Serif" font-size="10.00">/export.hpp</text>
</a>
</g>
</g>
<!-- Node14&#45;&gt;Node17 -->
<g id="edge16" class="edge">
<title>Node14&#45;&gt;Node17</title>
<path fill="none" stroke="#63b8ff" d="M486.25,-129.54C515.55,-119.78 562.06,-104.28 598.97,-91.97"/>
<polygon fill="#63b8ff" stroke="#63b8ff" points="599.78,-95.39 608.16,-88.91 597.57,-88.75 599.78,-95.39"/>
</g>
<!-- Node18 -->
<g id="node18" class="node">
<title>Node18</title>
<g id="a_node18"><a xlink:href="FMTexception_8hpp.html" target="_top" xlink:title=" ">
<polygon fill="white" stroke="#666666" points="477.01,-82 380.76,-82 380.76,-62 477.01,-62 477.01,-82"/>
<text text-anchor="middle" x="428.88" y="-68.5" font-family="Helvetica,sans-Serif" font-size="10.00">FMTexception.hpp</text>
</a>
</g>
</g>
<!-- Node14&#45;&gt;Node18 -->
<g id="edge17" class="edge">
<title>Node14&#45;&gt;Node18</title>
<path fill="none" stroke="#63b8ff" d="M453.73,-129.54C449.55,-120.04 442.98,-105.09 437.65,-92.95"/>
<polygon fill="#63b8ff" stroke="#63b8ff" points="440.87,-91.57 433.64,-83.82 434.46,-94.39 440.87,-91.57"/>
</g>
<!-- Node20 -->
<g id="node20" class="node">
<title>Node20</title>
<g id="a_node20"><a xlink:title=" ">
<polygon fill="#e0e0e0" stroke="#999999" points="674.51,-20 623.26,-20 623.26,0 674.51,0 674.51,-20"/>
<text text-anchor="middle" x="648.88" y="-6.5" font-family="Helvetica,sans-Serif" font-size="10.00">memory</text>
</a>
</g>
</g>
<!-- Node14&#45;&gt;Node20 -->
<g id="edge23" class="edge">
<title>Node14&#45;&gt;Node20</title>
<path fill="none" stroke="#63b8ff" d="M489.12,-129.55C496.53,-127.52 504.45,-125.53 511.88,-124 569.88,-112.05 736.95,-132.61 775.88,-88 785.24,-77.29 784.09,-67.62 775.88,-56 755.69,-27.41 715.71,-16.87 685.98,-13.05"/>
<polygon fill="#63b8ff" stroke="#63b8ff" points="686.57,-9.59 676.25,-12.01 685.83,-16.55 686.57,-9.59"/>
</g>
<!-- Node21 -->
<g id="node21" class="node">
<title>Node21</title>
<g id="a_node21"><a xlink:title=" ">
<polygon fill="#e0e0e0" stroke="#999999" points="766.51,-82 721.26,-82 721.26,-62 766.51,-62 766.51,-82"/>
<text text-anchor="middle" x="743.88" y="-68.5" font-family="Helvetica,sans-Serif" font-size="10.00">chrono</text>
</a>
</g>
</g>
<!-- Node14&#45;&gt;Node21 -->
<g id="edge24" class="edge">
<title>Node14&#45;&gt;Node21</title>
<path fill="none" stroke="#63b8ff" d="M490.03,-129.54C497.19,-127.58 504.77,-125.62 511.88,-124 599.93,-103.89 625.82,-115.4 711.88,-88 713.05,-87.63 714.24,-87.22 715.42,-86.79"/>
<polygon fill="#63b8ff" stroke="#63b8ff" points="716.66,-90.07 724.54,-82.99 713.96,-83.61 716.66,-90.07"/>
</g>
<!-- Node22 -->
<g id="node22" class="node">
<title>Node22</title>
<g id="a_node22"><a xlink:title=" ">
<polygon fill="#e0e0e0" stroke="#999999" points="249.26,-88 124.51,-88 124.51,-56 249.26,-56 249.26,-88"/>
<text text-anchor="start" x="132.51" y="-74.5" font-family="Helvetica,sans-Serif" font-size="10.00">boost/dll/runtime_symbol</text>
<text text-anchor="middle" x="186.88" y="-62.5" font-family="Helvetica,sans-Serif" font-size="10.00">_info.hpp</text>
</a>
</g>
</g>
<!-- Node14&#45;&gt;Node22 -->
<g id="edge26" class="edge">
<title>Node14&#45;&gt;Node22</title>
<path fill="none" stroke="#63b8ff" d="M419.06,-129.54C377.88,-119.52 311.85,-103.43 260.71,-90.98"/>
<polygon fill="#63b8ff" stroke="#63b8ff" points="261.73,-87.63 251.18,-88.66 260.07,-94.43 261.73,-87.63"/>
</g>
<!-- Node18&#45;&gt;Node5 -->
<g id="edge20" class="edge">
<title>Node18&#45;&gt;Node5</title>
<path fill="none" stroke="#63b8ff" d="M400.76,-61.62C370.11,-51.41 320.91,-35.01 286.85,-23.66"/>
<polygon fill="#63b8ff" stroke="#63b8ff" points="287.96,-20.34 277.37,-20.49 285.75,-26.98 287.96,-20.34"/>
</g>
<!-- Node18&#45;&gt;Node7 -->
<g id="edge19" class="edge">
<title>Node18&#45;&gt;Node7</title>
<path fill="none" stroke="#63b8ff" d="M462.13,-61.53C470.19,-59.48 478.8,-57.49 486.88,-56 625.06,-30.61 792.51,-17.57 861.18,-12.97"/>
<polygon fill="#63b8ff" stroke="#63b8ff" points="861.2,-16.47 870.95,-12.33 860.74,-9.49 861.2,-16.47"/>
</g>
<!-- Node18&#45;&gt;Node10 -->
<g id="edge22" class="edge">
<title>Node18&#45;&gt;Node10</title>
<path fill="none" stroke="#63b8ff" d="M394.99,-61.57C387.11,-59.56 378.74,-57.58 370.88,-56 279.39,-37.63 171.37,-23.77 109.42,-16.56"/>
<polygon fill="#63b8ff" stroke="#63b8ff" points="109.87,-13.09 99.54,-15.42 109.07,-20.04 109.87,-13.09"/>
</g>
<!-- Node19 -->
<g id="node19" class="node">
<title>Node19</title>
<g id="a_node19"><a xlink:title=" ">
<polygon fill="#e0e0e0" stroke="#999999" points="457.88,-20 399.88,-20 399.88,0 457.88,0 457.88,-20"/>
<text text-anchor="middle" x="428.88" y="-6.5" font-family="Helvetica,sans-Serif" font-size="10.00">exception</text>
</a>
</g>
</g>
<!-- Node18&#45;&gt;Node19 -->
<g id="edge18" class="edge">
<title>Node18&#45;&gt;Node19</title>
<path fill="none" stroke="#63b8ff" d="M428.88,-61.62C428.88,-53.56 428.88,-41.65 428.88,-31.41"/>
<polygon fill="#63b8ff" stroke="#63b8ff" points="432.38,-31.63 428.88,-21.63 425.38,-31.63 432.38,-31.63"/>
</g>
<!-- Node18&#45;&gt;Node20 -->
<g id="edge21" class="edge">
<title>Node18&#45;&gt;Node20</title>
<path fill="none" stroke="#63b8ff" d="M463.26,-61.62C503.69,-50.6 570.54,-32.37 612.02,-21.05"/>
<polygon fill="#63b8ff" stroke="#63b8ff" points="612.81,-24.47 621.54,-18.46 610.97,-17.71 612.81,-24.47"/>
</g>
</g>
</svg>
        <g id="navigator" transform="translate(0 0)" fill="#404254">
                <rect fill="#f2f5e9" fill-opacity="0.5" stroke="#606060" stroke-width=".5" x="0" y="0" width="60" height="60"/>
                <use id="zoomplus" xlink:href="#zoomPlus" x="17" y="9" onmousedown="handleZoom(evt,'in')"/>
                <use id="zoomminus" xlink:href="#zoomMin" x="42" y="9" onmousedown="handleZoom(evt,'out')"/>
                <use id="reset" xlink:href="#resetDef" x="30" y="36" onmousedown="handleReset()"/>
                <g id="arrowUp" xlink:href="#dirArrow" transform="translate(30 24)" onmousedown="handlePan(0,-1)">
                  <use xlink:href="#rim" fill="#404040">
                        <set attributeName="fill" to="#808080" begin="arrowUp.mouseover" end="arrowUp.mouseout"/>
                  </use>
                  <path fill="none" stroke="white" stroke-width="1.5" d="M0,-3.0v7 M-2.5,-0.5L0,-3.0L2.5,-0.5"/>
                </g>
                <g id="arrowRight" xlink:href="#dirArrow" transform="rotate(90) translate(36 -43)" onmousedown="handlePan(1,0)">
                  <use xlink:href="#rim" fill="#404040">
                        <set attributeName="fill" to="#808080" begin="arrowRight.mouseover" end="arrowRight.mouseout"/>
                  </use>
                  <path fill="none" stroke="white" stroke-width="1.5" d="M0,-3.0v7 M-2.5,-0.5L0,-3.0L2.5,-0.5"/>
                </g>
                <g id="arrowDown" xlink:href="#dirArrow" transform="rotate(180) translate(-30 -48)" onmousedown="handlePan(0,1)">
                  <use xlink:href="#rim" fill="#404040">
                        <set attributeName="fill" to="#808080" begin="arrowDown.mouseover" end="arrowDown.mouseout"/>
                  </use>
                  <path fill="none" stroke="white" stroke-width="1.5" d="M0,-3.0v7 M-2.5,-0.5L0,-3.0L2.5,-0.5"/>
                </g>
                <g id="arrowLeft" xlink:href="#dirArrow" transform="rotate(270) translate(-36 17)" onmousedown="handlePan(-1,0)">
                  <use xlink:href="#rim" fill="#404040">
                        <set attributeName="fill" to="#808080" begin="arrowLeft.mouseover" end="arrowLeft.mouseout"/>
                  </use>
                  <path fill="none" stroke="white" stroke-width="1.5" d="M0,-3.0v7 M-2.5,-0.5L0,-3.0L2.5,-0.5"/>
                </g>
        </g>
        <svg viewBox="0 0 15 15" width="100%" height="30px" preserveAspectRatio="xMaxYMin meet">
         <g id="arrow_out" transform="scale(0.3 0.3)">
          <a xlink:href="FMTlandscapeparser_8hpp__incl_org.svg" target="_base">
           <rect id="button" ry="5" rx="5" y="6" x="6" height="38" width="38"
                fill="#f2f5e9" fill-opacity="0.5" stroke="#606060" stroke-width="1.0"/>
           <path id="arrow"
             d="M 11.500037,31.436501 C 11.940474,20.09759 22.043105,11.32322 32.158766,21.979434 L 37.068811,17.246167 C 37.068811,17.246167 37.088388,32 37.088388,32 L 22.160133,31.978069 C 22.160133,31.978069 26.997745,27.140456 26.997745,27.140456 C 18.528582,18.264221 13.291696,25.230495 11.500037,31.436501 z"
             style="fill:#404040;"/>
          </a>
         </g>
        </svg>
</svg>
