<?xml version="1.0" encoding="UTF-8" standalone="no"?>
<!DOCTYPE svg PUBLIC "-//W3C//DTD SVG 1.1//EN"
 "http://www.w3.org/Graphics/SVG/1.1/DTD/svg11.dtd">
<!-- Generated by graphviz version 8.1.0 (20230707.0739)
 -->
<!-- Title: C:/Temp/out/FMT/Include/FMTlogger.hpp Pages: 1 -->
<svg width="641pt" height="164pt"
 viewBox="0.00 0.00 641.12 164.00" xmlns="http://www.w3.org/2000/svg" xmlns:xlink="http://www.w3.org/1999/xlink">
<g id="graph0" class="graph" transform="scale(1 1) rotate(0) translate(4 160)">
<title>C:/Temp/out/FMT/Include/FMTlogger.hpp</title>
<!-- Node1 -->
<g id="Node000001" class="node">
<title>Node1</title>
<g id="a_Node000001"><a xlink:title=" ">
<polygon fill="#999999" stroke="#666666" points="329.12,-156 203.62,-156 203.62,-124 329.12,-124 329.12,-156"/>
<text text-anchor="start" x="211.62" y="-142.5" font-family="Helvetica,sans-Serif" font-size="10.00">C:/Temp/out/FMT/Include</text>
<text text-anchor="middle" x="266.38" y="-130.5" font-family="Helvetica,sans-Serif" font-size="10.00">/FMTlogger.hpp</text>
</a>
</g>
</g>
<!-- Node2 -->
<g id="Node000002" class="node">
<title>Node2</title>
<g id="a_Node000002"><a xlink:title=" ">
<polygon fill="#e0e0e0" stroke="#999999" points="94.75,-88 0,-88 0,-56 94.75,-56 94.75,-88"/>
<text text-anchor="start" x="8" y="-74.5" font-family="Helvetica,sans-Serif" font-size="10.00">boost/serialization</text>
<text text-anchor="middle" x="47.38" y="-62.5" font-family="Helvetica,sans-Serif" font-size="10.00">/export.hpp</text>
</a>
</g>
</g>
<!-- Node1&#45;&gt;Node2 -->
<g id="edge1_Node000001_Node000002" class="edge">
<title>Node1&#45;&gt;Node2</title>
<g id="a_edge1_Node000001_Node000002"><a xlink:title=" ">
<path fill="none" stroke="#63b8ff" d="M215.03,-123.53C182.15,-113.62 139.41,-100.74 105.31,-90.46"/>
<polygon fill="#63b8ff" stroke="#63b8ff" points="106.61,-86.9 96.03,-87.36 104.59,-93.6 106.61,-86.9"/>
</a>
</g>
</g>
<!-- Node3 -->
<g id="Node000003" class="node">
<title>Node3</title>
<g id="a_Node000003"><a xlink:title=" ">
<polygon fill="#e0e0e0" stroke="#999999" points="224,-88 112.75,-88 112.75,-56 224,-56 224,-88"/>
<text text-anchor="start" x="120.75" y="-74.5" font-family="Helvetica,sans-Serif" font-size="10.00">boost/thread/recursive</text>
<text text-anchor="middle" x="168.38" y="-62.5" font-family="Helvetica,sans-Serif" font-size="10.00">_mutex.hpp</text>
</a>
</g>
</g>
<!-- Node1&#45;&gt;Node3 -->
<g id="edge2_Node000001_Node000003" class="edge">
<title>Node1&#45;&gt;Node3</title>
<g id="a_edge2_Node000001_Node000003"><a xlink:title=" ">
<path fill="none" stroke="#63b8ff" d="M243.65,-123.69C230.75,-115.01 214.41,-104 200.25,-94.47"/>
<polygon fill="#63b8ff" stroke="#63b8ff" points="202.57,-91.14 192.32,-88.45 198.66,-96.94 202.57,-91.14"/>
</a>
</g>
</g>
<!-- Node4 -->
<g id="Node000004" class="node">
<title>Node4</title>
<g id="a_Node000004"><a xlink:title=" ">
<polygon fill="#e0e0e0" stroke="#999999" points="290.5,-82 242.25,-82 242.25,-62 290.5,-62 290.5,-82"/>
<text text-anchor="middle" x="266.38" y="-68.5" font-family="Helvetica,sans-Serif" font-size="10.00">fstream</text>
</a>
</g>
</g>
<!-- Node1&#45;&gt;Node4 -->
<g id="edge3_Node000001_Node000004" class="edge">
<title>Node1&#45;&gt;Node4</title>
<g id="a_edge3_Node000001_Node000004"><a xlink:title=" ">
<path fill="none" stroke="#63b8ff" d="M266.38,-123.69C266.38,-114.6 266.38,-102.95 266.38,-93.12"/>
<polygon fill="#63b8ff" stroke="#63b8ff" points="269.88,-93.32 266.38,-83.32 262.88,-93.32 269.88,-93.32"/>
</a>
</g>
</g>
<!-- Node5 -->
<g id="Node000005" class="node">
<title>Node5</title>
<g id="a_Node000005"><a xlink:title=" ">
<polygon fill="#e0e0e0" stroke="#999999" points="321.38,-20 281.38,-20 281.38,0 321.38,0 321.38,-20"/>
<text text-anchor="middle" x="301.38" y="-6.5" font-family="Helvetica,sans-Serif" font-size="10.00">string</text>
</a>
</g>
</g>
<!-- Node1&#45;&gt;Node5 -->
<g id="edge4_Node000001_Node000005" class="edge">
<title>Node1&#45;&gt;Node5</title>
<g id="a_edge4_Node000001_Node000005"><a xlink:title=" ">
<path fill="none" stroke="#63b8ff" d="M279.54,-123.62C286.88,-114.04 295.32,-101.1 299.38,-88 305.17,-69.27 304.98,-46.73 303.77,-30.9"/>
<polygon fill="#63b8ff" stroke="#63b8ff" points="307.18,-30.88 302.72,-21.27 300.22,-31.56 307.18,-30.88"/>
</a>
</g>
</g>
<!-- Node6 -->
<g id="Node000006" class="node">
<title>Node6</title>
<g id="a_Node000006"><a xlink:href="FMTexception_8hpp.html" target="_top" xlink:title=" ">
<polygon fill="white" stroke="#666666" points="474.5,-82 378.25,-82 378.25,-62 474.5,-62 474.5,-82"/>
<text text-anchor="middle" x="426.38" y="-68.5" font-family="Helvetica,sans-Serif" font-size="10.00">FMTexception.hpp</text>
</a>
</g>
</g>
<!-- Node1&#45;&gt;Node6 -->
<g id="edge5_Node000001_Node000006" class="edge">
<title>Node1&#45;&gt;Node6</title>
<g id="a_edge5_Node000001_Node000006"><a xlink:title=" ">
<path fill="none" stroke="#63b8ff" d="M303.89,-123.53C331,-112.34 367.29,-97.37 393.32,-86.64"/>
<polygon fill="#63b8ff" stroke="#63b8ff" points="394.53,-89.51 402.44,-82.46 391.86,-83.04 394.53,-89.51"/>
</a>
</g>
</g>
<!-- Node6&#45;&gt;Node5 -->
<g id="edge7_Node000006_Node000005" class="edge">
<title>Node6&#45;&gt;Node5</title>
<g id="a_edge7_Node000006_Node000005"><a xlink:title=" ">
<path fill="none" stroke="#63b8ff" d="M406.84,-61.62C386.39,-51.81 354.03,-36.27 330.54,-25"/>
<polygon fill="#63b8ff" stroke="#63b8ff" points="332.3,-21.48 321.77,-20.31 329.27,-27.79 332.3,-21.48"/>
</a>
</g>
</g>
<!-- Node7 -->
<g id="Node000007" class="node">
<title>Node7</title>
<g id="a_Node000007"><a xlink:title=" ">
<polygon fill="#e0e0e0" stroke="#999999" points="397.38,-20 339.38,-20 339.38,0 397.38,0 397.38,-20"/>
<text text-anchor="middle" x="368.38" y="-6.5" font-family="Helvetica,sans-Serif" font-size="10.00">exception</text>
</a>
</g>
</g>
<!-- Node6&#45;&gt;Node7 -->
<g id="edge6_Node000006_Node000007" class="edge">
<title>Node6&#45;&gt;Node7</title>
<g id="a_edge6_Node000006_Node000007"><a xlink:title=" ">
<path fill="none" stroke="#63b8ff" d="M417.31,-61.62C408.58,-52.59 395.17,-38.72 384.59,-27.78"/>
<polygon fill="#63b8ff" stroke="#63b8ff" points="387.65,-25.87 378.18,-21.11 382.62,-30.74 387.65,-25.87"/>
</a>
</g>
</g>
<!-- Node8 -->
<g id="Node000008" class="node">
<title>Node8</title>
<g id="a_Node000008"><a xlink:title=" ">
<polygon fill="#e0e0e0" stroke="#999999" points="469.12,-20 415.62,-20 415.62,0 469.12,0 469.12,-20"/>
<text text-anchor="middle" x="442.38" y="-6.5" font-family="Helvetica,sans-Serif" font-size="10.00">iostream</text>
</a>
</g>
</g>
<!-- Node6&#45;&gt;Node8 -->
<g id="edge8_Node000006_Node000008" class="edge">
<title>Node6&#45;&gt;Node8</title>
<g id="a_edge8_Node000006_Node000008"><a xlink:title=" ">
<path fill="none" stroke="#63b8ff" d="M428.88,-61.62C431.07,-53.39 434.34,-41.13 437.11,-30.74"/>
<polygon fill="#63b8ff" stroke="#63b8ff" points="440.75,-31.68 439.94,-21.11 433.99,-29.87 440.75,-31.68"/>
</a>
</g>
</g>
<!-- Node9 -->
<g id="Node000009" class="node">
<title>Node9</title>
<g id="a_Node000009"><a xlink:title=" ">
<polygon fill="#e0e0e0" stroke="#999999" points="538,-20 486.75,-20 486.75,0 538,0 538,-20"/>
<text text-anchor="middle" x="512.38" y="-6.5" font-family="Helvetica,sans-Serif" font-size="10.00">memory</text>
</a>
</g>
</g>
<!-- Node6&#45;&gt;Node9 -->
<g id="edge9_Node000006_Node000009" class="edge">
<title>Node6&#45;&gt;Node9</title>
<g id="a_edge9_Node000006_Node000009"><a xlink:title=" ">
<path fill="none" stroke="#63b8ff" d="M439.81,-61.62C453.32,-52.2 474.37,-37.52 490.32,-26.39"/>
<polygon fill="#63b8ff" stroke="#63b8ff" points="491.83,-28.9 498.03,-20.31 487.83,-23.16 491.83,-28.9"/>
</a>
</g>
</g>
<!-- Node10 -->
<g id="Node000010" class="node">
<title>Node10</title>
<g id="a_Node000010"><a xlink:href="FMTutility_8hpp.html" target="_top" xlink:title=" ">
<polygon fill="white" stroke="#666666" points="633.12,-20 555.62,-20 555.62,0 633.12,0 633.12,-20"/>
<text text-anchor="middle" x="594.38" y="-6.5" font-family="Helvetica,sans-Serif" font-size="10.00">FMTutility.hpp</text>
</a>
</g>
</g>
<!-- Node6&#45;&gt;Node10 -->
<g id="edge10_Node000006_Node000010" class="edge">
<title>Node6&#45;&gt;Node10</title>
<g id="a_edge10_Node000006_Node000010"><a xlink:title=" ">
<path fill="none" stroke="#63b8ff" d="M452.62,-61.62C480.9,-51.53 526.09,-35.39 557.83,-24.05"/>
<polygon fill="#63b8ff" stroke="#63b8ff" points="558.79,-27.07 567.03,-20.41 556.44,-20.48 558.79,-27.07"/>
</a>
</g>
</g>
</g>
</svg>
