<?xml version="1.0" encoding="UTF-8" standalone="no"?>
<!DOCTYPE svg PUBLIC "-//W3C//DTD SVG 1.1//EN"
 "http://www.w3.org/Graphics/SVG/1.1/DTD/svg11.dtd">
<!-- Generated by graphviz version 8.1.0 (20230707.0739)
 -->
<!-- Title: C:/Temp/out/FMT/Include/FMTlayer.hpp Pages: 1 -->
<!--zoomable 288 -->

<svg id="main" version="1.1" xmlns="http://www.w3.org/2000/svg" xmlns:xlink="http://www.w3.org/1999/xlink" xml:space="preserve" onload="init(evt)">
<style type="text/css"><![CDATA[
.node, .edge {opacity: 0.7;}
.node.selected, .edge.selected {opacity: 1;}
.edge:hover path { stroke: red; }
.edge:hover polygon { stroke: red; fill: red; }
]]></style>

<defs>
  <circle id="rim" cx="0" cy="0" r="7"/>
  <circle id="rim2" cx="0" cy="0" r="3.5"/>
  <g id="zoomPlus">
    <use xlink:href="#rim" fill="#404040"><set attributeName="fill" to="#808080" begin="zoomplus.mouseover" end="zoomplus.mouseout"/></use>
    <path d="M-4,0h8M0,-4v8" fill="none" stroke="white" stroke-width="1.5" pointer-events="none"/>
  </g>
  <g id="zoomMin">
    <use xlink:href="#rim" fill="#404040"><set attributeName="fill" to="#808080" begin="zoomminus.mouseover" end="zoomminus.mouseout"/></use>
    <path d="M-4,0h8" fill="none" stroke="white" stroke-width="1.5" pointer-events="none"/>
  </g>
  <g id="arrowUp" transform="translate(30 24)">
    <use xlink:href="#rim"/>
    <path pointer-events="none" fill="none" stroke="white" stroke-width="1.5" d="M0,-3.0v7 M-2.5,-0.5L0,-3.0L2.5,-0.5"/>
  </g>
  <g id="arrowRight" transform="rotate(90) translate(36 -43)">
    <use xlink:href="#rim"/>
    <path pointer-events="none" fill="none" stroke="white" stroke-width="1.5" d="M0,-3.0v7 M-2.5,-0.5L0,-3.0L2.5,-0.5"/>
  </g>
  <g id="arrowDown" transform="rotate(180) translate(-30 -48)">
    <use xlink:href="#rim"/>
    <path pointer-events="none" fill="none" stroke="white" stroke-width="1.5" d="M0,-3.0v7 M-2.5,-0.5L0,-3.0L2.5,-0.5"/>
  </g>
  <g id="arrowLeft" transform="rotate(270) translate(-36 17)">
    <use xlink:href="#rim"/>
    <path pointer-events="none" fill="none" stroke="white" stroke-width="1.5" d="M0,-3.0v7 M-2.5,-0.5L0,-3.0L2.5,-0.5"/>
  </g>
  <g id="resetDef">
    <use xlink:href="#rim2" fill="#404040"><set attributeName="fill" to="#808080" begin="reset.mouseover" end="reset.mouseout"/></use>
  </g>
</defs>
<script type="application/ecmascript">
var viewWidth = 1583;
var viewHeight = 288;
var sectionId = 'dynsection-0';
</script>
<script type="application/ecmascript" xlink:href="svg.min.js"/>
<svg id="graph" class="graph">
<g id="viewport">
<title>C:/Temp/out/FMT/Include/FMTlayer.hpp</title>
<!-- Node1 -->
<g id="Node000001" class="node">
<title>Node1</title>
<g id="a_Node000001"><a xlink:title=" ">
<polygon fill="#999999" stroke="#666666" points="945.53,-280 820.03,-280 820.03,-248 945.53,-248 945.53,-280"/>
<text text-anchor="start" x="828.03" y="-266.5" font-family="Helvetica,sans-Serif" font-size="10.00">C:/Temp/out/FMT/Include</text>
<text text-anchor="middle" x="882.78" y="-254.5" font-family="Helvetica,sans-Serif" font-size="10.00">/FMTlayer.hpp</text>
</a>
</g>
</g>
<!-- Node2 -->
<g id="Node000002" class="node">
<title>Node2</title>
<g id="a_Node000002"><a xlink:title=" ">
<polygon fill="#e0e0e0" stroke="#999999" points="889.41,-20 838.16,-20 838.16,0 889.41,0 889.41,-20"/>
<text text-anchor="middle" x="863.78" y="-6.5" font-family="Helvetica,sans-Serif" font-size="10.00">memory</text>
</a>
</g>
</g>
<!-- Node1&#45;&gt;Node2 -->
<g id="edge1_Node000001_Node000002" class="edge">
<title>Node1&#45;&gt;Node2</title>
<g id="a_edge1_Node000001_Node000002"><a xlink:title=" ">
<path fill="none" stroke="#63b8ff" d="M819.6,-260.16C627.8,-250.89 62.28,-218.43 10.78,-156 -97.24,-25.03 650.51,-12.3 827.02,-11.11"/>
<polygon fill="#63b8ff" stroke="#63b8ff" points="826.83,-14.61 836.81,-11.05 826.79,-7.61 826.83,-14.61"/>
</a>
</g>
</g>
<!-- Node3 -->
<g id="Node000003" class="node">
<title>Node3</title>
<g id="a_Node000003"><a xlink:title=" ">
<polygon fill="#e0e0e0" stroke="#999999" points="1257.16,-212 1222.41,-212 1222.41,-192 1257.16,-192 1257.16,-212"/>
<text text-anchor="middle" x="1239.78" y="-198.5" font-family="Helvetica,sans-Serif" font-size="10.00">map</text>
</a>
</g>
</g>
<!-- Node1&#45;&gt;Node3 -->
<g id="edge2_Node000001_Node000003" class="edge">
<title>Node1&#45;&gt;Node3</title>
<g id="a_edge2_Node000001_Node000003"><a xlink:title=" ">
<path fill="none" stroke="#63b8ff" d="M945.98,-256.69C1010.73,-249.47 1114.33,-235.78 1211.42,-212.24"/>
<polygon fill="#63b8ff" stroke="#63b8ff" points="1212.14,-215.42 1221.01,-209.63 1210.46,-208.63 1212.14,-215.42"/>
</a>
</g>
</g>
<!-- Node4 -->
<g id="Node000004" class="node">
<title>Node4</title>
<g id="a_Node000004"><a xlink:title=" ">
<polygon fill="#e0e0e0" stroke="#999999" points="1146.53,-150 1105.03,-150 1105.03,-130 1146.53,-130 1146.53,-150"/>
<text text-anchor="middle" x="1125.78" y="-136.5" font-family="Helvetica,sans-Serif" font-size="10.00">vector</text>
</a>
</g>
</g>
<!-- Node1&#45;&gt;Node4 -->
<g id="edge3_Node000001_Node000004" class="edge">
<title>Node1&#45;&gt;Node4</title>
<g id="a_edge3_Node000001_Node000004"><a xlink:title=" ">
<path fill="none" stroke="#63b8ff" d="M914.04,-247.54C955.78,-226.85 1031.99,-188.95 1096.78,-156 1097.22,-155.78 1097.67,-155.55 1098.12,-155.32"/>
<polygon fill="#63b8ff" stroke="#63b8ff" points="1099.4,-158.08 1106.7,-150.4 1096.21,-151.85 1099.4,-158.08"/>
</a>
</g>
</g>
<!-- Node5 -->
<g id="Node000005" class="node">
<title>Node5</title>
<g id="a_Node000005"><a xlink:href="FMTcoordinate_8hpp.html" target="_top" xlink:title=" ">
<polygon fill="white" stroke="#666666" points="1204.41,-212 1105.16,-212 1105.16,-192 1204.41,-192 1204.41,-212"/>
<text text-anchor="middle" x="1154.78" y="-198.5" font-family="Helvetica,sans-Serif" font-size="10.00">FMTcoordinate.hpp</text>
</a>
</g>
</g>
<!-- Node1&#45;&gt;Node5 -->
<g id="edge4_Node000001_Node000005" class="edge">
<title>Node1&#45;&gt;Node5</title>
<g id="a_edge4_Node000001_Node000005"><a xlink:title=" ">
<path fill="none" stroke="#63b8ff" d="M945.87,-249.08C992.99,-238.69 1056.69,-224.64 1101.31,-214.79"/>
<polygon fill="#63b8ff" stroke="#63b8ff" points="1101.93,-218.02 1110.95,-212.45 1100.43,-211.19 1101.93,-218.02"/>
</a>
</g>
</g>
<!-- Node9 -->
<g id="Node000009" class="node">
<title>Node9</title>
<g id="a_Node000009"><a xlink:title=" ">
<polygon fill="#e0e0e0" stroke="#999999" points="655.16,-156 560.41,-156 560.41,-124 655.16,-124 655.16,-156"/>
<text text-anchor="start" x="568.41" y="-142.5" font-family="Helvetica,sans-Serif" font-size="10.00">boost/serialization</text>
<text text-anchor="middle" x="607.78" y="-130.5" font-family="Helvetica,sans-Serif" font-size="10.00">/nvp.hpp</text>
</a>
</g>
</g>
<!-- Node1&#45;&gt;Node9 -->
<g id="edge29_Node000001_Node000009" class="edge">
<title>Node1&#45;&gt;Node9</title>
<g id="a_edge29_Node000001_Node000009"><a xlink:title=" ">
<path fill="none" stroke="#63b8ff" d="M847.95,-247.55C798.15,-225.46 706.61,-184.85 652.06,-160.65"/>
<polygon fill="#63b8ff" stroke="#63b8ff" points="653.89,-157.18 643.33,-156.33 651.05,-163.58 653.89,-157.18"/>
</a>
</g>
</g>
<!-- Node17 -->
<g id="Node000017" class="node">
<title>Node17</title>
<g id="a_Node000017"><a xlink:href="FMTobject_8hpp.html" target="_top" xlink:title=" ">
<polygon fill="white" stroke="#666666" points="923.03,-212 842.53,-212 842.53,-192 923.03,-192 923.03,-212"/>
<text text-anchor="middle" x="882.78" y="-198.5" font-family="Helvetica,sans-Serif" font-size="10.00">FMTobject.hpp</text>
</a>
</g>
</g>
<!-- Node1&#45;&gt;Node17 -->
<g id="edge20_Node000001_Node000017" class="edge">
<title>Node1&#45;&gt;Node17</title>
<g id="a_edge20_Node000001_Node000017"><a xlink:title=" ">
<path fill="none" stroke="#63b8ff" d="M882.78,-247.55C882.78,-240.17 882.78,-231.24 882.78,-223.32"/>
<polygon fill="#63b8ff" stroke="#63b8ff" points="886.28,-223.41 882.78,-213.41 879.28,-223.41 886.28,-223.41"/>
</a>
</g>
</g>
<!-- Node22 -->
<g id="Node000022" class="node">
<title>Node22</title>
<g id="a_Node000022"><a xlink:href="FMTexceptionhandler_8hpp.html" target="_top" xlink:title=" ">
<polygon fill="white" stroke="#666666" points="436.66,-212 308.91,-212 308.91,-192 436.66,-192 436.66,-212"/>
<text text-anchor="middle" x="372.78" y="-198.5" font-family="Helvetica,sans-Serif" font-size="10.00">FMTexceptionhandler.hpp</text>
</a>
</g>
</g>
<!-- Node1&#45;&gt;Node22 -->
<g id="edge30_Node000001_Node000022" class="edge">
<title>Node1&#45;&gt;Node22</title>
<g id="a_edge30_Node000001_Node000022"><a xlink:title=" ">
<path fill="none" stroke="#63b8ff" d="M819.73,-255.58C725.49,-244.5 548.23,-223.64 447.58,-211.8"/>
<polygon fill="#63b8ff" stroke="#63b8ff" points="448.23,-208.23 437.89,-210.54 447.41,-215.19 448.23,-208.23"/>
</a>
</g>
</g>
<!-- Node5&#45;&gt;Node2 -->
<g id="edge5_Node000005_Node000002" class="edge">
<title>Node5&#45;&gt;Node2</title>
<g id="a_edge5_Node000005_Node000002"><a xlink:title=" ">
<path fill="none" stroke="#63b8ff" d="M1201.63,-191.57C1248.97,-181.56 1316.2,-165.87 1323.78,-156 1332.45,-144.72 1332.56,-135.19 1323.78,-124 1270.95,-56.62 999.73,-24.09 900.34,-14.3"/>
<polygon fill="#63b8ff" stroke="#63b8ff" points="900.93,-10.74 890.64,-13.27 900.26,-17.71 900.93,-10.74"/>
</a>
</g>
</g>
<!-- Node5&#45;&gt;Node4 -->
<g id="edge7_Node000005_Node000004" class="edge">
<title>Node5&#45;&gt;Node4</title>
<g id="a_edge7_Node000005_Node000004"><a xlink:title=" ">
<path fill="none" stroke="#63b8ff" d="M1150.25,-191.62C1146.14,-183.12 1139.96,-170.33 1134.84,-159.74"/>
<polygon fill="#63b8ff" stroke="#63b8ff" points="1137.69,-158.59 1130.19,-151.11 1131.39,-161.64 1137.69,-158.59"/>
</a>
</g>
</g>
<!-- Node6 -->
<g id="Node000006" class="node">
<title>Node6</title>
<g id="a_Node000006"><a xlink:title=" ">
<polygon fill="#e0e0e0" stroke="#999999" points="1575.03,-150 1446.53,-150 1446.53,-130 1575.03,-130 1575.03,-150"/>
<text text-anchor="middle" x="1510.78" y="-136.5" font-family="Helvetica,sans-Serif" font-size="10.00">boost/unordered_map.hpp</text>
</a>
</g>
</g>
<!-- Node5&#45;&gt;Node6 -->
<g id="edge6_Node000005_Node000006" class="edge">
<title>Node5&#45;&gt;Node6</title>
<g id="a_edge6_Node000005_Node000006"><a xlink:title=" ">
<path fill="none" stroke="#63b8ff" d="M1204.83,-193.35C1260.54,-184.74 1353.22,-170.09 1432.78,-156 1439.2,-154.86 1445.9,-153.64 1452.57,-152.39"/>
<polygon fill="#63b8ff" stroke="#63b8ff" points="1452.8,-155.72 1461.97,-150.43 1451.5,-148.84 1452.8,-155.72"/>
</a>
</g>
</g>
<!-- Node7 -->
<g id="Node000007" class="node">
<title>Node7</title>
<g id="a_Node000007"><a xlink:title=" ">
<polygon fill="#e0e0e0" stroke="#999999" points="1202.66,-150 1164.91,-150 1164.91,-130 1202.66,-130 1202.66,-150"/>
<text text-anchor="middle" x="1183.78" y="-136.5" font-family="Helvetica,sans-Serif" font-size="10.00">array</text>
</a>
</g>
</g>
<!-- Node5&#45;&gt;Node7 -->
<g id="edge8_Node000005_Node000007" class="edge">
<title>Node5&#45;&gt;Node7</title>
<g id="a_edge8_Node000005_Node000007"><a xlink:title=" ">
<path fill="none" stroke="#63b8ff" d="M1159.31,-191.62C1163.42,-183.12 1169.6,-170.33 1174.73,-159.74"/>
<polygon fill="#63b8ff" stroke="#63b8ff" points="1178.18,-161.64 1179.38,-151.11 1171.87,-158.59 1178.18,-161.64"/>
</a>
</g>
</g>
<!-- Node8 -->
<g id="Node000008" class="node">
<title>Node8</title>
<g id="a_Node000008"><a xlink:title=" ">
<polygon fill="#e0e0e0" stroke="#999999" points="495.16,-156 400.41,-156 400.41,-124 495.16,-124 495.16,-156"/>
<text text-anchor="start" x="408.41" y="-142.5" font-family="Helvetica,sans-Serif" font-size="10.00">boost/serialization</text>
<text text-anchor="middle" x="447.78" y="-130.5" font-family="Helvetica,sans-Serif" font-size="10.00">/serialization.hpp</text>
</a>
</g>
</g>
<!-- Node5&#45;&gt;Node8 -->
<g id="edge9_Node000005_Node000008" class="edge">
<title>Node5&#45;&gt;Node8</title>
<g id="a_edge9_Node000005_Node000008"><a xlink:title=" ">
<path fill="none" stroke="#63b8ff" d="M1105.07,-198.81C977.29,-192.97 638.64,-176.25 506.28,-156.16"/>
<polygon fill="#63b8ff" stroke="#63b8ff" points="507.04,-152.58 496.61,-154.46 505.93,-159.49 507.04,-152.58"/>
</a>
</g>
</g>
<!-- Node5&#45;&gt;Node9 -->
<g id="edge10_Node000005_Node000009" class="edge">
<title>Node5&#45;&gt;Node9</title>
<g id="a_edge10_Node000005_Node000009"><a xlink:title=" ">
<path fill="none" stroke="#63b8ff" d="M1104.69,-199.14C1017.42,-195.31 831.81,-184.52 665.94,-156"/>
<polygon fill="#63b8ff" stroke="#63b8ff" points="667,-152.46 656.55,-154.18 665.8,-159.35 667,-152.46"/>
</a>
</g>
</g>
<!-- Node10 -->
<g id="Node000010" class="node">
<title>Node10</title>
<g id="a_Node000010"><a xlink:title=" ">
<polygon fill="#e0e0e0" stroke="#999999" points="1315.16,-156 1220.41,-156 1220.41,-124 1315.16,-124 1315.16,-156"/>
<text text-anchor="start" x="1228.41" y="-142.5" font-family="Helvetica,sans-Serif" font-size="10.00">boost/serialization</text>
<text text-anchor="middle" x="1267.78" y="-130.5" font-family="Helvetica,sans-Serif" font-size="10.00">/array.hpp</text>
</a>
</g>
</g>
<!-- Node5&#45;&gt;Node10 -->
<g id="edge11_Node000005_Node000010" class="edge">
<title>Node5&#45;&gt;Node10</title>
<g id="a_edge11_Node000005_Node000010"><a xlink:title=" ">
<path fill="none" stroke="#63b8ff" d="M1172.44,-191.62C1187.62,-183.56 1210.07,-171.64 1229.37,-161.4"/>
<polygon fill="#63b8ff" stroke="#63b8ff" points="1230.64,-164.15 1237.83,-156.37 1227.35,-157.97 1230.64,-164.15"/>
</a>
</g>
</g>
<!-- Node11 -->
<g id="Node000011" class="node">
<title>Node11</title>
<g id="a_Node000011"><a xlink:title=" ">
<polygon fill="#e0e0e0" stroke="#999999" points="1438.78,-20 1398.78,-20 1398.78,0 1438.78,0 1438.78,-20"/>
<text text-anchor="middle" x="1418.78" y="-6.5" font-family="Helvetica,sans-Serif" font-size="10.00">string</text>
</a>
</g>
</g>
<!-- Node5&#45;&gt;Node11 -->
<g id="edge12_Node000005_Node000011" class="edge">
<title>Node5&#45;&gt;Node11</title>
<g id="a_edge12_Node000005_Node000011"><a xlink:title=" ">
<path fill="none" stroke="#63b8ff" d="M1204.9,-193.33C1265.52,-183.65 1361.06,-166.95 1373.78,-156 1410.64,-124.28 1417.75,-62.96 1418.84,-31.19"/>
<polygon fill="#63b8ff" stroke="#63b8ff" points="1422.35,-31.29 1419.01,-21.23 1415.35,-31.18 1422.35,-31.29"/>
</a>
</g>
</g>
<!-- Node12 -->
<g id="Node000012" class="node">
<title>Node12</title>
<g id="a_Node000012"><a xlink:title=" ">
<polygon fill="#e0e0e0" stroke="#999999" points="542.53,-150 513.03,-150 513.03,-130 542.53,-130 542.53,-150"/>
<text text-anchor="middle" x="527.78" y="-136.5" font-family="Helvetica,sans-Serif" font-size="10.00">set</text>
</a>
</g>
</g>
<!-- Node5&#45;&gt;Node12 -->
<g id="edge13_Node000005_Node000012" class="edge">
<title>Node5&#45;&gt;Node12</title>
<g id="a_edge13_Node000005_Node000012"><a xlink:title=" ">
<path fill="none" stroke="#63b8ff" d="M1105.09,-198.66C970.19,-192.13 603.72,-173.01 551.78,-156 551.17,-155.8 550.56,-155.58 549.94,-155.34"/>
<polygon fill="#63b8ff" stroke="#63b8ff" points="551.91,-151.91 541.41,-150.47 548.73,-158.14 551.91,-151.91"/>
</a>
</g>
</g>
<!-- Node13 -->
<g id="Node000013" class="node">
<title>Node13</title>
<g id="a_Node000013"><a xlink:href="FMTexception_8hpp.html" target="_top" xlink:title=" ">
<polygon fill="white" stroke="#666666" points="1389.91,-82 1293.66,-82 1293.66,-62 1389.91,-62 1389.91,-82"/>
<text text-anchor="middle" x="1341.78" y="-68.5" font-family="Helvetica,sans-Serif" font-size="10.00">FMTexception.hpp</text>
</a>
</g>
</g>
<!-- Node5&#45;&gt;Node13 -->
<g id="edge14_Node000005_Node000013" class="edge">
<title>Node5&#45;&gt;Node13</title>
<g id="a_edge14_Node000005_Node000013"><a xlink:title=" ">
<path fill="none" stroke="#63b8ff" d="M1204.87,-193.17C1261.54,-183.8 1347.24,-167.9 1356.78,-156 1371.33,-137.85 1362.05,-110.28 1352.91,-91.95"/>
<polygon fill="#63b8ff" stroke="#63b8ff" points="1355.57,-90.51 1347.73,-83.38 1349.41,-93.84 1355.57,-90.51"/>
</a>
</g>
</g>
<!-- Node13&#45;&gt;Node2 -->
<g id="edge18_Node000013_Node000002" class="edge">
<title>Node13&#45;&gt;Node2</title>
<g id="a_edge18_Node000013_Node000002"><a xlink:title=" ">
<path fill="none" stroke="#63b8ff" d="M1306.21,-61.56C1297.6,-59.51 1288.4,-57.5 1279.78,-56 1140.86,-31.79 973.43,-18.42 900.6,-13.37"/>
<polygon fill="#63b8ff" stroke="#63b8ff" points="900.96,-9.82 890.75,-12.63 900.49,-16.8 900.96,-9.82"/>
</a>
</g>
</g>
<!-- Node13&#45;&gt;Node11 -->
<g id="edge16_Node000013_Node000011" class="edge">
<title>Node13&#45;&gt;Node11</title>
<g id="a_edge16_Node000013_Node000011"><a xlink:title=" ">
<path fill="none" stroke="#63b8ff" d="M1353.81,-61.62C1365.68,-52.38 1384.05,-38.07 1398.23,-27.01"/>
<polygon fill="#63b8ff" stroke="#63b8ff" points="1400.1,-29.22 1405.83,-20.31 1395.8,-23.69 1400.1,-29.22"/>
</a>
</g>
</g>
<!-- Node14 -->
<g id="Node000014" class="node">
<title>Node14</title>
<g id="a_Node000014"><a xlink:title=" ">
<polygon fill="#e0e0e0" stroke="#999999" points="1212.78,-20 1154.78,-20 1154.78,0 1212.78,0 1212.78,-20"/>
<text text-anchor="middle" x="1183.78" y="-6.5" font-family="Helvetica,sans-Serif" font-size="10.00">exception</text>
</a>
</g>
</g>
<!-- Node13&#45;&gt;Node14 -->
<g id="edge15_Node000013_Node000014" class="edge">
<title>Node13&#45;&gt;Node14</title>
<g id="a_edge15_Node000013_Node000014"><a xlink:title=" ">
<path fill="none" stroke="#63b8ff" d="M1317.09,-61.62C1290.62,-51.57 1248.37,-35.53 1218.54,-24.2"/>
<polygon fill="#63b8ff" stroke="#63b8ff" points="1220.15,-20.69 1209.56,-20.41 1217.66,-27.23 1220.15,-20.69"/>
</a>
</g>
</g>
<!-- Node15 -->
<g id="Node000015" class="node">
<title>Node15</title>
<g id="a_Node000015"><a xlink:title=" ">
<polygon fill="#e0e0e0" stroke="#999999" points="1284.53,-20 1231.03,-20 1231.03,0 1284.53,0 1284.53,-20"/>
<text text-anchor="middle" x="1257.78" y="-6.5" font-family="Helvetica,sans-Serif" font-size="10.00">iostream</text>
</a>
</g>
</g>
<!-- Node13&#45;&gt;Node15 -->
<g id="edge17_Node000013_Node000015" class="edge">
<title>Node13&#45;&gt;Node15</title>
<g id="a_edge17_Node000013_Node000015"><a xlink:title=" ">
<path fill="none" stroke="#63b8ff" d="M1328.66,-61.62C1315.59,-52.29 1295.29,-37.79 1279.76,-26.7"/>
<polygon fill="#63b8ff" stroke="#63b8ff" points="1281.99,-23.27 1271.81,-20.31 1277.92,-28.97 1281.99,-23.27"/>
</a>
</g>
</g>
<!-- Node16 -->
<g id="Node000016" class="node">
<title>Node16</title>
<g id="a_Node000016"><a xlink:href="FMTutility_8hpp.html" target="_top" xlink:title=" ">
<polygon fill="white" stroke="#666666" points="1380.53,-20 1303.03,-20 1303.03,0 1380.53,0 1380.53,-20"/>
<text text-anchor="middle" x="1341.78" y="-6.5" font-family="Helvetica,sans-Serif" font-size="10.00">FMTutility.hpp</text>
</a>
</g>
</g>
<!-- Node13&#45;&gt;Node16 -->
<g id="edge19_Node000013_Node000016" class="edge">
<title>Node13&#45;&gt;Node16</title>
<g id="a_edge19_Node000013_Node000016"><a xlink:title=" ">
<path fill="none" stroke="#63b8ff" d="M1341.78,-61.62C1341.78,-53.48 1341.78,-41.39 1341.78,-31.07"/>
<polygon fill="#63b8ff" stroke="#63b8ff" points="1345.28,-31.11 1341.78,-21.11 1338.28,-31.11 1345.28,-31.11"/>
</a>
</g>
</g>
<!-- Node17&#45;&gt;Node2 -->
<g id="edge25_Node000017_Node000002" class="edge">
<title>Node17&#45;&gt;Node2</title>
<g id="a_edge25_Node000017_Node000002"><a xlink:title=" ">
<path fill="none" stroke="#63b8ff" d="M881.84,-191.58C878.9,-162.2 869.86,-71.81 865.8,-31.16"/>
<polygon fill="#63b8ff" stroke="#63b8ff" points="869.21,-31.08 864.73,-21.48 862.24,-31.78 869.21,-31.08"/>
</a>
</g>
</g>
<!-- Node17&#45;&gt;Node4 -->
<g id="edge27_Node000017_Node000004" class="edge">
<title>Node17&#45;&gt;Node4</title>
<g id="a_edge27_Node000017_Node000004"><a xlink:title=" ">
<path fill="none" stroke="#63b8ff" d="M923.51,-195.78C967.24,-189.41 1038.31,-176.84 1096.78,-156 1097.72,-155.67 1098.66,-155.31 1099.6,-154.93"/>
<polygon fill="#63b8ff" stroke="#63b8ff" points="1100.93,-157.71 1108.56,-150.36 1098.02,-151.35 1100.93,-157.71"/>
</a>
</g>
</g>
<!-- Node17&#45;&gt;Node9 -->
<g id="edge22_Node000017_Node000009" class="edge">
<title>Node17&#45;&gt;Node9</title>
<g id="a_edge22_Node000017_Node000009"><a xlink:title=" ">
<path fill="none" stroke="#63b8ff" d="M842.06,-193.27C800.3,-185.2 733.25,-171.82 665.99,-156.21"/>
<polygon fill="#63b8ff" stroke="#63b8ff" points="667.16,-152.66 656.63,-153.79 665.57,-159.48 667.16,-152.66"/>
</a>
</g>
</g>
<!-- Node17&#45;&gt;Node13 -->
<g id="edge24_Node000017_Node000013" class="edge">
<title>Node17&#45;&gt;Node13</title>
<g id="a_edge24_Node000017_Node000013"><a xlink:title=" ">
<path fill="none" stroke="#63b8ff" d="M884.45,-191.55C887.93,-174.86 897.67,-140.38 920.78,-124 977.66,-83.7 1180.72,-75.11 1282.6,-73.38"/>
<polygon fill="#63b8ff" stroke="#63b8ff" points="1282.37,-76.86 1292.32,-73.21 1282.27,-69.87 1282.37,-76.86"/>
</a>
</g>
</g>
<!-- Node18 -->
<g id="Node000018" class="node">
<title>Node18</title>
<g id="a_Node000018"><a xlink:title=" ">
<polygon fill="#e0e0e0" stroke="#999999" points="1024.16,-156 929.41,-156 929.41,-124 1024.16,-124 1024.16,-156"/>
<text text-anchor="start" x="937.41" y="-142.5" font-family="Helvetica,sans-Serif" font-size="10.00">boost/serialization</text>
<text text-anchor="middle" x="976.78" y="-130.5" font-family="Helvetica,sans-Serif" font-size="10.00">/shared_ptr.hpp</text>
</a>
</g>
</g>
<!-- Node17&#45;&gt;Node18 -->
<g id="edge21_Node000017_Node000018" class="edge">
<title>Node17&#45;&gt;Node18</title>
<g id="a_edge21_Node000017_Node000018"><a xlink:title=" ">
<path fill="none" stroke="#63b8ff" d="M897.47,-191.62C909.81,-183.75 927.92,-172.19 943.72,-162.1"/>
<polygon fill="#63b8ff" stroke="#63b8ff" points="945.15,-164.7 951.7,-156.37 941.38,-158.8 945.15,-164.7"/>
</a>
</g>
</g>
<!-- Node19 -->
<g id="Node000019" class="node">
<title>Node19</title>
<g id="a_Node000019"><a xlink:title=" ">
<polygon fill="#e0e0e0" stroke="#999999" points="593.16,-88 498.41,-88 498.41,-56 593.16,-56 593.16,-88"/>
<text text-anchor="start" x="506.41" y="-74.5" font-family="Helvetica,sans-Serif" font-size="10.00">boost/serialization</text>
<text text-anchor="middle" x="545.78" y="-62.5" font-family="Helvetica,sans-Serif" font-size="10.00">/export.hpp</text>
</a>
</g>
</g>
<!-- Node17&#45;&gt;Node19 -->
<g id="edge23_Node000017_Node000019" class="edge">
<title>Node17&#45;&gt;Node19</title>
<g id="a_edge23_Node000017_Node000019"><a xlink:title=" ">
<path fill="none" stroke="#63b8ff" d="M876.5,-191.65C864.86,-175.11 838.23,-140.87 806.78,-124 742.9,-89.72 659.18,-78.31 604,-74.6"/>
<polygon fill="#63b8ff" stroke="#63b8ff" points="604.55,-71.07 594.36,-73.96 604.13,-78.06 604.55,-71.07"/>
</a>
</g>
</g>
<!-- Node20 -->
<g id="Node000020" class="node">
<title>Node20</title>
<g id="a_Node000020"><a xlink:title=" ">
<polygon fill="#e0e0e0" stroke="#999999" points="1087.41,-150 1042.16,-150 1042.16,-130 1087.41,-130 1087.41,-150"/>
<text text-anchor="middle" x="1064.78" y="-136.5" font-family="Helvetica,sans-Serif" font-size="10.00">chrono</text>
</a>
</g>
</g>
<!-- Node17&#45;&gt;Node20 -->
<g id="edge26_Node000017_Node000020" class="edge">
<title>Node17&#45;&gt;Node20</title>
<g id="a_edge26_Node000017_Node000020"><a xlink:title=" ">
<path fill="none" stroke="#63b8ff" d="M919.66,-191.56C950.33,-183.33 994.94,-170.46 1032.78,-156 1033.87,-155.58 1034.97,-155.15 1036.08,-154.69"/>
<polygon fill="#63b8ff" stroke="#63b8ff" points="1037.27,-157.56 1045.03,-150.35 1034.46,-151.15 1037.27,-157.56"/>
</a>
</g>
</g>
<!-- Node21 -->
<g id="Node000021" class="node">
<title>Node21</title>
<g id="a_Node000021"><a xlink:title=" ">
<polygon fill="#e0e0e0" stroke="#999999" points="798.16,-156 673.41,-156 673.41,-124 798.16,-124 798.16,-156"/>
<text text-anchor="start" x="681.41" y="-142.5" font-family="Helvetica,sans-Serif" font-size="10.00">boost/dll/runtime_symbol</text>
<text text-anchor="middle" x="735.78" y="-130.5" font-family="Helvetica,sans-Serif" font-size="10.00">_info.hpp</text>
</a>
</g>
</g>
<!-- Node17&#45;&gt;Node21 -->
<g id="edge28_Node000017_Node000021" class="edge">
<title>Node17&#45;&gt;Node21</title>
<g id="a_edge28_Node000017_Node000021"><a xlink:title=" ">
<path fill="none" stroke="#63b8ff" d="M859.81,-191.62C839.5,-183.33 809.2,-170.96 783.63,-160.53"/>
<polygon fill="#63b8ff" stroke="#63b8ff" points="785.31,-157.03 774.73,-156.49 782.67,-163.51 785.31,-157.03"/>
</a>
</g>
</g>
<!-- Node22&#45;&gt;Node2 -->
<g id="edge41_Node000022_Node000002" class="edge">
<title>Node22&#45;&gt;Node2</title>
<g id="a_edge41_Node000022_Node000002"><a xlink:title=" ">
<path fill="none" stroke="#63b8ff" d="M310.04,-191.51C289.27,-185.05 268.29,-174.21 255.78,-156 230.62,-119.36 225.54,-88.57 255.78,-56 294.68,-14.12 700.81,-10.88 826.75,-10.89"/>
<polygon fill="#63b8ff" stroke="#63b8ff" points="826.7,-14.39 836.71,-10.89 826.71,-7.39 826.7,-14.39"/>
</a>
</g>
</g>
<!-- Node22&#45;&gt;Node8 -->
<g id="edge38_Node000022_Node000008" class="edge">
<title>Node22&#45;&gt;Node8</title>
<g id="a_edge38_Node000022_Node000008"><a xlink:title=" ">
<path fill="none" stroke="#63b8ff" d="M384.5,-191.62C393.98,-184.04 407.73,-173.05 419.98,-163.24"/>
<polygon fill="#63b8ff" stroke="#63b8ff" points="421.94,-165.35 427.56,-156.37 417.57,-159.89 421.94,-165.35"/>
</a>
</g>
</g>
<!-- Node22&#45;&gt;Node9 -->
<g id="edge39_Node000022_Node000009" class="edge">
<title>Node22&#45;&gt;Node9</title>
<g id="a_edge39_Node000022_Node000009"><a xlink:title=" ">
<path fill="none" stroke="#63b8ff" d="M411.23,-191.51C445.25,-183.09 496.49,-170.29 549.51,-156.57"/>
<polygon fill="#63b8ff" stroke="#63b8ff" points="550.33,-159.71 559.14,-153.82 548.58,-152.94 550.33,-159.71"/>
</a>
</g>
</g>
<!-- Node22&#45;&gt;Node12 -->
<g id="edge42_Node000022_Node000012" class="edge">
<title>Node22&#45;&gt;Node12</title>
<g id="a_edge42_Node000022_Node000012"><a xlink:title=" ">
<path fill="none" stroke="#63b8ff" d="M407,-191.58C433.94,-183.62 472.09,-171.1 503.78,-156 503.99,-155.9 504.2,-155.8 504.42,-155.69"/>
<polygon fill="#63b8ff" stroke="#63b8ff" points="505.83,-158.35 512.87,-150.44 502.43,-152.24 505.83,-158.35"/>
</a>
</g>
</g>
<!-- Node22&#45;&gt;Node19 -->
<g id="edge40_Node000022_Node000019" class="edge">
<title>Node22&#45;&gt;Node19</title>
<g id="a_edge40_Node000022_Node000019"><a xlink:title=" ">
<path fill="none" stroke="#63b8ff" d="M372.37,-191.61C372.2,-175.62 374.2,-143 391.78,-124 398.71,-116.51 447.12,-101.16 487.85,-89.25"/>
<polygon fill="#63b8ff" stroke="#63b8ff" points="488.65,-92.37 497.27,-86.23 486.69,-85.65 488.65,-92.37"/>
</a>
</g>
</g>
<!-- Node23 -->
<g id="Node000023" class="node">
<title>Node23</title>
<g id="a_Node000023"><a xlink:href="FMTlogger_8hpp.html" target="_top" xlink:title=" ">
<polygon fill="white" stroke="#666666" points="345.03,-150 264.53,-150 264.53,-130 345.03,-130 345.03,-150"/>
<text text-anchor="middle" x="304.78" y="-136.5" font-family="Helvetica,sans-Serif" font-size="10.00">FMTlogger.hpp</text>
</a>
</g>
</g>
<!-- Node22&#45;&gt;Node23 -->
<g id="edge31_Node000022_Node000023" class="edge">
<title>Node22&#45;&gt;Node23</title>
<g id="a_edge31_Node000022_Node000023"><a xlink:title=" ">
<path fill="none" stroke="#63b8ff" d="M362.16,-191.62C351.72,-182.41 335.58,-168.17 323.07,-157.14"/>
<polygon fill="#63b8ff" stroke="#63b8ff" points="325.92,-155.1 316.11,-151.11 321.29,-160.35 325.92,-155.1"/>
</a>
</g>
</g>
<!-- Node26 -->
<g id="Node000026" class="node">
<title>Node26</title>
<g id="a_Node000026"><a xlink:title=" ">
<polygon fill="#e0e0e0" stroke="#999999" points="102.16,-150 19.41,-150 19.41,-130 102.16,-130 102.16,-150"/>
<text text-anchor="middle" x="60.78" y="-136.5" font-family="Helvetica,sans-Serif" font-size="10.00">unordered_map</text>
</a>
</g>
</g>
<!-- Node22&#45;&gt;Node26 -->
<g id="edge37_Node000022_Node000026" class="edge">
<title>Node22&#45;&gt;Node26</title>
<g id="a_edge37_Node000022_Node000026"><a xlink:title=" ">
<path fill="none" stroke="#63b8ff" d="M308.55,-192.04C255.46,-184.13 178.29,-171.46 111.78,-156 108.37,-155.21 104.84,-154.32 101.31,-153.38"/>
<polygon fill="#63b8ff" stroke="#63b8ff" points="102.41,-149.77 91.83,-150.46 100.53,-156.52 102.41,-149.77"/>
</a>
</g>
</g>
<!-- Node27 -->
<g id="Node000027" class="node">
<title>Node27</title>
<g id="a_Node000027"><a xlink:title=" ">
<polygon fill="#e0e0e0" stroke="#999999" points="209.16,-150 120.41,-150 120.41,-130 209.16,-130 209.16,-150"/>
<text text-anchor="middle" x="164.78" y="-136.5" font-family="Helvetica,sans-Serif" font-size="10.00">boost/thread.hpp</text>
</a>
</g>
</g>
<!-- Node22&#45;&gt;Node27 -->
<g id="edge43_Node000022_Node000027" class="edge">
<title>Node22&#45;&gt;Node27</title>
<g id="a_edge43_Node000022_Node000027"><a xlink:title=" ">
<path fill="none" stroke="#63b8ff" d="M340.28,-191.62C304.59,-181.33 247.13,-164.75 207.74,-153.39"/>
<polygon fill="#63b8ff" stroke="#63b8ff" points="208.97,-149.82 198.4,-150.41 207.03,-156.54 208.97,-149.82"/>
</a>
</g>
</g>
<!-- Node23&#45;&gt;Node11 -->
<g id="edge35_Node000023_Node000011" class="edge">
<title>Node23&#45;&gt;Node11</title>
<g id="a_edge35_Node000023_Node000011"><a xlink:title=" ">
<path fill="none" stroke="#63b8ff" d="M344.2,-129.55C374.8,-121.24 417.61,-107.42 451.78,-88 470.98,-77.09 469.2,-63.98 489.78,-56 673.21,15.13 1174.98,-51.59 1387.53,-19.81"/>
<polygon fill="#63b8ff" stroke="#63b8ff" points="1388.03,-23.12 1397.35,-18.07 1386.92,-16.21 1388.03,-23.12"/>
</a>
</g>
</g>
<!-- Node23&#45;&gt;Node13 -->
<g id="edge36_Node000023_Node000013" class="edge">
<title>Node23&#45;&gt;Node13</title>
<g id="a_edge36_Node000023_Node000013"><a xlink:title=" ">
<path fill="none" stroke="#63b8ff" d="M345.36,-130.99C359.94,-128.38 376.55,-125.72 391.78,-124 727.24,-86.21 1132.59,-76.25 1282.41,-73.77"/>
<polygon fill="#63b8ff" stroke="#63b8ff" points="1282.23,-77.26 1292.17,-73.6 1282.12,-70.26 1282.23,-77.26"/>
</a>
</g>
</g>
<!-- Node23&#45;&gt;Node19 -->
<g id="edge32_Node000023_Node000019" class="edge">
<title>Node23&#45;&gt;Node19</title>
<g id="a_edge32_Node000023_Node000019"><a xlink:title=" ">
<path fill="none" stroke="#63b8ff" d="M338.77,-129.53C345.4,-127.69 352.31,-125.78 358.78,-124 401.89,-112.13 450.63,-98.84 487.54,-88.81"/>
<polygon fill="#63b8ff" stroke="#63b8ff" points="488.38,-91.94 497.11,-85.93 486.54,-85.18 488.38,-91.94"/>
</a>
</g>
</g>
<!-- Node24 -->
<g id="Node000024" class="node">
<title>Node24</title>
<g id="a_Node000024"><a xlink:title=" ">
<polygon fill="#e0e0e0" stroke="#999999" points="376.41,-88 265.16,-88 265.16,-56 376.41,-56 376.41,-88"/>
<text text-anchor="start" x="273.16" y="-74.5" font-family="Helvetica,sans-Serif" font-size="10.00">boost/thread/recursive</text>
<text text-anchor="middle" x="320.78" y="-62.5" font-family="Helvetica,sans-Serif" font-size="10.00">_mutex.hpp</text>
</a>
</g>
</g>
<!-- Node23&#45;&gt;Node24 -->
<g id="edge33_Node000023_Node000024" class="edge">
<title>Node23&#45;&gt;Node24</title>
<g id="a_edge33_Node000023_Node000024"><a xlink:title=" ">
<path fill="none" stroke="#63b8ff" d="M307.07,-129.54C309.01,-121.55 311.88,-109.72 314.49,-98.95"/>
<polygon fill="#63b8ff" stroke="#63b8ff" points="318.12,-99.84 317.07,-89.3 311.31,-98.2 318.12,-99.84"/>
</a>
</g>
</g>
<!-- Node25 -->
<g id="Node000025" class="node">
<title>Node25</title>
<g id="a_Node000025"><a xlink:title=" ">
<polygon fill="#e0e0e0" stroke="#999999" points="442.91,-82 394.66,-82 394.66,-62 442.91,-62 442.91,-82"/>
<text text-anchor="middle" x="418.78" y="-68.5" font-family="Helvetica,sans-Serif" font-size="10.00">fstream</text>
</a>
</g>
</g>
<!-- Node23&#45;&gt;Node25 -->
<g id="edge34_Node000023_Node000025" class="edge">
<title>Node23&#45;&gt;Node25</title>
<g id="a_edge34_Node000023_Node000025"><a xlink:title=" ">
<path fill="none" stroke="#63b8ff" d="M321.12,-129.54C339.91,-118.66 371.01,-100.66 393.06,-87.89"/>
<polygon fill="#63b8ff" stroke="#63b8ff" points="394.58,-90.48 401.48,-82.44 391.07,-84.42 394.58,-90.48"/>
</a>
</g>
</g>
</g>
</svg>

<g id="navigator" transform="translate(0 0)" fill="#404254">
  <rect fill="#f2f5e9" fill-opacity="0.5" stroke="#606060" stroke-width=".5" x="0" y="0" width="60" height="60"/>
  <use id="zoomplus" xlink:href="#zoomPlus" x="17" y="9" onmousedown="handleZoom(evt,'in')"/>
  <use id="zoomminus" xlink:href="#zoomMin" x="42" y="9" onmousedown="handleZoom(evt,'out')"/>
  <use id="reset" xlink:href="#resetDef" x="30" y="36" onmousedown="handleReset()"/>
   <use id="arrowup" xlink:href="#arrowUp" x="0" y="0" onmousedown="handlePan(0,-1)"/>
  <use id="arrowright" xlink:href="#arrowRight" x="0" y="0" onmousedown="handlePan(1,0)"/>
  <use id="arrowdown" xlink:href="#arrowDown" x="0" y="0" onmousedown="handlePan(0,1)"/>
  <use id="arrowleft" xlink:href="#arrowLeft" x="0" y="0" onmousedown="handlePan(-1,0)"/>
</g>
<svg viewBox="0 0 15 15" width="100%" height="30px" preserveAspectRatio="xMaxYMin meet">
 <g id="arrow_out" transform="scale(0.3 0.3)">
  <a xlink:href="FMTlayer_8hpp__incl_org.svg" target="_base">
   <rect id="button" ry="5" rx="5" y="6" x="6" height="38" width="38"
        fill="#f2f5e9" fill-opacity="0.5" stroke="#606060" stroke-width="1.0"/>
   <path id="arrow"
     d="M 11.500037,31.436501 C 11.940474,20.09759 22.043105,11.32322 32.158766,21.979434 L 37.068811,17.246167 C 37.068811,17.246167 37.088388,32 37.088388,32 L 22.160133,31.978069 C 22.160133,31.978069 26.997745,27.140456 26.997745,27.140456 C 18.528582,18.264221 13.291696,25.230495 11.500037,31.436501 z"
     style="fill:#404040;"/>
  </a>
 </g>
</svg>

<style type='text/css'>
<![CDATA[
[data-mouse-over-selected='false'] { opacity: 0.7; }
[data-mouse-over-selected='true']  { opacity: 1.0; }
]]>
</style>
<script type="application/ecmascript"><![CDATA[
document.addEventListener('DOMContentLoaded', (event) => {
  highlightEdges();
  highlightAdjacentNodes();
});
]]></script>
</svg>
