<?xml version="1.0" encoding="UTF-8" standalone="no"?>
<!DOCTYPE svg PUBLIC "-//W3C//DTD SVG 1.1//EN"
 "http://www.w3.org/Graphics/SVG/1.1/DTD/svg11.dtd">
<!-- Generated by graphviz version 8.1.0 (20230707.0739)
 -->
<!-- Title: C:/Temp/out/FMT/Include/FMTlpheuristic.hpp Pages: 1 -->
<svg width="515pt" height="244pt"
 viewBox="0.00 0.00 515.38 244.00" xmlns="http://www.w3.org/2000/svg" xmlns:xlink="http://www.w3.org/1999/xlink">
<g id="graph0" class="graph" transform="scale(1 1) rotate(0) translate(4 240)">
<title>C:/Temp/out/FMT/Include/FMTlpheuristic.hpp</title>
<!-- Node1 -->
<g id="Node000001" class="node">
<title>Node1</title>
<g id="a_Node000001"><a xlink:title=" ">
<polygon fill="#999999" stroke="#666666" points="226.38,-236 100.88,-236 100.88,-204 226.38,-204 226.38,-236"/>
<text text-anchor="start" x="108.88" y="-222.5" font-family="Helvetica,sans-Serif" font-size="10.00">C:/Temp/out/FMT/Include</text>
<text text-anchor="middle" x="163.62" y="-210.5" font-family="Helvetica,sans-Serif" font-size="10.00">/FMTlpheuristic.hpp</text>
</a>
</g>
</g>
<!-- Node2 -->
<g id="Node000002" class="node">
<title>Node2</title>
<g id="a_Node000002"><a xlink:href="FMToperatingareaclusterer_8hpp.html" target="_top" xlink:title=" ">
<polygon fill="white" stroke="#666666" points="153.25,-168 0,-168 0,-136 153.25,-136 153.25,-168"/>
<text text-anchor="start" x="8" y="-154.5" font-family="Helvetica,sans-Serif" font-size="10.00">C:/Temp/out/FMT/Include</text>
<text text-anchor="middle" x="76.62" y="-142.5" font-family="Helvetica,sans-Serif" font-size="10.00">/FMToperatingareaclusterer.hpp</text>
</a>
</g>
</g>
<!-- Node1&#45;&gt;Node2 -->
<g id="edge1_Node000001_Node000002" class="edge">
<title>Node1&#45;&gt;Node2</title>
<g id="a_edge1_Node000001_Node000002"><a xlink:title=" ">
<path fill="none" stroke="#63b8ff" d="M134.82,-197.15C122.44,-187.75 108.26,-177 97,-168.45"/>
<polygon fill="#63b8ff" stroke="#63b8ff" points="132.36,-200.44 142.45,-203.69 136.6,-194.86 132.36,-200.44"/>
</a>
</g>
</g>
<!-- Node5 -->
<g id="Node000005" class="node">
<title>Node5</title>
<g id="a_Node000005"><a xlink:href="FMToperatingareascheduler_8hpp.html" target="_top" xlink:title=" ">
<polygon fill="white" stroke="#666666" points="329.5,-168 171.75,-168 171.75,-136 329.5,-136 329.5,-168"/>
<text text-anchor="start" x="179.75" y="-154.5" font-family="Helvetica,sans-Serif" font-size="10.00">C:/Temp/out/FMT/Include</text>
<text text-anchor="middle" x="250.62" y="-142.5" font-family="Helvetica,sans-Serif" font-size="10.00">/FMToperatingareascheduler.hpp</text>
</a>
</g>
</g>
<!-- Node1&#45;&gt;Node5 -->
<g id="edge4_Node000001_Node000005" class="edge">
<title>Node1&#45;&gt;Node5</title>
<g id="a_edge4_Node000001_Node000005"><a xlink:title=" ">
<path fill="none" stroke="#63b8ff" d="M192.43,-197.15C204.81,-187.75 218.99,-177 230.25,-168.45"/>
<polygon fill="#63b8ff" stroke="#63b8ff" points="190.65,-194.86 184.8,-203.69 194.89,-200.44 190.65,-194.86"/>
</a>
</g>
</g>
<!-- Node3 -->
<g id="Node000003" class="node">
<title>Node3</title>
<g id="a_Node000003"><a xlink:href="PYexportHeuristics_8hpp.html" target="_top" xlink:title=" ">
<polygon fill="white" stroke="#666666" points="272.38,-32 146.88,-32 146.88,0 272.38,0 272.38,-32"/>
<text text-anchor="start" x="154.88" y="-18.5" font-family="Helvetica,sans-Serif" font-size="10.00">C:/Temp/out/FMT/Include</text>
<text text-anchor="middle" x="209.62" y="-6.5" font-family="Helvetica,sans-Serif" font-size="10.00">/PYexportHeuristics.hpp</text>
</a>
</g>
</g>
<!-- Node2&#45;&gt;Node3 -->
<g id="edge2_Node000002_Node000003" class="edge">
<title>Node2&#45;&gt;Node3</title>
<g id="a_edge2_Node000002_Node000003"><a xlink:title=" ">
<path fill="none" stroke="#63b8ff" d="M56.68,-127.1C44.54,-109.51 33.64,-85.66 46.62,-68 69.45,-36.94 111.13,-24.27 146.62,-19.33"/>
<polygon fill="#63b8ff" stroke="#63b8ff" points="54.26,-128.72 63.02,-134.67 59.89,-124.55 54.26,-128.72"/>
</a>
</g>
</g>
<!-- Node4 -->
<g id="Node000004" class="node">
<title>Node4</title>
<g id="a_Node000004"><a xlink:href="RexportHeuristics_8hpp.html" target="_top" xlink:title=" ">
<polygon fill="white" stroke="#666666" points="181.38,-100 55.88,-100 55.88,-68 181.38,-68 181.38,-100"/>
<text text-anchor="start" x="63.88" y="-86.5" font-family="Helvetica,sans-Serif" font-size="10.00">C:/Temp/out/FMT/Include</text>
<text text-anchor="middle" x="118.62" y="-74.5" font-family="Helvetica,sans-Serif" font-size="10.00">/RexportHeuristics.hpp</text>
</a>
</g>
</g>
<!-- Node2&#45;&gt;Node4 -->
<g id="edge3_Node000002_Node000004" class="edge">
<title>Node2&#45;&gt;Node4</title>
<g id="a_edge3_Node000002_Node000004"><a xlink:title=" ">
<path fill="none" stroke="#63b8ff" d="M92.16,-126.59C97.78,-117.75 103.96,-108.04 108.94,-100.22"/>
<polygon fill="#63b8ff" stroke="#63b8ff" points="88.78,-124.38 86.37,-134.69 94.69,-128.13 88.78,-124.38"/>
</a>
</g>
</g>
<!-- Node5&#45;&gt;Node3 -->
<g id="edge7_Node000005_Node000003" class="edge">
<title>Node5&#45;&gt;Node3</title>
<g id="a_edge7_Node000005_Node000003"><a xlink:title=" ">
<path fill="none" stroke="#63b8ff" d="M238.64,-125.71C235.09,-117.62 231.42,-108.54 228.62,-100 221.04,-76.82 215.34,-49.04 212.25,-32.22"/>
<polygon fill="#63b8ff" stroke="#63b8ff" points="235.82,-126.99 243.14,-134.66 242.2,-124.11 235.82,-126.99"/>
</a>
</g>
</g>
<!-- Node5&#45;&gt;Node4 -->
<g id="edge9_Node000005_Node000004" class="edge">
<title>Node5&#45;&gt;Node4</title>
<g id="a_edge9_Node000005_Node000004"><a xlink:title=" ">
<path fill="none" stroke="#63b8ff" d="M209.84,-130.61C190.34,-120.86 167.38,-109.38 149.38,-100.38"/>
<polygon fill="#63b8ff" stroke="#63b8ff" points="208.17,-134.18 218.68,-135.53 211.3,-127.92 208.17,-134.18"/>
</a>
</g>
</g>
<!-- Node6 -->
<g id="Node000006" class="node">
<title>Node6</title>
<g id="a_Node000006"><a xlink:href="FMTpythonpickle_8hpp.html" target="_top" xlink:title=" ">
<polygon fill="white" stroke="#666666" points="363.38,-100 237.88,-100 237.88,-68 363.38,-68 363.38,-100"/>
<text text-anchor="start" x="245.88" y="-86.5" font-family="Helvetica,sans-Serif" font-size="10.00">C:/Temp/out/FMT/Include</text>
<text text-anchor="middle" x="300.62" y="-74.5" font-family="Helvetica,sans-Serif" font-size="10.00">/FMTpythonpickle.hpp</text>
</a>
</g>
</g>
<!-- Node5&#45;&gt;Node6 -->
<g id="edge5_Node000005_Node000006" class="edge">
<title>Node5&#45;&gt;Node6</title>
<g id="a_edge5_Node000005_Node000006"><a xlink:title=" ">
<path fill="none" stroke="#63b8ff" d="M268.69,-127.15C275.5,-118.17 283.04,-108.21 289.09,-100.22"/>
<polygon fill="#63b8ff" stroke="#63b8ff" points="265.47,-124.61 262.22,-134.69 271.05,-128.83 265.47,-124.61"/>
</a>
</g>
</g>
<!-- Node7 -->
<g id="Node000007" class="node">
<title>Node7</title>
<g id="a_Node000007"><a xlink:href="Rdeclarations_8hpp.html" target="_top" xlink:title=" ">
<polygon fill="white" stroke="#666666" points="507.38,-100 381.88,-100 381.88,-68 507.38,-68 507.38,-100"/>
<text text-anchor="start" x="389.88" y="-86.5" font-family="Helvetica,sans-Serif" font-size="10.00">C:/Temp/out/FMT/Include</text>
<text text-anchor="middle" x="444.62" y="-74.5" font-family="Helvetica,sans-Serif" font-size="10.00">/Rdeclarations.hpp</text>
</a>
</g>
</g>
<!-- Node5&#45;&gt;Node7 -->
<g id="edge8_Node000005_Node000007" class="edge">
<title>Node5&#45;&gt;Node7</title>
<g id="a_edge8_Node000005_Node000007"><a xlink:title=" ">
<path fill="none" stroke="#63b8ff" d="M306.23,-132.08C335.65,-122.07 371.33,-109.94 399.09,-100.49"/>
<polygon fill="#63b8ff" stroke="#63b8ff" points="305.45,-128.99 297.11,-135.53 307.7,-135.62 305.45,-128.99"/>
</a>
</g>
</g>
<!-- Node6&#45;&gt;Node3 -->
<g id="edge6_Node000006_Node000003" class="edge">
<title>Node6&#45;&gt;Node3</title>
<g id="a_edge6_Node000006_Node000003"><a xlink:title=" ">
<path fill="none" stroke="#63b8ff" d="M270.87,-61.42C257.83,-51.96 242.83,-41.08 230.93,-32.45"/>
<polygon fill="#63b8ff" stroke="#63b8ff" points="268.37,-64.65 278.52,-67.69 272.48,-58.99 268.37,-64.65"/>
</a>
</g>
</g>
</g>
</svg>
