<?xml version="1.0" encoding="UTF-8" standalone="no"?>
<!DOCTYPE svg PUBLIC "-//W3C//DTD SVG 1.1//EN"
 "http://www.w3.org/Graphics/SVG/1.1/DTD/svg11.dtd">
<!-- Generated by graphviz version 8.1.0 (20230707.0739)
 -->
<!-- Title: C:/Users/CYRGU3/OneDrive &#45; BuroVirtuel/Bureau/FMT/FMT/Include/FMTlpheuristic.hpp Pages: 1 -->
<!--zoomable 368 -->

<svg id="main" version="1.1" xmlns="http://www.w3.org/2000/svg" xmlns:xlink="http://www.w3.org/1999/xlink" xml:space="preserve" onload="init(evt)">
<style type="text/css"><![CDATA[
.node, .edge {opacity: 0.7;}
.node.selected, .edge.selected {opacity: 1;}
.edge:hover path { stroke: red; }
.edge:hover polygon { stroke: red; fill: red; }
]]></style>

<defs>
  <circle id="rim" cx="0" cy="0" r="7"/>
  <circle id="rim2" cx="0" cy="0" r="3.5"/>
  <g id="zoomPlus">
    <use xlink:href="#rim" fill="#404040"><set attributeName="fill" to="#808080" begin="zoomplus.mouseover" end="zoomplus.mouseout"/></use>
    <path d="M-4,0h8M0,-4v8" fill="none" stroke="white" stroke-width="1.5" pointer-events="none"/>
  </g>
  <g id="zoomMin">
    <use xlink:href="#rim" fill="#404040"><set attributeName="fill" to="#808080" begin="zoomminus.mouseover" end="zoomminus.mouseout"/></use>
    <path d="M-4,0h8" fill="none" stroke="white" stroke-width="1.5" pointer-events="none"/>
  </g>
  <g id="arrowUp" transform="translate(30 24)">
    <use xlink:href="#rim"/>
    <path pointer-events="none" fill="none" stroke="white" stroke-width="1.5" d="M0,-3.0v7 M-2.5,-0.5L0,-3.0L2.5,-0.5"/>
  </g>
  <g id="arrowRight" transform="rotate(90) translate(36 -43)">
    <use xlink:href="#rim"/>
    <path pointer-events="none" fill="none" stroke="white" stroke-width="1.5" d="M0,-3.0v7 M-2.5,-0.5L0,-3.0L2.5,-0.5"/>
  </g>
  <g id="arrowDown" transform="rotate(180) translate(-30 -48)">
    <use xlink:href="#rim"/>
    <path pointer-events="none" fill="none" stroke="white" stroke-width="1.5" d="M0,-3.0v7 M-2.5,-0.5L0,-3.0L2.5,-0.5"/>
  </g>
  <g id="arrowLeft" transform="rotate(270) translate(-36 17)">
    <use xlink:href="#rim"/>
    <path pointer-events="none" fill="none" stroke="white" stroke-width="1.5" d="M0,-3.0v7 M-2.5,-0.5L0,-3.0L2.5,-0.5"/>
  </g>
  <g id="resetDef">
    <use xlink:href="#rim2" fill="#404040"><set attributeName="fill" to="#808080" begin="reset.mouseover" end="reset.mouseout"/></use>
  </g>
</defs>
<script type="application/ecmascript">
var viewWidth = 1537;
var viewHeight = 368;
var sectionId = 'dynsection-0';
</script>
<script type="application/ecmascript" xlink:href="svg.min.js"/>
<svg id="graph" class="graph">
<g id="viewport">
<title>C:/Users/CYRGU3/OneDrive &#45; BuroVirtuel/Bureau/FMT/FMT/Include/FMTlpheuristic.hpp</title>
<!-- Node1 -->
<g id="Node000001" class="node">
<title>Node1</title>
<g id="a_Node000001"><a xlink:title=" ">
<polygon fill="#999999" stroke="#666666" points="1382.88,-360 1225.12,-360 1225.12,-316 1382.88,-316 1382.88,-360"/>
<text text-anchor="start" x="1233.12" y="-346.5" font-family="Helvetica,sans-Serif" font-size="10.00">C:/Users/CYRGU3/OneDrive</text>
<text text-anchor="start" x="1233.12" y="-334.5" font-family="Helvetica,sans-Serif" font-size="10.00"> &#45; BuroVirtuel/Bureau/FMT</text>
<text text-anchor="middle" x="1304" y="-322.5" font-family="Helvetica,sans-Serif" font-size="10.00">/FMT/Include/FMTlpheuristic.hpp</text>
</a>
</g>
</g>
<!-- Node2 -->
<g id="Node000002" class="node">
<title>Node2</title>
<g id="a_Node000002"><a xlink:href="FMTlpsolver_8hpp.html" target="_top" xlink:title=" ">
<polygon fill="white" stroke="#666666" points="792.25,-280 705.75,-280 705.75,-260 792.25,-260 792.25,-280"/>
<text text-anchor="middle" x="749" y="-266.5" font-family="Helvetica,sans-Serif" font-size="10.00">FMTlpsolver.hpp</text>
</a>
</g>
</g>
<!-- Node1&#45;&gt;Node2 -->
<g id="edge1_Node000001_Node000002" class="edge">
<title>Node1&#45;&gt;Node2</title>
<g id="a_edge1_Node000001_Node000002"><a xlink:title=" ">
<path fill="none" stroke="#63b8ff" d="M1224.78,-327.58C1110.43,-313.98 902.07,-289.2 803.48,-277.48"/>
<polygon fill="#63b8ff" stroke="#63b8ff" points="803.93,-273.89 793.58,-276.18 803.1,-280.84 803.93,-273.89"/>
</a>
</g>
</g>
<!-- Node3 -->
<g id="Node000003" class="node">
<title>Node3</title>
<g id="a_Node000003"><a xlink:href="FMTsolverinterface_8hpp.html" target="_top" xlink:title=" ">
<polygon fill="white" stroke="#666666" points="324.88,-218 209.12,-218 209.12,-198 324.88,-198 324.88,-218"/>
<text text-anchor="middle" x="267" y="-204.5" font-family="Helvetica,sans-Serif" font-size="10.00">FMTsolverinterface.hpp</text>
</a>
</g>
</g>
<!-- Node1&#45;&gt;Node3 -->
<g id="edge56_Node000001_Node000003" class="edge">
<title>Node1&#45;&gt;Node3</title>
<g id="a_edge56_Node000001_Node000003"><a xlink:title=" ">
<path fill="none" stroke="#63b8ff" d="M1224.77,-331.97C1058,-320.46 658.95,-288.14 330,-224 325.09,-223.04 319.97,-221.96 314.88,-220.83"/>
<polygon fill="#63b8ff" stroke="#63b8ff" points="316.06,-217.29 305.53,-218.47 314.5,-224.11 316.06,-217.29"/>
</a>
</g>
</g>
<!-- Node5 -->
<g id="Node000005" class="node">
<title>Node5</title>
<g id="a_Node000005"><a xlink:title=" ">
<polygon fill="#e0e0e0" stroke="#999999" points="295.75,-82 254.25,-82 254.25,-62 295.75,-62 295.75,-82"/>
<text text-anchor="middle" x="275" y="-68.5" font-family="Helvetica,sans-Serif" font-size="10.00">vector</text>
</a>
</g>
</g>
<!-- Node1&#45;&gt;Node5 -->
<g id="edge51_Node000001_Node000005" class="edge">
<title>Node1&#45;&gt;Node5</title>
<g id="a_edge51_Node000001_Node000005"><a xlink:title=" ">
<path fill="none" stroke="#63b8ff" d="M1224.94,-335.08C983.18,-328.4 266.18,-302.08 200,-224 164.04,-181.57 222.78,-118.93 255.46,-89.47"/>
<polygon fill="#63b8ff" stroke="#63b8ff" points="257.3,-91.63 262.5,-82.4 252.68,-86.37 257.3,-91.63"/>
</a>
</g>
</g>
<!-- Node7 -->
<g id="Node000007" class="node">
<title>Node7</title>
<g id="a_Node000007"><a xlink:title=" ">
<polygon fill="#e0e0e0" stroke="#999999" points="346.62,-20 295.38,-20 295.38,0 346.62,0 346.62,-20"/>
<text text-anchor="middle" x="321" y="-6.5" font-family="Helvetica,sans-Serif" font-size="10.00">memory</text>
</a>
</g>
</g>
<!-- Node1&#45;&gt;Node7 -->
<g id="edge49_Node000001_Node000007" class="edge">
<title>Node1&#45;&gt;Node7</title>
<g id="a_edge49_Node000001_Node000007"><a xlink:title=" ">
<path fill="none" stroke="#63b8ff" d="M1224.88,-337.58C942.36,-338.61 0,-332.76 0,-209 0,-209 0,-209 0,-139 0,-96.61 12.23,-80.26 47,-56 84.75,-29.66 218.63,-17.58 284.23,-13.14"/>
<polygon fill="#63b8ff" stroke="#63b8ff" points="284.15,-16.59 293.9,-12.44 283.69,-9.6 284.15,-16.59"/>
</a>
</g>
</g>
<!-- Node11 -->
<g id="Node000011" class="node">
<title>Node11</title>
<g id="a_Node000011"><a xlink:title=" ">
<polygon fill="#e0e0e0" stroke="#999999" points="1315.38,-88 1220.62,-88 1220.62,-56 1315.38,-56 1315.38,-88"/>
<text text-anchor="start" x="1228.62" y="-74.5" font-family="Helvetica,sans-Serif" font-size="10.00">boost/serialization</text>
<text text-anchor="middle" x="1268" y="-62.5" font-family="Helvetica,sans-Serif" font-size="10.00">/nvp.hpp</text>
</a>
</g>
</g>
<!-- Node1&#45;&gt;Node11 -->
<g id="edge54_Node000001_Node000011" class="edge">
<title>Node1&#45;&gt;Node11</title>
<g id="a_edge54_Node000001_Node000011"><a xlink:title=" ">
<path fill="none" stroke="#63b8ff" d="M1320.56,-315.53C1327.39,-305.35 1334.51,-292.66 1338,-280 1356.42,-213.16 1369.44,-185.8 1338,-124 1331.81,-111.84 1321.22,-101.89 1310.12,-94.12"/>
<polygon fill="#63b8ff" stroke="#63b8ff" points="1312.48,-90.83 1302.18,-88.35 1308.68,-96.71 1312.48,-90.83"/>
</a>
</g>
</g>
<!-- Node12 -->
<g id="Node000012" class="node">
<title>Node12</title>
<g id="a_Node000012"><a xlink:title=" ">
<polygon fill="#e0e0e0" stroke="#999999" points="1202.38,-88 1107.62,-88 1107.62,-56 1202.38,-56 1202.38,-88"/>
<text text-anchor="start" x="1115.62" y="-74.5" font-family="Helvetica,sans-Serif" font-size="10.00">boost/serialization</text>
<text text-anchor="middle" x="1155" y="-62.5" font-family="Helvetica,sans-Serif" font-size="10.00">/export.hpp</text>
</a>
</g>
</g>
<!-- Node1&#45;&gt;Node12 -->
<g id="edge55_Node000001_Node000012" class="edge">
<title>Node1&#45;&gt;Node12</title>
<g id="a_edge55_Node000001_Node000012"><a xlink:title=" ">
<path fill="none" stroke="#63b8ff" d="M1311.6,-315.51C1324.77,-274.1 1346.67,-182.17 1305,-124 1299.25,-115.97 1252.71,-100.89 1212.98,-89.2"/>
<polygon fill="#63b8ff" stroke="#63b8ff" points="1214.11,-85.59 1203.53,-86.16 1212.15,-92.32 1214.11,-85.59"/>
</a>
</g>
</g>
<!-- Node16 -->
<g id="Node000016" class="node">
<title>Node16</title>
<g id="a_Node000016"><a xlink:title=" ">
<polygon fill="#e0e0e0" stroke="#999999" points="1400.62,-82 1355.38,-82 1355.38,-62 1400.62,-62 1400.62,-82"/>
<text text-anchor="middle" x="1378" y="-68.5" font-family="Helvetica,sans-Serif" font-size="10.00">chrono</text>
</a>
</g>
</g>
<!-- Node1&#45;&gt;Node16 -->
<g id="edge52_Node000001_Node000016" class="edge">
<title>Node1&#45;&gt;Node16</title>
<g id="a_edge52_Node000001_Node000016"><a xlink:title=" ">
<path fill="none" stroke="#63b8ff" d="M1327.07,-315.53C1336.61,-305.54 1347.05,-293 1354,-280 1386.93,-218.39 1383.84,-131.95 1380.33,-93.19"/>
<polygon fill="#63b8ff" stroke="#63b8ff" points="1383.72,-92.96 1379.22,-83.37 1376.76,-93.68 1383.72,-92.96"/>
</a>
</g>
</g>
<!-- Node23 -->
<g id="Node000023" class="node">
<title>Node23</title>
<g id="a_Node000023"><a xlink:title=" ">
<polygon fill="#e0e0e0" stroke="#999999" points="1296.38,-156 1201.62,-156 1201.62,-124 1296.38,-124 1296.38,-156"/>
<text text-anchor="start" x="1209.62" y="-142.5" font-family="Helvetica,sans-Serif" font-size="10.00">boost/serialization</text>
<text text-anchor="middle" x="1249" y="-130.5" font-family="Helvetica,sans-Serif" font-size="10.00">/serialization.hpp</text>
</a>
</g>
</g>
<!-- Node1&#45;&gt;Node23 -->
<g id="edge53_Node000001_Node000023" class="edge">
<title>Node1&#45;&gt;Node23</title>
<g id="a_edge53_Node000001_Node000023"><a xlink:title=" ">
<path fill="none" stroke="#63b8ff" d="M1298.01,-315.65C1287.85,-279.44 1267.27,-206.11 1256.29,-166.98"/>
<polygon fill="#63b8ff" stroke="#63b8ff" points="1259.41,-166.14 1253.34,-157.46 1252.67,-168.03 1259.41,-166.14"/>
</a>
</g>
</g>
<!-- Node31 -->
<g id="Node000031" class="node">
<title>Node31</title>
<g id="a_Node000031"><a xlink:title=" ">
<polygon fill="#e0e0e0" stroke="#999999" points="1476.12,-280 1427.88,-280 1427.88,-260 1476.12,-260 1476.12,-280"/>
<text text-anchor="middle" x="1452" y="-266.5" font-family="Helvetica,sans-Serif" font-size="10.00">random</text>
</a>
</g>
</g>
<!-- Node1&#45;&gt;Node31 -->
<g id="edge48_Node000001_Node000031" class="edge">
<title>Node1&#45;&gt;Node31</title>
<g id="a_edge48_Node000001_Node000031"><a xlink:title=" ">
<path fill="none" stroke="#63b8ff" d="M1352.05,-315.57C1374.76,-305.44 1401.21,-293.65 1421.19,-284.74"/>
<polygon fill="#63b8ff" stroke="#63b8ff" points="1422.29,-287.63 1430,-280.37 1419.44,-281.24 1422.29,-287.63"/>
</a>
</g>
</g>
<!-- Node32 -->
<g id="Node000032" class="node">
<title>Node32</title>
<g id="a_Node000032"><a xlink:title=" ">
<polygon fill="#e0e0e0" stroke="#999999" points="1529.38,-280 1494.62,-280 1494.62,-260 1529.38,-260 1529.38,-280"/>
<text text-anchor="middle" x="1512" y="-266.5" font-family="Helvetica,sans-Serif" font-size="10.00">map</text>
</a>
</g>
</g>
<!-- Node1&#45;&gt;Node32 -->
<g id="edge50_Node000001_Node000032" class="edge">
<title>Node1&#45;&gt;Node32</title>
<g id="a_edge50_Node000001_Node000032"><a xlink:title=" ">
<path fill="none" stroke="#63b8ff" d="M1372.84,-315.62C1404.16,-305.82 1441.92,-293.91 1484.07,-280.26"/>
<polygon fill="#63b8ff" stroke="#63b8ff" points="1484.86,-283.36 1493.3,-276.95 1482.7,-276.7 1484.86,-283.36"/>
</a>
</g>
</g>
<!-- Node2&#45;&gt;Node3 -->
<g id="edge2_Node000002_Node000003" class="edge">
<title>Node2&#45;&gt;Node3</title>
<g id="a_edge2_Node000002_Node000003"><a xlink:title=" ">
<path fill="none" stroke="#63b8ff" d="M705.43,-265.6C630.33,-259.44 471.78,-245.07 339,-224 332.78,-223.01 326.28,-221.85 319.85,-220.61"/>
<polygon fill="#63b8ff" stroke="#63b8ff" points="320.63,-217 310.13,-218.49 319.26,-223.87 320.63,-217"/>
</a>
</g>
</g>
<!-- Node4 -->
<g id="Node000004" class="node">
<title>Node4</title>
<g id="a_Node000004"><a xlink:href="FMTmatrixbuild_8hpp.html" target="_top" xlink:title=" ">
<polygon fill="white" stroke="#666666" points="760.75,-218 659.25,-218 659.25,-198 760.75,-198 760.75,-218"/>
<text text-anchor="middle" x="710" y="-204.5" font-family="Helvetica,sans-Serif" font-size="10.00">FMTmatrixbuild.hpp</text>
</a>
</g>
</g>
<!-- Node2&#45;&gt;Node4 -->
<g id="edge3_Node000002_Node000004" class="edge">
<title>Node2&#45;&gt;Node4</title>
<g id="a_edge3_Node000002_Node000004"><a xlink:title=" ">
<path fill="none" stroke="#63b8ff" d="M742.91,-259.62C737.26,-250.94 728.72,-237.8 721.75,-227.08"/>
<polygon fill="#63b8ff" stroke="#63b8ff" points="724.31,-225.59 715.92,-219.11 718.44,-229.4 724.31,-225.59"/>
</a>
</g>
</g>
<!-- Node2&#45;&gt;Node7 -->
<g id="edge37_Node000002_Node000007" class="edge">
<title>Node2&#45;&gt;Node7</title>
<g id="a_edge37_Node000002_Node000007"><a xlink:title=" ">
<path fill="none" stroke="#63b8ff" d="M723.2,-259.53C702.63,-251.46 673.47,-238.82 650,-224 631.33,-212.21 632.3,-200.69 612,-192 477.19,-134.27 406.69,-236.33 284,-156 244.09,-129.87 221.38,-97.44 245,-56 253.72,-40.7 269.91,-30.07 285.12,-23"/>
<polygon fill="#63b8ff" stroke="#63b8ff" points="286.04,-25.99 293.88,-18.86 283.3,-19.55 286.04,-25.99"/>
</a>
</g>
</g>
<!-- Node9 -->
<g id="Node000009" class="node">
<title>Node9</title>
<g id="a_Node000009"><a xlink:href="FMTobject_8hpp.html" target="_top" xlink:title=" ">
<polygon fill="white" stroke="#666666" points="679.25,-150 598.75,-150 598.75,-130 679.25,-130 679.25,-150"/>
<text text-anchor="middle" x="639" y="-136.5" font-family="Helvetica,sans-Serif" font-size="10.00">FMTobject.hpp</text>
</a>
</g>
</g>
<!-- Node2&#45;&gt;Node9 -->
<g id="edge36_Node000002_Node000009" class="edge">
<title>Node2&#45;&gt;Node9</title>
<g id="a_edge36_Node000002_Node000009"><a xlink:title=" ">
<path fill="none" stroke="#63b8ff" d="M756.11,-259.65C766.87,-244.28 784.55,-213.27 770,-192 752.17,-165.92 718.87,-153.17 690.31,-146.95"/>
<polygon fill="#63b8ff" stroke="#63b8ff" points="691.12,-143.34 680.63,-144.86 689.78,-150.21 691.12,-143.34"/>
</a>
</g>
</g>
<!-- Node2&#45;&gt;Node12 -->
<g id="edge40_Node000002_Node000012" class="edge">
<title>Node2&#45;&gt;Node12</title>
<g id="a_edge40_Node000002_Node000012"><a xlink:title=" ">
<path fill="none" stroke="#63b8ff" d="M792.73,-267.48C874.99,-263.98 1049.15,-253.24 1101,-224 1134.62,-205.05 1142.29,-192.44 1155,-156 1161.36,-137.76 1161.06,-115.86 1159.33,-99.14"/>
<polygon fill="#63b8ff" stroke="#63b8ff" points="1162.71,-98.97 1157.97,-89.5 1155.77,-99.86 1162.71,-98.97"/>
</a>
</g>
</g>
<!-- Node18 -->
<g id="Node000018" class="node">
<title>Node18</title>
<g id="a_Node000018"><a xlink:href="FMTexceptionhandler_8hpp.html" target="_top" xlink:title=" ">
<polygon fill="white" stroke="#666666" points="954.88,-218 827.12,-218 827.12,-198 954.88,-198 954.88,-218"/>
<text text-anchor="middle" x="891" y="-204.5" font-family="Helvetica,sans-Serif" font-size="10.00">FMTexceptionhandler.hpp</text>
</a>
</g>
</g>
<!-- Node2&#45;&gt;Node18 -->
<g id="edge22_Node000002_Node000018" class="edge">
<title>Node2&#45;&gt;Node18</title>
<g id="a_edge22_Node000002_Node000018"><a xlink:title=" ">
<path fill="none" stroke="#63b8ff" d="M771.19,-259.62C794.74,-249.67 832.18,-233.85 858.93,-222.55"/>
<polygon fill="#63b8ff" stroke="#63b8ff" points="860.12,-225.43 867.97,-218.31 857.39,-218.98 860.12,-225.43"/>
</a>
</g>
</g>
<!-- Node22 -->
<g id="Node000022" class="node">
<title>Node22</title>
<g id="a_Node000022"><a xlink:title=" ">
<polygon fill="#e0e0e0" stroke="#999999" points="1146.38,-150 1063.62,-150 1063.62,-130 1146.38,-130 1146.38,-150"/>
<text text-anchor="middle" x="1105" y="-136.5" font-family="Helvetica,sans-Serif" font-size="10.00">unordered_map</text>
</a>
</g>
</g>
<!-- Node2&#45;&gt;Node22 -->
<g id="edge38_Node000002_Node000022" class="edge">
<title>Node2&#45;&gt;Node22</title>
<g id="a_edge38_Node000002_Node000022"><a xlink:title=" ">
<path fill="none" stroke="#63b8ff" d="M792.44,-268.62C871.7,-267.06 1035.53,-259.49 1078,-224 1096.4,-208.62 1102.37,-180.54 1104.24,-161.34"/>
<polygon fill="#63b8ff" stroke="#63b8ff" points="1107.8,-161.68 1104.97,-151.47 1100.81,-161.22 1107.8,-161.68"/>
</a>
</g>
</g>
<!-- Node26 -->
<g id="Node000026" class="node">
<title>Node26</title>
<g id="a_Node000026"><a xlink:title=" ">
<polygon fill="#e0e0e0" stroke="#999999" points="1069.12,-224 972.88,-224 972.88,-192 1069.12,-192 1069.12,-224"/>
<text text-anchor="start" x="980.88" y="-210.5" font-family="Helvetica,sans-Serif" font-size="10.00">boost/serialization</text>
<text text-anchor="middle" x="1021" y="-198.5" font-family="Helvetica,sans-Serif" font-size="10.00">/split_member.hpp</text>
</a>
</g>
</g>
<!-- Node2&#45;&gt;Node26 -->
<g id="edge39_Node000002_Node000026" class="edge">
<title>Node2&#45;&gt;Node26</title>
<g id="a_edge39_Node000002_Node000026"><a xlink:title=" ">
<path fill="none" stroke="#63b8ff" d="M792.38,-260.6C833.7,-252.44 897.87,-239.39 962.21,-224.36"/>
<polygon fill="#63b8ff" stroke="#63b8ff" points="962.6,-227.63 971.53,-221.93 961,-220.82 962.6,-227.63"/>
</a>
</g>
</g>
<!-- Node27 -->
<g id="Node000027" class="node">
<title>Node27</title>
<g id="a_Node000027"><a xlink:title=" ">
<polygon fill="#e0e0e0" stroke="#999999" points="483.12,-224 380.88,-224 380.88,-192 483.12,-192 483.12,-224"/>
<text text-anchor="start" x="388.88" y="-210.5" font-family="Helvetica,sans-Serif" font-size="10.00">boost/archive/binary</text>
<text text-anchor="middle" x="432" y="-198.5" font-family="Helvetica,sans-Serif" font-size="10.00">_oarchive.hpp</text>
</a>
</g>
</g>
<!-- Node2&#45;&gt;Node27 -->
<g id="edge41_Node000002_Node000027" class="edge">
<title>Node2&#45;&gt;Node27</title>
<g id="a_edge41_Node000002_Node000027"><a xlink:title=" ">
<path fill="none" stroke="#63b8ff" d="M705.62,-262.38C656.58,-254.67 574.13,-241.08 494.09,-224.36"/>
<polygon fill="#63b8ff" stroke="#63b8ff" points="494.84,-220.73 484.33,-222.09 493.39,-227.58 494.84,-220.73"/>
</a>
</g>
</g>
<!-- Node28 -->
<g id="Node000028" class="node">
<title>Node28</title>
<g id="a_Node000028"><a xlink:title=" ">
<polygon fill="#e0e0e0" stroke="#999999" points="603.12,-224 500.88,-224 500.88,-192 603.12,-192 603.12,-224"/>
<text text-anchor="start" x="508.88" y="-210.5" font-family="Helvetica,sans-Serif" font-size="10.00">boost/archive/binary</text>
<text text-anchor="middle" x="552" y="-198.5" font-family="Helvetica,sans-Serif" font-size="10.00">_iarchive.hpp</text>
</a>
</g>
</g>
<!-- Node2&#45;&gt;Node28 -->
<g id="edge42_Node000002_Node000028" class="edge">
<title>Node2&#45;&gt;Node28</title>
<g id="a_edge42_Node000002_Node000028"><a xlink:title=" ">
<path fill="none" stroke="#63b8ff" d="M718.22,-259.62C690.15,-251.08 647.86,-238.19 612.96,-227.57"/>
<polygon fill="#63b8ff" stroke="#63b8ff" points="614.45,-224.06 603.86,-224.49 612.41,-230.75 614.45,-224.06"/>
</a>
</g>
</g>
<!-- Node29 -->
<g id="Node000029" class="node">
<title>Node29</title>
<g id="a_Node000029"><a xlink:href="FMTserializablematrix_8hpp.html" target="_top" xlink:title=" ">
<polygon fill="white" stroke="#666666" points="168,-150 38,-150 38,-130 168,-130 168,-150"/>
<text text-anchor="middle" x="103" y="-136.5" font-family="Helvetica,sans-Serif" font-size="10.00">FMTserializablematrix.hpp</text>
</a>
</g>
</g>
<!-- Node2&#45;&gt;Node29 -->
<g id="edge43_Node000002_Node000029" class="edge">
<title>Node2&#45;&gt;Node29</title>
<g id="a_edge43_Node000002_Node000029"><a xlink:title=" ">
<path fill="none" stroke="#63b8ff" d="M705.36,-266.93C619.32,-262.33 431.03,-249.61 372,-224 351.74,-215.21 353.8,-201.77 334,-192 318.68,-184.44 225.71,-165.16 162.48,-152.6"/>
<polygon fill="#63b8ff" stroke="#63b8ff" points="163.32,-149 152.83,-150.48 161.96,-155.86 163.32,-149"/>
</a>
</g>
</g>
<!-- Node4&#45;&gt;Node5 -->
<g id="edge4_Node000004_Node000005" class="edge">
<title>Node4&#45;&gt;Node5</title>
<g id="a_edge4_Node000004_Node000005"><a xlink:title=" ">
<path fill="none" stroke="#63b8ff" d="M672.35,-197.51C663.42,-195.48 653.91,-193.5 645,-192 571.17,-179.56 370.08,-200.68 310,-156 289.94,-141.09 281.29,-112.44 277.62,-93.03"/>
<polygon fill="#63b8ff" stroke="#63b8ff" points="280.94,-92.66 275.92,-83.33 274.03,-93.76 280.94,-92.66"/>
</a>
</g>
</g>
<!-- Node6 -->
<g id="Node000006" class="node">
<title>Node6</title>
<g id="a_Node000006"><a xlink:title=" ">
<polygon fill="#e0e0e0" stroke="#999999" points="866,-20 826,-20 826,0 866,0 866,-20"/>
<text text-anchor="middle" x="846" y="-6.5" font-family="Helvetica,sans-Serif" font-size="10.00">string</text>
</a>
</g>
</g>
<!-- Node4&#45;&gt;Node6 -->
<g id="edge5_Node000004_Node000006" class="edge">
<title>Node4&#45;&gt;Node6</title>
<g id="a_edge5_Node000004_Node000006"><a xlink:title=" ">
<path fill="none" stroke="#63b8ff" d="M709.02,-197.51C707.82,-180.63 707.84,-145.16 726,-124 757.04,-87.84 795.04,-123.35 827,-88 841.04,-72.47 845.1,-48.24 846.09,-31.11"/>
<polygon fill="#63b8ff" stroke="#63b8ff" points="849.61,-31.43 846.37,-21.35 842.61,-31.26 849.61,-31.43"/>
</a>
</g>
</g>
<!-- Node4&#45;&gt;Node7 -->
<g id="edge6_Node000004_Node000007" class="edge">
<title>Node4&#45;&gt;Node7</title>
<g id="a_edge6_Node000004_Node000007"><a xlink:title=" ">
<path fill="none" stroke="#63b8ff" d="M669.01,-197.58C618.56,-185.84 535.92,-166.1 506,-156 433.57,-131.54 400.16,-143.89 348,-88 333.24,-72.18 326.48,-47.82 323.43,-30.75"/>
<polygon fill="#63b8ff" stroke="#63b8ff" points="326.8,-30.66 321.86,-21.29 319.88,-31.7 326.8,-30.66"/>
</a>
</g>
</g>
<!-- Node8 -->
<g id="Node000008" class="node">
<title>Node8</title>
<g id="a_Node000008"><a xlink:href="FMTutility_8hpp.html" target="_top" xlink:title=" ">
<polygon fill="white" stroke="#666666" points="441.75,-20 364.25,-20 364.25,0 441.75,0 441.75,-20"/>
<text text-anchor="middle" x="403" y="-6.5" font-family="Helvetica,sans-Serif" font-size="10.00">FMTutility.hpp</text>
</a>
</g>
</g>
<!-- Node4&#45;&gt;Node8 -->
<g id="edge7_Node000004_Node000008" class="edge">
<title>Node4&#45;&gt;Node8</title>
<g id="a_edge7_Node000004_Node000008"><a xlink:title=" ">
<path fill="none" stroke="#63b8ff" d="M675.94,-197.58C623.96,-181.86 523.84,-146.14 457,-88 437.92,-71.41 422.17,-46.71 412.69,-29.79"/>
<polygon fill="#63b8ff" stroke="#63b8ff" points="415.46,-28.54 407.63,-21.4 409.3,-31.86 415.46,-28.54"/>
</a>
</g>
</g>
<!-- Node4&#45;&gt;Node9 -->
<g id="edge8_Node000004_Node000009" class="edge">
<title>Node4&#45;&gt;Node9</title>
<g id="a_edge8_Node000004_Node000009"><a xlink:title=" ">
<path fill="none" stroke="#63b8ff" d="M699.83,-197.54C688.65,-187.15 670.48,-170.27 656.91,-157.65"/>
<polygon fill="#63b8ff" stroke="#63b8ff" points="659.86,-155.68 650.15,-151.44 655.1,-160.81 659.86,-155.68"/>
</a>
</g>
</g>
<!-- Node9&#45;&gt;Node5 -->
<g id="edge20_Node000009_Node000005" class="edge">
<title>Node9&#45;&gt;Node5</title>
<g id="a_edge20_Node000009_Node000005"><a xlink:title=" ">
<path fill="none" stroke="#63b8ff" d="M598.3,-131.62C525,-118.33 372.28,-90.64 306.38,-78.69"/>
<polygon fill="#63b8ff" stroke="#63b8ff" points="307.31,-75.12 296.85,-76.78 306.06,-82.01 307.31,-75.12"/>
</a>
</g>
</g>
<!-- Node9&#45;&gt;Node7 -->
<g id="edge18_Node000009_Node000007" class="edge">
<title>Node9&#45;&gt;Node7</title>
<g id="a_edge18_Node000009_Node000007"><a xlink:title=" ">
<path fill="none" stroke="#63b8ff" d="M598.3,-130.57C560.78,-122.11 503.96,-107.53 457,-88 415.24,-70.63 370.2,-43.23 343.85,-26.23"/>
<polygon fill="#63b8ff" stroke="#63b8ff" points="346.01,-22.8 335.72,-20.27 342.18,-28.66 346.01,-22.8"/>
</a>
</g>
</g>
<!-- Node10 -->
<g id="Node000010" class="node">
<title>Node10</title>
<g id="a_Node000010"><a xlink:title=" ">
<polygon fill="#e0e0e0" stroke="#999999" points="703.38,-88 608.62,-88 608.62,-56 703.38,-56 703.38,-88"/>
<text text-anchor="start" x="616.62" y="-74.5" font-family="Helvetica,sans-Serif" font-size="10.00">boost/serialization</text>
<text text-anchor="middle" x="656" y="-62.5" font-family="Helvetica,sans-Serif" font-size="10.00">/shared_ptr.hpp</text>
</a>
</g>
</g>
<!-- Node9&#45;&gt;Node10 -->
<g id="edge9_Node000009_Node000010" class="edge">
<title>Node9&#45;&gt;Node10</title>
<g id="a_edge9_Node000009_Node000010"><a xlink:title=" ">
<path fill="none" stroke="#63b8ff" d="M641.44,-129.54C643.49,-121.55 646.54,-109.72 649.32,-98.95"/>
<polygon fill="#63b8ff" stroke="#63b8ff" points="652.95,-99.86 652.06,-89.3 646.18,-98.11 652.95,-99.86"/>
</a>
</g>
</g>
<!-- Node9&#45;&gt;Node11 -->
<g id="edge10_Node000009_Node000011" class="edge">
<title>Node9&#45;&gt;Node11</title>
<g id="a_edge10_Node000009_Node000011"><a xlink:title=" ">
<path fill="none" stroke="#63b8ff" d="M679.6,-131.16C694.18,-128.57 710.79,-125.87 726,-124 937.07,-98.03 995.93,-122.83 1209.62,-88.01"/>
<polygon fill="#63b8ff" stroke="#63b8ff" points="1209.95,-91.33 1219.24,-86.25 1208.81,-84.43 1209.95,-91.33"/>
</a>
</g>
</g>
<!-- Node9&#45;&gt;Node12 -->
<g id="edge11_Node000009_Node000012" class="edge">
<title>Node9&#45;&gt;Node12</title>
<g id="a_edge11_Node000009_Node000012"><a xlink:title=" ">
<path fill="none" stroke="#63b8ff" d="M679.64,-131.44C694.22,-128.87 710.82,-126.12 726,-124 874.3,-103.27 912.57,-107.81 1061,-88 1072.54,-86.46 1084.84,-84.63 1096.62,-82.79"/>
<polygon fill="#63b8ff" stroke="#63b8ff" points="1096.92,-86.13 1106.25,-81.1 1095.82,-79.22 1096.92,-86.13"/>
</a>
</g>
</g>
<!-- Node13 -->
<g id="Node000013" class="node">
<title>Node13</title>
<g id="a_Node000013"><a xlink:href="FMTexception_8hpp.html" target="_top" xlink:title=" ">
<polygon fill="white" stroke="#666666" points="818.12,-82 721.88,-82 721.88,-62 818.12,-62 818.12,-82"/>
<text text-anchor="middle" x="770" y="-68.5" font-family="Helvetica,sans-Serif" font-size="10.00">FMTexception.hpp</text>
</a>
</g>
</g>
<!-- Node9&#45;&gt;Node13 -->
<g id="edge12_Node000009_Node000013" class="edge">
<title>Node9&#45;&gt;Node13</title>
<g id="a_edge12_Node000009_Node000013"><a xlink:title=" ">
<path fill="none" stroke="#63b8ff" d="M657.77,-129.54C679.66,-118.52 716.07,-100.17 741.46,-87.38"/>
<polygon fill="#63b8ff" stroke="#63b8ff" points="742.91,-90.06 750.27,-82.44 739.76,-83.81 742.91,-90.06"/>
</a>
</g>
</g>
<!-- Node9&#45;&gt;Node16 -->
<g id="edge19_Node000009_Node000016" class="edge">
<title>Node9&#45;&gt;Node16</title>
<g id="a_edge19_Node000009_Node000016"><a xlink:title=" ">
<path fill="none" stroke="#63b8ff" d="M679.58,-131.04C694.17,-128.44 710.77,-125.77 726,-124 990.49,-93.33 1061.38,-131.87 1324,-88 1330.8,-86.86 1337.98,-85.21 1344.8,-83.4"/>
<polygon fill="#63b8ff" stroke="#63b8ff" points="1345.43,-86.58 1354.12,-80.51 1343.54,-79.84 1345.43,-86.58"/>
</a>
</g>
</g>
<!-- Node17 -->
<g id="Node000017" class="node">
<title>Node17</title>
<g id="a_Node000017"><a xlink:title=" ">
<polygon fill="#e0e0e0" stroke="#999999" points="590.38,-88 465.62,-88 465.62,-56 590.38,-56 590.38,-88"/>
<text text-anchor="start" x="473.62" y="-74.5" font-family="Helvetica,sans-Serif" font-size="10.00">boost/dll/runtime_symbol</text>
<text text-anchor="middle" x="528" y="-62.5" font-family="Helvetica,sans-Serif" font-size="10.00">_info.hpp</text>
</a>
</g>
</g>
<!-- Node9&#45;&gt;Node17 -->
<g id="edge21_Node000009_Node000017" class="edge">
<title>Node9&#45;&gt;Node17</title>
<g id="a_edge21_Node000009_Node000017"><a xlink:title=" ">
<path fill="none" stroke="#63b8ff" d="M623.1,-129.54C607.47,-120.25 583.1,-105.76 562.94,-93.78"/>
<polygon fill="#63b8ff" stroke="#63b8ff" points="565.12,-90.4 554.73,-88.3 561.54,-96.42 565.12,-90.4"/>
</a>
</g>
</g>
<!-- Node13&#45;&gt;Node6 -->
<g id="edge14_Node000013_Node000006" class="edge">
<title>Node13&#45;&gt;Node6</title>
<g id="a_edge14_Node000013_Node000006"><a xlink:title=" ">
<path fill="none" stroke="#63b8ff" d="M781.88,-61.62C793.66,-52.32 811.93,-37.9 825.96,-26.82"/>
<polygon fill="#63b8ff" stroke="#63b8ff" points="827.78,-29.06 833.46,-20.11 823.44,-23.56 827.78,-29.06"/>
</a>
</g>
</g>
<!-- Node13&#45;&gt;Node7 -->
<g id="edge16_Node000013_Node000007" class="edge">
<title>Node13&#45;&gt;Node7</title>
<g id="a_edge16_Node000013_Node000007"><a xlink:title=" ">
<path fill="none" stroke="#63b8ff" d="M737.07,-61.55C728.93,-59.48 720.19,-57.46 712,-56 558.39,-28.56 513.81,-47.63 357.36,-20.18"/>
<polygon fill="#63b8ff" stroke="#63b8ff" points="358.35,-16.63 347.89,-18.31 357.12,-23.52 358.35,-16.63"/>
</a>
</g>
</g>
<!-- Node13&#45;&gt;Node8 -->
<g id="edge17_Node000013_Node000008" class="edge">
<title>Node13&#45;&gt;Node8</title>
<g id="a_edge17_Node000013_Node000008"><a xlink:title=" ">
<path fill="none" stroke="#63b8ff" d="M736.1,-61.58C728.23,-59.57 719.85,-57.58 712,-56 621.2,-37.7 513.95,-23.78 452.66,-16.55"/>
<polygon fill="#63b8ff" stroke="#63b8ff" points="453.11,-12.96 442.77,-15.28 452.3,-19.91 453.11,-12.96"/>
</a>
</g>
</g>
<!-- Node14 -->
<g id="Node000014" class="node">
<title>Node14</title>
<g id="a_Node000014"><a xlink:title=" ">
<polygon fill="#e0e0e0" stroke="#999999" points="803,-20 745,-20 745,0 803,0 803,-20"/>
<text text-anchor="middle" x="774" y="-6.5" font-family="Helvetica,sans-Serif" font-size="10.00">exception</text>
</a>
</g>
</g>
<!-- Node13&#45;&gt;Node14 -->
<g id="edge13_Node000013_Node000014" class="edge">
<title>Node13&#45;&gt;Node14</title>
<g id="a_edge13_Node000013_Node000014"><a xlink:title=" ">
<path fill="none" stroke="#63b8ff" d="M770.62,-61.62C771.17,-53.48 771.97,-41.39 772.66,-31.07"/>
<polygon fill="#63b8ff" stroke="#63b8ff" points="776.22,-31.32 773.39,-21.11 769.23,-30.86 776.22,-31.32"/>
</a>
</g>
</g>
<!-- Node15 -->
<g id="Node000015" class="node">
<title>Node15</title>
<g id="a_Node000015"><a xlink:title=" ">
<polygon fill="#e0e0e0" stroke="#999999" points="726.75,-20 673.25,-20 673.25,0 726.75,0 726.75,-20"/>
<text text-anchor="middle" x="700" y="-6.5" font-family="Helvetica,sans-Serif" font-size="10.00">iostream</text>
</a>
</g>
</g>
<!-- Node13&#45;&gt;Node15 -->
<g id="edge15_Node000013_Node000015" class="edge">
<title>Node13&#45;&gt;Node15</title>
<g id="a_edge15_Node000013_Node000015"><a xlink:title=" ">
<path fill="none" stroke="#63b8ff" d="M759.06,-61.62C748.32,-52.41 731.7,-38.17 718.83,-27.14"/>
<polygon fill="#63b8ff" stroke="#63b8ff" points="721.5,-23.96 711.63,-20.11 716.95,-29.28 721.5,-23.96"/>
</a>
</g>
</g>
<!-- Node18&#45;&gt;Node7 -->
<g id="edge33_Node000018_Node000007" class="edge">
<title>Node18&#45;&gt;Node7</title>
<g id="a_edge33_Node000018_Node000007"><a xlink:title=" ">
<path fill="none" stroke="#63b8ff" d="M826.66,-199.19C765.28,-191.02 670.51,-176.5 590,-156 499.83,-133.04 469.91,-138.86 392,-88 367.85,-72.23 346.37,-46.44 333.52,-29.1"/>
<polygon fill="#63b8ff" stroke="#63b8ff" points="335.99,-27.54 327.31,-21.46 330.3,-31.62 335.99,-27.54"/>
</a>
</g>
</g>
<!-- Node18&#45;&gt;Node11 -->
<g id="edge31_Node000018_Node000011" class="edge">
<title>Node18&#45;&gt;Node11</title>
<g id="a_edge31_Node000018_Node000011"><a xlink:title=" ">
<path fill="none" stroke="#63b8ff" d="M919.87,-197.53C945.48,-188.55 983.45,-173.82 1014,-156 1033.97,-144.36 1034.13,-133.95 1055,-124 1116.22,-94.82 1139.7,-104.06 1209.49,-88.23"/>
<polygon fill="#63b8ff" stroke="#63b8ff" points="1210.21,-91.42 1219.13,-85.71 1208.6,-84.61 1210.21,-91.42"/>
</a>
</g>
</g>
<!-- Node18&#45;&gt;Node12 -->
<g id="edge32_Node000018_Node000012" class="edge">
<title>Node18&#45;&gt;Node12</title>
<g id="a_edge32_Node000018_Node000012"><a xlink:title=" ">
<path fill="none" stroke="#63b8ff" d="M908.55,-197.6C926.57,-187.78 955.26,-171.64 979,-156 998.89,-142.89 1001.13,-135.48 1022,-124 1045.5,-111.07 1072.96,-99.94 1096.8,-91.41"/>
<polygon fill="#63b8ff" stroke="#63b8ff" points="1097.84,-94.41 1106.13,-87.8 1095.53,-87.8 1097.84,-94.41"/>
</a>
</g>
</g>
<!-- Node19 -->
<g id="Node000019" class="node">
<title>Node19</title>
<g id="a_Node000019"><a xlink:href="FMTlogger_8hpp.html" target="_top" xlink:title=" ">
<polygon fill="white" stroke="#666666" points="970.25,-150 889.75,-150 889.75,-130 970.25,-130 970.25,-150"/>
<text text-anchor="middle" x="930" y="-136.5" font-family="Helvetica,sans-Serif" font-size="10.00">FMTlogger.hpp</text>
</a>
</g>
</g>
<!-- Node18&#45;&gt;Node19 -->
<g id="edge23_Node000018_Node000019" class="edge">
<title>Node18&#45;&gt;Node19</title>
<g id="a_edge23_Node000018_Node000019"><a xlink:title=" ">
<path fill="none" stroke="#63b8ff" d="M896.59,-197.54C902.38,-187.74 911.59,-172.16 918.87,-159.83"/>
<polygon fill="#63b8ff" stroke="#63b8ff" points="922.35,-161.83 924.42,-151.44 916.32,-158.27 922.35,-161.83"/>
</a>
</g>
</g>
<!-- Node18&#45;&gt;Node22 -->
<g id="edge29_Node000018_Node000022" class="edge">
<title>Node18&#45;&gt;Node22</title>
<g id="a_edge29_Node000018_Node000022"><a xlink:title=" ">
<path fill="none" stroke="#63b8ff" d="M921.66,-197.54C959.08,-186 1022.5,-166.44 1064.07,-153.62"/>
<polygon fill="#63b8ff" stroke="#63b8ff" points="1064.87,-156.73 1073.4,-150.44 1062.81,-150.04 1064.87,-156.73"/>
</a>
</g>
</g>
<!-- Node18&#45;&gt;Node23 -->
<g id="edge30_Node000018_Node000023" class="edge">
<title>Node18&#45;&gt;Node23</title>
<g id="a_edge30_Node000018_Node000023"><a xlink:title=" ">
<path fill="none" stroke="#63b8ff" d="M936.14,-197.54C945.35,-195.66 954.98,-193.73 964,-192 1042.25,-176.96 1132.88,-160.99 1190.55,-151.01"/>
<polygon fill="#63b8ff" stroke="#63b8ff" points="1191.02,-154.31 1200.28,-149.16 1189.83,-147.41 1191.02,-154.31"/>
</a>
</g>
</g>
<!-- Node24 -->
<g id="Node000024" class="node">
<title>Node24</title>
<g id="a_Node000024"><a xlink:title=" ">
<polygon fill="#e0e0e0" stroke="#999999" points="764.75,-150 735.25,-150 735.25,-130 764.75,-130 764.75,-150"/>
<text text-anchor="middle" x="750" y="-136.5" font-family="Helvetica,sans-Serif" font-size="10.00">set</text>
</a>
</g>
</g>
<!-- Node18&#45;&gt;Node24 -->
<g id="edge34_Node000018_Node000024" class="edge">
<title>Node18&#45;&gt;Node24</title>
<g id="a_edge34_Node000018_Node000024"><a xlink:title=" ">
<path fill="none" stroke="#63b8ff" d="M866.76,-197.65C842.76,-188.12 805.17,-172.42 774,-156 773.9,-155.95 773.8,-155.89 773.7,-155.84"/>
<polygon fill="#63b8ff" stroke="#63b8ff" points="775.68,-152.36 765.27,-150.4 772.18,-158.43 775.68,-152.36"/>
</a>
</g>
</g>
<!-- Node25 -->
<g id="Node000025" class="node">
<title>Node25</title>
<g id="a_Node000025"><a xlink:title=" ">
<polygon fill="#e0e0e0" stroke="#999999" points="871.38,-150 782.62,-150 782.62,-130 871.38,-130 871.38,-150"/>
<text text-anchor="middle" x="827" y="-136.5" font-family="Helvetica,sans-Serif" font-size="10.00">boost/thread.hpp</text>
</a>
</g>
</g>
<!-- Node18&#45;&gt;Node25 -->
<g id="edge35_Node000018_Node000025" class="edge">
<title>Node18&#45;&gt;Node25</title>
<g id="a_edge35_Node000018_Node000025"><a xlink:title=" ">
<path fill="none" stroke="#63b8ff" d="M881.83,-197.54C871.85,-187.25 855.69,-170.58 843.49,-158.01"/>
<polygon fill="#63b8ff" stroke="#63b8ff" points="846.63,-156.18 837.15,-151.44 841.6,-161.05 846.63,-156.18"/>
</a>
</g>
</g>
<!-- Node19&#45;&gt;Node6 -->
<g id="edge27_Node000019_Node000006" class="edge">
<title>Node19&#45;&gt;Node6</title>
<g id="a_edge27_Node000019_Node000006"><a xlink:title=" ">
<path fill="none" stroke="#63b8ff" d="M959.24,-129.56C995.97,-117.41 1054.97,-96.81 1061,-88 1069.03,-76.26 1069.97,-67.04 1061,-56 1038.21,-27.94 931.25,-16.76 877.3,-12.85"/>
<polygon fill="#63b8ff" stroke="#63b8ff" points="877.55,-9.29 867.33,-12.1 877.07,-16.27 877.55,-9.29"/>
</a>
</g>
</g>
<!-- Node19&#45;&gt;Node12 -->
<g id="edge24_Node000019_Node000012" class="edge">
<title>Node19&#45;&gt;Node12</title>
<g id="a_edge24_Node000019_Node000012"><a xlink:title=" ">
<path fill="none" stroke="#63b8ff" d="M962.24,-129.54C997.37,-119.24 1054.31,-102.54 1097.21,-89.95"/>
<polygon fill="#63b8ff" stroke="#63b8ff" points="1097.9,-93.1 1106.51,-86.93 1095.93,-86.39 1097.9,-93.1"/>
</a>
</g>
</g>
<!-- Node19&#45;&gt;Node13 -->
<g id="edge28_Node000019_Node000013" class="edge">
<title>Node19&#45;&gt;Node13</title>
<g id="a_edge28_Node000019_Node000013"><a xlink:title=" ">
<path fill="none" stroke="#63b8ff" d="M907.08,-129.54C879.75,-118.27 833.88,-99.35 802.81,-86.53"/>
<polygon fill="#63b8ff" stroke="#63b8ff" points="804.46,-83.02 793.88,-82.44 801.79,-89.49 804.46,-83.02"/>
</a>
</g>
</g>
<!-- Node20 -->
<g id="Node000020" class="node">
<title>Node20</title>
<g id="a_Node000020"><a xlink:title=" ">
<polygon fill="#e0e0e0" stroke="#999999" points="985.62,-88 874.38,-88 874.38,-56 985.62,-56 985.62,-88"/>
<text text-anchor="start" x="882.38" y="-74.5" font-family="Helvetica,sans-Serif" font-size="10.00">boost/thread/recursive</text>
<text text-anchor="middle" x="930" y="-62.5" font-family="Helvetica,sans-Serif" font-size="10.00">_mutex.hpp</text>
</a>
</g>
</g>
<!-- Node19&#45;&gt;Node20 -->
<g id="edge25_Node000019_Node000020" class="edge">
<title>Node19&#45;&gt;Node20</title>
<g id="a_edge25_Node000019_Node000020"><a xlink:title=" ">
<path fill="none" stroke="#63b8ff" d="M930,-129.54C930,-121.64 930,-109.97 930,-99.29"/>
<polygon fill="#63b8ff" stroke="#63b8ff" points="933.5,-99.3 930,-89.3 926.5,-99.3 933.5,-99.3"/>
</a>
</g>
</g>
<!-- Node21 -->
<g id="Node000021" class="node">
<title>Node21</title>
<g id="a_Node000021"><a xlink:title=" ">
<polygon fill="#e0e0e0" stroke="#999999" points="1052.12,-82 1003.88,-82 1003.88,-62 1052.12,-62 1052.12,-82"/>
<text text-anchor="middle" x="1028" y="-68.5" font-family="Helvetica,sans-Serif" font-size="10.00">fstream</text>
</a>
</g>
</g>
<!-- Node19&#45;&gt;Node21 -->
<g id="edge26_Node000019_Node000021" class="edge">
<title>Node19&#45;&gt;Node21</title>
<g id="a_edge26_Node000019_Node000021"><a xlink:title=" ">
<path fill="none" stroke="#63b8ff" d="M944.04,-129.54C959.98,-118.81 986.21,-101.14 1005.12,-88.41"/>
<polygon fill="#63b8ff" stroke="#63b8ff" points="1006.65,-90.93 1012.99,-82.44 1002.74,-85.12 1006.65,-90.93"/>
</a>
</g>
</g>
<!-- Node29&#45;&gt;Node5 -->
<g id="edge45_Node000029_Node000005" class="edge">
<title>Node29&#45;&gt;Node5</title>
<g id="a_edge45_Node000029_Node000005"><a xlink:title=" ">
<path fill="none" stroke="#63b8ff" d="M129.67,-129.51C157.38,-119.54 201.95,-103.23 240,-88 241.28,-87.49 242.58,-86.96 243.89,-86.42"/>
<polygon fill="#63b8ff" stroke="#63b8ff" points="245.09,-89.3 252.97,-82.21 242.39,-82.84 245.09,-89.3"/>
</a>
</g>
</g>
<!-- Node29&#45;&gt;Node7 -->
<g id="edge44_Node000029_Node000007" class="edge">
<title>Node29&#45;&gt;Node7</title>
<g id="a_edge44_Node000029_Node000007"><a xlink:title=" ">
<path fill="none" stroke="#63b8ff" d="M90.76,-129.55C71.2,-113.34 37.02,-79.67 57,-56 85.7,-21.99 219.09,-13.68 284.56,-11.65"/>
<polygon fill="#63b8ff" stroke="#63b8ff" points="284.31,-15.13 294.21,-11.36 284.11,-8.14 284.31,-15.13"/>
</a>
</g>
</g>
<!-- Node29&#45;&gt;Node8 -->
<g id="edge46_Node000029_Node000008" class="edge">
<title>Node29&#45;&gt;Node8</title>
<g id="a_edge46_Node000029_Node000008"><a xlink:title=" ">
<path fill="none" stroke="#63b8ff" d="M116.5,-129.54C141.05,-112.7 195.1,-77.29 245,-56 280.12,-41.02 321.71,-29.4 353.41,-21.72"/>
<polygon fill="#63b8ff" stroke="#63b8ff" points="353.83,-24.98 362.75,-19.27 352.22,-18.17 353.83,-24.98"/>
</a>
</g>
</g>
<!-- Node30 -->
<g id="Node000030" class="node">
<title>Node30</title>
<g id="a_Node000030"><a xlink:title=" ">
<polygon fill="#e0e0e0" stroke="#999999" points="160.38,-88 65.62,-88 65.62,-56 160.38,-56 160.38,-88"/>
<text text-anchor="start" x="73.62" y="-74.5" font-family="Helvetica,sans-Serif" font-size="10.00">boost/serialization</text>
<text text-anchor="middle" x="113" y="-62.5" font-family="Helvetica,sans-Serif" font-size="10.00">/vector.hpp</text>
</a>
</g>
</g>
<!-- Node29&#45;&gt;Node30 -->
<g id="edge47_Node000029_Node000030" class="edge">
<title>Node29&#45;&gt;Node30</title>
<g id="a_edge47_Node000029_Node000030"><a xlink:title=" ">
<path fill="none" stroke="#63b8ff" d="M104.43,-129.54C105.64,-121.55 107.44,-109.72 109.07,-98.95"/>
<polygon fill="#63b8ff" stroke="#63b8ff" points="112.64,-99.71 110.68,-89.3 105.72,-98.66 112.64,-99.71"/>
</a>
</g>
</g>
</g>
</svg>

<g id="navigator" transform="translate(0 0)" fill="#404254">
  <rect fill="#f2f5e9" fill-opacity="0.5" stroke="#606060" stroke-width=".5" x="0" y="0" width="60" height="60"/>
  <use id="zoomplus" xlink:href="#zoomPlus" x="17" y="9" onmousedown="handleZoom(evt,'in')"/>
  <use id="zoomminus" xlink:href="#zoomMin" x="42" y="9" onmousedown="handleZoom(evt,'out')"/>
  <use id="reset" xlink:href="#resetDef" x="30" y="36" onmousedown="handleReset()"/>
   <use id="arrowup" xlink:href="#arrowUp" x="0" y="0" onmousedown="handlePan(0,-1)"/>
  <use id="arrowright" xlink:href="#arrowRight" x="0" y="0" onmousedown="handlePan(1,0)"/>
  <use id="arrowdown" xlink:href="#arrowDown" x="0" y="0" onmousedown="handlePan(0,1)"/>
  <use id="arrowleft" xlink:href="#arrowLeft" x="0" y="0" onmousedown="handlePan(-1,0)"/>
</g>
<svg viewBox="0 0 15 15" width="100%" height="30px" preserveAspectRatio="xMaxYMin meet">
 <g id="arrow_out" transform="scale(0.3 0.3)">
  <a xlink:href="FMTlpheuristic_8hpp__incl_org.svg" target="_base">
   <rect id="button" ry="5" rx="5" y="6" x="6" height="38" width="38"
        fill="#f2f5e9" fill-opacity="0.5" stroke="#606060" stroke-width="1.0"/>
   <path id="arrow"
     d="M 11.500037,31.436501 C 11.940474,20.09759 22.043105,11.32322 32.158766,21.979434 L 37.068811,17.246167 C 37.068811,17.246167 37.088388,32 37.088388,32 L 22.160133,31.978069 C 22.160133,31.978069 26.997745,27.140456 26.997745,27.140456 C 18.528582,18.264221 13.291696,25.230495 11.500037,31.436501 z"
     style="fill:#404040;"/>
  </a>
 </g>
</svg>

<style type='text/css'>
<![CDATA[
[data-mouse-over-selected='false'] { opacity: 0.7; }
[data-mouse-over-selected='true']  { opacity: 1.0; }
]]>
</style>
<script type="application/ecmascript"><![CDATA[
document.addEventListener('DOMContentLoaded', (event) => {
  highlightEdges();
  highlightAdjacentNodes();
});
]]></script>
</svg>
