<?xml version="1.0" encoding="UTF-8" standalone="no"?>
<!DOCTYPE svg PUBLIC "-//W3C//DTD SVG 1.1//EN"
 "http://www.w3.org/Graphics/SVG/1.1/DTD/svg11.dtd">
<!-- Generated by graphviz version 10.0.1 (20240210.2158)
 -->
<!-- Title: D:/FMT/Include/FMTlpheuristic.hpp Pages: 1 -->
<svg width="686pt" height="196pt"
 viewBox="0.00 0.00 686.12 196.00" xmlns="http://www.w3.org/2000/svg" xmlns:xlink="http://www.w3.org/1999/xlink">
<g id="graph0" class="graph" transform="scale(1 1) rotate(0) translate(4 192)">
<title>D:/FMT/Include/FMTlpheuristic.hpp</title>
<!-- Node1 -->
<g id="node1" class="node">
<title>Node1</title>
<g id="a_node1"><a xlink:title=" ">
<polygon fill="#999999" stroke="#666666" points="313.38,-188 145.88,-188 145.88,-168 313.38,-168 313.38,-188"/>
<text text-anchor="middle" x="229.62" y="-174.5" font-family="Helvetica,sans-Serif" font-size="10.00">D:/FMT/Include/FMTlpheuristic.hpp</text>
</a>
</g>
</g>
<!-- Node2 -->
<g id="node2" class="node">
<title>Node2</title>
<g id="a_node2"><a xlink:href="FMToperatingareaclusterer_8hpp.html" target="_top" xlink:title=" ">
<polygon fill="white" stroke="#666666" points="219.25,-132 0,-132 0,-112 219.25,-112 219.25,-132"/>
<text text-anchor="middle" x="109.62" y="-118.5" font-family="Helvetica,sans-Serif" font-size="10.00">D:/FMT/Include/FMToperatingareaclusterer.hpp</text>
</a>
</g>
</g>
<!-- Node1&#45;&gt;Node2 -->
<g id="edge1" class="edge">
<title>Node1&#45;&gt;Node2</title>
<path fill="none" stroke="#63b8ff" d="M198.24,-162.88C176.95,-153.3 149.38,-140.89 130.69,-132.48"/>
<polygon fill="#63b8ff" stroke="#63b8ff" points="196.79,-166.06 207.34,-166.97 199.66,-159.68 196.79,-166.06"/>
</g>
<!-- Node5 -->
<g id="node5" class="node">
<title>Node5</title>
<g id="a_node5"><a xlink:href="FMToperatingareascheduler_8hpp.html" target="_top" xlink:title=" ">
<polygon fill="white" stroke="#666666" points="461.5,-132 237.75,-132 237.75,-112 461.5,-112 461.5,-132"/>
<text text-anchor="middle" x="349.62" y="-118.5" font-family="Helvetica,sans-Serif" font-size="10.00">D:/FMT/Include/FMToperatingareascheduler.hpp</text>
</a>
</g>
</g>
<!-- Node1&#45;&gt;Node5 -->
<g id="edge4" class="edge">
<title>Node1&#45;&gt;Node5</title>
<path fill="none" stroke="#63b8ff" d="M261.01,-162.88C282.3,-153.3 309.87,-140.89 328.56,-132.48"/>
<polygon fill="#63b8ff" stroke="#63b8ff" points="259.59,-159.68 251.91,-166.97 262.46,-166.06 259.59,-159.68"/>
</g>
<!-- Node3 -->
<g id="node3" class="node">
<title>Node3</title>
<g id="a_node3"><a xlink:href="PYexportHeuristics_8hpp.html" target="_top" xlink:title=" ">
<polygon fill="white" stroke="#666666" points="384.5,-20 196.75,-20 196.75,0 384.5,0 384.5,-20"/>
<text text-anchor="middle" x="290.62" y="-6.5" font-family="Helvetica,sans-Serif" font-size="10.00">D:/FMT/Include/PYexportHeuristics.hpp</text>
</a>
</g>
</g>
<!-- Node2&#45;&gt;Node3 -->
<g id="edge2" class="edge">
<title>Node2&#45;&gt;Node3</title>
<path fill="none" stroke="#63b8ff" d="M88.75,-104.28C74.17,-90.58 59.33,-71.07 71.62,-56 87.69,-36.3 144.66,-24.97 196.47,-18.62"/>
<polygon fill="#63b8ff" stroke="#63b8ff" points="86.13,-106.64 95.96,-110.6 90.74,-101.38 86.13,-106.64"/>
</g>
<!-- Node4 -->
<g id="node4" class="node">
<title>Node4</title>
<g id="a_node4"><a xlink:href="RexportHeuristics_8hpp.html" target="_top" xlink:title=" ">
<polygon fill="white" stroke="#666666" points="262.12,-76 81.12,-76 81.12,-56 262.12,-56 262.12,-76"/>
<text text-anchor="middle" x="171.62" y="-62.5" font-family="Helvetica,sans-Serif" font-size="10.00">D:/FMT/Include/RexportHeuristics.hpp</text>
</a>
</g>
</g>
<!-- Node2&#45;&gt;Node4 -->
<g id="edge3" class="edge">
<title>Node2&#45;&gt;Node4</title>
<path fill="none" stroke="#63b8ff" d="M129,-104.13C139.54,-94.94 152.18,-83.93 160.95,-76.3"/>
<polygon fill="#63b8ff" stroke="#63b8ff" points="126.81,-101.39 121.57,-110.6 131.41,-106.67 126.81,-101.39"/>
</g>
<!-- Node5&#45;&gt;Node3 -->
<g id="edge7" class="edge">
<title>Node5&#45;&gt;Node3</title>
<path fill="none" stroke="#63b8ff" d="M330.96,-103.69C323.43,-95.86 315.22,-86.1 309.62,-76 299.49,-57.69 294.26,-33.42 292.02,-20.33"/>
<polygon fill="#63b8ff" stroke="#63b8ff" points="328.34,-106.03 337.92,-110.57 333.26,-101.05 328.34,-106.03"/>
</g>
<!-- Node5&#45;&gt;Node4 -->
<g id="edge9" class="edge">
<title>Node5&#45;&gt;Node4</title>
<path fill="none" stroke="#63b8ff" d="M307.78,-108.31C275.65,-98.56 232,-85.32 202.87,-76.48"/>
<polygon fill="#63b8ff" stroke="#63b8ff" points="306.59,-111.6 317.17,-111.15 308.62,-104.9 306.59,-111.6"/>
</g>
<!-- Node6 -->
<g id="node6" class="node">
<title>Node6</title>
<g id="a_node6"><a xlink:href="FMTpythonpickle_8hpp.html" target="_top" xlink:title=" ">
<polygon fill="white" stroke="#666666" points="496.62,-76 318.62,-76 318.62,-56 496.62,-56 496.62,-76"/>
<text text-anchor="middle" x="407.62" y="-62.5" font-family="Helvetica,sans-Serif" font-size="10.00">D:/FMT/Include/FMTpythonpickle.hpp</text>
</a>
</g>
</g>
<!-- Node5&#45;&gt;Node6 -->
<g id="edge5" class="edge">
<title>Node5&#45;&gt;Node6</title>
<path fill="none" stroke="#63b8ff" d="M368.05,-103.85C377.85,-94.72 389.52,-83.86 397.64,-76.3"/>
<polygon fill="#63b8ff" stroke="#63b8ff" points="365.77,-101.19 360.84,-110.56 370.54,-106.31 365.77,-101.19"/>
</g>
<!-- Node7 -->
<g id="node7" class="node">
<title>Node7</title>
<g id="a_node7"><a xlink:href="Rdeclarations_8hpp.html" target="_top" xlink:title=" ">
<polygon fill="white" stroke="#666666" points="678.12,-76 515.12,-76 515.12,-56 678.12,-56 678.12,-76"/>
<text text-anchor="middle" x="596.62" y="-62.5" font-family="Helvetica,sans-Serif" font-size="10.00">D:/FMT/Include/Rdeclarations.hpp</text>
</a>
</g>
</g>
<!-- Node5&#45;&gt;Node7 -->
<g id="edge8" class="edge">
<title>Node5&#45;&gt;Node7</title>
<path fill="none" stroke="#63b8ff" d="M403.94,-109.13C448.86,-99.31 511.8,-85.54 553.37,-76.46"/>
<polygon fill="#63b8ff" stroke="#63b8ff" points="403.43,-105.65 394.41,-111.21 404.93,-112.49 403.43,-105.65"/>
</g>
<!-- Node6&#45;&gt;Node3 -->
<g id="edge6" class="edge">
<title>Node6&#45;&gt;Node3</title>
<path fill="none" stroke="#63b8ff" d="M377.03,-50.88C356.27,-41.3 329.39,-28.89 311.16,-20.48"/>
<polygon fill="#63b8ff" stroke="#63b8ff" points="375.32,-53.95 385.87,-54.96 378.26,-47.59 375.32,-53.95"/>
</g>
</g>
</svg>
