<?xml version="1.0" encoding="UTF-8" standalone="no"?>
<!DOCTYPE svg PUBLIC "-//W3C//DTD SVG 1.1//EN"
 "http://www.w3.org/Graphics/SVG/1.1/DTD/svg11.dtd">
<!-- Generated by graphviz version 8.1.0 (20230707.0739)
 -->
<!-- Title: C:/Temp/out/FMT/Include/FMTmodelstats.hpp Pages: 1 -->
<svg width="558pt" height="164pt"
 viewBox="0.00 0.00 558.12 164.00" xmlns="http://www.w3.org/2000/svg" xmlns:xlink="http://www.w3.org/1999/xlink">
<g id="graph0" class="graph" transform="scale(1 1) rotate(0) translate(4 160)">
<title>C:/Temp/out/FMT/Include/FMTmodelstats.hpp</title>
<!-- Node1 -->
<g id="Node000001" class="node">
<title>Node1</title>
<g id="a_Node000001"><a xlink:title=" ">
<polygon fill="#999999" stroke="#666666" points="260.12,-156 134.62,-156 134.62,-124 260.12,-124 260.12,-156"/>
<text text-anchor="start" x="142.62" y="-142.5" font-family="Helvetica,sans-Serif" font-size="10.00">C:/Temp/out/FMT/Include</text>
<text text-anchor="middle" x="197.38" y="-130.5" font-family="Helvetica,sans-Serif" font-size="10.00">/FMTmodelstats.hpp</text>
</a>
</g>
</g>
<!-- Node2 -->
<g id="Node000002" class="node">
<title>Node2</title>
<g id="a_Node000002"><a xlink:title=" ">
<polygon fill="#e0e0e0" stroke="#999999" points="94.75,-88 0,-88 0,-56 94.75,-56 94.75,-88"/>
<text text-anchor="start" x="8" y="-74.5" font-family="Helvetica,sans-Serif" font-size="10.00">boost/serialization</text>
<text text-anchor="middle" x="47.38" y="-62.5" font-family="Helvetica,sans-Serif" font-size="10.00">/serialization.hpp</text>
</a>
</g>
</g>
<!-- Node1&#45;&gt;Node2 -->
<g id="edge1_Node000001_Node000002" class="edge">
<title>Node1&#45;&gt;Node2</title>
<g id="a_edge1_Node000001_Node000002"><a xlink:title=" ">
<path fill="none" stroke="#63b8ff" d="M162.21,-123.53C141.41,-114.37 114.85,-102.69 92.51,-92.86"/>
<polygon fill="#63b8ff" stroke="#63b8ff" points="94.15,-89.32 83.58,-88.49 91.33,-95.72 94.15,-89.32"/>
</a>
</g>
</g>
<!-- Node3 -->
<g id="Node000003" class="node">
<title>Node3</title>
<g id="a_Node000003"><a xlink:title=" ">
<polygon fill="#e0e0e0" stroke="#999999" points="207.75,-88 113,-88 113,-56 207.75,-56 207.75,-88"/>
<text text-anchor="start" x="121" y="-74.5" font-family="Helvetica,sans-Serif" font-size="10.00">boost/serialization</text>
<text text-anchor="middle" x="160.38" y="-62.5" font-family="Helvetica,sans-Serif" font-size="10.00">/nvp.hpp</text>
</a>
</g>
</g>
<!-- Node1&#45;&gt;Node3 -->
<g id="edge2_Node000001_Node000003" class="edge">
<title>Node1&#45;&gt;Node3</title>
<g id="a_edge2_Node000001_Node000003"><a xlink:title=" ">
<path fill="none" stroke="#63b8ff" d="M188.79,-123.69C184.45,-115.95 179.07,-106.35 174.17,-97.6"/>
<polygon fill="#63b8ff" stroke="#63b8ff" points="176.85,-96.24 168.91,-89.22 170.75,-99.66 176.85,-96.24"/>
</a>
</g>
</g>
<!-- Node4 -->
<g id="Node000004" class="node">
<title>Node4</title>
<g id="a_Node000004"><a xlink:title=" ">
<polygon fill="#e0e0e0" stroke="#999999" points="238.38,-20 198.38,-20 198.38,0 238.38,0 238.38,-20"/>
<text text-anchor="middle" x="218.38" y="-6.5" font-family="Helvetica,sans-Serif" font-size="10.00">string</text>
</a>
</g>
</g>
<!-- Node1&#45;&gt;Node4 -->
<g id="edge3_Node000001_Node000004" class="edge">
<title>Node1&#45;&gt;Node4</title>
<g id="a_edge3_Node000001_Node000004"><a xlink:title=" ">
<path fill="none" stroke="#63b8ff" d="M204.57,-123.76C208.87,-113.82 213.97,-100.43 216.38,-88 220.07,-68.94 220.21,-46.73 219.65,-31.08"/>
<polygon fill="#63b8ff" stroke="#63b8ff" points="223.1,-30.93 219.1,-21.11 216.11,-31.28 223.1,-30.93"/>
</a>
</g>
</g>
<!-- Node5 -->
<g id="Node000005" class="node">
<title>Node5</title>
<g id="a_Node000005"><a xlink:href="FMTexception_8hpp.html" target="_top" xlink:title=" ">
<polygon fill="white" stroke="#666666" points="391.5,-82 295.25,-82 295.25,-62 391.5,-62 391.5,-82"/>
<text text-anchor="middle" x="343.38" y="-68.5" font-family="Helvetica,sans-Serif" font-size="10.00">FMTexception.hpp</text>
</a>
</g>
</g>
<!-- Node1&#45;&gt;Node5 -->
<g id="edge4_Node000001_Node000005" class="edge">
<title>Node1&#45;&gt;Node5</title>
<g id="a_edge4_Node000001_Node000005"><a xlink:title=" ">
<path fill="none" stroke="#63b8ff" d="M231.61,-123.53C256.13,-112.44 288.87,-97.64 312.58,-86.92"/>
<polygon fill="#63b8ff" stroke="#63b8ff" points="313.78,-89.77 321.45,-82.46 310.89,-83.39 313.78,-89.77"/>
</a>
</g>
</g>
<!-- Node5&#45;&gt;Node4 -->
<g id="edge6_Node000005_Node000004" class="edge">
<title>Node5&#45;&gt;Node4</title>
<g id="a_edge6_Node000005_Node000004"><a xlink:title=" ">
<path fill="none" stroke="#63b8ff" d="M323.84,-61.62C303.39,-51.81 271.03,-36.27 247.54,-25"/>
<polygon fill="#63b8ff" stroke="#63b8ff" points="249.3,-21.48 238.77,-20.31 246.27,-27.79 249.3,-21.48"/>
</a>
</g>
</g>
<!-- Node6 -->
<g id="Node000006" class="node">
<title>Node6</title>
<g id="a_Node000006"><a xlink:title=" ">
<polygon fill="#e0e0e0" stroke="#999999" points="314.38,-20 256.38,-20 256.38,0 314.38,0 314.38,-20"/>
<text text-anchor="middle" x="285.38" y="-6.5" font-family="Helvetica,sans-Serif" font-size="10.00">exception</text>
</a>
</g>
</g>
<!-- Node5&#45;&gt;Node6 -->
<g id="edge5_Node000005_Node000006" class="edge">
<title>Node5&#45;&gt;Node6</title>
<g id="a_edge5_Node000005_Node000006"><a xlink:title=" ">
<path fill="none" stroke="#63b8ff" d="M334.31,-61.62C325.58,-52.59 312.17,-38.72 301.59,-27.78"/>
<polygon fill="#63b8ff" stroke="#63b8ff" points="304.65,-25.87 295.18,-21.11 299.62,-30.74 304.65,-25.87"/>
</a>
</g>
</g>
<!-- Node7 -->
<g id="Node000007" class="node">
<title>Node7</title>
<g id="a_Node000007"><a xlink:title=" ">
<polygon fill="#e0e0e0" stroke="#999999" points="386.12,-20 332.62,-20 332.62,0 386.12,0 386.12,-20"/>
<text text-anchor="middle" x="359.38" y="-6.5" font-family="Helvetica,sans-Serif" font-size="10.00">iostream</text>
</a>
</g>
</g>
<!-- Node5&#45;&gt;Node7 -->
<g id="edge7_Node000005_Node000007" class="edge">
<title>Node5&#45;&gt;Node7</title>
<g id="a_edge7_Node000005_Node000007"><a xlink:title=" ">
<path fill="none" stroke="#63b8ff" d="M345.88,-61.62C348.07,-53.39 351.34,-41.13 354.11,-30.74"/>
<polygon fill="#63b8ff" stroke="#63b8ff" points="357.75,-31.68 356.94,-21.11 350.99,-29.87 357.75,-31.68"/>
</a>
</g>
</g>
<!-- Node8 -->
<g id="Node000008" class="node">
<title>Node8</title>
<g id="a_Node000008"><a xlink:title=" ">
<polygon fill="#e0e0e0" stroke="#999999" points="455,-20 403.75,-20 403.75,0 455,0 455,-20"/>
<text text-anchor="middle" x="429.38" y="-6.5" font-family="Helvetica,sans-Serif" font-size="10.00">memory</text>
</a>
</g>
</g>
<!-- Node5&#45;&gt;Node8 -->
<g id="edge8_Node000005_Node000008" class="edge">
<title>Node5&#45;&gt;Node8</title>
<g id="a_edge8_Node000005_Node000008"><a xlink:title=" ">
<path fill="none" stroke="#63b8ff" d="M356.81,-61.62C370.32,-52.2 391.37,-37.52 407.32,-26.39"/>
<polygon fill="#63b8ff" stroke="#63b8ff" points="408.83,-28.9 415.03,-20.31 404.83,-23.16 408.83,-28.9"/>
</a>
</g>
</g>
<!-- Node9 -->
<g id="Node000009" class="node">
<title>Node9</title>
<g id="a_Node000009"><a xlink:href="FMTutility_8hpp.html" target="_top" xlink:title=" ">
<polygon fill="white" stroke="#666666" points="550.12,-20 472.62,-20 472.62,0 550.12,0 550.12,-20"/>
<text text-anchor="middle" x="511.38" y="-6.5" font-family="Helvetica,sans-Serif" font-size="10.00">FMTutility.hpp</text>
</a>
</g>
</g>
<!-- Node5&#45;&gt;Node9 -->
<g id="edge9_Node000005_Node000009" class="edge">
<title>Node5&#45;&gt;Node9</title>
<g id="a_edge9_Node000005_Node000009"><a xlink:title=" ">
<path fill="none" stroke="#63b8ff" d="M369.62,-61.62C397.9,-51.53 443.09,-35.39 474.83,-24.05"/>
<polygon fill="#63b8ff" stroke="#63b8ff" points="475.79,-27.07 484.03,-20.41 473.44,-20.48 475.79,-27.07"/>
</a>
</g>
</g>
</g>
</svg>
