<?xml version="1.0" encoding="UTF-8" standalone="no"?>
<!DOCTYPE svg PUBLIC "-//W3C//DTD SVG 1.1//EN"
 "http://www.w3.org/Graphics/SVG/1.1/DTD/svg11.dtd">
<!-- Generated by graphviz version 8.1.0 (20230707.0739)
 -->
<!-- Title: C:/Users/CYRGU3/OneDrive &#45; BuroVirtuel/Bureau/FMT/FMT/Include/FMTmatrixbuild.hpp Pages: 1 -->
<svg width="847pt" height="232pt"
 viewBox="0.00 0.00 846.62 232.00" xmlns="http://www.w3.org/2000/svg" xmlns:xlink="http://www.w3.org/1999/xlink">
<g id="graph0" class="graph" transform="scale(1 1) rotate(0) translate(4 228)">
<title>C:/Users/CYRGU3/OneDrive &#45; BuroVirtuel/Bureau/FMT/FMT/Include/FMTmatrixbuild.hpp</title>
<!-- Node1 -->
<g id="Node000001" class="node">
<title>Node1</title>
<g id="a_Node000001"><a xlink:title=" ">
<polygon fill="#999999" stroke="#666666" points="185.38,-224 24.62,-224 24.62,-180 185.38,-180 185.38,-224"/>
<text text-anchor="start" x="32.62" y="-210.5" font-family="Helvetica,sans-Serif" font-size="10.00">C:/Users/CYRGU3/OneDrive</text>
<text text-anchor="start" x="32.62" y="-198.5" font-family="Helvetica,sans-Serif" font-size="10.00"> &#45; BuroVirtuel/Bureau/FMT</text>
<text text-anchor="middle" x="105" y="-186.5" font-family="Helvetica,sans-Serif" font-size="10.00">/FMT/Include/FMTmatrixbuild.hpp</text>
</a>
</g>
</g>
<!-- Node2 -->
<g id="Node000002" class="node">
<title>Node2</title>
<g id="a_Node000002"><a xlink:title=" ">
<polygon fill="#e0e0e0" stroke="#999999" points="125.75,-82 84.25,-82 84.25,-62 125.75,-62 125.75,-82"/>
<text text-anchor="middle" x="105" y="-68.5" font-family="Helvetica,sans-Serif" font-size="10.00">vector</text>
</a>
</g>
</g>
<!-- Node1&#45;&gt;Node2 -->
<g id="edge1_Node000001_Node000002" class="edge">
<title>Node1&#45;&gt;Node2</title>
<g id="a_edge1_Node000001_Node000002"><a xlink:title=" ">
<path fill="none" stroke="#63b8ff" d="M105,-179.58C105,-155.45 105,-116.57 105,-93.03"/>
<polygon fill="#63b8ff" stroke="#63b8ff" points="108.5,-93.29 105,-83.29 101.5,-93.29 108.5,-93.29"/>
</a>
</g>
</g>
<!-- Node3 -->
<g id="Node000003" class="node">
<title>Node3</title>
<g id="a_Node000003"><a xlink:title=" ">
<polygon fill="#e0e0e0" stroke="#999999" points="40,-20 0,-20 0,0 40,0 40,-20"/>
<text text-anchor="middle" x="20" y="-6.5" font-family="Helvetica,sans-Serif" font-size="10.00">string</text>
</a>
</g>
</g>
<!-- Node1&#45;&gt;Node3 -->
<g id="edge2_Node000001_Node000003" class="edge">
<title>Node1&#45;&gt;Node3</title>
<g id="a_edge2_Node000001_Node000003"><a xlink:title=" ">
<path fill="none" stroke="#63b8ff" d="M91.67,-179.76C85.32,-169.22 77.85,-156.16 72,-144 53.07,-104.69 35.6,-56.59 26.52,-30.35"/>
<polygon fill="#63b8ff" stroke="#63b8ff" points="29.61,-29.56 23.06,-21.23 22.99,-31.83 29.61,-29.56"/>
</a>
</g>
</g>
<!-- Node4 -->
<g id="Node000004" class="node">
<title>Node4</title>
<g id="a_Node000004"><a xlink:title=" ">
<polygon fill="#e0e0e0" stroke="#999999" points="838.62,-20 787.38,-20 787.38,0 838.62,0 838.62,-20"/>
<text text-anchor="middle" x="813" y="-6.5" font-family="Helvetica,sans-Serif" font-size="10.00">memory</text>
</a>
</g>
</g>
<!-- Node1&#45;&gt;Node4 -->
<g id="edge3_Node000001_Node000004" class="edge">
<title>Node1&#45;&gt;Node4</title>
<g id="a_edge3_Node000001_Node000004"><a xlink:title=" ">
<path fill="none" stroke="#63b8ff" d="M185.58,-200.72C354.27,-198.24 735.66,-182.11 816,-88 829.4,-72.31 825.56,-47.58 820.4,-30.39"/>
<polygon fill="#63b8ff" stroke="#63b8ff" points="823.52,-29.7 816.98,-21.36 816.89,-31.96 823.52,-29.7"/>
</a>
</g>
</g>
<!-- Node5 -->
<g id="Node000005" class="node">
<title>Node5</title>
<g id="a_Node000005"><a xlink:href="FMTutility_8hpp.html" target="_top" xlink:title=" ">
<polygon fill="white" stroke="#666666" points="138.75,-20 61.25,-20 61.25,0 138.75,0 138.75,-20"/>
<text text-anchor="middle" x="100" y="-6.5" font-family="Helvetica,sans-Serif" font-size="10.00">FMTutility.hpp</text>
</a>
</g>
</g>
<!-- Node1&#45;&gt;Node5 -->
<g id="edge4_Node000001_Node000005" class="edge">
<title>Node1&#45;&gt;Node5</title>
<g id="a_edge4_Node000001_Node000005"><a xlink:title=" ">
<path fill="none" stroke="#63b8ff" d="M94.5,-179.72C81.88,-151.32 63.72,-99.55 75,-56 77.4,-46.74 82.17,-37.35 86.9,-29.56"/>
<polygon fill="#63b8ff" stroke="#63b8ff" points="90.35,-31.68 92.9,-21.39 84.5,-27.84 90.35,-31.68"/>
</a>
</g>
</g>
<!-- Node6 -->
<g id="Node000006" class="node">
<title>Node6</title>
<g id="a_Node000006"><a xlink:href="FMTobject_8hpp.html" target="_top" xlink:title=" ">
<polygon fill="white" stroke="#666666" points="424.25,-144 343.75,-144 343.75,-124 424.25,-124 424.25,-144"/>
<text text-anchor="middle" x="384" y="-130.5" font-family="Helvetica,sans-Serif" font-size="10.00">FMTobject.hpp</text>
</a>
</g>
</g>
<!-- Node1&#45;&gt;Node6 -->
<g id="edge5_Node000001_Node000006" class="edge">
<title>Node1&#45;&gt;Node6</title>
<g id="a_edge5_Node000001_Node000006"><a xlink:title=" ">
<path fill="none" stroke="#63b8ff" d="M185.7,-181.91C233.42,-170.62 292.37,-156.68 333.54,-146.94"/>
<polygon fill="#63b8ff" stroke="#63b8ff" points="334.21,-150.14 343.13,-144.43 332.6,-143.33 334.21,-150.14"/>
</a>
</g>
</g>
<!-- Node6&#45;&gt;Node2 -->
<g id="edge17_Node000006_Node000002" class="edge">
<title>Node6&#45;&gt;Node2</title>
<g id="a_edge17_Node000006_Node000002"><a xlink:title=" ">
<path fill="none" stroke="#63b8ff" d="M343.45,-129.26C293.43,-123.83 206.28,-111.72 135,-88 133.89,-87.63 132.78,-87.23 131.66,-86.8"/>
<polygon fill="#63b8ff" stroke="#63b8ff" points="133.34,-83.27 122.77,-82.44 130.51,-89.68 133.34,-83.27"/>
</a>
</g>
</g>
<!-- Node6&#45;&gt;Node4 -->
<g id="edge15_Node000006_Node000004" class="edge">
<title>Node6&#45;&gt;Node4</title>
<g id="a_edge15_Node000006_Node000004"><a xlink:title=" ">
<path fill="none" stroke="#63b8ff" d="M424.48,-131.16C522.48,-126.35 766.52,-112.06 794,-88 809.99,-74 813.61,-48.88 813.96,-31.15"/>
<polygon fill="#63b8ff" stroke="#63b8ff" points="817.44,-31.22 813.79,-21.28 810.44,-31.33 817.44,-31.22"/>
</a>
</g>
</g>
<!-- Node7 -->
<g id="Node000007" class="node">
<title>Node7</title>
<g id="a_Node000007"><a xlink:title=" ">
<polygon fill="#e0e0e0" stroke="#999999" points="559.38,-88 464.62,-88 464.62,-56 559.38,-56 559.38,-88"/>
<text text-anchor="start" x="472.62" y="-74.5" font-family="Helvetica,sans-Serif" font-size="10.00">boost/serialization</text>
<text text-anchor="middle" x="512" y="-62.5" font-family="Helvetica,sans-Serif" font-size="10.00">/shared_ptr.hpp</text>
</a>
</g>
</g>
<!-- Node6&#45;&gt;Node7 -->
<g id="edge6_Node000006_Node000007" class="edge">
<title>Node6&#45;&gt;Node7</title>
<g id="a_edge6_Node000006_Node000007"><a xlink:title=" ">
<path fill="none" stroke="#63b8ff" d="M404,-123.62C421.44,-115.45 447.32,-103.32 469.38,-92.98"/>
<polygon fill="#63b8ff" stroke="#63b8ff" points="470.63,-95.79 478.2,-88.37 467.66,-89.45 470.63,-95.79"/>
</a>
</g>
</g>
<!-- Node8 -->
<g id="Node000008" class="node">
<title>Node8</title>
<g id="a_Node000008"><a xlink:title=" ">
<polygon fill="#e0e0e0" stroke="#999999" points="672.38,-88 577.62,-88 577.62,-56 672.38,-56 672.38,-88"/>
<text text-anchor="start" x="585.62" y="-74.5" font-family="Helvetica,sans-Serif" font-size="10.00">boost/serialization</text>
<text text-anchor="middle" x="625" y="-62.5" font-family="Helvetica,sans-Serif" font-size="10.00">/nvp.hpp</text>
</a>
</g>
</g>
<!-- Node6&#45;&gt;Node8 -->
<g id="edge7_Node000006_Node000008" class="edge">
<title>Node6&#45;&gt;Node8</title>
<g id="a_edge7_Node000006_Node000008"><a xlink:title=" ">
<path fill="none" stroke="#63b8ff" d="M423.53,-123.54C458.64,-115.1 511.61,-102.24 567.05,-88.22"/>
<polygon fill="#63b8ff" stroke="#63b8ff" points="567.6,-91.44 576.43,-85.58 565.88,-84.65 567.6,-91.44"/>
</a>
</g>
</g>
<!-- Node9 -->
<g id="Node000009" class="node">
<title>Node9</title>
<g id="a_Node000009"><a xlink:title=" ">
<polygon fill="#e0e0e0" stroke="#999999" points="785.38,-88 690.62,-88 690.62,-56 785.38,-56 785.38,-88"/>
<text text-anchor="start" x="698.62" y="-74.5" font-family="Helvetica,sans-Serif" font-size="10.00">boost/serialization</text>
<text text-anchor="middle" x="738" y="-62.5" font-family="Helvetica,sans-Serif" font-size="10.00">/export.hpp</text>
</a>
</g>
</g>
<!-- Node6&#45;&gt;Node9 -->
<g id="edge8_Node000006_Node000009" class="edge">
<title>Node6&#45;&gt;Node9</title>
<g id="a_edge8_Node000006_Node000009"><a xlink:title=" ">
<path fill="none" stroke="#63b8ff" d="M424.6,-128.25C480,-121.45 582.56,-107.8 679.61,-88.15"/>
<polygon fill="#63b8ff" stroke="#63b8ff" points="680.1,-91.42 689.19,-85.98 678.69,-84.56 680.1,-91.42"/>
</a>
</g>
</g>
<!-- Node10 -->
<g id="Node000010" class="node">
<title>Node10</title>
<g id="a_Node000010"><a xlink:href="FMTexception_8hpp.html" target="_top" xlink:title=" ">
<polygon fill="white" stroke="#666666" points="240.12,-82 143.88,-82 143.88,-62 240.12,-62 240.12,-82"/>
<text text-anchor="middle" x="192" y="-68.5" font-family="Helvetica,sans-Serif" font-size="10.00">FMTexception.hpp</text>
</a>
</g>
</g>
<!-- Node6&#45;&gt;Node10 -->
<g id="edge9_Node000006_Node000010" class="edge">
<title>Node6&#45;&gt;Node10</title>
<g id="a_edge9_Node000006_Node000010"><a xlink:title=" ">
<path fill="none" stroke="#63b8ff" d="M354,-123.62C321.27,-113.4 268.69,-96.97 232.36,-85.61"/>
<polygon fill="#63b8ff" stroke="#63b8ff" points="233.69,-82.05 223.11,-82.41 231.61,-88.73 233.69,-82.05"/>
</a>
</g>
</g>
<!-- Node13 -->
<g id="Node000013" class="node">
<title>Node13</title>
<g id="a_Node000013"><a xlink:title=" ">
<polygon fill="#e0e0e0" stroke="#999999" points="303.62,-82 258.38,-82 258.38,-62 303.62,-62 303.62,-82"/>
<text text-anchor="middle" x="281" y="-68.5" font-family="Helvetica,sans-Serif" font-size="10.00">chrono</text>
</a>
</g>
</g>
<!-- Node6&#45;&gt;Node13 -->
<g id="edge16_Node000006_Node000013" class="edge">
<title>Node6&#45;&gt;Node13</title>
<g id="a_edge16_Node000006_Node000013"><a xlink:title=" ">
<path fill="none" stroke="#63b8ff" d="M367.91,-123.62C351.43,-114.03 325.58,-98.97 306.35,-87.77"/>
<polygon fill="#63b8ff" stroke="#63b8ff" points="308.38,-84.32 297.98,-82.31 304.86,-90.37 308.38,-84.32"/>
</a>
</g>
</g>
<!-- Node14 -->
<g id="Node000014" class="node">
<title>Node14</title>
<g id="a_Node000014"><a xlink:title=" ">
<polygon fill="#e0e0e0" stroke="#999999" points="446.38,-88 321.62,-88 321.62,-56 446.38,-56 446.38,-88"/>
<text text-anchor="start" x="329.62" y="-74.5" font-family="Helvetica,sans-Serif" font-size="10.00">boost/dll/runtime_symbol</text>
<text text-anchor="middle" x="384" y="-62.5" font-family="Helvetica,sans-Serif" font-size="10.00">_info.hpp</text>
</a>
</g>
</g>
<!-- Node6&#45;&gt;Node14 -->
<g id="edge18_Node000006_Node000014" class="edge">
<title>Node6&#45;&gt;Node14</title>
<g id="a_edge18_Node000006_Node000014"><a xlink:title=" ">
<path fill="none" stroke="#63b8ff" d="M384,-123.62C384,-117.02 384,-107.84 384,-99.11"/>
<polygon fill="#63b8ff" stroke="#63b8ff" points="387.5,-99.14 384,-89.14 380.5,-99.14 387.5,-99.14"/>
</a>
</g>
</g>
<!-- Node10&#45;&gt;Node3 -->
<g id="edge11_Node000010_Node000003" class="edge">
<title>Node10&#45;&gt;Node3</title>
<g id="a_edge11_Node000010_Node000003"><a xlink:title=" ">
<path fill="none" stroke="#63b8ff" d="M165.12,-61.62C134.14,-50.82 83.31,-33.09 50.77,-21.73"/>
<polygon fill="#63b8ff" stroke="#63b8ff" points="52.09,-18.14 41.49,-18.15 49.78,-24.75 52.09,-18.14"/>
</a>
</g>
</g>
<!-- Node10&#45;&gt;Node4 -->
<g id="edge13_Node000010_Node000004" class="edge">
<title>Node10&#45;&gt;Node4</title>
<g id="a_edge13_Node000010_Node000004"><a xlink:title=" ">
<path fill="none" stroke="#63b8ff" d="M224.04,-61.5C232.12,-59.4 240.83,-57.39 249,-56 445.87,-22.51 685.76,-13.83 776.17,-11.68"/>
<polygon fill="#63b8ff" stroke="#63b8ff" points="776.02,-15.16 785.94,-11.44 775.86,-8.16 776.02,-15.16"/>
</a>
</g>
</g>
<!-- Node10&#45;&gt;Node5 -->
<g id="edge14_Node000010_Node000005" class="edge">
<title>Node10&#45;&gt;Node5</title>
<g id="a_edge14_Node000010_Node000005"><a xlink:title=" ">
<path fill="none" stroke="#63b8ff" d="M177.62,-61.62C163.04,-52.11 140.24,-37.24 123.12,-26.08"/>
<polygon fill="#63b8ff" stroke="#63b8ff" points="125.56,-22.84 115.27,-20.31 121.74,-28.7 125.56,-22.84"/>
</a>
</g>
</g>
<!-- Node11 -->
<g id="Node000011" class="node">
<title>Node11</title>
<g id="a_Node000011"><a xlink:title=" ">
<polygon fill="#e0e0e0" stroke="#999999" points="216,-20 158,-20 158,0 216,0 216,-20"/>
<text text-anchor="middle" x="187" y="-6.5" font-family="Helvetica,sans-Serif" font-size="10.00">exception</text>
</a>
</g>
</g>
<!-- Node10&#45;&gt;Node11 -->
<g id="edge10_Node000010_Node000011" class="edge">
<title>Node10&#45;&gt;Node11</title>
<g id="a_edge10_Node000010_Node000011"><a xlink:title=" ">
<path fill="none" stroke="#63b8ff" d="M191.22,-61.62C190.54,-53.48 189.53,-41.39 188.67,-31.07"/>
<polygon fill="#63b8ff" stroke="#63b8ff" points="192.08,-30.79 187.76,-21.11 185.1,-31.37 192.08,-30.79"/>
</a>
</g>
</g>
<!-- Node12 -->
<g id="Node000012" class="node">
<title>Node12</title>
<g id="a_Node000012"><a xlink:title=" ">
<polygon fill="#e0e0e0" stroke="#999999" points="287.75,-20 234.25,-20 234.25,0 287.75,0 287.75,-20"/>
<text text-anchor="middle" x="261" y="-6.5" font-family="Helvetica,sans-Serif" font-size="10.00">iostream</text>
</a>
</g>
</g>
<!-- Node10&#45;&gt;Node12 -->
<g id="edge12_Node000010_Node000012" class="edge">
<title>Node10&#45;&gt;Node12</title>
<g id="a_edge12_Node000010_Node000012"><a xlink:title=" ">
<path fill="none" stroke="#63b8ff" d="M202.78,-61.62C213.38,-52.41 229.75,-38.17 242.44,-27.14"/>
<polygon fill="#63b8ff" stroke="#63b8ff" points="244.27,-29.32 249.52,-20.11 239.68,-24.03 244.27,-29.32"/>
</a>
</g>
</g>
</g>
</svg>
