<?xml version="1.0" encoding="UTF-8" standalone="no"?>
<!DOCTYPE svg PUBLIC "-//W3C//DTD SVG 1.1//EN"
 "http://www.w3.org/Graphics/SVG/1.1/DTD/svg11.dtd">
<!-- Generated by graphviz version 10.0.1 (20240210.2158)
 -->
<!-- Title: D:/FMT/Include/FMTmatrixbuild.hpp Pages: 1 -->
<svg width="1124pt" height="308pt"
 viewBox="0.00 0.00 1124.47 308.00" xmlns="http://www.w3.org/2000/svg" xmlns:xlink="http://www.w3.org/1999/xlink">
<g id="graph0" class="graph" transform="scale(1 1) rotate(0) translate(4 304)">
<title>D:/FMT/Include/FMTmatrixbuild.hpp</title>
<!-- Node1 -->
<g id="node1" class="node">
<title>Node1</title>
<g id="a_node1"><a xlink:title=" ">
<polygon fill="#999999" stroke="#666666" points="626.85,-300 456.35,-300 456.35,-280 626.85,-280 626.85,-300"/>
<text text-anchor="middle" x="541.6" y="-286.5" font-family="Helvetica,sans-Serif" font-size="10.00">D:/FMT/Include/FMTmatrixbuild.hpp</text>
</a>
</g>
</g>
<!-- Node2 -->
<g id="node2" class="node">
<title>Node2</title>
<g id="a_node2"><a xlink:href="FMTlpsolver_8hpp.html" target="_top" xlink:title=" ">
<polygon fill="white" stroke="#666666" points="619.35,-244 463.85,-244 463.85,-224 619.35,-224 619.35,-244"/>
<text text-anchor="middle" x="541.6" y="-230.5" font-family="Helvetica,sans-Serif" font-size="10.00">D:/FMT/Include/FMTlpsolver.hpp</text>
</a>
</g>
</g>
<!-- Node1&#45;&gt;Node2 -->
<g id="edge1" class="edge">
<title>Node1&#45;&gt;Node2</title>
<path fill="none" stroke="#63b8ff" d="M541.6,-268.13C541.6,-259.9 541.6,-250.85 541.6,-244.3"/>
<polygon fill="#63b8ff" stroke="#63b8ff" points="538.1,-268.08 541.6,-278.08 545.1,-268.08 538.1,-268.08"/>
</g>
<!-- Node3 -->
<g id="node3" class="node">
<title>Node3</title>
<g id="a_node3"><a xlink:href="FMTlpheuristic_8hpp.html" target="_top" xlink:title=" ">
<polygon fill="white" stroke="#666666" points="233.35,-188 65.85,-188 65.85,-168 233.35,-168 233.35,-188"/>
<text text-anchor="middle" x="149.6" y="-174.5" font-family="Helvetica,sans-Serif" font-size="10.00">D:/FMT/Include/FMTlpheuristic.hpp</text>
</a>
</g>
</g>
<!-- Node2&#45;&gt;Node3 -->
<g id="edge2" class="edge">
<title>Node2&#45;&gt;Node3</title>
<path fill="none" stroke="#63b8ff" d="M461.67,-221.99C390.07,-212.13 286.17,-197.81 218.25,-188.46"/>
<polygon fill="#63b8ff" stroke="#63b8ff" points="460.99,-225.43 471.37,-223.33 461.94,-218.49 460.99,-225.43"/>
</g>
<!-- Node5 -->
<g id="node5" class="node">
<title>Node5</title>
<g id="a_node5"><a xlink:href="PYexportHeuristics_8hpp.html" target="_top" xlink:title=" ">
<polygon fill="white" stroke="#666666" points="315.47,-20 127.72,-20 127.72,0 315.47,0 315.47,-20"/>
<text text-anchor="middle" x="221.6" y="-6.5" font-family="Helvetica,sans-Serif" font-size="10.00">D:/FMT/Include/PYexportHeuristics.hpp</text>
</a>
</g>
</g>
<!-- Node2&#45;&gt;Node5 -->
<g id="edge25" class="edge">
<title>Node2&#45;&gt;Node5</title>
<path fill="none" stroke="#63b8ff" d="M452.29,-232.26C331.68,-229.99 124.03,-221.2 56.6,-188 26.13,-173 17.01,-163.61 4.6,-132 -21.69,-65.05 78.34,-33.98 151.28,-20.45"/>
<polygon fill="#63b8ff" stroke="#63b8ff" points="452.11,-235.76 462.17,-232.44 452.23,-228.76 452.11,-235.76"/>
</g>
<!-- Node6 -->
<g id="node6" class="node">
<title>Node6</title>
<g id="a_node6"><a xlink:href="RexportHeuristics_8hpp.html" target="_top" xlink:title=" ">
<polygon fill="white" stroke="#666666" points="312.1,-76 131.1,-76 131.1,-56 312.1,-56 312.1,-76"/>
<text text-anchor="middle" x="221.6" y="-62.5" font-family="Helvetica,sans-Serif" font-size="10.00">D:/FMT/Include/RexportHeuristics.hpp</text>
</a>
</g>
</g>
<!-- Node2&#45;&gt;Node6 -->
<g id="edge28" class="edge">
<title>Node2&#45;&gt;Node6</title>
<path fill="none" stroke="#63b8ff" d="M489.87,-220.64C434.63,-205.76 346.18,-177.01 280.6,-132 257.73,-116.3 237.56,-90.07 227.81,-76.22"/>
<polygon fill="#63b8ff" stroke="#63b8ff" points="488.78,-223.97 499.34,-223.13 490.56,-217.2 488.78,-223.97"/>
</g>
<!-- Node9 -->
<g id="node9" class="node">
<title>Node9</title>
<g id="a_node9"><a xlink:href="Rdeclarations_8hpp.html" target="_top" xlink:title=" ">
<polygon fill="white" stroke="#666666" points="728.1,-76 565.1,-76 565.1,-56 728.1,-56 728.1,-76"/>
<text text-anchor="middle" x="646.6" y="-62.5" font-family="Helvetica,sans-Serif" font-size="10.00">D:/FMT/Include/Rdeclarations.hpp</text>
</a>
</g>
</g>
<!-- Node2&#45;&gt;Node9 -->
<g id="edge27" class="edge">
<title>Node2&#45;&gt;Node9</title>
<path fill="none" stroke="#63b8ff" d="M553.68,-213.9C576.25,-178.22 624.05,-102.65 640.72,-76.3"/>
<polygon fill="#63b8ff" stroke="#63b8ff" points="550.74,-212 548.35,-222.32 556.66,-215.74 550.74,-212"/>
</g>
<!-- Node10 -->
<g id="node10" class="node">
<title>Node10</title>
<g id="a_node10"><a xlink:href="FMTsrmodel_8hpp.html" target="_top" xlink:title=" ">
<polygon fill="white" stroke="#666666" points="857.47,-188 699.72,-188 699.72,-168 857.47,-168 857.47,-188"/>
<text text-anchor="middle" x="778.6" y="-174.5" font-family="Helvetica,sans-Serif" font-size="10.00">D:/FMT/Include/FMTsrmodel.hpp</text>
</a>
</g>
</g>
<!-- Node2&#45;&gt;Node10 -->
<g id="edge12" class="edge">
<title>Node2&#45;&gt;Node10</title>
<path fill="none" stroke="#63b8ff" d="M594.26,-221C637.33,-211.19 697.38,-197.51 737.09,-188.46"/>
<polygon fill="#63b8ff" stroke="#63b8ff" points="593.6,-217.56 584.63,-223.2 595.16,-224.39 593.6,-217.56"/>
</g>
<!-- Node12 -->
<g id="node12" class="node">
<title>Node12</title>
<g id="a_node12"><a xlink:href="PYexportModel_8hpp.html" target="_top" xlink:title=" ">
<polygon fill="white" stroke="#666666" points="916.85,-76 746.35,-76 746.35,-56 916.85,-56 916.85,-76"/>
<text text-anchor="middle" x="831.6" y="-62.5" font-family="Helvetica,sans-Serif" font-size="10.00">D:/FMT/Include/PYexportModel.hpp</text>
</a>
</g>
</g>
<!-- Node2&#45;&gt;Node12 -->
<g id="edge26" class="edge">
<title>Node2&#45;&gt;Node12</title>
<path fill="none" stroke="#63b8ff" d="M561.51,-216.41C570.6,-208.32 581.2,-198.17 589.6,-188 615.04,-157.2 605.03,-135.14 637.6,-112 658.39,-97.23 719.62,-84.54 767.8,-76.44"/>
<polygon fill="#63b8ff" stroke="#63b8ff" points="559.47,-213.54 554.2,-222.73 564.05,-218.84 559.47,-213.54"/>
</g>
<!-- Node13 -->
<g id="node13" class="node">
<title>Node13</title>
<g id="a_node13"><a xlink:href="RexportModel_8hpp.html" target="_top" xlink:title=" ">
<polygon fill="white" stroke="#666666" points="1116.47,-76 952.72,-76 952.72,-56 1116.47,-56 1116.47,-76"/>
<text text-anchor="middle" x="1034.6" y="-62.5" font-family="Helvetica,sans-Serif" font-size="10.00">D:/FMT/Include/RexportModel.hpp</text>
</a>
</g>
</g>
<!-- Node2&#45;&gt;Node13 -->
<g id="edge29" class="edge">
<title>Node2&#45;&gt;Node13</title>
<path fill="none" stroke="#63b8ff" d="M631.06,-229.18C763.77,-221.35 1002.47,-198.2 1051.6,-132 1064.11,-115.14 1050.62,-89.85 1041.51,-76.33"/>
<polygon fill="#63b8ff" stroke="#63b8ff" points="631.03,-225.68 621.24,-229.74 631.43,-232.67 631.03,-225.68"/>
</g>
<!-- Node4 -->
<g id="node4" class="node">
<title>Node4</title>
<g id="a_node4"><a xlink:href="FMToperatingareaclusterer_8hpp.html" target="_top" xlink:title=" ">
<polygon fill="white" stroke="#666666" points="233.22,-132 13.97,-132 13.97,-112 233.22,-112 233.22,-132"/>
<text text-anchor="middle" x="123.6" y="-118.5" font-family="Helvetica,sans-Serif" font-size="10.00">D:/FMT/Include/FMToperatingareaclusterer.hpp</text>
</a>
</g>
</g>
<!-- Node3&#45;&gt;Node4 -->
<g id="edge3" class="edge">
<title>Node3&#45;&gt;Node4</title>
<path fill="none" stroke="#63b8ff" d="M140.11,-157.29C136,-148.75 131.38,-139.16 128.08,-132.3"/>
<polygon fill="#63b8ff" stroke="#63b8ff" points="136.92,-158.74 144.41,-166.23 143.23,-155.7 136.92,-158.74"/>
</g>
<!-- Node7 -->
<g id="node7" class="node">
<title>Node7</title>
<g id="a_node7"><a xlink:href="FMToperatingareascheduler_8hpp.html" target="_top" xlink:title=" ">
<polygon fill="white" stroke="#666666" points="513.47,-132 289.72,-132 289.72,-112 513.47,-112 513.47,-132"/>
<text text-anchor="middle" x="401.6" y="-118.5" font-family="Helvetica,sans-Serif" font-size="10.00">D:/FMT/Include/FMToperatingareascheduler.hpp</text>
</a>
</g>
</g>
<!-- Node3&#45;&gt;Node7 -->
<g id="edge6" class="edge">
<title>Node3&#45;&gt;Node7</title>
<path fill="none" stroke="#63b8ff" d="M205.01,-165.13C250.84,-155.31 315.06,-141.54 357.47,-132.46"/>
<polygon fill="#63b8ff" stroke="#63b8ff" points="204.31,-161.7 195.26,-167.21 205.77,-168.54 204.31,-161.7"/>
</g>
<!-- Node4&#45;&gt;Node5 -->
<g id="edge4" class="edge">
<title>Node4&#45;&gt;Node5</title>
<path fill="none" stroke="#63b8ff" d="M117.4,-101C114.4,-87.27 113.06,-69.2 121.6,-56 133.33,-37.85 154.32,-26.95 174.05,-20.44"/>
<polygon fill="#63b8ff" stroke="#63b8ff" points="113.91,-101.5 119.87,-110.26 120.68,-99.7 113.91,-101.5"/>
</g>
<!-- Node4&#45;&gt;Node6 -->
<g id="edge5" class="edge">
<title>Node4&#45;&gt;Node6</title>
<path fill="none" stroke="#63b8ff" d="M150.68,-106.08C167.85,-96.62 189.55,-84.66 204.4,-76.48"/>
<polygon fill="#63b8ff" stroke="#63b8ff" points="149.06,-102.97 141.99,-110.86 152.44,-109.1 149.06,-102.97"/>
</g>
<!-- Node7&#45;&gt;Node5 -->
<g id="edge9" class="edge">
<title>Node7&#45;&gt;Node5</title>
<path fill="none" stroke="#63b8ff" d="M383.43,-104.22C367.63,-90.17 343.71,-70.21 320.6,-56 296.8,-41.36 267.43,-28.61 246.88,-20.45"/>
<polygon fill="#63b8ff" stroke="#63b8ff" points="380.84,-106.59 390.61,-110.7 385.53,-101.4 380.84,-106.59"/>
</g>
<!-- Node7&#45;&gt;Node6 -->
<g id="edge11" class="edge">
<title>Node7&#45;&gt;Node6</title>
<path fill="none" stroke="#63b8ff" d="M359.28,-108.31C326.8,-98.56 282.65,-85.32 253.2,-76.48"/>
<polygon fill="#63b8ff" stroke="#63b8ff" points="358.21,-111.64 368.8,-111.16 360.22,-104.93 358.21,-111.64"/>
</g>
<!-- Node8 -->
<g id="node8" class="node">
<title>Node8</title>
<g id="a_node8"><a xlink:href="FMTpythonpickle_8hpp.html" target="_top" xlink:title=" ">
<polygon fill="white" stroke="#666666" points="546.6,-76 368.6,-76 368.6,-56 546.6,-56 546.6,-76"/>
<text text-anchor="middle" x="457.6" y="-62.5" font-family="Helvetica,sans-Serif" font-size="10.00">D:/FMT/Include/FMTpythonpickle.hpp</text>
</a>
</g>
</g>
<!-- Node7&#45;&gt;Node8 -->
<g id="edge7" class="edge">
<title>Node7&#45;&gt;Node8</title>
<path fill="none" stroke="#63b8ff" d="M419.39,-103.85C428.85,-94.72 440.12,-83.86 447.96,-76.3"/>
<polygon fill="#63b8ff" stroke="#63b8ff" points="417.21,-101.08 412.44,-110.54 422.07,-106.12 417.21,-101.08"/>
</g>
<!-- Node7&#45;&gt;Node9 -->
<g id="edge10" class="edge">
<title>Node7&#45;&gt;Node9</title>
<path fill="none" stroke="#63b8ff" d="M455.76,-109.06C500.29,-99.25 562.55,-85.52 603.69,-76.46"/>
<polygon fill="#63b8ff" stroke="#63b8ff" points="455.05,-105.64 446.03,-111.21 456.55,-112.47 455.05,-105.64"/>
</g>
<!-- Node8&#45;&gt;Node5 -->
<g id="edge8" class="edge">
<title>Node8&#45;&gt;Node5</title>
<path fill="none" stroke="#63b8ff" d="M405.16,-53C362.28,-43.19 302.47,-29.51 262.93,-20.46"/>
<polygon fill="#63b8ff" stroke="#63b8ff" points="404.22,-56.38 414.75,-55.19 405.78,-49.55 404.22,-56.38"/>
</g>
<!-- Node10&#45;&gt;Node9 -->
<g id="edge23" class="edge">
<title>Node10&#45;&gt;Node9</title>
<path fill="none" stroke="#63b8ff" d="M688.5,-166.32C668.67,-159.58 649.93,-148.88 637.6,-132 625.5,-115.44 634.87,-90.03 641.49,-76.41"/>
<polygon fill="#63b8ff" stroke="#63b8ff" points="687.23,-169.59 697.82,-169.14 689.26,-162.89 687.23,-169.59"/>
</g>
<!-- Node11 -->
<g id="node11" class="node">
<title>Node11</title>
<g id="a_node11"><a xlink:href="FMTlpmodel_8hpp.html" target="_top" xlink:title=" ">
<polygon fill="white" stroke="#666666" points="803.1,-132 646.1,-132 646.1,-112 803.1,-112 803.1,-132"/>
<text text-anchor="middle" x="724.6" y="-118.5" font-family="Helvetica,sans-Serif" font-size="10.00">D:/FMT/Include/FMTlpmodel.hpp</text>
</a>
</g>
</g>
<!-- Node10&#45;&gt;Node11 -->
<g id="edge13" class="edge">
<title>Node10&#45;&gt;Node11</title>
<path fill="none" stroke="#63b8ff" d="M761.17,-159.57C752.1,-150.5 741.38,-139.78 733.9,-132.3"/>
<polygon fill="#63b8ff" stroke="#63b8ff" points="758.58,-161.93 768.12,-166.52 763.53,-156.98 758.58,-161.93"/>
</g>
<!-- Node10&#45;&gt;Node12 -->
<g id="edge22" class="edge">
<title>Node10&#45;&gt;Node12</title>
<path fill="none" stroke="#63b8ff" d="M794.53,-159.06C800.87,-151.19 807.78,-141.58 812.6,-132 822,-113.3 827.51,-89.18 830,-76.22"/>
<polygon fill="#63b8ff" stroke="#63b8ff" points="792.01,-156.62 788.24,-166.52 797.36,-161.13 792.01,-156.62"/>
</g>
<!-- Node10&#45;&gt;Node13 -->
<g id="edge24" class="edge">
<title>Node10&#45;&gt;Node13</title>
<path fill="none" stroke="#63b8ff" d="M868.93,-173.12C933.85,-168.22 1013.51,-157.12 1034.6,-132 1047.8,-116.27 1042.23,-90.05 1037.91,-76.21"/>
<polygon fill="#63b8ff" stroke="#63b8ff" points="869.06,-169.6 859.33,-173.81 869.55,-176.59 869.06,-169.6"/>
</g>
<!-- Node14 -->
<g id="node14" class="node">
<title>Node14</title>
<g id="a_node14"><a xlink:href="FMTnssmodel_8hpp.html" target="_top" xlink:title=" ">
<polygon fill="white" stroke="#666666" points="1025.22,-132 859.97,-132 859.97,-112 1025.22,-112 1025.22,-132"/>
<text text-anchor="middle" x="942.6" y="-118.5" font-family="Helvetica,sans-Serif" font-size="10.00">D:/FMT/Include/FMTnssmodel.hpp</text>
</a>
</g>
</g>
<!-- Node10&#45;&gt;Node14 -->
<g id="edge18" class="edge">
<title>Node10&#45;&gt;Node14</title>
<path fill="none" stroke="#63b8ff" d="M817.93,-164.05C847.45,-154.33 887.21,-141.24 913.81,-132.48"/>
<polygon fill="#63b8ff" stroke="#63b8ff" points="817.01,-160.67 808.6,-167.12 819.2,-167.32 817.01,-160.67"/>
</g>
<!-- Node11&#45;&gt;Node8 -->
<g id="edge14" class="edge">
<title>Node11&#45;&gt;Node8</title>
<path fill="none" stroke="#63b8ff" d="M666.5,-109.25C617.91,-99.42 549.48,-85.58 504.36,-76.46"/>
<polygon fill="#63b8ff" stroke="#63b8ff" points="665.81,-112.68 676.3,-111.23 667.19,-105.82 665.81,-112.68"/>
</g>
<!-- Node11&#45;&gt;Node9 -->
<g id="edge16" class="edge">
<title>Node11&#45;&gt;Node9</title>
<path fill="none" stroke="#63b8ff" d="M701.88,-105.27C688.41,-95.94 671.77,-84.43 660.29,-76.48"/>
<polygon fill="#63b8ff" stroke="#63b8ff" points="699.55,-107.92 709.77,-110.73 703.54,-102.16 699.55,-107.92"/>
</g>
<!-- Node11&#45;&gt;Node12 -->
<g id="edge15" class="edge">
<title>Node11&#45;&gt;Node12</title>
<path fill="none" stroke="#63b8ff" d="M753.37,-106.48C772.24,-96.96 796.38,-84.78 812.82,-76.48"/>
<polygon fill="#63b8ff" stroke="#63b8ff" points="751.94,-103.28 744.59,-110.91 755.09,-109.53 751.94,-103.28"/>
</g>
<!-- Node11&#45;&gt;Node13 -->
<g id="edge17" class="edge">
<title>Node11&#45;&gt;Node13</title>
<path fill="none" stroke="#63b8ff" d="M790.27,-109.56C846.79,-99.71 927.37,-85.68 980.31,-76.46"/>
<polygon fill="#63b8ff" stroke="#63b8ff" points="789.69,-106.11 780.44,-111.27 790.89,-113 789.69,-106.11"/>
</g>
<!-- Node14&#45;&gt;Node9 -->
<g id="edge20" class="edge">
<title>Node14&#45;&gt;Node9</title>
<path fill="none" stroke="#63b8ff" d="M879.55,-109.5C825.6,-99.66 748.88,-85.66 698.44,-76.46"/>
<polygon fill="#63b8ff" stroke="#63b8ff" points="878.75,-112.91 889.21,-111.26 880,-106.02 878.75,-112.91"/>
</g>
<!-- Node14&#45;&gt;Node12 -->
<g id="edge19" class="edge">
<title>Node14&#45;&gt;Node12</title>
<path fill="none" stroke="#63b8ff" d="M913.03,-106.61C893.41,-97.07 868.22,-84.81 851.08,-76.48"/>
<polygon fill="#63b8ff" stroke="#63b8ff" points="911.38,-109.7 921.9,-110.93 914.44,-103.41 911.38,-109.7"/>
</g>
<!-- Node14&#45;&gt;Node13 -->
<g id="edge21" class="edge">
<title>Node14&#45;&gt;Node13</title>
<path fill="none" stroke="#63b8ff" d="M968.48,-105.81C984.52,-96.39 1004.64,-84.58 1018.45,-76.48"/>
<polygon fill="#63b8ff" stroke="#63b8ff" points="966.78,-102.75 959.93,-110.83 970.33,-108.78 966.78,-102.75"/>
</g>
</g>
</svg>
