<?xml version="1.0" encoding="UTF-8" standalone="no"?>
<!DOCTYPE svg PUBLIC "-//W3C//DTD SVG 1.1//EN"
 "http://www.w3.org/Graphics/SVG/1.1/DTD/svg11.dtd">
<!-- Generated by graphviz version 8.1.0 (20230707.0739)
 -->
<!-- Title: C:/Temp/out/FMT/Include/FMToperatingareaclusterbinary.hpp Pages: 1 -->
<!--zoomable 276 -->

<svg id="main" version="1.1" xmlns="http://www.w3.org/2000/svg" xmlns:xlink="http://www.w3.org/1999/xlink" xml:space="preserve" onload="init(evt)">
<style type="text/css"><![CDATA[
.node, .edge {opacity: 0.7;}
.node.selected, .edge.selected {opacity: 1;}
.edge:hover path { stroke: red; }
.edge:hover polygon { stroke: red; fill: red; }
]]></style>

<defs>
  <circle id="rim" cx="0" cy="0" r="7"/>
  <circle id="rim2" cx="0" cy="0" r="3.5"/>
  <g id="zoomPlus">
    <use xlink:href="#rim" fill="#404040"><set attributeName="fill" to="#808080" begin="zoomplus.mouseover" end="zoomplus.mouseout"/></use>
    <path d="M-4,0h8M0,-4v8" fill="none" stroke="white" stroke-width="1.5" pointer-events="none"/>
  </g>
  <g id="zoomMin">
    <use xlink:href="#rim" fill="#404040"><set attributeName="fill" to="#808080" begin="zoomminus.mouseover" end="zoomminus.mouseout"/></use>
    <path d="M-4,0h8" fill="none" stroke="white" stroke-width="1.5" pointer-events="none"/>
  </g>
  <g id="arrowUp" transform="translate(30 24)">
    <use xlink:href="#rim"/>
    <path pointer-events="none" fill="none" stroke="white" stroke-width="1.5" d="M0,-3.0v7 M-2.5,-0.5L0,-3.0L2.5,-0.5"/>
  </g>
  <g id="arrowRight" transform="rotate(90) translate(36 -43)">
    <use xlink:href="#rim"/>
    <path pointer-events="none" fill="none" stroke="white" stroke-width="1.5" d="M0,-3.0v7 M-2.5,-0.5L0,-3.0L2.5,-0.5"/>
  </g>
  <g id="arrowDown" transform="rotate(180) translate(-30 -48)">
    <use xlink:href="#rim"/>
    <path pointer-events="none" fill="none" stroke="white" stroke-width="1.5" d="M0,-3.0v7 M-2.5,-0.5L0,-3.0L2.5,-0.5"/>
  </g>
  <g id="arrowLeft" transform="rotate(270) translate(-36 17)">
    <use xlink:href="#rim"/>
    <path pointer-events="none" fill="none" stroke="white" stroke-width="1.5" d="M0,-3.0v7 M-2.5,-0.5L0,-3.0L2.5,-0.5"/>
  </g>
  <g id="resetDef">
    <use xlink:href="#rim2" fill="#404040"><set attributeName="fill" to="#808080" begin="reset.mouseover" end="reset.mouseout"/></use>
  </g>
</defs>
<script type="application/ecmascript">
var viewWidth = 1515;
var viewHeight = 276;
var sectionId = 'dynsection-0';
</script>
<script type="application/ecmascript" xlink:href="svg.min.js"/>
<svg id="graph" class="graph">
<g id="viewport">
<title>C:/Temp/out/FMT/Include/FMToperatingareaclusterbinary.hpp</title>
<!-- Node1 -->
<g id="Node000001" class="node">
<title>Node1</title>
<g id="a_Node000001"><a xlink:title=" ">
<polygon fill="#999999" stroke="#666666" points="823,-268 651.75,-268 651.75,-236 823,-236 823,-268"/>
<text text-anchor="start" x="659.75" y="-254.5" font-family="Helvetica,sans-Serif" font-size="10.00">C:/Temp/out/FMT/Include</text>
<text text-anchor="middle" x="737.38" y="-242.5" font-family="Helvetica,sans-Serif" font-size="10.00">/FMToperatingareaclusterbinary.hpp</text>
</a>
</g>
</g>
<!-- Node2 -->
<g id="Node000002" class="node">
<title>Node2</title>
<g id="a_Node000002"><a xlink:title=" ">
<polygon fill="#e0e0e0" stroke="#999999" points="1506.75,-88 1412,-88 1412,-56 1506.75,-56 1506.75,-88"/>
<text text-anchor="start" x="1420" y="-74.5" font-family="Helvetica,sans-Serif" font-size="10.00">boost/serialization</text>
<text text-anchor="middle" x="1459.38" y="-62.5" font-family="Helvetica,sans-Serif" font-size="10.00">/serialization.hpp</text>
</a>
</g>
</g>
<!-- Node1&#45;&gt;Node2 -->
<g id="edge1_Node000001_Node000002" class="edge">
<title>Node1&#45;&gt;Node2</title>
<g id="a_edge1_Node000001_Node000002"><a xlink:title=" ">
<path fill="none" stroke="#63b8ff" d="M806.47,-235.54C850.32,-225.62 908.25,-212.33 959.38,-200 1153.42,-153.19 1204.01,-139.21 1401.37,-88.25"/>
<polygon fill="#63b8ff" stroke="#63b8ff" points="1401.99,-91.45 1410.8,-85.56 1400.24,-84.67 1401.99,-91.45"/>
</a>
</g>
</g>
<!-- Node3 -->
<g id="Node000003" class="node">
<title>Node3</title>
<g id="a_Node000003"><a xlink:title=" ">
<polygon fill="#e0e0e0" stroke="#999999" points="94.75,-88 0,-88 0,-56 94.75,-56 94.75,-88"/>
<text text-anchor="start" x="8" y="-74.5" font-family="Helvetica,sans-Serif" font-size="10.00">boost/serialization</text>
<text text-anchor="middle" x="47.38" y="-62.5" font-family="Helvetica,sans-Serif" font-size="10.00">/nvp.hpp</text>
</a>
</g>
</g>
<!-- Node1&#45;&gt;Node3 -->
<g id="edge2_Node000001_Node000003" class="edge">
<title>Node1&#45;&gt;Node3</title>
<g id="a_edge2_Node000001_Node000003"><a xlink:title=" ">
<path fill="none" stroke="#63b8ff" d="M651.3,-246.85C494.15,-237.7 168.79,-211.02 80.38,-144 65.99,-133.1 57.65,-114.41 52.95,-98.94"/>
<polygon fill="#63b8ff" stroke="#63b8ff" points="56.1,-98.16 50.14,-89.4 49.34,-99.96 56.1,-98.16"/>
</a>
</g>
</g>
<!-- Node4 -->
<g id="Node000004" class="node">
<title>Node4</title>
<g id="a_Node000004"><a xlink:title=" ">
<polygon fill="#e0e0e0" stroke="#999999" points="1393.75,-88 1299,-88 1299,-56 1393.75,-56 1393.75,-88"/>
<text text-anchor="start" x="1307" y="-74.5" font-family="Helvetica,sans-Serif" font-size="10.00">boost/serialization</text>
<text text-anchor="middle" x="1346.38" y="-62.5" font-family="Helvetica,sans-Serif" font-size="10.00">/export.hpp</text>
</a>
</g>
</g>
<!-- Node1&#45;&gt;Node4 -->
<g id="edge3_Node000001_Node000004" class="edge">
<title>Node1&#45;&gt;Node4</title>
<g id="a_edge3_Node000001_Node000004"><a xlink:title=" ">
<path fill="none" stroke="#63b8ff" d="M790.35,-235.52C903.98,-202.3 1170.34,-124.45 1288.34,-89.96"/>
<polygon fill="#63b8ff" stroke="#63b8ff" points="1289,-93.12 1297.61,-86.96 1287.03,-86.41 1289,-93.12"/>
</a>
</g>
</g>
<!-- Node5 -->
<g id="Node000005" class="node">
<title>Node5</title>
<g id="a_Node000005"><a xlink:href="FMToperatingarea_8hpp.html" target="_top" xlink:title=" ">
<polygon fill="white" stroke="#666666" points="688.75,-200 576,-200 576,-180 688.75,-180 688.75,-200"/>
<text text-anchor="middle" x="632.38" y="-186.5" font-family="Helvetica,sans-Serif" font-size="10.00">FMToperatingarea.hpp</text>
</a>
</g>
</g>
<!-- Node1&#45;&gt;Node5 -->
<g id="edge4_Node000001_Node000005" class="edge">
<title>Node1&#45;&gt;Node5</title>
<g id="a_edge4_Node000001_Node000005"><a xlink:title=" ">
<path fill="none" stroke="#63b8ff" d="M710.33,-235.55C694.23,-226.35 673.91,-214.74 658.06,-205.68"/>
<polygon fill="#63b8ff" stroke="#63b8ff" points="660.26,-202.33 649.84,-200.41 656.78,-208.41 660.26,-202.33"/>
</a>
</g>
</g>
<!-- Node5&#45;&gt;Node2 -->
<g id="edge27_Node000005_Node000002" class="edge">
<title>Node5&#45;&gt;Node2</title>
<g id="a_edge27_Node000005_Node000002"><a xlink:title=" ">
<path fill="none" stroke="#63b8ff" d="M688.81,-184.07C815.02,-172.52 1129.65,-140.77 1401.13,-88.09"/>
<polygon fill="#63b8ff" stroke="#63b8ff" points="1401.44,-91.4 1410.58,-86.05 1400.1,-84.53 1401.44,-91.4"/>
</a>
</g>
</g>
<!-- Node5&#45;&gt;Node3 -->
<g id="edge28_Node000005_Node000003" class="edge">
<title>Node5&#45;&gt;Node3</title>
<g id="a_edge28_Node000005_Node000003"><a xlink:title=" ">
<path fill="none" stroke="#63b8ff" d="M575.81,-189.46C457.61,-189.58 188.73,-185.16 108.38,-144 88.18,-133.66 71.87,-113.48 61.22,-97.27"/>
<polygon fill="#63b8ff" stroke="#63b8ff" points="63.87,-95.92 55.61,-89.29 57.94,-99.63 63.87,-95.92"/>
</a>
</g>
</g>
<!-- Node5&#45;&gt;Node4 -->
<g id="edge29_Node000005_Node000004" class="edge">
<title>Node5&#45;&gt;Node4</title>
<g id="a_edge29_Node000005_Node000004"><a xlink:title=" ">
<path fill="none" stroke="#63b8ff" d="M678.61,-179.54C746.05,-165.96 875.47,-140.73 986.38,-124 1117.49,-104.22 1154.88,-113.18 1287.92,-88.32"/>
<polygon fill="#63b8ff" stroke="#63b8ff" points="1288.35,-91.61 1297.52,-86.3 1287.04,-84.73 1288.35,-91.61"/>
</a>
</g>
</g>
<!-- Node6 -->
<g id="Node000006" class="node">
<title>Node6</title>
<g id="a_Node000006"><a xlink:href="FMTmask_8hpp.html" target="_top" xlink:title=" ">
<polygon fill="white" stroke="#666666" points="705.5,-144 627.25,-144 627.25,-124 705.5,-124 705.5,-144"/>
<text text-anchor="middle" x="666.38" y="-130.5" font-family="Helvetica,sans-Serif" font-size="10.00">FMTmask.hpp</text>
</a>
</g>
</g>
<!-- Node5&#45;&gt;Node6 -->
<g id="edge5_Node000005_Node000006" class="edge">
<title>Node5&#45;&gt;Node6</title>
<g id="a_edge5_Node000005_Node000006"><a xlink:title=" ">
<path fill="none" stroke="#63b8ff" d="M638.3,-179.59C642.83,-172.39 649.23,-162.23 654.77,-153.43"/>
<polygon fill="#63b8ff" stroke="#63b8ff" points="658.15,-155.63 660.52,-145.3 652.23,-151.9 658.15,-155.63"/>
</a>
</g>
</g>
<!-- Node18 -->
<g id="Node000018" class="node">
<title>Node18</title>
<g id="a_Node000018"><a xlink:title=" ">
<polygon fill="#e0e0e0" stroke="#999999" points="350,-20 298.75,-20 298.75,0 350,0 350,-20"/>
<text text-anchor="middle" x="324.38" y="-6.5" font-family="Helvetica,sans-Serif" font-size="10.00">memory</text>
</a>
</g>
</g>
<!-- Node5&#45;&gt;Node18 -->
<g id="edge26_Node000005_Node000018" class="edge">
<title>Node5&#45;&gt;Node18</title>
<g id="a_edge26_Node000005_Node000018"><a xlink:title=" ">
<path fill="none" stroke="#63b8ff" d="M575.68,-186.02C458.43,-178.56 195.68,-154.61 141.38,-88 99.58,-36.73 223.27,-19.06 287.84,-13.42"/>
<polygon fill="#63b8ff" stroke="#63b8ff" points="287.72,-16.86 297.41,-12.56 287.16,-9.89 287.72,-16.86"/>
</a>
</g>
</g>
<!-- Node20 -->
<g id="Node000020" class="node">
<title>Node20</title>
<g id="a_Node000020"><a xlink:title=" ">
<polygon fill="#e0e0e0" stroke="#999999" points="192.12,-82 150.62,-82 150.62,-62 192.12,-62 192.12,-82"/>
<text text-anchor="middle" x="171.38" y="-68.5" font-family="Helvetica,sans-Serif" font-size="10.00">vector</text>
</a>
</g>
</g>
<!-- Node5&#45;&gt;Node20 -->
<g id="edge24_Node000005_Node000020" class="edge">
<title>Node5&#45;&gt;Node20</title>
<g id="a_edge24_Node000005_Node000020"><a xlink:title=" ">
<path fill="none" stroke="#63b8ff" d="M628.14,-179.94C620.76,-165.3 604.02,-136.78 580.38,-124 431.51,-43.57 364.03,-134.63 201.38,-88 200.05,-87.62 198.72,-87.18 197.39,-86.7"/>
<polygon fill="#63b8ff" stroke="#63b8ff" points="199,-83.16 188.44,-82.39 196.22,-89.58 199,-83.16"/>
</a>
</g>
</g>
<!-- Node21 -->
<g id="Node000021" class="node">
<title>Node21</title>
<g id="a_Node000021"><a xlink:title=" ">
<polygon fill="#e0e0e0" stroke="#999999" points="571.75,-144 537,-144 537,-124 571.75,-124 571.75,-144"/>
<text text-anchor="middle" x="554.38" y="-130.5" font-family="Helvetica,sans-Serif" font-size="10.00">map</text>
</a>
</g>
</g>
<!-- Node5&#45;&gt;Node21 -->
<g id="edge25_Node000005_Node000021" class="edge">
<title>Node5&#45;&gt;Node21</title>
<g id="a_edge25_Node000005_Node000021"><a xlink:title=" ">
<path fill="none" stroke="#63b8ff" d="M618.79,-179.59C607.23,-171.59 590.39,-159.93 576.83,-150.54"/>
<polygon fill="#63b8ff" stroke="#63b8ff" points="579.28,-147.29 569.07,-144.48 575.3,-153.05 579.28,-147.29"/>
</a>
</g>
</g>
<!-- Node6&#45;&gt;Node2 -->
<g id="edge11_Node000006_Node000002" class="edge">
<title>Node6&#45;&gt;Node2</title>
<g id="a_edge11_Node000006_Node000002"><a xlink:title=" ">
<path fill="none" stroke="#63b8ff" d="M705.58,-131.62C834.64,-126.92 1246.26,-110.65 1400.94,-87.94"/>
<polygon fill="#63b8ff" stroke="#63b8ff" points="1401.28,-91.27 1410.63,-86.29 1400.21,-84.36 1401.28,-91.27"/>
</a>
</g>
</g>
<!-- Node6&#45;&gt;Node3 -->
<g id="edge13_Node000006_Node000003" class="edge">
<title>Node6&#45;&gt;Node3</title>
<g id="a_edge13_Node000006_Node000003"><a xlink:title=" ">
<path fill="none" stroke="#63b8ff" d="M627.01,-128.69C612.37,-127.14 595.62,-125.42 580.38,-124 385.46,-105.81 335.73,-111.44 141.38,-88 129.82,-86.61 117.5,-84.84 105.73,-83.02"/>
<polygon fill="#63b8ff" stroke="#63b8ff" points="106.52,-79.45 96.1,-81.34 105.43,-86.36 106.52,-79.45"/>
</a>
</g>
</g>
<!-- Node6&#45;&gt;Node4 -->
<g id="edge14_Node000006_Node000004" class="edge">
<title>Node6&#45;&gt;Node4</title>
<g id="a_edge14_Node000006_Node000004"><a xlink:title=" ">
<path fill="none" stroke="#63b8ff" d="M705.7,-131.14C821.01,-125.55 1157.86,-108.09 1288.06,-88.14"/>
<polygon fill="#63b8ff" stroke="#63b8ff" points="1288.23,-91.5 1297.55,-86.45 1287.12,-84.59 1288.23,-91.5"/>
</a>
</g>
</g>
<!-- Node7 -->
<g id="Node000007" class="node">
<title>Node7</title>
<g id="a_Node000007"><a xlink:title=" ">
<polygon fill="#e0e0e0" stroke="#999999" points="860.25,-82 732.5,-82 732.5,-62 860.25,-62 860.25,-82"/>
<text text-anchor="middle" x="796.38" y="-68.5" font-family="Helvetica,sans-Serif" font-size="10.00">boost/dynamic_bitset.hpp</text>
</a>
</g>
</g>
<!-- Node6&#45;&gt;Node7 -->
<g id="edge6_Node000006_Node000007" class="edge">
<title>Node6&#45;&gt;Node7</title>
<g id="a_edge6_Node000006_Node000007"><a xlink:title=" ">
<path fill="none" stroke="#63b8ff" d="M686.69,-123.62C708.06,-113.76 741.92,-98.13 766.37,-86.85"/>
<polygon fill="#63b8ff" stroke="#63b8ff" points="767.59,-89.68 775.21,-82.31 764.66,-83.32 767.59,-89.68"/>
</a>
</g>
</g>
<!-- Node8 -->
<g id="Node000008" class="node">
<title>Node8</title>
<g id="a_Node000008"><a xlink:title=" ">
<polygon fill="#e0e0e0" stroke="#999999" points="1006.62,-82 878.12,-82 878.12,-62 1006.62,-62 1006.62,-82"/>
<text text-anchor="middle" x="942.38" y="-68.5" font-family="Helvetica,sans-Serif" font-size="10.00">boost/unordered_map.hpp</text>
</a>
</g>
</g>
<!-- Node6&#45;&gt;Node8 -->
<g id="edge7_Node000006_Node000008" class="edge">
<title>Node6&#45;&gt;Node8</title>
<g id="a_edge7_Node000006_Node000008"><a xlink:title=" ">
<path fill="none" stroke="#63b8ff" d="M705.92,-124.4C753.75,-114.01 834.51,-96.45 888.13,-84.79"/>
<polygon fill="#63b8ff" stroke="#63b8ff" points="888.78,-88.02 897.81,-82.47 887.29,-81.18 888.78,-88.02"/>
</a>
</g>
</g>
<!-- Node9 -->
<g id="Node000009" class="node">
<title>Node9</title>
<g id="a_Node000009"><a xlink:title=" ">
<polygon fill="#e0e0e0" stroke="#999999" points="1153.62,-82 1025.12,-82 1025.12,-62 1153.62,-62 1153.62,-82"/>
<text text-anchor="middle" x="1089.38" y="-68.5" font-family="Helvetica,sans-Serif" font-size="10.00">boost/algorithm/string.hpp</text>
</a>
</g>
</g>
<!-- Node6&#45;&gt;Node9 -->
<g id="edge8_Node000006_Node000009" class="edge">
<title>Node6&#45;&gt;Node9</title>
<g id="a_edge8_Node000006_Node000009"><a xlink:title=" ">
<path fill="none" stroke="#63b8ff" d="M705.76,-128.85C770.55,-121.83 903.57,-106.51 1015.38,-88 1021.59,-86.97 1028.08,-85.8 1034.52,-84.58"/>
<polygon fill="#63b8ff" stroke="#63b8ff" points="1035.11,-87.83 1044.25,-82.48 1033.77,-80.96 1035.11,-87.83"/>
</a>
</g>
</g>
<!-- Node10 -->
<g id="Node000010" class="node">
<title>Node10</title>
<g id="a_Node000010"><a xlink:title=" ">
<polygon fill="#e0e0e0" stroke="#999999" points="1281.25,-88 1171.5,-88 1171.5,-56 1281.25,-56 1281.25,-88"/>
<text text-anchor="start" x="1179.5" y="-74.5" font-family="Helvetica,sans-Serif" font-size="10.00">boost/algorithm/string</text>
<text text-anchor="middle" x="1226.38" y="-62.5" font-family="Helvetica,sans-Serif" font-size="10.00">/join.hpp</text>
</a>
</g>
</g>
<!-- Node6&#45;&gt;Node10 -->
<g id="edge9_Node000006_Node000010" class="edge">
<title>Node6&#45;&gt;Node10</title>
<g id="a_edge9_Node000006_Node000010"><a xlink:title=" ">
<path fill="none" stroke="#63b8ff" d="M705.83,-131.3C788.43,-127.33 985.69,-115.74 1160.62,-88.13"/>
<polygon fill="#63b8ff" stroke="#63b8ff" points="1160.99,-91.46 1170.31,-86.42 1159.89,-84.55 1160.99,-91.46"/>
</a>
</g>
</g>
<!-- Node11 -->
<g id="Node000011" class="node">
<title>Node11</title>
<g id="a_Node000011"><a xlink:title=" ">
<polygon fill="#e0e0e0" stroke="#999999" points="336.88,-82 209.88,-82 209.88,-62 336.88,-62 336.88,-82"/>
<text text-anchor="middle" x="273.38" y="-68.5" font-family="Helvetica,sans-Serif" font-size="10.00">boost/functional/hash.hpp</text>
</a>
</g>
</g>
<!-- Node6&#45;&gt;Node11 -->
<g id="edge10_Node000006_Node000011" class="edge">
<title>Node6&#45;&gt;Node11</title>
<g id="a_edge10_Node000006_Node000011"><a xlink:title=" ">
<path fill="none" stroke="#63b8ff" d="M627.04,-126.17C622.44,-125.41 617.8,-124.67 613.38,-124 495,-105.97 464.42,-108.06 346.38,-88 340.25,-86.96 333.85,-85.78 327.49,-84.55"/>
<polygon fill="#63b8ff" stroke="#63b8ff" points="328.39,-80.96 317.9,-82.45 327.03,-87.83 328.39,-80.96"/>
</a>
</g>
</g>
<!-- Node12 -->
<g id="Node000012" class="node">
<title>Node12</title>
<g id="a_Node000012"><a xlink:title=" ">
<polygon fill="#e0e0e0" stroke="#999999" points="449.75,-88 355,-88 355,-56 449.75,-56 449.75,-88"/>
<text text-anchor="start" x="363" y="-74.5" font-family="Helvetica,sans-Serif" font-size="10.00">boost/serialization</text>
<text text-anchor="middle" x="402.38" y="-62.5" font-family="Helvetica,sans-Serif" font-size="10.00">/split_free.hpp</text>
</a>
</g>
</g>
<!-- Node6&#45;&gt;Node12 -->
<g id="edge12_Node000006_Node000012" class="edge">
<title>Node6&#45;&gt;Node12</title>
<g id="a_edge12_Node000006_Node000012"><a xlink:title=" ">
<path fill="none" stroke="#63b8ff" d="M626.96,-124.96C587.43,-116.78 524.56,-103.46 460.87,-88.3"/>
<polygon fill="#63b8ff" stroke="#63b8ff" points="461.77,-84.68 451.23,-85.75 460.14,-91.49 461.77,-84.68"/>
</a>
</g>
</g>
<!-- Node13 -->
<g id="Node000013" class="node">
<title>Node13</title>
<g id="a_Node000013"><a xlink:title=" ">
<polygon fill="#e0e0e0" stroke="#999999" points="562.75,-88 468,-88 468,-56 562.75,-56 562.75,-88"/>
<text text-anchor="start" x="476" y="-74.5" font-family="Helvetica,sans-Serif" font-size="10.00">boost/serialization</text>
<text text-anchor="middle" x="515.38" y="-62.5" font-family="Helvetica,sans-Serif" font-size="10.00">/string.hpp</text>
</a>
</g>
</g>
<!-- Node6&#45;&gt;Node13 -->
<g id="edge15_Node000006_Node000013" class="edge">
<title>Node6&#45;&gt;Node13</title>
<g id="a_edge15_Node000006_Node000013"><a xlink:title=" ">
<path fill="none" stroke="#63b8ff" d="M642.78,-123.62C621.91,-115.33 590.79,-102.96 564.53,-92.53"/>
<polygon fill="#63b8ff" stroke="#63b8ff" points="565.95,-88.93 555.36,-88.49 563.36,-95.44 565.95,-88.93"/>
</a>
</g>
</g>
<!-- Node14 -->
<g id="Node000014" class="node">
<title>Node14</title>
<g id="a_Node000014"><a xlink:href="FMTexception_8hpp.html" target="_top" xlink:title=" ">
<polygon fill="white" stroke="#666666" points="714.5,-82 618.25,-82 618.25,-62 714.5,-62 714.5,-82"/>
<text text-anchor="middle" x="666.38" y="-68.5" font-family="Helvetica,sans-Serif" font-size="10.00">FMTexception.hpp</text>
</a>
</g>
</g>
<!-- Node6&#45;&gt;Node14 -->
<g id="edge16_Node000006_Node000014" class="edge">
<title>Node6&#45;&gt;Node14</title>
<g id="a_edge16_Node000006_Node000014"><a xlink:title=" ">
<path fill="none" stroke="#63b8ff" d="M666.38,-123.62C666.38,-115.48 666.38,-103.39 666.38,-93.07"/>
<polygon fill="#63b8ff" stroke="#63b8ff" points="669.88,-93.11 666.38,-83.11 662.88,-93.11 669.88,-93.11"/>
</a>
</g>
</g>
<!-- Node16 -->
<g id="Node000016" class="node">
<title>Node16</title>
<g id="a_Node000016"><a xlink:title=" ">
<polygon fill="#e0e0e0" stroke="#999999" points="610.38,-20 570.38,-20 570.38,0 610.38,0 610.38,-20"/>
<text text-anchor="middle" x="590.38" y="-6.5" font-family="Helvetica,sans-Serif" font-size="10.00">string</text>
</a>
</g>
</g>
<!-- Node6&#45;&gt;Node16 -->
<g id="edge23_Node000006_Node000016" class="edge">
<title>Node6&#45;&gt;Node16</title>
<g id="a_edge23_Node000006_Node000016"><a xlink:title=" ">
<path fill="none" stroke="#63b8ff" d="M649.1,-123.62C636.25,-115.76 619.27,-103.37 609.38,-88 598.22,-70.67 593.61,-47.29 591.71,-30.85"/>
<polygon fill="#63b8ff" stroke="#63b8ff" points="595.14,-30.94 590.75,-21.29 588.17,-31.57 595.14,-30.94"/>
</a>
</g>
</g>
<!-- Node6&#45;&gt;Node20 -->
<g id="edge22_Node000006_Node000020" class="edge">
<title>Node6&#45;&gt;Node20</title>
<g id="a_edge22_Node000006_Node000020"><a xlink:title=" ">
<path fill="none" stroke="#63b8ff" d="M626.78,-125.92C622.27,-125.22 617.73,-124.56 613.38,-124 431.06,-100.59 378.26,-137.98 201.38,-88 200.05,-87.63 198.72,-87.19 197.38,-86.72"/>
<polygon fill="#63b8ff" stroke="#63b8ff" points="199,-83.17 188.43,-82.41 196.22,-89.59 199,-83.17"/>
</a>
</g>
</g>
<!-- Node15 -->
<g id="Node000015" class="node">
<title>Node15</title>
<g id="a_Node000015"><a xlink:title=" ">
<polygon fill="#e0e0e0" stroke="#999999" points="854.38,-20 796.38,-20 796.38,0 854.38,0 854.38,-20"/>
<text text-anchor="middle" x="825.38" y="-6.5" font-family="Helvetica,sans-Serif" font-size="10.00">exception</text>
</a>
</g>
</g>
<!-- Node14&#45;&gt;Node15 -->
<g id="edge17_Node000014_Node000015" class="edge">
<title>Node14&#45;&gt;Node15</title>
<g id="a_edge17_Node000014_Node000015"><a xlink:title=" ">
<path fill="none" stroke="#63b8ff" d="M691.22,-61.62C717.86,-51.57 760.38,-35.53 790.39,-24.2"/>
<polygon fill="#63b8ff" stroke="#63b8ff" points="791.32,-27.21 799.44,-20.41 788.85,-20.66 791.32,-27.21"/>
</a>
</g>
</g>
<!-- Node14&#45;&gt;Node16 -->
<g id="edge18_Node000014_Node000016" class="edge">
<title>Node14&#45;&gt;Node16</title>
<g id="a_edge18_Node000014_Node000016"><a xlink:title=" ">
<path fill="none" stroke="#63b8ff" d="M654.5,-61.62C642.72,-52.32 624.45,-37.9 610.41,-26.82"/>
<polygon fill="#63b8ff" stroke="#63b8ff" points="612.94,-23.56 602.92,-20.11 608.6,-29.06 612.94,-23.56"/>
</a>
</g>
</g>
<!-- Node17 -->
<g id="Node000017" class="node">
<title>Node17</title>
<g id="a_Node000017"><a xlink:title=" ">
<polygon fill="#e0e0e0" stroke="#999999" points="682.12,-20 628.62,-20 628.62,0 682.12,0 682.12,-20"/>
<text text-anchor="middle" x="655.38" y="-6.5" font-family="Helvetica,sans-Serif" font-size="10.00">iostream</text>
</a>
</g>
</g>
<!-- Node14&#45;&gt;Node17 -->
<g id="edge19_Node000014_Node000017" class="edge">
<title>Node14&#45;&gt;Node17</title>
<g id="a_edge19_Node000014_Node000017"><a xlink:title=" ">
<path fill="none" stroke="#63b8ff" d="M664.66,-61.62C663.15,-53.39 660.9,-41.13 658.99,-30.74"/>
<polygon fill="#63b8ff" stroke="#63b8ff" points="662.29,-30.32 657.05,-21.11 655.41,-31.58 662.29,-30.32"/>
</a>
</g>
</g>
<!-- Node14&#45;&gt;Node18 -->
<g id="edge20_Node000014_Node000018" class="edge">
<title>Node14&#45;&gt;Node18</title>
<g id="a_edge20_Node000014_Node000018"><a xlink:title=" ">
<path fill="none" stroke="#63b8ff" d="M618.1,-62.53C548.94,-50.4 423.17,-28.33 361.07,-17.44"/>
<polygon fill="#63b8ff" stroke="#63b8ff" points="361.7,-13.82 351.25,-15.54 360.49,-20.71 361.7,-13.82"/>
</a>
</g>
</g>
<!-- Node19 -->
<g id="Node000019" class="node">
<title>Node19</title>
<g id="a_Node000019"><a xlink:href="FMTutility_8hpp.html" target="_top" xlink:title=" ">
<polygon fill="white" stroke="#666666" points="778.12,-20 700.62,-20 700.62,0 778.12,0 778.12,-20"/>
<text text-anchor="middle" x="739.38" y="-6.5" font-family="Helvetica,sans-Serif" font-size="10.00">FMTutility.hpp</text>
</a>
</g>
</g>
<!-- Node14&#45;&gt;Node19 -->
<g id="edge21_Node000014_Node000019" class="edge">
<title>Node14&#45;&gt;Node19</title>
<g id="a_edge21_Node000014_Node000019"><a xlink:title=" ">
<path fill="none" stroke="#63b8ff" d="M677.78,-61.62C689.1,-52.32 706.65,-37.9 720.13,-26.82"/>
<polygon fill="#63b8ff" stroke="#63b8ff" points="721.78,-29.17 727.29,-20.11 717.34,-23.76 721.78,-29.17"/>
</a>
</g>
</g>
</g>
</svg>

<g id="navigator" transform="translate(0 0)" fill="#404254">
  <rect fill="#f2f5e9" fill-opacity="0.5" stroke="#606060" stroke-width=".5" x="0" y="0" width="60" height="60"/>
  <use id="zoomplus" xlink:href="#zoomPlus" x="17" y="9" onmousedown="handleZoom(evt,'in')"/>
  <use id="zoomminus" xlink:href="#zoomMin" x="42" y="9" onmousedown="handleZoom(evt,'out')"/>
  <use id="reset" xlink:href="#resetDef" x="30" y="36" onmousedown="handleReset()"/>
   <use id="arrowup" xlink:href="#arrowUp" x="0" y="0" onmousedown="handlePan(0,-1)"/>
  <use id="arrowright" xlink:href="#arrowRight" x="0" y="0" onmousedown="handlePan(1,0)"/>
  <use id="arrowdown" xlink:href="#arrowDown" x="0" y="0" onmousedown="handlePan(0,1)"/>
  <use id="arrowleft" xlink:href="#arrowLeft" x="0" y="0" onmousedown="handlePan(-1,0)"/>
</g>
<svg viewBox="0 0 15 15" width="100%" height="30px" preserveAspectRatio="xMaxYMin meet">
 <g id="arrow_out" transform="scale(0.3 0.3)">
  <a xlink:href="FMToperatingareaclusterbinary_8hpp__incl_org.svg" target="_base">
   <rect id="button" ry="5" rx="5" y="6" x="6" height="38" width="38"
        fill="#f2f5e9" fill-opacity="0.5" stroke="#606060" stroke-width="1.0"/>
   <path id="arrow"
     d="M 11.500037,31.436501 C 11.940474,20.09759 22.043105,11.32322 32.158766,21.979434 L 37.068811,17.246167 C 37.068811,17.246167 37.088388,32 37.088388,32 L 22.160133,31.978069 C 22.160133,31.978069 26.997745,27.140456 26.997745,27.140456 C 18.528582,18.264221 13.291696,25.230495 11.500037,31.436501 z"
     style="fill:#404040;"/>
  </a>
 </g>
</svg>

<style type='text/css'>
<![CDATA[
[data-mouse-over-selected='false'] { opacity: 0.7; }
[data-mouse-over-selected='true']  { opacity: 1.0; }
]]>
</style>
<script type="application/ecmascript"><![CDATA[
document.addEventListener('DOMContentLoaded', (event) => {
  highlightEdges();
  highlightAdjacentNodes();
});
]]></script>
</svg>
