<?xml version="1.0" encoding="UTF-8" standalone="no"?>
<!DOCTYPE svg PUBLIC "-//W3C//DTD SVG 1.1//EN"
 "http://www.w3.org/Graphics/SVG/1.1/DTD/svg11.dtd">
<!-- Generated by graphviz version 10.0.1 (20240210.2158)
 -->
<!-- Title: D:/FMT/Include/FMTOutput.h Pages: 1 -->
<svg width="2814pt" height="444pt"
 viewBox="0.00 0.00 2813.84 444.00" xmlns="http://www.w3.org/2000/svg" xmlns:xlink="http://www.w3.org/1999/xlink">
<g id="graph0" class="graph" transform="scale(1 1) rotate(0) translate(4 440)">
<title>D:/FMT/Include/FMTOutput.h</title>
<!-- Node1 -->
<g id="node1" class="node">
<title>Node1</title>
<g id="a_node1"><a xlink:title=" ">
<polygon fill="#999999" stroke="#666666" points="1987.84,-436 1845.84,-436 1845.84,-416 1987.84,-416 1987.84,-436"/>
<text text-anchor="middle" x="1916.84" y="-422.5" font-family="Helvetica,sans-Serif" font-size="10.00">D:/FMT/Include/FMTOutput.h</text>
</a>
</g>
</g>
<!-- Node2 -->
<g id="node2" class="node">
<title>Node2</title>
<g id="a_node2"><a xlink:title=" ">
<polygon fill="#e0e0e0" stroke="#999999" points="1228.59,-206 1187.09,-206 1187.09,-186 1228.59,-186 1228.59,-206"/>
<text text-anchor="middle" x="1207.84" y="-192.5" font-family="Helvetica,sans-Serif" font-size="10.00">vector</text>
</a>
</g>
</g>
<!-- Node1&#45;&gt;Node2 -->
<g id="edge1" class="edge">
<title>Node1&#45;&gt;Node2</title>
<path fill="none" stroke="#63b8ff" d="M1871.67,-415.56C1759.82,-391.21 1462.48,-320.5 1233.84,-212 1233.62,-211.9 1233.41,-211.79 1233.19,-211.69"/>
<polygon fill="#63b8ff" stroke="#63b8ff" points="1235.11,-208.75 1224.64,-207.17 1231.84,-214.93 1235.11,-208.75"/>
</g>
<!-- Node3 -->
<g id="node3" class="node">
<title>Node3</title>
<g id="a_node3"><a xlink:title=" ">
<polygon fill="#e0e0e0" stroke="#999999" points="2595.84,-20 2555.84,-20 2555.84,0 2595.84,0 2595.84,-20"/>
<text text-anchor="middle" x="2575.84" y="-6.5" font-family="Helvetica,sans-Serif" font-size="10.00">string</text>
</a>
</g>
</g>
<!-- Node1&#45;&gt;Node3 -->
<g id="edge2" class="edge">
<title>Node1&#45;&gt;Node3</title>
<path fill="none" stroke="#63b8ff" d="M1988.26,-422.89C2188.01,-416.03 2737.84,-390.32 2737.84,-315 2737.84,-315 2737.84,-315 2737.84,-127 2737.84,-91.21 2726.9,-79.43 2699.84,-56 2673.45,-33.14 2634.52,-21.55 2607.34,-15.91"/>
<polygon fill="#63b8ff" stroke="#63b8ff" points="2608.09,-12.49 2597.62,-14.07 2606.79,-19.37 2608.09,-12.49"/>
</g>
<!-- Node4 -->
<g id="node4" class="node">
<title>Node4</title>
<g id="a_node4"><a xlink:title=" ">
<polygon fill="#e0e0e0" stroke="#999999" points="2805.84,-380 2765.84,-380 2765.84,-360 2805.84,-360 2805.84,-380"/>
<text text-anchor="middle" x="2785.84" y="-366.5" font-family="Helvetica,sans-Serif" font-size="10.00">stack</text>
</a>
</g>
</g>
<!-- Node1&#45;&gt;Node4 -->
<g id="edge3" class="edge">
<title>Node1&#45;&gt;Node4</title>
<path fill="none" stroke="#63b8ff" d="M1988.1,-423.04C2162.18,-417.94 2605.57,-403.05 2751.84,-380 2752.68,-379.87 2753.52,-379.72 2754.38,-379.57"/>
<polygon fill="#63b8ff" stroke="#63b8ff" points="2755,-383.02 2764.01,-377.44 2753.49,-376.18 2755,-383.02"/>
</g>
<!-- Node5 -->
<g id="node5" class="node">
<title>Node5</title>
<g id="a_node5"><a xlink:title=" ">
<polygon fill="#e0e0e0" stroke="#999999" points="492.59,-206 463.09,-206 463.09,-186 492.59,-186 492.59,-206"/>
<text text-anchor="middle" x="477.84" y="-192.5" font-family="Helvetica,sans-Serif" font-size="10.00">set</text>
</a>
</g>
</g>
<!-- Node1&#45;&gt;Node5 -->
<g id="edge4" class="edge">
<title>Node1&#45;&gt;Node5</title>
<path fill="none" stroke="#63b8ff" d="M1845.48,-421.1C1655.53,-409.6 1122.69,-370.01 691.84,-268 607.92,-248.13 580.32,-251.69 498.99,-211.45"/>
<polygon fill="#63b8ff" stroke="#63b8ff" points="500.65,-208.37 490.15,-207.01 497.51,-214.63 500.65,-208.37"/>
</g>
<!-- Node6 -->
<g id="node6" class="node">
<title>Node6</title>
<g id="a_node6"><a xlink:href="FMTOutputSource_8h.html" target="_top" xlink:title=" ">
<polygon fill="white" stroke="#666666" points="1968.72,-380 1864.97,-380 1864.97,-360 1968.72,-360 1968.72,-380"/>
<text text-anchor="middle" x="1916.84" y="-366.5" font-family="Helvetica,sans-Serif" font-size="10.00">FMTOutputSource.h</text>
</a>
</g>
</g>
<!-- Node1&#45;&gt;Node6 -->
<g id="edge5" class="edge">
<title>Node1&#45;&gt;Node6</title>
<path fill="none" stroke="#63b8ff" d="M1916.84,-415.59C1916.84,-409.01 1916.84,-399.96 1916.84,-391.73"/>
<polygon fill="#63b8ff" stroke="#63b8ff" points="1920.34,-391.81 1916.84,-381.81 1913.34,-391.81 1920.34,-391.81"/>
</g>
<!-- Node7 -->
<g id="node7" class="node">
<title>Node7</title>
<g id="a_node7"><a xlink:title=" ">
<polygon fill="#e0e0e0" stroke="#999999" points="2370.47,-324 2283.22,-324 2283.22,-304 2370.47,-304 2370.47,-324"/>
<text text-anchor="middle" x="2326.84" y="-310.5" font-family="Helvetica,sans-Serif" font-size="10.00">FMTBounds.hpp</text>
</a>
</g>
</g>
<!-- Node1&#45;&gt;Node7 -->
<g id="edge74" class="edge">
<title>Node1&#45;&gt;Node7</title>
<path fill="none" stroke="#63b8ff" d="M1952.15,-415.53C2026.17,-395.67 2197.57,-349.68 2280.39,-327.46"/>
<polygon fill="#63b8ff" stroke="#63b8ff" points="2281.26,-330.85 2290.01,-324.88 2279.44,-324.09 2281.26,-330.85"/>
</g>
<!-- Node14 -->
<g id="node14" class="node">
<title>Node14</title>
<g id="a_node14"><a xlink:title=" ">
<polygon fill="#e0e0e0" stroke="#999999" points="2374.22,-212 2279.47,-212 2279.47,-180 2374.22,-180 2374.22,-212"/>
<text text-anchor="start" x="2287.47" y="-198.5" font-family="Helvetica,sans-Serif" font-size="10.00">boost/serialization</text>
<text text-anchor="middle" x="2326.84" y="-186.5" font-family="Helvetica,sans-Serif" font-size="10.00">/serialization.hpp</text>
</a>
</g>
</g>
<!-- Node1&#45;&gt;Node14 -->
<g id="edge77" class="edge">
<title>Node1&#45;&gt;Node14</title>
<path fill="none" stroke="#63b8ff" d="M1988.24,-420.14C2105.77,-410.48 2331.82,-384.35 2379.84,-324 2404.81,-292.62 2374.26,-247.8 2350.25,-220.65"/>
<polygon fill="#63b8ff" stroke="#63b8ff" points="2353.13,-218.61 2343.79,-213.61 2347.98,-223.34 2353.13,-218.61"/>
</g>
<!-- Node17 -->
<g id="node17" class="node">
<title>Node17</title>
<g id="a_node17"><a xlink:title=" ">
<polygon fill="#e0e0e0" stroke="#999999" points="482.22,-144 387.47,-144 387.47,-112 482.22,-112 482.22,-144"/>
<text text-anchor="start" x="395.47" y="-130.5" font-family="Helvetica,sans-Serif" font-size="10.00">boost/serialization</text>
<text text-anchor="middle" x="434.84" y="-118.5" font-family="Helvetica,sans-Serif" font-size="10.00">/export.hpp</text>
</a>
</g>
</g>
<!-- Node1&#45;&gt;Node17 -->
<g id="edge78" class="edge">
<title>Node1&#45;&gt;Node17</title>
<path fill="none" stroke="#63b8ff" d="M1845.55,-424.71C1498.44,-422.82 1.84,-409.21 1.84,-315 1.84,-315 1.84,-315 1.84,-257 1.84,-221.75 -5.53,-203.39 20.84,-180 72.15,-134.47 274.25,-128.4 375.86,-128.32"/>
<polygon fill="#63b8ff" stroke="#63b8ff" points="375.62,-131.82 385.63,-128.33 375.63,-124.82 375.62,-131.82"/>
</g>
<!-- Node18 -->
<g id="node18" class="node">
<title>Node18</title>
<g id="a_node18"><a xlink:title=" ">
<polygon fill="#e0e0e0" stroke="#999999" points="1169.22,-212 1074.47,-212 1074.47,-180 1169.22,-180 1169.22,-212"/>
<text text-anchor="start" x="1082.47" y="-198.5" font-family="Helvetica,sans-Serif" font-size="10.00">boost/serialization</text>
<text text-anchor="middle" x="1121.84" y="-186.5" font-family="Helvetica,sans-Serif" font-size="10.00">/string.hpp</text>
</a>
</g>
</g>
<!-- Node1&#45;&gt;Node18 -->
<g id="edge76" class="edge">
<title>Node1&#45;&gt;Node18</title>
<path fill="none" stroke="#63b8ff" d="M1847.19,-415.53C1793.48,-407.66 1717.52,-395.3 1651.84,-380 1468.5,-337.29 1259.71,-254.68 1168.54,-216.82"/>
<polygon fill="#63b8ff" stroke="#63b8ff" points="1169.99,-213.63 1159.41,-213.01 1167.3,-220.09 1169.99,-213.63"/>
</g>
<!-- Node28 -->
<g id="node28" class="node">
<title>Node28</title>
<g id="a_node28"><a xlink:href="FMTObject_8h.html" target="_top" xlink:title=" ">
<polygon fill="white" stroke="#666666" points="406.97,-268 334.72,-268 334.72,-248 406.97,-248 406.97,-268"/>
<text text-anchor="middle" x="370.84" y="-254.5" font-family="Helvetica,sans-Serif" font-size="10.00">FMTObject.h</text>
</a>
</g>
</g>
<!-- Node1&#45;&gt;Node28 -->
<g id="edge75" class="edge">
<title>Node1&#45;&gt;Node28</title>
<path fill="none" stroke="#63b8ff" d="M1845.6,-424.82C1583.91,-423.87 684.64,-417.84 561.84,-380 491.51,-358.32 421.75,-303.49 389.45,-275.7"/>
<polygon fill="#63b8ff" stroke="#63b8ff" points="391.98,-273.27 382.15,-269.32 387.37,-278.54 391.98,-273.27"/>
</g>
<!-- Node38 -->
<g id="node38" class="node">
<title>Node38</title>
<g id="a_node38"><a xlink:href="FMTOperator_8h.html" target="_top" xlink:title=" ">
<polygon fill="white" stroke="#666666" points="2508.47,-268 2427.22,-268 2427.22,-248 2508.47,-248 2508.47,-268"/>
<text text-anchor="middle" x="2467.84" y="-254.5" font-family="Helvetica,sans-Serif" font-size="10.00">FMTOperator.h</text>
</a>
</g>
</g>
<!-- Node1&#45;&gt;Node38 -->
<g id="edge66" class="edge">
<title>Node1&#45;&gt;Node38</title>
<path fill="none" stroke="#63b8ff" d="M1988.25,-422.46C2117.26,-417.31 2379.02,-404.01 2412.84,-380 2446.29,-356.25 2459.81,-307.14 2464.94,-279.34"/>
<polygon fill="#63b8ff" stroke="#63b8ff" points="2468.36,-280.16 2466.51,-269.73 2461.45,-279.03 2468.36,-280.16"/>
</g>
<!-- Node6&#45;&gt;Node2 -->
<g id="edge29" class="edge">
<title>Node6&#45;&gt;Node2</title>
<path fill="none" stroke="#63b8ff" d="M1874.02,-359.52C1729.09,-327.41 1264.4,-224.01 1233.84,-212 1233.36,-211.81 1232.87,-211.61 1232.38,-211.4"/>
<polygon fill="#63b8ff" stroke="#63b8ff" points="1234.17,-208.39 1223.66,-207.04 1231.04,-214.64 1234.17,-208.39"/>
</g>
<!-- Node6&#45;&gt;Node3 -->
<g id="edge31" class="edge">
<title>Node6&#45;&gt;Node3</title>
<path fill="none" stroke="#63b8ff" d="M1965.84,-359.54C2034.55,-346.4 2163.51,-322.18 2273.84,-304 2382,-286.18 2413.66,-302.09 2517.84,-268 2568.48,-251.43 2587.88,-251.32 2623.84,-212 2673.66,-157.53 2721.48,-117.63 2680.84,-56 2664.63,-31.42 2631.9,-20.21 2607.27,-15.14"/>
<polygon fill="#63b8ff" stroke="#63b8ff" points="2608.22,-11.75 2597.76,-13.43 2606.98,-18.64 2608.22,-11.75"/>
</g>
<!-- Node6&#45;&gt;Node7 -->
<g id="edge6" class="edge">
<title>Node6&#45;&gt;Node7</title>
<path fill="none" stroke="#63b8ff" d="M1969.08,-362.76C2037.87,-354.45 2162.55,-339.04 2268.84,-324 2269.83,-323.86 2270.84,-323.72 2271.85,-323.57"/>
<polygon fill="#63b8ff" stroke="#63b8ff" points="2271.96,-327.09 2281.34,-322.17 2270.94,-320.17 2271.96,-327.09"/>
</g>
<!-- Node8 -->
<g id="node8" class="node">
<title>Node8</title>
<g id="a_node8"><a xlink:href="FMTMask_8h.html" target="_top" xlink:title=" ">
<polygon fill="white" stroke="#666666" points="1739.72,-268 1671.97,-268 1671.97,-248 1739.72,-248 1739.72,-268"/>
<text text-anchor="middle" x="1705.84" y="-254.5" font-family="Helvetica,sans-Serif" font-size="10.00">FMTMask.h</text>
</a>
</g>
</g>
<!-- Node6&#45;&gt;Node8 -->
<g id="edge7" class="edge">
<title>Node6&#45;&gt;Node8</title>
<path fill="none" stroke="#63b8ff" d="M1898.85,-359.62C1862.02,-340.42 1777.82,-296.52 1733.8,-273.58"/>
<polygon fill="#63b8ff" stroke="#63b8ff" points="1735.61,-270.57 1725.13,-269.05 1732.38,-276.78 1735.61,-270.57"/>
</g>
<!-- Node6&#45;&gt;Node14 -->
<g id="edge30" class="edge">
<title>Node6&#45;&gt;Node14</title>
<path fill="none" stroke="#63b8ff" d="M1939.47,-359.51C2004.17,-332.36 2190.98,-254 2279.39,-216.91"/>
<polygon fill="#63b8ff" stroke="#63b8ff" points="2280.66,-220.17 2288.52,-213.08 2277.95,-213.72 2280.66,-220.17"/>
</g>
<!-- Node25 -->
<g id="node25" class="node">
<title>Node25</title>
<g id="a_node25"><a xlink:href="FMTutility_8h.html" target="_top" xlink:title=" ">
<polygon fill="white" stroke="#666666" points="2671.34,-76 2604.34,-76 2604.34,-56 2671.34,-56 2671.34,-76"/>
<text text-anchor="middle" x="2637.84" y="-62.5" font-family="Helvetica,sans-Serif" font-size="10.00">FMTutility.h</text>
</a>
</g>
</g>
<!-- Node6&#45;&gt;Node25 -->
<g id="edge32" class="edge">
<title>Node6&#45;&gt;Node25</title>
<path fill="none" stroke="#63b8ff" d="M1965.84,-359.54C2034.55,-346.4 2163.51,-322.18 2273.84,-304 2382,-286.18 2413.66,-302.09 2517.84,-268 2568.48,-251.43 2589.03,-252.34 2623.84,-212 2653.7,-177.4 2652.83,-157.43 2647.84,-112 2646.95,-103.85 2645.17,-95.02 2643.35,-87.35"/>
<polygon fill="#63b8ff" stroke="#63b8ff" points="2646.75,-86.5 2640.88,-77.68 2639.97,-88.23 2646.75,-86.5"/>
</g>
<!-- Node26 -->
<g id="node26" class="node">
<title>Node26</title>
<g id="a_node26"><a xlink:title=" ">
<polygon fill="#e0e0e0" stroke="#999999" points="1615.59,-324 1538.09,-324 1538.09,-304 1615.59,-304 1615.59,-324"/>
<text text-anchor="middle" x="1576.84" y="-310.5" font-family="Helvetica,sans-Serif" font-size="10.00">unordered_set</text>
</a>
</g>
</g>
<!-- Node6&#45;&gt;Node26 -->
<g id="edge33" class="edge">
<title>Node6&#45;&gt;Node26</title>
<path fill="none" stroke="#63b8ff" d="M1864.7,-361.03C1807.17,-352.18 1711.85,-337.39 1629.84,-324 1628.85,-323.84 1627.86,-323.68 1626.85,-323.51"/>
<polygon fill="#63b8ff" stroke="#63b8ff" points="1627.84,-320.13 1617.4,-321.94 1626.69,-327.03 1627.84,-320.13"/>
</g>
<!-- Node27 -->
<g id="node27" class="node">
<title>Node27</title>
<g id="a_node27"><a xlink:href="FMTDevelopment_8h.html" target="_top" xlink:title=" ">
<polygon fill="white" stroke="#666666" points="1101.47,-324 1002.22,-324 1002.22,-304 1101.47,-304 1101.47,-324"/>
<text text-anchor="middle" x="1051.84" y="-310.5" font-family="Helvetica,sans-Serif" font-size="10.00">FMTDevelopment.h</text>
</a>
</g>
</g>
<!-- Node6&#45;&gt;Node27 -->
<g id="edge34" class="edge">
<title>Node6&#45;&gt;Node27</title>
<path fill="none" stroke="#63b8ff" d="M1864.68,-365.74C1713.44,-356.3 1275.21,-328.94 1113.09,-318.82"/>
<polygon fill="#63b8ff" stroke="#63b8ff" points="1113.61,-315.35 1103.41,-318.22 1113.17,-322.34 1113.61,-315.35"/>
</g>
<!-- Node8&#45;&gt;Node2 -->
<g id="edge27" class="edge">
<title>Node8&#45;&gt;Node2</title>
<path fill="none" stroke="#63b8ff" d="M1671.56,-250.15C1666.96,-249.35 1662.29,-248.61 1657.84,-248 1474.41,-222.91 1422.42,-257.03 1242.84,-212 1240.99,-211.54 1239.11,-210.99 1237.23,-210.37"/>
<polygon fill="#63b8ff" stroke="#63b8ff" points="1238.72,-207.2 1228.13,-206.92 1236.24,-213.74 1238.72,-207.2"/>
</g>
<!-- Node8&#45;&gt;Node3 -->
<g id="edge28" class="edge">
<title>Node8&#45;&gt;Node3</title>
<path fill="none" stroke="#63b8ff" d="M1671.51,-255.62C1580.34,-251.61 1337.49,-238.52 1313.84,-212 1304.38,-201.39 1304.48,-190.7 1313.84,-180 1397.84,-84.01 2356.27,-23.73 2544.04,-12.8"/>
<polygon fill="#63b8ff" stroke="#63b8ff" points="2544.22,-16.29 2554,-12.22 2543.81,-9.31 2544.22,-16.29"/>
</g>
<!-- Node9 -->
<g id="node9" class="node">
<title>Node9</title>
<g id="a_node9"><a xlink:title=" ">
<polygon fill="#e0e0e0" stroke="#999999" points="2223.72,-206 2095.97,-206 2095.97,-186 2223.72,-186 2223.72,-206"/>
<text text-anchor="middle" x="2159.84" y="-192.5" font-family="Helvetica,sans-Serif" font-size="10.00">boost/dynamic_bitset.hpp</text>
</a>
</g>
</g>
<!-- Node8&#45;&gt;Node9 -->
<g id="edge8" class="edge">
<title>Node8&#45;&gt;Node9</title>
<path fill="none" stroke="#63b8ff" d="M1740.13,-253.94C1807.04,-247.74 1959.61,-232.55 2086.84,-212 2092.91,-211.02 2099.24,-209.89 2105.52,-208.69"/>
<polygon fill="#63b8ff" stroke="#63b8ff" points="2106.1,-212.15 2115.24,-206.79 2104.75,-205.28 2106.1,-212.15"/>
</g>
<!-- Node10 -->
<g id="node10" class="node">
<title>Node10</title>
<g id="a_node10"><a xlink:title=" ">
<polygon fill="#e0e0e0" stroke="#999999" points="1451.09,-206 1322.59,-206 1322.59,-186 1451.09,-186 1451.09,-206"/>
<text text-anchor="middle" x="1386.84" y="-192.5" font-family="Helvetica,sans-Serif" font-size="10.00">boost/unordered_map.hpp</text>
</a>
</g>
</g>
<!-- Node8&#45;&gt;Node10 -->
<g id="edge9" class="edge">
<title>Node8&#45;&gt;Node10</title>
<path fill="none" stroke="#63b8ff" d="M1671.5,-250.54C1666.91,-249.68 1662.26,-248.82 1657.84,-248 1570.32,-231.8 1548.24,-228.84 1460.84,-212 1455.35,-210.94 1449.64,-209.82 1443.92,-208.68"/>
<polygon fill="#63b8ff" stroke="#63b8ff" points="1444.98,-205.33 1434.48,-206.8 1443.6,-212.19 1444.98,-205.33"/>
</g>
<!-- Node11 -->
<g id="node11" class="node">
<title>Node11</title>
<g id="a_node11"><a xlink:title=" ">
<polygon fill="#e0e0e0" stroke="#999999" points="1598.09,-206 1469.59,-206 1469.59,-186 1598.09,-186 1598.09,-206"/>
<text text-anchor="middle" x="1533.84" y="-192.5" font-family="Helvetica,sans-Serif" font-size="10.00">boost/algorithm/string.hpp</text>
</a>
</g>
</g>
<!-- Node8&#45;&gt;Node11 -->
<g id="edge10" class="edge">
<title>Node8&#45;&gt;Node11</title>
<path fill="none" stroke="#63b8ff" d="M1678.97,-247.62C1650.02,-237.53 1603.75,-221.39 1571.26,-210.05"/>
<polygon fill="#63b8ff" stroke="#63b8ff" points="1572.84,-206.9 1562.24,-206.91 1570.53,-213.5 1572.84,-206.9"/>
</g>
<!-- Node12 -->
<g id="node12" class="node">
<title>Node12</title>
<g id="a_node12"><a xlink:title=" ">
<polygon fill="#e0e0e0" stroke="#999999" points="1725.72,-212 1615.97,-212 1615.97,-180 1725.72,-180 1725.72,-212"/>
<text text-anchor="start" x="1623.97" y="-198.5" font-family="Helvetica,sans-Serif" font-size="10.00">boost/algorithm/string</text>
<text text-anchor="middle" x="1670.84" y="-186.5" font-family="Helvetica,sans-Serif" font-size="10.00">/join.hpp</text>
</a>
</g>
</g>
<!-- Node8&#45;&gt;Node12 -->
<g id="edge11" class="edge">
<title>Node8&#45;&gt;Node12</title>
<path fill="none" stroke="#63b8ff" d="M1700.37,-247.62C1696.35,-240.73 1690.68,-231.01 1685.39,-221.93"/>
<polygon fill="#63b8ff" stroke="#63b8ff" points="1688.5,-220.32 1680.44,-213.45 1682.45,-223.85 1688.5,-220.32"/>
</g>
<!-- Node13 -->
<g id="node13" class="node">
<title>Node13</title>
<g id="a_node13"><a xlink:title=" ">
<polygon fill="#e0e0e0" stroke="#999999" points="2519.34,-206 2392.34,-206 2392.34,-186 2519.34,-186 2519.34,-206"/>
<text text-anchor="middle" x="2455.84" y="-192.5" font-family="Helvetica,sans-Serif" font-size="10.00">boost/functional/hash.hpp</text>
</a>
</g>
</g>
<!-- Node8&#45;&gt;Node13 -->
<g id="edge12" class="edge">
<title>Node8&#45;&gt;Node13</title>
<path fill="none" stroke="#63b8ff" d="M1740.17,-256.37C1839.9,-254.18 2138,-245.13 2382.84,-212 2389.58,-211.09 2396.62,-209.92 2403.56,-208.64"/>
<polygon fill="#63b8ff" stroke="#63b8ff" points="2404.07,-212.11 2413.22,-206.76 2402.73,-205.23 2404.07,-212.11"/>
</g>
<!-- Node8&#45;&gt;Node14 -->
<g id="edge13" class="edge">
<title>Node8&#45;&gt;Node14</title>
<path fill="none" stroke="#63b8ff" d="M1740.16,-256.16C1828.1,-253.6 2068.47,-243.98 2265.84,-212 2266.51,-211.89 2267.19,-211.78 2267.87,-211.66"/>
<polygon fill="#63b8ff" stroke="#63b8ff" points="2268.39,-215.13 2277.55,-209.81 2267.07,-208.25 2268.39,-215.13"/>
</g>
<!-- Node15 -->
<g id="node15" class="node">
<title>Node15</title>
<g id="a_node15"><a xlink:title=" ">
<polygon fill="#e0e0e0" stroke="#999999" points="1838.22,-212 1743.47,-212 1743.47,-180 1838.22,-180 1838.22,-212"/>
<text text-anchor="start" x="1751.47" y="-198.5" font-family="Helvetica,sans-Serif" font-size="10.00">boost/serialization</text>
<text text-anchor="middle" x="1790.84" y="-186.5" font-family="Helvetica,sans-Serif" font-size="10.00">/split_free.hpp</text>
</a>
</g>
</g>
<!-- Node8&#45;&gt;Node15 -->
<g id="edge14" class="edge">
<title>Node8&#45;&gt;Node15</title>
<path fill="none" stroke="#63b8ff" d="M1719.12,-247.62C1729.97,-239.97 1745.75,-228.83 1759.74,-218.95"/>
<polygon fill="#63b8ff" stroke="#63b8ff" points="1761.67,-221.87 1767.83,-213.25 1757.64,-216.15 1761.67,-221.87"/>
</g>
<!-- Node16 -->
<g id="node16" class="node">
<title>Node16</title>
<g id="a_node16"><a xlink:title=" ">
<polygon fill="#e0e0e0" stroke="#999999" points="1056.22,-212 961.47,-212 961.47,-180 1056.22,-180 1056.22,-212"/>
<text text-anchor="start" x="969.47" y="-198.5" font-family="Helvetica,sans-Serif" font-size="10.00">boost/serialization</text>
<text text-anchor="middle" x="1008.84" y="-186.5" font-family="Helvetica,sans-Serif" font-size="10.00">/nvp.hpp</text>
</a>
</g>
</g>
<!-- Node8&#45;&gt;Node16 -->
<g id="edge15" class="edge">
<title>Node8&#45;&gt;Node16</title>
<path fill="none" stroke="#63b8ff" d="M1671.58,-256.84C1576.91,-255.91 1303.69,-250.05 1067.8,-212.09"/>
<polygon fill="#63b8ff" stroke="#63b8ff" points="1068.52,-208.66 1058.09,-210.5 1067.39,-215.57 1068.52,-208.66"/>
</g>
<!-- Node8&#45;&gt;Node17 -->
<g id="edge16" class="edge">
<title>Node8&#45;&gt;Node17</title>
<path fill="none" stroke="#63b8ff" d="M1671.56,-250.18C1666.96,-249.38 1662.29,-248.63 1657.84,-248 1491.18,-224.47 1437.92,-272.47 1280.84,-212 1258.61,-203.44 1260.26,-188.06 1237.84,-180 1089.39,-126.61 685.74,-160.45 528.84,-144 517.5,-142.81 505.44,-141.17 493.88,-139.41"/>
<polygon fill="#63b8ff" stroke="#63b8ff" points="494.45,-135.96 484.03,-137.86 493.36,-142.88 494.45,-135.96"/>
</g>
<!-- Node8&#45;&gt;Node18 -->
<g id="edge17" class="edge">
<title>Node8&#45;&gt;Node18</title>
<path fill="none" stroke="#63b8ff" d="M1671.6,-256.17C1588.77,-253.73 1370.98,-244.66 1181,-212.37"/>
<polygon fill="#63b8ff" stroke="#63b8ff" points="1181.62,-208.92 1171.17,-210.67 1180.43,-215.82 1181.62,-208.92"/>
</g>
<!-- Node19 -->
<g id="node19" class="node">
<title>Node19</title>
<g id="a_node19"><a xlink:title=" ">
<polygon fill="#e0e0e0" stroke="#999999" points="1951.22,-212 1856.47,-212 1856.47,-180 1951.22,-180 1951.22,-212"/>
<text text-anchor="start" x="1864.47" y="-198.5" font-family="Helvetica,sans-Serif" font-size="10.00">boost/serialization</text>
<text text-anchor="middle" x="1903.84" y="-186.5" font-family="Helvetica,sans-Serif" font-size="10.00">/vector.hpp</text>
</a>
</g>
</g>
<!-- Node8&#45;&gt;Node19 -->
<g id="edge18" class="edge">
<title>Node8&#45;&gt;Node19</title>
<path fill="none" stroke="#63b8ff" d="M1736.78,-247.62C1765.76,-238.84 1809.82,-225.49 1845.41,-214.71"/>
<polygon fill="#63b8ff" stroke="#63b8ff" points="1846.16,-218.14 1854.72,-211.89 1844.13,-211.44 1846.16,-218.14"/>
</g>
<!-- Node20 -->
<g id="node20" class="node">
<title>Node20</title>
<g id="a_node20"><a xlink:title=" ">
<polygon fill="#e0e0e0" stroke="#999999" points="2078.34,-212 1969.34,-212 1969.34,-180 2078.34,-180 2078.34,-212"/>
<text text-anchor="start" x="1977.34" y="-198.5" font-family="Helvetica,sans-Serif" font-size="10.00">boost/dynamic_bitset</text>
<text text-anchor="middle" x="2023.84" y="-186.5" font-family="Helvetica,sans-Serif" font-size="10.00">/serialization.hpp</text>
</a>
</g>
</g>
<!-- Node8&#45;&gt;Node20 -->
<g id="edge19" class="edge">
<title>Node8&#45;&gt;Node20</title>
<path fill="none" stroke="#63b8ff" d="M1740.05,-251.55C1786.89,-243.96 1873.84,-229.39 1958.02,-212.31"/>
<polygon fill="#63b8ff" stroke="#63b8ff" points="1958.49,-215.78 1967.59,-210.35 1957.09,-208.92 1958.49,-215.78"/>
</g>
<!-- Node21 -->
<g id="node21" class="node">
<title>Node21</title>
<g id="a_node21"><a xlink:href="FMTException_8h.html" target="_top" xlink:title=" ">
<polygon fill="white" stroke="#666666" points="1245.47,-138 1158.22,-138 1158.22,-118 1245.47,-118 1245.47,-138"/>
<text text-anchor="middle" x="1201.84" y="-124.5" font-family="Helvetica,sans-Serif" font-size="10.00">FMTException.h</text>
</a>
</g>
</g>
<!-- Node8&#45;&gt;Node21 -->
<g id="edge20" class="edge">
<title>Node8&#45;&gt;Node21</title>
<path fill="none" stroke="#63b8ff" d="M1739.98,-255.35C1854.1,-249.65 2216.11,-230.22 2232.84,-212 2242.46,-201.52 2242.65,-190.3 2232.84,-180 2198.96,-144.41 1466.19,-132.37 1257.09,-129.65"/>
<polygon fill="#63b8ff" stroke="#63b8ff" points="1257.36,-126.15 1247.32,-129.52 1257.27,-133.15 1257.36,-126.15"/>
</g>
<!-- Node21&#45;&gt;Node3 -->
<g id="edge22" class="edge">
<title>Node21&#45;&gt;Node3</title>
<path fill="none" stroke="#63b8ff" d="M1208.6,-117.64C1220.86,-101.52 1248.52,-69.04 1280.84,-56 1401.16,-7.46 2356.24,-9.86 2543.9,-10.81"/>
<polygon fill="#63b8ff" stroke="#63b8ff" points="2543.84,-14.31 2553.86,-10.86 2543.88,-7.31 2543.84,-14.31"/>
</g>
<!-- Node22 -->
<g id="node22" class="node">
<title>Node22</title>
<g id="a_node22"><a xlink:title=" ">
<polygon fill="#e0e0e0" stroke="#999999" points="1156.84,-76 1098.84,-76 1098.84,-56 1156.84,-56 1156.84,-76"/>
<text text-anchor="middle" x="1127.84" y="-62.5" font-family="Helvetica,sans-Serif" font-size="10.00">exception</text>
</a>
</g>
</g>
<!-- Node21&#45;&gt;Node22 -->
<g id="edge21" class="edge">
<title>Node21&#45;&gt;Node22</title>
<path fill="none" stroke="#63b8ff" d="M1190.28,-117.62C1178.92,-108.41 1161.35,-94.17 1147.75,-83.14"/>
<polygon fill="#63b8ff" stroke="#63b8ff" points="1150.23,-80.65 1140.26,-77.07 1145.82,-86.08 1150.23,-80.65"/>
</g>
<!-- Node23 -->
<g id="node23" class="node">
<title>Node23</title>
<g id="a_node23"><a xlink:title=" ">
<polygon fill="#e0e0e0" stroke="#999999" points="1228.59,-76 1175.09,-76 1175.09,-56 1228.59,-56 1228.59,-76"/>
<text text-anchor="middle" x="1201.84" y="-62.5" font-family="Helvetica,sans-Serif" font-size="10.00">iostream</text>
</a>
</g>
</g>
<!-- Node21&#45;&gt;Node23 -->
<g id="edge23" class="edge">
<title>Node21&#45;&gt;Node23</title>
<path fill="none" stroke="#63b8ff" d="M1201.84,-117.62C1201.84,-109.56 1201.84,-97.65 1201.84,-87.41"/>
<polygon fill="#63b8ff" stroke="#63b8ff" points="1205.34,-87.63 1201.84,-77.63 1198.34,-87.63 1205.34,-87.63"/>
</g>
<!-- Node24 -->
<g id="node24" class="node">
<title>Node24</title>
<g id="a_node24"><a xlink:title=" ">
<polygon fill="#e0e0e0" stroke="#999999" points="823.47,-76 772.22,-76 772.22,-56 823.47,-56 823.47,-76"/>
<text text-anchor="middle" x="797.84" y="-62.5" font-family="Helvetica,sans-Serif" font-size="10.00">memory</text>
</a>
</g>
</g>
<!-- Node21&#45;&gt;Node24 -->
<g id="edge24" class="edge">
<title>Node21&#45;&gt;Node24</title>
<path fill="none" stroke="#63b8ff" d="M1157.84,-120.46C1077.66,-108.56 909.21,-83.54 834.67,-72.47"/>
<polygon fill="#63b8ff" stroke="#63b8ff" points="835.44,-69.05 825.04,-71.04 834.42,-75.97 835.44,-69.05"/>
</g>
<!-- Node21&#45;&gt;Node25 -->
<g id="edge25" class="edge">
<title>Node21&#45;&gt;Node25</title>
<path fill="none" stroke="#63b8ff" d="M1245.6,-125.17C1457.69,-116.31 2377.27,-77.89 2592.61,-68.89"/>
<polygon fill="#63b8ff" stroke="#63b8ff" points="2592.7,-72.39 2602.54,-68.47 2592.41,-65.4 2592.7,-72.39"/>
</g>
<!-- Node25&#45;&gt;Node3 -->
<g id="edge26" class="edge">
<title>Node25&#45;&gt;Node3</title>
<path fill="none" stroke="#63b8ff" d="M2627.04,-55.59C2618.24,-47.93 2605.59,-36.91 2595.07,-27.75"/>
<polygon fill="#63b8ff" stroke="#63b8ff" points="2597.5,-25.22 2587.66,-21.29 2592.9,-30.5 2597.5,-25.22"/>
</g>
<!-- Node27&#45;&gt;Node2 -->
<g id="edge49" class="edge">
<title>Node27&#45;&gt;Node2</title>
<path fill="none" stroke="#63b8ff" d="M1064.61,-303.51C1091.36,-283.61 1153.57,-237.36 1186.5,-212.87"/>
<polygon fill="#63b8ff" stroke="#63b8ff" points="1188.18,-215.98 1194.12,-207.2 1184.01,-210.36 1188.18,-215.98"/>
</g>
<!-- Node27&#45;&gt;Node8 -->
<g id="edge35" class="edge">
<title>Node27&#45;&gt;Node8</title>
<path fill="none" stroke="#63b8ff" d="M1101.8,-308.87C1225.05,-298.7 1542.15,-272.52 1660.45,-262.75"/>
<polygon fill="#63b8ff" stroke="#63b8ff" points="1660.4,-266.26 1670.08,-261.95 1659.83,-259.29 1660.4,-266.26"/>
</g>
<!-- Node27&#45;&gt;Node14 -->
<g id="edge36" class="edge">
<title>Node27&#45;&gt;Node14</title>
<path fill="none" stroke="#63b8ff" d="M1101.77,-311.21C1266.55,-304.81 1807.8,-279.65 2249.84,-212 2255.82,-211.09 2262.03,-210.04 2268.23,-208.93"/>
<polygon fill="#63b8ff" stroke="#63b8ff" points="2268.61,-212.42 2277.81,-207.16 2267.34,-205.53 2268.61,-212.42"/>
</g>
<!-- Node27&#45;&gt;Node16 -->
<g id="edge37" class="edge">
<title>Node27&#45;&gt;Node16</title>
<path fill="none" stroke="#63b8ff" d="M1048.32,-303.51C1041.89,-286.15 1028.01,-248.72 1018.55,-223.19"/>
<polygon fill="#63b8ff" stroke="#63b8ff" points="1021.84,-221.99 1015.08,-213.83 1015.28,-224.43 1021.84,-221.99"/>
</g>
<!-- Node27&#45;&gt;Node17 -->
<g id="edge50" class="edge">
<title>Node27&#45;&gt;Node17</title>
<path fill="none" stroke="#63b8ff" d="M1002.01,-311.78C872.58,-307.53 530.48,-289.1 453.84,-212 439.29,-197.36 434.96,-174.01 434.03,-155.79"/>
<polygon fill="#63b8ff" stroke="#63b8ff" points="437.53,-155.9 433.87,-145.96 430.53,-156.02 437.53,-155.9"/>
</g>
<!-- Node27&#45;&gt;Node18 -->
<g id="edge38" class="edge">
<title>Node27&#45;&gt;Node18</title>
<path fill="none" stroke="#63b8ff" d="M1057.57,-303.51C1068.19,-285.91 1091.25,-247.7 1106.66,-222.16"/>
<polygon fill="#63b8ff" stroke="#63b8ff" points="1109.59,-224.08 1111.76,-213.71 1103.6,-220.46 1109.59,-224.08"/>
</g>
<!-- Node27&#45;&gt;Node24 -->
<g id="edge48" class="edge">
<title>Node27&#45;&gt;Node24</title>
<path fill="none" stroke="#63b8ff" d="M1042.22,-303.64C1019.87,-281.91 962.71,-226.35 914.84,-180 879.74,-146.01 838.64,-106.34 815.68,-84.2"/>
<polygon fill="#63b8ff" stroke="#63b8ff" points="818.27,-81.84 808.65,-77.42 813.42,-86.88 818.27,-81.84"/>
</g>
<!-- Node27&#45;&gt;Node28 -->
<g id="edge39" class="edge">
<title>Node27&#45;&gt;Node28</title>
<path fill="none" stroke="#63b8ff" d="M1001.77,-311.25C894.77,-307.11 636.07,-294.97 420.84,-268 420.02,-267.9 419.19,-267.79 418.36,-267.68"/>
<polygon fill="#63b8ff" stroke="#63b8ff" points="419.27,-264.28 408.86,-266.26 418.24,-271.2 419.27,-264.28"/>
</g>
<!-- Node32 -->
<g id="node32" class="node">
<title>Node32</title>
<g id="a_node32"><a xlink:href="FMTExceptionHandler_8h.html" target="_top" xlink:title=" ">
<polygon fill="white" stroke="#666666" points="820.97,-268 700.72,-268 700.72,-248 820.97,-248 820.97,-268"/>
<text text-anchor="middle" x="760.84" y="-254.5" font-family="Helvetica,sans-Serif" font-size="10.00">FMTExceptionHandler.h</text>
</a>
</g>
</g>
<!-- Node27&#45;&gt;Node32 -->
<g id="edge51" class="edge">
<title>Node27&#45;&gt;Node32</title>
<path fill="none" stroke="#63b8ff" d="M1001.82,-303.72C952.21,-294.51 876.09,-280.39 822.7,-270.48"/>
<polygon fill="#63b8ff" stroke="#63b8ff" points="823.64,-267.09 813.17,-268.71 822.36,-273.98 823.64,-267.09"/>
</g>
<!-- Node28&#45;&gt;Node2 -->
<g id="edge46" class="edge">
<title>Node28&#45;&gt;Node2</title>
<path fill="none" stroke="#63b8ff" d="M407.27,-255.84C554.69,-251.02 1102.83,-231.93 1177.84,-212 1179.2,-211.64 1180.57,-211.21 1181.94,-210.73"/>
<polygon fill="#63b8ff" stroke="#63b8ff" points="1182.93,-214.12 1190.74,-206.96 1180.17,-207.69 1182.93,-214.12"/>
</g>
<!-- Node28&#45;&gt;Node16 -->
<g id="edge41" class="edge">
<title>Node28&#45;&gt;Node16</title>
<path fill="none" stroke="#63b8ff" d="M407.23,-254.95C494.83,-249.79 724.33,-235.05 914.84,-212 926.16,-210.63 938.21,-208.91 949.77,-207.13"/>
<polygon fill="#63b8ff" stroke="#63b8ff" points="950.29,-210.59 959.62,-205.57 949.2,-203.67 950.29,-210.59"/>
</g>
<!-- Node28&#45;&gt;Node17 -->
<g id="edge42" class="edge">
<title>Node28&#45;&gt;Node17</title>
<path fill="none" stroke="#63b8ff" d="M375.44,-247.79C385.1,-228.48 407.77,-183.14 422.15,-154.39"/>
<polygon fill="#63b8ff" stroke="#63b8ff" points="425.19,-156.14 426.53,-145.63 418.93,-153.01 425.19,-156.14"/>
</g>
<!-- Node28&#45;&gt;Node21 -->
<g id="edge43" class="edge">
<title>Node28&#45;&gt;Node21</title>
<path fill="none" stroke="#63b8ff" d="M407.16,-253.3C457.96,-247.54 552.75,-234.68 630.84,-212 666.43,-201.66 671.92,-189.11 707.84,-180 863.53,-140.52 1054.21,-131.49 1146.52,-129.5"/>
<polygon fill="#63b8ff" stroke="#63b8ff" points="1146.37,-133.01 1156.3,-129.31 1146.24,-126.01 1146.37,-133.01"/>
</g>
<!-- Node28&#45;&gt;Node24 -->
<g id="edge44" class="edge">
<title>Node28&#45;&gt;Node24</title>
<path fill="none" stroke="#63b8ff" d="M367.77,-247.63C360.02,-221.98 342.73,-150.03 378.84,-112 404.89,-84.56 662.45,-72.08 760.35,-68.3"/>
<polygon fill="#63b8ff" stroke="#63b8ff" points="760.36,-71.81 770.22,-67.93 760.1,-64.81 760.36,-71.81"/>
</g>
<!-- Node29 -->
<g id="node29" class="node">
<title>Node29</title>
<g id="a_node29"><a xlink:title=" ">
<polygon fill="#e0e0e0" stroke="#999999" points="267.22,-212 172.47,-212 172.47,-180 267.22,-180 267.22,-212"/>
<text text-anchor="start" x="180.47" y="-198.5" font-family="Helvetica,sans-Serif" font-size="10.00">boost/serialization</text>
<text text-anchor="middle" x="219.84" y="-186.5" font-family="Helvetica,sans-Serif" font-size="10.00">/unique_ptr.hpp</text>
</a>
</g>
</g>
<!-- Node28&#45;&gt;Node29 -->
<g id="edge40" class="edge">
<title>Node28&#45;&gt;Node29</title>
<path fill="none" stroke="#63b8ff" d="M347.25,-247.62C326.47,-239.37 295.53,-227.07 269.34,-216.67"/>
<polygon fill="#63b8ff" stroke="#63b8ff" points="270.82,-213.49 260.23,-213.05 268.23,-219.99 270.82,-213.49"/>
</g>
<!-- Node30 -->
<g id="node30" class="node">
<title>Node30</title>
<g id="a_node30"><a xlink:title=" ">
<polygon fill="#e0e0e0" stroke="#999999" points="330.47,-206 285.22,-206 285.22,-186 330.47,-186 330.47,-206"/>
<text text-anchor="middle" x="307.84" y="-192.5" font-family="Helvetica,sans-Serif" font-size="10.00">chrono</text>
</a>
</g>
</g>
<!-- Node28&#45;&gt;Node30 -->
<g id="edge45" class="edge">
<title>Node28&#45;&gt;Node30</title>
<path fill="none" stroke="#63b8ff" d="M361,-247.62C351.51,-238.59 336.95,-224.72 325.46,-213.78"/>
<polygon fill="#63b8ff" stroke="#63b8ff" points="328.16,-211.52 318.51,-207.16 323.33,-216.59 328.16,-211.52"/>
</g>
<!-- Node31 -->
<g id="node31" class="node">
<title>Node31</title>
<g id="a_node31"><a xlink:title=" ">
<polygon fill="#e0e0e0" stroke="#999999" points="154.22,-212 29.47,-212 29.47,-180 154.22,-180 154.22,-212"/>
<text text-anchor="start" x="37.47" y="-198.5" font-family="Helvetica,sans-Serif" font-size="10.00">boost/dll/runtime_symbol</text>
<text text-anchor="middle" x="91.84" y="-186.5" font-family="Helvetica,sans-Serif" font-size="10.00">_info.h</text>
</a>
</g>
</g>
<!-- Node28&#45;&gt;Node31 -->
<g id="edge47" class="edge">
<title>Node28&#45;&gt;Node31</title>
<path fill="none" stroke="#63b8ff" d="M334.37,-249.16C291.67,-239.97 219.87,-224.53 165.45,-212.83"/>
<polygon fill="#63b8ff" stroke="#63b8ff" points="166.45,-209.47 155.94,-210.78 164.98,-216.31 166.45,-209.47"/>
</g>
<!-- Node32&#45;&gt;Node5 -->
<g id="edge64" class="edge">
<title>Node32&#45;&gt;Node5</title>
<path fill="none" stroke="#63b8ff" d="M700.29,-251.47C648.01,-245.48 571,-233.71 506.84,-212 505.51,-211.55 504.17,-211.05 502.83,-210.51"/>
<polygon fill="#63b8ff" stroke="#63b8ff" points="504.73,-207.53 494.18,-206.47 501.77,-213.87 504.73,-207.53"/>
</g>
<!-- Node32&#45;&gt;Node14 -->
<g id="edge60" class="edge">
<title>Node32&#45;&gt;Node14</title>
<path fill="none" stroke="#63b8ff" d="M821.31,-256.18C1061.95,-252.77 1952.06,-238.59 2232.84,-212 2244.19,-210.93 2256.26,-209.34 2267.82,-207.6"/>
<polygon fill="#63b8ff" stroke="#63b8ff" points="2268.34,-211.06 2277.68,-206.05 2267.26,-204.14 2268.34,-211.06"/>
</g>
<!-- Node32&#45;&gt;Node16 -->
<g id="edge61" class="edge">
<title>Node32&#45;&gt;Node16</title>
<path fill="none" stroke="#63b8ff" d="M799.86,-247.56C840.19,-237.8 903.62,-222.46 950.03,-211.23"/>
<polygon fill="#63b8ff" stroke="#63b8ff" points="950.77,-214.65 959.66,-208.9 949.12,-207.85 950.77,-214.65"/>
</g>
<!-- Node32&#45;&gt;Node17 -->
<g id="edge62" class="edge">
<title>Node32&#45;&gt;Node17</title>
<path fill="none" stroke="#63b8ff" d="M700.58,-252.84C654.63,-247.79 590.78,-236.63 539.84,-212 519.96,-202.39 519.08,-193.8 501.84,-180 489.78,-170.34 476.25,-159.96 464.52,-151.1"/>
<polygon fill="#63b8ff" stroke="#63b8ff" points="466.88,-148.49 456.78,-145.28 462.67,-154.08 466.88,-148.49"/>
</g>
<!-- Node32&#45;&gt;Node24 -->
<g id="edge63" class="edge">
<title>Node32&#45;&gt;Node24</title>
<path fill="none" stroke="#63b8ff" d="M743.22,-247.59C730.78,-239.87 715.09,-227.66 707.84,-212 701.87,-199.09 701.36,-192.66 707.84,-180 720.33,-155.63 739.93,-164.71 757.84,-144 772.59,-126.94 783.76,-103.51 790.5,-86.99"/>
<polygon fill="#63b8ff" stroke="#63b8ff" points="793.72,-88.37 794.07,-77.78 787.2,-85.84 793.72,-88.37"/>
</g>
<!-- Node33 -->
<g id="node33" class="node">
<title>Node33</title>
<g id="a_node33"><a xlink:href="FMTLogger_8h.html" target="_top" xlink:title=" ">
<polygon fill="white" stroke="#666666" points="622.34,-206 549.34,-206 549.34,-186 622.34,-186 622.34,-206"/>
<text text-anchor="middle" x="585.84" y="-192.5" font-family="Helvetica,sans-Serif" font-size="10.00">FMTLogger.h</text>
</a>
</g>
</g>
<!-- Node32&#45;&gt;Node33 -->
<g id="edge52" class="edge">
<title>Node32&#45;&gt;Node33</title>
<path fill="none" stroke="#63b8ff" d="M733.5,-247.62C704.05,-237.53 656.97,-221.39 623.91,-210.05"/>
<polygon fill="#63b8ff" stroke="#63b8ff" points="625.31,-206.83 614.71,-206.9 623.04,-213.45 625.31,-206.83"/>
</g>
<!-- Node36 -->
<g id="node36" class="node">
<title>Node36</title>
<g id="a_node36"><a xlink:title=" ">
<polygon fill="#e0e0e0" stroke="#999999" points="906.22,-206 823.47,-206 823.47,-186 906.22,-186 906.22,-206"/>
<text text-anchor="middle" x="864.84" y="-192.5" font-family="Helvetica,sans-Serif" font-size="10.00">unordered_map</text>
</a>
</g>
</g>
<!-- Node32&#45;&gt;Node36 -->
<g id="edge59" class="edge">
<title>Node32&#45;&gt;Node36</title>
<path fill="none" stroke="#63b8ff" d="M777.09,-247.62C793.65,-238.07 819.59,-223.11 838.98,-211.92"/>
<polygon fill="#63b8ff" stroke="#63b8ff" points="840.48,-215.09 847.39,-207.07 836.98,-209.03 840.48,-215.09"/>
</g>
<!-- Node37 -->
<g id="node37" class="node">
<title>Node37</title>
<g id="a_node37"><a xlink:title=" ">
<polygon fill="#e0e0e0" stroke="#999999" points="805.22,-206 716.47,-206 716.47,-186 805.22,-186 805.22,-206"/>
<text text-anchor="middle" x="760.84" y="-192.5" font-family="Helvetica,sans-Serif" font-size="10.00">boost/thread.hpp</text>
</a>
</g>
</g>
<!-- Node32&#45;&gt;Node37 -->
<g id="edge65" class="edge">
<title>Node32&#45;&gt;Node37</title>
<path fill="none" stroke="#63b8ff" d="M760.84,-247.62C760.84,-239.56 760.84,-227.65 760.84,-217.41"/>
<polygon fill="#63b8ff" stroke="#63b8ff" points="764.34,-217.63 760.84,-207.63 757.34,-217.63 764.34,-217.63"/>
</g>
<!-- Node33&#45;&gt;Node3 -->
<g id="edge56" class="edge">
<title>Node33&#45;&gt;Node3</title>
<path fill="none" stroke="#63b8ff" d="M611.6,-185.59C651.71,-170.92 724.57,-144.26 724.84,-144 755.8,-114.73 727.54,-79.84 762.84,-56 839.62,-4.15 2308.32,-9.61 2544.04,-10.82"/>
<polygon fill="#63b8ff" stroke="#63b8ff" points="2543.96,-14.32 2553.98,-10.87 2544,-7.32 2543.96,-14.32"/>
</g>
<!-- Node33&#45;&gt;Node17 -->
<g id="edge53" class="edge">
<title>Node33&#45;&gt;Node17</title>
<path fill="none" stroke="#63b8ff" d="M564.21,-185.54C542.44,-176.03 508.21,-161.07 480.43,-148.93"/>
<polygon fill="#63b8ff" stroke="#63b8ff" points="482.09,-145.83 471.53,-145.03 479.29,-152.25 482.09,-145.83"/>
</g>
<!-- Node33&#45;&gt;Node21 -->
<g id="edge58" class="edge">
<title>Node33&#45;&gt;Node21</title>
<path fill="none" stroke="#63b8ff" d="M614.46,-185.51C621.7,-183.41 629.5,-181.4 636.84,-180 821.54,-144.86 1044.94,-133.77 1146.63,-130.4"/>
<polygon fill="#63b8ff" stroke="#63b8ff" points="1146.44,-133.91 1156.33,-130.09 1146.22,-126.91 1146.44,-133.91"/>
</g>
<!-- Node33&#45;&gt;Node24 -->
<g id="edge57" class="edge">
<title>Node33&#45;&gt;Node24</title>
<path fill="none" stroke="#63b8ff" d="M571.05,-185.6C547.87,-169.74 507.72,-136.95 528.84,-112 558.14,-77.4 694.13,-69.38 760.8,-67.54"/>
<polygon fill="#63b8ff" stroke="#63b8ff" points="760.59,-71.05 770.51,-67.31 760.43,-64.05 760.59,-71.05"/>
</g>
<!-- Node34 -->
<g id="node34" class="node">
<title>Node34</title>
<g id="a_node34"><a xlink:title=" ">
<polygon fill="#e0e0e0" stroke="#999999" points="715.47,-144 604.22,-144 604.22,-112 715.47,-112 715.47,-144"/>
<text text-anchor="start" x="612.22" y="-130.5" font-family="Helvetica,sans-Serif" font-size="10.00">boost/thread/recursive</text>
<text text-anchor="middle" x="659.84" y="-118.5" font-family="Helvetica,sans-Serif" font-size="10.00">_mutex.hpp</text>
</a>
</g>
</g>
<!-- Node33&#45;&gt;Node34 -->
<g id="edge54" class="edge">
<title>Node33&#45;&gt;Node34</title>
<path fill="none" stroke="#63b8ff" d="M596.44,-185.54C606.25,-176.8 621.22,-163.45 634.15,-151.92"/>
<polygon fill="#63b8ff" stroke="#63b8ff" points="636.42,-154.58 641.56,-145.31 631.76,-149.35 636.42,-154.58"/>
</g>
<!-- Node35 -->
<g id="node35" class="node">
<title>Node35</title>
<g id="a_node35"><a xlink:title=" ">
<polygon fill="#e0e0e0" stroke="#999999" points="585.97,-138 537.72,-138 537.72,-118 585.97,-118 585.97,-138"/>
<text text-anchor="middle" x="561.84" y="-124.5" font-family="Helvetica,sans-Serif" font-size="10.00">fstream</text>
</a>
</g>
</g>
<!-- Node33&#45;&gt;Node35 -->
<g id="edge55" class="edge">
<title>Node33&#45;&gt;Node35</title>
<path fill="none" stroke="#63b8ff" d="M582.4,-185.54C578.95,-176.04 573.51,-161.09 569.1,-148.95"/>
<polygon fill="#63b8ff" stroke="#63b8ff" points="572.5,-148.06 565.79,-139.86 565.92,-150.46 572.5,-148.06"/>
</g>
<!-- Node38&#45;&gt;Node2 -->
<g id="edge69" class="edge">
<title>Node38&#45;&gt;Node2</title>
<path fill="none" stroke="#63b8ff" d="M2426.86,-256.91C2277.48,-256.24 1748.17,-251.1 1313.84,-212 1288.97,-209.76 1261,-205.74 1240.04,-202.42"/>
<polygon fill="#63b8ff" stroke="#63b8ff" points="1240.81,-199 1230.38,-200.86 1239.69,-205.91 1240.81,-199"/>
</g>
<!-- Node38&#45;&gt;Node3 -->
<g id="edge68" class="edge">
<title>Node38&#45;&gt;Node3</title>
<path fill="none" stroke="#63b8ff" d="M2496.84,-247.56C2513.85,-240.49 2534.23,-229.06 2545.84,-212 2584.02,-155.93 2581.78,-70.71 2578.29,-31.75"/>
<polygon fill="#63b8ff" stroke="#63b8ff" points="2581.78,-31.51 2577.27,-21.92 2574.82,-32.23 2581.78,-31.51"/>
</g>
<!-- Node38&#45;&gt;Node13 -->
<g id="edge70" class="edge">
<title>Node38&#45;&gt;Node13</title>
<path fill="none" stroke="#63b8ff" d="M2465.97,-247.62C2464.34,-239.48 2461.92,-227.39 2459.86,-217.07"/>
<polygon fill="#63b8ff" stroke="#63b8ff" points="2463.35,-216.72 2457.96,-207.6 2456.49,-218.09 2463.35,-216.72"/>
</g>
<!-- Node38&#45;&gt;Node14 -->
<g id="edge71" class="edge">
<title>Node38&#45;&gt;Node14</title>
<path fill="none" stroke="#63b8ff" d="M2445.81,-247.62C2426.58,-239.44 2398.03,-227.29 2373.72,-216.95"/>
<polygon fill="#63b8ff" stroke="#63b8ff" points="2375.21,-213.78 2364.64,-213.08 2372.47,-220.22 2375.21,-213.78"/>
</g>
<!-- Node38&#45;&gt;Node16 -->
<g id="edge72" class="edge">
<title>Node38&#45;&gt;Node16</title>
<path fill="none" stroke="#63b8ff" d="M2426.84,-256.23C2215.04,-252.21 1248.18,-232.93 1067.75,-211.85"/>
<polygon fill="#63b8ff" stroke="#63b8ff" points="1068.44,-208.41 1058.08,-210.59 1067.54,-215.35 1068.44,-208.41"/>
</g>
<!-- Node38&#45;&gt;Node21 -->
<g id="edge73" class="edge">
<title>Node38&#45;&gt;Node21</title>
<path fill="none" stroke="#63b8ff" d="M2489.25,-247.63C2503.32,-240.19 2520.6,-228.33 2528.84,-212 2535.25,-199.3 2538.7,-190.25 2528.84,-180 2484.11,-133.52 1503.12,-129.33 1257.31,-129.01"/>
<polygon fill="#63b8ff" stroke="#63b8ff" points="1257.35,-125.51 1247.34,-129 1257.34,-132.51 1257.35,-125.51"/>
</g>
<!-- Node38&#45;&gt;Node25 -->
<g id="edge67" class="edge">
<title>Node38&#45;&gt;Node25</title>
<path fill="none" stroke="#63b8ff" d="M2508.82,-253.2C2538.1,-248.34 2576.34,-237.26 2599.84,-212 2632.1,-177.32 2637.7,-118.66 2638.24,-87.65"/>
<polygon fill="#63b8ff" stroke="#63b8ff" points="2641.74,-87.71 2638.23,-77.71 2634.74,-87.72 2641.74,-87.71"/>
</g>
</g>
</svg>
