<?xml version="1.0" encoding="UTF-8" standalone="no"?>
<!DOCTYPE svg PUBLIC "-//W3C//DTD SVG 1.1//EN"
 "http://www.w3.org/Graphics/SVG/1.1/DTD/svg11.dtd">
<!-- Generated by graphviz version 10.0.1 (20240210.2158)
 -->
<!-- Title: D:/FMT/Include/FMTOptimizationParser.h Pages: 1 -->
<!--zoomable 356 -->
<svg id="main" version="1.1" xmlns="http://www.w3.org/2000/svg" xmlns:xlink="http://www.w3.org/1999/xlink" xml:space="preserve" onload="init(evt)">
<style type="text/css"><![CDATA[
.edge:hover path { stroke: red; }
.edge:hover polygon { stroke: red; fill: red; }
]]></style>
<script type="text/javascript"><![CDATA[
var edges = document.getElementsByTagName('g');
if (edges && edges.length) {
  for (var i=0;i<edges.length;i++) {
    if (edges[i].id.substr(0,4)=='edge') {
      edges[i].setAttribute('class','edge');
    }
  }
}
]]></script>
        <defs>
                <circle id="rim" cx="0" cy="0" r="7"/>
                <circle id="rim2" cx="0" cy="0" r="3.5"/>
                <g id="zoomPlus">
                        <use xlink:href="#rim" fill="#404040">
                                <set attributeName="fill" to="#808080" begin="zoomplus.mouseover" end="zoomplus.mouseout"/>
                        </use>
                        <path d="M-4,0h8M0,-4v8" fill="none" stroke="white" stroke-width="1.5" pointer-events="none"/>
                </g>
                <g id="zoomMin">
                        <use xlink:href="#rim" fill="#404040">
                                <set attributeName="fill" to="#808080" begin="zoomminus.mouseover" end="zoomminus.mouseout"/>
                        </use>
                        <path d="M-4,0h8" fill="none" stroke="white" stroke-width="1.5" pointer-events="none"/>
                </g>
                <g id="dirArrow">
                        <path fill="none" stroke="white" stroke-width="1.5" d="M0,-3.0v7 M-2.5,-0.5L0,-3.0L2.5,-0.5"/>
                </g>
               <g id="resetDef">
                       <use xlink:href="#rim2" fill="#404040">
                               <set attributeName="fill" to="#808080" begin="reset.mouseover" end="reset.mouseout"/>
                       </use>
               </g>
        </defs>

<script type="text/javascript">
var viewWidth = 1289;
var viewHeight = 356;
var sectionId = 'dynsection-0';
</script>
<script xlink:href="svgpan.js"/>
<svg id="graph" class="graph">
<g id="viewport">
<title>D:/FMT/Include/FMTOptimizationParser.h</title>
<!-- Node1 -->
<g id="node1" class="node">
<title>Node1</title>
<g id="a_node1"><a xlink:title=" ">
<polygon fill="#999999" stroke="#666666" points="1128.5,-348 969.25,-348 969.25,-316 1128.5,-316 1128.5,-348"/>
<text text-anchor="start" x="977.25" y="-334.5" font-family="Helvetica,sans-Serif" font-size="10.00">D:/FMT/Include/FMTOptimization</text>
<text text-anchor="middle" x="1048.88" y="-322.5" font-family="Helvetica,sans-Serif" font-size="10.00">Parser.h</text>
</a>
</g>
</g>
<!-- Node2 -->
<g id="node2" class="node">
<title>Node2</title>
<g id="a_node2"><a xlink:href="FMTParser_8h.html" target="_top" xlink:title=" ">
<polygon fill="white" stroke="#666666" points="622,-280 549.75,-280 549.75,-260 622,-260 622,-280"/>
<text text-anchor="middle" x="585.88" y="-266.5" font-family="Helvetica,sans-Serif" font-size="10.00">FMTParser.h</text>
</a>
</g>
</g>
<!-- Node1&#45;&gt;Node2 -->
<g id="edge1" class="edge">
<title>Node1&#45;&gt;Node2</title>
<path fill="none" stroke="#63b8ff" d="M968.76,-320.62C872.05,-308.09 712.6,-287.42 633.47,-277.17"/>
<polygon fill="#63b8ff" stroke="#63b8ff" points="634.26,-273.74 623.89,-275.93 633.36,-280.68 634.26,-273.74"/>
</g>
<!-- Node3 -->
<g id="node3" class="node">
<title>Node3</title>
<g id="a_node3"><a xlink:title=" ">
<polygon fill="#e0e0e0" stroke="#999999" points="85.75,-218 0,-218 0,-198 85.75,-198 85.75,-218"/>
<text text-anchor="middle" x="42.88" y="-204.5" font-family="Helvetica,sans-Serif" font-size="10.00">boost/regex.hpp</text>
</a>
</g>
</g>
<!-- Node1&#45;&gt;Node3 -->
<g id="edge38" class="edge">
<title>Node1&#45;&gt;Node3</title>
<path fill="none" stroke="#63b8ff" d="M968.86,-326.29C804.71,-315.69 418.48,-285.87 99.88,-224 95.59,-223.17 91.15,-222.2 86.73,-221.16"/>
<polygon fill="#63b8ff" stroke="#63b8ff" points="87.88,-217.84 77.33,-218.83 86.2,-224.63 87.88,-217.84"/>
</g>
<!-- Node7 -->
<g id="node7" class="node">
<title>Node7</title>
<g id="a_node7"><a xlink:title=" ">
<polygon fill="#e0e0e0" stroke="#999999" points="917.88,-20 877.88,-20 877.88,0 917.88,0 917.88,-20"/>
<text text-anchor="middle" x="897.88" y="-6.5" font-family="Helvetica,sans-Serif" font-size="10.00">string</text>
</a>
</g>
</g>
<!-- Node1&#45;&gt;Node7 -->
<g id="edge35" class="edge">
<title>Node1&#45;&gt;Node7</title>
<path fill="none" stroke="#63b8ff" d="M1056.93,-315.69C1068.09,-293.02 1086.88,-248.93 1086.88,-209 1086.88,-209 1086.88,-209 1086.88,-139 1086.88,-63.68 982.71,-29.65 929.04,-17.11"/>
<polygon fill="#63b8ff" stroke="#63b8ff" points="930.1,-13.76 919.58,-15.02 928.59,-20.6 930.1,-13.76"/>
</g>
<!-- Node8 -->
<g id="node8" class="node">
<title>Node8</title>
<g id="a_node8"><a xlink:title=" ">
<polygon fill="#e0e0e0" stroke="#999999" points="908.62,-150 867.12,-150 867.12,-130 908.62,-130 908.62,-150"/>
<text text-anchor="middle" x="887.88" y="-136.5" font-family="Helvetica,sans-Serif" font-size="10.00">vector</text>
</a>
</g>
</g>
<!-- Node1&#45;&gt;Node8 -->
<g id="edge33" class="edge">
<title>Node1&#45;&gt;Node8</title>
<path fill="none" stroke="#63b8ff" d="M1044.14,-315.73C1033.97,-283.7 1009.51,-210.86 991.88,-192 972.37,-171.14 942.5,-157.73 919.77,-149.93"/>
<polygon fill="#63b8ff" stroke="#63b8ff" points="920.98,-146.64 910.38,-146.9 918.83,-153.3 920.98,-146.64"/>
</g>
<!-- Node9 -->
<g id="node9" class="node">
<title>Node9</title>
<g id="a_node9"><a xlink:title=" ">
<polygon fill="#e0e0e0" stroke="#999999" points="983,-218 940.75,-218 940.75,-198 983,-198 983,-218"/>
<text text-anchor="middle" x="961.88" y="-204.5" font-family="Helvetica,sans-Serif" font-size="10.00">queue</text>
</a>
</g>
</g>
<!-- Node1&#45;&gt;Node9 -->
<g id="edge36" class="edge">
<title>Node1&#45;&gt;Node9</title>
<path fill="none" stroke="#63b8ff" d="M1030.49,-315.78C1019.77,-306.26 1006.51,-293.32 996.88,-280 985.3,-264.01 975.7,-243.62 969.5,-228.79"/>
<polygon fill="#63b8ff" stroke="#63b8ff" points="972.82,-227.67 965.85,-219.69 966.32,-230.28 972.82,-227.67"/>
</g>
<!-- Node10 -->
<g id="node10" class="node">
<title>Node10</title>
<g id="a_node10"><a xlink:href="FMTutility_8h.html" target="_top" xlink:title=" ">
<polygon fill="white" stroke="#666666" points="944.38,-82 877.38,-82 877.38,-62 944.38,-62 944.38,-82"/>
<text text-anchor="middle" x="910.88" y="-68.5" font-family="Helvetica,sans-Serif" font-size="10.00">FMTutility.h</text>
</a>
</g>
</g>
<!-- Node1&#45;&gt;Node10 -->
<g id="edge37" class="edge">
<title>Node1&#45;&gt;Node10</title>
<path fill="none" stroke="#63b8ff" d="M1047.75,-315.88C1045.24,-289.31 1037.47,-233.16 1014.88,-192 992.26,-150.81 953.36,-111.47 930.08,-89.94"/>
<polygon fill="#63b8ff" stroke="#63b8ff" points="932.59,-87.49 922.83,-83.37 927.89,-92.68 932.59,-87.49"/>
</g>
<!-- Node27 -->
<g id="node27" class="node">
<title>Node27</title>
<g id="a_node27"><a xlink:title=" ">
<polygon fill="#e0e0e0" stroke="#999999" points="1170.75,-280 1115,-280 1115,-260 1170.75,-260 1170.75,-280"/>
<text text-anchor="middle" x="1142.88" y="-266.5" font-family="Helvetica,sans-Serif" font-size="10.00">algorithm</text>
</a>
</g>
</g>
<!-- Node1&#45;&gt;Node27 -->
<g id="edge32" class="edge">
<title>Node1&#45;&gt;Node27</title>
<path fill="none" stroke="#63b8ff" d="M1073.08,-315.55C1087.09,-306.61 1104.66,-295.39 1118.67,-286.45"/>
<polygon fill="#63b8ff" stroke="#63b8ff" points="1120.31,-289.55 1126.86,-281.22 1116.55,-283.65 1120.31,-289.55"/>
</g>
<!-- Node28 -->
<g id="node28" class="node">
<title>Node28</title>
<g id="a_node28"><a xlink:title=" ">
<polygon fill="#e0e0e0" stroke="#999999" points="1223.25,-280 1188.5,-280 1188.5,-260 1223.25,-260 1223.25,-280"/>
<text text-anchor="middle" x="1205.88" y="-266.5" font-family="Helvetica,sans-Serif" font-size="10.00">map</text>
</a>
</g>
</g>
<!-- Node1&#45;&gt;Node28 -->
<g id="edge34" class="edge">
<title>Node1&#45;&gt;Node28</title>
<path fill="none" stroke="#63b8ff" d="M1089.31,-315.55C1117.04,-304.95 1153.14,-291.15 1177.77,-281.74"/>
<polygon fill="#63b8ff" stroke="#63b8ff" points="1178.7,-285.13 1186.79,-278.29 1176.2,-278.59 1178.7,-285.13"/>
</g>
<!-- Node29 -->
<g id="node29" class="node">
<title>Node29</title>
<g id="a_node29"><a xlink:title=" ">
<polygon fill="#e0e0e0" stroke="#999999" points="1280.5,-280 1241.25,-280 1241.25,-260 1280.5,-260 1280.5,-280"/>
<text text-anchor="middle" x="1260.88" y="-266.5" font-family="Helvetica,sans-Serif" font-size="10.00">limits</text>
</a>
</g>
</g>
<!-- Node1&#45;&gt;Node29 -->
<g id="edge39" class="edge">
<title>Node1&#45;&gt;Node29</title>
<path fill="none" stroke="#63b8ff" d="M1105.87,-315.57C1139.43,-306.39 1182.95,-294.29 1229.9,-280.52"/>
<polygon fill="#63b8ff" stroke="#63b8ff" points="1230.87,-283.88 1239.48,-277.7 1228.9,-277.17 1230.87,-283.88"/>
</g>
<!-- Node2&#45;&gt;Node3 -->
<g id="edge2" class="edge">
<title>Node2&#45;&gt;Node3</title>
<path fill="none" stroke="#63b8ff" d="M549.33,-267.68C468,-264.28 266.14,-253.37 99.88,-224 95.28,-223.19 90.52,-222.19 85.79,-221.1"/>
<polygon fill="#63b8ff" stroke="#63b8ff" points="86.94,-217.78 76.39,-218.79 85.27,-224.57 86.94,-217.78"/>
</g>
<!-- Node4 -->
<g id="node4" class="node">
<title>Node4</title>
<g id="a_node4"><a xlink:title=" ">
<polygon fill="#e0e0e0" stroke="#999999" points="884.88,-218 838.88,-218 838.88,-198 884.88,-198 884.88,-218"/>
<text text-anchor="middle" x="861.88" y="-204.5" font-family="Helvetica,sans-Serif" font-size="10.00">iterator</text>
</a>
</g>
</g>
<!-- Node2&#45;&gt;Node4 -->
<g id="edge3" class="edge">
<title>Node2&#45;&gt;Node4</title>
<path fill="none" stroke="#63b8ff" d="M622.14,-265.25C670.43,-259.6 758.09,-247.02 829.88,-224 831.04,-223.63 832.22,-223.22 833.41,-222.78"/>
<polygon fill="#63b8ff" stroke="#63b8ff" points="834.65,-226.06 842.53,-218.98 831.95,-219.6 834.65,-226.06"/>
</g>
<!-- Node5 -->
<g id="node5" class="node">
<title>Node5</title>
<g id="a_node5"><a xlink:title=" ">
<polygon fill="#e0e0e0" stroke="#999999" points="214.62,-82 161.12,-82 161.12,-62 214.62,-62 214.62,-82"/>
<text text-anchor="middle" x="187.88" y="-68.5" font-family="Helvetica,sans-Serif" font-size="10.00">iostream</text>
</a>
</g>
</g>
<!-- Node2&#45;&gt;Node5 -->
<g id="edge4" class="edge">
<title>Node2&#45;&gt;Node5</title>
<path fill="none" stroke="#63b8ff" d="M549.54,-266.08C499.29,-261.27 406.24,-249.54 330.88,-224 268.75,-202.95 237.87,-209.47 199.88,-156 186.99,-137.86 185.21,-111.8 185.87,-93.74"/>
<polygon fill="#63b8ff" stroke="#63b8ff" points="189.35,-94.19 186.53,-83.98 182.36,-93.72 189.35,-94.19"/>
</g>
<!-- Node6 -->
<g id="node6" class="node">
<title>Node6</title>
<g id="a_node6"><a xlink:title=" ">
<polygon fill="#e0e0e0" stroke="#999999" points="478,-218 429.75,-218 429.75,-198 478,-198 478,-218"/>
<text text-anchor="middle" x="453.88" y="-204.5" font-family="Helvetica,sans-Serif" font-size="10.00">fstream</text>
</a>
</g>
</g>
<!-- Node2&#45;&gt;Node6 -->
<g id="edge5" class="edge">
<title>Node2&#45;&gt;Node6</title>
<path fill="none" stroke="#63b8ff" d="M565.25,-259.62C543.65,-249.81 509.48,-234.27 484.68,-223"/>
<polygon fill="#63b8ff" stroke="#63b8ff" points="486.29,-219.89 475.73,-218.94 483.39,-226.26 486.29,-219.89"/>
</g>
<!-- Node2&#45;&gt;Node7 -->
<g id="edge6" class="edge">
<title>Node2&#45;&gt;Node7</title>
<path fill="none" stroke="#63b8ff" d="M549.32,-267.98C470.17,-265.21 285.77,-255.46 232.88,-224 161.63,-181.62 95.05,-116.35 151.88,-56 176.72,-29.61 726.82,-15 866.07,-11.72"/>
<polygon fill="#63b8ff" stroke="#63b8ff" points="866.1,-15.22 876.01,-11.48 865.94,-8.22 866.1,-15.22"/>
</g>
<!-- Node2&#45;&gt;Node8 -->
<g id="edge7" class="edge">
<title>Node2&#45;&gt;Node8</title>
<path fill="none" stroke="#63b8ff" d="M581.49,-259.59C574.74,-243.58 564.25,-210.92 580.88,-192 621.84,-145.36 798.51,-174.13 857.88,-156 859.02,-155.65 860.17,-155.26 861.32,-154.84"/>
<polygon fill="#63b8ff" stroke="#63b8ff" points="862.3,-158.23 870.08,-151.04 859.51,-151.81 862.3,-158.23"/>
</g>
<!-- Node2&#45;&gt;Node9 -->
<g id="edge8" class="edge">
<title>Node2&#45;&gt;Node9</title>
<path fill="none" stroke="#63b8ff" d="M622.36,-267.46C685.46,-264.06 818.62,-253.73 926.88,-224 928.67,-223.51 930.5,-222.94 932.32,-222.32"/>
<polygon fill="#63b8ff" stroke="#63b8ff" points="933.1,-225.77 941.18,-218.92 930.59,-219.24 933.1,-225.77"/>
</g>
<!-- Node2&#45;&gt;Node10 -->
<g id="edge9" class="edge">
<title>Node2&#45;&gt;Node10</title>
<path fill="none" stroke="#63b8ff" d="M622.24,-268.28C694.56,-266.13 853.03,-257.6 893.88,-224 931.82,-192.8 923.56,-127.09 916.23,-93.59"/>
<polygon fill="#63b8ff" stroke="#63b8ff" points="919.65,-92.85 913.92,-83.94 912.85,-94.48 919.65,-92.85"/>
</g>
<!-- Node11 -->
<g id="node11" class="node">
<title>Node11</title>
<g id="a_node11"><a xlink:title=" ">
<polygon fill="#e0e0e0" stroke="#999999" points="533.75,-218 496,-218 496,-198 533.75,-198 533.75,-218"/>
<text text-anchor="middle" x="514.88" y="-204.5" font-family="Helvetica,sans-Serif" font-size="10.00">array</text>
</a>
</g>
</g>
<!-- Node2&#45;&gt;Node11 -->
<g id="edge11" class="edge">
<title>Node2&#45;&gt;Node11</title>
<path fill="none" stroke="#63b8ff" d="M574.78,-259.62C563.99,-250.5 547.35,-236.45 534.35,-225.46"/>
<polygon fill="#63b8ff" stroke="#63b8ff" points="536.71,-222.87 526.81,-219.09 532.19,-228.22 536.71,-222.87"/>
</g>
<!-- Node12 -->
<g id="node12" class="node">
<title>Node12</title>
<g id="a_node12"><a xlink:title=" ">
<polygon fill="#e0e0e0" stroke="#999999" points="629.88,-218 589.88,-218 589.88,-198 629.88,-198 629.88,-218"/>
<text text-anchor="middle" x="609.88" y="-204.5" font-family="Helvetica,sans-Serif" font-size="10.00">ctime</text>
</a>
</g>
</g>
<!-- Node2&#45;&gt;Node12 -->
<g id="edge12" class="edge">
<title>Node2&#45;&gt;Node12</title>
<path fill="none" stroke="#63b8ff" d="M589.62,-259.62C592.92,-251.39 597.82,-239.13 601.98,-228.74"/>
<polygon fill="#63b8ff" stroke="#63b8ff" points="605.2,-230.1 605.67,-219.52 598.7,-227.5 605.2,-230.1"/>
</g>
<!-- Node13 -->
<g id="node13" class="node">
<title>Node13</title>
<g id="a_node13"><a xlink:title=" ">
<polygon fill="#e0e0e0" stroke="#999999" points="691.38,-218 648.38,-218 648.38,-198 691.38,-198 691.38,-218"/>
<text text-anchor="middle" x="669.88" y="-204.5" font-family="Helvetica,sans-Serif" font-size="10.00">mutex</text>
</a>
</g>
</g>
<!-- Node2&#45;&gt;Node13 -->
<g id="edge13" class="edge">
<title>Node2&#45;&gt;Node13</title>
<path fill="none" stroke="#63b8ff" d="M599,-259.62C612.07,-250.29 632.37,-235.79 647.9,-224.7"/>
<polygon fill="#63b8ff" stroke="#63b8ff" points="649.51,-227.85 655.61,-219.19 645.44,-222.15 649.51,-227.85"/>
</g>
<!-- Node14 -->
<g id="node14" class="node">
<title>Node14</title>
<g id="a_node14"><a xlink:title=" ">
<polygon fill="#e0e0e0" stroke="#999999" points="820.5,-224 709.25,-224 709.25,-192 820.5,-192 820.5,-224"/>
<text text-anchor="start" x="717.25" y="-210.5" font-family="Helvetica,sans-Serif" font-size="10.00">boost/thread/recursive</text>
<text text-anchor="middle" x="764.88" y="-198.5" font-family="Helvetica,sans-Serif" font-size="10.00">_mutex.hpp</text>
</a>
</g>
</g>
<!-- Node2&#45;&gt;Node14 -->
<g id="edge14" class="edge">
<title>Node2&#45;&gt;Node14</title>
<path fill="none" stroke="#63b8ff" d="M613.84,-259.62C638.91,-251.22 676.46,-238.64 707.85,-228.12"/>
<polygon fill="#63b8ff" stroke="#63b8ff" points="708.86,-231.47 717.23,-224.97 706.63,-224.83 708.86,-231.47"/>
</g>
<!-- Node15 -->
<g id="node15" class="node">
<title>Node15</title>
<g id="a_node15"><a xlink:href="FMTObject_8h.html" target="_top" xlink:title=" ">
<polygon fill="white" stroke="#666666" points="412,-218 339.75,-218 339.75,-198 412,-198 412,-218"/>
<text text-anchor="middle" x="375.88" y="-204.5" font-family="Helvetica,sans-Serif" font-size="10.00">FMTObject.h</text>
</a>
</g>
</g>
<!-- Node2&#45;&gt;Node15 -->
<g id="edge15" class="edge">
<title>Node2&#45;&gt;Node15</title>
<path fill="none" stroke="#63b8ff" d="M549.34,-259.66C515.79,-250.93 464.78,-237.29 420.88,-224 418.66,-223.33 416.39,-222.62 414.1,-221.9"/>
<polygon fill="#63b8ff" stroke="#63b8ff" points="415.44,-218.66 404.84,-218.91 413.28,-225.32 415.44,-218.66"/>
</g>
<!-- Node10&#45;&gt;Node7 -->
<g id="edge10" class="edge">
<title>Node10&#45;&gt;Node7</title>
<path fill="none" stroke="#63b8ff" d="M908.84,-61.62C907.08,-53.48 904.46,-41.39 902.22,-31.07"/>
<polygon fill="#63b8ff" stroke="#63b8ff" points="905.71,-30.62 900.17,-21.59 898.87,-32.11 905.71,-30.62"/>
</g>
<!-- Node15&#45;&gt;Node8 -->
<g id="edge30" class="edge">
<title>Node15&#45;&gt;Node8</title>
<path fill="none" stroke="#63b8ff" d="M400.81,-197.51C407.27,-195.38 414.26,-193.35 420.88,-192 611.79,-152.91 670.21,-208.53 857.88,-156 859.05,-155.67 860.24,-155.29 861.42,-154.88"/>
<polygon fill="#63b8ff" stroke="#63b8ff" points="862.62,-158.18 870.43,-151.02 859.86,-151.74 862.62,-158.18"/>
</g>
<!-- Node16 -->
<g id="node16" class="node">
<title>Node16</title>
<g id="a_node16"><a xlink:title=" ">
<polygon fill="#e0e0e0" stroke="#999999" points="736.25,-156 641.5,-156 641.5,-124 736.25,-124 736.25,-156"/>
<text text-anchor="start" x="649.5" y="-142.5" font-family="Helvetica,sans-Serif" font-size="10.00">boost/serialization</text>
<text text-anchor="middle" x="688.88" y="-130.5" font-family="Helvetica,sans-Serif" font-size="10.00">/unique_ptr.hpp</text>
</a>
</g>
</g>
<!-- Node15&#45;&gt;Node16 -->
<g id="edge16" class="edge">
<title>Node15&#45;&gt;Node16</title>
<path fill="none" stroke="#63b8ff" d="M401.85,-197.59C408.03,-195.56 414.64,-193.56 420.88,-192 510.15,-169.68 537.49,-175.87 630.26,-156.43"/>
<polygon fill="#63b8ff" stroke="#63b8ff" points="630.77,-159.91 639.81,-154.39 629.3,-153.06 630.77,-159.91"/>
</g>
<!-- Node17 -->
<g id="node17" class="node">
<title>Node17</title>
<g id="a_node17"><a xlink:title=" ">
<polygon fill="#e0e0e0" stroke="#999999" points="849.25,-156 754.5,-156 754.5,-124 849.25,-124 849.25,-156"/>
<text text-anchor="start" x="762.5" y="-142.5" font-family="Helvetica,sans-Serif" font-size="10.00">boost/serialization</text>
<text text-anchor="middle" x="801.88" y="-130.5" font-family="Helvetica,sans-Serif" font-size="10.00">/nvp.hpp</text>
</a>
</g>
</g>
<!-- Node15&#45;&gt;Node17 -->
<g id="edge17" class="edge">
<title>Node15&#45;&gt;Node17</title>
<path fill="none" stroke="#63b8ff" d="M400.84,-197.64C407.29,-195.51 414.28,-193.45 420.88,-192 558.93,-161.68 600.42,-181.48 743.18,-156.11"/>
<polygon fill="#63b8ff" stroke="#63b8ff" points="743.4,-159.63 752.61,-154.39 742.14,-152.74 743.4,-159.63"/>
</g>
<!-- Node18 -->
<g id="node18" class="node">
<title>Node18</title>
<g id="a_node18"><a xlink:title=" ">
<polygon fill="#e0e0e0" stroke="#999999" points="312.25,-156 217.5,-156 217.5,-124 312.25,-124 312.25,-156"/>
<text text-anchor="start" x="225.5" y="-142.5" font-family="Helvetica,sans-Serif" font-size="10.00">boost/serialization</text>
<text text-anchor="middle" x="264.88" y="-130.5" font-family="Helvetica,sans-Serif" font-size="10.00">/export.hpp</text>
</a>
</g>
</g>
<!-- Node15&#45;&gt;Node18 -->
<g id="edge18" class="edge">
<title>Node15&#45;&gt;Node18</title>
<path fill="none" stroke="#63b8ff" d="M359.97,-197.54C344.48,-188.34 320.41,-174.02 300.37,-162.1"/>
<polygon fill="#63b8ff" stroke="#63b8ff" points="302.29,-159.18 291.91,-157.07 298.72,-165.19 302.29,-159.18"/>
</g>
<!-- Node19 -->
<g id="node19" class="node">
<title>Node19</title>
<g id="a_node19"><a xlink:href="FMTException_8h.html" target="_top" xlink:title=" ">
<polygon fill="white" stroke="#666666" points="623.5,-150 536.25,-150 536.25,-130 623.5,-130 623.5,-150"/>
<text text-anchor="middle" x="579.88" y="-136.5" font-family="Helvetica,sans-Serif" font-size="10.00">FMTException.h</text>
</a>
</g>
</g>
<!-- Node15&#45;&gt;Node19 -->
<g id="edge19" class="edge">
<title>Node15&#45;&gt;Node19</title>
<path fill="none" stroke="#63b8ff" d="M403.94,-197.59C409.55,-195.73 415.4,-193.79 420.88,-192 461.05,-178.86 507.04,-164.14 539.19,-153.91"/>
<polygon fill="#63b8ff" stroke="#63b8ff" points="540.04,-157.31 548.51,-150.95 537.92,-150.64 540.04,-157.31"/>
</g>
<!-- Node21 -->
<g id="node21" class="node">
<title>Node21</title>
<g id="a_node21"><a xlink:title=" ">
<polygon fill="#e0e0e0" stroke="#999999" points="295.5,-82 244.25,-82 244.25,-62 295.5,-62 295.5,-82"/>
<text text-anchor="middle" x="269.88" y="-68.5" font-family="Helvetica,sans-Serif" font-size="10.00">memory</text>
</a>
</g>
</g>
<!-- Node15&#45;&gt;Node21 -->
<g id="edge28" class="edge">
<title>Node15&#45;&gt;Node21</title>
<path fill="none" stroke="#63b8ff" d="M339.57,-207.52C300.14,-205.88 238.81,-196.45 208.88,-156 191.58,-132.63 220.86,-105.46 244.53,-88.75"/>
<polygon fill="#63b8ff" stroke="#63b8ff" points="246.26,-91.81 252.6,-83.32 242.35,-86 246.26,-91.81"/>
</g>
<!-- Node25 -->
<g id="node25" class="node">
<title>Node25</title>
<g id="a_node25"><a xlink:title=" ">
<polygon fill="#e0e0e0" stroke="#999999" points="375.5,-150 330.25,-150 330.25,-130 375.5,-130 375.5,-150"/>
<text text-anchor="middle" x="352.88" y="-136.5" font-family="Helvetica,sans-Serif" font-size="10.00">chrono</text>
</a>
</g>
</g>
<!-- Node15&#45;&gt;Node25 -->
<g id="edge29" class="edge">
<title>Node15&#45;&gt;Node25</title>
<path fill="none" stroke="#63b8ff" d="M372.58,-197.54C369.27,-188.04 364.06,-173.09 359.83,-160.95"/>
<polygon fill="#63b8ff" stroke="#63b8ff" points="363.26,-160.16 356.66,-151.87 356.65,-162.46 363.26,-160.16"/>
</g>
<!-- Node26 -->
<g id="node26" class="node">
<title>Node26</title>
<g id="a_node26"><a xlink:title=" ">
<polygon fill="#e0e0e0" stroke="#999999" points="518.25,-156 393.5,-156 393.5,-124 518.25,-124 518.25,-156"/>
<text text-anchor="start" x="401.5" y="-142.5" font-family="Helvetica,sans-Serif" font-size="10.00">boost/dll/runtime_symbol</text>
<text text-anchor="middle" x="455.88" y="-130.5" font-family="Helvetica,sans-Serif" font-size="10.00">_info.h</text>
</a>
</g>
</g>
<!-- Node15&#45;&gt;Node26 -->
<g id="edge31" class="edge">
<title>Node15&#45;&gt;Node26</title>
<path fill="none" stroke="#63b8ff" d="M387.34,-197.54C398.04,-188.71 414.43,-175.19 428.5,-163.58"/>
<polygon fill="#63b8ff" stroke="#63b8ff" points="430.67,-166.33 436.16,-157.26 426.22,-160.93 430.67,-166.33"/>
</g>
<!-- Node19&#45;&gt;Node5 -->
<g id="edge22" class="edge">
<title>Node19&#45;&gt;Node5</title>
<path fill="none" stroke="#63b8ff" d="M549.52,-129.55C542.16,-127.5 534.28,-125.5 526.88,-124 398.7,-98.12 362.6,-116 234.88,-88 231.74,-87.31 228.51,-86.5 225.29,-85.63"/>
<polygon fill="#63b8ff" stroke="#63b8ff" points="226.52,-82.34 215.94,-82.87 224.54,-89.05 226.52,-82.34"/>
</g>
<!-- Node19&#45;&gt;Node7 -->
<g id="edge21" class="edge">
<title>Node19&#45;&gt;Node7</title>
<path fill="none" stroke="#63b8ff" d="M609.02,-129.52C638.48,-119.75 685.2,-103.78 724.88,-88 775.73,-67.78 833.61,-41.29 867.86,-25.24"/>
<polygon fill="#63b8ff" stroke="#63b8ff" points="869.19,-28.49 876.75,-21.06 866.21,-22.15 869.19,-28.49"/>
</g>
<!-- Node19&#45;&gt;Node10 -->
<g id="edge24" class="edge">
<title>Node19&#45;&gt;Node10</title>
<path fill="none" stroke="#63b8ff" d="M611.42,-129.55C618.45,-127.59 625.89,-125.63 632.88,-124 714.53,-105 811.01,-88.65 866.16,-79.87"/>
<polygon fill="#63b8ff" stroke="#63b8ff" points="866.46,-83.36 875.79,-78.35 865.37,-76.45 866.46,-83.36"/>
</g>
<!-- Node20 -->
<g id="node20" class="node">
<title>Node20</title>
<g id="a_node20"><a xlink:title=" ">
<polygon fill="#e0e0e0" stroke="#999999" points="715.88,-82 657.88,-82 657.88,-62 715.88,-62 715.88,-82"/>
<text text-anchor="middle" x="686.88" y="-68.5" font-family="Helvetica,sans-Serif" font-size="10.00">exception</text>
</a>
</g>
</g>
<!-- Node19&#45;&gt;Node20 -->
<g id="edge20" class="edge">
<title>Node19&#45;&gt;Node20</title>
<path fill="none" stroke="#63b8ff" d="M595.21,-129.54C612.61,-118.81 641.25,-101.14 661.89,-88.41"/>
<polygon fill="#63b8ff" stroke="#63b8ff" points="663.61,-91.46 670.28,-83.23 659.94,-85.5 663.61,-91.46"/>
</g>
<!-- Node19&#45;&gt;Node21 -->
<g id="edge23" class="edge">
<title>Node19&#45;&gt;Node21</title>
<path fill="none" stroke="#63b8ff" d="M548.63,-129.54C541.52,-127.56 533.97,-125.59 526.88,-124 431.91,-102.72 404.98,-112.83 310.88,-88 308.73,-87.43 306.54,-86.8 304.35,-86.13"/>
<polygon fill="#63b8ff" stroke="#63b8ff" points="305.51,-82.83 294.92,-82.96 303.29,-89.46 305.51,-82.83"/>
</g>
<!-- Node22 -->
<g id="node22" class="node">
<title>Node22</title>
<g id="a_node22"><a xlink:title=" ">
<polygon fill="#e0e0e0" stroke="#999999" points="414.25,-88 319.5,-88 319.5,-56 414.25,-56 414.25,-88"/>
<text text-anchor="start" x="327.5" y="-74.5" font-family="Helvetica,sans-Serif" font-size="10.00">boost/serialization</text>
<text text-anchor="middle" x="366.88" y="-62.5" font-family="Helvetica,sans-Serif" font-size="10.00">/access.hpp</text>
</a>
</g>
</g>
<!-- Node19&#45;&gt;Node22 -->
<g id="edge25" class="edge">
<title>Node19&#45;&gt;Node22</title>
<path fill="none" stroke="#63b8ff" d="M549.36,-129.54C517.18,-119.57 465.7,-103.62 425.61,-91.2"/>
<polygon fill="#63b8ff" stroke="#63b8ff" points="426.66,-87.86 416.08,-88.25 424.59,-94.55 426.66,-87.86"/>
</g>
<!-- Node23 -->
<g id="node23" class="node">
<title>Node23</title>
<g id="a_node23"><a xlink:title=" ">
<polygon fill="#e0e0e0" stroke="#999999" points="527.25,-88 432.5,-88 432.5,-56 527.25,-56 527.25,-88"/>
<text text-anchor="start" x="440.5" y="-74.5" font-family="Helvetica,sans-Serif" font-size="10.00">boost/serialization</text>
<text text-anchor="middle" x="479.88" y="-62.5" font-family="Helvetica,sans-Serif" font-size="10.00">/base_object.hpp</text>
</a>
</g>
</g>
<!-- Node19&#45;&gt;Node23 -->
<g id="edge26" class="edge">
<title>Node19&#45;&gt;Node23</title>
<path fill="none" stroke="#63b8ff" d="M565.55,-129.54C551.79,-120.46 530.5,-106.41 512.59,-94.59"/>
<polygon fill="#63b8ff" stroke="#63b8ff" points="514.6,-91.72 504.32,-89.13 510.74,-97.56 514.6,-91.72"/>
</g>
<!-- Node24 -->
<g id="node24" class="node">
<title>Node24</title>
<g id="a_node24"><a xlink:title=" ">
<polygon fill="#e0e0e0" stroke="#999999" points="640.25,-88 545.5,-88 545.5,-56 640.25,-56 640.25,-88"/>
<text text-anchor="start" x="553.5" y="-74.5" font-family="Helvetica,sans-Serif" font-size="10.00">boost/serialization</text>
<text text-anchor="middle" x="592.88" y="-62.5" font-family="Helvetica,sans-Serif" font-size="10.00">/string.hpp</text>
</a>
</g>
</g>
<!-- Node19&#45;&gt;Node24 -->
<g id="edge27" class="edge">
<title>Node19&#45;&gt;Node24</title>
<path fill="none" stroke="#63b8ff" d="M581.74,-129.54C583.29,-121.64 585.59,-109.97 587.7,-99.29"/>
<polygon fill="#63b8ff" stroke="#63b8ff" points="591.07,-100.27 589.57,-89.79 584.2,-98.92 591.07,-100.27"/>
</g>
</g>
</svg>
        <g id="navigator" transform="translate(0 0)" fill="#404254">
                <rect fill="#f2f5e9" fill-opacity="0.5" stroke="#606060" stroke-width=".5" x="0" y="0" width="60" height="60"/>
                <use id="zoomplus" xlink:href="#zoomPlus" x="17" y="9" onmousedown="handleZoom(evt,'in')"/>
                <use id="zoomminus" xlink:href="#zoomMin" x="42" y="9" onmousedown="handleZoom(evt,'out')"/>
                <use id="reset" xlink:href="#resetDef" x="30" y="36" onmousedown="handleReset()"/>
                <g id="arrowUp" xlink:href="#dirArrow" transform="translate(30 24)" onmousedown="handlePan(0,-1)">
                  <use xlink:href="#rim" fill="#404040">
                        <set attributeName="fill" to="#808080" begin="arrowUp.mouseover" end="arrowUp.mouseout"/>
                  </use>
                  <path fill="none" stroke="white" stroke-width="1.5" d="M0,-3.0v7 M-2.5,-0.5L0,-3.0L2.5,-0.5"/>
                </g>
                <g id="arrowRight" xlink:href="#dirArrow" transform="rotate(90) translate(36 -43)" onmousedown="handlePan(1,0)">
                  <use xlink:href="#rim" fill="#404040">
                        <set attributeName="fill" to="#808080" begin="arrowRight.mouseover" end="arrowRight.mouseout"/>
                  </use>
                  <path fill="none" stroke="white" stroke-width="1.5" d="M0,-3.0v7 M-2.5,-0.5L0,-3.0L2.5,-0.5"/>
                </g>
                <g id="arrowDown" xlink:href="#dirArrow" transform="rotate(180) translate(-30 -48)" onmousedown="handlePan(0,1)">
                  <use xlink:href="#rim" fill="#404040">
                        <set attributeName="fill" to="#808080" begin="arrowDown.mouseover" end="arrowDown.mouseout"/>
                  </use>
                  <path fill="none" stroke="white" stroke-width="1.5" d="M0,-3.0v7 M-2.5,-0.5L0,-3.0L2.5,-0.5"/>
                </g>
                <g id="arrowLeft" xlink:href="#dirArrow" transform="rotate(270) translate(-36 17)" onmousedown="handlePan(-1,0)">
                  <use xlink:href="#rim" fill="#404040">
                        <set attributeName="fill" to="#808080" begin="arrowLeft.mouseover" end="arrowLeft.mouseout"/>
                  </use>
                  <path fill="none" stroke="white" stroke-width="1.5" d="M0,-3.0v7 M-2.5,-0.5L0,-3.0L2.5,-0.5"/>
                </g>
        </g>
        <svg viewBox="0 0 15 15" width="100%" height="30px" preserveAspectRatio="xMaxYMin meet">
         <g id="arrow_out" transform="scale(0.3 0.3)">
          <a xlink:href="FMTOptimizationParser_8h__incl_org.svg" target="_base">
           <rect id="button" ry="5" rx="5" y="6" x="6" height="38" width="38"
                fill="#f2f5e9" fill-opacity="0.5" stroke="#606060" stroke-width="1.0"/>
           <path id="arrow"
             d="M 11.500037,31.436501 C 11.940474,20.09759 22.043105,11.32322 32.158766,21.979434 L 37.068811,17.246167 C 37.068811,17.246167 37.088388,32 37.088388,32 L 22.160133,31.978069 C 22.160133,31.978069 26.997745,27.140456 26.997745,27.140456 C 18.528582,18.264221 13.291696,25.230495 11.500037,31.436501 z"
             style="fill:#404040;"/>
          </a>
         </g>
        </svg>
</svg>
