<?xml version="1.0" encoding="UTF-8" standalone="no"?>
<!DOCTYPE svg PUBLIC "-//W3C//DTD SVG 1.1//EN"
 "http://www.w3.org/Graphics/SVG/1.1/DTD/svg11.dtd">
<!-- Generated by graphviz version 8.1.0 (20230707.0739)
 -->
<!-- Title: C:/Temp/out/FMT/Include/FMToutput.hpp Pages: 1 -->
<svg width="1928pt" height="652pt"
 viewBox="0.00 0.00 1927.75 652.00" xmlns="http://www.w3.org/2000/svg" xmlns:xlink="http://www.w3.org/1999/xlink">
<g id="graph0" class="graph" transform="scale(1 1) rotate(0) translate(4 648)">
<title>C:/Temp/out/FMT/Include/FMToutput.hpp</title>
<!-- Node1 -->
<g id="Node000001" class="node">
<title>Node1</title>
<g id="a_Node000001"><a xlink:title=" ">
<polygon fill="#999999" stroke="#666666" points="1123.75,-644 998.25,-644 998.25,-612 1123.75,-612 1123.75,-644"/>
<text text-anchor="start" x="1006.25" y="-630.5" font-family="Helvetica,sans-Serif" font-size="10.00">C:/Temp/out/FMT/Include</text>
<text text-anchor="middle" x="1061" y="-618.5" font-family="Helvetica,sans-Serif" font-size="10.00">/FMToutput.hpp</text>
</a>
</g>
</g>
<!-- Node2 -->
<g id="Node000002" class="node">
<title>Node2</title>
<g id="a_Node000002"><a xlink:href="FMTconstraint_8hpp.html" target="_top" xlink:title=" ">
<polygon fill="white" stroke="#666666" points="1032.75,-576 907.25,-576 907.25,-544 1032.75,-544 1032.75,-576"/>
<text text-anchor="start" x="915.25" y="-562.5" font-family="Helvetica,sans-Serif" font-size="10.00">C:/Temp/out/FMT/Include</text>
<text text-anchor="middle" x="970" y="-550.5" font-family="Helvetica,sans-Serif" font-size="10.00">/FMTconstraint.hpp</text>
</a>
</g>
</g>
<!-- Node1&#45;&gt;Node2 -->
<g id="edge1_Node000001_Node000002" class="edge">
<title>Node1&#45;&gt;Node2</title>
<g id="a_edge1_Node000001_Node000002"><a xlink:title=" ">
<path fill="none" stroke="#63b8ff" d="M1031.24,-605.42C1018.2,-595.96 1003.2,-585.08 991.3,-576.45"/>
<polygon fill="#63b8ff" stroke="#63b8ff" points="1028.74,-608.65 1038.89,-611.69 1032.85,-602.99 1028.74,-608.65"/>
</a>
</g>
</g>
<!-- Node9 -->
<g id="Node000009" class="node">
<title>Node9</title>
<g id="a_Node000009"><a xlink:href="Rdeclarations_8hpp.html" target="_top" xlink:title=" ">
<polygon fill="white" stroke="#666666" points="880.75,-100 755.25,-100 755.25,-68 880.75,-68 880.75,-100"/>
<text text-anchor="start" x="763.25" y="-86.5" font-family="Helvetica,sans-Serif" font-size="10.00">C:/Temp/out/FMT/Include</text>
<text text-anchor="middle" x="818" y="-74.5" font-family="Helvetica,sans-Serif" font-size="10.00">/Rdeclarations.hpp</text>
</a>
</g>
</g>
<!-- Node1&#45;&gt;Node9 -->
<g id="edge64_Node000001_Node000009" class="edge">
<title>Node1&#45;&gt;Node9</title>
<g id="a_edge64_Node000001_Node000009"><a xlink:title=" ">
<path fill="none" stroke="#63b8ff" d="M987.16,-622.74C784.74,-610.07 236,-568.74 236,-493 236,-493 236,-493 236,-423 236,-185.07 604.21,-111.8 754.88,-91.78"/>
<polygon fill="#63b8ff" stroke="#63b8ff" points="986.77,-626.28 996.97,-623.41 987.21,-619.29 986.77,-626.28"/>
</a>
</g>
</g>
<!-- Node24 -->
<g id="Node000024" class="node">
<title>Node24</title>
<g id="a_Node000024"><a xlink:href="FMTmodel_8hpp.html" target="_top" xlink:title=" ">
<polygon fill="white" stroke="#666666" points="1267.75,-508 1142.25,-508 1142.25,-476 1267.75,-476 1267.75,-508"/>
<text text-anchor="start" x="1150.25" y="-494.5" font-family="Helvetica,sans-Serif" font-size="10.00">C:/Temp/out/FMT/Include</text>
<text text-anchor="middle" x="1205" y="-482.5" font-family="Helvetica,sans-Serif" font-size="10.00">/FMTmodel.hpp</text>
</a>
</g>
</g>
<!-- Node1&#45;&gt;Node24 -->
<g id="edge61_Node000001_Node000024" class="edge">
<title>Node1&#45;&gt;Node24</title>
<g id="a_edge61_Node000001_Node000024"><a xlink:title=" ">
<path fill="none" stroke="#63b8ff" d="M1085.26,-604.42C1114.66,-577.06 1163.4,-531.71 1188.67,-508.19"/>
<polygon fill="#63b8ff" stroke="#63b8ff" points="1083.45,-601.25 1078.52,-610.63 1088.22,-606.38 1083.45,-601.25"/>
</a>
</g>
</g>
<!-- Node25 -->
<g id="Node000025" class="node">
<title>Node25</title>
<g id="a_Node000025"><a xlink:href="PYexportParallel_8hpp.html" target="_top" xlink:title=" ">
<polygon fill="white" stroke="#666666" points="1775.75,-440 1650.25,-440 1650.25,-408 1775.75,-408 1775.75,-440"/>
<text text-anchor="start" x="1658.25" y="-426.5" font-family="Helvetica,sans-Serif" font-size="10.00">C:/Temp/out/FMT/Include</text>
<text text-anchor="middle" x="1713" y="-414.5" font-family="Helvetica,sans-Serif" font-size="10.00">/PYexportParallel.hpp</text>
</a>
</g>
</g>
<!-- Node1&#45;&gt;Node25 -->
<g id="edge63_Node000001_Node000025" class="edge">
<title>Node1&#45;&gt;Node25</title>
<g id="a_edge63_Node000001_Node000025"><a xlink:title=" ">
<path fill="none" stroke="#63b8ff" d="M1121.17,-608.36C1248.91,-568.78 1545.1,-477.02 1663.14,-440.45"/>
<polygon fill="#63b8ff" stroke="#63b8ff" points="1120.32,-605.27 1111.81,-611.57 1122.39,-611.95 1120.32,-605.27"/>
</a>
</g>
</g>
<!-- Node26 -->
<g id="Node000026" class="node">
<title>Node26</title>
<g id="a_Node000026"><a xlink:href="RexportParallel_8hpp.html" target="_top" xlink:title=" ">
<polygon fill="white" stroke="#666666" points="1919.75,-440 1794.25,-440 1794.25,-408 1919.75,-408 1919.75,-440"/>
<text text-anchor="start" x="1802.25" y="-426.5" font-family="Helvetica,sans-Serif" font-size="10.00">C:/Temp/out/FMT/Include</text>
<text text-anchor="middle" x="1857" y="-414.5" font-family="Helvetica,sans-Serif" font-size="10.00">/RexportParallel.hpp</text>
</a>
</g>
</g>
<!-- Node1&#45;&gt;Node26 -->
<g id="edge66_Node000001_Node000026" class="edge">
<title>Node1&#45;&gt;Node26</title>
<g id="a_edge66_Node000001_Node000026"><a xlink:title=" ">
<path fill="none" stroke="#63b8ff" d="M1134.45,-610.94C1178.25,-601.2 1234.9,-588.31 1285,-576 1475,-529.31 1698.97,-468.49 1801.14,-440.43"/>
<polygon fill="#63b8ff" stroke="#63b8ff" points="1133.9,-607.7 1124.89,-613.28 1135.41,-614.53 1133.9,-607.7"/>
</a>
</g>
</g>
<!-- Node27 -->
<g id="Node000027" class="node">
<title>Node27</title>
<g id="a_Node000027"><a xlink:href="PYexportCore_8hpp.html" target="_top" xlink:title=" ">
<polygon fill="white" stroke="#666666" points="903.75,-508 778.25,-508 778.25,-476 903.75,-476 903.75,-508"/>
<text text-anchor="start" x="786.25" y="-494.5" font-family="Helvetica,sans-Serif" font-size="10.00">C:/Temp/out/FMT/Include</text>
<text text-anchor="middle" x="841" y="-482.5" font-family="Helvetica,sans-Serif" font-size="10.00">/PYexportCore.hpp</text>
</a>
</g>
</g>
<!-- Node1&#45;&gt;Node27 -->
<g id="edge62_Node000001_Node000027" class="edge">
<title>Node1&#45;&gt;Node27</title>
<g id="a_edge62_Node000001_Node000027"><a xlink:title=" ">
<path fill="none" stroke="#63b8ff" d="M987.68,-614.98C957.76,-607.43 924.13,-595.3 898,-576 873.81,-558.14 856.39,-526.81 847.57,-508.18"/>
<polygon fill="#63b8ff" stroke="#63b8ff" points="986.54,-618.54 997.08,-617.46 988.17,-611.74 986.54,-618.54"/>
</a>
</g>
</g>
<!-- Node28 -->
<g id="Node000028" class="node">
<title>Node28</title>
<g id="a_Node000028"><a xlink:href="RexportCore_8hpp.html" target="_top" xlink:title=" ">
<polygon fill="white" stroke="#666666" points="1123.75,-508 998.25,-508 998.25,-476 1123.75,-476 1123.75,-508"/>
<text text-anchor="start" x="1006.25" y="-494.5" font-family="Helvetica,sans-Serif" font-size="10.00">C:/Temp/out/FMT/Include</text>
<text text-anchor="middle" x="1061" y="-482.5" font-family="Helvetica,sans-Serif" font-size="10.00">/RexportCore.hpp</text>
</a>
</g>
</g>
<!-- Node1&#45;&gt;Node28 -->
<g id="edge65_Node000001_Node000028" class="edge">
<title>Node1&#45;&gt;Node28</title>
<g id="a_edge65_Node000001_Node000028"><a xlink:title=" ">
<path fill="none" stroke="#63b8ff" d="M1061,-600.82C1061,-573.22 1061,-530.7 1061,-508.19"/>
<polygon fill="#63b8ff" stroke="#63b8ff" points="1057.5,-600.63 1061,-610.63 1064.5,-600.63 1057.5,-600.63"/>
</a>
</g>
</g>
<!-- Node3 -->
<g id="Node000003" class="node">
<title>Node3</title>
<g id="a_Node000003"><a xlink:href="FMTgraph_8hpp.html" target="_top" xlink:title=" ">
<polygon fill="white" stroke="#666666" points="687.75,-440 562.25,-440 562.25,-408 687.75,-408 687.75,-440"/>
<text text-anchor="start" x="570.25" y="-426.5" font-family="Helvetica,sans-Serif" font-size="10.00">C:/Temp/out/FMT/Include</text>
<text text-anchor="middle" x="625" y="-414.5" font-family="Helvetica,sans-Serif" font-size="10.00">/FMTgraph.hpp</text>
</a>
</g>
</g>
<!-- Node2&#45;&gt;Node3 -->
<g id="edge2_Node000002_Node000003" class="edge">
<title>Node2&#45;&gt;Node3</title>
<g id="a_edge2_Node000002_Node000003"><a xlink:title=" ">
<path fill="none" stroke="#63b8ff" d="M959.35,-533.84C949.97,-514.86 934.45,-489.82 913,-476 876.66,-452.6 761.28,-437.77 688.06,-430.46"/>
<polygon fill="#63b8ff" stroke="#63b8ff" points="956.52,-535.06 963.92,-542.65 962.87,-532.1 956.52,-535.06"/>
</a>
</g>
</g>
<!-- Node2&#45;&gt;Node9 -->
<g id="edge59_Node000002_Node000009" class="edge">
<title>Node2&#45;&gt;Node9</title>
<g id="a_edge59_Node000002_Node000009"><a xlink:title=" ">
<path fill="none" stroke="#63b8ff" d="M970,-532.89C970,-505.88 970,-462.49 970,-425 970,-425 970,-425 970,-355 970,-278.62 892.69,-296.45 846,-236 824.83,-208.6 816.72,-201.5 808,-168 801.96,-144.83 807.86,-117.04 812.82,-100.22"/>
<polygon fill="#63b8ff" stroke="#63b8ff" points="966.5,-532.73 970,-542.73 973.5,-532.73 966.5,-532.73"/>
</a>
</g>
</g>
<!-- Node2&#45;&gt;Node24 -->
<g id="edge48_Node000002_Node000024" class="edge">
<title>Node2&#45;&gt;Node24</title>
<g id="a_edge48_Node000002_Node000024"><a xlink:title=" ">
<path fill="none" stroke="#63b8ff" d="M1035.5,-540.6C1071.48,-530.5 1115.62,-518.1 1149.84,-508.49"/>
<polygon fill="#63b8ff" stroke="#63b8ff" points="1034.77,-537.45 1026.09,-543.53 1036.67,-544.19 1034.77,-537.45"/>
</a>
</g>
</g>
<!-- Node2&#45;&gt;Node27 -->
<g id="edge58_Node000002_Node000027" class="edge">
<title>Node2&#45;&gt;Node27</title>
<g id="a_edge58_Node000002_Node000027"><a xlink:title=" ">
<path fill="none" stroke="#63b8ff" d="M930.14,-538.61C911.08,-528.86 888.65,-517.38 871.05,-508.38"/>
<polygon fill="#63b8ff" stroke="#63b8ff" points="928.26,-542.09 938.75,-543.53 931.44,-535.86 928.26,-542.09"/>
</a>
</g>
</g>
<!-- Node2&#45;&gt;Node28 -->
<g id="edge60_Node000002_Node000028" class="edge">
<title>Node2&#45;&gt;Node28</title>
<g id="a_edge60_Node000002_Node000028"><a xlink:title=" ">
<path fill="none" stroke="#63b8ff" d="M999.75,-537.42C1012.79,-527.96 1027.8,-517.08 1039.69,-508.45"/>
<polygon fill="#63b8ff" stroke="#63b8ff" points="998.14,-534.99 992.1,-543.69 1002.25,-540.65 998.14,-534.99"/>
</a>
</g>
</g>
<!-- Node4 -->
<g id="Node000004" class="node">
<title>Node4</title>
<g id="a_Node000004"><a xlink:href="FMTlinegraph_8hpp.html" target="_top" xlink:title=" ">
<polygon fill="white" stroke="#666666" points="903.75,-372 778.25,-372 778.25,-340 903.75,-340 903.75,-372"/>
<text text-anchor="start" x="786.25" y="-358.5" font-family="Helvetica,sans-Serif" font-size="10.00">C:/Temp/out/FMT/Include</text>
<text text-anchor="middle" x="841" y="-346.5" font-family="Helvetica,sans-Serif" font-size="10.00">/FMTlinegraph.hpp</text>
</a>
</g>
</g>
<!-- Node3&#45;&gt;Node4 -->
<g id="edge3_Node000003_Node000004" class="edge">
<title>Node3&#45;&gt;Node4</title>
<g id="a_edge3_Node000003_Node000004"><a xlink:title=" ">
<path fill="none" stroke="#63b8ff" d="M686.05,-404.34C718.97,-394.28 759.12,-382.02 790.3,-372.49"/>
<polygon fill="#63b8ff" stroke="#63b8ff" points="685.18,-401.26 676.64,-407.53 687.23,-407.95 685.18,-401.26"/>
</a>
</g>
</g>
<!-- Node14 -->
<g id="Node000014" class="node">
<title>Node14</title>
<g id="a_Node000014"><a xlink:href="RexportSpatial_8hpp.html" target="_top" xlink:title=" ">
<polygon fill="white" stroke="#666666" points="584.75,-236 459.25,-236 459.25,-204 584.75,-204 584.75,-236"/>
<text text-anchor="start" x="467.25" y="-222.5" font-family="Helvetica,sans-Serif" font-size="10.00">C:/Temp/out/FMT/Include</text>
<text text-anchor="middle" x="522" y="-210.5" font-family="Helvetica,sans-Serif" font-size="10.00">/RexportSpatial.hpp</text>
</a>
</g>
</g>
<!-- Node3&#45;&gt;Node14 -->
<g id="edge47_Node000003_Node000014" class="edge">
<title>Node3&#45;&gt;Node14</title>
<g id="a_edge47_Node000003_Node000014"><a xlink:title=" ">
<path fill="none" stroke="#63b8ff" d="M551.28,-414.62C524.67,-407.63 497.21,-394.94 481,-372 450.74,-329.18 489.41,-265.1 510.27,-236.15"/>
<polygon fill="#63b8ff" stroke="#63b8ff" points="550.27,-418.22 560.81,-417.12 551.88,-411.41 550.27,-418.22"/>
</a>
</g>
</g>
<!-- Node15 -->
<g id="Node000015" class="node">
<title>Node15</title>
<g id="a_Node000015"><a xlink:href="FMToperatingareascheme_8hpp.html" target="_top" xlink:title=" ">
<polygon fill="white" stroke="#666666" points="168.12,-236 17.87,-236 17.87,-204 168.12,-204 168.12,-236"/>
<text text-anchor="start" x="25.87" y="-222.5" font-family="Helvetica,sans-Serif" font-size="10.00">C:/Temp/out/FMT/Include</text>
<text text-anchor="middle" x="93" y="-210.5" font-family="Helvetica,sans-Serif" font-size="10.00">/FMToperatingareascheme.hpp</text>
</a>
</g>
</g>
<!-- Node3&#45;&gt;Node15 -->
<g id="edge22_Node000003_Node000015" class="edge">
<title>Node3&#45;&gt;Node15</title>
<g id="a_edge22_Node000003_Node000015"><a xlink:title=" ">
<path fill="none" stroke="#63b8ff" d="M551.15,-421.94C481.95,-418.61 376.88,-407.42 293,-372 214.04,-338.66 138.17,-267.21 107.39,-236.05"/>
<polygon fill="#63b8ff" stroke="#63b8ff" points="550.8,-425.47 560.94,-422.41 551.11,-418.48 550.8,-425.47"/>
</a>
</g>
</g>
<!-- Node18 -->
<g id="Node000018" class="node">
<title>Node18</title>
<g id="a_Node000018"><a xlink:href="FMToutputnodecache_8hpp.html" target="_top" xlink:title=" ">
<polygon fill="white" stroke="#666666" points="433.75,-372 302.25,-372 302.25,-340 433.75,-340 433.75,-372"/>
<text text-anchor="start" x="310.25" y="-358.5" font-family="Helvetica,sans-Serif" font-size="10.00">C:/Temp/out/FMT/Include</text>
<text text-anchor="middle" x="368" y="-346.5" font-family="Helvetica,sans-Serif" font-size="10.00">/FMToutputnodecache.hpp</text>
</a>
</g>
</g>
<!-- Node3&#45;&gt;Node18 -->
<g id="edge30_Node000003_Node000018" class="edge">
<title>Node3&#45;&gt;Node18</title>
<g id="a_edge30_Node000003_Node000018"><a xlink:title=" ">
<path fill="none" stroke="#63b8ff" d="M551.4,-405.65C510.31,-395.36 460.04,-382.43 422.49,-372.49"/>
<polygon fill="#63b8ff" stroke="#63b8ff" points="550.36,-409.24 560.91,-408.27 552.06,-402.45 550.36,-409.24"/>
</a>
</g>
</g>
<!-- Node19 -->
<g id="Node000019" class="node">
<title>Node19</title>
<g id="a_Node000019"><a xlink:href="FMTsrmodel_8hpp.html" target="_top" xlink:title=" ">
<polygon fill="white" stroke="#666666" points="1100.75,-236 975.25,-236 975.25,-204 1100.75,-204 1100.75,-236"/>
<text text-anchor="start" x="983.25" y="-222.5" font-family="Helvetica,sans-Serif" font-size="10.00">C:/Temp/out/FMT/Include</text>
<text text-anchor="middle" x="1038" y="-210.5" font-family="Helvetica,sans-Serif" font-size="10.00">/FMTsrmodel.hpp</text>
</a>
</g>
</g>
<!-- Node3&#45;&gt;Node19 -->
<g id="edge32_Node000003_Node000019" class="edge">
<title>Node3&#45;&gt;Node19</title>
<g id="a_edge32_Node000003_Node000019"><a xlink:title=" ">
<path fill="none" stroke="#63b8ff" d="M698.55,-415.8C771.52,-407.63 877.45,-392.7 913,-372 970.64,-338.44 1013.29,-267.75 1030.12,-236.46"/>
<polygon fill="#63b8ff" stroke="#63b8ff" points="698.59,-412.38 689.04,-416.95 699.36,-419.34 698.59,-412.38"/>
</a>
</g>
</g>
<!-- Node22 -->
<g id="Node000022" class="node">
<title>Node22</title>
<g id="a_Node000022"><a xlink:href="PYexportGraph_8hpp.html" target="_top" xlink:title=" ">
<polygon fill="white" stroke="#666666" points="615.75,-372 490.25,-372 490.25,-340 615.75,-340 615.75,-372"/>
<text text-anchor="start" x="498.25" y="-358.5" font-family="Helvetica,sans-Serif" font-size="10.00">C:/Temp/out/FMT/Include</text>
<text text-anchor="middle" x="553" y="-346.5" font-family="Helvetica,sans-Serif" font-size="10.00">/PYexportGraph.hpp</text>
</a>
</g>
</g>
<!-- Node3&#45;&gt;Node22 -->
<g id="edge45_Node000003_Node000022" class="edge">
<title>Node3&#45;&gt;Node22</title>
<g id="a_edge45_Node000003_Node000022"><a xlink:title=" ">
<path fill="none" stroke="#63b8ff" d="M600.2,-400.27C590.09,-391 578.68,-380.54 569.61,-372.22"/>
<polygon fill="#63b8ff" stroke="#63b8ff" points="597.56,-402.52 607.3,-406.69 602.29,-397.36 597.56,-402.52"/>
</a>
</g>
</g>
<!-- Node23 -->
<g id="Node000023" class="node">
<title>Node23</title>
<g id="a_Node000023"><a xlink:href="PYexportSpatial_8hpp.html" target="_top" xlink:title=" ">
<polygon fill="white" stroke="#666666" points="759.75,-372 634.25,-372 634.25,-340 759.75,-340 759.75,-372"/>
<text text-anchor="start" x="642.25" y="-358.5" font-family="Helvetica,sans-Serif" font-size="10.00">C:/Temp/out/FMT/Include</text>
<text text-anchor="middle" x="697" y="-346.5" font-family="Helvetica,sans-Serif" font-size="10.00">/PYexportSpatial.hpp</text>
</a>
</g>
</g>
<!-- Node3&#45;&gt;Node23 -->
<g id="edge46_Node000003_Node000023" class="edge">
<title>Node3&#45;&gt;Node23</title>
<g id="a_edge46_Node000003_Node000023"><a xlink:title=" ">
<path fill="none" stroke="#63b8ff" d="M649.8,-400.27C659.9,-391 671.32,-380.54 680.39,-372.22"/>
<polygon fill="#63b8ff" stroke="#63b8ff" points="647.7,-397.36 642.7,-406.69 652.43,-402.52 647.7,-397.36"/>
</a>
</g>
</g>
<!-- Node5 -->
<g id="Node000005" class="node">
<title>Node5</title>
<g id="a_Node000005"><a xlink:href="FMTspatialschedule_8hpp.html" target="_top" xlink:title=" ">
<polygon fill="white" stroke="#666666" points="675.75,-304 550.25,-304 550.25,-272 675.75,-272 675.75,-304"/>
<text text-anchor="start" x="558.25" y="-290.5" font-family="Helvetica,sans-Serif" font-size="10.00">C:/Temp/out/FMT/Include</text>
<text text-anchor="middle" x="613" y="-278.5" font-family="Helvetica,sans-Serif" font-size="10.00">/FMTspatialschedule.hpp</text>
</a>
</g>
</g>
<!-- Node4&#45;&gt;Node5 -->
<g id="edge4_Node000004_Node000005" class="edge">
<title>Node4&#45;&gt;Node5</title>
<g id="a_edge4_Node000004_Node000005"><a xlink:title=" ">
<path fill="none" stroke="#63b8ff" d="M777,-336.47C742.17,-326.39 699.56,-314.06 666.51,-304.49"/>
<polygon fill="#63b8ff" stroke="#63b8ff" points="775.96,-340.11 786.54,-339.53 777.91,-333.38 775.96,-340.11"/>
</a>
</g>
</g>
<!-- Node4&#45;&gt;Node9 -->
<g id="edge20_Node000004_Node000009" class="edge">
<title>Node4&#45;&gt;Node9</title>
<g id="a_edge20_Node000004_Node000009"><a xlink:title=" ">
<path fill="none" stroke="#63b8ff" d="M821.01,-331.66C793.72,-298.1 746.13,-233.07 728,-168 724.18,-154.3 720.84,-148.29 728,-136 737.49,-119.71 754.34,-108.2 770.91,-100.29"/>
<polygon fill="#63b8ff" stroke="#63b8ff" points="818.73,-333.4 827.8,-338.88 824.13,-328.94 818.73,-333.4"/>
</a>
</g>
</g>
<!-- Node4&#45;&gt;Node14 -->
<g id="edge21_Node000004_Node000014" class="edge">
<title>Node4&#45;&gt;Node14</title>
<g id="a_edge21_Node000004_Node000014"><a xlink:title=" ">
<path fill="none" stroke="#63b8ff" d="M767,-339.98C703,-331.56 576.36,-337.03 541,-304 522.41,-286.65 520.22,-255.14 520.79,-236.34"/>
<polygon fill="#63b8ff" stroke="#63b8ff" points="766.4,-343.58 776.81,-341.66 767.47,-336.66 766.4,-343.58"/>
</a>
</g>
</g>
<!-- Node6 -->
<g id="Node000006" class="node">
<title>Node6</title>
<g id="a_Node000006"><a xlink:href="FMTsemodel_8hpp.html" target="_top" xlink:title=" ">
<polygon fill="white" stroke="#666666" points="1267.75,-236 1142.25,-236 1142.25,-204 1267.75,-204 1267.75,-236"/>
<text text-anchor="start" x="1150.25" y="-222.5" font-family="Helvetica,sans-Serif" font-size="10.00">C:/Temp/out/FMT/Include</text>
<text text-anchor="middle" x="1205" y="-210.5" font-family="Helvetica,sans-Serif" font-size="10.00">/FMTsemodel.hpp</text>
</a>
</g>
</g>
<!-- Node5&#45;&gt;Node6 -->
<g id="edge5_Node000005_Node000006" class="edge">
<title>Node5&#45;&gt;Node6</title>
<g id="a_edge5_Node000005_Node000006"><a xlink:title=" ">
<path fill="none" stroke="#63b8ff" d="M686.77,-280.69C783.95,-272.09 960.09,-255.51 1110,-236 1120.35,-234.65 1131.3,-233.07 1141.96,-231.45"/>
<polygon fill="#63b8ff" stroke="#63b8ff" points="686.54,-277.29 676.89,-281.65 687.16,-284.26 686.54,-277.29"/>
</a>
</g>
</g>
<!-- Node5&#45;&gt;Node14 -->
<g id="edge19_Node000005_Node000014" class="edge">
<title>Node5&#45;&gt;Node14</title>
<g id="a_edge19_Node000005_Node000014"><a xlink:title=" ">
<path fill="none" stroke="#63b8ff" d="M583.24,-265.42C570.2,-255.96 555.2,-245.08 543.3,-236.45"/>
<polygon fill="#63b8ff" stroke="#63b8ff" points="580.74,-268.65 590.89,-271.69 584.85,-262.99 580.74,-268.65"/>
</a>
</g>
</g>
<!-- Node7 -->
<g id="Node000007" class="node">
<title>Node7</title>
<g id="a_Node000007"><a xlink:href="FMTsamodel_8hpp.html" target="_top" xlink:title=" ">
<polygon fill="white" stroke="#666666" points="1517.75,-168 1392.25,-168 1392.25,-136 1517.75,-136 1517.75,-168"/>
<text text-anchor="start" x="1400.25" y="-154.5" font-family="Helvetica,sans-Serif" font-size="10.00">C:/Temp/out/FMT/Include</text>
<text text-anchor="middle" x="1455" y="-142.5" font-family="Helvetica,sans-Serif" font-size="10.00">/FMTsamodel.hpp</text>
</a>
</g>
</g>
<!-- Node6&#45;&gt;Node7 -->
<g id="edge6_Node000006_Node000007" class="edge">
<title>Node6&#45;&gt;Node7</title>
<g id="a_edge6_Node000006_Node000007"><a xlink:title=" ">
<path fill="none" stroke="#63b8ff" d="M1274.18,-200.73C1312.56,-190.6 1359.76,-178.14 1396.32,-168.49"/>
<polygon fill="#63b8ff" stroke="#63b8ff" points="1273.39,-197.59 1264.61,-203.53 1275.17,-204.36 1273.39,-197.59"/>
</a>
</g>
</g>
<!-- Node8 -->
<g id="Node000008" class="node">
<title>Node8</title>
<g id="a_Node000008"><a xlink:href="PYexportModel_8hpp.html" target="_top" xlink:title=" ">
<polygon fill="white" stroke="#666666" points="1335.75,-100 1210.25,-100 1210.25,-68 1335.75,-68 1335.75,-100"/>
<text text-anchor="start" x="1218.25" y="-86.5" font-family="Helvetica,sans-Serif" font-size="10.00">C:/Temp/out/FMT/Include</text>
<text text-anchor="middle" x="1273" y="-74.5" font-family="Helvetica,sans-Serif" font-size="10.00">/PYexportModel.hpp</text>
</a>
</g>
</g>
<!-- Node6&#45;&gt;Node8 -->
<g id="edge16_Node000006_Node000008" class="edge">
<title>Node6&#45;&gt;Node8</title>
<g id="a_edge16_Node000006_Node000008"><a xlink:title=" ">
<path fill="none" stroke="#63b8ff" d="M1278.35,-209.66C1303.72,-202.52 1329.61,-189.98 1345,-168 1353.15,-156.35 1351.53,-148.63 1345,-136 1336.98,-120.49 1321.82,-108.68 1307.48,-100.35"/>
<polygon fill="#63b8ff" stroke="#63b8ff" points="1277.75,-206.46 1268.92,-212.32 1279.48,-213.24 1277.75,-206.46"/>
</a>
</g>
</g>
<!-- Node6&#45;&gt;Node9 -->
<g id="edge17_Node000006_Node000009" class="edge">
<title>Node6&#45;&gt;Node9</title>
<g id="a_edge17_Node000006_Node000009"><a xlink:title=" ">
<path fill="none" stroke="#63b8ff" d="M1131.1,-207.3C1123.97,-206.18 1116.84,-205.07 1110,-204 1005.59,-187.76 964.49,-224.17 875,-168 849.38,-151.92 832.36,-119.67 824.01,-100.45"/>
<polygon fill="#63b8ff" stroke="#63b8ff" points="1130.47,-210.9 1140.89,-208.99 1131.56,-203.98 1130.47,-210.9"/>
</a>
</g>
</g>
<!-- Node10 -->
<g id="Node000010" class="node">
<title>Node10</title>
<g id="a_Node000010"><a xlink:href="RexportModel_8hpp.html" target="_top" xlink:title=" ">
<polygon fill="white" stroke="#666666" points="1517.75,-100 1392.25,-100 1392.25,-68 1517.75,-68 1517.75,-100"/>
<text text-anchor="start" x="1400.25" y="-86.5" font-family="Helvetica,sans-Serif" font-size="10.00">C:/Temp/out/FMT/Include</text>
<text text-anchor="middle" x="1455" y="-74.5" font-family="Helvetica,sans-Serif" font-size="10.00">/RexportModel.hpp</text>
</a>
</g>
</g>
<!-- Node6&#45;&gt;Node10 -->
<g id="edge18_Node000006_Node000010" class="edge">
<title>Node6&#45;&gt;Node10</title>
<g id="a_edge18_Node000006_Node000010"><a xlink:title=" ">
<path fill="none" stroke="#63b8ff" d="M1278.69,-219.28C1371.83,-217.87 1524.35,-209.13 1560,-168 1583.81,-140.52 1539.27,-115.62 1501.05,-100.41"/>
<polygon fill="#63b8ff" stroke="#63b8ff" points="1278.87,-215.79 1268.91,-219.41 1278.96,-222.78 1278.87,-215.79"/>
</a>
</g>
</g>
<!-- Node11 -->
<g id="Node000011" class="node">
<title>Node11</title>
<g id="a_Node000011"><a xlink:href="FMTsesmodel_8hpp.html" target="_top" xlink:title=" ">
<polygon fill="white" stroke="#666666" points="1191.75,-168 1066.25,-168 1066.25,-136 1191.75,-136 1191.75,-168"/>
<text text-anchor="start" x="1074.25" y="-154.5" font-family="Helvetica,sans-Serif" font-size="10.00">C:/Temp/out/FMT/Include</text>
<text text-anchor="middle" x="1129" y="-142.5" font-family="Helvetica,sans-Serif" font-size="10.00">/FMTsesmodel.hpp</text>
</a>
</g>
</g>
<!-- Node6&#45;&gt;Node11 -->
<g id="edge10_Node000006_Node000011" class="edge">
<title>Node6&#45;&gt;Node11</title>
<g id="a_edge10_Node000006_Node000011"><a xlink:title=" ">
<path fill="none" stroke="#63b8ff" d="M1179.2,-196.6C1168.54,-187.34 1156.44,-176.83 1146.79,-168.45"/>
<polygon fill="#63b8ff" stroke="#63b8ff" points="1176.52,-199.78 1186.37,-203.69 1181.11,-194.49 1176.52,-199.78"/>
</a>
</g>
</g>
<!-- Node7&#45;&gt;Node8 -->
<g id="edge7_Node000007_Node000008" class="edge">
<title>Node7&#45;&gt;Node8</title>
<g id="a_edge7_Node000007_Node000008"><a xlink:title=" ">
<path fill="none" stroke="#63b8ff" d="M1402.1,-131.82C1374.64,-121.86 1341.53,-109.85 1315.72,-100.49"/>
<polygon fill="#63b8ff" stroke="#63b8ff" points="1400.73,-135.41 1411.33,-135.53 1403.12,-128.83 1400.73,-135.41"/>
</a>
</g>
</g>
<!-- Node7&#45;&gt;Node9 -->
<g id="edge8_Node000007_Node000009" class="edge">
<title>Node7&#45;&gt;Node9</title>
<g id="a_edge8_Node000007_Node000009"><a xlink:title=" ">
<path fill="none" stroke="#63b8ff" d="M1381.37,-140.56C1369.23,-138.95 1356.77,-137.37 1345,-136 1177.68,-116.5 979.87,-98.79 880.95,-90.29"/>
<polygon fill="#63b8ff" stroke="#63b8ff" points="1380.56,-144.11 1390.94,-141.97 1381.49,-137.17 1380.56,-144.11"/>
</a>
</g>
</g>
<!-- Node7&#45;&gt;Node10 -->
<g id="edge9_Node000007_Node000010" class="edge">
<title>Node7&#45;&gt;Node10</title>
<g id="a_edge9_Node000007_Node000010"><a xlink:title=" ">
<path fill="none" stroke="#63b8ff" d="M1455,-124.89C1455,-116.52 1455,-107.54 1455,-100.22"/>
<polygon fill="#63b8ff" stroke="#63b8ff" points="1451.5,-124.69 1455,-134.69 1458.5,-124.69 1451.5,-124.69"/>
</a>
</g>
</g>
<!-- Node11&#45;&gt;Node8 -->
<g id="edge13_Node000011_Node000008" class="edge">
<title>Node11&#45;&gt;Node8</title>
<g id="a_edge13_Node000011_Node000008"><a xlink:title=" ">
<path fill="none" stroke="#63b8ff" d="M1172.61,-131.01C1194.07,-121.17 1219.54,-109.5 1239.45,-100.38"/>
<polygon fill="#63b8ff" stroke="#63b8ff" points="1171.39,-128.18 1163.76,-135.53 1174.31,-134.54 1171.39,-128.18"/>
</a>
</g>
</g>
<!-- Node11&#45;&gt;Node9 -->
<g id="edge14_Node000011_Node000009" class="edge">
<title>Node11&#45;&gt;Node9</title>
<g id="a_edge14_Node000011_Node000009"><a xlink:title=" ">
<path fill="none" stroke="#63b8ff" d="M1055.37,-135.37C1002.34,-124.12 931.55,-109.1 881.1,-98.39"/>
<polygon fill="#63b8ff" stroke="#63b8ff" points="1054.55,-138.99 1065.06,-137.64 1056.01,-132.14 1054.55,-138.99"/>
</a>
</g>
</g>
<!-- Node11&#45;&gt;Node10 -->
<g id="edge15_Node000011_Node000010" class="edge">
<title>Node11&#45;&gt;Node10</title>
<g id="a_edge15_Node000011_Node000010"><a xlink:title=" ">
<path fill="none" stroke="#63b8ff" d="M1202.59,-135.68C1272.92,-121.32 1342.82,-107.32 1391.82,-97.55"/>
<polygon fill="#63b8ff" stroke="#63b8ff" points="1202.3,-132.37 1193.21,-137.8 1203.71,-139.23 1202.3,-132.37"/>
</a>
</g>
</g>
<!-- Node12 -->
<g id="Node000012" class="node">
<title>Node12</title>
<g id="a_Node000012"><a xlink:href="FMTpythonpickle_8hpp.html" target="_top" xlink:title=" ">
<polygon fill="white" stroke="#666666" points="326.75,-100 201.25,-100 201.25,-68 326.75,-68 326.75,-100"/>
<text text-anchor="start" x="209.25" y="-86.5" font-family="Helvetica,sans-Serif" font-size="10.00">C:/Temp/out/FMT/Include</text>
<text text-anchor="middle" x="264" y="-74.5" font-family="Helvetica,sans-Serif" font-size="10.00">/FMTpythonpickle.hpp</text>
</a>
</g>
</g>
<!-- Node11&#45;&gt;Node12 -->
<g id="edge11_Node000011_Node000012" class="edge">
<title>Node11&#45;&gt;Node12</title>
<g id="a_edge11_Node000011_Node000012"><a xlink:title=" ">
<path fill="none" stroke="#63b8ff" d="M1055.41,-140.26C1043.26,-138.69 1030.79,-137.2 1019,-136 762.83,-109.91 456.35,-93.88 326.76,-87.79"/>
<polygon fill="#63b8ff" stroke="#63b8ff" points="1054.6,-143.82 1064.97,-141.66 1055.52,-136.88 1054.6,-143.82"/>
</a>
</g>
</g>
<!-- Node13 -->
<g id="Node000013" class="node">
<title>Node13</title>
<g id="a_Node000013"><a xlink:href="PYexportHeuristics_8hpp.html" target="_top" xlink:title=" ">
<polygon fill="white" stroke="#666666" points="235.75,-32 110.25,-32 110.25,0 235.75,0 235.75,-32"/>
<text text-anchor="start" x="118.25" y="-18.5" font-family="Helvetica,sans-Serif" font-size="10.00">C:/Temp/out/FMT/Include</text>
<text text-anchor="middle" x="173" y="-6.5" font-family="Helvetica,sans-Serif" font-size="10.00">/PYexportHeuristics.hpp</text>
</a>
</g>
</g>
<!-- Node12&#45;&gt;Node13 -->
<g id="edge12_Node000012_Node000013" class="edge">
<title>Node12&#45;&gt;Node13</title>
<g id="a_edge12_Node000012_Node000013"><a xlink:title=" ">
<path fill="none" stroke="#63b8ff" d="M234.24,-61.42C221.2,-51.96 206.2,-41.08 194.3,-32.45"/>
<polygon fill="#63b8ff" stroke="#63b8ff" points="231.74,-64.65 241.89,-67.69 235.85,-58.99 231.74,-64.65"/>
</a>
</g>
</g>
<!-- Node15&#45;&gt;Node13 -->
<g id="edge28_Node000015_Node000013" class="edge">
<title>Node15&#45;&gt;Node13</title>
<g id="a_edge28_Node000015_Node000013"><a xlink:title=" ">
<path fill="none" stroke="#63b8ff" d="M65.1,-196.83C30.22,-166.41 -21.33,-110.62 10,-68 32.82,-36.94 74.5,-24.27 110,-19.33"/>
<polygon fill="#63b8ff" stroke="#63b8ff" points="62.23,-199.84 72.12,-203.64 66.76,-194.5 62.23,-199.84"/>
</a>
</g>
</g>
<!-- Node16 -->
<g id="Node000016" class="node">
<title>Node16</title>
<g id="a_Node000016"><a xlink:href="FMToperatingareascheduler_8hpp.html" target="_top" xlink:title=" ">
<polygon fill="white" stroke="#666666" points="224.87,-168 67.12,-168 67.12,-136 224.87,-136 224.87,-168"/>
<text text-anchor="start" x="75.12" y="-154.5" font-family="Helvetica,sans-Serif" font-size="10.00">C:/Temp/out/FMT/Include</text>
<text text-anchor="middle" x="146" y="-142.5" font-family="Helvetica,sans-Serif" font-size="10.00">/FMToperatingareascheduler.hpp</text>
</a>
</g>
</g>
<!-- Node15&#45;&gt;Node16 -->
<g id="edge23_Node000015_Node000016" class="edge">
<title>Node15&#45;&gt;Node16</title>
<g id="a_edge23_Node000015_Node000016"><a xlink:title=" ">
<path fill="none" stroke="#63b8ff" d="M112.15,-195.15C119.36,-186.17 127.36,-176.21 133.77,-168.22"/>
<polygon fill="#63b8ff" stroke="#63b8ff" points="108.82,-192.7 105.29,-202.69 114.28,-197.09 108.82,-192.7"/>
</a>
</g>
</g>
<!-- Node17 -->
<g id="Node000017" class="node">
<title>Node17</title>
<g id="a_Node000017"><a xlink:href="RexportHeuristics_8hpp.html" target="_top" xlink:title=" ">
<polygon fill="white" stroke="#666666" points="144.75,-100 19.25,-100 19.25,-68 144.75,-68 144.75,-100"/>
<text text-anchor="start" x="27.25" y="-86.5" font-family="Helvetica,sans-Serif" font-size="10.00">C:/Temp/out/FMT/Include</text>
<text text-anchor="middle" x="82" y="-74.5" font-family="Helvetica,sans-Serif" font-size="10.00">/RexportHeuristics.hpp</text>
</a>
</g>
</g>
<!-- Node15&#45;&gt;Node17 -->
<g id="edge29_Node000015_Node000017" class="edge">
<title>Node15&#45;&gt;Node17</title>
<g id="a_edge29_Node000015_Node000017"><a xlink:title=" ">
<path fill="none" stroke="#63b8ff" d="M72.36,-195.28C66.55,-187.17 61,-177.69 58,-168 50.71,-144.5 62.61,-117.05 72.1,-100.35"/>
<polygon fill="#63b8ff" stroke="#63b8ff" points="70.04,-197 78.91,-202.79 75.59,-192.73 70.04,-197"/>
</a>
</g>
</g>
<!-- Node16&#45;&gt;Node9 -->
<g id="edge26_Node000016_Node000009" class="edge">
<title>Node16&#45;&gt;Node9</title>
<g id="a_edge26_Node000016_Node000009"><a xlink:title=" ">
<path fill="none" stroke="#63b8ff" d="M235.88,-141.45C253.49,-139.62 271.82,-137.73 289,-136 457.22,-119.07 655.67,-100.24 754.87,-90.91"/>
<polygon fill="#63b8ff" stroke="#63b8ff" points="235.61,-138.07 226.03,-142.59 236.34,-145.03 235.61,-138.07"/>
</a>
</g>
</g>
<!-- Node16&#45;&gt;Node12 -->
<g id="edge24_Node000016_Node000012" class="edge">
<title>Node16&#45;&gt;Node12</title>
<g id="a_edge24_Node000016_Node000012"><a xlink:title=" ">
<path fill="none" stroke="#63b8ff" d="M182.94,-130.34C200.26,-120.65 220.56,-109.3 236.5,-100.38"/>
<polygon fill="#63b8ff" stroke="#63b8ff" points="181.68,-127.59 174.66,-135.53 185.1,-133.7 181.68,-127.59"/>
</a>
</g>
</g>
<!-- Node16&#45;&gt;Node13 -->
<g id="edge25_Node000016_Node000013" class="edge">
<title>Node16&#45;&gt;Node13</title>
<g id="a_edge25_Node000016_Node000013"><a xlink:title=" ">
<path fill="none" stroke="#63b8ff" d="M151.2,-125.19C156.76,-97.6 165.38,-54.8 169.94,-32.19"/>
<polygon fill="#63b8ff" stroke="#63b8ff" points="147.64,-124.13 149.09,-134.63 154.5,-125.52 147.64,-124.13"/>
</a>
</g>
</g>
<!-- Node16&#45;&gt;Node17 -->
<g id="edge27_Node000016_Node000017" class="edge">
<title>Node16&#45;&gt;Node17</title>
<g id="a_edge27_Node000016_Node000017"><a xlink:title=" ">
<path fill="none" stroke="#63b8ff" d="M123.68,-127.99C114.77,-118.79 104.74,-108.46 96.76,-100.22"/>
<polygon fill="#63b8ff" stroke="#63b8ff" points="120.68,-129.95 130.15,-134.69 125.7,-125.08 120.68,-129.95"/>
</a>
</g>
</g>
<!-- Node18&#45;&gt;Node3 -->
<g id="edge31_Node000018_Node000003" class="edge">
<title>Node18&#45;&gt;Node3</title>
<g id="a_edge31_Node000018_Node000003"><a xlink:title=" ">
<path fill="none" stroke="#63b8ff" d="M444.79,-375.15C485.29,-385.31 533.97,-397.84 570.56,-407.53"/>
<polygon fill="#63b8ff" stroke="#63b8ff" points="445.69,-371.52 435.14,-372.49 443.99,-378.31 445.69,-371.52"/>
</a>
</g>
</g>
<!-- Node19&#45;&gt;Node8 -->
<g id="edge42_Node000019_Node000008" class="edge">
<title>Node19&#45;&gt;Node8</title>
<g id="a_edge42_Node000019_Node000008"><a xlink:title=" ">
<path fill="none" stroke="#63b8ff" d="M1037.16,-192.73C1038.04,-174.45 1042.31,-150.78 1057,-136 1078.21,-114.64 1153.99,-100.36 1209.83,-92.47"/>
<polygon fill="#63b8ff" stroke="#63b8ff" points="1033.65,-192.5 1037,-202.56 1040.65,-192.61 1033.65,-192.5"/>
</a>
</g>
</g>
<!-- Node19&#45;&gt;Node9 -->
<g id="edge43_Node000019_Node000009" class="edge">
<title>Node19&#45;&gt;Node9</title>
<g id="a_edge43_Node000019_Node000009"><a xlink:title=" ">
<path fill="none" stroke="#63b8ff" d="M964.24,-217.05C923.29,-212.15 874.26,-199.41 842,-168 823.62,-150.11 819.08,-119.09 818.1,-100.46"/>
<polygon fill="#63b8ff" stroke="#63b8ff" points="963.69,-220.62 974,-218.18 964.43,-213.66 963.69,-220.62"/>
</a>
</g>
</g>
<!-- Node19&#45;&gt;Node10 -->
<g id="edge44_Node000019_Node000010" class="edge">
<title>Node19&#45;&gt;Node10</title>
<g id="a_edge44_Node000019_Node000010"><a xlink:title=" ">
<path fill="none" stroke="#63b8ff" d="M1111.83,-206.86C1118.98,-205.83 1126.12,-204.86 1133,-204 1176.62,-198.57 1497.36,-200.47 1527,-168 1548.15,-144.82 1512.39,-117.16 1484.12,-100.35"/>
<polygon fill="#63b8ff" stroke="#63b8ff" points="1111.41,-203.53 1102.02,-208.46 1112.43,-210.46 1111.41,-203.53"/>
</a>
</g>
</g>
<!-- Node20 -->
<g id="Node000020" class="node">
<title>Node20</title>
<g id="a_Node000020"><a xlink:href="FMTlpmodel_8hpp.html" target="_top" xlink:title=" ">
<polygon fill="white" stroke="#666666" points="1009.75,-168 884.25,-168 884.25,-136 1009.75,-136 1009.75,-168"/>
<text text-anchor="start" x="892.25" y="-154.5" font-family="Helvetica,sans-Serif" font-size="10.00">C:/Temp/out/FMT/Include</text>
<text text-anchor="middle" x="947" y="-142.5" font-family="Helvetica,sans-Serif" font-size="10.00">/FMTlpmodel.hpp</text>
</a>
</g>
</g>
<!-- Node19&#45;&gt;Node20 -->
<g id="edge33_Node000019_Node000020" class="edge">
<title>Node19&#45;&gt;Node20</title>
<g id="a_edge33_Node000019_Node000020"><a xlink:title=" ">
<path fill="none" stroke="#63b8ff" d="M1008.24,-197.42C995.2,-187.96 980.2,-177.08 968.3,-168.45"/>
<polygon fill="#63b8ff" stroke="#63b8ff" points="1005.74,-200.65 1015.89,-203.69 1009.85,-194.99 1005.74,-200.65"/>
</a>
</g>
</g>
<!-- Node21 -->
<g id="Node000021" class="node">
<title>Node21</title>
<g id="a_Node000021"><a xlink:href="FMTnssmodel_8hpp.html" target="_top" xlink:title=" ">
<polygon fill="white" stroke="#666666" points="1335.75,-168 1210.25,-168 1210.25,-136 1335.75,-136 1335.75,-168"/>
<text text-anchor="start" x="1218.25" y="-154.5" font-family="Helvetica,sans-Serif" font-size="10.00">C:/Temp/out/FMT/Include</text>
<text text-anchor="middle" x="1273" y="-142.5" font-family="Helvetica,sans-Serif" font-size="10.00">/FMTnssmodel.hpp</text>
</a>
</g>
</g>
<!-- Node19&#45;&gt;Node21 -->
<g id="edge38_Node000019_Node000021" class="edge">
<title>Node19&#45;&gt;Node21</title>
<g id="a_edge38_Node000019_Node000021"><a xlink:title=" ">
<path fill="none" stroke="#63b8ff" d="M1103.5,-200.6C1139.48,-190.5 1183.62,-178.1 1217.84,-168.49"/>
<polygon fill="#63b8ff" stroke="#63b8ff" points="1102.77,-197.45 1094.09,-203.53 1104.67,-204.19 1102.77,-197.45"/>
</a>
</g>
</g>
<!-- Node20&#45;&gt;Node8 -->
<g id="edge35_Node000020_Node000008" class="edge">
<title>Node20&#45;&gt;Node8</title>
<g id="a_edge35_Node000020_Node000008"><a xlink:title=" ">
<path fill="none" stroke="#63b8ff" d="M1020.98,-136.02C1077.97,-124.48 1155.88,-108.71 1209.93,-97.77"/>
<polygon fill="#63b8ff" stroke="#63b8ff" points="1020.35,-132.78 1011.24,-138.2 1021.73,-139.64 1020.35,-132.78"/>
</a>
</g>
</g>
<!-- Node20&#45;&gt;Node9 -->
<g id="edge36_Node000020_Node000009" class="edge">
<title>Node20&#45;&gt;Node9</title>
<g id="a_edge36_Node000020_Node000009"><a xlink:title=" ">
<path fill="none" stroke="#63b8ff" d="M907.14,-130.61C888.08,-120.86 865.65,-109.38 848.05,-100.38"/>
<polygon fill="#63b8ff" stroke="#63b8ff" points="905.26,-134.09 915.75,-135.53 908.44,-127.86 905.26,-134.09"/>
</a>
</g>
</g>
<!-- Node20&#45;&gt;Node10 -->
<g id="edge37_Node000020_Node000010" class="edge">
<title>Node20&#45;&gt;Node10</title>
<g id="a_edge37_Node000020_Node000010"><a xlink:title=" ">
<path fill="none" stroke="#63b8ff" d="M1020.65,-140.84C1032.79,-139.2 1045.25,-137.54 1057,-136 1184.91,-119.29 1217.09,-116.71 1345,-100 1360.19,-98.01 1376.56,-95.82 1391.9,-93.73"/>
<polygon fill="#63b8ff" stroke="#63b8ff" points="1020.53,-137.46 1011.09,-142.27 1021.47,-144.4 1020.53,-137.46"/>
</a>
</g>
</g>
<!-- Node20&#45;&gt;Node12 -->
<g id="edge34_Node000020_Node000012" class="edge">
<title>Node20&#45;&gt;Node12</title>
<g id="a_edge34_Node000020_Node000012"><a xlink:title=" ">
<path fill="none" stroke="#63b8ff" d="M873.33,-143.88C738.31,-130.83 453.43,-103.31 326.88,-91.08"/>
<polygon fill="#63b8ff" stroke="#63b8ff" points="872.68,-147.43 882.97,-144.91 873.35,-140.46 872.68,-147.43"/>
</a>
</g>
</g>
<!-- Node21&#45;&gt;Node8 -->
<g id="edge39_Node000021_Node000008" class="edge">
<title>Node21&#45;&gt;Node8</title>
<g id="a_edge39_Node000021_Node000008"><a xlink:title=" ">
<path fill="none" stroke="#63b8ff" d="M1273,-124.89C1273,-116.52 1273,-107.54 1273,-100.22"/>
<polygon fill="#63b8ff" stroke="#63b8ff" points="1269.5,-124.69 1273,-134.69 1276.5,-124.69 1269.5,-124.69"/>
</a>
</g>
</g>
<!-- Node21&#45;&gt;Node9 -->
<g id="edge40_Node000021_Node000009" class="edge">
<title>Node21&#45;&gt;Node9</title>
<g id="a_edge40_Node000021_Node000009"><a xlink:title=" ">
<path fill="none" stroke="#63b8ff" d="M1199.18,-135.76C1081.25,-115.95 955.12,-100.47 881.24,-91.99"/>
<polygon fill="#63b8ff" stroke="#63b8ff" points="1198.39,-139.35 1208.83,-137.57 1199.56,-132.45 1198.39,-139.35"/>
</a>
</g>
</g>
<!-- Node21&#45;&gt;Node10 -->
<g id="edge41_Node000021_Node000010" class="edge">
<title>Node21&#45;&gt;Node10</title>
<g id="a_edge41_Node000021_Node000010"><a xlink:title=" ">
<path fill="none" stroke="#63b8ff" d="M1325.89,-131.82C1353.35,-121.86 1386.46,-109.85 1412.28,-100.49"/>
<polygon fill="#63b8ff" stroke="#63b8ff" points="1324.88,-128.83 1316.67,-135.53 1327.26,-135.41 1324.88,-128.83"/>
</a>
</g>
</g>
<!-- Node24&#45;&gt;Node3 -->
<g id="edge49_Node000024_Node000003" class="edge">
<title>Node24&#45;&gt;Node3</title>
<g id="a_edge49_Node000024_Node000003"><a xlink:title=" ">
<path fill="none" stroke="#63b8ff" d="M1130.99,-475.79C965.69,-450.83 782.51,-435.93 688.23,-429.2"/>
<polygon fill="#63b8ff" stroke="#63b8ff" points="1130.44,-479.4 1140.85,-477.45 1131.49,-472.48 1130.44,-479.4"/>
</a>
</g>
</g>
<!-- Node24&#45;&gt;Node6 -->
<g id="edge51_Node000024_Node000006" class="edge">
<title>Node24&#45;&gt;Node6</title>
<g id="a_edge51_Node000024_Node000006"><a xlink:title=" ">
<path fill="none" stroke="#63b8ff" d="M1205,-465.04C1205,-409.57 1205,-280.93 1205,-236.46"/>
<polygon fill="#63b8ff" stroke="#63b8ff" points="1201.5,-464.71 1205,-474.71 1208.5,-464.71 1201.5,-464.71"/>
</a>
</g>
</g>
<!-- Node24&#45;&gt;Node8 -->
<g id="edge53_Node000024_Node000008" class="edge">
<title>Node24&#45;&gt;Node8</title>
<g id="a_edge53_Node000024_Node000008"><a xlink:title=" ">
<path fill="none" stroke="#63b8ff" d="M1278.73,-480.29C1388.98,-462.18 1584,-421.08 1584,-357 1584,-357 1584,-357 1584,-219 1584,-174.25 1564.34,-160.66 1527,-136 1511.19,-125.56 1406.15,-106.77 1336.19,-95.14"/>
<polygon fill="#63b8ff" stroke="#63b8ff" points="1278.32,-476.97 1269.01,-482.03 1279.44,-483.88 1278.32,-476.97"/>
</a>
</g>
</g>
<!-- Node24&#45;&gt;Node9 -->
<g id="edge55_Node000024_Node000009" class="edge">
<title>Node24&#45;&gt;Node9</title>
<g id="a_edge55_Node000024_Node000009"><a xlink:title=" ">
<path fill="none" stroke="#63b8ff" d="M1180.04,-468.29C1170.55,-459.54 1159.69,-449.39 1150,-440 1074.6,-366.96 1065.73,-337.86 984,-272 916.79,-217.85 862.5,-243.12 820,-168 808.07,-146.92 810.94,-117.77 814.32,-100.21"/>
<polygon fill="#63b8ff" stroke="#63b8ff" points="1177.23,-470.38 1186.97,-474.56 1181.97,-465.22 1177.23,-470.38"/>
</a>
</g>
</g>
<!-- Node24&#45;&gt;Node10 -->
<g id="edge56_Node000024_Node000010" class="edge">
<title>Node24&#45;&gt;Node10</title>
<g id="a_edge56_Node000024_Node000010"><a xlink:title=" ">
<path fill="none" stroke="#63b8ff" d="M1279.04,-489.3C1343.41,-485.41 1437.87,-473.76 1513,-440 1556.81,-420.31 1576,-415.2 1597,-372 1643.02,-277.33 1647.76,-213.93 1577,-136 1561.49,-118.92 1539.35,-107.39 1518.19,-99.68"/>
<polygon fill="#63b8ff" stroke="#63b8ff" points="1278.97,-485.86 1269.18,-489.9 1279.36,-492.85 1278.97,-485.86"/>
</a>
</g>
</g>
<!-- Node24&#45;&gt;Node12 -->
<g id="edge50_Node000024_Node000012" class="edge">
<title>Node24&#45;&gt;Node12</title>
<g id="a_edge50_Node000024_Node000012"><a xlink:title=" ">
<path fill="none" stroke="#63b8ff" d="M1130.96,-475.97C927.52,-453.17 413.08,-512.32 293,-372 223.97,-291.34 249.38,-147.45 260.15,-100.37"/>
<polygon fill="#63b8ff" stroke="#63b8ff" points="1130.52,-479.57 1140.87,-477.31 1131.37,-472.62 1130.52,-479.57"/>
</a>
</g>
</g>
<!-- Node24&#45;&gt;Node19 -->
<g id="edge52_Node000024_Node000019" class="edge">
<title>Node24&#45;&gt;Node19</title>
<g id="a_edge52_Node000024_Node000019"><a xlink:title=" ">
<path fill="none" stroke="#63b8ff" d="M1189.79,-466.42C1155.97,-411.73 1075.3,-281.3 1047.56,-236.46"/>
<polygon fill="#63b8ff" stroke="#63b8ff" points="1187.3,-468.05 1195.54,-474.71 1193.26,-464.36 1187.3,-468.05"/>
</a>
</g>
</g>
<!-- Node24&#45;&gt;Node25 -->
<g id="edge54_Node000024_Node000025" class="edge">
<title>Node24&#45;&gt;Node25</title>
<g id="a_edge54_Node000024_Node000025"><a xlink:title=" ">
<path fill="none" stroke="#63b8ff" d="M1278.71,-483.97C1364.71,-475.37 1511.06,-459.53 1636,-440 1640.57,-439.28 1645.29,-438.49 1650.03,-437.66"/>
<polygon fill="#63b8ff" stroke="#63b8ff" points="1278.62,-480.56 1269.01,-485.03 1279.31,-487.53 1278.62,-480.56"/>
</a>
</g>
</g>
<!-- Node24&#45;&gt;Node26 -->
<g id="edge57_Node000024_Node000026" class="edge">
<title>Node24&#45;&gt;Node26</title>
<g id="a_edge57_Node000024_Node000026"><a xlink:title=" ">
<path fill="none" stroke="#63b8ff" d="M1278.62,-487.31C1389.07,-481.14 1604.02,-466.71 1785,-440 1787.9,-439.57 1790.87,-439.1 1793.86,-438.59"/>
<polygon fill="#63b8ff" stroke="#63b8ff" points="1278.73,-483.85 1268.93,-487.9 1279.11,-490.84 1278.73,-483.85"/>
</a>
</g>
</g>
</g>
</svg>
