<?xml version="1.0" encoding="UTF-8" standalone="no"?>
<!DOCTYPE svg PUBLIC "-//W3C//DTD SVG 1.1//EN"
 "http://www.w3.org/Graphics/SVG/1.1/DTD/svg11.dtd">
<!-- Generated by graphviz version 10.0.1 (20240210.2158)
 -->
<!-- Title: D:/FMT/Include/FMToperatingarea.hpp Pages: 1 -->
<svg width="841pt" height="252pt"
 viewBox="0.00 0.00 840.90 252.00" xmlns="http://www.w3.org/2000/svg" xmlns:xlink="http://www.w3.org/1999/xlink">
<g id="graph0" class="graph" transform="scale(1 1) rotate(0) translate(4 248)">
<title>D:/FMT/Include/FMToperatingarea.hpp</title>
<!-- Node1 -->
<g id="node1" class="node">
<title>Node1</title>
<g id="a_node1"><a xlink:title=" ">
<polygon fill="#999999" stroke="#666666" points="498.38,-244 316.62,-244 316.62,-224 498.38,-224 498.38,-244"/>
<text text-anchor="middle" x="407.5" y="-230.5" font-family="Helvetica,sans-Serif" font-size="10.00">D:/FMT/Include/FMToperatingarea.hpp</text>
</a>
</g>
</g>
<!-- Node2 -->
<g id="node2" class="node">
<title>Node2</title>
<g id="a_node2"><a xlink:href="FMToperatingareaclusterbinary_8hpp.html" target="_top" xlink:title=" ">
<polygon fill="white" stroke="#666666" points="347.12,-188 109.88,-188 109.88,-168 347.12,-168 347.12,-188"/>
<text text-anchor="middle" x="228.5" y="-174.5" font-family="Helvetica,sans-Serif" font-size="10.00">D:/FMT/Include/FMToperatingareaclusterbinary.hpp</text>
</a>
</g>
</g>
<!-- Node1&#45;&gt;Node2 -->
<g id="edge1" class="edge">
<title>Node1&#45;&gt;Node2</title>
<path fill="none" stroke="#63b8ff" d="M365.42,-220.31C333.11,-210.56 289.21,-197.32 259.92,-188.48"/>
<polygon fill="#63b8ff" stroke="#63b8ff" points="364.29,-223.62 374.87,-223.16 366.31,-216.92 364.29,-223.62"/>
</g>
<!-- Node5 -->
<g id="node5" class="node">
<title>Node5</title>
<g id="a_node5"><a xlink:href="PYexportHeuristics_8hpp.html" target="_top" xlink:title=" ">
<polygon fill="white" stroke="#666666" points="745.38,-20 557.62,-20 557.62,0 745.38,0 745.38,-20"/>
<text text-anchor="middle" x="651.5" y="-6.5" font-family="Helvetica,sans-Serif" font-size="10.00">D:/FMT/Include/PYexportHeuristics.hpp</text>
</a>
</g>
</g>
<!-- Node1&#45;&gt;Node5 -->
<g id="edge19" class="edge">
<title>Node1&#45;&gt;Node5</title>
<path fill="none" stroke="#63b8ff" d="M510.01,-229.49C571.82,-224.62 651.17,-213.43 717.5,-188 759.4,-171.94 773.34,-166.93 801.5,-132 823.57,-104.63 844.99,-83.83 823.5,-56 810.67,-39.39 762.93,-27.72 720.99,-20.44"/>
<polygon fill="#63b8ff" stroke="#63b8ff" points="509.9,-225.99 500.19,-230.21 510.42,-232.97 509.9,-225.99"/>
</g>
<!-- Node6 -->
<g id="node6" class="node">
<title>Node6</title>
<g id="a_node6"><a xlink:href="RexportHeuristics_8hpp.html" target="_top" xlink:title=" ">
<polygon fill="white" stroke="#666666" points="181,-20 0,-20 0,0 181,0 181,-20"/>
<text text-anchor="middle" x="90.5" y="-6.5" font-family="Helvetica,sans-Serif" font-size="10.00">D:/FMT/Include/RexportHeuristics.hpp</text>
</a>
</g>
</g>
<!-- Node1&#45;&gt;Node6 -->
<g id="edge21" class="edge">
<title>Node1&#45;&gt;Node6</title>
<path fill="none" stroke="#63b8ff" d="M304.78,-224.38C230.01,-216.91 135.9,-204.67 100.5,-188 39.25,-159.16 -7.13,-115.85 24.5,-56 33.31,-39.32 51.39,-27.67 66.4,-20.4"/>
<polygon fill="#63b8ff" stroke="#63b8ff" points="304.33,-227.86 314.62,-225.35 305.01,-220.89 304.33,-227.86"/>
</g>
<!-- Node7 -->
<g id="node7" class="node">
<title>Node7</title>
<g id="a_node7"><a xlink:href="Rdeclarations_8hpp.html" target="_top" xlink:title=" ">
<polygon fill="white" stroke="#666666" points="489,-76 326,-76 326,-56 489,-56 489,-76"/>
<text text-anchor="middle" x="407.5" y="-62.5" font-family="Helvetica,sans-Serif" font-size="10.00">D:/FMT/Include/Rdeclarations.hpp</text>
</a>
</g>
</g>
<!-- Node1&#45;&gt;Node7 -->
<g id="edge20" class="edge">
<title>Node1&#45;&gt;Node7</title>
<path fill="none" stroke="#63b8ff" d="M407.5,-212.5C407.5,-176.27 407.5,-102.31 407.5,-76.3"/>
<polygon fill="#63b8ff" stroke="#63b8ff" points="404,-212.09 407.5,-222.09 411,-212.09 404,-212.09"/>
</g>
<!-- Node8 -->
<g id="node8" class="node">
<title>Node8</title>
<g id="a_node8"><a xlink:href="FMToperatingareascheme_8hpp.html" target="_top" xlink:title=" ">
<polygon fill="white" stroke="#666666" points="708.62,-188 492.38,-188 492.38,-168 708.62,-168 708.62,-188"/>
<text text-anchor="middle" x="600.5" y="-174.5" font-family="Helvetica,sans-Serif" font-size="10.00">D:/FMT/Include/FMToperatingareascheme.hpp</text>
</a>
</g>
</g>
<!-- Node1&#45;&gt;Node8 -->
<g id="edge10" class="edge">
<title>Node1&#45;&gt;Node8</title>
<path fill="none" stroke="#63b8ff" d="M451.96,-220.56C486.88,-210.79 534.76,-197.39 566.62,-188.48"/>
<polygon fill="#63b8ff" stroke="#63b8ff" points="451.26,-217.12 442.58,-223.19 453.15,-223.86 451.26,-217.12"/>
</g>
<!-- Node3 -->
<g id="node3" class="node">
<title>Node3</title>
<g id="a_node3"><a xlink:href="FMToperatingareacluster_8hpp.html" target="_top" xlink:title=" ">
<polygon fill="white" stroke="#666666" points="284,-132 73,-132 73,-112 284,-112 284,-132"/>
<text text-anchor="middle" x="178.5" y="-118.5" font-family="Helvetica,sans-Serif" font-size="10.00">D:/FMT/Include/FMToperatingareacluster.hpp</text>
</a>
</g>
</g>
<!-- Node2&#45;&gt;Node3 -->
<g id="edge2" class="edge">
<title>Node2&#45;&gt;Node3</title>
<path fill="none" stroke="#63b8ff" d="M212.1,-159.29C203.76,-150.28 193.96,-139.7 187.11,-132.3"/>
<polygon fill="#63b8ff" stroke="#63b8ff" points="209.4,-161.52 218.76,-166.48 214.54,-156.77 209.4,-161.52"/>
</g>
<!-- Node2&#45;&gt;Node6 -->
<g id="edge9" class="edge">
<title>Node2&#45;&gt;Node6</title>
<path fill="none" stroke="#63b8ff" d="M133.11,-164.82C108.53,-158.16 83.43,-147.87 63.5,-132 35.1,-109.37 17.66,-88.68 33.5,-56 41.25,-40 57.76,-27.98 71.02,-20.4"/>
<polygon fill="#63b8ff" stroke="#63b8ff" points="131.94,-168.14 142.49,-167.18 133.65,-161.35 131.94,-168.14"/>
</g>
<!-- Node2&#45;&gt;Node7 -->
<g id="edge8" class="edge">
<title>Node2&#45;&gt;Node7</title>
<path fill="none" stroke="#63b8ff" d="M253.46,-161.66C291.14,-138.51 361.4,-95.33 392.28,-76.35"/>
<polygon fill="#63b8ff" stroke="#63b8ff" points="251.74,-158.61 245.05,-166.83 255.4,-164.58 251.74,-158.61"/>
</g>
<!-- Node4 -->
<g id="node4" class="node">
<title>Node4</title>
<g id="a_node4"><a xlink:href="FMToperatingareaclusterer_8hpp.html" target="_top" xlink:title=" ">
<polygon fill="white" stroke="#666666" points="269.12,-76 49.88,-76 49.88,-56 269.12,-56 269.12,-76"/>
<text text-anchor="middle" x="159.5" y="-62.5" font-family="Helvetica,sans-Serif" font-size="10.00">D:/FMT/Include/FMToperatingareaclusterer.hpp</text>
</a>
</g>
</g>
<!-- Node3&#45;&gt;Node4 -->
<g id="edge3" class="edge">
<title>Node3&#45;&gt;Node4</title>
<path fill="none" stroke="#63b8ff" d="M171.46,-101C168.49,-92.54 165.16,-83.08 162.77,-76.3"/>
<polygon fill="#63b8ff" stroke="#63b8ff" points="168.07,-101.89 174.69,-110.17 174.67,-99.57 168.07,-101.89"/>
</g>
<!-- Node3&#45;&gt;Node5 -->
<g id="edge6" class="edge">
<title>Node3&#45;&gt;Node5</title>
<path fill="none" stroke="#63b8ff" d="M210.81,-107.07C230.51,-98.42 256.12,-86.91 278.5,-76 295.65,-67.64 298.32,-61.8 316.5,-56 395.32,-30.84 488.94,-19.74 557.15,-14.85"/>
<polygon fill="#63b8ff" stroke="#63b8ff" points="209.68,-103.74 201.92,-110.95 212.48,-110.15 209.68,-103.74"/>
</g>
<!-- Node3&#45;&gt;Node6 -->
<g id="edge7" class="edge">
<title>Node3&#45;&gt;Node6</title>
<path fill="none" stroke="#63b8ff" d="M84.53,-107.79C67.29,-101.02 51.35,-90.95 40.5,-76 25.87,-55.84 54.6,-32.87 74.26,-20.35"/>
<polygon fill="#63b8ff" stroke="#63b8ff" points="83.37,-111.1 93.97,-111.1 85.69,-104.49 83.37,-111.1"/>
</g>
<!-- Node4&#45;&gt;Node5 -->
<g id="edge4" class="edge">
<title>Node4&#45;&gt;Node5</title>
<path fill="none" stroke="#63b8ff" d="M257.33,-54.26C347.16,-44.4 478.98,-29.93 565.03,-20.49"/>
<polygon fill="#63b8ff" stroke="#63b8ff" points="257.11,-50.77 247.55,-55.34 257.87,-57.72 257.11,-50.77"/>
</g>
<!-- Node4&#45;&gt;Node6 -->
<g id="edge5" class="edge">
<title>Node4&#45;&gt;Node6</title>
<path fill="none" stroke="#63b8ff" d="M138.65,-48.68C126.77,-39.39 112.33,-28.09 102.38,-20.3"/>
<polygon fill="#63b8ff" stroke="#63b8ff" points="136.26,-51.25 146.29,-54.66 140.57,-45.74 136.26,-51.25"/>
</g>
<!-- Node8&#45;&gt;Node5 -->
<g id="edge17" class="edge">
<title>Node8&#45;&gt;Node5</title>
<path fill="none" stroke="#63b8ff" d="M708.19,-164.85C733.13,-158.13 758.26,-147.81 778.5,-132 800.75,-114.61 801.63,-103.39 808.5,-76 810.66,-67.38 813.85,-63.1 808.5,-56 796.47,-40.04 750.06,-28.01 710.8,-20.42"/>
<polygon fill="#63b8ff" stroke="#63b8ff" points="707.47,-161.42 698.61,-167.23 709.16,-168.21 707.47,-161.42"/>
</g>
<!-- Node8&#45;&gt;Node6 -->
<g id="edge18" class="edge">
<title>Node8&#45;&gt;Node6</title>
<path fill="none" stroke="#63b8ff" d="M572.67,-161.62C560.48,-153.89 546.67,-143.69 536.5,-132 511.58,-103.36 528.76,-77.54 497.5,-56 447.82,-21.76 285.07,-13.14 181.05,-11.22"/>
<polygon fill="#63b8ff" stroke="#63b8ff" points="570.75,-164.55 581.12,-166.72 574.37,-158.55 570.75,-164.55"/>
</g>
<!-- Node9 -->
<g id="node9" class="node">
<title>Node9</title>
<g id="a_node9"><a xlink:href="FMToperatingareascheduler_8hpp.html" target="_top" xlink:title=" ">
<polygon fill="white" stroke="#666666" points="769.38,-132 545.62,-132 545.62,-112 769.38,-112 769.38,-132"/>
<text text-anchor="middle" x="657.5" y="-118.5" font-family="Helvetica,sans-Serif" font-size="10.00">D:/FMT/Include/FMToperatingareascheduler.hpp</text>
</a>
</g>
</g>
<!-- Node8&#45;&gt;Node9 -->
<g id="edge11" class="edge">
<title>Node8&#45;&gt;Node9</title>
<path fill="none" stroke="#63b8ff" d="M618.61,-159.85C628.24,-150.72 639.71,-139.86 647.69,-132.3"/>
<polygon fill="#63b8ff" stroke="#63b8ff" points="616.38,-157.13 611.53,-166.55 621.19,-162.22 616.38,-157.13"/>
</g>
<!-- Node9&#45;&gt;Node5 -->
<g id="edge14" class="edge">
<title>Node9&#45;&gt;Node5</title>
<path fill="none" stroke="#63b8ff" d="M634.79,-104.71C626.09,-97.09 617.14,-87.21 612.5,-76 603.79,-54.97 624.66,-32.68 639.11,-20.43"/>
<polygon fill="#63b8ff" stroke="#63b8ff" points="632.41,-107.29 642.39,-110.85 636.81,-101.84 632.41,-107.29"/>
</g>
<!-- Node9&#45;&gt;Node6 -->
<g id="edge16" class="edge">
<title>Node9&#45;&gt;Node6</title>
<path fill="none" stroke="#63b8ff" d="M634.02,-105.46C609.53,-90.09 569.49,-67.29 531.5,-56 413.84,-21.02 271.6,-12.16 181.09,-10.45"/>
<polygon fill="#63b8ff" stroke="#63b8ff" points="631.92,-108.27 642.23,-110.71 635.7,-102.38 631.92,-108.27"/>
</g>
<!-- Node9&#45;&gt;Node7 -->
<g id="edge15" class="edge">
<title>Node9&#45;&gt;Node7</title>
<path fill="none" stroke="#63b8ff" d="M602.53,-109.13C557.06,-99.31 493.35,-85.54 451.28,-76.46"/>
<polygon fill="#63b8ff" stroke="#63b8ff" points="601.67,-112.52 612.19,-111.21 603.15,-105.68 601.67,-112.52"/>
</g>
<!-- Node10 -->
<g id="node10" class="node">
<title>Node10</title>
<g id="a_node10"><a xlink:href="FMTpythonpickle_8hpp.html" target="_top" xlink:title=" ">
<polygon fill="white" stroke="#666666" points="799.5,-76 621.5,-76 621.5,-56 799.5,-56 799.5,-76"/>
<text text-anchor="middle" x="710.5" y="-62.5" font-family="Helvetica,sans-Serif" font-size="10.00">D:/FMT/Include/FMTpythonpickle.hpp</text>
</a>
</g>
</g>
<!-- Node9&#45;&gt;Node10 -->
<g id="edge12" class="edge">
<title>Node9&#45;&gt;Node10</title>
<path fill="none" stroke="#63b8ff" d="M674.61,-103.57C683.51,-94.5 694.03,-83.78 701.37,-76.3"/>
<polygon fill="#63b8ff" stroke="#63b8ff" points="672.3,-100.93 667.79,-110.51 677.29,-105.83 672.3,-100.93"/>
</g>
<!-- Node10&#45;&gt;Node5 -->
<g id="edge13" class="edge">
<title>Node10&#45;&gt;Node5</title>
<path fill="none" stroke="#63b8ff" d="M691.76,-47.85C681.79,-38.72 669.92,-27.86 661.66,-20.3"/>
<polygon fill="#63b8ff" stroke="#63b8ff" points="689.37,-50.4 699.11,-54.57 694.09,-45.24 689.37,-50.4"/>
</g>
</g>
</svg>
