<?xml version="1.0" encoding="UTF-8" standalone="no"?>
<!DOCTYPE svg PUBLIC "-//W3C//DTD SVG 1.1//EN"
 "http://www.w3.org/Graphics/SVG/1.1/DTD/svg11.dtd">
<!-- Generated by graphviz version 8.1.0 (20230707.0739)
 -->
<!-- Title: C:/Users/CYRGU3/OneDrive &#45; BuroVirtuel/Bureau/FMT/FMT/Include/FMTpredictor.hpp Pages: 1 -->
<svg width="256pt" height="108pt"
 viewBox="0.00 0.00 255.50 108.00" xmlns="http://www.w3.org/2000/svg" xmlns:xlink="http://www.w3.org/1999/xlink">
<g id="graph0" class="graph" transform="scale(1 1) rotate(0) translate(4 104)">
<title>C:/Users/CYRGU3/OneDrive &#45; BuroVirtuel/Bureau/FMT/FMT/Include/FMTpredictor.hpp</title>
<!-- Node1 -->
<g id="Node000001" class="node">
<title>Node1</title>
<g id="a_Node000001"><a xlink:title=" ">
<polygon fill="#999999" stroke="#666666" points="182.25,-100 31.25,-100 31.25,-56 182.25,-56 182.25,-100"/>
<text text-anchor="start" x="39.25" y="-86.5" font-family="Helvetica,sans-Serif" font-size="10.00">C:/Users/CYRGU3/OneDrive</text>
<text text-anchor="start" x="39.25" y="-74.5" font-family="Helvetica,sans-Serif" font-size="10.00"> &#45; BuroVirtuel/Bureau/FMT</text>
<text text-anchor="middle" x="106.75" y="-62.5" font-family="Helvetica,sans-Serif" font-size="10.00">/FMT/Include/FMTpredictor.hpp</text>
</a>
</g>
</g>
<!-- Node2 -->
<g id="Node000002" class="node">
<title>Node2</title>
<g id="a_Node000002"><a xlink:title=" ">
<polygon fill="#e0e0e0" stroke="#999999" points="41.5,-20 0,-20 0,0 41.5,0 41.5,-20"/>
<text text-anchor="middle" x="20.75" y="-6.5" font-family="Helvetica,sans-Serif" font-size="10.00">vector</text>
</a>
</g>
</g>
<!-- Node1&#45;&gt;Node2 -->
<g id="edge1_Node000001_Node000002" class="edge">
<title>Node1&#45;&gt;Node2</title>
<g id="a_edge1_Node000001_Node000002"><a xlink:title=" ">
<path fill="none" stroke="#63b8ff" d="M79.07,-55.75C66.94,-46.45 52.95,-35.71 41.71,-27.09"/>
<polygon fill="#63b8ff" stroke="#63b8ff" points="44.09,-23.73 34.02,-20.42 39.83,-29.28 44.09,-23.73"/>
</a>
</g>
</g>
<!-- Node3 -->
<g id="Node000003" class="node">
<title>Node3</title>
<g id="a_Node000003"><a xlink:title=" ">
<polygon fill="#e0e0e0" stroke="#999999" points="99.75,-20 59.75,-20 59.75,0 99.75,0 99.75,-20"/>
<text text-anchor="middle" x="79.75" y="-6.5" font-family="Helvetica,sans-Serif" font-size="10.00">string</text>
</a>
</g>
</g>
<!-- Node1&#45;&gt;Node3 -->
<g id="edge2_Node000001_Node000003" class="edge">
<title>Node1&#45;&gt;Node3</title>
<g id="a_edge2_Node000001_Node000003"><a xlink:title=" ">
<path fill="none" stroke="#63b8ff" d="M98.06,-55.75C94.75,-47.66 90.99,-38.48 87.75,-30.55"/>
<polygon fill="#63b8ff" stroke="#63b8ff" points="90.63,-29.35 83.6,-21.42 84.15,-32 90.63,-29.35"/>
</a>
</g>
</g>
<!-- Node4 -->
<g id="Node000004" class="node">
<title>Node4</title>
<g id="a_Node000004"><a xlink:title=" ">
<polygon fill="#e0e0e0" stroke="#999999" points="152.12,-20 117.38,-20 117.38,0 152.12,0 152.12,-20"/>
<text text-anchor="middle" x="134.75" y="-6.5" font-family="Helvetica,sans-Serif" font-size="10.00">map</text>
</a>
</g>
</g>
<!-- Node1&#45;&gt;Node4 -->
<g id="edge3_Node000001_Node000004" class="edge">
<title>Node1&#45;&gt;Node4</title>
<g id="a_edge3_Node000001_Node000004"><a xlink:title=" ">
<path fill="none" stroke="#63b8ff" d="M115.76,-55.75C119.24,-47.57 123.18,-38.27 126.57,-30.28"/>
<polygon fill="#63b8ff" stroke="#63b8ff" points="130.07,-31.99 130.75,-21.42 123.63,-29.26 130.07,-31.99"/>
</a>
</g>
</g>
<!-- Node5 -->
<g id="Node000005" class="node">
<title>Node5</title>
<g id="a_Node000005"><a xlink:href="FMTutility_8hpp.html" target="_top" xlink:title=" ">
<polygon fill="white" stroke="#666666" points="247.5,-20 170,-20 170,0 247.5,0 247.5,-20"/>
<text text-anchor="middle" x="208.75" y="-6.5" font-family="Helvetica,sans-Serif" font-size="10.00">FMTutility.hpp</text>
</a>
</g>
</g>
<!-- Node1&#45;&gt;Node5 -->
<g id="edge4_Node000001_Node000005" class="edge">
<title>Node1&#45;&gt;Node5</title>
<g id="a_edge4_Node000001_Node000005"><a xlink:title=" ">
<path fill="none" stroke="#63b8ff" d="M139.87,-55.57C154.66,-46 171.75,-34.94 185.2,-26.24"/>
<polygon fill="#63b8ff" stroke="#63b8ff" points="186.78,-28.74 193.28,-20.37 182.98,-22.86 186.78,-28.74"/>
</a>
</g>
</g>
</g>
</svg>
