<?xml version="1.0" encoding="UTF-8" standalone="no"?>
<!DOCTYPE svg PUBLIC "-//W3C//DTD SVG 1.1//EN"
 "http://www.w3.org/Graphics/SVG/1.1/DTD/svg11.dtd">
<!-- Generated by graphviz version 8.1.0 (20230707.0739)
 -->
<!-- Title: C:/Temp/out/FMT/Include/FMTparser.hpp Pages: 1 -->
<svg width="1011pt" height="232pt"
 viewBox="0.00 0.00 1010.62 232.00" xmlns="http://www.w3.org/2000/svg" xmlns:xlink="http://www.w3.org/1999/xlink">
<g id="graph0" class="graph" transform="scale(1 1) rotate(0) translate(4 228)">
<title>C:/Temp/out/FMT/Include/FMTparser.hpp</title>
<!-- Node1 -->
<g id="Node000001" class="node">
<title>Node1</title>
<g id="a_Node000001"><a xlink:title=" ">
<polygon fill="#999999" stroke="#666666" points="638.62,-224 513.12,-224 513.12,-192 638.62,-192 638.62,-224"/>
<text text-anchor="start" x="521.12" y="-210.5" font-family="Helvetica,sans-Serif" font-size="10.00">C:/Temp/out/FMT/Include</text>
<text text-anchor="middle" x="575.88" y="-198.5" font-family="Helvetica,sans-Serif" font-size="10.00">/FMTparser.hpp</text>
</a>
</g>
</g>
<!-- Node2 -->
<g id="Node000002" class="node">
<title>Node2</title>
<g id="a_Node000002"><a xlink:title=" ">
<polygon fill="#e0e0e0" stroke="#999999" points="85.75,-150 0,-150 0,-130 85.75,-130 85.75,-150"/>
<text text-anchor="middle" x="42.88" y="-136.5" font-family="Helvetica,sans-Serif" font-size="10.00">boost/regex.hpp</text>
</a>
</g>
</g>
<!-- Node1&#45;&gt;Node2 -->
<g id="edge1_Node000001_Node000002" class="edge">
<title>Node1&#45;&gt;Node2</title>
<g id="a_edge1_Node000001_Node000002"><a xlink:title=" ">
<path fill="none" stroke="#63b8ff" d="M512.7,-203.84C420.26,-198.41 243.01,-184.99 94.88,-156 90.96,-155.23 86.91,-154.31 82.87,-153.3"/>
<polygon fill="#63b8ff" stroke="#63b8ff" points="83.92,-149.69 73.35,-150.47 82.11,-156.45 83.92,-149.69"/>
</a>
</g>
</g>
<!-- Node3 -->
<g id="Node000003" class="node">
<title>Node3</title>
<g id="a_Node000003"><a xlink:title=" ">
<polygon fill="#e0e0e0" stroke="#999999" points="149.88,-150 103.88,-150 103.88,-130 149.88,-130 149.88,-150"/>
<text text-anchor="middle" x="126.88" y="-136.5" font-family="Helvetica,sans-Serif" font-size="10.00">iterator</text>
</a>
</g>
</g>
<!-- Node1&#45;&gt;Node3 -->
<g id="edge2_Node000001_Node000003" class="edge">
<title>Node1&#45;&gt;Node3</title>
<g id="a_edge2_Node000001_Node000003"><a xlink:title=" ">
<path fill="none" stroke="#63b8ff" d="M512.8,-204.32C431.12,-199.69 284.91,-187.44 163.88,-156 161.81,-155.46 159.71,-154.84 157.61,-154.16"/>
<polygon fill="#63b8ff" stroke="#63b8ff" points="158.89,-150.53 148.29,-150.39 156.49,-157.11 158.89,-150.53"/>
</a>
</g>
</g>
<!-- Node4 -->
<g id="Node000004" class="node">
<title>Node4</title>
<g id="a_Node000004"><a xlink:title=" ">
<polygon fill="#e0e0e0" stroke="#999999" points="295.62,-20 242.12,-20 242.12,0 295.62,0 295.62,-20"/>
<text text-anchor="middle" x="268.88" y="-6.5" font-family="Helvetica,sans-Serif" font-size="10.00">iostream</text>
</a>
</g>
</g>
<!-- Node1&#45;&gt;Node4 -->
<g id="edge3_Node000001_Node000004" class="edge">
<title>Node1&#45;&gt;Node4</title>
<g id="a_edge3_Node000001_Node000004"><a xlink:title=" ">
<path fill="none" stroke="#63b8ff" d="M512.96,-203.28C433.18,-197.48 301.24,-183.91 261.88,-156 223.22,-128.59 206.99,-99.88 224.88,-56 229.45,-44.77 238.33,-34.82 246.92,-27.15"/>
<polygon fill="#63b8ff" stroke="#63b8ff" points="248.77,-29.34 254.25,-20.27 244.31,-23.94 248.77,-29.34"/>
</a>
</g>
</g>
<!-- Node5 -->
<g id="Node000005" class="node">
<title>Node5</title>
<g id="a_Node000005"><a xlink:title=" ">
<polygon fill="#e0e0e0" stroke="#999999" points="686,-150 637.75,-150 637.75,-130 686,-130 686,-150"/>
<text text-anchor="middle" x="661.88" y="-136.5" font-family="Helvetica,sans-Serif" font-size="10.00">fstream</text>
</a>
</g>
</g>
<!-- Node1&#45;&gt;Node5 -->
<g id="edge4_Node000001_Node000005" class="edge">
<title>Node1&#45;&gt;Node5</title>
<g id="a_edge4_Node000001_Node000005"><a xlink:title=" ">
<path fill="none" stroke="#63b8ff" d="M595.82,-191.69C609.5,-181.2 627.59,-167.31 641.38,-156.73"/>
<polygon fill="#63b8ff" stroke="#63b8ff" points="642.93,-159.18 648.74,-150.32 638.67,-153.63 642.93,-159.18"/>
</a>
</g>
</g>
<!-- Node6 -->
<g id="Node000006" class="node">
<title>Node6</title>
<g id="a_Node000006"><a xlink:title=" ">
<polygon fill="#e0e0e0" stroke="#999999" points="533.88,-20 493.88,-20 493.88,0 533.88,0 533.88,-20"/>
<text text-anchor="middle" x="513.88" y="-6.5" font-family="Helvetica,sans-Serif" font-size="10.00">string</text>
</a>
</g>
</g>
<!-- Node1&#45;&gt;Node6 -->
<g id="edge5_Node000001_Node000006" class="edge">
<title>Node1&#45;&gt;Node6</title>
<g id="a_edge5_Node000001_Node000006"><a xlink:title=" ">
<path fill="none" stroke="#63b8ff" d="M512.9,-206.75C431.46,-202.53 293.18,-181.14 234.88,-88 227.33,-75.95 225.65,-66.83 234.88,-56 266.46,-18.91 416.92,-12.29 482.83,-11.18"/>
<polygon fill="#63b8ff" stroke="#63b8ff" points="482.79,-14.67 492.74,-11.03 482.69,-7.67 482.79,-14.67"/>
</a>
</g>
</g>
<!-- Node7 -->
<g id="Node000007" class="node">
<title>Node7</title>
<g id="a_Node000007"><a xlink:title=" ">
<polygon fill="#e0e0e0" stroke="#999999" points="285.62,-82 244.12,-82 244.12,-62 285.62,-62 285.62,-82"/>
<text text-anchor="middle" x="264.88" y="-68.5" font-family="Helvetica,sans-Serif" font-size="10.00">vector</text>
</a>
</g>
</g>
<!-- Node1&#45;&gt;Node7 -->
<g id="edge6_Node000001_Node000007" class="edge">
<title>Node1&#45;&gt;Node7</title>
<g id="a_edge6_Node000001_Node000007"><a xlink:title=" ">
<path fill="none" stroke="#63b8ff" d="M537.36,-191.59C482.91,-169.6 380.51,-127.49 294.88,-88 294.28,-87.73 293.68,-87.45 293.08,-87.16"/>
<polygon fill="#63b8ff" stroke="#63b8ff" points="294.72,-83.59 284.19,-82.39 291.67,-89.89 294.72,-83.59"/>
</a>
</g>
</g>
<!-- Node8 -->
<g id="Node000008" class="node">
<title>Node8</title>
<g id="a_Node000008"><a xlink:title=" ">
<polygon fill="#e0e0e0" stroke="#999999" points="746,-150 703.75,-150 703.75,-130 746,-130 746,-150"/>
<text text-anchor="middle" x="724.88" y="-136.5" font-family="Helvetica,sans-Serif" font-size="10.00">queue</text>
</a>
</g>
</g>
<!-- Node1&#45;&gt;Node8 -->
<g id="edge7_Node000001_Node000008" class="edge">
<title>Node1&#45;&gt;Node8</title>
<g id="a_edge7_Node000001_Node000008"><a xlink:title=" ">
<path fill="none" stroke="#63b8ff" d="M613.38,-191.59C636.93,-181.75 667.86,-168.53 694.88,-156 695.47,-155.72 696.07,-155.44 696.67,-155.16"/>
<polygon fill="#63b8ff" stroke="#63b8ff" points="698.08,-157.88 705.55,-150.37 695.03,-151.58 698.08,-157.88"/>
</a>
</g>
</g>
<!-- Node9 -->
<g id="Node000009" class="node">
<title>Node9</title>
<g id="a_Node000009"><a xlink:href="FMTutility_8hpp.html" target="_top" xlink:title=" ">
<polygon fill="white" stroke="#666666" points="1002.62,-20 925.12,-20 925.12,0 1002.62,0 1002.62,-20"/>
<text text-anchor="middle" x="963.88" y="-6.5" font-family="Helvetica,sans-Serif" font-size="10.00">FMTutility.hpp</text>
</a>
</g>
</g>
<!-- Node1&#45;&gt;Node9 -->
<g id="edge8_Node000001_Node000009" class="edge">
<title>Node1&#45;&gt;Node9</title>
<g id="a_edge8_Node000001_Node000009"><a xlink:title=" ">
<path fill="none" stroke="#63b8ff" d="M580.92,-191.72C588.18,-172.37 603.57,-139.64 628.88,-124 693.88,-83.82 919.74,-144.8 970.88,-88 984.73,-72.62 979.35,-47.82 972.88,-30.54"/>
<polygon fill="#63b8ff" stroke="#63b8ff" points="975.75,-29.32 968.67,-21.44 969.29,-32.02 975.75,-29.32"/>
</a>
</g>
</g>
<!-- Node10 -->
<g id="Node000010" class="node">
<title>Node10</title>
<g id="a_Node000010"><a xlink:title=" ">
<polygon fill="#e0e0e0" stroke="#999999" points="801.75,-150 764,-150 764,-130 801.75,-130 801.75,-150"/>
<text text-anchor="middle" x="782.88" y="-136.5" font-family="Helvetica,sans-Serif" font-size="10.00">array</text>
</a>
</g>
</g>
<!-- Node1&#45;&gt;Node10 -->
<g id="edge9_Node000001_Node000010" class="edge">
<title>Node1&#45;&gt;Node10</title>
<g id="a_edge9_Node000001_Node000010"><a xlink:title=" ">
<path fill="none" stroke="#63b8ff" d="M639.11,-192.51C673.88,-183.67 717.44,-171.16 754.88,-156 755.48,-155.75 756.09,-155.5 756.71,-155.24"/>
<polygon fill="#63b8ff" stroke="#63b8ff" points="758.08,-157.98 765.57,-150.49 755.05,-151.67 758.08,-157.98"/>
</a>
</g>
</g>
<!-- Node11 -->
<g id="Node000011" class="node">
<title>Node11</title>
<g id="a_Node000011"><a xlink:title=" ">
<polygon fill="#e0e0e0" stroke="#999999" points="859.88,-150 819.88,-150 819.88,-130 859.88,-130 859.88,-150"/>
<text text-anchor="middle" x="839.88" y="-136.5" font-family="Helvetica,sans-Serif" font-size="10.00">ctime</text>
</a>
</g>
</g>
<!-- Node1&#45;&gt;Node11 -->
<g id="edge10_Node000001_Node000011" class="edge">
<title>Node1&#45;&gt;Node11</title>
<g id="a_edge10_Node000001_Node000011"><a xlink:title=" ">
<path fill="none" stroke="#63b8ff" d="M638.98,-197.95C687.03,-189.95 754.31,-176.36 810.88,-156 811.78,-155.67 812.7,-155.32 813.62,-154.95"/>
<polygon fill="#63b8ff" stroke="#63b8ff" points="814.71,-157.85 822.34,-150.5 811.8,-151.48 814.71,-157.85"/>
</a>
</g>
</g>
<!-- Node12 -->
<g id="Node000012" class="node">
<title>Node12</title>
<g id="a_Node000012"><a xlink:title=" ">
<polygon fill="#e0e0e0" stroke="#999999" points="989.5,-156 878.25,-156 878.25,-124 989.5,-124 989.5,-156"/>
<text text-anchor="start" x="886.25" y="-142.5" font-family="Helvetica,sans-Serif" font-size="10.00">boost/thread/recursive</text>
<text text-anchor="middle" x="933.88" y="-130.5" font-family="Helvetica,sans-Serif" font-size="10.00">_mutex.hpp</text>
</a>
</g>
</g>
<!-- Node1&#45;&gt;Node12 -->
<g id="edge11_Node000001_Node000012" class="edge">
<title>Node1&#45;&gt;Node12</title>
<g id="a_edge11_Node000001_Node000012"><a xlink:title=" ">
<path fill="none" stroke="#63b8ff" d="M638.93,-197.04C696.01,-187.8 782.65,-173.2 867.32,-156.25"/>
<polygon fill="#63b8ff" stroke="#63b8ff" points="867.79,-159.53 876.9,-154.12 866.4,-152.67 867.79,-159.53"/>
</a>
</g>
</g>
<!-- Node13 -->
<g id="Node000013" class="node">
<title>Node13</title>
<g id="a_Node000013"><a xlink:href="FMTobject_8hpp.html" target="_top" xlink:title=" ">
<polygon fill="white" stroke="#666666" points="582.12,-150 501.62,-150 501.62,-130 582.12,-130 582.12,-150"/>
<text text-anchor="middle" x="541.88" y="-136.5" font-family="Helvetica,sans-Serif" font-size="10.00">FMTobject.hpp</text>
</a>
</g>
</g>
<!-- Node1&#45;&gt;Node13 -->
<g id="edge12_Node000001_Node000013" class="edge">
<title>Node1&#45;&gt;Node13</title>
<g id="a_edge12_Node000001_Node000013"><a xlink:title=" ">
<path fill="none" stroke="#63b8ff" d="M567.99,-191.69C563.1,-182.2 556.78,-169.92 551.58,-159.83"/>
<polygon fill="#63b8ff" stroke="#63b8ff" points="554.37,-158.6 546.67,-151.32 548.14,-161.81 554.37,-158.6"/>
</a>
</g>
</g>
<!-- Node13&#45;&gt;Node7 -->
<g id="edge24_Node000013_Node000007" class="edge">
<title>Node13&#45;&gt;Node7</title>
<g id="a_edge24_Node000013_Node000007"><a xlink:title=" ">
<path fill="none" stroke="#63b8ff" d="M501.23,-133.91C451.56,-126.95 365.41,-112.45 294.88,-88 293.77,-87.62 292.66,-87.21 291.55,-86.77"/>
<polygon fill="#63b8ff" stroke="#63b8ff" points="293.23,-83.24 282.68,-82.36 290.38,-89.63 293.23,-83.24"/>
</a>
</g>
</g>
<!-- Node14 -->
<g id="Node000014" class="node">
<title>Node14</title>
<g id="a_Node000014"><a xlink:title=" ">
<polygon fill="#e0e0e0" stroke="#999999" points="832.25,-88 737.5,-88 737.5,-56 832.25,-56 832.25,-88"/>
<text text-anchor="start" x="745.5" y="-74.5" font-family="Helvetica,sans-Serif" font-size="10.00">boost/serialization</text>
<text text-anchor="middle" x="784.88" y="-62.5" font-family="Helvetica,sans-Serif" font-size="10.00">/shared_ptr.hpp</text>
</a>
</g>
</g>
<!-- Node13&#45;&gt;Node14 -->
<g id="edge13_Node000013_Node000014" class="edge">
<title>Node13&#45;&gt;Node14</title>
<g id="a_edge13_Node000013_Node000014"><a xlink:title=" ">
<path fill="none" stroke="#63b8ff" d="M575.86,-129.52C582.49,-127.68 589.4,-125.77 595.88,-124 639.77,-111.98 689.46,-98.58 726.87,-88.53"/>
<polygon fill="#63b8ff" stroke="#63b8ff" points="727.33,-91.77 736.08,-85.79 725.51,-85.01 727.33,-91.77"/>
</a>
</g>
</g>
<!-- Node15 -->
<g id="Node000015" class="node">
<title>Node15</title>
<g id="a_Node000015"><a xlink:title=" ">
<polygon fill="#e0e0e0" stroke="#999999" points="945.25,-88 850.5,-88 850.5,-56 945.25,-56 945.25,-88"/>
<text text-anchor="start" x="858.5" y="-74.5" font-family="Helvetica,sans-Serif" font-size="10.00">boost/serialization</text>
<text text-anchor="middle" x="897.88" y="-62.5" font-family="Helvetica,sans-Serif" font-size="10.00">/nvp.hpp</text>
</a>
</g>
</g>
<!-- Node13&#45;&gt;Node15 -->
<g id="edge14_Node000013_Node000015" class="edge">
<title>Node13&#45;&gt;Node15</title>
<g id="a_edge14_Node000013_Node000015"><a xlink:title=" ">
<path fill="none" stroke="#63b8ff" d="M573.41,-129.53C580.74,-127.52 588.55,-125.55 595.88,-124 700.19,-101.94 731.13,-109.52 839.35,-88.15"/>
<polygon fill="#63b8ff" stroke="#63b8ff" points="839.96,-91.4 849.07,-85.99 838.58,-84.54 839.96,-91.4"/>
</a>
</g>
</g>
<!-- Node16 -->
<g id="Node000016" class="node">
<title>Node16</title>
<g id="a_Node000016"><a xlink:title=" ">
<polygon fill="#e0e0e0" stroke="#999999" points="398.25,-88 303.5,-88 303.5,-56 398.25,-56 398.25,-88"/>
<text text-anchor="start" x="311.5" y="-74.5" font-family="Helvetica,sans-Serif" font-size="10.00">boost/serialization</text>
<text text-anchor="middle" x="350.88" y="-62.5" font-family="Helvetica,sans-Serif" font-size="10.00">/export.hpp</text>
</a>
</g>
</g>
<!-- Node13&#45;&gt;Node16 -->
<g id="edge15_Node000013_Node000016" class="edge">
<title>Node13&#45;&gt;Node16</title>
<g id="a_edge15_Node000013_Node000016"><a xlink:title=" ">
<path fill="none" stroke="#63b8ff" d="M514.51,-129.54C486.25,-119.78 441.38,-104.28 405.77,-91.97"/>
<polygon fill="#63b8ff" stroke="#63b8ff" points="407.12,-88.39 396.52,-88.43 404.83,-95 407.12,-88.39"/>
</a>
</g>
</g>
<!-- Node17 -->
<g id="Node000017" class="node">
<title>Node17</title>
<g id="a_Node000017"><a xlink:href="FMTexception_8hpp.html" target="_top" xlink:title=" ">
<polygon fill="white" stroke="#666666" points="719,-82 622.75,-82 622.75,-62 719,-62 719,-82"/>
<text text-anchor="middle" x="670.88" y="-68.5" font-family="Helvetica,sans-Serif" font-size="10.00">FMTexception.hpp</text>
</a>
</g>
</g>
<!-- Node13&#45;&gt;Node17 -->
<g id="edge16_Node000013_Node000017" class="edge">
<title>Node13&#45;&gt;Node17</title>
<g id="a_edge16_Node000013_Node000017"><a xlink:title=" ">
<path fill="none" stroke="#63b8ff" d="M560.36,-129.54C581.91,-118.52 617.77,-100.17 642.77,-87.38"/>
<polygon fill="#63b8ff" stroke="#63b8ff" points="644.12,-90.11 651.43,-82.44 640.93,-83.88 644.12,-90.11"/>
</a>
</g>
</g>
<!-- Node19 -->
<g id="Node000019" class="node">
<title>Node19</title>
<g id="a_Node000019"><a xlink:title=" ">
<polygon fill="#e0e0e0" stroke="#999999" points="861.5,-20 810.25,-20 810.25,0 861.5,0 861.5,-20"/>
<text text-anchor="middle" x="835.88" y="-6.5" font-family="Helvetica,sans-Serif" font-size="10.00">memory</text>
</a>
</g>
</g>
<!-- Node13&#45;&gt;Node19 -->
<g id="edge22_Node000013_Node000019" class="edge">
<title>Node13&#45;&gt;Node19</title>
<g id="a_edge22_Node000013_Node000019"><a xlink:title=" ">
<path fill="none" stroke="#63b8ff" d="M572.5,-129.52C580.08,-127.44 588.22,-125.44 595.88,-124 674.46,-109.25 900.24,-147.3 953.88,-88 963.42,-77.45 961.94,-67.71 953.88,-56 935.78,-29.74 900.15,-18.79 872.76,-14.23"/>
<polygon fill="#63b8ff" stroke="#63b8ff" points="873.37,-10.64 862.97,-12.69 872.37,-17.57 873.37,-10.64"/>
</a>
</g>
</g>
<!-- Node20 -->
<g id="Node000020" class="node">
<title>Node20</title>
<g id="a_Node000020"><a xlink:title=" ">
<polygon fill="#e0e0e0" stroke="#999999" points="461.5,-82 416.25,-82 416.25,-62 461.5,-62 461.5,-82"/>
<text text-anchor="middle" x="438.88" y="-68.5" font-family="Helvetica,sans-Serif" font-size="10.00">chrono</text>
</a>
</g>
</g>
<!-- Node13&#45;&gt;Node20 -->
<g id="edge23_Node000013_Node000020" class="edge">
<title>Node13&#45;&gt;Node20</title>
<g id="a_edge23_Node000013_Node000020"><a xlink:title=" ">
<path fill="none" stroke="#63b8ff" d="M527.12,-129.54C510.29,-118.76 482.54,-100.98 462.66,-88.24"/>
<polygon fill="#63b8ff" stroke="#63b8ff" points="464.91,-84.89 454.61,-82.44 461.14,-90.78 464.91,-84.89"/>
</a>
</g>
</g>
<!-- Node21 -->
<g id="Node000021" class="node">
<title>Node21</title>
<g id="a_Node000021"><a xlink:title=" ">
<polygon fill="#e0e0e0" stroke="#999999" points="604.25,-88 479.5,-88 479.5,-56 604.25,-56 604.25,-88"/>
<text text-anchor="start" x="487.5" y="-74.5" font-family="Helvetica,sans-Serif" font-size="10.00">boost/dll/runtime_symbol</text>
<text text-anchor="middle" x="541.88" y="-62.5" font-family="Helvetica,sans-Serif" font-size="10.00">_info.hpp</text>
</a>
</g>
</g>
<!-- Node13&#45;&gt;Node21 -->
<g id="edge25_Node000013_Node000021" class="edge">
<title>Node13&#45;&gt;Node21</title>
<g id="a_edge25_Node000013_Node000021"><a xlink:title=" ">
<path fill="none" stroke="#63b8ff" d="M541.88,-129.54C541.88,-121.64 541.88,-109.97 541.88,-99.29"/>
<polygon fill="#63b8ff" stroke="#63b8ff" points="545.38,-99.3 541.88,-89.3 538.38,-99.3 545.38,-99.3"/>
</a>
</g>
</g>
<!-- Node17&#45;&gt;Node4 -->
<g id="edge19_Node000017_Node000004" class="edge">
<title>Node17&#45;&gt;Node4</title>
<g id="a_edge19_Node000017_Node000004"><a xlink:title=" ">
<path fill="none" stroke="#63b8ff" d="M637.3,-61.57C629.33,-59.54 620.84,-57.54 612.88,-56 502.43,-34.58 370.02,-20.46 306.5,-14.39"/>
<polygon fill="#63b8ff" stroke="#63b8ff" points="307.1,-10.84 296.82,-13.39 306.45,-17.81 307.1,-10.84"/>
</a>
</g>
</g>
<!-- Node17&#45;&gt;Node6 -->
<g id="edge18_Node000017_Node000006" class="edge">
<title>Node17&#45;&gt;Node6</title>
<g id="a_edge18_Node000017_Node000006"><a xlink:title=" ">
<path fill="none" stroke="#63b8ff" d="M646.34,-61.62C618.85,-51.12 574.22,-34.06 544.47,-22.69"/>
<polygon fill="#63b8ff" stroke="#63b8ff" points="545.83,-19.08 535.24,-18.78 543.33,-25.62 545.83,-19.08"/>
</a>
</g>
</g>
<!-- Node17&#45;&gt;Node9 -->
<g id="edge21_Node000017_Node000009" class="edge">
<title>Node17&#45;&gt;Node9</title>
<g id="a_edge21_Node000017_Node000009"><a xlink:title=" ">
<path fill="none" stroke="#63b8ff" d="M706.06,-61.52C713.57,-59.6 721.47,-57.67 728.88,-56 792.42,-41.71 866.27,-28.05 913.98,-19.6"/>
<polygon fill="#63b8ff" stroke="#63b8ff" points="914.39,-22.91 923.63,-17.72 913.18,-16.01 914.39,-22.91"/>
</a>
</g>
</g>
<!-- Node18 -->
<g id="Node000018" class="node">
<title>Node18</title>
<g id="a_Node000018"><a xlink:title=" ">
<polygon fill="#e0e0e0" stroke="#999999" points="699.88,-20 641.88,-20 641.88,0 699.88,0 699.88,-20"/>
<text text-anchor="middle" x="670.88" y="-6.5" font-family="Helvetica,sans-Serif" font-size="10.00">exception</text>
</a>
</g>
</g>
<!-- Node17&#45;&gt;Node18 -->
<g id="edge17_Node000017_Node000018" class="edge">
<title>Node17&#45;&gt;Node18</title>
<g id="a_edge17_Node000017_Node000018"><a xlink:title=" ">
<path fill="none" stroke="#63b8ff" d="M670.88,-61.62C670.88,-53.48 670.88,-41.39 670.88,-31.07"/>
<polygon fill="#63b8ff" stroke="#63b8ff" points="674.38,-31.11 670.88,-21.11 667.38,-31.11 674.38,-31.11"/>
</a>
</g>
</g>
<!-- Node17&#45;&gt;Node19 -->
<g id="edge20_Node000017_Node000019" class="edge">
<title>Node17&#45;&gt;Node19</title>
<g id="a_edge20_Node000017_Node000019"><a xlink:title=" ">
<path fill="none" stroke="#63b8ff" d="M696.66,-61.62C724.42,-51.53 768.81,-35.39 799.98,-24.05"/>
<polygon fill="#63b8ff" stroke="#63b8ff" points="800.8,-27.11 809,-20.41 798.41,-20.54 800.8,-27.11"/>
</a>
</g>
</g>
</g>
</svg>
