<?xml version="1.0" encoding="UTF-8" standalone="no"?>
<!DOCTYPE svg PUBLIC "-//W3C//DTD SVG 1.1//EN"
 "http://www.w3.org/Graphics/SVG/1.1/DTD/svg11.dtd">
<!-- Generated by graphviz version 8.1.0 (20230707.0739)
 -->
<!-- Title: C:/Temp/out/FMT/Include/FMTserializablematrix.hpp Pages: 1 -->
<svg width="327pt" height="108pt"
 viewBox="0.00 0.00 327.00 108.00" xmlns="http://www.w3.org/2000/svg" xmlns:xlink="http://www.w3.org/1999/xlink">
<g id="graph0" class="graph" transform="scale(1 1) rotate(0) translate(4 104)">
<title>C:/Temp/out/FMT/Include/FMTserializablematrix.hpp</title>
<!-- Node1 -->
<g id="Node000001" class="node">
<title>Node1</title>
<g id="a_Node000001"><a xlink:title=" ">
<polygon fill="#999999" stroke="#666666" points="195.12,-100 62.12,-100 62.12,-68 195.12,-68 195.12,-100"/>
<text text-anchor="start" x="70.12" y="-86.5" font-family="Helvetica,sans-Serif" font-size="10.00">C:/Temp/out/FMT/Include</text>
<text text-anchor="middle" x="128.62" y="-74.5" font-family="Helvetica,sans-Serif" font-size="10.00">/FMTserializablematrix.hpp</text>
</a>
</g>
</g>
<!-- Node2 -->
<g id="Node000002" class="node">
<title>Node2</title>
<g id="a_Node000002"><a xlink:title=" ">
<polygon fill="#e0e0e0" stroke="#999999" points="51.25,-26 0,-26 0,-6 51.25,-6 51.25,-26"/>
<text text-anchor="middle" x="25.62" y="-12.5" font-family="Helvetica,sans-Serif" font-size="10.00">memory</text>
</a>
</g>
</g>
<!-- Node1&#45;&gt;Node2 -->
<g id="edge1_Node000001_Node000002" class="edge">
<title>Node1&#45;&gt;Node2</title>
<g id="a_edge1_Node000001_Node000002"><a xlink:title=" ">
<path fill="none" stroke="#63b8ff" d="M104.48,-67.53C87.87,-56.89 65.93,-42.83 49.41,-32.24"/>
<polygon fill="#63b8ff" stroke="#63b8ff" points="51.7,-28.91 41.39,-26.46 47.92,-34.8 51.7,-28.91"/>
</a>
</g>
</g>
<!-- Node3 -->
<g id="Node000003" class="node">
<title>Node3</title>
<g id="a_Node000003"><a xlink:title=" ">
<polygon fill="#e0e0e0" stroke="#999999" points="110.38,-26 68.88,-26 68.88,-6 110.38,-6 110.38,-26"/>
<text text-anchor="middle" x="89.62" y="-12.5" font-family="Helvetica,sans-Serif" font-size="10.00">vector</text>
</a>
</g>
</g>
<!-- Node1&#45;&gt;Node3 -->
<g id="edge2_Node000001_Node000003" class="edge">
<title>Node1&#45;&gt;Node3</title>
<g id="a_edge2_Node000001_Node000003"><a xlink:title=" ">
<path fill="none" stroke="#63b8ff" d="M119.58,-67.69C113.91,-58.1 106.56,-45.67 100.57,-35.52"/>
<polygon fill="#63b8ff" stroke="#63b8ff" points="103.23,-34.14 95.13,-27.32 97.2,-37.71 103.23,-34.14"/>
</a>
</g>
</g>
<!-- Node4 -->
<g id="Node000004" class="node">
<title>Node4</title>
<g id="a_Node000004"><a xlink:href="FMTutility_8hpp.html" target="_top" xlink:title=" ">
<polygon fill="white" stroke="#666666" points="206.38,-26 128.88,-26 128.88,-6 206.38,-6 206.38,-26"/>
<text text-anchor="middle" x="167.62" y="-12.5" font-family="Helvetica,sans-Serif" font-size="10.00">FMTutility.hpp</text>
</a>
</g>
</g>
<!-- Node1&#45;&gt;Node4 -->
<g id="edge3_Node000001_Node000004" class="edge">
<title>Node1&#45;&gt;Node4</title>
<g id="a_edge3_Node000001_Node000004"><a xlink:title=" ">
<path fill="none" stroke="#63b8ff" d="M137.67,-67.69C143.34,-58.1 150.69,-45.67 156.68,-35.52"/>
<polygon fill="#63b8ff" stroke="#63b8ff" points="160.05,-37.71 162.12,-27.32 154.02,-34.14 160.05,-37.71"/>
</a>
</g>
</g>
<!-- Node5 -->
<g id="Node000005" class="node">
<title>Node5</title>
<g id="a_Node000005"><a xlink:title=" ">
<polygon fill="#e0e0e0" stroke="#999999" points="319,-32 224.25,-32 224.25,0 319,0 319,-32"/>
<text text-anchor="start" x="232.25" y="-18.5" font-family="Helvetica,sans-Serif" font-size="10.00">boost/serialization</text>
<text text-anchor="middle" x="271.62" y="-6.5" font-family="Helvetica,sans-Serif" font-size="10.00">/vector.hpp</text>
</a>
</g>
</g>
<!-- Node1&#45;&gt;Node5 -->
<g id="edge4_Node000001_Node000005" class="edge">
<title>Node1&#45;&gt;Node5</title>
<g id="a_edge4_Node000001_Node000005"><a xlink:title=" ">
<path fill="none" stroke="#63b8ff" d="M162.15,-67.53C181.96,-58.38 207.26,-46.71 228.54,-36.89"/>
<polygon fill="#63b8ff" stroke="#63b8ff" points="229.7,-39.75 237.31,-32.38 226.76,-33.39 229.7,-39.75"/>
</a>
</g>
</g>
</g>
</svg>
