<?xml version="1.0" encoding="UTF-8" standalone="no"?>
<!DOCTYPE svg PUBLIC "-//W3C//DTD SVG 1.1//EN"
 "http://www.w3.org/Graphics/SVG/1.1/DTD/svg11.dtd">
<!-- Generated by graphviz version 8.1.0 (20230707.0739)
 -->
<!-- Title: C:/Temp/out/FMT/Include/FMTsrmodel.hpp Pages: 1 -->
<svg width="566pt" height="244pt"
 viewBox="0.00 0.00 565.50 244.00" xmlns="http://www.w3.org/2000/svg" xmlns:xlink="http://www.w3.org/1999/xlink">
<g id="graph0" class="graph" transform="scale(1 1) rotate(0) translate(4 240)">
<title>C:/Temp/out/FMT/Include/FMTsrmodel.hpp</title>
<!-- Node1 -->
<g id="Node000001" class="node">
<title>Node1</title>
<g id="a_Node000001"><a xlink:title=" ">
<polygon fill="#999999" stroke="#666666" points="394.5,-236 269,-236 269,-204 394.5,-204 394.5,-236"/>
<text text-anchor="start" x="277" y="-222.5" font-family="Helvetica,sans-Serif" font-size="10.00">C:/Temp/out/FMT/Include</text>
<text text-anchor="middle" x="331.75" y="-210.5" font-family="Helvetica,sans-Serif" font-size="10.00">/FMTsrmodel.hpp</text>
</a>
</g>
</g>
<!-- Node2 -->
<g id="Node000002" class="node">
<title>Node2</title>
<g id="a_Node000002"><a xlink:href="FMTlpmodel_8hpp.html" target="_top" xlink:title=" ">
<polygon fill="white" stroke="#666666" points="303.5,-168 178,-168 178,-136 303.5,-136 303.5,-168"/>
<text text-anchor="start" x="186" y="-154.5" font-family="Helvetica,sans-Serif" font-size="10.00">C:/Temp/out/FMT/Include</text>
<text text-anchor="middle" x="240.75" y="-142.5" font-family="Helvetica,sans-Serif" font-size="10.00">/FMTlpmodel.hpp</text>
</a>
</g>
</g>
<!-- Node1&#45;&gt;Node2 -->
<g id="edge1_Node000001_Node000002" class="edge">
<title>Node1&#45;&gt;Node2</title>
<g id="a_edge1_Node000001_Node000002"><a xlink:title=" ">
<path fill="none" stroke="#63b8ff" d="M301.99,-197.42C288.96,-187.96 273.95,-177.08 262.06,-168.45"/>
<polygon fill="#63b8ff" stroke="#63b8ff" points="299.49,-200.65 309.64,-203.69 303.6,-194.99 299.49,-200.65"/>
</a>
</g>
</g>
<!-- Node5 -->
<g id="Node000005" class="node">
<title>Node5</title>
<g id="a_Node000005"><a xlink:href="PYexportModel_8hpp.html" target="_top" xlink:title=" ">
<polygon fill="white" stroke="#666666" points="269.5,-100 144,-100 144,-68 269.5,-68 269.5,-100"/>
<text text-anchor="start" x="152" y="-86.5" font-family="Helvetica,sans-Serif" font-size="10.00">C:/Temp/out/FMT/Include</text>
<text text-anchor="middle" x="206.75" y="-74.5" font-family="Helvetica,sans-Serif" font-size="10.00">/PYexportModel.hpp</text>
</a>
</g>
</g>
<!-- Node1&#45;&gt;Node5 -->
<g id="edge11_Node000001_Node000005" class="edge">
<title>Node1&#45;&gt;Node5</title>
<g id="a_edge11_Node000001_Node000005"><a xlink:title=" ">
<path fill="none" stroke="#63b8ff" d="M258.2,-214.99C225.29,-209.08 189.35,-196.03 168.75,-168 153.08,-146.67 174.02,-117.85 190.48,-100.39"/>
<polygon fill="#63b8ff" stroke="#63b8ff" points="257.32,-218.56 267.75,-216.67 258.42,-211.64 257.32,-218.56"/>
</a>
</g>
</g>
<!-- Node6 -->
<g id="Node000006" class="node">
<title>Node6</title>
<g id="a_Node000006"><a xlink:href="Rdeclarations_8hpp.html" target="_top" xlink:title=" ">
<polygon fill="white" stroke="#666666" points="413.5,-100 288,-100 288,-68 413.5,-68 413.5,-100"/>
<text text-anchor="start" x="296" y="-86.5" font-family="Helvetica,sans-Serif" font-size="10.00">C:/Temp/out/FMT/Include</text>
<text text-anchor="middle" x="350.75" y="-74.5" font-family="Helvetica,sans-Serif" font-size="10.00">/Rdeclarations.hpp</text>
</a>
</g>
</g>
<!-- Node1&#45;&gt;Node6 -->
<g id="edge12_Node000001_Node000006" class="edge">
<title>Node1&#45;&gt;Node6</title>
<g id="a_edge12_Node000001_Node000006"><a xlink:title=" ">
<path fill="none" stroke="#63b8ff" d="M335.46,-192.82C339.38,-165.22 345.4,-122.7 348.6,-100.19"/>
<polygon fill="#63b8ff" stroke="#63b8ff" points="331.87,-192.24 333.93,-202.63 338.8,-193.22 331.87,-192.24"/>
</a>
</g>
</g>
<!-- Node7 -->
<g id="Node000007" class="node">
<title>Node7</title>
<g id="a_Node000007"><a xlink:href="RexportModel_8hpp.html" target="_top" xlink:title=" ">
<polygon fill="white" stroke="#666666" points="557.5,-100 432,-100 432,-68 557.5,-68 557.5,-100"/>
<text text-anchor="start" x="440" y="-86.5" font-family="Helvetica,sans-Serif" font-size="10.00">C:/Temp/out/FMT/Include</text>
<text text-anchor="middle" x="494.75" y="-74.5" font-family="Helvetica,sans-Serif" font-size="10.00">/RexportModel.hpp</text>
</a>
</g>
</g>
<!-- Node1&#45;&gt;Node7 -->
<g id="edge13_Node000001_Node000007" class="edge">
<title>Node1&#45;&gt;Node7</title>
<g id="a_edge13_Node000001_Node000007"><a xlink:title=" ">
<path fill="none" stroke="#63b8ff" d="M405.3,-214.99C438.21,-209.08 474.15,-196.03 494.75,-168 509.17,-148.38 504.55,-118.49 499.75,-100.44"/>
<polygon fill="#63b8ff" stroke="#63b8ff" points="405.08,-211.64 395.75,-216.67 406.18,-218.56 405.08,-211.64"/>
</a>
</g>
</g>
<!-- Node8 -->
<g id="Node000008" class="node">
<title>Node8</title>
<g id="a_Node000008"><a xlink:href="FMTnssmodel_8hpp.html" target="_top" xlink:title=" ">
<polygon fill="white" stroke="#666666" points="485.5,-168 360,-168 360,-136 485.5,-136 485.5,-168"/>
<text text-anchor="start" x="368" y="-154.5" font-family="Helvetica,sans-Serif" font-size="10.00">C:/Temp/out/FMT/Include</text>
<text text-anchor="middle" x="422.75" y="-142.5" font-family="Helvetica,sans-Serif" font-size="10.00">/FMTnssmodel.hpp</text>
</a>
</g>
</g>
<!-- Node1&#45;&gt;Node8 -->
<g id="edge7_Node000001_Node000008" class="edge">
<title>Node1&#45;&gt;Node8</title>
<g id="a_edge7_Node000001_Node000008"><a xlink:title=" ">
<path fill="none" stroke="#63b8ff" d="M361.51,-197.42C374.54,-187.96 389.55,-177.08 401.44,-168.45"/>
<polygon fill="#63b8ff" stroke="#63b8ff" points="359.9,-194.99 353.86,-203.69 364.01,-200.65 359.9,-194.99"/>
</a>
</g>
</g>
<!-- Node3 -->
<g id="Node000003" class="node">
<title>Node3</title>
<g id="a_Node000003"><a xlink:href="FMTpythonpickle_8hpp.html" target="_top" xlink:title=" ">
<polygon fill="white" stroke="#666666" points="125.5,-100 0,-100 0,-68 125.5,-68 125.5,-100"/>
<text text-anchor="start" x="8" y="-86.5" font-family="Helvetica,sans-Serif" font-size="10.00">C:/Temp/out/FMT/Include</text>
<text text-anchor="middle" x="62.75" y="-74.5" font-family="Helvetica,sans-Serif" font-size="10.00">/FMTpythonpickle.hpp</text>
</a>
</g>
</g>
<!-- Node2&#45;&gt;Node3 -->
<g id="edge2_Node000002_Node000003" class="edge">
<title>Node2&#45;&gt;Node3</title>
<g id="a_edge2_Node000002_Node000003"><a xlink:title=" ">
<path fill="none" stroke="#63b8ff" d="M189.02,-131.82C162.16,-121.86 129.78,-109.85 104.53,-100.49"/>
<polygon fill="#63b8ff" stroke="#63b8ff" points="187.42,-135.33 198.02,-135.53 189.86,-128.77 187.42,-135.33"/>
</a>
</g>
</g>
<!-- Node2&#45;&gt;Node5 -->
<g id="edge4_Node000002_Node000005" class="edge">
<title>Node2&#45;&gt;Node5</title>
<g id="a_edge4_Node000002_Node000005"><a xlink:title=" ">
<path fill="none" stroke="#63b8ff" d="M227.88,-126.02C223.41,-117.34 218.53,-107.88 214.59,-100.22"/>
<polygon fill="#63b8ff" stroke="#63b8ff" points="225.17,-127.41 232.86,-134.69 231.4,-124.2 225.17,-127.41"/>
</a>
</g>
</g>
<!-- Node2&#45;&gt;Node6 -->
<g id="edge5_Node000002_Node000006" class="edge">
<title>Node2&#45;&gt;Node6</title>
<g id="a_edge5_Node000002_Node000006"><a xlink:title=" ">
<path fill="none" stroke="#63b8ff" d="M275.64,-130.07C291.69,-120.44 310.39,-109.21 325.12,-100.38"/>
<polygon fill="#63b8ff" stroke="#63b8ff" points="274.31,-127.38 267.54,-135.53 277.92,-133.38 274.31,-127.38"/>
</a>
</g>
</g>
<!-- Node2&#45;&gt;Node7 -->
<g id="edge6_Node000002_Node000007" class="edge">
<title>Node2&#45;&gt;Node7</title>
<g id="a_edge6_Node000002_Node000007"><a xlink:title=" ">
<path fill="none" stroke="#63b8ff" d="M310.54,-132.86C349.62,-122.71 397.83,-110.18 435.13,-100.49"/>
<polygon fill="#63b8ff" stroke="#63b8ff" points="310.1,-129.62 301.3,-135.53 311.86,-136.4 310.1,-129.62"/>
</a>
</g>
</g>
<!-- Node4 -->
<g id="Node000004" class="node">
<title>Node4</title>
<g id="a_Node000004"><a xlink:href="PYexportHeuristics_8hpp.html" target="_top" xlink:title=" ">
<polygon fill="white" stroke="#666666" points="125.5,-32 0,-32 0,0 125.5,0 125.5,-32"/>
<text text-anchor="start" x="8" y="-18.5" font-family="Helvetica,sans-Serif" font-size="10.00">C:/Temp/out/FMT/Include</text>
<text text-anchor="middle" x="62.75" y="-6.5" font-family="Helvetica,sans-Serif" font-size="10.00">/PYexportHeuristics.hpp</text>
</a>
</g>
</g>
<!-- Node3&#45;&gt;Node4 -->
<g id="edge3_Node000003_Node000004" class="edge">
<title>Node3&#45;&gt;Node4</title>
<g id="a_edge3_Node000003_Node000004"><a xlink:title=" ">
<path fill="none" stroke="#63b8ff" d="M62.75,-56.89C62.75,-48.52 62.75,-39.54 62.75,-32.22"/>
<polygon fill="#63b8ff" stroke="#63b8ff" points="59.25,-56.69 62.75,-66.69 66.25,-56.69 59.25,-56.69"/>
</a>
</g>
</g>
<!-- Node8&#45;&gt;Node5 -->
<g id="edge8_Node000008_Node000005" class="edge">
<title>Node8&#45;&gt;Node5</title>
<g id="a_edge8_Node000008_Node000005"><a xlink:title=" ">
<path fill="none" stroke="#63b8ff" d="M361.69,-132.34C328.77,-122.28 288.63,-110.02 257.45,-100.49"/>
<polygon fill="#63b8ff" stroke="#63b8ff" points="360.52,-135.95 371.11,-135.53 362.57,-129.26 360.52,-135.95"/>
</a>
</g>
</g>
<!-- Node8&#45;&gt;Node6 -->
<g id="edge9_Node000008_Node000006" class="edge">
<title>Node8&#45;&gt;Node6</title>
<g id="a_edge9_Node000008_Node000006"><a xlink:title=" ">
<path fill="none" stroke="#63b8ff" d="M397.95,-128.27C387.84,-119 376.43,-108.54 367.36,-100.22"/>
<polygon fill="#63b8ff" stroke="#63b8ff" points="395.31,-130.52 405.05,-134.69 400.04,-125.36 395.31,-130.52"/>
</a>
</g>
</g>
<!-- Node8&#45;&gt;Node7 -->
<g id="edge10_Node000008_Node000007" class="edge">
<title>Node8&#45;&gt;Node7</title>
<g id="a_edge10_Node000008_Node000007"><a xlink:title=" ">
<path fill="none" stroke="#63b8ff" d="M447.55,-128.27C457.66,-119 469.07,-108.54 478.14,-100.22"/>
<polygon fill="#63b8ff" stroke="#63b8ff" points="445.46,-125.36 440.45,-134.69 450.19,-130.52 445.46,-125.36"/>
</a>
</g>
</g>
</g>
</svg>
