<?xml version="1.0" encoding="UTF-8" standalone="no"?>
<!DOCTYPE svg PUBLIC "-//W3C//DTD SVG 1.1//EN"
 "http://www.w3.org/Graphics/SVG/1.1/DTD/svg11.dtd">
<!-- Generated by graphviz version 10.0.1 (20240210.2158)
 -->
<!-- Title: D:/FMT/Include/FMTtask.hpp Pages: 1 -->
<svg width="687pt" height="140pt"
 viewBox="0.00 0.00 687.17 140.00" xmlns="http://www.w3.org/2000/svg" xmlns:xlink="http://www.w3.org/1999/xlink">
<g id="graph0" class="graph" transform="scale(1 1) rotate(0) translate(4 136)">
<title>D:/FMT/Include/FMTtask.hpp</title>
<!-- Node1 -->
<g id="node1" class="node">
<title>Node1</title>
<g id="a_node1"><a xlink:title=" ">
<polygon fill="#999999" stroke="#666666" points="508.25,-132 366.25,-132 366.25,-112 508.25,-112 508.25,-132"/>
<text text-anchor="middle" x="437.25" y="-118.5" font-family="Helvetica,sans-Serif" font-size="10.00">D:/FMT/Include/FMTtask.hpp</text>
</a>
</g>
</g>
<!-- Node2 -->
<g id="node2" class="node">
<title>Node2</title>
<g id="a_node2"><a xlink:href="FMTopareaschedulertask_8hpp.html" target="_top" xlink:title=" ">
<polygon fill="white" stroke="#666666" points="229.88,-76 16.63,-76 16.63,-56 229.88,-56 229.88,-76"/>
<text text-anchor="middle" x="123.25" y="-62.5" font-family="Helvetica,sans-Serif" font-size="10.00">D:/FMT/Include/FMTopareaschedulertask.hpp</text>
</a>
</g>
</g>
<!-- Node1&#45;&gt;Node2 -->
<g id="edge1" class="edge">
<title>Node1&#45;&gt;Node2</title>
<path fill="none" stroke="#63b8ff" d="M371.09,-109.62C313.82,-99.77 231.98,-85.7 178.24,-76.46"/>
<polygon fill="#63b8ff" stroke="#63b8ff" points="370.26,-113.03 380.71,-111.28 371.44,-106.13 370.26,-113.03"/>
</g>
<!-- Node3 -->
<g id="node3" class="node">
<title>Node3</title>
<g id="a_node3"><a xlink:href="PYexportParallel_8hpp.html" target="_top" xlink:title=" ">
<polygon fill="white" stroke="#666666" points="227.5,-20 51,-20 51,0 227.5,0 227.5,-20"/>
<text text-anchor="middle" x="139.25" y="-6.5" font-family="Helvetica,sans-Serif" font-size="10.00">D:/FMT/Include/PYexportParallel.hpp</text>
</a>
</g>
</g>
<!-- Node1&#45;&gt;Node3 -->
<g id="edge13" class="edge">
<title>Node1&#45;&gt;Node3</title>
<path fill="none" stroke="#63b8ff" d="M354.79,-118.21C236.43,-113.33 30.03,-101.29 7.25,-76 -18.48,-47.44 31.66,-29.99 77.36,-20.47"/>
<polygon fill="#63b8ff" stroke="#63b8ff" points="354.31,-121.69 364.45,-118.59 354.6,-114.7 354.31,-121.69"/>
</g>
<!-- Node4 -->
<g id="node4" class="node">
<title>Node4</title>
<g id="a_node4"><a xlink:href="Rdeclarations_8hpp.html" target="_top" xlink:title=" ">
<polygon fill="white" stroke="#666666" points="614.75,-20 451.75,-20 451.75,0 614.75,0 614.75,-20"/>
<text text-anchor="middle" x="533.25" y="-6.5" font-family="Helvetica,sans-Serif" font-size="10.00">D:/FMT/Include/Rdeclarations.hpp</text>
</a>
</g>
</g>
<!-- Node1&#45;&gt;Node4 -->
<g id="edge14" class="edge">
<title>Node1&#45;&gt;Node4</title>
<path fill="none" stroke="#63b8ff" d="M519.9,-116.12C579.6,-110.66 652.98,-99.31 672.25,-76 696.69,-46.43 649.66,-29.56 603.82,-20.46"/>
<polygon fill="#63b8ff" stroke="#63b8ff" points="519.72,-112.62 510.05,-116.97 520.32,-119.59 519.72,-112.62"/>
</g>
<!-- Node5 -->
<g id="node5" class="node">
<title>Node5</title>
<g id="a_node5"><a xlink:href="RexportParallel_8hpp.html" target="_top" xlink:title=" ">
<polygon fill="white" stroke="#666666" points="426.13,-20 256.38,-20 256.38,0 426.13,0 426.13,-20"/>
<text text-anchor="middle" x="341.25" y="-6.5" font-family="Helvetica,sans-Serif" font-size="10.00">D:/FMT/Include/RexportParallel.hpp</text>
</a>
</g>
</g>
<!-- Node1&#45;&gt;Node5 -->
<g id="edge15" class="edge">
<title>Node1&#45;&gt;Node5</title>
<path fill="none" stroke="#63b8ff" d="M520.02,-119.12C591.32,-114.55 677.22,-100.14 639.25,-56 632.12,-47.71 507.11,-31.04 421.29,-20.49"/>
<polygon fill="#63b8ff" stroke="#63b8ff" points="520.02,-115.61 510.24,-119.68 520.42,-122.6 520.02,-115.61"/>
</g>
<!-- Node6 -->
<g id="node6" class="node">
<title>Node6</title>
<g id="a_node6"><a xlink:href="FMTplanningtask_8hpp.html" target="_top" xlink:title=" ">
<polygon fill="white" stroke="#666666" points="426.25,-76 248.25,-76 248.25,-56 426.25,-56 426.25,-76"/>
<text text-anchor="middle" x="337.25" y="-62.5" font-family="Helvetica,sans-Serif" font-size="10.00">D:/FMT/Include/FMTplanningtask.hpp</text>
</a>
</g>
</g>
<!-- Node1&#45;&gt;Node6 -->
<g id="edge5" class="edge">
<title>Node1&#45;&gt;Node6</title>
<path fill="none" stroke="#63b8ff" d="M410.12,-106.35C392.52,-96.84 370.1,-84.74 354.81,-76.48"/>
<polygon fill="#63b8ff" stroke="#63b8ff" points="408.04,-109.2 418.5,-110.87 411.36,-103.04 408.04,-109.2"/>
</g>
<!-- Node7 -->
<g id="node7" class="node">
<title>Node7</title>
<g id="a_node7"><a xlink:href="FMTreplanningtask_8hpp.html" target="_top" xlink:title=" ">
<polygon fill="white" stroke="#666666" points="630.38,-76 444.13,-76 444.13,-56 630.38,-56 630.38,-76"/>
<text text-anchor="middle" x="537.25" y="-62.5" font-family="Helvetica,sans-Serif" font-size="10.00">D:/FMT/Include/FMTreplanningtask.hpp</text>
</a>
</g>
</g>
<!-- Node1&#45;&gt;Node7 -->
<g id="edge9" class="edge">
<title>Node1&#45;&gt;Node7</title>
<path fill="none" stroke="#63b8ff" d="M464.39,-106.35C481.99,-96.84 504.4,-84.74 519.7,-76.48"/>
<polygon fill="#63b8ff" stroke="#63b8ff" points="463.14,-103.04 456,-110.87 466.46,-109.2 463.14,-103.04"/>
</g>
<!-- Node2&#45;&gt;Node3 -->
<g id="edge2" class="edge">
<title>Node2&#45;&gt;Node3</title>
<path fill="none" stroke="#63b8ff" d="M129.26,-44.71C131.75,-36.32 134.51,-27.01 136.5,-20.3"/>
<polygon fill="#63b8ff" stroke="#63b8ff" points="125.95,-43.56 126.47,-54.14 132.67,-45.55 125.95,-43.56"/>
</g>
<!-- Node2&#45;&gt;Node4 -->
<g id="edge3" class="edge">
<title>Node2&#45;&gt;Node4</title>
<path fill="none" stroke="#63b8ff" d="M206.39,-54.05C281.29,-44.18 390.26,-29.83 461.45,-20.46"/>
<polygon fill="#63b8ff" stroke="#63b8ff" points="206.1,-50.56 196.64,-55.33 207.01,-57.5 206.1,-50.56"/>
</g>
<!-- Node2&#45;&gt;Node5 -->
<g id="edge4" class="edge">
<title>Node2&#45;&gt;Node5</title>
<path fill="none" stroke="#63b8ff" d="M172.45,-52.81C212.01,-43.01 266.78,-29.45 303.07,-20.46"/>
<polygon fill="#63b8ff" stroke="#63b8ff" points="171.81,-49.37 162.94,-55.17 173.49,-56.16 171.81,-49.37"/>
</g>
<!-- Node6&#45;&gt;Node3 -->
<g id="edge6" class="edge">
<title>Node6&#45;&gt;Node3</title>
<path fill="none" stroke="#63b8ff" d="M292.1,-52.69C256.24,-42.91 206.83,-29.43 174.01,-20.48"/>
<polygon fill="#63b8ff" stroke="#63b8ff" points="290.73,-55.94 301.3,-55.2 292.58,-49.19 290.73,-55.94"/>
</g>
<!-- Node6&#45;&gt;Node4 -->
<g id="edge7" class="edge">
<title>Node6&#45;&gt;Node4</title>
<path fill="none" stroke="#63b8ff" d="M382.4,-52.56C417.86,-42.79 466.49,-29.39 498.84,-20.48"/>
<polygon fill="#63b8ff" stroke="#63b8ff" points="381.56,-49.16 372.85,-55.19 383.42,-55.91 381.56,-49.16"/>
</g>
<!-- Node6&#45;&gt;Node5 -->
<g id="edge8" class="edge">
<title>Node6&#45;&gt;Node5</title>
<path fill="none" stroke="#63b8ff" d="M338.8,-44.13C339.41,-35.9 340.08,-26.85 340.56,-20.3"/>
<polygon fill="#63b8ff" stroke="#63b8ff" points="335.31,-43.85 338.06,-54.08 342.29,-44.37 335.31,-43.85"/>
</g>
<!-- Node7&#45;&gt;Node3 -->
<g id="edge10" class="edge">
<title>Node7&#45;&gt;Node3</title>
<path fill="none" stroke="#63b8ff" d="M456.09,-53.99C383.4,-44.13 277.91,-29.81 208.95,-20.46"/>
<polygon fill="#63b8ff" stroke="#63b8ff" points="455.59,-57.45 465.97,-55.33 456.53,-50.52 455.59,-57.45"/>
</g>
<!-- Node7&#45;&gt;Node4 -->
<g id="edge11" class="edge">
<title>Node7&#45;&gt;Node4</title>
<path fill="none" stroke="#63b8ff" d="M535.71,-44.13C535.1,-35.9 534.43,-26.85 533.94,-20.3"/>
<polygon fill="#63b8ff" stroke="#63b8ff" points="532.21,-44.37 536.44,-54.08 539.19,-43.85 532.21,-44.37"/>
</g>
<!-- Node7&#45;&gt;Node5 -->
<g id="edge12" class="edge">
<title>Node7&#45;&gt;Node5</title>
<path fill="none" stroke="#63b8ff" d="M492.1,-52.56C456.64,-42.79 408.01,-29.39 375.66,-20.48"/>
<polygon fill="#63b8ff" stroke="#63b8ff" points="491.08,-55.91 501.65,-55.19 492.94,-49.16 491.08,-55.91"/>
</g>
</g>
</svg>
