<?xml version="1.0" encoding="UTF-8" standalone="no"?>
<!DOCTYPE svg PUBLIC "-//W3C//DTD SVG 1.1//EN"
 "http://www.w3.org/Graphics/SVG/1.1/DTD/svg11.dtd">
<!-- Generated by graphviz version 8.1.0 (20230707.0739)
 -->
<!-- Title: C:/Users/CYRGU3/OneDrive &#45; BuroVirtuel/Bureau/FMT/FMT/Include/FMTtask.hpp Pages: 1 -->
<svg width="762pt" height="244pt"
 viewBox="0.00 0.00 762.00 244.00" xmlns="http://www.w3.org/2000/svg" xmlns:xlink="http://www.w3.org/1999/xlink">
<g id="graph0" class="graph" transform="scale(1 1) rotate(0) translate(4 240)">
<title>C:/Users/CYRGU3/OneDrive &#45; BuroVirtuel/Bureau/FMT/FMT/Include/FMTtask.hpp</title>
<!-- Node1 -->
<g id="Node000001" class="node">
<title>Node1</title>
<g id="a_Node000001"><a xlink:title=" ">
<polygon fill="#999999" stroke="#666666" points="396.12,-236 257.12,-236 257.12,-192 396.12,-192 396.12,-236"/>
<text text-anchor="start" x="265.12" y="-222.5" font-family="Helvetica,sans-Serif" font-size="10.00">C:/Users/CYRGU3/OneDrive</text>
<text text-anchor="start" x="265.12" y="-210.5" font-family="Helvetica,sans-Serif" font-size="10.00"> &#45; BuroVirtuel/Bureau/FMT</text>
<text text-anchor="middle" x="326.62" y="-198.5" font-family="Helvetica,sans-Serif" font-size="10.00">/FMT/Include/FMTtask.hpp</text>
</a>
</g>
</g>
<!-- Node2 -->
<g id="Node000002" class="node">
<title>Node2</title>
<g id="a_Node000002"><a xlink:title=" ">
<polygon fill="#e0e0e0" stroke="#999999" points="51.25,-20 0,-20 0,0 51.25,0 51.25,-20"/>
<text text-anchor="middle" x="25.62" y="-6.5" font-family="Helvetica,sans-Serif" font-size="10.00">memory</text>
</a>
</g>
</g>
<!-- Node1&#45;&gt;Node2 -->
<g id="edge1_Node000001_Node000002" class="edge">
<title>Node1&#45;&gt;Node2</title>
<g id="a_edge1_Node000001_Node000002"><a xlink:title=" ">
<path fill="none" stroke="#63b8ff" d="M256.69,-205.99C184.73,-194.64 76.1,-165.02 24.62,-88 13.4,-71.2 15.77,-47.4 19.61,-30.72"/>
<polygon fill="#63b8ff" stroke="#63b8ff" points="23.14,-32.05 22.34,-21.49 16.38,-30.24 23.14,-32.05"/>
</a>
</g>
</g>
<!-- Node3 -->
<g id="Node000003" class="node">
<title>Node3</title>
<g id="a_Node000003"><a xlink:href="FMTobject_8hpp.html" target="_top" xlink:title=" ">
<polygon fill="white" stroke="#666666" points="366.88,-150 286.38,-150 286.38,-130 366.88,-130 366.88,-150"/>
<text text-anchor="middle" x="326.62" y="-136.5" font-family="Helvetica,sans-Serif" font-size="10.00">FMTobject.hpp</text>
</a>
</g>
</g>
<!-- Node1&#45;&gt;Node3 -->
<g id="edge2_Node000001_Node000003" class="edge">
<title>Node1&#45;&gt;Node3</title>
<g id="a_edge2_Node000001_Node000003"><a xlink:title=" ">
<path fill="none" stroke="#63b8ff" d="M326.62,-191.79C326.62,-182.1 326.62,-170.69 326.62,-161.14"/>
<polygon fill="#63b8ff" stroke="#63b8ff" points="330.13,-161.31 326.62,-151.31 323.13,-161.31 330.13,-161.31"/>
</a>
</g>
</g>
<!-- Node15 -->
<g id="Node000015" class="node">
<title>Node15</title>
<g id="a_Node000015"><a xlink:title=" ">
<polygon fill="#e0e0e0" stroke="#999999" points="496.25,-156 385,-156 385,-124 496.25,-124 496.25,-156"/>
<text text-anchor="start" x="393" y="-142.5" font-family="Helvetica,sans-Serif" font-size="10.00">boost/thread/recursive</text>
<text text-anchor="middle" x="440.62" y="-130.5" font-family="Helvetica,sans-Serif" font-size="10.00">_mutex.hpp</text>
</a>
</g>
</g>
<!-- Node1&#45;&gt;Node15 -->
<g id="edge16_Node000001_Node000015" class="edge">
<title>Node1&#45;&gt;Node15</title>
<g id="a_edge16_Node000001_Node000015"><a xlink:title=" ">
<path fill="none" stroke="#63b8ff" d="M360.52,-191.59C375.16,-182.34 392.26,-171.55 406.89,-162.31"/>
<polygon fill="#63b8ff" stroke="#63b8ff" points="408.5,-164.79 415.09,-156.5 404.77,-158.88 408.5,-164.79"/>
</a>
</g>
</g>
<!-- Node3&#45;&gt;Node2 -->
<g id="edge12_Node000003_Node000002" class="edge">
<title>Node3&#45;&gt;Node2</title>
<g id="a_edge12_Node000003_Node000002"><a xlink:title=" ">
<path fill="none" stroke="#63b8ff" d="M286.11,-136.98C216.64,-132.68 78.95,-120.22 44.62,-88 29.21,-73.53 25.45,-48.71 24.91,-31.17"/>
<polygon fill="#63b8ff" stroke="#63b8ff" points="28.42,-31.41 24.95,-21.4 21.42,-31.39 28.42,-31.41"/>
</a>
</g>
</g>
<!-- Node4 -->
<g id="Node000004" class="node">
<title>Node4</title>
<g id="a_Node000004"><a xlink:title=" ">
<polygon fill="#e0e0e0" stroke="#999999" points="148,-88 53.25,-88 53.25,-56 148,-56 148,-88"/>
<text text-anchor="start" x="61.25" y="-74.5" font-family="Helvetica,sans-Serif" font-size="10.00">boost/serialization</text>
<text text-anchor="middle" x="100.62" y="-62.5" font-family="Helvetica,sans-Serif" font-size="10.00">/shared_ptr.hpp</text>
</a>
</g>
</g>
<!-- Node3&#45;&gt;Node4 -->
<g id="edge3_Node000003_Node000004" class="edge">
<title>Node3&#45;&gt;Node4</title>
<g id="a_edge3_Node000003_Node000004"><a xlink:title=" ">
<path fill="none" stroke="#63b8ff" d="M294.24,-129.54C258.95,-119.24 201.77,-102.54 158.67,-89.95"/>
<polygon fill="#63b8ff" stroke="#63b8ff" points="159.9,-86.37 149.32,-86.93 157.94,-93.09 159.9,-86.37"/>
</a>
</g>
</g>
<!-- Node5 -->
<g id="Node000005" class="node">
<title>Node5</title>
<g id="a_Node000005"><a xlink:title=" ">
<polygon fill="#e0e0e0" stroke="#999999" points="261,-88 166.25,-88 166.25,-56 261,-56 261,-88"/>
<text text-anchor="start" x="174.25" y="-74.5" font-family="Helvetica,sans-Serif" font-size="10.00">boost/serialization</text>
<text text-anchor="middle" x="213.62" y="-62.5" font-family="Helvetica,sans-Serif" font-size="10.00">/nvp.hpp</text>
</a>
</g>
</g>
<!-- Node3&#45;&gt;Node5 -->
<g id="edge4_Node000003_Node000005" class="edge">
<title>Node3&#45;&gt;Node5</title>
<g id="a_edge4_Node000003_Node000005"><a xlink:title=" ">
<path fill="none" stroke="#63b8ff" d="M310.43,-129.54C294.52,-120.25 269.72,-105.76 249.2,-93.78"/>
<polygon fill="#63b8ff" stroke="#63b8ff" points="251.22,-90.32 240.82,-88.3 247.69,-96.37 251.22,-90.32"/>
</a>
</g>
</g>
<!-- Node6 -->
<g id="Node000006" class="node">
<title>Node6</title>
<g id="a_Node000006"><a xlink:title=" ">
<polygon fill="#e0e0e0" stroke="#999999" points="374,-88 279.25,-88 279.25,-56 374,-56 374,-88"/>
<text text-anchor="start" x="287.25" y="-74.5" font-family="Helvetica,sans-Serif" font-size="10.00">boost/serialization</text>
<text text-anchor="middle" x="326.62" y="-62.5" font-family="Helvetica,sans-Serif" font-size="10.00">/export.hpp</text>
</a>
</g>
</g>
<!-- Node3&#45;&gt;Node6 -->
<g id="edge5_Node000003_Node000006" class="edge">
<title>Node3&#45;&gt;Node6</title>
<g id="a_edge5_Node000003_Node000006"><a xlink:title=" ">
<path fill="none" stroke="#63b8ff" d="M326.62,-129.54C326.62,-121.64 326.62,-109.97 326.62,-99.29"/>
<polygon fill="#63b8ff" stroke="#63b8ff" points="330.13,-99.3 326.62,-89.3 323.13,-99.3 330.13,-99.3"/>
</a>
</g>
</g>
<!-- Node7 -->
<g id="Node000007" class="node">
<title>Node7</title>
<g id="a_Node000007"><a xlink:href="FMTexception_8hpp.html" target="_top" xlink:title=" ">
<polygon fill="white" stroke="#666666" points="488.75,-82 392.5,-82 392.5,-62 488.75,-62 488.75,-82"/>
<text text-anchor="middle" x="440.62" y="-68.5" font-family="Helvetica,sans-Serif" font-size="10.00">FMTexception.hpp</text>
</a>
</g>
</g>
<!-- Node3&#45;&gt;Node7 -->
<g id="edge6_Node000003_Node000007" class="edge">
<title>Node3&#45;&gt;Node7</title>
<g id="a_edge6_Node000003_Node000007"><a xlink:title=" ">
<path fill="none" stroke="#63b8ff" d="M342.96,-129.54C361.75,-118.66 392.85,-100.66 414.9,-87.89"/>
<polygon fill="#63b8ff" stroke="#63b8ff" points="416.42,-90.48 423.32,-82.44 412.91,-84.42 416.42,-90.48"/>
</a>
</g>
</g>
<!-- Node12 -->
<g id="Node000012" class="node">
<title>Node12</title>
<g id="a_Node000012"><a xlink:title=" ">
<polygon fill="#e0e0e0" stroke="#999999" points="552.25,-82 507,-82 507,-62 552.25,-62 552.25,-82"/>
<text text-anchor="middle" x="529.62" y="-68.5" font-family="Helvetica,sans-Serif" font-size="10.00">chrono</text>
</a>
</g>
</g>
<!-- Node3&#45;&gt;Node12 -->
<g id="edge13_Node000003_Node000012" class="edge">
<title>Node3&#45;&gt;Node12</title>
<g id="a_edge13_Node000003_Node000012"><a xlink:title=" ">
<path fill="none" stroke="#63b8ff" d="M357.45,-129.51C363.48,-127.67 369.75,-125.77 375.62,-124 429.77,-107.73 444.77,-108.05 497.62,-88 498.71,-87.59 499.82,-87.15 500.93,-86.7"/>
<polygon fill="#63b8ff" stroke="#63b8ff" points="502.11,-89.57 509.88,-82.37 499.31,-83.15 502.11,-89.57"/>
</a>
</g>
</g>
<!-- Node13 -->
<g id="Node000013" class="node">
<title>Node13</title>
<g id="a_Node000013"><a xlink:title=" ">
<polygon fill="#e0e0e0" stroke="#999999" points="611.38,-82 569.88,-82 569.88,-62 611.38,-62 611.38,-82"/>
<text text-anchor="middle" x="590.62" y="-68.5" font-family="Helvetica,sans-Serif" font-size="10.00">vector</text>
</a>
</g>
</g>
<!-- Node3&#45;&gt;Node13 -->
<g id="edge14_Node000003_Node000013" class="edge">
<title>Node3&#45;&gt;Node13</title>
<g id="a_edge14_Node000003_Node000013"><a xlink:title=" ">
<path fill="none" stroke="#63b8ff" d="M355.76,-129.53C362.26,-127.57 369.15,-125.61 375.62,-124 457.33,-103.65 482.08,-115.62 561.62,-88 562.56,-87.67 563.51,-87.32 564.45,-86.95"/>
<polygon fill="#63b8ff" stroke="#63b8ff" points="565.77,-89.74 573.43,-82.41 562.87,-83.37 565.77,-89.74"/>
</a>
</g>
</g>
<!-- Node14 -->
<g id="Node000014" class="node">
<title>Node14</title>
<g id="a_Node000014"><a xlink:title=" ">
<polygon fill="#e0e0e0" stroke="#999999" points="754,-88 629.25,-88 629.25,-56 754,-56 754,-88"/>
<text text-anchor="start" x="637.25" y="-74.5" font-family="Helvetica,sans-Serif" font-size="10.00">boost/dll/runtime_symbol</text>
<text text-anchor="middle" x="691.62" y="-62.5" font-family="Helvetica,sans-Serif" font-size="10.00">_info.hpp</text>
</a>
</g>
</g>
<!-- Node3&#45;&gt;Node14 -->
<g id="edge15_Node000003_Node000014" class="edge">
<title>Node3&#45;&gt;Node14</title>
<g id="a_edge15_Node000003_Node000014"><a xlink:title=" ">
<path fill="none" stroke="#63b8ff" d="M354.93,-129.54C361.66,-127.51 368.86,-125.52 375.62,-124 479.64,-100.58 510.38,-106.94 618.26,-88.34"/>
<polygon fill="#63b8ff" stroke="#63b8ff" points="618.7,-91.64 627.95,-86.46 617.49,-84.75 618.7,-91.64"/>
</a>
</g>
</g>
<!-- Node7&#45;&gt;Node2 -->
<g id="edge10_Node000007_Node000002" class="edge">
<title>Node7&#45;&gt;Node2</title>
<g id="a_edge10_Node000007_Node000002"><a xlink:title=" ">
<path fill="none" stroke="#63b8ff" d="M407.05,-61.54C399.09,-59.51 390.59,-57.53 382.62,-56 266.58,-33.77 127.13,-19.83 62.21,-14.06"/>
<polygon fill="#63b8ff" stroke="#63b8ff" points="62.61,-10.49 52.34,-13.11 62,-17.46 62.61,-10.49"/>
</a>
</g>
</g>
<!-- Node8 -->
<g id="Node000008" class="node">
<title>Node8</title>
<g id="a_Node000008"><a xlink:title=" ">
<polygon fill="#e0e0e0" stroke="#999999" points="369.62,-20 311.62,-20 311.62,0 369.62,0 369.62,-20"/>
<text text-anchor="middle" x="340.62" y="-6.5" font-family="Helvetica,sans-Serif" font-size="10.00">exception</text>
</a>
</g>
</g>
<!-- Node7&#45;&gt;Node8 -->
<g id="edge7_Node000007_Node000008" class="edge">
<title>Node7&#45;&gt;Node8</title>
<g id="a_edge7_Node000007_Node000008"><a xlink:title=" ">
<path fill="none" stroke="#63b8ff" d="M425,-61.62C409.08,-52.07 384.13,-37.11 365.49,-25.92"/>
<polygon fill="#63b8ff" stroke="#63b8ff" points="367.52,-22.45 357.14,-20.31 363.91,-28.46 367.52,-22.45"/>
</a>
</g>
</g>
<!-- Node9 -->
<g id="Node000009" class="node">
<title>Node9</title>
<g id="a_Node000009"><a xlink:title=" ">
<polygon fill="#e0e0e0" stroke="#999999" points="427.62,-20 387.62,-20 387.62,0 427.62,0 427.62,-20"/>
<text text-anchor="middle" x="407.62" y="-6.5" font-family="Helvetica,sans-Serif" font-size="10.00">string</text>
</a>
</g>
</g>
<!-- Node7&#45;&gt;Node9 -->
<g id="edge8_Node000007_Node000009" class="edge">
<title>Node7&#45;&gt;Node9</title>
<g id="a_edge8_Node000007_Node000009"><a xlink:title=" ">
<path fill="none" stroke="#63b8ff" d="M435.47,-61.62C430.79,-53.12 423.76,-40.33 417.93,-29.74"/>
<polygon fill="#63b8ff" stroke="#63b8ff" points="420.52,-28.19 412.64,-21.11 414.39,-31.56 420.52,-28.19"/>
</a>
</g>
</g>
<!-- Node10 -->
<g id="Node000010" class="node">
<title>Node10</title>
<g id="a_Node000010"><a xlink:title=" ">
<polygon fill="#e0e0e0" stroke="#999999" points="499.38,-20 445.88,-20 445.88,0 499.38,0 499.38,-20"/>
<text text-anchor="middle" x="472.62" y="-6.5" font-family="Helvetica,sans-Serif" font-size="10.00">iostream</text>
</a>
</g>
</g>
<!-- Node7&#45;&gt;Node10 -->
<g id="edge9_Node000007_Node000010" class="edge">
<title>Node7&#45;&gt;Node10</title>
<g id="a_edge9_Node000007_Node000010"><a xlink:title=" ">
<path fill="none" stroke="#63b8ff" d="M445.62,-61.62C450.16,-53.12 456.98,-40.33 462.63,-29.74"/>
<polygon fill="#63b8ff" stroke="#63b8ff" points="466.15,-31.58 467.76,-21.11 459.97,-28.29 466.15,-31.58"/>
</a>
</g>
</g>
<!-- Node11 -->
<g id="Node000011" class="node">
<title>Node11</title>
<g id="a_Node000011"><a xlink:href="FMTutility_8hpp.html" target="_top" xlink:title=" ">
<polygon fill="white" stroke="#666666" points="595.38,-20 517.88,-20 517.88,0 595.38,0 595.38,-20"/>
<text text-anchor="middle" x="556.62" y="-6.5" font-family="Helvetica,sans-Serif" font-size="10.00">FMTutility.hpp</text>
</a>
</g>
</g>
<!-- Node7&#45;&gt;Node11 -->
<g id="edge11_Node000007_Node000011" class="edge">
<title>Node7&#45;&gt;Node11</title>
<g id="a_edge11_Node000007_Node000011"><a xlink:title=" ">
<path fill="none" stroke="#63b8ff" d="M458.75,-61.62C477.56,-51.89 507.22,-36.55 528.97,-25.31"/>
<polygon fill="#63b8ff" stroke="#63b8ff" points="530.35,-28.01 537.63,-20.31 527.14,-21.79 530.35,-28.01"/>
</a>
</g>
</g>
</g>
</svg>
