<?xml version="1.0" encoding="UTF-8" standalone="no"?>
<!DOCTYPE svg PUBLIC "-//W3C//DTD SVG 1.1//EN"
 "http://www.w3.org/Graphics/SVG/1.1/DTD/svg11.dtd">
<!-- Generated by graphviz version 8.1.0 (20230707.0739)
 -->
<!-- Title: C:/Users/CYRGU3/OneDrive &#45; BuroVirtuel/Bureau/FMT/FMT/Include/FMTtransitionparser.hpp Pages: 1 -->
<!--zoomable 300 -->

<svg id="main" version="1.1" xmlns="http://www.w3.org/2000/svg" xmlns:xlink="http://www.w3.org/1999/xlink" xml:space="preserve" onload="init(evt)">
<style type="text/css"><![CDATA[
.node, .edge {opacity: 0.7;}
.node.selected, .edge.selected {opacity: 1;}
.edge:hover path { stroke: red; }
.edge:hover polygon { stroke: red; fill: red; }
]]></style>

<defs>
  <circle id="rim" cx="0" cy="0" r="7"/>
  <circle id="rim2" cx="0" cy="0" r="3.5"/>
  <g id="zoomPlus">
    <use xlink:href="#rim" fill="#404040"><set attributeName="fill" to="#808080" begin="zoomplus.mouseover" end="zoomplus.mouseout"/></use>
    <path d="M-4,0h8M0,-4v8" fill="none" stroke="white" stroke-width="1.5" pointer-events="none"/>
  </g>
  <g id="zoomMin">
    <use xlink:href="#rim" fill="#404040"><set attributeName="fill" to="#808080" begin="zoomminus.mouseover" end="zoomminus.mouseout"/></use>
    <path d="M-4,0h8" fill="none" stroke="white" stroke-width="1.5" pointer-events="none"/>
  </g>
  <g id="arrowUp" transform="translate(30 24)">
    <use xlink:href="#rim"/>
    <path pointer-events="none" fill="none" stroke="white" stroke-width="1.5" d="M0,-3.0v7 M-2.5,-0.5L0,-3.0L2.5,-0.5"/>
  </g>
  <g id="arrowRight" transform="rotate(90) translate(36 -43)">
    <use xlink:href="#rim"/>
    <path pointer-events="none" fill="none" stroke="white" stroke-width="1.5" d="M0,-3.0v7 M-2.5,-0.5L0,-3.0L2.5,-0.5"/>
  </g>
  <g id="arrowDown" transform="rotate(180) translate(-30 -48)">
    <use xlink:href="#rim"/>
    <path pointer-events="none" fill="none" stroke="white" stroke-width="1.5" d="M0,-3.0v7 M-2.5,-0.5L0,-3.0L2.5,-0.5"/>
  </g>
  <g id="arrowLeft" transform="rotate(270) translate(-36 17)">
    <use xlink:href="#rim"/>
    <path pointer-events="none" fill="none" stroke="white" stroke-width="1.5" d="M0,-3.0v7 M-2.5,-0.5L0,-3.0L2.5,-0.5"/>
  </g>
  <g id="resetDef">
    <use xlink:href="#rim2" fill="#404040"><set attributeName="fill" to="#808080" begin="reset.mouseover" end="reset.mouseout"/></use>
  </g>
</defs>
<script type="application/ecmascript">
var viewWidth = 959;
var viewHeight = 300;
var sectionId = 'dynsection-0';
</script>
<script type="application/ecmascript" xlink:href="svg.min.js"/>
<svg id="graph" class="graph">
<g id="viewport">
<title>C:/Users/CYRGU3/OneDrive &#45; BuroVirtuel/Bureau/FMT/FMT/Include/FMTtransitionparser.hpp</title>
<!-- Node1 -->
<g id="Node000001" class="node">
<title>Node1</title>
<g id="a_Node000001"><a xlink:title=" ">
<polygon fill="#999999" stroke="#666666" points="354.59,-292 174.34,-292 174.34,-248 354.59,-248 354.59,-292"/>
<text text-anchor="start" x="182.34" y="-278.5" font-family="Helvetica,sans-Serif" font-size="10.00">C:/Users/CYRGU3/OneDrive</text>
<text text-anchor="start" x="182.34" y="-266.5" font-family="Helvetica,sans-Serif" font-size="10.00"> &#45; BuroVirtuel/Bureau/FMT</text>
<text text-anchor="middle" x="264.47" y="-254.5" font-family="Helvetica,sans-Serif" font-size="10.00">/FMT/Include/FMTtransitionparser.hpp</text>
</a>
</g>
</g>
<!-- Node2 -->
<g id="Node000002" class="node">
<title>Node2</title>
<g id="a_Node000002"><a xlink:href="FMTparser_8hpp.html" target="_top" xlink:title=" ">
<polygon fill="white" stroke="#666666" points="374.09,-212 292.84,-212 292.84,-192 374.09,-192 374.09,-212"/>
<text text-anchor="middle" x="333.47" y="-198.5" font-family="Helvetica,sans-Serif" font-size="10.00">FMTparser.hpp</text>
</a>
</g>
</g>
<!-- Node1&#45;&gt;Node2 -->
<g id="edge1_Node000001_Node000002" class="edge">
<title>Node1&#45;&gt;Node2</title>
<g id="a_edge1_Node000001_Node000002"><a xlink:title=" ">
<path fill="none" stroke="#63b8ff" d="M286.68,-247.75C296.11,-238.73 306.96,-228.36 315.83,-219.87"/>
<polygon fill="#63b8ff" stroke="#63b8ff" points="317.81,-222.86 322.62,-213.42 312.97,-217.8 317.81,-222.86"/>
</a>
</g>
</g>
<!-- Node3 -->
<g id="Node000003" class="node">
<title>Node3</title>
<g id="a_Node000003"><a xlink:title=" ">
<polygon fill="#e0e0e0" stroke="#999999" points="103.34,-150 17.59,-150 17.59,-130 103.34,-130 103.34,-150"/>
<text text-anchor="middle" x="60.47" y="-136.5" font-family="Helvetica,sans-Serif" font-size="10.00">boost/regex.hpp</text>
</a>
</g>
</g>
<!-- Node1&#45;&gt;Node3 -->
<g id="edge27_Node000001_Node000003" class="edge">
<title>Node1&#45;&gt;Node3</title>
<g id="a_edge27_Node000001_Node000003"><a xlink:title=" ">
<path fill="none" stroke="#63b8ff" d="M230.32,-247.58C189.06,-221.68 120.68,-178.78 84.55,-156.11"/>
<polygon fill="#63b8ff" stroke="#63b8ff" points="86.59,-152.64 76.26,-150.29 82.87,-158.56 86.59,-152.64"/>
</a>
</g>
</g>
<!-- Node7 -->
<g id="Node000007" class="node">
<title>Node7</title>
<g id="a_Node000007"><a xlink:title=" ">
<polygon fill="#e0e0e0" stroke="#999999" points="151.47,-20 111.47,-20 111.47,0 151.47,0 151.47,-20"/>
<text text-anchor="middle" x="131.47" y="-6.5" font-family="Helvetica,sans-Serif" font-size="10.00">string</text>
</a>
</g>
</g>
<!-- Node1&#45;&gt;Node7 -->
<g id="edge28_Node000001_Node000007" class="edge">
<title>Node1&#45;&gt;Node7</title>
<g id="a_edge28_Node000001_Node000007"><a xlink:title=" ">
<path fill="none" stroke="#63b8ff" d="M174.13,-254.75C116.08,-240.41 44.94,-211.96 8.47,-156 -25.37,-104.08 56.56,-50.34 102.67,-25.36"/>
<polygon fill="#63b8ff" stroke="#63b8ff" points="103.97,-28.1 111.18,-20.34 100.7,-21.91 103.97,-28.1"/>
</a>
</g>
</g>
<!-- Node8 -->
<g id="Node000008" class="node">
<title>Node8</title>
<g id="a_Node000008"><a xlink:title=" ">
<polygon fill="#e0e0e0" stroke="#999999" points="936.22,-82 894.72,-82 894.72,-62 936.22,-62 936.22,-82"/>
<text text-anchor="middle" x="915.47" y="-68.5" font-family="Helvetica,sans-Serif" font-size="10.00">vector</text>
</a>
</g>
</g>
<!-- Node1&#45;&gt;Node8 -->
<g id="edge29_Node000001_Node000008" class="edge">
<title>Node1&#45;&gt;Node8</title>
<g id="a_edge29_Node000001_Node000008"><a xlink:title=" ">
<path fill="none" stroke="#63b8ff" d="M354.66,-258.16C459.21,-243.56 635.35,-212.62 777.47,-156 821.88,-138.3 868.53,-107.22 894.62,-88.52"/>
<polygon fill="#63b8ff" stroke="#63b8ff" points="896.22,-90.95 902.25,-82.24 892.11,-85.29 896.22,-90.95"/>
</a>
</g>
</g>
<!-- Node2&#45;&gt;Node3 -->
<g id="edge2_Node000002_Node000003" class="edge">
<title>Node2&#45;&gt;Node3</title>
<g id="a_edge2_Node000002_Node000003"><a xlink:title=" ">
<path fill="none" stroke="#63b8ff" d="M292.72,-193.17C249.19,-184.65 178.24,-170.32 117.47,-156 113.66,-155.1 109.71,-154.14 105.76,-153.15"/>
<polygon fill="#63b8ff" stroke="#63b8ff" points="106.92,-149.58 96.36,-150.49 105.18,-156.36 106.92,-149.58"/>
</a>
</g>
</g>
<!-- Node4 -->
<g id="Node000004" class="node">
<title>Node4</title>
<g id="a_Node000004"><a xlink:title=" ">
<polygon fill="#e0e0e0" stroke="#999999" points="645.47,-150 599.47,-150 599.47,-130 645.47,-130 645.47,-150"/>
<text text-anchor="middle" x="622.47" y="-136.5" font-family="Helvetica,sans-Serif" font-size="10.00">iterator</text>
</a>
</g>
</g>
<!-- Node2&#45;&gt;Node4 -->
<g id="edge3_Node000002_Node000004" class="edge">
<title>Node2&#45;&gt;Node4</title>
<g id="a_edge3_Node000002_Node000004"><a xlink:title=" ">
<path fill="none" stroke="#63b8ff" d="M374.32,-197.22C425.7,-191.71 516.17,-179.46 590.47,-156 591.78,-155.58 593.11,-155.13 594.45,-154.64"/>
<polygon fill="#63b8ff" stroke="#63b8ff" points="595.65,-157.51 603.52,-150.43 592.95,-151.05 595.65,-157.51"/>
</a>
</g>
</g>
<!-- Node5 -->
<g id="Node000005" class="node">
<title>Node5</title>
<g id="a_Node000005"><a xlink:title=" ">
<polygon fill="#e0e0e0" stroke="#999999" points="868.22,-20 814.72,-20 814.72,0 868.22,0 868.22,-20"/>
<text text-anchor="middle" x="841.47" y="-6.5" font-family="Helvetica,sans-Serif" font-size="10.00">iostream</text>
</a>
</g>
</g>
<!-- Node2&#45;&gt;Node5 -->
<g id="edge4_Node000002_Node000005" class="edge">
<title>Node2&#45;&gt;Node5</title>
<g id="a_edge4_Node000002_Node000005"><a xlink:title=" ">
<path fill="none" stroke="#63b8ff" d="M374.47,-200.57C501.08,-198.25 881.23,-183.3 945.47,-88 953.41,-76.21 953.27,-67.89 945.47,-56 930.83,-33.71 902.54,-22.41 879.15,-16.71"/>
<polygon fill="#63b8ff" stroke="#63b8ff" points="880,-13.1 869.49,-14.4 878.52,-19.94 880,-13.1"/>
</a>
</g>
</g>
<!-- Node6 -->
<g id="Node000006" class="node">
<title>Node6</title>
<g id="a_Node000006"><a xlink:title=" ">
<polygon fill="#e0e0e0" stroke="#999999" points="711.59,-150 663.34,-150 663.34,-130 711.59,-130 711.59,-150"/>
<text text-anchor="middle" x="687.47" y="-136.5" font-family="Helvetica,sans-Serif" font-size="10.00">fstream</text>
</a>
</g>
</g>
<!-- Node2&#45;&gt;Node6 -->
<g id="edge5_Node000002_Node000006" class="edge">
<title>Node2&#45;&gt;Node6</title>
<g id="a_edge5_Node000002_Node000006"><a xlink:title=" ">
<path fill="none" stroke="#63b8ff" d="M374.54,-199.01C436.36,-195.19 556.52,-184.48 654.47,-156 656.01,-155.55 657.58,-155.04 659.15,-154.49"/>
<polygon fill="#63b8ff" stroke="#63b8ff" points="660.36,-157.37 668.32,-150.37 657.74,-150.88 660.36,-157.37"/>
</a>
</g>
</g>
<!-- Node2&#45;&gt;Node7 -->
<g id="edge6_Node000002_Node000007" class="edge">
<title>Node2&#45;&gt;Node7</title>
<g id="a_edge6_Node000002_Node000007"><a xlink:title=" ">
<path fill="none" stroke="#63b8ff" d="M292.51,-196.31C244.5,-189.92 169.12,-176.85 150.47,-156 119.38,-121.26 123.11,-61.75 127.71,-30.89"/>
<polygon fill="#63b8ff" stroke="#63b8ff" points="131.29,-31.67 129.5,-21.23 124.39,-30.51 131.29,-31.67"/>
</a>
</g>
</g>
<!-- Node2&#45;&gt;Node8 -->
<g id="edge7_Node000002_Node000008" class="edge">
<title>Node2&#45;&gt;Node8</title>
<g id="a_edge7_Node000002_Node000008"><a xlink:title=" ">
<path fill="none" stroke="#63b8ff" d="M374.57,-200.07C446.05,-197.6 597.38,-188.62 720.47,-156 783.04,-139.41 851.72,-106.42 888.55,-87.4"/>
<polygon fill="#63b8ff" stroke="#63b8ff" points="889.82,-90.17 897.06,-82.44 886.58,-83.96 889.82,-90.17"/>
</a>
</g>
</g>
<!-- Node9 -->
<g id="Node000009" class="node">
<title>Node9</title>
<g id="a_Node000009"><a xlink:title=" ">
<polygon fill="#e0e0e0" stroke="#999999" points="201.59,-150 159.34,-150 159.34,-130 201.59,-130 201.59,-150"/>
<text text-anchor="middle" x="180.47" y="-136.5" font-family="Helvetica,sans-Serif" font-size="10.00">queue</text>
</a>
</g>
</g>
<!-- Node2&#45;&gt;Node9 -->
<g id="edge8_Node000002_Node000009" class="edge">
<title>Node2&#45;&gt;Node9</title>
<g id="a_edge8_Node000002_Node000009"><a xlink:title=" ">
<path fill="none" stroke="#63b8ff" d="M308.03,-191.64C284.05,-182.74 247.17,-168.83 215.47,-156 214.22,-155.5 212.96,-154.98 211.69,-154.46"/>
<polygon fill="#63b8ff" stroke="#63b8ff" points="213.45,-150.98 202.88,-150.34 210.75,-157.44 213.45,-150.98"/>
</a>
</g>
</g>
<!-- Node10 -->
<g id="Node000010" class="node">
<title>Node10</title>
<g id="a_Node000010"><a xlink:href="FMTutility_8hpp.html" target="_top" xlink:title=" ">
<polygon fill="white" stroke="#666666" points="279.22,-20 201.72,-20 201.72,0 279.22,0 279.22,-20"/>
<text text-anchor="middle" x="240.47" y="-6.5" font-family="Helvetica,sans-Serif" font-size="10.00">FMTutility.hpp</text>
</a>
</g>
</g>
<!-- Node2&#45;&gt;Node10 -->
<g id="edge9_Node000002_Node000010" class="edge">
<title>Node2&#45;&gt;Node10</title>
<g id="a_edge9_Node000002_Node000010"><a xlink:title=" ">
<path fill="none" stroke="#63b8ff" d="M310.48,-191.57C292.57,-183.6 267.61,-171.09 248.47,-156 232.64,-143.53 195.59,-106.85 188.47,-88 183.44,-74.7 182.55,-68.94 188.47,-56 193.9,-44.11 204.2,-34.16 214.2,-26.67"/>
<polygon fill="#63b8ff" stroke="#63b8ff" points="215.92,-29.05 222.16,-20.49 211.94,-23.28 215.92,-29.05"/>
</a>
</g>
</g>
<!-- Node11 -->
<g id="Node000011" class="node">
<title>Node11</title>
<g id="a_Node000011"><a xlink:title=" ">
<polygon fill="#e0e0e0" stroke="#999999" points="295.34,-150 257.59,-150 257.59,-130 295.34,-130 295.34,-150"/>
<text text-anchor="middle" x="276.47" y="-136.5" font-family="Helvetica,sans-Serif" font-size="10.00">array</text>
</a>
</g>
</g>
<!-- Node2&#45;&gt;Node11 -->
<g id="edge10_Node000002_Node000011" class="edge">
<title>Node2&#45;&gt;Node11</title>
<g id="a_edge10_Node000002_Node000011"><a xlink:title=" ">
<path fill="none" stroke="#63b8ff" d="M324.56,-191.62C315.98,-182.59 302.8,-168.72 292.4,-157.78"/>
<polygon fill="#63b8ff" stroke="#63b8ff" points="295.55,-155.95 286.12,-151.11 290.47,-160.77 295.55,-155.95"/>
</a>
</g>
</g>
<!-- Node12 -->
<g id="Node000012" class="node">
<title>Node12</title>
<g id="a_Node000012"><a xlink:title=" ">
<polygon fill="#e0e0e0" stroke="#999999" points="353.47,-150 313.47,-150 313.47,-130 353.47,-130 353.47,-150"/>
<text text-anchor="middle" x="333.47" y="-136.5" font-family="Helvetica,sans-Serif" font-size="10.00">ctime</text>
</a>
</g>
</g>
<!-- Node2&#45;&gt;Node12 -->
<g id="edge11_Node000002_Node000012" class="edge">
<title>Node2&#45;&gt;Node12</title>
<g id="a_edge11_Node000002_Node000012"><a xlink:title=" ">
<path fill="none" stroke="#63b8ff" d="M333.47,-191.62C333.47,-183.48 333.47,-171.39 333.47,-161.07"/>
<polygon fill="#63b8ff" stroke="#63b8ff" points="336.97,-161.11 333.47,-151.11 329.97,-161.11 336.97,-161.11"/>
</a>
</g>
</g>
<!-- Node13 -->
<g id="Node000013" class="node">
<title>Node13</title>
<g id="a_Node000013"><a xlink:title=" ">
<polygon fill="#e0e0e0" stroke="#999999" points="483.09,-156 371.84,-156 371.84,-124 483.09,-124 483.09,-156"/>
<text text-anchor="start" x="379.84" y="-142.5" font-family="Helvetica,sans-Serif" font-size="10.00">boost/thread/recursive</text>
<text text-anchor="middle" x="427.47" y="-130.5" font-family="Helvetica,sans-Serif" font-size="10.00">_mutex.hpp</text>
</a>
</g>
</g>
<!-- Node2&#45;&gt;Node13 -->
<g id="edge12_Node000002_Node000013" class="edge">
<title>Node2&#45;&gt;Node13</title>
<g id="a_edge12_Node000002_Node000013"><a xlink:title=" ">
<path fill="none" stroke="#63b8ff" d="M348.15,-191.62C360.5,-183.75 378.61,-172.19 394.41,-162.1"/>
<polygon fill="#63b8ff" stroke="#63b8ff" points="395.83,-164.7 402.38,-156.37 392.07,-158.8 395.83,-164.7"/>
</a>
</g>
</g>
<!-- Node14 -->
<g id="Node000014" class="node">
<title>Node14</title>
<g id="a_Node000014"><a xlink:href="FMTobject_8hpp.html" target="_top" xlink:title=" ">
<polygon fill="white" stroke="#666666" points="581.72,-150 501.22,-150 501.22,-130 581.72,-130 581.72,-150"/>
<text text-anchor="middle" x="541.47" y="-136.5" font-family="Helvetica,sans-Serif" font-size="10.00">FMTobject.hpp</text>
</a>
</g>
</g>
<!-- Node2&#45;&gt;Node14 -->
<g id="edge13_Node000002_Node000014" class="edge">
<title>Node2&#45;&gt;Node14</title>
<g id="a_edge13_Node000002_Node000014"><a xlink:title=" ">
<path fill="none" stroke="#63b8ff" d="M367.64,-191.55C399.88,-182.59 449.53,-168.64 492.47,-156 495.08,-155.23 497.77,-154.43 500.48,-153.62"/>
<polygon fill="#63b8ff" stroke="#63b8ff" points="501.35,-156.71 509.91,-150.46 499.33,-150.01 501.35,-156.71"/>
</a>
</g>
</g>
<!-- Node14&#45;&gt;Node8 -->
<g id="edge25_Node000014_Node000008" class="edge">
<title>Node14&#45;&gt;Node8</title>
<g id="a_edge25_Node000014_Node000008"><a xlink:title=" ">
<path fill="none" stroke="#63b8ff" d="M569.49,-129.51C576.29,-127.46 583.59,-125.47 590.47,-124 717.48,-96.89 755.09,-121.92 880.47,-88 882.26,-87.51 884.09,-86.95 885.92,-86.34"/>
<polygon fill="#63b8ff" stroke="#63b8ff" points="887.1,-89.25 895.19,-82.41 884.6,-82.71 887.1,-89.25"/>
</a>
</g>
</g>
<!-- Node15 -->
<g id="Node000015" class="node">
<title>Node15</title>
<g id="a_Node000015"><a xlink:title=" ">
<polygon fill="#e0e0e0" stroke="#999999" points="725.84,-88 631.09,-88 631.09,-56 725.84,-56 725.84,-88"/>
<text text-anchor="start" x="639.09" y="-74.5" font-family="Helvetica,sans-Serif" font-size="10.00">boost/serialization</text>
<text text-anchor="middle" x="678.47" y="-62.5" font-family="Helvetica,sans-Serif" font-size="10.00">/shared_ptr.hpp</text>
</a>
</g>
</g>
<!-- Node14&#45;&gt;Node15 -->
<g id="edge14_Node000014_Node000015" class="edge">
<title>Node14&#45;&gt;Node15</title>
<g id="a_edge14_Node000014_Node000015"><a xlink:title=" ">
<path fill="none" stroke="#63b8ff" d="M561.09,-129.54C580.75,-120.07 611.62,-105.2 636.77,-93.09"/>
<polygon fill="#63b8ff" stroke="#63b8ff" points="637.95,-95.92 645.44,-88.43 634.91,-89.61 637.95,-95.92"/>
</a>
</g>
</g>
<!-- Node16 -->
<g id="Node000016" class="node">
<title>Node16</title>
<g id="a_Node000016"><a xlink:title=" ">
<polygon fill="#e0e0e0" stroke="#999999" points="838.84,-88 744.09,-88 744.09,-56 838.84,-56 838.84,-88"/>
<text text-anchor="start" x="752.09" y="-74.5" font-family="Helvetica,sans-Serif" font-size="10.00">boost/serialization</text>
<text text-anchor="middle" x="791.47" y="-62.5" font-family="Helvetica,sans-Serif" font-size="10.00">/nvp.hpp</text>
</a>
</g>
</g>
<!-- Node14&#45;&gt;Node16 -->
<g id="edge15_Node000014_Node000016" class="edge">
<title>Node14&#45;&gt;Node16</title>
<g id="a_edge15_Node000014_Node000016"><a xlink:title=" ">
<path fill="none" stroke="#63b8ff" d="M571.45,-129.55C577.72,-127.65 584.29,-125.71 590.47,-124 650.92,-107.2 668.84,-104.62 733.54,-88.21"/>
<polygon fill="#63b8ff" stroke="#63b8ff" points="734.07,-91.43 742.89,-85.57 732.34,-84.65 734.07,-91.43"/>
</a>
</g>
</g>
<!-- Node17 -->
<g id="Node000017" class="node">
<title>Node17</title>
<g id="a_Node000017"><a xlink:title=" ">
<polygon fill="#e0e0e0" stroke="#999999" points="291.84,-88 197.09,-88 197.09,-56 291.84,-56 291.84,-88"/>
<text text-anchor="start" x="205.09" y="-74.5" font-family="Helvetica,sans-Serif" font-size="10.00">boost/serialization</text>
<text text-anchor="middle" x="244.47" y="-62.5" font-family="Helvetica,sans-Serif" font-size="10.00">/export.hpp</text>
</a>
</g>
</g>
<!-- Node14&#45;&gt;Node17 -->
<g id="edge16_Node000014_Node000017" class="edge">
<title>Node14&#45;&gt;Node17</title>
<g id="a_edge16_Node000014_Node000017"><a xlink:title=" ">
<path fill="none" stroke="#63b8ff" d="M512.33,-129.5C505.83,-127.55 498.94,-125.6 492.47,-124 411.87,-104.13 387.61,-106.75 302.93,-88.22"/>
<polygon fill="#63b8ff" stroke="#63b8ff" points="303.82,-84.61 293.3,-85.85 302.3,-91.44 303.82,-84.61"/>
</a>
</g>
</g>
<!-- Node18 -->
<g id="Node000018" class="node">
<title>Node18</title>
<g id="a_Node000018"><a xlink:href="FMTexception_8hpp.html" target="_top" xlink:title=" ">
<polygon fill="white" stroke="#666666" points="406.59,-82 310.34,-82 310.34,-62 406.59,-62 406.59,-82"/>
<text text-anchor="middle" x="358.47" y="-68.5" font-family="Helvetica,sans-Serif" font-size="10.00">FMTexception.hpp</text>
</a>
</g>
</g>
<!-- Node14&#45;&gt;Node18 -->
<g id="edge17_Node000014_Node000018" class="edge">
<title>Node14&#45;&gt;Node18</title>
<g id="a_edge17_Node000014_Node000018"><a xlink:title=" ">
<path fill="none" stroke="#63b8ff" d="M515.25,-129.54C483.58,-118.12 430.16,-98.86 394.6,-86.03"/>
<polygon fill="#63b8ff" stroke="#63b8ff" points="396.23,-82.54 385.64,-82.44 393.86,-89.12 396.23,-82.54"/>
</a>
</g>
</g>
<!-- Node20 -->
<g id="Node000020" class="node">
<title>Node20</title>
<g id="a_Node000020"><a xlink:title=" ">
<polygon fill="#e0e0e0" stroke="#999999" points="674.09,-20 622.84,-20 622.84,0 674.09,0 674.09,-20"/>
<text text-anchor="middle" x="648.47" y="-6.5" font-family="Helvetica,sans-Serif" font-size="10.00">memory</text>
</a>
</g>
</g>
<!-- Node14&#45;&gt;Node20 -->
<g id="edge23_Node000014_Node000020" class="edge">
<title>Node14&#45;&gt;Node20</title>
<g id="a_edge23_Node000014_Node000020"><a xlink:title=" ">
<path fill="none" stroke="#63b8ff" d="M569.76,-129.51C576.49,-127.48 583.69,-125.5 590.47,-124 646.77,-111.52 809.62,-131.51 847.47,-88 894.79,-33.59 755.08,-17.4 685.41,-12.77"/>
<polygon fill="#63b8ff" stroke="#63b8ff" points="685.67,-9.22 675.47,-12.1 685.24,-16.21 685.67,-9.22"/>
</a>
</g>
</g>
<!-- Node21 -->
<g id="Node000021" class="node">
<title>Node21</title>
<g id="a_Node000021"><a xlink:title=" ">
<polygon fill="#e0e0e0" stroke="#999999" points="470.09,-82 424.84,-82 424.84,-62 470.09,-62 470.09,-82"/>
<text text-anchor="middle" x="447.47" y="-68.5" font-family="Helvetica,sans-Serif" font-size="10.00">chrono</text>
</a>
</g>
</g>
<!-- Node14&#45;&gt;Node21 -->
<g id="edge24_Node000014_Node000021" class="edge">
<title>Node14&#45;&gt;Node21</title>
<g id="a_edge24_Node000014_Node000021"><a xlink:title=" ">
<path fill="none" stroke="#63b8ff" d="M528,-129.54C512.78,-118.86 487.78,-101.31 469.66,-88.59"/>
<polygon fill="#63b8ff" stroke="#63b8ff" points="472.1,-85.32 461.91,-82.44 468.08,-91.05 472.1,-85.32"/>
</a>
</g>
</g>
<!-- Node22 -->
<g id="Node000022" class="node">
<title>Node22</title>
<g id="a_Node000022"><a xlink:title=" ">
<polygon fill="#e0e0e0" stroke="#999999" points="612.84,-88 488.09,-88 488.09,-56 612.84,-56 612.84,-88"/>
<text text-anchor="start" x="496.09" y="-74.5" font-family="Helvetica,sans-Serif" font-size="10.00">boost/dll/runtime_symbol</text>
<text text-anchor="middle" x="550.47" y="-62.5" font-family="Helvetica,sans-Serif" font-size="10.00">_info.hpp</text>
</a>
</g>
</g>
<!-- Node14&#45;&gt;Node22 -->
<g id="edge26_Node000014_Node000022" class="edge">
<title>Node14&#45;&gt;Node22</title>
<g id="a_edge26_Node000014_Node000022"><a xlink:title=" ">
<path fill="none" stroke="#63b8ff" d="M542.75,-129.54C543.84,-121.55 545.46,-109.72 546.93,-98.95"/>
<polygon fill="#63b8ff" stroke="#63b8ff" points="550.5,-99.68 548.38,-89.3 543.56,-98.74 550.5,-99.68"/>
</a>
</g>
</g>
<!-- Node18&#45;&gt;Node5 -->
<g id="edge20_Node000018_Node000005" class="edge">
<title>Node18&#45;&gt;Node5</title>
<g id="a_edge20_Node000018_Node000005"><a xlink:title=" ">
<path fill="none" stroke="#63b8ff" d="M390.83,-61.57C398.83,-59.49 407.41,-57.48 415.47,-56 557.41,-29.98 728.92,-17.55 803.62,-13.06"/>
<polygon fill="#63b8ff" stroke="#63b8ff" points="803.57,-16.51 813.35,-12.43 803.16,-9.52 803.57,-16.51"/>
</a>
</g>
</g>
<!-- Node18&#45;&gt;Node7 -->
<g id="edge19_Node000018_Node000007" class="edge">
<title>Node18&#45;&gt;Node7</title>
<g id="a_edge19_Node000018_Node000007"><a xlink:title=" ">
<path fill="none" stroke="#63b8ff" d="M322.75,-61.56C278.6,-49.89 204.2,-30.23 162.39,-19.17"/>
<polygon fill="#63b8ff" stroke="#63b8ff" points="163.32,-15.54 152.76,-16.36 161.53,-22.3 163.32,-15.54"/>
</a>
</g>
</g>
<!-- Node18&#45;&gt;Node10 -->
<g id="edge22_Node000018_Node000010" class="edge">
<title>Node18&#45;&gt;Node10</title>
<g id="a_edge22_Node000018_Node000010"><a xlink:title=" ">
<path fill="none" stroke="#63b8ff" d="M340.03,-61.62C320.8,-51.85 290.44,-36.41 268.3,-25.15"/>
<polygon fill="#63b8ff" stroke="#63b8ff" points="270.27,-21.72 259.77,-20.31 267.1,-27.96 270.27,-21.72"/>
</a>
</g>
</g>
<!-- Node19 -->
<g id="Node000019" class="node">
<title>Node19</title>
<g id="a_Node000019"><a xlink:title=" ">
<polygon fill="#e0e0e0" stroke="#999999" points="387.47,-20 329.47,-20 329.47,0 387.47,0 387.47,-20"/>
<text text-anchor="middle" x="358.47" y="-6.5" font-family="Helvetica,sans-Serif" font-size="10.00">exception</text>
</a>
</g>
</g>
<!-- Node18&#45;&gt;Node19 -->
<g id="edge18_Node000018_Node000019" class="edge">
<title>Node18&#45;&gt;Node19</title>
<g id="a_edge18_Node000018_Node000019"><a xlink:title=" ">
<path fill="none" stroke="#63b8ff" d="M358.47,-61.62C358.47,-53.48 358.47,-41.39 358.47,-31.07"/>
<polygon fill="#63b8ff" stroke="#63b8ff" points="361.97,-31.11 358.47,-21.11 354.97,-31.11 361.97,-31.11"/>
</a>
</g>
</g>
<!-- Node18&#45;&gt;Node20 -->
<g id="edge21_Node000018_Node000020" class="edge">
<title>Node18&#45;&gt;Node20</title>
<g id="a_edge21_Node000018_Node000020"><a xlink:title=" ">
<path fill="none" stroke="#63b8ff" d="M393.04,-61.51C400.42,-59.59 408.18,-57.66 415.47,-56 484.49,-40.27 565.83,-25.38 611.85,-17.29"/>
<polygon fill="#63b8ff" stroke="#63b8ff" points="612.24,-20.6 621.49,-15.43 611.03,-13.71 612.24,-20.6"/>
</a>
</g>
</g>
</g>
</svg>

<g id="navigator" transform="translate(0 0)" fill="#404254">
  <rect fill="#f2f5e9" fill-opacity="0.5" stroke="#606060" stroke-width=".5" x="0" y="0" width="60" height="60"/>
  <use id="zoomplus" xlink:href="#zoomPlus" x="17" y="9" onmousedown="handleZoom(evt,'in')"/>
  <use id="zoomminus" xlink:href="#zoomMin" x="42" y="9" onmousedown="handleZoom(evt,'out')"/>
  <use id="reset" xlink:href="#resetDef" x="30" y="36" onmousedown="handleReset()"/>
   <use id="arrowup" xlink:href="#arrowUp" x="0" y="0" onmousedown="handlePan(0,-1)"/>
  <use id="arrowright" xlink:href="#arrowRight" x="0" y="0" onmousedown="handlePan(1,0)"/>
  <use id="arrowdown" xlink:href="#arrowDown" x="0" y="0" onmousedown="handlePan(0,1)"/>
  <use id="arrowleft" xlink:href="#arrowLeft" x="0" y="0" onmousedown="handlePan(-1,0)"/>
</g>
<svg viewBox="0 0 15 15" width="100%" height="30px" preserveAspectRatio="xMaxYMin meet">
 <g id="arrow_out" transform="scale(0.3 0.3)">
  <a xlink:href="FMTtransitionparser_8hpp__incl_org.svg" target="_base">
   <rect id="button" ry="5" rx="5" y="6" x="6" height="38" width="38"
        fill="#f2f5e9" fill-opacity="0.5" stroke="#606060" stroke-width="1.0"/>
   <path id="arrow"
     d="M 11.500037,31.436501 C 11.940474,20.09759 22.043105,11.32322 32.158766,21.979434 L 37.068811,17.246167 C 37.068811,17.246167 37.088388,32 37.088388,32 L 22.160133,31.978069 C 22.160133,31.978069 26.997745,27.140456 26.997745,27.140456 C 18.528582,18.264221 13.291696,25.230495 11.500037,31.436501 z"
     style="fill:#404040;"/>
  </a>
 </g>
</svg>

<style type='text/css'>
<![CDATA[
[data-mouse-over-selected='false'] { opacity: 0.7; }
[data-mouse-over-selected='true']  { opacity: 1.0; }
]]>
</style>
<script type="application/ecmascript"><![CDATA[
document.addEventListener('DOMContentLoaded', (event) => {
  highlightEdges();
  highlightAdjacentNodes();
});
]]></script>
</svg>
