<?xml version="1.0" encoding="UTF-8" standalone="no"?>
<!DOCTYPE svg PUBLIC "-//W3C//DTD SVG 1.1//EN"
 "http://www.w3.org/Graphics/SVG/1.1/DTD/svg11.dtd">
<!-- Generated by graphviz version 8.1.0 (20230707.0739)
 -->
<!-- Title: C:/Users/CYRGU3/OneDrive &#45; BuroVirtuel/Bureau/FMT/FMT/Include/FMTtask.hpp Pages: 1 -->
<svg width="661pt" height="212pt"
 viewBox="0.00 0.00 660.56 212.00" xmlns="http://www.w3.org/2000/svg" xmlns:xlink="http://www.w3.org/1999/xlink">
<g id="graph0" class="graph" transform="scale(1 1) rotate(0) translate(4 208)">
<title>C:/Users/CYRGU3/OneDrive &#45; BuroVirtuel/Bureau/FMT/FMT/Include/FMTtask.hpp</title>
<!-- Node1 -->
<g id="Node000001" class="node">
<title>Node1</title>
<g id="a_Node000001"><a xlink:title=" ">
<polygon fill="#999999" stroke="#666666" points="488.44,-204 349.44,-204 349.44,-160 488.44,-160 488.44,-204"/>
<text text-anchor="start" x="357.44" y="-190.5" font-family="Helvetica,sans-Serif" font-size="10.00">C:/Users/CYRGU3/OneDrive</text>
<text text-anchor="start" x="357.44" y="-178.5" font-family="Helvetica,sans-Serif" font-size="10.00"> &#45; BuroVirtuel/Bureau/FMT</text>
<text text-anchor="middle" x="418.94" y="-166.5" font-family="Helvetica,sans-Serif" font-size="10.00">/FMT/Include/FMTtask.hpp</text>
</a>
</g>
</g>
<!-- Node2 -->
<g id="Node000002" class="node">
<title>Node2</title>
<g id="a_Node000002"><a xlink:href="FMTopareaschedulertask_8hpp.html" target="_top" xlink:title=" ">
<polygon fill="white" stroke="#666666" points="221.69,-124 18.19,-124 18.19,-80 221.69,-80 221.69,-124"/>
<text text-anchor="start" x="26.19" y="-110.5" font-family="Helvetica,sans-Serif" font-size="10.00">C:/Users/CYRGU3/OneDrive</text>
<text text-anchor="start" x="26.19" y="-98.5" font-family="Helvetica,sans-Serif" font-size="10.00"> &#45; BuroVirtuel/Bureau/FMT</text>
<text text-anchor="middle" x="119.94" y="-86.5" font-family="Helvetica,sans-Serif" font-size="10.00">/FMT/Include/FMTopareaschedulertask.hpp</text>
</a>
</g>
</g>
<!-- Node1&#45;&gt;Node2 -->
<g id="edge1_Node000001_Node000002" class="edge">
<title>Node1&#45;&gt;Node2</title>
<g id="a_edge1_Node000001_Node000002"><a xlink:title=" ">
<path fill="none" stroke="#63b8ff" d="M338.69,-160.07C296.47,-149.05 244.79,-135.57 202.26,-124.47"/>
<polygon fill="#63b8ff" stroke="#63b8ff" points="337.65,-163.67 348.21,-162.81 339.42,-156.9 337.65,-163.67"/>
</a>
</g>
</g>
<!-- Node3 -->
<g id="Node000003" class="node">
<title>Node3</title>
<g id="a_Node000003"><a xlink:href="PYexportParallel_8hpp.html" target="_top" xlink:title=" ">
<polygon fill="white" stroke="#666666" points="219.31,-44 52.56,-44 52.56,0 219.31,0 219.31,-44"/>
<text text-anchor="start" x="60.56" y="-30.5" font-family="Helvetica,sans-Serif" font-size="10.00">C:/Users/CYRGU3/OneDrive</text>
<text text-anchor="start" x="60.56" y="-18.5" font-family="Helvetica,sans-Serif" font-size="10.00"> &#45; BuroVirtuel/Bureau/FMT</text>
<text text-anchor="middle" x="135.94" y="-6.5" font-family="Helvetica,sans-Serif" font-size="10.00">/FMT/Include/PYexportParallel.hpp</text>
</a>
</g>
</g>
<!-- Node1&#45;&gt;Node3 -->
<g id="edge13_Node000001_Node000003" class="edge">
<title>Node1&#45;&gt;Node3</title>
<g id="a_edge13_Node000001_Node000003"><a xlink:title=" ">
<path fill="none" stroke="#63b8ff" d="M338.57,-181.78C231.54,-180.89 50.8,-172.08 8.94,-124 -3.9,-109.25 -1.69,-96.42 8.94,-80 19.25,-64.07 35.18,-52.56 52.31,-44.24"/>
<polygon fill="#63b8ff" stroke="#63b8ff" points="338.31,-185.28 348.33,-181.84 338.35,-178.28 338.31,-185.28"/>
</a>
</g>
</g>
<!-- Node4 -->
<g id="Node000004" class="node">
<title>Node4</title>
<g id="a_Node000004"><a xlink:href="Rdeclarations_8hpp.html" target="_top" xlink:title=" ">
<polygon fill="white" stroke="#666666" points="586.56,-44 433.31,-44 433.31,0 586.56,0 586.56,-44"/>
<text text-anchor="start" x="441.31" y="-30.5" font-family="Helvetica,sans-Serif" font-size="10.00">C:/Users/CYRGU3/OneDrive</text>
<text text-anchor="start" x="441.31" y="-18.5" font-family="Helvetica,sans-Serif" font-size="10.00"> &#45; BuroVirtuel/Bureau/FMT</text>
<text text-anchor="middle" x="509.94" y="-6.5" font-family="Helvetica,sans-Serif" font-size="10.00">/FMT/Include/Rdeclarations.hpp</text>
</a>
</g>
</g>
<!-- Node1&#45;&gt;Node4 -->
<g id="edge14_Node000001_Node000004" class="edge">
<title>Node1&#45;&gt;Node4</title>
<g id="a_edge14_Node000001_Node000004"><a xlink:title=" ">
<path fill="none" stroke="#63b8ff" d="M499.7,-171.05C556.73,-162.16 626.06,-146.97 643.94,-124 655.95,-108.57 654.73,-96.31 643.94,-80 630.76,-60.07 609.05,-47.09 586.91,-38.64"/>
<polygon fill="#63b8ff" stroke="#63b8ff" points="499.21,-167.73 489.84,-172.68 500.25,-174.65 499.21,-167.73"/>
</a>
</g>
</g>
<!-- Node5 -->
<g id="Node000005" class="node">
<title>Node5</title>
<g id="a_Node000005"><a xlink:href="RexportParallel_8hpp.html" target="_top" xlink:title=" ">
<polygon fill="white" stroke="#666666" points="407.94,-44 247.94,-44 247.94,0 407.94,0 407.94,-44"/>
<text text-anchor="start" x="255.94" y="-30.5" font-family="Helvetica,sans-Serif" font-size="10.00">C:/Users/CYRGU3/OneDrive</text>
<text text-anchor="start" x="255.94" y="-18.5" font-family="Helvetica,sans-Serif" font-size="10.00"> &#45; BuroVirtuel/Bureau/FMT</text>
<text text-anchor="middle" x="327.94" y="-6.5" font-family="Helvetica,sans-Serif" font-size="10.00">/FMT/Include/RexportParallel.hpp</text>
</a>
</g>
</g>
<!-- Node1&#45;&gt;Node5 -->
<g id="edge15_Node000001_Node000005" class="edge">
<title>Node1&#45;&gt;Node5</title>
<g id="a_edge15_Node000001_Node000005"><a xlink:title=" ">
<path fill="none" stroke="#63b8ff" d="M499.36,-167.08C545.55,-157.27 597.07,-142.58 610.94,-124 622.63,-108.33 623.39,-95.08 610.94,-80 583.99,-47.37 465.39,-52.52 423.94,-44 418.84,-42.95 413.6,-41.86 408.31,-40.74"/>
<polygon fill="#63b8ff" stroke="#63b8ff" points="498.77,-163.84 489.69,-169.29 500.19,-170.69 498.77,-163.84"/>
</a>
</g>
</g>
<!-- Node6 -->
<g id="Node000006" class="node">
<title>Node6</title>
<g id="a_Node000006"><a xlink:href="FMTplanningtask_8hpp.html" target="_top" xlink:title=" ">
<polygon fill="white" stroke="#666666" points="408.06,-124 239.81,-124 239.81,-80 408.06,-80 408.06,-124"/>
<text text-anchor="start" x="247.81" y="-110.5" font-family="Helvetica,sans-Serif" font-size="10.00">C:/Users/CYRGU3/OneDrive</text>
<text text-anchor="start" x="247.81" y="-98.5" font-family="Helvetica,sans-Serif" font-size="10.00"> &#45; BuroVirtuel/Bureau/FMT</text>
<text text-anchor="middle" x="323.94" y="-86.5" font-family="Helvetica,sans-Serif" font-size="10.00">/FMT/Include/FMTplanningtask.hpp</text>
</a>
</g>
</g>
<!-- Node1&#45;&gt;Node6 -->
<g id="edge5_Node000001_Node000006" class="edge">
<title>Node1&#45;&gt;Node6</title>
<g id="a_edge5_Node000001_Node000006"><a xlink:title=" ">
<path fill="none" stroke="#63b8ff" d="M384.5,-152.72C373.07,-143.34 360.54,-133.06 349.87,-124.29"/>
<polygon fill="#63b8ff" stroke="#63b8ff" points="382.03,-156.05 391.98,-159.69 386.47,-150.64 382.03,-156.05"/>
</a>
</g>
</g>
<!-- Node7 -->
<g id="Node000007" class="node">
<title>Node7</title>
<g id="a_Node000007"><a xlink:href="FMTreplanningtask_8hpp.html" target="_top" xlink:title=" ">
<polygon fill="white" stroke="#666666" points="602.19,-124 425.69,-124 425.69,-80 602.19,-80 602.19,-124"/>
<text text-anchor="start" x="433.69" y="-110.5" font-family="Helvetica,sans-Serif" font-size="10.00">C:/Users/CYRGU3/OneDrive</text>
<text text-anchor="start" x="433.69" y="-98.5" font-family="Helvetica,sans-Serif" font-size="10.00"> &#45; BuroVirtuel/Bureau/FMT</text>
<text text-anchor="middle" x="513.94" y="-86.5" font-family="Helvetica,sans-Serif" font-size="10.00">/FMT/Include/FMTreplanningtask.hpp</text>
</a>
</g>
</g>
<!-- Node1&#45;&gt;Node7 -->
<g id="edge9_Node000001_Node000007" class="edge">
<title>Node1&#45;&gt;Node7</title>
<g id="a_edge9_Node000001_Node000007"><a xlink:title=" ">
<path fill="none" stroke="#63b8ff" d="M453.38,-152.72C464.81,-143.34 477.33,-133.06 488.01,-124.29"/>
<polygon fill="#63b8ff" stroke="#63b8ff" points="451.41,-150.64 445.9,-159.69 455.85,-156.05 451.41,-150.64"/>
</a>
</g>
</g>
<!-- Node2&#45;&gt;Node3 -->
<g id="edge2_Node000002_Node000003" class="edge">
<title>Node2&#45;&gt;Node3</title>
<g id="a_edge2_Node000002_Node000003"><a xlink:title=" ">
<path fill="none" stroke="#63b8ff" d="M126.48,-69.1C128.2,-60.74 130,-51.94 131.57,-44.29"/>
<polygon fill="#63b8ff" stroke="#63b8ff" points="122.89,-68.19 124.31,-78.69 129.75,-69.59 122.89,-68.19"/>
</a>
</g>
</g>
<!-- Node2&#45;&gt;Node4 -->
<g id="edge3_Node000002_Node000004" class="edge">
<title>Node2&#45;&gt;Node4</title>
<g id="a_edge3_Node000002_Node000004"><a xlink:title=" ">
<path fill="none" stroke="#63b8ff" d="M232.83,-79.52C308.92,-65 398.65,-47.82 416.94,-44 422.12,-42.92 427.47,-41.78 432.84,-40.61"/>
<polygon fill="#63b8ff" stroke="#63b8ff" points="232.36,-76.23 223.19,-81.55 233.67,-83.11 232.36,-76.23"/>
</a>
</g>
</g>
<!-- Node2&#45;&gt;Node5 -->
<g id="edge4_Node000002_Node000005" class="edge">
<title>Node2&#45;&gt;Node5</title>
<g id="a_edge4_Node000002_Node000005"><a xlink:title=" ">
<path fill="none" stroke="#63b8ff" d="M187.2,-75.78C214.23,-65.64 245.06,-54.08 270.95,-44.37"/>
<polygon fill="#63b8ff" stroke="#63b8ff" points="186.18,-72.79 178.05,-79.58 188.64,-79.35 186.18,-72.79"/>
</a>
</g>
</g>
<!-- Node6&#45;&gt;Node3 -->
<g id="edge6_Node000006_Node000003" class="edge">
<title>Node6&#45;&gt;Node3</title>
<g id="a_edge6_Node000006_Node000003"><a xlink:title=" ">
<path fill="none" stroke="#63b8ff" d="M262.41,-75.47C238.21,-65.43 210.72,-54.03 187.57,-44.42"/>
<polygon fill="#63b8ff" stroke="#63b8ff" points="260.99,-79.09 271.57,-79.69 263.67,-72.62 260.99,-79.09"/>
</a>
</g>
</g>
<!-- Node6&#45;&gt;Node4 -->
<g id="edge7_Node000006_Node000004" class="edge">
<title>Node6&#45;&gt;Node4</title>
<g id="a_edge7_Node000006_Node000004"><a xlink:title=" ">
<path fill="none" stroke="#63b8ff" d="M384.81,-75.47C408.76,-65.43 435.95,-54.03 458.85,-44.42"/>
<polygon fill="#63b8ff" stroke="#63b8ff" points="383.63,-72.59 375.76,-79.69 386.34,-79.05 383.63,-72.59"/>
</a>
</g>
</g>
<!-- Node6&#45;&gt;Node5 -->
<g id="edge8_Node000006_Node000005" class="edge">
<title>Node6&#45;&gt;Node5</title>
<g id="a_edge8_Node000006_Node000005"><a xlink:title=" ">
<path fill="none" stroke="#63b8ff" d="M325.59,-68.82C326.01,-60.54 326.46,-51.85 326.85,-44.29"/>
<polygon fill="#63b8ff" stroke="#63b8ff" points="322.05,-68.52 325.03,-78.69 329.04,-68.88 322.05,-68.52"/>
</a>
</g>
</g>
<!-- Node7&#45;&gt;Node3 -->
<g id="edge10_Node000007_Node000003" class="edge">
<title>Node7&#45;&gt;Node3</title>
<g id="a_edge10_Node000007_Node000003"><a xlink:title=" ">
<path fill="none" stroke="#63b8ff" d="M414.97,-79.6C336.21,-63.16 314.79,-59.4 238.94,-44 232.68,-42.73 226.21,-41.41 219.69,-40.09"/>
<polygon fill="#63b8ff" stroke="#63b8ff" points="413.9,-83.16 424.4,-81.78 415.33,-76.31 413.9,-83.16"/>
</a>
</g>
</g>
<!-- Node7&#45;&gt;Node4 -->
<g id="edge11_Node000007_Node000004" class="edge">
<title>Node7&#45;&gt;Node4</title>
<g id="a_edge11_Node000007_Node000004"><a xlink:title=" ">
<path fill="none" stroke="#63b8ff" d="M512.29,-68.82C511.86,-60.54 511.42,-51.85 511.03,-44.29"/>
<polygon fill="#63b8ff" stroke="#63b8ff" points="508.84,-68.88 512.85,-78.69 515.83,-68.52 508.84,-68.88"/>
</a>
</g>
</g>
<!-- Node7&#45;&gt;Node5 -->
<g id="edge12_Node000007_Node000005" class="edge">
<title>Node7&#45;&gt;Node5</title>
<g id="a_edge12_Node000007_Node000005"><a xlink:title=" ">
<path fill="none" stroke="#63b8ff" d="M453.07,-75.47C429.12,-65.43 401.93,-54.03 379.03,-44.42"/>
<polygon fill="#63b8ff" stroke="#63b8ff" points="451.54,-79.05 462.11,-79.69 454.24,-72.59 451.54,-79.05"/>
</a>
</g>
</g>
</g>
</svg>
