<?xml version="1.0" encoding="UTF-8" standalone="no"?>
<!DOCTYPE svg PUBLIC "-//W3C//DTD SVG 1.1//EN"
 "http://www.w3.org/Graphics/SVG/1.1/DTD/svg11.dtd">
<!-- Generated by graphviz version 8.1.0 (20230707.0739)
 -->
<!-- Title: C:/Temp/out/FMT/Include/FMTtransitionparser.hpp Pages: 1 -->
<!--zoomable 288 -->

<svg id="main" version="1.1" xmlns="http://www.w3.org/2000/svg" xmlns:xlink="http://www.w3.org/1999/xlink" xml:space="preserve" onload="init(evt)">
<style type="text/css"><![CDATA[
.node, .edge {opacity: 0.7;}
.node.selected, .edge.selected {opacity: 1;}
.edge:hover path { stroke: red; }
.edge:hover polygon { stroke: red; fill: red; }
]]></style>

<defs>
  <circle id="rim" cx="0" cy="0" r="7"/>
  <circle id="rim2" cx="0" cy="0" r="3.5"/>
  <g id="zoomPlus">
    <use xlink:href="#rim" fill="#404040"><set attributeName="fill" to="#808080" begin="zoomplus.mouseover" end="zoomplus.mouseout"/></use>
    <path d="M-4,0h8M0,-4v8" fill="none" stroke="white" stroke-width="1.5" pointer-events="none"/>
  </g>
  <g id="zoomMin">
    <use xlink:href="#rim" fill="#404040"><set attributeName="fill" to="#808080" begin="zoomminus.mouseover" end="zoomminus.mouseout"/></use>
    <path d="M-4,0h8" fill="none" stroke="white" stroke-width="1.5" pointer-events="none"/>
  </g>
  <g id="arrowUp" transform="translate(30 24)">
    <use xlink:href="#rim"/>
    <path pointer-events="none" fill="none" stroke="white" stroke-width="1.5" d="M0,-3.0v7 M-2.5,-0.5L0,-3.0L2.5,-0.5"/>
  </g>
  <g id="arrowRight" transform="rotate(90) translate(36 -43)">
    <use xlink:href="#rim"/>
    <path pointer-events="none" fill="none" stroke="white" stroke-width="1.5" d="M0,-3.0v7 M-2.5,-0.5L0,-3.0L2.5,-0.5"/>
  </g>
  <g id="arrowDown" transform="rotate(180) translate(-30 -48)">
    <use xlink:href="#rim"/>
    <path pointer-events="none" fill="none" stroke="white" stroke-width="1.5" d="M0,-3.0v7 M-2.5,-0.5L0,-3.0L2.5,-0.5"/>
  </g>
  <g id="arrowLeft" transform="rotate(270) translate(-36 17)">
    <use xlink:href="#rim"/>
    <path pointer-events="none" fill="none" stroke="white" stroke-width="1.5" d="M0,-3.0v7 M-2.5,-0.5L0,-3.0L2.5,-0.5"/>
  </g>
  <g id="resetDef">
    <use xlink:href="#rim2" fill="#404040"><set attributeName="fill" to="#808080" begin="reset.mouseover" end="reset.mouseout"/></use>
  </g>
</defs>
<script type="application/ecmascript">
var viewWidth = 960;
var viewHeight = 288;
var sectionId = 'dynsection-0';
</script>
<script type="application/ecmascript" xlink:href="svg.min.js"/>
<svg id="graph" class="graph">
<g id="viewport">
<title>C:/Temp/out/FMT/Include/FMTtransitionparser.hpp</title>
<!-- Node1 -->
<g id="Node000001" class="node">
<title>Node1</title>
<g id="a_Node000001"><a xlink:title=" ">
<polygon fill="#999999" stroke="#666666" points="327.42,-280 201.92,-280 201.92,-248 327.42,-248 327.42,-280"/>
<text text-anchor="start" x="209.92" y="-266.5" font-family="Helvetica,sans-Serif" font-size="10.00">C:/Temp/out/FMT/Include</text>
<text text-anchor="middle" x="264.67" y="-254.5" font-family="Helvetica,sans-Serif" font-size="10.00">/FMTtransitionparser.hpp</text>
</a>
</g>
</g>
<!-- Node2 -->
<g id="Node000002" class="node">
<title>Node2</title>
<g id="a_Node000002"><a xlink:href="FMTparser_8hpp.html" target="_top" xlink:title=" ">
<polygon fill="white" stroke="#666666" points="374.29,-212 293.04,-212 293.04,-192 374.29,-192 374.29,-212"/>
<text text-anchor="middle" x="333.67" y="-198.5" font-family="Helvetica,sans-Serif" font-size="10.00">FMTparser.hpp</text>
</a>
</g>
</g>
<!-- Node1&#45;&gt;Node2 -->
<g id="edge1_Node000001_Node000002" class="edge">
<title>Node1&#45;&gt;Node2</title>
<g id="a_edge1_Node000001_Node000002"><a xlink:title=" ">
<path fill="none" stroke="#63b8ff" d="M282.43,-247.55C292.32,-238.95 304.62,-228.26 314.69,-219.5"/>
<polygon fill="#63b8ff" stroke="#63b8ff" points="316.6,-221.61 321.85,-212.41 312,-216.33 316.6,-221.61"/>
</a>
</g>
</g>
<!-- Node3 -->
<g id="Node000003" class="node">
<title>Node3</title>
<g id="a_Node000003"><a xlink:title=" ">
<polygon fill="#e0e0e0" stroke="#999999" points="103.54,-150 17.79,-150 17.79,-130 103.54,-130 103.54,-150"/>
<text text-anchor="middle" x="60.67" y="-136.5" font-family="Helvetica,sans-Serif" font-size="10.00">boost/regex.hpp</text>
</a>
</g>
</g>
<!-- Node1&#45;&gt;Node3 -->
<g id="edge27_Node000001_Node000003" class="edge">
<title>Node1&#45;&gt;Node3</title>
<g id="a_edge27_Node000001_Node000003"><a xlink:title=" ">
<path fill="none" stroke="#63b8ff" d="M238.83,-247.55C199.29,-223.91 124.29,-179.05 85.42,-155.8"/>
<polygon fill="#63b8ff" stroke="#63b8ff" points="87.73,-152.51 77.36,-150.38 84.14,-158.52 87.73,-152.51"/>
</a>
</g>
</g>
<!-- Node7 -->
<g id="Node000007" class="node">
<title>Node7</title>
<g id="a_Node000007"><a xlink:title=" ">
<polygon fill="#e0e0e0" stroke="#999999" points="151.67,-20 111.67,-20 111.67,0 151.67,0 151.67,-20"/>
<text text-anchor="middle" x="131.67" y="-6.5" font-family="Helvetica,sans-Serif" font-size="10.00">string</text>
</a>
</g>
</g>
<!-- Node1&#45;&gt;Node7 -->
<g id="edge28_Node000001_Node000007" class="edge">
<title>Node1&#45;&gt;Node7</title>
<g id="a_edge28_Node000001_Node000007"><a xlink:title=" ">
<path fill="none" stroke="#63b8ff" d="M201.69,-256.21C140.7,-245.91 51.38,-220.15 8.67,-156 -25.68,-104.42 56.49,-50.52 102.76,-25.43"/>
<polygon fill="#63b8ff" stroke="#63b8ff" points="104.1,-28.16 111.3,-20.39 100.83,-21.97 104.1,-28.16"/>
</a>
</g>
</g>
<!-- Node8 -->
<g id="Node000008" class="node">
<title>Node8</title>
<g id="a_Node000008"><a xlink:title=" ">
<polygon fill="#e0e0e0" stroke="#999999" points="936.42,-82 894.92,-82 894.92,-62 936.42,-62 936.42,-82"/>
<text text-anchor="middle" x="915.67" y="-68.5" font-family="Helvetica,sans-Serif" font-size="10.00">vector</text>
</a>
</g>
</g>
<!-- Node1&#45;&gt;Node8 -->
<g id="edge29_Node000001_Node000008" class="edge">
<title>Node1&#45;&gt;Node8</title>
<g id="a_edge29_Node000001_Node000008"><a xlink:title=" ">
<path fill="none" stroke="#63b8ff" d="M327.8,-256.73C426.58,-245.41 622.44,-216.84 777.67,-156 822.18,-138.55 868.8,-107.38 894.85,-88.6"/>
<polygon fill="#63b8ff" stroke="#63b8ff" points="896.47,-91.02 902.47,-82.3 892.34,-85.37 896.47,-91.02"/>
</a>
</g>
</g>
<!-- Node2&#45;&gt;Node3 -->
<g id="edge2_Node000002_Node000003" class="edge">
<title>Node2&#45;&gt;Node3</title>
<g id="a_edge2_Node000002_Node000003"><a xlink:title=" ">
<path fill="none" stroke="#63b8ff" d="M292.92,-193.17C249.39,-184.65 178.44,-170.32 117.67,-156 113.86,-155.1 109.91,-154.14 105.96,-153.15"/>
<polygon fill="#63b8ff" stroke="#63b8ff" points="107.12,-149.58 96.56,-150.49 105.38,-156.36 107.12,-149.58"/>
</a>
</g>
</g>
<!-- Node4 -->
<g id="Node000004" class="node">
<title>Node4</title>
<g id="a_Node000004"><a xlink:title=" ">
<polygon fill="#e0e0e0" stroke="#999999" points="645.67,-150 599.67,-150 599.67,-130 645.67,-130 645.67,-150"/>
<text text-anchor="middle" x="622.67" y="-136.5" font-family="Helvetica,sans-Serif" font-size="10.00">iterator</text>
</a>
</g>
</g>
<!-- Node2&#45;&gt;Node4 -->
<g id="edge3_Node000002_Node000004" class="edge">
<title>Node2&#45;&gt;Node4</title>
<g id="a_edge3_Node000002_Node000004"><a xlink:title=" ">
<path fill="none" stroke="#63b8ff" d="M374.52,-197.22C425.9,-191.71 516.37,-179.46 590.67,-156 591.98,-155.58 593.31,-155.13 594.65,-154.64"/>
<polygon fill="#63b8ff" stroke="#63b8ff" points="595.85,-157.51 603.72,-150.43 593.15,-151.05 595.85,-157.51"/>
</a>
</g>
</g>
<!-- Node5 -->
<g id="Node000005" class="node">
<title>Node5</title>
<g id="a_Node000005"><a xlink:title=" ">
<polygon fill="#e0e0e0" stroke="#999999" points="868.42,-20 814.92,-20 814.92,0 868.42,0 868.42,-20"/>
<text text-anchor="middle" x="841.67" y="-6.5" font-family="Helvetica,sans-Serif" font-size="10.00">iostream</text>
</a>
</g>
</g>
<!-- Node2&#45;&gt;Node5 -->
<g id="edge4_Node000002_Node000005" class="edge">
<title>Node2&#45;&gt;Node5</title>
<g id="a_edge4_Node000002_Node000005"><a xlink:title=" ">
<path fill="none" stroke="#63b8ff" d="M374.67,-200.57C501.28,-198.25 881.43,-183.3 945.67,-88 953.61,-76.21 953.47,-67.89 945.67,-56 931.03,-33.71 902.74,-22.41 879.35,-16.71"/>
<polygon fill="#63b8ff" stroke="#63b8ff" points="880.2,-13.1 869.69,-14.4 878.72,-19.94 880.2,-13.1"/>
</a>
</g>
</g>
<!-- Node6 -->
<g id="Node000006" class="node">
<title>Node6</title>
<g id="a_Node000006"><a xlink:title=" ">
<polygon fill="#e0e0e0" stroke="#999999" points="711.79,-150 663.54,-150 663.54,-130 711.79,-130 711.79,-150"/>
<text text-anchor="middle" x="687.67" y="-136.5" font-family="Helvetica,sans-Serif" font-size="10.00">fstream</text>
</a>
</g>
</g>
<!-- Node2&#45;&gt;Node6 -->
<g id="edge5_Node000002_Node000006" class="edge">
<title>Node2&#45;&gt;Node6</title>
<g id="a_edge5_Node000002_Node000006"><a xlink:title=" ">
<path fill="none" stroke="#63b8ff" d="M374.74,-199.01C436.56,-195.19 556.72,-184.48 654.67,-156 656.21,-155.55 657.78,-155.04 659.35,-154.49"/>
<polygon fill="#63b8ff" stroke="#63b8ff" points="660.56,-157.37 668.52,-150.37 657.94,-150.88 660.56,-157.37"/>
</a>
</g>
</g>
<!-- Node2&#45;&gt;Node7 -->
<g id="edge6_Node000002_Node000007" class="edge">
<title>Node2&#45;&gt;Node7</title>
<g id="a_edge6_Node000002_Node000007"><a xlink:title=" ">
<path fill="none" stroke="#63b8ff" d="M292.71,-196.31C244.7,-189.92 169.32,-176.85 150.67,-156 119.58,-121.26 123.31,-61.75 127.91,-30.89"/>
<polygon fill="#63b8ff" stroke="#63b8ff" points="131.49,-31.67 129.7,-21.23 124.59,-30.51 131.49,-31.67"/>
</a>
</g>
</g>
<!-- Node2&#45;&gt;Node8 -->
<g id="edge7_Node000002_Node000008" class="edge">
<title>Node2&#45;&gt;Node8</title>
<g id="a_edge7_Node000002_Node000008"><a xlink:title=" ">
<path fill="none" stroke="#63b8ff" d="M374.77,-200.07C446.25,-197.6 597.58,-188.62 720.67,-156 783.25,-139.41 851.92,-106.42 888.75,-87.4"/>
<polygon fill="#63b8ff" stroke="#63b8ff" points="890.02,-90.17 897.26,-82.44 886.78,-83.96 890.02,-90.17"/>
</a>
</g>
</g>
<!-- Node9 -->
<g id="Node000009" class="node">
<title>Node9</title>
<g id="a_Node000009"><a xlink:title=" ">
<polygon fill="#e0e0e0" stroke="#999999" points="201.79,-150 159.54,-150 159.54,-130 201.79,-130 201.79,-150"/>
<text text-anchor="middle" x="180.67" y="-136.5" font-family="Helvetica,sans-Serif" font-size="10.00">queue</text>
</a>
</g>
</g>
<!-- Node2&#45;&gt;Node9 -->
<g id="edge8_Node000002_Node000009" class="edge">
<title>Node2&#45;&gt;Node9</title>
<g id="a_edge8_Node000002_Node000009"><a xlink:title=" ">
<path fill="none" stroke="#63b8ff" d="M308.23,-191.64C284.25,-182.74 247.37,-168.83 215.67,-156 214.42,-155.5 213.16,-154.98 211.89,-154.46"/>
<polygon fill="#63b8ff" stroke="#63b8ff" points="213.65,-150.98 203.08,-150.34 210.95,-157.44 213.65,-150.98"/>
</a>
</g>
</g>
<!-- Node10 -->
<g id="Node000010" class="node">
<title>Node10</title>
<g id="a_Node000010"><a xlink:href="FMTutility_8hpp.html" target="_top" xlink:title=" ">
<polygon fill="white" stroke="#666666" points="279.42,-20 201.92,-20 201.92,0 279.42,0 279.42,-20"/>
<text text-anchor="middle" x="240.67" y="-6.5" font-family="Helvetica,sans-Serif" font-size="10.00">FMTutility.hpp</text>
</a>
</g>
</g>
<!-- Node2&#45;&gt;Node10 -->
<g id="edge9_Node000002_Node000010" class="edge">
<title>Node2&#45;&gt;Node10</title>
<g id="a_edge9_Node000002_Node000010"><a xlink:title=" ">
<path fill="none" stroke="#63b8ff" d="M310.68,-191.57C292.77,-183.6 267.81,-171.09 248.67,-156 232.84,-143.53 195.79,-106.85 188.67,-88 183.64,-74.7 182.75,-68.94 188.67,-56 194.1,-44.11 204.4,-34.16 214.4,-26.67"/>
<polygon fill="#63b8ff" stroke="#63b8ff" points="216.12,-29.05 222.36,-20.49 212.14,-23.28 216.12,-29.05"/>
</a>
</g>
</g>
<!-- Node11 -->
<g id="Node000011" class="node">
<title>Node11</title>
<g id="a_Node000011"><a xlink:title=" ">
<polygon fill="#e0e0e0" stroke="#999999" points="295.54,-150 257.79,-150 257.79,-130 295.54,-130 295.54,-150"/>
<text text-anchor="middle" x="276.67" y="-136.5" font-family="Helvetica,sans-Serif" font-size="10.00">array</text>
</a>
</g>
</g>
<!-- Node2&#45;&gt;Node11 -->
<g id="edge10_Node000002_Node000011" class="edge">
<title>Node2&#45;&gt;Node11</title>
<g id="a_edge10_Node000002_Node000011"><a xlink:title=" ">
<path fill="none" stroke="#63b8ff" d="M324.76,-191.62C316.18,-182.59 303,-168.72 292.61,-157.78"/>
<polygon fill="#63b8ff" stroke="#63b8ff" points="295.75,-155.95 286.32,-151.11 290.67,-160.77 295.75,-155.95"/>
</a>
</g>
</g>
<!-- Node12 -->
<g id="Node000012" class="node">
<title>Node12</title>
<g id="a_Node000012"><a xlink:title=" ">
<polygon fill="#e0e0e0" stroke="#999999" points="353.67,-150 313.67,-150 313.67,-130 353.67,-130 353.67,-150"/>
<text text-anchor="middle" x="333.67" y="-136.5" font-family="Helvetica,sans-Serif" font-size="10.00">ctime</text>
</a>
</g>
</g>
<!-- Node2&#45;&gt;Node12 -->
<g id="edge11_Node000002_Node000012" class="edge">
<title>Node2&#45;&gt;Node12</title>
<g id="a_edge11_Node000002_Node000012"><a xlink:title=" ">
<path fill="none" stroke="#63b8ff" d="M333.67,-191.62C333.67,-183.48 333.67,-171.39 333.67,-161.07"/>
<polygon fill="#63b8ff" stroke="#63b8ff" points="337.17,-161.11 333.67,-151.11 330.17,-161.11 337.17,-161.11"/>
</a>
</g>
</g>
<!-- Node13 -->
<g id="Node000013" class="node">
<title>Node13</title>
<g id="a_Node000013"><a xlink:title=" ">
<polygon fill="#e0e0e0" stroke="#999999" points="483.29,-156 372.04,-156 372.04,-124 483.29,-124 483.29,-156"/>
<text text-anchor="start" x="380.04" y="-142.5" font-family="Helvetica,sans-Serif" font-size="10.00">boost/thread/recursive</text>
<text text-anchor="middle" x="427.67" y="-130.5" font-family="Helvetica,sans-Serif" font-size="10.00">_mutex.hpp</text>
</a>
</g>
</g>
<!-- Node2&#45;&gt;Node13 -->
<g id="edge12_Node000002_Node000013" class="edge">
<title>Node2&#45;&gt;Node13</title>
<g id="a_edge12_Node000002_Node000013"><a xlink:title=" ">
<path fill="none" stroke="#63b8ff" d="M348.35,-191.62C360.7,-183.75 378.81,-172.19 394.61,-162.1"/>
<polygon fill="#63b8ff" stroke="#63b8ff" points="396.03,-164.7 402.58,-156.37 392.27,-158.8 396.03,-164.7"/>
</a>
</g>
</g>
<!-- Node14 -->
<g id="Node000014" class="node">
<title>Node14</title>
<g id="a_Node000014"><a xlink:href="FMTobject_8hpp.html" target="_top" xlink:title=" ">
<polygon fill="white" stroke="#666666" points="581.92,-150 501.42,-150 501.42,-130 581.92,-130 581.92,-150"/>
<text text-anchor="middle" x="541.67" y="-136.5" font-family="Helvetica,sans-Serif" font-size="10.00">FMTobject.hpp</text>
</a>
</g>
</g>
<!-- Node2&#45;&gt;Node14 -->
<g id="edge13_Node000002_Node000014" class="edge">
<title>Node2&#45;&gt;Node14</title>
<g id="a_edge13_Node000002_Node000014"><a xlink:title=" ">
<path fill="none" stroke="#63b8ff" d="M367.84,-191.55C400.08,-182.59 449.74,-168.64 492.67,-156 495.28,-155.23 497.97,-154.43 500.68,-153.62"/>
<polygon fill="#63b8ff" stroke="#63b8ff" points="501.55,-156.71 510.11,-150.46 499.53,-150.01 501.55,-156.71"/>
</a>
</g>
</g>
<!-- Node14&#45;&gt;Node8 -->
<g id="edge25_Node000014_Node000008" class="edge">
<title>Node14&#45;&gt;Node8</title>
<g id="a_edge25_Node000014_Node000008"><a xlink:title=" ">
<path fill="none" stroke="#63b8ff" d="M569.69,-129.51C576.49,-127.46 583.79,-125.47 590.67,-124 717.68,-96.89 755.29,-121.92 880.67,-88 882.46,-87.51 884.29,-86.95 886.12,-86.34"/>
<polygon fill="#63b8ff" stroke="#63b8ff" points="887.3,-89.25 895.39,-82.41 884.8,-82.71 887.3,-89.25"/>
</a>
</g>
</g>
<!-- Node15 -->
<g id="Node000015" class="node">
<title>Node15</title>
<g id="a_Node000015"><a xlink:title=" ">
<polygon fill="#e0e0e0" stroke="#999999" points="726.04,-88 631.29,-88 631.29,-56 726.04,-56 726.04,-88"/>
<text text-anchor="start" x="639.29" y="-74.5" font-family="Helvetica,sans-Serif" font-size="10.00">boost/serialization</text>
<text text-anchor="middle" x="678.67" y="-62.5" font-family="Helvetica,sans-Serif" font-size="10.00">/shared_ptr.hpp</text>
</a>
</g>
</g>
<!-- Node14&#45;&gt;Node15 -->
<g id="edge14_Node000014_Node000015" class="edge">
<title>Node14&#45;&gt;Node15</title>
<g id="a_edge14_Node000014_Node000015"><a xlink:title=" ">
<path fill="none" stroke="#63b8ff" d="M561.29,-129.54C580.96,-120.07 611.82,-105.2 636.97,-93.09"/>
<polygon fill="#63b8ff" stroke="#63b8ff" points="638.15,-95.92 645.64,-88.43 635.11,-89.61 638.15,-95.92"/>
</a>
</g>
</g>
<!-- Node16 -->
<g id="Node000016" class="node">
<title>Node16</title>
<g id="a_Node000016"><a xlink:title=" ">
<polygon fill="#e0e0e0" stroke="#999999" points="839.04,-88 744.29,-88 744.29,-56 839.04,-56 839.04,-88"/>
<text text-anchor="start" x="752.29" y="-74.5" font-family="Helvetica,sans-Serif" font-size="10.00">boost/serialization</text>
<text text-anchor="middle" x="791.67" y="-62.5" font-family="Helvetica,sans-Serif" font-size="10.00">/nvp.hpp</text>
</a>
</g>
</g>
<!-- Node14&#45;&gt;Node16 -->
<g id="edge15_Node000014_Node000016" class="edge">
<title>Node14&#45;&gt;Node16</title>
<g id="a_edge15_Node000014_Node000016"><a xlink:title=" ">
<path fill="none" stroke="#63b8ff" d="M571.65,-129.55C577.92,-127.65 584.49,-125.71 590.67,-124 651.12,-107.2 669.04,-104.62 733.74,-88.21"/>
<polygon fill="#63b8ff" stroke="#63b8ff" points="734.27,-91.43 743.09,-85.57 732.54,-84.65 734.27,-91.43"/>
</a>
</g>
</g>
<!-- Node17 -->
<g id="Node000017" class="node">
<title>Node17</title>
<g id="a_Node000017"><a xlink:title=" ">
<polygon fill="#e0e0e0" stroke="#999999" points="292.04,-88 197.29,-88 197.29,-56 292.04,-56 292.04,-88"/>
<text text-anchor="start" x="205.29" y="-74.5" font-family="Helvetica,sans-Serif" font-size="10.00">boost/serialization</text>
<text text-anchor="middle" x="244.67" y="-62.5" font-family="Helvetica,sans-Serif" font-size="10.00">/export.hpp</text>
</a>
</g>
</g>
<!-- Node14&#45;&gt;Node17 -->
<g id="edge16_Node000014_Node000017" class="edge">
<title>Node14&#45;&gt;Node17</title>
<g id="a_edge16_Node000014_Node000017"><a xlink:title=" ">
<path fill="none" stroke="#63b8ff" d="M512.53,-129.5C506.03,-127.55 499.14,-125.6 492.67,-124 412.07,-104.13 387.81,-106.75 303.13,-88.22"/>
<polygon fill="#63b8ff" stroke="#63b8ff" points="304.02,-84.61 293.5,-85.85 302.5,-91.44 304.02,-84.61"/>
</a>
</g>
</g>
<!-- Node18 -->
<g id="Node000018" class="node">
<title>Node18</title>
<g id="a_Node000018"><a xlink:href="FMTexception_8hpp.html" target="_top" xlink:title=" ">
<polygon fill="white" stroke="#666666" points="406.79,-82 310.54,-82 310.54,-62 406.79,-62 406.79,-82"/>
<text text-anchor="middle" x="358.67" y="-68.5" font-family="Helvetica,sans-Serif" font-size="10.00">FMTexception.hpp</text>
</a>
</g>
</g>
<!-- Node14&#45;&gt;Node18 -->
<g id="edge17_Node000014_Node000018" class="edge">
<title>Node14&#45;&gt;Node18</title>
<g id="a_edge17_Node000014_Node000018"><a xlink:title=" ">
<path fill="none" stroke="#63b8ff" d="M515.45,-129.54C483.78,-118.12 430.36,-98.86 394.81,-86.03"/>
<polygon fill="#63b8ff" stroke="#63b8ff" points="396.43,-82.54 385.84,-82.44 394.06,-89.12 396.43,-82.54"/>
</a>
</g>
</g>
<!-- Node20 -->
<g id="Node000020" class="node">
<title>Node20</title>
<g id="a_Node000020"><a xlink:title=" ">
<polygon fill="#e0e0e0" stroke="#999999" points="674.29,-20 623.04,-20 623.04,0 674.29,0 674.29,-20"/>
<text text-anchor="middle" x="648.67" y="-6.5" font-family="Helvetica,sans-Serif" font-size="10.00">memory</text>
</a>
</g>
</g>
<!-- Node14&#45;&gt;Node20 -->
<g id="edge23_Node000014_Node000020" class="edge">
<title>Node14&#45;&gt;Node20</title>
<g id="a_edge23_Node000014_Node000020"><a xlink:title=" ">
<path fill="none" stroke="#63b8ff" d="M569.96,-129.51C576.7,-127.48 583.89,-125.5 590.67,-124 646.97,-111.52 809.82,-131.51 847.67,-88 894.99,-33.59 755.28,-17.4 685.61,-12.77"/>
<polygon fill="#63b8ff" stroke="#63b8ff" points="685.87,-9.22 675.67,-12.1 685.44,-16.21 685.87,-9.22"/>
</a>
</g>
</g>
<!-- Node21 -->
<g id="Node000021" class="node">
<title>Node21</title>
<g id="a_Node000021"><a xlink:title=" ">
<polygon fill="#e0e0e0" stroke="#999999" points="470.29,-82 425.04,-82 425.04,-62 470.29,-62 470.29,-82"/>
<text text-anchor="middle" x="447.67" y="-68.5" font-family="Helvetica,sans-Serif" font-size="10.00">chrono</text>
</a>
</g>
</g>
<!-- Node14&#45;&gt;Node21 -->
<g id="edge24_Node000014_Node000021" class="edge">
<title>Node14&#45;&gt;Node21</title>
<g id="a_edge24_Node000014_Node000021"><a xlink:title=" ">
<path fill="none" stroke="#63b8ff" d="M528.2,-129.54C512.98,-118.86 487.98,-101.31 469.86,-88.59"/>
<polygon fill="#63b8ff" stroke="#63b8ff" points="472.3,-85.32 462.11,-82.44 468.28,-91.05 472.3,-85.32"/>
</a>
</g>
</g>
<!-- Node22 -->
<g id="Node000022" class="node">
<title>Node22</title>
<g id="a_Node000022"><a xlink:title=" ">
<polygon fill="#e0e0e0" stroke="#999999" points="613.04,-88 488.29,-88 488.29,-56 613.04,-56 613.04,-88"/>
<text text-anchor="start" x="496.29" y="-74.5" font-family="Helvetica,sans-Serif" font-size="10.00">boost/dll/runtime_symbol</text>
<text text-anchor="middle" x="550.67" y="-62.5" font-family="Helvetica,sans-Serif" font-size="10.00">_info.hpp</text>
</a>
</g>
</g>
<!-- Node14&#45;&gt;Node22 -->
<g id="edge26_Node000014_Node000022" class="edge">
<title>Node14&#45;&gt;Node22</title>
<g id="a_edge26_Node000014_Node000022"><a xlink:title=" ">
<path fill="none" stroke="#63b8ff" d="M542.96,-129.54C544.04,-121.55 545.66,-109.72 547.13,-98.95"/>
<polygon fill="#63b8ff" stroke="#63b8ff" points="550.7,-99.68 548.58,-89.3 543.76,-98.74 550.7,-99.68"/>
</a>
</g>
</g>
<!-- Node18&#45;&gt;Node5 -->
<g id="edge20_Node000018_Node000005" class="edge">
<title>Node18&#45;&gt;Node5</title>
<g id="a_edge20_Node000018_Node000005"><a xlink:title=" ">
<path fill="none" stroke="#63b8ff" d="M391.03,-61.57C399.03,-59.49 407.61,-57.48 415.67,-56 557.61,-29.98 729.12,-17.55 803.82,-13.06"/>
<polygon fill="#63b8ff" stroke="#63b8ff" points="803.77,-16.51 813.55,-12.43 803.36,-9.52 803.77,-16.51"/>
</a>
</g>
</g>
<!-- Node18&#45;&gt;Node7 -->
<g id="edge19_Node000018_Node000007" class="edge">
<title>Node18&#45;&gt;Node7</title>
<g id="a_edge19_Node000018_Node000007"><a xlink:title=" ">
<path fill="none" stroke="#63b8ff" d="M322.95,-61.56C278.8,-49.89 204.4,-30.23 162.59,-19.17"/>
<polygon fill="#63b8ff" stroke="#63b8ff" points="163.52,-15.54 152.96,-16.36 161.73,-22.3 163.52,-15.54"/>
</a>
</g>
</g>
<!-- Node18&#45;&gt;Node10 -->
<g id="edge22_Node000018_Node000010" class="edge">
<title>Node18&#45;&gt;Node10</title>
<g id="a_edge22_Node000018_Node000010"><a xlink:title=" ">
<path fill="none" stroke="#63b8ff" d="M340.23,-61.62C321,-51.85 290.64,-36.41 268.5,-25.15"/>
<polygon fill="#63b8ff" stroke="#63b8ff" points="270.47,-21.72 259.97,-20.31 267.3,-27.96 270.47,-21.72"/>
</a>
</g>
</g>
<!-- Node19 -->
<g id="Node000019" class="node">
<title>Node19</title>
<g id="a_Node000019"><a xlink:title=" ">
<polygon fill="#e0e0e0" stroke="#999999" points="387.67,-20 329.67,-20 329.67,0 387.67,0 387.67,-20"/>
<text text-anchor="middle" x="358.67" y="-6.5" font-family="Helvetica,sans-Serif" font-size="10.00">exception</text>
</a>
</g>
</g>
<!-- Node18&#45;&gt;Node19 -->
<g id="edge18_Node000018_Node000019" class="edge">
<title>Node18&#45;&gt;Node19</title>
<g id="a_edge18_Node000018_Node000019"><a xlink:title=" ">
<path fill="none" stroke="#63b8ff" d="M358.67,-61.62C358.67,-53.48 358.67,-41.39 358.67,-31.07"/>
<polygon fill="#63b8ff" stroke="#63b8ff" points="362.17,-31.11 358.67,-21.11 355.17,-31.11 362.17,-31.11"/>
</a>
</g>
</g>
<!-- Node18&#45;&gt;Node20 -->
<g id="edge21_Node000018_Node000020" class="edge">
<title>Node18&#45;&gt;Node20</title>
<g id="a_edge21_Node000018_Node000020"><a xlink:title=" ">
<path fill="none" stroke="#63b8ff" d="M393.24,-61.51C400.62,-59.59 408.38,-57.66 415.67,-56 484.69,-40.27 566.03,-25.38 612.05,-17.29"/>
<polygon fill="#63b8ff" stroke="#63b8ff" points="612.44,-20.6 621.69,-15.43 611.24,-13.71 612.44,-20.6"/>
</a>
</g>
</g>
</g>
</svg>

<g id="navigator" transform="translate(0 0)" fill="#404254">
  <rect fill="#f2f5e9" fill-opacity="0.5" stroke="#606060" stroke-width=".5" x="0" y="0" width="60" height="60"/>
  <use id="zoomplus" xlink:href="#zoomPlus" x="17" y="9" onmousedown="handleZoom(evt,'in')"/>
  <use id="zoomminus" xlink:href="#zoomMin" x="42" y="9" onmousedown="handleZoom(evt,'out')"/>
  <use id="reset" xlink:href="#resetDef" x="30" y="36" onmousedown="handleReset()"/>
   <use id="arrowup" xlink:href="#arrowUp" x="0" y="0" onmousedown="handlePan(0,-1)"/>
  <use id="arrowright" xlink:href="#arrowRight" x="0" y="0" onmousedown="handlePan(1,0)"/>
  <use id="arrowdown" xlink:href="#arrowDown" x="0" y="0" onmousedown="handlePan(0,1)"/>
  <use id="arrowleft" xlink:href="#arrowLeft" x="0" y="0" onmousedown="handlePan(-1,0)"/>
</g>
<svg viewBox="0 0 15 15" width="100%" height="30px" preserveAspectRatio="xMaxYMin meet">
 <g id="arrow_out" transform="scale(0.3 0.3)">
  <a xlink:href="FMTtransitionparser_8hpp__incl_org.svg" target="_base">
   <rect id="button" ry="5" rx="5" y="6" x="6" height="38" width="38"
        fill="#f2f5e9" fill-opacity="0.5" stroke="#606060" stroke-width="1.0"/>
   <path id="arrow"
     d="M 11.500037,31.436501 C 11.940474,20.09759 22.043105,11.32322 32.158766,21.979434 L 37.068811,17.246167 C 37.068811,17.246167 37.088388,32 37.088388,32 L 22.160133,31.978069 C 22.160133,31.978069 26.997745,27.140456 26.997745,27.140456 C 18.528582,18.264221 13.291696,25.230495 11.500037,31.436501 z"
     style="fill:#404040;"/>
  </a>
 </g>
</svg>

<style type='text/css'>
<![CDATA[
[data-mouse-over-selected='false'] { opacity: 0.7; }
[data-mouse-over-selected='true']  { opacity: 1.0; }
]]>
</style>
<script type="application/ecmascript"><![CDATA[
document.addEventListener('DOMContentLoaded', (event) => {
  highlightEdges();
  highlightAdjacentNodes();
});
]]></script>
</svg>
