<?xml version="1.0" encoding="UTF-8" standalone="no"?>
<!DOCTYPE svg PUBLIC "-//W3C//DTD SVG 1.1//EN"
 "http://www.w3.org/Graphics/SVG/1.1/DTD/svg11.dtd">
<!-- Generated by graphviz version 10.0.1 (20240210.2158)
 -->
<!-- Title: D:/FMT/Include/FMTtransitionparser.hpp Pages: 1 -->
<!--zoomable 276 -->
<svg id="main" version="1.1" xmlns="http://www.w3.org/2000/svg" xmlns:xlink="http://www.w3.org/1999/xlink" xml:space="preserve" onload="init(evt)">
<style type="text/css"><![CDATA[
.edge:hover path { stroke: red; }
.edge:hover polygon { stroke: red; fill: red; }
]]></style>
<script type="text/javascript"><![CDATA[
var edges = document.getElementsByTagName('g');
if (edges && edges.length) {
  for (var i=0;i<edges.length;i++) {
    if (edges[i].id.substr(0,4)=='edge') {
      edges[i].setAttribute('class','edge');
    }
  }
}
]]></script>
        <defs>
                <circle id="rim" cx="0" cy="0" r="7"/>
                <circle id="rim2" cx="0" cy="0" r="3.5"/>
                <g id="zoomPlus">
                        <use xlink:href="#rim" fill="#404040">
                                <set attributeName="fill" to="#808080" begin="zoomplus.mouseover" end="zoomplus.mouseout"/>
                        </use>
                        <path d="M-4,0h8M0,-4v8" fill="none" stroke="white" stroke-width="1.5" pointer-events="none"/>
                </g>
                <g id="zoomMin">
                        <use xlink:href="#rim" fill="#404040">
                                <set attributeName="fill" to="#808080" begin="zoomminus.mouseover" end="zoomminus.mouseout"/>
                        </use>
                        <path d="M-4,0h8" fill="none" stroke="white" stroke-width="1.5" pointer-events="none"/>
                </g>
                <g id="dirArrow">
                        <path fill="none" stroke="white" stroke-width="1.5" d="M0,-3.0v7 M-2.5,-0.5L0,-3.0L2.5,-0.5"/>
                </g>
               <g id="resetDef">
                       <use xlink:href="#rim2" fill="#404040">
                               <set attributeName="fill" to="#808080" begin="reset.mouseover" end="reset.mouseout"/>
                       </use>
               </g>
        </defs>

<script type="text/javascript">
var viewWidth = 960;
var viewHeight = 276;
var sectionId = 'dynsection-0';
</script>
<script xlink:href="svgpan.js"/>
<svg id="graph" class="graph">
<g id="viewport">
<title>D:/FMT/Include/FMTtransitionparser.hpp</title>
<!-- Node1 -->
<g id="node1" class="node">
<title>Node1</title>
<g id="a_node1"><a xlink:title=" ">
<polygon fill="#999999" stroke="#666666" points="359.77,-268 169.77,-268 169.77,-248 359.77,-248 359.77,-268"/>
<text text-anchor="middle" x="264.77" y="-254.5" font-family="Helvetica,sans-Serif" font-size="10.00">D:/FMT/Include/FMTtransitionparser.hpp</text>
</a>
</g>
</g>
<!-- Node2 -->
<g id="node2" class="node">
<title>Node2</title>
<g id="a_node2"><a xlink:href="FMTparser_8hpp.html" target="_top" xlink:title=" ">
<polygon fill="white" stroke="#666666" points="374.39,-212 293.14,-212 293.14,-192 374.39,-192 374.39,-212"/>
<text text-anchor="middle" x="333.77" y="-198.5" font-family="Helvetica,sans-Serif" font-size="10.00">FMTparser.hpp</text>
</a>
</g>
</g>
<!-- Node1&#45;&gt;Node2 -->
<g id="edge1" class="edge">
<title>Node1&#45;&gt;Node2</title>
<path fill="none" stroke="#63b8ff" d="M276.79,-247.59C286.78,-239.77 301.23,-228.46 313.08,-219.19"/>
<polygon fill="#63b8ff" stroke="#63b8ff" points="314.98,-222.15 320.69,-213.23 310.66,-216.64 314.98,-222.15"/>
</g>
<!-- Node3 -->
<g id="node3" class="node">
<title>Node3</title>
<g id="a_node3"><a xlink:title=" ">
<polygon fill="#e0e0e0" stroke="#999999" points="103.64,-150 17.89,-150 17.89,-130 103.64,-130 103.64,-150"/>
<text text-anchor="middle" x="60.77" y="-136.5" font-family="Helvetica,sans-Serif" font-size="10.00">boost/regex.hpp</text>
</a>
</g>
</g>
<!-- Node1&#45;&gt;Node3 -->
<g id="edge27" class="edge">
<title>Node1&#45;&gt;Node3</title>
<path fill="none" stroke="#63b8ff" d="M248.07,-247.51C212.72,-227.4 130.05,-180.4 87.35,-156.11"/>
<polygon fill="#63b8ff" stroke="#63b8ff" points="89.14,-153.11 78.72,-151.21 85.68,-159.19 89.14,-153.11"/>
</g>
<!-- Node7 -->
<g id="node7" class="node">
<title>Node7</title>
<g id="a_node7"><a xlink:title=" ">
<polygon fill="#e0e0e0" stroke="#999999" points="151.77,-20 111.77,-20 111.77,0 151.77,0 151.77,-20"/>
<text text-anchor="middle" x="131.77" y="-6.5" font-family="Helvetica,sans-Serif" font-size="10.00">string</text>
</a>
</g>
</g>
<!-- Node1&#45;&gt;Node7 -->
<g id="edge28" class="edge">
<title>Node1&#45;&gt;Node7</title>
<path fill="none" stroke="#63b8ff" d="M176.47,-247.51C118.15,-236.13 45.86,-211.09 8.77,-156 -25.7,-104.81 55.76,-51.06 102.22,-25.79"/>
<polygon fill="#63b8ff" stroke="#63b8ff" points="103.83,-28.9 111.03,-21.12 100.55,-22.71 103.83,-28.9"/>
</g>
<!-- Node8 -->
<g id="node8" class="node">
<title>Node8</title>
<g id="a_node8"><a xlink:title=" ">
<polygon fill="#e0e0e0" stroke="#999999" points="936.52,-82 895.02,-82 895.02,-62 936.52,-62 936.52,-82"/>
<text text-anchor="middle" x="915.77" y="-68.5" font-family="Helvetica,sans-Serif" font-size="10.00">vector</text>
</a>
</g>
</g>
<!-- Node1&#45;&gt;Node8 -->
<g id="edge29" class="edge">
<title>Node1&#45;&gt;Node8</title>
<path fill="none" stroke="#63b8ff" d="M360.17,-248.21C465.3,-236.26 638.02,-209.87 777.77,-156 822.18,-138.88 868.55,-107.82 894.64,-88.94"/>
<polygon fill="#63b8ff" stroke="#63b8ff" points="896.39,-91.99 902.38,-83.25 892.25,-86.35 896.39,-91.99"/>
</g>
<!-- Node2&#45;&gt;Node3 -->
<g id="edge2" class="edge">
<title>Node2&#45;&gt;Node3</title>
<path fill="none" stroke="#63b8ff" d="M293.02,-193.17C249.49,-184.65 178.54,-170.32 117.77,-156 114.18,-155.16 110.48,-154.25 106.76,-153.32"/>
<polygon fill="#63b8ff" stroke="#63b8ff" points="107.68,-149.95 97.13,-150.86 105.95,-156.73 107.68,-149.95"/>
</g>
<!-- Node4 -->
<g id="node4" class="node">
<title>Node4</title>
<g id="a_node4"><a xlink:title=" ">
<polygon fill="#e0e0e0" stroke="#999999" points="645.77,-150 599.77,-150 599.77,-130 645.77,-130 645.77,-150"/>
<text text-anchor="middle" x="622.77" y="-136.5" font-family="Helvetica,sans-Serif" font-size="10.00">iterator</text>
</a>
</g>
</g>
<!-- Node2&#45;&gt;Node4 -->
<g id="edge3" class="edge">
<title>Node2&#45;&gt;Node4</title>
<path fill="none" stroke="#63b8ff" d="M374.62,-197.22C426,-191.71 516.47,-179.46 590.77,-156 591.94,-155.63 593.12,-155.23 594.31,-154.8"/>
<polygon fill="#63b8ff" stroke="#63b8ff" points="595.54,-158.08 603.43,-151.01 592.85,-151.61 595.54,-158.08"/>
</g>
<!-- Node5 -->
<g id="node5" class="node">
<title>Node5</title>
<g id="a_node5"><a xlink:title=" ">
<polygon fill="#e0e0e0" stroke="#999999" points="868.52,-20 815.02,-20 815.02,0 868.52,0 868.52,-20"/>
<text text-anchor="middle" x="841.77" y="-6.5" font-family="Helvetica,sans-Serif" font-size="10.00">iostream</text>
</a>
</g>
</g>
<!-- Node2&#45;&gt;Node5 -->
<g id="edge4" class="edge">
<title>Node2&#45;&gt;Node5</title>
<path fill="none" stroke="#63b8ff" d="M374.77,-200.57C501.38,-198.25 881.53,-183.3 945.77,-88 953.72,-76.21 953.58,-67.89 945.77,-56 931.19,-33.81 903.09,-22.52 879.77,-16.79"/>
<polygon fill="#63b8ff" stroke="#63b8ff" points="880.78,-13.43 870.27,-14.72 879.3,-20.27 880.78,-13.43"/>
</g>
<!-- Node6 -->
<g id="node6" class="node">
<title>Node6</title>
<g id="a_node6"><a xlink:title=" ">
<polygon fill="#e0e0e0" stroke="#999999" points="711.89,-150 663.64,-150 663.64,-130 711.89,-130 711.89,-150"/>
<text text-anchor="middle" x="687.77" y="-136.5" font-family="Helvetica,sans-Serif" font-size="10.00">fstream</text>
</a>
</g>
</g>
<!-- Node2&#45;&gt;Node6 -->
<g id="edge5" class="edge">
<title>Node2&#45;&gt;Node6</title>
<path fill="none" stroke="#63b8ff" d="M374.84,-199.01C436.66,-195.19 556.83,-184.48 654.77,-156 656.16,-155.59 657.57,-155.14 658.98,-154.65"/>
<polygon fill="#63b8ff" stroke="#63b8ff" points="660.25,-157.91 668.22,-150.94 657.64,-151.42 660.25,-157.91"/>
</g>
<!-- Node2&#45;&gt;Node7 -->
<g id="edge6" class="edge">
<title>Node2&#45;&gt;Node7</title>
<path fill="none" stroke="#63b8ff" d="M292.81,-196.31C244.81,-189.92 169.42,-176.85 150.77,-156 119.82,-121.41 123.38,-62.28 127.95,-31.3"/>
<polygon fill="#63b8ff" stroke="#63b8ff" points="131.35,-32.17 129.56,-21.72 124.45,-31.01 131.35,-32.17"/>
</g>
<!-- Node2&#45;&gt;Node8 -->
<g id="edge7" class="edge">
<title>Node2&#45;&gt;Node8</title>
<path fill="none" stroke="#63b8ff" d="M374.87,-200.07C446.35,-197.6 597.68,-188.62 720.77,-156 783.08,-139.48 851.44,-106.7 888.38,-87.65"/>
<polygon fill="#63b8ff" stroke="#63b8ff" points="889.77,-90.87 897.02,-83.14 886.54,-84.66 889.77,-90.87"/>
</g>
<!-- Node9 -->
<g id="node9" class="node">
<title>Node9</title>
<g id="a_node9"><a xlink:title=" ">
<polygon fill="#e0e0e0" stroke="#999999" points="201.89,-150 159.64,-150 159.64,-130 201.89,-130 201.89,-150"/>
<text text-anchor="middle" x="180.77" y="-136.5" font-family="Helvetica,sans-Serif" font-size="10.00">queue</text>
</a>
</g>
</g>
<!-- Node2&#45;&gt;Node9 -->
<g id="edge8" class="edge">
<title>Node2&#45;&gt;Node9</title>
<path fill="none" stroke="#63b8ff" d="M308.33,-191.64C284.35,-182.74 247.47,-168.83 215.77,-156 214.66,-155.55 213.54,-155.1 212.41,-154.63"/>
<polygon fill="#63b8ff" stroke="#63b8ff" points="214.15,-151.56 203.58,-150.93 211.45,-158.02 214.15,-151.56"/>
</g>
<!-- Node10 -->
<g id="node10" class="node">
<title>Node10</title>
<g id="a_node10"><a xlink:href="FMTutility_8hpp.html" target="_top" xlink:title=" ">
<polygon fill="white" stroke="#666666" points="279.52,-20 202.02,-20 202.02,0 279.52,0 279.52,-20"/>
<text text-anchor="middle" x="240.77" y="-6.5" font-family="Helvetica,sans-Serif" font-size="10.00">FMTutility.hpp</text>
</a>
</g>
</g>
<!-- Node2&#45;&gt;Node10 -->
<g id="edge9" class="edge">
<title>Node2&#45;&gt;Node10</title>
<path fill="none" stroke="#63b8ff" d="M310.78,-191.57C292.87,-183.6 267.92,-171.09 248.77,-156 232.94,-143.53 195.89,-106.85 188.77,-88 183.74,-74.7 182.85,-68.94 188.77,-56 194.15,-44.23 204.29,-34.36 214.2,-26.9"/>
<polygon fill="#63b8ff" stroke="#63b8ff" points="215.99,-29.91 222.22,-21.35 212,-24.16 215.99,-29.91"/>
</g>
<!-- Node11 -->
<g id="node11" class="node">
<title>Node11</title>
<g id="a_node11"><a xlink:title=" ">
<polygon fill="#e0e0e0" stroke="#999999" points="295.64,-150 257.89,-150 257.89,-130 295.64,-130 295.64,-150"/>
<text text-anchor="middle" x="276.77" y="-136.5" font-family="Helvetica,sans-Serif" font-size="10.00">array</text>
</a>
</g>
</g>
<!-- Node2&#45;&gt;Node11 -->
<g id="edge10" class="edge">
<title>Node2&#45;&gt;Node11</title>
<path fill="none" stroke="#63b8ff" d="M324.86,-191.62C316.45,-182.77 303.61,-169.26 293.32,-158.43"/>
<polygon fill="#63b8ff" stroke="#63b8ff" points="295.89,-156.05 286.47,-151.21 290.82,-160.87 295.89,-156.05"/>
</g>
<!-- Node12 -->
<g id="node12" class="node">
<title>Node12</title>
<g id="a_node12"><a xlink:title=" ">
<polygon fill="#e0e0e0" stroke="#999999" points="353.77,-150 313.77,-150 313.77,-130 353.77,-130 353.77,-150"/>
<text text-anchor="middle" x="333.77" y="-136.5" font-family="Helvetica,sans-Serif" font-size="10.00">ctime</text>
</a>
</g>
</g>
<!-- Node2&#45;&gt;Node12 -->
<g id="edge11" class="edge">
<title>Node2&#45;&gt;Node12</title>
<path fill="none" stroke="#63b8ff" d="M333.77,-191.62C333.77,-183.56 333.77,-171.65 333.77,-161.41"/>
<polygon fill="#63b8ff" stroke="#63b8ff" points="337.27,-161.63 333.77,-151.63 330.27,-161.63 337.27,-161.63"/>
</g>
<!-- Node13 -->
<g id="node13" class="node">
<title>Node13</title>
<g id="a_node13"><a xlink:title=" ">
<polygon fill="#e0e0e0" stroke="#999999" points="483.39,-156 372.14,-156 372.14,-124 483.39,-124 483.39,-156"/>
<text text-anchor="start" x="380.14" y="-142.5" font-family="Helvetica,sans-Serif" font-size="10.00">boost/thread/recursive</text>
<text text-anchor="middle" x="427.77" y="-130.5" font-family="Helvetica,sans-Serif" font-size="10.00">_mutex.hpp</text>
</a>
</g>
</g>
<!-- Node2&#45;&gt;Node13 -->
<g id="edge12" class="edge">
<title>Node2&#45;&gt;Node13</title>
<path fill="none" stroke="#63b8ff" d="M348.45,-191.62C360.68,-183.82 378.57,-172.4 394.26,-162.38"/>
<polygon fill="#63b8ff" stroke="#63b8ff" points="395.86,-165.52 402.41,-157.19 392.09,-159.62 395.86,-165.52"/>
</g>
<!-- Node14 -->
<g id="node14" class="node">
<title>Node14</title>
<g id="a_node14"><a xlink:href="FMTobject_8hpp.html" target="_top" xlink:title=" ">
<polygon fill="white" stroke="#666666" points="582.02,-150 501.52,-150 501.52,-130 582.02,-130 582.02,-150"/>
<text text-anchor="middle" x="541.77" y="-136.5" font-family="Helvetica,sans-Serif" font-size="10.00">FMTobject.hpp</text>
</a>
</g>
</g>
<!-- Node2&#45;&gt;Node14 -->
<g id="edge13" class="edge">
<title>Node2&#45;&gt;Node14</title>
<path fill="none" stroke="#63b8ff" d="M367.95,-191.55C400.18,-182.59 449.84,-168.64 492.77,-156 495.19,-155.29 497.69,-154.54 500.2,-153.79"/>
<polygon fill="#63b8ff" stroke="#63b8ff" points="501.21,-157.14 509.77,-150.9 499.18,-150.44 501.21,-157.14"/>
</g>
<!-- Node14&#45;&gt;Node8 -->
<g id="edge25" class="edge">
<title>Node14&#45;&gt;Node8</title>
<path fill="none" stroke="#63b8ff" d="M569.79,-129.51C576.6,-127.46 583.89,-125.47 590.77,-124 717.78,-96.89 755.4,-121.92 880.77,-88 882.57,-87.51 884.39,-86.95 886.22,-86.34"/>
<polygon fill="#63b8ff" stroke="#63b8ff" points="886.99,-89.79 895.08,-82.95 884.49,-83.25 886.99,-89.79"/>
</g>
<!-- Node15 -->
<g id="node15" class="node">
<title>Node15</title>
<g id="a_node15"><a xlink:title=" ">
<polygon fill="#e0e0e0" stroke="#999999" points="726.14,-88 631.39,-88 631.39,-56 726.14,-56 726.14,-88"/>
<text text-anchor="start" x="639.39" y="-74.5" font-family="Helvetica,sans-Serif" font-size="10.00">boost/serialization</text>
<text text-anchor="middle" x="678.77" y="-62.5" font-family="Helvetica,sans-Serif" font-size="10.00">/shared_ptr.hpp</text>
</a>
</g>
</g>
<!-- Node14&#45;&gt;Node15 -->
<g id="edge14" class="edge">
<title>Node14&#45;&gt;Node15</title>
<path fill="none" stroke="#63b8ff" d="M561.4,-129.54C580.88,-120.16 611.38,-105.46 636.4,-93.41"/>
<polygon fill="#63b8ff" stroke="#63b8ff" points="637.89,-96.58 645.38,-89.08 634.85,-90.27 637.89,-96.58"/>
</g>
<!-- Node16 -->
<g id="node16" class="node">
<title>Node16</title>
<g id="a_node16"><a xlink:title=" ">
<polygon fill="#e0e0e0" stroke="#999999" points="839.14,-88 744.39,-88 744.39,-56 839.14,-56 839.14,-88"/>
<text text-anchor="start" x="752.39" y="-74.5" font-family="Helvetica,sans-Serif" font-size="10.00">boost/serialization</text>
<text text-anchor="middle" x="791.77" y="-62.5" font-family="Helvetica,sans-Serif" font-size="10.00">/nvp.hpp</text>
</a>
</g>
</g>
<!-- Node14&#45;&gt;Node16 -->
<g id="edge15" class="edge">
<title>Node14&#45;&gt;Node16</title>
<path fill="none" stroke="#63b8ff" d="M571.75,-129.55C578.02,-127.65 584.6,-125.71 590.77,-124 650.98,-107.27 668.99,-104.64 733.05,-88.41"/>
<polygon fill="#63b8ff" stroke="#63b8ff" points="733.9,-91.8 742.73,-85.94 732.17,-85.02 733.9,-91.8"/>
</g>
<!-- Node17 -->
<g id="node17" class="node">
<title>Node17</title>
<g id="a_node17"><a xlink:title=" ">
<polygon fill="#e0e0e0" stroke="#999999" points="292.14,-88 197.39,-88 197.39,-56 292.14,-56 292.14,-88"/>
<text text-anchor="start" x="205.39" y="-74.5" font-family="Helvetica,sans-Serif" font-size="10.00">boost/serialization</text>
<text text-anchor="middle" x="244.77" y="-62.5" font-family="Helvetica,sans-Serif" font-size="10.00">/export.hpp</text>
</a>
</g>
</g>
<!-- Node14&#45;&gt;Node17 -->
<g id="edge16" class="edge">
<title>Node14&#45;&gt;Node17</title>
<path fill="none" stroke="#63b8ff" d="M512.64,-129.5C506.13,-127.55 499.25,-125.6 492.77,-124 412.33,-104.17 388.01,-106.74 303.75,-88.33"/>
<polygon fill="#63b8ff" stroke="#63b8ff" points="304.6,-84.94 294.08,-86.18 303.08,-91.77 304.6,-84.94"/>
</g>
<!-- Node18 -->
<g id="node18" class="node">
<title>Node18</title>
<g id="a_node18"><a xlink:href="FMTexception_8hpp.html" target="_top" xlink:title=" ">
<polygon fill="white" stroke="#666666" points="406.89,-82 310.64,-82 310.64,-62 406.89,-62 406.89,-82"/>
<text text-anchor="middle" x="358.77" y="-68.5" font-family="Helvetica,sans-Serif" font-size="10.00">FMTexception.hpp</text>
</a>
</g>
</g>
<!-- Node14&#45;&gt;Node18 -->
<g id="edge17" class="edge">
<title>Node14&#45;&gt;Node18</title>
<path fill="none" stroke="#63b8ff" d="M515.55,-129.54C484.02,-118.17 430.92,-99.02 395.37,-86.2"/>
<polygon fill="#63b8ff" stroke="#63b8ff" points="396.96,-83.05 386.36,-82.95 394.58,-89.64 396.96,-83.05"/>
</g>
<!-- Node20 -->
<g id="node20" class="node">
<title>Node20</title>
<g id="a_node20"><a xlink:title=" ">
<polygon fill="#e0e0e0" stroke="#999999" points="674.39,-20 623.14,-20 623.14,0 674.39,0 674.39,-20"/>
<text text-anchor="middle" x="648.77" y="-6.5" font-family="Helvetica,sans-Serif" font-size="10.00">memory</text>
</a>
</g>
</g>
<!-- Node14&#45;&gt;Node20 -->
<g id="edge23" class="edge">
<title>Node14&#45;&gt;Node20</title>
<path fill="none" stroke="#63b8ff" d="M570.07,-129.51C576.8,-127.48 583.99,-125.5 590.77,-124 647.07,-111.52 809.92,-131.51 847.77,-88 894.99,-33.7 755.95,-17.47 686.15,-12.8"/>
<polygon fill="#63b8ff" stroke="#63b8ff" points="686.48,-9.31 676.29,-12.19 686.05,-16.3 686.48,-9.31"/>
</g>
<!-- Node21 -->
<g id="node21" class="node">
<title>Node21</title>
<g id="a_node21"><a xlink:title=" ">
<polygon fill="#e0e0e0" stroke="#999999" points="470.39,-82 425.14,-82 425.14,-62 470.39,-62 470.39,-82"/>
<text text-anchor="middle" x="447.77" y="-68.5" font-family="Helvetica,sans-Serif" font-size="10.00">chrono</text>
</a>
</g>
</g>
<!-- Node14&#45;&gt;Node21 -->
<g id="edge24" class="edge">
<title>Node14&#45;&gt;Node21</title>
<path fill="none" stroke="#63b8ff" d="M528.3,-129.54C513.22,-118.96 488.54,-101.63 470.47,-88.94"/>
<polygon fill="#63b8ff" stroke="#63b8ff" points="472.64,-86.19 462.45,-83.31 468.62,-91.92 472.64,-86.19"/>
</g>
<!-- Node22 -->
<g id="node22" class="node">
<title>Node22</title>
<g id="a_node22"><a xlink:title=" ">
<polygon fill="#e0e0e0" stroke="#999999" points="613.14,-88 488.39,-88 488.39,-56 613.14,-56 613.14,-88"/>
<text text-anchor="start" x="496.39" y="-74.5" font-family="Helvetica,sans-Serif" font-size="10.00">boost/dll/runtime_symbol</text>
<text text-anchor="middle" x="550.77" y="-62.5" font-family="Helvetica,sans-Serif" font-size="10.00">_info.hpp</text>
</a>
</g>
</g>
<!-- Node14&#45;&gt;Node22 -->
<g id="edge26" class="edge">
<title>Node14&#45;&gt;Node22</title>
<path fill="none" stroke="#63b8ff" d="M543.06,-129.54C544.12,-121.72 545.69,-110.22 547.14,-99.63"/>
<polygon fill="#63b8ff" stroke="#63b8ff" points="550.59,-100.18 548.48,-89.8 543.66,-99.24 550.59,-100.18"/>
</g>
<!-- Node18&#45;&gt;Node5 -->
<g id="edge20" class="edge">
<title>Node18&#45;&gt;Node5</title>
<path fill="none" stroke="#63b8ff" d="M391.13,-61.57C399.13,-59.49 407.72,-57.48 415.77,-56 557.42,-30.04 728.51,-17.6 803.46,-13.09"/>
<polygon fill="#63b8ff" stroke="#63b8ff" points="803.36,-16.6 813.14,-12.52 802.95,-9.61 803.36,-16.6"/>
</g>
<!-- Node18&#45;&gt;Node7 -->
<g id="edge19" class="edge">
<title>Node18&#45;&gt;Node7</title>
<path fill="none" stroke="#63b8ff" d="M323.05,-61.56C279,-49.92 204.82,-30.31 162.96,-19.24"/>
<polygon fill="#63b8ff" stroke="#63b8ff" points="164.09,-15.92 153.53,-16.75 162.3,-22.69 164.09,-15.92"/>
</g>
<!-- Node18&#45;&gt;Node10 -->
<g id="edge22" class="edge">
<title>Node18&#45;&gt;Node10</title>
<path fill="none" stroke="#63b8ff" d="M340.33,-61.62C321.28,-51.94 291.29,-36.69 269.2,-25.46"/>
<polygon fill="#63b8ff" stroke="#63b8ff" points="270.92,-22.41 260.42,-21 267.75,-28.65 270.92,-22.41"/>
</g>
<!-- Node19 -->
<g id="node19" class="node">
<title>Node19</title>
<g id="a_node19"><a xlink:title=" ">
<polygon fill="#e0e0e0" stroke="#999999" points="387.77,-20 329.77,-20 329.77,0 387.77,0 387.77,-20"/>
<text text-anchor="middle" x="358.77" y="-6.5" font-family="Helvetica,sans-Serif" font-size="10.00">exception</text>
</a>
</g>
</g>
<!-- Node18&#45;&gt;Node19 -->
<g id="edge18" class="edge">
<title>Node18&#45;&gt;Node19</title>
<path fill="none" stroke="#63b8ff" d="M358.77,-61.62C358.77,-53.56 358.77,-41.65 358.77,-31.41"/>
<polygon fill="#63b8ff" stroke="#63b8ff" points="362.27,-31.63 358.77,-21.63 355.27,-31.63 362.27,-31.63"/>
</g>
<!-- Node18&#45;&gt;Node20 -->
<g id="edge21" class="edge">
<title>Node18&#45;&gt;Node20</title>
<path fill="none" stroke="#63b8ff" d="M393.34,-61.51C400.72,-59.59 408.48,-57.66 415.77,-56 484.5,-40.34 565.44,-25.51 611.57,-17.4"/>
<polygon fill="#63b8ff" stroke="#63b8ff" points="612.05,-20.87 621.3,-15.7 610.85,-13.97 612.05,-20.87"/>
</g>
</g>
</svg>
        <g id="navigator" transform="translate(0 0)" fill="#404254">
                <rect fill="#f2f5e9" fill-opacity="0.5" stroke="#606060" stroke-width=".5" x="0" y="0" width="60" height="60"/>
                <use id="zoomplus" xlink:href="#zoomPlus" x="17" y="9" onmousedown="handleZoom(evt,'in')"/>
                <use id="zoomminus" xlink:href="#zoomMin" x="42" y="9" onmousedown="handleZoom(evt,'out')"/>
                <use id="reset" xlink:href="#resetDef" x="30" y="36" onmousedown="handleReset()"/>
                <g id="arrowUp" xlink:href="#dirArrow" transform="translate(30 24)" onmousedown="handlePan(0,-1)">
                  <use xlink:href="#rim" fill="#404040">
                        <set attributeName="fill" to="#808080" begin="arrowUp.mouseover" end="arrowUp.mouseout"/>
                  </use>
                  <path fill="none" stroke="white" stroke-width="1.5" d="M0,-3.0v7 M-2.5,-0.5L0,-3.0L2.5,-0.5"/>
                </g>
                <g id="arrowRight" xlink:href="#dirArrow" transform="rotate(90) translate(36 -43)" onmousedown="handlePan(1,0)">
                  <use xlink:href="#rim" fill="#404040">
                        <set attributeName="fill" to="#808080" begin="arrowRight.mouseover" end="arrowRight.mouseout"/>
                  </use>
                  <path fill="none" stroke="white" stroke-width="1.5" d="M0,-3.0v7 M-2.5,-0.5L0,-3.0L2.5,-0.5"/>
                </g>
                <g id="arrowDown" xlink:href="#dirArrow" transform="rotate(180) translate(-30 -48)" onmousedown="handlePan(0,1)">
                  <use xlink:href="#rim" fill="#404040">
                        <set attributeName="fill" to="#808080" begin="arrowDown.mouseover" end="arrowDown.mouseout"/>
                  </use>
                  <path fill="none" stroke="white" stroke-width="1.5" d="M0,-3.0v7 M-2.5,-0.5L0,-3.0L2.5,-0.5"/>
                </g>
                <g id="arrowLeft" xlink:href="#dirArrow" transform="rotate(270) translate(-36 17)" onmousedown="handlePan(-1,0)">
                  <use xlink:href="#rim" fill="#404040">
                        <set attributeName="fill" to="#808080" begin="arrowLeft.mouseover" end="arrowLeft.mouseout"/>
                  </use>
                  <path fill="none" stroke="white" stroke-width="1.5" d="M0,-3.0v7 M-2.5,-0.5L0,-3.0L2.5,-0.5"/>
                </g>
        </g>
        <svg viewBox="0 0 15 15" width="100%" height="30px" preserveAspectRatio="xMaxYMin meet">
         <g id="arrow_out" transform="scale(0.3 0.3)">
          <a xlink:href="FMTtransitionparser_8hpp__incl_org.svg" target="_base">
           <rect id="button" ry="5" rx="5" y="6" x="6" height="38" width="38"
                fill="#f2f5e9" fill-opacity="0.5" stroke="#606060" stroke-width="1.0"/>
           <path id="arrow"
             d="M 11.500037,31.436501 C 11.940474,20.09759 22.043105,11.32322 32.158766,21.979434 L 37.068811,17.246167 C 37.068811,17.246167 37.088388,32 37.088388,32 L 22.160133,31.978069 C 22.160133,31.978069 26.997745,27.140456 26.997745,27.140456 C 18.528582,18.264221 13.291696,25.230495 11.500037,31.436501 z"
             style="fill:#404040;"/>
          </a>
         </g>
        </svg>
</svg>
