<?xml version="1.0" encoding="UTF-8" standalone="no"?>
<!DOCTYPE svg PUBLIC "-//W3C//DTD SVG 1.1//EN"
 "http://www.w3.org/Graphics/SVG/1.1/DTD/svg11.dtd">
<!-- Generated by graphviz version 8.1.0 (20230707.0739)
 -->
<!-- Title: C:/Users/CYRGU3/OneDrive &#45; BuroVirtuel/Bureau/FMT/FMT/Include/FMTtransition.hpp Pages: 1 -->
<!--zoomable 692 -->

<svg id="main" version="1.1" xmlns="http://www.w3.org/2000/svg" xmlns:xlink="http://www.w3.org/1999/xlink" xml:space="preserve" onload="init(evt)">
<style type="text/css"><![CDATA[
.node, .edge {opacity: 0.7;}
.node.selected, .edge.selected {opacity: 1;}
.edge:hover path { stroke: red; }
.edge:hover polygon { stroke: red; fill: red; }
]]></style>

<defs>
  <circle id="rim" cx="0" cy="0" r="7"/>
  <circle id="rim2" cx="0" cy="0" r="3.5"/>
  <g id="zoomPlus">
    <use xlink:href="#rim" fill="#404040"><set attributeName="fill" to="#808080" begin="zoomplus.mouseover" end="zoomplus.mouseout"/></use>
    <path d="M-4,0h8M0,-4v8" fill="none" stroke="white" stroke-width="1.5" pointer-events="none"/>
  </g>
  <g id="zoomMin">
    <use xlink:href="#rim" fill="#404040"><set attributeName="fill" to="#808080" begin="zoomminus.mouseover" end="zoomminus.mouseout"/></use>
    <path d="M-4,0h8" fill="none" stroke="white" stroke-width="1.5" pointer-events="none"/>
  </g>
  <g id="arrowUp" transform="translate(30 24)">
    <use xlink:href="#rim"/>
    <path pointer-events="none" fill="none" stroke="white" stroke-width="1.5" d="M0,-3.0v7 M-2.5,-0.5L0,-3.0L2.5,-0.5"/>
  </g>
  <g id="arrowRight" transform="rotate(90) translate(36 -43)">
    <use xlink:href="#rim"/>
    <path pointer-events="none" fill="none" stroke="white" stroke-width="1.5" d="M0,-3.0v7 M-2.5,-0.5L0,-3.0L2.5,-0.5"/>
  </g>
  <g id="arrowDown" transform="rotate(180) translate(-30 -48)">
    <use xlink:href="#rim"/>
    <path pointer-events="none" fill="none" stroke="white" stroke-width="1.5" d="M0,-3.0v7 M-2.5,-0.5L0,-3.0L2.5,-0.5"/>
  </g>
  <g id="arrowLeft" transform="rotate(270) translate(-36 17)">
    <use xlink:href="#rim"/>
    <path pointer-events="none" fill="none" stroke="white" stroke-width="1.5" d="M0,-3.0v7 M-2.5,-0.5L0,-3.0L2.5,-0.5"/>
  </g>
  <g id="resetDef">
    <use xlink:href="#rim2" fill="#404040"><set attributeName="fill" to="#808080" begin="reset.mouseover" end="reset.mouseout"/></use>
  </g>
</defs>
<script type="application/ecmascript">
var viewWidth = 2055;
var viewHeight = 692;
var sectionId = 'dynsection-1';
</script>
<script type="application/ecmascript" xlink:href="svg.min.js"/>
<svg id="graph" class="graph">
<g id="viewport">
<title>C:/Users/CYRGU3/OneDrive &#45; BuroVirtuel/Bureau/FMT/FMT/Include/FMTtransition.hpp</title>
<!-- Node1 -->
<g id="Node000001" class="node">
<title>Node1</title>
<g id="a_Node000001"><a xlink:title=" ">
<polygon fill="#999999" stroke="#666666" points="1827.62,-684 1674.38,-684 1674.38,-640 1827.62,-640 1827.62,-684"/>
<text text-anchor="start" x="1682.38" y="-670.5" font-family="Helvetica,sans-Serif" font-size="10.00">C:/Users/CYRGU3/OneDrive</text>
<text text-anchor="start" x="1682.38" y="-658.5" font-family="Helvetica,sans-Serif" font-size="10.00"> &#45; BuroVirtuel/Bureau/FMT</text>
<text text-anchor="middle" x="1751" y="-646.5" font-family="Helvetica,sans-Serif" font-size="10.00">/FMT/Include/FMTtransition.hpp</text>
</a>
</g>
</g>
<!-- Node2 -->
<g id="Node000002" class="node">
<title>Node2</title>
<g id="a_Node000002"><a xlink:href="FMTmodel_8hpp.html" target="_top" xlink:title=" ">
<polygon fill="white" stroke="#666666" points="825.88,-604 686.12,-604 686.12,-560 825.88,-560 825.88,-604"/>
<text text-anchor="start" x="694.12" y="-590.5" font-family="Helvetica,sans-Serif" font-size="10.00">C:/Users/CYRGU3/OneDrive</text>
<text text-anchor="start" x="694.12" y="-578.5" font-family="Helvetica,sans-Serif" font-size="10.00"> &#45; BuroVirtuel/Bureau/FMT</text>
<text text-anchor="middle" x="756" y="-566.5" font-family="Helvetica,sans-Serif" font-size="10.00">/FMT/Include/FMTmodel.hpp</text>
</a>
</g>
</g>
<!-- Node1&#45;&gt;Node2 -->
<g id="edge1_Node000001_Node000002" class="edge">
<title>Node1&#45;&gt;Node2</title>
<g id="a_edge1_Node000001_Node000002"><a xlink:title=" ">
<path fill="none" stroke="#63b8ff" d="M1663.42,-654.13C1468.78,-638.88 1003.5,-602.4 826.23,-588.51"/>
<polygon fill="#63b8ff" stroke="#63b8ff" points="1662.92,-657.68 1673.16,-654.98 1663.47,-650.71 1662.92,-657.68"/>
</a>
</g>
</g>
<!-- Node9 -->
<g id="Node000009" class="node">
<title>Node9</title>
<g id="a_Node000009"><a xlink:href="Rdeclarations_8hpp.html" target="_top" xlink:title=" ">
<polygon fill="white" stroke="#666666" points="971.62,-124 818.38,-124 818.38,-80 971.62,-80 971.62,-124"/>
<text text-anchor="start" x="826.38" y="-110.5" font-family="Helvetica,sans-Serif" font-size="10.00">C:/Users/CYRGU3/OneDrive</text>
<text text-anchor="start" x="826.38" y="-98.5" font-family="Helvetica,sans-Serif" font-size="10.00"> &#45; BuroVirtuel/Bureau/FMT</text>
<text text-anchor="middle" x="895" y="-86.5" font-family="Helvetica,sans-Serif" font-size="10.00">/FMT/Include/Rdeclarations.hpp</text>
</a>
</g>
</g>
<!-- Node1&#45;&gt;Node9 -->
<g id="edge57_Node000001_Node000009" class="edge">
<title>Node1&#45;&gt;Node9</title>
<g id="a_edge57_Node000001_Node000009"><a xlink:title=" ">
<path fill="none" stroke="#63b8ff" d="M1730.75,-630.39C1725.97,-622.1 1721.32,-612.94 1718,-604 1702.11,-561.18 1699,-548.68 1699,-503 1699,-503 1699,-503 1699,-341 1699,-190.33 1173.33,-127.71 972.09,-109.26"/>
<polygon fill="#63b8ff" stroke="#63b8ff" points="1728.17,-631.9 1736.33,-638.66 1734.17,-628.29 1728.17,-631.9"/>
</a>
</g>
</g>
<!-- Node26 -->
<g id="Node000026" class="node">
<title>Node26</title>
<g id="a_Node000026"><a xlink:href="PYexportCore_8hpp.html" target="_top" xlink:title=" ">
<polygon fill="white" stroke="#666666" points="1881.38,-604 1726.62,-604 1726.62,-560 1881.38,-560 1881.38,-604"/>
<text text-anchor="start" x="1734.62" y="-590.5" font-family="Helvetica,sans-Serif" font-size="10.00">C:/Users/CYRGU3/OneDrive</text>
<text text-anchor="start" x="1734.62" y="-578.5" font-family="Helvetica,sans-Serif" font-size="10.00"> &#45; BuroVirtuel/Bureau/FMT</text>
<text text-anchor="middle" x="1804" y="-566.5" font-family="Helvetica,sans-Serif" font-size="10.00">/FMT/Include/PYexportCore.hpp</text>
</a>
</g>
</g>
<!-- Node1&#45;&gt;Node26 -->
<g id="edge56_Node000001_Node000026" class="edge">
<title>Node1&#45;&gt;Node26</title>
<g id="a_edge56_Node000001_Node000026"><a xlink:title=" ">
<path fill="none" stroke="#63b8ff" d="M1771.53,-630.78C1777.54,-621.93 1783.99,-612.45 1789.54,-604.29"/>
<polygon fill="#63b8ff" stroke="#63b8ff" points="1768.21,-628.45 1765.48,-638.69 1774,-632.38 1768.21,-628.45"/>
</a>
</g>
</g>
<!-- Node27 -->
<g id="Node000027" class="node">
<title>Node27</title>
<g id="a_Node000027"><a xlink:href="RexportCore_8hpp.html" target="_top" xlink:title=" ">
<polygon fill="white" stroke="#666666" points="2047,-604 1899,-604 1899,-560 2047,-560 2047,-604"/>
<text text-anchor="start" x="1907" y="-590.5" font-family="Helvetica,sans-Serif" font-size="10.00">C:/Users/CYRGU3/OneDrive</text>
<text text-anchor="start" x="1907" y="-578.5" font-family="Helvetica,sans-Serif" font-size="10.00"> &#45; BuroVirtuel/Bureau/FMT</text>
<text text-anchor="middle" x="1973" y="-566.5" font-family="Helvetica,sans-Serif" font-size="10.00">/FMT/Include/RexportCore.hpp</text>
</a>
</g>
</g>
<!-- Node1&#45;&gt;Node27 -->
<g id="edge58_Node000001_Node000027" class="edge">
<title>Node1&#45;&gt;Node27</title>
<g id="a_edge58_Node000001_Node000027"><a xlink:title=" ">
<path fill="none" stroke="#63b8ff" d="M1822.03,-636.04C1851.06,-625.84 1884.3,-614.17 1912.18,-604.37"/>
<polygon fill="#63b8ff" stroke="#63b8ff" points="1821.23,-632.97 1812.96,-639.58 1823.55,-639.57 1821.23,-632.97"/>
</a>
</g>
</g>
<!-- Node3 -->
<g id="Node000003" class="node">
<title>Node3</title>
<g id="a_Node000003"><a xlink:href="FMTgraph_8hpp.html" target="_top" xlink:title=" ">
<polygon fill="white" stroke="#666666" points="1229.5,-524 1090.5,-524 1090.5,-480 1229.5,-480 1229.5,-524"/>
<text text-anchor="start" x="1098.5" y="-510.5" font-family="Helvetica,sans-Serif" font-size="10.00">C:/Users/CYRGU3/OneDrive</text>
<text text-anchor="start" x="1098.5" y="-498.5" font-family="Helvetica,sans-Serif" font-size="10.00"> &#45; BuroVirtuel/Bureau/FMT</text>
<text text-anchor="middle" x="1160" y="-486.5" font-family="Helvetica,sans-Serif" font-size="10.00">/FMT/Include/FMTgraph.hpp</text>
</a>
</g>
</g>
<!-- Node2&#45;&gt;Node3 -->
<g id="edge2_Node000002_Node000003" class="edge">
<title>Node2&#45;&gt;Node3</title>
<g id="a_edge2_Node000002_Node000003"><a xlink:title=" ">
<path fill="none" stroke="#63b8ff" d="M836.82,-568.81C902.81,-558.38 998.33,-542.2 1081,-524 1084.05,-523.33 1087.16,-522.62 1090.29,-521.88"/>
<polygon fill="#63b8ff" stroke="#63b8ff" points="836.41,-565.49 827.08,-570.5 837.5,-572.4 836.41,-565.49"/>
</a>
</g>
</g>
<!-- Node6 -->
<g id="Node000006" class="node">
<title>Node6</title>
<g id="a_Node000006"><a xlink:href="FMTsemodel_8hpp.html" target="_top" xlink:title=" ">
<polygon fill="white" stroke="#666666" points="824.12,-284 673.88,-284 673.88,-240 824.12,-240 824.12,-284"/>
<text text-anchor="start" x="681.88" y="-270.5" font-family="Helvetica,sans-Serif" font-size="10.00">C:/Users/CYRGU3/OneDrive</text>
<text text-anchor="start" x="681.88" y="-258.5" font-family="Helvetica,sans-Serif" font-size="10.00"> &#45; BuroVirtuel/Bureau/FMT</text>
<text text-anchor="middle" x="749" y="-246.5" font-family="Helvetica,sans-Serif" font-size="10.00">/FMT/Include/FMTsemodel.hpp</text>
</a>
</g>
</g>
<!-- Node2&#45;&gt;Node6 -->
<g id="edge49_Node000002_Node000006" class="edge">
<title>Node2&#45;&gt;Node6</title>
<g id="a_edge49_Node000002_Node000006"><a xlink:title=" ">
<path fill="none" stroke="#63b8ff" d="M709.47,-552.94C699.99,-544.86 691.31,-535.17 686,-524 646.38,-440.64 705.73,-330.1 734.66,-284.28"/>
<polygon fill="#63b8ff" stroke="#63b8ff" points="706.91,-556.17 716.93,-559.61 711.25,-550.67 706.91,-556.17"/>
</a>
</g>
</g>
<!-- Node8 -->
<g id="Node000008" class="node">
<title>Node8</title>
<g id="a_Node000008"><a xlink:href="PYexportModel_8hpp.html" target="_top" xlink:title=" ">
<polygon fill="white" stroke="#666666" points="336.38,-124 175.62,-124 175.62,-80 336.38,-80 336.38,-124"/>
<text text-anchor="start" x="183.62" y="-110.5" font-family="Helvetica,sans-Serif" font-size="10.00">C:/Users/CYRGU3/OneDrive</text>
<text text-anchor="start" x="183.62" y="-98.5" font-family="Helvetica,sans-Serif" font-size="10.00"> &#45; BuroVirtuel/Bureau/FMT</text>
<text text-anchor="middle" x="256" y="-86.5" font-family="Helvetica,sans-Serif" font-size="10.00">/FMT/Include/PYexportModel.hpp</text>
</a>
</g>
</g>
<!-- Node2&#45;&gt;Node8 -->
<g id="edge51_Node000002_Node000008" class="edge">
<title>Node2&#45;&gt;Node8</title>
<g id="a_edge51_Node000002_Node000008"><a xlink:title=" ">
<path fill="none" stroke="#63b8ff" d="M674.99,-578.02C505.39,-571.25 124.32,-552.99 73,-524 24.77,-496.76 0,-478.39 0,-423 0,-423 0,-423 0,-261 0,-211.67 8.41,-191.94 46,-160 81.92,-129.49 132.7,-115.18 175.32,-108.52"/>
<polygon fill="#63b8ff" stroke="#63b8ff" points="674.72,-581.56 684.85,-578.45 675,-574.56 674.72,-581.56"/>
</a>
</g>
</g>
<!-- Node2&#45;&gt;Node9 -->
<g id="edge53_Node000002_Node000009" class="edge">
<title>Node2&#45;&gt;Node9</title>
<g id="a_edge53_Node000002_Node000009"><a xlink:title=" ">
<path fill="none" stroke="#63b8ff" d="M731.92,-550.9C726.63,-542.64 721.77,-533.37 719,-524 713.45,-505.25 714.7,-499.08 719,-480 736.31,-403.2 745.43,-381.16 795,-320 848.51,-253.98 909.31,-280.17 947,-204 955.67,-186.47 954.07,-178.23 947,-160 941.72,-146.39 931.51,-134.03 921.53,-124.33"/>
<polygon fill="#63b8ff" stroke="#63b8ff" points="729.45,-552.49 738,-558.75 735.22,-548.52 729.45,-552.49"/>
</a>
</g>
</g>
<!-- Node10 -->
<g id="Node000010" class="node">
<title>Node10</title>
<g id="a_Node000010"><a xlink:href="RexportModel_8hpp.html" target="_top" xlink:title=" ">
<polygon fill="white" stroke="#666666" points="508,-124 354,-124 354,-80 508,-80 508,-124"/>
<text text-anchor="start" x="362" y="-110.5" font-family="Helvetica,sans-Serif" font-size="10.00">C:/Users/CYRGU3/OneDrive</text>
<text text-anchor="start" x="362" y="-98.5" font-family="Helvetica,sans-Serif" font-size="10.00"> &#45; BuroVirtuel/Bureau/FMT</text>
<text text-anchor="middle" x="431" y="-86.5" font-family="Helvetica,sans-Serif" font-size="10.00">/FMT/Include/RexportModel.hpp</text>
</a>
</g>
</g>
<!-- Node2&#45;&gt;Node10 -->
<g id="edge54_Node000002_Node000010" class="edge">
<title>Node2&#45;&gt;Node10</title>
<g id="a_edge54_Node000002_Node000010"><a xlink:title=" ">
<path fill="none" stroke="#63b8ff" d="M674.94,-580.11C487.11,-575.87 38,-552.21 38,-423 38,-423 38,-423 38,-261 38,-111.59 199.02,-155.85 345,-124 347.85,-123.38 350.76,-122.73 353.69,-122.07"/>
<polygon fill="#63b8ff" stroke="#63b8ff" points="674.78,-583.63 684.85,-580.34 674.92,-576.63 674.78,-583.63"/>
</a>
</g>
</g>
<!-- Node12 -->
<g id="Node000012" class="node">
<title>Node12</title>
<g id="a_Node000012"><a xlink:href="FMTpythonpickle_8hpp.html" target="_top" xlink:title=" ">
<polygon fill="white" stroke="#666666" points="1729.12,-124 1560.88,-124 1560.88,-80 1729.12,-80 1729.12,-124"/>
<text text-anchor="start" x="1568.88" y="-110.5" font-family="Helvetica,sans-Serif" font-size="10.00">C:/Users/CYRGU3/OneDrive</text>
<text text-anchor="start" x="1568.88" y="-98.5" font-family="Helvetica,sans-Serif" font-size="10.00"> &#45; BuroVirtuel/Bureau/FMT</text>
<text text-anchor="middle" x="1645" y="-86.5" font-family="Helvetica,sans-Serif" font-size="10.00">/FMT/Include/FMTpythonpickle.hpp</text>
</a>
</g>
</g>
<!-- Node2&#45;&gt;Node12 -->
<g id="edge48_Node000002_Node000012" class="edge">
<title>Node2&#45;&gt;Node12</title>
<g id="a_edge48_Node000002_Node000012"><a xlink:title=" ">
<path fill="none" stroke="#63b8ff" d="M837.18,-575.34C1059.38,-558.77 1661,-506.23 1661,-423 1661,-423 1661,-423 1661,-261 1661,-211.92 1653.26,-154.71 1648.55,-124.4"/>
<polygon fill="#63b8ff" stroke="#63b8ff" points="836.98,-571.92 827.26,-576.15 837.49,-578.9 836.98,-571.92"/>
</a>
</g>
</g>
<!-- Node19 -->
<g id="Node000019" class="node">
<title>Node19</title>
<g id="a_Node000019"><a xlink:href="FMTsrmodel_8hpp.html" target="_top" xlink:title=" ">
<polygon fill="white" stroke="#666666" points="656,-284 508,-284 508,-240 656,-240 656,-284"/>
<text text-anchor="start" x="516" y="-270.5" font-family="Helvetica,sans-Serif" font-size="10.00">C:/Users/CYRGU3/OneDrive</text>
<text text-anchor="start" x="516" y="-258.5" font-family="Helvetica,sans-Serif" font-size="10.00"> &#45; BuroVirtuel/Bureau/FMT</text>
<text text-anchor="middle" x="582" y="-246.5" font-family="Helvetica,sans-Serif" font-size="10.00">/FMT/Include/FMTsrmodel.hpp</text>
</a>
</g>
</g>
<!-- Node2&#45;&gt;Node19 -->
<g id="edge50_Node000002_Node000019" class="edge">
<title>Node2&#45;&gt;Node19</title>
<g id="a_edge50_Node000002_Node000019"><a xlink:title=" ">
<path fill="none" stroke="#63b8ff" d="M703.55,-553.6C691.57,-545.39 679.79,-535.46 671,-524 612.87,-448.22 591.29,-332.04 584.6,-284.45"/>
<polygon fill="#63b8ff" stroke="#63b8ff" points="701.41,-557.04 711.7,-559.55 705.22,-551.17 701.41,-557.04"/>
</a>
</g>
</g>
<!-- Node24 -->
<g id="Node000024" class="node">
<title>Node24</title>
<g id="a_Node000024"><a xlink:href="PYexportParallel_8hpp.html" target="_top" xlink:title=" ">
<polygon fill="white" stroke="#666666" points="894.38,-524 727.62,-524 727.62,-480 894.38,-480 894.38,-524"/>
<text text-anchor="start" x="735.62" y="-510.5" font-family="Helvetica,sans-Serif" font-size="10.00">C:/Users/CYRGU3/OneDrive</text>
<text text-anchor="start" x="735.62" y="-498.5" font-family="Helvetica,sans-Serif" font-size="10.00"> &#45; BuroVirtuel/Bureau/FMT</text>
<text text-anchor="middle" x="811" y="-486.5" font-family="Helvetica,sans-Serif" font-size="10.00">/FMT/Include/PYexportParallel.hpp</text>
</a>
</g>
</g>
<!-- Node2&#45;&gt;Node24 -->
<g id="edge52_Node000002_Node000024" class="edge">
<title>Node2&#45;&gt;Node24</title>
<g id="a_edge52_Node000002_Node000024"><a xlink:title=" ">
<path fill="none" stroke="#63b8ff" d="M777.31,-550.78C783.55,-541.93 790.23,-532.45 795.99,-524.29"/>
<polygon fill="#63b8ff" stroke="#63b8ff" points="773.93,-548.5 771.03,-558.69 779.65,-552.53 773.93,-548.5"/>
</a>
</g>
</g>
<!-- Node25 -->
<g id="Node000025" class="node">
<title>Node25</title>
<g id="a_Node000025"><a xlink:href="RexportParallel_8hpp.html" target="_top" xlink:title=" ">
<polygon fill="white" stroke="#666666" points="1072,-524 912,-524 912,-480 1072,-480 1072,-524"/>
<text text-anchor="start" x="920" y="-510.5" font-family="Helvetica,sans-Serif" font-size="10.00">C:/Users/CYRGU3/OneDrive</text>
<text text-anchor="start" x="920" y="-498.5" font-family="Helvetica,sans-Serif" font-size="10.00"> &#45; BuroVirtuel/Bureau/FMT</text>
<text text-anchor="middle" x="992" y="-486.5" font-family="Helvetica,sans-Serif" font-size="10.00">/FMT/Include/RexportParallel.hpp</text>
</a>
</g>
</g>
<!-- Node2&#45;&gt;Node25 -->
<g id="edge55_Node000002_Node000025" class="edge">
<title>Node2&#45;&gt;Node25</title>
<g id="a_edge55_Node000002_Node000025"><a xlink:title=" ">
<path fill="none" stroke="#63b8ff" d="M831.11,-556.18C862.06,-545.95 897.57,-534.21 927.34,-524.37"/>
<polygon fill="#63b8ff" stroke="#63b8ff" points="830.2,-553.12 821.8,-559.58 832.39,-559.77 830.2,-553.12"/>
</a>
</g>
</g>
<!-- Node4 -->
<g id="Node000004" class="node">
<title>Node4</title>
<g id="a_Node000004"><a xlink:href="FMTlinegraph_8hpp.html" target="_top" xlink:title=" ">
<polygon fill="white" stroke="#666666" points="990.25,-444 837.75,-444 837.75,-400 990.25,-400 990.25,-444"/>
<text text-anchor="start" x="845.75" y="-430.5" font-family="Helvetica,sans-Serif" font-size="10.00">C:/Users/CYRGU3/OneDrive</text>
<text text-anchor="start" x="845.75" y="-418.5" font-family="Helvetica,sans-Serif" font-size="10.00"> &#45; BuroVirtuel/Bureau/FMT</text>
<text text-anchor="middle" x="914" y="-406.5" font-family="Helvetica,sans-Serif" font-size="10.00">/FMT/Include/FMTlinegraph.hpp</text>
</a>
</g>
</g>
<!-- Node3&#45;&gt;Node4 -->
<g id="edge3_Node000003_Node000004" class="edge">
<title>Node3&#45;&gt;Node4</title>
<g id="a_edge3_Node000003_Node000004"><a xlink:title=" ">
<path fill="none" stroke="#63b8ff" d="M1082.13,-476.31C1049.77,-466.05 1012.56,-454.25 981.4,-444.37"/>
<polygon fill="#63b8ff" stroke="#63b8ff" points="1080.86,-479.9 1091.45,-479.58 1082.98,-473.22 1080.86,-479.9"/>
</a>
</g>
</g>
<!-- Node14 -->
<g id="Node000014" class="node">
<title>Node14</title>
<g id="a_Node000014"><a xlink:href="RexportSpatial_8hpp.html" target="_top" xlink:title=" ">
<polygon fill="white" stroke="#666666" points="1199.88,-284 1042.12,-284 1042.12,-240 1199.88,-240 1199.88,-284"/>
<text text-anchor="start" x="1050.12" y="-270.5" font-family="Helvetica,sans-Serif" font-size="10.00">C:/Users/CYRGU3/OneDrive</text>
<text text-anchor="start" x="1050.12" y="-258.5" font-family="Helvetica,sans-Serif" font-size="10.00"> &#45; BuroVirtuel/Bureau/FMT</text>
<text text-anchor="middle" x="1121" y="-246.5" font-family="Helvetica,sans-Serif" font-size="10.00">/FMT/Include/RexportSpatial.hpp</text>
</a>
</g>
</g>
<!-- Node3&#45;&gt;Node14 -->
<g id="edge47_Node000003_Node000014" class="edge">
<title>Node3&#45;&gt;Node14</title>
<g id="a_edge47_Node000003_Node000014"><a xlink:title=" ">
<path fill="none" stroke="#63b8ff" d="M1088.16,-475.4C1064.99,-465.59 1043.57,-454.28 1037,-444 1026.47,-427.52 1030.65,-418.5 1037,-400 1043.58,-380.83 1053.83,-380.91 1065,-364 1082.46,-337.57 1099.7,-305.29 1110.34,-284.45"/>
<polygon fill="#63b8ff" stroke="#63b8ff" points="1086.58,-478.94 1097.16,-479.5 1089.24,-472.47 1086.58,-478.94"/>
</a>
</g>
</g>
<!-- Node15 -->
<g id="Node000015" class="node">
<title>Node15</title>
<g id="a_Node000015"><a xlink:href="FMToperatingareascheme_8hpp.html" target="_top" xlink:title=" ">
<polygon fill="white" stroke="#666666" points="1983.25,-284 1776.75,-284 1776.75,-240 1983.25,-240 1983.25,-284"/>
<text text-anchor="start" x="1784.75" y="-270.5" font-family="Helvetica,sans-Serif" font-size="10.00">C:/Users/CYRGU3/OneDrive</text>
<text text-anchor="start" x="1784.75" y="-258.5" font-family="Helvetica,sans-Serif" font-size="10.00"> &#45; BuroVirtuel/Bureau/FMT</text>
<text text-anchor="middle" x="1880" y="-246.5" font-family="Helvetica,sans-Serif" font-size="10.00">/FMT/Include/FMToperatingareascheme.hpp</text>
</a>
</g>
</g>
<!-- Node3&#45;&gt;Node15 -->
<g id="edge22_Node000003_Node000015" class="edge">
<title>Node3&#45;&gt;Node15</title>
<g id="a_edge22_Node000003_Node000015"><a xlink:title=" ">
<path fill="none" stroke="#63b8ff" d="M1240.78,-501.41C1331.79,-499.45 1482.82,-488.79 1604,-444 1706.93,-405.95 1810.31,-323.55 1855.87,-284.43"/>
<polygon fill="#63b8ff" stroke="#63b8ff" points="1240.92,-497.93 1230.98,-501.61 1241.05,-504.93 1240.92,-497.93"/>
</a>
</g>
</g>
<!-- Node18 -->
<g id="Node000018" class="node">
<title>Node18</title>
<g id="a_Node000018"><a xlink:href="FMToutputnodecache_8hpp.html" target="_top" xlink:title=" ">
<polygon fill="white" stroke="#666666" points="1233.88,-444 1046.12,-444 1046.12,-400 1233.88,-400 1233.88,-444"/>
<text text-anchor="start" x="1054.12" y="-430.5" font-family="Helvetica,sans-Serif" font-size="10.00">C:/Users/CYRGU3/OneDrive</text>
<text text-anchor="start" x="1054.12" y="-418.5" font-family="Helvetica,sans-Serif" font-size="10.00"> &#45; BuroVirtuel/Bureau/FMT</text>
<text text-anchor="middle" x="1140" y="-406.5" font-family="Helvetica,sans-Serif" font-size="10.00">/FMT/Include/FMToutputnodecache.hpp</text>
</a>
</g>
</g>
<!-- Node3&#45;&gt;Node18 -->
<g id="edge30_Node000003_Node000018" class="edge">
<title>Node3&#45;&gt;Node18</title>
<g id="a_edge30_Node000003_Node000018"><a xlink:title=" ">
<path fill="none" stroke="#63b8ff" d="M1145.25,-469.38C1142.84,-460.94 1140.73,-452.02 1139.37,-444.29"/>
<polygon fill="#63b8ff" stroke="#63b8ff" points="1142.14,-470.17 1148.44,-478.69 1148.83,-468.1 1142.14,-470.17"/>
</a>
</g>
</g>
<!-- Node3&#45;&gt;Node19 -->
<g id="edge32_Node000003_Node000019" class="edge">
<title>Node3&#45;&gt;Node19</title>
<g id="a_edge32_Node000003_Node000019"><a xlink:title=" ">
<path fill="none" stroke="#63b8ff" d="M1079.63,-479.91C967.87,-459.14 930.59,-485.42 829,-444 734.73,-405.56 643.28,-323.35 603.18,-284.36"/>
<polygon fill="#63b8ff" stroke="#63b8ff" points="1078.83,-483.52 1089.32,-482 1080.17,-476.65 1078.83,-483.52"/>
</a>
</g>
</g>
<!-- Node22 -->
<g id="Node000022" class="node">
<title>Node22</title>
<g id="a_Node000022"><a xlink:href="PYexportGraph_8hpp.html" target="_top" xlink:title=" ">
<polygon fill="white" stroke="#666666" points="1412.38,-444 1251.62,-444 1251.62,-400 1412.38,-400 1412.38,-444"/>
<text text-anchor="start" x="1259.62" y="-430.5" font-family="Helvetica,sans-Serif" font-size="10.00">C:/Users/CYRGU3/OneDrive</text>
<text text-anchor="start" x="1259.62" y="-418.5" font-family="Helvetica,sans-Serif" font-size="10.00"> &#45; BuroVirtuel/Bureau/FMT</text>
<text text-anchor="middle" x="1332" y="-406.5" font-family="Helvetica,sans-Serif" font-size="10.00">/FMT/Include/PYexportGraph.hpp</text>
</a>
</g>
</g>
<!-- Node3&#45;&gt;Node22 -->
<g id="edge45_Node000003_Node000022" class="edge">
<title>Node3&#45;&gt;Node22</title>
<g id="a_edge45_Node000003_Node000022"><a xlink:title=" ">
<path fill="none" stroke="#63b8ff" d="M1216.88,-475.2C1238.88,-465.23 1263.77,-453.94 1284.76,-444.42"/>
<polygon fill="#63b8ff" stroke="#63b8ff" points="1215.66,-472.37 1208,-479.69 1218.55,-478.74 1215.66,-472.37"/>
</a>
</g>
</g>
<!-- Node23 -->
<g id="Node000023" class="node">
<title>Node23</title>
<g id="a_Node000023"><a xlink:href="PYexportSpatial_8hpp.html" target="_top" xlink:title=" ">
<polygon fill="white" stroke="#666666" points="1595.25,-444 1430.75,-444 1430.75,-400 1595.25,-400 1595.25,-444"/>
<text text-anchor="start" x="1438.75" y="-430.5" font-family="Helvetica,sans-Serif" font-size="10.00">C:/Users/CYRGU3/OneDrive</text>
<text text-anchor="start" x="1438.75" y="-418.5" font-family="Helvetica,sans-Serif" font-size="10.00"> &#45; BuroVirtuel/Bureau/FMT</text>
<text text-anchor="middle" x="1513" y="-406.5" font-family="Helvetica,sans-Serif" font-size="10.00">/FMT/Include/PYexportSpatial.hpp</text>
</a>
</g>
</g>
<!-- Node3&#45;&gt;Node23 -->
<g id="edge46_Node000003_Node000023" class="edge">
<title>Node3&#45;&gt;Node23</title>
<g id="a_edge46_Node000003_Node000023"><a xlink:title=" ">
<path fill="none" stroke="#63b8ff" d="M1240.58,-483.61C1292.19,-472.42 1360.57,-457.5 1421,-444 1424.04,-443.32 1427.13,-442.63 1430.26,-441.93"/>
<polygon fill="#63b8ff" stroke="#63b8ff" points="1239.86,-480.4 1230.83,-485.94 1241.34,-487.24 1239.86,-480.4"/>
</a>
</g>
</g>
<!-- Node5 -->
<g id="Node000005" class="node">
<title>Node5</title>
<g id="a_Node000005"><a xlink:href="FMTspatialschedule_8hpp.html" target="_top" xlink:title=" ">
<polygon fill="white" stroke="#666666" points="985.5,-364 804.5,-364 804.5,-320 985.5,-320 985.5,-364"/>
<text text-anchor="start" x="812.5" y="-350.5" font-family="Helvetica,sans-Serif" font-size="10.00">C:/Users/CYRGU3/OneDrive</text>
<text text-anchor="start" x="812.5" y="-338.5" font-family="Helvetica,sans-Serif" font-size="10.00"> &#45; BuroVirtuel/Bureau/FMT</text>
<text text-anchor="middle" x="895" y="-326.5" font-family="Helvetica,sans-Serif" font-size="10.00">/FMT/Include/FMTspatialschedule.hpp</text>
</a>
</g>
</g>
<!-- Node4&#45;&gt;Node5 -->
<g id="edge4_Node000004_Node000005" class="edge">
<title>Node4&#45;&gt;Node5</title>
<g id="a_edge4_Node000004_Node000005"><a xlink:title=" ">
<path fill="none" stroke="#63b8ff" d="M906.23,-389.1C904.19,-380.74 902.05,-371.94 900.19,-364.29"/>
<polygon fill="#63b8ff" stroke="#63b8ff" points="903.04,-389.8 908.81,-398.69 909.84,-388.14 903.04,-389.8"/>
</a>
</g>
</g>
<!-- Node4&#45;&gt;Node9 -->
<g id="edge20_Node000004_Node000009" class="edge">
<title>Node4&#45;&gt;Node9</title>
<g id="a_edge20_Node000004_Node000009"><a xlink:title=" ">
<path fill="none" stroke="#63b8ff" d="M968.07,-393.56C978.8,-385.54 988.69,-375.7 995,-364 1038.04,-284.17 1046.37,-237.94 1000,-160 990.77,-144.49 975.69,-132.94 959.8,-124.45"/>
<polygon fill="#63b8ff" stroke="#63b8ff" points="966.57,-391.04 960.34,-399.62 970.55,-396.8 966.57,-391.04"/>
</a>
</g>
</g>
<!-- Node4&#45;&gt;Node14 -->
<g id="edge21_Node000004_Node000014" class="edge">
<title>Node4&#45;&gt;Node14</title>
<g id="a_edge21_Node000004_Node000014"><a xlink:title=" ">
<path fill="none" stroke="#63b8ff" d="M976.15,-395C993.68,-386.34 1012.26,-375.84 1028,-364 1058.85,-340.78 1087.9,-306.5 1105.07,-284.46"/>
<polygon fill="#63b8ff" stroke="#63b8ff" points="975.03,-392.13 967.53,-399.62 978.06,-398.44 975.03,-392.13"/>
</a>
</g>
</g>
<!-- Node5&#45;&gt;Node6 -->
<g id="edge5_Node000005_Node000006" class="edge">
<title>Node5&#45;&gt;Node6</title>
<g id="a_edge5_Node000005_Node000006"><a xlink:title=" ">
<path fill="none" stroke="#63b8ff" d="M845.45,-314.53C827.09,-304.72 806.52,-293.73 789.1,-284.42"/>
<polygon fill="#63b8ff" stroke="#63b8ff" points="843.64,-318.06 854.1,-319.69 846.93,-311.89 843.64,-318.06"/>
</a>
</g>
</g>
<!-- Node5&#45;&gt;Node14 -->
<g id="edge19_Node000005_Node000014" class="edge">
<title>Node5&#45;&gt;Node14</title>
<g id="a_edge19_Node000005_Node000014"><a xlink:title=" ">
<path fill="none" stroke="#63b8ff" d="M967.31,-316.04C996.86,-305.84 1030.7,-294.17 1059.08,-284.37"/>
<polygon fill="#63b8ff" stroke="#63b8ff" points="966.37,-313.01 958.05,-319.58 968.65,-319.63 966.37,-313.01"/>
</a>
</g>
</g>
<!-- Node7 -->
<g id="Node000007" class="node">
<title>Node7</title>
<g id="a_Node000007"><a xlink:href="FMTsamodel_8hpp.html" target="_top" xlink:title=" ">
<polygon fill="white" stroke="#666666" points="504.12,-204 353.88,-204 353.88,-160 504.12,-160 504.12,-204"/>
<text text-anchor="start" x="361.88" y="-190.5" font-family="Helvetica,sans-Serif" font-size="10.00">C:/Users/CYRGU3/OneDrive</text>
<text text-anchor="start" x="361.88" y="-178.5" font-family="Helvetica,sans-Serif" font-size="10.00"> &#45; BuroVirtuel/Bureau/FMT</text>
<text text-anchor="middle" x="429" y="-166.5" font-family="Helvetica,sans-Serif" font-size="10.00">/FMT/Include/FMTsamodel.hpp</text>
</a>
</g>
</g>
<!-- Node6&#45;&gt;Node7 -->
<g id="edge6_Node000006_Node000007" class="edge">
<title>Node6&#45;&gt;Node7</title>
<g id="a_edge6_Node000006_Node000007"><a xlink:title=" ">
<path fill="none" stroke="#63b8ff" d="M663.16,-239.57C595.83,-223.26 577.29,-219.65 513,-204 510.22,-203.32 507.4,-202.63 504.55,-201.93"/>
<polygon fill="#63b8ff" stroke="#63b8ff" points="661.91,-243.11 672.45,-242.07 663.56,-236.31 661.91,-243.11"/>
</a>
</g>
</g>
<!-- Node6&#45;&gt;Node8 -->
<g id="edge16_Node000006_Node000008" class="edge">
<title>Node6&#45;&gt;Node8</title>
<g id="a_edge16_Node000006_Node000008"><a xlink:title=" ">
<path fill="none" stroke="#63b8ff" d="M662.83,-240.23C574.51,-232.38 206.75,-242.45 171,-204 157.68,-189.68 161.8,-177.25 171,-160 179.03,-144.95 192.99,-133.17 207.3,-124.33"/>
<polygon fill="#63b8ff" stroke="#63b8ff" points="662.23,-243.8 672.57,-241.49 663.05,-236.85 662.23,-243.8"/>
</a>
</g>
</g>
<!-- Node6&#45;&gt;Node9 -->
<g id="edge17_Node000006_Node000009" class="edge">
<title>Node6&#45;&gt;Node9</title>
<g id="a_edge17_Node000006_Node000009"><a xlink:title=" ">
<path fill="none" stroke="#63b8ff" d="M835.27,-255.29C870.2,-248.21 907.32,-233.6 929,-204 946.6,-179.97 928.61,-146.22 912.84,-124.47"/>
<polygon fill="#63b8ff" stroke="#63b8ff" points="834.73,-252.01 825.52,-257.25 835.99,-258.89 834.73,-252.01"/>
</a>
</g>
</g>
<!-- Node6&#45;&gt;Node10 -->
<g id="edge18_Node000006_Node000010" class="edge">
<title>Node6&#45;&gt;Node10</title>
<g id="a_edge18_Node000006_Node000010"><a xlink:title=" ">
<path fill="none" stroke="#63b8ff" d="M735.28,-230.1C723.56,-207.28 704.54,-177.3 679,-160 628.52,-125.81 560.4,-111.92 508.32,-106.38"/>
<polygon fill="#63b8ff" stroke="#63b8ff" points="732.45,-231.26 740,-238.69 738.73,-228.17 732.45,-231.26"/>
</a>
</g>
</g>
<!-- Node11 -->
<g id="Node000011" class="node">
<title>Node11</title>
<g id="a_Node000011"><a xlink:href="FMTsesmodel_8hpp.html" target="_top" xlink:title=" ">
<polygon fill="white" stroke="#666666" points="919.75,-204 764.25,-204 764.25,-160 919.75,-160 919.75,-204"/>
<text text-anchor="start" x="772.25" y="-190.5" font-family="Helvetica,sans-Serif" font-size="10.00">C:/Users/CYRGU3/OneDrive</text>
<text text-anchor="start" x="772.25" y="-178.5" font-family="Helvetica,sans-Serif" font-size="10.00"> &#45; BuroVirtuel/Bureau/FMT</text>
<text text-anchor="middle" x="842" y="-166.5" font-family="Helvetica,sans-Serif" font-size="10.00">/FMT/Include/FMTsesmodel.hpp</text>
</a>
</g>
</g>
<!-- Node6&#45;&gt;Node11 -->
<g id="edge10_Node000006_Node000011" class="edge">
<title>Node6&#45;&gt;Node11</title>
<g id="a_edge10_Node000006_Node000011"><a xlink:title=" ">
<path fill="none" stroke="#63b8ff" d="M782.71,-232.72C793.9,-223.34 806.16,-213.06 816.62,-204.29"/>
<polygon fill="#63b8ff" stroke="#63b8ff" points="780.83,-230.58 775.41,-239.69 785.32,-235.94 780.83,-230.58"/>
</a>
</g>
</g>
<!-- Node7&#45;&gt;Node8 -->
<g id="edge7_Node000007_Node000008" class="edge">
<title>Node7&#45;&gt;Node8</title>
<g id="a_edge7_Node000007_Node000008"><a xlink:title=" ">
<path fill="none" stroke="#63b8ff" d="M371.79,-155.2C349.66,-145.23 324.63,-133.94 303.52,-124.42"/>
<polygon fill="#63b8ff" stroke="#63b8ff" points="370.17,-158.77 380.73,-159.69 373.05,-152.39 370.17,-158.77"/>
</a>
</g>
</g>
<!-- Node7&#45;&gt;Node9 -->
<g id="edge8_Node000007_Node000009" class="edge">
<title>Node7&#45;&gt;Node9</title>
<g id="a_edge8_Node000007_Node000009"><a xlink:title=" ">
<path fill="none" stroke="#63b8ff" d="M515.15,-159.65C625.68,-138.03 743.17,-121.77 818.16,-112.24"/>
<polygon fill="#63b8ff" stroke="#63b8ff" points="514.61,-156.39 505.48,-161.76 515.97,-163.26 514.61,-156.39"/>
</a>
</g>
</g>
<!-- Node7&#45;&gt;Node10 -->
<g id="edge9_Node000007_Node000010" class="edge">
<title>Node7&#45;&gt;Node10</title>
<g id="a_edge9_Node000007_Node000010"><a xlink:title=" ">
<path fill="none" stroke="#63b8ff" d="M429.83,-148.82C430.04,-140.54 430.26,-131.85 430.45,-124.29"/>
<polygon fill="#63b8ff" stroke="#63b8ff" points="426.3,-148.6 429.55,-158.69 433.3,-148.78 426.3,-148.6"/>
</a>
</g>
</g>
<!-- Node11&#45;&gt;Node8 -->
<g id="edge13_Node000011_Node000008" class="edge">
<title>Node11&#45;&gt;Node8</title>
<g id="a_edge13_Node000011_Node000008"><a xlink:title=" ">
<path fill="none" stroke="#63b8ff" d="M753.2,-169.22C729.14,-166.12 703.08,-162.85 679,-160 530.73,-142.46 492.16,-149.19 345,-124 342.18,-123.52 339.32,-123 336.44,-122.45"/>
<polygon fill="#63b8ff" stroke="#63b8ff" points="752.74,-172.82 763.1,-170.63 753.64,-165.88 752.74,-172.82"/>
</a>
</g>
</g>
<!-- Node11&#45;&gt;Node9 -->
<g id="edge14_Node000011_Node000009" class="edge">
<title>Node11&#45;&gt;Node9</title>
<g id="a_edge14_Node000011_Node000009"><a xlink:title=" ">
<path fill="none" stroke="#63b8ff" d="M862.53,-150.78C868.54,-141.93 874.99,-132.45 880.54,-124.29"/>
<polygon fill="#63b8ff" stroke="#63b8ff" points="859.21,-148.45 856.48,-158.69 865,-152.38 859.21,-148.45"/>
</a>
</g>
</g>
<!-- Node11&#45;&gt;Node10 -->
<g id="edge15_Node000011_Node000010" class="edge">
<title>Node11&#45;&gt;Node10</title>
<g id="a_edge15_Node000011_Node000010"><a xlink:title=" ">
<path fill="none" stroke="#63b8ff" d="M753.39,-160.69C752.25,-160.46 751.12,-160.23 750,-160 667.72,-143.27 572.95,-126.67 508.22,-115.74"/>
<polygon fill="#63b8ff" stroke="#63b8ff" points="752.25,-164.24 762.76,-162.87 753.69,-157.39 752.25,-164.24"/>
</a>
</g>
</g>
<!-- Node11&#45;&gt;Node12 -->
<g id="edge11_Node000011_Node000012" class="edge">
<title>Node11&#45;&gt;Node12</title>
<g id="a_edge11_Node000011_Node000012"><a xlink:title=" ">
<path fill="none" stroke="#63b8ff" d="M931.03,-172.35C1087.02,-157.2 1407.62,-126.06 1560.42,-111.22"/>
<polygon fill="#63b8ff" stroke="#63b8ff" points="930.71,-168.96 921.09,-173.41 931.38,-175.93 930.71,-168.96"/>
</a>
</g>
</g>
<!-- Node13 -->
<g id="Node000013" class="node">
<title>Node13</title>
<g id="a_Node000013"><a xlink:href="PYexportHeuristics_8hpp.html" target="_top" xlink:title=" ">
<polygon fill="white" stroke="#666666" points="1846,-44 1668,-44 1668,0 1846,0 1846,-44"/>
<text text-anchor="start" x="1676" y="-30.5" font-family="Helvetica,sans-Serif" font-size="10.00">C:/Users/CYRGU3/OneDrive</text>
<text text-anchor="start" x="1676" y="-18.5" font-family="Helvetica,sans-Serif" font-size="10.00"> &#45; BuroVirtuel/Bureau/FMT</text>
<text text-anchor="middle" x="1757" y="-6.5" font-family="Helvetica,sans-Serif" font-size="10.00">/FMT/Include/PYexportHeuristics.hpp</text>
</a>
</g>
</g>
<!-- Node12&#45;&gt;Node13 -->
<g id="edge12_Node000012_Node000013" class="edge">
<title>Node12&#45;&gt;Node13</title>
<g id="a_edge12_Node000012_Node000013"><a xlink:title=" ">
<path fill="none" stroke="#63b8ff" d="M1684.42,-73.55C1698.21,-63.95 1713.47,-53.31 1726.43,-44.29"/>
<polygon fill="#63b8ff" stroke="#63b8ff" points="1682.81,-71.1 1676.6,-79.69 1686.81,-76.84 1682.81,-71.1"/>
</a>
</g>
</g>
<!-- Node15&#45;&gt;Node13 -->
<g id="edge28_Node000015_Node000013" class="edge">
<title>Node15&#45;&gt;Node13</title>
<g id="a_edge28_Node000015_Node000013"><a xlink:title=" ">
<path fill="none" stroke="#63b8ff" d="M1912.05,-232.07C1949.74,-194.52 2002.77,-128.14 1966,-80 1950.96,-60.31 1896.05,-45.79 1846.28,-36.33"/>
<polygon fill="#63b8ff" stroke="#63b8ff" points="1910.01,-229.14 1905.28,-238.62 1914.89,-234.16 1910.01,-229.14"/>
</a>
</g>
</g>
<!-- Node16 -->
<g id="Node000016" class="node">
<title>Node16</title>
<g id="a_Node000016"><a xlink:href="FMToperatingareascheduler_8hpp.html" target="_top" xlink:title=" ">
<polygon fill="white" stroke="#666666" points="1903,-204 1689,-204 1689,-160 1903,-160 1903,-204"/>
<text text-anchor="start" x="1697" y="-190.5" font-family="Helvetica,sans-Serif" font-size="10.00">C:/Users/CYRGU3/OneDrive</text>
<text text-anchor="start" x="1697" y="-178.5" font-family="Helvetica,sans-Serif" font-size="10.00"> &#45; BuroVirtuel/Bureau/FMT</text>
<text text-anchor="middle" x="1796" y="-166.5" font-family="Helvetica,sans-Serif" font-size="10.00">/FMT/Include/FMToperatingareascheduler.hpp</text>
</a>
</g>
</g>
<!-- Node15&#45;&gt;Node16 -->
<g id="edge23_Node000015_Node000016" class="edge">
<title>Node15&#45;&gt;Node16</title>
<g id="a_edge23_Node000015_Node000016"><a xlink:title=" ">
<path fill="none" stroke="#63b8ff" d="M1849.25,-232.45C1839.23,-223.14 1828.27,-212.97 1818.93,-204.29"/>
<polygon fill="#63b8ff" stroke="#63b8ff" points="1846.34,-234.45 1856.05,-238.69 1851.1,-229.32 1846.34,-234.45"/>
</a>
</g>
</g>
<!-- Node17 -->
<g id="Node000017" class="node">
<title>Node17</title>
<g id="a_Node000017"><a xlink:href="RexportHeuristics_8hpp.html" target="_top" xlink:title=" ">
<polygon fill="white" stroke="#666666" points="1956.62,-124 1785.38,-124 1785.38,-80 1956.62,-80 1956.62,-124"/>
<text text-anchor="start" x="1793.38" y="-110.5" font-family="Helvetica,sans-Serif" font-size="10.00">C:/Users/CYRGU3/OneDrive</text>
<text text-anchor="start" x="1793.38" y="-98.5" font-family="Helvetica,sans-Serif" font-size="10.00"> &#45; BuroVirtuel/Bureau/FMT</text>
<text text-anchor="middle" x="1871" y="-86.5" font-family="Helvetica,sans-Serif" font-size="10.00">/FMT/Include/RexportHeuristics.hpp</text>
</a>
</g>
</g>
<!-- Node15&#45;&gt;Node17 -->
<g id="edge29_Node000015_Node000017" class="edge">
<title>Node15&#45;&gt;Node17</title>
<g id="a_edge29_Node000015_Node000017"><a xlink:title=" ">
<path fill="none" stroke="#63b8ff" d="M1901.03,-230.2C1905.54,-222.03 1909.65,-212.98 1912,-204 1916.95,-185.08 1918,-178.61 1912,-160 1907.81,-147.01 1899.44,-134.47 1891.35,-124.48"/>
<polygon fill="#63b8ff" stroke="#63b8ff" points="1897.51,-228.28 1895.42,-238.66 1903.53,-231.85 1897.51,-228.28"/>
</a>
</g>
</g>
<!-- Node16&#45;&gt;Node9 -->
<g id="edge26_Node000016_Node000009" class="edge">
<title>Node16&#45;&gt;Node9</title>
<g id="a_edge26_Node000016_Node000009"><a xlink:title=" ">
<path fill="none" stroke="#63b8ff" d="M1678.18,-164.71C1664.31,-163.01 1650.35,-161.39 1637,-160 1394.78,-134.72 1106.97,-115.76 972.03,-107.53"/>
<polygon fill="#63b8ff" stroke="#63b8ff" points="1677.4,-168.26 1687.76,-166.02 1678.27,-161.32 1677.4,-168.26"/>
</a>
</g>
</g>
<!-- Node16&#45;&gt;Node12 -->
<g id="edge24_Node000016_Node000012" class="edge">
<title>Node16&#45;&gt;Node12</title>
<g id="a_edge24_Node000016_Node000012"><a xlink:title=" ">
<path fill="none" stroke="#63b8ff" d="M1745.02,-154.66C1725.96,-144.82 1704.57,-133.77 1686.47,-124.42"/>
<polygon fill="#63b8ff" stroke="#63b8ff" points="1743.25,-158.21 1753.74,-159.69 1746.46,-151.99 1743.25,-158.21"/>
</a>
</g>
</g>
<!-- Node16&#45;&gt;Node13 -->
<g id="edge25_Node000016_Node000013" class="edge">
<title>Node16&#45;&gt;Node13</title>
<g id="a_edge25_Node000016_Node000013"><a xlink:title=" ">
<path fill="none" stroke="#63b8ff" d="M1783.93,-149.32C1781.08,-141.15 1778.23,-132.31 1776,-124 1768.75,-96.94 1763.25,-65.08 1760.08,-44.49"/>
<polygon fill="#63b8ff" stroke="#63b8ff" points="1780.94,-150.36 1787.62,-158.59 1787.53,-147.99 1780.94,-150.36"/>
</a>
</g>
</g>
<!-- Node16&#45;&gt;Node17 -->
<g id="edge27_Node000016_Node000017" class="edge">
<title>Node16&#45;&gt;Node17</title>
<g id="a_edge27_Node000016_Node000017"><a xlink:title=" ">
<path fill="none" stroke="#63b8ff" d="M1823.99,-151.89C1832.79,-142.74 1842.35,-132.8 1850.53,-124.29"/>
<polygon fill="#63b8ff" stroke="#63b8ff" points="1821.9,-149.05 1817.49,-158.69 1826.95,-153.9 1821.9,-149.05"/>
</a>
</g>
</g>
<!-- Node18&#45;&gt;Node3 -->
<g id="edge31_Node000018_Node000003" class="edge">
<title>Node18&#45;&gt;Node3</title>
<g id="a_edge31_Node000018_Node000003"><a xlink:title=" ">
<path fill="none" stroke="#63b8ff" d="M1154.74,-454.59C1157.16,-463.03 1159.26,-471.95 1160.63,-479.69"/>
<polygon fill="#63b8ff" stroke="#63b8ff" points="1157.85,-453.8 1151.55,-445.29 1151.16,-455.88 1157.85,-453.8"/>
</a>
</g>
</g>
<!-- Node19&#45;&gt;Node8 -->
<g id="edge42_Node000019_Node000008" class="edge">
<title>Node19&#45;&gt;Node8</title>
<g id="a_edge42_Node000019_Node000008"><a xlink:title=" ">
<path fill="none" stroke="#63b8ff" d="M497.2,-255.51C379.89,-247.05 179.96,-229.11 158,-204 145.13,-189.28 148.25,-176.95 158,-160 166.83,-144.64 181.57,-133.04 196.96,-124.45"/>
<polygon fill="#63b8ff" stroke="#63b8ff" points="496.71,-259.06 506.93,-256.28 497.21,-252.08 496.71,-259.06"/>
</a>
</g>
</g>
<!-- Node19&#45;&gt;Node9 -->
<g id="edge43_Node000019_Node000009" class="edge">
<title>Node19&#45;&gt;Node9</title>
<g id="a_edge43_Node000019_Node000009"><a xlink:title=" ">
<path fill="none" stroke="#63b8ff" d="M627.94,-233.96C676.96,-205.15 748.49,-163.2 755,-160 781.37,-147.02 811.46,-134.48 836.97,-124.49"/>
<polygon fill="#63b8ff" stroke="#63b8ff" points="626.31,-231.45 619.46,-239.54 629.86,-237.49 626.31,-231.45"/>
</a>
</g>
</g>
<!-- Node19&#45;&gt;Node10 -->
<g id="edge44_Node000019_Node000010" class="edge">
<title>Node19&#45;&gt;Node10</title>
<g id="a_edge44_Node000019_Node000010"><a xlink:title=" ">
<path fill="none" stroke="#63b8ff" d="M497.01,-261.77C389.24,-260.71 212.39,-251.53 171,-204 158.16,-189.25 158.65,-175.16 171,-160 220.86,-98.76 267.96,-141.37 345,-124 347.85,-123.36 350.75,-122.7 353.68,-122.02"/>
<polygon fill="#63b8ff" stroke="#63b8ff" points="496.84,-265.27 506.87,-261.85 496.89,-258.27 496.84,-265.27"/>
</a>
</g>
</g>
<!-- Node20 -->
<g id="Node000020" class="node">
<title>Node20</title>
<g id="a_Node000020"><a xlink:href="FMTlpmodel_8hpp.html" target="_top" xlink:title=" ">
<polygon fill="white" stroke="#666666" points="669.62,-204 522.38,-204 522.38,-160 669.62,-160 669.62,-204"/>
<text text-anchor="start" x="530.38" y="-190.5" font-family="Helvetica,sans-Serif" font-size="10.00">C:/Users/CYRGU3/OneDrive</text>
<text text-anchor="start" x="530.38" y="-178.5" font-family="Helvetica,sans-Serif" font-size="10.00"> &#45; BuroVirtuel/Bureau/FMT</text>
<text text-anchor="middle" x="596" y="-166.5" font-family="Helvetica,sans-Serif" font-size="10.00">/FMT/Include/FMTlpmodel.hpp</text>
</a>
</g>
</g>
<!-- Node19&#45;&gt;Node20 -->
<g id="edge33_Node000019_Node000020" class="edge">
<title>Node19&#45;&gt;Node20</title>
<g id="a_edge33_Node000019_Node000020"><a xlink:title=" ">
<path fill="none" stroke="#63b8ff" d="M587.73,-229.1C589.23,-220.74 590.81,-211.94 592.18,-204.29"/>
<polygon fill="#63b8ff" stroke="#63b8ff" points="584.15,-228.23 585.83,-238.69 591.04,-229.46 584.15,-228.23"/>
</a>
</g>
</g>
<!-- Node21 -->
<g id="Node000021" class="node">
<title>Node21</title>
<g id="a_Node000021"><a xlink:href="FMTnssmodel_8hpp.html" target="_top" xlink:title=" ">
<polygon fill="white" stroke="#666666" points="335.75,-204 180.25,-204 180.25,-160 335.75,-160 335.75,-204"/>
<text text-anchor="start" x="188.25" y="-190.5" font-family="Helvetica,sans-Serif" font-size="10.00">C:/Users/CYRGU3/OneDrive</text>
<text text-anchor="start" x="188.25" y="-178.5" font-family="Helvetica,sans-Serif" font-size="10.00"> &#45; BuroVirtuel/Bureau/FMT</text>
<text text-anchor="middle" x="258" y="-166.5" font-family="Helvetica,sans-Serif" font-size="10.00">/FMT/Include/FMTnssmodel.hpp</text>
</a>
</g>
</g>
<!-- Node19&#45;&gt;Node21 -->
<g id="edge38_Node000019_Node000021" class="edge">
<title>Node19&#45;&gt;Node21</title>
<g id="a_edge38_Node000019_Node000021"><a xlink:title=" ">
<path fill="none" stroke="#63b8ff" d="M496.91,-240.55C451.77,-229.7 395.37,-216.14 345,-204 341.98,-203.27 338.9,-202.53 335.79,-201.78"/>
<polygon fill="#63b8ff" stroke="#63b8ff" points="496,-244.17 506.54,-243.11 497.64,-237.37 496,-244.17"/>
</a>
</g>
</g>
<!-- Node20&#45;&gt;Node8 -->
<g id="edge35_Node000020_Node000008" class="edge">
<title>Node20&#45;&gt;Node8</title>
<g id="a_edge35_Node000020_Node000008"><a xlink:title=" ">
<path fill="none" stroke="#63b8ff" d="M511.84,-159.77C436.89,-142.44 416.3,-140.05 345,-124 342.21,-123.37 339.38,-122.73 336.51,-122.08"/>
<polygon fill="#63b8ff" stroke="#63b8ff" points="510.74,-163.34 521.27,-162.2 512.32,-156.52 510.74,-163.34"/>
</a>
</g>
</g>
<!-- Node20&#45;&gt;Node9 -->
<g id="edge36_Node000020_Node000009" class="edge">
<title>Node20&#45;&gt;Node9</title>
<g id="a_edge36_Node000020_Node000009"><a xlink:title=" ">
<path fill="none" stroke="#63b8ff" d="M680.41,-158.98C723.65,-147.7 775.91,-134.07 818.03,-123.08"/>
<polygon fill="#63b8ff" stroke="#63b8ff" points="679.7,-155.81 670.91,-161.72 681.47,-162.58 679.7,-155.81"/>
</a>
</g>
</g>
<!-- Node20&#45;&gt;Node10 -->
<g id="edge37_Node000020_Node000010" class="edge">
<title>Node20&#45;&gt;Node10</title>
<g id="a_edge37_Node000020_Node000010"><a xlink:title=" ">
<path fill="none" stroke="#63b8ff" d="M541.15,-155.07C520.11,-145.13 496.36,-133.9 476.32,-124.42"/>
<polygon fill="#63b8ff" stroke="#63b8ff" points="539.38,-158.58 549.91,-159.69 542.37,-152.25 539.38,-158.58"/>
</a>
</g>
</g>
<!-- Node20&#45;&gt;Node12 -->
<g id="edge34_Node000020_Node000012" class="edge">
<title>Node20&#45;&gt;Node12</title>
<g id="a_edge34_Node000020_Node000012"><a xlink:title=" ">
<path fill="none" stroke="#63b8ff" d="M680.74,-168.73C704.71,-165.55 730.85,-162.37 755,-160 1050.28,-131.08 1402.18,-113.52 1560.48,-106.51"/>
<polygon fill="#63b8ff" stroke="#63b8ff" points="680.34,-165.39 670.9,-170.19 681.28,-172.33 680.34,-165.39"/>
</a>
</g>
</g>
<!-- Node21&#45;&gt;Node8 -->
<g id="edge39_Node000021_Node000008" class="edge">
<title>Node21&#45;&gt;Node8</title>
<g id="a_edge39_Node000021_Node000008"><a xlink:title=" ">
<path fill="none" stroke="#63b8ff" d="M257.17,-148.82C256.96,-140.54 256.74,-131.85 256.55,-124.29"/>
<polygon fill="#63b8ff" stroke="#63b8ff" points="253.7,-148.78 257.45,-158.69 260.7,-148.6 253.7,-148.78"/>
</a>
</g>
</g>
<!-- Node21&#45;&gt;Node9 -->
<g id="edge40_Node000021_Node000009" class="edge">
<title>Node21&#45;&gt;Node9</title>
<g id="a_edge40_Node000021_Node000009"><a xlink:title=" ">
<path fill="none" stroke="#63b8ff" d="M346.77,-159.81C520.39,-130.6 713.42,-114.86 818.04,-107.72"/>
<polygon fill="#63b8ff" stroke="#63b8ff" points="346.42,-156.49 337.15,-161.61 347.6,-163.39 346.42,-156.49"/>
</a>
</g>
</g>
<!-- Node21&#45;&gt;Node10 -->
<g id="edge41_Node000021_Node000010" class="edge">
<title>Node21&#45;&gt;Node10</title>
<g id="a_edge41_Node000021_Node000010"><a xlink:title=" ">
<path fill="none" stroke="#63b8ff" d="M315.21,-155.2C337.34,-145.23 362.37,-133.94 383.48,-124.42"/>
<polygon fill="#63b8ff" stroke="#63b8ff" points="313.95,-152.39 306.27,-159.69 316.83,-158.77 313.95,-152.39"/>
</a>
</g>
</g>
</g>
</svg>

<g id="navigator" transform="translate(0 0)" fill="#404254">
  <rect fill="#f2f5e9" fill-opacity="0.5" stroke="#606060" stroke-width=".5" x="0" y="0" width="60" height="60"/>
  <use id="zoomplus" xlink:href="#zoomPlus" x="17" y="9" onmousedown="handleZoom(evt,'in')"/>
  <use id="zoomminus" xlink:href="#zoomMin" x="42" y="9" onmousedown="handleZoom(evt,'out')"/>
  <use id="reset" xlink:href="#resetDef" x="30" y="36" onmousedown="handleReset()"/>
   <use id="arrowup" xlink:href="#arrowUp" x="0" y="0" onmousedown="handlePan(0,-1)"/>
  <use id="arrowright" xlink:href="#arrowRight" x="0" y="0" onmousedown="handlePan(1,0)"/>
  <use id="arrowdown" xlink:href="#arrowDown" x="0" y="0" onmousedown="handlePan(0,1)"/>
  <use id="arrowleft" xlink:href="#arrowLeft" x="0" y="0" onmousedown="handlePan(-1,0)"/>
</g>
<svg viewBox="0 0 15 15" width="100%" height="30px" preserveAspectRatio="xMaxYMin meet">
 <g id="arrow_out" transform="scale(0.3 0.3)">
  <a xlink:href="FMTtransition_8hpp__dep__incl_org.svg" target="_base">
   <rect id="button" ry="5" rx="5" y="6" x="6" height="38" width="38"
        fill="#f2f5e9" fill-opacity="0.5" stroke="#606060" stroke-width="1.0"/>
   <path id="arrow"
     d="M 11.500037,31.436501 C 11.940474,20.09759 22.043105,11.32322 32.158766,21.979434 L 37.068811,17.246167 C 37.068811,17.246167 37.088388,32 37.088388,32 L 22.160133,31.978069 C 22.160133,31.978069 26.997745,27.140456 26.997745,27.140456 C 18.528582,18.264221 13.291696,25.230495 11.500037,31.436501 z"
     style="fill:#404040;"/>
  </a>
 </g>
</svg>

<style type='text/css'>
<![CDATA[
[data-mouse-over-selected='false'] { opacity: 0.7; }
[data-mouse-over-selected='true']  { opacity: 1.0; }
]]>
</style>
<script type="application/ecmascript"><![CDATA[
document.addEventListener('DOMContentLoaded', (event) => {
  highlightEdges();
  highlightAdjacentNodes();
});
]]></script>
</svg>
