<?xml version="1.0" encoding="UTF-8" standalone="no"?>
<!DOCTYPE svg PUBLIC "-//W3C//DTD SVG 1.1//EN"
 "http://www.w3.org/Graphics/SVG/1.1/DTD/svg11.dtd">
<!-- Generated by graphviz version 10.0.1 (20240210.2158)
 -->
<!-- Title: D:/FMT/Include/FMTvertexproperties.hpp Pages: 1 -->
<svg width="2445pt" height="456pt"
 viewBox="0.00 0.00 2445.38 456.00" xmlns="http://www.w3.org/2000/svg" xmlns:xlink="http://www.w3.org/1999/xlink">
<g id="graph0" class="graph" transform="scale(1 1) rotate(0) translate(4 452)">
<title>D:/FMT/Include/FMTvertexproperties.hpp</title>
<!-- Node1 -->
<g id="node1" class="node">
<title>Node1</title>
<g id="a_node1"><a xlink:title=" ">
<polygon fill="#999999" stroke="#666666" points="548.75,-448 357.25,-448 357.25,-428 548.75,-428 548.75,-448"/>
<text text-anchor="middle" x="453" y="-434.5" font-family="Helvetica,sans-Serif" font-size="10.00">D:/FMT/Include/FMTvertexproperties.hpp</text>
</a>
</g>
</g>
<!-- Node2 -->
<g id="node2" class="node">
<title>Node2</title>
<g id="a_node2"><a xlink:title=" ">
<polygon fill="#e0e0e0" stroke="#999999" points="2437.38,-156 2342.62,-156 2342.62,-124 2437.38,-124 2437.38,-156"/>
<text text-anchor="start" x="2350.62" y="-142.5" font-family="Helvetica,sans-Serif" font-size="10.00">boost/serialization</text>
<text text-anchor="middle" x="2390" y="-130.5" font-family="Helvetica,sans-Serif" font-size="10.00">/serialization.hpp</text>
</a>
</g>
</g>
<!-- Node1&#45;&gt;Node2 -->
<g id="edge1" class="edge">
<title>Node1&#45;&gt;Node2</title>
<path fill="none" stroke="#63b8ff" d="M548.95,-436.26C936.8,-432.66 2368,-413.14 2368,-321 2368,-321 2368,-321 2368,-257 2368,-225.76 2375.8,-190.59 2382.11,-167.25"/>
<polygon fill="#63b8ff" stroke="#63b8ff" points="2385.47,-168.24 2384.82,-157.67 2378.73,-166.34 2385.47,-168.24"/>
</g>
<!-- Node3 -->
<g id="node3" class="node">
<title>Node3</title>
<g id="a_node3"><a xlink:title=" ">
<polygon fill="#e0e0e0" stroke="#999999" points="122.38,-336 27.62,-336 27.62,-304 122.38,-304 122.38,-336"/>
<text text-anchor="start" x="35.62" y="-322.5" font-family="Helvetica,sans-Serif" font-size="10.00">boost/serialization</text>
<text text-anchor="middle" x="75" y="-310.5" font-family="Helvetica,sans-Serif" font-size="10.00">/unique_ptr.hpp</text>
</a>
</g>
</g>
<!-- Node1&#45;&gt;Node3 -->
<g id="edge2" class="edge">
<title>Node1&#45;&gt;Node3</title>
<path fill="none" stroke="#63b8ff" d="M422.07,-427.51C358.96,-408.14 214.47,-363.8 133.22,-338.87"/>
<polygon fill="#63b8ff" stroke="#63b8ff" points="134.71,-335.66 124.12,-336.07 132.66,-342.35 134.71,-335.66"/>
</g>
<!-- Node4 -->
<g id="node4" class="node">
<title>Node4</title>
<g id="a_node4"><a xlink:title=" ">
<polygon fill="#e0e0e0" stroke="#999999" points="177.62,-20 126.38,-20 126.38,0 177.62,0 177.62,-20"/>
<text text-anchor="middle" x="152" y="-6.5" font-family="Helvetica,sans-Serif" font-size="10.00">memory</text>
</a>
</g>
</g>
<!-- Node1&#45;&gt;Node4 -->
<g id="edge3" class="edge">
<title>Node1&#45;&gt;Node4</title>
<path fill="none" stroke="#63b8ff" d="M356.93,-431.72C223.96,-421.73 0,-394.07 0,-321 0,-321 0,-321 0,-139 0,-78.76 70.71,-41.15 115.67,-23.32"/>
<polygon fill="#63b8ff" stroke="#63b8ff" points="116.7,-26.68 124.8,-19.85 114.21,-20.13 116.7,-26.68"/>
</g>
<!-- Node5 -->
<g id="node5" class="node">
<title>Node5</title>
<g id="a_node5"><a xlink:href="FMTbasevertexproperties_8hpp.html" target="_top" xlink:title=" ">
<polygon fill="white" stroke="#666666" points="837.75,-392 694.25,-392 694.25,-372 837.75,-372 837.75,-392"/>
<text text-anchor="middle" x="766" y="-378.5" font-family="Helvetica,sans-Serif" font-size="10.00">FMTbasevertexproperties.hpp</text>
</a>
</g>
</g>
<!-- Node1&#45;&gt;Node5 -->
<g id="edge4" class="edge">
<title>Node1&#45;&gt;Node5</title>
<path fill="none" stroke="#63b8ff" d="M507.88,-427.53C561.46,-418.29 643.05,-404.21 700.11,-394.37"/>
<polygon fill="#63b8ff" stroke="#63b8ff" points="700.43,-397.86 709.69,-392.71 699.24,-390.97 700.43,-397.86"/>
</g>
<!-- Node5&#45;&gt;Node2 -->
<g id="edge63" class="edge">
<title>Node5&#45;&gt;Node2</title>
<path fill="none" stroke="#63b8ff" d="M838.19,-380.03C1035.53,-377.01 1581.03,-366.11 1758,-336 1946.94,-303.86 1988.06,-269.11 2171,-212 2226.04,-194.82 2288.6,-174.45 2332.72,-159.95"/>
<polygon fill="#63b8ff" stroke="#63b8ff" points="2333.68,-163.32 2342.09,-156.86 2331.5,-156.67 2333.68,-163.32"/>
</g>
<!-- Node5&#45;&gt;Node3 -->
<g id="edge64" class="edge">
<title>Node5&#45;&gt;Node3</title>
<path fill="none" stroke="#63b8ff" d="M694.22,-379.83C576.81,-377.03 336.66,-367.6 136,-336 135.33,-335.89 134.65,-335.78 133.97,-335.67"/>
<polygon fill="#63b8ff" stroke="#63b8ff" points="134.76,-332.26 124.28,-333.85 133.46,-339.14 134.76,-332.26"/>
</g>
<!-- Node5&#45;&gt;Node4 -->
<g id="edge66" class="edge">
<title>Node5&#45;&gt;Node4</title>
<path fill="none" stroke="#63b8ff" d="M693.87,-378.63C509.97,-370.65 38,-337.1 38,-203 38,-203 38,-203 38,-139 38,-87.36 90.39,-46.91 124.14,-26.21"/>
<polygon fill="#63b8ff" stroke="#63b8ff" points="125.8,-29.29 132.63,-21.2 122.24,-23.27 125.8,-29.29"/>
</g>
<!-- Node6 -->
<g id="node6" class="node">
<title>Node6</title>
<g id="a_node6"><a xlink:href="FMTfuturdevelopment_8hpp.html" target="_top" xlink:title=" ">
<polygon fill="white" stroke="#666666" points="829.5,-330 702.5,-330 702.5,-310 829.5,-310 829.5,-330"/>
<text text-anchor="middle" x="766" y="-316.5" font-family="Helvetica,sans-Serif" font-size="10.00">FMTfuturdevelopment.hpp</text>
</a>
</g>
</g>
<!-- Node5&#45;&gt;Node6 -->
<g id="edge5" class="edge">
<title>Node5&#45;&gt;Node6</title>
<path fill="none" stroke="#63b8ff" d="M766,-371.62C766,-363.56 766,-351.65 766,-341.41"/>
<polygon fill="#63b8ff" stroke="#63b8ff" points="769.5,-341.63 766,-331.63 762.5,-341.63 769.5,-341.63"/>
</g>
<!-- Node35 -->
<g id="node35" class="node">
<title>Node35</title>
<g id="a_node35"><a xlink:href="FMTactualdevelopment_8hpp.html" target="_top" xlink:title=" ">
<polygon fill="white" stroke="#666666" points="1635.25,-330 1500.75,-330 1500.75,-310 1635.25,-310 1635.25,-330"/>
<text text-anchor="middle" x="1568" y="-316.5" font-family="Helvetica,sans-Serif" font-size="10.00">FMTactualdevelopment.hpp</text>
</a>
</g>
</g>
<!-- Node5&#45;&gt;Node35 -->
<g id="edge58" class="edge">
<title>Node5&#45;&gt;Node35</title>
<path fill="none" stroke="#63b8ff" d="M838.23,-375.6C988.39,-364.36 1333.2,-338.57 1489.01,-326.91"/>
<polygon fill="#63b8ff" stroke="#63b8ff" points="1489.12,-330.41 1498.84,-326.17 1488.6,-323.43 1489.12,-330.41"/>
</g>
<!-- Node36 -->
<g id="node36" class="node">
<title>Node36</title>
<g id="a_node36"><a xlink:title=" ">
<polygon fill="#e0e0e0" stroke="#999999" points="1749.12,-336 1652.88,-336 1652.88,-304 1749.12,-304 1749.12,-336"/>
<text text-anchor="start" x="1660.88" y="-322.5" font-family="Helvetica,sans-Serif" font-size="10.00">boost/serialization</text>
<text text-anchor="middle" x="1701" y="-310.5" font-family="Helvetica,sans-Serif" font-size="10.00">/split_member.hpp</text>
</a>
</g>
</g>
<!-- Node5&#45;&gt;Node36 -->
<g id="edge65" class="edge">
<title>Node5&#45;&gt;Node36</title>
<path fill="none" stroke="#63b8ff" d="M838.25,-379.22C1015.41,-374.54 1468.9,-360.67 1641.44,-336.12"/>
<polygon fill="#63b8ff" stroke="#63b8ff" points="1641.76,-339.61 1651.14,-334.68 1640.73,-332.69 1641.76,-339.61"/>
</g>
<!-- Node6&#45;&gt;Node2 -->
<g id="edge55" class="edge">
<title>Node6&#45;&gt;Node2</title>
<path fill="none" stroke="#63b8ff" d="M829.69,-315.42C1076.64,-301.31 1963.15,-248.6 2084,-212 2101.52,-206.7 2102.73,-198.06 2120,-192 2207.24,-161.41 2236.94,-175.12 2331.01,-156.25"/>
<polygon fill="#63b8ff" stroke="#63b8ff" points="2331.63,-159.7 2340.7,-154.23 2330.2,-152.84 2331.63,-159.7"/>
</g>
<!-- Node6&#45;&gt;Node4 -->
<g id="edge56" class="edge">
<title>Node6&#45;&gt;Node4</title>
<path fill="none" stroke="#63b8ff" d="M702.11,-316.54C573.82,-311.07 289.22,-296.11 196,-268 137.93,-250.49 76,-263.65 76,-203 76,-203 76,-203 76,-139 76,-94.08 111.03,-51.16 133.52,-28.22"/>
<polygon fill="#63b8ff" stroke="#63b8ff" points="135.67,-31.02 140.35,-21.51 130.77,-26.03 135.67,-31.02"/>
</g>
<!-- Node7 -->
<g id="node7" class="node">
<title>Node7</title>
<g id="a_node7"><a xlink:href="FMTdevelopment_8hpp.html" target="_top" xlink:title=" ">
<polygon fill="white" stroke="#666666" points="1344.12,-268 1235.88,-268 1235.88,-248 1344.12,-248 1344.12,-268"/>
<text text-anchor="middle" x="1290" y="-254.5" font-family="Helvetica,sans-Serif" font-size="10.00">FMTdevelopment.hpp</text>
</a>
</g>
</g>
<!-- Node6&#45;&gt;Node7 -->
<g id="edge6" class="edge">
<title>Node6&#45;&gt;Node7</title>
<path fill="none" stroke="#63b8ff" d="M829.99,-311.67C930.15,-300.2 1122.95,-278.13 1224.21,-266.53"/>
<polygon fill="#63b8ff" stroke="#63b8ff" points="1224.46,-270.03 1233.99,-265.41 1223.66,-263.07 1224.46,-270.03"/>
</g>
<!-- Node16 -->
<g id="node16" class="node">
<title>Node16</title>
<g id="a_node16"><a xlink:title=" ">
<polygon fill="#e0e0e0" stroke="#999999" points="1461.38,-88 1366.62,-88 1366.62,-56 1461.38,-56 1461.38,-88"/>
<text text-anchor="start" x="1374.62" y="-74.5" font-family="Helvetica,sans-Serif" font-size="10.00">boost/serialization</text>
<text text-anchor="middle" x="1414" y="-62.5" font-family="Helvetica,sans-Serif" font-size="10.00">/export.hpp</text>
</a>
</g>
</g>
<!-- Node6&#45;&gt;Node16 -->
<g id="edge57" class="edge">
<title>Node6&#45;&gt;Node16</title>
<path fill="none" stroke="#63b8ff" d="M702.26,-318.38C518.77,-314.62 12.27,-289.38 171,-124 212.43,-80.83 1113.69,-74.18 1355.01,-73.18"/>
<polygon fill="#63b8ff" stroke="#63b8ff" points="1354.83,-76.68 1364.82,-73.14 1354.8,-69.68 1354.83,-76.68"/>
</g>
<!-- Node7&#45;&gt;Node2 -->
<g id="edge26" class="edge">
<title>Node7&#45;&gt;Node2</title>
<path fill="none" stroke="#63b8ff" d="M1344.37,-256.41C1495.01,-254.37 1915.41,-245.72 2049,-212 2069.44,-206.84 2071.81,-198.06 2092,-192 2192.28,-161.88 2224.77,-176.74 2330.99,-156.23"/>
<polygon fill="#63b8ff" stroke="#63b8ff" points="2331.59,-159.67 2340.71,-154.28 2330.22,-152.81 2331.59,-159.67"/>
</g>
<!-- Node7&#45;&gt;Node4 -->
<g id="edge38" class="edge">
<title>Node7&#45;&gt;Node4</title>
<path fill="none" stroke="#63b8ff" d="M1235.38,-256.15C1021.1,-252.27 245.99,-232.98 171,-156 138.61,-122.75 142.79,-63.05 147.83,-31.63"/>
<polygon fill="#63b8ff" stroke="#63b8ff" points="151.26,-32.35 149.6,-21.88 144.37,-31.1 151.26,-32.35"/>
</g>
<!-- Node8 -->
<g id="node8" class="node">
<title>Node8</title>
<g id="a_node8"><a xlink:href="FMTmask_8hpp.html" target="_top" xlink:title=" ">
<polygon fill="white" stroke="#666666" points="1120.12,-212 1041.88,-212 1041.88,-192 1120.12,-192 1120.12,-212"/>
<text text-anchor="middle" x="1081" y="-198.5" font-family="Helvetica,sans-Serif" font-size="10.00">FMTmask.hpp</text>
</a>
</g>
</g>
<!-- Node7&#45;&gt;Node8 -->
<g id="edge7" class="edge">
<title>Node7&#45;&gt;Node8</title>
<path fill="none" stroke="#63b8ff" d="M1253.59,-247.59C1218.89,-238.63 1166.45,-225.08 1128.48,-215.27"/>
<polygon fill="#63b8ff" stroke="#63b8ff" points="1129.71,-211.97 1119.15,-212.86 1127.96,-218.75 1129.71,-211.97"/>
</g>
<!-- Node15 -->
<g id="node15" class="node">
<title>Node15</title>
<g id="a_node15"><a xlink:title=" ">
<polygon fill="#e0e0e0" stroke="#999999" points="1856.38,-156 1761.62,-156 1761.62,-124 1856.38,-124 1856.38,-156"/>
<text text-anchor="start" x="1769.62" y="-142.5" font-family="Helvetica,sans-Serif" font-size="10.00">boost/serialization</text>
<text text-anchor="middle" x="1809" y="-130.5" font-family="Helvetica,sans-Serif" font-size="10.00">/nvp.hpp</text>
</a>
</g>
</g>
<!-- Node7&#45;&gt;Node15 -->
<g id="edge27" class="edge">
<title>Node7&#45;&gt;Node15</title>
<path fill="none" stroke="#63b8ff" d="M1332.47,-247.51C1424.97,-226.83 1644.79,-177.7 1750.39,-154.1"/>
<polygon fill="#63b8ff" stroke="#63b8ff" points="1750.99,-157.55 1759.99,-151.95 1749.47,-150.72 1750.99,-157.55"/>
</g>
<!-- Node7&#45;&gt;Node16 -->
<g id="edge40" class="edge">
<title>Node7&#45;&gt;Node16</title>
<path fill="none" stroke="#63b8ff" d="M1283.29,-247.61C1267.56,-224.36 1231.73,-163.15 1260,-124 1281.63,-94.05 1321.53,-81.4 1355.29,-76.19"/>
<polygon fill="#63b8ff" stroke="#63b8ff" points="1355.52,-79.69 1364.97,-74.89 1354.59,-72.75 1355.52,-79.69"/>
</g>
<!-- Node17 -->
<g id="node17" class="node">
<title>Node17</title>
<g id="a_node17"><a xlink:title=" ">
<polygon fill="#e0e0e0" stroke="#999999" points="274.38,-156 179.62,-156 179.62,-124 274.38,-124 274.38,-156"/>
<text text-anchor="start" x="187.62" y="-142.5" font-family="Helvetica,sans-Serif" font-size="10.00">boost/serialization</text>
<text text-anchor="middle" x="227" y="-130.5" font-family="Helvetica,sans-Serif" font-size="10.00">/string.hpp</text>
</a>
</g>
</g>
<!-- Node7&#45;&gt;Node17 -->
<g id="edge28" class="edge">
<title>Node7&#45;&gt;Node17</title>
<path fill="none" stroke="#63b8ff" d="M1235.6,-254.55C1085.43,-247.15 652.51,-221.49 285.87,-156.15"/>
<polygon fill="#63b8ff" stroke="#63b8ff" points="286.72,-152.75 276.26,-154.42 285.49,-159.64 286.72,-152.75"/>
</g>
<!-- Node23 -->
<g id="node23" class="node">
<title>Node23</title>
<g id="a_node23"><a xlink:title=" ">
<polygon fill="#e0e0e0" stroke="#999999" points="1310.75,-150 1269.25,-150 1269.25,-130 1310.75,-130 1310.75,-150"/>
<text text-anchor="middle" x="1290" y="-136.5" font-family="Helvetica,sans-Serif" font-size="10.00">vector</text>
</a>
</g>
</g>
<!-- Node7&#45;&gt;Node23 -->
<g id="edge39" class="edge">
<title>Node7&#45;&gt;Node23</title>
<path fill="none" stroke="#63b8ff" d="M1290,-247.51C1290,-228.81 1290,-186.82 1290,-161.51"/>
<polygon fill="#63b8ff" stroke="#63b8ff" points="1293.5,-161.81 1290,-151.81 1286.5,-161.81 1293.5,-161.81"/>
</g>
<!-- Node24 -->
<g id="node24" class="node">
<title>Node24</title>
<g id="a_node24"><a xlink:href="FMTobject_8hpp.html" target="_top" xlink:title=" ">
<polygon fill="white" stroke="#666666" points="1468.25,-212 1387.75,-212 1387.75,-192 1468.25,-192 1468.25,-212"/>
<text text-anchor="middle" x="1428" y="-198.5" font-family="Helvetica,sans-Serif" font-size="10.00">FMTobject.hpp</text>
</a>
</g>
</g>
<!-- Node7&#45;&gt;Node24 -->
<g id="edge29" class="edge">
<title>Node7&#45;&gt;Node24</title>
<path fill="none" stroke="#63b8ff" d="M1314.04,-247.59C1335.97,-239.01 1368.63,-226.23 1393.37,-216.55"/>
<polygon fill="#63b8ff" stroke="#63b8ff" points="1394.33,-219.93 1402.37,-213.03 1391.78,-213.42 1394.33,-219.93"/>
</g>
<!-- Node28 -->
<g id="node28" class="node">
<title>Node28</title>
<g id="a_node28"><a xlink:href="FMTexceptionhandler_8hpp.html" target="_top" xlink:title=" ">
<polygon fill="white" stroke="#666666" points="2039.88,-212 1912.12,-212 1912.12,-192 2039.88,-192 2039.88,-212"/>
<text text-anchor="middle" x="1976" y="-198.5" font-family="Helvetica,sans-Serif" font-size="10.00">FMTexceptionhandler.hpp</text>
</a>
</g>
</g>
<!-- Node7&#45;&gt;Node28 -->
<g id="edge41" class="edge">
<title>Node7&#45;&gt;Node28</title>
<path fill="none" stroke="#63b8ff" d="M1344.4,-252.72C1466.16,-243.13 1760.83,-219.94 1900.35,-208.96"/>
<polygon fill="#63b8ff" stroke="#63b8ff" points="1900.54,-212.45 1910.23,-208.18 1899.99,-205.47 1900.54,-212.45"/>
</g>
<!-- Node8&#45;&gt;Node2 -->
<g id="edge13" class="edge">
<title>Node8&#45;&gt;Node2</title>
<path fill="none" stroke="#63b8ff" d="M1120.46,-199.83C1318.84,-193.9 2202.54,-167.15 2330.88,-155.64"/>
<polygon fill="#63b8ff" stroke="#63b8ff" points="2331.21,-159.13 2340.76,-154.55 2330.44,-152.17 2331.21,-159.13"/>
</g>
<!-- Node9 -->
<g id="node9" class="node">
<title>Node9</title>
<g id="a_node9"><a xlink:title=" ">
<polygon fill="#e0e0e0" stroke="#999999" points="532.88,-150 405.12,-150 405.12,-130 532.88,-130 532.88,-150"/>
<text text-anchor="middle" x="469" y="-136.5" font-family="Helvetica,sans-Serif" font-size="10.00">boost/dynamic_bitset.hpp</text>
</a>
</g>
</g>
<!-- Node8&#45;&gt;Node9 -->
<g id="edge8" class="edge">
<title>Node8&#45;&gt;Node9</title>
<path fill="none" stroke="#63b8ff" d="M1041.59,-199.32C952.31,-195.17 727.89,-182.76 542,-156 535.44,-155.06 528.58,-153.89 521.8,-152.62"/>
<polygon fill="#63b8ff" stroke="#63b8ff" points="522.51,-149.2 512.03,-150.72 521.17,-156.07 522.51,-149.2"/>
</g>
<!-- Node10 -->
<g id="node10" class="node">
<title>Node10</title>
<g id="a_node10"><a xlink:title=" ">
<polygon fill="#e0e0e0" stroke="#999999" points="679.25,-150 550.75,-150 550.75,-130 679.25,-130 679.25,-150"/>
<text text-anchor="middle" x="615" y="-136.5" font-family="Helvetica,sans-Serif" font-size="10.00">boost/unordered_map.hpp</text>
</a>
</g>
</g>
<!-- Node8&#45;&gt;Node10 -->
<g id="edge9" class="edge">
<title>Node8&#45;&gt;Node10</title>
<path fill="none" stroke="#63b8ff" d="M1041.62,-197.61C970.81,-191.25 817.38,-176.34 689,-156 682.61,-154.99 675.94,-153.81 669.33,-152.57"/>
<polygon fill="#63b8ff" stroke="#63b8ff" points="670.29,-149.19 659.81,-150.72 668.96,-156.06 670.29,-149.19"/>
</g>
<!-- Node11 -->
<g id="node11" class="node">
<title>Node11</title>
<g id="a_node11"><a xlink:title=" ">
<polygon fill="#e0e0e0" stroke="#999999" points="826.25,-150 697.75,-150 697.75,-130 826.25,-130 826.25,-150"/>
<text text-anchor="middle" x="762" y="-136.5" font-family="Helvetica,sans-Serif" font-size="10.00">boost/algorithm/string.hpp</text>
</a>
</g>
</g>
<!-- Node8&#45;&gt;Node11 -->
<g id="edge10" class="edge">
<title>Node8&#45;&gt;Node11</title>
<path fill="none" stroke="#63b8ff" d="M1041.75,-194.09C993.16,-185.48 907.88,-170.15 835,-156 829.5,-154.93 823.78,-153.8 818.07,-152.65"/>
<polygon fill="#63b8ff" stroke="#63b8ff" points="819.12,-149.29 808.62,-150.74 817.73,-156.15 819.12,-149.29"/>
</g>
<!-- Node12 -->
<g id="node12" class="node">
<title>Node12</title>
<g id="a_node12"><a xlink:title=" ">
<polygon fill="#e0e0e0" stroke="#999999" points="953.88,-156 844.12,-156 844.12,-124 953.88,-124 953.88,-156"/>
<text text-anchor="start" x="852.12" y="-142.5" font-family="Helvetica,sans-Serif" font-size="10.00">boost/algorithm/string</text>
<text text-anchor="middle" x="899" y="-130.5" font-family="Helvetica,sans-Serif" font-size="10.00">/join.hpp</text>
</a>
</g>
</g>
<!-- Node8&#45;&gt;Node12 -->
<g id="edge11" class="edge">
<title>Node8&#45;&gt;Node12</title>
<path fill="none" stroke="#63b8ff" d="M1052.56,-191.62C1026.96,-183.19 988.56,-170.53 956.57,-159.98"/>
<polygon fill="#63b8ff" stroke="#63b8ff" points="958.02,-156.77 947.43,-156.96 955.83,-163.42 958.02,-156.77"/>
</g>
<!-- Node13 -->
<g id="node13" class="node">
<title>Node13</title>
<g id="a_node13"><a xlink:title=" ">
<polygon fill="#e0e0e0" stroke="#999999" points="1098.5,-150 971.5,-150 971.5,-130 1098.5,-130 1098.5,-150"/>
<text text-anchor="middle" x="1035" y="-136.5" font-family="Helvetica,sans-Serif" font-size="10.00">boost/functional/hash.hpp</text>
</a>
</g>
</g>
<!-- Node8&#45;&gt;Node13 -->
<g id="edge12" class="edge">
<title>Node8&#45;&gt;Node13</title>
<path fill="none" stroke="#63b8ff" d="M1073.81,-191.62C1067.16,-182.94 1057.08,-169.8 1048.86,-159.08"/>
<polygon fill="#63b8ff" stroke="#63b8ff" points="1051.77,-157.12 1042.91,-151.31 1046.21,-161.38 1051.77,-157.12"/>
</g>
<!-- Node14 -->
<g id="node14" class="node">
<title>Node14</title>
<g id="a_node14"><a xlink:title=" ">
<polygon fill="#e0e0e0" stroke="#999999" points="387.38,-156 292.62,-156 292.62,-124 387.38,-124 387.38,-156"/>
<text text-anchor="start" x="300.62" y="-142.5" font-family="Helvetica,sans-Serif" font-size="10.00">boost/serialization</text>
<text text-anchor="middle" x="340" y="-130.5" font-family="Helvetica,sans-Serif" font-size="10.00">/split_free.hpp</text>
</a>
</g>
</g>
<!-- Node8&#45;&gt;Node14 -->
<g id="edge14" class="edge">
<title>Node8&#45;&gt;Node14</title>
<path fill="none" stroke="#63b8ff" d="M1041.69,-201.1C937.87,-200.8 647.78,-196.28 398.9,-156.28"/>
<polygon fill="#63b8ff" stroke="#63b8ff" points="399.75,-152.87 389.32,-154.72 398.63,-159.78 399.75,-152.87"/>
</g>
<!-- Node8&#45;&gt;Node15 -->
<g id="edge15" class="edge">
<title>Node8&#45;&gt;Node15</title>
<path fill="none" stroke="#63b8ff" d="M1120.43,-199.4C1220.23,-195.09 1490.82,-181.79 1715,-156 1726.33,-154.7 1738.38,-153.01 1749.94,-151.23"/>
<polygon fill="#63b8ff" stroke="#63b8ff" points="1750.46,-154.69 1759.8,-149.68 1749.37,-147.78 1750.46,-154.69"/>
</g>
<!-- Node8&#45;&gt;Node16 -->
<g id="edge16" class="edge">
<title>Node8&#45;&gt;Node16</title>
<path fill="none" stroke="#63b8ff" d="M1086.59,-191.64C1097.01,-175.09 1121.08,-140.82 1151,-124 1214.58,-88.24 1298.98,-77.16 1354.81,-73.93"/>
<polygon fill="#63b8ff" stroke="#63b8ff" points="1354.95,-77.43 1364.77,-73.44 1354.6,-70.44 1354.95,-77.43"/>
</g>
<!-- Node8&#45;&gt;Node17 -->
<g id="edge17" class="edge">
<title>Node8&#45;&gt;Node17</title>
<path fill="none" stroke="#63b8ff" d="M1041.73,-201.56C926.77,-202.61 581.08,-201.6 286.1,-156.09"/>
<polygon fill="#63b8ff" stroke="#63b8ff" points="286.66,-152.63 276.24,-154.54 285.58,-159.55 286.66,-152.63"/>
</g>
<!-- Node18 -->
<g id="node18" class="node">
<title>Node18</title>
<g id="a_node18"><a xlink:href="FMTexception_8hpp.html" target="_top" xlink:title=" ">
<polygon fill="white" stroke="#666666" points="1698.12,-82 1601.88,-82 1601.88,-62 1698.12,-62 1698.12,-82"/>
<text text-anchor="middle" x="1650" y="-68.5" font-family="Helvetica,sans-Serif" font-size="10.00">FMTexception.hpp</text>
</a>
</g>
</g>
<!-- Node8&#45;&gt;Node18 -->
<g id="edge18" class="edge">
<title>Node8&#45;&gt;Node18</title>
<path fill="none" stroke="#63b8ff" d="M1098.2,-191.68C1129.44,-175.2 1198.02,-141.03 1260,-124 1320.84,-107.28 1497.06,-88.13 1590.38,-78.76"/>
<polygon fill="#63b8ff" stroke="#63b8ff" points="1590.51,-82.27 1600.11,-77.79 1589.81,-75.3 1590.51,-82.27"/>
</g>
<!-- Node20 -->
<g id="node20" class="node">
<title>Node20</title>
<g id="a_node20"><a xlink:title=" ">
<polygon fill="#e0e0e0" stroke="#999999" points="1784,-20 1744,-20 1744,0 1784,0 1784,-20"/>
<text text-anchor="middle" x="1764" y="-6.5" font-family="Helvetica,sans-Serif" font-size="10.00">string</text>
</a>
</g>
</g>
<!-- Node8&#45;&gt;Node20 -->
<g id="edge25" class="edge">
<title>Node8&#45;&gt;Node20</title>
<path fill="none" stroke="#63b8ff" d="M1097.63,-191.64C1128.51,-174.77 1197.29,-139.57 1260,-124 1356.72,-99.99 1619.88,-136.38 1707,-88 1729.89,-75.29 1746.18,-49.09 1755.34,-30.8"/>
<polygon fill="#63b8ff" stroke="#63b8ff" points="1758.5,-32.3 1759.57,-21.76 1752.16,-29.33 1758.5,-32.3"/>
</g>
<!-- Node8&#45;&gt;Node23 -->
<g id="edge24" class="edge">
<title>Node8&#45;&gt;Node23</title>
<path fill="none" stroke="#63b8ff" d="M1120.55,-192.58C1156.14,-184.57 1209.67,-171.47 1255,-156 1256.34,-155.54 1257.7,-155.06 1259.06,-154.55"/>
<polygon fill="#63b8ff" stroke="#63b8ff" points="1260.07,-157.92 1268.07,-150.97 1257.48,-151.41 1260.07,-157.92"/>
</g>
<!-- Node18&#45;&gt;Node4 -->
<g id="edge22" class="edge">
<title>Node18&#45;&gt;Node4</title>
<path fill="none" stroke="#63b8ff" d="M1616.45,-61.55C1607.3,-59.34 1597.33,-57.26 1588,-56 1306.09,-17.9 386.51,-11.97 189.41,-11.13"/>
<polygon fill="#63b8ff" stroke="#63b8ff" points="189.52,-7.63 179.5,-11.09 189.49,-14.63 189.52,-7.63"/>
</g>
<!-- Node19 -->
<g id="node19" class="node">
<title>Node19</title>
<g id="a_node19"><a xlink:title=" ">
<polygon fill="#e0e0e0" stroke="#999999" points="1726,-20 1668,-20 1668,0 1726,0 1726,-20"/>
<text text-anchor="middle" x="1697" y="-6.5" font-family="Helvetica,sans-Serif" font-size="10.00">exception</text>
</a>
</g>
</g>
<!-- Node18&#45;&gt;Node19 -->
<g id="edge19" class="edge">
<title>Node18&#45;&gt;Node19</title>
<path fill="none" stroke="#63b8ff" d="M1657.34,-61.62C1664.14,-52.94 1674.44,-39.8 1682.84,-29.08"/>
<polygon fill="#63b8ff" stroke="#63b8ff" points="1685.52,-31.33 1688.93,-21.3 1680.01,-27.02 1685.52,-31.33"/>
</g>
<!-- Node18&#45;&gt;Node20 -->
<g id="edge20" class="edge">
<title>Node18&#45;&gt;Node20</title>
<path fill="none" stroke="#63b8ff" d="M1667.81,-61.62C1686.13,-51.98 1714.92,-36.83 1736.24,-25.61"/>
<polygon fill="#63b8ff" stroke="#63b8ff" points="1737.75,-28.77 1744.97,-21.01 1734.49,-22.57 1737.75,-28.77"/>
</g>
<!-- Node21 -->
<g id="node21" class="node">
<title>Node21</title>
<g id="a_node21"><a xlink:title=" ">
<polygon fill="#e0e0e0" stroke="#999999" points="1553.75,-20 1500.25,-20 1500.25,0 1553.75,0 1553.75,-20"/>
<text text-anchor="middle" x="1527" y="-6.5" font-family="Helvetica,sans-Serif" font-size="10.00">iostream</text>
</a>
</g>
</g>
<!-- Node18&#45;&gt;Node21 -->
<g id="edge21" class="edge">
<title>Node18&#45;&gt;Node21</title>
<path fill="none" stroke="#63b8ff" d="M1630.78,-61.62C1610.83,-51.89 1579.38,-36.55 1556.33,-25.31"/>
<polygon fill="#63b8ff" stroke="#63b8ff" points="1557.97,-22.21 1547.44,-20.97 1554.9,-28.5 1557.97,-22.21"/>
</g>
<!-- Node22 -->
<g id="node22" class="node">
<title>Node22</title>
<g id="a_node22"><a xlink:href="FMTutility_8hpp.html" target="_top" xlink:title=" ">
<polygon fill="white" stroke="#666666" points="1649.75,-20 1572.25,-20 1572.25,0 1649.75,0 1649.75,-20"/>
<text text-anchor="middle" x="1611" y="-6.5" font-family="Helvetica,sans-Serif" font-size="10.00">FMTutility.hpp</text>
</a>
</g>
</g>
<!-- Node18&#45;&gt;Node22 -->
<g id="edge23" class="edge">
<title>Node18&#45;&gt;Node22</title>
<path fill="none" stroke="#63b8ff" d="M1643.91,-61.62C1638.38,-53.12 1630.07,-40.33 1623.18,-29.74"/>
<polygon fill="#63b8ff" stroke="#63b8ff" points="1626.13,-27.86 1617.75,-21.38 1620.26,-31.67 1626.13,-27.86"/>
</g>
<!-- Node24&#45;&gt;Node4 -->
<g id="edge34" class="edge">
<title>Node24&#45;&gt;Node4</title>
<path fill="none" stroke="#63b8ff" d="M1418.62,-191.61C1401.04,-174.69 1361.2,-139.41 1320,-124 1105.13,-43.64 364.38,-17.22 189.3,-12.02"/>
<polygon fill="#63b8ff" stroke="#63b8ff" points="189.52,-8.53 179.42,-11.74 189.32,-15.53 189.52,-8.53"/>
</g>
<!-- Node24&#45;&gt;Node15 -->
<g id="edge31" class="edge">
<title>Node24&#45;&gt;Node15</title>
<path fill="none" stroke="#63b8ff" d="M1468.63,-196.62C1529.61,-189.76 1648.29,-175.22 1748,-156 1748.67,-155.87 1749.34,-155.74 1750.02,-155.61"/>
<polygon fill="#63b8ff" stroke="#63b8ff" points="1750.61,-159.06 1759.67,-153.57 1749.16,-152.21 1750.61,-159.06"/>
</g>
<!-- Node24&#45;&gt;Node16 -->
<g id="edge32" class="edge">
<title>Node24&#45;&gt;Node16</title>
<path fill="none" stroke="#63b8ff" d="M1418.64,-191.63C1410.88,-183.14 1400.43,-169.88 1396,-156 1389.99,-137.17 1395.21,-115.3 1401.55,-98.74"/>
<polygon fill="#63b8ff" stroke="#63b8ff" points="1404.73,-100.19 1405.4,-89.62 1398.28,-97.47 1404.73,-100.19"/>
</g>
<!-- Node24&#45;&gt;Node18 -->
<g id="edge33" class="edge">
<title>Node24&#45;&gt;Node18</title>
<path fill="none" stroke="#63b8ff" d="M1468.62,-200.84C1540.1,-199.6 1683.77,-192.51 1715,-156 1734.54,-133.16 1702.27,-105.47 1676.62,-88.55"/>
<polygon fill="#63b8ff" stroke="#63b8ff" points="1678.49,-85.6 1668.17,-83.23 1674.76,-91.52 1678.49,-85.6"/>
</g>
<!-- Node24&#45;&gt;Node23 -->
<g id="edge36" class="edge">
<title>Node24&#45;&gt;Node23</title>
<path fill="none" stroke="#63b8ff" d="M1406.44,-191.62C1383.62,-181.7 1347.39,-165.95 1321.4,-154.65"/>
<polygon fill="#63b8ff" stroke="#63b8ff" points="1322.91,-151.49 1312.35,-150.72 1320.12,-157.91 1322.91,-151.49"/>
</g>
<!-- Node25 -->
<g id="node25" class="node">
<title>Node25</title>
<g id="a_node25"><a xlink:title=" ">
<polygon fill="#e0e0e0" stroke="#999999" points="1706.38,-156 1611.62,-156 1611.62,-124 1706.38,-124 1706.38,-156"/>
<text text-anchor="start" x="1619.62" y="-142.5" font-family="Helvetica,sans-Serif" font-size="10.00">boost/serialization</text>
<text text-anchor="middle" x="1659" y="-130.5" font-family="Helvetica,sans-Serif" font-size="10.00">/shared_ptr.hpp</text>
</a>
</g>
</g>
<!-- Node24&#45;&gt;Node25 -->
<g id="edge30" class="edge">
<title>Node24&#45;&gt;Node25</title>
<path fill="none" stroke="#63b8ff" d="M1464.67,-191.56C1497.62,-183.07 1547.63,-170.17 1600.46,-156.39"/>
<polygon fill="#63b8ff" stroke="#63b8ff" points="1601.16,-159.83 1609.95,-153.92 1599.39,-153.06 1601.16,-159.83"/>
</g>
<!-- Node26 -->
<g id="node26" class="node">
<title>Node26</title>
<g id="a_node26"><a xlink:title=" ">
<polygon fill="#e0e0e0" stroke="#999999" points="1450.62,-150 1405.38,-150 1405.38,-130 1450.62,-130 1450.62,-150"/>
<text text-anchor="middle" x="1428" y="-136.5" font-family="Helvetica,sans-Serif" font-size="10.00">chrono</text>
</a>
</g>
</g>
<!-- Node24&#45;&gt;Node26 -->
<g id="edge35" class="edge">
<title>Node24&#45;&gt;Node26</title>
<path fill="none" stroke="#63b8ff" d="M1428,-191.62C1428,-183.56 1428,-171.65 1428,-161.41"/>
<polygon fill="#63b8ff" stroke="#63b8ff" points="1431.5,-161.63 1428,-151.63 1424.5,-161.63 1431.5,-161.63"/>
</g>
<!-- Node27 -->
<g id="node27" class="node">
<title>Node27</title>
<g id="a_node27"><a xlink:title=" ">
<polygon fill="#e0e0e0" stroke="#999999" points="1593.38,-156 1468.62,-156 1468.62,-124 1593.38,-124 1593.38,-156"/>
<text text-anchor="start" x="1476.62" y="-142.5" font-family="Helvetica,sans-Serif" font-size="10.00">boost/dll/runtime_symbol</text>
<text text-anchor="middle" x="1531" y="-130.5" font-family="Helvetica,sans-Serif" font-size="10.00">_info.hpp</text>
</a>
</g>
</g>
<!-- Node24&#45;&gt;Node27 -->
<g id="edge37" class="edge">
<title>Node24&#45;&gt;Node27</title>
<path fill="none" stroke="#63b8ff" d="M1444.09,-191.62C1457.62,-183.75 1477.46,-172.19 1494.78,-162.1"/>
<polygon fill="#63b8ff" stroke="#63b8ff" points="1496.42,-165.19 1503.3,-157.14 1492.9,-159.14 1496.42,-165.19"/>
</g>
<!-- Node28&#45;&gt;Node2 -->
<g id="edge49" class="edge">
<title>Node28&#45;&gt;Node2</title>
<path fill="none" stroke="#63b8ff" d="M2040.08,-193.39C2127.62,-182.93 2278.88,-164.59 2331.15,-156.02"/>
<polygon fill="#63b8ff" stroke="#63b8ff" points="2331.48,-159.52 2340.72,-154.33 2330.26,-152.63 2331.48,-159.52"/>
</g>
<!-- Node28&#45;&gt;Node4 -->
<g id="edge52" class="edge">
<title>Node28&#45;&gt;Node4</title>
<path fill="none" stroke="#63b8ff" d="M1973.81,-191.74C1969.33,-175.04 1957.41,-140.11 1933,-124 1869.59,-82.14 1667.75,-101.6 1593,-88 1537.43,-77.89 1525.9,-64.12 1470,-56 1212.96,-18.64 376.22,-12.16 189.27,-11.16"/>
<polygon fill="#63b8ff" stroke="#63b8ff" points="189.44,-7.67 179.42,-11.11 189.41,-14.66 189.44,-7.67"/>
</g>
<!-- Node28&#45;&gt;Node15 -->
<g id="edge50" class="edge">
<title>Node28&#45;&gt;Node15</title>
<path fill="none" stroke="#63b8ff" d="M1949.91,-191.62C1926.62,-183.26 1891.79,-170.75 1862.59,-160.25"/>
<polygon fill="#63b8ff" stroke="#63b8ff" points="1864.13,-157.09 1853.54,-157 1861.77,-163.68 1864.13,-157.09"/>
</g>
<!-- Node28&#45;&gt;Node16 -->
<g id="edge51" class="edge">
<title>Node28&#45;&gt;Node16</title>
<path fill="none" stroke="#63b8ff" d="M1969.82,-191.64C1958.1,-174.76 1930.85,-139.55 1898,-124 1895.61,-122.87 1600.94,-92.31 1472.61,-79.05"/>
<polygon fill="#63b8ff" stroke="#63b8ff" points="1473.27,-75.6 1462.96,-78.05 1472.55,-82.56 1473.27,-75.6"/>
</g>
<!-- Node29 -->
<g id="node29" class="node">
<title>Node29</title>
<g id="a_node29"><a xlink:href="FMTlogger_8hpp.html" target="_top" xlink:title=" ">
<polygon fill="white" stroke="#666666" points="2324.25,-150 2243.75,-150 2243.75,-130 2324.25,-130 2324.25,-150"/>
<text text-anchor="middle" x="2284" y="-136.5" font-family="Helvetica,sans-Serif" font-size="10.00">FMTlogger.hpp</text>
</a>
</g>
</g>
<!-- Node28&#45;&gt;Node29 -->
<g id="edge42" class="edge">
<title>Node28&#45;&gt;Node29</title>
<path fill="none" stroke="#63b8ff" d="M2040.31,-191.95C2092.77,-184.06 2168.62,-171.45 2234,-156 2237.14,-155.26 2240.38,-154.43 2243.62,-153.56"/>
<polygon fill="#63b8ff" stroke="#63b8ff" points="2244.42,-156.97 2253.09,-150.88 2242.51,-150.23 2244.42,-156.97"/>
</g>
<!-- Node32 -->
<g id="node32" class="node">
<title>Node32</title>
<g id="a_node32"><a xlink:title=" ">
<polygon fill="#e0e0e0" stroke="#999999" points="2225.38,-150 2142.62,-150 2142.62,-130 2225.38,-130 2225.38,-150"/>
<text text-anchor="middle" x="2184" y="-136.5" font-family="Helvetica,sans-Serif" font-size="10.00">unordered_map</text>
</a>
</g>
</g>
<!-- Node28&#45;&gt;Node32 -->
<g id="edge48" class="edge">
<title>Node28&#45;&gt;Node32</title>
<path fill="none" stroke="#63b8ff" d="M2009.1,-191.58C2040.89,-182.53 2090.25,-168.41 2133,-156 2135.58,-155.25 2138.23,-154.48 2140.91,-153.7"/>
<polygon fill="#63b8ff" stroke="#63b8ff" points="2141.84,-157.07 2150.45,-150.9 2139.87,-150.35 2141.84,-157.07"/>
</g>
<!-- Node33 -->
<g id="node33" class="node">
<title>Node33</title>
<g id="a_node33"><a xlink:title=" ">
<polygon fill="#e0e0e0" stroke="#999999" points="2017.75,-150 1988.25,-150 1988.25,-130 2017.75,-130 2017.75,-150"/>
<text text-anchor="middle" x="2003" y="-136.5" font-family="Helvetica,sans-Serif" font-size="10.00">set</text>
</a>
</g>
</g>
<!-- Node28&#45;&gt;Node33 -->
<g id="edge53" class="edge">
<title>Node28&#45;&gt;Node33</title>
<path fill="none" stroke="#63b8ff" d="M1980.22,-191.62C1983.97,-183.3 1989.56,-170.86 1994.27,-160.4"/>
<polygon fill="#63b8ff" stroke="#63b8ff" points="1997.37,-162.05 1998.28,-151.49 1990.98,-159.18 1997.37,-162.05"/>
</g>
<!-- Node34 -->
<g id="node34" class="node">
<title>Node34</title>
<g id="a_node34"><a xlink:title=" ">
<polygon fill="#e0e0e0" stroke="#999999" points="2124.38,-150 2035.62,-150 2035.62,-130 2124.38,-130 2124.38,-150"/>
<text text-anchor="middle" x="2080" y="-136.5" font-family="Helvetica,sans-Serif" font-size="10.00">boost/thread.hpp</text>
</a>
</g>
</g>
<!-- Node28&#45;&gt;Node34 -->
<g id="edge54" class="edge">
<title>Node28&#45;&gt;Node34</title>
<path fill="none" stroke="#63b8ff" d="M1992.25,-191.62C2008.81,-182.07 2034.75,-167.11 2054.14,-155.92"/>
<polygon fill="#63b8ff" stroke="#63b8ff" points="2055.64,-159.09 2062.55,-151.07 2052.14,-153.03 2055.64,-159.09"/>
</g>
<!-- Node29&#45;&gt;Node16 -->
<g id="edge43" class="edge">
<title>Node29&#45;&gt;Node16</title>
<path fill="none" stroke="#63b8ff" d="M2256.77,-129.57C2249.46,-127.38 2241.5,-125.32 2234,-124 1952.96,-74.66 1877.64,-107.92 1593,-88 1553.03,-85.2 1508.1,-81.44 1473.25,-78.38"/>
<polygon fill="#63b8ff" stroke="#63b8ff" points="1473.61,-74.9 1463.34,-77.5 1473,-81.87 1473.61,-74.9"/>
</g>
<!-- Node29&#45;&gt;Node18 -->
<g id="edge47" class="edge">
<title>Node29&#45;&gt;Node18</title>
<path fill="none" stroke="#63b8ff" d="M2256.22,-129.57C2249.05,-127.44 2241.3,-125.4 2234,-124 2044.92,-87.78 1816.41,-77.24 1709.98,-74.21"/>
<polygon fill="#63b8ff" stroke="#63b8ff" points="1710.14,-70.71 1700.04,-73.94 1709.95,-77.71 1710.14,-70.71"/>
</g>
<!-- Node29&#45;&gt;Node20 -->
<g id="edge46" class="edge">
<title>Node29&#45;&gt;Node20</title>
<path fill="none" stroke="#63b8ff" d="M2288.74,-129.6C2296.59,-112.53 2309.68,-76.34 2291,-56 2257.44,-19.45 1904.79,-12.54 1795.87,-11.27"/>
<polygon fill="#63b8ff" stroke="#63b8ff" points="1795.94,-7.78 1785.9,-11.17 1795.87,-14.77 1795.94,-7.78"/>
</g>
<!-- Node30 -->
<g id="node30" class="node">
<title>Node30</title>
<g id="a_node30"><a xlink:title=" ">
<polygon fill="#e0e0e0" stroke="#999999" points="2215.62,-88 2104.38,-88 2104.38,-56 2215.62,-56 2215.62,-88"/>
<text text-anchor="start" x="2112.38" y="-74.5" font-family="Helvetica,sans-Serif" font-size="10.00">boost/thread/recursive</text>
<text text-anchor="middle" x="2160" y="-62.5" font-family="Helvetica,sans-Serif" font-size="10.00">_mutex.hpp</text>
</a>
</g>
</g>
<!-- Node29&#45;&gt;Node30 -->
<g id="edge44" class="edge">
<title>Node29&#45;&gt;Node30</title>
<path fill="none" stroke="#63b8ff" d="M2266.23,-129.54C2248.7,-120.21 2221.3,-105.63 2198.73,-93.61"/>
<polygon fill="#63b8ff" stroke="#63b8ff" points="2200.56,-90.62 2190.08,-89.01 2197.27,-96.8 2200.56,-90.62"/>
</g>
<!-- Node31 -->
<g id="node31" class="node">
<title>Node31</title>
<g id="a_node31"><a xlink:title=" ">
<polygon fill="#e0e0e0" stroke="#999999" points="2282.12,-82 2233.88,-82 2233.88,-62 2282.12,-62 2282.12,-82"/>
<text text-anchor="middle" x="2258" y="-68.5" font-family="Helvetica,sans-Serif" font-size="10.00">fstream</text>
</a>
</g>
</g>
<!-- Node29&#45;&gt;Node31 -->
<g id="edge45" class="edge">
<title>Node29&#45;&gt;Node31</title>
<path fill="none" stroke="#63b8ff" d="M2280.27,-129.54C2276.53,-120.04 2270.64,-105.09 2265.86,-92.95"/>
<polygon fill="#63b8ff" stroke="#63b8ff" points="2269.19,-91.87 2262.27,-83.85 2262.68,-94.43 2269.19,-91.87"/>
</g>
<!-- Node35&#45;&gt;Node2 -->
<g id="edge60" class="edge">
<title>Node35&#45;&gt;Node2</title>
<path fill="none" stroke="#63b8ff" d="M1613.74,-309.56C1623.7,-307.62 1634.19,-305.66 1644,-304 1756.42,-284.95 1786.12,-289.97 1898,-268 1997.85,-248.39 2021.46,-237.38 2120,-212 2192.89,-193.22 2276.71,-171.1 2331.37,-156.6"/>
<polygon fill="#63b8ff" stroke="#63b8ff" points="2332.01,-160.05 2340.78,-154.1 2330.21,-153.29 2332.01,-160.05"/>
</g>
<!-- Node35&#45;&gt;Node7 -->
<g id="edge59" class="edge">
<title>Node35&#45;&gt;Node7</title>
<path fill="none" stroke="#63b8ff" d="M1524.26,-309.56C1475.82,-299.11 1397.66,-282.24 1345.08,-270.89"/>
<polygon fill="#63b8ff" stroke="#63b8ff" points="1345.94,-267.49 1335.43,-268.8 1344.46,-274.34 1345.94,-267.49"/>
</g>
<!-- Node35&#45;&gt;Node15 -->
<g id="edge61" class="edge">
<title>Node35&#45;&gt;Node15</title>
<path fill="none" stroke="#63b8ff" d="M1580.62,-309.68C1617.45,-282.47 1725.58,-202.61 1778.76,-163.33"/>
<polygon fill="#63b8ff" stroke="#63b8ff" points="1780.84,-166.15 1786.81,-157.39 1776.68,-160.52 1780.84,-166.15"/>
</g>
<!-- Node35&#45;&gt;Node16 -->
<g id="edge62" class="edge">
<title>Node35&#45;&gt;Node16</title>
<path fill="none" stroke="#63b8ff" d="M1610.66,-309.54C1711.47,-285.39 1949.78,-216.78 1865,-124 1836.73,-93.07 1546.85,-95.74 1472.97,-88.62"/>
<polygon fill="#63b8ff" stroke="#63b8ff" points="1473.67,-85.18 1463.3,-87.36 1472.77,-92.12 1473.67,-85.18"/>
</g>
</g>
</svg>
