<?xml version="1.0" encoding="UTF-8" standalone="no"?>
<!DOCTYPE svg PUBLIC "-//W3C//DTD SVG 1.1//EN"
 "http://www.w3.org/Graphics/SVG/1.1/DTD/svg11.dtd">
<!-- Generated by graphviz version 8.1.0 (20230707.0739)
 -->
<!-- Title: C:/Users/CYRGU3/OneDrive &#45; BuroVirtuel/Bureau/FMT/FMT/Include/FMTversion.hpp Pages: 1 -->
<svg width="798pt" height="232pt"
 viewBox="0.00 0.00 798.12 232.00" xmlns="http://www.w3.org/2000/svg" xmlns:xlink="http://www.w3.org/1999/xlink">
<g id="graph0" class="graph" transform="scale(1 1) rotate(0) translate(4 228)">
<title>C:/Users/CYRGU3/OneDrive &#45; BuroVirtuel/Bureau/FMT/FMT/Include/FMTversion.hpp</title>
<!-- Node1 -->
<g id="Node000001" class="node">
<title>Node1</title>
<g id="a_Node000001"><a xlink:title=" ">
<polygon fill="#999999" stroke="#666666" points="143.5,-224 0,-224 0,-180 143.5,-180 143.5,-224"/>
<text text-anchor="start" x="8" y="-210.5" font-family="Helvetica,sans-Serif" font-size="10.00">C:/Users/CYRGU3/OneDrive</text>
<text text-anchor="start" x="8" y="-198.5" font-family="Helvetica,sans-Serif" font-size="10.00"> &#45; BuroVirtuel/Bureau/FMT</text>
<text text-anchor="middle" x="71.75" y="-186.5" font-family="Helvetica,sans-Serif" font-size="10.00">/FMT/Include/FMTversion.hpp</text>
</a>
</g>
</g>
<!-- Node2 -->
<g id="Node000002" class="node">
<title>Node2</title>
<g id="a_Node000002"><a xlink:title=" ">
<polygon fill="#e0e0e0" stroke="#999999" points="167.75,-20 127.75,-20 127.75,0 167.75,0 167.75,-20"/>
<text text-anchor="middle" x="147.75" y="-6.5" font-family="Helvetica,sans-Serif" font-size="10.00">string</text>
</a>
</g>
</g>
<!-- Node1&#45;&gt;Node2 -->
<g id="edge1_Node000001_Node000002" class="edge">
<title>Node1&#45;&gt;Node2</title>
<g id="a_edge1_Node000001_Node000002"><a xlink:title=" ">
<path fill="none" stroke="#63b8ff" d="M58.2,-179.7C41,-149.66 16.42,-94.26 41.75,-56 58.3,-30.99 91.86,-19.84 116.8,-14.89"/>
<polygon fill="#63b8ff" stroke="#63b8ff" points="117.31,-18.18 126.57,-13.03 116.12,-11.29 117.31,-18.18"/>
</a>
</g>
</g>
<!-- Node3 -->
<g id="Node000003" class="node">
<title>Node3</title>
<g id="a_Node000003"><a xlink:title=" ">
<polygon fill="#e0e0e0" stroke="#999999" points="92.5,-82 51,-82 51,-62 92.5,-62 92.5,-82"/>
<text text-anchor="middle" x="71.75" y="-68.5" font-family="Helvetica,sans-Serif" font-size="10.00">vector</text>
</a>
</g>
</g>
<!-- Node1&#45;&gt;Node3 -->
<g id="edge2_Node000001_Node000003" class="edge">
<title>Node1&#45;&gt;Node3</title>
<g id="a_edge2_Node000001_Node000003"><a xlink:title=" ">
<path fill="none" stroke="#63b8ff" d="M71.75,-179.58C71.75,-155.45 71.75,-116.57 71.75,-93.03"/>
<polygon fill="#63b8ff" stroke="#63b8ff" points="75.25,-93.29 71.75,-83.29 68.25,-93.29 75.25,-93.29"/>
</a>
</g>
</g>
<!-- Node4 -->
<g id="Node000004" class="node">
<title>Node4</title>
<g id="a_Node000004"><a xlink:href="FMTobject_8hpp.html" target="_top" xlink:title=" ">
<polygon fill="white" stroke="#666666" points="424,-144 343.5,-144 343.5,-124 424,-124 424,-144"/>
<text text-anchor="middle" x="383.75" y="-130.5" font-family="Helvetica,sans-Serif" font-size="10.00">FMTobject.hpp</text>
</a>
</g>
</g>
<!-- Node1&#45;&gt;Node4 -->
<g id="edge3_Node000001_Node000004" class="edge">
<title>Node1&#45;&gt;Node4</title>
<g id="a_edge3_Node000001_Node000004"><a xlink:title=" ">
<path fill="none" stroke="#63b8ff" d="M143.72,-185.78C201.52,-173.55 281.25,-156.68 332.65,-145.81"/>
<polygon fill="#63b8ff" stroke="#63b8ff" points="333.12,-149.08 342.18,-143.58 331.67,-142.23 333.12,-149.08"/>
</a>
</g>
</g>
<!-- Node4&#45;&gt;Node3 -->
<g id="edge15_Node000004_Node000003" class="edge">
<title>Node4&#45;&gt;Node3</title>
<g id="a_edge15_Node000004_Node000003"><a xlink:title=" ">
<path fill="none" stroke="#63b8ff" d="M343.16,-130.42C287.54,-126.02 185.06,-114.77 101.75,-88 100.64,-87.64 99.52,-87.25 98.4,-86.83"/>
<polygon fill="#63b8ff" stroke="#63b8ff" points="100.07,-83.3 89.5,-82.5 97.26,-89.71 100.07,-83.3"/>
</a>
</g>
</g>
<!-- Node5 -->
<g id="Node000005" class="node">
<title>Node5</title>
<g id="a_Node000005"><a xlink:title=" ">
<polygon fill="#e0e0e0" stroke="#999999" points="205.12,-88 110.38,-88 110.38,-56 205.12,-56 205.12,-88"/>
<text text-anchor="start" x="118.38" y="-74.5" font-family="Helvetica,sans-Serif" font-size="10.00">boost/serialization</text>
<text text-anchor="middle" x="157.75" y="-62.5" font-family="Helvetica,sans-Serif" font-size="10.00">/shared_ptr.hpp</text>
</a>
</g>
</g>
<!-- Node4&#45;&gt;Node5 -->
<g id="edge4_Node000004_Node000005" class="edge">
<title>Node4&#45;&gt;Node5</title>
<g id="a_edge4_Node000004_Node000005"><a xlink:title=" ">
<path fill="none" stroke="#63b8ff" d="M348.19,-123.56C312.74,-114.15 257.7,-99.54 215.89,-88.44"/>
<polygon fill="#63b8ff" stroke="#63b8ff" points="216.86,-84.81 206.29,-85.62 215.06,-91.57 216.86,-84.81"/>
</a>
</g>
</g>
<!-- Node6 -->
<g id="Node000006" class="node">
<title>Node6</title>
<g id="a_Node000006"><a xlink:title=" ">
<polygon fill="#e0e0e0" stroke="#999999" points="318.12,-88 223.38,-88 223.38,-56 318.12,-56 318.12,-88"/>
<text text-anchor="start" x="231.38" y="-74.5" font-family="Helvetica,sans-Serif" font-size="10.00">boost/serialization</text>
<text text-anchor="middle" x="270.75" y="-62.5" font-family="Helvetica,sans-Serif" font-size="10.00">/nvp.hpp</text>
</a>
</g>
</g>
<!-- Node4&#45;&gt;Node6 -->
<g id="edge5_Node000004_Node000006" class="edge">
<title>Node4&#45;&gt;Node6</title>
<g id="a_edge5_Node000004_Node000006"><a xlink:title=" ">
<path fill="none" stroke="#63b8ff" d="M366.09,-123.62C350.91,-115.56 328.46,-103.64 309.16,-93.4"/>
<polygon fill="#63b8ff" stroke="#63b8ff" points="311.18,-89.97 300.7,-88.37 307.89,-96.15 311.18,-89.97"/>
</a>
</g>
</g>
<!-- Node7 -->
<g id="Node000007" class="node">
<title>Node7</title>
<g id="a_Node000007"><a xlink:title=" ">
<polygon fill="#e0e0e0" stroke="#999999" points="431.12,-88 336.38,-88 336.38,-56 431.12,-56 431.12,-88"/>
<text text-anchor="start" x="344.38" y="-74.5" font-family="Helvetica,sans-Serif" font-size="10.00">boost/serialization</text>
<text text-anchor="middle" x="383.75" y="-62.5" font-family="Helvetica,sans-Serif" font-size="10.00">/export.hpp</text>
</a>
</g>
</g>
<!-- Node4&#45;&gt;Node7 -->
<g id="edge6_Node000004_Node000007" class="edge">
<title>Node4&#45;&gt;Node7</title>
<g id="a_edge6_Node000004_Node000007"><a xlink:title=" ">
<path fill="none" stroke="#63b8ff" d="M383.75,-123.62C383.75,-117.02 383.75,-107.84 383.75,-99.11"/>
<polygon fill="#63b8ff" stroke="#63b8ff" points="387.25,-99.14 383.75,-89.14 380.25,-99.14 387.25,-99.14"/>
</a>
</g>
</g>
<!-- Node8 -->
<g id="Node000008" class="node">
<title>Node8</title>
<g id="a_Node000008"><a xlink:href="FMTexception_8hpp.html" target="_top" xlink:title=" ">
<polygon fill="white" stroke="#666666" points="545.88,-82 449.62,-82 449.62,-62 545.88,-62 545.88,-82"/>
<text text-anchor="middle" x="497.75" y="-68.5" font-family="Helvetica,sans-Serif" font-size="10.00">FMTexception.hpp</text>
</a>
</g>
</g>
<!-- Node4&#45;&gt;Node8 -->
<g id="edge7_Node000004_Node000008" class="edge">
<title>Node4&#45;&gt;Node8</title>
<g id="a_edge7_Node000004_Node000008"><a xlink:title=" ">
<path fill="none" stroke="#63b8ff" d="M401.56,-123.62C420.05,-113.89 449.2,-98.55 470.57,-87.31"/>
<polygon fill="#63b8ff" stroke="#63b8ff" points="471.84,-90.06 479.06,-82.31 468.58,-83.87 471.84,-90.06"/>
</a>
</g>
</g>
<!-- Node11 -->
<g id="Node000011" class="node">
<title>Node11</title>
<g id="a_Node000011"><a xlink:title=" ">
<polygon fill="#e0e0e0" stroke="#999999" points="605.38,-20 554.12,-20 554.12,0 605.38,0 605.38,-20"/>
<text text-anchor="middle" x="579.75" y="-6.5" font-family="Helvetica,sans-Serif" font-size="10.00">memory</text>
</a>
</g>
</g>
<!-- Node4&#45;&gt;Node11 -->
<g id="edge13_Node000004_Node000011" class="edge">
<title>Node4&#45;&gt;Node11</title>
<g id="a_edge13_Node000004_Node000011"><a xlink:title=" ">
<path fill="none" stroke="#63b8ff" d="M424.24,-132.91C462.62,-130.65 519.5,-121.31 554.75,-88 570.36,-73.25 576.24,-48.67 578.45,-31.25"/>
<polygon fill="#63b8ff" stroke="#63b8ff" points="582.03,-31.6 579.48,-21.31 575.06,-30.94 582.03,-31.6"/>
</a>
</g>
</g>
<!-- Node13 -->
<g id="Node000013" class="node">
<title>Node13</title>
<g id="a_Node000013"><a xlink:title=" ">
<polygon fill="#e0e0e0" stroke="#999999" points="647.38,-82 602.12,-82 602.12,-62 647.38,-62 647.38,-82"/>
<text text-anchor="middle" x="624.75" y="-68.5" font-family="Helvetica,sans-Serif" font-size="10.00">chrono</text>
</a>
</g>
</g>
<!-- Node4&#45;&gt;Node13 -->
<g id="edge14_Node000004_Node000013" class="edge">
<title>Node4&#45;&gt;Node13</title>
<g id="a_edge14_Node000004_Node000013"><a xlink:title=" ">
<path fill="none" stroke="#63b8ff" d="M424.14,-126.16C465.68,-118.65 531.99,-105.32 587.75,-88 589.69,-87.4 591.66,-86.74 593.65,-86.04"/>
<polygon fill="#63b8ff" stroke="#63b8ff" points="594.33,-89.15 602.45,-82.35 591.86,-82.6 594.33,-89.15"/>
</a>
</g>
</g>
<!-- Node14 -->
<g id="Node000014" class="node">
<title>Node14</title>
<g id="a_Node000014"><a xlink:title=" ">
<polygon fill="#e0e0e0" stroke="#999999" points="790.12,-88 665.38,-88 665.38,-56 790.12,-56 790.12,-88"/>
<text text-anchor="start" x="673.38" y="-74.5" font-family="Helvetica,sans-Serif" font-size="10.00">boost/dll/runtime_symbol</text>
<text text-anchor="middle" x="727.75" y="-62.5" font-family="Helvetica,sans-Serif" font-size="10.00">_info.hpp</text>
</a>
</g>
</g>
<!-- Node4&#45;&gt;Node14 -->
<g id="edge16_Node000004_Node000014" class="edge">
<title>Node4&#45;&gt;Node14</title>
<g id="a_edge16_Node000004_Node000014"><a xlink:title=" ">
<path fill="none" stroke="#63b8ff" d="M424.09,-126.93C475.37,-119.09 566.87,-104.67 654.41,-88.4"/>
<polygon fill="#63b8ff" stroke="#63b8ff" points="654.87,-91.68 664.06,-86.4 653.59,-84.8 654.87,-91.68"/>
</a>
</g>
</g>
<!-- Node8&#45;&gt;Node2 -->
<g id="edge9_Node000008_Node000002" class="edge">
<title>Node8&#45;&gt;Node2</title>
<g id="a_edge9_Node000008_Node000002"><a xlink:title=" ">
<path fill="none" stroke="#63b8ff" d="M463.53,-61.54C455.75,-59.56 447.49,-57.59 439.75,-56 345.44,-36.59 232.43,-21.45 178.85,-14.75"/>
<polygon fill="#63b8ff" stroke="#63b8ff" points="179.41,-11.17 169.05,-13.42 178.55,-18.12 179.41,-11.17"/>
</a>
</g>
</g>
<!-- Node9 -->
<g id="Node000009" class="node">
<title>Node9</title>
<g id="a_Node000009"><a xlink:title=" ">
<polygon fill="#e0e0e0" stroke="#999999" points="368.75,-20 310.75,-20 310.75,0 368.75,0 368.75,-20"/>
<text text-anchor="middle" x="339.75" y="-6.5" font-family="Helvetica,sans-Serif" font-size="10.00">exception</text>
</a>
</g>
</g>
<!-- Node8&#45;&gt;Node9 -->
<g id="edge8_Node000008_Node000009" class="edge">
<title>Node8&#45;&gt;Node9</title>
<g id="a_edge8_Node000008_Node000009"><a xlink:title=" ">
<path fill="none" stroke="#63b8ff" d="M473.06,-61.62C446.59,-51.57 404.34,-35.53 374.51,-24.2"/>
<polygon fill="#63b8ff" stroke="#63b8ff" points="376.12,-20.69 365.52,-20.41 373.63,-27.23 376.12,-20.69"/>
</a>
</g>
</g>
<!-- Node10 -->
<g id="Node000010" class="node">
<title>Node10</title>
<g id="a_Node000010"><a xlink:title=" ">
<polygon fill="#e0e0e0" stroke="#999999" points="440.5,-20 387,-20 387,0 440.5,0 440.5,-20"/>
<text text-anchor="middle" x="413.75" y="-6.5" font-family="Helvetica,sans-Serif" font-size="10.00">iostream</text>
</a>
</g>
</g>
<!-- Node8&#45;&gt;Node10 -->
<g id="edge10_Node000008_Node000010" class="edge">
<title>Node8&#45;&gt;Node10</title>
<g id="a_edge10_Node000008_Node000010"><a xlink:title=" ">
<path fill="none" stroke="#63b8ff" d="M484.62,-61.62C471.56,-52.29 451.26,-37.79 435.73,-26.7"/>
<polygon fill="#63b8ff" stroke="#63b8ff" points="437.95,-23.27 427.78,-20.31 433.89,-28.97 437.95,-23.27"/>
</a>
</g>
</g>
<!-- Node8&#45;&gt;Node11 -->
<g id="edge11_Node000008_Node000011" class="edge">
<title>Node8&#45;&gt;Node11</title>
<g id="a_edge11_Node000008_Node000011"><a xlink:title=" ">
<path fill="none" stroke="#63b8ff" d="M510.56,-61.62C523.32,-52.29 543.13,-37.79 558.29,-26.7"/>
<polygon fill="#63b8ff" stroke="#63b8ff" points="560.02,-29.04 566.03,-20.31 555.89,-23.39 560.02,-29.04"/>
</a>
</g>
</g>
<!-- Node12 -->
<g id="Node000012" class="node">
<title>Node12</title>
<g id="a_Node000012"><a xlink:href="FMTutility_8hpp.html" target="_top" xlink:title=" ">
<polygon fill="white" stroke="#666666" points="536.5,-20 459,-20 459,0 536.5,0 536.5,-20"/>
<text text-anchor="middle" x="497.75" y="-6.5" font-family="Helvetica,sans-Serif" font-size="10.00">FMTutility.hpp</text>
</a>
</g>
</g>
<!-- Node8&#45;&gt;Node12 -->
<g id="edge12_Node000008_Node000012" class="edge">
<title>Node8&#45;&gt;Node12</title>
<g id="a_edge12_Node000008_Node000012"><a xlink:title=" ">
<path fill="none" stroke="#63b8ff" d="M497.75,-61.62C497.75,-53.48 497.75,-41.39 497.75,-31.07"/>
<polygon fill="#63b8ff" stroke="#63b8ff" points="501.25,-31.11 497.75,-21.11 494.25,-31.11 501.25,-31.11"/>
</a>
</g>
</g>
</g>
</svg>
