<?xml version="1.0" encoding="UTF-8" standalone="no"?>
<!DOCTYPE svg PUBLIC "-//W3C//DTD SVG 1.1//EN"
 "http://www.w3.org/Graphics/SVG/1.1/DTD/svg11.dtd">
<!-- Generated by graphviz version 8.1.0 (20230707.0739)
 -->
<!-- Title: C:/Temp/out/FMT/Include/FMTversion.hpp Pages: 1 -->
<svg width="789pt" height="220pt"
 viewBox="0.00 0.00 789.12 220.00" xmlns="http://www.w3.org/2000/svg" xmlns:xlink="http://www.w3.org/1999/xlink">
<g id="graph0" class="graph" transform="scale(1 1) rotate(0) translate(4 216)">
<title>C:/Temp/out/FMT/Include/FMTversion.hpp</title>
<!-- Node1 -->
<g id="Node000001" class="node">
<title>Node1</title>
<g id="a_Node000001"><a xlink:title=" ">
<polygon fill="#999999" stroke="#666666" points="125.5,-212 0,-212 0,-180 125.5,-180 125.5,-212"/>
<text text-anchor="start" x="8" y="-198.5" font-family="Helvetica,sans-Serif" font-size="10.00">C:/Temp/out/FMT/Include</text>
<text text-anchor="middle" x="62.75" y="-186.5" font-family="Helvetica,sans-Serif" font-size="10.00">/FMTversion.hpp</text>
</a>
</g>
</g>
<!-- Node2 -->
<g id="Node000002" class="node">
<title>Node2</title>
<g id="a_Node000002"><a xlink:title=" ">
<polygon fill="#e0e0e0" stroke="#999999" points="158.75,-20 118.75,-20 118.75,0 158.75,0 158.75,-20"/>
<text text-anchor="middle" x="138.75" y="-6.5" font-family="Helvetica,sans-Serif" font-size="10.00">string</text>
</a>
</g>
</g>
<!-- Node1&#45;&gt;Node2 -->
<g id="edge1_Node000001_Node000002" class="edge">
<title>Node1&#45;&gt;Node2</title>
<g id="a_edge1_Node000001_Node000002"><a xlink:title=" ">
<path fill="none" stroke="#63b8ff" d="M52.63,-179.85C35.93,-152.74 6.86,-95.12 32.75,-56 49.3,-30.99 82.86,-19.84 107.8,-14.89"/>
<polygon fill="#63b8ff" stroke="#63b8ff" points="108.31,-18.18 117.57,-13.03 107.12,-11.29 108.31,-18.18"/>
</a>
</g>
</g>
<!-- Node3 -->
<g id="Node000003" class="node">
<title>Node3</title>
<g id="a_Node000003"><a xlink:title=" ">
<polygon fill="#e0e0e0" stroke="#999999" points="83.5,-82 42,-82 42,-62 83.5,-62 83.5,-82"/>
<text text-anchor="middle" x="62.75" y="-68.5" font-family="Helvetica,sans-Serif" font-size="10.00">vector</text>
</a>
</g>
</g>
<!-- Node1&#45;&gt;Node3 -->
<g id="edge2_Node000001_Node000003" class="edge">
<title>Node1&#45;&gt;Node3</title>
<g id="a_edge2_Node000001_Node000003"><a xlink:title=" ">
<path fill="none" stroke="#63b8ff" d="M62.75,-179.55C62.75,-157.61 62.75,-117.4 62.75,-93.15"/>
<polygon fill="#63b8ff" stroke="#63b8ff" points="66.25,-93.38 62.75,-83.38 59.25,-93.38 66.25,-93.38"/>
</a>
</g>
</g>
<!-- Node4 -->
<g id="Node000004" class="node">
<title>Node4</title>
<g id="a_Node000004"><a xlink:href="FMTobject_8hpp.html" target="_top" xlink:title=" ">
<polygon fill="white" stroke="#666666" points="415,-144 334.5,-144 334.5,-124 415,-124 415,-144"/>
<text text-anchor="middle" x="374.75" y="-130.5" font-family="Helvetica,sans-Serif" font-size="10.00">FMTobject.hpp</text>
</a>
</g>
</g>
<!-- Node1&#45;&gt;Node4 -->
<g id="edge3_Node000001_Node000004" class="edge">
<title>Node1&#45;&gt;Node4</title>
<g id="a_edge3_Node000001_Node000004"><a xlink:title=" ">
<path fill="none" stroke="#63b8ff" d="M125.89,-182.86C184.03,-171.68 269.22,-155.29 323.32,-144.89"/>
<polygon fill="#63b8ff" stroke="#63b8ff" points="323.88,-148.16 333.04,-142.83 322.56,-141.28 323.88,-148.16"/>
</a>
</g>
</g>
<!-- Node4&#45;&gt;Node3 -->
<g id="edge15_Node000004_Node000003" class="edge">
<title>Node4&#45;&gt;Node3</title>
<g id="a_edge15_Node000004_Node000003"><a xlink:title=" ">
<path fill="none" stroke="#63b8ff" d="M334.16,-130.42C278.54,-126.02 176.06,-114.77 92.75,-88 91.64,-87.64 90.52,-87.25 89.4,-86.83"/>
<polygon fill="#63b8ff" stroke="#63b8ff" points="91.07,-83.3 80.5,-82.5 88.26,-89.71 91.07,-83.3"/>
</a>
</g>
</g>
<!-- Node5 -->
<g id="Node000005" class="node">
<title>Node5</title>
<g id="a_Node000005"><a xlink:title=" ">
<polygon fill="#e0e0e0" stroke="#999999" points="196.12,-88 101.38,-88 101.38,-56 196.12,-56 196.12,-88"/>
<text text-anchor="start" x="109.38" y="-74.5" font-family="Helvetica,sans-Serif" font-size="10.00">boost/serialization</text>
<text text-anchor="middle" x="148.75" y="-62.5" font-family="Helvetica,sans-Serif" font-size="10.00">/shared_ptr.hpp</text>
</a>
</g>
</g>
<!-- Node4&#45;&gt;Node5 -->
<g id="edge4_Node000004_Node000005" class="edge">
<title>Node4&#45;&gt;Node5</title>
<g id="a_edge4_Node000004_Node000005"><a xlink:title=" ">
<path fill="none" stroke="#63b8ff" d="M339.19,-123.56C303.74,-114.15 248.7,-99.54 206.89,-88.44"/>
<polygon fill="#63b8ff" stroke="#63b8ff" points="207.86,-84.81 197.29,-85.62 206.06,-91.57 207.86,-84.81"/>
</a>
</g>
</g>
<!-- Node6 -->
<g id="Node000006" class="node">
<title>Node6</title>
<g id="a_Node000006"><a xlink:title=" ">
<polygon fill="#e0e0e0" stroke="#999999" points="309.12,-88 214.38,-88 214.38,-56 309.12,-56 309.12,-88"/>
<text text-anchor="start" x="222.38" y="-74.5" font-family="Helvetica,sans-Serif" font-size="10.00">boost/serialization</text>
<text text-anchor="middle" x="261.75" y="-62.5" font-family="Helvetica,sans-Serif" font-size="10.00">/nvp.hpp</text>
</a>
</g>
</g>
<!-- Node4&#45;&gt;Node6 -->
<g id="edge5_Node000004_Node000006" class="edge">
<title>Node4&#45;&gt;Node6</title>
<g id="a_edge5_Node000004_Node000006"><a xlink:title=" ">
<path fill="none" stroke="#63b8ff" d="M357.09,-123.62C341.91,-115.56 319.46,-103.64 300.16,-93.4"/>
<polygon fill="#63b8ff" stroke="#63b8ff" points="302.18,-89.97 291.7,-88.37 298.89,-96.15 302.18,-89.97"/>
</a>
</g>
</g>
<!-- Node7 -->
<g id="Node000007" class="node">
<title>Node7</title>
<g id="a_Node000007"><a xlink:title=" ">
<polygon fill="#e0e0e0" stroke="#999999" points="422.12,-88 327.38,-88 327.38,-56 422.12,-56 422.12,-88"/>
<text text-anchor="start" x="335.38" y="-74.5" font-family="Helvetica,sans-Serif" font-size="10.00">boost/serialization</text>
<text text-anchor="middle" x="374.75" y="-62.5" font-family="Helvetica,sans-Serif" font-size="10.00">/export.hpp</text>
</a>
</g>
</g>
<!-- Node4&#45;&gt;Node7 -->
<g id="edge6_Node000004_Node000007" class="edge">
<title>Node4&#45;&gt;Node7</title>
<g id="a_edge6_Node000004_Node000007"><a xlink:title=" ">
<path fill="none" stroke="#63b8ff" d="M374.75,-123.62C374.75,-117.02 374.75,-107.84 374.75,-99.11"/>
<polygon fill="#63b8ff" stroke="#63b8ff" points="378.25,-99.14 374.75,-89.14 371.25,-99.14 378.25,-99.14"/>
</a>
</g>
</g>
<!-- Node8 -->
<g id="Node000008" class="node">
<title>Node8</title>
<g id="a_Node000008"><a xlink:href="FMTexception_8hpp.html" target="_top" xlink:title=" ">
<polygon fill="white" stroke="#666666" points="536.88,-82 440.62,-82 440.62,-62 536.88,-62 536.88,-82"/>
<text text-anchor="middle" x="488.75" y="-68.5" font-family="Helvetica,sans-Serif" font-size="10.00">FMTexception.hpp</text>
</a>
</g>
</g>
<!-- Node4&#45;&gt;Node8 -->
<g id="edge7_Node000004_Node000008" class="edge">
<title>Node4&#45;&gt;Node8</title>
<g id="a_edge7_Node000004_Node000008"><a xlink:title=" ">
<path fill="none" stroke="#63b8ff" d="M392.56,-123.62C411.05,-113.89 440.2,-98.55 461.57,-87.31"/>
<polygon fill="#63b8ff" stroke="#63b8ff" points="462.84,-90.06 470.06,-82.31 459.58,-83.87 462.84,-90.06"/>
</a>
</g>
</g>
<!-- Node11 -->
<g id="Node000011" class="node">
<title>Node11</title>
<g id="a_Node000011"><a xlink:title=" ">
<polygon fill="#e0e0e0" stroke="#999999" points="596.38,-20 545.12,-20 545.12,0 596.38,0 596.38,-20"/>
<text text-anchor="middle" x="570.75" y="-6.5" font-family="Helvetica,sans-Serif" font-size="10.00">memory</text>
</a>
</g>
</g>
<!-- Node4&#45;&gt;Node11 -->
<g id="edge13_Node000004_Node000011" class="edge">
<title>Node4&#45;&gt;Node11</title>
<g id="a_edge13_Node000004_Node000011"><a xlink:title=" ">
<path fill="none" stroke="#63b8ff" d="M415.24,-132.91C453.62,-130.65 510.5,-121.31 545.75,-88 561.36,-73.25 567.24,-48.67 569.45,-31.25"/>
<polygon fill="#63b8ff" stroke="#63b8ff" points="573.03,-31.6 570.48,-21.31 566.06,-30.94 573.03,-31.6"/>
</a>
</g>
</g>
<!-- Node13 -->
<g id="Node000013" class="node">
<title>Node13</title>
<g id="a_Node000013"><a xlink:title=" ">
<polygon fill="#e0e0e0" stroke="#999999" points="638.38,-82 593.12,-82 593.12,-62 638.38,-62 638.38,-82"/>
<text text-anchor="middle" x="615.75" y="-68.5" font-family="Helvetica,sans-Serif" font-size="10.00">chrono</text>
</a>
</g>
</g>
<!-- Node4&#45;&gt;Node13 -->
<g id="edge14_Node000004_Node000013" class="edge">
<title>Node4&#45;&gt;Node13</title>
<g id="a_edge14_Node000004_Node000013"><a xlink:title=" ">
<path fill="none" stroke="#63b8ff" d="M415.14,-126.16C456.68,-118.65 522.99,-105.32 578.75,-88 580.69,-87.4 582.66,-86.74 584.65,-86.04"/>
<polygon fill="#63b8ff" stroke="#63b8ff" points="585.33,-89.15 593.45,-82.35 582.86,-82.6 585.33,-89.15"/>
</a>
</g>
</g>
<!-- Node14 -->
<g id="Node000014" class="node">
<title>Node14</title>
<g id="a_Node000014"><a xlink:title=" ">
<polygon fill="#e0e0e0" stroke="#999999" points="781.12,-88 656.38,-88 656.38,-56 781.12,-56 781.12,-88"/>
<text text-anchor="start" x="664.38" y="-74.5" font-family="Helvetica,sans-Serif" font-size="10.00">boost/dll/runtime_symbol</text>
<text text-anchor="middle" x="718.75" y="-62.5" font-family="Helvetica,sans-Serif" font-size="10.00">_info.hpp</text>
</a>
</g>
</g>
<!-- Node4&#45;&gt;Node14 -->
<g id="edge16_Node000004_Node000014" class="edge">
<title>Node4&#45;&gt;Node14</title>
<g id="a_edge16_Node000004_Node000014"><a xlink:title=" ">
<path fill="none" stroke="#63b8ff" d="M415.09,-126.93C466.37,-119.09 557.87,-104.67 645.41,-88.4"/>
<polygon fill="#63b8ff" stroke="#63b8ff" points="645.87,-91.68 655.06,-86.4 644.59,-84.8 645.87,-91.68"/>
</a>
</g>
</g>
<!-- Node8&#45;&gt;Node2 -->
<g id="edge9_Node000008_Node000002" class="edge">
<title>Node8&#45;&gt;Node2</title>
<g id="a_edge9_Node000008_Node000002"><a xlink:title=" ">
<path fill="none" stroke="#63b8ff" d="M454.53,-61.54C446.75,-59.56 438.49,-57.59 430.75,-56 336.44,-36.59 223.43,-21.45 169.85,-14.75"/>
<polygon fill="#63b8ff" stroke="#63b8ff" points="170.41,-11.17 160.05,-13.42 169.55,-18.12 170.41,-11.17"/>
</a>
</g>
</g>
<!-- Node9 -->
<g id="Node000009" class="node">
<title>Node9</title>
<g id="a_Node000009"><a xlink:title=" ">
<polygon fill="#e0e0e0" stroke="#999999" points="359.75,-20 301.75,-20 301.75,0 359.75,0 359.75,-20"/>
<text text-anchor="middle" x="330.75" y="-6.5" font-family="Helvetica,sans-Serif" font-size="10.00">exception</text>
</a>
</g>
</g>
<!-- Node8&#45;&gt;Node9 -->
<g id="edge8_Node000008_Node000009" class="edge">
<title>Node8&#45;&gt;Node9</title>
<g id="a_edge8_Node000008_Node000009"><a xlink:title=" ">
<path fill="none" stroke="#63b8ff" d="M464.06,-61.62C437.59,-51.57 395.34,-35.53 365.51,-24.2"/>
<polygon fill="#63b8ff" stroke="#63b8ff" points="367.12,-20.69 356.52,-20.41 364.63,-27.23 367.12,-20.69"/>
</a>
</g>
</g>
<!-- Node10 -->
<g id="Node000010" class="node">
<title>Node10</title>
<g id="a_Node000010"><a xlink:title=" ">
<polygon fill="#e0e0e0" stroke="#999999" points="431.5,-20 378,-20 378,0 431.5,0 431.5,-20"/>
<text text-anchor="middle" x="404.75" y="-6.5" font-family="Helvetica,sans-Serif" font-size="10.00">iostream</text>
</a>
</g>
</g>
<!-- Node8&#45;&gt;Node10 -->
<g id="edge10_Node000008_Node000010" class="edge">
<title>Node8&#45;&gt;Node10</title>
<g id="a_edge10_Node000008_Node000010"><a xlink:title=" ">
<path fill="none" stroke="#63b8ff" d="M475.62,-61.62C462.56,-52.29 442.26,-37.79 426.73,-26.7"/>
<polygon fill="#63b8ff" stroke="#63b8ff" points="428.95,-23.27 418.78,-20.31 424.89,-28.97 428.95,-23.27"/>
</a>
</g>
</g>
<!-- Node8&#45;&gt;Node11 -->
<g id="edge11_Node000008_Node000011" class="edge">
<title>Node8&#45;&gt;Node11</title>
<g id="a_edge11_Node000008_Node000011"><a xlink:title=" ">
<path fill="none" stroke="#63b8ff" d="M501.56,-61.62C514.32,-52.29 534.13,-37.79 549.29,-26.7"/>
<polygon fill="#63b8ff" stroke="#63b8ff" points="551.02,-29.04 557.03,-20.31 546.89,-23.39 551.02,-29.04"/>
</a>
</g>
</g>
<!-- Node12 -->
<g id="Node000012" class="node">
<title>Node12</title>
<g id="a_Node000012"><a xlink:href="FMTutility_8hpp.html" target="_top" xlink:title=" ">
<polygon fill="white" stroke="#666666" points="527.5,-20 450,-20 450,0 527.5,0 527.5,-20"/>
<text text-anchor="middle" x="488.75" y="-6.5" font-family="Helvetica,sans-Serif" font-size="10.00">FMTutility.hpp</text>
</a>
</g>
</g>
<!-- Node8&#45;&gt;Node12 -->
<g id="edge12_Node000008_Node000012" class="edge">
<title>Node8&#45;&gt;Node12</title>
<g id="a_edge12_Node000008_Node000012"><a xlink:title=" ">
<path fill="none" stroke="#63b8ff" d="M488.75,-61.62C488.75,-53.48 488.75,-41.39 488.75,-31.07"/>
<polygon fill="#63b8ff" stroke="#63b8ff" points="492.25,-31.11 488.75,-21.11 485.25,-31.11 492.25,-31.11"/>
</a>
</g>
</g>
</g>
</svg>
