<?xml version="1.0" encoding="UTF-8" standalone="no"?>
<!DOCTYPE svg PUBLIC "-//W3C//DTD SVG 1.1//EN"
 "http://www.w3.org/Graphics/SVG/1.1/DTD/svg11.dtd">
<!-- Generated by graphviz version 8.1.0 (20230707.0739)
 -->
<!-- Title: C:/Users/CYRGU3/OneDrive &#45; BuroVirtuel/Bureau/FMT/FMT/Include/FMTvertexproperties.hpp Pages: 1 -->
<!--zoomable 612 -->

<svg id="main" version="1.1" xmlns="http://www.w3.org/2000/svg" xmlns:xlink="http://www.w3.org/1999/xlink" xml:space="preserve" onload="init(evt)">
<style type="text/css"><![CDATA[
.node, .edge {opacity: 0.7;}
.node.selected, .edge.selected {opacity: 1;}
.edge:hover path { stroke: red; }
.edge:hover polygon { stroke: red; fill: red; }
]]></style>

<defs>
  <circle id="rim" cx="0" cy="0" r="7"/>
  <circle id="rim2" cx="0" cy="0" r="3.5"/>
  <g id="zoomPlus">
    <use xlink:href="#rim" fill="#404040"><set attributeName="fill" to="#808080" begin="zoomplus.mouseover" end="zoomplus.mouseout"/></use>
    <path d="M-4,0h8M0,-4v8" fill="none" stroke="white" stroke-width="1.5" pointer-events="none"/>
  </g>
  <g id="zoomMin">
    <use xlink:href="#rim" fill="#404040"><set attributeName="fill" to="#808080" begin="zoomminus.mouseover" end="zoomminus.mouseout"/></use>
    <path d="M-4,0h8" fill="none" stroke="white" stroke-width="1.5" pointer-events="none"/>
  </g>
  <g id="arrowUp" transform="translate(30 24)">
    <use xlink:href="#rim"/>
    <path pointer-events="none" fill="none" stroke="white" stroke-width="1.5" d="M0,-3.0v7 M-2.5,-0.5L0,-3.0L2.5,-0.5"/>
  </g>
  <g id="arrowRight" transform="rotate(90) translate(36 -43)">
    <use xlink:href="#rim"/>
    <path pointer-events="none" fill="none" stroke="white" stroke-width="1.5" d="M0,-3.0v7 M-2.5,-0.5L0,-3.0L2.5,-0.5"/>
  </g>
  <g id="arrowDown" transform="rotate(180) translate(-30 -48)">
    <use xlink:href="#rim"/>
    <path pointer-events="none" fill="none" stroke="white" stroke-width="1.5" d="M0,-3.0v7 M-2.5,-0.5L0,-3.0L2.5,-0.5"/>
  </g>
  <g id="arrowLeft" transform="rotate(270) translate(-36 17)">
    <use xlink:href="#rim"/>
    <path pointer-events="none" fill="none" stroke="white" stroke-width="1.5" d="M0,-3.0v7 M-2.5,-0.5L0,-3.0L2.5,-0.5"/>
  </g>
  <g id="resetDef">
    <use xlink:href="#rim2" fill="#404040"><set attributeName="fill" to="#808080" begin="reset.mouseover" end="reset.mouseout"/></use>
  </g>
</defs>
<script type="application/ecmascript">
var viewWidth = 1270;
var viewHeight = 612;
var sectionId = 'dynsection-1';
</script>
<script type="application/ecmascript" xlink:href="svg.min.js"/>
<svg id="graph" class="graph">
<g id="viewport">
<title>C:/Users/CYRGU3/OneDrive &#45; BuroVirtuel/Bureau/FMT/FMT/Include/FMTvertexproperties.hpp</title>
<!-- Node1 -->
<g id="Node000001" class="node">
<title>Node1</title>
<g id="a_Node000001"><a xlink:title=" ">
<polygon fill="#999999" stroke="#666666" points="733.6,-604 551.85,-604 551.85,-560 733.6,-560 733.6,-604"/>
<text text-anchor="start" x="559.85" y="-590.5" font-family="Helvetica,sans-Serif" font-size="10.00">C:/Users/CYRGU3/OneDrive</text>
<text text-anchor="start" x="559.85" y="-578.5" font-family="Helvetica,sans-Serif" font-size="10.00"> &#45; BuroVirtuel/Bureau/FMT</text>
<text text-anchor="middle" x="642.72" y="-566.5" font-family="Helvetica,sans-Serif" font-size="10.00">/FMT/Include/FMTvertexproperties.hpp</text>
</a>
</g>
</g>
<!-- Node2 -->
<g id="Node000002" class="node">
<title>Node2</title>
<g id="a_Node000002"><a xlink:href="FMTgraph_8hpp.html" target="_top" xlink:title=" ">
<polygon fill="white" stroke="#666666" points="712.22,-524 573.22,-524 573.22,-480 712.22,-480 712.22,-524"/>
<text text-anchor="start" x="581.22" y="-510.5" font-family="Helvetica,sans-Serif" font-size="10.00">C:/Users/CYRGU3/OneDrive</text>
<text text-anchor="start" x="581.22" y="-498.5" font-family="Helvetica,sans-Serif" font-size="10.00"> &#45; BuroVirtuel/Bureau/FMT</text>
<text text-anchor="middle" x="642.72" y="-486.5" font-family="Helvetica,sans-Serif" font-size="10.00">/FMT/Include/FMTgraph.hpp</text>
</a>
</g>
</g>
<!-- Node1&#45;&gt;Node2 -->
<g id="edge1_Node000001_Node000002" class="edge">
<title>Node1&#45;&gt;Node2</title>
<g id="a_edge1_Node000001_Node000002"><a xlink:title=" ">
<path fill="none" stroke="#63b8ff" d="M642.72,-548.82C642.72,-540.54 642.72,-531.85 642.72,-524.29"/>
<polygon fill="#63b8ff" stroke="#63b8ff" points="639.22,-548.69 642.72,-558.69 646.22,-548.69 639.22,-548.69"/>
</a>
</g>
</g>
<!-- Node18 -->
<g id="Node000018" class="node">
<title>Node18</title>
<g id="a_Node000018"><a xlink:href="FMTsrmodel_8hpp.html" target="_top" xlink:title=" ">
<polygon fill="white" stroke="#666666" points="285.72,-284 137.72,-284 137.72,-240 285.72,-240 285.72,-284"/>
<text text-anchor="start" x="145.72" y="-270.5" font-family="Helvetica,sans-Serif" font-size="10.00">C:/Users/CYRGU3/OneDrive</text>
<text text-anchor="start" x="145.72" y="-258.5" font-family="Helvetica,sans-Serif" font-size="10.00"> &#45; BuroVirtuel/Bureau/FMT</text>
<text text-anchor="middle" x="211.72" y="-246.5" font-family="Helvetica,sans-Serif" font-size="10.00">/FMT/Include/FMTsrmodel.hpp</text>
</a>
</g>
</g>
<!-- Node1&#45;&gt;Node18 -->
<g id="edge48_Node000001_Node000018" class="edge">
<title>Node1&#45;&gt;Node18</title>
<g id="a_edge48_Node000001_Node000018"><a xlink:title=" ">
<path fill="none" stroke="#63b8ff" d="M541.16,-556.73C469.06,-535.75 373,-499.86 302.72,-444 250.27,-402.31 225.49,-322.44 216.25,-284.3"/>
<polygon fill="#63b8ff" stroke="#63b8ff" points="540.04,-560.33 550.61,-559.71 541.96,-553.6 540.04,-560.33"/>
</a>
</g>
</g>
<!-- Node23 -->
<g id="Node000023" class="node">
<title>Node23</title>
<g id="a_Node000023"><a xlink:href="FMTgraphdescription_8hpp.html" target="_top" xlink:title=" ">
<polygon fill="white" stroke="#666666" points="915.1,-524 730.35,-524 730.35,-480 915.1,-480 915.1,-524"/>
<text text-anchor="start" x="738.35" y="-510.5" font-family="Helvetica,sans-Serif" font-size="10.00">C:/Users/CYRGU3/OneDrive</text>
<text text-anchor="start" x="738.35" y="-498.5" font-family="Helvetica,sans-Serif" font-size="10.00"> &#45; BuroVirtuel/Bureau/FMT</text>
<text text-anchor="middle" x="822.72" y="-486.5" font-family="Helvetica,sans-Serif" font-size="10.00">/FMT/Include/FMTgraphdescription.hpp</text>
</a>
</g>
</g>
<!-- Node1&#45;&gt;Node23 -->
<g id="edge47_Node000001_Node000023" class="edge">
<title>Node1&#45;&gt;Node23</title>
<g id="a_edge47_Node000001_Node000023"><a xlink:title=" ">
<path fill="none" stroke="#63b8ff" d="M701.94,-555.34C725.04,-545.33 751.22,-533.99 773.28,-524.42"/>
<polygon fill="#63b8ff" stroke="#63b8ff" points="700.69,-552.5 692.91,-559.69 703.48,-558.92 700.69,-552.5"/>
</a>
</g>
</g>
<!-- Node3 -->
<g id="Node000003" class="node">
<title>Node3</title>
<g id="a_Node000003"><a xlink:href="FMTlinegraph_8hpp.html" target="_top" xlink:title=" ">
<polygon fill="white" stroke="#666666" points="530.97,-444 378.47,-444 378.47,-400 530.97,-400 530.97,-444"/>
<text text-anchor="start" x="386.47" y="-430.5" font-family="Helvetica,sans-Serif" font-size="10.00">C:/Users/CYRGU3/OneDrive</text>
<text text-anchor="start" x="386.47" y="-418.5" font-family="Helvetica,sans-Serif" font-size="10.00"> &#45; BuroVirtuel/Bureau/FMT</text>
<text text-anchor="middle" x="454.72" y="-406.5" font-family="Helvetica,sans-Serif" font-size="10.00">/FMT/Include/FMTlinegraph.hpp</text>
</a>
</g>
</g>
<!-- Node2&#45;&gt;Node3 -->
<g id="edge2_Node000002_Node000003" class="edge">
<title>Node2&#45;&gt;Node3</title>
<g id="a_edge2_Node000002_Node000003"><a xlink:title=" ">
<path fill="none" stroke="#63b8ff" d="M581.2,-475.47C556.99,-465.43 529.51,-454.03 506.36,-444.42"/>
<polygon fill="#63b8ff" stroke="#63b8ff" points="579.77,-479.09 590.35,-479.69 582.46,-472.62 579.77,-479.09"/>
</a>
</g>
</g>
<!-- Node13 -->
<g id="Node000013" class="node">
<title>Node13</title>
<g id="a_Node000013"><a xlink:href="RexportSpatial_8hpp.html" target="_top" xlink:title=" ">
<polygon fill="white" stroke="#666666" points="461.6,-284 303.85,-284 303.85,-240 461.6,-240 461.6,-284"/>
<text text-anchor="start" x="311.85" y="-270.5" font-family="Helvetica,sans-Serif" font-size="10.00">C:/Users/CYRGU3/OneDrive</text>
<text text-anchor="start" x="311.85" y="-258.5" font-family="Helvetica,sans-Serif" font-size="10.00"> &#45; BuroVirtuel/Bureau/FMT</text>
<text text-anchor="middle" x="382.72" y="-246.5" font-family="Helvetica,sans-Serif" font-size="10.00">/FMT/Include/RexportSpatial.hpp</text>
</a>
</g>
</g>
<!-- Node2&#45;&gt;Node13 -->
<g id="edge46_Node000002_Node000013" class="edge">
<title>Node2&#45;&gt;Node13</title>
<g id="a_edge46_Node000002_Node000013"><a xlink:title=" ">
<path fill="none" stroke="#63b8ff" d="M562.17,-495.21C490.58,-488.2 393.65,-473.44 369.72,-444 332.17,-397.79 357.15,-321.16 372.8,-284.21"/>
<polygon fill="#63b8ff" stroke="#63b8ff" points="561.7,-498.78 571.98,-496.23 562.36,-491.81 561.7,-498.78"/>
</a>
</g>
</g>
<!-- Node14 -->
<g id="Node000014" class="node">
<title>Node14</title>
<g id="a_Node000014"><a xlink:href="FMToperatingareascheme_8hpp.html" target="_top" xlink:title=" ">
<polygon fill="white" stroke="#666666" points="1261.97,-284 1055.47,-284 1055.47,-240 1261.97,-240 1261.97,-284"/>
<text text-anchor="start" x="1063.47" y="-270.5" font-family="Helvetica,sans-Serif" font-size="10.00">C:/Users/CYRGU3/OneDrive</text>
<text text-anchor="start" x="1063.47" y="-258.5" font-family="Helvetica,sans-Serif" font-size="10.00"> &#45; BuroVirtuel/Bureau/FMT</text>
<text text-anchor="middle" x="1158.72" y="-246.5" font-family="Helvetica,sans-Serif" font-size="10.00">/FMT/Include/FMToperatingareascheme.hpp</text>
</a>
</g>
</g>
<!-- Node2&#45;&gt;Node14 -->
<g id="edge21_Node000002_Node000014" class="edge">
<title>Node2&#45;&gt;Node14</title>
<g id="a_edge21_Node000002_Node000014"><a xlink:title=" ">
<path fill="none" stroke="#63b8ff" d="M723.09,-480.17C823.03,-467.25 1042.96,-496.86 1106.72,-444 1154.8,-404.15 1160.08,-323.01 1159.67,-284.37"/>
<polygon fill="#63b8ff" stroke="#63b8ff" points="722.72,-476.84 713.37,-481.81 723.78,-483.76 722.72,-476.84"/>
</a>
</g>
</g>
<!-- Node17 -->
<g id="Node000017" class="node">
<title>Node17</title>
<g id="a_Node000017"><a xlink:href="FMToutputnodecache_8hpp.html" target="_top" xlink:title=" ">
<polygon fill="white" stroke="#666666" points="736.6,-444 548.85,-444 548.85,-400 736.6,-400 736.6,-444"/>
<text text-anchor="start" x="556.85" y="-430.5" font-family="Helvetica,sans-Serif" font-size="10.00">C:/Users/CYRGU3/OneDrive</text>
<text text-anchor="start" x="556.85" y="-418.5" font-family="Helvetica,sans-Serif" font-size="10.00"> &#45; BuroVirtuel/Bureau/FMT</text>
<text text-anchor="middle" x="642.72" y="-406.5" font-family="Helvetica,sans-Serif" font-size="10.00">/FMT/Include/FMToutputnodecache.hpp</text>
</a>
</g>
</g>
<!-- Node2&#45;&gt;Node17 -->
<g id="edge29_Node000002_Node000017" class="edge">
<title>Node2&#45;&gt;Node17</title>
<g id="a_edge29_Node000002_Node000017"><a xlink:title=" ">
<path fill="none" stroke="#63b8ff" d="M636.07,-468.82C635.84,-460.54 636.03,-451.85 636.63,-444.29"/>
<polygon fill="#63b8ff" stroke="#63b8ff" points="632.62,-468.88 636.63,-478.69 639.61,-468.52 632.62,-468.88"/>
</a>
</g>
</g>
<!-- Node2&#45;&gt;Node18 -->
<g id="edge31_Node000002_Node000018" class="edge">
<title>Node2&#45;&gt;Node18</title>
<g id="a_edge31_Node000002_Node000018"><a xlink:title=" ">
<path fill="none" stroke="#63b8ff" d="M562.19,-492.12C487.21,-482.67 381.9,-466.06 346.72,-444 314.09,-423.54 252.02,-327.85 224.92,-284.47"/>
<polygon fill="#63b8ff" stroke="#63b8ff" points="561.66,-495.7 572.02,-493.46 562.52,-488.76 561.66,-495.7"/>
</a>
</g>
</g>
<!-- Node21 -->
<g id="Node000021" class="node">
<title>Node21</title>
<g id="a_Node000021"><a xlink:href="PYexportGraph_8hpp.html" target="_top" xlink:title=" ">
<polygon fill="white" stroke="#666666" points="915.1,-444 754.35,-444 754.35,-400 915.1,-400 915.1,-444"/>
<text text-anchor="start" x="762.35" y="-430.5" font-family="Helvetica,sans-Serif" font-size="10.00">C:/Users/CYRGU3/OneDrive</text>
<text text-anchor="start" x="762.35" y="-418.5" font-family="Helvetica,sans-Serif" font-size="10.00"> &#45; BuroVirtuel/Bureau/FMT</text>
<text text-anchor="middle" x="834.72" y="-406.5" font-family="Helvetica,sans-Serif" font-size="10.00">/FMT/Include/PYexportGraph.hpp</text>
</a>
</g>
</g>
<!-- Node2&#45;&gt;Node21 -->
<g id="edge44_Node000002_Node000021" class="edge">
<title>Node2&#45;&gt;Node21</title>
<g id="a_edge44_Node000002_Node000021"><a xlink:title=" ">
<path fill="none" stroke="#63b8ff" d="M705.48,-475.51C730.26,-465.44 758.43,-454 782.12,-444.37"/>
<polygon fill="#63b8ff" stroke="#63b8ff" points="704.39,-472.58 696.44,-479.58 707.02,-479.06 704.39,-472.58"/>
</a>
</g>
</g>
<!-- Node22 -->
<g id="Node000022" class="node">
<title>Node22</title>
<g id="a_Node000022"><a xlink:href="PYexportSpatial_8hpp.html" target="_top" xlink:title=" ">
<polygon fill="white" stroke="#666666" points="1097.97,-444 933.47,-444 933.47,-400 1097.97,-400 1097.97,-444"/>
<text text-anchor="start" x="941.47" y="-430.5" font-family="Helvetica,sans-Serif" font-size="10.00">C:/Users/CYRGU3/OneDrive</text>
<text text-anchor="start" x="941.47" y="-418.5" font-family="Helvetica,sans-Serif" font-size="10.00"> &#45; BuroVirtuel/Bureau/FMT</text>
<text text-anchor="middle" x="1015.72" y="-406.5" font-family="Helvetica,sans-Serif" font-size="10.00">/FMT/Include/PYexportSpatial.hpp</text>
</a>
</g>
</g>
<!-- Node2&#45;&gt;Node22 -->
<g id="edge45_Node000002_Node000022" class="edge">
<title>Node2&#45;&gt;Node22</title>
<g id="a_edge45_Node000002_Node000022"><a xlink:title=" ">
<path fill="none" stroke="#63b8ff" d="M723.08,-479.79C812.6,-460.38 837.67,-461.48 923.72,-444 926.77,-443.38 929.88,-442.74 933.01,-442.08"/>
<polygon fill="#63b8ff" stroke="#63b8ff" points="722.45,-476.57 713.43,-482.13 723.95,-483.4 722.45,-476.57"/>
</a>
</g>
</g>
<!-- Node4 -->
<g id="Node000004" class="node">
<title>Node4</title>
<g id="a_Node000004"><a xlink:href="FMTspatialschedule_8hpp.html" target="_top" xlink:title=" ">
<polygon fill="white" stroke="#666666" points="598.22,-364 417.22,-364 417.22,-320 598.22,-320 598.22,-364"/>
<text text-anchor="start" x="425.22" y="-350.5" font-family="Helvetica,sans-Serif" font-size="10.00">C:/Users/CYRGU3/OneDrive</text>
<text text-anchor="start" x="425.22" y="-338.5" font-family="Helvetica,sans-Serif" font-size="10.00"> &#45; BuroVirtuel/Bureau/FMT</text>
<text text-anchor="middle" x="507.72" y="-326.5" font-family="Helvetica,sans-Serif" font-size="10.00">/FMT/Include/FMTspatialschedule.hpp</text>
</a>
</g>
</g>
<!-- Node3&#45;&gt;Node4 -->
<g id="edge3_Node000003_Node000004" class="edge">
<title>Node3&#45;&gt;Node4</title>
<g id="a_edge3_Node000003_Node000004"><a xlink:title=" ">
<path fill="none" stroke="#63b8ff" d="M475.26,-390.78C481.27,-381.93 487.71,-372.45 493.26,-364.29"/>
<polygon fill="#63b8ff" stroke="#63b8ff" points="471.93,-388.45 469.21,-398.69 477.72,-392.38 471.93,-388.45"/>
</a>
</g>
</g>
<!-- Node8 -->
<g id="Node000008" class="node">
<title>Node8</title>
<g id="a_Node000008"><a xlink:href="Rdeclarations_8hpp.html" target="_top" xlink:title=" ">
<polygon fill="white" stroke="#666666" points="731.35,-124 578.1,-124 578.1,-80 731.35,-80 731.35,-124"/>
<text text-anchor="start" x="586.1" y="-110.5" font-family="Helvetica,sans-Serif" font-size="10.00">C:/Users/CYRGU3/OneDrive</text>
<text text-anchor="start" x="586.1" y="-98.5" font-family="Helvetica,sans-Serif" font-size="10.00"> &#45; BuroVirtuel/Bureau/FMT</text>
<text text-anchor="middle" x="654.72" y="-86.5" font-family="Helvetica,sans-Serif" font-size="10.00">/FMT/Include/Rdeclarations.hpp</text>
</a>
</g>
</g>
<!-- Node3&#45;&gt;Node8 -->
<g id="edge19_Node000003_Node000008" class="edge">
<title>Node3&#45;&gt;Node8</title>
<g id="a_edge19_Node000003_Node000008"><a xlink:title=" ">
<path fill="none" stroke="#63b8ff" d="M531.65,-396.02C556.42,-387.01 583.67,-376.06 607.72,-364 724.98,-305.2 792.96,-319.18 855.72,-204 865.08,-186.83 867.51,-175.6 855.72,-160 847.84,-149.56 785.02,-132.79 731.68,-120.14"/>
<polygon fill="#63b8ff" stroke="#63b8ff" points="530.8,-392.97 522.57,-399.63 533.16,-399.56 530.8,-392.97"/>
</a>
</g>
</g>
<!-- Node3&#45;&gt;Node13 -->
<g id="edge20_Node000003_Node000013" class="edge">
<title>Node3&#45;&gt;Node13</title>
<g id="a_edge20_Node000003_Node000013"><a xlink:title=" ">
<path fill="none" stroke="#63b8ff" d="M426.79,-391.27C420.1,-382.93 413.51,-373.53 408.72,-364 395.8,-338.27 388.9,-305.54 385.53,-284.43"/>
<polygon fill="#63b8ff" stroke="#63b8ff" points="424.62,-393.13 433.74,-398.53 429.98,-388.63 424.62,-393.13"/>
</a>
</g>
</g>
<!-- Node5 -->
<g id="Node000005" class="node">
<title>Node5</title>
<g id="a_Node000005"><a xlink:href="FMTsemodel_8hpp.html" target="_top" xlink:title=" ">
<polygon fill="white" stroke="#666666" points="629.85,-284 479.6,-284 479.6,-240 629.85,-240 629.85,-284"/>
<text text-anchor="start" x="487.6" y="-270.5" font-family="Helvetica,sans-Serif" font-size="10.00">C:/Users/CYRGU3/OneDrive</text>
<text text-anchor="start" x="487.6" y="-258.5" font-family="Helvetica,sans-Serif" font-size="10.00"> &#45; BuroVirtuel/Bureau/FMT</text>
<text text-anchor="middle" x="554.72" y="-246.5" font-family="Helvetica,sans-Serif" font-size="10.00">/FMT/Include/FMTsemodel.hpp</text>
</a>
</g>
</g>
<!-- Node4&#45;&gt;Node5 -->
<g id="edge4_Node000004_Node000005" class="edge">
<title>Node4&#45;&gt;Node5</title>
<g id="a_edge4_Node000004_Node000005"><a xlink:title=" ">
<path fill="none" stroke="#63b8ff" d="M526.1,-310.5C531.38,-301.74 537.03,-292.37 541.9,-284.29"/>
<polygon fill="#63b8ff" stroke="#63b8ff" points="522.73,-308.31 520.57,-318.69 528.73,-311.93 522.73,-308.31"/>
</a>
</g>
</g>
<!-- Node4&#45;&gt;Node13 -->
<g id="edge18_Node000004_Node000013" class="edge">
<title>Node4&#45;&gt;Node13</title>
<g id="a_edge18_Node000004_Node000013"><a xlink:title=" ">
<path fill="none" stroke="#63b8ff" d="M464.61,-314.1C448.99,-304.35 431.58,-293.49 416.84,-284.29"/>
<polygon fill="#63b8ff" stroke="#63b8ff" points="462.23,-317.36 472.57,-319.69 465.94,-311.42 462.23,-317.36"/>
</a>
</g>
</g>
<!-- Node6 -->
<g id="Node000006" class="node">
<title>Node6</title>
<g id="a_Node000006"><a xlink:href="FMTsamodel_8hpp.html" target="_top" xlink:title=" ">
<polygon fill="white" stroke="#666666" points="450.85,-204 300.6,-204 300.6,-160 450.85,-160 450.85,-204"/>
<text text-anchor="start" x="308.6" y="-190.5" font-family="Helvetica,sans-Serif" font-size="10.00">C:/Users/CYRGU3/OneDrive</text>
<text text-anchor="start" x="308.6" y="-178.5" font-family="Helvetica,sans-Serif" font-size="10.00"> &#45; BuroVirtuel/Bureau/FMT</text>
<text text-anchor="middle" x="375.72" y="-166.5" font-family="Helvetica,sans-Serif" font-size="10.00">/FMT/Include/FMTsamodel.hpp</text>
</a>
</g>
</g>
<!-- Node5&#45;&gt;Node6 -->
<g id="edge5_Node000005_Node000006" class="edge">
<title>Node5&#45;&gt;Node6</title>
<g id="a_edge5_Node000005_Node000006"><a xlink:title=" ">
<path fill="none" stroke="#63b8ff" d="M495.84,-235.34C472.86,-225.33 446.83,-213.99 424.89,-204.42"/>
<polygon fill="#63b8ff" stroke="#63b8ff" points="494.24,-238.9 504.81,-239.69 497.04,-232.48 494.24,-238.9"/>
</a>
</g>
</g>
<!-- Node7 -->
<g id="Node000007" class="node">
<title>Node7</title>
<g id="a_Node000007"><a xlink:href="PYexportModel_8hpp.html" target="_top" xlink:title=" ">
<polygon fill="white" stroke="#666666" points="256.1,-124 95.35,-124 95.35,-80 256.1,-80 256.1,-124"/>
<text text-anchor="start" x="103.35" y="-110.5" font-family="Helvetica,sans-Serif" font-size="10.00">C:/Users/CYRGU3/OneDrive</text>
<text text-anchor="start" x="103.35" y="-98.5" font-family="Helvetica,sans-Serif" font-size="10.00"> &#45; BuroVirtuel/Bureau/FMT</text>
<text text-anchor="middle" x="175.72" y="-86.5" font-family="Helvetica,sans-Serif" font-size="10.00">/FMT/Include/PYexportModel.hpp</text>
</a>
</g>
</g>
<!-- Node5&#45;&gt;Node7 -->
<g id="edge15_Node000005_Node000007" class="edge">
<title>Node5&#45;&gt;Node7</title>
<g id="a_edge15_Node000005_Node000007"><a xlink:title=" ">
<path fill="none" stroke="#63b8ff" d="M468.52,-240.21C393.73,-232.97 107.52,-234.47 79.72,-204 66.54,-189.55 70.05,-176.99 79.72,-160 88.45,-144.67 103.1,-133.04 118.37,-124.41"/>
<polygon fill="#63b8ff" stroke="#63b8ff" points="467.92,-243.79 478.28,-241.56 468.8,-236.84 467.92,-243.79"/>
</a>
</g>
</g>
<!-- Node5&#45;&gt;Node8 -->
<g id="edge16_Node000005_Node000008" class="edge">
<title>Node5&#45;&gt;Node8</title>
<g id="a_edge16_Node000005_Node000008"><a xlink:title=" ">
<path fill="none" stroke="#63b8ff" d="M640.79,-255.4C714.71,-248.59 813.14,-234.03 837.72,-204 850.11,-188.87 849.31,-175.75 837.72,-160 830.94,-150.79 778.65,-135.03 731.7,-122.41"/>
<polygon fill="#63b8ff" stroke="#63b8ff" points="640.73,-251.98 631.08,-256.35 641.35,-258.96 640.73,-251.98"/>
</a>
</g>
</g>
<!-- Node9 -->
<g id="Node000009" class="node">
<title>Node9</title>
<g id="a_Node000009"><a xlink:href="RexportModel_8hpp.html" target="_top" xlink:title=" ">
<polygon fill="white" stroke="#666666" points="444.72,-124 290.72,-124 290.72,-80 444.72,-80 444.72,-124"/>
<text text-anchor="start" x="298.72" y="-110.5" font-family="Helvetica,sans-Serif" font-size="10.00">C:/Users/CYRGU3/OneDrive</text>
<text text-anchor="start" x="298.72" y="-98.5" font-family="Helvetica,sans-Serif" font-size="10.00"> &#45; BuroVirtuel/Bureau/FMT</text>
<text text-anchor="middle" x="367.72" y="-86.5" font-family="Helvetica,sans-Serif" font-size="10.00">/FMT/Include/RexportModel.hpp</text>
</a>
</g>
</g>
<!-- Node5&#45;&gt;Node9 -->
<g id="edge17_Node000005_Node000009" class="edge">
<title>Node5&#45;&gt;Node9</title>
<g id="a_edge17_Node000005_Node000009"><a xlink:title=" ">
<path fill="none" stroke="#63b8ff" d="M468.62,-239.82C387.58,-225.63 341.03,-264.21 291.72,-204 279.33,-188.87 282.98,-177.49 291.72,-160 299.1,-145.25 312.31,-133.32 325.67,-124.27"/>
<polygon fill="#63b8ff" stroke="#63b8ff" points="467.71,-243.41 478.21,-241.94 469.09,-236.55 467.71,-243.41"/>
</a>
</g>
</g>
<!-- Node10 -->
<g id="Node000010" class="node">
<title>Node10</title>
<g id="a_Node000010"><a xlink:href="FMTsesmodel_8hpp.html" target="_top" xlink:title=" ">
<polygon fill="white" stroke="#666666" points="828.47,-204 672.97,-204 672.97,-160 828.47,-160 828.47,-204"/>
<text text-anchor="start" x="680.97" y="-190.5" font-family="Helvetica,sans-Serif" font-size="10.00">C:/Users/CYRGU3/OneDrive</text>
<text text-anchor="start" x="680.97" y="-178.5" font-family="Helvetica,sans-Serif" font-size="10.00"> &#45; BuroVirtuel/Bureau/FMT</text>
<text text-anchor="middle" x="750.72" y="-166.5" font-family="Helvetica,sans-Serif" font-size="10.00">/FMT/Include/FMTsesmodel.hpp</text>
</a>
</g>
</g>
<!-- Node5&#45;&gt;Node10 -->
<g id="edge9_Node000005_Node000010" class="edge">
<title>Node5&#45;&gt;Node10</title>
<g id="a_edge9_Node000005_Node000010"><a xlink:title=" ">
<path fill="none" stroke="#63b8ff" d="M618.45,-235.64C643.83,-225.54 672.73,-214.04 697.03,-204.37"/>
<polygon fill="#63b8ff" stroke="#63b8ff" points="617.54,-232.63 609.54,-239.58 620.13,-239.14 617.54,-232.63"/>
</a>
</g>
</g>
<!-- Node6&#45;&gt;Node7 -->
<g id="edge6_Node000006_Node000007" class="edge">
<title>Node6&#45;&gt;Node7</title>
<g id="a_edge6_Node000006_Node000007"><a xlink:title=" ">
<path fill="none" stroke="#63b8ff" d="M310.7,-155.64C284.8,-145.54 255.31,-134.04 230.52,-124.37"/>
<polygon fill="#63b8ff" stroke="#63b8ff" points="309.22,-159.21 319.81,-159.58 311.76,-152.69 309.22,-159.21"/>
</a>
</g>
</g>
<!-- Node6&#45;&gt;Node8 -->
<g id="edge7_Node000006_Node000008" class="edge">
<title>Node6&#45;&gt;Node8</title>
<g id="a_edge7_Node000006_Node000008"><a xlink:title=" ">
<path fill="none" stroke="#63b8ff" d="M461.56,-157C498.8,-146.59 542.06,-134.5 578.19,-124.4"/>
<polygon fill="#63b8ff" stroke="#63b8ff" points="460.91,-153.83 452.22,-159.89 462.8,-160.57 460.91,-153.83"/>
</a>
</g>
</g>
<!-- Node6&#45;&gt;Node9 -->
<g id="edge8_Node000006_Node000009" class="edge">
<title>Node6&#45;&gt;Node9</title>
<g id="a_edge8_Node000006_Node000009"><a xlink:title=" ">
<path fill="none" stroke="#63b8ff" d="M372.42,-148.82C371.57,-140.54 370.68,-131.85 369.91,-124.29"/>
<polygon fill="#63b8ff" stroke="#63b8ff" points="369.03,-149.1 373.54,-158.69 376,-148.38 369.03,-149.1"/>
</a>
</g>
</g>
<!-- Node10&#45;&gt;Node7 -->
<g id="edge12_Node000010_Node000007" class="edge">
<title>Node10&#45;&gt;Node7</title>
<g id="a_edge12_Node000010_Node000007"><a xlink:title=" ">
<path fill="none" stroke="#63b8ff" d="M661.89,-165.38C649.75,-163.45 637.44,-161.6 625.72,-160 473.41,-139.26 433.72,-146.96 281.72,-124 273.47,-122.75 264.88,-121.31 256.32,-119.76"/>
<polygon fill="#63b8ff" stroke="#63b8ff" points="661.06,-168.95 671.49,-167.09 662.17,-162.04 661.06,-168.95"/>
</a>
</g>
</g>
<!-- Node10&#45;&gt;Node8 -->
<g id="edge13_Node000010_Node000008" class="edge">
<title>Node10&#45;&gt;Node8</title>
<g id="a_edge13_Node000010_Node000008"><a xlink:title=" ">
<path fill="none" stroke="#63b8ff" d="M716.26,-153C704.62,-143.54 691.82,-133.14 680.92,-124.29"/>
<polygon fill="#63b8ff" stroke="#63b8ff" points="713.52,-156.1 723.49,-159.69 717.94,-150.66 713.52,-156.1"/>
</a>
</g>
</g>
<!-- Node10&#45;&gt;Node9 -->
<g id="edge14_Node000010_Node000009" class="edge">
<title>Node10&#45;&gt;Node9</title>
<g id="a_edge14_Node000010_Node000009"><a xlink:title=" ">
<path fill="none" stroke="#63b8ff" d="M662.01,-162.93C596.32,-149.55 507.7,-131.51 444.93,-118.72"/>
<polygon fill="#63b8ff" stroke="#63b8ff" points="661.26,-166.56 671.76,-165.12 662.66,-159.7 661.26,-166.56"/>
</a>
</g>
</g>
<!-- Node11 -->
<g id="Node000011" class="node">
<title>Node11</title>
<g id="a_Node000011"><a xlink:href="FMTpythonpickle_8hpp.html" target="_top" xlink:title=" ">
<polygon fill="white" stroke="#666666" points="927.85,-124 759.6,-124 759.6,-80 927.85,-80 927.85,-124"/>
<text text-anchor="start" x="767.6" y="-110.5" font-family="Helvetica,sans-Serif" font-size="10.00">C:/Users/CYRGU3/OneDrive</text>
<text text-anchor="start" x="767.6" y="-98.5" font-family="Helvetica,sans-Serif" font-size="10.00"> &#45; BuroVirtuel/Bureau/FMT</text>
<text text-anchor="middle" x="843.72" y="-86.5" font-family="Helvetica,sans-Serif" font-size="10.00">/FMT/Include/FMTpythonpickle.hpp</text>
</a>
</g>
</g>
<!-- Node10&#45;&gt;Node11 -->
<g id="edge10_Node000010_Node000011" class="edge">
<title>Node10&#45;&gt;Node11</title>
<g id="a_edge10_Node000010_Node000011"><a xlink:title=" ">
<path fill="none" stroke="#63b8ff" d="M784.44,-152.72C795.63,-143.34 807.89,-133.06 818.34,-124.29"/>
<polygon fill="#63b8ff" stroke="#63b8ff" points="782.55,-150.58 777.14,-159.69 787.05,-155.94 782.55,-150.58"/>
</a>
</g>
</g>
<!-- Node12 -->
<g id="Node000012" class="node">
<title>Node12</title>
<g id="a_Node000012"><a xlink:href="PYexportHeuristics_8hpp.html" target="_top" xlink:title=" ">
<polygon fill="white" stroke="#666666" points="1063.72,-44 885.72,-44 885.72,0 1063.72,0 1063.72,-44"/>
<text text-anchor="start" x="893.72" y="-30.5" font-family="Helvetica,sans-Serif" font-size="10.00">C:/Users/CYRGU3/OneDrive</text>
<text text-anchor="start" x="893.72" y="-18.5" font-family="Helvetica,sans-Serif" font-size="10.00"> &#45; BuroVirtuel/Bureau/FMT</text>
<text text-anchor="middle" x="974.72" y="-6.5" font-family="Helvetica,sans-Serif" font-size="10.00">/FMT/Include/PYexportHeuristics.hpp</text>
</a>
</g>
</g>
<!-- Node11&#45;&gt;Node12 -->
<g id="edge11_Node000011_Node000012" class="edge">
<title>Node11&#45;&gt;Node12</title>
<g id="a_edge11_Node000011_Node000012"><a xlink:title=" ">
<path fill="none" stroke="#63b8ff" d="M888.91,-74.1C905.27,-64.35 923.52,-53.49 938.97,-44.29"/>
<polygon fill="#63b8ff" stroke="#63b8ff" points="887.32,-71.56 880.52,-79.69 890.9,-77.58 887.32,-71.56"/>
</a>
</g>
</g>
<!-- Node14&#45;&gt;Node12 -->
<g id="edge27_Node000014_Node000012" class="edge">
<title>Node14&#45;&gt;Node12</title>
<g id="a_edge27_Node000014_Node000012"><a xlink:title=" ">
<path fill="none" stroke="#63b8ff" d="M1175.54,-229.73C1194.02,-190.61 1216.95,-123.51 1183.72,-80 1168.68,-60.31 1113.77,-45.79 1064,-36.33"/>
<polygon fill="#63b8ff" stroke="#63b8ff" points="1172.01,-227.99 1170.74,-238.5 1178.29,-231.07 1172.01,-227.99"/>
</a>
</g>
</g>
<!-- Node15 -->
<g id="Node000015" class="node">
<title>Node15</title>
<g id="a_Node000015"><a xlink:href="FMToperatingareascheduler_8hpp.html" target="_top" xlink:title=" ">
<polygon fill="white" stroke="#666666" points="1136.72,-204 922.72,-204 922.72,-160 1136.72,-160 1136.72,-204"/>
<text text-anchor="start" x="930.72" y="-190.5" font-family="Helvetica,sans-Serif" font-size="10.00">C:/Users/CYRGU3/OneDrive</text>
<text text-anchor="start" x="930.72" y="-178.5" font-family="Helvetica,sans-Serif" font-size="10.00"> &#45; BuroVirtuel/Bureau/FMT</text>
<text text-anchor="middle" x="1029.72" y="-166.5" font-family="Helvetica,sans-Serif" font-size="10.00">/FMT/Include/FMToperatingareascheduler.hpp</text>
</a>
</g>
</g>
<!-- Node14&#45;&gt;Node15 -->
<g id="edge22_Node000014_Node000015" class="edge">
<title>Node14&#45;&gt;Node15</title>
<g id="a_edge22_Node000014_Node000015"><a xlink:title=" ">
<path fill="none" stroke="#63b8ff" d="M1114.23,-234.1C1098.11,-224.35 1080.14,-213.49 1064.93,-204.29"/>
<polygon fill="#63b8ff" stroke="#63b8ff" points="1112.1,-237.51 1122.47,-239.69 1115.73,-231.52 1112.1,-237.51"/>
</a>
</g>
</g>
<!-- Node16 -->
<g id="Node000016" class="node">
<title>Node16</title>
<g id="a_Node000016"><a xlink:href="RexportHeuristics_8hpp.html" target="_top" xlink:title=" ">
<polygon fill="white" stroke="#666666" points="1174.35,-124 1003.1,-124 1003.1,-80 1174.35,-80 1174.35,-124"/>
<text text-anchor="start" x="1011.1" y="-110.5" font-family="Helvetica,sans-Serif" font-size="10.00">C:/Users/CYRGU3/OneDrive</text>
<text text-anchor="start" x="1011.1" y="-98.5" font-family="Helvetica,sans-Serif" font-size="10.00"> &#45; BuroVirtuel/Bureau/FMT</text>
<text text-anchor="middle" x="1088.72" y="-86.5" font-family="Helvetica,sans-Serif" font-size="10.00">/FMT/Include/RexportHeuristics.hpp</text>
</a>
</g>
</g>
<!-- Node14&#45;&gt;Node16 -->
<g id="edge28_Node000014_Node000016" class="edge">
<title>Node14&#45;&gt;Node16</title>
<g id="a_edge28_Node000014_Node000016"><a xlink:title=" ">
<path fill="none" stroke="#63b8ff" d="M1159.81,-229C1159.29,-208.34 1156.25,-181.42 1145.72,-160 1139,-146.31 1127.66,-133.94 1116.87,-124.26"/>
<polygon fill="#63b8ff" stroke="#63b8ff" points="1156.31,-228.77 1159.87,-238.75 1163.31,-228.73 1156.31,-228.77"/>
</a>
</g>
</g>
<!-- Node15&#45;&gt;Node8 -->
<g id="edge25_Node000015_Node000008" class="edge">
<title>Node15&#45;&gt;Node8</title>
<g id="a_edge25_Node000015_Node000008"><a xlink:title=" ">
<path fill="none" stroke="#63b8ff" d="M912.49,-157.42C862.6,-147.29 803.78,-135.22 750.72,-124 744.55,-122.69 738.15,-121.33 731.73,-119.94"/>
<polygon fill="#63b8ff" stroke="#63b8ff" points="911.5,-161 922,-159.56 912.9,-154.14 911.5,-161"/>
</a>
</g>
</g>
<!-- Node15&#45;&gt;Node11 -->
<g id="edge23_Node000015_Node000011" class="edge">
<title>Node15&#45;&gt;Node11</title>
<g id="a_edge23_Node000015_Node000011"><a xlink:title=" ">
<path fill="none" stroke="#63b8ff" d="M968.85,-155.47C944.9,-145.43 917.71,-134.03 894.81,-124.42"/>
<polygon fill="#63b8ff" stroke="#63b8ff" points="967.32,-159.05 977.9,-159.69 970.03,-152.59 967.32,-159.05"/>
</a>
</g>
</g>
<!-- Node15&#45;&gt;Node12 -->
<g id="edge24_Node000015_Node000012" class="edge">
<title>Node15&#45;&gt;Node12</title>
<g id="a_edge24_Node000015_Node000012"><a xlink:title=" ">
<path fill="none" stroke="#63b8ff" d="M1007.6,-150.64C1002.38,-142.33 997.3,-133.1 993.72,-124 983.34,-97.6 978.53,-65.03 976.37,-44.14"/>
<polygon fill="#63b8ff" stroke="#63b8ff" points="1005.05,-152.14 1013.47,-158.57 1010.9,-148.3 1005.05,-152.14"/>
</a>
</g>
</g>
<!-- Node15&#45;&gt;Node16 -->
<g id="edge26_Node000015_Node000016" class="edge">
<title>Node15&#45;&gt;Node16</title>
<g id="a_edge26_Node000015_Node000016"><a xlink:title=" ">
<path fill="none" stroke="#63b8ff" d="M1052.37,-151.06C1059.12,-142.13 1066.38,-132.54 1072.62,-124.29"/>
<polygon fill="#63b8ff" stroke="#63b8ff" points="1049.09,-148.6 1045.85,-158.69 1054.67,-152.82 1049.09,-148.6"/>
</a>
</g>
</g>
<!-- Node17&#45;&gt;Node2 -->
<g id="edge30_Node000017_Node000002" class="edge">
<title>Node17&#45;&gt;Node2</title>
<g id="a_edge30_Node000017_Node000002"><a xlink:title=" ">
<path fill="none" stroke="#63b8ff" d="M649.38,-455.16C649.61,-463.43 649.42,-472.12 648.81,-479.69"/>
<polygon fill="#63b8ff" stroke="#63b8ff" points="652.83,-455.09 648.81,-445.29 645.84,-455.46 652.83,-455.09"/>
</a>
</g>
</g>
<!-- Node18&#45;&gt;Node7 -->
<g id="edge41_Node000018_Node000007" class="edge">
<title>Node18&#45;&gt;Node7</title>
<g id="a_edge41_Node000018_Node000007"><a xlink:title=" ">
<path fill="none" stroke="#63b8ff" d="M126.6,-247.65C77.83,-238.08 23.45,-223.43 8.72,-204 -3.09,-188.41 -2.65,-175.91 8.72,-160 28.6,-132.22 62.84,-117.82 95.16,-110.43"/>
<polygon fill="#63b8ff" stroke="#63b8ff" points="125.75,-251.24 136.22,-249.68 127.06,-244.37 125.75,-251.24"/>
</a>
</g>
</g>
<!-- Node18&#45;&gt;Node8 -->
<g id="edge42_Node000018_Node000008" class="edge">
<title>Node18&#45;&gt;Node8</title>
<g id="a_edge42_Node000018_Node000008"><a xlink:title=" ">
<path fill="none" stroke="#63b8ff" d="M296.47,-240.08C383.83,-228.8 571.44,-249.7 625.72,-204 648.89,-184.5 654.21,-147.82 655.08,-124.44"/>
<polygon fill="#63b8ff" stroke="#63b8ff" points="296.18,-236.73 286.82,-241.71 297.24,-243.65 296.18,-236.73"/>
</a>
</g>
</g>
<!-- Node18&#45;&gt;Node9 -->
<g id="edge43_Node000018_Node000009" class="edge">
<title>Node18&#45;&gt;Node9</title>
<g id="a_edge43_Node000018_Node000009"><a xlink:title=" ">
<path fill="none" stroke="#63b8ff" d="M127.12,-241.44C108.47,-233.04 90.94,-221.06 79.72,-204 68.98,-187.66 67.29,-175.09 79.72,-160 106.36,-127.68 223.65,-132.18 264.72,-124 273.05,-122.34 281.74,-120.59 290.4,-118.84"/>
<polygon fill="#63b8ff" stroke="#63b8ff" points="125.68,-245.05 136.26,-245.63 128.36,-238.58 125.68,-245.05"/>
</a>
</g>
</g>
<!-- Node19 -->
<g id="Node000019" class="node">
<title>Node19</title>
<g id="a_Node000019"><a xlink:href="FMTlpmodel_8hpp.html" target="_top" xlink:title=" ">
<polygon fill="white" stroke="#666666" points="616.35,-204 469.1,-204 469.1,-160 616.35,-160 616.35,-204"/>
<text text-anchor="start" x="477.1" y="-190.5" font-family="Helvetica,sans-Serif" font-size="10.00">C:/Users/CYRGU3/OneDrive</text>
<text text-anchor="start" x="477.1" y="-178.5" font-family="Helvetica,sans-Serif" font-size="10.00"> &#45; BuroVirtuel/Bureau/FMT</text>
<text text-anchor="middle" x="542.72" y="-166.5" font-family="Helvetica,sans-Serif" font-size="10.00">/FMT/Include/FMTlpmodel.hpp</text>
</a>
</g>
</g>
<!-- Node18&#45;&gt;Node19 -->
<g id="edge32_Node000018_Node000019" class="edge">
<title>Node18&#45;&gt;Node19</title>
<g id="a_edge32_Node000018_Node000019"><a xlink:title=" ">
<path fill="none" stroke="#63b8ff" d="M296.57,-239.6C369.59,-222.62 389.95,-220.43 459.72,-204 462.76,-203.28 465.86,-202.54 468.99,-201.79"/>
<polygon fill="#63b8ff" stroke="#63b8ff" points="295.84,-236.41 286.91,-242.1 297.44,-243.23 295.84,-236.41"/>
</a>
</g>
</g>
<!-- Node20 -->
<g id="Node000020" class="node">
<title>Node20</title>
<g id="a_Node000020"><a xlink:href="FMTnssmodel_8hpp.html" target="_top" xlink:title=" ">
<polygon fill="white" stroke="#666666" points="244.47,-204 88.97,-204 88.97,-160 244.47,-160 244.47,-204"/>
<text text-anchor="start" x="96.97" y="-190.5" font-family="Helvetica,sans-Serif" font-size="10.00">C:/Users/CYRGU3/OneDrive</text>
<text text-anchor="start" x="96.97" y="-178.5" font-family="Helvetica,sans-Serif" font-size="10.00"> &#45; BuroVirtuel/Bureau/FMT</text>
<text text-anchor="middle" x="166.72" y="-166.5" font-family="Helvetica,sans-Serif" font-size="10.00">/FMT/Include/FMTnssmodel.hpp</text>
</a>
</g>
</g>
<!-- Node18&#45;&gt;Node20 -->
<g id="edge37_Node000018_Node000020" class="edge">
<title>Node18&#45;&gt;Node20</title>
<g id="a_edge37_Node000018_Node000020"><a xlink:title=" ">
<path fill="none" stroke="#63b8ff" d="M193.97,-230.22C188.96,-221.54 183.62,-212.28 179,-204.29"/>
<polygon fill="#63b8ff" stroke="#63b8ff" points="191.4,-231.77 199.43,-238.69 197.46,-228.28 191.4,-231.77"/>
</a>
</g>
</g>
<!-- Node19&#45;&gt;Node7 -->
<g id="edge34_Node000019_Node000007" class="edge">
<title>Node19&#45;&gt;Node7</title>
<g id="a_edge34_Node000019_Node000007"><a xlink:title=" ">
<path fill="none" stroke="#63b8ff" d="M458.4,-159.81C419.5,-151.44 325.91,-132.78 256.59,-119.02"/>
<polygon fill="#63b8ff" stroke="#63b8ff" points="457.48,-163.41 468,-162.15 458.99,-156.58 457.48,-163.41"/>
</a>
</g>
</g>
<!-- Node19&#45;&gt;Node8 -->
<g id="edge35_Node000019_Node000008" class="edge">
<title>Node19&#45;&gt;Node8</title>
<g id="a_edge35_Node000019_Node000008"><a xlink:title=" ">
<path fill="none" stroke="#63b8ff" d="M582.14,-153.55C595.93,-143.95 611.2,-133.31 624.16,-124.29"/>
<polygon fill="#63b8ff" stroke="#63b8ff" points="580.53,-151.1 574.33,-159.69 584.53,-156.84 580.53,-151.1"/>
</a>
</g>
</g>
<!-- Node19&#45;&gt;Node9 -->
<g id="edge36_Node000019_Node000009" class="edge">
<title>Node19&#45;&gt;Node9</title>
<g id="a_edge36_Node000019_Node000009"><a xlink:title=" ">
<path fill="none" stroke="#63b8ff" d="M485.15,-155.34C462.69,-145.33 437.24,-133.99 415.79,-124.42"/>
<polygon fill="#63b8ff" stroke="#63b8ff" points="483.34,-158.81 493.9,-159.69 486.19,-152.42 483.34,-158.81"/>
</a>
</g>
</g>
<!-- Node19&#45;&gt;Node11 -->
<g id="edge33_Node000019_Node000011" class="edge">
<title>Node19&#45;&gt;Node11</title>
<g id="a_edge33_Node000019_Node000011"><a xlink:title=" ">
<path fill="none" stroke="#63b8ff" d="M627.19,-159.11C669.03,-148.27 719.36,-135.23 760.97,-124.44"/>
<polygon fill="#63b8ff" stroke="#63b8ff" points="626.54,-155.92 617.74,-161.82 628.3,-162.7 626.54,-155.92"/>
</a>
</g>
</g>
<!-- Node20&#45;&gt;Node7 -->
<g id="edge38_Node000020_Node000007" class="edge">
<title>Node20&#45;&gt;Node7</title>
<g id="a_edge38_Node000020_Node000007"><a xlink:title=" ">
<path fill="none" stroke="#63b8ff" d="M170.44,-148.82C171.39,-140.54 172.39,-131.85 173.27,-124.29"/>
<polygon fill="#63b8ff" stroke="#63b8ff" points="166.85,-148.35 169.18,-158.69 173.81,-149.15 166.85,-148.35"/>
</a>
</g>
</g>
<!-- Node20&#45;&gt;Node8 -->
<g id="edge39_Node000020_Node000008" class="edge">
<title>Node20&#45;&gt;Node8</title>
<g id="a_edge39_Node000020_Node000008"><a xlink:title=" ">
<path fill="none" stroke="#63b8ff" d="M255.38,-165.99C267.59,-163.95 279.96,-161.91 291.72,-160 390.42,-143.96 504.35,-126.19 577.85,-114.83"/>
<polygon fill="#63b8ff" stroke="#63b8ff" points="255,-162.67 245.72,-167.76 256.16,-169.57 255,-162.67"/>
</a>
</g>
</g>
<!-- Node20&#45;&gt;Node9 -->
<g id="edge40_Node000020_Node000009" class="edge">
<title>Node20&#45;&gt;Node9</title>
<g id="a_edge40_Node000020_Node000009"><a xlink:title=" ">
<path fill="none" stroke="#63b8ff" d="M232.07,-155.64C258.11,-145.54 287.74,-134.04 312.66,-124.37"/>
<polygon fill="#63b8ff" stroke="#63b8ff" points="230.97,-152.7 222.91,-159.58 233.5,-159.23 230.97,-152.7"/>
</a>
</g>
</g>
</g>
</svg>

<g id="navigator" transform="translate(0 0)" fill="#404254">
  <rect fill="#f2f5e9" fill-opacity="0.5" stroke="#606060" stroke-width=".5" x="0" y="0" width="60" height="60"/>
  <use id="zoomplus" xlink:href="#zoomPlus" x="17" y="9" onmousedown="handleZoom(evt,'in')"/>
  <use id="zoomminus" xlink:href="#zoomMin" x="42" y="9" onmousedown="handleZoom(evt,'out')"/>
  <use id="reset" xlink:href="#resetDef" x="30" y="36" onmousedown="handleReset()"/>
   <use id="arrowup" xlink:href="#arrowUp" x="0" y="0" onmousedown="handlePan(0,-1)"/>
  <use id="arrowright" xlink:href="#arrowRight" x="0" y="0" onmousedown="handlePan(1,0)"/>
  <use id="arrowdown" xlink:href="#arrowDown" x="0" y="0" onmousedown="handlePan(0,1)"/>
  <use id="arrowleft" xlink:href="#arrowLeft" x="0" y="0" onmousedown="handlePan(-1,0)"/>
</g>
<svg viewBox="0 0 15 15" width="100%" height="30px" preserveAspectRatio="xMaxYMin meet">
 <g id="arrow_out" transform="scale(0.3 0.3)">
  <a xlink:href="FMTvertexproperties_8hpp__dep__incl_org.svg" target="_base">
   <rect id="button" ry="5" rx="5" y="6" x="6" height="38" width="38"
        fill="#f2f5e9" fill-opacity="0.5" stroke="#606060" stroke-width="1.0"/>
   <path id="arrow"
     d="M 11.500037,31.436501 C 11.940474,20.09759 22.043105,11.32322 32.158766,21.979434 L 37.068811,17.246167 C 37.068811,17.246167 37.088388,32 37.088388,32 L 22.160133,31.978069 C 22.160133,31.978069 26.997745,27.140456 26.997745,27.140456 C 18.528582,18.264221 13.291696,25.230495 11.500037,31.436501 z"
     style="fill:#404040;"/>
  </a>
 </g>
</svg>

<style type='text/css'>
<![CDATA[
[data-mouse-over-selected='false'] { opacity: 0.7; }
[data-mouse-over-selected='true']  { opacity: 1.0; }
]]>
</style>
<script type="application/ecmascript"><![CDATA[
document.addEventListener('DOMContentLoaded', (event) => {
  highlightEdges();
  highlightAdjacentNodes();
});
]]></script>
</svg>
