<?xml version="1.0" encoding="UTF-8" standalone="no"?>
<!DOCTYPE svg PUBLIC "-//W3C//DTD SVG 1.1//EN"
 "http://www.w3.org/Graphics/SVG/1.1/DTD/svg11.dtd">
<!-- Generated by graphviz version 10.0.1 (20240210.2158)
 -->
<!-- Title: D:/FMT/Include/FMTyieldparser.hpp Pages: 1 -->
<!--zoomable 276 -->
<svg id="main" version="1.1" xmlns="http://www.w3.org/2000/svg" xmlns:xlink="http://www.w3.org/1999/xlink" xml:space="preserve" onload="init(evt)">
<style type="text/css"><![CDATA[
.edge:hover path { stroke: red; }
.edge:hover polygon { stroke: red; fill: red; }
]]></style>
<script type="text/javascript"><![CDATA[
var edges = document.getElementsByTagName('g');
if (edges && edges.length) {
  for (var i=0;i<edges.length;i++) {
    if (edges[i].id.substr(0,4)=='edge') {
      edges[i].setAttribute('class','edge');
    }
  }
}
]]></script>
        <defs>
                <circle id="rim" cx="0" cy="0" r="7"/>
                <circle id="rim2" cx="0" cy="0" r="3.5"/>
                <g id="zoomPlus">
                        <use xlink:href="#rim" fill="#404040">
                                <set attributeName="fill" to="#808080" begin="zoomplus.mouseover" end="zoomplus.mouseout"/>
                        </use>
                        <path d="M-4,0h8M0,-4v8" fill="none" stroke="white" stroke-width="1.5" pointer-events="none"/>
                </g>
                <g id="zoomMin">
                        <use xlink:href="#rim" fill="#404040">
                                <set attributeName="fill" to="#808080" begin="zoomminus.mouseover" end="zoomminus.mouseout"/>
                        </use>
                        <path d="M-4,0h8" fill="none" stroke="white" stroke-width="1.5" pointer-events="none"/>
                </g>
                <g id="dirArrow">
                        <path fill="none" stroke="white" stroke-width="1.5" d="M0,-3.0v7 M-2.5,-0.5L0,-3.0L2.5,-0.5"/>
                </g>
               <g id="resetDef">
                       <use xlink:href="#rim2" fill="#404040">
                               <set attributeName="fill" to="#808080" begin="reset.mouseover" end="reset.mouseout"/>
                       </use>
               </g>
        </defs>

<script type="text/javascript">
var viewWidth = 1188;
var viewHeight = 276;
var sectionId = 'dynsection-0';
</script>
<script xlink:href="svgpan.js"/>
<svg id="graph" class="graph">
<g id="viewport">
<title>D:/FMT/Include/FMTyieldparser.hpp</title>
<!-- Node1 -->
<g id="node1" class="node">
<title>Node1</title>
<g id="a_node1"><a xlink:title=" ">
<polygon fill="#999999" stroke="#666666" points="818.54,-268 648.04,-268 648.04,-248 818.54,-248 818.54,-268"/>
<text text-anchor="middle" x="733.29" y="-254.5" font-family="Helvetica,sans-Serif" font-size="10.00">D:/FMT/Include/FMTyieldparser.hpp</text>
</a>
</g>
</g>
<!-- Node2 -->
<g id="node2" class="node">
<title>Node2</title>
<g id="a_node2"><a xlink:href="FMTparser_8hpp.html" target="_top" xlink:title=" ">
<polygon fill="white" stroke="#666666" points="519.92,-212 438.67,-212 438.67,-192 519.92,-192 519.92,-212"/>
<text text-anchor="middle" x="479.29" y="-198.5" font-family="Helvetica,sans-Serif" font-size="10.00">FMTparser.hpp</text>
</a>
</g>
</g>
<!-- Node1&#45;&gt;Node2 -->
<g id="edge1" class="edge">
<title>Node1&#45;&gt;Node2</title>
<path fill="none" stroke="#63b8ff" d="M688.76,-247.53C644.86,-238.2 577.8,-223.94 531.43,-214.08"/>
<polygon fill="#63b8ff" stroke="#63b8ff" points="532.4,-210.71 521.89,-212.06 530.94,-217.56 532.4,-210.71"/>
</g>
<!-- Node3 -->
<g id="node3" class="node">
<title>Node3</title>
<g id="a_node3"><a xlink:title=" ">
<polygon fill="#e0e0e0" stroke="#999999" points="105.17,-150 19.42,-150 19.42,-130 105.17,-130 105.17,-150"/>
<text text-anchor="middle" x="62.29" y="-136.5" font-family="Helvetica,sans-Serif" font-size="10.00">boost/regex.hpp</text>
</a>
</g>
</g>
<!-- Node1&#45;&gt;Node3 -->
<g id="edge29" class="edge">
<title>Node1&#45;&gt;Node3</title>
<path fill="none" stroke="#63b8ff" d="M647.77,-252.42C561.27,-246.75 424.06,-234.9 307.29,-212 232.46,-197.32 147.45,-170.27 99.81,-154.13"/>
<polygon fill="#63b8ff" stroke="#63b8ff" points="101.13,-150.88 90.53,-150.96 98.86,-157.5 101.13,-150.88"/>
</g>
<!-- Node4 -->
<g id="node4" class="node">
<title>Node4</title>
<g id="a_node4"><a xlink:title=" ">
<polygon fill="#e0e0e0" stroke="#999999" points="169.29,-150 123.29,-150 123.29,-130 169.29,-130 169.29,-150"/>
<text text-anchor="middle" x="146.29" y="-136.5" font-family="Helvetica,sans-Serif" font-size="10.00">iterator</text>
</a>
</g>
</g>
<!-- Node1&#45;&gt;Node4 -->
<g id="edge28" class="edge">
<title>Node1&#45;&gt;Node4</title>
<path fill="none" stroke="#63b8ff" d="M647.63,-249.39C536.87,-237.77 339.1,-210.89 178.29,-156 177.16,-155.61 176.02,-155.2 174.87,-154.76"/>
<polygon fill="#63b8ff" stroke="#63b8ff" points="176.59,-151.69 166.02,-151.02 173.86,-158.14 176.59,-151.69"/>
</g>
<!-- Node7 -->
<g id="node7" class="node">
<title>Node7</title>
<g id="a_node7"><a xlink:title=" ">
<polygon fill="#e0e0e0" stroke="#999999" points="199.29,-20 159.29,-20 159.29,0 199.29,0 199.29,-20"/>
<text text-anchor="middle" x="179.29" y="-6.5" font-family="Helvetica,sans-Serif" font-size="10.00">string</text>
</a>
</g>
</g>
<!-- Node1&#45;&gt;Node7 -->
<g id="edge30" class="edge">
<title>Node1&#45;&gt;Node7</title>
<path fill="none" stroke="#63b8ff" d="M647.72,-253.92C545.76,-249.23 370.55,-237.91 222.29,-212 126.29,-195.22 69.76,-233.21 10.29,-156 -35.91,-96.01 87.53,-42.93 148.06,-21.31"/>
<polygon fill="#63b8ff" stroke="#63b8ff" points="149.2,-24.62 157.49,-18.03 146.89,-18.01 149.2,-24.62"/>
</g>
<!-- Node8 -->
<g id="node8" class="node">
<title>Node8</title>
<g id="a_node8"><a xlink:title=" ">
<polygon fill="#e0e0e0" stroke="#999999" points="1008.04,-82 966.54,-82 966.54,-62 1008.04,-62 1008.04,-82"/>
<text text-anchor="middle" x="987.29" y="-68.5" font-family="Helvetica,sans-Serif" font-size="10.00">vector</text>
</a>
</g>
</g>
<!-- Node1&#45;&gt;Node8 -->
<g id="edge31" class="edge">
<title>Node1&#45;&gt;Node8</title>
<path fill="none" stroke="#63b8ff" d="M746.24,-247.62C787.09,-218.03 913.59,-126.39 965.12,-89.06"/>
<polygon fill="#63b8ff" stroke="#63b8ff" points="967.1,-91.95 973.15,-83.25 963,-86.28 967.1,-91.95"/>
</g>
<!-- Node10 -->
<g id="node10" class="node">
<title>Node10</title>
<g id="a_node10"><a xlink:href="FMTutility_8hpp.html" target="_top" xlink:title=" ">
<polygon fill="white" stroke="#666666" points="1075.04,-20 997.54,-20 997.54,0 1075.04,0 1075.04,-20"/>
<text text-anchor="middle" x="1036.29" y="-6.5" font-family="Helvetica,sans-Serif" font-size="10.00">FMTutility.hpp</text>
</a>
</g>
</g>
<!-- Node1&#45;&gt;Node10 -->
<g id="edge27" class="edge">
<title>Node1&#45;&gt;Node10</title>
<path fill="none" stroke="#63b8ff" d="M818.91,-252C918.24,-245.31 1070.73,-231.93 1088.29,-212 1134.13,-159.98 1117.12,-119.06 1088.29,-56 1082.91,-44.23 1072.77,-34.36 1062.86,-26.9"/>
<polygon fill="#63b8ff" stroke="#63b8ff" points="1065.06,-24.16 1054.84,-21.35 1061.07,-29.91 1065.06,-24.16"/>
</g>
<!-- Node20 -->
<g id="node20" class="node">
<title>Node20</title>
<g id="a_node20"><a xlink:title=" ">
<polygon fill="#e0e0e0" stroke="#999999" points="418.92,-20 367.67,-20 367.67,0 418.92,0 418.92,-20"/>
<text text-anchor="middle" x="393.29" y="-6.5" font-family="Helvetica,sans-Serif" font-size="10.00">memory</text>
</a>
</g>
</g>
<!-- Node1&#45;&gt;Node20 -->
<g id="edge33" class="edge">
<title>Node1&#45;&gt;Node20</title>
<path fill="none" stroke="#63b8ff" d="M770.92,-247.51C865.94,-221.92 1102.16,-147.21 1017.29,-56 977.25,-12.96 558.67,-10.53 430.43,-10.81"/>
<polygon fill="#63b8ff" stroke="#63b8ff" points="430.79,-7.31 420.8,-10.84 430.81,-14.31 430.79,-7.31"/>
</g>
<!-- Node23 -->
<g id="node23" class="node">
<title>Node23</title>
<g id="a_node23"><a xlink:title=" ">
<polygon fill="#e0e0e0" stroke="#999999" points="1179.92,-212 1140.67,-212 1140.67,-192 1179.92,-192 1179.92,-212"/>
<text text-anchor="middle" x="1160.29" y="-198.5" font-family="Helvetica,sans-Serif" font-size="10.00">utility</text>
</a>
</g>
</g>
<!-- Node1&#45;&gt;Node23 -->
<g id="edge32" class="edge">
<title>Node1&#45;&gt;Node23</title>
<path fill="none" stroke="#63b8ff" d="M818.92,-250.79C898.9,-244.14 1021.35,-231.79 1126.29,-212 1127.29,-211.81 1128.3,-211.61 1129.32,-211.4"/>
<polygon fill="#63b8ff" stroke="#63b8ff" points="1129.86,-214.87 1138.79,-209.16 1128.26,-208.05 1129.86,-214.87"/>
</g>
<!-- Node2&#45;&gt;Node3 -->
<g id="edge2" class="edge">
<title>Node2&#45;&gt;Node3</title>
<path fill="none" stroke="#63b8ff" d="M438.17,-198.06C370.23,-192.73 230.48,-179.77 114.29,-156 110.66,-155.26 106.9,-154.38 103.16,-153.44"/>
<polygon fill="#63b8ff" stroke="#63b8ff" points="104.09,-150.07 93.53,-150.86 102.28,-156.83 104.09,-150.07"/>
</g>
<!-- Node2&#45;&gt;Node4 -->
<g id="edge3" class="edge">
<title>Node2&#45;&gt;Node4</title>
<path fill="none" stroke="#63b8ff" d="M438.55,-198.66C379.92,-194.45 268.83,-183.35 178.29,-156 176.94,-155.59 175.57,-155.13 174.2,-154.64"/>
<polygon fill="#63b8ff" stroke="#63b8ff" points="175.85,-151.54 165.27,-150.93 173.16,-158 175.85,-151.54"/>
</g>
<!-- Node5 -->
<g id="node5" class="node">
<title>Node5</title>
<g id="a_node5"><a xlink:title=" ">
<polygon fill="#e0e0e0" stroke="#999999" points="271.04,-20 217.54,-20 217.54,0 271.04,0 271.04,-20"/>
<text text-anchor="middle" x="244.29" y="-6.5" font-family="Helvetica,sans-Serif" font-size="10.00">iostream</text>
</a>
</g>
</g>
<!-- Node2&#45;&gt;Node5 -->
<g id="edge4" class="edge">
<title>Node2&#45;&gt;Node5</title>
<path fill="none" stroke="#63b8ff" d="M479.29,-191.55C478.74,-175.16 475.09,-141.56 455.29,-124 389.36,-65.52 323.3,-149.62 260.29,-88 245.52,-73.55 242.62,-49.27 242.72,-31.84"/>
<polygon fill="#63b8ff" stroke="#63b8ff" points="246.22,-32.01 243.15,-21.87 239.22,-31.71 246.22,-32.01"/>
</g>
<!-- Node6 -->
<g id="node6" class="node">
<title>Node6</title>
<g id="a_node6"><a xlink:title=" ">
<polygon fill="#e0e0e0" stroke="#999999" points="653.42,-150 605.17,-150 605.17,-130 653.42,-130 653.42,-150"/>
<text text-anchor="middle" x="629.29" y="-136.5" font-family="Helvetica,sans-Serif" font-size="10.00">fstream</text>
</a>
</g>
</g>
<!-- Node2&#45;&gt;Node6 -->
<g id="edge5" class="edge">
<title>Node2&#45;&gt;Node6</title>
<path fill="none" stroke="#63b8ff" d="M505.03,-191.6C528.85,-182.79 565.18,-169.04 596.29,-156 597.08,-155.67 597.87,-155.34 598.67,-155"/>
<polygon fill="#63b8ff" stroke="#63b8ff" points="600,-158.23 607.75,-151 597.18,-151.82 600,-158.23"/>
</g>
<!-- Node2&#45;&gt;Node7 -->
<g id="edge6" class="edge">
<title>Node2&#45;&gt;Node7</title>
<path fill="none" stroke="#63b8ff" d="M475.2,-191.66C467.45,-175.14 448.98,-140.92 422.29,-124 353.02,-80.09 311.45,-130.49 241.29,-88 218.2,-74.01 200.07,-48.13 189.53,-30.26"/>
<polygon fill="#63b8ff" stroke="#63b8ff" points="192.65,-28.68 184.71,-21.67 186.55,-32.1 192.65,-28.68"/>
</g>
<!-- Node2&#45;&gt;Node8 -->
<g id="edge7" class="edge">
<title>Node2&#45;&gt;Node8</title>
<path fill="none" stroke="#63b8ff" d="M520.1,-195.32C604.13,-182.76 801.63,-148.85 957.29,-88 958.07,-87.7 958.85,-87.38 959.63,-87.06"/>
<polygon fill="#63b8ff" stroke="#63b8ff" points="960.75,-90.39 968.39,-83.06 957.84,-84.03 960.75,-90.39"/>
</g>
<!-- Node9 -->
<g id="node9" class="node">
<title>Node9</title>
<g id="a_node9"><a xlink:title=" ">
<polygon fill="#e0e0e0" stroke="#999999" points="713.42,-150 671.17,-150 671.17,-130 713.42,-130 713.42,-150"/>
<text text-anchor="middle" x="692.29" y="-136.5" font-family="Helvetica,sans-Serif" font-size="10.00">queue</text>
</a>
</g>
</g>
<!-- Node2&#45;&gt;Node9 -->
<g id="edge8" class="edge">
<title>Node2&#45;&gt;Node9</title>
<path fill="none" stroke="#63b8ff" d="M520.41,-193.61C558.02,-186.22 614.85,-173.45 662.29,-156 663.09,-155.71 663.9,-155.4 664.71,-155.07"/>
<polygon fill="#63b8ff" stroke="#63b8ff" points="666.06,-158.3 673.75,-151.02 663.2,-151.92 666.06,-158.3"/>
</g>
<!-- Node2&#45;&gt;Node10 -->
<g id="edge9" class="edge">
<title>Node2&#45;&gt;Node10</title>
<path fill="none" stroke="#63b8ff" d="M520.15,-198.34C633.69,-190.07 949.17,-160.85 1017.29,-88 1031.45,-72.86 1035.53,-48.9 1036.48,-31.73"/>
<polygon fill="#63b8ff" stroke="#63b8ff" points="1039.98,-32 1036.69,-21.92 1032.98,-31.85 1039.98,-32"/>
</g>
<!-- Node11 -->
<g id="node11" class="node">
<title>Node11</title>
<g id="a_node11"><a xlink:title=" ">
<polygon fill="#e0e0e0" stroke="#999999" points="225.17,-150 187.42,-150 187.42,-130 225.17,-130 225.17,-150"/>
<text text-anchor="middle" x="206.29" y="-136.5" font-family="Helvetica,sans-Serif" font-size="10.00">array</text>
</a>
</g>
</g>
<!-- Node2&#45;&gt;Node11 -->
<g id="edge10" class="edge">
<title>Node2&#45;&gt;Node11</title>
<path fill="none" stroke="#63b8ff" d="M438.41,-197.4C388.95,-192.16 303.68,-180.29 234.29,-156 233.64,-155.77 232.99,-155.53 232.33,-155.28"/>
<polygon fill="#63b8ff" stroke="#63b8ff" points="233.81,-152.11 223.27,-151.09 230.88,-158.46 233.81,-152.11"/>
</g>
<!-- Node12 -->
<g id="node12" class="node">
<title>Node12</title>
<g id="a_node12"><a xlink:title=" ">
<polygon fill="#e0e0e0" stroke="#999999" points="283.29,-150 243.29,-150 243.29,-130 283.29,-130 283.29,-150"/>
<text text-anchor="middle" x="263.29" y="-136.5" font-family="Helvetica,sans-Serif" font-size="10.00">ctime</text>
</a>
</g>
</g>
<!-- Node2&#45;&gt;Node12 -->
<g id="edge11" class="edge">
<title>Node2&#45;&gt;Node12</title>
<path fill="none" stroke="#63b8ff" d="M438.33,-194.09C399.87,-186.92 341.1,-174.19 292.29,-156 291.52,-155.71 290.73,-155.41 289.95,-155.09"/>
<polygon fill="#63b8ff" stroke="#63b8ff" points="291.77,-152.07 281.22,-151.07 288.84,-158.43 291.77,-152.07"/>
</g>
<!-- Node13 -->
<g id="node13" class="node">
<title>Node13</title>
<g id="a_node13"><a xlink:title=" ">
<polygon fill="#e0e0e0" stroke="#999999" points="412.92,-156 301.67,-156 301.67,-124 412.92,-124 412.92,-156"/>
<text text-anchor="start" x="309.67" y="-142.5" font-family="Helvetica,sans-Serif" font-size="10.00">boost/thread/recursive</text>
<text text-anchor="middle" x="357.29" y="-130.5" font-family="Helvetica,sans-Serif" font-size="10.00">_mutex.hpp</text>
</a>
</g>
</g>
<!-- Node2&#45;&gt;Node13 -->
<g id="edge12" class="edge">
<title>Node2&#45;&gt;Node13</title>
<path fill="none" stroke="#63b8ff" d="M460.23,-191.62C443.83,-183.56 419.6,-171.64 398.77,-161.4"/>
<polygon fill="#63b8ff" stroke="#63b8ff" points="400.43,-158.31 389.91,-157.04 397.34,-164.6 400.43,-158.31"/>
</g>
<!-- Node14 -->
<g id="node14" class="node">
<title>Node14</title>
<g id="a_node14"><a xlink:href="FMTobject_8hpp.html" target="_top" xlink:title=" ">
<polygon fill="white" stroke="#666666" points="587.54,-150 507.04,-150 507.04,-130 587.54,-130 587.54,-150"/>
<text text-anchor="middle" x="547.29" y="-136.5" font-family="Helvetica,sans-Serif" font-size="10.00">FMTobject.hpp</text>
</a>
</g>
</g>
<!-- Node2&#45;&gt;Node14 -->
<g id="edge13" class="edge">
<title>Node2&#45;&gt;Node14</title>
<path fill="none" stroke="#63b8ff" d="M489.92,-191.62C500.26,-182.5 516.19,-168.45 528.64,-157.46"/>
<polygon fill="#63b8ff" stroke="#63b8ff" points="530.65,-160.35 535.83,-151.11 526.02,-155.11 530.65,-160.35"/>
</g>
<!-- Node14&#45;&gt;Node8 -->
<g id="edge25" class="edge">
<title>Node14&#45;&gt;Node8</title>
<path fill="none" stroke="#63b8ff" d="M574.78,-129.54C581.73,-127.44 589.23,-125.42 596.29,-124 754.38,-92.25 802.4,-132.8 957.29,-88 958.47,-87.66 959.65,-87.28 960.84,-86.85"/>
<polygon fill="#63b8ff" stroke="#63b8ff" points="962.04,-90.15 969.84,-82.97 959.27,-83.72 962.04,-90.15"/>
</g>
<!-- Node15 -->
<g id="node15" class="node">
<title>Node15</title>
<g id="a_node15"><a xlink:title=" ">
<polygon fill="#e0e0e0" stroke="#999999" points="722.67,-88 627.92,-88 627.92,-56 722.67,-56 722.67,-88"/>
<text text-anchor="start" x="635.92" y="-74.5" font-family="Helvetica,sans-Serif" font-size="10.00">boost/serialization</text>
<text text-anchor="middle" x="675.29" y="-62.5" font-family="Helvetica,sans-Serif" font-size="10.00">/shared_ptr.hpp</text>
</a>
</g>
</g>
<!-- Node14&#45;&gt;Node15 -->
<g id="edge14" class="edge">
<title>Node14&#45;&gt;Node15</title>
<path fill="none" stroke="#63b8ff" d="M565.63,-129.54C583.82,-120.17 612.27,-105.5 635.63,-93.45"/>
<polygon fill="#63b8ff" stroke="#63b8ff" points="636.99,-96.69 644.27,-88.99 633.78,-90.47 636.99,-96.69"/>
</g>
<!-- Node16 -->
<g id="node16" class="node">
<title>Node16</title>
<g id="a_node16"><a xlink:title=" ">
<polygon fill="#e0e0e0" stroke="#999999" points="835.67,-88 740.92,-88 740.92,-56 835.67,-56 835.67,-88"/>
<text text-anchor="start" x="748.92" y="-74.5" font-family="Helvetica,sans-Serif" font-size="10.00">boost/serialization</text>
<text text-anchor="middle" x="788.29" y="-62.5" font-family="Helvetica,sans-Serif" font-size="10.00">/nvp.hpp</text>
</a>
</g>
</g>
<!-- Node14&#45;&gt;Node16 -->
<g id="edge15" class="edge">
<title>Node14&#45;&gt;Node16</title>
<path fill="none" stroke="#63b8ff" d="M577.56,-129.54C583.75,-127.66 590.22,-125.74 596.29,-124 609.27,-120.29 678.15,-102.05 729.72,-88.44"/>
<polygon fill="#63b8ff" stroke="#63b8ff" points="730.53,-91.85 739.3,-85.91 728.74,-85.08 730.53,-91.85"/>
</g>
<!-- Node17 -->
<g id="node17" class="node">
<title>Node17</title>
<g id="a_node17"><a xlink:title=" ">
<polygon fill="#e0e0e0" stroke="#999999" points="948.67,-88 853.92,-88 853.92,-56 948.67,-56 948.67,-88"/>
<text text-anchor="start" x="861.92" y="-74.5" font-family="Helvetica,sans-Serif" font-size="10.00">boost/serialization</text>
<text text-anchor="middle" x="901.29" y="-62.5" font-family="Helvetica,sans-Serif" font-size="10.00">/export.hpp</text>
</a>
</g>
</g>
<!-- Node14&#45;&gt;Node17 -->
<g id="edge16" class="edge">
<title>Node14&#45;&gt;Node17</title>
<path fill="none" stroke="#63b8ff" d="M575.6,-129.53C582.33,-127.5 589.52,-125.52 596.29,-124 701.47,-100.41 733.13,-109.56 842.32,-88.23"/>
<polygon fill="#63b8ff" stroke="#63b8ff" points="842.89,-91.69 852.01,-86.3 841.51,-84.83 842.89,-91.69"/>
</g>
<!-- Node18 -->
<g id="node18" class="node">
<title>Node18</title>
<g id="a_node18"><a xlink:href="FMTexception_8hpp.html" target="_top" xlink:title=" ">
<polygon fill="white" stroke="#666666" points="365.42,-82 269.17,-82 269.17,-62 365.42,-62 365.42,-82"/>
<text text-anchor="middle" x="317.29" y="-68.5" font-family="Helvetica,sans-Serif" font-size="10.00">FMTexception.hpp</text>
</a>
</g>
</g>
<!-- Node14&#45;&gt;Node18 -->
<g id="edge17" class="edge">
<title>Node14&#45;&gt;Node18</title>
<path fill="none" stroke="#63b8ff" d="M514.34,-129.54C474.03,-117.98 405.67,-98.36 361,-85.54"/>
<polygon fill="#63b8ff" stroke="#63b8ff" points="362.22,-82.25 351.64,-82.86 360.29,-88.98 362.22,-82.25"/>
</g>
<!-- Node14&#45;&gt;Node20 -->
<g id="edge23" class="edge">
<title>Node14&#45;&gt;Node20</title>
<path fill="none" stroke="#63b8ff" d="M518.13,-129.59C480.67,-117.26 419.61,-96.25 412.29,-88 398.6,-72.57 394.43,-48.83 393.32,-31.79"/>
<polygon fill="#63b8ff" stroke="#63b8ff" points="396.82,-31.71 393.01,-21.83 389.82,-31.93 396.82,-31.71"/>
</g>
<!-- Node21 -->
<g id="node21" class="node">
<title>Node21</title>
<g id="a_node21"><a xlink:title=" ">
<polygon fill="#e0e0e0" stroke="#999999" points="466.92,-82 421.67,-82 421.67,-62 466.92,-62 466.92,-82"/>
<text text-anchor="middle" x="444.29" y="-68.5" font-family="Helvetica,sans-Serif" font-size="10.00">chrono</text>
</a>
</g>
</g>
<!-- Node14&#45;&gt;Node21 -->
<g id="edge24" class="edge">
<title>Node14&#45;&gt;Node21</title>
<path fill="none" stroke="#63b8ff" d="M532.54,-129.54C515.86,-118.86 488.47,-101.31 468.62,-88.59"/>
<polygon fill="#63b8ff" stroke="#63b8ff" points="470.61,-85.7 460.3,-83.26 466.83,-91.6 470.61,-85.7"/>
</g>
<!-- Node22 -->
<g id="node22" class="node">
<title>Node22</title>
<g id="a_node22"><a xlink:title=" ">
<polygon fill="#e0e0e0" stroke="#999999" points="609.67,-88 484.92,-88 484.92,-56 609.67,-56 609.67,-88"/>
<text text-anchor="start" x="492.92" y="-74.5" font-family="Helvetica,sans-Serif" font-size="10.00">boost/dll/runtime_symbol</text>
<text text-anchor="middle" x="547.29" y="-62.5" font-family="Helvetica,sans-Serif" font-size="10.00">_info.hpp</text>
</a>
</g>
</g>
<!-- Node14&#45;&gt;Node22 -->
<g id="edge26" class="edge">
<title>Node14&#45;&gt;Node22</title>
<path fill="none" stroke="#63b8ff" d="M547.29,-129.54C547.29,-121.72 547.29,-110.22 547.29,-99.63"/>
<polygon fill="#63b8ff" stroke="#63b8ff" points="550.79,-99.81 547.29,-89.81 543.79,-99.81 550.79,-99.81"/>
</g>
<!-- Node18&#45;&gt;Node5 -->
<g id="edge20" class="edge">
<title>Node18&#45;&gt;Node5</title>
<path fill="none" stroke="#63b8ff" d="M305.89,-61.62C294.68,-52.41 277.35,-38.17 263.93,-27.14"/>
<polygon fill="#63b8ff" stroke="#63b8ff" points="266.5,-24.72 256.55,-21.07 262.05,-30.13 266.5,-24.72"/>
</g>
<!-- Node18&#45;&gt;Node7 -->
<g id="edge19" class="edge">
<title>Node18&#45;&gt;Node7</title>
<path fill="none" stroke="#63b8ff" d="M295.73,-61.62C272.65,-51.59 235.84,-35.58 209.79,-24.26"/>
<polygon fill="#63b8ff" stroke="#63b8ff" points="211.31,-21.11 200.75,-20.33 208.52,-27.53 211.31,-21.11"/>
</g>
<!-- Node18&#45;&gt;Node10 -->
<g id="edge22" class="edge">
<title>Node18&#45;&gt;Node10</title>
<path fill="none" stroke="#63b8ff" d="M365.51,-62.58C380.47,-60.18 397.03,-57.75 412.29,-56 624.73,-31.61 879.46,-18.12 985.8,-13.19"/>
<polygon fill="#63b8ff" stroke="#63b8ff" points="985.78,-16.69 995.61,-12.74 985.46,-9.7 985.78,-16.69"/>
</g>
<!-- Node19 -->
<g id="node19" class="node">
<title>Node19</title>
<g id="a_node19"><a xlink:title=" ">
<polygon fill="#e0e0e0" stroke="#999999" points="347.29,-20 289.29,-20 289.29,0 347.29,0 347.29,-20"/>
<text text-anchor="middle" x="318.29" y="-6.5" font-family="Helvetica,sans-Serif" font-size="10.00">exception</text>
</a>
</g>
</g>
<!-- Node18&#45;&gt;Node19 -->
<g id="edge18" class="edge">
<title>Node18&#45;&gt;Node19</title>
<path fill="none" stroke="#63b8ff" d="M317.45,-61.62C317.58,-53.56 317.78,-41.65 317.95,-31.41"/>
<polygon fill="#63b8ff" stroke="#63b8ff" points="321.45,-31.68 318.12,-21.63 314.45,-31.57 321.45,-31.68"/>
</g>
<!-- Node18&#45;&gt;Node20 -->
<g id="edge21" class="edge">
<title>Node18&#45;&gt;Node20</title>
<path fill="none" stroke="#63b8ff" d="M329.17,-61.62C340.84,-52.41 358.88,-38.17 372.85,-27.14"/>
<polygon fill="#63b8ff" stroke="#63b8ff" points="374.88,-29.99 380.56,-21.05 370.54,-24.5 374.88,-29.99"/>
</g>
</g>
</svg>
        <g id="navigator" transform="translate(0 0)" fill="#404254">
                <rect fill="#f2f5e9" fill-opacity="0.5" stroke="#606060" stroke-width=".5" x="0" y="0" width="60" height="60"/>
                <use id="zoomplus" xlink:href="#zoomPlus" x="17" y="9" onmousedown="handleZoom(evt,'in')"/>
                <use id="zoomminus" xlink:href="#zoomMin" x="42" y="9" onmousedown="handleZoom(evt,'out')"/>
                <use id="reset" xlink:href="#resetDef" x="30" y="36" onmousedown="handleReset()"/>
                <g id="arrowUp" xlink:href="#dirArrow" transform="translate(30 24)" onmousedown="handlePan(0,-1)">
                  <use xlink:href="#rim" fill="#404040">
                        <set attributeName="fill" to="#808080" begin="arrowUp.mouseover" end="arrowUp.mouseout"/>
                  </use>
                  <path fill="none" stroke="white" stroke-width="1.5" d="M0,-3.0v7 M-2.5,-0.5L0,-3.0L2.5,-0.5"/>
                </g>
                <g id="arrowRight" xlink:href="#dirArrow" transform="rotate(90) translate(36 -43)" onmousedown="handlePan(1,0)">
                  <use xlink:href="#rim" fill="#404040">
                        <set attributeName="fill" to="#808080" begin="arrowRight.mouseover" end="arrowRight.mouseout"/>
                  </use>
                  <path fill="none" stroke="white" stroke-width="1.5" d="M0,-3.0v7 M-2.5,-0.5L0,-3.0L2.5,-0.5"/>
                </g>
                <g id="arrowDown" xlink:href="#dirArrow" transform="rotate(180) translate(-30 -48)" onmousedown="handlePan(0,1)">
                  <use xlink:href="#rim" fill="#404040">
                        <set attributeName="fill" to="#808080" begin="arrowDown.mouseover" end="arrowDown.mouseout"/>
                  </use>
                  <path fill="none" stroke="white" stroke-width="1.5" d="M0,-3.0v7 M-2.5,-0.5L0,-3.0L2.5,-0.5"/>
                </g>
                <g id="arrowLeft" xlink:href="#dirArrow" transform="rotate(270) translate(-36 17)" onmousedown="handlePan(-1,0)">
                  <use xlink:href="#rim" fill="#404040">
                        <set attributeName="fill" to="#808080" begin="arrowLeft.mouseover" end="arrowLeft.mouseout"/>
                  </use>
                  <path fill="none" stroke="white" stroke-width="1.5" d="M0,-3.0v7 M-2.5,-0.5L0,-3.0L2.5,-0.5"/>
                </g>
        </g>
        <svg viewBox="0 0 15 15" width="100%" height="30px" preserveAspectRatio="xMaxYMin meet">
         <g id="arrow_out" transform="scale(0.3 0.3)">
          <a xlink:href="FMTyieldparser_8hpp__incl_org.svg" target="_base">
           <rect id="button" ry="5" rx="5" y="6" x="6" height="38" width="38"
                fill="#f2f5e9" fill-opacity="0.5" stroke="#606060" stroke-width="1.0"/>
           <path id="arrow"
             d="M 11.500037,31.436501 C 11.940474,20.09759 22.043105,11.32322 32.158766,21.979434 L 37.068811,17.246167 C 37.068811,17.246167 37.088388,32 37.088388,32 L 22.160133,31.978069 C 22.160133,31.978069 26.997745,27.140456 26.997745,27.140456 C 18.528582,18.264221 13.291696,25.230495 11.500037,31.436501 z"
             style="fill:#404040;"/>
          </a>
         </g>
        </svg>
</svg>
