<?xml version="1.0" encoding="UTF-8" standalone="no"?>
<!DOCTYPE svg PUBLIC "-//W3C//DTD SVG 1.1//EN"
 "http://www.w3.org/Graphics/SVG/1.1/DTD/svg11.dtd">
<!-- Generated by graphviz version 8.1.0 (20230707.0739)
 -->
<!-- Title: C:/Users/CYRGU3/OneDrive &#45; BuroVirtuel/Bureau/FMT/FMT/Include/FMTyields.hpp Pages: 1 -->
<!--zoomable 692 -->

<svg id="main" version="1.1" xmlns="http://www.w3.org/2000/svg" xmlns:xlink="http://www.w3.org/1999/xlink" xml:space="preserve" onload="init(evt)">
<style type="text/css"><![CDATA[
.node, .edge {opacity: 0.7;}
.node.selected, .edge.selected {opacity: 1;}
.edge:hover path { stroke: red; }
.edge:hover polygon { stroke: red; fill: red; }
]]></style>

<defs>
  <circle id="rim" cx="0" cy="0" r="7"/>
  <circle id="rim2" cx="0" cy="0" r="3.5"/>
  <g id="zoomPlus">
    <use xlink:href="#rim" fill="#404040"><set attributeName="fill" to="#808080" begin="zoomplus.mouseover" end="zoomplus.mouseout"/></use>
    <path d="M-4,0h8M0,-4v8" fill="none" stroke="white" stroke-width="1.5" pointer-events="none"/>
  </g>
  <g id="zoomMin">
    <use xlink:href="#rim" fill="#404040"><set attributeName="fill" to="#808080" begin="zoomminus.mouseover" end="zoomminus.mouseout"/></use>
    <path d="M-4,0h8" fill="none" stroke="white" stroke-width="1.5" pointer-events="none"/>
  </g>
  <g id="arrowUp" transform="translate(30 24)">
    <use xlink:href="#rim"/>
    <path pointer-events="none" fill="none" stroke="white" stroke-width="1.5" d="M0,-3.0v7 M-2.5,-0.5L0,-3.0L2.5,-0.5"/>
  </g>
  <g id="arrowRight" transform="rotate(90) translate(36 -43)">
    <use xlink:href="#rim"/>
    <path pointer-events="none" fill="none" stroke="white" stroke-width="1.5" d="M0,-3.0v7 M-2.5,-0.5L0,-3.0L2.5,-0.5"/>
  </g>
  <g id="arrowDown" transform="rotate(180) translate(-30 -48)">
    <use xlink:href="#rim"/>
    <path pointer-events="none" fill="none" stroke="white" stroke-width="1.5" d="M0,-3.0v7 M-2.5,-0.5L0,-3.0L2.5,-0.5"/>
  </g>
  <g id="arrowLeft" transform="rotate(270) translate(-36 17)">
    <use xlink:href="#rim"/>
    <path pointer-events="none" fill="none" stroke="white" stroke-width="1.5" d="M0,-3.0v7 M-2.5,-0.5L0,-3.0L2.5,-0.5"/>
  </g>
  <g id="resetDef">
    <use xlink:href="#rim2" fill="#404040"><set attributeName="fill" to="#808080" begin="reset.mouseover" end="reset.mouseout"/></use>
  </g>
</defs>
<script type="application/ecmascript">
var viewWidth = 1759;
var viewHeight = 692;
var sectionId = 'dynsection-1';
</script>
<script type="application/ecmascript" xlink:href="svg.min.js"/>
<svg id="graph" class="graph">
<g id="viewport">
<title>C:/Users/CYRGU3/OneDrive &#45; BuroVirtuel/Bureau/FMT/FMT/Include/FMTyields.hpp</title>
<!-- Node1 -->
<g id="Node000001" class="node">
<title>Node1</title>
<g id="a_Node000001"><a xlink:title=" ">
<polygon fill="#999999" stroke="#666666" points="1532.85,-684 1393.85,-684 1393.85,-640 1532.85,-640 1532.85,-684"/>
<text text-anchor="start" x="1401.85" y="-670.5" font-family="Helvetica,sans-Serif" font-size="10.00">C:/Users/CYRGU3/OneDrive</text>
<text text-anchor="start" x="1401.85" y="-658.5" font-family="Helvetica,sans-Serif" font-size="10.00"> &#45; BuroVirtuel/Bureau/FMT</text>
<text text-anchor="middle" x="1463.35" y="-646.5" font-family="Helvetica,sans-Serif" font-size="10.00">/FMT/Include/FMTyields.hpp</text>
</a>
</g>
</g>
<!-- Node2 -->
<g id="Node000002" class="node">
<title>Node2</title>
<g id="a_Node000002"><a xlink:href="FMTmodel_8hpp.html" target="_top" xlink:title=" ">
<polygon fill="white" stroke="#666666" points="1368.22,-604 1228.47,-604 1228.47,-560 1368.22,-560 1368.22,-604"/>
<text text-anchor="start" x="1236.47" y="-590.5" font-family="Helvetica,sans-Serif" font-size="10.00">C:/Users/CYRGU3/OneDrive</text>
<text text-anchor="start" x="1236.47" y="-578.5" font-family="Helvetica,sans-Serif" font-size="10.00"> &#45; BuroVirtuel/Bureau/FMT</text>
<text text-anchor="middle" x="1298.35" y="-566.5" font-family="Helvetica,sans-Serif" font-size="10.00">/FMT/Include/FMTmodel.hpp</text>
</a>
</g>
</g>
<!-- Node1&#45;&gt;Node2 -->
<g id="edge1_Node000001_Node000002" class="edge">
<title>Node1&#45;&gt;Node2</title>
<g id="a_edge1_Node000001_Node000002"><a xlink:title=" ">
<path fill="none" stroke="#63b8ff" d="M1408.5,-635.07C1387.46,-625.13 1363.71,-613.9 1343.67,-604.42"/>
<polygon fill="#63b8ff" stroke="#63b8ff" points="1406.72,-638.58 1417.26,-639.69 1409.72,-632.25 1406.72,-638.58"/>
</a>
</g>
</g>
<!-- Node26 -->
<g id="Node000026" class="node">
<title>Node26</title>
<g id="a_Node000026"><a xlink:href="PYexportCore_8hpp.html" target="_top" xlink:title=" ">
<polygon fill="white" stroke="#666666" points="1540.72,-604 1385.97,-604 1385.97,-560 1540.72,-560 1540.72,-604"/>
<text text-anchor="start" x="1393.97" y="-590.5" font-family="Helvetica,sans-Serif" font-size="10.00">C:/Users/CYRGU3/OneDrive</text>
<text text-anchor="start" x="1393.97" y="-578.5" font-family="Helvetica,sans-Serif" font-size="10.00"> &#45; BuroVirtuel/Bureau/FMT</text>
<text text-anchor="middle" x="1463.35" y="-566.5" font-family="Helvetica,sans-Serif" font-size="10.00">/FMT/Include/PYexportCore.hpp</text>
</a>
</g>
</g>
<!-- Node1&#45;&gt;Node26 -->
<g id="edge56_Node000001_Node000026" class="edge">
<title>Node1&#45;&gt;Node26</title>
<g id="a_edge56_Node000001_Node000026"><a xlink:title=" ">
<path fill="none" stroke="#63b8ff" d="M1463.35,-628.82C1463.35,-620.54 1463.35,-611.85 1463.35,-604.29"/>
<polygon fill="#63b8ff" stroke="#63b8ff" points="1459.85,-628.69 1463.35,-638.69 1466.85,-628.69 1459.85,-628.69"/>
</a>
</g>
</g>
<!-- Node27 -->
<g id="Node000027" class="node">
<title>Node27</title>
<g id="a_Node000027"><a xlink:href="RexportCore_8hpp.html" target="_top" xlink:title=" ">
<polygon fill="white" stroke="#666666" points="1706.35,-604 1558.35,-604 1558.35,-560 1706.35,-560 1706.35,-604"/>
<text text-anchor="start" x="1566.35" y="-590.5" font-family="Helvetica,sans-Serif" font-size="10.00">C:/Users/CYRGU3/OneDrive</text>
<text text-anchor="start" x="1566.35" y="-578.5" font-family="Helvetica,sans-Serif" font-size="10.00"> &#45; BuroVirtuel/Bureau/FMT</text>
<text text-anchor="middle" x="1632.35" y="-566.5" font-family="Helvetica,sans-Serif" font-size="10.00">/FMT/Include/RexportCore.hpp</text>
</a>
</g>
</g>
<!-- Node1&#45;&gt;Node27 -->
<g id="edge57_Node000001_Node000027" class="edge">
<title>Node1&#45;&gt;Node27</title>
<g id="a_edge57_Node000001_Node000027"><a xlink:title=" ">
<path fill="none" stroke="#63b8ff" d="M1519.24,-635.2C1540.86,-625.23 1565.31,-613.94 1585.93,-604.42"/>
<polygon fill="#63b8ff" stroke="#63b8ff" points="1518.14,-632.32 1510.53,-639.69 1521.07,-638.67 1518.14,-632.32"/>
</a>
</g>
</g>
<!-- Node3 -->
<g id="Node000003" class="node">
<title>Node3</title>
<g id="a_Node000003"><a xlink:href="FMTgraph_8hpp.html" target="_top" xlink:title=" ">
<polygon fill="white" stroke="#666666" points="991.85,-524 852.85,-524 852.85,-480 991.85,-480 991.85,-524"/>
<text text-anchor="start" x="860.85" y="-510.5" font-family="Helvetica,sans-Serif" font-size="10.00">C:/Users/CYRGU3/OneDrive</text>
<text text-anchor="start" x="860.85" y="-498.5" font-family="Helvetica,sans-Serif" font-size="10.00"> &#45; BuroVirtuel/Bureau/FMT</text>
<text text-anchor="middle" x="922.35" y="-486.5" font-family="Helvetica,sans-Serif" font-size="10.00">/FMT/Include/FMTgraph.hpp</text>
</a>
</g>
</g>
<!-- Node2&#45;&gt;Node3 -->
<g id="edge2_Node000002_Node000003" class="edge">
<title>Node2&#45;&gt;Node3</title>
<g id="a_edge2_Node000002_Node000003"><a xlink:title=" ">
<path fill="none" stroke="#63b8ff" d="M1217.55,-564.24C1150.5,-550.33 1056.13,-530.75 992.28,-517.51"/>
<polygon fill="#63b8ff" stroke="#63b8ff" points="1216.56,-567.82 1227.07,-566.42 1217.99,-560.96 1216.56,-567.82"/>
</a>
</g>
</g>
<!-- Node6 -->
<g id="Node000006" class="node">
<title>Node6</title>
<g id="a_Node000006"><a xlink:href="FMTsemodel_8hpp.html" target="_top" xlink:title=" ">
<polygon fill="white" stroke="#666666" points="763.47,-284 613.22,-284 613.22,-240 763.47,-240 763.47,-284"/>
<text text-anchor="start" x="621.22" y="-270.5" font-family="Helvetica,sans-Serif" font-size="10.00">C:/Users/CYRGU3/OneDrive</text>
<text text-anchor="start" x="621.22" y="-258.5" font-family="Helvetica,sans-Serif" font-size="10.00"> &#45; BuroVirtuel/Bureau/FMT</text>
<text text-anchor="middle" x="688.35" y="-246.5" font-family="Helvetica,sans-Serif" font-size="10.00">/FMT/Include/FMTsemodel.hpp</text>
</a>
</g>
</g>
<!-- Node2&#45;&gt;Node6 -->
<g id="edge49_Node000002_Node000006" class="edge">
<title>Node2&#45;&gt;Node6</title>
<g id="a_edge49_Node000002_Node000006"><a xlink:title=" ">
<path fill="none" stroke="#63b8ff" d="M1290.21,-549.07C1278.16,-508.33 1251.62,-438.54 1203.35,-400 1073.38,-296.24 872.02,-270.65 763.61,-264.61"/>
<polygon fill="#63b8ff" stroke="#63b8ff" points="1287.07,-549.83 1293.17,-558.5 1293.81,-547.92 1287.07,-549.83"/>
</a>
</g>
</g>
<!-- Node8 -->
<g id="Node000008" class="node">
<title>Node8</title>
<g id="a_Node000008"><a xlink:href="PYexportModel_8hpp.html" target="_top" xlink:title=" ">
<polygon fill="white" stroke="#666666" points="1030.72,-124 869.97,-124 869.97,-80 1030.72,-80 1030.72,-124"/>
<text text-anchor="start" x="877.97" y="-110.5" font-family="Helvetica,sans-Serif" font-size="10.00">C:/Users/CYRGU3/OneDrive</text>
<text text-anchor="start" x="877.97" y="-98.5" font-family="Helvetica,sans-Serif" font-size="10.00"> &#45; BuroVirtuel/Bureau/FMT</text>
<text text-anchor="middle" x="950.35" y="-86.5" font-family="Helvetica,sans-Serif" font-size="10.00">/FMT/Include/PYexportModel.hpp</text>
</a>
</g>
</g>
<!-- Node2&#45;&gt;Node8 -->
<g id="edge51_Node000002_Node000008" class="edge">
<title>Node2&#45;&gt;Node8</title>
<g id="a_edge51_Node000002_Node000008"><a xlink:title=" ">
<path fill="none" stroke="#63b8ff" d="M1313.69,-549.63C1317.26,-541.43 1320.76,-532.51 1323.35,-524 1336.6,-480.37 1341.35,-468.6 1341.35,-423 1341.35,-423 1341.35,-423 1341.35,-261 1341.35,-199.37 1300.34,-189.71 1246.35,-160 1236.83,-154.76 1115.2,-132.35 1030.85,-117.24"/>
<polygon fill="#63b8ff" stroke="#63b8ff" points="1310.14,-547.98 1309.21,-558.53 1316.52,-550.87 1310.14,-547.98"/>
</a>
</g>
</g>
<!-- Node9 -->
<g id="Node000009" class="node">
<title>Node9</title>
<g id="a_Node000009"><a xlink:href="Rdeclarations_8hpp.html" target="_top" xlink:title=" ">
<polygon fill="white" stroke="#666666" points="613.97,-124 460.72,-124 460.72,-80 613.97,-80 613.97,-124"/>
<text text-anchor="start" x="468.72" y="-110.5" font-family="Helvetica,sans-Serif" font-size="10.00">C:/Users/CYRGU3/OneDrive</text>
<text text-anchor="start" x="468.72" y="-98.5" font-family="Helvetica,sans-Serif" font-size="10.00"> &#45; BuroVirtuel/Bureau/FMT</text>
<text text-anchor="middle" x="537.35" y="-86.5" font-family="Helvetica,sans-Serif" font-size="10.00">/FMT/Include/Rdeclarations.hpp</text>
</a>
</g>
</g>
<!-- Node2&#45;&gt;Node9 -->
<g id="edge53_Node000002_Node000009" class="edge">
<title>Node2&#45;&gt;Node9</title>
<g id="a_edge53_Node000002_Node000009"><a xlink:title=" ">
<path fill="none" stroke="#63b8ff" d="M1217.34,-575.93C988.78,-560.55 355.35,-510.07 355.35,-423 355.35,-423 355.35,-423 355.35,-261 355.35,-193.63 427.33,-148.51 480.76,-124.29"/>
<polygon fill="#63b8ff" stroke="#63b8ff" points="1217.03,-579.48 1227.24,-576.66 1217.5,-572.5 1217.03,-579.48"/>
</a>
</g>
</g>
<!-- Node10 -->
<g id="Node000010" class="node">
<title>Node10</title>
<g id="a_Node000010"><a xlink:href="RexportModel_8hpp.html" target="_top" xlink:title=" ">
<polygon fill="white" stroke="#666666" points="1236.35,-124 1082.35,-124 1082.35,-80 1236.35,-80 1236.35,-124"/>
<text text-anchor="start" x="1090.35" y="-110.5" font-family="Helvetica,sans-Serif" font-size="10.00">C:/Users/CYRGU3/OneDrive</text>
<text text-anchor="start" x="1090.35" y="-98.5" font-family="Helvetica,sans-Serif" font-size="10.00"> &#45; BuroVirtuel/Bureau/FMT</text>
<text text-anchor="middle" x="1159.35" y="-86.5" font-family="Helvetica,sans-Serif" font-size="10.00">/FMT/Include/RexportModel.hpp</text>
</a>
</g>
</g>
<!-- Node2&#45;&gt;Node10 -->
<g id="edge54_Node000002_Node000010" class="edge">
<title>Node2&#45;&gt;Node10</title>
<g id="a_edge54_Node000002_Node000010"><a xlink:title=" ">
<path fill="none" stroke="#63b8ff" d="M1333.39,-552.09C1341.63,-543.78 1349.66,-534.19 1355.35,-524 1377.85,-483.72 1379.35,-469.14 1379.35,-423 1379.35,-423 1379.35,-423 1379.35,-261 1379.35,-214.86 1387.15,-193.43 1355.35,-160 1324.81,-127.91 1277.37,-113.57 1236.81,-107.29"/>
<polygon fill="#63b8ff" stroke="#63b8ff" points="1331.3,-549.2 1326.5,-558.64 1336.14,-554.26 1331.3,-549.2"/>
</a>
</g>
</g>
<!-- Node12 -->
<g id="Node000012" class="node">
<title>Node12</title>
<g id="a_Node000012"><a xlink:href="FMTpythonpickle_8hpp.html" target="_top" xlink:title=" ">
<polygon fill="white" stroke="#666666" points="417.47,-124 249.22,-124 249.22,-80 417.47,-80 417.47,-124"/>
<text text-anchor="start" x="257.22" y="-110.5" font-family="Helvetica,sans-Serif" font-size="10.00">C:/Users/CYRGU3/OneDrive</text>
<text text-anchor="start" x="257.22" y="-98.5" font-family="Helvetica,sans-Serif" font-size="10.00"> &#45; BuroVirtuel/Bureau/FMT</text>
<text text-anchor="middle" x="333.35" y="-86.5" font-family="Helvetica,sans-Serif" font-size="10.00">/FMT/Include/FMTpythonpickle.hpp</text>
</a>
</g>
</g>
<!-- Node2&#45;&gt;Node12 -->
<g id="edge48_Node000002_Node000012" class="edge">
<title>Node2&#45;&gt;Node12</title>
<g id="a_edge48_Node000002_Node000012"><a xlink:title=" ">
<path fill="none" stroke="#63b8ff" d="M1217.25,-581.48C1033.06,-581.62 588.39,-576.35 449.35,-524 380.21,-497.97 317.35,-496.87 317.35,-423 317.35,-423 317.35,-423 317.35,-261 317.35,-211.92 325.08,-154.71 329.8,-124.4"/>
<polygon fill="#63b8ff" stroke="#63b8ff" points="1217.21,-584.98 1227.21,-581.47 1217.2,-577.98 1217.21,-584.98"/>
</a>
</g>
</g>
<!-- Node19 -->
<g id="Node000019" class="node">
<title>Node19</title>
<g id="a_Node000019"><a xlink:href="FMTsrmodel_8hpp.html" target="_top" xlink:title=" ">
<polygon fill="white" stroke="#666666" points="1233.35,-284 1085.35,-284 1085.35,-240 1233.35,-240 1233.35,-284"/>
<text text-anchor="start" x="1093.35" y="-270.5" font-family="Helvetica,sans-Serif" font-size="10.00">C:/Users/CYRGU3/OneDrive</text>
<text text-anchor="start" x="1093.35" y="-258.5" font-family="Helvetica,sans-Serif" font-size="10.00"> &#45; BuroVirtuel/Bureau/FMT</text>
<text text-anchor="middle" x="1159.35" y="-246.5" font-family="Helvetica,sans-Serif" font-size="10.00">/FMT/Include/FMTsrmodel.hpp</text>
</a>
</g>
</g>
<!-- Node2&#45;&gt;Node19 -->
<g id="edge50_Node000002_Node000019" class="edge">
<title>Node2&#45;&gt;Node19</title>
<g id="a_edge50_Node000002_Node000019"><a xlink:title=" ">
<path fill="none" stroke="#63b8ff" d="M1304.64,-549.06C1313.16,-496.33 1322.3,-389.92 1274.35,-320 1263.63,-304.38 1247.36,-292.85 1230.39,-284.41"/>
<polygon fill="#63b8ff" stroke="#63b8ff" points="1301.04,-548.32 1302.79,-558.77 1307.94,-549.51 1301.04,-548.32"/>
</a>
</g>
</g>
<!-- Node24 -->
<g id="Node000024" class="node">
<title>Node24</title>
<g id="a_Node000024"><a xlink:href="PYexportParallel_8hpp.html" target="_top" xlink:title=" ">
<polygon fill="white" stroke="#666666" points="1573.72,-524 1406.97,-524 1406.97,-480 1573.72,-480 1573.72,-524"/>
<text text-anchor="start" x="1414.97" y="-510.5" font-family="Helvetica,sans-Serif" font-size="10.00">C:/Users/CYRGU3/OneDrive</text>
<text text-anchor="start" x="1414.97" y="-498.5" font-family="Helvetica,sans-Serif" font-size="10.00"> &#45; BuroVirtuel/Bureau/FMT</text>
<text text-anchor="middle" x="1490.35" y="-486.5" font-family="Helvetica,sans-Serif" font-size="10.00">/FMT/Include/PYexportParallel.hpp</text>
</a>
</g>
</g>
<!-- Node2&#45;&gt;Node24 -->
<g id="edge52_Node000002_Node000024" class="edge">
<title>Node2&#45;&gt;Node24</title>
<g id="a_edge52_Node000002_Node000024"><a xlink:title=" ">
<path fill="none" stroke="#63b8ff" d="M1361.1,-555.51C1385.89,-545.44 1414.05,-534 1437.75,-524.37"/>
<polygon fill="#63b8ff" stroke="#63b8ff" points="1360.01,-552.58 1352.07,-559.58 1362.65,-559.06 1360.01,-552.58"/>
</a>
</g>
</g>
<!-- Node25 -->
<g id="Node000025" class="node">
<title>Node25</title>
<g id="a_Node000025"><a xlink:href="RexportParallel_8hpp.html" target="_top" xlink:title=" ">
<polygon fill="white" stroke="#666666" points="1751.35,-524 1591.35,-524 1591.35,-480 1751.35,-480 1751.35,-524"/>
<text text-anchor="start" x="1599.35" y="-510.5" font-family="Helvetica,sans-Serif" font-size="10.00">C:/Users/CYRGU3/OneDrive</text>
<text text-anchor="start" x="1599.35" y="-498.5" font-family="Helvetica,sans-Serif" font-size="10.00"> &#45; BuroVirtuel/Bureau/FMT</text>
<text text-anchor="middle" x="1671.35" y="-486.5" font-family="Helvetica,sans-Serif" font-size="10.00">/FMT/Include/RexportParallel.hpp</text>
</a>
</g>
</g>
<!-- Node2&#45;&gt;Node25 -->
<g id="edge55_Node000002_Node000025" class="edge">
<title>Node2&#45;&gt;Node25</title>
<g id="a_edge55_Node000002_Node000025"><a xlink:title=" ">
<path fill="none" stroke="#63b8ff" d="M1379.22,-559.68C1469.56,-540.26 1495.1,-541.94 1582.35,-524 1585.15,-523.42 1587.99,-522.83 1590.86,-522.21"/>
<polygon fill="#63b8ff" stroke="#63b8ff" points="1378.51,-556.47 1369.48,-562.02 1380,-563.31 1378.51,-556.47"/>
</a>
</g>
</g>
<!-- Node4 -->
<g id="Node000004" class="node">
<title>Node4</title>
<g id="a_Node000004"><a xlink:href="FMTlinegraph_8hpp.html" target="_top" xlink:title=" ">
<polygon fill="white" stroke="#666666" points="627.6,-444 475.1,-444 475.1,-400 627.6,-400 627.6,-444"/>
<text text-anchor="start" x="483.1" y="-430.5" font-family="Helvetica,sans-Serif" font-size="10.00">C:/Users/CYRGU3/OneDrive</text>
<text text-anchor="start" x="483.1" y="-418.5" font-family="Helvetica,sans-Serif" font-size="10.00"> &#45; BuroVirtuel/Bureau/FMT</text>
<text text-anchor="middle" x="551.35" y="-406.5" font-family="Helvetica,sans-Serif" font-size="10.00">/FMT/Include/FMTlinegraph.hpp</text>
</a>
</g>
</g>
<!-- Node3&#45;&gt;Node4 -->
<g id="edge3_Node000003_Node000004" class="edge">
<title>Node3&#45;&gt;Node4</title>
<g id="a_edge3_Node000003_Node000004"><a xlink:title=" ">
<path fill="none" stroke="#63b8ff" d="M841.7,-485.81C784.53,-474.81 706.07,-459.26 637.35,-444 634.2,-443.3 630.98,-442.57 627.74,-441.83"/>
<polygon fill="#63b8ff" stroke="#63b8ff" points="841,-489.43 851.49,-487.88 842.32,-482.56 841,-489.43"/>
</a>
</g>
</g>
<!-- Node14 -->
<g id="Node000014" class="node">
<title>Node14</title>
<g id="a_Node000014"><a xlink:href="RexportSpatial_8hpp.html" target="_top" xlink:title=" ">
<polygon fill="white" stroke="#666666" points="541.22,-284 383.47,-284 383.47,-240 541.22,-240 541.22,-284"/>
<text text-anchor="start" x="391.47" y="-270.5" font-family="Helvetica,sans-Serif" font-size="10.00">C:/Users/CYRGU3/OneDrive</text>
<text text-anchor="start" x="391.47" y="-258.5" font-family="Helvetica,sans-Serif" font-size="10.00"> &#45; BuroVirtuel/Bureau/FMT</text>
<text text-anchor="middle" x="462.35" y="-246.5" font-family="Helvetica,sans-Serif" font-size="10.00">/FMT/Include/RexportSpatial.hpp</text>
</a>
</g>
</g>
<!-- Node3&#45;&gt;Node14 -->
<g id="edge47_Node000003_Node000014" class="edge">
<title>Node3&#45;&gt;Node14</title>
<g id="a_edge47_Node000003_Node000014"><a xlink:title=" ">
<path fill="none" stroke="#63b8ff" d="M841.63,-496.56C717.41,-488.9 491.03,-471.34 466.35,-444 426.44,-399.79 443.42,-321.85 454.94,-284.34"/>
<polygon fill="#63b8ff" stroke="#63b8ff" points="841.4,-500.11 851.59,-497.23 841.82,-493.13 841.4,-500.11"/>
</a>
</g>
</g>
<!-- Node15 -->
<g id="Node000015" class="node">
<title>Node15</title>
<g id="a_Node000015"><a xlink:href="FMToperatingareascheme_8hpp.html" target="_top" xlink:title=" ">
<polygon fill="white" stroke="#666666" points="218.6,-284 12.1,-284 12.1,-240 218.6,-240 218.6,-284"/>
<text text-anchor="start" x="20.1" y="-270.5" font-family="Helvetica,sans-Serif" font-size="10.00">C:/Users/CYRGU3/OneDrive</text>
<text text-anchor="start" x="20.1" y="-258.5" font-family="Helvetica,sans-Serif" font-size="10.00"> &#45; BuroVirtuel/Bureau/FMT</text>
<text text-anchor="middle" x="115.35" y="-246.5" font-family="Helvetica,sans-Serif" font-size="10.00">/FMT/Include/FMToperatingareascheme.hpp</text>
</a>
</g>
</g>
<!-- Node3&#45;&gt;Node15 -->
<g id="edge22_Node000003_Node000015" class="edge">
<title>Node3&#45;&gt;Node15</title>
<g id="a_edge22_Node000003_Node000015"><a xlink:title=" ">
<path fill="none" stroke="#63b8ff" d="M841.77,-500.95C744.37,-498.76 576.6,-488.09 440.35,-444 322.68,-405.93 199.19,-323.53 144.44,-284.43"/>
<polygon fill="#63b8ff" stroke="#63b8ff" points="841.64,-504.47 851.71,-501.17 841.78,-497.47 841.64,-504.47"/>
</a>
</g>
</g>
<!-- Node18 -->
<g id="Node000018" class="node">
<title>Node18</title>
<g id="a_Node000018"><a xlink:href="FMToutputnodecache_8hpp.html" target="_top" xlink:title=" ">
<polygon fill="white" stroke="#666666" points="1016.22,-444 828.47,-444 828.47,-400 1016.22,-400 1016.22,-444"/>
<text text-anchor="start" x="836.47" y="-430.5" font-family="Helvetica,sans-Serif" font-size="10.00">C:/Users/CYRGU3/OneDrive</text>
<text text-anchor="start" x="836.47" y="-418.5" font-family="Helvetica,sans-Serif" font-size="10.00"> &#45; BuroVirtuel/Bureau/FMT</text>
<text text-anchor="middle" x="922.35" y="-406.5" font-family="Helvetica,sans-Serif" font-size="10.00">/FMT/Include/FMToutputnodecache.hpp</text>
</a>
</g>
</g>
<!-- Node3&#45;&gt;Node18 -->
<g id="edge30_Node000003_Node000018" class="edge">
<title>Node3&#45;&gt;Node18</title>
<g id="a_edge30_Node000003_Node000018"><a xlink:title=" ">
<path fill="none" stroke="#63b8ff" d="M915.69,-468.82C915.46,-460.54 915.65,-451.85 916.26,-444.29"/>
<polygon fill="#63b8ff" stroke="#63b8ff" points="912.24,-468.88 916.26,-478.69 919.23,-468.52 912.24,-468.88"/>
</a>
</g>
</g>
<!-- Node3&#45;&gt;Node19 -->
<g id="edge32_Node000003_Node000019" class="edge">
<title>Node3&#45;&gt;Node19</title>
<g id="a_edge32_Node000003_Node000019"><a xlink:title=" ">
<path fill="none" stroke="#63b8ff" d="M1002.77,-495.78C1076.67,-489.11 1178.39,-474.53 1203.35,-444 1241.93,-396.81 1199.84,-320.98 1174.96,-284.27"/>
<polygon fill="#63b8ff" stroke="#63b8ff" points="1002.75,-492.36 993.09,-496.71 1003.35,-499.33 1002.75,-492.36"/>
</a>
</g>
</g>
<!-- Node22 -->
<g id="Node000022" class="node">
<title>Node22</title>
<g id="a_Node000022"><a xlink:href="PYexportGraph_8hpp.html" target="_top" xlink:title=" ">
<polygon fill="white" stroke="#666666" points="1194.72,-444 1033.97,-444 1033.97,-400 1194.72,-400 1194.72,-444"/>
<text text-anchor="start" x="1041.97" y="-430.5" font-family="Helvetica,sans-Serif" font-size="10.00">C:/Users/CYRGU3/OneDrive</text>
<text text-anchor="start" x="1041.97" y="-418.5" font-family="Helvetica,sans-Serif" font-size="10.00"> &#45; BuroVirtuel/Bureau/FMT</text>
<text text-anchor="middle" x="1114.35" y="-406.5" font-family="Helvetica,sans-Serif" font-size="10.00">/FMT/Include/PYexportGraph.hpp</text>
</a>
</g>
</g>
<!-- Node3&#45;&gt;Node22 -->
<g id="edge45_Node000003_Node000022" class="edge">
<title>Node3&#45;&gt;Node22</title>
<g id="a_edge45_Node000003_Node000022"><a xlink:title=" ">
<path fill="none" stroke="#63b8ff" d="M985.1,-475.51C1009.89,-465.44 1038.05,-454 1061.75,-444.37"/>
<polygon fill="#63b8ff" stroke="#63b8ff" points="984.01,-472.58 976.07,-479.58 986.65,-479.06 984.01,-472.58"/>
</a>
</g>
</g>
<!-- Node23 -->
<g id="Node000023" class="node">
<title>Node23</title>
<g id="a_Node000023"><a xlink:href="PYexportSpatial_8hpp.html" target="_top" xlink:title=" ">
<polygon fill="white" stroke="#666666" points="810.6,-444 646.1,-444 646.1,-400 810.6,-400 810.6,-444"/>
<text text-anchor="start" x="654.1" y="-430.5" font-family="Helvetica,sans-Serif" font-size="10.00">C:/Users/CYRGU3/OneDrive</text>
<text text-anchor="start" x="654.1" y="-418.5" font-family="Helvetica,sans-Serif" font-size="10.00"> &#45; BuroVirtuel/Bureau/FMT</text>
<text text-anchor="middle" x="728.35" y="-406.5" font-family="Helvetica,sans-Serif" font-size="10.00">/FMT/Include/PYexportSpatial.hpp</text>
</a>
</g>
</g>
<!-- Node3&#45;&gt;Node23 -->
<g id="edge46_Node000003_Node000023" class="edge">
<title>Node3&#45;&gt;Node23</title>
<g id="a_edge46_Node000003_Node000023"><a xlink:title=" ">
<path fill="none" stroke="#63b8ff" d="M858.94,-475.51C833.9,-465.44 805.44,-454 781.5,-444.37"/>
<polygon fill="#63b8ff" stroke="#63b8ff" points="857.5,-479.1 868.08,-479.58 860.11,-472.61 857.5,-479.1"/>
</a>
</g>
</g>
<!-- Node5 -->
<g id="Node000005" class="node">
<title>Node5</title>
<g id="a_Node000005"><a xlink:href="FMTspatialschedule_8hpp.html" target="_top" xlink:title=" ">
<polygon fill="white" stroke="#666666" points="778.85,-364 597.85,-364 597.85,-320 778.85,-320 778.85,-364"/>
<text text-anchor="start" x="605.85" y="-350.5" font-family="Helvetica,sans-Serif" font-size="10.00">C:/Users/CYRGU3/OneDrive</text>
<text text-anchor="start" x="605.85" y="-338.5" font-family="Helvetica,sans-Serif" font-size="10.00"> &#45; BuroVirtuel/Bureau/FMT</text>
<text text-anchor="middle" x="688.35" y="-326.5" font-family="Helvetica,sans-Serif" font-size="10.00">/FMT/Include/FMTspatialschedule.hpp</text>
</a>
</g>
</g>
<!-- Node4&#45;&gt;Node5 -->
<g id="edge4_Node000004_Node000005" class="edge">
<title>Node4&#45;&gt;Node5</title>
<g id="a_edge4_Node000004_Node000005"><a xlink:title=" ">
<path fill="none" stroke="#63b8ff" d="M598.12,-394.37C615.36,-384.55 634.65,-373.57 650.96,-364.29"/>
<polygon fill="#63b8ff" stroke="#63b8ff" points="596.74,-391.7 589.78,-399.69 600.21,-397.78 596.74,-391.7"/>
</a>
</g>
</g>
<!-- Node4&#45;&gt;Node9 -->
<g id="edge20_Node000004_Node000009" class="edge">
<title>Node4&#45;&gt;Node9</title>
<g id="a_edge20_Node000004_Node000009"><a xlink:title=" ">
<path fill="none" stroke="#63b8ff" d="M561.53,-389.03C571.87,-349.88 582.27,-283.41 550.35,-240 519.13,-197.53 468.45,-246.55 437.35,-204 425.81,-188.21 427.52,-176.91 437.35,-160 446.28,-144.62 461.09,-133.05 476.61,-124.49"/>
<polygon fill="#63b8ff" stroke="#63b8ff" points="557.91,-387.97 558.58,-398.55 564.65,-389.86 557.91,-387.97"/>
</a>
</g>
</g>
<!-- Node4&#45;&gt;Node14 -->
<g id="edge21_Node000004_Node000014" class="edge">
<title>Node4&#45;&gt;Node14</title>
<g id="a_edge21_Node000004_Node000014"><a xlink:title=" ">
<path fill="none" stroke="#63b8ff" d="M534,-390.2C516.46,-359.06 489.82,-311.77 474.44,-284.48"/>
<polygon fill="#63b8ff" stroke="#63b8ff" points="531.39,-391.7 539.34,-398.69 537.49,-388.26 531.39,-391.7"/>
</a>
</g>
</g>
<!-- Node5&#45;&gt;Node6 -->
<g id="edge5_Node000005_Node000006" class="edge">
<title>Node5&#45;&gt;Node6</title>
<g id="a_edge5_Node000005_Node000006"><a xlink:title=" ">
<path fill="none" stroke="#63b8ff" d="M688.35,-308.82C688.35,-300.54 688.35,-291.85 688.35,-284.29"/>
<polygon fill="#63b8ff" stroke="#63b8ff" points="684.85,-308.69 688.35,-318.69 691.85,-308.69 684.85,-308.69"/>
</a>
</g>
</g>
<!-- Node5&#45;&gt;Node14 -->
<g id="edge19_Node000005_Node000014" class="edge">
<title>Node5&#45;&gt;Node14</title>
<g id="a_edge19_Node000005_Node000014"><a xlink:title=" ">
<path fill="none" stroke="#63b8ff" d="M616.04,-316.04C586.49,-305.84 552.65,-294.17 524.26,-284.37"/>
<polygon fill="#63b8ff" stroke="#63b8ff" points="614.7,-319.63 625.29,-319.58 616.98,-313.01 614.7,-319.63"/>
</a>
</g>
</g>
<!-- Node7 -->
<g id="Node000007" class="node">
<title>Node7</title>
<g id="a_Node000007"><a xlink:href="FMTsamodel_8hpp.html" target="_top" xlink:title=" ">
<polygon fill="white" stroke="#666666" points="1025.47,-204 875.22,-204 875.22,-160 1025.47,-160 1025.47,-204"/>
<text text-anchor="start" x="883.22" y="-190.5" font-family="Helvetica,sans-Serif" font-size="10.00">C:/Users/CYRGU3/OneDrive</text>
<text text-anchor="start" x="883.22" y="-178.5" font-family="Helvetica,sans-Serif" font-size="10.00"> &#45; BuroVirtuel/Bureau/FMT</text>
<text text-anchor="middle" x="950.35" y="-166.5" font-family="Helvetica,sans-Serif" font-size="10.00">/FMT/Include/FMTsamodel.hpp</text>
</a>
</g>
</g>
<!-- Node6&#45;&gt;Node7 -->
<g id="edge6_Node000006_Node000007" class="edge">
<title>Node6&#45;&gt;Node7</title>
<g id="a_edge6_Node000006_Node000007"><a xlink:title=" ">
<path fill="none" stroke="#63b8ff" d="M770.39,-236.58C805.06,-226.25 845.09,-214.34 878.57,-204.37"/>
<polygon fill="#63b8ff" stroke="#63b8ff" points="769.87,-233.38 761.29,-239.58 771.87,-240.08 769.87,-233.38"/>
</a>
</g>
</g>
<!-- Node6&#45;&gt;Node8 -->
<g id="edge16_Node000006_Node000008" class="edge">
<title>Node6&#45;&gt;Node8</title>
<g id="a_edge16_Node000006_Node000008"><a xlink:title=" ">
<path fill="none" stroke="#63b8ff" d="M683.31,-228.74C681.79,-206.72 683.86,-178.34 700.35,-160 722.79,-135.05 805.49,-119.72 869.7,-111.33"/>
<polygon fill="#63b8ff" stroke="#63b8ff" points="679.92,-228.98 684.38,-238.59 686.88,-228.29 679.92,-228.98"/>
</a>
</g>
</g>
<!-- Node6&#45;&gt;Node9 -->
<g id="edge17_Node000006_Node000009" class="edge">
<title>Node6&#45;&gt;Node9</title>
<g id="a_edge17_Node000006_Node000009"><a xlink:title=" ">
<path fill="none" stroke="#63b8ff" d="M602.55,-243.05C536.37,-228.8 455.29,-210.26 450.35,-204 438.24,-188.65 441.05,-177.2 450.35,-160 458.5,-144.91 472.59,-133.17 487.07,-124.37"/>
<polygon fill="#63b8ff" stroke="#63b8ff" points="601.51,-246.63 612.02,-245.3 602.98,-239.78 601.51,-246.63"/>
</a>
</g>
</g>
<!-- Node6&#45;&gt;Node10 -->
<g id="edge18_Node000006_Node000010" class="edge">
<title>Node6&#45;&gt;Node10</title>
<g id="a_edge18_Node000006_Node000010"><a xlink:title=" ">
<path fill="none" stroke="#63b8ff" d="M774.6,-255.21C927.31,-244.53 1230.75,-221.27 1246.35,-204 1259.45,-189.49 1255.64,-177.2 1246.35,-160 1238.19,-144.91 1224.11,-133.17 1209.62,-124.37"/>
<polygon fill="#63b8ff" stroke="#63b8ff" points="774.6,-251.77 764.87,-255.95 775.09,-258.75 774.6,-251.77"/>
</a>
</g>
</g>
<!-- Node11 -->
<g id="Node000011" class="node">
<title>Node11</title>
<g id="a_Node000011"><a xlink:href="FMTsesmodel_8hpp.html" target="_top" xlink:title=" ">
<polygon fill="white" stroke="#666666" points="615.1,-204 459.6,-204 459.6,-160 615.1,-160 615.1,-204"/>
<text text-anchor="start" x="467.6" y="-190.5" font-family="Helvetica,sans-Serif" font-size="10.00">C:/Users/CYRGU3/OneDrive</text>
<text text-anchor="start" x="467.6" y="-178.5" font-family="Helvetica,sans-Serif" font-size="10.00"> &#45; BuroVirtuel/Bureau/FMT</text>
<text text-anchor="middle" x="537.35" y="-166.5" font-family="Helvetica,sans-Serif" font-size="10.00">/FMT/Include/FMTsesmodel.hpp</text>
</a>
</g>
</g>
<!-- Node6&#45;&gt;Node11 -->
<g id="edge10_Node000006_Node000011" class="edge">
<title>Node6&#45;&gt;Node11</title>
<g id="a_edge10_Node000006_Node000011"><a xlink:title=" ">
<path fill="none" stroke="#63b8ff" d="M637.36,-234.66C618.31,-224.82 596.92,-213.77 578.82,-204.42"/>
<polygon fill="#63b8ff" stroke="#63b8ff" points="635.6,-238.21 646.09,-239.69 638.81,-231.99 635.6,-238.21"/>
</a>
</g>
</g>
<!-- Node7&#45;&gt;Node8 -->
<g id="edge7_Node000007_Node000008" class="edge">
<title>Node7&#45;&gt;Node8</title>
<g id="a_edge7_Node000007_Node000008"><a xlink:title=" ">
<path fill="none" stroke="#63b8ff" d="M950.35,-148.82C950.35,-140.54 950.35,-131.85 950.35,-124.29"/>
<polygon fill="#63b8ff" stroke="#63b8ff" points="946.85,-148.69 950.35,-158.69 953.85,-148.69 946.85,-148.69"/>
</a>
</g>
</g>
<!-- Node7&#45;&gt;Node9 -->
<g id="edge8_Node000007_Node000009" class="edge">
<title>Node7&#45;&gt;Node9</title>
<g id="a_edge8_Node000007_Node000009"><a xlink:title=" ">
<path fill="none" stroke="#63b8ff" d="M864.34,-159.64C773.24,-140.65 678.82,-124.88 614.43,-114.71"/>
<polygon fill="#63b8ff" stroke="#63b8ff" points="863.35,-163.22 873.85,-161.85 864.79,-156.37 863.35,-163.22"/>
</a>
</g>
</g>
<!-- Node7&#45;&gt;Node10 -->
<g id="edge9_Node000007_Node000010" class="edge">
<title>Node7&#45;&gt;Node10</title>
<g id="a_edge9_Node000007_Node000010"><a xlink:title=" ">
<path fill="none" stroke="#63b8ff" d="M1017.94,-155.78C1045.09,-145.64 1076.07,-134.08 1102.09,-124.37"/>
<polygon fill="#63b8ff" stroke="#63b8ff" points="1016.88,-152.81 1008.73,-159.58 1019.33,-159.37 1016.88,-152.81"/>
</a>
</g>
</g>
<!-- Node11&#45;&gt;Node8 -->
<g id="edge13_Node000011_Node000008" class="edge">
<title>Node11&#45;&gt;Node8</title>
<g id="a_edge13_Node000011_Node000008"><a xlink:title=" ">
<path fill="none" stroke="#63b8ff" d="M625.97,-164.26C698.29,-150.61 799.6,-131.47 869.68,-118.24"/>
<polygon fill="#63b8ff" stroke="#63b8ff" points="625.69,-160.94 616.52,-166.24 626.99,-167.82 625.69,-160.94"/>
</a>
</g>
</g>
<!-- Node11&#45;&gt;Node9 -->
<g id="edge14_Node000011_Node000009" class="edge">
<title>Node11&#45;&gt;Node9</title>
<g id="a_edge14_Node000011_Node000009"><a xlink:title=" ">
<path fill="none" stroke="#63b8ff" d="M537.35,-148.82C537.35,-140.54 537.35,-131.85 537.35,-124.29"/>
<polygon fill="#63b8ff" stroke="#63b8ff" points="533.85,-148.69 537.35,-158.69 540.85,-148.69 533.85,-148.69"/>
</a>
</g>
</g>
<!-- Node11&#45;&gt;Node10 -->
<g id="edge15_Node000011_Node000010" class="edge">
<title>Node11&#45;&gt;Node10</title>
<g id="a_edge15_Node000011_Node000010"><a xlink:title=" ">
<path fill="none" stroke="#63b8ff" d="M626.14,-169.19C650.21,-166.09 676.27,-162.83 700.35,-160 850.83,-142.32 889.31,-145.07 1039.35,-124 1053.17,-122.06 1067.84,-119.72 1082.01,-117.32"/>
<polygon fill="#63b8ff" stroke="#63b8ff" points="625.71,-165.85 616.24,-170.61 626.61,-172.79 625.71,-165.85"/>
</a>
</g>
</g>
<!-- Node11&#45;&gt;Node12 -->
<g id="edge11_Node000011_Node000012" class="edge">
<title>Node11&#45;&gt;Node12</title>
<g id="a_edge11_Node000011_Node000012"><a xlink:title=" ">
<path fill="none" stroke="#63b8ff" d="M471.38,-155.78C444.87,-145.64 414.64,-134.08 389.24,-124.37"/>
<polygon fill="#63b8ff" stroke="#63b8ff" points="469.74,-159.28 480.33,-159.58 472.24,-152.74 469.74,-159.28"/>
</a>
</g>
</g>
<!-- Node13 -->
<g id="Node000013" class="node">
<title>Node13</title>
<g id="a_Node000013"><a xlink:href="PYexportHeuristics_8hpp.html" target="_top" xlink:title=" ">
<polygon fill="white" stroke="#666666" points="310.35,-44 132.35,-44 132.35,0 310.35,0 310.35,-44"/>
<text text-anchor="start" x="140.35" y="-30.5" font-family="Helvetica,sans-Serif" font-size="10.00">C:/Users/CYRGU3/OneDrive</text>
<text text-anchor="start" x="140.35" y="-18.5" font-family="Helvetica,sans-Serif" font-size="10.00"> &#45; BuroVirtuel/Bureau/FMT</text>
<text text-anchor="middle" x="221.35" y="-6.5" font-family="Helvetica,sans-Serif" font-size="10.00">/FMT/Include/PYexportHeuristics.hpp</text>
</a>
</g>
</g>
<!-- Node12&#45;&gt;Node13 -->
<g id="edge12_Node000012_Node000013" class="edge">
<title>Node12&#45;&gt;Node13</title>
<g id="a_edge12_Node000012_Node000013"><a xlink:title=" ">
<path fill="none" stroke="#63b8ff" d="M293.93,-73.55C280.14,-63.95 264.87,-53.31 251.92,-44.29"/>
<polygon fill="#63b8ff" stroke="#63b8ff" points="291.54,-76.84 301.74,-79.69 295.54,-71.1 291.54,-76.84"/>
</a>
</g>
</g>
<!-- Node15&#45;&gt;Node13 -->
<g id="edge28_Node000015_Node000013" class="edge">
<title>Node15&#45;&gt;Node13</title>
<g id="a_edge28_Node000015_Node000013"><a xlink:title=" ">
<path fill="none" stroke="#63b8ff" d="M78.59,-232.51C35.4,-195.57 -25.82,-129.97 12.35,-80 27.39,-60.31 82.3,-45.79 132.07,-36.33"/>
<polygon fill="#63b8ff" stroke="#63b8ff" points="76.04,-235.78 85.95,-239.51 80.53,-230.41 76.04,-235.78"/>
</a>
</g>
</g>
<!-- Node16 -->
<g id="Node000016" class="node">
<title>Node16</title>
<g id="a_Node000016"><a xlink:href="FMToperatingareascheduler_8hpp.html" target="_top" xlink:title=" ">
<polygon fill="white" stroke="#666666" points="289.35,-204 75.35,-204 75.35,-160 289.35,-160 289.35,-204"/>
<text text-anchor="start" x="83.35" y="-190.5" font-family="Helvetica,sans-Serif" font-size="10.00">C:/Users/CYRGU3/OneDrive</text>
<text text-anchor="start" x="83.35" y="-178.5" font-family="Helvetica,sans-Serif" font-size="10.00"> &#45; BuroVirtuel/Bureau/FMT</text>
<text text-anchor="middle" x="182.35" y="-166.5" font-family="Helvetica,sans-Serif" font-size="10.00">/FMT/Include/FMToperatingareascheduler.hpp</text>
</a>
</g>
</g>
<!-- Node15&#45;&gt;Node16 -->
<g id="edge23_Node000015_Node000016" class="edge">
<title>Node15&#45;&gt;Node16</title>
<g id="a_edge23_Node000015_Node000016"><a xlink:title=" ">
<path fill="none" stroke="#63b8ff" d="M140.59,-231.62C148.39,-222.53 156.83,-212.71 164.06,-204.29"/>
<polygon fill="#63b8ff" stroke="#63b8ff" points="137.52,-228.82 133.66,-238.69 142.83,-233.38 137.52,-228.82"/>
</a>
</g>
</g>
<!-- Node17 -->
<g id="Node000017" class="node">
<title>Node17</title>
<g id="a_Node000017"><a xlink:href="RexportHeuristics_8hpp.html" target="_top" xlink:title=" ">
<polygon fill="white" stroke="#666666" points="192.97,-124 21.72,-124 21.72,-80 192.97,-80 192.97,-124"/>
<text text-anchor="start" x="29.72" y="-110.5" font-family="Helvetica,sans-Serif" font-size="10.00">C:/Users/CYRGU3/OneDrive</text>
<text text-anchor="start" x="29.72" y="-98.5" font-family="Helvetica,sans-Serif" font-size="10.00"> &#45; BuroVirtuel/Bureau/FMT</text>
<text text-anchor="middle" x="107.35" y="-86.5" font-family="Helvetica,sans-Serif" font-size="10.00">/FMT/Include/RexportHeuristics.hpp</text>
</a>
</g>
</g>
<!-- Node15&#45;&gt;Node17 -->
<g id="edge29_Node000015_Node000017" class="edge">
<title>Node15&#45;&gt;Node17</title>
<g id="a_edge29_Node000015_Node000017"><a xlink:title=" ">
<path fill="none" stroke="#63b8ff" d="M83.27,-231.6C76.38,-223.4 70.05,-213.99 66.35,-204 59.55,-185.66 60.35,-178.61 66.35,-160 70.54,-147.01 78.91,-134.47 87,-124.48"/>
<polygon fill="#63b8ff" stroke="#63b8ff" points="80.27,-233.6 89.58,-238.66 85.46,-228.9 80.27,-233.6"/>
</a>
</g>
</g>
<!-- Node16&#45;&gt;Node9 -->
<g id="edge26_Node000016_Node000009" class="edge">
<title>Node16&#45;&gt;Node9</title>
<g id="a_edge26_Node000016_Node000009"><a xlink:title=" ">
<path fill="none" stroke="#63b8ff" d="M290.3,-157.28C345.18,-145.22 410.6,-130.85 460.33,-119.92"/>
<polygon fill="#63b8ff" stroke="#63b8ff" points="289.84,-154.02 280.82,-159.58 291.34,-160.86 289.84,-154.02"/>
</a>
</g>
</g>
<!-- Node16&#45;&gt;Node12 -->
<g id="edge24_Node000016_Node000012" class="edge">
<title>Node16&#45;&gt;Node12</title>
<g id="a_edge24_Node000016_Node000012"><a xlink:title=" ">
<path fill="none" stroke="#63b8ff" d="M233.33,-154.66C252.39,-144.82 273.78,-133.77 291.87,-124.42"/>
<polygon fill="#63b8ff" stroke="#63b8ff" points="231.89,-151.99 224.61,-159.69 235.1,-158.21 231.89,-151.99"/>
</a>
</g>
</g>
<!-- Node16&#45;&gt;Node13 -->
<g id="edge25_Node000016_Node000013" class="edge">
<title>Node16&#45;&gt;Node13</title>
<g id="a_edge25_Node000016_Node000013"><a xlink:title=" ">
<path fill="none" stroke="#63b8ff" d="M194.42,-149.32C197.27,-141.15 200.12,-132.31 202.35,-124 209.6,-96.94 215.1,-65.08 218.27,-44.49"/>
<polygon fill="#63b8ff" stroke="#63b8ff" points="190.82,-147.99 190.73,-158.59 197.4,-150.36 190.82,-147.99"/>
</a>
</g>
</g>
<!-- Node16&#45;&gt;Node17 -->
<g id="edge27_Node000016_Node000017" class="edge">
<title>Node16&#45;&gt;Node17</title>
<g id="a_edge27_Node000016_Node000017"><a xlink:title=" ">
<path fill="none" stroke="#63b8ff" d="M154.36,-151.89C145.55,-142.74 136,-132.8 127.82,-124.29"/>
<polygon fill="#63b8ff" stroke="#63b8ff" points="151.4,-153.9 160.85,-158.69 156.45,-149.05 151.4,-153.9"/>
</a>
</g>
</g>
<!-- Node18&#45;&gt;Node3 -->
<g id="edge31_Node000018_Node000003" class="edge">
<title>Node18&#45;&gt;Node3</title>
<g id="a_edge31_Node000018_Node000003"><a xlink:title=" ">
<path fill="none" stroke="#63b8ff" d="M929,-455.16C929.23,-463.43 929.04,-472.12 928.44,-479.69"/>
<polygon fill="#63b8ff" stroke="#63b8ff" points="932.45,-455.09 928.44,-445.29 925.46,-455.46 932.45,-455.09"/>
</a>
</g>
</g>
<!-- Node19&#45;&gt;Node8 -->
<g id="edge42_Node000019_Node000008" class="edge">
<title>Node19&#45;&gt;Node8</title>
<g id="a_edge42_Node000019_Node000008"><a xlink:title=" ">
<path fill="none" stroke="#63b8ff" d="M1112.55,-233.74C1099.02,-224.97 1084.6,-214.73 1072.35,-204 1052.91,-186.98 1053.65,-177.18 1034.35,-160 1019.6,-146.88 1001.68,-134.33 986.19,-124.36"/>
<polygon fill="#63b8ff" stroke="#63b8ff" points="1110.42,-237.17 1120.75,-239.56 1114.17,-231.26 1110.42,-237.17"/>
</a>
</g>
</g>
<!-- Node19&#45;&gt;Node9 -->
<g id="edge43_Node000019_Node000009" class="edge">
<title>Node19&#45;&gt;Node9</title>
<g id="a_edge43_Node000019_Node000009"><a xlink:title=" ">
<path fill="none" stroke="#63b8ff" d="M1074.31,-261.23C980.25,-259.04 825.45,-248.13 700.35,-204 686.42,-199.09 613.44,-152.43 570,-124.28"/>
<polygon fill="#63b8ff" stroke="#63b8ff" points="1074.12,-264.75 1084.19,-261.45 1074.26,-257.75 1074.12,-264.75"/>
</a>
</g>
</g>
<!-- Node19&#45;&gt;Node10 -->
<g id="edge44_Node000019_Node000010" class="edge">
<title>Node19&#45;&gt;Node10</title>
<g id="a_edge44_Node000019_Node000010"><a xlink:title=" ">
<path fill="none" stroke="#63b8ff" d="M1243.34,-236.25C1257.64,-228.26 1270.65,-217.75 1279.35,-204 1289.8,-187.47 1289.8,-176.53 1279.35,-160 1269.3,-144.11 1253.49,-132.56 1236.61,-124.2"/>
<polygon fill="#63b8ff" stroke="#63b8ff" points="1242.09,-233.47 1234.8,-241.16 1245.29,-239.7 1242.09,-233.47"/>
</a>
</g>
</g>
<!-- Node20 -->
<g id="Node000020" class="node">
<title>Node20</title>
<g id="a_Node000020"><a xlink:href="FMTlpmodel_8hpp.html" target="_top" xlink:title=" ">
<polygon fill="white" stroke="#666666" points="856.97,-204 709.72,-204 709.72,-160 856.97,-160 856.97,-204"/>
<text text-anchor="start" x="717.72" y="-190.5" font-family="Helvetica,sans-Serif" font-size="10.00">C:/Users/CYRGU3/OneDrive</text>
<text text-anchor="start" x="717.72" y="-178.5" font-family="Helvetica,sans-Serif" font-size="10.00"> &#45; BuroVirtuel/Bureau/FMT</text>
<text text-anchor="middle" x="783.35" y="-166.5" font-family="Helvetica,sans-Serif" font-size="10.00">/FMT/Include/FMTlpmodel.hpp</text>
</a>
</g>
</g>
<!-- Node19&#45;&gt;Node20 -->
<g id="edge33_Node000019_Node000020" class="edge">
<title>Node19&#45;&gt;Node20</title>
<g id="a_edge33_Node000019_Node000020"><a xlink:title=" ">
<path fill="none" stroke="#63b8ff" d="M1074.36,-245.76C1015.73,-234.93 936.1,-219.6 866.35,-204 863.3,-203.32 860.2,-202.61 857.06,-201.88"/>
<polygon fill="#63b8ff" stroke="#63b8ff" points="1073.58,-249.36 1084.05,-247.73 1074.85,-242.48 1073.58,-249.36"/>
</a>
</g>
</g>
<!-- Node21 -->
<g id="Node000021" class="node">
<title>Node21</title>
<g id="a_Node000021"><a xlink:href="FMTnssmodel_8hpp.html" target="_top" xlink:title=" ">
<polygon fill="white" stroke="#666666" points="1237.1,-204 1081.6,-204 1081.6,-160 1237.1,-160 1237.1,-204"/>
<text text-anchor="start" x="1089.6" y="-190.5" font-family="Helvetica,sans-Serif" font-size="10.00">C:/Users/CYRGU3/OneDrive</text>
<text text-anchor="start" x="1089.6" y="-178.5" font-family="Helvetica,sans-Serif" font-size="10.00"> &#45; BuroVirtuel/Bureau/FMT</text>
<text text-anchor="middle" x="1159.35" y="-166.5" font-family="Helvetica,sans-Serif" font-size="10.00">/FMT/Include/FMTnssmodel.hpp</text>
</a>
</g>
</g>
<!-- Node19&#45;&gt;Node21 -->
<g id="edge38_Node000019_Node000021" class="edge">
<title>Node19&#45;&gt;Node21</title>
<g id="a_edge38_Node000019_Node000021"><a xlink:title=" ">
<path fill="none" stroke="#63b8ff" d="M1159.35,-228.82C1159.35,-220.54 1159.35,-211.85 1159.35,-204.29"/>
<polygon fill="#63b8ff" stroke="#63b8ff" points="1155.85,-228.69 1159.35,-238.69 1162.85,-228.69 1155.85,-228.69"/>
</a>
</g>
</g>
<!-- Node20&#45;&gt;Node8 -->
<g id="edge35_Node000020_Node000008" class="edge">
<title>Node20&#45;&gt;Node8</title>
<g id="a_edge35_Node000020_Node000008"><a xlink:title=" ">
<path fill="none" stroke="#63b8ff" d="M838.86,-155.07C860.16,-145.13 884.19,-133.9 904.48,-124.42"/>
<polygon fill="#63b8ff" stroke="#63b8ff" points="837.56,-152.28 829.98,-159.69 840.52,-158.63 837.56,-152.28"/>
</a>
</g>
</g>
<!-- Node20&#45;&gt;Node9 -->
<g id="edge36_Node000020_Node000009" class="edge">
<title>Node20&#45;&gt;Node9</title>
<g id="a_edge36_Node000020_Node000009"><a xlink:title=" ">
<path fill="none" stroke="#63b8ff" d="M705.48,-156.31C673.11,-146.05 635.91,-134.25 604.74,-124.37"/>
<polygon fill="#63b8ff" stroke="#63b8ff" points="704.21,-159.9 714.8,-159.58 706.33,-153.22 704.21,-159.9"/>
</a>
</g>
</g>
<!-- Node20&#45;&gt;Node10 -->
<g id="edge37_Node000020_Node000010" class="edge">
<title>Node20&#45;&gt;Node10</title>
<g id="a_edge37_Node000020_Node000010"><a xlink:title=" ">
<path fill="none" stroke="#63b8ff" d="M867.65,-159.76C946.31,-142.35 1025.32,-127.25 1081.99,-116.83"/>
<polygon fill="#63b8ff" stroke="#63b8ff" points="867.06,-156.53 858.06,-162.12 868.58,-163.36 867.06,-156.53"/>
</a>
</g>
</g>
<!-- Node20&#45;&gt;Node12 -->
<g id="edge34_Node000020_Node000012" class="edge">
<title>Node20&#45;&gt;Node12</title>
<g id="a_edge34_Node000020_Node000012"><a xlink:title=" ">
<path fill="none" stroke="#63b8ff" d="M698.97,-166.66C631.85,-155.22 535.56,-138.72 451.35,-124 440.48,-122.1 429.06,-120.09 417.78,-118.09"/>
<polygon fill="#63b8ff" stroke="#63b8ff" points="698.04,-170.22 708.48,-168.45 699.21,-163.32 698.04,-170.22"/>
</a>
</g>
</g>
<!-- Node21&#45;&gt;Node8 -->
<g id="edge39_Node000021_Node000008" class="edge">
<title>Node21&#45;&gt;Node8</title>
<g id="a_edge39_Node000021_Node000008"><a xlink:title=" ">
<path fill="none" stroke="#63b8ff" d="M1091.76,-155.78C1064.6,-145.64 1033.63,-134.08 1007.61,-124.37"/>
<polygon fill="#63b8ff" stroke="#63b8ff" points="1090.37,-159.37 1100.96,-159.58 1092.82,-152.81 1090.37,-159.37"/>
</a>
</g>
</g>
<!-- Node21&#45;&gt;Node9 -->
<g id="edge40_Node000021_Node000009" class="edge">
<title>Node21&#45;&gt;Node9</title>
<g id="a_edge40_Node000021_Node000009"><a xlink:title=" ">
<path fill="none" stroke="#63b8ff" d="M1070.76,-165.53C1058.54,-163.57 1046.14,-161.67 1034.35,-160 886,-139.05 711.92,-120.45 614.13,-110.55"/>
<polygon fill="#63b8ff" stroke="#63b8ff" points="1070,-169.11 1080.43,-167.26 1071.12,-162.2 1070,-169.11"/>
</a>
</g>
</g>
<!-- Node21&#45;&gt;Node10 -->
<g id="edge41_Node000021_Node000010" class="edge">
<title>Node21&#45;&gt;Node10</title>
<g id="a_edge41_Node000021_Node000010"><a xlink:title=" ">
<path fill="none" stroke="#63b8ff" d="M1159.35,-148.82C1159.35,-140.54 1159.35,-131.85 1159.35,-124.29"/>
<polygon fill="#63b8ff" stroke="#63b8ff" points="1155.85,-148.69 1159.35,-158.69 1162.85,-148.69 1155.85,-148.69"/>
</a>
</g>
</g>
</g>
</svg>

<g id="navigator" transform="translate(0 0)" fill="#404254">
  <rect fill="#f2f5e9" fill-opacity="0.5" stroke="#606060" stroke-width=".5" x="0" y="0" width="60" height="60"/>
  <use id="zoomplus" xlink:href="#zoomPlus" x="17" y="9" onmousedown="handleZoom(evt,'in')"/>
  <use id="zoomminus" xlink:href="#zoomMin" x="42" y="9" onmousedown="handleZoom(evt,'out')"/>
  <use id="reset" xlink:href="#resetDef" x="30" y="36" onmousedown="handleReset()"/>
   <use id="arrowup" xlink:href="#arrowUp" x="0" y="0" onmousedown="handlePan(0,-1)"/>
  <use id="arrowright" xlink:href="#arrowRight" x="0" y="0" onmousedown="handlePan(1,0)"/>
  <use id="arrowdown" xlink:href="#arrowDown" x="0" y="0" onmousedown="handlePan(0,1)"/>
  <use id="arrowleft" xlink:href="#arrowLeft" x="0" y="0" onmousedown="handlePan(-1,0)"/>
</g>
<svg viewBox="0 0 15 15" width="100%" height="30px" preserveAspectRatio="xMaxYMin meet">
 <g id="arrow_out" transform="scale(0.3 0.3)">
  <a xlink:href="FMTyields_8hpp__dep__incl_org.svg" target="_base">
   <rect id="button" ry="5" rx="5" y="6" x="6" height="38" width="38"
        fill="#f2f5e9" fill-opacity="0.5" stroke="#606060" stroke-width="1.0"/>
   <path id="arrow"
     d="M 11.500037,31.436501 C 11.940474,20.09759 22.043105,11.32322 32.158766,21.979434 L 37.068811,17.246167 C 37.068811,17.246167 37.088388,32 37.088388,32 L 22.160133,31.978069 C 22.160133,31.978069 26.997745,27.140456 26.997745,27.140456 C 18.528582,18.264221 13.291696,25.230495 11.500037,31.436501 z"
     style="fill:#404040;"/>
  </a>
 </g>
</svg>

<style type='text/css'>
<![CDATA[
[data-mouse-over-selected='false'] { opacity: 0.7; }
[data-mouse-over-selected='true']  { opacity: 1.0; }
]]>
</style>
<script type="application/ecmascript"><![CDATA[
document.addEventListener('DOMContentLoaded', (event) => {
  highlightEdges();
  highlightAdjacentNodes();
});
]]></script>
</svg>
