<?xml version="1.0" encoding="UTF-8" standalone="no"?>
<!DOCTYPE svg PUBLIC "-//W3C//DTD SVG 1.1//EN"
 "http://www.w3.org/Graphics/SVG/1.1/DTD/svg11.dtd">
<!-- Generated by graphviz version 10.0.1 (20240210.2158)
 -->
<!-- Title: D:/FMT/Include/FMTyieldmodelnn.hpp Pages: 1 -->
<svg width="404pt" height="84pt"
 viewBox="0.00 0.00 404.25 84.00" xmlns="http://www.w3.org/2000/svg" xmlns:xlink="http://www.w3.org/1999/xlink">
<g id="graph0" class="graph" transform="scale(1 1) rotate(0) translate(4 80)">
<title>D:/FMT/Include/FMTyieldmodelnn.hpp</title>
<!-- Node1 -->
<g id="node1" class="node">
<title>Node1</title>
<g id="a_node1"><a xlink:title=" ">
<polygon fill="#999999" stroke="#666666" points="285.88,-76 105.62,-76 105.62,-56 285.88,-56 285.88,-76"/>
<text text-anchor="middle" x="195.75" y="-62.5" font-family="Helvetica,sans-Serif" font-size="10.00">D:/FMT/Include/FMTyieldmodelnn.hpp</text>
</a>
</g>
</g>
<!-- Node2 -->
<g id="node2" class="node">
<title>Node2</title>
<g id="a_node2"><a xlink:href="FMTyieldmodelnep_8hpp.html" target="_top" xlink:title=" ">
<polygon fill="white" stroke="#666666" points="185.5,-20 0,-20 0,0 185.5,0 185.5,-20"/>
<text text-anchor="middle" x="92.75" y="-6.5" font-family="Helvetica,sans-Serif" font-size="10.00">D:/FMT/Include/FMTyieldmodelnep.hpp</text>
</a>
</g>
</g>
<!-- Node1&#45;&gt;Node2 -->
<g id="edge1" class="edge">
<title>Node1&#45;&gt;Node2</title>
<path fill="none" stroke="#63b8ff" d="M167.8,-50.35C149.67,-40.84 126.58,-28.74 110.83,-20.48"/>
<polygon fill="#63b8ff" stroke="#63b8ff" points="165.99,-53.35 176.47,-54.89 169.24,-47.15 165.99,-53.35"/>
</g>
<!-- Node3 -->
<g id="node3" class="node">
<title>Node3</title>
<g id="a_node3"><a xlink:href="FMTyieldmodelpools_8hpp.html" target="_top" xlink:title=" ">
<polygon fill="white" stroke="#666666" points="396.25,-20 203.25,-20 203.25,0 396.25,0 396.25,-20"/>
<text text-anchor="middle" x="299.75" y="-6.5" font-family="Helvetica,sans-Serif" font-size="10.00">D:/FMT/Include/FMTyieldmodelpools.hpp</text>
</a>
</g>
</g>
<!-- Node1&#45;&gt;Node3 -->
<g id="edge2" class="edge">
<title>Node1&#45;&gt;Node3</title>
<path fill="none" stroke="#63b8ff" d="M223.97,-50.35C242.27,-40.84 265.59,-28.74 281.49,-20.48"/>
<polygon fill="#63b8ff" stroke="#63b8ff" points="222.47,-47.18 215.21,-54.9 225.7,-53.39 222.47,-47.18"/>
</g>
</g>
</svg>
