<?xml version="1.0" encoding="UTF-8" standalone="no"?>
<!DOCTYPE svg PUBLIC "-//W3C//DTD SVG 1.1//EN"
 "http://www.w3.org/Graphics/SVG/1.1/DTD/svg11.dtd">
<!-- Generated by graphviz version 10.0.1 (20240210.2158)
 -->
<!-- Title: D:/FMT/Include/FMTyieldmodelnep.hpp Pages: 1 -->
<!--zoomable 332 -->
<svg id="main" version="1.1" xmlns="http://www.w3.org/2000/svg" xmlns:xlink="http://www.w3.org/1999/xlink" xml:space="preserve" onload="init(evt)">
<style type="text/css"><![CDATA[
.edge:hover path { stroke: red; }
.edge:hover polygon { stroke: red; fill: red; }
]]></style>
<script type="text/javascript"><![CDATA[
var edges = document.getElementsByTagName('g');
if (edges && edges.length) {
  for (var i=0;i<edges.length;i++) {
    if (edges[i].id.substr(0,4)=='edge') {
      edges[i].setAttribute('class','edge');
    }
  }
}
]]></script>
        <defs>
                <circle id="rim" cx="0" cy="0" r="7"/>
                <circle id="rim2" cx="0" cy="0" r="3.5"/>
                <g id="zoomPlus">
                        <use xlink:href="#rim" fill="#404040">
                                <set attributeName="fill" to="#808080" begin="zoomplus.mouseover" end="zoomplus.mouseout"/>
                        </use>
                        <path d="M-4,0h8M0,-4v8" fill="none" stroke="white" stroke-width="1.5" pointer-events="none"/>
                </g>
                <g id="zoomMin">
                        <use xlink:href="#rim" fill="#404040">
                                <set attributeName="fill" to="#808080" begin="zoomminus.mouseover" end="zoomminus.mouseout"/>
                        </use>
                        <path d="M-4,0h8" fill="none" stroke="white" stroke-width="1.5" pointer-events="none"/>
                </g>
                <g id="dirArrow">
                        <path fill="none" stroke="white" stroke-width="1.5" d="M0,-3.0v7 M-2.5,-0.5L0,-3.0L2.5,-0.5"/>
                </g>
               <g id="resetDef">
                       <use xlink:href="#rim2" fill="#404040">
                               <set attributeName="fill" to="#808080" begin="reset.mouseover" end="reset.mouseout"/>
                       </use>
               </g>
        </defs>

<script type="text/javascript">
var viewWidth = 747;
var viewHeight = 332;
var sectionId = 'dynsection-0';
</script>
<script xlink:href="svgpan.js"/>
<svg id="graph" class="graph">
<g id="viewport">
<title>D:/FMT/Include/FMTyieldmodelnep.hpp</title>
<!-- Node1 -->
<g id="node1" class="node">
<title>Node1</title>
<g id="a_node1"><a xlink:title=" ">
<polygon fill="#999999" stroke="#666666" points="389.12,-324 203.62,-324 203.62,-304 389.12,-304 389.12,-324"/>
<text text-anchor="middle" x="296.38" y="-310.5" font-family="Helvetica,sans-Serif" font-size="10.00">D:/FMT/Include/FMTyieldmodelnep.hpp</text>
</a>
</g>
</g>
<!-- Node2 -->
<g id="node2" class="node">
<title>Node2</title>
<g id="a_node2"><a xlink:href="FMTyieldmodelnn_8hpp.html" target="_top" xlink:title=" ">
<polygon fill="white" stroke="#666666" points="352,-268 240.75,-268 240.75,-248 352,-248 352,-268"/>
<text text-anchor="middle" x="296.38" y="-254.5" font-family="Helvetica,sans-Serif" font-size="10.00">FMTyieldmodelnn.hpp</text>
</a>
</g>
</g>
<!-- Node1&#45;&gt;Node2 -->
<g id="edge1" class="edge">
<title>Node1&#45;&gt;Node2</title>
<path fill="none" stroke="#63b8ff" d="M296.38,-303.59C296.38,-297.01 296.38,-287.96 296.38,-279.73"/>
<polygon fill="#63b8ff" stroke="#63b8ff" points="299.88,-279.81 296.38,-269.81 292.88,-279.81 299.88,-279.81"/>
</g>
<!-- Node3 -->
<g id="node3" class="node">
<title>Node3</title>
<g id="a_node3"><a xlink:href="FMTobject_8hpp.html" target="_top" xlink:title=" ">
<polygon fill="white" stroke="#666666" points="370.62,-150 290.12,-150 290.12,-130 370.62,-130 370.62,-150"/>
<text text-anchor="middle" x="330.38" y="-136.5" font-family="Helvetica,sans-Serif" font-size="10.00">FMTobject.hpp</text>
</a>
</g>
</g>
<!-- Node2&#45;&gt;Node3 -->
<g id="edge2" class="edge">
<title>Node2&#45;&gt;Node3</title>
<path fill="none" stroke="#63b8ff" d="M289.33,-247.51C280.69,-234.65 268.15,-211.08 276.38,-192 282.48,-177.85 294.65,-165.79 305.9,-156.96"/>
<polygon fill="#63b8ff" stroke="#63b8ff" points="307.75,-159.95 313.76,-151.22 303.62,-154.29 307.75,-159.95"/>
</g>
<!-- Node5 -->
<g id="node5" class="node">
<title>Node5</title>
<g id="a_node5"><a xlink:title=" ">
<polygon fill="#e0e0e0" stroke="#999999" points="94.75,-88 0,-88 0,-56 94.75,-56 94.75,-88"/>
<text text-anchor="start" x="8" y="-74.5" font-family="Helvetica,sans-Serif" font-size="10.00">boost/serialization</text>
<text text-anchor="middle" x="47.38" y="-62.5" font-family="Helvetica,sans-Serif" font-size="10.00">/nvp.hpp</text>
</a>
</g>
</g>
<!-- Node2&#45;&gt;Node5 -->
<g id="edge21" class="edge">
<title>Node2&#45;&gt;Node5</title>
<path fill="none" stroke="#63b8ff" d="M283.68,-247.62C245.63,-219.5 131.76,-135.36 77.19,-95.03"/>
<polygon fill="#63b8ff" stroke="#63b8ff" points="79.36,-92.29 69.24,-89.16 75.2,-97.92 79.36,-92.29"/>
</g>
<!-- Node16 -->
<g id="node16" class="node">
<title>Node16</title>
<g id="a_node16"><a xlink:href="FMTyieldmodel_8hpp.html" target="_top" xlink:title=" ">
<polygon fill="white" stroke="#666666" points="385.75,-212 285,-212 285,-192 385.75,-192 385.75,-212"/>
<text text-anchor="middle" x="335.38" y="-198.5" font-family="Helvetica,sans-Serif" font-size="10.00">FMTyieldmodel.hpp</text>
</a>
</g>
</g>
<!-- Node2&#45;&gt;Node16 -->
<g id="edge16" class="edge">
<title>Node2&#45;&gt;Node16</title>
<path fill="none" stroke="#63b8ff" d="M303.17,-247.59C308.37,-240.39 315.71,-230.23 322.06,-221.43"/>
<polygon fill="#63b8ff" stroke="#63b8ff" points="324.76,-223.68 327.77,-213.53 319.08,-219.58 324.76,-223.68"/>
</g>
<!-- Node17 -->
<g id="node17" class="node">
<title>Node17</title>
<g id="a_node17"><a xlink:title=" ">
<polygon fill="#e0e0e0" stroke="#999999" points="483.75,-156 389,-156 389,-124 483.75,-124 483.75,-156"/>
<text text-anchor="start" x="397" y="-142.5" font-family="Helvetica,sans-Serif" font-size="10.00">boost/serialization</text>
<text text-anchor="middle" x="436.38" y="-130.5" font-family="Helvetica,sans-Serif" font-size="10.00">/serialization.hpp</text>
</a>
</g>
</g>
<!-- Node2&#45;&gt;Node17 -->
<g id="edge20" class="edge">
<title>Node2&#45;&gt;Node17</title>
<path fill="none" stroke="#63b8ff" d="M329.24,-247.52C349.76,-240.34 375.74,-228.8 394.38,-212 408.24,-199.5 418.88,-181.32 425.98,-166.49"/>
<polygon fill="#63b8ff" stroke="#63b8ff" points="428.98,-168.34 429.89,-157.79 422.6,-165.47 428.98,-168.34"/>
</g>
<!-- Node4 -->
<g id="node4" class="node">
<title>Node4</title>
<g id="a_node4"><a xlink:title=" ">
<polygon fill="#e0e0e0" stroke="#999999" points="207.75,-88 113,-88 113,-56 207.75,-56 207.75,-88"/>
<text text-anchor="start" x="121" y="-74.5" font-family="Helvetica,sans-Serif" font-size="10.00">boost/serialization</text>
<text text-anchor="middle" x="160.38" y="-62.5" font-family="Helvetica,sans-Serif" font-size="10.00">/shared_ptr.hpp</text>
</a>
</g>
</g>
<!-- Node3&#45;&gt;Node4 -->
<g id="edge3" class="edge">
<title>Node3&#45;&gt;Node4</title>
<path fill="none" stroke="#63b8ff" d="M306.02,-129.54C281.19,-119.9 241.96,-104.67 210.47,-92.45"/>
<polygon fill="#63b8ff" stroke="#63b8ff" points="212.11,-89.33 201.52,-88.98 209.58,-95.86 212.11,-89.33"/>
</g>
<!-- Node3&#45;&gt;Node5 -->
<g id="edge4" class="edge">
<title>Node3&#45;&gt;Node5</title>
<path fill="none" stroke="#63b8ff" d="M293.92,-129.51C286.47,-127.63 278.68,-125.72 271.38,-124 200.78,-107.42 180.06,-105.79 106.04,-88.33"/>
<polygon fill="#63b8ff" stroke="#63b8ff" points="107.24,-85.02 96.7,-86.11 105.62,-91.83 107.24,-85.02"/>
</g>
<!-- Node6 -->
<g id="node6" class="node">
<title>Node6</title>
<g id="a_node6"><a xlink:title=" ">
<polygon fill="#e0e0e0" stroke="#999999" points="320.75,-88 226,-88 226,-56 320.75,-56 320.75,-88"/>
<text text-anchor="start" x="234" y="-74.5" font-family="Helvetica,sans-Serif" font-size="10.00">boost/serialization</text>
<text text-anchor="middle" x="273.38" y="-62.5" font-family="Helvetica,sans-Serif" font-size="10.00">/export.hpp</text>
</a>
</g>
</g>
<!-- Node3&#45;&gt;Node6 -->
<g id="edge5" class="edge">
<title>Node3&#45;&gt;Node6</title>
<path fill="none" stroke="#63b8ff" d="M322.21,-129.54C314.87,-121.05 303.79,-108.21 294.03,-96.92"/>
<polygon fill="#63b8ff" stroke="#63b8ff" points="296.76,-94.73 287.58,-89.45 291.47,-99.3 296.76,-94.73"/>
</g>
<!-- Node7 -->
<g id="node7" class="node">
<title>Node7</title>
<g id="a_node7"><a xlink:href="FMTexception_8hpp.html" target="_top" xlink:title=" ">
<polygon fill="white" stroke="#666666" points="435.5,-82 339.25,-82 339.25,-62 435.5,-62 435.5,-82"/>
<text text-anchor="middle" x="387.38" y="-68.5" font-family="Helvetica,sans-Serif" font-size="10.00">FMTexception.hpp</text>
</a>
</g>
</g>
<!-- Node3&#45;&gt;Node7 -->
<g id="edge6" class="edge">
<title>Node3&#45;&gt;Node7</title>
<path fill="none" stroke="#63b8ff" d="M338.54,-129.54C347.18,-119.55 361.01,-103.53 371.75,-91.09"/>
<polygon fill="#63b8ff" stroke="#63b8ff" points="374.35,-93.44 378.23,-83.58 369.05,-88.86 374.35,-93.44"/>
</g>
<!-- Node11 -->
<g id="node11" class="node">
<title>Node11</title>
<g id="a_node11"><a xlink:title=" ">
<polygon fill="#e0e0e0" stroke="#999999" points="518,-20 466.75,-20 466.75,0 518,0 518,-20"/>
<text text-anchor="middle" x="492.38" y="-6.5" font-family="Helvetica,sans-Serif" font-size="10.00">memory</text>
</a>
</g>
</g>
<!-- Node3&#45;&gt;Node11 -->
<g id="edge12" class="edge">
<title>Node3&#45;&gt;Node11</title>
<path fill="none" stroke="#63b8ff" d="M364.77,-129.53C389.09,-121.52 421.33,-108.09 444.38,-88 462.51,-72.19 476.09,-47.83 484.1,-30.76"/>
<polygon fill="#63b8ff" stroke="#63b8ff" points="487.27,-32.24 488.13,-21.68 480.87,-29.4 487.27,-32.24"/>
</g>
<!-- Node13 -->
<g id="node13" class="node">
<title>Node13</title>
<g id="a_node13"><a xlink:title=" ">
<polygon fill="#e0e0e0" stroke="#999999" points="537,-82 491.75,-82 491.75,-62 537,-62 537,-82"/>
<text text-anchor="middle" x="514.38" y="-68.5" font-family="Helvetica,sans-Serif" font-size="10.00">chrono</text>
</a>
</g>
</g>
<!-- Node3&#45;&gt;Node13 -->
<g id="edge13" class="edge">
<title>Node3&#45;&gt;Node13</title>
<path fill="none" stroke="#63b8ff" d="M358.99,-129.56C388.72,-119.63 436.54,-103.35 477.38,-88 478.69,-87.51 480.03,-87 481.38,-86.48"/>
<polygon fill="#63b8ff" stroke="#63b8ff" points="482.32,-89.87 490.34,-82.94 479.75,-83.35 482.32,-89.87"/>
</g>
<!-- Node14 -->
<g id="node14" class="node">
<title>Node14</title>
<g id="a_node14"><a xlink:title=" ">
<polygon fill="#e0e0e0" stroke="#999999" points="596.12,-82 554.62,-82 554.62,-62 596.12,-62 596.12,-82"/>
<text text-anchor="middle" x="575.38" y="-68.5" font-family="Helvetica,sans-Serif" font-size="10.00">vector</text>
</a>
</g>
</g>
<!-- Node3&#45;&gt;Node14 -->
<g id="edge14" class="edge">
<title>Node3&#45;&gt;Node14</title>
<path fill="none" stroke="#63b8ff" d="M360.41,-129.58C366.96,-127.64 373.88,-125.68 380.38,-124 453.47,-105.14 475.34,-113.56 546.38,-88 547.16,-87.72 547.94,-87.42 548.73,-87.11"/>
<polygon fill="#63b8ff" stroke="#63b8ff" points="549.82,-90.46 557.47,-83.13 546.92,-84.09 549.82,-90.46"/>
</g>
<!-- Node15 -->
<g id="node15" class="node">
<title>Node15</title>
<g id="a_node15"><a xlink:title=" ">
<polygon fill="#e0e0e0" stroke="#999999" points="738.75,-88 614,-88 614,-56 738.75,-56 738.75,-88"/>
<text text-anchor="start" x="622" y="-74.5" font-family="Helvetica,sans-Serif" font-size="10.00">boost/dll/runtime_symbol</text>
<text text-anchor="middle" x="676.38" y="-62.5" font-family="Helvetica,sans-Serif" font-size="10.00">_info.hpp</text>
</a>
</g>
</g>
<!-- Node3&#45;&gt;Node15 -->
<g id="edge15" class="edge">
<title>Node3&#45;&gt;Node15</title>
<path fill="none" stroke="#63b8ff" d="M359.55,-129.54C366.34,-127.53 373.57,-125.56 380.38,-124 475.62,-102.19 503.84,-106.15 602.6,-88.44"/>
<polygon fill="#63b8ff" stroke="#63b8ff" points="602.99,-91.93 612.2,-86.69 601.73,-85.04 602.99,-91.93"/>
</g>
<!-- Node8 -->
<g id="node8" class="node">
<title>Node8</title>
<g id="a_node8"><a xlink:title=" ">
<polygon fill="#e0e0e0" stroke="#999999" points="319.38,-20 261.38,-20 261.38,0 319.38,0 319.38,-20"/>
<text text-anchor="middle" x="290.38" y="-6.5" font-family="Helvetica,sans-Serif" font-size="10.00">exception</text>
</a>
</g>
</g>
<!-- Node7&#45;&gt;Node8 -->
<g id="edge7" class="edge">
<title>Node7&#45;&gt;Node8</title>
<path fill="none" stroke="#63b8ff" d="M372.22,-61.62C356.91,-52.16 333.02,-37.38 315,-26.23"/>
<polygon fill="#63b8ff" stroke="#63b8ff" points="317.06,-23.39 306.71,-21.11 313.38,-29.34 317.06,-23.39"/>
</g>
<!-- Node9 -->
<g id="node9" class="node">
<title>Node9</title>
<g id="a_node9"><a xlink:title=" ">
<polygon fill="#e0e0e0" stroke="#999999" points="377.38,-20 337.38,-20 337.38,0 377.38,0 377.38,-20"/>
<text text-anchor="middle" x="357.38" y="-6.5" font-family="Helvetica,sans-Serif" font-size="10.00">string</text>
</a>
</g>
</g>
<!-- Node7&#45;&gt;Node9 -->
<g id="edge8" class="edge">
<title>Node7&#45;&gt;Node9</title>
<path fill="none" stroke="#63b8ff" d="M382.69,-61.62C378.52,-53.3 372.31,-40.86 367.08,-30.4"/>
<polygon fill="#63b8ff" stroke="#63b8ff" points="370.21,-28.85 362.61,-21.47 363.95,-31.98 370.21,-28.85"/>
</g>
<!-- Node10 -->
<g id="node10" class="node">
<title>Node10</title>
<g id="a_node10"><a xlink:title=" ">
<polygon fill="#e0e0e0" stroke="#999999" points="449.12,-20 395.62,-20 395.62,0 449.12,0 449.12,-20"/>
<text text-anchor="middle" x="422.38" y="-6.5" font-family="Helvetica,sans-Serif" font-size="10.00">iostream</text>
</a>
</g>
</g>
<!-- Node7&#45;&gt;Node10 -->
<g id="edge9" class="edge">
<title>Node7&#45;&gt;Node10</title>
<path fill="none" stroke="#63b8ff" d="M392.84,-61.62C397.8,-53.12 405.26,-40.33 411.44,-29.74"/>
<polygon fill="#63b8ff" stroke="#63b8ff" points="414.28,-31.82 416.3,-21.42 408.23,-28.29 414.28,-31.82"/>
</g>
<!-- Node7&#45;&gt;Node11 -->
<g id="edge10" class="edge">
<title>Node7&#45;&gt;Node11</title>
<path fill="none" stroke="#63b8ff" d="M403.78,-61.62C420.5,-52.07 446.69,-37.11 466.26,-25.92"/>
<polygon fill="#63b8ff" stroke="#63b8ff" points="467.82,-29.06 474.77,-21.06 464.35,-22.98 467.82,-29.06"/>
</g>
<!-- Node12 -->
<g id="node12" class="node">
<title>Node12</title>
<g id="a_node12"><a xlink:href="FMTutility_8hpp.html" target="_top" xlink:title=" ">
<polygon fill="white" stroke="#666666" points="243.12,-20 165.62,-20 165.62,0 243.12,0 243.12,-20"/>
<text text-anchor="middle" x="204.38" y="-6.5" font-family="Helvetica,sans-Serif" font-size="10.00">FMTutility.hpp</text>
</a>
</g>
</g>
<!-- Node7&#45;&gt;Node12 -->
<g id="edge11" class="edge">
<title>Node7&#45;&gt;Node12</title>
<path fill="none" stroke="#63b8ff" d="M358.78,-61.62C327.85,-51.48 278.33,-35.25 243.73,-23.9"/>
<polygon fill="#63b8ff" stroke="#63b8ff" points="245.1,-20.67 234.51,-20.88 242.92,-27.32 245.1,-20.67"/>
</g>
<!-- Node16&#45;&gt;Node3 -->
<g id="edge17" class="edge">
<title>Node16&#45;&gt;Node3</title>
<path fill="none" stroke="#63b8ff" d="M334.59,-191.62C333.92,-183.56 332.93,-171.65 332.08,-161.41"/>
<polygon fill="#63b8ff" stroke="#63b8ff" points="335.58,-161.3 331.26,-151.62 328.6,-161.88 335.58,-161.3"/>
</g>
<!-- Node16&#45;&gt;Node5 -->
<g id="edge19" class="edge">
<title>Node16&#45;&gt;Node5</title>
<path fill="none" stroke="#63b8ff" d="M324.47,-191.59C305.4,-175.58 264.2,-142.92 224.38,-124 213.41,-118.79 153.19,-101.82 106,-88.87"/>
<polygon fill="#63b8ff" stroke="#63b8ff" points="106.96,-85.51 96.39,-86.25 105.12,-92.26 106.96,-85.51"/>
</g>
<!-- Node16&#45;&gt;Node17 -->
<g id="edge18" class="edge">
<title>Node16&#45;&gt;Node17</title>
<path fill="none" stroke="#63b8ff" d="M351.16,-191.62C364.42,-183.75 383.88,-172.19 400.85,-162.1"/>
<polygon fill="#63b8ff" stroke="#63b8ff" points="402.39,-165.26 409.19,-157.15 398.81,-159.24 402.39,-165.26"/>
</g>
</g>
</svg>
        <g id="navigator" transform="translate(0 0)" fill="#404254">
                <rect fill="#f2f5e9" fill-opacity="0.5" stroke="#606060" stroke-width=".5" x="0" y="0" width="60" height="60"/>
                <use id="zoomplus" xlink:href="#zoomPlus" x="17" y="9" onmousedown="handleZoom(evt,'in')"/>
                <use id="zoomminus" xlink:href="#zoomMin" x="42" y="9" onmousedown="handleZoom(evt,'out')"/>
                <use id="reset" xlink:href="#resetDef" x="30" y="36" onmousedown="handleReset()"/>
                <g id="arrowUp" xlink:href="#dirArrow" transform="translate(30 24)" onmousedown="handlePan(0,-1)">
                  <use xlink:href="#rim" fill="#404040">
                        <set attributeName="fill" to="#808080" begin="arrowUp.mouseover" end="arrowUp.mouseout"/>
                  </use>
                  <path fill="none" stroke="white" stroke-width="1.5" d="M0,-3.0v7 M-2.5,-0.5L0,-3.0L2.5,-0.5"/>
                </g>
                <g id="arrowRight" xlink:href="#dirArrow" transform="rotate(90) translate(36 -43)" onmousedown="handlePan(1,0)">
                  <use xlink:href="#rim" fill="#404040">
                        <set attributeName="fill" to="#808080" begin="arrowRight.mouseover" end="arrowRight.mouseout"/>
                  </use>
                  <path fill="none" stroke="white" stroke-width="1.5" d="M0,-3.0v7 M-2.5,-0.5L0,-3.0L2.5,-0.5"/>
                </g>
                <g id="arrowDown" xlink:href="#dirArrow" transform="rotate(180) translate(-30 -48)" onmousedown="handlePan(0,1)">
                  <use xlink:href="#rim" fill="#404040">
                        <set attributeName="fill" to="#808080" begin="arrowDown.mouseover" end="arrowDown.mouseout"/>
                  </use>
                  <path fill="none" stroke="white" stroke-width="1.5" d="M0,-3.0v7 M-2.5,-0.5L0,-3.0L2.5,-0.5"/>
                </g>
                <g id="arrowLeft" xlink:href="#dirArrow" transform="rotate(270) translate(-36 17)" onmousedown="handlePan(-1,0)">
                  <use xlink:href="#rim" fill="#404040">
                        <set attributeName="fill" to="#808080" begin="arrowLeft.mouseover" end="arrowLeft.mouseout"/>
                  </use>
                  <path fill="none" stroke="white" stroke-width="1.5" d="M0,-3.0v7 M-2.5,-0.5L0,-3.0L2.5,-0.5"/>
                </g>
        </g>
        <svg viewBox="0 0 15 15" width="100%" height="30px" preserveAspectRatio="xMaxYMin meet">
         <g id="arrow_out" transform="scale(0.3 0.3)">
          <a xlink:href="FMTyieldmodelnep_8hpp__incl_org.svg" target="_base">
           <rect id="button" ry="5" rx="5" y="6" x="6" height="38" width="38"
                fill="#f2f5e9" fill-opacity="0.5" stroke="#606060" stroke-width="1.0"/>
           <path id="arrow"
             d="M 11.500037,31.436501 C 11.940474,20.09759 22.043105,11.32322 32.158766,21.979434 L 37.068811,17.246167 C 37.068811,17.246167 37.088388,32 37.088388,32 L 22.160133,31.978069 C 22.160133,31.978069 26.997745,27.140456 26.997745,27.140456 C 18.528582,18.264221 13.291696,25.230495 11.500037,31.436501 z"
             style="fill:#404040;"/>
          </a>
         </g>
        </svg>
</svg>
