<?xml version="1.0" encoding="UTF-8" standalone="no"?>
<!DOCTYPE svg PUBLIC "-//W3C//DTD SVG 1.1//EN"
 "http://www.w3.org/Graphics/SVG/1.1/DTD/svg11.dtd">
<!-- Generated by graphviz version 8.1.0 (20230707.0739)
 -->
<!-- Title: C:/Temp/out/FMT/Include/FMTyieldparser.hpp Pages: 1 -->
<!--zoomable 288 -->

<svg id="main" version="1.1" xmlns="http://www.w3.org/2000/svg" xmlns:xlink="http://www.w3.org/1999/xlink" xml:space="preserve" onload="init(evt)">
<style type="text/css"><![CDATA[
.node, .edge {opacity: 0.7;}
.node.selected, .edge.selected {opacity: 1;}
.edge:hover path { stroke: red; }
.edge:hover polygon { stroke: red; fill: red; }
]]></style>

<defs>
  <circle id="rim" cx="0" cy="0" r="7"/>
  <circle id="rim2" cx="0" cy="0" r="3.5"/>
  <g id="zoomPlus">
    <use xlink:href="#rim" fill="#404040"><set attributeName="fill" to="#808080" begin="zoomplus.mouseover" end="zoomplus.mouseout"/></use>
    <path d="M-4,0h8M0,-4v8" fill="none" stroke="white" stroke-width="1.5" pointer-events="none"/>
  </g>
  <g id="zoomMin">
    <use xlink:href="#rim" fill="#404040"><set attributeName="fill" to="#808080" begin="zoomminus.mouseover" end="zoomminus.mouseout"/></use>
    <path d="M-4,0h8" fill="none" stroke="white" stroke-width="1.5" pointer-events="none"/>
  </g>
  <g id="arrowUp" transform="translate(30 24)">
    <use xlink:href="#rim"/>
    <path pointer-events="none" fill="none" stroke="white" stroke-width="1.5" d="M0,-3.0v7 M-2.5,-0.5L0,-3.0L2.5,-0.5"/>
  </g>
  <g id="arrowRight" transform="rotate(90) translate(36 -43)">
    <use xlink:href="#rim"/>
    <path pointer-events="none" fill="none" stroke="white" stroke-width="1.5" d="M0,-3.0v7 M-2.5,-0.5L0,-3.0L2.5,-0.5"/>
  </g>
  <g id="arrowDown" transform="rotate(180) translate(-30 -48)">
    <use xlink:href="#rim"/>
    <path pointer-events="none" fill="none" stroke="white" stroke-width="1.5" d="M0,-3.0v7 M-2.5,-0.5L0,-3.0L2.5,-0.5"/>
  </g>
  <g id="arrowLeft" transform="rotate(270) translate(-36 17)">
    <use xlink:href="#rim"/>
    <path pointer-events="none" fill="none" stroke="white" stroke-width="1.5" d="M0,-3.0v7 M-2.5,-0.5L0,-3.0L2.5,-0.5"/>
  </g>
  <g id="resetDef">
    <use xlink:href="#rim2" fill="#404040"><set attributeName="fill" to="#808080" begin="reset.mouseover" end="reset.mouseout"/></use>
  </g>
</defs>
<script type="application/ecmascript">
var viewWidth = 1188;
var viewHeight = 288;
var sectionId = 'dynsection-0';
</script>
<script type="application/ecmascript" xlink:href="svg.min.js"/>
<svg id="graph" class="graph">
<g id="viewport">
<title>C:/Temp/out/FMT/Include/FMTyieldparser.hpp</title>
<!-- Node1 -->
<g id="Node000001" class="node">
<title>Node1</title>
<g id="a_Node000001"><a xlink:title=" ">
<polygon fill="#999999" stroke="#666666" points="796.05,-280 670.55,-280 670.55,-248 796.05,-248 796.05,-280"/>
<text text-anchor="start" x="678.55" y="-266.5" font-family="Helvetica,sans-Serif" font-size="10.00">C:/Temp/out/FMT/Include</text>
<text text-anchor="middle" x="733.3" y="-254.5" font-family="Helvetica,sans-Serif" font-size="10.00">/FMTyieldparser.hpp</text>
</a>
</g>
</g>
<!-- Node2 -->
<g id="Node000002" class="node">
<title>Node2</title>
<g id="a_Node000002"><a xlink:href="FMTparser_8hpp.html" target="_top" xlink:title=" ">
<polygon fill="white" stroke="#666666" points="519.92,-212 438.67,-212 438.67,-192 519.92,-192 519.92,-212"/>
<text text-anchor="middle" x="479.3" y="-198.5" font-family="Helvetica,sans-Serif" font-size="10.00">FMTparser.hpp</text>
</a>
</g>
</g>
<!-- Node1&#45;&gt;Node2 -->
<g id="edge1_Node000001_Node000002" class="edge">
<title>Node1&#45;&gt;Node2</title>
<g id="a_edge1_Node000001_Node000002"><a xlink:title=" ">
<path fill="none" stroke="#63b8ff" d="M670.18,-248.09C626.98,-237.89 570.44,-224.53 530.14,-215.01"/>
<polygon fill="#63b8ff" stroke="#63b8ff" points="531.02,-211.39 520.48,-212.49 529.41,-218.2 531.02,-211.39"/>
</a>
</g>
</g>
<!-- Node3 -->
<g id="Node000003" class="node">
<title>Node3</title>
<g id="a_Node000003"><a xlink:title=" ">
<polygon fill="#e0e0e0" stroke="#999999" points="105.17,-150 19.42,-150 19.42,-130 105.17,-130 105.17,-150"/>
<text text-anchor="middle" x="62.3" y="-136.5" font-family="Helvetica,sans-Serif" font-size="10.00">boost/regex.hpp</text>
</a>
</g>
</g>
<!-- Node1&#45;&gt;Node3 -->
<g id="edge29_Node000001_Node000003" class="edge">
<title>Node1&#45;&gt;Node3</title>
<g id="a_edge29_Node000001_Node000003"><a xlink:title=" ">
<path fill="none" stroke="#63b8ff" d="M670.35,-258.69C586.77,-252.23 434.85,-237.94 307.3,-212 232.46,-196.78 147.26,-169.85 99.63,-153.89"/>
<polygon fill="#63b8ff" stroke="#63b8ff" points="101.08,-150.35 90.49,-150.46 98.85,-156.98 101.08,-150.35"/>
</a>
</g>
</g>
<!-- Node4 -->
<g id="Node000004" class="node">
<title>Node4</title>
<g id="a_Node000004"><a xlink:title=" ">
<polygon fill="#e0e0e0" stroke="#999999" points="169.3,-150 123.3,-150 123.3,-130 169.3,-130 169.3,-150"/>
<text text-anchor="middle" x="146.3" y="-136.5" font-family="Helvetica,sans-Serif" font-size="10.00">iterator</text>
</a>
</g>
</g>
<!-- Node1&#45;&gt;Node4 -->
<g id="edge28_Node000001_Node000004" class="edge">
<title>Node1&#45;&gt;Node4</title>
<g id="a_edge28_Node000001_Node000004"><a xlink:title=" ">
<path fill="none" stroke="#63b8ff" d="M670.25,-256.6C565.74,-244.73 351.03,-214.96 178.3,-156 177.02,-155.57 175.73,-155.09 174.44,-154.6"/>
<polygon fill="#63b8ff" stroke="#63b8ff" points="176.2,-151.12 165.63,-150.43 173.46,-157.56 176.2,-151.12"/>
</a>
</g>
</g>
<!-- Node7 -->
<g id="Node000007" class="node">
<title>Node7</title>
<g id="a_Node000007"><a xlink:title=" ">
<polygon fill="#e0e0e0" stroke="#999999" points="199.3,-20 159.3,-20 159.3,0 199.3,0 199.3,-20"/>
<text text-anchor="middle" x="179.3" y="-6.5" font-family="Helvetica,sans-Serif" font-size="10.00">string</text>
</a>
</g>
</g>
<!-- Node1&#45;&gt;Node7 -->
<g id="edge30_Node000001_Node000007" class="edge">
<title>Node1&#45;&gt;Node7</title>
<g id="a_edge30_Node000001_Node000007"><a xlink:title=" ">
<path fill="none" stroke="#63b8ff" d="M670.21,-258.59C501.6,-246.15 50.51,-208.21 10.3,-156 -36.1,-95.76 88.56,-42.49 148.82,-21.04"/>
<polygon fill="#63b8ff" stroke="#63b8ff" points="149.63,-24.12 157.92,-17.53 147.33,-17.51 149.63,-24.12"/>
</a>
</g>
</g>
<!-- Node8 -->
<g id="Node000008" class="node">
<title>Node8</title>
<g id="a_Node000008"><a xlink:title=" ">
<polygon fill="#e0e0e0" stroke="#999999" points="1008.05,-82 966.55,-82 966.55,-62 1008.05,-62 1008.05,-82"/>
<text text-anchor="middle" x="987.3" y="-68.5" font-family="Helvetica,sans-Serif" font-size="10.00">vector</text>
</a>
</g>
</g>
<!-- Node1&#45;&gt;Node8 -->
<g id="edge31_Node000001_Node000008" class="edge">
<title>Node1&#45;&gt;Node8</title>
<g id="a_edge31_Node000001_Node000008"><a xlink:title=" ">
<path fill="none" stroke="#63b8ff" d="M753.65,-247.77C801,-212.36 918.13,-124.74 966.2,-88.78"/>
<polygon fill="#63b8ff" stroke="#63b8ff" points="967.94,-91.1 973.85,-82.31 963.75,-85.5 967.94,-91.1"/>
</a>
</g>
</g>
<!-- Node10 -->
<g id="Node000010" class="node">
<title>Node10</title>
<g id="a_Node000010"><a xlink:href="FMTutility_8hpp.html" target="_top" xlink:title=" ">
<polygon fill="white" stroke="#666666" points="1075.05,-20 997.55,-20 997.55,0 1075.05,0 1075.05,-20"/>
<text text-anchor="middle" x="1036.3" y="-6.5" font-family="Helvetica,sans-Serif" font-size="10.00">FMTutility.hpp</text>
</a>
</g>
</g>
<!-- Node1&#45;&gt;Node10 -->
<g id="edge27_Node000001_Node000010" class="edge">
<title>Node1&#45;&gt;Node10</title>
<g id="a_edge27_Node000001_Node000010"><a xlink:title=" ">
<path fill="none" stroke="#63b8ff" d="M796.21,-263.41C887.87,-262.51 1051.24,-254.76 1088.3,-212 1133.7,-159.6 1117.12,-119.06 1088.3,-56 1082.86,-44.11 1072.57,-34.16 1062.56,-26.67"/>
<polygon fill="#63b8ff" stroke="#63b8ff" points="1064.82,-23.28 1054.6,-20.49 1060.85,-29.05 1064.82,-23.28"/>
</a>
</g>
</g>
<!-- Node20 -->
<g id="Node000020" class="node">
<title>Node20</title>
<g id="a_Node000020"><a xlink:title=" ">
<polygon fill="#e0e0e0" stroke="#999999" points="418.92,-20 367.67,-20 367.67,0 418.92,0 418.92,-20"/>
<text text-anchor="middle" x="393.3" y="-6.5" font-family="Helvetica,sans-Serif" font-size="10.00">memory</text>
</a>
</g>
</g>
<!-- Node1&#45;&gt;Node20 -->
<g id="edge33_Node000001_Node000020" class="edge">
<title>Node1&#45;&gt;Node20</title>
<g id="a_edge33_Node000001_Node000020"><a xlink:title=" ">
<path fill="none" stroke="#63b8ff" d="M789.79,-247.58C893.78,-216.66 1097.82,-142.54 1017.3,-56 977.21,-12.92 557.84,-10.53 430.05,-10.81"/>
<polygon fill="#63b8ff" stroke="#63b8ff" points="430.28,-7.31 420.29,-10.84 430.3,-14.31 430.28,-7.31"/>
</a>
</g>
</g>
<!-- Node23 -->
<g id="Node000023" class="node">
<title>Node23</title>
<g id="a_Node000023"><a xlink:title=" ">
<polygon fill="#e0e0e0" stroke="#999999" points="1179.92,-212 1140.67,-212 1140.67,-192 1179.92,-192 1179.92,-212"/>
<text text-anchor="middle" x="1160.3" y="-198.5" font-family="Helvetica,sans-Serif" font-size="10.00">utility</text>
</a>
</g>
</g>
<!-- Node1&#45;&gt;Node23 -->
<g id="edge32_Node000001_Node000023" class="edge">
<title>Node1&#45;&gt;Node23</title>
<g id="a_edge32_Node000001_Node000023"><a xlink:title=" ">
<path fill="none" stroke="#63b8ff" d="M796.32,-257.36C874.28,-249.81 1010.85,-234.67 1126.3,-212 1127.44,-211.78 1128.59,-211.54 1129.76,-211.28"/>
<polygon fill="#63b8ff" stroke="#63b8ff" points="1130.35,-214.5 1139.26,-208.77 1128.72,-207.69 1130.35,-214.5"/>
</a>
</g>
</g>
<!-- Node2&#45;&gt;Node3 -->
<g id="edge2_Node000002_Node000003" class="edge">
<title>Node2&#45;&gt;Node3</title>
<g id="a_edge2_Node000002_Node000003"><a xlink:title=" ">
<path fill="none" stroke="#63b8ff" d="M438.17,-198.06C370.23,-192.73 230.49,-179.77 114.3,-156 110.43,-155.21 106.44,-154.28 102.46,-153.27"/>
<polygon fill="#63b8ff" stroke="#63b8ff" points="103.63,-149.69 93.07,-150.46 101.81,-156.45 103.63,-149.69"/>
</a>
</g>
</g>
<!-- Node2&#45;&gt;Node4 -->
<g id="edge3_Node000002_Node000004" class="edge">
<title>Node2&#45;&gt;Node4</title>
<g id="a_edge3_Node000002_Node000004"><a xlink:title=" ">
<path fill="none" stroke="#63b8ff" d="M438.56,-198.66C379.92,-194.45 268.84,-183.35 178.3,-156 176.79,-155.55 175.27,-155.03 173.74,-154.47"/>
<polygon fill="#63b8ff" stroke="#63b8ff" points="175.45,-150.98 164.88,-150.35 172.75,-157.44 175.45,-150.98"/>
</a>
</g>
</g>
<!-- Node5 -->
<g id="Node000005" class="node">
<title>Node5</title>
<g id="a_Node000005"><a xlink:title=" ">
<polygon fill="#e0e0e0" stroke="#999999" points="271.05,-20 217.55,-20 217.55,0 271.05,0 271.05,-20"/>
<text text-anchor="middle" x="244.3" y="-6.5" font-family="Helvetica,sans-Serif" font-size="10.00">iostream</text>
</a>
</g>
</g>
<!-- Node2&#45;&gt;Node5 -->
<g id="edge4_Node000002_Node000005" class="edge">
<title>Node2&#45;&gt;Node5</title>
<g id="a_edge4_Node000002_Node000005"><a xlink:title=" ">
<path fill="none" stroke="#63b8ff" d="M479.29,-191.55C478.74,-175.16 475.1,-141.56 455.3,-124 389.37,-65.52 323.31,-149.62 260.3,-88 245.38,-73.41 242.57,-48.8 242.73,-31.33"/>
<polygon fill="#63b8ff" stroke="#63b8ff" points="246.27,-31.5 243.22,-21.35 239.28,-31.19 246.27,-31.5"/>
</a>
</g>
</g>
<!-- Node6 -->
<g id="Node000006" class="node">
<title>Node6</title>
<g id="a_Node000006"><a xlink:title=" ">
<polygon fill="#e0e0e0" stroke="#999999" points="653.42,-150 605.17,-150 605.17,-130 653.42,-130 653.42,-150"/>
<text text-anchor="middle" x="629.3" y="-136.5" font-family="Helvetica,sans-Serif" font-size="10.00">fstream</text>
</a>
</g>
</g>
<!-- Node2&#45;&gt;Node6 -->
<g id="edge5_Node000002_Node000006" class="edge">
<title>Node2&#45;&gt;Node6</title>
<g id="a_edge5_Node000002_Node000006"><a xlink:title=" ">
<path fill="none" stroke="#63b8ff" d="M505.03,-191.6C528.86,-182.79 565.19,-169.04 596.3,-156 597.21,-155.62 598.14,-155.22 599.07,-154.82"/>
<polygon fill="#63b8ff" stroke="#63b8ff" points="600.39,-157.63 608.14,-150.39 597.57,-151.22 600.39,-157.63"/>
</a>
</g>
</g>
<!-- Node2&#45;&gt;Node7 -->
<g id="edge6_Node000002_Node000007" class="edge">
<title>Node2&#45;&gt;Node7</title>
<g id="a_edge6_Node000002_Node000007"><a xlink:title=" ">
<path fill="none" stroke="#63b8ff" d="M475.21,-191.66C467.46,-175.14 448.99,-140.92 422.3,-124 353.02,-80.09 311.45,-130.49 241.3,-88 217.98,-73.88 199.73,-47.64 189.24,-29.76"/>
<polygon fill="#63b8ff" stroke="#63b8ff" points="191.91,-28.37 183.97,-21.35 185.8,-31.78 191.91,-28.37"/>
</a>
</g>
</g>
<!-- Node2&#45;&gt;Node8 -->
<g id="edge7_Node000002_Node000008" class="edge">
<title>Node2&#45;&gt;Node8</title>
<g id="a_edge7_Node000002_Node000008"><a xlink:title=" ">
<path fill="none" stroke="#63b8ff" d="M520.11,-195.32C604.13,-182.76 801.63,-148.85 957.3,-88 958.2,-87.65 959.11,-87.28 960.03,-86.89"/>
<polygon fill="#63b8ff" stroke="#63b8ff" points="961.14,-89.78 968.77,-82.43 958.22,-83.41 961.14,-89.78"/>
</a>
</g>
</g>
<!-- Node9 -->
<g id="Node000009" class="node">
<title>Node9</title>
<g id="a_Node000009"><a xlink:title=" ">
<polygon fill="#e0e0e0" stroke="#999999" points="713.42,-150 671.17,-150 671.17,-130 713.42,-130 713.42,-150"/>
<text text-anchor="middle" x="692.3" y="-136.5" font-family="Helvetica,sans-Serif" font-size="10.00">queue</text>
</a>
</g>
</g>
<!-- Node2&#45;&gt;Node9 -->
<g id="edge8_Node000002_Node000009" class="edge">
<title>Node2&#45;&gt;Node9</title>
<g id="a_edge8_Node000002_Node000009"><a xlink:title=" ">
<path fill="none" stroke="#63b8ff" d="M520.41,-193.61C558.02,-186.22 614.86,-173.45 662.3,-156 663.23,-155.66 664.17,-155.29 665.12,-154.91"/>
<polygon fill="#63b8ff" stroke="#63b8ff" points="666.46,-157.7 674.14,-150.4 663.58,-151.31 666.46,-157.7"/>
</a>
</g>
</g>
<!-- Node2&#45;&gt;Node10 -->
<g id="edge9_Node000002_Node000010" class="edge">
<title>Node2&#45;&gt;Node10</title>
<g id="a_edge9_Node000002_Node000010"><a xlink:title=" ">
<path fill="none" stroke="#63b8ff" d="M520.15,-198.34C633.7,-190.07 949.18,-160.85 1017.3,-88 1031.59,-72.71 1035.61,-48.43 1036.52,-31.22"/>
<polygon fill="#63b8ff" stroke="#63b8ff" points="1040.03,-31.48 1036.73,-21.41 1033.03,-31.34 1040.03,-31.48"/>
</a>
</g>
</g>
<!-- Node11 -->
<g id="Node000011" class="node">
<title>Node11</title>
<g id="a_Node000011"><a xlink:title=" ">
<polygon fill="#e0e0e0" stroke="#999999" points="225.17,-150 187.42,-150 187.42,-130 225.17,-130 225.17,-150"/>
<text text-anchor="middle" x="206.3" y="-136.5" font-family="Helvetica,sans-Serif" font-size="10.00">array</text>
</a>
</g>
</g>
<!-- Node2&#45;&gt;Node11 -->
<g id="edge10_Node000002_Node000011" class="edge">
<title>Node2&#45;&gt;Node11</title>
<g id="a_edge10_Node000002_Node000011"><a xlink:title=" ">
<path fill="none" stroke="#63b8ff" d="M438.42,-197.4C388.96,-192.16 303.69,-180.29 234.3,-156 233.39,-155.68 232.47,-155.34 231.55,-154.97"/>
<polygon fill="#63b8ff" stroke="#63b8ff" points="233.44,-151.52 222.9,-150.45 230.47,-157.86 233.44,-151.52"/>
</a>
</g>
</g>
<!-- Node12 -->
<g id="Node000012" class="node">
<title>Node12</title>
<g id="a_Node000012"><a xlink:title=" ">
<polygon fill="#e0e0e0" stroke="#999999" points="283.3,-150 243.3,-150 243.3,-130 283.3,-130 283.3,-150"/>
<text text-anchor="middle" x="263.3" y="-136.5" font-family="Helvetica,sans-Serif" font-size="10.00">ctime</text>
</a>
</g>
</g>
<!-- Node2&#45;&gt;Node12 -->
<g id="edge11_Node000002_Node000012" class="edge">
<title>Node2&#45;&gt;Node12</title>
<g id="a_edge11_Node000002_Node000012"><a xlink:title=" ">
<path fill="none" stroke="#63b8ff" d="M438.33,-194.09C399.87,-186.92 341.11,-174.19 292.3,-156 291.39,-155.66 290.48,-155.3 289.56,-154.93"/>
<polygon fill="#63b8ff" stroke="#63b8ff" points="291.4,-151.46 280.85,-150.43 288.46,-157.81 291.4,-151.46"/>
</a>
</g>
</g>
<!-- Node13 -->
<g id="Node000013" class="node">
<title>Node13</title>
<g id="a_Node000013"><a xlink:title=" ">
<polygon fill="#e0e0e0" stroke="#999999" points="412.92,-156 301.67,-156 301.67,-124 412.92,-124 412.92,-156"/>
<text text-anchor="start" x="309.67" y="-142.5" font-family="Helvetica,sans-Serif" font-size="10.00">boost/thread/recursive</text>
<text text-anchor="middle" x="357.3" y="-130.5" font-family="Helvetica,sans-Serif" font-size="10.00">_mutex.hpp</text>
</a>
</g>
</g>
<!-- Node2&#45;&gt;Node13 -->
<g id="edge12_Node000002_Node000013" class="edge">
<title>Node2&#45;&gt;Node13</title>
<g id="a_edge12_Node000002_Node000013"><a xlink:title=" ">
<path fill="none" stroke="#63b8ff" d="M460.23,-191.62C443.69,-183.49 419.16,-171.43 398.2,-161.12"/>
<polygon fill="#63b8ff" stroke="#63b8ff" points="400.08,-157.65 389.56,-156.37 396.99,-163.93 400.08,-157.65"/>
</a>
</g>
</g>
<!-- Node14 -->
<g id="Node000014" class="node">
<title>Node14</title>
<g id="a_Node000014"><a xlink:href="FMTobject_8hpp.html" target="_top" xlink:title=" ">
<polygon fill="white" stroke="#666666" points="587.55,-150 507.05,-150 507.05,-130 587.55,-130 587.55,-150"/>
<text text-anchor="middle" x="547.3" y="-136.5" font-family="Helvetica,sans-Serif" font-size="10.00">FMTobject.hpp</text>
</a>
</g>
</g>
<!-- Node2&#45;&gt;Node14 -->
<g id="edge13_Node000002_Node000014" class="edge">
<title>Node2&#45;&gt;Node14</title>
<g id="a_edge13_Node000002_Node000014"><a xlink:title=" ">
<path fill="none" stroke="#63b8ff" d="M489.92,-191.62C500.36,-182.41 516.5,-168.17 529.01,-157.14"/>
<polygon fill="#63b8ff" stroke="#63b8ff" points="530.79,-160.35 535.97,-151.11 526.16,-155.1 530.79,-160.35"/>
</a>
</g>
</g>
<!-- Node14&#45;&gt;Node8 -->
<g id="edge25_Node000014_Node000008" class="edge">
<title>Node14&#45;&gt;Node8</title>
<g id="a_edge25_Node000014_Node000008"><a xlink:title=" ">
<path fill="none" stroke="#63b8ff" d="M574.78,-129.54C581.73,-127.44 589.23,-125.42 596.3,-124 754.38,-92.25 802.4,-132.8 957.3,-88 958.62,-87.62 959.95,-87.18 961.28,-86.7"/>
<polygon fill="#63b8ff" stroke="#63b8ff" points="962.45,-89.57 970.23,-82.37 959.66,-83.15 962.45,-89.57"/>
</a>
</g>
</g>
<!-- Node15 -->
<g id="Node000015" class="node">
<title>Node15</title>
<g id="a_Node000015"><a xlink:title=" ">
<polygon fill="#e0e0e0" stroke="#999999" points="722.67,-88 627.92,-88 627.92,-56 722.67,-56 722.67,-88"/>
<text text-anchor="start" x="635.92" y="-74.5" font-family="Helvetica,sans-Serif" font-size="10.00">boost/serialization</text>
<text text-anchor="middle" x="675.3" y="-62.5" font-family="Helvetica,sans-Serif" font-size="10.00">/shared_ptr.hpp</text>
</a>
</g>
</g>
<!-- Node14&#45;&gt;Node15 -->
<g id="edge14_Node000014_Node000015" class="edge">
<title>Node14&#45;&gt;Node15</title>
<g id="a_edge14_Node000014_Node000015"><a xlink:title=" ">
<path fill="none" stroke="#63b8ff" d="M565.64,-129.54C583.9,-120.12 612.53,-105.37 635.95,-93.29"/>
<polygon fill="#63b8ff" stroke="#63b8ff" points="637.34,-95.99 644.62,-88.3 634.13,-89.77 637.34,-95.99"/>
</a>
</g>
</g>
<!-- Node16 -->
<g id="Node000016" class="node">
<title>Node16</title>
<g id="a_Node000016"><a xlink:title=" ">
<polygon fill="#e0e0e0" stroke="#999999" points="835.67,-88 740.92,-88 740.92,-56 835.67,-56 835.67,-88"/>
<text text-anchor="start" x="748.92" y="-74.5" font-family="Helvetica,sans-Serif" font-size="10.00">boost/serialization</text>
<text text-anchor="middle" x="788.3" y="-62.5" font-family="Helvetica,sans-Serif" font-size="10.00">/nvp.hpp</text>
</a>
</g>
</g>
<!-- Node14&#45;&gt;Node16 -->
<g id="edge15_Node000014_Node000016" class="edge">
<title>Node14&#45;&gt;Node16</title>
<g id="a_edge15_Node000014_Node000016"><a xlink:title=" ">
<path fill="none" stroke="#63b8ff" d="M577.57,-129.54C583.75,-127.66 590.22,-125.74 596.3,-124 609.33,-120.28 678.73,-101.9 730.37,-88.27"/>
<polygon fill="#63b8ff" stroke="#63b8ff" points="730.99,-91.46 739.77,-85.53 729.21,-84.69 730.99,-91.46"/>
</a>
</g>
</g>
<!-- Node17 -->
<g id="Node000017" class="node">
<title>Node17</title>
<g id="a_Node000017"><a xlink:title=" ">
<polygon fill="#e0e0e0" stroke="#999999" points="948.67,-88 853.92,-88 853.92,-56 948.67,-56 948.67,-88"/>
<text text-anchor="start" x="861.92" y="-74.5" font-family="Helvetica,sans-Serif" font-size="10.00">boost/serialization</text>
<text text-anchor="middle" x="901.3" y="-62.5" font-family="Helvetica,sans-Serif" font-size="10.00">/export.hpp</text>
</a>
</g>
</g>
<!-- Node14&#45;&gt;Node17 -->
<g id="edge16_Node000014_Node000017" class="edge">
<title>Node14&#45;&gt;Node17</title>
<g id="a_edge16_Node000014_Node000017"><a xlink:title=" ">
<path fill="none" stroke="#63b8ff" d="M575.6,-129.53C582.33,-127.5 589.53,-125.52 596.3,-124 701.69,-100.37 733.26,-109.6 842.99,-88.1"/>
<polygon fill="#63b8ff" stroke="#63b8ff" points="843.38,-91.39 852.5,-86 842,-84.53 843.38,-91.39"/>
</a>
</g>
</g>
<!-- Node18 -->
<g id="Node000018" class="node">
<title>Node18</title>
<g id="a_Node000018"><a xlink:href="FMTexception_8hpp.html" target="_top" xlink:title=" ">
<polygon fill="white" stroke="#666666" points="365.42,-82 269.17,-82 269.17,-62 365.42,-62 365.42,-82"/>
<text text-anchor="middle" x="317.3" y="-68.5" font-family="Helvetica,sans-Serif" font-size="10.00">FMTexception.hpp</text>
</a>
</g>
</g>
<!-- Node14&#45;&gt;Node18 -->
<g id="edge17_Node000014_Node000018" class="edge">
<title>Node14&#45;&gt;Node18</title>
<g id="a_edge17_Node000014_Node000018"><a xlink:title=" ">
<path fill="none" stroke="#63b8ff" d="M514.34,-129.54C473.95,-117.95 405.38,-98.28 360.72,-85.46"/>
<polygon fill="#63b8ff" stroke="#63b8ff" points="361.77,-81.83 351.19,-82.44 359.84,-88.56 361.77,-81.83"/>
</a>
</g>
</g>
<!-- Node14&#45;&gt;Node20 -->
<g id="edge23_Node000014_Node000020" class="edge">
<title>Node14&#45;&gt;Node20</title>
<g id="a_edge23_Node000014_Node000020"><a xlink:title=" ">
<path fill="none" stroke="#63b8ff" d="M518.13,-129.59C480.68,-117.26 419.61,-96.25 412.3,-88 398.47,-72.42 394.35,-48.36 393.29,-31.29"/>
<polygon fill="#63b8ff" stroke="#63b8ff" points="396.76,-31.21 392.97,-21.31 389.77,-31.41 396.76,-31.21"/>
</a>
</g>
</g>
<!-- Node21 -->
<g id="Node000021" class="node">
<title>Node21</title>
<g id="a_Node000021"><a xlink:title=" ">
<polygon fill="#e0e0e0" stroke="#999999" points="466.92,-82 421.67,-82 421.67,-62 466.92,-62 466.92,-82"/>
<text text-anchor="middle" x="444.3" y="-68.5" font-family="Helvetica,sans-Serif" font-size="10.00">chrono</text>
</a>
</g>
</g>
<!-- Node14&#45;&gt;Node21 -->
<g id="edge24_Node000014_Node000021" class="edge">
<title>Node14&#45;&gt;Node21</title>
<g id="a_edge24_Node000014_Node000021"><a xlink:title=" ">
<path fill="none" stroke="#63b8ff" d="M532.54,-129.54C515.71,-118.76 487.97,-100.98 468.08,-88.24"/>
<polygon fill="#63b8ff" stroke="#63b8ff" points="470.34,-84.89 460.03,-82.44 466.56,-90.78 470.34,-84.89"/>
</a>
</g>
</g>
<!-- Node22 -->
<g id="Node000022" class="node">
<title>Node22</title>
<g id="a_Node000022"><a xlink:title=" ">
<polygon fill="#e0e0e0" stroke="#999999" points="609.67,-88 484.92,-88 484.92,-56 609.67,-56 609.67,-88"/>
<text text-anchor="start" x="492.92" y="-74.5" font-family="Helvetica,sans-Serif" font-size="10.00">boost/dll/runtime_symbol</text>
<text text-anchor="middle" x="547.3" y="-62.5" font-family="Helvetica,sans-Serif" font-size="10.00">_info.hpp</text>
</a>
</g>
</g>
<!-- Node14&#45;&gt;Node22 -->
<g id="edge26_Node000014_Node000022" class="edge">
<title>Node14&#45;&gt;Node22</title>
<g id="a_edge26_Node000014_Node000022"><a xlink:title=" ">
<path fill="none" stroke="#63b8ff" d="M547.3,-129.54C547.3,-121.64 547.3,-109.97 547.3,-99.29"/>
<polygon fill="#63b8ff" stroke="#63b8ff" points="550.8,-99.3 547.3,-89.3 543.8,-99.3 550.8,-99.3"/>
</a>
</g>
</g>
<!-- Node18&#45;&gt;Node5 -->
<g id="edge20_Node000018_Node000005" class="edge">
<title>Node18&#45;&gt;Node5</title>
<g id="a_edge20_Node000018_Node000005"><a xlink:title=" ">
<path fill="none" stroke="#63b8ff" d="M305.89,-61.62C294.58,-52.32 277.02,-37.9 263.55,-26.82"/>
<polygon fill="#63b8ff" stroke="#63b8ff" points="266.33,-23.76 256.38,-20.11 261.89,-29.17 266.33,-23.76"/>
</a>
</g>
</g>
<!-- Node18&#45;&gt;Node7 -->
<g id="edge19_Node000018_Node000007" class="edge">
<title>Node18&#45;&gt;Node7</title>
<g id="a_edge19_Node000018_Node000007"><a xlink:title=" ">
<path fill="none" stroke="#63b8ff" d="M295.73,-61.62C272.55,-51.54 235.51,-35.44 209.45,-24.11"/>
<polygon fill="#63b8ff" stroke="#63b8ff" points="210.93,-20.5 200.36,-19.72 208.14,-26.92 210.93,-20.5"/>
</a>
</g>
</g>
<!-- Node18&#45;&gt;Node10 -->
<g id="edge22_Node000018_Node000010" class="edge">
<title>Node18&#45;&gt;Node10</title>
<g id="a_edge22_Node000018_Node000010"><a xlink:title=" ">
<path fill="none" stroke="#63b8ff" d="M365.52,-62.58C380.47,-60.18 397.04,-57.75 412.3,-56 625.16,-31.56 880.5,-18.07 986.45,-13.16"/>
<polygon fill="#63b8ff" stroke="#63b8ff" points="986.3,-16.63 996.13,-12.67 985.98,-9.63 986.3,-16.63"/>
</a>
</g>
</g>
<!-- Node19 -->
<g id="Node000019" class="node">
<title>Node19</title>
<g id="a_Node000019"><a xlink:title=" ">
<polygon fill="#e0e0e0" stroke="#999999" points="347.3,-20 289.3,-20 289.3,0 347.3,0 347.3,-20"/>
<text text-anchor="middle" x="318.3" y="-6.5" font-family="Helvetica,sans-Serif" font-size="10.00">exception</text>
</a>
</g>
</g>
<!-- Node18&#45;&gt;Node19 -->
<g id="edge18_Node000018_Node000019" class="edge">
<title>Node18&#45;&gt;Node19</title>
<g id="a_edge18_Node000018_Node000019"><a xlink:title=" ">
<path fill="none" stroke="#63b8ff" d="M317.45,-61.62C317.59,-53.48 317.79,-41.39 317.96,-31.07"/>
<polygon fill="#63b8ff" stroke="#63b8ff" points="321.48,-31.17 318.15,-21.11 314.48,-31.05 321.48,-31.17"/>
</a>
</g>
</g>
<!-- Node18&#45;&gt;Node20 -->
<g id="edge21_Node000018_Node000020" class="edge">
<title>Node18&#45;&gt;Node20</title>
<g id="a_edge21_Node000018_Node000020"><a xlink:title=" ">
<path fill="none" stroke="#63b8ff" d="M329.17,-61.62C340.95,-52.32 359.23,-37.9 373.26,-26.82"/>
<polygon fill="#63b8ff" stroke="#63b8ff" points="375.07,-29.06 380.75,-20.11 370.74,-23.56 375.07,-29.06"/>
</a>
</g>
</g>
</g>
</svg>

<g id="navigator" transform="translate(0 0)" fill="#404254">
  <rect fill="#f2f5e9" fill-opacity="0.5" stroke="#606060" stroke-width=".5" x="0" y="0" width="60" height="60"/>
  <use id="zoomplus" xlink:href="#zoomPlus" x="17" y="9" onmousedown="handleZoom(evt,'in')"/>
  <use id="zoomminus" xlink:href="#zoomMin" x="42" y="9" onmousedown="handleZoom(evt,'out')"/>
  <use id="reset" xlink:href="#resetDef" x="30" y="36" onmousedown="handleReset()"/>
   <use id="arrowup" xlink:href="#arrowUp" x="0" y="0" onmousedown="handlePan(0,-1)"/>
  <use id="arrowright" xlink:href="#arrowRight" x="0" y="0" onmousedown="handlePan(1,0)"/>
  <use id="arrowdown" xlink:href="#arrowDown" x="0" y="0" onmousedown="handlePan(0,1)"/>
  <use id="arrowleft" xlink:href="#arrowLeft" x="0" y="0" onmousedown="handlePan(-1,0)"/>
</g>
<svg viewBox="0 0 15 15" width="100%" height="30px" preserveAspectRatio="xMaxYMin meet">
 <g id="arrow_out" transform="scale(0.3 0.3)">
  <a xlink:href="FMTyieldparser_8hpp__incl_org.svg" target="_base">
   <rect id="button" ry="5" rx="5" y="6" x="6" height="38" width="38"
        fill="#f2f5e9" fill-opacity="0.5" stroke="#606060" stroke-width="1.0"/>
   <path id="arrow"
     d="M 11.500037,31.436501 C 11.940474,20.09759 22.043105,11.32322 32.158766,21.979434 L 37.068811,17.246167 C 37.068811,17.246167 37.088388,32 37.088388,32 L 22.160133,31.978069 C 22.160133,31.978069 26.997745,27.140456 26.997745,27.140456 C 18.528582,18.264221 13.291696,25.230495 11.500037,31.436501 z"
     style="fill:#404040;"/>
  </a>
 </g>
</svg>

<style type='text/css'>
<![CDATA[
[data-mouse-over-selected='false'] { opacity: 0.7; }
[data-mouse-over-selected='true']  { opacity: 1.0; }
]]>
</style>
<script type="application/ecmascript"><![CDATA[
document.addEventListener('DOMContentLoaded', (event) => {
  highlightEdges();
  highlightAdjacentNodes();
});
]]></script>
</svg>
