<?xml version="1.0" encoding="UTF-8" standalone="no"?>
<!DOCTYPE svg PUBLIC "-//W3C//DTD SVG 1.1//EN"
 "http://www.w3.org/Graphics/SVG/1.1/DTD/svg11.dtd">
<!-- Generated by graphviz version 10.0.1 (20240210.2158)
 -->
<!-- Title: Graphical Class Hierarchy Pages: 1 -->
<svg width="352pt" height="138pt"
 viewBox="0.00 0.00 352.00 138.00" xmlns="http://www.w3.org/2000/svg" xmlns:xlink="http://www.w3.org/1999/xlink">
<g id="graph0" class="graph" transform="scale(1 1) rotate(0) translate(4 134)">
<title>Graphical Class Hierarchy</title>
<!-- Node0 -->
<g id="node1" class="node">
<title>Node0</title>
<g id="a_node1"><a xlink:title=" ">
<polygon fill="#e0e0e0" stroke="#999999" points="89.5,-75 0,-75 0,-55 89.5,-55 89.5,-75"/>
<text text-anchor="middle" x="44.75" y="-61.5" font-family="Helvetica,sans-Serif" font-size="10.00">boost::mpl::true_</text>
</a>
</g>
</g>
<!-- Node1 -->
<g id="node2" class="node">
<title>Node1</title>
<g id="a_node2"><a xlink:href="structboost_1_1serialization_1_1guid__defined_3_01Graph_1_1FMTgraph_3_01Graph_1_1FMTbasevertexprdd14c37bc0f9d034e731335d05f7ceb4.html" target="_top" xlink:title=" ">
<polygon fill="white" stroke="#666666" points="344,-130 125.5,-130 125.5,-74 344,-74 344,-130"/>
<text text-anchor="start" x="133.5" y="-116.5" font-family="Helvetica,sans-Serif" font-size="10.00">boost::serialization</text>
<text text-anchor="start" x="133.5" y="-104.5" font-family="Helvetica,sans-Serif" font-size="10.00">::guid_defined&lt; Graph</text>
<text text-anchor="start" x="133.5" y="-92.5" font-family="Helvetica,sans-Serif" font-size="10.00">::FMTgraph&lt; Graph::FMTbasevertexproperties,</text>
<text text-anchor="middle" x="234.75" y="-80.5" font-family="Helvetica,sans-Serif" font-size="10.00"> Graph::FMTbaseedgeproperties &gt; &gt;</text>
</a>
</g>
</g>
<!-- Node0&#45;&gt;Node1 -->
<g id="edge1" class="edge">
<title>Node0&#45;&gt;Node1</title>
<path fill="none" stroke="#63b8ff" d="M100.88,-75.85C108.66,-77.38 116.87,-79 125.24,-80.64"/>
<polygon fill="#63b8ff" stroke="#63b8ff" points="101.8,-72.46 91.31,-73.97 100.45,-79.33 101.8,-72.46"/>
</g>
<!-- Node2 -->
<g id="node3" class="node">
<title>Node2</title>
<g id="a_node3"><a xlink:href="structboost_1_1serialization_1_1guid__defined_3_01Graph_1_1FMTgraph_3_01Graph_1_1FMTvertexproper328e817819bf23326111401f0fa3ec45.html" target="_top" xlink:title=" ">
<polygon fill="white" stroke="#666666" points="333.5,-56 136,-56 136,0 333.5,0 333.5,-56"/>
<text text-anchor="start" x="144" y="-42.5" font-family="Helvetica,sans-Serif" font-size="10.00">boost::serialization</text>
<text text-anchor="start" x="144" y="-30.5" font-family="Helvetica,sans-Serif" font-size="10.00">::guid_defined&lt; Graph</text>
<text text-anchor="start" x="144" y="-18.5" font-family="Helvetica,sans-Serif" font-size="10.00">::FMTgraph&lt; Graph::FMTvertexproperties,</text>
<text text-anchor="middle" x="234.75" y="-6.5" font-family="Helvetica,sans-Serif" font-size="10.00"> Graph::FMTedgeproperties &gt; &gt;</text>
</a>
</g>
</g>
<!-- Node0&#45;&gt;Node2 -->
<g id="edge2" class="edge">
<title>Node0&#45;&gt;Node2</title>
<path fill="none" stroke="#63b8ff" d="M100.95,-54.14C111.95,-51.97 123.81,-49.64 135.76,-47.29"/>
<polygon fill="#63b8ff" stroke="#63b8ff" points="100.45,-50.67 91.31,-56.03 101.8,-57.54 100.45,-50.67"/>
</g>
</g>
</svg>
