<?xml version="1.0" encoding="UTF-8" standalone="no"?>
<!DOCTYPE svg PUBLIC "-//W3C//DTD SVG 1.1//EN"
 "http://www.w3.org/Graphics/SVG/1.1/DTD/svg11.dtd">
<!-- Generated by graphviz version 10.0.1 (20240210.2158)
 -->
<!-- Title: Graphical Class Hierarchy Pages: 1 -->
<svg width="387pt" height="66pt"
 viewBox="0.00 0.00 386.50 66.00" xmlns="http://www.w3.org/2000/svg" xmlns:xlink="http://www.w3.org/1999/xlink">
<g id="graph0" class="graph" transform="scale(1 1) rotate(0) translate(4 62)">
<title>Graphical Class Hierarchy</title>
<!-- Node0 -->
<g id="node1" class="node">
<title>Node0</title>
<g id="a_node1"><a xlink:href="classHeuristics_1_1FMToperatingarea.html" target="_top" xlink:title=" ">
<polygon fill="white" stroke="#666666" points="143.5,-39 0,-39 0,-19 143.5,-19 143.5,-39"/>
<text text-anchor="middle" x="71.75" y="-25.5" font-family="Helvetica,sans-Serif" font-size="10.00">Heuristics::FMToperatingarea</text>
</a>
</g>
</g>
<!-- Node1 -->
<g id="node2" class="node">
<title>Node1</title>
<g id="a_node2"><a xlink:href="classHeuristics_1_1FMToperatingareaclusterbinary.html" target="_top" xlink:title=" ">
<polygon fill="white" stroke="#666666" points="378.5,-58 179.5,-58 179.5,-38 378.5,-38 378.5,-58"/>
<text text-anchor="middle" x="279" y="-44.5" font-family="Helvetica,sans-Serif" font-size="10.00">Heuristics::FMToperatingareaclusterbinary</text>
</a>
</g>
</g>
<!-- Node0&#45;&gt;Node1 -->
<g id="edge1" class="edge">
<title>Node0&#45;&gt;Node1</title>
<path fill="none" stroke="#63b8ff" d="M155.29,-36.64C163.12,-37.37 171.11,-38.11 179.07,-38.84"/>
<polygon fill="#63b8ff" stroke="#63b8ff" points="155.75,-33.17 145.47,-35.73 155.1,-40.14 155.75,-33.17"/>
</g>
<!-- Node2 -->
<g id="node3" class="node">
<title>Node2</title>
<g id="a_node3"><a xlink:href="classHeuristics_1_1FMToperatingareascheme.html" target="_top" xlink:title=" ">
<polygon fill="white" stroke="#666666" points="368,-20 190,-20 190,0 368,0 368,-20"/>
<text text-anchor="middle" x="279" y="-6.5" font-family="Helvetica,sans-Serif" font-size="10.00">Heuristics::FMToperatingareascheme</text>
</a>
</g>
</g>
<!-- Node0&#45;&gt;Node2 -->
<g id="edge2" class="edge">
<title>Node0&#45;&gt;Node2</title>
<path fill="none" stroke="#63b8ff" d="M155.15,-21.37C166.47,-20.32 178.13,-19.24 189.55,-18.19"/>
<polygon fill="#63b8ff" stroke="#63b8ff" points="155.1,-17.86 145.47,-22.27 155.75,-24.83 155.1,-17.86"/>
</g>
</g>
</svg>
