<?xml version="1.0" encoding="UTF-8" standalone="no"?>
<!DOCTYPE svg PUBLIC "-//W3C//DTD SVG 1.1//EN"
 "http://www.w3.org/Graphics/SVG/1.1/DTD/svg11.dtd">
<!-- Generated by graphviz version 8.1.0 (20230707.0739)
 -->
<!-- Title: C:/Temp/out/FMT/Include/Rdefinitions.hpp Pages: 1 -->
<svg width="1286pt" height="108pt"
 viewBox="0.00 0.00 1285.50 108.00" xmlns="http://www.w3.org/2000/svg" xmlns:xlink="http://www.w3.org/1999/xlink">
<g id="graph0" class="graph" transform="scale(1 1) rotate(0) translate(4 104)">
<title>C:/Temp/out/FMT/Include/Rdefinitions.hpp</title>
<!-- Node1 -->
<g id="Node000001" class="node">
<title>Node1</title>
<g id="a_Node000001"><a xlink:title=" ">
<polygon fill="#999999" stroke="#666666" points="701.5,-100 576,-100 576,-68 701.5,-68 701.5,-100"/>
<text text-anchor="start" x="584" y="-86.5" font-family="Helvetica,sans-Serif" font-size="10.00">C:/Temp/out/FMT/Include</text>
<text text-anchor="middle" x="638.75" y="-74.5" font-family="Helvetica,sans-Serif" font-size="10.00">/Rdefinitions.hpp</text>
</a>
</g>
</g>
<!-- Node2 -->
<g id="Node000002" class="node">
<title>Node2</title>
<g id="a_Node000002"><a xlink:href="PYexportGraph_8hpp.html" target="_top" xlink:title=" ">
<polygon fill="white" stroke="#666666" points="125.5,-32 0,-32 0,0 125.5,0 125.5,-32"/>
<text text-anchor="start" x="8" y="-18.5" font-family="Helvetica,sans-Serif" font-size="10.00">C:/Temp/out/FMT/Include</text>
<text text-anchor="middle" x="62.75" y="-6.5" font-family="Helvetica,sans-Serif" font-size="10.00">/PYexportGraph.hpp</text>
</a>
</g>
</g>
<!-- Node1&#45;&gt;Node2 -->
<g id="edge1_Node000001_Node000002" class="edge">
<title>Node1&#45;&gt;Node2</title>
<g id="a_edge1_Node000001_Node000002"><a xlink:title=" ">
<path fill="none" stroke="#63b8ff" d="M564.89,-77.96C466.4,-70.68 286.81,-55.47 134.75,-32 131.85,-31.55 128.89,-31.06 125.9,-30.55"/>
<polygon fill="#63b8ff" stroke="#63b8ff" points="564.39,-81.5 574.62,-78.74 564.91,-74.52 564.39,-81.5"/>
</a>
</g>
</g>
<!-- Node3 -->
<g id="Node000003" class="node">
<title>Node3</title>
<g id="a_Node000003"><a xlink:href="RexportCore_8hpp.html" target="_top" xlink:title=" ">
<polygon fill="white" stroke="#666666" points="269.5,-32 144,-32 144,0 269.5,0 269.5,-32"/>
<text text-anchor="start" x="152" y="-18.5" font-family="Helvetica,sans-Serif" font-size="10.00">C:/Temp/out/FMT/Include</text>
<text text-anchor="middle" x="206.75" y="-6.5" font-family="Helvetica,sans-Serif" font-size="10.00">/RexportCore.hpp</text>
</a>
</g>
</g>
<!-- Node1&#45;&gt;Node3 -->
<g id="edge2_Node000001_Node000003" class="edge">
<title>Node1&#45;&gt;Node3</title>
<g id="a_edge2_Node000001_Node000003"><a xlink:title=" ">
<path fill="none" stroke="#63b8ff" d="M564.91,-73.96C491.98,-64.69 377.37,-49.24 278.75,-32 275.86,-31.49 272.9,-30.96 269.92,-30.4"/>
<polygon fill="#63b8ff" stroke="#63b8ff" points="564.44,-77.55 574.8,-75.34 565.32,-70.61 564.44,-77.55"/>
</a>
</g>
</g>
<!-- Node4 -->
<g id="Node000004" class="node">
<title>Node4</title>
<g id="a_Node000004"><a xlink:href="RexportExceptions_8hpp.html" target="_top" xlink:title=" ">
<polygon fill="white" stroke="#666666" points="413.5,-32 288,-32 288,0 413.5,0 413.5,-32"/>
<text text-anchor="start" x="296" y="-18.5" font-family="Helvetica,sans-Serif" font-size="10.00">C:/Temp/out/FMT/Include</text>
<text text-anchor="middle" x="350.75" y="-6.5" font-family="Helvetica,sans-Serif" font-size="10.00">/RexportExceptions.hpp</text>
</a>
</g>
</g>
<!-- Node1&#45;&gt;Node4 -->
<g id="edge3_Node000001_Node000004" class="edge">
<title>Node1&#45;&gt;Node4</title>
<g id="a_edge3_Node000001_Node000004"><a xlink:title=" ">
<path fill="none" stroke="#63b8ff" d="M564.87,-66.07C518.12,-55.36 458.32,-41.65 413.81,-31.45"/>
<polygon fill="#63b8ff" stroke="#63b8ff" points="564.02,-69.69 574.55,-68.52 565.58,-62.87 564.02,-69.69"/>
</a>
</g>
</g>
<!-- Node5 -->
<g id="Node000005" class="node">
<title>Node5</title>
<g id="a_Node000005"><a xlink:href="RexportGraph_8hpp.html" target="_top" xlink:title=" ">
<polygon fill="white" stroke="#666666" points="557.5,-32 432,-32 432,0 557.5,0 557.5,-32"/>
<text text-anchor="start" x="440" y="-18.5" font-family="Helvetica,sans-Serif" font-size="10.00">C:/Temp/out/FMT/Include</text>
<text text-anchor="middle" x="494.75" y="-6.5" font-family="Helvetica,sans-Serif" font-size="10.00">/RexportGraph.hpp</text>
</a>
</g>
</g>
<!-- Node1&#45;&gt;Node5 -->
<g id="edge4_Node000001_Node000005" class="edge">
<title>Node1&#45;&gt;Node5</title>
<g id="a_edge4_Node000001_Node000005"><a xlink:title=" ">
<path fill="none" stroke="#63b8ff" d="M595.13,-63.01C573.67,-53.17 548.21,-41.5 528.3,-32.38"/>
<polygon fill="#63b8ff" stroke="#63b8ff" points="593.44,-66.54 603.99,-67.53 596.36,-60.18 593.44,-66.54"/>
</a>
</g>
</g>
<!-- Node6 -->
<g id="Node000006" class="node">
<title>Node6</title>
<g id="a_Node000006"><a xlink:href="RexportHeuristics_8hpp.html" target="_top" xlink:title=" ">
<polygon fill="white" stroke="#666666" points="701.5,-32 576,-32 576,0 701.5,0 701.5,-32"/>
<text text-anchor="start" x="584" y="-18.5" font-family="Helvetica,sans-Serif" font-size="10.00">C:/Temp/out/FMT/Include</text>
<text text-anchor="middle" x="638.75" y="-6.5" font-family="Helvetica,sans-Serif" font-size="10.00">/RexportHeuristics.hpp</text>
</a>
</g>
</g>
<!-- Node1&#45;&gt;Node6 -->
<g id="edge5_Node000001_Node000006" class="edge">
<title>Node1&#45;&gt;Node6</title>
<g id="a_edge5_Node000001_Node000006"><a xlink:title=" ">
<path fill="none" stroke="#63b8ff" d="M638.75,-56.89C638.75,-48.52 638.75,-39.54 638.75,-32.22"/>
<polygon fill="#63b8ff" stroke="#63b8ff" points="635.25,-56.69 638.75,-66.69 642.25,-56.69 635.25,-56.69"/>
</a>
</g>
</g>
<!-- Node7 -->
<g id="Node000007" class="node">
<title>Node7</title>
<g id="a_Node000007"><a xlink:href="RexportModel_8hpp.html" target="_top" xlink:title=" ">
<polygon fill="white" stroke="#666666" points="845.5,-32 720,-32 720,0 845.5,0 845.5,-32"/>
<text text-anchor="start" x="728" y="-18.5" font-family="Helvetica,sans-Serif" font-size="10.00">C:/Temp/out/FMT/Include</text>
<text text-anchor="middle" x="782.75" y="-6.5" font-family="Helvetica,sans-Serif" font-size="10.00">/RexportModel.hpp</text>
</a>
</g>
</g>
<!-- Node1&#45;&gt;Node7 -->
<g id="edge6_Node000001_Node000007" class="edge">
<title>Node1&#45;&gt;Node7</title>
<g id="a_edge6_Node000001_Node000007"><a xlink:title=" ">
<path fill="none" stroke="#63b8ff" d="M682.37,-63.01C703.83,-53.17 729.29,-41.5 749.2,-32.38"/>
<polygon fill="#63b8ff" stroke="#63b8ff" points="681.14,-60.18 673.51,-67.53 684.06,-66.54 681.14,-60.18"/>
</a>
</g>
</g>
<!-- Node8 -->
<g id="Node000008" class="node">
<title>Node8</title>
<g id="a_Node000008"><a xlink:href="RexportParser_8hpp.html" target="_top" xlink:title=" ">
<polygon fill="white" stroke="#666666" points="989.5,-32 864,-32 864,0 989.5,0 989.5,-32"/>
<text text-anchor="start" x="872" y="-18.5" font-family="Helvetica,sans-Serif" font-size="10.00">C:/Temp/out/FMT/Include</text>
<text text-anchor="middle" x="926.75" y="-6.5" font-family="Helvetica,sans-Serif" font-size="10.00">/RexportParser.hpp</text>
</a>
</g>
</g>
<!-- Node1&#45;&gt;Node8 -->
<g id="edge7_Node000001_Node000008" class="edge">
<title>Node1&#45;&gt;Node8</title>
<g id="a_edge7_Node000001_Node000008"><a xlink:title=" ">
<path fill="none" stroke="#63b8ff" d="M712.63,-66.07C759.38,-55.36 819.18,-41.65 863.69,-31.45"/>
<polygon fill="#63b8ff" stroke="#63b8ff" points="711.92,-62.87 702.95,-68.52 713.48,-69.69 711.92,-62.87"/>
</a>
</g>
</g>
<!-- Node9 -->
<g id="Node000009" class="node">
<title>Node9</title>
<g id="a_Node000009"><a xlink:href="RexportSpatial_8hpp.html" target="_top" xlink:title=" ">
<polygon fill="white" stroke="#666666" points="1133.5,-32 1008,-32 1008,0 1133.5,0 1133.5,-32"/>
<text text-anchor="start" x="1016" y="-18.5" font-family="Helvetica,sans-Serif" font-size="10.00">C:/Temp/out/FMT/Include</text>
<text text-anchor="middle" x="1070.75" y="-6.5" font-family="Helvetica,sans-Serif" font-size="10.00">/RexportSpatial.hpp</text>
</a>
</g>
</g>
<!-- Node1&#45;&gt;Node9 -->
<g id="edge8_Node000001_Node000009" class="edge">
<title>Node1&#45;&gt;Node9</title>
<g id="a_edge8_Node000001_Node000009"><a xlink:title=" ">
<path fill="none" stroke="#63b8ff" d="M712.59,-73.96C785.52,-64.69 900.13,-49.24 998.75,-32 1001.64,-31.49 1004.6,-30.96 1007.58,-30.4"/>
<polygon fill="#63b8ff" stroke="#63b8ff" points="712.18,-70.61 702.7,-75.34 713.06,-77.55 712.18,-70.61"/>
</a>
</g>
</g>
<!-- Node10 -->
<g id="Node000010" class="node">
<title>Node10</title>
<g id="a_Node000010"><a xlink:href="RexportVersion_8hpp.html" target="_top" xlink:title=" ">
<polygon fill="white" stroke="#666666" points="1277.5,-32 1152,-32 1152,0 1277.5,0 1277.5,-32"/>
<text text-anchor="start" x="1160" y="-18.5" font-family="Helvetica,sans-Serif" font-size="10.00">C:/Temp/out/FMT/Include</text>
<text text-anchor="middle" x="1214.75" y="-6.5" font-family="Helvetica,sans-Serif" font-size="10.00">/RexportVersion.hpp</text>
</a>
</g>
</g>
<!-- Node1&#45;&gt;Node10 -->
<g id="edge9_Node000001_Node000010" class="edge">
<title>Node1&#45;&gt;Node10</title>
<g id="a_edge9_Node000001_Node000010"><a xlink:title=" ">
<path fill="none" stroke="#63b8ff" d="M712.61,-77.96C811.1,-70.68 990.69,-55.47 1142.75,-32 1145.65,-31.55 1148.61,-31.06 1151.6,-30.55"/>
<polygon fill="#63b8ff" stroke="#63b8ff" points="712.59,-74.52 702.88,-78.74 713.11,-81.5 712.59,-74.52"/>
</a>
</g>
</g>
</g>
</svg>
