<?xml version="1.0" encoding="UTF-8" standalone="no"?>
<!DOCTYPE svg PUBLIC "-//W3C//DTD SVG 1.1//EN"
 "http://www.w3.org/Graphics/SVG/1.1/DTD/svg11.dtd">
<!-- Generated by graphviz version 10.0.1 (20240210.2158)
 -->
<!-- Title: D:/FMT/Include/RexportModel.hpp Pages: 1 -->
<svg width="4459pt" height="624pt"
 viewBox="0.00 0.00 4459.41 624.00" xmlns="http://www.w3.org/2000/svg" xmlns:xlink="http://www.w3.org/1999/xlink">
<g id="graph0" class="graph" transform="scale(1 1) rotate(0) translate(4 620)">
<title>D:/FMT/Include/RexportModel.hpp</title>
<!-- Node1 -->
<g id="node1" class="node">
<title>Node1</title>
<g id="a_node1"><a xlink:title=" ">
<polygon fill="#999999" stroke="#666666" points="3530.28,-616 3366.53,-616 3366.53,-596 3530.28,-596 3530.28,-616"/>
<text text-anchor="middle" x="3448.41" y="-602.5" font-family="Helvetica,sans-Serif" font-size="10.00">D:/FMT/Include/RexportModel.hpp</text>
</a>
</g>
</g>
<!-- Node2 -->
<g id="node2" class="node">
<title>Node2</title>
<g id="a_node2"><a xlink:href="FMTmodel_8hpp.html" target="_top" xlink:title=" ">
<polygon fill="white" stroke="#666666" points="2796.66,-392 2716.16,-392 2716.16,-372 2796.66,-372 2796.66,-392"/>
<text text-anchor="middle" x="2756.41" y="-378.5" font-family="Helvetica,sans-Serif" font-size="10.00">FMTmodel.hpp</text>
</a>
</g>
</g>
<!-- Node1&#45;&gt;Node2 -->
<g id="edge1" class="edge">
<title>Node1&#45;&gt;Node2</title>
<path fill="none" stroke="#63b8ff" d="M3419.11,-595.6C3309.37,-560.39 2922.39,-436.25 2796.39,-395.83"/>
<polygon fill="#63b8ff" stroke="#63b8ff" points="2797.74,-392.58 2787.15,-392.86 2795.6,-399.25 2797.74,-392.58"/>
</g>
<!-- Node6 -->
<g id="node6" class="node">
<title>Node6</title>
<g id="a_node6"><a xlink:title=" ">
<polygon fill="#e0e0e0" stroke="#999999" points="2777.41,-94 2737.41,-94 2737.41,-74 2777.41,-74 2777.41,-94"/>
<text text-anchor="middle" x="2757.41" y="-80.5" font-family="Helvetica,sans-Serif" font-size="10.00">string</text>
</a>
</g>
</g>
<!-- Node1&#45;&gt;Node6 -->
<g id="edge194" class="edge">
<title>Node1&#45;&gt;Node6</title>
<path fill="none" stroke="#63b8ff" d="M3437.48,-595.62C3418.26,-578.01 3380.41,-537.88 3380.41,-495 3380.41,-495 3380.41,-495 3380.41,-381 3380.41,-181.92 3191.06,-207.88 3005.41,-136 2911.78,-99.75 2876.71,-134.45 2782.41,-100 2781.92,-99.82 2781.43,-99.63 2780.94,-99.44"/>
<polygon fill="#63b8ff" stroke="#63b8ff" points="2782.81,-96.46 2772.3,-95.08 2779.65,-102.71 2782.81,-96.46"/>
</g>
<!-- Node73 -->
<g id="node31" class="node">
<title>Node73</title>
<g id="a_node31"><a xlink:href="FMTsrmodel_8hpp.html" target="_top" xlink:title=" ">
<polygon fill="white" stroke="#666666" points="1722.78,-504 1634.03,-504 1634.03,-484 1722.78,-484 1722.78,-504"/>
<text text-anchor="middle" x="1678.41" y="-490.5" font-family="Helvetica,sans-Serif" font-size="10.00">FMTsrmodel.hpp</text>
</a>
</g>
</g>
<!-- Node1&#45;&gt;Node73 -->
<g id="edge101" class="edge">
<title>Node1&#45;&gt;Node73</title>
<path fill="none" stroke="#63b8ff" d="M3366.29,-599.9C3060.38,-580.89 1991.37,-514.45 1734.31,-498.47"/>
<polygon fill="#63b8ff" stroke="#63b8ff" points="1734.75,-494.99 1724.55,-497.87 1734.31,-501.98 1734.75,-494.99"/>
</g>
<!-- Node74 -->
<g id="node32" class="node">
<title>Node74</title>
<g id="a_node32"><a xlink:href="FMTlpsolver_8hpp.html" target="_top" xlink:title=" ">
<polygon fill="white" stroke="#666666" points="726.66,-224 640.16,-224 640.16,-204 726.66,-204 726.66,-224"/>
<text text-anchor="middle" x="683.41" y="-210.5" font-family="Helvetica,sans-Serif" font-size="10.00">FMTlpsolver.hpp</text>
</a>
</g>
</g>
<!-- Node1&#45;&gt;Node74 -->
<g id="edge190" class="edge">
<title>Node1&#45;&gt;Node74</title>
<path fill="none" stroke="#63b8ff" d="M3366.14,-604.35C2967.33,-601.09 1244.74,-585.61 1006.41,-560 858.64,-544.12 678.41,-643.61 678.41,-495 678.41,-495 678.41,-495 678.41,-325 678.41,-293.84 680.43,-257.76 681.91,-235.66"/>
<polygon fill="#63b8ff" stroke="#63b8ff" points="685.38,-236.14 682.59,-225.92 678.4,-235.65 685.38,-236.14"/>
</g>
<!-- Node75 -->
<g id="node33" class="node">
<title>Node75</title>
<g id="a_node33"><a xlink:href="FMTsolverinterface_8hpp.html" target="_top" xlink:title=" ">
<polygon fill="white" stroke="#666666" points="150.28,-162 34.53,-162 34.53,-142 150.28,-142 150.28,-162"/>
<text text-anchor="middle" x="92.41" y="-148.5" font-family="Helvetica,sans-Serif" font-size="10.00">FMTsolverinterface.hpp</text>
</a>
</g>
</g>
<!-- Node1&#45;&gt;Node75 -->
<g id="edge192" class="edge">
<title>Node1&#45;&gt;Node75</title>
<path fill="none" stroke="#63b8ff" d="M3366.09,-604.64C2966.56,-602.73 1226.69,-592.67 685.41,-560 546.91,-551.64 64.41,-633.75 64.41,-495 64.41,-495 64.41,-495 64.41,-269 64.41,-234.58 76.2,-195.98 84.48,-173.12"/>
<polygon fill="#63b8ff" stroke="#63b8ff" points="87.72,-174.45 87.98,-163.85 81.17,-171.97 87.72,-174.45"/>
</g>
<!-- Node106 -->
<g id="node42" class="node">
<title>Node106</title>
<g id="a_node42"><a xlink:href="FMTlpmodel_8hpp.html" target="_top" xlink:title=" ">
<polygon fill="white" stroke="#666666" points="1103.41,-560 1015.41,-560 1015.41,-540 1103.41,-540 1103.41,-560"/>
<text text-anchor="middle" x="1059.41" y="-546.5" font-family="Helvetica,sans-Serif" font-size="10.00">FMTlpmodel.hpp</text>
</a>
</g>
</g>
<!-- Node1&#45;&gt;Node106 -->
<g id="edge153" class="edge">
<title>Node1&#45;&gt;Node106</title>
<path fill="none" stroke="#63b8ff" d="M3366.17,-603.14C2988.9,-594.61 1428.75,-559.35 1114.65,-552.25"/>
<polygon fill="#63b8ff" stroke="#63b8ff" points="1115.17,-548.76 1105.09,-552.03 1115.01,-555.76 1115.17,-548.76"/>
</g>
<!-- Node107 -->
<g id="node43" class="node">
<title>Node107</title>
<g id="a_node43"><a xlink:href="FMTsemodel_8hpp.html" target="_top" xlink:title=" ">
<polygon fill="white" stroke="#666666" points="4016.91,-448 3925.91,-448 3925.91,-428 4016.91,-428 4016.91,-448"/>
<text text-anchor="middle" x="3971.41" y="-434.5" font-family="Helvetica,sans-Serif" font-size="10.00">FMTsemodel.hpp</text>
</a>
</g>
</g>
<!-- Node1&#45;&gt;Node107 -->
<g id="edge160" class="edge">
<title>Node1&#45;&gt;Node107</title>
<path fill="none" stroke="#63b8ff" d="M3530.77,-598.8C3657.51,-587.62 3892.06,-559.83 3952.41,-504 3964.69,-492.64 3969.19,-473.82 3970.76,-459.35"/>
<polygon fill="#63b8ff" stroke="#63b8ff" points="3974.24,-459.77 3971.41,-449.56 3967.26,-459.3 3974.24,-459.77"/>
</g>
<!-- Node118 -->
<g id="node45" class="node">
<title>Node118</title>
<g id="a_node45"><a xlink:href="FMTsesmodel_8hpp.html" target="_top" xlink:title=" ">
<polygon fill="white" stroke="#666666" points="3943.53,-504 3847.28,-504 3847.28,-484 3943.53,-484 3943.53,-504"/>
<text text-anchor="middle" x="3895.41" y="-490.5" font-family="Helvetica,sans-Serif" font-size="10.00">FMTsesmodel.hpp</text>
</a>
</g>
</g>
<!-- Node1&#45;&gt;Node118 -->
<g id="edge167" class="edge">
<title>Node1&#45;&gt;Node118</title>
<path fill="none" stroke="#63b8ff" d="M3486.9,-595.53C3567.94,-575.59 3756,-529.31 3845.87,-507.19"/>
<polygon fill="#63b8ff" stroke="#63b8ff" points="3846.5,-510.64 3855.37,-504.85 3844.83,-503.84 3846.5,-510.64"/>
</g>
<!-- Node119 -->
<g id="node46" class="node">
<title>Node119</title>
<g id="a_node46"><a xlink:href="FMTnssmodel_8hpp.html" target="_top" xlink:title=" ">
<polygon fill="white" stroke="#666666" points="3537.53,-560 3441.28,-560 3441.28,-540 3537.53,-540 3537.53,-560"/>
<text text-anchor="middle" x="3489.41" y="-546.5" font-family="Helvetica,sans-Serif" font-size="10.00">FMTnssmodel.hpp</text>
</a>
</g>
</g>
<!-- Node1&#45;&gt;Node119 -->
<g id="edge173" class="edge">
<title>Node1&#45;&gt;Node119</title>
<path fill="none" stroke="#63b8ff" d="M3455.55,-595.59C3461.02,-588.39 3468.73,-578.23 3475.41,-569.43"/>
<polygon fill="#63b8ff" stroke="#63b8ff" points="3478.17,-571.58 3481.43,-561.5 3472.6,-567.35 3478.17,-571.58"/>
</g>
<!-- Node121 -->
<g id="node48" class="node">
<title>Node121</title>
<g id="a_node48"><a xlink:href="FMTsamodel_8hpp.html" target="_top" xlink:title=" ">
<polygon fill="white" stroke="#666666" points="3689.91,-504 3598.91,-504 3598.91,-484 3689.91,-484 3689.91,-504"/>
<text text-anchor="middle" x="3644.41" y="-490.5" font-family="Helvetica,sans-Serif" font-size="10.00">FMTsamodel.hpp</text>
</a>
</g>
</g>
<!-- Node1&#45;&gt;Node121 -->
<g id="edge181" class="edge">
<title>Node1&#45;&gt;Node121</title>
<path fill="none" stroke="#63b8ff" d="M3471.48,-595.61C3491.66,-587.11 3521.54,-573.84 3546.41,-560 3573.6,-544.86 3603.15,-524.71 3622.62,-510.87"/>
<polygon fill="#63b8ff" stroke="#63b8ff" points="3624.49,-513.83 3630.58,-505.16 3620.41,-508.15 3624.49,-513.83"/>
</g>
<!-- Node122 -->
<g id="node49" class="node">
<title>Node122</title>
<g id="a_node49"><a xlink:href="Rdefinitions_8hpp.html" target="_top" xlink:title=" ">
<polygon fill="white" stroke="#666666" points="4084.91,-560 3999.91,-560 3999.91,-540 4084.91,-540 4084.91,-560"/>
<text text-anchor="middle" x="4042.41" y="-546.5" font-family="Helvetica,sans-Serif" font-size="10.00">Rdefinitions.hpp</text>
</a>
</g>
</g>
<!-- Node1&#45;&gt;Node122 -->
<g id="edge191" class="edge">
<title>Node1&#45;&gt;Node122</title>
<path fill="none" stroke="#63b8ff" d="M3530.48,-599.99C3635.97,-593.13 3824.72,-579.39 3985.41,-560 3986.41,-559.88 3987.42,-559.75 3988.44,-559.62"/>
<polygon fill="#63b8ff" stroke="#63b8ff" points="3988.57,-563.14 3998,-558.32 3987.62,-556.2 3988.57,-563.14"/>
</g>
<!-- Node123 -->
<g id="node50" class="node">
<title>Node123</title>
<g id="a_node50"><a xlink:title=" ">
<polygon fill="#e0e0e0" stroke="#999999" points="4149.78,-560 4103.03,-560 4103.03,-540 4149.78,-540 4149.78,-560"/>
<text text-anchor="middle" x="4126.41" y="-546.5" font-family="Helvetica,sans-Serif" font-size="10.00">Rcpp.h</text>
</a>
</g>
</g>
<!-- Node1&#45;&gt;Node123 -->
<g id="edge193" class="edge">
<title>Node1&#45;&gt;Node123</title>
<path fill="none" stroke="#63b8ff" d="M3530.63,-604.64C3651.83,-602.92 3885.52,-595.08 4091.72,-560.13"/>
<polygon fill="#63b8ff" stroke="#63b8ff" points="4092.01,-563.64 4101.27,-558.49 4090.82,-556.74 4092.01,-563.64"/>
</g>
<!-- Node3 -->
<g id="node3" class="node">
<title>Node3</title>
<g id="a_node3"><a xlink:href="FMTtheme_8hpp.html" target="_top" xlink:title=" ">
<polygon fill="#fff0f0" stroke="red" points="3200.03,-162 3118.78,-162 3118.78,-142 3200.03,-142 3200.03,-162"/>
<text text-anchor="middle" x="3159.41" y="-148.5" font-family="Helvetica,sans-Serif" font-size="10.00">FMTtheme.hpp</text>
</a>
</g>
</g>
<!-- Node2&#45;&gt;Node3 -->
<g id="edge2" class="edge">
<title>Node2&#45;&gt;Node3</title>
<path fill="none" stroke="#63b8ff" d="M2796.95,-377.27C2861.34,-369.46 2988.1,-346.24 3070.41,-280 3107.85,-249.87 3136.34,-200.01 3150.17,-172.59"/>
<polygon fill="#63b8ff" stroke="#63b8ff" points="3153.27,-174.21 3154.51,-163.69 3146.98,-171.14 3153.27,-174.21"/>
</g>
<!-- Node10 -->
<g id="node10" class="node">
<title>Node10</title>
<g id="a_node10"><a xlink:title=" ">
<polygon fill="#e0e0e0" stroke="#999999" points="3245.78,-100 3151.03,-100 3151.03,-68 3245.78,-68 3245.78,-100"/>
<text text-anchor="start" x="3159.03" y="-86.5" font-family="Helvetica,sans-Serif" font-size="10.00">boost/serialization</text>
<text text-anchor="middle" x="3198.41" y="-74.5" font-family="Helvetica,sans-Serif" font-size="10.00">/map.hpp</text>
</a>
</g>
</g>
<!-- Node2&#45;&gt;Node10 -->
<g id="edge90" class="edge">
<title>Node2&#45;&gt;Node10</title>
<path fill="none" stroke="#63b8ff" d="M2797.09,-378.46C2847.66,-374.24 2935.89,-363.34 3006.41,-336 3115.6,-293.67 3164.11,-276 3209.41,-168 3216.99,-149.92 3213.53,-127.85 3208.56,-111.02"/>
<polygon fill="#63b8ff" stroke="#63b8ff" points="3211.95,-110.13 3205.47,-101.75 3205.31,-112.34 3211.95,-110.13"/>
</g>
<!-- Node11 -->
<g id="node11" class="node">
<title>Node11</title>
<g id="a_node11"><a xlink:title=" ">
<polygon fill="#e0e0e0" stroke="#999999" points="2609.78,-32 2515.03,-32 2515.03,0 2609.78,0 2609.78,-32"/>
<text text-anchor="start" x="2523.03" y="-18.5" font-family="Helvetica,sans-Serif" font-size="10.00">boost/serialization</text>
<text text-anchor="middle" x="2562.41" y="-6.5" font-family="Helvetica,sans-Serif" font-size="10.00">/export.hpp</text>
</a>
</g>
</g>
<!-- Node2&#45;&gt;Node11 -->
<g id="edge92" class="edge">
<title>Node2&#45;&gt;Node11</title>
<path fill="none" stroke="#63b8ff" d="M2716.03,-375.13C2661.86,-364.7 2572.41,-337.43 2572.41,-271 2572.41,-271 2572.41,-271 2572.41,-213 2572.41,-152.28 2567.56,-81.11 2564.62,-43.47"/>
<polygon fill="#63b8ff" stroke="#63b8ff" points="2568.14,-43.68 2563.86,-33.99 2561.17,-44.24 2568.14,-43.68"/>
</g>
<!-- Node29 -->
<g id="node16" class="node">
<title>Node29</title>
<g id="a_node16"><a xlink:href="FMTaction_8hpp.html" target="_top" xlink:title=" ">
<polygon fill="#fff0f0" stroke="red" points="2331.66,-280 2251.16,-280 2251.16,-260 2331.66,-260 2331.66,-280"/>
<text text-anchor="middle" x="2291.41" y="-266.5" font-family="Helvetica,sans-Serif" font-size="10.00">FMTaction.hpp</text>
</a>
</g>
</g>
<!-- Node2&#45;&gt;Node29 -->
<g id="edge23" class="edge">
<title>Node2&#45;&gt;Node29</title>
<path fill="none" stroke="#63b8ff" d="M2715.73,-375.49C2664.95,-368.23 2575.62,-354.23 2500.41,-336 2439.35,-321.2 2369.98,-298.41 2328.5,-284.11"/>
<polygon fill="#63b8ff" stroke="#63b8ff" points="2329.85,-280.88 2319.26,-280.91 2327.56,-287.49 2329.85,-280.88"/>
</g>
<!-- Node30 -->
<g id="node17" class="node">
<title>Node30</title>
<g id="a_node17"><a xlink:href="FMTlist_8hpp.html" target="_top" xlink:title=" ">
<polygon fill="#fff0f0" stroke="red" points="2519.91,-224 2452.91,-224 2452.91,-204 2519.91,-204 2519.91,-224"/>
<text text-anchor="middle" x="2486.41" y="-210.5" font-family="Helvetica,sans-Serif" font-size="10.00">FMTlist.hpp</text>
</a>
</g>
</g>
<!-- Node2&#45;&gt;Node30 -->
<g id="edge82" class="edge">
<title>Node2&#45;&gt;Node30</title>
<path fill="none" stroke="#63b8ff" d="M2715.79,-380.9C2672.86,-378.85 2605.02,-369.9 2558.41,-336 2523.43,-310.57 2502.41,-262.5 2492.76,-235.23"/>
<polygon fill="#63b8ff" stroke="#63b8ff" points="2496.09,-234.13 2489.6,-225.75 2489.45,-236.35 2496.09,-234.13"/>
</g>
<!-- Node45 -->
<g id="node19" class="node">
<title>Node45</title>
<g id="a_node19"><a xlink:title=" ">
<polygon fill="#e0e0e0" stroke="#999999" points="2182.66,-168 2078.16,-168 2078.16,-136 2182.66,-136 2182.66,-168"/>
<text text-anchor="start" x="2086.16" y="-154.5" font-family="Helvetica,sans-Serif" font-size="10.00">boost/serialization</text>
<text text-anchor="middle" x="2130.41" y="-142.5" font-family="Helvetica,sans-Serif" font-size="10.00">/unordered_map.hpp</text>
</a>
</g>
</g>
<!-- Node2&#45;&gt;Node45 -->
<g id="edge91" class="edge">
<title>Node2&#45;&gt;Node45</title>
<path fill="none" stroke="#63b8ff" d="M2715.78,-377.53C2653.29,-371.72 2530.06,-358.41 2427.41,-336 2343.48,-317.68 2314.69,-326.43 2242.41,-280 2200.59,-253.14 2165.16,-206.36 2145.91,-177.7"/>
<polygon fill="#63b8ff" stroke="#63b8ff" points="2149.04,-176.08 2140.63,-169.64 2143.19,-179.92 2149.04,-176.08"/>
</g>
<!-- Node46 -->
<g id="node20" class="node">
<title>Node46</title>
<g id="a_node20"><a xlink:title=" ">
<polygon fill="#e0e0e0" stroke="#999999" points="1531.78,-100 1437.03,-100 1437.03,-68 1531.78,-68 1531.78,-100"/>
<text text-anchor="start" x="1445.03" y="-86.5" font-family="Helvetica,sans-Serif" font-size="10.00">boost/serialization</text>
<text text-anchor="middle" x="1484.41" y="-74.5" font-family="Helvetica,sans-Serif" font-size="10.00">/vector.hpp</text>
</a>
</g>
</g>
<!-- Node2&#45;&gt;Node46 -->
<g id="edge89" class="edge">
<title>Node2&#45;&gt;Node46</title>
<path fill="none" stroke="#63b8ff" d="M2715.75,-380.15C2553.33,-376.6 1955.92,-361.87 1875.41,-336 1720.91,-286.36 1567.77,-159.74 1509.27,-107.78"/>
<polygon fill="#63b8ff" stroke="#63b8ff" points="1511.93,-105.46 1502.15,-101.4 1507.26,-110.68 1511.93,-105.46"/>
</g>
<!-- Node53 -->
<g id="node21" class="node">
<title>Node53</title>
<g id="a_node21"><a xlink:href="FMTtransition_8hpp.html" target="_top" xlink:title=" ">
<polygon fill="#fff0f0" stroke="red" points="3061.41,-280 2967.41,-280 2967.41,-260 3061.41,-260 3061.41,-280"/>
<text text-anchor="middle" x="3014.41" y="-266.5" font-family="Helvetica,sans-Serif" font-size="10.00">FMTtransition.hpp</text>
</a>
</g>
</g>
<!-- Node2&#45;&gt;Node53 -->
<g id="edge42" class="edge">
<title>Node2&#45;&gt;Node53</title>
<path fill="none" stroke="#63b8ff" d="M2795.99,-371.56C2826.1,-363.75 2868.21,-351.44 2903.41,-336 2935.36,-321.98 2969.66,-300.86 2991.54,-286.53"/>
<polygon fill="#63b8ff" stroke="#63b8ff" points="2993.28,-289.57 2999.68,-281.12 2989.41,-283.74 2993.28,-289.57"/>
</g>
<!-- Node57 -->
<g id="node22" class="node">
<title>Node57</title>
<g id="a_node22"><a xlink:href="FMTyields_8hpp.html" target="_top" xlink:title=" ">
<polygon fill="#fff0f0" stroke="red" points="2872.28,-280 2792.53,-280 2792.53,-260 2872.28,-260 2872.28,-280"/>
<text text-anchor="middle" x="2832.41" y="-266.5" font-family="Helvetica,sans-Serif" font-size="10.00">FMTyields.hpp</text>
</a>
</g>
</g>
<!-- Node2&#45;&gt;Node57 -->
<g id="edge49" class="edge">
<title>Node2&#45;&gt;Node57</title>
<path fill="none" stroke="#63b8ff" d="M2758.92,-371.54C2762.75,-358.28 2770.93,-333.82 2783.41,-316 2790.86,-305.36 2801.22,-295.38 2810.5,-287.53"/>
<polygon fill="#63b8ff" stroke="#63b8ff" points="2812.51,-290.41 2818.09,-281.41 2808.11,-284.96 2812.51,-290.41"/>
</g>
<!-- Node60 -->
<g id="node23" class="node">
<title>Node60</title>
<g id="a_node23"><a xlink:href="FMTlifespans_8hpp.html" target="_top" xlink:title=" ">
<polygon fill="white" stroke="#666666" points="3712.66,-280 3620.16,-280 3620.16,-260 3712.66,-260 3712.66,-280"/>
<text text-anchor="middle" x="3666.41" y="-266.5" font-family="Helvetica,sans-Serif" font-size="10.00">FMTlifespans.hpp</text>
</a>
</g>
</g>
<!-- Node2&#45;&gt;Node60 -->
<g id="edge59" class="edge">
<title>Node2&#45;&gt;Node60</title>
<path fill="none" stroke="#63b8ff" d="M2796.96,-378.64C2885.14,-373.27 3100.83,-358.79 3280.41,-336 3397.59,-321.13 3533.61,-296.48 3608.85,-282.19"/>
<polygon fill="#63b8ff" stroke="#63b8ff" points="3609.29,-285.67 3618.46,-280.36 3607.98,-278.8 3609.29,-285.67"/>
</g>
<!-- Node61 -->
<g id="node24" class="node">
<title>Node61</title>
<g id="a_node24"><a xlink:href="FMTactualdevelopment_8hpp.html" target="_top" xlink:title=" ">
<polygon fill="#fff0f0" stroke="red" points="3853.66,-94 3719.16,-94 3719.16,-74 3853.66,-74 3853.66,-94"/>
<text text-anchor="middle" x="3786.41" y="-80.5" font-family="Helvetica,sans-Serif" font-size="10.00">FMTactualdevelopment.hpp</text>
</a>
</g>
</g>
<!-- Node2&#45;&gt;Node61 -->
<g id="edge64" class="edge">
<title>Node2&#45;&gt;Node61</title>
<path fill="none" stroke="#63b8ff" d="M2796.96,-379.06C2894,-374.17 3147.15,-360.01 3357.41,-336 3377.73,-333.68 3705.77,-293.19 3721.41,-280 3774.45,-235.24 3784.41,-145.95 3786.14,-105.61"/>
<polygon fill="#63b8ff" stroke="#63b8ff" points="3789.64,-105.76 3786.41,-95.67 3782.64,-105.57 3789.64,-105.76"/>
</g>
<!-- Node62 -->
<g id="node25" class="node">
<title>Node62</title>
<g id="a_node25"><a xlink:href="FMToutput_8hpp.html" target="_top" xlink:title=" ">
<polygon fill="#fff0f0" stroke="red" points="2720.03,-162 2638.78,-162 2638.78,-142 2720.03,-142 2720.03,-162"/>
<text text-anchor="middle" x="2679.41" y="-148.5" font-family="Helvetica,sans-Serif" font-size="10.00">FMToutput.hpp</text>
</a>
</g>
</g>
<!-- Node2&#45;&gt;Node62 -->
<g id="edge68" class="edge">
<title>Node2&#45;&gt;Node62</title>
<path fill="none" stroke="#63b8ff" d="M2754.48,-371.56C2748.85,-344.72 2731.23,-265.95 2706.41,-204 2702.07,-193.17 2696.09,-181.64 2690.86,-172.29"/>
<polygon fill="#63b8ff" stroke="#63b8ff" points="2693.99,-170.71 2685.97,-163.8 2687.93,-174.21 2693.99,-170.71"/>
</g>
<!-- Node66 -->
<g id="node26" class="node">
<title>Node66</title>
<g id="a_node26"><a xlink:href="FMTconstraint_8hpp.html" target="_top" xlink:title=" ">
<polygon fill="#fff0f0" stroke="red" points="2697.91,-224 2600.91,-224 2600.91,-204 2697.91,-204 2697.91,-224"/>
<text text-anchor="middle" x="2649.41" y="-210.5" font-family="Helvetica,sans-Serif" font-size="10.00">FMTconstraint.hpp</text>
</a>
</g>
</g>
<!-- Node2&#45;&gt;Node66 -->
<g id="edge74" class="edge">
<title>Node2&#45;&gt;Node66</title>
<path fill="none" stroke="#63b8ff" d="M2745.72,-371.75C2736.2,-363.14 2722.28,-349.63 2712.41,-336 2688.52,-303.04 2668.31,-259.79 2657.61,-234.93"/>
<polygon fill="#63b8ff" stroke="#63b8ff" points="2660.84,-233.58 2653.73,-225.73 2654.38,-236.3 2660.84,-233.58"/>
</g>
<!-- Node67 -->
<g id="node28" class="node">
<title>Node67</title>
<g id="a_node28"><a xlink:href="FMTmodelparameters_8hpp.html" target="_top" xlink:title=" ">
<polygon fill="#fff0f0" stroke="red" points="1946.03,-162 1816.78,-162 1816.78,-142 1946.03,-142 1946.03,-162"/>
<text text-anchor="middle" x="1881.41" y="-148.5" font-family="Helvetica,sans-Serif" font-size="10.00">FMTmodelparameters.hpp</text>
</a>
</g>
</g>
<!-- Node2&#45;&gt;Node67 -->
<g id="edge83" class="edge">
<title>Node2&#45;&gt;Node67</title>
<path fill="none" stroke="#63b8ff" d="M2715.86,-380.78C2637.72,-379.51 2461.37,-372.43 2318.41,-336 2156.12,-294.65 1975.55,-203.32 1908.43,-167.66"/>
<polygon fill="#63b8ff" stroke="#63b8ff" points="1910.46,-164.78 1899.99,-163.15 1907.16,-170.95 1910.46,-164.78"/>
</g>
<!-- Node70 -->
<g id="node29" class="node">
<title>Node70</title>
<g id="a_node29"><a xlink:href="FMToutputnode_8hpp.html" target="_top" xlink:title=" ">
<polygon fill="#fff0f0" stroke="red" points="2894.53,-336 2792.28,-336 2792.28,-316 2894.53,-316 2894.53,-336"/>
<text text-anchor="middle" x="2843.41" y="-322.5" font-family="Helvetica,sans-Serif" font-size="10.00">FMToutputnode.hpp</text>
</a>
</g>
</g>
<!-- Node2&#45;&gt;Node70 -->
<g id="edge93" class="edge">
<title>Node2&#45;&gt;Node70</title>
<path fill="none" stroke="#63b8ff" d="M2771.56,-371.59C2784.46,-363.59 2803.24,-351.93 2818.36,-342.54"/>
<polygon fill="#63b8ff" stroke="#63b8ff" points="2820.2,-345.53 2826.85,-337.28 2816.51,-339.58 2820.2,-345.53"/>
</g>
<!-- Node71 -->
<g id="node30" class="node">
<title>Node71</title>
<g id="a_node30"><a xlink:href="FMTschedule_8hpp.html" target="_top" xlink:title=" ">
<polygon fill="#fff0f0" stroke="red" points="1978.03,-336 1884.78,-336 1884.78,-316 1978.03,-316 1978.03,-336"/>
<text text-anchor="middle" x="1931.41" y="-322.5" font-family="Helvetica,sans-Serif" font-size="10.00">FMTschedule.hpp</text>
</a>
</g>
</g>
<!-- Node2&#45;&gt;Node71 -->
<g id="edge95" class="edge">
<title>Node2&#45;&gt;Node71</title>
<path fill="none" stroke="#63b8ff" d="M2715.72,-379.86C2601.46,-376.39 2267.98,-364.39 1992.41,-336 1991.41,-335.9 1990.39,-335.79 1989.38,-335.68"/>
<polygon fill="#63b8ff" stroke="#63b8ff" points="1990.16,-332.25 1979.82,-334.52 1989.32,-339.2 1990.16,-332.25"/>
</g>
<!-- Node4 -->
<g id="node4" class="node">
<title>Node4</title>
<g id="a_node4"><a xlink:title=" ">
<polygon fill="#e0e0e0" stroke="#999999" points="3056.91,-100 2947.91,-100 2947.91,-68 3056.91,-68 3056.91,-100"/>
<text text-anchor="start" x="2955.91" y="-86.5" font-family="Helvetica,sans-Serif" font-size="10.00">boost/dynamic_bitset</text>
<text text-anchor="middle" x="3002.41" y="-74.5" font-family="Helvetica,sans-Serif" font-size="10.00">_fwd.hpp</text>
</a>
</g>
</g>
<!-- Node3&#45;&gt;Node4 -->
<g id="edge3" class="edge">
<title>Node3&#45;&gt;Node4</title>
<path fill="none" stroke="#63b8ff" d="M3136.91,-141.54C3114.18,-131.99 3078.38,-116.94 3049.43,-104.77"/>
<polygon fill="#63b8ff" stroke="#63b8ff" points="3051.08,-101.66 3040.5,-101.01 3048.36,-108.12 3051.08,-101.66"/>
</g>
<!-- Node5 -->
<g id="node5" class="node">
<title>Node5</title>
<g id="a_node5"><a xlink:title=" ">
<polygon fill="#e0e0e0" stroke="#999999" points="4137.78,-32 4043.03,-32 4043.03,0 4137.78,0 4137.78,-32"/>
<text text-anchor="start" x="4051.03" y="-18.5" font-family="Helvetica,sans-Serif" font-size="10.00">boost/serialization</text>
<text text-anchor="middle" x="4090.41" y="-6.5" font-family="Helvetica,sans-Serif" font-size="10.00">/serialization.hpp</text>
</a>
</g>
</g>
<!-- Node3&#45;&gt;Node5 -->
<g id="edge4" class="edge">
<title>Node3&#45;&gt;Node5</title>
<path fill="none" stroke="#63b8ff" d="M3152.94,-141.61C3142.06,-124.56 3123.08,-88.39 3142.41,-68 3157.76,-51.8 3826.21,-26.49 4031.24,-19.09"/>
<polygon fill="#63b8ff" stroke="#63b8ff" points="4031.27,-22.6 4041.14,-18.74 4031.02,-15.6 4031.27,-22.6"/>
</g>
<!-- Node3&#45;&gt;Node6 -->
<g id="edge5" class="edge">
<title>Node3&#45;&gt;Node6</title>
<path fill="none" stroke="#63b8ff" d="M3127.9,-141.53C3120.26,-139.47 3112.08,-137.48 3104.41,-136 2966.91,-109.5 2926.55,-136.68 2791.41,-100 2789.81,-99.57 2788.19,-99.07 2786.58,-98.53"/>
<polygon fill="#63b8ff" stroke="#63b8ff" points="2788.1,-95.36 2777.51,-95 2785.56,-101.89 2788.1,-95.36"/>
</g>
<!-- Node7 -->
<g id="node7" class="node">
<title>Node7</title>
<g id="a_node7"><a xlink:title=" ">
<polygon fill="#e0e0e0" stroke="#999999" points="1695.16,-26 1653.66,-26 1653.66,-6 1695.16,-6 1695.16,-26"/>
<text text-anchor="middle" x="1674.41" y="-12.5" font-family="Helvetica,sans-Serif" font-size="10.00">vector</text>
</a>
</g>
</g>
<!-- Node3&#45;&gt;Node7 -->
<g id="edge6" class="edge">
<title>Node3&#45;&gt;Node7</title>
<path fill="none" stroke="#63b8ff" d="M3127.28,-141.54C3119.82,-139.53 3111.87,-137.56 3104.41,-136 2995.8,-113.36 2958.6,-145.47 2857.41,-100 2837.27,-90.95 2839.97,-76.03 2819.41,-68 2713.4,-26.62 1882.56,-18.47 1706.94,-17.2"/>
<polygon fill="#63b8ff" stroke="#63b8ff" points="1706.98,-13.7 1696.96,-17.13 1706.94,-20.7 1706.98,-13.7"/>
</g>
<!-- Node8 -->
<g id="node8" class="node">
<title>Node8</title>
<g id="a_node8"><a xlink:title=" ">
<polygon fill="#e0e0e0" stroke="#999999" points="2719.78,-94 2685.03,-94 2685.03,-74 2719.78,-74 2719.78,-94"/>
<text text-anchor="middle" x="2702.41" y="-80.5" font-family="Helvetica,sans-Serif" font-size="10.00">map</text>
</a>
</g>
</g>
<!-- Node3&#45;&gt;Node8 -->
<g id="edge7" class="edge">
<title>Node3&#45;&gt;Node8</title>
<path fill="none" stroke="#63b8ff" d="M3118.54,-147.11C3018.15,-137.43 2764.97,-112.14 2728.41,-100 2727.76,-99.78 2727.11,-99.55 2726.46,-99.3"/>
<polygon fill="#63b8ff" stroke="#63b8ff" points="2728.11,-96.21 2717.58,-95.01 2725.06,-102.52 2728.11,-96.21"/>
</g>
<!-- Node9 -->
<g id="node9" class="node">
<title>Node9</title>
<g id="a_node9"><a xlink:title=" ">
<polygon fill="#e0e0e0" stroke="#999999" points="3624.78,-32 3530.03,-32 3530.03,0 3624.78,0 3624.78,-32"/>
<text text-anchor="start" x="3538.03" y="-18.5" font-family="Helvetica,sans-Serif" font-size="10.00">boost/serialization</text>
<text text-anchor="middle" x="3577.41" y="-6.5" font-family="Helvetica,sans-Serif" font-size="10.00">/nvp.hpp</text>
</a>
</g>
</g>
<!-- Node3&#45;&gt;Node9 -->
<g id="edge8" class="edge">
<title>Node3&#45;&gt;Node9</title>
<path fill="none" stroke="#63b8ff" d="M3146.23,-141.53C3125.15,-125.27 3088.29,-91.54 3109.41,-68 3136.28,-38.04 3398.78,-24 3518.47,-19.11"/>
<polygon fill="#63b8ff" stroke="#63b8ff" points="3518.57,-22.61 3528.42,-18.71 3518.29,-15.61 3518.57,-22.61"/>
</g>
<!-- Node3&#45;&gt;Node10 -->
<g id="edge9" class="edge">
<title>Node3&#45;&gt;Node10</title>
<path fill="none" stroke="#63b8ff" d="M3164.99,-141.54C3169.86,-133.3 3177.15,-120.97 3183.68,-109.93"/>
<polygon fill="#63b8ff" stroke="#63b8ff" points="3186.52,-111.99 3188.6,-101.6 3180.49,-108.43 3186.52,-111.99"/>
</g>
<!-- Node3&#45;&gt;Node11 -->
<g id="edge10" class="edge">
<title>Node3&#45;&gt;Node11</title>
<path fill="none" stroke="#63b8ff" d="M3125.74,-141.52C3118.71,-139.62 3111.33,-137.69 3104.41,-136 3031.08,-118.06 3010.64,-121.94 2938.41,-100 2901.37,-88.75 2894.67,-78.46 2857.41,-68 2777.02,-45.43 2681.35,-31.1 2621.24,-23.56"/>
<polygon fill="#63b8ff" stroke="#63b8ff" points="2621.93,-20.12 2611.58,-22.37 2621.08,-27.07 2621.93,-20.12"/>
</g>
<!-- Node13 -->
<g id="node12" class="node">
<title>Node13</title>
<g id="a_node12"><a xlink:href="FMTexceptionhandler_8hpp.html" target="_top" xlink:title=" ">
<polygon fill="#fff0f0" stroke="red" points="2363.28,-94 2235.53,-94 2235.53,-74 2363.28,-74 2363.28,-94"/>
<text text-anchor="middle" x="2299.41" y="-80.5" font-family="Helvetica,sans-Serif" font-size="10.00">FMTexceptionhandler.hpp</text>
</a>
</g>
</g>
<!-- Node3&#45;&gt;Node13 -->
<g id="edge11" class="edge">
<title>Node3&#45;&gt;Node13</title>
<path fill="none" stroke="#63b8ff" d="M3118.51,-147.86C2983.59,-137.51 2551.26,-104.33 2375.14,-90.81"/>
<polygon fill="#63b8ff" stroke="#63b8ff" points="2375.42,-87.32 2365.18,-90.05 2374.88,-94.3 2375.42,-87.32"/>
</g>
<!-- Node22 -->
<g id="node13" class="node">
<title>Node22</title>
<g id="a_node13"><a xlink:title=" ">
<polygon fill="#e0e0e0" stroke="#999999" points="873.78,-26 791.03,-26 791.03,-6 873.78,-6 873.78,-26"/>
<text text-anchor="middle" x="832.41" y="-12.5" font-family="Helvetica,sans-Serif" font-size="10.00">unordered_map</text>
</a>
</g>
</g>
<!-- Node3&#45;&gt;Node22 -->
<g id="edge22" class="edge">
<title>Node3&#45;&gt;Node22</title>
<path fill="none" stroke="#63b8ff" d="M3127.6,-141.51C3120.04,-139.48 3111.98,-137.5 3104.41,-136 2979.18,-111.14 2934.49,-155.28 2819.41,-100 2800.99,-91.15 2805.24,-75.92 2786.41,-68 2763.86,-58.52 1195.64,-24.72 885.39,-18.12"/>
<polygon fill="#63b8ff" stroke="#63b8ff" points="885.64,-14.63 875.57,-17.91 885.49,-21.62 885.64,-14.63"/>
</g>
<!-- Node25 -->
<g id="node15" class="node">
<title>Node25</title>
<g id="a_node15"><a xlink:href="FMTobject_8hpp.html" target="_top" xlink:title=" ">
<polygon fill="#fff0f0" stroke="red" points="1824.66,-94 1744.16,-94 1744.16,-74 1824.66,-74 1824.66,-94"/>
<text text-anchor="middle" x="1784.41" y="-80.5" font-family="Helvetica,sans-Serif" font-size="10.00">FMTobject.hpp</text>
</a>
</g>
</g>
<!-- Node3&#45;&gt;Node25 -->
<g id="edge17" class="edge">
<title>Node3&#45;&gt;Node25</title>
<path fill="none" stroke="#63b8ff" d="M3118.63,-149.04C2920.38,-139.53 2057.8,-98.12 1836.37,-87.49"/>
<polygon fill="#63b8ff" stroke="#63b8ff" points="1836.77,-84.01 1826.62,-87.03 1836.44,-91 1836.77,-84.01"/>
</g>
<!-- Node13&#45;&gt;Node5 -->
<g id="edge13" class="edge">
<title>Node13&#45;&gt;Node5</title>
<path fill="none" stroke="#63b8ff" d="M2363.78,-80.37C2438.83,-77.31 2566.6,-72.16 2676.41,-68 3202.02,-48.06 3837.61,-25.8 4031.48,-19.05"/>
<polygon fill="#63b8ff" stroke="#63b8ff" points="4031.41,-22.55 4041.29,-18.71 4031.17,-15.56 4031.41,-22.55"/>
</g>
<!-- Node13&#45;&gt;Node9 -->
<g id="edge14" class="edge">
<title>Node13&#45;&gt;Node9</title>
<path fill="none" stroke="#63b8ff" d="M2363.66,-79.68C2583.85,-68.31 3306.1,-31.01 3518.29,-20.05"/>
<polygon fill="#63b8ff" stroke="#63b8ff" points="3518.45,-23.55 3528.26,-19.54 3518.09,-16.56 3518.45,-23.55"/>
</g>
<!-- Node13&#45;&gt;Node11 -->
<g id="edge15" class="edge">
<title>Node13&#45;&gt;Node11</title>
<path fill="none" stroke="#63b8ff" d="M2337.09,-73.54C2380.53,-62.64 2452.48,-44.59 2503.37,-31.81"/>
<polygon fill="#63b8ff" stroke="#63b8ff" points="2504.22,-35.21 2513.07,-29.38 2502.52,-28.42 2504.22,-35.21"/>
</g>
<!-- Node13&#45;&gt;Node22 -->
<g id="edge12" class="edge">
<title>Node13&#45;&gt;Node22</title>
<path fill="none" stroke="#63b8ff" d="M2235.43,-80.12C1990,-69.08 1111.2,-29.54 885.53,-19.39"/>
<polygon fill="#63b8ff" stroke="#63b8ff" points="885.71,-15.89 875.57,-18.94 885.4,-22.89 885.71,-15.89"/>
</g>
<!-- Node20 -->
<g id="node14" class="node">
<title>Node20</title>
<g id="a_node14"><a xlink:title=" ">
<polygon fill="#e0e0e0" stroke="#999999" points="419.03,-26 367.78,-26 367.78,-6 419.03,-6 419.03,-26"/>
<text text-anchor="middle" x="393.41" y="-12.5" font-family="Helvetica,sans-Serif" font-size="10.00">memory</text>
</a>
</g>
</g>
<!-- Node13&#45;&gt;Node20 -->
<g id="edge16" class="edge">
<title>Node13&#45;&gt;Node20</title>
<path fill="none" stroke="#63b8ff" d="M2235.08,-80.95C2025.8,-74.26 1345.31,-52.31 782.41,-32 653.12,-27.33 499.68,-21.26 430.49,-18.49"/>
<polygon fill="#63b8ff" stroke="#63b8ff" points="431,-15.01 420.87,-18.11 430.72,-22 431,-15.01"/>
</g>
<!-- Node25&#45;&gt;Node7 -->
<g id="edge21" class="edge">
<title>Node25&#45;&gt;Node7</title>
<path fill="none" stroke="#63b8ff" d="M1768.65,-73.54C1750.68,-62.76 1721.04,-44.98 1699.8,-32.24"/>
<polygon fill="#63b8ff" stroke="#63b8ff" points="1701.81,-29.36 1691.44,-27.22 1698.21,-35.36 1701.81,-29.36"/>
</g>
<!-- Node25&#45;&gt;Node9 -->
<g id="edge18" class="edge">
<title>Node25&#45;&gt;Node9</title>
<path fill="none" stroke="#63b8ff" d="M1824.8,-81.51C2058.74,-72.9 3239.27,-29.45 3518.25,-19.18"/>
<polygon fill="#63b8ff" stroke="#63b8ff" points="3518.33,-22.68 3528.2,-18.81 3518.08,-15.68 3518.33,-22.68"/>
</g>
<!-- Node25&#45;&gt;Node11 -->
<g id="edge19" class="edge">
<title>Node25&#45;&gt;Node11</title>
<path fill="none" stroke="#63b8ff" d="M1825.08,-77.59C1849.02,-74.52 1879.9,-70.75 1907.41,-68 2126.86,-46.09 2388.48,-28.18 2503.37,-20.73"/>
<polygon fill="#63b8ff" stroke="#63b8ff" points="2503.41,-24.23 2513.17,-20.1 2502.96,-17.25 2503.41,-24.23"/>
</g>
<!-- Node25&#45;&gt;Node20 -->
<g id="edge20" class="edge">
<title>Node25&#45;&gt;Node20</title>
<path fill="none" stroke="#63b8ff" d="M1743.84,-80.29C1695.43,-77.12 1612.03,-71.79 1540.41,-68 1103.82,-44.88 573.38,-23.94 430.39,-18.42"/>
<polygon fill="#63b8ff" stroke="#63b8ff" points="430.9,-14.93 420.77,-18.05 430.63,-21.93 430.9,-14.93"/>
</g>
<!-- Node29&#45;&gt;Node5 -->
<g id="edge37" class="edge">
<title>Node29&#45;&gt;Node5</title>
<path fill="none" stroke="#63b8ff" d="M2331.9,-266.91C2557.57,-255.18 3655.28,-197.01 3803.41,-168 3815.34,-165.66 4001.13,-106.49 4011.41,-100 4035.9,-84.54 4058.09,-59.81 4072.67,-41.36"/>
<polygon fill="#63b8ff" stroke="#63b8ff" points="4075.34,-43.63 4078.65,-33.57 4069.79,-39.37 4075.34,-43.63"/>
</g>
<!-- Node29&#45;&gt;Node6 -->
<g id="edge39" class="edge">
<title>Node29&#45;&gt;Node6</title>
<path fill="none" stroke="#63b8ff" d="M2332.11,-268.45C2423.59,-266.6 2642.42,-258.59 2706.41,-224 2734.74,-208.68 2740.64,-197.98 2752.41,-168 2760.3,-147.88 2760.67,-122.9 2759.62,-105.63"/>
<polygon fill="#63b8ff" stroke="#63b8ff" points="2763.12,-105.54 2758.79,-95.87 2756.15,-106.13 2763.12,-105.54"/>
</g>
<!-- Node29&#45;&gt;Node7 -->
<g id="edge40" class="edge">
<title>Node29&#45;&gt;Node7</title>
<path fill="none" stroke="#63b8ff" d="M2250.74,-268.26C2092.28,-264.35 1520.48,-240.57 1428.41,-100 1378.01,-23.05 1564.3,-16.04 1641.94,-16.36"/>
<polygon fill="#63b8ff" stroke="#63b8ff" points="1641.87,-19.86 1651.9,-16.45 1641.93,-12.86 1641.87,-19.86"/>
</g>
<!-- Node29&#45;&gt;Node9 -->
<g id="edge38" class="edge">
<title>Node29&#45;&gt;Node9</title>
<path fill="none" stroke="#63b8ff" d="M2332.1,-266.84C2494.69,-257.92 3097.66,-221.8 3280.41,-168 3382.84,-137.85 3491.98,-72.66 3544.89,-38.65"/>
<polygon fill="#63b8ff" stroke="#63b8ff" points="3546.65,-41.68 3553.13,-33.3 3542.84,-35.81 3546.65,-41.68"/>
</g>
<!-- Node29&#45;&gt;Node11 -->
<g id="edge41" class="edge">
<title>Node29&#45;&gt;Node11</title>
<path fill="none" stroke="#63b8ff" d="M2301.37,-259.73C2339.98,-223.84 2480.35,-93.31 2537.72,-39.96"/>
<polygon fill="#63b8ff" stroke="#63b8ff" points="2539.82,-42.78 2544.76,-33.41 2535.06,-37.65 2539.82,-42.78"/>
</g>
<!-- Node29&#45;&gt;Node13 -->
<g id="edge24" class="edge">
<title>Node29&#45;&gt;Node13</title>
<path fill="none" stroke="#63b8ff" d="M2291.81,-259.62C2293.05,-231.14 2296.79,-145.15 2298.52,-105.47"/>
<polygon fill="#63b8ff" stroke="#63b8ff" points="2302.01,-105.8 2298.94,-95.65 2295.01,-105.49 2302.01,-105.8"/>
</g>
<!-- Node29&#45;&gt;Node30 -->
<g id="edge25" class="edge">
<title>Node29&#45;&gt;Node30</title>
<path fill="none" stroke="#63b8ff" d="M2325.37,-259.59C2357.57,-250.68 2406.14,-237.23 2441.52,-227.43"/>
<polygon fill="#63b8ff" stroke="#63b8ff" points="2442.34,-230.83 2451.04,-224.79 2440.47,-224.09 2442.34,-230.83"/>
</g>
<!-- Node30&#45;&gt;Node3 -->
<g id="edge36" class="edge">
<title>Node30&#45;&gt;Node3</title>
<path fill="none" stroke="#63b8ff" d="M2520.24,-209.98C2629.69,-200.23 2974.67,-169.47 3107.01,-157.67"/>
<polygon fill="#63b8ff" stroke="#63b8ff" points="3107.25,-161.16 3116.89,-156.79 3106.62,-154.19 3107.25,-161.16"/>
</g>
<!-- Node30&#45;&gt;Node5 -->
<g id="edge27" class="edge">
<title>Node30&#45;&gt;Node5</title>
<path fill="none" stroke="#63b8ff" d="M2519.95,-209.72C2540.55,-207.8 2567.48,-205.48 2591.41,-204 3010.47,-178.06 3117.96,-212.99 3535.41,-168 3546.1,-166.85 3906.31,-103.7 3916.41,-100 3942.96,-90.26 3946.14,-80.7 3971.41,-68 3993.65,-56.81 4018.93,-45.76 4040.45,-36.82"/>
<polygon fill="#63b8ff" stroke="#63b8ff" points="4041.69,-40.09 4049.6,-33.05 4039.02,-33.62 4041.69,-40.09"/>
</g>
<!-- Node30&#45;&gt;Node7 -->
<g id="edge26" class="edge">
<title>Node30&#45;&gt;Node7</title>
<path fill="none" stroke="#63b8ff" d="M2452.72,-207.96C2442.09,-206.51 2430.27,-205.04 2419.41,-204 2349.17,-197.3 1847.44,-201.63 1785.41,-168 1731.42,-138.73 1696.7,-70.54 1682.19,-36.73"/>
<polygon fill="#63b8ff" stroke="#63b8ff" points="1685.52,-35.63 1678.47,-27.72 1679.05,-38.3 1685.52,-35.63"/>
</g>
<!-- Node30&#45;&gt;Node9 -->
<g id="edge31" class="edge">
<title>Node30&#45;&gt;Node9</title>
<path fill="none" stroke="#63b8ff" d="M2519.96,-209.89C2540.57,-208.04 2567.5,-205.72 2591.41,-204 2728.62,-194.12 3083.47,-223.35 3209.41,-168 3228.11,-159.78 3226.54,-148.87 3242.41,-136 3284.44,-101.92 3293.64,-89.25 3343.41,-68 3400.22,-43.74 3469.92,-30.46 3518.4,-23.59"/>
<polygon fill="#63b8ff" stroke="#63b8ff" points="3518.7,-27.08 3528.13,-22.26 3517.75,-20.14 3518.7,-27.08"/>
</g>
<!-- Node30&#45;&gt;Node11 -->
<g id="edge32" class="edge">
<title>Node30&#45;&gt;Node11</title>
<path fill="none" stroke="#63b8ff" d="M2488.24,-203.51C2493,-179.84 2507.01,-116.66 2529.41,-68 2533.54,-59.01 2539.08,-49.76 2544.44,-41.64"/>
<polygon fill="#63b8ff" stroke="#63b8ff" points="2547.15,-43.88 2549.92,-33.65 2541.38,-39.92 2547.15,-43.88"/>
</g>
<!-- Node30&#45;&gt;Node13 -->
<g id="edge33" class="edge">
<title>Node30&#45;&gt;Node13</title>
<path fill="none" stroke="#63b8ff" d="M2477,-203.69C2461.23,-188.39 2428.06,-157.47 2396.41,-136 2375.55,-121.85 2350.3,-108.69 2330.8,-99.28"/>
<polygon fill="#63b8ff" stroke="#63b8ff" points="2332.52,-96.23 2321.98,-95.11 2329.52,-102.55 2332.52,-96.23"/>
</g>
<!-- Node30&#45;&gt;Node20 -->
<g id="edge35" class="edge">
<title>Node30&#45;&gt;Node20</title>
<path fill="none" stroke="#63b8ff" d="M2452.76,-213.17C2216.4,-214.24 809.72,-218.43 627.41,-168 568.32,-151.66 558.94,-133.21 507.41,-100 473.88,-78.4 436.87,-50.68 414.37,-33.38"/>
<polygon fill="#63b8ff" stroke="#63b8ff" points="416.65,-30.71 406.6,-27.36 412.36,-36.25 416.65,-30.71"/>
</g>
<!-- Node30&#45;&gt;Node25 -->
<g id="edge34" class="edge">
<title>Node30&#45;&gt;Node25</title>
<path fill="none" stroke="#63b8ff" d="M2452.72,-207.97C2442.08,-206.52 2430.27,-205.05 2419.41,-204 2351.6,-197.46 1860.39,-210.81 1807.41,-168 1789.08,-153.19 1784.6,-125.17 1783.87,-105.81"/>
<polygon fill="#63b8ff" stroke="#63b8ff" points="1787.37,-105.81 1783.83,-95.82 1780.37,-105.84 1787.37,-105.81"/>
</g>
<!-- Node44 -->
<g id="node18" class="node">
<title>Node44</title>
<g id="a_node18"><a xlink:title=" ">
<polygon fill="#e0e0e0" stroke="#999999" points="918.53,-168 822.28,-168 822.28,-136 918.53,-136 918.53,-168"/>
<text text-anchor="start" x="830.28" y="-154.5" font-family="Helvetica,sans-Serif" font-size="10.00">boost/serialization</text>
<text text-anchor="middle" x="870.41" y="-142.5" font-family="Helvetica,sans-Serif" font-size="10.00">/split_member.hpp</text>
</a>
</g>
</g>
<!-- Node30&#45;&gt;Node44 -->
<g id="edge28" class="edge">
<title>Node30&#45;&gt;Node44</title>
<path fill="none" stroke="#63b8ff" d="M2452.51,-212.65C2293.4,-210.86 1604.83,-201.46 1041.41,-168 1004.42,-165.8 963.02,-162.2 930.22,-159.08"/>
<polygon fill="#63b8ff" stroke="#63b8ff" points="930.8,-155.62 920.51,-158.14 930.12,-162.59 930.8,-155.62"/>
</g>
<!-- Node30&#45;&gt;Node45 -->
<g id="edge29" class="edge">
<title>Node30&#45;&gt;Node45</title>
<path fill="none" stroke="#63b8ff" d="M2452.59,-207.3C2393.41,-197.33 2270.15,-176.55 2194.41,-163.79"/>
<polygon fill="#63b8ff" stroke="#63b8ff" points="2195.08,-160.35 2184.63,-162.14 2193.91,-167.25 2195.08,-160.35"/>
</g>
<!-- Node30&#45;&gt;Node46 -->
<g id="edge30" class="edge">
<title>Node30&#45;&gt;Node46</title>
<path fill="none" stroke="#63b8ff" d="M2467.8,-203.57C2433.27,-186.57 2356.51,-151.19 2287.41,-136 2269.25,-132.01 1725.75,-99.37 1543.4,-88.51"/>
<polygon fill="#63b8ff" stroke="#63b8ff" points="1543.87,-85.03 1533.68,-87.93 1543.46,-92.02 1543.87,-85.03"/>
</g>
<!-- Node53&#45;&gt;Node5 -->
<g id="edge44" class="edge">
<title>Node53&#45;&gt;Node5</title>
<path fill="none" stroke="#63b8ff" d="M3061.7,-268.11C3208.46,-265.04 3654.79,-253.48 3796.41,-224 3834.45,-216.08 4101.46,-132.07 4123.41,-100 4135.75,-81.97 4124.5,-58.64 4111.9,-41.31"/>
<polygon fill="#63b8ff" stroke="#63b8ff" points="4114.76,-39.28 4105.83,-33.56 4109.24,-43.59 4114.76,-39.28"/>
</g>
<!-- Node53&#45;&gt;Node6 -->
<g id="edge48" class="edge">
<title>Node53&#45;&gt;Node6</title>
<path fill="none" stroke="#63b8ff" d="M3019.69,-259.52C3026.13,-246.66 3035.35,-223.09 3028.41,-204 3014.93,-166.94 3005.42,-155.96 2971.41,-136 2897.66,-92.72 2862.3,-130.47 2782.41,-100 2782.05,-99.86 2781.7,-99.72 2781.34,-99.58"/>
<polygon fill="#63b8ff" stroke="#63b8ff" points="2783.1,-96.55 2772.59,-95.16 2779.94,-102.79 2783.1,-96.55"/>
</g>
<!-- Node53&#45;&gt;Node7 -->
<g id="edge46" class="edge">
<title>Node53&#45;&gt;Node7</title>
<path fill="none" stroke="#63b8ff" d="M2967.22,-265.8C2740.12,-250.35 1769.59,-183.49 1742.41,-168 1695.24,-141.12 1680.66,-71.75 1676.25,-37.19"/>
<polygon fill="#63b8ff" stroke="#63b8ff" points="1679.78,-37.24 1675.21,-27.68 1672.82,-38 1679.78,-37.24"/>
</g>
<!-- Node53&#45;&gt;Node8 -->
<g id="edge47" class="edge">
<title>Node53&#45;&gt;Node8</title>
<path fill="none" stroke="#63b8ff" d="M3010.39,-259.73C2999.2,-235.09 2965.12,-167.7 2914.41,-136 2843.01,-91.37 2807.29,-129.44 2728.41,-100 2727.92,-99.82 2727.43,-99.63 2726.94,-99.43"/>
<polygon fill="#63b8ff" stroke="#63b8ff" points="2728.71,-96.4 2718.2,-95.12 2725.62,-102.68 2728.71,-96.4"/>
</g>
<!-- Node53&#45;&gt;Node11 -->
<g id="edge45" class="edge">
<title>Node53&#45;&gt;Node11</title>
<path fill="none" stroke="#63b8ff" d="M3043.52,-259.58C3122.83,-232.53 3331.72,-151.22 3254.41,-68 3211.76,-22.1 2781.41,-17.12 2621.67,-16.87"/>
<polygon fill="#63b8ff" stroke="#63b8ff" points="2621.71,-13.37 2611.71,-16.86 2621.71,-20.37 2621.71,-13.37"/>
</g>
<!-- Node53&#45;&gt;Node30 -->
<g id="edge43" class="edge">
<title>Node53&#45;&gt;Node30</title>
<path fill="none" stroke="#63b8ff" d="M2967.09,-264.16C2866.14,-253.84 2630.84,-229.77 2531.71,-219.63"/>
<polygon fill="#63b8ff" stroke="#63b8ff" points="2532.13,-216.16 2521.82,-218.62 2531.41,-223.12 2532.13,-216.16"/>
</g>
<!-- Node57&#45;&gt;Node3 -->
<g id="edge55" class="edge">
<title>Node57&#45;&gt;Node3</title>
<path fill="none" stroke="#63b8ff" d="M2870.48,-259.53C2902.73,-251.18 2950.04,-238.17 2990.41,-224 3039.86,-206.64 3095.62,-182.24 3129.11,-167.03"/>
<polygon fill="#63b8ff" stroke="#63b8ff" points="3130.15,-170.41 3137.79,-163.07 3127.24,-164.04 3130.15,-170.41"/>
</g>
<!-- Node57&#45;&gt;Node5 -->
<g id="edge54" class="edge">
<title>Node57&#45;&gt;Node5</title>
<path fill="none" stroke="#63b8ff" d="M2872.76,-266.15C3056.48,-253.05 3809.26,-197.99 3910.41,-168 3939.76,-159.3 3943.14,-147.77 3971.41,-136 4020.46,-115.58 4052.72,-141.89 4085.41,-100 4097.67,-84.28 4098.16,-61.36 4096,-43.59"/>
<polygon fill="#63b8ff" stroke="#63b8ff" points="4099.47,-43.08 4094.44,-33.75 4092.55,-44.18 4099.47,-43.08"/>
</g>
<!-- Node57&#45;&gt;Node6 -->
<g id="edge53" class="edge">
<title>Node57&#45;&gt;Node6</title>
<path fill="none" stroke="#63b8ff" d="M2856.19,-259.57C2873.66,-251.84 2897.23,-239.63 2914.41,-224 2945.92,-195.33 2979.23,-169.1 2952.41,-136 2903.78,-76 2854.28,-128.26 2782.41,-100 2782.05,-99.86 2781.7,-99.72 2781.34,-99.57"/>
<polygon fill="#63b8ff" stroke="#63b8ff" points="2783.11,-96.54 2772.61,-95.11 2779.93,-102.77 2783.11,-96.54"/>
</g>
<!-- Node57&#45;&gt;Node7 -->
<g id="edge51" class="edge">
<title>Node57&#45;&gt;Node7</title>
<path fill="none" stroke="#63b8ff" d="M2792.09,-268.68C2594.93,-266.69 1738.55,-253.16 1660.41,-168 1627.27,-131.89 1649.73,-68.46 1664.45,-36.53"/>
<polygon fill="#63b8ff" stroke="#63b8ff" points="1667.53,-38.19 1668.74,-27.66 1661.23,-35.14 1667.53,-38.19"/>
</g>
<!-- Node57&#45;&gt;Node8 -->
<g id="edge52" class="edge">
<title>Node57&#45;&gt;Node8</title>
<path fill="none" stroke="#63b8ff" d="M2836.34,-259.84C2845.64,-236.57 2866.22,-174.36 2838.41,-136 2808.22,-94.35 2775.38,-120.97 2728.41,-100 2728.18,-99.9 2727.95,-99.8 2727.73,-99.69"/>
<polygon fill="#63b8ff" stroke="#63b8ff" points="2729.36,-96.6 2718.87,-95.12 2726.15,-102.82 2729.36,-96.6"/>
</g>
<!-- Node57&#45;&gt;Node11 -->
<g id="edge58" class="edge">
<title>Node57&#45;&gt;Node11</title>
<path fill="none" stroke="#63b8ff" d="M2826.76,-259.82C2812.45,-237.03 2772.83,-176.8 2729.41,-136 2708.65,-116.5 2699.42,-116.77 2676.41,-100 2657.72,-86.39 2654,-81.74 2635.41,-68 2622.13,-58.19 2607.23,-47.69 2594.37,-38.78"/>
<polygon fill="#63b8ff" stroke="#63b8ff" points="2596.46,-35.97 2586.24,-33.18 2592.48,-41.74 2596.46,-35.97"/>
</g>
<!-- Node57&#45;&gt;Node22 -->
<g id="edge56" class="edge">
<title>Node57&#45;&gt;Node22</title>
<path fill="none" stroke="#63b8ff" d="M2792.2,-268.14C2542.69,-262.6 1210.86,-230.27 1041.41,-168 960.02,-138.09 882.15,-67 849.06,-34.17"/>
<polygon fill="#63b8ff" stroke="#63b8ff" points="851.89,-32.04 842.36,-27.41 846.92,-36.98 851.89,-32.04"/>
</g>
<!-- Node57&#45;&gt;Node20 -->
<g id="edge57" class="edge">
<title>Node57&#45;&gt;Node20</title>
<path fill="none" stroke="#63b8ff" d="M2792.47,-268.26C2499.13,-262.85 687.36,-229.22 631.41,-224 481.1,-209.98 393.95,-283.21 296.41,-168 281.76,-150.7 297.73,-84.82 309.41,-68 321.01,-51.29 340.03,-39.08 357.04,-30.81"/>
<polygon fill="#63b8ff" stroke="#63b8ff" points="358.25,-34.1 365.91,-26.78 355.36,-27.73 358.25,-34.1"/>
</g>
<!-- Node57&#45;&gt;Node30 -->
<g id="edge50" class="edge">
<title>Node57&#45;&gt;Node30</title>
<path fill="none" stroke="#63b8ff" d="M2792.04,-262.7C2726.99,-252.55 2599.43,-232.64 2531.49,-222.04"/>
<polygon fill="#63b8ff" stroke="#63b8ff" points="2532.24,-218.61 2521.82,-220.53 2531.16,-225.53 2532.24,-218.61"/>
</g>
<!-- Node60&#45;&gt;Node5 -->
<g id="edge61" class="edge">
<title>Node60&#45;&gt;Node5</title>
<path fill="none" stroke="#63b8ff" d="M3712.8,-265.85C3769.5,-261.05 3867.84,-249.58 3948.41,-224 4002.21,-206.92 4013.68,-196.5 4062.41,-168 4108.48,-141.05 4136.55,-147.24 4161.41,-100 4168.03,-87.41 4167.9,-80.65 4161.41,-68 4155.3,-56.09 4144.98,-46.34 4134.07,-38.67"/>
<polygon fill="#63b8ff" stroke="#63b8ff" points="4136,-35.74 4125.69,-33.28 4132.21,-41.63 4136,-35.74"/>
</g>
<!-- Node60&#45;&gt;Node9 -->
<g id="edge62" class="edge">
<title>Node60&#45;&gt;Node9</title>
<path fill="none" stroke="#63b8ff" d="M3665.98,-259.7C3664.72,-237.62 3660.1,-180.6 3644.41,-136 3632.2,-101.32 3610.2,-65 3594.75,-41.74"/>
<polygon fill="#63b8ff" stroke="#63b8ff" points="3597.73,-39.89 3589.22,-33.58 3591.93,-43.82 3597.73,-39.89"/>
</g>
<!-- Node60&#45;&gt;Node11 -->
<g id="edge63" class="edge">
<title>Node60&#45;&gt;Node11</title>
<path fill="none" stroke="#63b8ff" d="M3663.99,-259.75C3657.65,-236.83 3638.76,-176.3 3606.41,-136 3574.8,-96.63 3562.88,-85.2 3515.41,-68 3431.68,-37.67 2816.5,-22.31 2621.51,-18.17"/>
<polygon fill="#63b8ff" stroke="#63b8ff" points="2621.68,-14.67 2611.61,-17.96 2621.53,-21.67 2621.68,-14.67"/>
</g>
<!-- Node60&#45;&gt;Node30 -->
<g id="edge60" class="edge">
<title>Node60&#45;&gt;Node30</title>
<path fill="none" stroke="#63b8ff" d="M3619.74,-267.77C3470.12,-263.69 2988.94,-249.35 2591.41,-224 2571.69,-222.74 2549.93,-220.95 2531.35,-219.29"/>
<polygon fill="#63b8ff" stroke="#63b8ff" points="2531.74,-215.81 2521.46,-218.39 2531.1,-222.78 2531.74,-215.81"/>
</g>
<!-- Node61&#45;&gt;Node5 -->
<g id="edge65" class="edge">
<title>Node61&#45;&gt;Node5</title>
<path fill="none" stroke="#63b8ff" d="M3829.96,-73.54C3882.94,-62.04 3972.6,-42.58 4031.65,-29.76"/>
<polygon fill="#63b8ff" stroke="#63b8ff" points="4032.16,-33.23 4041.19,-27.68 4030.68,-26.39 4032.16,-33.23"/>
</g>
<!-- Node61&#45;&gt;Node9 -->
<g id="edge66" class="edge">
<title>Node61&#45;&gt;Node9</title>
<path fill="none" stroke="#63b8ff" d="M3756.46,-73.54C3725.1,-63.64 3675.04,-47.83 3635.81,-35.44"/>
<polygon fill="#63b8ff" stroke="#63b8ff" points="3637.09,-32.18 3626.5,-32.5 3634.99,-38.85 3637.09,-32.18"/>
</g>
<!-- Node61&#45;&gt;Node11 -->
<g id="edge67" class="edge">
<title>Node61&#45;&gt;Node11</title>
<path fill="none" stroke="#63b8ff" d="M3718.85,-73.54C3702.07,-71.45 3684.11,-69.44 3667.41,-68 3268.71,-33.73 2786.96,-21.46 2621.51,-18.08"/>
<polygon fill="#63b8ff" stroke="#63b8ff" points="2621.73,-14.58 2611.67,-17.88 2621.59,-21.58 2621.73,-14.58"/>
</g>
<!-- Node62&#45;&gt;Node5 -->
<g id="edge72" class="edge">
<title>Node62&#45;&gt;Node5</title>
<path fill="none" stroke="#63b8ff" d="M2701.76,-141.59C2745.99,-123.49 2848.24,-84.15 2938.41,-68 2992.58,-58.3 3803.88,-27.63 4031.46,-19.17"/>
<polygon fill="#63b8ff" stroke="#63b8ff" points="4031.41,-22.68 4041.28,-18.81 4031.15,-15.68 4031.41,-22.68"/>
</g>
<!-- Node62&#45;&gt;Node6 -->
<g id="edge70" class="edge">
<title>Node62&#45;&gt;Node6</title>
<path fill="none" stroke="#63b8ff" d="M2690.58,-141.54C2702.86,-131.15 2722.82,-114.27 2737.73,-101.65"/>
<polygon fill="#63b8ff" stroke="#63b8ff" points="2739.72,-104.55 2745.1,-95.42 2735.2,-99.2 2739.72,-104.55"/>
</g>
<!-- Node62&#45;&gt;Node7 -->
<g id="edge69" class="edge">
<title>Node62&#45;&gt;Node7</title>
<path fill="none" stroke="#63b8ff" d="M2654.93,-141.55C2607.58,-123.72 2499.75,-85.35 2405.41,-68 2139.09,-19.02 1810.29,-16.23 1707.01,-16.68"/>
<polygon fill="#63b8ff" stroke="#63b8ff" points="1707.05,-13.18 1697.07,-16.74 1707.09,-20.18 1707.05,-13.18"/>
</g>
<!-- Node62&#45;&gt;Node11 -->
<g id="edge73" class="edge">
<title>Node62&#45;&gt;Node11</title>
<path fill="none" stroke="#63b8ff" d="M2671.36,-141.79C2653.4,-121.21 2609.52,-70.96 2583.25,-40.87"/>
<polygon fill="#63b8ff" stroke="#63b8ff" points="2585.92,-38.61 2576.71,-33.38 2580.65,-43.22 2585.92,-38.61"/>
</g>
<!-- Node62&#45;&gt;Node25 -->
<g id="edge71" class="edge">
<title>Node62&#45;&gt;Node25</title>
<path fill="none" stroke="#63b8ff" d="M2638.33,-147.97C2492.25,-137.2 1998.05,-100.75 1836.2,-88.82"/>
<polygon fill="#63b8ff" stroke="#63b8ff" points="1836.87,-85.36 1826.64,-88.11 1836.35,-92.34 1836.87,-85.36"/>
</g>
<!-- Node66&#45;&gt;Node5 -->
<g id="edge79" class="edge">
<title>Node66&#45;&gt;Node5</title>
<path fill="none" stroke="#63b8ff" d="M2698.37,-212.39C2880.6,-209.89 3519.36,-199.06 3720.41,-168 3777.52,-159.18 3919.04,-124.45 3971.41,-100 4005.71,-83.99 4040.75,-58.17 4063.84,-39.58"/>
<polygon fill="#63b8ff" stroke="#63b8ff" points="4065.98,-42.35 4071.5,-33.31 4061.54,-36.93 4065.98,-42.35"/>
</g>
<!-- Node66&#45;&gt;Node6 -->
<g id="edge77" class="edge">
<title>Node66&#45;&gt;Node6</title>
<path fill="none" stroke="#63b8ff" d="M2676.55,-203.61C2693.87,-196.35 2715.58,-184.69 2729.41,-168 2744.31,-150.01 2751.41,-123.72 2754.71,-105.57"/>
<polygon fill="#63b8ff" stroke="#63b8ff" points="2758.15,-106.18 2756.23,-95.76 2751.24,-105.11 2758.15,-106.18"/>
</g>
<!-- Node66&#45;&gt;Node7 -->
<g id="edge76" class="edge">
<title>Node66&#45;&gt;Node7</title>
<path fill="none" stroke="#63b8ff" d="M2621.47,-203.57C2574.39,-186.94 2477.36,-149.43 2405.41,-100 2388.57,-88.43 2391.05,-76.36 2372.41,-68 2311.19,-40.55 1836.01,-22.5 1706.76,-18.07"/>
<polygon fill="#63b8ff" stroke="#63b8ff" points="1706.99,-14.57 1696.88,-17.73 1706.75,-21.57 1706.99,-14.57"/>
</g>
<!-- Node66&#45;&gt;Node9 -->
<g id="edge80" class="edge">
<title>Node66&#45;&gt;Node9</title>
<path fill="none" stroke="#63b8ff" d="M2698.27,-212.47C2821.5,-210.61 3142.23,-202.52 3242.41,-168 3266.65,-159.65 3268.55,-149.4 3290.41,-136 3343,-103.76 3354.71,-92.31 3411.41,-68 3445.98,-53.17 3486.3,-40.68 3518.53,-31.78"/>
<polygon fill="#63b8ff" stroke="#63b8ff" points="3519.38,-35.17 3528.12,-29.17 3517.55,-28.42 3519.38,-35.17"/>
</g>
<!-- Node66&#45;&gt;Node11 -->
<g id="edge81" class="edge">
<title>Node66&#45;&gt;Node11</title>
<path fill="none" stroke="#63b8ff" d="M2645.27,-203.69C2641.22,-194.59 2634.89,-180.35 2629.41,-168 2609.9,-124.07 2587.22,-72.95 2573.88,-42.87"/>
<polygon fill="#63b8ff" stroke="#63b8ff" points="2577.12,-41.54 2569.87,-33.82 2570.72,-44.38 2577.12,-41.54"/>
</g>
<!-- Node66&#45;&gt;Node62 -->
<g id="edge75" class="edge">
<title>Node66&#45;&gt;Node62</title>
<path fill="none" stroke="#63b8ff" d="M2654.09,-203.62C2658.26,-195.3 2664.47,-182.86 2669.71,-172.4"/>
<polygon fill="#63b8ff" stroke="#63b8ff" points="2672.83,-173.98 2674.17,-163.47 2666.57,-170.85 2672.83,-173.98"/>
</g>
<!-- Node52 -->
<g id="node27" class="node">
<title>Node52</title>
<g id="a_node27"><a xlink:title=" ">
<polygon fill="#e0e0e0" stroke="#999999" points="2278.03,-162 2238.78,-162 2238.78,-142 2278.03,-142 2278.03,-162"/>
<text text-anchor="middle" x="2258.41" y="-148.5" font-family="Helvetica,sans-Serif" font-size="10.00">limits</text>
</a>
</g>
</g>
<!-- Node66&#45;&gt;Node52 -->
<g id="edge78" class="edge">
<title>Node66&#45;&gt;Node52</title>
<path fill="none" stroke="#63b8ff" d="M2600.68,-205.52C2519.18,-193.02 2357.49,-168.21 2289.59,-157.78"/>
<polygon fill="#63b8ff" stroke="#63b8ff" points="2290.32,-154.36 2279.9,-156.3 2289.26,-161.28 2290.32,-154.36"/>
</g>
<!-- Node67&#45;&gt;Node7 -->
<g id="edge88" class="edge">
<title>Node67&#45;&gt;Node7</title>
<path fill="none" stroke="#63b8ff" d="M1878.48,-141.52C1872.7,-124.33 1858.16,-87.95 1833.41,-68 1796.36,-38.14 1741.45,-25.6 1706.82,-20.45"/>
<polygon fill="#63b8ff" stroke="#63b8ff" points="1707.35,-16.99 1696.98,-19.12 1706.42,-23.93 1707.35,-16.99"/>
</g>
<!-- Node67&#45;&gt;Node11 -->
<g id="edge86" class="edge">
<title>Node67&#45;&gt;Node11</title>
<path fill="none" stroke="#63b8ff" d="M1886.94,-141.69C1898.18,-123.75 1925.61,-84.69 1960.41,-68 2055.19,-22.53 2370.63,-17 2503.06,-16.74"/>
<polygon fill="#63b8ff" stroke="#63b8ff" points="2503.03,-20.24 2513.03,-16.73 2503.02,-13.24 2503.03,-20.24"/>
</g>
<!-- Node67&#45;&gt;Node13 -->
<g id="edge84" class="edge">
<title>Node67&#45;&gt;Node13</title>
<path fill="none" stroke="#63b8ff" d="M1941.3,-141.54C2017.08,-129.58 2147.44,-108.99 2228.23,-96.24"/>
<polygon fill="#63b8ff" stroke="#63b8ff" points="2228.46,-99.75 2237.79,-94.73 2227.37,-92.83 2228.46,-99.75"/>
</g>
<!-- Node67&#45;&gt;Node25 -->
<g id="edge85" class="edge">
<title>Node67&#45;&gt;Node25</title>
<path fill="none" stroke="#63b8ff" d="M1867.51,-141.54C1851.88,-130.91 1826.24,-113.47 1807.57,-100.76"/>
<polygon fill="#63b8ff" stroke="#63b8ff" points="1809.77,-98.02 1799.53,-95.29 1805.83,-103.81 1809.77,-98.02"/>
</g>
<!-- Node67&#45;&gt;Node46 -->
<g id="edge87" class="edge">
<title>Node67&#45;&gt;Node46</title>
<path fill="none" stroke="#63b8ff" d="M1824.53,-141.54C1749.78,-129.12 1619.15,-107.4 1543.38,-94.8"/>
<polygon fill="#63b8ff" stroke="#63b8ff" points="1544.09,-91.37 1533.65,-93.19 1542.94,-98.28 1544.09,-91.37"/>
</g>
<!-- Node70&#45;&gt;Node8 -->
<g id="edge94" class="edge">
<title>Node70&#45;&gt;Node8</title>
<path fill="none" stroke="#63b8ff" d="M2854.85,-315.65C2864,-307.38 2876.14,-294.4 2881.41,-280 2897.16,-236.92 2927.75,-210.98 2859.41,-136 2818.73,-91.37 2784.12,-123.28 2728.41,-100 2728.06,-99.85 2727.7,-99.7 2727.35,-99.55"/>
<polygon fill="#63b8ff" stroke="#63b8ff" points="2729.05,-96.49 2718.55,-95.08 2725.88,-102.73 2729.05,-96.49"/>
</g>
<!-- Node71&#45;&gt;Node7 -->
<g id="edge97" class="edge">
<title>Node71&#45;&gt;Node7</title>
<path fill="none" stroke="#63b8ff" d="M1884.28,-318.39C1704.32,-292.93 1069.09,-201 1041.41,-168 992.17,-109.32 1086.89,-84.77 1129.41,-68 1223.7,-30.82 1539.3,-20.19 1641.89,-17.68"/>
<polygon fill="#63b8ff" stroke="#63b8ff" points="1641.88,-21.18 1651.8,-17.45 1641.72,-14.18 1641.88,-21.18"/>
</g>
<!-- Node71&#45;&gt;Node8 -->
<g id="edge96" class="edge">
<title>Node71&#45;&gt;Node8</title>
<path fill="none" stroke="#63b8ff" d="M1961.63,-315.59C2085.44,-277.05 2552.99,-131.51 2673.79,-93.91"/>
<polygon fill="#63b8ff" stroke="#63b8ff" points="2674.72,-97.28 2683.23,-90.97 2672.64,-90.6 2674.72,-97.28"/>
</g>
<!-- Node71&#45;&gt;Node11 -->
<g id="edge100" class="edge">
<title>Node71&#45;&gt;Node11</title>
<path fill="none" stroke="#63b8ff" d="M1935.85,-315.79C1950.69,-285.89 2001.5,-190.29 2069.41,-136 2128.8,-88.52 2153.32,-88.99 2226.41,-68 2321.16,-40.79 2435.36,-27.37 2503.25,-21.33"/>
<polygon fill="#63b8ff" stroke="#63b8ff" points="2503.39,-24.84 2513.05,-20.49 2502.79,-17.86 2503.39,-24.84"/>
</g>
<!-- Node71&#45;&gt;Node25 -->
<g id="edge99" class="edge">
<title>Node71&#45;&gt;Node25</title>
<path fill="none" stroke="#63b8ff" d="M1917.47,-315.67C1886.62,-294.06 1813.06,-237.12 1785.41,-168 1777.39,-147.96 1778.41,-122.97 1780.64,-105.67"/>
<polygon fill="#63b8ff" stroke="#63b8ff" points="1784.08,-106.3 1782.17,-95.88 1777.17,-105.22 1784.08,-106.3"/>
</g>
<!-- Node71&#45;&gt;Node29 -->
<g id="edge98" class="edge">
<title>Node71&#45;&gt;Node29</title>
<path fill="none" stroke="#63b8ff" d="M1978.47,-317.94C2045.9,-307.83 2169.57,-289.28 2239.56,-278.78"/>
<polygon fill="#63b8ff" stroke="#63b8ff" points="2239.86,-282.27 2249.23,-277.33 2238.82,-275.35 2239.86,-282.27"/>
</g>
<!-- Node73&#45;&gt;Node2 -->
<g id="edge102" class="edge">
<title>Node73&#45;&gt;Node2</title>
<path fill="none" stroke="#63b8ff" d="M1723.2,-489.7C1866.28,-478.92 2325.04,-442.5 2702.41,-392 2703.08,-391.91 2703.77,-391.82 2704.45,-391.72"/>
<polygon fill="#63b8ff" stroke="#63b8ff" points="2704.88,-395.2 2714.26,-390.28 2703.86,-388.27 2704.88,-395.2"/>
</g>
<!-- Node73&#45;&gt;Node11 -->
<g id="edge103" class="edge">
<title>Node73&#45;&gt;Node11</title>
<path fill="none" stroke="#63b8ff" d="M1633.58,-488.06C1555.37,-476.8 1395.47,-441.43 1323.41,-336 1251.22,-230.39 1313.25,-123.71 1428.41,-68 1525.41,-21.08 2284.37,-17.11 2503.41,-16.94"/>
<polygon fill="#63b8ff" stroke="#63b8ff" points="2503.13,-20.44 2513.13,-16.94 2503.13,-13.44 2503.13,-20.44"/>
</g>
<!-- Node73&#45;&gt;Node44 -->
<g id="edge104" class="edge">
<title>Node73&#45;&gt;Node44</title>
<path fill="none" stroke="#63b8ff" d="M1633.56,-493.73C1517.57,-494.93 1210.46,-493.6 1121.41,-448 1000.26,-385.97 913.78,-237.62 882.88,-178.22"/>
<polygon fill="#63b8ff" stroke="#63b8ff" points="886.11,-176.87 878.45,-169.55 879.88,-180.05 886.11,-176.87"/>
</g>
<!-- Node73&#45;&gt;Node74 -->
<g id="edge105" class="edge">
<title>Node73&#45;&gt;Node74</title>
<path fill="none" stroke="#63b8ff" d="M1633.92,-492.21C1513.99,-489.68 1186.16,-479.95 1083.41,-448 924.14,-398.48 760.21,-276.11 703.86,-231.56"/>
<polygon fill="#63b8ff" stroke="#63b8ff" points="706.08,-228.86 696.08,-225.36 701.71,-234.33 706.08,-228.86"/>
</g>
<!-- Node80 -->
<g id="node38" class="node">
<title>Node80</title>
<g id="a_node38"><a xlink:href="FMTvertexproperties_8hpp.html" target="_top" xlink:title=" ">
<polygon fill="#fff0f0" stroke="red" points="1494.66,-336 1372.16,-336 1372.16,-316 1494.66,-316 1494.66,-336"/>
<text text-anchor="middle" x="1433.41" y="-322.5" font-family="Helvetica,sans-Serif" font-size="10.00">FMTvertexproperties.hpp</text>
</a>
</g>
</g>
<!-- Node73&#45;&gt;Node80 -->
<g id="edge124" class="edge">
<title>Node73&#45;&gt;Node80</title>
<path fill="none" stroke="#63b8ff" d="M1633.67,-490.22C1596.9,-485.95 1545.09,-475.16 1508.41,-448 1473.11,-421.87 1450.68,-373.71 1440.26,-346.7"/>
<polygon fill="#63b8ff" stroke="#63b8ff" points="1443.67,-345.84 1436.94,-337.66 1437.1,-348.25 1443.67,-345.84"/>
</g>
<!-- Node83 -->
<g id="node39" class="node">
<title>Node83</title>
<g id="a_node39"><a xlink:href="FMTedgeproperties_8hpp.html" target="_top" xlink:title=" ">
<polygon fill="#fff0f0" stroke="red" points="3526.41,-162 3408.41,-162 3408.41,-142 3526.41,-142 3526.41,-162"/>
<text text-anchor="middle" x="3467.41" y="-148.5" font-family="Helvetica,sans-Serif" font-size="10.00">FMTedgeproperties.hpp</text>
</a>
</g>
</g>
<!-- Node73&#45;&gt;Node83 -->
<g id="edge127" class="edge">
<title>Node73&#45;&gt;Node83</title>
<path fill="none" stroke="#63b8ff" d="M1723.25,-491.23C1999.3,-480.06 3456.41,-416.81 3456.41,-327 3456.41,-327 3456.41,-327 3456.41,-269 3456.41,-235.38 3461.04,-196.51 3464.3,-173.39"/>
<polygon fill="#63b8ff" stroke="#63b8ff" points="3467.72,-174.19 3465.7,-163.79 3460.79,-173.18 3467.72,-174.19"/>
</g>
<!-- Node85 -->
<g id="node40" class="node">
<title>Node85</title>
<g id="a_node40"><a xlink:href="FMTgraph_8hpp.html" target="_top" xlink:title=" ">
<polygon fill="#fff0f0" stroke="red" points="2140.53,-448 2062.28,-448 2062.28,-428 2140.53,-428 2140.53,-448"/>
<text text-anchor="middle" x="2101.41" y="-434.5" font-family="Helvetica,sans-Serif" font-size="10.00">FMTgraph.hpp</text>
</a>
</g>
</g>
<!-- Node73&#45;&gt;Node85 -->
<g id="edge132" class="edge">
<title>Node73&#45;&gt;Node85</title>
<path fill="none" stroke="#63b8ff" d="M1723.27,-487.27C1802.68,-477.14 1967.41,-456.11 2050.76,-445.47"/>
<polygon fill="#63b8ff" stroke="#63b8ff" points="2050.98,-448.97 2060.46,-444.23 2050.1,-442.02 2050.98,-448.97"/>
</g>
<!-- Node74&#45;&gt;Node11 -->
<g id="edge117" class="edge">
<title>Node74&#45;&gt;Node11</title>
<path fill="none" stroke="#63b8ff" d="M706.55,-203.57C725.68,-195.33 753.21,-182.46 775.41,-168 793.91,-155.95 793.32,-145.18 813.41,-136 989,-55.78 1050.28,-86.87 1242.41,-68 1727.57,-20.35 2317.12,-16.67 2503.21,-16.79"/>
<polygon fill="#63b8ff" stroke="#63b8ff" points="2503.1,-20.29 2513.1,-16.8 2503.11,-13.29 2503.1,-20.29"/>
</g>
<!-- Node74&#45;&gt;Node13 -->
<g id="edge112" class="edge">
<title>Node74&#45;&gt;Node13</title>
<path fill="none" stroke="#63b8ff" d="M726.93,-212.85C921.28,-211.97 1711,-206.07 1955.41,-168 2007.4,-159.9 2018.37,-148.81 2069.41,-136 2128.04,-121.28 2195.65,-106.56 2242.31,-96.74"/>
<polygon fill="#63b8ff" stroke="#63b8ff" points="2242.86,-100.2 2251.93,-94.73 2241.42,-93.35 2242.86,-100.2"/>
</g>
<!-- Node74&#45;&gt;Node22 -->
<g id="edge115" class="edge">
<title>Node74&#45;&gt;Node22</title>
<path fill="none" stroke="#63b8ff" d="M664.26,-203.52C651.22,-195.9 635.01,-183.86 627.41,-168 621.26,-155.17 620.31,-148.33 627.41,-136 660.81,-77.98 734.56,-45.64 783.87,-29.78"/>
<polygon fill="#63b8ff" stroke="#63b8ff" points="784.65,-33.2 793.17,-26.9 782.58,-26.51 784.65,-33.2"/>
</g>
<!-- Node74&#45;&gt;Node20 -->
<g id="edge114" class="edge">
<title>Node74&#45;&gt;Node20</title>
<path fill="none" stroke="#63b8ff" d="M639.84,-210.92C546.29,-206.01 332.9,-192.25 311.41,-168 273.81,-125.58 337.2,-62.94 372.38,-33.47"/>
<polygon fill="#63b8ff" stroke="#63b8ff" points="374.33,-36.39 379.87,-27.36 369.91,-30.97 374.33,-36.39"/>
</g>
<!-- Node74&#45;&gt;Node25 -->
<g id="edge113" class="edge">
<title>Node74&#45;&gt;Node25</title>
<path fill="none" stroke="#63b8ff" d="M726.96,-209.47C811.05,-202.52 1001.56,-186.16 1161.41,-168 1373.8,-143.86 1625.96,-108.06 1732.65,-92.58"/>
<polygon fill="#63b8ff" stroke="#63b8ff" points="1733.13,-96.05 1742.52,-91.15 1732.12,-89.12 1733.13,-96.05"/>
</g>
<!-- Node74&#45;&gt;Node44 -->
<g id="edge116" class="edge">
<title>Node74&#45;&gt;Node44</title>
<path fill="none" stroke="#63b8ff" d="M712.63,-203.62C738.93,-195.19 778.38,-182.53 811.26,-171.98"/>
<polygon fill="#63b8ff" stroke="#63b8ff" points="812.23,-175.34 820.69,-168.95 810.1,-168.68 812.23,-175.34"/>
</g>
<!-- Node74&#45;&gt;Node75 -->
<g id="edge106" class="edge">
<title>Node74&#45;&gt;Node75</title>
<path fill="none" stroke="#63b8ff" d="M639.95,-208.59C538.36,-198.27 284.64,-172.52 161.55,-160.02"/>
<polygon fill="#63b8ff" stroke="#63b8ff" points="162.22,-156.57 151.92,-159.04 161.52,-163.53 162.22,-156.57"/>
</g>
<!-- Node76 -->
<g id="node34" class="node">
<title>Node76</title>
<g id="a_node34"><a xlink:href="FMTmatrixbuild_8hpp.html" target="_top" xlink:title=" ">
<polygon fill="#fff0f0" stroke="red" points="1152.16,-162 1050.66,-162 1050.66,-142 1152.16,-142 1152.16,-162"/>
<text text-anchor="middle" x="1101.41" y="-148.5" font-family="Helvetica,sans-Serif" font-size="10.00">FMTmatrixbuild.hpp</text>
</a>
</g>
</g>
<!-- Node74&#45;&gt;Node76 -->
<g id="edge107" class="edge">
<title>Node74&#45;&gt;Node76</title>
<path fill="none" stroke="#63b8ff" d="M726.96,-206.75C801.32,-196.07 953.05,-174.29 1038.78,-161.99"/>
<polygon fill="#63b8ff" stroke="#63b8ff" points="1039.28,-165.45 1048.68,-160.57 1038.28,-158.53 1039.28,-165.45"/>
</g>
<!-- Node77 -->
<g id="node35" class="node">
<title>Node77</title>
<g id="a_node35"><a xlink:title=" ">
<polygon fill="#e0e0e0" stroke="#999999" points="422.53,-168 320.28,-168 320.28,-136 422.53,-136 422.53,-168"/>
<text text-anchor="start" x="328.28" y="-154.5" font-family="Helvetica,sans-Serif" font-size="10.00">boost/archive/binary</text>
<text text-anchor="middle" x="371.41" y="-142.5" font-family="Helvetica,sans-Serif" font-size="10.00">_oarchive.hpp</text>
</a>
</g>
</g>
<!-- Node74&#45;&gt;Node77 -->
<g id="edge118" class="edge">
<title>Node74&#45;&gt;Node77</title>
<path fill="none" stroke="#63b8ff" d="M639.98,-206.17C591.88,-198.4 511.8,-184.87 433.74,-168.42"/>
<polygon fill="#63b8ff" stroke="#63b8ff" points="434.73,-165.05 424.22,-166.39 433.27,-171.9 434.73,-165.05"/>
</g>
<!-- Node78 -->
<g id="node36" class="node">
<title>Node78</title>
<g id="a_node36"><a xlink:title=" ">
<polygon fill="#e0e0e0" stroke="#999999" points="542.53,-168 440.28,-168 440.28,-136 542.53,-136 542.53,-168"/>
<text text-anchor="start" x="448.28" y="-154.5" font-family="Helvetica,sans-Serif" font-size="10.00">boost/archive/binary</text>
<text text-anchor="middle" x="491.41" y="-142.5" font-family="Helvetica,sans-Serif" font-size="10.00">_iarchive.hpp</text>
</a>
</g>
</g>
<!-- Node74&#45;&gt;Node78 -->
<g id="edge119" class="edge">
<title>Node74&#45;&gt;Node78</title>
<path fill="none" stroke="#63b8ff" d="M653.41,-203.62C626.28,-195.15 585.54,-182.42 551.7,-171.84"/>
<polygon fill="#63b8ff" stroke="#63b8ff" points="553.01,-168.58 542.42,-168.94 550.92,-175.27 553.01,-168.58"/>
</g>
<!-- Node79 -->
<g id="node37" class="node">
<title>Node79</title>
<g id="a_node37"><a xlink:href="FMTserializablematrix_8hpp.html" target="_top" xlink:title=" ">
<polygon fill="#fff0f0" stroke="red" points="766.41,-162 636.41,-162 636.41,-142 766.41,-142 766.41,-162"/>
<text text-anchor="middle" x="701.41" y="-148.5" font-family="Helvetica,sans-Serif" font-size="10.00">FMTserializablematrix.hpp</text>
</a>
</g>
</g>
<!-- Node74&#45;&gt;Node79 -->
<g id="edge120" class="edge">
<title>Node74&#45;&gt;Node79</title>
<path fill="none" stroke="#63b8ff" d="M686.22,-203.62C688.66,-195.48 692.29,-183.39 695.38,-173.07"/>
<polygon fill="#63b8ff" stroke="#63b8ff" points="698.72,-174.15 698.24,-163.56 692.01,-172.13 698.72,-174.15"/>
</g>
<!-- Node76&#45;&gt;Node6 -->
<g id="edge109" class="edge">
<title>Node76&#45;&gt;Node6</title>
<path fill="none" stroke="#63b8ff" d="M1152.3,-150.04C1419.45,-144.91 2650.41,-120.28 2728.41,-100 2729.59,-99.69 2730.77,-99.33 2731.96,-98.93"/>
<polygon fill="#63b8ff" stroke="#63b8ff" points="2733.11,-102.24 2740.88,-95.04 2730.31,-95.83 2733.11,-102.24"/>
</g>
<!-- Node76&#45;&gt;Node7 -->
<g id="edge108" class="edge">
<title>Node76&#45;&gt;Node7</title>
<path fill="none" stroke="#63b8ff" d="M1105.52,-141.77C1114.01,-123.96 1135.3,-85.12 1166.41,-68 1248.77,-22.66 1543.5,-17.44 1642.05,-16.99"/>
<polygon fill="#63b8ff" stroke="#63b8ff" points="1641.83,-20.49 1651.81,-16.96 1641.8,-13.49 1641.83,-20.49"/>
</g>
<!-- Node76&#45;&gt;Node20 -->
<g id="edge110" class="edge">
<title>Node76&#45;&gt;Node20</title>
<path fill="none" stroke="#63b8ff" d="M1051.34,-141.52C916.74,-116.05 549.29,-46.5 430.79,-24.07"/>
<polygon fill="#63b8ff" stroke="#63b8ff" points="431.44,-20.64 420.96,-22.22 430.14,-27.51 431.44,-20.64"/>
</g>
<!-- Node76&#45;&gt;Node25 -->
<g id="edge111" class="edge">
<title>Node76&#45;&gt;Node25</title>
<path fill="none" stroke="#63b8ff" d="M1152.46,-146.07C1278.9,-133.85 1605.49,-102.29 1732.66,-90"/>
<polygon fill="#63b8ff" stroke="#63b8ff" points="1732.85,-93.5 1742.46,-89.05 1732.17,-86.53 1732.85,-93.5"/>
</g>
<!-- Node79&#45;&gt;Node7 -->
<g id="edge122" class="edge">
<title>Node79&#45;&gt;Node7</title>
<path fill="none" stroke="#63b8ff" d="M721.56,-141.6C761.03,-123.69 851.7,-84.93 932.41,-68 1071.06,-38.91 1517.22,-22.22 1641.82,-18.04"/>
<polygon fill="#63b8ff" stroke="#63b8ff" points="1641.78,-21.55 1651.66,-17.72 1641.55,-14.55 1641.78,-21.55"/>
</g>
<!-- Node79&#45;&gt;Node20 -->
<g id="edge121" class="edge">
<title>Node79&#45;&gt;Node20</title>
<path fill="none" stroke="#63b8ff" d="M679.75,-141.58C626.4,-118.37 488.44,-58.34 425.53,-30.97"/>
<polygon fill="#63b8ff" stroke="#63b8ff" points="426.99,-27.8 416.43,-27.02 424.2,-34.21 426.99,-27.8"/>
</g>
<!-- Node79&#45;&gt;Node46 -->
<g id="edge123" class="edge">
<title>Node79&#45;&gt;Node46</title>
<path fill="none" stroke="#63b8ff" d="M766.77,-141.6C782.06,-139.59 798.29,-137.59 813.41,-136 1039.14,-112.32 1308.71,-95.21 1425.57,-88.34"/>
<polygon fill="#63b8ff" stroke="#63b8ff" points="1425.44,-91.85 1435.22,-87.77 1425.03,-84.86 1425.44,-91.85"/>
</g>
<!-- Node80&#45;&gt;Node5 -->
<g id="edge125" class="edge">
<title>Node80&#45;&gt;Node5</title>
<path fill="none" stroke="#63b8ff" d="M1494.9,-323.73C1580.28,-321.97 1739.58,-318.71 1875.41,-316 2285.63,-307.82 3313.75,-326.47 3721.41,-280 3978.63,-250.68 4133.07,-316.25 4275.41,-100 4308.48,-49.76 4214.99,-29.61 4149.15,-21.76"/>
<polygon fill="#63b8ff" stroke="#63b8ff" points="4149.86,-18.32 4139.54,-20.69 4149.09,-25.28 4149.86,-18.32"/>
</g>
<!-- Node80&#45;&gt;Node20 -->
<g id="edge126" class="edge">
<title>Node80&#45;&gt;Node20</title>
<path fill="none" stroke="#63b8ff" d="M1371.98,-320.72C1146.83,-304.86 377.48,-249.06 331.41,-224 268.72,-189.91 253.49,-127.15 293.41,-68 307.95,-46.44 334.51,-33.5 356.6,-26.05"/>
<polygon fill="#63b8ff" stroke="#63b8ff" points="357.37,-29.48 365.89,-23.18 355.3,-22.79 357.37,-29.48"/>
</g>
<!-- Node83&#45;&gt;Node5 -->
<g id="edge128" class="edge">
<title>Node83&#45;&gt;Node5</title>
<path fill="none" stroke="#63b8ff" d="M3526.83,-147.92C3604.89,-142.84 3745.74,-130.08 3862.41,-100 3899.89,-90.34 3907.11,-81.46 3943.41,-68 3973.03,-57.01 4006.28,-45.42 4033.65,-36.07"/>
<polygon fill="#63b8ff" stroke="#63b8ff" points="4034.44,-39.49 4042.78,-32.96 4032.19,-32.87 4034.44,-39.49"/>
</g>
<!-- Node83&#45;&gt;Node6 -->
<g id="edge131" class="edge">
<title>Node83&#45;&gt;Node6</title>
<path fill="none" stroke="#63b8ff" d="M3408.09,-145.49C3263.86,-132.08 2898.56,-98.12 2788.96,-87.93"/>
<polygon fill="#63b8ff" stroke="#63b8ff" points="2789.53,-84.47 2779.25,-87.03 2788.88,-91.44 2789.53,-84.47"/>
</g>
<!-- Node83&#45;&gt;Node7 -->
<g id="edge130" class="edge">
<title>Node83&#45;&gt;Node7</title>
<path fill="none" stroke="#63b8ff" d="M3449.53,-141.61C3413.69,-123.35 3330.03,-83.48 3254.41,-68 3175.9,-51.93 1925.24,-22.73 1706.82,-17.73"/>
<polygon fill="#63b8ff" stroke="#63b8ff" points="1707.15,-14.24 1697.07,-17.51 1706.99,-21.24 1707.15,-14.24"/>
</g>
<!-- Node83&#45;&gt;Node9 -->
<g id="edge129" class="edge">
<title>Node83&#45;&gt;Node9</title>
<path fill="none" stroke="#63b8ff" d="M3474.97,-141.79C3491.86,-121.21 3533.11,-70.96 3557.81,-40.87"/>
<polygon fill="#63b8ff" stroke="#63b8ff" points="3560.3,-43.36 3563.94,-33.41 3554.88,-38.92 3560.3,-43.36"/>
</g>
<!-- Node85&#45;&gt;Node2 -->
<g id="edge148" class="edge">
<title>Node85&#45;&gt;Node2</title>
<path fill="none" stroke="#63b8ff" d="M2140.9,-435.28C2237.18,-430.82 2491.53,-417.42 2702.41,-392 2703.09,-391.92 2703.77,-391.83 2704.45,-391.75"/>
<polygon fill="#63b8ff" stroke="#63b8ff" points="2704.85,-395.23 2714.27,-390.38 2703.89,-388.29 2704.85,-395.23"/>
</g>
<!-- Node85&#45;&gt;Node3 -->
<g id="edge150" class="edge">
<title>Node85&#45;&gt;Node3</title>
<path fill="none" stroke="#63b8ff" d="M2140.69,-435.84C2272.07,-431.76 2695.42,-416.95 2829.41,-392 2910.52,-376.9 2931.55,-370.7 3006.41,-336 3077.14,-303.22 3106.24,-293.58 3141.41,-224 3149.48,-208.02 3154.12,-188.15 3156.66,-173.5"/>
<polygon fill="#63b8ff" stroke="#63b8ff" points="3160.11,-174.1 3158.15,-163.69 3153.19,-173.04 3160.11,-174.1"/>
</g>
<!-- Node85&#45;&gt;Node7 -->
<g id="edge146" class="edge">
<title>Node85&#45;&gt;Node7</title>
<path fill="none" stroke="#63b8ff" d="M2061.98,-435.91C1961.24,-432.71 1696.57,-421.64 1614.41,-392 1558.17,-371.71 1557.65,-341.15 1503.41,-316 1452.87,-292.57 1055.86,-213.98 1024.41,-168 1004.83,-139.39 1047.9,-70.59 1051.41,-68 1099.16,-32.65 1521.06,-20.46 1642.09,-17.67"/>
<polygon fill="#63b8ff" stroke="#63b8ff" points="1642.03,-21.18 1651.95,-17.45 1641.87,-14.18 1642.03,-21.18"/>
</g>
<!-- Node85&#45;&gt;Node8 -->
<g id="edge145" class="edge">
<title>Node85&#45;&gt;Node8</title>
<path fill="none" stroke="#63b8ff" d="M2140.81,-434.21C2246.67,-424.67 2540.42,-384.34 2706.41,-224 2735.48,-195.91 2739.15,-175.23 2729.41,-136 2726.59,-124.68 2720.76,-113.11 2715.22,-103.85"/>
<polygon fill="#63b8ff" stroke="#63b8ff" points="2718.21,-102.03 2709.89,-95.48 2712.31,-105.8 2718.21,-102.03"/>
</g>
<!-- Node85&#45;&gt;Node11 -->
<g id="edge142" class="edge">
<title>Node85&#45;&gt;Node11</title>
<path fill="none" stroke="#63b8ff" d="M2061.89,-433.27C1989.39,-424.43 1845.22,-396.54 1875.41,-316 1929.79,-170.92 1976.89,-126.39 2120.41,-68 2188.51,-40.29 2399.73,-25.59 2503.57,-19.87"/>
<polygon fill="#63b8ff" stroke="#63b8ff" points="2503.47,-23.38 2513.27,-19.35 2503.1,-16.4 2503.47,-23.38"/>
</g>
<!-- Node85&#45;&gt;Node13 -->
<g id="edge152" class="edge">
<title>Node85&#45;&gt;Node13</title>
<path fill="none" stroke="#63b8ff" d="M2113.96,-427.63C2135.54,-410.33 2177.41,-371.1 2177.41,-327 2177.41,-327 2177.41,-327 2177.41,-269 2177.41,-205.53 2190.65,-186.26 2229.41,-136 2240.64,-121.44 2257.12,-109.15 2271.26,-100.28"/>
<polygon fill="#63b8ff" stroke="#63b8ff" points="2272.95,-103.35 2279.75,-95.23 2269.36,-97.34 2272.95,-103.35"/>
</g>
<!-- Node85&#45;&gt;Node22 -->
<g id="edge144" class="edge">
<title>Node85&#45;&gt;Node22</title>
<path fill="none" stroke="#63b8ff" d="M2062.07,-436.23C1957.3,-433.79 1662.93,-424.36 1420.41,-392 1295.8,-375.37 391.01,-265.29 311.41,-168 249.13,-91.89 635.2,-39.47 779.55,-22.74"/>
<polygon fill="#63b8ff" stroke="#63b8ff" points="779.69,-26.24 789.22,-21.63 778.89,-19.29 779.69,-26.24"/>
</g>
<!-- Node85&#45;&gt;Node20 -->
<g id="edge143" class="edge">
<title>Node85&#45;&gt;Node20</title>
<path fill="none" stroke="#63b8ff" d="M2061.85,-436.14C1942.07,-433.28 1572.84,-422.42 1268.41,-392 1198.59,-385.02 69.82,-222.33 25.41,-168 -67.26,-54.64 246,-25.48 356.36,-18.8"/>
<polygon fill="#63b8ff" stroke="#63b8ff" points="356.29,-22.31 366.07,-18.24 355.89,-15.32 356.29,-22.31"/>
</g>
<!-- Node85&#45;&gt;Node25 -->
<g id="edge151" class="edge">
<title>Node85&#45;&gt;Node25</title>
<path fill="none" stroke="#63b8ff" d="M2061.84,-435.33C1959.5,-430.69 1691.81,-416.34 1660.41,-392 1636.07,-373.13 1636.41,-357.8 1636.41,-327 1636.41,-327 1636.41,-327 1636.41,-213 1636.41,-154.91 1702.45,-117.31 1746.3,-98.75"/>
<polygon fill="#63b8ff" stroke="#63b8ff" points="1747.56,-102.01 1755.51,-95.01 1744.93,-95.53 1747.56,-102.01"/>
</g>
<!-- Node85&#45;&gt;Node29 -->
<g id="edge149" class="edge">
<title>Node85&#45;&gt;Node29</title>
<path fill="none" stroke="#63b8ff" d="M2127.1,-427.53C2146.06,-419.77 2171.86,-407.55 2191.41,-392 2229.27,-361.88 2262.71,-315.34 2279.66,-289.64"/>
<polygon fill="#63b8ff" stroke="#63b8ff" points="2282.38,-291.88 2284.87,-281.58 2276.5,-288.08 2282.38,-291.88"/>
</g>
<!-- Node85&#45;&gt;Node44 -->
<g id="edge139" class="edge">
<title>Node85&#45;&gt;Node44</title>
<path fill="none" stroke="#63b8ff" d="M2061.98,-435.69C1945.67,-431.58 1605.34,-417.62 1497.41,-392 1284.52,-341.46 1248.68,-276.98 1042.41,-204 1005.47,-190.93 963.31,-178.4 929.97,-169.02"/>
<polygon fill="#63b8ff" stroke="#63b8ff" points="931.06,-165.69 920.49,-166.37 929.18,-172.43 931.06,-165.69"/>
</g>
<!-- Node85&#45;&gt;Node45 -->
<g id="edge140" class="edge">
<title>Node85&#45;&gt;Node45</title>
<path fill="none" stroke="#63b8ff" d="M2101.41,-427.58C2101.41,-408.57 2101.41,-364.24 2101.41,-327 2101.41,-327 2101.41,-327 2101.41,-269 2101.41,-237.39 2111.67,-202.34 2119.98,-179.13"/>
<polygon fill="#63b8ff" stroke="#63b8ff" points="2123.22,-180.46 2123.44,-169.87 2116.66,-178.01 2123.22,-180.46"/>
</g>
<!-- Node85&#45;&gt;Node46 -->
<g id="edge141" class="edge">
<title>Node85&#45;&gt;Node46</title>
<path fill="none" stroke="#63b8ff" d="M2061.99,-437.66C1963.38,-438.6 1708.98,-436.53 1639.41,-392 1590.84,-360.91 1531.15,-220.99 1508.41,-168 1500.55,-149.7 1494.39,-128.05 1490.28,-111.46"/>
<polygon fill="#63b8ff" stroke="#63b8ff" points="1493.71,-110.78 1488,-101.86 1486.9,-112.4 1493.71,-110.78"/>
</g>
<!-- Node85&#45;&gt;Node61 -->
<g id="edge136" class="edge">
<title>Node85&#45;&gt;Node61</title>
<path fill="none" stroke="#63b8ff" d="M2140.98,-436.13C2303.36,-432.11 2934.25,-412.18 3446.41,-336 3579.7,-316.17 3633.6,-356.7 3744.41,-280 3800.11,-241.44 3799.67,-203.54 3794.41,-136 3793.62,-125.93 3791.98,-114.83 3790.38,-105.57"/>
<polygon fill="#63b8ff" stroke="#63b8ff" points="3793.84,-105.04 3788.59,-95.84 3786.96,-106.3 3793.84,-105.04"/>
</g>
<!-- Node85&#45;&gt;Node66 -->
<g id="edge138" class="edge">
<title>Node85&#45;&gt;Node66</title>
<path fill="none" stroke="#63b8ff" d="M2125.68,-427.62C2148.98,-418.59 2185.15,-404.5 2216.41,-392 2366.3,-332.04 2544.51,-258.47 2616.66,-228.58"/>
<polygon fill="#63b8ff" stroke="#63b8ff" points="2617.62,-231.97 2625.52,-224.91 2614.94,-225.51 2617.62,-231.97"/>
</g>
<!-- Node85&#45;&gt;Node70 -->
<g id="edge135" class="edge">
<title>Node85&#45;&gt;Node70</title>
<path fill="none" stroke="#63b8ff" d="M2141.02,-436.62C2281.26,-434.98 2748.8,-426.93 2805.41,-392 2821.73,-381.93 2831.83,-362.04 2837.47,-346.9"/>
<polygon fill="#63b8ff" stroke="#63b8ff" points="2840.77,-348.09 2840.6,-337.49 2834.12,-345.88 2840.77,-348.09"/>
</g>
<!-- Node85&#45;&gt;Node71 -->
<g id="edge137" class="edge">
<title>Node85&#45;&gt;Node71</title>
<path fill="none" stroke="#63b8ff" d="M2086.91,-427.62C2057.56,-408.63 1990.83,-365.45 1955.07,-342.31"/>
<polygon fill="#63b8ff" stroke="#63b8ff" points="1957.43,-339.67 1947.13,-337.18 1953.63,-345.55 1957.43,-339.67"/>
</g>
<!-- Node85&#45;&gt;Node80 -->
<g id="edge133" class="edge">
<title>Node85&#45;&gt;Node80</title>
<path fill="none" stroke="#63b8ff" d="M2061.91,-436.04C1951.75,-433.01 1642.87,-421.99 1546.41,-392 1511.89,-381.27 1476.46,-358.63 1454.69,-343.12"/>
<polygon fill="#63b8ff" stroke="#63b8ff" points="1456.8,-340.32 1446.66,-337.25 1452.67,-345.97 1456.8,-340.32"/>
</g>
<!-- Node85&#45;&gt;Node83 -->
<g id="edge134" class="edge">
<title>Node85&#45;&gt;Node83</title>
<path fill="none" stroke="#63b8ff" d="M2140.99,-436.26C2279.69,-433.43 2743.13,-421.89 2888.41,-392 2959.74,-377.32 2974.71,-362.86 3042.41,-336 3191.61,-276.81 3366.81,-198.53 3436.53,-167.02"/>
<polygon fill="#63b8ff" stroke="#63b8ff" points="3437.75,-170.31 3445.42,-163 3434.87,-163.94 3437.75,-170.31"/>
</g>
<!-- Node100 -->
<g id="node41" class="node">
<title>Node100</title>
<g id="a_node41"><a xlink:title=" ">
<polygon fill="#e0e0e0" stroke="#999999" points="3532.53,-392 3484.28,-392 3484.28,-372 3532.53,-372 3532.53,-392"/>
<text text-anchor="middle" x="3508.41" y="-378.5" font-family="Helvetica,sans-Serif" font-size="10.00">random</text>
</a>
</g>
</g>
<!-- Node85&#45;&gt;Node100 -->
<g id="edge147" class="edge">
<title>Node85&#45;&gt;Node100</title>
<path fill="none" stroke="#63b8ff" d="M2140.94,-436.88C2301.86,-436.12 2923.19,-430.69 3432.41,-392 3445.59,-391 3460.01,-389.41 3472.72,-387.85"/>
<polygon fill="#63b8ff" stroke="#63b8ff" points="3472.83,-391.37 3482.31,-386.63 3471.95,-384.42 3472.83,-391.37"/>
</g>
<!-- Node106&#45;&gt;Node11 -->
<g id="edge155" class="edge">
<title>Node106&#45;&gt;Node11</title>
<path fill="none" stroke="#63b8ff" d="M1055.12,-539.63C1046.28,-518.95 1027.93,-468.06 1041.41,-428 1079.61,-314.46 1324.59,-89.13 1372.41,-68 1476.28,-22.09 2278.17,-17.42 2503.62,-17.02"/>
<polygon fill="#63b8ff" stroke="#63b8ff" points="2503.34,-20.52 2513.33,-17 2503.33,-13.52 2503.34,-20.52"/>
</g>
<!-- Node106&#45;&gt;Node44 -->
<g id="edge156" class="edge">
<title>Node106&#45;&gt;Node44</title>
<path fill="none" stroke="#63b8ff" d="M1015.13,-545.56C950.33,-539.83 833.51,-526.66 798.41,-504 769.1,-485.08 754.41,-473.89 754.41,-439 754.41,-439 754.41,-439 754.41,-269 754.41,-226.15 794.46,-193.61 827.5,-174.05"/>
<polygon fill="#63b8ff" stroke="#63b8ff" points="829.18,-177.12 836.16,-169.15 825.73,-171.03 829.18,-177.12"/>
</g>
<!-- Node106&#45;&gt;Node45 -->
<g id="edge157" class="edge">
<title>Node106&#45;&gt;Node45</title>
<path fill="none" stroke="#63b8ff" d="M1068.33,-539.62C1102.7,-504.13 1231.14,-376.93 1363.41,-316 1490.27,-257.56 1906.55,-188.08 2066.77,-162.8"/>
<polygon fill="#63b8ff" stroke="#63b8ff" points="2067.03,-166.31 2076.36,-161.3 2065.94,-159.39 2067.03,-166.31"/>
</g>
<!-- Node106&#45;&gt;Node46 -->
<g id="edge158" class="edge">
<title>Node106&#45;&gt;Node46</title>
<path fill="none" stroke="#63b8ff" d="M1059.73,-539.81C1061.08,-512.33 1067.95,-429.14 1102.41,-372 1143.3,-304.19 1302.76,-178.77 1369.41,-136 1388.41,-123.8 1410.83,-113.13 1430.8,-104.75"/>
<polygon fill="#63b8ff" stroke="#63b8ff" points="1431.97,-108.06 1439.9,-101.03 1429.32,-101.58 1431.97,-108.06"/>
</g>
<!-- Node106&#45;&gt;Node52 -->
<g id="edge159" class="edge">
<title>Node106&#45;&gt;Node52</title>
<path fill="none" stroke="#63b8ff" d="M1067.81,-539.98C1101.25,-504.68 1229.56,-375.04 1363.41,-316 1406.16,-297.14 2145.6,-177.22 2191.41,-168 2203.2,-165.63 2216.11,-162.79 2227.42,-160.23"/>
<polygon fill="#63b8ff" stroke="#63b8ff" points="2228.08,-163.67 2237.04,-158.03 2226.52,-156.85 2228.08,-163.67"/>
</g>
<!-- Node106&#45;&gt;Node73 -->
<g id="edge154" class="edge">
<title>Node106&#45;&gt;Node73</title>
<path fill="none" stroke="#63b8ff" d="M1103.43,-545.16C1213.53,-535.55 1500.74,-510.5 1622.52,-499.88"/>
<polygon fill="#63b8ff" stroke="#63b8ff" points="1622.61,-503.38 1632.27,-499.02 1622.01,-496.41 1622.61,-503.38"/>
</g>
<!-- Node107&#45;&gt;Node2 -->
<g id="edge161" class="edge">
<title>Node107&#45;&gt;Node2</title>
<path fill="none" stroke="#63b8ff" d="M3925.63,-434.97C3735.6,-426.52 3009.51,-394.25 2808.34,-385.31"/>
<polygon fill="#63b8ff" stroke="#63b8ff" points="2808.61,-381.82 2798.47,-384.87 2808.3,-388.81 2808.61,-381.82"/>
</g>
<!-- Node107&#45;&gt;Node5 -->
<g id="edge164" class="edge">
<title>Node107&#45;&gt;Node5</title>
<path fill="none" stroke="#63b8ff" d="M4017.3,-436.12C4093.48,-433.73 4241.55,-424.86 4280.41,-392 4343.51,-338.64 4337.41,-297.65 4337.41,-215 4337.41,-215 4337.41,-215 4337.41,-151 4337.41,-109.04 4325.54,-93.75 4292.41,-68 4251.38,-36.11 4192.78,-23.95 4149.26,-19.42"/>
<polygon fill="#63b8ff" stroke="#63b8ff" points="4149.76,-15.95 4139.48,-18.52 4149.12,-22.93 4149.76,-15.95"/>
</g>
<!-- Node107&#45;&gt;Node9 -->
<g id="edge165" class="edge">
<title>Node107&#45;&gt;Node9</title>
<path fill="none" stroke="#63b8ff" d="M4017.39,-428.44C4038.71,-422.04 4062.38,-410.98 4076.41,-392 4162.32,-275.72 4173.7,-138.38 4047.41,-68 3978.25,-29.46 3746.4,-20.04 3636.35,-17.74"/>
<polygon fill="#63b8ff" stroke="#63b8ff" points="3636.72,-14.25 3626.65,-17.55 3636.58,-21.25 3636.72,-14.25"/>
</g>
<!-- Node107&#45;&gt;Node11 -->
<g id="edge166" class="edge">
<title>Node107&#45;&gt;Node11</title>
<path fill="none" stroke="#63b8ff" d="M3971.55,-427.58C3971.83,-408.57 3972.41,-364.24 3972.41,-327 3972.41,-327 3972.41,-327 3972.41,-269 3972.41,-247.57 3721.07,-94.26 3629.41,-68 3532.57,-40.26 2831.55,-22.87 2621.64,-18.24"/>
<polygon fill="#63b8ff" stroke="#63b8ff" points="2621.86,-14.75 2611.78,-18.03 2621.7,-21.75 2621.86,-14.75"/>
</g>
<!-- Node107&#45;&gt;Node46 -->
<g id="edge163" class="edge">
<title>Node107&#45;&gt;Node46</title>
<path fill="none" stroke="#63b8ff" d="M3925.71,-436.07C3633.54,-429.97 2032.5,-394.05 1823.41,-336 1682.1,-296.77 1644.06,-270.74 1539.41,-168 1522.24,-151.15 1507.49,-128.1 1497.6,-110.57"/>
<polygon fill="#63b8ff" stroke="#63b8ff" points="1500.68,-108.9 1492.81,-101.8 1494.53,-112.25 1500.68,-108.9"/>
</g>
<!-- Node108 -->
<g id="node44" class="node">
<title>Node108</title>
<g id="a_node44"><a xlink:href="FMTspatialschedule_8hpp.html" target="_top" xlink:title=" ">
<polygon fill="#fff0f0" stroke="red" points="4271.28,-392 4149.53,-392 4149.53,-372 4271.28,-372 4271.28,-392"/>
<text text-anchor="middle" x="4210.41" y="-378.5" font-family="Helvetica,sans-Serif" font-size="10.00">FMTspatialschedule.hpp</text>
</a>
</g>
</g>
<!-- Node107&#45;&gt;Node108 -->
<g id="edge162" class="edge">
<title>Node107&#45;&gt;Node108</title>
<path fill="none" stroke="#63b8ff" d="M4013.31,-427.53C4053.37,-418.48 4113.94,-404.8 4157.35,-394.99"/>
<polygon fill="#63b8ff" stroke="#63b8ff" points="4158.09,-398.41 4167.07,-392.79 4156.55,-391.58 4158.09,-398.41"/>
</g>
<!-- Node118&#45;&gt;Node5 -->
<g id="edge170" class="edge">
<title>Node118&#45;&gt;Node5</title>
<path fill="none" stroke="#63b8ff" d="M3943.73,-492.44C4045.96,-490.58 4280.53,-482.56 4351.41,-448 4387.29,-430.5 4413.41,-422.92 4413.41,-383 4413.41,-383 4413.41,-383 4413.41,-151 4413.41,-112.6 4418.04,-93.58 4389.41,-68 4354.85,-37.13 4226.53,-24.6 4149.67,-19.79"/>
<polygon fill="#63b8ff" stroke="#63b8ff" points="4149.97,-16.3 4139.77,-19.19 4149.55,-23.29 4149.97,-16.3"/>
</g>
<!-- Node118&#45;&gt;Node9 -->
<g id="edge171" class="edge">
<title>Node118&#45;&gt;Node9</title>
<path fill="none" stroke="#63b8ff" d="M3943.92,-487.57C4037.93,-475.94 4239.3,-445.28 4280.41,-392 4285.84,-384.96 4282.76,-380.57 4280.41,-372 4237.75,-216.5 4225.23,-142.83 4082.41,-68 4006.28,-28.12 3753,-19.4 3636.71,-17.51"/>
<polygon fill="#63b8ff" stroke="#63b8ff" points="3636.79,-14.01 3626.74,-17.36 3636.68,-21.01 3636.79,-14.01"/>
</g>
<!-- Node118&#45;&gt;Node11 -->
<g id="edge172" class="edge">
<title>Node118&#45;&gt;Node11</title>
<path fill="none" stroke="#63b8ff" d="M3889.95,-483.65C3879.66,-465.1 3858.41,-422.09 3858.41,-383 3858.41,-383 3858.41,-383 3858.41,-269 3858.41,-228.88 3596.48,-80.65 3558.41,-68 3469.75,-38.55 2822.66,-22.51 2621.74,-18.2"/>
<polygon fill="#63b8ff" stroke="#63b8ff" points="2621.86,-14.7 2611.79,-17.99 2621.71,-21.7 2621.86,-14.7"/>
</g>
<!-- Node118&#45;&gt;Node46 -->
<g id="edge169" class="edge">
<title>Node118&#45;&gt;Node46</title>
<path fill="none" stroke="#63b8ff" d="M3847.09,-490.46C3807.43,-488.45 3749.79,-485.71 3699.41,-484 3467.65,-476.15 1812.01,-513.35 1614.41,-392 1514.53,-330.66 1491.32,-174.27 1485.98,-111.58"/>
<polygon fill="#63b8ff" stroke="#63b8ff" points="1489.49,-111.57 1485.25,-101.86 1482.51,-112.1 1489.49,-111.57"/>
</g>
<!-- Node118&#45;&gt;Node107 -->
<g id="edge168" class="edge">
<title>Node118&#45;&gt;Node107</title>
<path fill="none" stroke="#63b8ff" d="M3908.65,-483.59C3919.69,-475.74 3935.69,-464.38 3948.76,-455.09"/>
<polygon fill="#63b8ff" stroke="#63b8ff" points="3950.71,-458 3956.83,-449.36 3946.65,-452.3 3950.71,-458"/>
</g>
<!-- Node119&#45;&gt;Node5 -->
<g id="edge176" class="edge">
<title>Node119&#45;&gt;Node5</title>
<path fill="none" stroke="#63b8ff" d="M3537.77,-548.61C3732.85,-546.41 4451.41,-531.98 4451.41,-439 4451.41,-439 4451.41,-439 4451.41,-151 4451.41,-110.43 4445.73,-92.52 4413.41,-68 4372.86,-37.24 4230.64,-24.55 4149.08,-19.71"/>
<polygon fill="#63b8ff" stroke="#63b8ff" points="4149.68,-16.23 4139.5,-19.16 4149.28,-23.22 4149.68,-16.23"/>
</g>
<!-- Node119&#45;&gt;Node9 -->
<g id="edge177" class="edge">
<title>Node119&#45;&gt;Node9</title>
<path fill="none" stroke="#63b8ff" d="M3537.81,-540.5C3580.66,-532.54 3644.71,-519.54 3699.41,-504 3764.07,-485.63 3923,-426.98 3980.41,-392 4020.12,-367.8 4062.41,-373.51 4062.41,-327 4062.41,-327 4062.41,-327 4062.41,-269 4062.41,-163.8 4032.19,-113.64 3937.41,-68 3885.49,-43 3724.56,-27.72 3636.48,-21.01"/>
<polygon fill="#63b8ff" stroke="#63b8ff" points="3636.82,-17.53 3626.58,-20.27 3636.3,-24.51 3636.82,-17.53"/>
</g>
<!-- Node119&#45;&gt;Node11 -->
<g id="edge179" class="edge">
<title>Node119&#45;&gt;Node11</title>
<path fill="none" stroke="#63b8ff" d="M3508.58,-539.53C3522.39,-531.77 3540.45,-519.55 3551.41,-504 3568.74,-479.39 3570.41,-469.1 3570.41,-439 3570.41,-439 3570.41,-439 3570.41,-381 3570.41,-271.01 3608.55,-218.15 3535.41,-136 3495.98,-91.72 3335.9,-77.71 3277.41,-68 3036.27,-27.98 2744.26,-19.35 2621.39,-17.5"/>
<polygon fill="#63b8ff" stroke="#63b8ff" points="2621.6,-14 2611.55,-17.36 2621.5,-21 2621.6,-14"/>
</g>
<!-- Node119&#45;&gt;Node44 -->
<g id="edge178" class="edge">
<title>Node119&#45;&gt;Node44</title>
<path fill="none" stroke="#63b8ff" d="M3440.91,-548.97C3120.24,-548.54 1310.97,-541.95 1086.41,-448 965.71,-397.51 951.38,-342.25 895.41,-224 888.55,-209.51 882.52,-192.61 878.11,-178.93"/>
<polygon fill="#63b8ff" stroke="#63b8ff" points="881.57,-178.27 875.24,-169.77 874.89,-180.36 881.57,-178.27"/>
</g>
<!-- Node119&#45;&gt;Node73 -->
<g id="edge174" class="edge">
<title>Node119&#45;&gt;Node73</title>
<path fill="none" stroke="#63b8ff" d="M3440.97,-547.56C3186.57,-539.97 2006.39,-504.78 1734.42,-496.67"/>
<polygon fill="#63b8ff" stroke="#63b8ff" points="1734.88,-493.18 1724.78,-496.38 1734.67,-500.18 1734.88,-493.18"/>
</g>
<!-- Node119&#45;&gt;Node100 -->
<g id="edge180" class="edge">
<title>Node119&#45;&gt;Node100</title>
<path fill="none" stroke="#63b8ff" d="M3487.27,-539.76C3485.3,-530.7 3482.51,-516.49 3481.41,-504 3478.2,-467.68 3491.06,-426.45 3500.13,-402.71"/>
<polygon fill="#63b8ff" stroke="#63b8ff" points="3503.27,-404.27 3503.74,-393.69 3496.77,-401.67 3503.27,-404.27"/>
</g>
<!-- Node120 -->
<g id="node47" class="node">
<title>Node120</title>
<g id="a_node47"><a xlink:title=" ">
<polygon fill="#e0e0e0" stroke="#999999" points="3542.03,-504 3490.78,-504 3490.78,-484 3542.03,-484 3542.03,-504"/>
<text text-anchor="middle" x="3516.41" y="-490.5" font-family="Helvetica,sans-Serif" font-size="10.00">sstream</text>
</a>
</g>
</g>
<!-- Node119&#45;&gt;Node120 -->
<g id="edge175" class="edge">
<title>Node119&#45;&gt;Node120</title>
<path fill="none" stroke="#63b8ff" d="M3494.11,-539.59C3497.56,-532.7 3502.36,-523.1 3506.62,-514.57"/>
<polygon fill="#63b8ff" stroke="#63b8ff" points="3509.74,-516.16 3511.08,-505.65 3503.48,-513.03 3509.74,-516.16"/>
</g>
<!-- Node121&#45;&gt;Node5 -->
<g id="edge187" class="edge">
<title>Node121&#45;&gt;Node5</title>
<path fill="none" stroke="#63b8ff" d="M3690.17,-489.73C3821.29,-479.78 4195.89,-447.13 4304.41,-392 4342.55,-372.62 4375.41,-369.78 4375.41,-327 4375.41,-327 4375.41,-327 4375.41,-151 4375.41,-52.04 4232.96,-26.03 4149.48,-19.28"/>
<polygon fill="#63b8ff" stroke="#63b8ff" points="4149.85,-15.8 4139.62,-18.56 4149.34,-22.78 4149.85,-15.8"/>
</g>
<!-- Node121&#45;&gt;Node7 -->
<g id="edge184" class="edge">
<title>Node121&#45;&gt;Node7</title>
<path fill="none" stroke="#63b8ff" d="M3598.58,-487.84C3583.57,-486.34 3566.79,-484.88 3551.41,-484 3434.97,-477.38 1563.17,-484.51 1452.41,-448 1371,-421.17 1336.34,-411.31 1295.41,-336 1252.84,-257.68 1256.94,-207.33 1310.41,-136 1390.49,-29.16 1568.92,-16.72 1642.12,-16.31"/>
<polygon fill="#63b8ff" stroke="#63b8ff" points="1641.81,-19.81 1651.82,-16.34 1641.83,-12.81 1641.81,-19.81"/>
</g>
<!-- Node121&#45;&gt;Node9 -->
<g id="edge188" class="edge">
<title>Node121&#45;&gt;Node9</title>
<path fill="none" stroke="#63b8ff" d="M3685.68,-483.54C3781.4,-460.39 4010.41,-397.64 4010.41,-327 4010.41,-327 4010.41,-327 4010.41,-213 4010.41,-50.69 3754.77,-22.09 3636.34,-17.55"/>
<polygon fill="#63b8ff" stroke="#63b8ff" points="3636.61,-14.06 3626.5,-17.22 3636.37,-21.05 3636.61,-14.06"/>
</g>
<!-- Node121&#45;&gt;Node11 -->
<g id="edge189" class="edge">
<title>Node121&#45;&gt;Node11</title>
<path fill="none" stroke="#63b8ff" d="M3642.84,-483.64C3633.88,-430.31 3588.74,-166.24 3568.41,-136 3552.52,-112.37 3538.11,-117.19 3515.41,-100 3497.81,-86.67 3497.93,-76.14 3477.41,-68 3398.24,-36.58 2811.28,-22.04 2621.45,-18.12"/>
<polygon fill="#63b8ff" stroke="#63b8ff" points="2621.64,-14.63 2611.57,-17.92 2621.49,-21.63 2621.64,-14.63"/>
</g>
<!-- Node121&#45;&gt;Node20 -->
<g id="edge183" class="edge">
<title>Node121&#45;&gt;Node20</title>
<path fill="none" stroke="#63b8ff" d="M3598.58,-487.83C3583.57,-486.34 3566.79,-484.87 3551.41,-484 3072.33,-456.87 1870.16,-492.71 1392.41,-448 952.86,-406.87 847.51,-360.33 413.41,-280 228.5,-245.78 107.87,-325.67 5.41,-168 -7.82,-147.64 7.33,-77.68 17.41,-68 65.22,-22.06 270.35,-16.83 355.81,-16.7"/>
<polygon fill="#63b8ff" stroke="#63b8ff" points="355.77,-20.2 365.77,-16.71 355.77,-13.2 355.77,-20.2"/>
</g>
<!-- Node121&#45;&gt;Node46 -->
<g id="edge186" class="edge">
<title>Node121&#45;&gt;Node46</title>
<path fill="none" stroke="#63b8ff" d="M3598.58,-487.84C3583.57,-486.34 3566.79,-484.88 3551.41,-484 3438.07,-477.53 1615.51,-485.61 1508.41,-448 1431.57,-421.02 1399.31,-409.09 1363.41,-336 1338.17,-284.61 1206.75,-402.84 1394.41,-136 1403.47,-123.11 1416.89,-113.07 1430.61,-105.44"/>
<polygon fill="#63b8ff" stroke="#63b8ff" points="1431.96,-108.68 1439.25,-100.99 1428.76,-102.45 1431.96,-108.68"/>
</g>
<!-- Node121&#45;&gt;Node100 -->
<g id="edge185" class="edge">
<title>Node121&#45;&gt;Node100</title>
<path fill="none" stroke="#63b8ff" d="M3632.81,-483.62C3609.73,-464.95 3557.76,-422.92 3528.83,-399.52"/>
<polygon fill="#63b8ff" stroke="#63b8ff" points="3531.13,-396.87 3521.15,-393.31 3526.72,-402.32 3531.13,-396.87"/>
</g>
<!-- Node121&#45;&gt;Node107 -->
<g id="edge182" class="edge">
<title>Node121&#45;&gt;Node107</title>
<path fill="none" stroke="#63b8ff" d="M3690.22,-485.43C3749,-475.73 3850.96,-458.89 3914.61,-448.38"/>
<polygon fill="#63b8ff" stroke="#63b8ff" points="3914.85,-451.89 3924.15,-446.8 3913.71,-444.98 3914.85,-451.89"/>
</g>
</g>
</svg>
