<?xml version="1.0" encoding="UTF-8" standalone="no"?>
<!DOCTYPE svg PUBLIC "-//W3C//DTD SVG 1.1//EN"
 "http://www.w3.org/Graphics/SVG/1.1/DTD/svg11.dtd">
<!-- Generated by graphviz version 10.0.1 (20240210.2158)
 -->
<!-- Title: D:/FMT/Include/RexportCore.hpp Pages: 1 -->
<svg width="4252pt" height="332pt"
 viewBox="0.00 0.00 4252.18 332.00" xmlns="http://www.w3.org/2000/svg" xmlns:xlink="http://www.w3.org/1999/xlink">
<g id="graph0" class="graph" transform="scale(1 1) rotate(0) translate(4 328)">
<title>D:/FMT/Include/RexportCore.hpp</title>
<!-- Node1 -->
<g id="node1" class="node">
<title>Node1</title>
<g id="a_node1"><a xlink:title=" ">
<polygon fill="#999999" stroke="#666666" points="2484.38,-324 2326.62,-324 2326.62,-304 2484.38,-304 2484.38,-324"/>
<text text-anchor="middle" x="2405.5" y="-310.5" font-family="Helvetica,sans-Serif" font-size="10.00">D:/FMT/Include/RexportCore.hpp</text>
</a>
</g>
</g>
<!-- Node2 -->
<g id="node2" class="node">
<title>Node2</title>
<g id="a_node2"><a xlink:href="FMTGCBMtransition_8hpp.html" target="_top" xlink:title=" ">
<polygon fill="white" stroke="#666666" points="825.12,-212 701.88,-212 701.88,-192 825.12,-192 825.12,-212"/>
<text text-anchor="middle" x="763.5" y="-198.5" font-family="Helvetica,sans-Serif" font-size="10.00">FMTGCBMtransition.hpp</text>
</a>
</g>
</g>
<!-- Node1&#45;&gt;Node2 -->
<g id="edge1" class="edge">
<title>Node1&#45;&gt;Node2</title>
<path fill="none" stroke="#63b8ff" d="M2326.29,-312.74C2034.16,-311.48 1026.82,-304.5 887.5,-268 849.4,-258.02 809.86,-234.64 785.96,-218.81"/>
<polygon fill="#63b8ff" stroke="#63b8ff" points="787.93,-215.92 777.69,-213.2 784,-221.71 787.93,-215.92"/>
</g>
<!-- Node8 -->
<g id="node8" class="node">
<title>Node8</title>
<g id="a_node8"><a xlink:href="FMTobject_8hpp.html" target="_top" xlink:title=" ">
<polygon fill="white" stroke="#666666" points="871.75,-150 791.25,-150 791.25,-130 871.75,-130 871.75,-150"/>
<text text-anchor="middle" x="831.5" y="-136.5" font-family="Helvetica,sans-Serif" font-size="10.00">FMTobject.hpp</text>
</a>
</g>
</g>
<!-- Node1&#45;&gt;Node8 -->
<g id="edge19" class="edge">
<title>Node1&#45;&gt;Node8</title>
<path fill="none" stroke="#63b8ff" d="M2326.39,-313.38C2162.63,-313.28 1774.84,-308.33 1452.5,-268 1235.69,-240.88 981.62,-179.43 878.52,-153.22"/>
<polygon fill="#63b8ff" stroke="#63b8ff" points="879.59,-149.88 869.04,-150.8 877.86,-156.66 879.59,-149.88"/>
</g>
<!-- Node17 -->
<g id="node15" class="node">
<title>Node17</title>
<g id="a_node15"><a xlink:title=" ">
<polygon fill="#e0e0e0" stroke="#999999" points="2198.25,-82 2156.75,-82 2156.75,-62 2198.25,-62 2198.25,-82"/>
<text text-anchor="middle" x="2177.5" y="-68.5" font-family="Helvetica,sans-Serif" font-size="10.00">vector</text>
</a>
</g>
</g>
<!-- Node1&#45;&gt;Node17 -->
<g id="edge195" class="edge">
<title>Node1&#45;&gt;Node17</title>
<path fill="none" stroke="#63b8ff" d="M2432.92,-303.6C2460.12,-292.63 2495.84,-272.8 2481.5,-248 2421.54,-144.31 2274.26,-96.65 2209.24,-80.13"/>
<polygon fill="#63b8ff" stroke="#63b8ff" points="2210.47,-76.83 2199.92,-77.85 2208.8,-83.63 2210.47,-76.83"/>
</g>
<!-- Node19 -->
<g id="node17" class="node">
<title>Node19</title>
<g id="a_node17"><a xlink:href="FMTmask_8hpp.html" target="_top" xlink:title=" ">
<polygon fill="white" stroke="#666666" points="3601.62,-150 3523.38,-150 3523.38,-130 3601.62,-130 3601.62,-150"/>
<text text-anchor="middle" x="3562.5" y="-136.5" font-family="Helvetica,sans-Serif" font-size="10.00">FMTmask.hpp</text>
</a>
</g>
</g>
<!-- Node1&#45;&gt;Node19 -->
<g id="edge20" class="edge">
<title>Node1&#45;&gt;Node19</title>
<path fill="none" stroke="#63b8ff" d="M2484.84,-311.71C2724.54,-307.53 3427.43,-293.17 3469.5,-268 3503.18,-247.84 3490.9,-223.37 3514.5,-192 3523.56,-179.95 3535.11,-167.6 3544.61,-158.08"/>
<polygon fill="#63b8ff" stroke="#63b8ff" points="3546.86,-160.77 3551.55,-151.27 3541.96,-155.78 3546.86,-160.77"/>
</g>
<!-- Node26 -->
<g id="node24" class="node">
<title>Node26</title>
<g id="a_node24"><a xlink:href="FMTtheme_8hpp.html" target="_top" xlink:title=" ">
<polygon fill="white" stroke="#666666" points="1480.12,-212 1398.88,-212 1398.88,-192 1480.12,-192 1480.12,-212"/>
<text text-anchor="middle" x="1439.5" y="-198.5" font-family="Helvetica,sans-Serif" font-size="10.00">FMTtheme.hpp</text>
</a>
</g>
</g>
<!-- Node1&#45;&gt;Node26 -->
<g id="edge34" class="edge">
<title>Node1&#45;&gt;Node26</title>
<path fill="none" stroke="#63b8ff" d="M2326.22,-311.32C2167.45,-307.41 1815.7,-295.81 1698.5,-268 1676.41,-262.76 1673.15,-254.83 1651.5,-248 1597.98,-231.11 1534.85,-218.62 1491.48,-211.14"/>
<polygon fill="#63b8ff" stroke="#63b8ff" points="1492.29,-207.73 1481.84,-209.51 1491.12,-214.63 1492.29,-207.73"/>
</g>
<!-- Node36 -->
<g id="node29" class="node">
<title>Node36</title>
<g id="a_node29"><a xlink:href="FMTbounds_8hpp.html" target="_top" xlink:title=" ">
<polygon fill="white" stroke="#666666" points="3239.38,-150 3153.62,-150 3153.62,-130 3239.38,-130 3239.38,-150"/>
<text text-anchor="middle" x="3196.5" y="-136.5" font-family="Helvetica,sans-Serif" font-size="10.00">FMTbounds.hpp</text>
</a>
</g>
</g>
<!-- Node1&#45;&gt;Node36 -->
<g id="edge52" class="edge">
<title>Node1&#45;&gt;Node36</title>
<path fill="none" stroke="#63b8ff" d="M2484.48,-313.93C2604.7,-313.88 2840.26,-308 3035.5,-268 3110.13,-252.71 3153.3,-274.05 3197.5,-212 3207.88,-197.42 3206.17,-176.54 3202.74,-161.2"/>
<polygon fill="#63b8ff" stroke="#63b8ff" points="3206.18,-160.52 3200.21,-151.77 3199.42,-162.33 3206.18,-160.52"/>
</g>
<!-- Node39 -->
<g id="node32" class="node">
<title>Node39</title>
<g id="a_node32"><a xlink:href="FMTdevelopment_8hpp.html" target="_top" xlink:title=" ">
<polygon fill="white" stroke="#666666" points="1801.62,-212 1693.38,-212 1693.38,-192 1801.62,-192 1801.62,-212"/>
<text text-anchor="middle" x="1747.5" y="-198.5" font-family="Helvetica,sans-Serif" font-size="10.00">FMTdevelopment.hpp</text>
</a>
</g>
</g>
<!-- Node1&#45;&gt;Node39 -->
<g id="edge63" class="edge">
<title>Node1&#45;&gt;Node39</title>
<path fill="none" stroke="#63b8ff" d="M2348.83,-303.53C2227.34,-283.22 1942.37,-235.58 1813.21,-213.98"/>
<polygon fill="#63b8ff" stroke="#63b8ff" points="1813.88,-210.55 1803.44,-212.35 1812.73,-217.45 1813.88,-210.55"/>
</g>
<!-- Node40 -->
<g id="node33" class="node">
<title>Node40</title>
<g id="a_node33"><a xlink:href="FMTactualdevelopment_8hpp.html" target="_top" xlink:title=" ">
<polygon fill="white" stroke="#666666" points="2472.75,-268 2338.25,-268 2338.25,-248 2472.75,-248 2472.75,-268"/>
<text text-anchor="middle" x="2405.5" y="-254.5" font-family="Helvetica,sans-Serif" font-size="10.00">FMTactualdevelopment.hpp</text>
</a>
</g>
</g>
<!-- Node1&#45;&gt;Node40 -->
<g id="edge73" class="edge">
<title>Node1&#45;&gt;Node40</title>
<path fill="none" stroke="#63b8ff" d="M2405.5,-303.59C2405.5,-297.01 2405.5,-287.96 2405.5,-279.73"/>
<polygon fill="#63b8ff" stroke="#63b8ff" points="2409,-279.81 2405.5,-269.81 2402,-279.81 2409,-279.81"/>
</g>
<!-- Node41 -->
<g id="node34" class="node">
<title>Node41</title>
<g id="a_node34"><a xlink:href="FMTfuturdevelopment_8hpp.html" target="_top" xlink:title=" ">
<polygon fill="white" stroke="#666666" points="1024,-268 897,-268 897,-248 1024,-248 1024,-268"/>
<text text-anchor="middle" x="960.5" y="-254.5" font-family="Helvetica,sans-Serif" font-size="10.00">FMTfuturdevelopment.hpp</text>
</a>
</g>
</g>
<!-- Node1&#45;&gt;Node41 -->
<g id="edge78" class="edge">
<title>Node1&#45;&gt;Node41</title>
<path fill="none" stroke="#63b8ff" d="M2326.4,-312.66C2116.36,-311.27 1527.21,-304.18 1038.5,-268 1037.49,-267.93 1036.47,-267.85 1035.45,-267.77"/>
<polygon fill="#63b8ff" stroke="#63b8ff" points="1036.08,-264.31 1025.82,-266.93 1035.48,-271.28 1036.08,-264.31"/>
</g>
<!-- Node42 -->
<g id="node35" class="node">
<title>Node42</title>
<g id="a_node35"><a xlink:href="FMTaction_8hpp.html" target="_top" xlink:title=" ">
<polygon fill="#fff0f0" stroke="red" points="2243.75,-212 2163.25,-212 2163.25,-192 2243.75,-192 2243.75,-212"/>
<text text-anchor="middle" x="2203.5" y="-198.5" font-family="Helvetica,sans-Serif" font-size="10.00">FMTaction.hpp</text>
</a>
</g>
</g>
<!-- Node1&#45;&gt;Node42 -->
<g id="edge83" class="edge">
<title>Node1&#45;&gt;Node42</title>
<path fill="none" stroke="#63b8ff" d="M2385.41,-303.57C2366.83,-294.73 2338.55,-280.97 2314.5,-268 2284.46,-251.81 2250.74,-231.79 2228.43,-218.28"/>
<polygon fill="#63b8ff" stroke="#63b8ff" points="2230.4,-215.38 2220.04,-213.18 2226.77,-221.36 2230.4,-215.38"/>
</g>
<!-- Node56 -->
<g id="node36" class="node">
<title>Node56</title>
<g id="a_node36"><a xlink:href="FMTtransition_8hpp.html" target="_top" xlink:title=" ">
<polygon fill="#fff0f0" stroke="red" points="1211.5,-150 1117.5,-150 1117.5,-130 1211.5,-130 1211.5,-150"/>
<text text-anchor="middle" x="1164.5" y="-136.5" font-family="Helvetica,sans-Serif" font-size="10.00">FMTtransition.hpp</text>
</a>
</g>
</g>
<!-- Node1&#45;&gt;Node56 -->
<g id="edge92" class="edge">
<title>Node1&#45;&gt;Node56</title>
<path fill="none" stroke="#63b8ff" d="M2326.17,-311.23C2141.94,-306.74 1689.42,-293.4 1539.5,-268 1406.84,-245.52 1257.8,-183.17 1195,-155.06"/>
<polygon fill="#63b8ff" stroke="#63b8ff" points="1196.57,-151.93 1186.02,-151 1193.69,-158.31 1196.57,-151.93"/>
</g>
<!-- Node60 -->
<g id="node37" class="node">
<title>Node60</title>
<g id="a_node37"><a xlink:href="FMToutput_8hpp.html" target="_top" xlink:title=" ">
<polygon fill="#fff0f0" stroke="red" points="2145.12,-212 2063.88,-212 2063.88,-192 2145.12,-192 2145.12,-212"/>
<text text-anchor="middle" x="2104.5" y="-198.5" font-family="Helvetica,sans-Serif" font-size="10.00">FMToutput.hpp</text>
</a>
</g>
</g>
<!-- Node1&#45;&gt;Node60 -->
<g id="edge99" class="edge">
<title>Node1&#45;&gt;Node60</title>
<path fill="none" stroke="#63b8ff" d="M2377.75,-303.55C2351.57,-294.58 2311.28,-280.64 2276.5,-268 2228.85,-250.69 2174.13,-229.84 2139.44,-216.51"/>
<polygon fill="#63b8ff" stroke="#63b8ff" points="2140.92,-213.33 2130.33,-213 2138.41,-219.86 2140.92,-213.33"/>
</g>
<!-- Node64 -->
<g id="node38" class="node">
<title>Node64</title>
<g id="a_node38"><a xlink:href="FMTconstraint_8hpp.html" target="_top" xlink:title=" ">
<polygon fill="white" stroke="#666666" points="2886,-268 2789,-268 2789,-248 2886,-248 2886,-268"/>
<text text-anchor="middle" x="2837.5" y="-254.5" font-family="Helvetica,sans-Serif" font-size="10.00">FMTconstraint.hpp</text>
</a>
</g>
</g>
<!-- Node1&#45;&gt;Node64 -->
<g id="edge107" class="edge">
<title>Node1&#45;&gt;Node64</title>
<path fill="none" stroke="#63b8ff" d="M2483.06,-303.53C2556.57,-294.52 2670.07,-280.52 2768.5,-268 2771.33,-267.64 2774.23,-267.27 2777.15,-266.89"/>
<polygon fill="#63b8ff" stroke="#63b8ff" points="2777.53,-270.37 2787,-265.62 2776.64,-263.43 2777.53,-270.37"/>
</g>
<!-- Node65 -->
<g id="node39" class="node">
<title>Node65</title>
<g id="a_node39"><a xlink:href="FMTschedule_8hpp.html" target="_top" xlink:title=" ">
<polygon fill="#fff0f0" stroke="red" points="1642.12,-268 1548.88,-268 1548.88,-248 1642.12,-248 1642.12,-268"/>
<text text-anchor="middle" x="1595.5" y="-254.5" font-family="Helvetica,sans-Serif" font-size="10.00">FMTschedule.hpp</text>
</a>
</g>
</g>
<!-- Node1&#45;&gt;Node65 -->
<g id="edge116" class="edge">
<title>Node1&#45;&gt;Node65</title>
<path fill="none" stroke="#63b8ff" d="M2326.34,-310.17C2190.22,-304.86 1903.13,-291.75 1661.5,-268 1658.88,-267.74 1656.2,-267.46 1653.5,-267.16"/>
<polygon fill="#63b8ff" stroke="#63b8ff" points="1654.17,-263.71 1643.82,-266.01 1653.34,-270.66 1654.17,-263.71"/>
</g>
<!-- Node67 -->
<g id="node40" class="node">
<title>Node67</title>
<g id="a_node40"><a xlink:href="FMTyields_8hpp.html" target="_top" xlink:title=" ">
<polygon fill="#fff0f0" stroke="red" points="1787.38,-268 1707.62,-268 1707.62,-248 1787.38,-248 1787.38,-268"/>
<text text-anchor="middle" x="1747.5" y="-254.5" font-family="Helvetica,sans-Serif" font-size="10.00">FMTyields.hpp</text>
</a>
</g>
</g>
<!-- Node1&#45;&gt;Node67 -->
<g id="edge123" class="edge">
<title>Node1&#45;&gt;Node67</title>
<path fill="none" stroke="#63b8ff" d="M2326.13,-306.49C2189.48,-295.27 1913.46,-272.62 1799.02,-263.23"/>
<polygon fill="#63b8ff" stroke="#63b8ff" points="1799.58,-259.76 1789.32,-262.43 1799,-266.74 1799.58,-259.76"/>
</g>
<!-- Node54 -->
<g id="node41" class="node">
<title>Node54</title>
<g id="a_node41"><a xlink:href="FMTyieldhandler_8hpp.html" target="_top" xlink:title=" ">
<polygon fill="#fff0f0" stroke="red" points="3168.5,-212 3062.5,-212 3062.5,-192 3168.5,-192 3168.5,-212"/>
<text text-anchor="middle" x="3115.5" y="-198.5" font-family="Helvetica,sans-Serif" font-size="10.00">FMTyieldhandler.hpp</text>
</a>
</g>
</g>
<!-- Node1&#45;&gt;Node54 -->
<g id="edge157" class="edge">
<title>Node1&#45;&gt;Node54</title>
<path fill="none" stroke="#63b8ff" d="M2484.69,-311.19C2623.41,-307.32 2904.55,-296.18 2998.5,-268 3034.21,-257.29 3071.11,-234.48 3093.69,-218.93"/>
<polygon fill="#63b8ff" stroke="#63b8ff" points="3095.6,-221.87 3101.76,-213.25 3091.57,-216.15 3095.6,-221.87"/>
</g>
<!-- Node69 -->
<g id="node42" class="node">
<title>Node69</title>
<g id="a_node42"><a xlink:href="FMTconstants_8hpp.html" target="_top" xlink:title=" ">
<polygon fill="white" stroke="#666666" points="2359,-212 2262,-212 2262,-192 2359,-192 2359,-212"/>
<text text-anchor="middle" x="2310.5" y="-198.5" font-family="Helvetica,sans-Serif" font-size="10.00">FMTconstants.hpp</text>
</a>
</g>
</g>
<!-- Node1&#45;&gt;Node69 -->
<g id="edge147" class="edge">
<title>Node1&#45;&gt;Node69</title>
<path fill="none" stroke="#63b8ff" d="M2379.85,-303.62C2363.24,-296.31 2342.38,-284.59 2329.5,-268 2319.56,-255.2 2314.82,-237.35 2312.56,-223.59"/>
<polygon fill="#63b8ff" stroke="#63b8ff" points="2316.05,-223.33 2311.29,-213.87 2309.11,-224.23 2316.05,-223.33"/>
</g>
<!-- Node70 -->
<g id="node43" class="node">
<title>Node70</title>
<g id="a_node43"><a xlink:href="Rdefinitions_8hpp.html" target="_top" xlink:title=" ">
<polygon fill="white" stroke="#666666" points="2989,-268 2904,-268 2904,-248 2989,-248 2989,-268"/>
<text text-anchor="middle" x="2946.5" y="-254.5" font-family="Helvetica,sans-Serif" font-size="10.00">Rdefinitions.hpp</text>
</a>
</g>
</g>
<!-- Node1&#45;&gt;Node70 -->
<g id="edge156" class="edge">
<title>Node1&#45;&gt;Node70</title>
<path fill="none" stroke="#63b8ff" d="M2484.65,-307.76C2579.35,-301.04 2742.91,-287.99 2892.49,-268.31"/>
<polygon fill="#63b8ff" stroke="#63b8ff" points="2892.74,-271.81 2902.19,-267.02 2891.81,-264.87 2892.74,-271.81"/>
</g>
<!-- Node71 -->
<g id="node44" class="node">
<title>Node71</title>
<g id="a_node44"><a xlink:href="FMTtimeyieldhandler_8hpp.html" target="_top" xlink:title=" ">
<polygon fill="white" stroke="#666666" points="2759.88,-268 2635.12,-268 2635.12,-248 2759.88,-248 2759.88,-268"/>
<text text-anchor="middle" x="2697.5" y="-254.5" font-family="Helvetica,sans-Serif" font-size="10.00">FMTtimeyieldhandler.hpp</text>
</a>
</g>
</g>
<!-- Node1&#45;&gt;Node71 -->
<g id="edge158" class="edge">
<title>Node1&#45;&gt;Node71</title>
<path fill="none" stroke="#63b8ff" d="M2456.7,-303.53C2506.48,-294.33 2582.16,-280.33 2635.37,-270.49"/>
<polygon fill="#63b8ff" stroke="#63b8ff" points="2635.68,-273.99 2644.87,-268.73 2634.4,-267.11 2635.68,-273.99"/>
</g>
<!-- Node72 -->
<g id="node45" class="node">
<title>Node72</title>
<g id="a_node45"><a xlink:href="FMTdata_8hpp.html" target="_top" xlink:title=" ">
<polygon fill="#fff0f0" stroke="red" points="2641,-150 2568,-150 2568,-130 2641,-130 2641,-150"/>
<text text-anchor="middle" x="2604.5" y="-136.5" font-family="Helvetica,sans-Serif" font-size="10.00">FMTdata.hpp</text>
</a>
</g>
</g>
<!-- Node1&#45;&gt;Node72 -->
<g id="edge180" class="edge">
<title>Node1&#45;&gt;Node72</title>
<path fill="none" stroke="#63b8ff" d="M2442.94,-303.52C2465.64,-296.43 2494.22,-285 2515.5,-268 2553.05,-238.01 2581.51,-188.1 2595.29,-160.62"/>
<polygon fill="#63b8ff" stroke="#63b8ff" points="2598.4,-162.23 2599.63,-151.71 2592.11,-159.17 2598.4,-162.23"/>
</g>
<!-- Node75 -->
<g id="node46" class="node">
<title>Node75</title>
<g id="a_node46"><a xlink:href="FMTageyieldhandler_8hpp.html" target="_top" xlink:title=" ">
<polygon fill="white" stroke="#666666" points="3460.38,-268 3338.62,-268 3338.62,-248 3460.38,-248 3460.38,-268"/>
<text text-anchor="middle" x="3399.5" y="-254.5" font-family="Helvetica,sans-Serif" font-size="10.00">FMTageyieldhandler.hpp</text>
</a>
</g>
</g>
<!-- Node1&#45;&gt;Node75 -->
<g id="edge172" class="edge">
<title>Node1&#45;&gt;Node75</title>
<path fill="none" stroke="#63b8ff" d="M2484.61,-311.01C2643.84,-306.57 3014.31,-294.17 3324.5,-268 3325.33,-267.93 3326.17,-267.86 3327.01,-267.78"/>
<polygon fill="#63b8ff" stroke="#63b8ff" points="3327.01,-271.3 3336.63,-266.86 3326.35,-264.33 3327.01,-271.3"/>
</g>
<!-- Node76 -->
<g id="node47" class="node">
<title>Node76</title>
<g id="a_node47"><a xlink:href="FMTdevelopmentpath_8hpp.html" target="_top" xlink:title=" ">
<polygon fill="white" stroke="#666666" points="127,-212 0,-212 0,-192 127,-192 127,-212"/>
<text text-anchor="middle" x="63.5" y="-198.5" font-family="Helvetica,sans-Serif" font-size="10.00">FMTdevelopmentpath.hpp</text>
</a>
</g>
</g>
<!-- Node1&#45;&gt;Node76 -->
<g id="edge178" class="edge">
<title>Node1&#45;&gt;Node76</title>
<path fill="none" stroke="#63b8ff" d="M2326.15,-312.18C2095.61,-309.5 1405.96,-299.25 834.5,-268 525.96,-251.13 449.03,-242.16 141.5,-212 140.49,-211.9 139.47,-211.8 138.45,-211.7"/>
<polygon fill="#63b8ff" stroke="#63b8ff" points="139.14,-208.25 128.84,-210.7 138.42,-215.21 139.14,-208.25"/>
</g>
<!-- Node46 -->
<g id="node48" class="node">
<title>Node46</title>
<g id="a_node48"><a xlink:href="FMTmaskfilter_8hpp.html" target="_top" xlink:title=" ">
<polygon fill="white" stroke="#666666" points="3715.62,-150 3619.38,-150 3619.38,-130 3715.62,-130 3715.62,-150"/>
<text text-anchor="middle" x="3667.5" y="-136.5" font-family="Helvetica,sans-Serif" font-size="10.00">FMTmaskfilter.hpp</text>
</a>
</g>
</g>
<!-- Node1&#45;&gt;Node46 -->
<g id="edge181" class="edge">
<title>Node1&#45;&gt;Node46</title>
<path fill="none" stroke="#63b8ff" d="M2484.6,-311.79C2725.09,-307.82 3437.33,-294.01 3538.5,-268 3592.4,-254.14 3615.89,-255.58 3650.5,-212 3661.83,-197.73 3665.8,-177.1 3667.1,-161.75"/>
<polygon fill="#63b8ff" stroke="#63b8ff" points="3670.59,-162.03 3667.59,-151.87 3663.59,-161.68 3670.59,-162.03"/>
</g>
<!-- Node58 -->
<g id="node49" class="node">
<title>Node58</title>
<g id="a_node49"><a xlink:href="FMTtransitionmask_8hpp.html" target="_top" xlink:title=" ">
<polygon fill="white" stroke="#666666" points="3641.5,-212 3523.5,-212 3523.5,-192 3641.5,-192 3641.5,-212"/>
<text text-anchor="middle" x="3582.5" y="-198.5" font-family="Helvetica,sans-Serif" font-size="10.00">FMTtransitionmask.hpp</text>
</a>
</g>
</g>
<!-- Node1&#45;&gt;Node58 -->
<g id="edge188" class="edge">
<title>Node1&#45;&gt;Node58</title>
<path fill="none" stroke="#63b8ff" d="M2484.61,-312.84C2721.62,-311.94 3415.35,-306.05 3509.5,-268 3533.73,-258.2 3555.23,-236.67 3568.52,-221.06"/>
<polygon fill="#63b8ff" stroke="#63b8ff" points="3571.12,-223.41 3574.72,-213.44 3565.69,-218.99 3571.12,-223.41"/>
</g>
<!-- Node77 -->
<g id="node50" class="node">
<title>Node77</title>
<g id="a_node50"><a xlink:title=" ">
<polygon fill="#e0e0e0" stroke="#999999" points="4025.88,-268 3979.12,-268 3979.12,-248 4025.88,-248 4025.88,-268"/>
<text text-anchor="middle" x="4002.5" y="-254.5" font-family="Helvetica,sans-Serif" font-size="10.00">Rcpp.h</text>
</a>
</g>
</g>
<!-- Node1&#45;&gt;Node77 -->
<g id="edge196" class="edge">
<title>Node1&#45;&gt;Node77</title>
<path fill="none" stroke="#63b8ff" d="M2484.7,-312.91C2760.06,-312.25 3674.82,-307.1 3965.5,-268 3966.18,-267.91 3966.86,-267.81 3967.54,-267.71"/>
<polygon fill="#63b8ff" stroke="#63b8ff" points="3968.11,-271.16 3977.27,-265.84 3966.79,-264.29 3968.11,-271.16"/>
</g>
<!-- Node3 -->
<g id="node3" class="node">
<title>Node3</title>
<g id="a_node3"><a xlink:title=" ">
<polygon fill="#e0e0e0" stroke="#999999" points="1074.88,-82 1040.12,-82 1040.12,-62 1074.88,-62 1074.88,-82"/>
<text text-anchor="middle" x="1057.5" y="-68.5" font-family="Helvetica,sans-Serif" font-size="10.00">map</text>
</a>
</g>
</g>
<!-- Node2&#45;&gt;Node3 -->
<g id="edge2" class="edge">
<title>Node2&#45;&gt;Node3</title>
<path fill="none" stroke="#63b8ff" d="M746.2,-191.51C733.99,-183.75 718.6,-171.53 711.5,-156 705.59,-143.06 702.09,-134.67 711.5,-124 753.87,-75.96 934.54,-99.79 997.5,-88 1007.82,-86.07 1019,-83.42 1028.89,-80.89"/>
<polygon fill="#63b8ff" stroke="#63b8ff" points="1029.53,-84.35 1038.31,-78.41 1027.74,-77.58 1029.53,-84.35"/>
</g>
<!-- Node4 -->
<g id="node4" class="node">
<title>Node4</title>
<g id="a_node4"><a xlink:title=" ">
<polygon fill="#e0e0e0" stroke="#999999" points="2624.5,-20 2584.5,-20 2584.5,0 2624.5,0 2624.5,-20"/>
<text text-anchor="middle" x="2604.5" y="-6.5" font-family="Helvetica,sans-Serif" font-size="10.00">string</text>
</a>
</g>
</g>
<!-- Node2&#45;&gt;Node4 -->
<g id="edge3" class="edge">
<title>Node2&#45;&gt;Node4</title>
<path fill="none" stroke="#63b8ff" d="M701.39,-193.65C669.13,-187.52 630.34,-176.34 600.5,-156 559.28,-127.9 514.61,-91.66 549.5,-56 586.46,-18.22 2316.18,-11.82 2572.81,-11.08"/>
<polygon fill="#63b8ff" stroke="#63b8ff" points="2572.72,-14.58 2582.71,-11.05 2572.7,-7.58 2572.72,-14.58"/>
</g>
<!-- Node5 -->
<g id="node5" class="node">
<title>Node5</title>
<g id="a_node5"><a xlink:title=" ">
<polygon fill="#e0e0e0" stroke="#999999" points="1642.88,-88 1548.12,-88 1548.12,-56 1642.88,-56 1642.88,-88"/>
<text text-anchor="start" x="1556.12" y="-74.5" font-family="Helvetica,sans-Serif" font-size="10.00">boost/serialization</text>
<text text-anchor="middle" x="1595.5" y="-62.5" font-family="Helvetica,sans-Serif" font-size="10.00">/string.hpp</text>
</a>
</g>
</g>
<!-- Node2&#45;&gt;Node5 -->
<g id="edge4" class="edge">
<title>Node2&#45;&gt;Node5</title>
<path fill="none" stroke="#63b8ff" d="M762.63,-191.63C761.68,-175.06 762.42,-140.77 782.5,-124 811.38,-99.88 1354.15,-80.62 1536.4,-74.8"/>
<polygon fill="#63b8ff" stroke="#63b8ff" points="1536.47,-78.3 1546.36,-74.49 1536.25,-71.31 1536.47,-78.3"/>
</g>
<!-- Node6 -->
<g id="node6" class="node">
<title>Node6</title>
<g id="a_node6"><a xlink:title=" ">
<polygon fill="#e0e0e0" stroke="#999999" points="2562.88,-88 2468.12,-88 2468.12,-56 2562.88,-56 2562.88,-88"/>
<text text-anchor="start" x="2476.12" y="-74.5" font-family="Helvetica,sans-Serif" font-size="10.00">boost/serialization</text>
<text text-anchor="middle" x="2515.5" y="-62.5" font-family="Helvetica,sans-Serif" font-size="10.00">/serialization.hpp</text>
</a>
</g>
</g>
<!-- Node2&#45;&gt;Node6 -->
<g id="edge5" class="edge">
<title>Node2&#45;&gt;Node6</title>
<path fill="none" stroke="#63b8ff" d="M825.35,-198.65C947.42,-193.64 1227.85,-180.35 1462.5,-156 1562.09,-145.66 1585.89,-134.19 1685.5,-124 1835.4,-108.67 2292.68,-84.43 2456.41,-76"/>
<polygon fill="#63b8ff" stroke="#63b8ff" points="2456.36,-79.51 2466.17,-75.5 2456,-72.52 2456.36,-79.51"/>
</g>
<!-- Node7 -->
<g id="node7" class="node">
<title>Node7</title>
<g id="a_node7"><a xlink:title=" ">
<polygon fill="#e0e0e0" stroke="#999999" points="988.88,-88 894.12,-88 894.12,-56 988.88,-56 988.88,-88"/>
<text text-anchor="start" x="902.12" y="-74.5" font-family="Helvetica,sans-Serif" font-size="10.00">boost/serialization</text>
<text text-anchor="middle" x="941.5" y="-62.5" font-family="Helvetica,sans-Serif" font-size="10.00">/export.hpp</text>
</a>
</g>
</g>
<!-- Node2&#45;&gt;Node7 -->
<g id="edge6" class="edge">
<title>Node2&#45;&gt;Node7</title>
<path fill="none" stroke="#63b8ff" d="M701.51,-193.49C641.09,-183.74 562.98,-163.13 597.5,-124 637.95,-78.16 804.01,-98 882.37,-87.88"/>
<polygon fill="#63b8ff" stroke="#63b8ff" points="882.89,-91.34 892.22,-86.31 881.79,-84.42 882.89,-91.34"/>
</g>
<!-- Node2&#45;&gt;Node8 -->
<g id="edge7" class="edge">
<title>Node2&#45;&gt;Node8</title>
<path fill="none" stroke="#63b8ff" d="M774.12,-191.62C784.46,-182.5 800.4,-168.45 812.85,-157.46"/>
<polygon fill="#63b8ff" stroke="#63b8ff" points="814.85,-160.35 820.04,-151.11 810.22,-155.11 814.85,-160.35"/>
</g>
<!-- Node8&#45;&gt;Node7 -->
<g id="edge10" class="edge">
<title>Node8&#45;&gt;Node7</title>
<path fill="none" stroke="#63b8ff" d="M847.26,-129.54C862.61,-120.34 886.46,-106.02 906.33,-94.1"/>
<polygon fill="#63b8ff" stroke="#63b8ff" points="907.93,-97.23 914.7,-89.08 904.32,-91.22 907.93,-97.23"/>
</g>
<!-- Node9 -->
<g id="node9" class="node">
<title>Node9</title>
<g id="a_node9"><a xlink:title=" ">
<polygon fill="#e0e0e0" stroke="#999999" points="875.88,-88 781.12,-88 781.12,-56 875.88,-56 875.88,-88"/>
<text text-anchor="start" x="789.12" y="-74.5" font-family="Helvetica,sans-Serif" font-size="10.00">boost/serialization</text>
<text text-anchor="middle" x="828.5" y="-62.5" font-family="Helvetica,sans-Serif" font-size="10.00">/shared_ptr.hpp</text>
</a>
</g>
</g>
<!-- Node8&#45;&gt;Node9 -->
<g id="edge8" class="edge">
<title>Node8&#45;&gt;Node9</title>
<path fill="none" stroke="#63b8ff" d="M831.07,-129.54C830.71,-121.72 830.19,-110.22 829.71,-99.63"/>
<polygon fill="#63b8ff" stroke="#63b8ff" points="833.21,-99.64 829.26,-89.81 826.22,-99.96 833.21,-99.64"/>
</g>
<!-- Node10 -->
<g id="node10" class="node">
<title>Node10</title>
<g id="a_node10"><a xlink:title=" ">
<polygon fill="#e0e0e0" stroke="#999999" points="2868.88,-88 2774.12,-88 2774.12,-56 2868.88,-56 2868.88,-88"/>
<text text-anchor="start" x="2782.12" y="-74.5" font-family="Helvetica,sans-Serif" font-size="10.00">boost/serialization</text>
<text text-anchor="middle" x="2821.5" y="-62.5" font-family="Helvetica,sans-Serif" font-size="10.00">/nvp.hpp</text>
</a>
</g>
</g>
<!-- Node8&#45;&gt;Node10 -->
<g id="edge9" class="edge">
<title>Node8&#45;&gt;Node10</title>
<path fill="none" stroke="#63b8ff" d="M871.85,-136.44C925.76,-133.11 1024.28,-127.32 1108.5,-124 1758.42,-98.41 1921.66,-115.48 2571.5,-88 2636.99,-85.23 2712.05,-80.52 2762.69,-77.12"/>
<polygon fill="#63b8ff" stroke="#63b8ff" points="2762.81,-80.62 2772.55,-76.45 2762.34,-73.63 2762.81,-80.62"/>
</g>
<!-- Node11 -->
<g id="node11" class="node">
<title>Node11</title>
<g id="a_node11"><a xlink:href="FMTexception_8hpp.html" target="_top" xlink:title=" ">
<polygon fill="#fff0f0" stroke="red" points="2983.62,-82 2887.38,-82 2887.38,-62 2983.62,-62 2983.62,-82"/>
<text text-anchor="middle" x="2935.5" y="-68.5" font-family="Helvetica,sans-Serif" font-size="10.00">FMTexception.hpp</text>
</a>
</g>
</g>
<!-- Node8&#45;&gt;Node11 -->
<g id="edge11" class="edge">
<title>Node8&#45;&gt;Node11</title>
<path fill="none" stroke="#63b8ff" d="M871.85,-136.39C925.76,-132.99 1024.28,-127.14 1108.5,-124 1501.42,-109.37 2487.98,-141.59 2877.5,-88 2882.76,-87.28 2888.23,-86.24 2893.62,-85.06"/>
<polygon fill="#63b8ff" stroke="#63b8ff" points="2894.09,-88.54 2902.99,-82.8 2892.45,-81.74 2894.09,-88.54"/>
</g>
<!-- Node14 -->
<g id="node12" class="node">
<title>Node14</title>
<g id="a_node12"><a xlink:title=" ">
<polygon fill="#e0e0e0" stroke="#999999" points="496.12,-20 444.88,-20 444.88,0 496.12,0 496.12,-20"/>
<text text-anchor="middle" x="470.5" y="-6.5" font-family="Helvetica,sans-Serif" font-size="10.00">memory</text>
</a>
</g>
</g>
<!-- Node8&#45;&gt;Node14 -->
<g id="edge15" class="edge">
<title>Node8&#45;&gt;Node14</title>
<path fill="none" stroke="#63b8ff" d="M790.83,-133.68C726.62,-124.86 604.99,-106.37 565.5,-88 534.07,-73.38 504.08,-46.09 486.49,-28.23"/>
<polygon fill="#63b8ff" stroke="#63b8ff" points="489.39,-26.2 479.94,-21.42 484.34,-31.05 489.39,-26.2"/>
</g>
<!-- Node16 -->
<g id="node14" class="node">
<title>Node16</title>
<g id="a_node14"><a xlink:title=" ">
<polygon fill="#e0e0e0" stroke="#999999" points="620.12,-82 574.88,-82 574.88,-62 620.12,-62 620.12,-82"/>
<text text-anchor="middle" x="597.5" y="-68.5" font-family="Helvetica,sans-Serif" font-size="10.00">chrono</text>
</a>
</g>
</g>
<!-- Node8&#45;&gt;Node16 -->
<g id="edge16" class="edge">
<title>Node8&#45;&gt;Node16</title>
<path fill="none" stroke="#63b8ff" d="M790.97,-131.15C749.69,-122.61 684.17,-107.51 629.5,-88 628.54,-87.66 627.57,-87.3 626.59,-86.92"/>
<polygon fill="#63b8ff" stroke="#63b8ff" points="628.16,-83.78 617.59,-83.09 625.42,-90.22 628.16,-83.78"/>
</g>
<!-- Node8&#45;&gt;Node17 -->
<g id="edge17" class="edge">
<title>Node8&#45;&gt;Node17</title>
<path fill="none" stroke="#63b8ff" d="M871.86,-136.59C925.78,-133.42 1024.3,-127.81 1108.5,-124 1549.23,-104.07 1662.2,-138.33 2100.5,-88 2115.4,-86.29 2131.74,-83.27 2145.51,-80.39"/>
<polygon fill="#63b8ff" stroke="#63b8ff" points="2145.88,-83.89 2154.92,-78.36 2144.4,-77.05 2145.88,-83.89"/>
</g>
<!-- Node18 -->
<g id="node16" class="node">
<title>Node18</title>
<g id="a_node16"><a xlink:title=" ">
<polygon fill="#e0e0e0" stroke="#999999" points="762.88,-88 638.12,-88 638.12,-56 762.88,-56 762.88,-88"/>
<text text-anchor="start" x="646.12" y="-74.5" font-family="Helvetica,sans-Serif" font-size="10.00">boost/dll/runtime_symbol</text>
<text text-anchor="middle" x="700.5" y="-62.5" font-family="Helvetica,sans-Serif" font-size="10.00">_info.hpp</text>
</a>
</g>
</g>
<!-- Node8&#45;&gt;Node18 -->
<g id="edge18" class="edge">
<title>Node8&#45;&gt;Node18</title>
<path fill="none" stroke="#63b8ff" d="M812.73,-129.54C794.18,-120.2 765.2,-105.6 741.33,-93.57"/>
<polygon fill="#63b8ff" stroke="#63b8ff" points="742.98,-90.48 732.47,-89.11 739.83,-96.73 742.98,-90.48"/>
</g>
<!-- Node11&#45;&gt;Node4 -->
<g id="edge12" class="edge">
<title>Node11&#45;&gt;Node4</title>
<path fill="none" stroke="#63b8ff" d="M2900.96,-61.53C2893.27,-59.57 2885.13,-57.61 2877.5,-56 2790.7,-37.66 2687.05,-22.36 2636.04,-15.26"/>
<polygon fill="#63b8ff" stroke="#63b8ff" points="2636.71,-11.82 2626.32,-13.92 2635.75,-18.75 2636.71,-11.82"/>
</g>
<!-- Node11&#45;&gt;Node14 -->
<g id="edge13" class="edge">
<title>Node11&#45;&gt;Node14</title>
<path fill="none" stroke="#63b8ff" d="M2904.46,-61.54C2895.82,-59.3 2886.36,-57.21 2877.5,-56 2633.19,-22.6 793.95,-12.54 507.86,-11.17"/>
<polygon fill="#63b8ff" stroke="#63b8ff" points="508.03,-7.67 498.01,-11.12 508,-14.67 508.03,-7.67"/>
</g>
<!-- Node15 -->
<g id="node13" class="node">
<title>Node15</title>
<g id="a_node13"><a xlink:href="FMTutility_8hpp.html" target="_top" xlink:title=" ">
<polygon fill="white" stroke="#666666" points="4012.25,-20 3934.75,-20 3934.75,0 4012.25,0 4012.25,-20"/>
<text text-anchor="middle" x="3973.5" y="-6.5" font-family="Helvetica,sans-Serif" font-size="10.00">FMTutility.hpp</text>
</a>
</g>
</g>
<!-- Node11&#45;&gt;Node15 -->
<g id="edge14" class="edge">
<title>Node11&#45;&gt;Node15</title>
<path fill="none" stroke="#63b8ff" d="M2969.38,-61.56C2978.45,-59.38 2988.29,-57.31 2997.5,-56 3178.99,-30.1 3749.84,-15.86 3923.13,-12.05"/>
<polygon fill="#63b8ff" stroke="#63b8ff" points="3923,-15.55 3932.92,-11.84 3922.85,-8.55 3923,-15.55"/>
</g>
<!-- Node19&#45;&gt;Node4 -->
<g id="edge33" class="edge">
<title>Node19&#45;&gt;Node4</title>
<path fill="none" stroke="#63b8ff" d="M3531.55,-129.55C3524.36,-127.55 3516.69,-125.57 3509.5,-124 3407.12,-101.69 3373.15,-128.47 3276.5,-88 3254.53,-78.8 3255.83,-64.29 3233.5,-56 3122.21,-14.67 2748.07,-11.07 2636.29,-10.94"/>
<polygon fill="#63b8ff" stroke="#63b8ff" points="2636.37,-7.44 2626.37,-10.93 2636.37,-14.44 2636.37,-7.44"/>
</g>
<!-- Node19&#45;&gt;Node5 -->
<g id="edge30" class="edge">
<title>Node19&#45;&gt;Node5</title>
<path fill="none" stroke="#63b8ff" d="M3523.35,-136.82C3463.95,-133.59 3347.49,-127.52 3248.5,-124 2563.86,-99.65 2390.48,-141.55 1707.5,-88 1690.17,-86.64 1671.42,-84.43 1654.31,-82.11"/>
<polygon fill="#63b8ff" stroke="#63b8ff" points="1655.23,-78.7 1644.84,-80.79 1654.26,-85.64 1655.23,-78.7"/>
</g>
<!-- Node19&#45;&gt;Node6 -->
<g id="edge26" class="edge">
<title>Node19&#45;&gt;Node6</title>
<path fill="none" stroke="#63b8ff" d="M3523.04,-133.77C3497.54,-130.55 3463.6,-126.56 3433.5,-124 3137.25,-98.82 3062.34,-104.9 2765.5,-88 2700.06,-84.27 2624.99,-79.73 2574.33,-76.63"/>
<polygon fill="#63b8ff" stroke="#63b8ff" points="2574.66,-73.15 2564.47,-76.03 2574.23,-80.13 2574.66,-73.15"/>
</g>
<!-- Node19&#45;&gt;Node7 -->
<g id="edge29" class="edge">
<title>Node19&#45;&gt;Node7</title>
<path fill="none" stroke="#63b8ff" d="M3523.35,-136.73C3463.96,-133.38 3347.5,-127.17 3248.5,-124 2756.02,-108.24 1522.21,-132.63 1031.5,-88 1021.31,-87.07 1010.52,-85.66 1000.1,-84.06"/>
<polygon fill="#63b8ff" stroke="#63b8ff" points="1000.89,-80.64 990.47,-82.51 999.78,-87.55 1000.89,-80.64"/>
</g>
<!-- Node19&#45;&gt;Node10 -->
<g id="edge28" class="edge">
<title>Node19&#45;&gt;Node10</title>
<path fill="none" stroke="#63b8ff" d="M3523.21,-131.62C3507.22,-128.85 3488.53,-125.91 3471.5,-124 3212.83,-94.91 3141.23,-128.81 2880.6,-88.1"/>
<polygon fill="#63b8ff" stroke="#63b8ff" points="2881.17,-84.64 2870.74,-86.53 2880.07,-91.56 2881.17,-84.64"/>
</g>
<!-- Node19&#45;&gt;Node11 -->
<g id="edge31" class="edge">
<title>Node19&#45;&gt;Node11</title>
<path fill="none" stroke="#63b8ff" d="M3523.18,-131.86C3507.18,-129.13 3488.5,-126.16 3471.5,-124 3293.11,-101.36 3247.41,-106.08 3068.5,-88 3044.57,-85.58 3018.25,-82.67 2995.38,-80.05"/>
<polygon fill="#63b8ff" stroke="#63b8ff" points="2995.95,-76.59 2985.62,-78.93 2995.15,-83.55 2995.95,-76.59"/>
</g>
<!-- Node19&#45;&gt;Node17 -->
<g id="edge32" class="edge">
<title>Node19&#45;&gt;Node17</title>
<path fill="none" stroke="#63b8ff" d="M3523.34,-137.1C3463.93,-134.23 3347.45,-128.62 3248.5,-124 2897.85,-107.63 2810.1,-105.32 2459.5,-88 2369.1,-83.53 2262.42,-77.71 2209.96,-74.81"/>
<polygon fill="#63b8ff" stroke="#63b8ff" points="2210.41,-71.33 2200.23,-74.27 2210.02,-78.32 2210.41,-71.33"/>
</g>
<!-- Node20 -->
<g id="node18" class="node">
<title>Node20</title>
<g id="a_node18"><a xlink:title=" ">
<polygon fill="#e0e0e0" stroke="#999999" points="3945.38,-82 3817.62,-82 3817.62,-62 3945.38,-62 3945.38,-82"/>
<text text-anchor="middle" x="3881.5" y="-68.5" font-family="Helvetica,sans-Serif" font-size="10.00">boost/dynamic_bitset.hpp</text>
</a>
</g>
</g>
<!-- Node19&#45;&gt;Node20 -->
<g id="edge21" class="edge">
<title>Node19&#45;&gt;Node20</title>
<path fill="none" stroke="#63b8ff" d="M3590.76,-129.53C3597.21,-127.55 3604.06,-125.59 3610.5,-124 3697.35,-102.62 3720.69,-105 3808.5,-88 3814,-86.94 3819.72,-85.8 3825.44,-84.66"/>
<polygon fill="#63b8ff" stroke="#63b8ff" points="3825.77,-88.16 3834.88,-82.74 3824.38,-81.3 3825.77,-88.16"/>
</g>
<!-- Node21 -->
<g id="node19" class="node">
<title>Node21</title>
<g id="a_node19"><a xlink:title=" ">
<polygon fill="#e0e0e0" stroke="#999999" points="4129.75,-82 4001.25,-82 4001.25,-62 4129.75,-62 4129.75,-82"/>
<text text-anchor="middle" x="4065.5" y="-68.5" font-family="Helvetica,sans-Serif" font-size="10.00">boost/unordered_map.hpp</text>
</a>
</g>
</g>
<!-- Node19&#45;&gt;Node21 -->
<g id="edge22" class="edge">
<title>Node19&#45;&gt;Node21</title>
<path fill="none" stroke="#63b8ff" d="M3589.42,-129.56C3596.23,-127.46 3603.57,-125.43 3610.5,-124 3761.05,-92.92 3801.87,-106.3 3954.5,-88 3965.91,-86.63 3977.97,-85.1 3989.77,-83.54"/>
<polygon fill="#63b8ff" stroke="#63b8ff" points="3990.03,-87.04 3999.48,-82.25 3989.1,-80.1 3990.03,-87.04"/>
</g>
<!-- Node22 -->
<g id="node20" class="node">
<title>Node22</title>
<g id="a_node20"><a xlink:title=" ">
<polygon fill="#e0e0e0" stroke="#999999" points="3526.75,-82 3398.25,-82 3398.25,-62 3526.75,-62 3526.75,-82"/>
<text text-anchor="middle" x="3462.5" y="-68.5" font-family="Helvetica,sans-Serif" font-size="10.00">boost/algorithm/string.hpp</text>
</a>
</g>
</g>
<!-- Node19&#45;&gt;Node22 -->
<g id="edge23" class="edge">
<title>Node19&#45;&gt;Node22</title>
<path fill="none" stroke="#63b8ff" d="M3548.17,-129.54C3532.06,-118.91 3505.63,-101.47 3486.38,-88.76"/>
<polygon fill="#63b8ff" stroke="#63b8ff" points="3488.34,-85.86 3478.06,-83.27 3484.48,-91.7 3488.34,-85.86"/>
</g>
<!-- Node23 -->
<g id="node21" class="node">
<title>Node23</title>
<g id="a_node21"><a xlink:title=" ">
<polygon fill="#e0e0e0" stroke="#999999" points="3799.38,-88 3689.62,-88 3689.62,-56 3799.38,-56 3799.38,-88"/>
<text text-anchor="start" x="3697.62" y="-74.5" font-family="Helvetica,sans-Serif" font-size="10.00">boost/algorithm/string</text>
<text text-anchor="middle" x="3744.5" y="-62.5" font-family="Helvetica,sans-Serif" font-size="10.00">/join.hpp</text>
</a>
</g>
</g>
<!-- Node19&#45;&gt;Node23 -->
<g id="edge24" class="edge">
<title>Node19&#45;&gt;Node23</title>
<path fill="none" stroke="#63b8ff" d="M3588.58,-129.54C3615.27,-119.86 3657.52,-104.54 3691.31,-92.29"/>
<polygon fill="#63b8ff" stroke="#63b8ff" points="3692.33,-95.64 3700.53,-88.94 3689.94,-89.06 3692.33,-95.64"/>
</g>
<!-- Node24 -->
<g id="node22" class="node">
<title>Node24</title>
<g id="a_node22"><a xlink:title=" ">
<polygon fill="#e0e0e0" stroke="#999999" points="3672,-82 3545,-82 3545,-62 3672,-62 3672,-82"/>
<text text-anchor="middle" x="3608.5" y="-68.5" font-family="Helvetica,sans-Serif" font-size="10.00">boost/functional/hash.hpp</text>
</a>
</g>
</g>
<!-- Node19&#45;&gt;Node24 -->
<g id="edge25" class="edge">
<title>Node19&#45;&gt;Node24</title>
<path fill="none" stroke="#63b8ff" d="M3569.09,-129.54C3575.92,-119.74 3586.78,-104.16 3595.38,-91.83"/>
<polygon fill="#63b8ff" stroke="#63b8ff" points="3598.21,-93.89 3601.06,-83.68 3592.47,-89.88 3598.21,-93.89"/>
</g>
<!-- Node25 -->
<g id="node23" class="node">
<title>Node25</title>
<g id="a_node23"><a xlink:title=" ">
<polygon fill="#e0e0e0" stroke="#999999" points="3379.88,-88 3285.12,-88 3285.12,-56 3379.88,-56 3379.88,-88"/>
<text text-anchor="start" x="3293.12" y="-74.5" font-family="Helvetica,sans-Serif" font-size="10.00">boost/serialization</text>
<text text-anchor="middle" x="3332.5" y="-62.5" font-family="Helvetica,sans-Serif" font-size="10.00">/split_free.hpp</text>
</a>
</g>
</g>
<!-- Node19&#45;&gt;Node25 -->
<g id="edge27" class="edge">
<title>Node19&#45;&gt;Node25</title>
<path fill="none" stroke="#63b8ff" d="M3529.55,-129.54C3493.48,-119.19 3434.94,-102.39 3391.02,-89.79"/>
<polygon fill="#63b8ff" stroke="#63b8ff" points="3392.22,-86.5 3381.64,-87.1 3390.29,-93.22 3392.22,-86.5"/>
</g>
<!-- Node26&#45;&gt;Node3 -->
<g id="edge39" class="edge">
<title>Node26&#45;&gt;Node3</title>
<path fill="none" stroke="#63b8ff" d="M1398.44,-201.67C1313.37,-202.16 1121.93,-198.4 1075.5,-156 1058.43,-140.41 1055.52,-112.8 1055.82,-93.72"/>
<polygon fill="#63b8ff" stroke="#63b8ff" points="1059.31,-94.06 1056.32,-83.9 1052.32,-93.71 1059.31,-94.06"/>
</g>
<!-- Node26&#45;&gt;Node4 -->
<g id="edge37" class="edge">
<title>Node26&#45;&gt;Node4</title>
<path fill="none" stroke="#63b8ff" d="M1398.52,-200.57C1210.49,-197.95 444.57,-179.63 565.5,-56 602.15,-18.53 2316.64,-11.87 2572.66,-11.09"/>
<polygon fill="#63b8ff" stroke="#63b8ff" points="2572.55,-14.59 2582.54,-11.06 2572.53,-7.59 2572.55,-14.59"/>
</g>
<!-- Node26&#45;&gt;Node5 -->
<g id="edge43" class="edge">
<title>Node26&#45;&gt;Node5</title>
<path fill="none" stroke="#63b8ff" d="M1398.38,-193.97C1347.3,-183.49 1270.41,-160.95 1301.5,-124 1330.93,-89.03 1459.45,-78.04 1536.49,-74.58"/>
<polygon fill="#63b8ff" stroke="#63b8ff" points="1536.57,-78.08 1546.42,-74.17 1536.28,-71.09 1536.57,-78.08"/>
</g>
<!-- Node26&#45;&gt;Node6 -->
<g id="edge36" class="edge">
<title>Node26&#45;&gt;Node6</title>
<path fill="none" stroke="#63b8ff" d="M1480.62,-194.53C1529.64,-186.58 1613.92,-172.14 1685.5,-156 1738.93,-143.95 1750.5,-133.11 1804.5,-124 1929.4,-102.93 2309.18,-82.94 2456.35,-75.78"/>
<polygon fill="#63b8ff" stroke="#63b8ff" points="2456.45,-79.28 2466.27,-75.3 2456.12,-72.29 2456.45,-79.28"/>
</g>
<!-- Node26&#45;&gt;Node7 -->
<g id="edge42" class="edge">
<title>Node26&#45;&gt;Node7</title>
<path fill="none" stroke="#63b8ff" d="M1398.53,-201.36C1261.37,-202.13 824.54,-201.02 782.5,-156 772.79,-145.61 774.12,-135.49 782.5,-124 785.68,-119.64 838.94,-103.1 882.95,-90.03"/>
<polygon fill="#63b8ff" stroke="#63b8ff" points="883.86,-93.41 892.46,-87.21 881.87,-86.69 883.86,-93.41"/>
</g>
<!-- Node26&#45;&gt;Node8 -->
<g id="edge50" class="edge">
<title>Node26&#45;&gt;Node8</title>
<path fill="none" stroke="#63b8ff" d="M1398.5,-200.33C1306.19,-198.23 1075.28,-189.75 885.5,-156 881.2,-155.24 876.76,-154.28 872.34,-153.22"/>
<polygon fill="#63b8ff" stroke="#63b8ff" points="873.56,-149.92 863.01,-150.81 871.81,-156.7 873.56,-149.92"/>
</g>
<!-- Node26&#45;&gt;Node10 -->
<g id="edge40" class="edge">
<title>Node26&#45;&gt;Node10</title>
<path fill="none" stroke="#63b8ff" d="M1480.42,-199.49C1691.62,-191.72 2648.68,-156.45 2650.5,-156 2701.28,-143.33 2754.77,-114.5 2788.12,-94.4"/>
<polygon fill="#63b8ff" stroke="#63b8ff" points="2789.82,-97.47 2796.51,-89.26 2786.16,-91.5 2789.82,-97.47"/>
</g>
<!-- Node26&#45;&gt;Node17 -->
<g id="edge38" class="edge">
<title>Node26&#45;&gt;Node17</title>
<path fill="none" stroke="#63b8ff" d="M1452.37,-191.52C1476.34,-174.46 1530.07,-138.96 1581.5,-124 1803.52,-59.42 1871.25,-118.16 2100.5,-88 2115.37,-86.04 2131.7,-82.99 2145.48,-80.15"/>
<polygon fill="#63b8ff" stroke="#63b8ff" points="2145.83,-83.66 2154.89,-78.16 2144.38,-76.81 2145.83,-83.66"/>
</g>
<!-- Node27 -->
<g id="node25" class="node">
<title>Node27</title>
<g id="a_node25"><a xlink:title=" ">
<polygon fill="#e0e0e0" stroke="#999999" points="1453,-156 1344,-156 1344,-124 1453,-124 1453,-156"/>
<text text-anchor="start" x="1352" y="-142.5" font-family="Helvetica,sans-Serif" font-size="10.00">boost/dynamic_bitset</text>
<text text-anchor="middle" x="1398.5" y="-130.5" font-family="Helvetica,sans-Serif" font-size="10.00">_fwd.hpp</text>
</a>
</g>
</g>
<!-- Node26&#45;&gt;Node27 -->
<g id="edge35" class="edge">
<title>Node26&#45;&gt;Node27</title>
<path fill="none" stroke="#63b8ff" d="M1433.09,-191.62C1428.33,-184.65 1421.6,-174.8 1415.34,-165.64"/>
<polygon fill="#63b8ff" stroke="#63b8ff" points="1418.23,-163.67 1409.7,-157.39 1412.45,-167.62 1418.23,-163.67"/>
</g>
<!-- Node28 -->
<g id="node26" class="node">
<title>Node28</title>
<g id="a_node26"><a xlink:title=" ">
<polygon fill="#e0e0e0" stroke="#999999" points="2091.88,-88 1997.12,-88 1997.12,-56 2091.88,-56 2091.88,-88"/>
<text text-anchor="start" x="2005.12" y="-74.5" font-family="Helvetica,sans-Serif" font-size="10.00">boost/serialization</text>
<text text-anchor="middle" x="2044.5" y="-62.5" font-family="Helvetica,sans-Serif" font-size="10.00">/map.hpp</text>
</a>
</g>
</g>
<!-- Node26&#45;&gt;Node28 -->
<g id="edge41" class="edge">
<title>Node26&#45;&gt;Node28</title>
<path fill="none" stroke="#63b8ff" d="M1444.33,-191.62C1453.6,-174.72 1475.64,-139.48 1505.5,-124 1526.58,-113.07 1850.33,-87.61 1985.7,-77.38"/>
<polygon fill="#63b8ff" stroke="#63b8ff" points="1985.83,-80.88 1995.54,-76.63 1985.3,-73.9 1985.83,-80.88"/>
</g>
<!-- Node29 -->
<g id="node27" class="node">
<title>Node29</title>
<g id="a_node27"><a xlink:href="FMTexceptionhandler_8hpp.html" target="_top" xlink:title=" ">
<polygon fill="#fff0f0" stroke="red" points="1941.38,-150 1813.62,-150 1813.62,-130 1941.38,-130 1941.38,-150"/>
<text text-anchor="middle" x="1877.5" y="-136.5" font-family="Helvetica,sans-Serif" font-size="10.00">FMTexceptionhandler.hpp</text>
</a>
</g>
</g>
<!-- Node26&#45;&gt;Node29 -->
<g id="edge44" class="edge">
<title>Node26&#45;&gt;Node29</title>
<path fill="none" stroke="#63b8ff" d="M1480.38,-196.77C1547.29,-189.66 1684.26,-174.26 1799.5,-156 1806.04,-154.96 1812.88,-153.79 1819.67,-152.56"/>
<polygon fill="#63b8ff" stroke="#63b8ff" points="1820.3,-156 1829.49,-150.74 1819.02,-149.12 1820.3,-156"/>
</g>
<!-- Node33 -->
<g id="node28" class="node">
<title>Node33</title>
<g id="a_node28"><a xlink:title=" ">
<polygon fill="#e0e0e0" stroke="#999999" points="1798.88,-82 1716.12,-82 1716.12,-62 1798.88,-62 1798.88,-82"/>
<text text-anchor="middle" x="1757.5" y="-68.5" font-family="Helvetica,sans-Serif" font-size="10.00">unordered_map</text>
</a>
</g>
</g>
<!-- Node26&#45;&gt;Node33 -->
<g id="edge51" class="edge">
<title>Node26&#45;&gt;Node33</title>
<path fill="none" stroke="#63b8ff" d="M1398.4,-194.42C1375.73,-188.47 1349.43,-177.21 1335.5,-156 1327.69,-144.11 1326.03,-134.61 1335.5,-124 1382.56,-71.27 1581.39,-96.95 1651.5,-88 1668.73,-85.8 1687.5,-83.21 1704.39,-80.8"/>
<polygon fill="#63b8ff" stroke="#63b8ff" points="1704.85,-84.27 1714.25,-79.39 1703.86,-77.34 1704.85,-84.27"/>
</g>
<!-- Node29&#45;&gt;Node6 -->
<g id="edge46" class="edge">
<title>Node29&#45;&gt;Node6</title>
<path fill="none" stroke="#63b8ff" d="M1941.6,-132.37C2065.73,-119.53 2337.22,-91.44 2456.87,-79.06"/>
<polygon fill="#63b8ff" stroke="#63b8ff" points="2456.88,-82.58 2466.46,-78.07 2456.16,-75.62 2456.88,-82.58"/>
</g>
<!-- Node29&#45;&gt;Node7 -->
<g id="edge48" class="edge">
<title>Node29&#45;&gt;Node7</title>
<path fill="none" stroke="#63b8ff" d="M1813.36,-137.43C1671.83,-133.46 1322.27,-120.9 1031.5,-88 1021.33,-86.85 1010.56,-85.32 1000.14,-83.69"/>
<polygon fill="#63b8ff" stroke="#63b8ff" points="1000.94,-80.27 990.51,-82.12 999.81,-87.18 1000.94,-80.27"/>
</g>
<!-- Node29&#45;&gt;Node10 -->
<g id="edge47" class="edge">
<title>Node29&#45;&gt;Node10</title>
<path fill="none" stroke="#63b8ff" d="M1941.64,-134.52C2115.58,-122.35 2594.41,-88.88 2762.35,-77.14"/>
<polygon fill="#63b8ff" stroke="#63b8ff" points="2762.42,-80.64 2772.16,-76.45 2761.94,-73.66 2762.42,-80.64"/>
</g>
<!-- Node29&#45;&gt;Node14 -->
<g id="edge49" class="edge">
<title>Node29&#45;&gt;Node14</title>
<path fill="none" stroke="#63b8ff" d="M1872.96,-129.56C1863.63,-111.4 1840.4,-71.97 1807.5,-56 1747.49,-26.87 717.98,-13.78 507.79,-11.4"/>
<polygon fill="#63b8ff" stroke="#63b8ff" points="508.04,-7.91 498,-11.29 507.96,-14.9 508.04,-7.91"/>
</g>
<!-- Node29&#45;&gt;Node33 -->
<g id="edge45" class="edge">
<title>Node29&#45;&gt;Node33</title>
<path fill="none" stroke="#63b8ff" d="M1860.31,-129.54C1840.52,-118.66 1807.79,-100.66 1784.58,-87.89"/>
<polygon fill="#63b8ff" stroke="#63b8ff" points="1786.44,-84.92 1775.99,-83.17 1783.06,-91.05 1786.44,-84.92"/>
</g>
<!-- Node36&#45;&gt;Node3 -->
<g id="edge54" class="edge">
<title>Node36&#45;&gt;Node3</title>
<path fill="none" stroke="#63b8ff" d="M3153.3,-137.68C2963.1,-131.84 2181.37,-107.87 1539.5,-88 1367.49,-82.68 1160.95,-76.23 1086.23,-73.9"/>
<polygon fill="#63b8ff" stroke="#63b8ff" points="1086.63,-70.41 1076.52,-73.59 1086.41,-77.4 1086.63,-70.41"/>
</g>
<!-- Node36&#45;&gt;Node5 -->
<g id="edge61" class="edge">
<title>Node36&#45;&gt;Node5</title>
<path fill="none" stroke="#63b8ff" d="M3153.37,-137.78C2924.24,-131.25 1854.66,-100.34 1707.5,-88 1690.18,-86.55 1671.43,-84.3 1654.32,-81.99"/>
<polygon fill="#63b8ff" stroke="#63b8ff" points="1655.23,-78.58 1644.85,-80.68 1654.27,-85.52 1655.23,-78.58"/>
</g>
<!-- Node36&#45;&gt;Node6 -->
<g id="edge59" class="edge">
<title>Node36&#45;&gt;Node6</title>
<path fill="none" stroke="#63b8ff" d="M3153.4,-133.92C3127.38,-130.91 3093.55,-127.09 3063.5,-124 2885.67,-105.7 2675.08,-86.91 2574.59,-78.12"/>
<polygon fill="#63b8ff" stroke="#63b8ff" points="2574.95,-74.64 2564.68,-77.25 2574.34,-81.61 2574.95,-74.64"/>
</g>
<!-- Node36&#45;&gt;Node10 -->
<g id="edge60" class="edge">
<title>Node36&#45;&gt;Node10</title>
<path fill="none" stroke="#63b8ff" d="M3163.2,-129.52C3155.46,-127.52 3147.23,-125.54 3139.5,-124 3028.15,-101.75 2995.3,-110.37 2880.31,-88.19"/>
<polygon fill="#63b8ff" stroke="#63b8ff" points="2881.27,-84.81 2870.78,-86.32 2879.92,-91.68 2881.27,-84.81"/>
</g>
<!-- Node36&#45;&gt;Node11 -->
<g id="edge55" class="edge">
<title>Node36&#45;&gt;Node11</title>
<path fill="none" stroke="#63b8ff" d="M3160.94,-129.57C3153.84,-127.71 3146.44,-125.78 3139.5,-124 3086.81,-110.48 3026.36,-95.42 2985.02,-85.2"/>
<polygon fill="#63b8ff" stroke="#63b8ff" points="2985.9,-81.81 2975.36,-82.81 2984.22,-88.61 2985.9,-81.81"/>
</g>
<!-- Node36&#45;&gt;Node15 -->
<g id="edge56" class="edge">
<title>Node36&#45;&gt;Node15</title>
<path fill="none" stroke="#63b8ff" d="M3156.98,-129.53C3108.51,-116.19 3036.46,-89.67 3068.5,-56 3098.13,-24.86 3736.83,-14.09 3923,-11.61"/>
<polygon fill="#63b8ff" stroke="#63b8ff" points="3922.87,-15.11 3932.83,-11.48 3922.78,-8.11 3922.87,-15.11"/>
</g>
<!-- Node36&#45;&gt;Node17 -->
<g id="edge57" class="edge">
<title>Node36&#45;&gt;Node17</title>
<path fill="none" stroke="#63b8ff" d="M3153.31,-134.88C3118.75,-131.67 3069.04,-127.22 3025.5,-124 2707.61,-100.5 2322.07,-80.33 2209.67,-74.62"/>
<polygon fill="#63b8ff" stroke="#63b8ff" points="2210.17,-71.14 2200,-74.13 2209.82,-78.13 2210.17,-71.14"/>
</g>
<!-- Node36&#45;&gt;Node24 -->
<g id="edge58" class="edge">
<title>Node36&#45;&gt;Node24</title>
<path fill="none" stroke="#63b8ff" d="M3239.7,-133.25C3304.24,-124.5 3429.59,-106.83 3535.5,-88 3541.39,-86.95 3547.54,-85.79 3553.65,-84.6"/>
<polygon fill="#63b8ff" stroke="#63b8ff" points="3553.96,-88.11 3563.08,-82.72 3552.59,-81.24 3553.96,-88.11"/>
</g>
<!-- Node37 -->
<g id="node30" class="node">
<title>Node37</title>
<g id="a_node30"><a xlink:title=" ">
<polygon fill="#e0e0e0" stroke="#999999" points="3191.12,-82 3151.88,-82 3151.88,-62 3191.12,-62 3191.12,-82"/>
<text text-anchor="middle" x="3171.5" y="-68.5" font-family="Helvetica,sans-Serif" font-size="10.00">limits</text>
</a>
</g>
</g>
<!-- Node36&#45;&gt;Node37 -->
<g id="edge53" class="edge">
<title>Node36&#45;&gt;Node37</title>
<path fill="none" stroke="#63b8ff" d="M3192.92,-129.54C3189.32,-120.04 3183.65,-105.09 3179.06,-92.95"/>
<polygon fill="#63b8ff" stroke="#63b8ff" points="3182.43,-91.97 3175.61,-83.85 3175.88,-94.45 3182.43,-91.97"/>
</g>
<!-- Node38 -->
<g id="node31" class="node">
<title>Node38</title>
<g id="a_node31"><a xlink:title=" ">
<polygon fill="#e0e0e0" stroke="#999999" points="3133.38,-82 3077.62,-82 3077.62,-62 3133.38,-62 3133.38,-82"/>
<text text-anchor="middle" x="3105.5" y="-68.5" font-family="Helvetica,sans-Serif" font-size="10.00">algorithm</text>
</a>
</g>
</g>
<!-- Node36&#45;&gt;Node38 -->
<g id="edge62" class="edge">
<title>Node36&#45;&gt;Node38</title>
<path fill="none" stroke="#63b8ff" d="M3183.46,-129.54C3168.87,-118.96 3144.97,-101.63 3127.48,-88.94"/>
<polygon fill="#63b8ff" stroke="#63b8ff" points="3129.89,-86.37 3119.74,-83.33 3125.78,-92.03 3129.89,-86.37"/>
</g>
<!-- Node39&#45;&gt;Node5 -->
<g id="edge67" class="edge">
<title>Node39&#45;&gt;Node5</title>
<path fill="none" stroke="#63b8ff" d="M1692.98,-193.56C1667.52,-187.44 1638.67,-176.29 1619.5,-156 1605.12,-140.78 1599.28,-117.48 1596.95,-99.43"/>
<polygon fill="#63b8ff" stroke="#63b8ff" points="1600.46,-99.33 1596,-89.71 1593.49,-100.01 1600.46,-99.33"/>
</g>
<!-- Node39&#45;&gt;Node6 -->
<g id="edge65" class="edge">
<title>Node39&#45;&gt;Node6</title>
<path fill="none" stroke="#63b8ff" d="M1801.99,-191.63C1887.2,-177.01 2057.18,-147.96 2201.5,-124 2290.36,-109.25 2393.45,-92.59 2456.56,-82.45"/>
<polygon fill="#63b8ff" stroke="#63b8ff" points="2457.06,-85.91 2466.38,-80.87 2455.95,-79 2457.06,-85.91"/>
</g>
<!-- Node39&#45;&gt;Node7 -->
<g id="edge71" class="edge">
<title>Node39&#45;&gt;Node7</title>
<path fill="none" stroke="#63b8ff" d="M1693.15,-199.03C1511.6,-192.32 936.77,-170.01 923.5,-156 909.01,-140.7 916.31,-116.6 925.59,-98.31"/>
<polygon fill="#63b8ff" stroke="#63b8ff" points="928.61,-100.09 930.4,-89.64 922.49,-96.69 928.61,-100.09"/>
</g>
<!-- Node39&#45;&gt;Node8 -->
<g id="edge68" class="edge">
<title>Node39&#45;&gt;Node8</title>
<path fill="none" stroke="#63b8ff" d="M1693.14,-198.85C1516.39,-191.78 964.81,-168.93 885.5,-156 881.09,-155.28 876.52,-154.34 872,-153.27"/>
<polygon fill="#63b8ff" stroke="#63b8ff" points="872.97,-149.91 862.42,-150.81 871.23,-156.69 872.97,-149.91"/>
</g>
<!-- Node39&#45;&gt;Node10 -->
<g id="edge66" class="edge">
<title>Node39&#45;&gt;Node10</title>
<path fill="none" stroke="#63b8ff" d="M1802.07,-199.25C2021.28,-192.14 2826.46,-165.43 2835.5,-156 2849.89,-141 2843.96,-117.03 2835.86,-98.7"/>
<polygon fill="#63b8ff" stroke="#63b8ff" points="2839.03,-97.22 2831.49,-89.77 2832.74,-100.29 2839.03,-97.22"/>
</g>
<!-- Node39&#45;&gt;Node14 -->
<g id="edge69" class="edge">
<title>Node39&#45;&gt;Node14</title>
<path fill="none" stroke="#63b8ff" d="M1693.07,-199.1C1502.57,-192.38 872.45,-169.37 782.5,-156 660.95,-137.93 612.32,-162.38 514.5,-88 495.68,-73.69 483.61,-48.84 476.96,-31.25"/>
<polygon fill="#63b8ff" stroke="#63b8ff" points="480.29,-30.17 473.7,-21.87 473.68,-32.47 480.29,-30.17"/>
</g>
<!-- Node39&#45;&gt;Node17 -->
<g id="edge70" class="edge">
<title>Node39&#45;&gt;Node17</title>
<path fill="none" stroke="#63b8ff" d="M1751.35,-191.72C1758.83,-174.98 1777.05,-139.99 1804.5,-124 1919.02,-57.31 1969.6,-108.68 2100.5,-88 2115.32,-85.66 2131.64,-82.55 2145.43,-79.78"/>
<polygon fill="#63b8ff" stroke="#63b8ff" points="2145.75,-83.29 2154.85,-77.85 2144.35,-76.43 2145.75,-83.29"/>
</g>
<!-- Node39&#45;&gt;Node19 -->
<g id="edge64" class="edge">
<title>Node39&#45;&gt;Node19</title>
<path fill="none" stroke="#63b8ff" d="M1801.91,-199.4C2062.67,-191.71 3174.95,-158.86 3248.5,-156 3341.49,-152.39 3449.91,-146.93 3511.95,-143.69"/>
<polygon fill="#63b8ff" stroke="#63b8ff" points="3512.03,-147.19 3521.84,-143.17 3511.67,-140.2 3512.03,-147.19"/>
</g>
<!-- Node39&#45;&gt;Node29 -->
<g id="edge72" class="edge">
<title>Node39&#45;&gt;Node29</title>
<path fill="none" stroke="#63b8ff" d="M1767.81,-191.62C1789.09,-181.81 1822.74,-166.27 1847.16,-155"/>
<polygon fill="#63b8ff" stroke="#63b8ff" points="1848.34,-158.31 1855.96,-150.94 1845.41,-151.96 1848.34,-158.31"/>
</g>
<!-- Node40&#45;&gt;Node6 -->
<g id="edge75" class="edge">
<title>Node40&#45;&gt;Node6</title>
<path fill="none" stroke="#63b8ff" d="M2422.58,-247.64C2448.4,-232.38 2496.41,-199.44 2515.5,-156 2523.24,-138.38 2522.91,-116.55 2520.81,-99.7"/>
<polygon fill="#63b8ff" stroke="#63b8ff" points="2524.29,-99.28 2519.3,-89.94 2517.37,-100.36 2524.29,-99.28"/>
</g>
<!-- Node40&#45;&gt;Node7 -->
<g id="edge77" class="edge">
<title>Node40&#45;&gt;Node7</title>
<path fill="none" stroke="#63b8ff" d="M2338.01,-256.05C1999.28,-251.23 500.05,-228.94 483.5,-212 456.17,-184.02 457.11,-152.87 483.5,-124 512.03,-92.79 805.58,-95.31 882.63,-87.64"/>
<polygon fill="#63b8ff" stroke="#63b8ff" points="882.77,-91.15 892.23,-86.39 881.87,-84.21 882.77,-91.15"/>
</g>
<!-- Node40&#45;&gt;Node10 -->
<g id="edge76" class="edge">
<title>Node40&#45;&gt;Node10</title>
<path fill="none" stroke="#63b8ff" d="M2473.12,-254.24C2601.19,-247.45 2871.47,-225.09 2928.5,-156 2937.55,-145.03 2936.09,-136.03 2928.5,-124 2922.05,-113.78 2898.98,-102.19 2875.9,-92.65"/>
<polygon fill="#63b8ff" stroke="#63b8ff" points="2877.35,-89.46 2866.76,-88.99 2874.74,-95.96 2877.35,-89.46"/>
</g>
<!-- Node40&#45;&gt;Node39 -->
<g id="edge74" class="edge">
<title>Node40&#45;&gt;Node39</title>
<path fill="none" stroke="#63b8ff" d="M2337.87,-251.45C2210.98,-241.04 1938.72,-218.69 1813.27,-208.4"/>
<polygon fill="#63b8ff" stroke="#63b8ff" points="1813.72,-204.92 1803.46,-207.59 1813.14,-211.9 1813.72,-204.92"/>
</g>
<!-- Node41&#45;&gt;Node6 -->
<g id="edge80" class="edge">
<title>Node41&#45;&gt;Node6</title>
<path fill="none" stroke="#63b8ff" d="M1024.19,-256.22C1290.74,-252.81 2305.78,-238.14 2368.5,-212 2394.76,-201.05 2440.82,-143.55 2461.5,-124 2471.26,-114.78 2482.01,-104.62 2491.34,-95.81"/>
<polygon fill="#63b8ff" stroke="#63b8ff" points="2493.46,-98.62 2498.33,-89.21 2488.65,-93.53 2493.46,-98.62"/>
</g>
<!-- Node41&#45;&gt;Node7 -->
<g id="edge82" class="edge">
<title>Node41&#45;&gt;Node7</title>
<path fill="none" stroke="#63b8ff" d="M896.59,-254.07C725,-246.07 266.41,-223.63 255.5,-212 228.74,-183.48 228.65,-152.43 255.5,-124 301.69,-75.09 776.08,-97.06 882.64,-87.62"/>
<polygon fill="#63b8ff" stroke="#63b8ff" points="882.73,-91.13 892.25,-86.48 881.91,-84.18 882.73,-91.13"/>
</g>
<!-- Node41&#45;&gt;Node14 -->
<g id="edge81" class="edge">
<title>Node41&#45;&gt;Node14</title>
<path fill="none" stroke="#63b8ff" d="M896.75,-254.49C712.53,-247.07 191.77,-225 179.5,-212 131.9,-161.58 134.38,-108.64 179.5,-56 211.74,-18.39 361.92,-11.94 433.01,-11.02"/>
<polygon fill="#63b8ff" stroke="#63b8ff" points="433.03,-14.52 443,-10.92 432.97,-7.52 433.03,-14.52"/>
</g>
<!-- Node41&#45;&gt;Node39 -->
<g id="edge79" class="edge">
<title>Node41&#45;&gt;Node39</title>
<path fill="none" stroke="#63b8ff" d="M1024.24,-252.63C1171.26,-242.54 1532.93,-217.72 1681.82,-207.51"/>
<polygon fill="#63b8ff" stroke="#63b8ff" points="1681.77,-211.02 1691.51,-206.84 1681.29,-204.03 1681.77,-211.02"/>
</g>
<!-- Node42&#45;&gt;Node4 -->
<g id="edge89" class="edge">
<title>Node42&#45;&gt;Node4</title>
<path fill="none" stroke="#63b8ff" d="M2194.01,-191.65C2169.75,-166.65 2109.99,-97.39 2147.5,-56 2176.02,-24.53 2473.76,-14.27 2572.72,-11.72"/>
<polygon fill="#63b8ff" stroke="#63b8ff" points="2572.61,-15.22 2582.52,-11.47 2572.43,-8.22 2572.61,-15.22"/>
</g>
<!-- Node42&#45;&gt;Node5 -->
<g id="edge86" class="edge">
<title>Node42&#45;&gt;Node5</title>
<path fill="none" stroke="#63b8ff" d="M2162.9,-193.29C2160.06,-192.83 2157.24,-192.39 2154.5,-192 1999.7,-169.86 1956.38,-193.21 1804.5,-156 1744.15,-141.22 1678.06,-112.74 1636.7,-93.3"/>
<polygon fill="#63b8ff" stroke="#63b8ff" points="1638.38,-90.23 1627.84,-89.1 1635.37,-96.55 1638.38,-90.23"/>
</g>
<!-- Node42&#45;&gt;Node6 -->
<g id="edge87" class="edge">
<title>Node42&#45;&gt;Node6</title>
<path fill="none" stroke="#63b8ff" d="M2222.11,-191.62C2239.3,-182.82 2265.44,-169.08 2287.5,-156 2309.87,-142.74 2312.84,-134.8 2336.5,-124 2374.96,-106.45 2420.87,-93.52 2456.56,-85.07"/>
<polygon fill="#63b8ff" stroke="#63b8ff" points="2457.34,-88.48 2466.29,-82.82 2455.76,-81.66 2457.34,-88.48"/>
</g>
<!-- Node42&#45;&gt;Node7 -->
<g id="edge91" class="edge">
<title>Node42&#45;&gt;Node7</title>
<path fill="none" stroke="#63b8ff" d="M2162.93,-193.07C2160.08,-192.66 2157.25,-192.3 2154.5,-192 2031.03,-178.75 1153.16,-201.2 1037.5,-156 1033.22,-154.33 993.7,-119.54 966.72,-95.54"/>
<polygon fill="#63b8ff" stroke="#63b8ff" points="969.39,-93.23 959.59,-89.19 964.73,-98.46 969.39,-93.23"/>
</g>
<!-- Node42&#45;&gt;Node10 -->
<g id="edge88" class="edge">
<title>Node42&#45;&gt;Node10</title>
<path fill="none" stroke="#63b8ff" d="M2244.1,-193.27C2247.27,-192.8 2250.43,-192.36 2253.5,-192 2322.02,-183.87 2826.14,-206.19 2873.5,-156 2890.58,-137.9 2871.14,-113.37 2851.35,-95.68"/>
<polygon fill="#63b8ff" stroke="#63b8ff" points="2853.71,-93.09 2843.81,-89.29 2849.18,-98.43 2853.71,-93.09"/>
</g>
<!-- Node42&#45;&gt;Node17 -->
<g id="edge90" class="edge">
<title>Node42&#45;&gt;Node17</title>
<path fill="none" stroke="#63b8ff" d="M2198.21,-191.69C2193.46,-182.82 2186.74,-168.94 2183.5,-156 2178.3,-135.23 2177.11,-110.69 2177.03,-93.7"/>
<polygon fill="#63b8ff" stroke="#63b8ff" points="2180.53,-93.92 2177.12,-83.89 2173.53,-93.86 2180.53,-93.92"/>
</g>
<!-- Node42&#45;&gt;Node29 -->
<g id="edge84" class="edge">
<title>Node42&#45;&gt;Node29</title>
<path fill="none" stroke="#63b8ff" d="M2162.87,-193.52C2106.88,-183.22 2005.5,-164.56 1939.87,-152.48"/>
<polygon fill="#63b8ff" stroke="#63b8ff" points="1940.81,-149.09 1930.34,-150.73 1939.55,-155.98 1940.81,-149.09"/>
</g>
<!-- Node42&#45;&gt;Node36 -->
<g id="edge85" class="edge">
<title>Node42&#45;&gt;Node36</title>
<path fill="none" stroke="#63b8ff" d="M2244.1,-193.26C2247.27,-192.79 2250.43,-192.36 2253.5,-192 2264.61,-190.7 2942.34,-154.54 3141.83,-143.91"/>
<polygon fill="#63b8ff" stroke="#63b8ff" points="3141.86,-147.41 3151.66,-143.39 3141.49,-140.42 3141.86,-147.41"/>
</g>
<!-- Node56&#45;&gt;Node3 -->
<g id="edge97" class="edge">
<title>Node56&#45;&gt;Node3</title>
<path fill="none" stroke="#63b8ff" d="M1149.17,-129.54C1131.77,-118.81 1103.13,-101.14 1082.49,-88.41"/>
<polygon fill="#63b8ff" stroke="#63b8ff" points="1084.44,-85.5 1074.09,-83.23 1080.76,-91.46 1084.44,-85.5"/>
</g>
<!-- Node56&#45;&gt;Node4 -->
<g id="edge98" class="edge">
<title>Node56&#45;&gt;Node4</title>
<path fill="none" stroke="#63b8ff" d="M1197.76,-129.51C1262.77,-111.45 1411.53,-72.44 1539.5,-56 1747.03,-29.34 2418.88,-14.67 2572.85,-11.61"/>
<polygon fill="#63b8ff" stroke="#63b8ff" points="2572.76,-15.11 2582.69,-11.41 2572.63,-8.11 2572.76,-15.11"/>
</g>
<!-- Node56&#45;&gt;Node5 -->
<g id="edge94" class="edge">
<title>Node56&#45;&gt;Node5</title>
<path fill="none" stroke="#63b8ff" d="M1200.17,-129.57C1208.45,-127.56 1217.25,-125.58 1225.5,-124 1334.47,-103.15 1463.05,-87.39 1536.36,-79.23"/>
<polygon fill="#63b8ff" stroke="#63b8ff" points="1536.58,-82.73 1546.13,-78.15 1535.81,-75.77 1536.58,-82.73"/>
</g>
<!-- Node56&#45;&gt;Node6 -->
<g id="edge93" class="edge">
<title>Node56&#45;&gt;Node6</title>
<path fill="none" stroke="#63b8ff" d="M1212,-134.24C1246.29,-130.95 1293.72,-126.69 1335.5,-124 1722.58,-99.05 1820.01,-105.43 2207.5,-88 2294.22,-84.1 2394.66,-79.12 2456.64,-76"/>
<polygon fill="#63b8ff" stroke="#63b8ff" points="2456.43,-79.51 2466.24,-75.51 2456.08,-72.52 2456.43,-79.51"/>
</g>
<!-- Node56&#45;&gt;Node7 -->
<g id="edge95" class="edge">
<title>Node56&#45;&gt;Node7</title>
<path fill="none" stroke="#63b8ff" d="M1132.55,-129.54C1098.06,-119.34 1042.37,-102.85 1000,-90.31"/>
<polygon fill="#63b8ff" stroke="#63b8ff" points="1001.01,-86.96 990.43,-87.48 999.03,-93.68 1001.01,-86.96"/>
</g>
<!-- Node56&#45;&gt;Node17 -->
<g id="edge96" class="edge">
<title>Node56&#45;&gt;Node17</title>
<path fill="none" stroke="#63b8ff" d="M1211.64,-134.35C1245.96,-131.09 1293.57,-126.82 1335.5,-124 1675.11,-101.12 1762.56,-128.65 2100.5,-88 2115.4,-86.21 2131.73,-83.18 2145.5,-80.31"/>
<polygon fill="#63b8ff" stroke="#63b8ff" points="2145.87,-83.82 2154.91,-78.29 2144.4,-76.97 2145.87,-83.82"/>
</g>
<!-- Node60&#45;&gt;Node4 -->
<g id="edge101" class="edge">
<title>Node60&#45;&gt;Node4</title>
<path fill="none" stroke="#63b8ff" d="M2086.86,-191.62C2044.46,-167.96 1943.61,-104.29 1988.5,-56 2028.56,-12.91 2452.65,-10.63 2572.89,-10.86"/>
<polygon fill="#63b8ff" stroke="#63b8ff" points="2572.65,-14.35 2582.66,-10.88 2572.67,-7.35 2572.65,-14.35"/>
</g>
<!-- Node60&#45;&gt;Node5 -->
<g id="edge104" class="edge">
<title>Node60&#45;&gt;Node5</title>
<path fill="none" stroke="#63b8ff" d="M2063.45,-199.47C1973.37,-195.64 1761.18,-183.86 1695.5,-156 1664.16,-142.71 1635.02,-116.25 1616.38,-96.76"/>
<polygon fill="#63b8ff" stroke="#63b8ff" points="1618.98,-94.42 1609.61,-89.48 1613.86,-99.19 1618.98,-94.42"/>
</g>
<!-- Node60&#45;&gt;Node6 -->
<g id="edge105" class="edge">
<title>Node60&#45;&gt;Node6</title>
<path fill="none" stroke="#63b8ff" d="M2123.84,-191.51C2156.76,-175.66 2226.1,-143.61 2287.5,-124 2343.9,-105.99 2410.11,-91.93 2456.6,-83.18"/>
<polygon fill="#63b8ff" stroke="#63b8ff" points="2457,-86.67 2466.2,-81.4 2455.72,-79.79 2457,-86.67"/>
</g>
<!-- Node60&#45;&gt;Node7 -->
<g id="edge106" class="edge">
<title>Node60&#45;&gt;Node7</title>
<path fill="none" stroke="#63b8ff" d="M2063.68,-199.58C1865.36,-192.66 1011.41,-162.52 999.5,-156 976.84,-143.6 961.08,-118.08 951.77,-98.59"/>
<polygon fill="#63b8ff" stroke="#63b8ff" points="955.03,-97.32 947.76,-89.62 948.64,-100.17 955.03,-97.32"/>
</g>
<!-- Node60&#45;&gt;Node8 -->
<g id="edge103" class="edge">
<title>Node60&#45;&gt;Node8</title>
<path fill="none" stroke="#63b8ff" d="M2063.43,-199.74C1868.2,-193.69 1038.66,-167.54 923.5,-156 910.42,-154.69 896.38,-152.7 883.31,-150.6"/>
<polygon fill="#63b8ff" stroke="#63b8ff" points="884.05,-147.17 873.61,-148.98 882.9,-154.08 884.05,-147.17"/>
</g>
<!-- Node60&#45;&gt;Node17 -->
<g id="edge100" class="edge">
<title>Node60&#45;&gt;Node17</title>
<path fill="none" stroke="#63b8ff" d="M2109.75,-191.79C2121.58,-171.05 2150.54,-120.26 2166.5,-92.28"/>
<polygon fill="#63b8ff" stroke="#63b8ff" points="2169.44,-94.2 2171.35,-83.78 2163.36,-90.73 2169.44,-94.2"/>
</g>
<!-- Node60&#45;&gt;Node36 -->
<g id="edge102" class="edge">
<title>Node60&#45;&gt;Node36</title>
<path fill="none" stroke="#63b8ff" d="M2145.37,-193.2C2148.45,-192.75 2151.52,-192.34 2154.5,-192 2179.24,-189.18 2930.77,-153.55 3141.85,-143.58"/>
<polygon fill="#63b8ff" stroke="#63b8ff" points="3141.9,-147.08 3151.72,-143.11 3141.57,-140.09 3141.9,-147.08"/>
</g>
<!-- Node64&#45;&gt;Node4 -->
<g id="edge110" class="edge">
<title>Node64&#45;&gt;Node4</title>
<path fill="none" stroke="#63b8ff" d="M2886.19,-249.06C2889.33,-248.67 2892.46,-248.31 2895.5,-248 3394.18,-197.56 3541.51,-306.83 4019.5,-156 4091.39,-133.31 4209.03,-110.07 4156.5,-56 4129.02,-27.71 2854.25,-13.53 2636.1,-11.31"/>
<polygon fill="#63b8ff" stroke="#63b8ff" points="2636.42,-7.81 2626.39,-11.21 2636.35,-14.81 2636.42,-7.81"/>
</g>
<!-- Node64&#45;&gt;Node6 -->
<g id="edge113" class="edge">
<title>Node64&#45;&gt;Node6</title>
<path fill="none" stroke="#63b8ff" d="M2828.5,-247.52C2805.24,-223.52 2740.3,-159.72 2674.5,-124 2643.19,-107 2605.29,-94.57 2574.35,-86.24"/>
<polygon fill="#63b8ff" stroke="#63b8ff" points="2575.32,-82.87 2564.76,-83.73 2573.55,-89.64 2575.32,-82.87"/>
</g>
<!-- Node64&#45;&gt;Node7 -->
<g id="edge115" class="edge">
<title>Node64&#45;&gt;Node7</title>
<path fill="none" stroke="#63b8ff" d="M2788.57,-249.93C2781.84,-249.16 2775.01,-248.48 2768.5,-248 2538.42,-231.05 916.04,-269.02 692.5,-212 640.49,-198.73 613.29,-201.92 585.5,-156 488.76,3.83 381.66,-181.51 882.53,-88.2"/>
<polygon fill="#63b8ff" stroke="#63b8ff" points="883.05,-91.66 892.23,-86.37 881.75,-84.78 883.05,-91.66"/>
</g>
<!-- Node64&#45;&gt;Node10 -->
<g id="edge114" class="edge">
<title>Node64&#45;&gt;Node10</title>
<path fill="none" stroke="#63b8ff" d="M2886.22,-249.31C2889.36,-248.86 2892.47,-248.42 2895.5,-248 3029.42,-229.63 3077.31,-273.86 3197.5,-212 3237.69,-191.31 3278.88,-157.48 3248.5,-124 3195.15,-65.21 2977.76,-99.61 2880.51,-87.84"/>
<polygon fill="#63b8ff" stroke="#63b8ff" points="2881.17,-84.4 2870.77,-86.39 2880.14,-91.32 2881.17,-84.4"/>
</g>
<!-- Node64&#45;&gt;Node17 -->
<g id="edge109" class="edge">
<title>Node64&#45;&gt;Node17</title>
<path fill="none" stroke="#63b8ff" d="M2821.94,-247.52C2807.27,-238.54 2784.75,-224.58 2765.5,-212 2728.56,-187.86 2717.69,-183.91 2683.5,-156 2667.67,-143.08 2669,-132.68 2650.5,-124 2571.88,-87.11 2303.28,-76.41 2209.85,-73.77"/>
<polygon fill="#63b8ff" stroke="#63b8ff" points="2210.2,-70.28 2200.11,-73.51 2210.01,-77.28 2210.2,-70.28"/>
</g>
<!-- Node64&#45;&gt;Node36 -->
<g id="edge112" class="edge">
<title>Node64&#45;&gt;Node36</title>
<path fill="none" stroke="#63b8ff" d="M2886.22,-249.34C2889.36,-248.88 2892.47,-248.43 2895.5,-248 2958.05,-239.16 3129.93,-253.57 3177.5,-212 3191.75,-199.55 3195.87,-177.68 3196.81,-161.5"/>
<polygon fill="#63b8ff" stroke="#63b8ff" points="3200.31,-161.6 3196.99,-151.54 3193.31,-161.47 3200.31,-161.6"/>
</g>
<!-- Node64&#45;&gt;Node37 -->
<g id="edge111" class="edge">
<title>Node64&#45;&gt;Node37</title>
<path fill="none" stroke="#63b8ff" d="M2886.21,-249.28C2889.35,-248.83 2892.47,-248.4 2895.5,-248 2968.85,-238.32 3162.42,-248.99 3226.5,-212 3263.87,-190.43 3289.73,-160.98 3267.5,-124 3253.51,-100.72 3224.91,-87.5 3202.55,-80.38"/>
<polygon fill="#63b8ff" stroke="#63b8ff" points="3203.57,-77.03 3192.99,-77.62 3201.62,-83.76 3203.57,-77.03"/>
</g>
<!-- Node64&#45;&gt;Node60 -->
<g id="edge108" class="edge">
<title>Node64&#45;&gt;Node60</title>
<path fill="none" stroke="#63b8ff" d="M2788.55,-250.18C2781.82,-249.37 2774.99,-248.61 2768.5,-248 2500.07,-222.66 2427.91,-243.68 2156.76,-212.11"/>
<polygon fill="#63b8ff" stroke="#63b8ff" points="2157.21,-208.64 2146.87,-210.94 2156.39,-215.59 2157.21,-208.64"/>
</g>
<!-- Node65&#45;&gt;Node3 -->
<g id="edge117" class="edge">
<title>Node65&#45;&gt;Node3</title>
<path fill="none" stroke="#63b8ff" d="M1548.41,-256.43C1367.02,-254.02 722.24,-243.26 692.5,-212 676.5,-195.18 662.15,-163.37 702.5,-124 749.77,-77.88 932.56,-100.03 997.5,-88 1007.82,-86.09 1019.01,-83.45 1028.89,-80.92"/>
<polygon fill="#63b8ff" stroke="#63b8ff" points="1029.54,-84.37 1038.31,-78.43 1027.75,-77.6 1029.54,-84.37"/>
</g>
<!-- Node65&#45;&gt;Node7 -->
<g id="edge122" class="edge">
<title>Node65&#45;&gt;Node7</title>
<path fill="none" stroke="#63b8ff" d="M1548.49,-256.55C1412.87,-254.87 1009.31,-247.05 676.5,-212 522.01,-195.73 432.16,-274.31 331.5,-156 322.28,-145.17 321.78,-134.38 331.5,-124 371.75,-81.04 784.95,-96.35 882.38,-87.64"/>
<polygon fill="#63b8ff" stroke="#63b8ff" points="882.73,-91.12 892.25,-86.46 881.9,-84.17 882.73,-91.12"/>
</g>
<!-- Node65&#45;&gt;Node8 -->
<g id="edge121" class="edge">
<title>Node65&#45;&gt;Node8</title>
<path fill="none" stroke="#63b8ff" d="M1548.54,-252.81C1434.14,-242.05 1132.31,-210.44 885.5,-156 881.89,-155.2 878.16,-154.31 874.43,-153.37"/>
<polygon fill="#63b8ff" stroke="#63b8ff" points="875.36,-150 864.8,-150.84 873.58,-156.77 875.36,-150"/>
</g>
<!-- Node65&#45;&gt;Node17 -->
<g id="edge118" class="edge">
<title>Node65&#45;&gt;Node17</title>
<path fill="none" stroke="#63b8ff" d="M1603.75,-247.82C1626.87,-222.81 1695.37,-153.35 1768.5,-124 1906.24,-68.71 1953.75,-110.21 2100.5,-88 2115.33,-85.76 2131.66,-82.66 2145.44,-79.87"/>
<polygon fill="#63b8ff" stroke="#63b8ff" points="2145.77,-83.38 2154.86,-77.93 2144.36,-76.52 2145.77,-83.38"/>
</g>
<!-- Node65&#45;&gt;Node39 -->
<g id="edge119" class="edge">
<title>Node65&#45;&gt;Node39</title>
<path fill="none" stroke="#63b8ff" d="M1621.98,-247.59C1646.35,-238.94 1682.75,-226 1710.09,-216.29"/>
<polygon fill="#63b8ff" stroke="#63b8ff" points="1711.14,-219.63 1719.39,-212.99 1708.8,-213.04 1711.14,-219.63"/>
</g>
<!-- Node65&#45;&gt;Node42 -->
<g id="edge120" class="edge">
<title>Node65&#45;&gt;Node42</title>
<path fill="none" stroke="#63b8ff" d="M1642.41,-252.82C1660,-251.27 1680.16,-249.52 1698.5,-248 1897.44,-231.46 1951,-238.14 2151.68,-212.25"/>
<polygon fill="#63b8ff" stroke="#63b8ff" points="2151.94,-215.75 2161.41,-210.98 2151.04,-208.8 2151.94,-215.75"/>
</g>
<!-- Node67&#45;&gt;Node3 -->
<g id="edge139" class="edge">
<title>Node67&#45;&gt;Node3</title>
<path fill="none" stroke="#63b8ff" d="M1707.32,-253.16C1525.76,-235.76 790.41,-164.78 782.5,-156 675.29,-36.98 567.84,-177.53 997.5,-88 1007.77,-85.86 1018.95,-83.17 1028.84,-80.65"/>
<polygon fill="#63b8ff" stroke="#63b8ff" points="1029.46,-84.11 1038.27,-78.21 1027.71,-77.33 1029.46,-84.11"/>
</g>
<!-- Node67&#45;&gt;Node4 -->
<g id="edge140" class="edge">
<title>Node67&#45;&gt;Node4</title>
<path fill="none" stroke="#63b8ff" d="M1707.38,-252.65C1690.19,-250.94 1669.88,-249.12 1651.5,-248 1581.49,-243.72 440.15,-260.52 389.5,-212 361.23,-184.91 364.37,-156.96 385.5,-124 424.57,-63.06 462.96,-72.24 533.5,-56 740.4,-8.38 2327.72,-10.32 2572.77,-10.91"/>
<polygon fill="#63b8ff" stroke="#63b8ff" points="2572.5,-14.41 2582.51,-10.94 2572.52,-7.41 2572.5,-14.41"/>
</g>
<!-- Node67&#45;&gt;Node6 -->
<g id="edge141" class="edge">
<title>Node67&#45;&gt;Node6</title>
<path fill="none" stroke="#63b8ff" d="M1787.8,-256.08C1921.81,-252.75 2347.07,-240.08 2401.5,-212 2450.09,-186.93 2485.57,-131.07 2503.12,-98.31"/>
<polygon fill="#63b8ff" stroke="#63b8ff" points="2506.19,-100 2507.68,-89.51 2499.97,-96.77 2506.19,-100"/>
</g>
<!-- Node67&#45;&gt;Node7 -->
<g id="edge146" class="edge">
<title>Node67&#45;&gt;Node7</title>
<path fill="none" stroke="#63b8ff" d="M1707.38,-252.66C1690.19,-250.95 1669.88,-249.13 1651.5,-248 1582.49,-243.77 455.68,-261.59 407.5,-212 380.25,-183.95 380.91,-152.68 407.5,-124 441.88,-86.93 794.99,-95.77 882.45,-87.64"/>
<polygon fill="#63b8ff" stroke="#63b8ff" points="882.75,-91.13 892.24,-86.43 881.89,-84.18 882.75,-91.13"/>
</g>
<!-- Node67&#45;&gt;Node14 -->
<g id="edge145" class="edge">
<title>Node67&#45;&gt;Node14</title>
<path fill="none" stroke="#63b8ff" d="M1707.38,-252.65C1690.19,-250.94 1669.88,-249.12 1651.5,-248 1580.49,-243.68 422.88,-261.21 371.5,-212 343.22,-184.92 355.66,-161.32 367.5,-124 380.96,-81.6 420.94,-46.28 446.95,-26.95"/>
<polygon fill="#63b8ff" stroke="#63b8ff" points="448.84,-29.9 454.92,-21.23 444.75,-24.22 448.84,-29.9"/>
</g>
<!-- Node67&#45;&gt;Node15 -->
<g id="edge142" class="edge">
<title>Node67&#45;&gt;Node15</title>
<path fill="none" stroke="#63b8ff" d="M1787.82,-256.23C2045.65,-251.31 3458.78,-223.96 3650.5,-212 3897.06,-196.62 4007.33,-306.14 4203.5,-156 4239.97,-128.09 4259.03,-91.17 4229.5,-56 4203.75,-25.33 4090.66,-15.56 4023.71,-12.45"/>
<polygon fill="#63b8ff" stroke="#63b8ff" points="4024.23,-8.97 4014.09,-12.04 4023.93,-15.96 4024.23,-8.97"/>
</g>
<!-- Node67&#45;&gt;Node17 -->
<g id="edge138" class="edge">
<title>Node67&#45;&gt;Node17</title>
<path fill="none" stroke="#63b8ff" d="M1769.41,-247.62C1840.26,-217.31 2063.32,-121.86 2146.14,-86.42"/>
<polygon fill="#63b8ff" stroke="#63b8ff" points="2147.44,-89.67 2155.25,-82.52 2144.68,-83.24 2147.44,-89.67"/>
</g>
<!-- Node67&#45;&gt;Node26 -->
<g id="edge143" class="edge">
<title>Node67&#45;&gt;Node26</title>
<path fill="none" stroke="#63b8ff" d="M1707.23,-249.94C1651.93,-240.24 1552.42,-222.8 1491.54,-212.12"/>
<polygon fill="#63b8ff" stroke="#63b8ff" points="1492.21,-208.69 1481.76,-210.41 1491,-215.58 1492.21,-208.69"/>
</g>
<!-- Node67&#45;&gt;Node33 -->
<g id="edge144" class="edge">
<title>Node67&#45;&gt;Node33</title>
<path fill="none" stroke="#63b8ff" d="M1707.38,-253.28C1620.02,-244.98 1418.09,-224.7 1389.5,-212 1345.06,-192.26 1292.05,-160.21 1324.5,-124 1373.28,-69.55 1578.97,-97.12 1651.5,-88 1668.73,-85.83 1687.5,-83.25 1704.4,-80.84"/>
<polygon fill="#63b8ff" stroke="#63b8ff" points="1704.85,-84.31 1714.26,-79.43 1703.86,-77.38 1704.85,-84.31"/>
</g>
<!-- Node67&#45;&gt;Node36 -->
<g id="edge137" class="edge">
<title>Node67&#45;&gt;Node36</title>
<path fill="none" stroke="#63b8ff" d="M1787.7,-254.79C1894.12,-248.85 2191.97,-231.65 2439.5,-212 2703.05,-191.08 3017.58,-159.43 3142,-146.65"/>
<polygon fill="#63b8ff" stroke="#63b8ff" points="3142.34,-150.13 3151.93,-145.63 3141.62,-143.17 3142.34,-150.13"/>
</g>
<!-- Node67&#45;&gt;Node39 -->
<g id="edge136" class="edge">
<title>Node67&#45;&gt;Node39</title>
<path fill="none" stroke="#63b8ff" d="M1747.5,-247.59C1747.5,-241.01 1747.5,-231.96 1747.5,-223.73"/>
<polygon fill="#63b8ff" stroke="#63b8ff" points="1751,-223.81 1747.5,-213.81 1744,-223.81 1751,-223.81"/>
</g>
<!-- Node67&#45;&gt;Node54 -->
<g id="edge124" class="edge">
<title>Node67&#45;&gt;Node54</title>
<path fill="none" stroke="#63b8ff" d="M1787.7,-255.41C1980.6,-247.8 2811.84,-214.99 3050.94,-205.55"/>
<polygon fill="#63b8ff" stroke="#63b8ff" points="3050.84,-209.06 3060.69,-205.16 3050.56,-202.06 3050.84,-209.06"/>
</g>
<!-- Node54&#45;&gt;Node3 -->
<g id="edge126" class="edge">
<title>Node54&#45;&gt;Node3</title>
<path fill="none" stroke="#63b8ff" d="M3062.19,-200.15C2746.04,-195.07 1130.31,-168.52 1108.5,-156 1084.82,-142.41 1070.73,-112.96 1063.55,-93.05"/>
<polygon fill="#63b8ff" stroke="#63b8ff" points="1066.95,-92.21 1060.49,-83.81 1060.31,-94.4 1066.95,-92.21"/>
</g>
<!-- Node54&#45;&gt;Node4 -->
<g id="edge125" class="edge">
<title>Node54&#45;&gt;Node4</title>
<path fill="none" stroke="#63b8ff" d="M3168.93,-200.16C3202.47,-196.51 3243.43,-185.67 3265.5,-156 3273.99,-144.59 3270.79,-137.2 3265.5,-124 3263.55,-119.15 3205.22,-58.23 3200.5,-56 3149.31,-31.8 2752.13,-16.15 2636.18,-12.07"/>
<polygon fill="#63b8ff" stroke="#63b8ff" points="2636.58,-8.58 2626.47,-11.73 2636.34,-15.57 2636.58,-8.58"/>
</g>
<!-- Node54&#45;&gt;Node6 -->
<g id="edge129" class="edge">
<title>Node54&#45;&gt;Node6</title>
<path fill="none" stroke="#63b8ff" d="M3108.03,-191.61C3093.94,-174.7 3061.62,-139.43 3025.5,-124 2984.83,-106.63 2699.79,-85.48 2574.43,-76.9"/>
<polygon fill="#63b8ff" stroke="#63b8ff" points="2574.89,-73.42 2564.67,-76.24 2574.41,-80.41 2574.89,-73.42"/>
</g>
<!-- Node54&#45;&gt;Node8 -->
<g id="edge134" class="edge">
<title>Node54&#45;&gt;Node8</title>
<path fill="none" stroke="#63b8ff" d="M3062.29,-200.6C2828.03,-198.65 1865.24,-188.97 1075.5,-156 1009.16,-153.23 932.77,-148.24 883.39,-144.78"/>
<polygon fill="#63b8ff" stroke="#63b8ff" points="883.79,-141.3 873.57,-144.09 883.3,-148.29 883.79,-141.3"/>
</g>
<!-- Node54&#45;&gt;Node10 -->
<g id="edge130" class="edge">
<title>Node54&#45;&gt;Node10</title>
<path fill="none" stroke="#63b8ff" d="M3116.89,-191.63C3118.73,-175.38 3119.84,-141.98 3101.5,-124 3067.76,-90.92 2943.43,-97.43 2880.35,-87.92"/>
<polygon fill="#63b8ff" stroke="#63b8ff" points="2881.26,-84.53 2870.8,-86.21 2880.03,-91.42 2881.26,-84.53"/>
</g>
<!-- Node54&#45;&gt;Node15 -->
<g id="edge133" class="edge">
<title>Node54&#45;&gt;Node15</title>
<path fill="none" stroke="#63b8ff" d="M3168.88,-199.39C3370.43,-192.74 4076.86,-164.11 4138.5,-88 4173.17,-45.19 4084.18,-24.98 4023.82,-16.44"/>
<polygon fill="#63b8ff" stroke="#63b8ff" points="4024.42,-12.99 4014.05,-15.14 4023.49,-19.93 4024.42,-12.99"/>
</g>
<!-- Node54&#45;&gt;Node17 -->
<g id="edge132" class="edge">
<title>Node54&#45;&gt;Node17</title>
<path fill="none" stroke="#63b8ff" d="M3069.02,-191.52C2990.07,-175.68 2824.6,-143.66 2683.5,-124 2505.08,-99.14 2289.66,-81.51 2209.54,-75.38"/>
<polygon fill="#63b8ff" stroke="#63b8ff" points="2210.04,-71.91 2199.8,-74.64 2209.51,-78.89 2210.04,-71.91"/>
</g>
<!-- Node54&#45;&gt;Node19 -->
<g id="edge131" class="edge">
<title>Node54&#45;&gt;Node19</title>
<path fill="none" stroke="#63b8ff" d="M3168.97,-193.82C3255.93,-182.15 3426.81,-159.21 3511.89,-147.79"/>
<polygon fill="#63b8ff" stroke="#63b8ff" points="3512.11,-151.29 3521.56,-146.5 3511.18,-144.36 3512.11,-151.29"/>
</g>
<!-- Node54&#45;&gt;Node33 -->
<g id="edge127" class="edge">
<title>Node54&#45;&gt;Node33</title>
<path fill="none" stroke="#63b8ff" d="M3062.18,-197.08C2963.11,-189.72 2743.93,-173 2559.5,-156 2277,-129.95 1939.13,-93.13 1810.63,-78.91"/>
<polygon fill="#63b8ff" stroke="#63b8ff" points="1811.04,-75.44 1800.72,-77.82 1810.27,-82.4 1811.04,-75.44"/>
</g>
<!-- Node54&#45;&gt;Node36 -->
<g id="edge135" class="edge">
<title>Node54&#45;&gt;Node36</title>
<path fill="none" stroke="#63b8ff" d="M3128.16,-191.62C3140.64,-182.38 3159.96,-168.07 3174.88,-157.01"/>
<polygon fill="#63b8ff" stroke="#63b8ff" points="3176.76,-159.97 3182.72,-151.21 3172.6,-154.35 3176.76,-159.97"/>
</g>
<!-- Node54&#45;&gt;Node38 -->
<g id="edge128" class="edge">
<title>Node54&#45;&gt;Node38</title>
<path fill="none" stroke="#63b8ff" d="M3168.7,-197.46C3197.32,-192.51 3230.38,-181.25 3248.5,-156 3256.79,-144.44 3256.78,-135.56 3248.5,-124 3219.52,-83.56 3189.13,-105.35 3142.5,-88 3141.18,-87.51 3139.85,-87 3138.5,-86.49"/>
<polygon fill="#63b8ff" stroke="#63b8ff" points="3140.11,-83.36 3129.53,-82.96 3137.55,-89.88 3140.11,-83.36"/>
</g>
<!-- Node69&#45;&gt;Node4 -->
<g id="edge153" class="edge">
<title>Node69&#45;&gt;Node4</title>
<path fill="none" stroke="#63b8ff" d="M2311.46,-191.65C2313.51,-176 2319.59,-144.25 2336.5,-124 2398.16,-50.15 2516.48,-23.64 2572.97,-14.9"/>
<polygon fill="#63b8ff" stroke="#63b8ff" points="2573.47,-18.37 2582.86,-13.47 2572.47,-11.44 2573.47,-18.37"/>
</g>
<!-- Node69&#45;&gt;Node6 -->
<g id="edge149" class="edge">
<title>Node69&#45;&gt;Node6</title>
<path fill="none" stroke="#63b8ff" d="M2315.86,-191.55C2325.43,-175.48 2346.98,-142.73 2373.5,-124 2398.32,-106.47 2429.81,-94.35 2456.82,-86.34"/>
<polygon fill="#63b8ff" stroke="#63b8ff" points="2457.58,-89.77 2466.25,-83.68 2455.67,-83.03 2457.58,-89.77"/>
</g>
<!-- Node69&#45;&gt;Node7 -->
<g id="edge151" class="edge">
<title>Node69&#45;&gt;Node7</title>
<path fill="none" stroke="#63b8ff" d="M2261.51,-192.96C2258.46,-192.6 2255.44,-192.27 2252.5,-192 2122.22,-179.95 1198.81,-199.74 1075.5,-156 1053.38,-148.16 1053.15,-136.83 1033.5,-124 1017.04,-113.25 998.15,-102.52 981.79,-93.7"/>
<polygon fill="#63b8ff" stroke="#63b8ff" points="983.78,-90.79 973.31,-89.18 980.49,-96.97 983.78,-90.79"/>
</g>
<!-- Node69&#45;&gt;Node8 -->
<g id="edge154" class="edge">
<title>Node69&#45;&gt;Node8</title>
<path fill="none" stroke="#63b8ff" d="M2261.51,-192.96C2258.46,-192.6 2255.44,-192.27 2252.5,-192 1714.54,-142.49 1577.03,-183.62 1037.5,-156 984.96,-153.31 924.99,-148.78 883.35,-145.4"/>
<polygon fill="#63b8ff" stroke="#63b8ff" points="883.88,-141.93 873.63,-144.6 883.31,-148.9 883.88,-141.93"/>
</g>
<!-- Node69&#45;&gt;Node10 -->
<g id="edge150" class="edge">
<title>Node69&#45;&gt;Node10</title>
<path fill="none" stroke="#63b8ff" d="M2359.43,-199.13C2499.43,-193.56 2892.8,-176.16 2911.5,-156 2921.17,-145.57 2918.66,-136.29 2911.5,-124 2903.93,-111.02 2891.7,-101.07 2878.66,-93.57"/>
<polygon fill="#63b8ff" stroke="#63b8ff" points="2880.41,-90.54 2869.93,-89 2877.16,-96.74 2880.41,-90.54"/>
</g>
<!-- Node69&#45;&gt;Node17 -->
<g id="edge152" class="edge">
<title>Node69&#45;&gt;Node17</title>
<path fill="none" stroke="#63b8ff" d="M2281.66,-191.64C2262.73,-184.33 2238.43,-172.61 2221.5,-156 2203.35,-138.2 2190.99,-111.31 2184.1,-92.99"/>
<polygon fill="#63b8ff" stroke="#63b8ff" points="2187.49,-92.07 2180.86,-83.81 2180.89,-94.4 2187.49,-92.07"/>
</g>
<!-- Node69&#45;&gt;Node21 -->
<g id="edge148" class="edge">
<title>Node69&#45;&gt;Node21</title>
<path fill="none" stroke="#63b8ff" d="M2359.2,-200.8C2575.72,-199.71 3452.23,-193.06 3724.5,-156 3834.99,-140.96 3961.78,-105.01 4025.09,-85.73"/>
<polygon fill="#63b8ff" stroke="#63b8ff" points="4025.81,-89.17 4034.35,-82.89 4023.76,-82.47 4025.81,-89.17"/>
</g>
<!-- Node69&#45;&gt;Node29 -->
<g id="edge155" class="edge">
<title>Node69&#45;&gt;Node29</title>
<path fill="none" stroke="#63b8ff" d="M2261.78,-193.37C2258.64,-192.9 2255.53,-192.44 2252.5,-192 2148.76,-176.9 2028.66,-160.81 1952.89,-150.83"/>
<polygon fill="#63b8ff" stroke="#63b8ff" points="1953.45,-147.37 1943.08,-149.54 1952.54,-154.31 1953.45,-147.37"/>
</g>
<!-- Node71&#45;&gt;Node4 -->
<g id="edge169" class="edge">
<title>Node71&#45;&gt;Node4</title>
<path fill="none" stroke="#63b8ff" d="M2699.79,-247.65C2702.55,-234.94 2706.37,-211.54 2702.5,-192 2689.55,-126.52 2643.32,-60.24 2619.28,-29.18"/>
<polygon fill="#63b8ff" stroke="#63b8ff" points="2622.21,-27.24 2613.26,-21.57 2616.71,-31.58 2622.21,-27.24"/>
</g>
<!-- Node71&#45;&gt;Node6 -->
<g id="edge170" class="edge">
<title>Node71&#45;&gt;Node6</title>
<path fill="none" stroke="#63b8ff" d="M2696.83,-247.54C2694.63,-223.58 2685.62,-159.88 2650.5,-124 2630.18,-103.24 2600.58,-90.82 2574.27,-83.45"/>
<polygon fill="#63b8ff" stroke="#63b8ff" points="2575.25,-80.09 2564.7,-80.97 2573.5,-86.87 2575.25,-80.09"/>
</g>
<!-- Node71&#45;&gt;Node10 -->
<g id="edge171" class="edge">
<title>Node71&#45;&gt;Node10</title>
<path fill="none" stroke="#63b8ff" d="M2744.25,-247.54C2818.7,-231.42 2958.78,-196.42 2987.5,-156 2995.74,-144.41 2995.95,-135.44 2987.5,-124 2984.1,-119.4 2926.34,-102.32 2879.9,-89.18"/>
<polygon fill="#63b8ff" stroke="#63b8ff" points="2881.02,-85.85 2870.44,-86.51 2879.12,-92.59 2881.02,-85.85"/>
</g>
<!-- Node71&#45;&gt;Node54 -->
<g id="edge159" class="edge">
<title>Node71&#45;&gt;Node54</title>
<path fill="none" stroke="#63b8ff" d="M2760.29,-249.07C2830.52,-240.16 2947.69,-225.23 3048.5,-212 3049.33,-211.89 3050.16,-211.78 3051,-211.67"/>
<polygon fill="#63b8ff" stroke="#63b8ff" points="3051.16,-215.18 3060.61,-210.4 3050.24,-208.24 3051.16,-215.18"/>
</g>
<!-- Node71&#45;&gt;Node72 -->
<g id="edge160" class="edge">
<title>Node71&#45;&gt;Node72</title>
<path fill="none" stroke="#63b8ff" d="M2653.05,-247.51C2633.74,-240.95 2612.95,-230.02 2601.5,-212 2591.89,-196.88 2594.15,-176.08 2597.9,-160.9"/>
<polygon fill="#63b8ff" stroke="#63b8ff" points="2601.17,-162.18 2600.61,-151.6 2594.45,-160.22 2601.17,-162.18"/>
</g>
<!-- Node72&#45;&gt;Node3 -->
<g id="edge163" class="edge">
<title>Node72&#45;&gt;Node3</title>
<path fill="none" stroke="#63b8ff" d="M2567.79,-137.43C2354.44,-128.33 1277.16,-82.37 1086.4,-74.23"/>
<polygon fill="#63b8ff" stroke="#63b8ff" points="1086.78,-70.75 1076.64,-73.82 1086.48,-77.74 1086.78,-70.75"/>
</g>
<!-- Node72&#45;&gt;Node4 -->
<g id="edge162" class="edge">
<title>Node72&#45;&gt;Node4</title>
<path fill="none" stroke="#63b8ff" d="M2604.5,-129.79C2604.5,-109.41 2604.5,-60.05 2604.5,-31.79"/>
<polygon fill="#63b8ff" stroke="#63b8ff" points="2608,-31.98 2604.5,-21.98 2601,-31.98 2608,-31.98"/>
</g>
<!-- Node72&#45;&gt;Node6 -->
<g id="edge165" class="edge">
<title>Node72&#45;&gt;Node6</title>
<path fill="none" stroke="#63b8ff" d="M2591.75,-129.54C2579.61,-120.55 2560.91,-106.67 2545.06,-94.92"/>
<polygon fill="#63b8ff" stroke="#63b8ff" points="2547.47,-92.35 2537.35,-89.2 2543.3,-97.97 2547.47,-92.35"/>
</g>
<!-- Node72&#45;&gt;Node7 -->
<g id="edge168" class="edge">
<title>Node72&#45;&gt;Node7</title>
<path fill="none" stroke="#63b8ff" d="M2567.64,-138.1C2345.44,-132.63 1188.69,-103.58 1031.5,-88 1021.31,-86.99 1010.53,-85.53 1000.11,-83.92"/>
<polygon fill="#63b8ff" stroke="#63b8ff" points="1000.91,-80.51 990.48,-82.37 999.79,-87.42 1000.91,-80.51"/>
</g>
<!-- Node72&#45;&gt;Node10 -->
<g id="edge166" class="edge">
<title>Node72&#45;&gt;Node10</title>
<path fill="none" stroke="#63b8ff" d="M2635.59,-129.54C2668.65,-119.49 2721.73,-103.34 2762.72,-90.88"/>
<polygon fill="#63b8ff" stroke="#63b8ff" points="2763.67,-94.25 2772.22,-87.99 2761.63,-87.55 2763.67,-94.25"/>
</g>
<!-- Node72&#45;&gt;Node15 -->
<g id="edge164" class="edge">
<title>Node72&#45;&gt;Node15</title>
<path fill="none" stroke="#63b8ff" d="M2641.46,-138.2C2711.48,-135.81 2867.61,-126.25 2992.5,-88 3022.91,-78.69 3025.74,-64.06 3056.5,-56 3222.13,-12.59 3755.61,-10.35 3922.86,-10.75"/>
<polygon fill="#63b8ff" stroke="#63b8ff" points="3922.74,-14.25 3932.75,-10.78 3922.76,-7.25 3922.74,-14.25"/>
</g>
<!-- Node72&#45;&gt;Node17 -->
<g id="edge161" class="edge">
<title>Node72&#45;&gt;Node17</title>
<path fill="none" stroke="#63b8ff" d="M2567.72,-133.32C2485.37,-120.59 2287.27,-89.97 2209.56,-77.96"/>
<polygon fill="#63b8ff" stroke="#63b8ff" points="2210.49,-74.56 2200.07,-76.49 2209.42,-81.47 2210.49,-74.56"/>
</g>
<!-- Node72&#45;&gt;Node28 -->
<g id="edge167" class="edge">
<title>Node72&#45;&gt;Node28</title>
<path fill="none" stroke="#63b8ff" d="M2567.55,-134.55C2542.22,-131.52 2507.83,-127.45 2477.5,-124 2330.91,-107.35 2293.86,-106.63 2147.5,-88 2133.21,-86.18 2117.84,-84.04 2103.44,-81.96"/>
<polygon fill="#63b8ff" stroke="#63b8ff" points="2104.04,-78.51 2093.64,-80.52 2103.03,-85.43 2104.04,-78.51"/>
</g>
<!-- Node75&#45;&gt;Node4 -->
<g id="edge174" class="edge">
<title>Node75&#45;&gt;Node4</title>
<path fill="none" stroke="#63b8ff" d="M3460.77,-253.87C3549.14,-248.7 3717.27,-236.44 3858.5,-212 3959.62,-194.5 3989.46,-199.3 4082.5,-156 4137.8,-130.26 4219.01,-99.74 4176.5,-56 4148.65,-27.34 2856.12,-13.46 2636.16,-11.3"/>
<polygon fill="#63b8ff" stroke="#63b8ff" points="2636.4,-7.8 2626.36,-11.2 2636.33,-14.8 2636.4,-7.8"/>
</g>
<!-- Node75&#45;&gt;Node6 -->
<g id="edge175" class="edge">
<title>Node75&#45;&gt;Node6</title>
<path fill="none" stroke="#63b8ff" d="M3390.68,-247.83C3363.8,-220.12 3282.67,-138.28 3248.5,-124 3232.99,-117.52 2746.1,-87.14 2574.58,-76.6"/>
<polygon fill="#63b8ff" stroke="#63b8ff" points="2574.97,-73.12 2564.77,-76 2574.54,-80.11 2574.97,-73.12"/>
</g>
<!-- Node75&#45;&gt;Node10 -->
<g id="edge176" class="edge">
<title>Node75&#45;&gt;Node10</title>
<path fill="none" stroke="#63b8ff" d="M3395.79,-247.81C3390.08,-234.44 3378.15,-209.36 3362.5,-192 3327.74,-153.43 3316.15,-142.13 3267.5,-124 3108.22,-64.63 3051.85,-115.94 2880.46,-88.09"/>
<polygon fill="#63b8ff" stroke="#63b8ff" points="2881.2,-84.66 2870.76,-86.44 2880.03,-91.56 2881.2,-84.66"/>
</g>
<!-- Node75&#45;&gt;Node54 -->
<g id="edge173" class="edge">
<title>Node75&#45;&gt;Node54</title>
<path fill="none" stroke="#63b8ff" d="M3349.71,-247.53C3301.39,-238.35 3227.98,-224.39 3176.26,-214.55"/>
<polygon fill="#63b8ff" stroke="#63b8ff" points="3177.2,-211.17 3166.72,-212.74 3175.89,-218.05 3177.2,-211.17"/>
</g>
<!-- Node75&#45;&gt;Node72 -->
<g id="edge177" class="edge">
<title>Node75&#45;&gt;Node72</title>
<path fill="none" stroke="#63b8ff" d="M3338.18,-249.54C3268.96,-241 3153.03,-226.34 3053.5,-212 2907.24,-190.93 2734.73,-162.7 2652.62,-149.05"/>
<polygon fill="#63b8ff" stroke="#63b8ff" points="2653.34,-145.63 2642.9,-147.44 2652.19,-152.53 2653.34,-145.63"/>
</g>
<!-- Node76&#45;&gt;Node14 -->
<g id="edge179" class="edge">
<title>Node76&#45;&gt;Node14</title>
<path fill="none" stroke="#63b8ff" d="M65.46,-191.58C71.49,-165.15 92.42,-90.06 141.5,-56 188.15,-23.63 357.77,-14.43 433.52,-11.91"/>
<polygon fill="#63b8ff" stroke="#63b8ff" points="433.44,-15.42 443.33,-11.61 433.22,-8.42 433.44,-15.42"/>
</g>
<!-- Node46&#45;&gt;Node6 -->
<g id="edge183" class="edge">
<title>Node46&#45;&gt;Node6</title>
<path fill="none" stroke="#63b8ff" d="M3636.39,-129.52C3628.06,-127.34 3619,-125.28 3610.5,-124 3238.82,-67.85 3140.9,-107.26 2765.5,-88 2700.04,-84.64 2624.98,-80.04 2574.32,-76.82"/>
<polygon fill="#63b8ff" stroke="#63b8ff" points="2574.66,-73.33 2564.46,-76.19 2574.22,-80.32 2574.66,-73.33"/>
</g>
<!-- Node46&#45;&gt;Node10 -->
<g id="edge184" class="edge">
<title>Node46&#45;&gt;Node10</title>
<path fill="none" stroke="#63b8ff" d="M3636.39,-129.56C3628.05,-127.38 3618.99,-125.31 3610.5,-124 3292.21,-74.84 3202.42,-136.31 2880.31,-88.02"/>
<polygon fill="#63b8ff" stroke="#63b8ff" points="2881.15,-84.61 2870.74,-86.56 2880.1,-91.53 2881.15,-84.61"/>
</g>
<!-- Node46&#45;&gt;Node15 -->
<g id="edge187" class="edge">
<title>Node46&#45;&gt;Node15</title>
<path fill="none" stroke="#63b8ff" d="M3715.96,-136.64C3788.56,-132.11 3920.69,-119.64 3954.5,-88 3969.79,-73.69 3973.62,-49.21 3974.21,-31.69"/>
<polygon fill="#63b8ff" stroke="#63b8ff" points="3977.71,-31.91 3974.18,-21.92 3970.71,-31.93 3977.71,-31.91"/>
</g>
<!-- Node46&#45;&gt;Node17 -->
<g id="edge185" class="edge">
<title>Node46&#45;&gt;Node17</title>
<path fill="none" stroke="#63b8ff" d="M3636.7,-129.54C3628.28,-127.32 3619.11,-125.25 3610.5,-124 3357.26,-87.2 2715.17,-98.8 2459.5,-88 2369.07,-84.18 2262.4,-78.07 2209.95,-74.96"/>
<polygon fill="#63b8ff" stroke="#63b8ff" points="2210.42,-71.48 2200.23,-74.38 2210,-78.47 2210.42,-71.48"/>
</g>
<!-- Node46&#45;&gt;Node20 -->
<g id="edge182" class="edge">
<title>Node46&#45;&gt;Node20</title>
<path fill="none" stroke="#63b8ff" d="M3698.16,-129.54C3735.43,-118.05 3798.47,-98.61 3840.04,-85.79"/>
<polygon fill="#63b8ff" stroke="#63b8ff" points="3840.93,-89.18 3849.45,-82.88 3838.86,-82.49 3840.93,-89.18"/>
</g>
<!-- Node46&#45;&gt;Node24 -->
<g id="edge186" class="edge">
<title>Node46&#45;&gt;Node24</title>
<path fill="none" stroke="#63b8ff" d="M3659.05,-129.54C3650.02,-119.45 3635.51,-103.22 3624.35,-90.73"/>
<polygon fill="#63b8ff" stroke="#63b8ff" points="3627.22,-88.69 3617.95,-83.57 3622,-93.36 3627.22,-88.69"/>
</g>
<!-- Node58&#45;&gt;Node4 -->
<g id="edge193" class="edge">
<title>Node58&#45;&gt;Node4</title>
<path fill="none" stroke="#63b8ff" d="M3641.72,-195.44C3799.05,-179.57 4210.73,-130.38 4138.5,-56 4111.37,-28.07 2853.93,-13.62 2636.4,-11.33"/>
<polygon fill="#63b8ff" stroke="#63b8ff" points="2636.47,-7.83 2626.43,-11.22 2636.4,-14.83 2636.47,-7.83"/>
</g>
<!-- Node58&#45;&gt;Node6 -->
<g id="edge192" class="edge">
<title>Node58&#45;&gt;Node6</title>
<path fill="none" stroke="#63b8ff" d="M3557.19,-191.54C3510.81,-174.67 3408.76,-139.7 3319.5,-124 3301.17,-120.78 2757.09,-87.63 2574.55,-76.57"/>
<polygon fill="#63b8ff" stroke="#63b8ff" points="2575.02,-73.09 2564.82,-75.98 2574.59,-80.08 2575.02,-73.09"/>
</g>
<!-- Node58&#45;&gt;Node15 -->
<g id="edge194" class="edge">
<title>Node58&#45;&gt;Node15</title>
<path fill="none" stroke="#63b8ff" d="M3641.88,-199.62C3782.55,-195.92 4127.62,-184.05 4171.5,-156 4211.56,-130.39 4239.81,-92.63 4209.5,-56 4186.41,-28.09 4086.01,-17.34 4023.84,-13.31"/>
<polygon fill="#63b8ff" stroke="#63b8ff" points="4024.41,-9.84 4014.22,-12.72 4023.99,-16.82 4024.41,-9.84"/>
</g>
<!-- Node58&#45;&gt;Node19 -->
<g id="edge190" class="edge">
<title>Node58&#45;&gt;Node19</title>
<path fill="none" stroke="#63b8ff" d="M3579.38,-191.62C3576.63,-183.39 3572.54,-171.13 3569.08,-160.74"/>
<polygon fill="#63b8ff" stroke="#63b8ff" points="3572.5,-159.93 3566.02,-151.55 3565.86,-162.14 3572.5,-159.93"/>
</g>
<!-- Node58&#45;&gt;Node36 -->
<g id="edge189" class="edge">
<title>Node58&#45;&gt;Node36</title>
<path fill="none" stroke="#63b8ff" d="M3523.03,-191.76C3448.76,-180.21 3322.74,-160.62 3250.91,-149.46"/>
<polygon fill="#63b8ff" stroke="#63b8ff" points="3251.78,-146.05 3241.36,-147.97 3250.7,-152.97 3251.78,-146.05"/>
</g>
<!-- Node58&#45;&gt;Node46 -->
<g id="edge191" class="edge">
<title>Node58&#45;&gt;Node46</title>
<path fill="none" stroke="#63b8ff" d="M3595.78,-191.62C3609.01,-182.29 3629.54,-167.79 3645.26,-156.7"/>
<polygon fill="#63b8ff" stroke="#63b8ff" points="3646.92,-159.81 3653.08,-151.18 3642.89,-154.09 3646.92,-159.81"/>
</g>
</g>
</svg>
