<?xml version="1.0" encoding="UTF-8" standalone="no"?>
<!DOCTYPE svg PUBLIC "-//W3C//DTD SVG 1.1//EN"
 "http://www.w3.org/Graphics/SVG/1.1/DTD/svg11.dtd">
<!-- Generated by graphviz version 10.0.1 (20240210.2158)
 -->
<!-- Title: Core::FMTcomplexyieldhandler Pages: 1 -->
<svg width="2195pt" height="323pt"
 viewBox="0.00 0.00 2194.75 323.00" xmlns="http://www.w3.org/2000/svg" xmlns:xlink="http://www.w3.org/1999/xlink">
<g id="graph0" class="graph" transform="scale(1 1) rotate(0) translate(4 319)">
<title>Core::FMTcomplexyieldhandler</title>
<!-- Node1 -->
<g id="node1" class="node">
<title>Node1</title>
<g id="a_node1"><a xlink:title=" ">
<polygon fill="#999999" stroke="#666666" points="2186.75,-77 2036.5,-77 2036.5,-57 2186.75,-57 2186.75,-77"/>
<text text-anchor="middle" x="2111.62" y="-63.5" font-family="Helvetica,sans-Serif" font-size="10.00">Core::FMTcomplexyieldhandler</text>
</a>
</g>
</g>
<!-- Node2 -->
<g id="node2" class="node">
<title>Node2</title>
<g id="a_node2"><a xlink:href="classCore_1_1FMTyieldhandler.html" target="_top" xlink:title=" ">
<polygon fill="white" stroke="#666666" points="1999.5,-77 1886,-77 1886,-57 1999.5,-57 1999.5,-77"/>
<text text-anchor="middle" x="1942.75" y="-63.5" font-family="Helvetica,sans-Serif" font-size="10.00">Core::FMTyieldhandler</text>
</a>
</g>
</g>
<!-- Node2&#45;&gt;Node1 -->
<g id="edge1" class="edge">
<title>Node2&#45;&gt;Node1</title>
<path fill="none" stroke="#63b8ff" d="M2011.18,-67C2019.38,-67 2027.78,-67 2036.07,-67"/>
<polygon fill="#63b8ff" stroke="#63b8ff" points="2011.29,-63.5 2001.29,-67 2011.29,-70.5 2011.29,-63.5"/>
</g>
<!-- Node3 -->
<g id="node3" class="node">
<title>Node3</title>
<g id="a_node3"><a xlink:href="classCore_1_1FMTobject.html" target="_top" xlink:title=" ">
<polygon fill="white" stroke="#666666" points="1820,-141 1732,-141 1732,-121 1820,-121 1820,-141"/>
<text text-anchor="middle" x="1776" y="-127.5" font-family="Helvetica,sans-Serif" font-size="10.00">Core::FMTobject</text>
</a>
</g>
</g>
<!-- Node3&#45;&gt;Node2 -->
<g id="edge2" class="edge">
<title>Node3&#45;&gt;Node2</title>
<path fill="none" stroke="#63b8ff" d="M1820.73,-117.02C1835.81,-111.95 1852.75,-105.99 1868,-100 1885.75,-93.02 1905.46,-84.14 1920.03,-77.35"/>
<polygon fill="#63b8ff" stroke="#63b8ff" points="1819.95,-113.59 1811.56,-120.06 1822.15,-120.23 1819.95,-113.59"/>
</g>
<!-- Node4 -->
<g id="node4" class="node">
<title>Node4</title>
<g id="a_node4"><a xlink:title=" ">
<polygon fill="white" stroke="#666666" points="1645,-202 1511.25,-202 1511.25,-170 1645,-170 1645,-202"/>
<text text-anchor="start" x="1519.25" y="-188.5" font-family="Helvetica,sans-Serif" font-size="10.00">std::shared_ptr&lt; Exception</text>
<text text-anchor="middle" x="1578.12" y="-176.5" font-family="Helvetica,sans-Serif" font-size="10.00">::FMTexceptionhandler &gt;</text>
</a>
</g>
</g>
<!-- Node4&#45;&gt;Node3 -->
<g id="edge3" class="edge">
<title>Node4&#45;&gt;Node3</title>
<path fill="none" stroke="#9a32cd" stroke-dasharray="5,2" d="M1648.51,-166.52C1678.58,-158.07 1712.59,-148.52 1737.77,-141.45"/>
<polygon fill="#9a32cd" stroke="#9a32cd" points="1647.77,-163.09 1639.09,-169.16 1649.66,-169.83 1647.77,-163.09"/>
<text text-anchor="middle" x="1688.12" y="-163.5" font-family="Helvetica,sans-Serif" font-size="10.00"> _exhandler</text>
</g>
<!-- Node5 -->
<g id="node5" class="node">
<title>Node5</title>
<g id="a_node5"><a xlink:href="classException_1_1FMTexceptionhandler.html" target="_top" xlink:title=" ">
<polygon fill="white" stroke="#666666" points="1440.75,-209 1282.25,-209 1282.25,-189 1440.75,-189 1440.75,-209"/>
<text text-anchor="middle" x="1361.5" y="-195.5" font-family="Helvetica,sans-Serif" font-size="10.00">Exception::FMTexceptionhandler</text>
</a>
</g>
</g>
<!-- Node5&#45;&gt;Node4 -->
<g id="edge4" class="edge">
<title>Node5&#45;&gt;Node4</title>
<path fill="none" stroke="#9a32cd" stroke-dasharray="5,2" d="M1452.58,-193.54C1472.09,-192.36 1492.38,-191.13 1510.78,-190.02"/>
<polygon fill="#9a32cd" stroke="#9a32cd" points="1452.48,-190.04 1442.71,-194.14 1452.9,-197.03 1452.48,-190.04"/>
<text text-anchor="middle" x="1476" y="-194.5" font-family="Helvetica,sans-Serif" font-size="10.00"> ptr</text>
</g>
<!-- Node6 -->
<g id="node6" class="node">
<title>Node6</title>
<g id="a_node6"><a xlink:title=" ">
<polygon fill="white" stroke="#666666" points="1148,-165 1024,-165 1024,-133 1148,-133 1148,-165"/>
<text text-anchor="start" x="1032" y="-151.5" font-family="Helvetica,sans-Serif" font-size="10.00">std::shared_ptr&lt; Logging</text>
<text text-anchor="middle" x="1086" y="-139.5" font-family="Helvetica,sans-Serif" font-size="10.00">::FMTlogger &gt;</text>
</a>
</g>
</g>
<!-- Node6&#45;&gt;Node3 -->
<g id="edge20" class="edge">
<title>Node6&#45;&gt;Node3</title>
<path fill="none" stroke="#9a32cd" stroke-dasharray="5,2" d="M1159.59,-147.1C1302.52,-143.36 1616.53,-135.15 1731.62,-132.13"/>
<polygon fill="#9a32cd" stroke="#9a32cd" points="1159.78,-143.59 1149.87,-147.36 1159.96,-150.59 1159.78,-143.59"/>
<text text-anchor="middle" x="1476" y="-141.5" font-family="Helvetica,sans-Serif" font-size="10.00"> _logger</text>
</g>
<!-- Node6&#45;&gt;Node5 -->
<g id="edge5" class="edge">
<title>Node6&#45;&gt;Node5</title>
<path fill="none" stroke="#9a32cd" stroke-dasharray="5,2" d="M1159.56,-162.27C1204.63,-170.5 1261.72,-180.94 1303.53,-188.58"/>
<polygon fill="#9a32cd" stroke="#9a32cd" points="1160.33,-158.85 1149.87,-160.49 1159.08,-165.73 1160.33,-158.85"/>
<text text-anchor="middle" x="1215.12" y="-183.5" font-family="Helvetica,sans-Serif" font-size="10.00"> _logger</text>
</g>
<!-- Node7 -->
<g id="node7" class="node">
<title>Node7</title>
<g id="a_node7"><a xlink:href="classLogging_1_1FMTlogger.html" target="_top" xlink:title=" ">
<polygon fill="white" stroke="#666666" points="891,-160 789.5,-160 789.5,-140 891,-140 891,-160"/>
<text text-anchor="middle" x="840.25" y="-146.5" font-family="Helvetica,sans-Serif" font-size="10.00">Logging::FMTlogger</text>
</a>
</g>
</g>
<!-- Node7&#45;&gt;Node6 -->
<g id="edge6" class="edge">
<title>Node7&#45;&gt;Node6</title>
<path fill="none" stroke="#9a32cd" stroke-dasharray="5,2" d="M902.6,-149.75C939.61,-149.6 986.6,-149.4 1023.62,-149.25"/>
<polygon fill="#9a32cd" stroke="#9a32cd" points="902.96,-146.25 892.97,-149.79 902.99,-153.25 902.96,-146.25"/>
<text text-anchor="middle" x="957.5" y="-151.5" font-family="Helvetica,sans-Serif" font-size="10.00"> ptr</text>
</g>
<!-- Node8 -->
<g id="node8" class="node">
<title>Node8</title>
<g id="a_node8"><a xlink:title=" ">
<polygon fill="white" stroke="#666666" points="708.5,-164 585.25,-164 585.25,-132 708.5,-132 708.5,-164"/>
<text text-anchor="start" x="593.25" y="-150.5" font-family="Helvetica,sans-Serif" font-size="10.00">std::unique_ptr&lt; Logging</text>
<text text-anchor="middle" x="646.88" y="-138.5" font-family="Helvetica,sans-Serif" font-size="10.00">::FMTsolverlogger &gt;</text>
</a>
</g>
</g>
<!-- Node8&#45;&gt;Node7 -->
<g id="edge7" class="edge">
<title>Node8&#45;&gt;Node7</title>
<path fill="none" stroke="#9a32cd" stroke-dasharray="5,2" d="M720.41,-148.76C743.4,-149 768.27,-149.26 789.3,-149.48"/>
<polygon fill="#9a32cd" stroke="#9a32cd" points="720.5,-145.26 710.47,-148.65 720.43,-152.26 720.5,-145.26"/>
<text text-anchor="middle" x="749" y="-151.5" font-family="Helvetica,sans-Serif" font-size="10.00"> solverref</text>
</g>
<!-- Node9 -->
<g id="node9" class="node">
<title>Node9</title>
<g id="a_node9"><a xlink:href="classLogging_1_1FMTsolverlogger.html" target="_top" xlink:title=" ">
<polygon fill="white" stroke="#666666" points="535,-158 408.75,-158 408.75,-138 535,-138 535,-158"/>
<text text-anchor="middle" x="471.88" y="-144.5" font-family="Helvetica,sans-Serif" font-size="10.00">Logging::FMTsolverlogger</text>
</a>
</g>
</g>
<!-- Node9&#45;&gt;Node8 -->
<g id="edge8" class="edge">
<title>Node9&#45;&gt;Node8</title>
<path fill="none" stroke="#9a32cd" stroke-dasharray="5,2" d="M546.48,-148C559.3,-148 572.52,-148 584.96,-148"/>
<polygon fill="#9a32cd" stroke="#9a32cd" points="546.85,-144.5 536.85,-148 546.85,-151.5 546.85,-144.5"/>
<text text-anchor="middle" x="560.12" y="-150.5" font-family="Helvetica,sans-Serif" font-size="10.00"> ptr</text>
</g>
<!-- Node10 -->
<g id="node10" class="node">
<title>Node10</title>
<g id="a_node10"><a xlink:title=" ">
<polygon fill="white" stroke="#666666" points="371.75,-158 263.5,-158 263.5,-138 371.75,-138 371.75,-158"/>
<text text-anchor="middle" x="317.62" y="-144.5" font-family="Helvetica,sans-Serif" font-size="10.00">CoinMessageHandler</text>
</a>
</g>
</g>
<!-- Node10&#45;&gt;Node9 -->
<g id="edge9" class="edge">
<title>Node10&#45;&gt;Node9</title>
<path fill="none" stroke="#63b8ff" d="M383.37,-148C391.61,-148 400.04,-148 408.25,-148"/>
<polygon fill="#63b8ff" stroke="#63b8ff" points="383.39,-144.5 373.39,-148 383.39,-151.5 383.39,-144.5"/>
</g>
<!-- Node11 -->
<g id="node11" class="node">
<title>Node11</title>
<g id="a_node11"><a xlink:title=" ">
<polygon fill="white" stroke="#666666" points="676.62,-106 617.12,-106 617.12,-86 676.62,-86 676.62,-106"/>
<text text-anchor="middle" x="646.88" y="-92.5" font-family="Helvetica,sans-Serif" font-size="10.00">std::string</text>
</a>
</g>
</g>
<!-- Node11&#45;&gt;Node7 -->
<g id="edge10" class="edge">
<title>Node11&#45;&gt;Node7</title>
<path fill="none" stroke="#9a32cd" stroke-dasharray="5,2" d="M687.8,-107.26C721.54,-116.79 769.5,-130.32 802.35,-139.59"/>
<polygon fill="#9a32cd" stroke="#9a32cd" points="688.97,-103.96 678.4,-104.61 687.07,-110.7 688.97,-103.96"/>
<text text-anchor="middle" x="749" y="-131.5" font-family="Helvetica,sans-Serif" font-size="10.00"> filepath</text>
</g>
<!-- Node23 -->
<g id="node23" class="node">
<title>Node23</title>
<g id="a_node23"><a xlink:title=" ">
<polygon fill="white" stroke="#666666" points="1006,-99 909,-99 909,-67 1006,-67 1006,-99"/>
<text text-anchor="start" x="917" y="-85.5" font-family="Helvetica,sans-Serif" font-size="10.00">std::unordered_set</text>
<text text-anchor="middle" x="957.5" y="-73.5" font-family="Helvetica,sans-Serif" font-size="10.00">&lt; std::string &gt;</text>
</a>
</g>
</g>
<!-- Node11&#45;&gt;Node23 -->
<g id="edge24" class="edge">
<title>Node11&#45;&gt;Node23</title>
<path fill="none" stroke="#9a32cd" stroke-dasharray="5,2" d="M688.27,-94.3C744.97,-91.91 847.98,-87.57 908.51,-85.02"/>
<polygon fill="#9a32cd" stroke="#9a32cd" points="688.27,-90.8 678.42,-94.71 688.56,-97.79 688.27,-90.8"/>
<text text-anchor="middle" x="749" y="-94.5" font-family="Helvetica,sans-Serif" font-size="10.00"> keys</text>
</g>
<!-- Node12 -->
<g id="node12" class="node">
<title>Node12</title>
<g id="a_node12"><a xlink:title=" ">
<polygon fill="white" stroke="#666666" points="518.88,-112 424.88,-112 424.88,-80 518.88,-80 518.88,-112"/>
<text text-anchor="start" x="432.88" y="-98.5" font-family="Helvetica,sans-Serif" font-size="10.00">std::basic_string&lt;</text>
<text text-anchor="middle" x="471.88" y="-86.5" font-family="Helvetica,sans-Serif" font-size="10.00"> Char &gt;</text>
</a>
</g>
</g>
<!-- Node12&#45;&gt;Node11 -->
<g id="edge11" class="edge">
<title>Node12&#45;&gt;Node11</title>
<path fill="none" stroke="#63b8ff" d="M530.47,-96C559.43,-96 593.26,-96 616.78,-96"/>
<polygon fill="#63b8ff" stroke="#63b8ff" points="530.75,-92.5 520.75,-96 530.75,-99.5 530.75,-92.5"/>
</g>
<!-- Node13 -->
<g id="node13" class="node">
<title>Node13</title>
<g id="a_node13"><a xlink:title=" ">
<polygon fill="white" stroke="#666666" points="683.38,-202 610.38,-202 610.38,-182 683.38,-182 683.38,-202"/>
<text text-anchor="middle" x="646.88" y="-188.5" font-family="Helvetica,sans-Serif" font-size="10.00">std::ofstream</text>
</a>
</g>
</g>
<!-- Node13&#45;&gt;Node7 -->
<g id="edge12" class="edge">
<title>Node13&#45;&gt;Node7</title>
<path fill="none" stroke="#9a32cd" stroke-dasharray="5,2" d="M695.06,-181.73C718.12,-176.7 746.26,-170.55 771.5,-165 778.21,-163.53 785.29,-161.96 792.24,-160.43"/>
<polygon fill="#9a32cd" stroke="#9a32cd" points="694.36,-178.3 685.33,-183.85 695.85,-185.14 694.36,-178.3"/>
<text text-anchor="middle" x="749" y="-176.5" font-family="Helvetica,sans-Serif" font-size="10.00"> filestream</text>
</g>
<!-- Node14 -->
<g id="node14" class="node">
<title>Node14</title>
<g id="a_node14"><a xlink:title=" ">
<polygon fill="white" stroke="#666666" points="522.62,-208 421.12,-208 421.12,-176 522.62,-176 522.62,-208"/>
<text text-anchor="start" x="429.12" y="-194.5" font-family="Helvetica,sans-Serif" font-size="10.00">std::basic_ofstream</text>
<text text-anchor="middle" x="471.88" y="-182.5" font-family="Helvetica,sans-Serif" font-size="10.00">&lt; Char &gt;</text>
</a>
</g>
</g>
<!-- Node14&#45;&gt;Node13 -->
<g id="edge13" class="edge">
<title>Node14&#45;&gt;Node13</title>
<path fill="none" stroke="#63b8ff" d="M534.3,-192C559.63,-192 588.11,-192 609.96,-192"/>
<polygon fill="#63b8ff" stroke="#63b8ff" points="534.43,-188.5 524.43,-192 534.43,-195.5 534.43,-188.5"/>
</g>
<!-- Node15 -->
<g id="node15" class="node">
<title>Node15</title>
<g id="a_node15"><a xlink:title=" ">
<polygon fill="white" stroke="#666666" points="367.25,-208 268,-208 268,-176 367.25,-176 367.25,-208"/>
<text text-anchor="start" x="276" y="-194.5" font-family="Helvetica,sans-Serif" font-size="10.00">std::basic_ostream</text>
<text text-anchor="middle" x="317.62" y="-182.5" font-family="Helvetica,sans-Serif" font-size="10.00">&lt; Char &gt;</text>
</a>
</g>
</g>
<!-- Node15&#45;&gt;Node14 -->
<g id="edge14" class="edge">
<title>Node15&#45;&gt;Node14</title>
<path fill="none" stroke="#63b8ff" d="M379.01,-192C392.81,-192 407.33,-192 420.65,-192"/>
<polygon fill="#63b8ff" stroke="#63b8ff" points="379.15,-188.5 369.15,-192 379.15,-195.5 379.15,-188.5"/>
</g>
<!-- Node16 -->
<g id="node16" class="node">
<title>Node16</title>
<g id="a_node16"><a xlink:title=" ">
<polygon fill="white" stroke="#666666" points="226.5,-202 111.5,-202 111.5,-182 226.5,-182 226.5,-202"/>
<text text-anchor="middle" x="169" y="-188.5" font-family="Helvetica,sans-Serif" font-size="10.00">std::basic_ios&lt; Char &gt;</text>
</a>
</g>
</g>
<!-- Node16&#45;&gt;Node15 -->
<g id="edge15" class="edge">
<title>Node16&#45;&gt;Node15</title>
<path fill="none" stroke="#63b8ff" d="M237.93,-192C247.98,-192 258.16,-192 267.72,-192"/>
<polygon fill="#63b8ff" stroke="#63b8ff" points="238.2,-188.5 228.2,-192 238.2,-195.5 238.2,-188.5"/>
</g>
<!-- Node17 -->
<g id="node17" class="node">
<title>Node17</title>
<g id="a_node17"><a xlink:title=" ">
<polygon fill="white" stroke="#666666" points="74.5,-202 0,-202 0,-182 74.5,-182 74.5,-202"/>
<text text-anchor="middle" x="37.25" y="-188.5" font-family="Helvetica,sans-Serif" font-size="10.00">std::ios_base</text>
</a>
</g>
</g>
<!-- Node17&#45;&gt;Node16 -->
<g id="edge16" class="edge">
<title>Node17&#45;&gt;Node16</title>
<path fill="none" stroke="#63b8ff" d="M86.07,-192C94.32,-192 102.96,-192 111.41,-192"/>
<polygon fill="#63b8ff" stroke="#63b8ff" points="86.25,-188.5 76.25,-192 86.25,-195.5 86.25,-188.5"/>
</g>
<!-- Node18 -->
<g id="node18" class="node">
<title>Node18</title>
<g id="a_node18"><a xlink:title=" ">
<polygon fill="white" stroke="#666666" points="1142.75,-215 1029.25,-215 1029.25,-183 1142.75,-183 1142.75,-215"/>
<text text-anchor="start" x="1037.25" y="-201.5" font-family="Helvetica,sans-Serif" font-size="10.00">std::vector&lt; Exception</text>
<text text-anchor="middle" x="1086" y="-189.5" font-family="Helvetica,sans-Serif" font-size="10.00">::FMTexc &gt;</text>
</a>
</g>
</g>
<!-- Node18&#45;&gt;Node5 -->
<g id="edge17" class="edge">
<title>Node18&#45;&gt;Node5</title>
<path fill="none" stroke="#9a32cd" stroke-dasharray="5,2" d="M1154.12,-199C1192.7,-199 1241.37,-199 1281.76,-199"/>
<polygon fill="#9a32cd" stroke="#9a32cd" points="1154.52,-195.5 1144.52,-199 1154.52,-202.5 1154.52,-195.5"/>
<text text-anchor="middle" x="1215.12" y="-201.5" font-family="Helvetica,sans-Serif" font-size="10.00"> errorstowarnings</text>
</g>
<!-- Node19 -->
<g id="node19" class="node">
<title>Node19</title>
<g id="a_node19"><a xlink:title=" ">
<polygon fill="white" stroke="#666666" points="1143.5,-315 1028.5,-315 1028.5,-283 1143.5,-283 1143.5,-315"/>
<text text-anchor="start" x="1036.5" y="-301.5" font-family="Helvetica,sans-Serif" font-size="10.00">std::set&lt; boost::thread</text>
<text text-anchor="middle" x="1086" y="-289.5" font-family="Helvetica,sans-Serif" font-size="10.00">::id &gt;</text>
</a>
</g>
</g>
<!-- Node19&#45;&gt;Node5 -->
<g id="edge18" class="edge">
<title>Node19&#45;&gt;Node5</title>
<path fill="none" stroke="#9a32cd" stroke-dasharray="5,2" d="M1154.97,-283.9C1188.44,-275.53 1229.07,-263.99 1264.25,-250 1293.24,-238.47 1324.85,-220.62 1343.65,-209.38"/>
<polygon fill="#9a32cd" stroke="#9a32cd" points="1154.26,-280.47 1145.38,-286.25 1155.92,-287.27 1154.26,-280.47"/>
<text text-anchor="middle" x="1215.12" y="-282.5" font-family="Helvetica,sans-Serif" font-size="10.00"> registered_threads</text>
</g>
<!-- Node20 -->
<g id="node20" class="node">
<title>Node20</title>
<g id="a_node20"><a xlink:title=" ">
<polygon fill="white" stroke="#666666" points="1137.12,-265 1034.88,-265 1034.88,-233 1137.12,-233 1137.12,-265"/>
<text text-anchor="start" x="1042.88" y="-251.5" font-family="Helvetica,sans-Serif" font-size="10.00">std::unordered_map</text>
<text text-anchor="middle" x="1086" y="-239.5" font-family="Helvetica,sans-Serif" font-size="10.00">&lt; int, size_t &gt;</text>
</a>
</g>
</g>
<!-- Node20&#45;&gt;Node5 -->
<g id="edge19" class="edge">
<title>Node20&#45;&gt;Node5</title>
<path fill="none" stroke="#9a32cd" stroke-dasharray="5,2" d="M1148.58,-237.74C1194.92,-229.27 1257.96,-217.75 1303.22,-209.47"/>
<polygon fill="#9a32cd" stroke="#9a32cd" points="1148.18,-234.26 1138.97,-239.5 1149.44,-241.14 1148.18,-234.26"/>
<text text-anchor="middle" x="1215.12" y="-236.5" font-family="Helvetica,sans-Serif" font-size="10.00"> _specificwarningcount</text>
</g>
<!-- Node21 -->
<g id="node21" class="node">
<title>Node21</title>
<g id="a_node21"><a xlink:href="classCore_1_1FMTmask.html" target="_top" xlink:title=" ">
<polygon fill="white" stroke="#666666" points="1818.88,-58 1733.12,-58 1733.12,-38 1818.88,-38 1818.88,-58"/>
<text text-anchor="middle" x="1776" y="-44.5" font-family="Helvetica,sans-Serif" font-size="10.00">Core::FMTmask</text>
</a>
</g>
</g>
<!-- Node21&#45;&gt;Node2 -->
<g id="edge21" class="edge">
<title>Node21&#45;&gt;Node2</title>
<path fill="none" stroke="#9a32cd" stroke-dasharray="5,2" d="M1830.27,-54.14C1847.93,-56.18 1867.65,-58.45 1885.52,-60.52"/>
<polygon fill="#9a32cd" stroke="#9a32cd" points="1830.84,-50.69 1820.5,-53.02 1830.04,-57.64 1830.84,-50.69"/>
<text text-anchor="middle" x="1853.38" y="-61.5" font-family="Helvetica,sans-Serif" font-size="10.00"> mask</text>
</g>
<!-- Node22 -->
<g id="node22" class="node">
<title>Node22</title>
<g id="a_node22"><a xlink:title=" ">
<polygon fill="white" stroke="#666666" points="1820.75,-20 1731.25,-20 1731.25,0 1820.75,0 1820.75,-20"/>
<text text-anchor="middle" x="1776" y="-6.5" font-family="Helvetica,sans-Serif" font-size="10.00">std::vector&lt; int &gt;</text>
</a>
</g>
</g>
<!-- Node22&#45;&gt;Node2 -->
<g id="edge22" class="edge">
<title>Node22&#45;&gt;Node2</title>
<path fill="none" stroke="#9a32cd" stroke-dasharray="5,2" d="M1820.16,-23.91C1835.32,-28.88 1852.45,-34.59 1868,-40 1883.2,-45.29 1900.05,-51.43 1913.81,-56.53"/>
<polygon fill="#9a32cd" stroke="#9a32cd" points="1821.55,-20.68 1810.95,-20.91 1819.37,-27.34 1821.55,-20.68"/>
<text text-anchor="middle" x="1853.38" y="-42.5" font-family="Helvetica,sans-Serif" font-size="10.00"> bases</text>
</g>
<!-- Node23&#45;&gt;Node2 -->
<g id="edge23" class="edge">
<title>Node23&#45;&gt;Node2</title>
<path fill="none" stroke="#9a32cd" stroke-dasharray="5,2" d="M1017.38,-84.08C1069.19,-84.94 1146.66,-86 1214.12,-86 1214.12,-86 1214.12,-86 1777,-86 1813.28,-86 1853.76,-81.4 1885.51,-76.72"/>
<polygon fill="#9a32cd" stroke="#9a32cd" points="1017.65,-80.59 1007.6,-83.92 1017.53,-87.59 1017.65,-80.59"/>
<text text-anchor="middle" x="1476" y="-88.5" font-family="Helvetica,sans-Serif" font-size="10.00"> lookat</text>
</g>
</g>
</svg>
