<?xml version="1.0" encoding="UTF-8" standalone="no"?>
<!DOCTYPE svg PUBLIC "-//W3C//DTD SVG 1.1//EN"
 "http://www.w3.org/Graphics/SVG/1.1/DTD/svg11.dtd">
<!-- Generated by graphviz version 10.0.1 (20240210.2158)
 -->
<!-- Title: Exception::FMTPreexistingYield Pages: 1 -->
<svg width="142pt" height="208pt"
 viewBox="0.00 0.00 141.75 208.00" xmlns="http://www.w3.org/2000/svg" xmlns:xlink="http://www.w3.org/1999/xlink">
<g id="graph0" class="graph" transform="scale(1 1) rotate(0) translate(4 204)">
<title>Exception::FMTPreexistingYield</title>
<!-- Node1 -->
<g id="node1" class="node">
<title>Node1</title>
<g id="a_node1"><a xlink:title=" ">
<polygon fill="#999999" stroke="#666666" points="133.75,-32 0,-32 0,0 133.75,0 133.75,-32"/>
<text text-anchor="start" x="8" y="-18.5" font-family="Helvetica,sans-Serif" font-size="10.00">Exception::FMTPreexisting</text>
<text text-anchor="middle" x="66.88" y="-6.5" font-family="Helvetica,sans-Serif" font-size="10.00">Yield</text>
</a>
</g>
</g>
<!-- Node2 -->
<g id="node2" class="node">
<title>Node2</title>
<g id="a_node2"><a xlink:href="classException_1_1FMTWarning.html" target="_top" xlink:title="Exception class derived from FMTException for warnings in FMT.">
<polygon fill="white" stroke="#666666" points="127.38,-88 6.38,-88 6.38,-68 127.38,-68 127.38,-88"/>
<text text-anchor="middle" x="66.88" y="-74.5" font-family="Helvetica,sans-Serif" font-size="10.00">Exception::FMTWarning</text>
</a>
</g>
</g>
<!-- Node2&#45;&gt;Node1 -->
<g id="edge1" class="edge">
<title>Node2&#45;&gt;Node1</title>
<path fill="none" stroke="#63b8ff" d="M66.88,-56.31C66.88,-48.37 66.88,-39.46 66.88,-32.14"/>
<polygon fill="#63b8ff" stroke="#63b8ff" points="63.38,-56.11 66.88,-66.11 70.38,-56.11 63.38,-56.11"/>
</g>
<!-- Node3 -->
<g id="node3" class="node">
<title>Node3</title>
<g id="a_node3"><a xlink:href="classException_1_1FMTException.html" target="_top" xlink:title="Base exception class for FMT holding the type, section and message of a given exception.">
<polygon fill="white" stroke="#666666" points="131.12,-144 2.62,-144 2.62,-124 131.12,-124 131.12,-144"/>
<text text-anchor="middle" x="66.88" y="-130.5" font-family="Helvetica,sans-Serif" font-size="10.00">Exception::FMTException</text>
</a>
</g>
</g>
<!-- Node3&#45;&gt;Node2 -->
<g id="edge2" class="edge">
<title>Node3&#45;&gt;Node2</title>
<path fill="none" stroke="#63b8ff" d="M66.88,-112.13C66.88,-103.9 66.88,-94.85 66.88,-88.3"/>
<polygon fill="#63b8ff" stroke="#63b8ff" points="63.38,-112.08 66.88,-122.08 70.38,-112.08 63.38,-112.08"/>
</g>
<!-- Node4 -->
<g id="node4" class="node">
<title>Node4</title>
<g id="a_node4"><a xlink:title=" ">
<polygon fill="white" stroke="#666666" points="105.62,-200 28.12,-200 28.12,-180 105.62,-180 105.62,-200"/>
<text text-anchor="middle" x="66.88" y="-186.5" font-family="Helvetica,sans-Serif" font-size="10.00">std::exception</text>
</a>
</g>
</g>
<!-- Node4&#45;&gt;Node3 -->
<g id="edge3" class="edge">
<title>Node4&#45;&gt;Node3</title>
<path fill="none" stroke="#63b8ff" d="M66.88,-168.13C66.88,-159.9 66.88,-150.85 66.88,-144.3"/>
<polygon fill="#63b8ff" stroke="#63b8ff" points="63.38,-168.08 66.88,-178.08 70.38,-168.08 63.38,-168.08"/>
</g>
</g>
</svg>
