<?xml version="1.0" encoding="UTF-8" standalone="no"?>
<!DOCTYPE svg PUBLIC "-//W3C//DTD SVG 1.1//EN"
 "http://www.w3.org/Graphics/SVG/1.1/DTD/svg11.dtd">
<!-- Generated by graphviz version 10.0.1 (20240210.2158)
 -->
<!-- Title: Core::FMTtransition Pages: 1 -->
<svg width="136pt" height="140pt"
 viewBox="0.00 0.00 135.75 140.00" xmlns="http://www.w3.org/2000/svg" xmlns:xlink="http://www.w3.org/1999/xlink">
<g id="graph0" class="graph" transform="scale(1 1) rotate(0) translate(4 136)">
<title>Core::FMTtransition</title>
<!-- Node1 -->
<g id="node1" class="node">
<title>Node1</title>
<g id="a_node1"><a xlink:title=" ">
<polygon fill="#999999" stroke="#666666" points="114.62,-20 13.12,-20 13.12,0 114.62,0 114.62,-20"/>
<text text-anchor="middle" x="63.88" y="-6.5" font-family="Helvetica,sans-Serif" font-size="10.00">Core::FMTtransition</text>
</a>
</g>
</g>
<!-- Node2 -->
<g id="node2" class="node">
<title>Node2</title>
<g id="a_node2"><a xlink:href="classCore_1_1FMTlist.html" target="_top" xlink:title=" ">
<polygon fill="white" stroke="#666666" points="127.75,-76 0,-76 0,-56 127.75,-56 127.75,-76"/>
<text text-anchor="middle" x="63.88" y="-62.5" font-family="Helvetica,sans-Serif" font-size="10.00">Core::FMTlist&lt; FMTfork &gt;</text>
</a>
</g>
</g>
<!-- Node2&#45;&gt;Node1 -->
<g id="edge1" class="edge">
<title>Node2&#45;&gt;Node1</title>
<path fill="none" stroke="#63b8ff" d="M63.88,-44.13C63.88,-35.9 63.88,-26.85 63.88,-20.3"/>
<polygon fill="#63b8ff" stroke="#63b8ff" points="60.38,-44.08 63.88,-54.08 67.38,-44.08 60.38,-44.08"/>
</g>
<!-- Node3 -->
<g id="node3" class="node">
<title>Node3</title>
<g id="a_node3"><a xlink:href="classCore_1_1FMTobject.html" target="_top" xlink:title=" ">
<polygon fill="white" stroke="#666666" points="107.88,-132 19.88,-132 19.88,-112 107.88,-112 107.88,-132"/>
<text text-anchor="middle" x="63.88" y="-118.5" font-family="Helvetica,sans-Serif" font-size="10.00">Core::FMTobject</text>
</a>
</g>
</g>
<!-- Node3&#45;&gt;Node2 -->
<g id="edge2" class="edge">
<title>Node3&#45;&gt;Node2</title>
<path fill="none" stroke="#63b8ff" d="M63.88,-100.13C63.88,-91.9 63.88,-82.85 63.88,-76.3"/>
<polygon fill="#63b8ff" stroke="#63b8ff" points="60.38,-100.08 63.88,-110.08 67.38,-100.08 60.38,-100.08"/>
</g>
</g>
</svg>
