<?xml version="1.0" encoding="UTF-8" standalone="no"?>
<!DOCTYPE svg PUBLIC "-//W3C//DTD SVG 1.1//EN"
 "http://www.w3.org/Graphics/SVG/1.1/DTD/svg11.dtd">
<!-- Generated by graphviz version 8.1.0 (20230707.0739)
 -->
<!-- Title: Spatial::FMTlayer&lt; T &gt; Pages: 1 -->
<!--zoomable 344 -->

<svg id="main" version="1.1" xmlns="http://www.w3.org/2000/svg" xmlns:xlink="http://www.w3.org/1999/xlink" xml:space="preserve" onload="init(evt)">
<style type="text/css"><![CDATA[
.node, .edge {opacity: 0.7;}
.node.selected, .edge.selected {opacity: 1;}
.edge:hover path { stroke: red; }
.edge:hover polygon { stroke: red; fill: red; }
]]></style>

<defs>
  <circle id="rim" cx="0" cy="0" r="7"/>
  <circle id="rim2" cx="0" cy="0" r="3.5"/>
  <g id="zoomPlus">
    <use xlink:href="#rim" fill="#404040"><set attributeName="fill" to="#808080" begin="zoomplus.mouseover" end="zoomplus.mouseout"/></use>
    <path d="M-4,0h8M0,-4v8" fill="none" stroke="white" stroke-width="1.5" pointer-events="none"/>
  </g>
  <g id="zoomMin">
    <use xlink:href="#rim" fill="#404040"><set attributeName="fill" to="#808080" begin="zoomminus.mouseover" end="zoomminus.mouseout"/></use>
    <path d="M-4,0h8" fill="none" stroke="white" stroke-width="1.5" pointer-events="none"/>
  </g>
  <g id="arrowUp" transform="translate(30 24)">
    <use xlink:href="#rim"/>
    <path pointer-events="none" fill="none" stroke="white" stroke-width="1.5" d="M0,-3.0v7 M-2.5,-0.5L0,-3.0L2.5,-0.5"/>
  </g>
  <g id="arrowRight" transform="rotate(90) translate(36 -43)">
    <use xlink:href="#rim"/>
    <path pointer-events="none" fill="none" stroke="white" stroke-width="1.5" d="M0,-3.0v7 M-2.5,-0.5L0,-3.0L2.5,-0.5"/>
  </g>
  <g id="arrowDown" transform="rotate(180) translate(-30 -48)">
    <use xlink:href="#rim"/>
    <path pointer-events="none" fill="none" stroke="white" stroke-width="1.5" d="M0,-3.0v7 M-2.5,-0.5L0,-3.0L2.5,-0.5"/>
  </g>
  <g id="arrowLeft" transform="rotate(270) translate(-36 17)">
    <use xlink:href="#rim"/>
    <path pointer-events="none" fill="none" stroke="white" stroke-width="1.5" d="M0,-3.0v7 M-2.5,-0.5L0,-3.0L2.5,-0.5"/>
  </g>
  <g id="resetDef">
    <use xlink:href="#rim2" fill="#404040"><set attributeName="fill" to="#808080" begin="reset.mouseover" end="reset.mouseout"/></use>
  </g>
</defs>
<script type="application/ecmascript">
var viewWidth = 1975;
var viewHeight = 344;
var sectionId = 'dynsection-1';
</script>
<script type="application/ecmascript" xlink:href="svg.min.js"/>
<svg id="graph" class="graph">
<g id="viewport">
<title>Spatial::FMTlayer&lt; T &gt;</title>
<!-- Node1 -->
<g id="Node000001" class="node">
<title>Node1</title>
<g id="a_Node000001"><a xlink:title=" ">
<polygon fill="#999999" stroke="#666666" points="1967,-102 1851.25,-102 1851.25,-82 1967,-82 1967,-102"/>
<text text-anchor="middle" x="1909.12" y="-88.5" font-family="Helvetica,sans-Serif" font-size="10.00">Spatial::FMTlayer&lt; T &gt;</text>
</a>
</g>
</g>
<!-- Node2 -->
<g id="Node000002" class="node">
<title>Node2</title>
<g id="a_Node000002"><a xlink:href="classCore_1_1FMTobject.html" target="_top" xlink:title=" ">
<polygon fill="white" stroke="#666666" points="1746.25,-162 1658.25,-162 1658.25,-142 1746.25,-142 1746.25,-162"/>
<text text-anchor="middle" x="1702.25" y="-148.5" font-family="Helvetica,sans-Serif" font-size="10.00">Core::FMTobject</text>
</a>
</g>
</g>
<!-- Node2&#45;&gt;Node1 -->
<g id="edge1_Node000001_Node000002" class="edge">
<title>Node2&#45;&gt;Node1</title>
<g id="a_edge1_Node000001_Node000002"><a xlink:title=" ">
<path fill="none" stroke="#63b8ff" d="M1757.12,-143.44C1780.77,-139.01 1808.69,-132.87 1833.25,-125 1852.19,-118.93 1872.81,-109.63 1887.6,-102.45"/>
<polygon fill="#63b8ff" stroke="#63b8ff" points="1756.79,-140.12 1747.58,-145.35 1758.04,-147.01 1756.79,-140.12"/>
</a>
</g>
</g>
<!-- Node3 -->
<g id="Node000003" class="node">
<title>Node3</title>
<g id="a_Node000003"><a xlink:title=" ">
<polygon fill="white" stroke="#666666" points="1562.25,-223 1428.5,-223 1428.5,-191 1562.25,-191 1562.25,-223"/>
<text text-anchor="start" x="1436.5" y="-209.5" font-family="Helvetica,sans-Serif" font-size="10.00">std::shared_ptr&lt; Exception</text>
<text text-anchor="middle" x="1495.38" y="-197.5" font-family="Helvetica,sans-Serif" font-size="10.00">::FMTexceptionhandler &gt;</text>
</a>
</g>
</g>
<!-- Node3&#45;&gt;Node2 -->
<g id="edge2_Node000002_Node000003" class="edge">
<title>Node3&#45;&gt;Node2</title>
<g id="a_edge2_Node000002_Node000003"><a xlink:title=" ">
<path fill="none" stroke="#9a32cd" stroke-dasharray="5,2" d="M1568.12,-187.74C1599.78,-179.24 1635.75,-169.59 1662.31,-162.45"/>
<polygon fill="#9a32cd" stroke="#9a32cd" points="1567.32,-184.6 1558.57,-190.57 1569.13,-191.36 1567.32,-184.6"/>
</a>
</g>
<text text-anchor="middle" x="1605.38" y="-186.5" font-family="Helvetica,sans-Serif" font-size="10.00" fill="grey"> _exhandler</text>
</g>
<!-- Node4 -->
<g id="Node000004" class="node">
<title>Node4</title>
<g id="a_Node000004"><a xlink:href="classException_1_1FMTexceptionhandler.html" target="_top" xlink:title=" ">
<polygon fill="white" stroke="#666666" points="1358,-230 1199.5,-230 1199.5,-210 1358,-210 1358,-230"/>
<text text-anchor="middle" x="1278.75" y="-216.5" font-family="Helvetica,sans-Serif" font-size="10.00">Exception::FMTexceptionhandler</text>
</a>
</g>
</g>
<!-- Node4&#45;&gt;Node3 -->
<g id="edge3_Node000003_Node000004" class="edge">
<title>Node4&#45;&gt;Node3</title>
<g id="a_edge3_Node000003_Node000004"><a xlink:title=" ">
<path fill="none" stroke="#9a32cd" stroke-dasharray="5,2" d="M1369.28,-214.58C1388.96,-213.39 1409.46,-212.14 1428.03,-211.02"/>
<polygon fill="#9a32cd" stroke="#9a32cd" points="1369.22,-211.13 1359.45,-215.23 1369.64,-218.12 1369.22,-211.13"/>
</a>
</g>
<text text-anchor="middle" x="1393.25" y="-215.5" font-family="Helvetica,sans-Serif" font-size="10.00" fill="grey"> ptr</text>
</g>
<!-- Node5 -->
<g id="Node000005" class="node">
<title>Node5</title>
<g id="a_Node000005"><a xlink:title=" ">
<polygon fill="white" stroke="#666666" points="1065.25,-186 941.25,-186 941.25,-154 1065.25,-154 1065.25,-186"/>
<text text-anchor="start" x="949.25" y="-172.5" font-family="Helvetica,sans-Serif" font-size="10.00">std::shared_ptr&lt; Logging</text>
<text text-anchor="middle" x="1003.25" y="-160.5" font-family="Helvetica,sans-Serif" font-size="10.00">::FMTlogger &gt;</text>
</a>
</g>
</g>
<!-- Node5&#45;&gt;Node2 -->
<g id="edge19_Node000002_Node000005" class="edge">
<title>Node5&#45;&gt;Node2</title>
<g id="a_edge19_Node000002_Node000005"><a xlink:title=" ">
<path fill="none" stroke="#9a32cd" stroke-dasharray="5,2" d="M1076.42,-168.14C1220.87,-164.41 1541.65,-156.12 1658.02,-153.12"/>
<polygon fill="#9a32cd" stroke="#9a32cd" points="1076.4,-164.66 1066.49,-168.42 1076.58,-171.66 1076.4,-164.66"/>
</a>
</g>
<text text-anchor="middle" x="1393.25" y="-162.5" font-family="Helvetica,sans-Serif" font-size="10.00" fill="grey"> _logger</text>
</g>
<!-- Node5&#45;&gt;Node4 -->
<g id="edge4_Node000004_Node000005" class="edge">
<title>Node5&#45;&gt;Node4</title>
<g id="a_edge4_Node000004_Node000005"><a xlink:title=" ">
<path fill="none" stroke="#9a32cd" stroke-dasharray="5,2" d="M1076.24,-183.16C1121.39,-191.42 1178.8,-201.91 1220.78,-209.58"/>
<polygon fill="#9a32cd" stroke="#9a32cd" points="1077.1,-179.58 1066.63,-181.22 1075.84,-186.46 1077.1,-179.58"/>
</a>
</g>
<text text-anchor="middle" x="1132.38" y="-204.5" font-family="Helvetica,sans-Serif" font-size="10.00" fill="grey"> _logger</text>
</g>
<!-- Node6 -->
<g id="Node000006" class="node">
<title>Node6</title>
<g id="a_Node000006"><a xlink:href="classLogging_1_1FMTlogger.html" target="_top" xlink:title=" ">
<polygon fill="white" stroke="#666666" points="891,-187 789.5,-187 789.5,-167 891,-167 891,-187"/>
<text text-anchor="middle" x="840.25" y="-173.5" font-family="Helvetica,sans-Serif" font-size="10.00">Logging::FMTlogger</text>
</a>
</g>
</g>
<!-- Node6&#45;&gt;Node5 -->
<g id="edge5_Node000005_Node000006" class="edge">
<title>Node6&#45;&gt;Node5</title>
<g id="a_edge5_Node000005_Node000006"><a xlink:title=" ">
<path fill="none" stroke="#9a32cd" stroke-dasharray="5,2" d="M902.22,-174.35C914.87,-173.8 928.21,-173.22 940.88,-172.67"/>
<polygon fill="#9a32cd" stroke="#9a32cd" points="902.15,-170.89 892.31,-174.82 902.45,-177.89 902.15,-170.89"/>
</a>
</g>
<text text-anchor="middle" x="916.12" y="-175.5" font-family="Helvetica,sans-Serif" font-size="10.00" fill="grey"> ptr</text>
</g>
<!-- Node7 -->
<g id="Node000007" class="node">
<title>Node7</title>
<g id="a_Node000007"><a xlink:title=" ">
<polygon fill="white" stroke="#666666" points="708.5,-192 585.25,-192 585.25,-160 708.5,-160 708.5,-192"/>
<text text-anchor="start" x="593.25" y="-178.5" font-family="Helvetica,sans-Serif" font-size="10.00">std::unique_ptr&lt; Logging</text>
<text text-anchor="middle" x="646.88" y="-166.5" font-family="Helvetica,sans-Serif" font-size="10.00">::FMTsolverlogger &gt;</text>
</a>
</g>
</g>
<!-- Node7&#45;&gt;Node6 -->
<g id="edge6_Node000006_Node000007" class="edge">
<title>Node7&#45;&gt;Node6</title>
<g id="a_edge6_Node000006_Node000007"><a xlink:title=" ">
<path fill="none" stroke="#9a32cd" stroke-dasharray="5,2" d="M719.78,-176.38C742.94,-176.5 768.08,-176.63 789.3,-176.74"/>
<polygon fill="#9a32cd" stroke="#9a32cd" points="719.97,-172.87 709.95,-176.32 719.93,-179.87 719.97,-172.87"/>
</a>
</g>
<text text-anchor="middle" x="749" y="-178.5" font-family="Helvetica,sans-Serif" font-size="10.00" fill="grey"> solverref</text>
</g>
<!-- Node8 -->
<g id="Node000008" class="node">
<title>Node8</title>
<g id="a_Node000008"><a xlink:href="classLogging_1_1FMTsolverlogger.html" target="_top" xlink:title=" ">
<polygon fill="white" stroke="#666666" points="535,-186 408.75,-186 408.75,-166 535,-166 535,-186"/>
<text text-anchor="middle" x="471.88" y="-172.5" font-family="Helvetica,sans-Serif" font-size="10.00">Logging::FMTsolverlogger</text>
</a>
</g>
</g>
<!-- Node8&#45;&gt;Node7 -->
<g id="edge7_Node000007_Node000008" class="edge">
<title>Node8&#45;&gt;Node7</title>
<g id="a_edge7_Node000007_Node000008"><a xlink:title=" ">
<path fill="none" stroke="#9a32cd" stroke-dasharray="5,2" d="M546.09,-176C559.04,-176 572.39,-176 584.96,-176"/>
<polygon fill="#9a32cd" stroke="#9a32cd" points="546.33,-172.5 536.33,-176 546.33,-179.5 546.33,-172.5"/>
</a>
</g>
<text text-anchor="middle" x="560.12" y="-178.5" font-family="Helvetica,sans-Serif" font-size="10.00" fill="grey"> ptr</text>
</g>
<!-- Node9 -->
<g id="Node000009" class="node">
<title>Node9</title>
<g id="a_Node000009"><a xlink:title=" ">
<polygon fill="white" stroke="#666666" points="371.75,-186 263.5,-186 263.5,-166 371.75,-166 371.75,-186"/>
<text text-anchor="middle" x="317.62" y="-172.5" font-family="Helvetica,sans-Serif" font-size="10.00">CoinMessageHandler</text>
</a>
</g>
</g>
<!-- Node9&#45;&gt;Node8 -->
<g id="edge8_Node000008_Node000009" class="edge">
<title>Node9&#45;&gt;Node8</title>
<g id="a_edge8_Node000008_Node000009"><a xlink:title=" ">
<path fill="none" stroke="#63b8ff" d="M382.8,-176C391.23,-176 399.85,-176 408.25,-176"/>
<polygon fill="#63b8ff" stroke="#63b8ff" points="382.87,-172.5 372.87,-176 382.87,-179.5 382.87,-172.5"/>
</a>
</g>
</g>
<!-- Node10 -->
<g id="Node000010" class="node">
<title>Node10</title>
<g id="a_Node000010"><a xlink:title=" ">
<polygon fill="white" stroke="#666666" points="676.62,-135 617.12,-135 617.12,-115 676.62,-115 676.62,-135"/>
<text text-anchor="middle" x="646.88" y="-121.5" font-family="Helvetica,sans-Serif" font-size="10.00">std::string</text>
</a>
</g>
</g>
<!-- Node10&#45;&gt;Node1 -->
<g id="edge21_Node000001_Node000010" class="edge">
<title>Node10&#45;&gt;Node1</title>
<g id="a_edge21_Node000001_Node000010"><a xlink:title=" ">
<path fill="none" stroke="#9a32cd" stroke-dasharray="5,2" d="M687.8,-120.37C726.47,-116.3 786.8,-111 839.25,-111 839.25,-111 839.25,-111 1703.25,-111 1753.26,-111 1809.84,-105.32 1850.85,-100.17"/>
<polygon fill="#9a32cd" stroke="#9a32cd" points="687.57,-116.99 678.01,-121.54 688.32,-123.95 687.57,-116.99"/>
</a>
</g>
<text text-anchor="middle" x="1278.75" y="-113.5" font-family="Helvetica,sans-Serif" font-size="10.00" fill="grey"> SRS_WKT</text>
</g>
<!-- Node10&#45;&gt;Node6 -->
<g id="edge9_Node000006_Node000010" class="edge">
<title>Node10&#45;&gt;Node6</title>
<g id="a_edge9_Node000006_Node000010"><a xlink:title=" ">
<path fill="none" stroke="#9a32cd" stroke-dasharray="5,2" d="M687.19,-135.68C720.38,-144.7 767.64,-157.54 800.63,-166.51"/>
<polygon fill="#9a32cd" stroke="#9a32cd" points="688.51,-132.14 677.94,-132.9 686.67,-138.9 688.51,-132.14"/>
</a>
</g>
<text text-anchor="middle" x="749" y="-159.5" font-family="Helvetica,sans-Serif" font-size="10.00" fill="grey"> filepath</text>
</g>
<!-- Node11 -->
<g id="Node000011" class="node">
<title>Node11</title>
<g id="a_Node000011"><a xlink:title=" ">
<polygon fill="white" stroke="#666666" points="518.88,-141 424.88,-141 424.88,-109 518.88,-109 518.88,-141"/>
<text text-anchor="start" x="432.88" y="-127.5" font-family="Helvetica,sans-Serif" font-size="10.00">std::basic_string&lt;</text>
<text text-anchor="middle" x="471.88" y="-115.5" font-family="Helvetica,sans-Serif" font-size="10.00"> Char &gt;</text>
</a>
</g>
</g>
<!-- Node11&#45;&gt;Node10 -->
<g id="edge10_Node000010_Node000011" class="edge">
<title>Node11&#45;&gt;Node10</title>
<g id="a_edge10_Node000010_Node000011"><a xlink:title=" ">
<path fill="none" stroke="#63b8ff" d="M530.09,-125C559.13,-125 593.16,-125 616.78,-125"/>
<polygon fill="#63b8ff" stroke="#63b8ff" points="530.24,-121.5 520.24,-125 530.24,-128.5 530.24,-121.5"/>
</a>
</g>
</g>
<!-- Node12 -->
<g id="Node000012" class="node">
<title>Node12</title>
<g id="a_Node000012"><a xlink:title=" ">
<polygon fill="white" stroke="#666666" points="683.38,-230 610.38,-230 610.38,-210 683.38,-210 683.38,-230"/>
<text text-anchor="middle" x="646.88" y="-216.5" font-family="Helvetica,sans-Serif" font-size="10.00">std::ofstream</text>
</a>
</g>
</g>
<!-- Node12&#45;&gt;Node6 -->
<g id="edge11_Node000006_Node000012" class="edge">
<title>Node12&#45;&gt;Node6</title>
<g id="a_edge11_Node000006_Node000012"><a xlink:title=" ">
<path fill="none" stroke="#9a32cd" stroke-dasharray="5,2" d="M694.42,-209.54C724.21,-202.85 762.73,-194.19 792.55,-187.49"/>
<polygon fill="#9a32cd" stroke="#9a32cd" points="693.86,-206.3 684.87,-211.91 695.4,-213.13 693.86,-206.3"/>
</a>
</g>
<text text-anchor="middle" x="749" y="-203.5" font-family="Helvetica,sans-Serif" font-size="10.00" fill="grey"> filestream</text>
</g>
<!-- Node13 -->
<g id="Node000013" class="node">
<title>Node13</title>
<g id="a_Node000013"><a xlink:title=" ">
<polygon fill="white" stroke="#666666" points="522.62,-236 421.12,-236 421.12,-204 522.62,-204 522.62,-236"/>
<text text-anchor="start" x="429.12" y="-222.5" font-family="Helvetica,sans-Serif" font-size="10.00">std::basic_ofstream</text>
<text text-anchor="middle" x="471.88" y="-210.5" font-family="Helvetica,sans-Serif" font-size="10.00">&lt; Char &gt;</text>
</a>
</g>
</g>
<!-- Node13&#45;&gt;Node12 -->
<g id="edge12_Node000012_Node000013" class="edge">
<title>Node13&#45;&gt;Node12</title>
<g id="a_edge12_Node000012_Node000013"><a xlink:title=" ">
<path fill="none" stroke="#63b8ff" d="M533.61,-220C559.12,-220 587.92,-220 609.96,-220"/>
<polygon fill="#63b8ff" stroke="#63b8ff" points="533.91,-216.5 523.91,-220 533.91,-223.5 533.91,-216.5"/>
</a>
</g>
</g>
<!-- Node14 -->
<g id="Node000014" class="node">
<title>Node14</title>
<g id="a_Node000014"><a xlink:title=" ">
<polygon fill="white" stroke="#666666" points="367.25,-236 268,-236 268,-204 367.25,-204 367.25,-236"/>
<text text-anchor="start" x="276" y="-222.5" font-family="Helvetica,sans-Serif" font-size="10.00">std::basic_ostream</text>
<text text-anchor="middle" x="317.62" y="-210.5" font-family="Helvetica,sans-Serif" font-size="10.00">&lt; Char &gt;</text>
</a>
</g>
</g>
<!-- Node14&#45;&gt;Node13 -->
<g id="edge13_Node000013_Node000014" class="edge">
<title>Node14&#45;&gt;Node13</title>
<g id="a_edge13_Node000013_Node000014"><a xlink:title=" ">
<path fill="none" stroke="#63b8ff" d="M378.6,-220C392.52,-220 407.2,-220 420.65,-220"/>
<polygon fill="#63b8ff" stroke="#63b8ff" points="378.64,-216.5 368.64,-220 378.64,-223.5 378.64,-216.5"/>
</a>
</g>
</g>
<!-- Node15 -->
<g id="Node000015" class="node">
<title>Node15</title>
<g id="a_Node000015"><a xlink:title=" ">
<polygon fill="white" stroke="#666666" points="226.5,-230 111.5,-230 111.5,-210 226.5,-210 226.5,-230"/>
<text text-anchor="middle" x="169" y="-216.5" font-family="Helvetica,sans-Serif" font-size="10.00">std::basic_ios&lt; Char &gt;</text>
</a>
</g>
</g>
<!-- Node15&#45;&gt;Node14 -->
<g id="edge14_Node000014_Node000015" class="edge">
<title>Node15&#45;&gt;Node14</title>
<g id="a_edge14_Node000014_Node000015"><a xlink:title=" ">
<path fill="none" stroke="#63b8ff" d="M237.61,-220C247.76,-220 258.06,-220 267.72,-220"/>
<polygon fill="#63b8ff" stroke="#63b8ff" points="237.69,-216.5 227.69,-220 237.69,-223.5 237.69,-216.5"/>
</a>
</g>
</g>
<!-- Node16 -->
<g id="Node000016" class="node">
<title>Node16</title>
<g id="a_Node000016"><a xlink:title=" ">
<polygon fill="white" stroke="#666666" points="74.5,-230 0,-230 0,-210 74.5,-210 74.5,-230"/>
<text text-anchor="middle" x="37.25" y="-216.5" font-family="Helvetica,sans-Serif" font-size="10.00">std::ios_base</text>
</a>
</g>
</g>
<!-- Node16&#45;&gt;Node15 -->
<g id="edge15_Node000015_Node000016" class="edge">
<title>Node16&#45;&gt;Node15</title>
<g id="a_edge15_Node000015_Node000016"><a xlink:title=" ">
<path fill="none" stroke="#63b8ff" d="M85.5,-220C93.92,-220 102.77,-220 111.41,-220"/>
<polygon fill="#63b8ff" stroke="#63b8ff" points="85.74,-216.5 75.74,-220 85.74,-223.5 85.74,-216.5"/>
</a>
</g>
</g>
<!-- Node17 -->
<g id="Node000017" class="node">
<title>Node17</title>
<g id="a_Node000017"><a xlink:title=" ">
<polygon fill="white" stroke="#666666" points="1060,-236 946.5,-236 946.5,-204 1060,-204 1060,-236"/>
<text text-anchor="start" x="954.5" y="-222.5" font-family="Helvetica,sans-Serif" font-size="10.00">std::vector&lt; Exception</text>
<text text-anchor="middle" x="1003.25" y="-210.5" font-family="Helvetica,sans-Serif" font-size="10.00">::FMTexc &gt;</text>
</a>
</g>
</g>
<!-- Node17&#45;&gt;Node4 -->
<g id="edge16_Node000004_Node000017" class="edge">
<title>Node17&#45;&gt;Node4</title>
<g id="a_edge16_Node000004_Node000017"><a xlink:title=" ">
<path fill="none" stroke="#9a32cd" stroke-dasharray="5,2" d="M1070.87,-220C1109.54,-220 1158.45,-220 1199.01,-220"/>
<polygon fill="#9a32cd" stroke="#9a32cd" points="1071.26,-216.5 1061.26,-220 1071.26,-223.5 1071.26,-216.5"/>
</a>
</g>
<text text-anchor="middle" x="1132.38" y="-222.5" font-family="Helvetica,sans-Serif" font-size="10.00" fill="grey"> errorstowarnings</text>
</g>
<!-- Node18 -->
<g id="Node000018" class="node">
<title>Node18</title>
<g id="a_Node000018"><a xlink:title=" ">
<polygon fill="white" stroke="#666666" points="1060.75,-336 945.75,-336 945.75,-304 1060.75,-304 1060.75,-336"/>
<text text-anchor="start" x="953.75" y="-322.5" font-family="Helvetica,sans-Serif" font-size="10.00">std::set&lt; boost::thread</text>
<text text-anchor="middle" x="1003.25" y="-310.5" font-family="Helvetica,sans-Serif" font-size="10.00">::id &gt;</text>
</a>
</g>
</g>
<!-- Node18&#45;&gt;Node4 -->
<g id="edge17_Node000004_Node000018" class="edge">
<title>Node18&#45;&gt;Node4</title>
<g id="a_edge17_Node000004_Node000018"><a xlink:title=" ">
<path fill="none" stroke="#9a32cd" stroke-dasharray="5,2" d="M1071.78,-305.01C1105.34,-296.64 1146.16,-285.05 1181.5,-271 1210.49,-259.47 1242.1,-241.62 1260.9,-230.38"/>
<polygon fill="#9a32cd" stroke="#9a32cd" points="1071.04,-301.83 1062.16,-307.61 1072.7,-308.63 1071.04,-301.83"/>
</a>
</g>
<text text-anchor="middle" x="1132.38" y="-303.5" font-family="Helvetica,sans-Serif" font-size="10.00" fill="grey"> registered_threads</text>
</g>
<!-- Node19 -->
<g id="Node000019" class="node">
<title>Node19</title>
<g id="a_Node000019"><a xlink:title=" ">
<polygon fill="white" stroke="#666666" points="1054.38,-286 952.12,-286 952.12,-254 1054.38,-254 1054.38,-286"/>
<text text-anchor="start" x="960.12" y="-272.5" font-family="Helvetica,sans-Serif" font-size="10.00">std::unordered_map</text>
<text text-anchor="middle" x="1003.25" y="-260.5" font-family="Helvetica,sans-Serif" font-size="10.00">&lt; int, size_t &gt;</text>
</a>
</g>
</g>
<!-- Node19&#45;&gt;Node4 -->
<g id="edge18_Node000004_Node000019" class="edge">
<title>Node19&#45;&gt;Node4</title>
<g id="a_edge18_Node000004_Node000019"><a xlink:title=" ">
<path fill="none" stroke="#9a32cd" stroke-dasharray="5,2" d="M1065.54,-258.8C1111.9,-250.32 1175.11,-238.76 1220.47,-230.47"/>
<polygon fill="#9a32cd" stroke="#9a32cd" points="1064.94,-255.53 1055.73,-260.77 1066.2,-262.42 1064.94,-255.53"/>
</a>
</g>
<text text-anchor="middle" x="1132.38" y="-257.5" font-family="Helvetica,sans-Serif" font-size="10.00" fill="grey"> _specificwarningcount</text>
</g>
<!-- Node20 -->
<g id="Node000020" class="node">
<title>Node20</title>
<g id="a_Node000020"><a xlink:title=" ">
<polygon fill="white" stroke="#666666" points="1756,-83 1648.5,-83 1648.5,-63 1756,-63 1756,-83"/>
<text text-anchor="middle" x="1702.25" y="-69.5" font-family="Helvetica,sans-Serif" font-size="10.00">std::vector&lt; double &gt;</text>
</a>
</g>
</g>
<!-- Node20&#45;&gt;Node1 -->
<g id="edge20_Node000001_Node000020" class="edge">
<title>Node20&#45;&gt;Node1</title>
<g id="a_edge20_Node000001_Node000020"><a xlink:title=" ">
<path fill="none" stroke="#9a32cd" stroke-dasharray="5,2" d="M1767.14,-78.88C1788.2,-80.83 1811.73,-83 1833.25,-85 1838.97,-85.53 1844.94,-86.09 1850.89,-86.64"/>
<polygon fill="#9a32cd" stroke="#9a32cd" points="1767.66,-75.32 1757.38,-77.89 1767.02,-82.29 1767.66,-75.32"/>
</a>
</g>
<text text-anchor="middle" x="1803.62" y="-87.5" font-family="Helvetica,sans-Serif" font-size="10.00" fill="grey"> geotransform</text>
</g>
<!-- Node21 -->
<g id="Node000021" class="node">
<title>Node21</title>
<g id="a_Node000021"><a xlink:title=" ">
<polygon fill="white" stroke="#666666" points="1752.62,-45 1651.88,-45 1651.88,-13 1752.62,-13 1752.62,-45"/>
<text text-anchor="start" x="1659.88" y="-31.5" font-family="Helvetica,sans-Serif" font-size="10.00">std::map&lt; Spatial::</text>
<text text-anchor="middle" x="1702.25" y="-19.5" font-family="Helvetica,sans-Serif" font-size="10.00">FMTcoordinate, T &gt;</text>
</a>
</g>
</g>
<!-- Node21&#45;&gt;Node1 -->
<g id="edge22_Node000001_Node000021" class="edge">
<title>Node21&#45;&gt;Node1</title>
<g id="a_edge22_Node000001_Node000021"><a xlink:title=" ">
<path fill="none" stroke="#9a32cd" stroke-dasharray="5,2" d="M1763.52,-43.95C1785.59,-49.76 1810.68,-56.76 1833.25,-64 1849.64,-69.26 1867.72,-75.99 1882,-81.54"/>
<polygon fill="#9a32cd" stroke="#9a32cd" points="1764.52,-40.34 1753.96,-41.2 1762.75,-47.11 1764.52,-40.34"/>
</a>
</g>
<text text-anchor="middle" x="1803.62" y="-66.5" font-family="Helvetica,sans-Serif" font-size="10.00" fill="grey"> mapping</text>
</g>
<!-- Node22 -->
<g id="Node000022" class="node">
<title>Node22</title>
<g id="a_Node000022"><a xlink:href="classSpatial_1_1FMTcoordinate.html" target="_top" xlink:title=" ">
<polygon fill="white" stroke="#666666" points="1553.62,-20 1437.12,-20 1437.12,0 1553.62,0 1553.62,-20"/>
<text text-anchor="middle" x="1495.38" y="-6.5" font-family="Helvetica,sans-Serif" font-size="10.00">Spatial::FMTcoordinate</text>
</a>
</g>
</g>
<!-- Node22&#45;&gt;Node21 -->
<g id="edge23_Node000021_Node000022" class="edge">
<title>Node22&#45;&gt;Node21</title>
<g id="a_edge23_Node000021_Node000022"><a xlink:title=" ">
<path fill="none" stroke="#9a32cd" stroke-dasharray="5,2" d="M1564.81,-9.68C1585.93,-10.21 1609.23,-11.45 1630.5,-14 1637.36,-14.82 1644.53,-15.98 1651.57,-17.3"/>
<polygon fill="#9a32cd" stroke="#9a32cd" points="1565.05,-6.16 1554.98,-9.46 1564.91,-13.16 1565.05,-6.16"/>
</a>
</g>
<text text-anchor="middle" x="1605.38" y="-16.5" font-family="Helvetica,sans-Serif" font-size="10.00" fill="grey"> keys</text>
</g>
<!-- Node23 -->
<g id="Node000023" class="node">
<title>Node23</title>
<g id="a_Node000023"><a xlink:title=" ">
<polygon fill="white" stroke="#666666" points="1509.78,-58 1480.97,-58 1480.97,-38 1509.78,-38 1509.78,-58"/>
<text text-anchor="middle" x="1495.38" y="-44.5" font-family="Helvetica,sans-Serif" font-size="10.00">T</text>
</a>
</g>
</g>
<!-- Node23&#45;&gt;Node21 -->
<g id="edge24_Node000021_Node000023" class="edge">
<title>Node23&#45;&gt;Node21</title>
<g id="a_edge24_Node000021_Node000023"><a xlink:title=" ">
<path fill="none" stroke="#9a32cd" stroke-dasharray="5,2" d="M1520.76,-45.74C1552.88,-42.76 1610.15,-37.45 1651.58,-33.61"/>
<polygon fill="#9a32cd" stroke="#9a32cd" points="1520.77,-42.32 1511.14,-46.72 1521.42,-49.29 1520.77,-42.32"/>
</a>
</g>
<text text-anchor="middle" x="1605.38" y="-43.5" font-family="Helvetica,sans-Serif" font-size="10.00" fill="grey"> elements</text>
</g>
</g>
</svg>

<g id="navigator" transform="translate(0 0)" fill="#404254">
  <rect fill="#f2f5e9" fill-opacity="0.5" stroke="#606060" stroke-width=".5" x="0" y="0" width="60" height="60"/>
  <use id="zoomplus" xlink:href="#zoomPlus" x="17" y="9" onmousedown="handleZoom(evt,'in')"/>
  <use id="zoomminus" xlink:href="#zoomMin" x="42" y="9" onmousedown="handleZoom(evt,'out')"/>
  <use id="reset" xlink:href="#resetDef" x="30" y="36" onmousedown="handleReset()"/>
   <use id="arrowup" xlink:href="#arrowUp" x="0" y="0" onmousedown="handlePan(0,-1)"/>
  <use id="arrowright" xlink:href="#arrowRight" x="0" y="0" onmousedown="handlePan(1,0)"/>
  <use id="arrowdown" xlink:href="#arrowDown" x="0" y="0" onmousedown="handlePan(0,1)"/>
  <use id="arrowleft" xlink:href="#arrowLeft" x="0" y="0" onmousedown="handlePan(-1,0)"/>
</g>
<svg viewBox="0 0 15 15" width="100%" height="30px" preserveAspectRatio="xMaxYMin meet">
 <g id="arrow_out" transform="scale(0.3 0.3)">
  <a xlink:href="classSpatial_1_1FMTlayer__coll__graph_org.svg" target="_base">
   <rect id="button" ry="5" rx="5" y="6" x="6" height="38" width="38"
        fill="#f2f5e9" fill-opacity="0.5" stroke="#606060" stroke-width="1.0"/>
   <path id="arrow"
     d="M 11.500037,31.436501 C 11.940474,20.09759 22.043105,11.32322 32.158766,21.979434 L 37.068811,17.246167 C 37.068811,17.246167 37.088388,32 37.088388,32 L 22.160133,31.978069 C 22.160133,31.978069 26.997745,27.140456 26.997745,27.140456 C 18.528582,18.264221 13.291696,25.230495 11.500037,31.436501 z"
     style="fill:#404040;"/>
  </a>
 </g>
</svg>

<style type='text/css'>
<![CDATA[
[data-mouse-over-selected='false'] { opacity: 0.7; }
[data-mouse-over-selected='true']  { opacity: 1.0; }
]]>
</style>
<script type="application/ecmascript"><![CDATA[
document.addEventListener('DOMContentLoaded', (event) => {
  highlightEdges();
  highlightAdjacentNodes();
});
]]></script>
</svg>
