<?xml version="1.0" encoding="UTF-8" standalone="no"?>
<!DOCTYPE svg PUBLIC "-//W3C//DTD SVG 1.1//EN"
 "http://www.w3.org/Graphics/SVG/1.1/DTD/svg11.dtd">
<!-- Generated by graphviz version 10.0.1 (20240210.2158)
 -->
<!-- Title: Parser::FMTyieldparser Pages: 1 -->
<svg width="125pt" height="140pt"
 viewBox="0.00 0.00 125.25 140.00" xmlns="http://www.w3.org/2000/svg" xmlns:xlink="http://www.w3.org/1999/xlink">
<g id="graph0" class="graph" transform="scale(1 1) rotate(0) translate(4 136)">
<title>Parser::FMTyieldparser</title>
<!-- Node1 -->
<g id="node1" class="node">
<title>Node1</title>
<g id="a_node1"><a xlink:title=" ">
<polygon fill="#999999" stroke="#666666" points="117.25,-20 0,-20 0,0 117.25,0 117.25,-20"/>
<text text-anchor="middle" x="58.62" y="-6.5" font-family="Helvetica,sans-Serif" font-size="10.00">Parser::FMTyieldparser</text>
</a>
</g>
</g>
<!-- Node2 -->
<g id="node2" class="node">
<title>Node2</title>
<g id="a_node2"><a xlink:href="classParser_1_1FMTparser.html" target="_top" xlink:title=" ">
<polygon fill="white" stroke="#666666" points="107.12,-76 10.12,-76 10.12,-56 107.12,-56 107.12,-76"/>
<text text-anchor="middle" x="58.62" y="-62.5" font-family="Helvetica,sans-Serif" font-size="10.00">Parser::FMTparser</text>
</a>
</g>
</g>
<!-- Node2&#45;&gt;Node1 -->
<g id="edge1" class="edge">
<title>Node2&#45;&gt;Node1</title>
<path fill="none" stroke="#63b8ff" d="M58.62,-44.13C58.62,-35.9 58.62,-26.85 58.62,-20.3"/>
<polygon fill="#63b8ff" stroke="#63b8ff" points="55.13,-44.08 58.63,-54.08 62.13,-44.08 55.13,-44.08"/>
</g>
<!-- Node3 -->
<g id="node3" class="node">
<title>Node3</title>
<g id="a_node3"><a xlink:href="classCore_1_1FMTobject.html" target="_top" xlink:title=" ">
<polygon fill="white" stroke="#666666" points="102.62,-132 14.62,-132 14.62,-112 102.62,-112 102.62,-132"/>
<text text-anchor="middle" x="58.62" y="-118.5" font-family="Helvetica,sans-Serif" font-size="10.00">Core::FMTobject</text>
</a>
</g>
</g>
<!-- Node3&#45;&gt;Node2 -->
<g id="edge2" class="edge">
<title>Node3&#45;&gt;Node2</title>
<path fill="none" stroke="#63b8ff" d="M58.62,-100.13C58.62,-91.9 58.62,-82.85 58.62,-76.3"/>
<polygon fill="#63b8ff" stroke="#63b8ff" points="55.13,-100.08 58.63,-110.08 62.13,-100.08 55.13,-100.08"/>
</g>
</g>
</svg>
