<?xml version="1.0" encoding="UTF-8" standalone="no"?>
<!DOCTYPE svg PUBLIC "-//W3C//DTD SVG 1.1//EN"
 "http://www.w3.org/Graphics/SVG/1.1/DTD/svg11.dtd">
<!-- Generated by graphviz version 8.1.0 (20230707.0739)
 -->
<!-- Title: Parallel::FMTplanningtask Pages: 1 -->
<svg width="2065pt" height="274pt"
 viewBox="0.00 0.00 2064.50 274.00" xmlns="http://www.w3.org/2000/svg" xmlns:xlink="http://www.w3.org/1999/xlink">
<g id="graph0" class="graph" transform="scale(1 1) rotate(0) translate(4 270)">
<title>Parallel::FMTplanningtask</title>
<!-- Node1 -->
<g id="Node000001" class="node">
<title>Node1</title>
<g id="a_Node000001"><a xlink:title=" ">
<polygon fill="#999999" stroke="#666666" points="2056.5,-71 1928,-71 1928,-51 2056.5,-51 2056.5,-71"/>
<text text-anchor="middle" x="1992.25" y="-57.5" font-family="Helvetica,sans-Serif" font-size="10.00">Parallel::FMTplanningtask</text>
</a>
</g>
</g>
<!-- Node2 -->
<g id="Node000002" class="node">
<title>Node2</title>
<g id="a_Node000002"><a xlink:href="classParallel_1_1FMTtask.html" target="_top" xlink:title=" ">
<polygon fill="white" stroke="#666666" points="1891,-71 1798.5,-71 1798.5,-51 1891,-51 1891,-71"/>
<text text-anchor="middle" x="1844.75" y="-57.5" font-family="Helvetica,sans-Serif" font-size="10.00">Parallel::FMTtask</text>
</a>
</g>
</g>
<!-- Node2&#45;&gt;Node1 -->
<g id="edge1_Node000001_Node000002" class="edge">
<title>Node2&#45;&gt;Node1</title>
<g id="a_edge1_Node000001_Node000002"><a xlink:title=" ">
<path fill="none" stroke="#63b8ff" d="M1902.15,-61C1910.51,-61 1919.16,-61 1927.65,-61"/>
<polygon fill="#63b8ff" stroke="#63b8ff" points="1902.39,-57.5 1892.39,-61 1902.39,-64.5 1902.39,-57.5"/>
</a>
</g>
</g>
<!-- Node3 -->
<g id="Node000003" class="node">
<title>Node3</title>
<g id="a_Node000003"><a xlink:href="classCore_1_1FMTobject.html" target="_top" xlink:title=" ">
<polygon fill="white" stroke="#666666" points="1761.5,-99 1673.5,-99 1673.5,-79 1761.5,-79 1761.5,-99"/>
<text text-anchor="middle" x="1717.5" y="-85.5" font-family="Helvetica,sans-Serif" font-size="10.00">Core::FMTobject</text>
</a>
</g>
</g>
<!-- Node3&#45;&gt;Node2 -->
<g id="edge2_Node000002_Node000003" class="edge">
<title>Node3&#45;&gt;Node2</title>
<g id="a_edge2_Node000002_Node000003"><a xlink:title=" ">
<path fill="none" stroke="#63b8ff" d="M1772.61,-76.9C1781.16,-74.99 1789.92,-73.03 1798.24,-71.17"/>
<polygon fill="#63b8ff" stroke="#63b8ff" points="1771.95,-73.69 1762.95,-79.29 1773.48,-80.52 1771.95,-73.69"/>
</a>
</g>
</g>
<!-- Node4 -->
<g id="Node000004" class="node">
<title>Node4</title>
<g id="a_Node000004"><a xlink:title=" ">
<polygon fill="white" stroke="#666666" points="1587.25,-160 1453.5,-160 1453.5,-128 1587.25,-128 1587.25,-160"/>
<text text-anchor="start" x="1461.5" y="-146.5" font-family="Helvetica,sans-Serif" font-size="10.00">std::shared_ptr&lt; Exception</text>
<text text-anchor="middle" x="1520.38" y="-134.5" font-family="Helvetica,sans-Serif" font-size="10.00">::FMTexceptionhandler &gt;</text>
</a>
</g>
</g>
<!-- Node4&#45;&gt;Node3 -->
<g id="edge3_Node000003_Node000004" class="edge">
<title>Node4&#45;&gt;Node3</title>
<g id="a_edge3_Node000003_Node000004"><a xlink:title=" ">
<path fill="none" stroke="#9a32cd" stroke-dasharray="5,2" d="M1590.1,-124.63C1620.15,-116.16 1654.22,-106.55 1679.41,-99.45"/>
<polygon fill="#9a32cd" stroke="#9a32cd" points="1589.33,-121.49 1580.65,-127.57 1591.23,-128.23 1589.33,-121.49"/>
</a>
</g>
<text text-anchor="middle" x="1630.38" y="-121.5" font-family="Helvetica,sans-Serif" font-size="10.00" fill="grey"> _exhandler</text>
</g>
<!-- Node5 -->
<g id="Node000005" class="node">
<title>Node5</title>
<g id="a_Node000005"><a xlink:href="classException_1_1FMTexceptionhandler.html" target="_top" xlink:title=" ">
<polygon fill="white" stroke="#666666" points="1383,-167 1224.5,-167 1224.5,-147 1383,-147 1383,-167"/>
<text text-anchor="middle" x="1303.75" y="-153.5" font-family="Helvetica,sans-Serif" font-size="10.00">Exception::FMTexceptionhandler</text>
</a>
</g>
</g>
<!-- Node5&#45;&gt;Node4 -->
<g id="edge4_Node000004_Node000005" class="edge">
<title>Node5&#45;&gt;Node4</title>
<g id="a_edge4_Node000004_Node000005"><a xlink:title=" ">
<path fill="none" stroke="#9a32cd" stroke-dasharray="5,2" d="M1394.28,-151.58C1413.96,-150.39 1434.46,-149.14 1453.03,-148.02"/>
<polygon fill="#9a32cd" stroke="#9a32cd" points="1394.22,-148.13 1384.45,-152.23 1394.64,-155.12 1394.22,-148.13"/>
</a>
</g>
<text text-anchor="middle" x="1418.25" y="-152.5" font-family="Helvetica,sans-Serif" font-size="10.00" fill="grey"> ptr</text>
</g>
<!-- Node6 -->
<g id="Node000006" class="node">
<title>Node6</title>
<g id="a_Node000006"><a xlink:title=" ">
<polygon fill="white" stroke="#666666" points="1065.25,-109 941.25,-109 941.25,-77 1065.25,-77 1065.25,-109"/>
<text text-anchor="start" x="949.25" y="-95.5" font-family="Helvetica,sans-Serif" font-size="10.00">std::shared_ptr&lt; Logging</text>
<text text-anchor="middle" x="1003.25" y="-83.5" font-family="Helvetica,sans-Serif" font-size="10.00">::FMTlogger &gt;</text>
</a>
</g>
</g>
<!-- Node6&#45;&gt;Node3 -->
<g id="edge20_Node000003_Node000006" class="edge">
<title>Node6&#45;&gt;Node3</title>
<g id="a_edge20_Node000003_Node000006"><a xlink:title=" ">
<path fill="none" stroke="#9a32cd" stroke-dasharray="5,2" d="M1076.29,-92.6C1223.53,-91.77 1555.01,-89.91 1673.44,-89.24"/>
<polygon fill="#9a32cd" stroke="#9a32cd" points="1076.57,-89.1 1066.59,-92.66 1076.61,-96.1 1076.57,-89.1"/>
</a>
</g>
<text text-anchor="middle" x="1418.25" y="-92.5" font-family="Helvetica,sans-Serif" font-size="10.00" fill="grey"> _logger</text>
</g>
<!-- Node6&#45;&gt;Node5 -->
<g id="edge5_Node000005_Node000006" class="edge">
<title>Node6&#45;&gt;Node5</title>
<g id="a_edge5_Node000005_Node000006"><a xlink:title=" ">
<path fill="none" stroke="#9a32cd" stroke-dasharray="5,2" d="M1076.02,-107.54C1114.72,-115.47 1163.26,-125.57 1206.5,-135 1223.25,-138.65 1241.6,-142.81 1257.74,-146.52"/>
<polygon fill="#9a32cd" stroke="#9a32cd" points="1076.88,-103.94 1066.39,-105.36 1075.48,-110.8 1076.88,-103.94"/>
</a>
</g>
<text text-anchor="middle" x="1144.88" y="-137.5" font-family="Helvetica,sans-Serif" font-size="10.00" fill="grey"> _logger</text>
</g>
<!-- Node7 -->
<g id="Node000007" class="node">
<title>Node7</title>
<g id="a_Node000007"><a xlink:href="classLogging_1_1FMTlogger.html" target="_top" xlink:title=" ">
<polygon fill="white" stroke="#666666" points="891,-76 789.5,-76 789.5,-56 891,-56 891,-76"/>
<text text-anchor="middle" x="840.25" y="-62.5" font-family="Helvetica,sans-Serif" font-size="10.00">Logging::FMTlogger</text>
</a>
</g>
</g>
<!-- Node7&#45;&gt;Node6 -->
<g id="edge6_Node000006_Node000007" class="edge">
<title>Node7&#45;&gt;Node6</title>
<g id="a_edge6_Node000006_Node000007"><a xlink:title=" ">
<path fill="none" stroke="#9a32cd" stroke-dasharray="5,2" d="M901.84,-76.16C914.6,-78.3 928.09,-80.56 940.88,-82.71"/>
<polygon fill="#9a32cd" stroke="#9a32cd" points="902.75,-72.6 892.31,-74.39 901.59,-79.5 902.75,-72.6"/>
</a>
</g>
<text text-anchor="middle" x="916.12" y="-81.5" font-family="Helvetica,sans-Serif" font-size="10.00" fill="grey"> ptr</text>
</g>
<!-- Node21 -->
<g id="Node000021" class="node">
<title>Node21</title>
<g id="a_Node000021"><a xlink:title=" ">
<polygon fill="white" stroke="#666666" points="1206.5,-65 1083.25,-65 1083.25,-33 1206.5,-33 1206.5,-65"/>
<text text-anchor="start" x="1091.25" y="-51.5" font-family="Helvetica,sans-Serif" font-size="10.00">std::unique_ptr&lt; Logging</text>
<text text-anchor="middle" x="1144.88" y="-39.5" font-family="Helvetica,sans-Serif" font-size="10.00">::FMTlogger &gt;</text>
</a>
</g>
</g>
<!-- Node7&#45;&gt;Node21 -->
<g id="edge22_Node000021_Node000007" class="edge">
<title>Node7&#45;&gt;Node21</title>
<g id="a_edge22_Node000021_Node000007"><a xlink:title=" ">
<path fill="none" stroke="#9a32cd" stroke-dasharray="5,2" d="M902.13,-61.44C904.45,-61.29 906.75,-61.14 909,-61 968.09,-57.31 1035.59,-53.95 1083.02,-51.73"/>
<polygon fill="#9a32cd" stroke="#9a32cd" points="901.93,-58.01 892.19,-62.19 902.4,-65 901.93,-58.01"/>
</a>
</g>
<text text-anchor="middle" x="916.12" y="-63.5" font-family="Helvetica,sans-Serif" font-size="10.00" fill="grey"> ptr</text>
</g>
<!-- Node8 -->
<g id="Node000008" class="node">
<title>Node8</title>
<g id="a_Node000008"><a xlink:title=" ">
<polygon fill="white" stroke="#666666" points="708.5,-126 585.25,-126 585.25,-94 708.5,-94 708.5,-126"/>
<text text-anchor="start" x="593.25" y="-112.5" font-family="Helvetica,sans-Serif" font-size="10.00">std::unique_ptr&lt; Logging</text>
<text text-anchor="middle" x="646.88" y="-100.5" font-family="Helvetica,sans-Serif" font-size="10.00">::FMTsolverlogger &gt;</text>
</a>
</g>
</g>
<!-- Node8&#45;&gt;Node7 -->
<g id="edge7_Node000007_Node000008" class="edge">
<title>Node8&#45;&gt;Node7</title>
<g id="a_edge7_Node000007_Node000008"><a xlink:title=" ">
<path fill="none" stroke="#9a32cd" stroke-dasharray="5,2" d="M719.37,-93.92C736.46,-90.05 754.63,-85.9 771.5,-82 779.15,-80.23 787.29,-78.33 795.17,-76.47"/>
<polygon fill="#9a32cd" stroke="#9a32cd" points="718.87,-90.67 709.89,-96.3 720.42,-97.5 718.87,-90.67"/>
</a>
</g>
<text text-anchor="middle" x="749" y="-94.5" font-family="Helvetica,sans-Serif" font-size="10.00" fill="grey"> solverref</text>
</g>
<!-- Node9 -->
<g id="Node000009" class="node">
<title>Node9</title>
<g id="a_Node000009"><a xlink:href="classLogging_1_1FMTsolverlogger.html" target="_top" xlink:title=" ">
<polygon fill="white" stroke="#666666" points="535,-120 408.75,-120 408.75,-100 535,-100 535,-120"/>
<text text-anchor="middle" x="471.88" y="-106.5" font-family="Helvetica,sans-Serif" font-size="10.00">Logging::FMTsolverlogger</text>
</a>
</g>
</g>
<!-- Node9&#45;&gt;Node8 -->
<g id="edge8_Node000008_Node000009" class="edge">
<title>Node9&#45;&gt;Node8</title>
<g id="a_edge8_Node000008_Node000009"><a xlink:title=" ">
<path fill="none" stroke="#9a32cd" stroke-dasharray="5,2" d="M546.09,-110C559.04,-110 572.39,-110 584.96,-110"/>
<polygon fill="#9a32cd" stroke="#9a32cd" points="546.33,-106.5 536.33,-110 546.33,-113.5 546.33,-106.5"/>
</a>
</g>
<text text-anchor="middle" x="560.12" y="-112.5" font-family="Helvetica,sans-Serif" font-size="10.00" fill="grey"> ptr</text>
</g>
<!-- Node10 -->
<g id="Node000010" class="node">
<title>Node10</title>
<g id="a_Node000010"><a xlink:title=" ">
<polygon fill="white" stroke="#666666" points="371.75,-120 263.5,-120 263.5,-100 371.75,-100 371.75,-120"/>
<text text-anchor="middle" x="317.62" y="-106.5" font-family="Helvetica,sans-Serif" font-size="10.00">CoinMessageHandler</text>
</a>
</g>
</g>
<!-- Node10&#45;&gt;Node9 -->
<g id="edge9_Node000009_Node000010" class="edge">
<title>Node10&#45;&gt;Node9</title>
<g id="a_edge9_Node000009_Node000010"><a xlink:title=" ">
<path fill="none" stroke="#63b8ff" d="M382.8,-110C391.23,-110 399.85,-110 408.25,-110"/>
<polygon fill="#63b8ff" stroke="#63b8ff" points="382.87,-106.5 372.87,-110 382.87,-113.5 382.87,-106.5"/>
</a>
</g>
</g>
<!-- Node11 -->
<g id="Node000011" class="node">
<title>Node11</title>
<g id="a_Node000011"><a xlink:title=" ">
<polygon fill="white" stroke="#666666" points="676.62,-76 617.12,-76 617.12,-56 676.62,-56 676.62,-76"/>
<text text-anchor="middle" x="646.88" y="-62.5" font-family="Helvetica,sans-Serif" font-size="10.00">std::string</text>
</a>
</g>
</g>
<!-- Node11&#45;&gt;Node7 -->
<g id="edge10_Node000007_Node000011" class="edge">
<title>Node11&#45;&gt;Node7</title>
<g id="a_edge10_Node000007_Node000011"><a xlink:title=" ">
<path fill="none" stroke="#9a32cd" stroke-dasharray="5,2" d="M687.65,-66C717.07,-66 757.37,-66 789.02,-66"/>
<polygon fill="#9a32cd" stroke="#9a32cd" points="687.94,-62.5 677.94,-66 687.94,-69.5 687.94,-62.5"/>
</a>
</g>
<text text-anchor="middle" x="749" y="-68.5" font-family="Helvetica,sans-Serif" font-size="10.00" fill="grey"> filepath</text>
</g>
<!-- Node12 -->
<g id="Node000012" class="node">
<title>Node12</title>
<g id="a_Node000012"><a xlink:title=" ">
<polygon fill="white" stroke="#666666" points="518.88,-82 424.88,-82 424.88,-50 518.88,-50 518.88,-82"/>
<text text-anchor="start" x="432.88" y="-68.5" font-family="Helvetica,sans-Serif" font-size="10.00">std::basic_string&lt;</text>
<text text-anchor="middle" x="471.88" y="-56.5" font-family="Helvetica,sans-Serif" font-size="10.00"> Char &gt;</text>
</a>
</g>
</g>
<!-- Node12&#45;&gt;Node11 -->
<g id="edge11_Node000011_Node000012" class="edge">
<title>Node12&#45;&gt;Node11</title>
<g id="a_edge11_Node000011_Node000012"><a xlink:title=" ">
<path fill="none" stroke="#63b8ff" d="M530.09,-66C559.13,-66 593.16,-66 616.78,-66"/>
<polygon fill="#63b8ff" stroke="#63b8ff" points="530.24,-62.5 520.24,-66 530.24,-69.5 530.24,-62.5"/>
</a>
</g>
</g>
<!-- Node13 -->
<g id="Node000013" class="node">
<title>Node13</title>
<g id="a_Node000013"><a xlink:title=" ">
<polygon fill="white" stroke="#666666" points="683.38,-35 610.38,-35 610.38,-15 683.38,-15 683.38,-35"/>
<text text-anchor="middle" x="646.88" y="-21.5" font-family="Helvetica,sans-Serif" font-size="10.00">std::ofstream</text>
</a>
</g>
</g>
<!-- Node13&#45;&gt;Node7 -->
<g id="edge12_Node000007_Node000013" class="edge">
<title>Node13&#45;&gt;Node7</title>
<g id="a_edge12_Node000007_Node000013"><a xlink:title=" ">
<path fill="none" stroke="#9a32cd" stroke-dasharray="5,2" d="M694.25,-34.01C717.48,-38.62 746.02,-44.42 771.5,-50 779.41,-51.73 787.82,-53.66 795.93,-55.55"/>
<polygon fill="#9a32cd" stroke="#9a32cd" points="695.13,-30.42 684.64,-31.92 693.78,-37.29 695.13,-30.42"/>
</a>
</g>
<text text-anchor="middle" x="749" y="-52.5" font-family="Helvetica,sans-Serif" font-size="10.00" fill="grey"> filestream</text>
</g>
<!-- Node14 -->
<g id="Node000014" class="node">
<title>Node14</title>
<g id="a_Node000014"><a xlink:title=" ">
<polygon fill="white" stroke="#666666" points="522.62,-32 421.12,-32 421.12,0 522.62,0 522.62,-32"/>
<text text-anchor="start" x="429.12" y="-18.5" font-family="Helvetica,sans-Serif" font-size="10.00">std::basic_ofstream</text>
<text text-anchor="middle" x="471.88" y="-6.5" font-family="Helvetica,sans-Serif" font-size="10.00">&lt; Char &gt;</text>
</a>
</g>
</g>
<!-- Node14&#45;&gt;Node13 -->
<g id="edge13_Node000013_Node000014" class="edge">
<title>Node14&#45;&gt;Node13</title>
<g id="a_edge13_Node000013_Node000014"><a xlink:title=" ">
<path fill="none" stroke="#63b8ff" d="M533.61,-19.16C559.12,-20.49 587.92,-21.98 609.96,-23.13"/>
<polygon fill="#63b8ff" stroke="#63b8ff" points="534.08,-15.63 523.91,-18.6 533.72,-22.62 534.08,-15.63"/>
</a>
</g>
</g>
<!-- Node15 -->
<g id="Node000015" class="node">
<title>Node15</title>
<g id="a_Node000015"><a xlink:title=" ">
<polygon fill="white" stroke="#666666" points="367.25,-32 268,-32 268,0 367.25,0 367.25,-32"/>
<text text-anchor="start" x="276" y="-18.5" font-family="Helvetica,sans-Serif" font-size="10.00">std::basic_ostream</text>
<text text-anchor="middle" x="317.62" y="-6.5" font-family="Helvetica,sans-Serif" font-size="10.00">&lt; Char &gt;</text>
</a>
</g>
</g>
<!-- Node15&#45;&gt;Node14 -->
<g id="edge14_Node000014_Node000015" class="edge">
<title>Node15&#45;&gt;Node14</title>
<g id="a_edge14_Node000014_Node000015"><a xlink:title=" ">
<path fill="none" stroke="#63b8ff" d="M378.6,-16C392.52,-16 407.2,-16 420.65,-16"/>
<polygon fill="#63b8ff" stroke="#63b8ff" points="378.64,-12.5 368.64,-16 378.64,-19.5 378.64,-12.5"/>
</a>
</g>
</g>
<!-- Node16 -->
<g id="Node000016" class="node">
<title>Node16</title>
<g id="a_Node000016"><a xlink:title=" ">
<polygon fill="white" stroke="#666666" points="226.5,-26 111.5,-26 111.5,-6 226.5,-6 226.5,-26"/>
<text text-anchor="middle" x="169" y="-12.5" font-family="Helvetica,sans-Serif" font-size="10.00">std::basic_ios&lt; Char &gt;</text>
</a>
</g>
</g>
<!-- Node16&#45;&gt;Node15 -->
<g id="edge15_Node000015_Node000016" class="edge">
<title>Node16&#45;&gt;Node15</title>
<g id="a_edge15_Node000015_Node000016"><a xlink:title=" ">
<path fill="none" stroke="#63b8ff" d="M237.61,-16C247.76,-16 258.06,-16 267.72,-16"/>
<polygon fill="#63b8ff" stroke="#63b8ff" points="237.69,-12.5 227.69,-16 237.69,-19.5 237.69,-12.5"/>
</a>
</g>
</g>
<!-- Node17 -->
<g id="Node000017" class="node">
<title>Node17</title>
<g id="a_Node000017"><a xlink:title=" ">
<polygon fill="white" stroke="#666666" points="74.5,-26 0,-26 0,-6 74.5,-6 74.5,-26"/>
<text text-anchor="middle" x="37.25" y="-12.5" font-family="Helvetica,sans-Serif" font-size="10.00">std::ios_base</text>
</a>
</g>
</g>
<!-- Node17&#45;&gt;Node16 -->
<g id="edge16_Node000016_Node000017" class="edge">
<title>Node17&#45;&gt;Node16</title>
<g id="a_edge16_Node000016_Node000017"><a xlink:title=" ">
<path fill="none" stroke="#63b8ff" d="M85.5,-16C93.92,-16 102.77,-16 111.41,-16"/>
<polygon fill="#63b8ff" stroke="#63b8ff" points="85.74,-12.5 75.74,-16 85.74,-19.5 85.74,-12.5"/>
</a>
</g>
</g>
<!-- Node18 -->
<g id="Node000018" class="node">
<title>Node18</title>
<g id="a_Node000018"><a xlink:title=" ">
<polygon fill="white" stroke="#666666" points="1060,-166 946.5,-166 946.5,-134 1060,-134 1060,-166"/>
<text text-anchor="start" x="954.5" y="-152.5" font-family="Helvetica,sans-Serif" font-size="10.00">std::vector&lt; Exception</text>
<text text-anchor="middle" x="1003.25" y="-140.5" font-family="Helvetica,sans-Serif" font-size="10.00">::FMTexc &gt;</text>
</a>
</g>
</g>
<!-- Node18&#45;&gt;Node5 -->
<g id="edge17_Node000005_Node000018" class="edge">
<title>Node18&#45;&gt;Node5</title>
<g id="a_edge17_Node000005_Node000018"><a xlink:title=" ">
<path fill="none" stroke="#9a32cd" stroke-dasharray="5,2" d="M1071.28,-151.57C1116.56,-152.63 1176.5,-154.04 1224.05,-155.15"/>
<polygon fill="#9a32cd" stroke="#9a32cd" points="1071.47,-148.05 1061.4,-151.32 1071.31,-155.05 1071.47,-148.05"/>
</a>
</g>
<text text-anchor="middle" x="1144.88" y="-156.5" font-family="Helvetica,sans-Serif" font-size="10.00" fill="grey"> errorstowarnings</text>
</g>
<!-- Node19 -->
<g id="Node000019" class="node">
<title>Node19</title>
<g id="a_Node000019"><a xlink:title=" ">
<polygon fill="white" stroke="#666666" points="1060.75,-266 945.75,-266 945.75,-234 1060.75,-234 1060.75,-266"/>
<text text-anchor="start" x="953.75" y="-252.5" font-family="Helvetica,sans-Serif" font-size="10.00">std::set&lt; boost::thread</text>
<text text-anchor="middle" x="1003.25" y="-240.5" font-family="Helvetica,sans-Serif" font-size="10.00">::id &gt;</text>
</a>
</g>
</g>
<!-- Node19&#45;&gt;Node5 -->
<g id="edge18_Node000005_Node000019" class="edge">
<title>Node19&#45;&gt;Node5</title>
<g id="a_edge18_Node000005_Node000019"><a xlink:title=" ">
<path fill="none" stroke="#9a32cd" stroke-dasharray="5,2" d="M1071.7,-238.7C1111.55,-231.03 1162.64,-219.46 1206.5,-204 1234.91,-193.98 1265.91,-177.82 1284.84,-167.31"/>
<polygon fill="#9a32cd" stroke="#9a32cd" points="1071.21,-235.42 1062.03,-240.71 1072.51,-242.3 1071.21,-235.42"/>
</a>
</g>
<text text-anchor="middle" x="1144.88" y="-237.5" font-family="Helvetica,sans-Serif" font-size="10.00" fill="grey"> registered_threads</text>
</g>
<!-- Node20 -->
<g id="Node000020" class="node">
<title>Node20</title>
<g id="a_Node000020"><a xlink:title=" ">
<polygon fill="white" stroke="#666666" points="1054.38,-216 952.12,-216 952.12,-184 1054.38,-184 1054.38,-216"/>
<text text-anchor="start" x="960.12" y="-202.5" font-family="Helvetica,sans-Serif" font-size="10.00">std::unordered_map</text>
<text text-anchor="middle" x="1003.25" y="-190.5" font-family="Helvetica,sans-Serif" font-size="10.00">&lt; int, size_t &gt;</text>
</a>
</g>
</g>
<!-- Node20&#45;&gt;Node5 -->
<g id="edge19_Node000005_Node000020" class="edge">
<title>Node20&#45;&gt;Node5</title>
<g id="a_edge19_Node000005_Node000020"><a xlink:title=" ">
<path fill="none" stroke="#9a32cd" stroke-dasharray="5,2" d="M1065.35,-191.2C1113.11,-184.32 1179.64,-174.73 1230.12,-167.46"/>
<polygon fill="#9a32cd" stroke="#9a32cd" points="1064.95,-187.86 1055.55,-192.75 1065.95,-194.79 1064.95,-187.86"/>
</a>
</g>
<text text-anchor="middle" x="1144.88" y="-190.5" font-family="Helvetica,sans-Serif" font-size="10.00" fill="grey"> _specificwarningcount</text>
</g>
<!-- Node21&#45;&gt;Node2 -->
<g id="edge21_Node000002_Node000021" class="edge">
<title>Node21&#45;&gt;Node2</title>
<g id="a_edge21_Node000002_Node000021"><a xlink:title=" ">
<path fill="none" stroke="#9a32cd" stroke-dasharray="5,2" d="M1217.75,-49C1272.44,-49 1349.59,-49 1417.25,-49 1417.25,-49 1417.25,-49 1718.5,-49 1744.93,-49 1774.36,-51.68 1798.04,-54.51"/>
<polygon fill="#9a32cd" stroke="#9a32cd" points="1217.77,-45.5 1207.77,-49 1217.77,-52.5 1217.77,-45.5"/>
</a>
</g>
<text text-anchor="middle" x="1520.38" y="-51.5" font-family="Helvetica,sans-Serif" font-size="10.00" fill="grey"> tasklogger</text>
</g>
</g>
</svg>
