<?xml version="1.0" encoding="UTF-8" standalone="no"?>
<!DOCTYPE svg PUBLIC "-//W3C//DTD SVG 1.1//EN"
 "http://www.w3.org/Graphics/SVG/1.1/DTD/svg11.dtd">
<!-- Generated by graphviz version 8.1.0 (20230707.0739)
 -->
<!-- Title: Logging::FMTlogger Pages: 1 -->
<svg width="276pt" height="142pt"
 viewBox="0.00 0.00 275.50 142.00" xmlns="http://www.w3.org/2000/svg" xmlns:xlink="http://www.w3.org/1999/xlink">
<g id="graph0" class="graph" transform="scale(1 1) rotate(0) translate(4 138)">
<title>Logging::FMTlogger</title>
<!-- Node1 -->
<g id="Node000001" class="node">
<title>Node1</title>
<g id="a_Node000001"><a xlink:title=" ">
<polygon fill="#999999" stroke="#666666" points="101.5,-77 0,-77 0,-57 101.5,-57 101.5,-77"/>
<text text-anchor="middle" x="50.75" y="-63.5" font-family="Helvetica,sans-Serif" font-size="10.00">Logging::FMTlogger</text>
</a>
</g>
</g>
<!-- Node2 -->
<g id="Node000002" class="node">
<title>Node2</title>
<g id="a_Node000002"><a xlink:href="classLogging_1_1FMTdebuglogger.html" target="_top" xlink:title=" ">
<polygon fill="white" stroke="#666666" points="266.38,-134 138.62,-134 138.62,-114 266.38,-114 266.38,-134"/>
<text text-anchor="middle" x="202.5" y="-120.5" font-family="Helvetica,sans-Serif" font-size="10.00">Logging::FMTdebuglogger</text>
</a>
</g>
</g>
<!-- Node1&#45;&gt;Node2 -->
<g id="edge1_Node000001_Node000002" class="edge">
<title>Node1&#45;&gt;Node2</title>
<g id="a_edge1_Node000001_Node000002"><a xlink:title=" ">
<path fill="none" stroke="#63b8ff" d="M83.21,-82.1C99.25,-89.51 119.2,-98.26 137.5,-105 145.77,-108.04 154.76,-110.96 163.33,-113.54"/>
<polygon fill="#63b8ff" stroke="#63b8ff" points="84.83,-78.53 74.28,-77.47 81.86,-84.87 84.83,-78.53"/>
</a>
</g>
</g>
<!-- Node3 -->
<g id="Node000003" class="node">
<title>Node3</title>
<g id="a_Node000003"><a xlink:href="classLogging_1_1FMTdefaultlogger.html" target="_top" xlink:title=" ">
<polygon fill="white" stroke="#666666" points="267.5,-96 137.5,-96 137.5,-76 267.5,-76 267.5,-96"/>
<text text-anchor="middle" x="202.5" y="-82.5" font-family="Helvetica,sans-Serif" font-size="10.00">Logging::FMTdefaultlogger</text>
</a>
</g>
</g>
<!-- Node1&#45;&gt;Node3 -->
<g id="edge2_Node000001_Node000003" class="edge">
<title>Node1&#45;&gt;Node3</title>
<g id="a_edge2_Node000001_Node000003"><a xlink:title=" ">
<path fill="none" stroke="#63b8ff" d="M112.52,-74.71C120.65,-75.74 129.01,-76.8 137.2,-77.84"/>
<polygon fill="#63b8ff" stroke="#63b8ff" points="112.98,-71.11 102.61,-73.33 112.09,-78.06 112.98,-71.11"/>
</a>
</g>
</g>
<!-- Node4 -->
<g id="Node000004" class="node">
<title>Node4</title>
<g id="a_Node000004"><a xlink:href="classLogging_1_1FMTquietlogger.html" target="_top" xlink:title=" ">
<polygon fill="white" stroke="#666666" points="263.75,-58 141.25,-58 141.25,-38 263.75,-38 263.75,-58"/>
<text text-anchor="middle" x="202.5" y="-44.5" font-family="Helvetica,sans-Serif" font-size="10.00">Logging::FMTquietlogger</text>
</a>
</g>
</g>
<!-- Node1&#45;&gt;Node4 -->
<g id="edge3_Node000001_Node000004" class="edge">
<title>Node1&#45;&gt;Node4</title>
<g id="a_edge3_Node000001_Node000004"><a xlink:title=" ">
<path fill="none" stroke="#63b8ff" d="M112.46,-59.3C121.84,-58.11 131.54,-56.88 140.92,-55.69"/>
<polygon fill="#63b8ff" stroke="#63b8ff" points="112.09,-55.94 102.61,-60.67 112.98,-62.89 112.09,-55.94"/>
</a>
</g>
</g>
<!-- Node5 -->
<g id="Node000005" class="node">
<title>Node5</title>
<g id="a_Node000005"><a xlink:href="classLogging_1_1FMTtasklogger.html" target="_top" xlink:title=" ">
<polygon fill="white" stroke="#666666" points="262.62,-20 142.38,-20 142.38,0 262.62,0 262.62,-20"/>
<text text-anchor="middle" x="202.5" y="-6.5" font-family="Helvetica,sans-Serif" font-size="10.00">Logging::FMTtasklogger</text>
</a>
</g>
</g>
<!-- Node1&#45;&gt;Node5 -->
<g id="edge4_Node000001_Node000005" class="edge">
<title>Node1&#45;&gt;Node5</title>
<g id="a_edge4_Node000001_Node000005"><a xlink:title=" ">
<path fill="none" stroke="#63b8ff" d="M83.21,-51.9C99.25,-44.49 119.2,-35.74 137.5,-29 145.77,-25.96 154.76,-23.04 163.33,-20.46"/>
<polygon fill="#63b8ff" stroke="#63b8ff" points="81.86,-49.13 74.28,-56.53 84.83,-55.47 81.86,-49.13"/>
</a>
</g>
</g>
</g>
</svg>
