<?xml version="1.0" encoding="UTF-8" standalone="no"?>
<!DOCTYPE svg PUBLIC "-//W3C//DTD SVG 1.1//EN"
 "http://www.w3.org/Graphics/SVG/1.1/DTD/svg11.dtd">
<!-- Generated by graphviz version 10.0.1 (20240210.2158)
 -->
<!-- Title: Core::FMTaction Pages: 1 -->
<!--zoomable 329 -->
<svg id="main" version="1.1" xmlns="http://www.w3.org/2000/svg" xmlns:xlink="http://www.w3.org/1999/xlink" xml:space="preserve" onload="init(evt)">
<style type="text/css"><![CDATA[
.edge:hover path { stroke: red; }
.edge:hover polygon { stroke: red; fill: red; }
]]></style>
<script type="text/javascript"><![CDATA[
var edges = document.getElementsByTagName('g');
if (edges && edges.length) {
  for (var i=0;i<edges.length;i++) {
    if (edges[i].id.substr(0,4)=='edge') {
      edges[i].setAttribute('class','edge');
    }
  }
}
]]></script>
        <defs>
                <circle id="rim" cx="0" cy="0" r="7"/>
                <circle id="rim2" cx="0" cy="0" r="3.5"/>
                <g id="zoomPlus">
                        <use xlink:href="#rim" fill="#404040">
                                <set attributeName="fill" to="#808080" begin="zoomplus.mouseover" end="zoomplus.mouseout"/>
                        </use>
                        <path d="M-4,0h8M0,-4v8" fill="none" stroke="white" stroke-width="1.5" pointer-events="none"/>
                </g>
                <g id="zoomMin">
                        <use xlink:href="#rim" fill="#404040">
                                <set attributeName="fill" to="#808080" begin="zoomminus.mouseover" end="zoomminus.mouseout"/>
                        </use>
                        <path d="M-4,0h8" fill="none" stroke="white" stroke-width="1.5" pointer-events="none"/>
                </g>
                <g id="dirArrow">
                        <path fill="none" stroke="white" stroke-width="1.5" d="M0,-3.0v7 M-2.5,-0.5L0,-3.0L2.5,-0.5"/>
                </g>
               <g id="resetDef">
                       <use xlink:href="#rim2" fill="#404040">
                               <set attributeName="fill" to="#808080" begin="reset.mouseover" end="reset.mouseout"/>
                       </use>
               </g>
        </defs>

<script type="text/javascript">
var viewWidth = 2144;
var viewHeight = 329;
var sectionId = 'dynsection-1';
</script>
<script xlink:href="svgpan.js"/>
<svg id="graph" class="graph">
<g id="viewport">
<title>Core::FMTaction</title>
<!-- Node1 -->
<g id="node1" class="node">
<title>Node1</title>
<g id="a_node1"><a xlink:title=" ">
<polygon fill="#999999" stroke="#666666" points="2136,-254 2048,-254 2048,-234 2136,-234 2136,-254"/>
<text text-anchor="middle" x="2092" y="-240.5" font-family="Helvetica,sans-Serif" font-size="10.00">Core::FMTaction</text>
</a>
</g>
</g>
<!-- Node2 -->
<g id="node2" class="node">
<title>Node2</title>
<g id="a_node2"><a xlink:href="classCore_1_1FMTlist.html" target="_top" xlink:title=" ">
<polygon fill="white" stroke="#666666" points="1982.75,-194 1849.75,-194 1849.75,-174 1982.75,-174 1982.75,-194"/>
<text text-anchor="middle" x="1916.25" y="-180.5" font-family="Helvetica,sans-Serif" font-size="10.00">Core::FMTlist&lt; FMTspec &gt;</text>
</a>
</g>
</g>
<!-- Node2&#45;&gt;Node1 -->
<g id="edge1" class="edge">
<title>Node2&#45;&gt;Node1</title>
<path fill="none" stroke="#63b8ff" d="M1994.12,-196.87C2006.32,-199.9 2018.65,-203.58 2030,-208 2046.96,-214.61 2064.7,-225.61 2076.64,-233.71"/>
<polygon fill="#63b8ff" stroke="#63b8ff" points="1995,-193.48 1984.46,-194.6 1993.4,-200.29 1995,-193.48"/>
</g>
<!-- Node3 -->
<g id="node3" class="node">
<title>Node3</title>
<g id="a_node3"><a xlink:href="classCore_1_1FMTobject.html" target="_top" xlink:title=" ">
<polygon fill="white" stroke="#666666" points="1753.75,-188 1665.75,-188 1665.75,-168 1753.75,-168 1753.75,-188"/>
<text text-anchor="middle" x="1709.75" y="-174.5" font-family="Helvetica,sans-Serif" font-size="10.00">Core::FMTobject</text>
</a>
</g>
</g>
<!-- Node3&#45;&gt;Node2 -->
<g id="edge2" class="edge">
<title>Node3&#45;&gt;Node2</title>
<path fill="none" stroke="#63b8ff" d="M1765.57,-179.61C1791.36,-180.37 1822.33,-181.27 1849.38,-182.07"/>
<polygon fill="#63b8ff" stroke="#63b8ff" points="1765.73,-176.11 1755.63,-179.32 1765.53,-183.11 1765.73,-176.11"/>
</g>
<!-- Node4 -->
<g id="node4" class="node">
<title>Node4</title>
<g id="a_node4"><a xlink:title=" ">
<polygon fill="white" stroke="#666666" points="1562.25,-146 1428.5,-146 1428.5,-114 1562.25,-114 1562.25,-146"/>
<text text-anchor="start" x="1436.5" y="-132.5" font-family="Helvetica,sans-Serif" font-size="10.00">std::shared_ptr&lt; Exception</text>
<text text-anchor="middle" x="1495.38" y="-120.5" font-family="Helvetica,sans-Serif" font-size="10.00">::FMTexceptionhandler &gt;</text>
</a>
</g>
</g>
<!-- Node4&#45;&gt;Node3 -->
<g id="edge3" class="edge">
<title>Node4&#45;&gt;Node3</title>
<path fill="none" stroke="#9a32cd" stroke-dasharray="5,2" d="M1573.78,-140.55C1592.47,-143.69 1612.3,-147.51 1630.5,-152 1647.46,-156.18 1666.02,-162.28 1680.81,-167.52"/>
<polygon fill="#9a32cd" stroke="#9a32cd" points="1574.56,-137.13 1564.12,-138.98 1573.43,-144.04 1574.56,-137.13"/>
<text text-anchor="middle" x="1605.38" y="-154.5" font-family="Helvetica,sans-Serif" font-size="10.00"> _exhandler</text>
</g>
<!-- Node5 -->
<g id="node5" class="node">
<title>Node5</title>
<g id="a_node5"><a xlink:href="classException_1_1FMTexceptionhandler.html" target="_top" xlink:title=" ">
<polygon fill="white" stroke="#666666" points="1358,-126 1199.5,-126 1199.5,-106 1358,-106 1358,-126"/>
<text text-anchor="middle" x="1278.75" y="-112.5" font-family="Helvetica,sans-Serif" font-size="10.00">Exception::FMTexceptionhandler</text>
</a>
</g>
</g>
<!-- Node5&#45;&gt;Node4 -->
<g id="edge4" class="edge">
<title>Node5&#45;&gt;Node4</title>
<path fill="none" stroke="#9a32cd" stroke-dasharray="5,2" d="M1369.83,-121.88C1389.34,-123.15 1409.63,-124.47 1428.03,-125.67"/>
<polygon fill="#9a32cd" stroke="#9a32cd" points="1370.17,-118.39 1359.96,-121.23 1369.71,-125.38 1370.17,-118.39"/>
<text text-anchor="middle" x="1393.25" y="-127.5" font-family="Helvetica,sans-Serif" font-size="10.00"> ptr</text>
</g>
<!-- Node6 -->
<g id="node6" class="node">
<title>Node6</title>
<g id="a_node6"><a xlink:title=" ">
<polygon fill="white" stroke="#666666" points="1065.25,-182 941.25,-182 941.25,-150 1065.25,-150 1065.25,-182"/>
<text text-anchor="start" x="949.25" y="-168.5" font-family="Helvetica,sans-Serif" font-size="10.00">std::shared_ptr&lt; Logging</text>
<text text-anchor="middle" x="1003.25" y="-156.5" font-family="Helvetica,sans-Serif" font-size="10.00">::FMTlogger &gt;</text>
</a>
</g>
</g>
<!-- Node6&#45;&gt;Node3 -->
<g id="edge20" class="edge">
<title>Node6&#45;&gt;Node3</title>
<path fill="none" stroke="#9a32cd" stroke-dasharray="5,2" d="M1077,-167.24C1223.05,-169.73 1548,-175.26 1665.39,-177.26"/>
<polygon fill="#9a32cd" stroke="#9a32cd" points="1077.11,-163.74 1067.05,-167.07 1076.99,-170.74 1077.11,-163.74"/>
<text text-anchor="middle" x="1393.25" y="-175.5" font-family="Helvetica,sans-Serif" font-size="10.00"> _logger</text>
</g>
<!-- Node6&#45;&gt;Node5 -->
<g id="edge5" class="edge">
<title>Node6&#45;&gt;Node5</title>
<path fill="none" stroke="#9a32cd" stroke-dasharray="5,2" d="M1076.81,-152.73C1121.88,-144.5 1178.97,-134.06 1220.78,-126.42"/>
<polygon fill="#9a32cd" stroke="#9a32cd" points="1076.33,-149.27 1067.12,-154.51 1077.58,-156.15 1076.33,-149.27"/>
<text text-anchor="middle" x="1132.38" y="-154.5" font-family="Helvetica,sans-Serif" font-size="10.00"> _logger</text>
</g>
<!-- Node7 -->
<g id="node7" class="node">
<title>Node7</title>
<g id="a_node7"><a xlink:href="classLogging_1_1FMTlogger.html" target="_top" xlink:title=" ">
<polygon fill="white" stroke="#666666" points="891,-173 789.5,-173 789.5,-153 891,-153 891,-173"/>
<text text-anchor="middle" x="840.25" y="-159.5" font-family="Helvetica,sans-Serif" font-size="10.00">Logging::FMTlogger</text>
</a>
</g>
</g>
<!-- Node7&#45;&gt;Node6 -->
<g id="edge6" class="edge">
<title>Node7&#45;&gt;Node6</title>
<path fill="none" stroke="#9a32cd" stroke-dasharray="5,2" d="M902.6,-164.14C915.14,-164.38 928.34,-164.62 940.88,-164.86"/>
<polygon fill="#9a32cd" stroke="#9a32cd" points="902.89,-160.65 892.82,-163.96 902.76,-167.65 902.89,-160.65"/>
<text text-anchor="middle" x="916.12" y="-167.5" font-family="Helvetica,sans-Serif" font-size="10.00"> ptr</text>
</g>
<!-- Node8 -->
<g id="node8" class="node">
<title>Node8</title>
<g id="a_node8"><a xlink:title=" ">
<polygon fill="white" stroke="#666666" points="708.5,-179 585.25,-179 585.25,-147 708.5,-147 708.5,-179"/>
<text text-anchor="start" x="593.25" y="-165.5" font-family="Helvetica,sans-Serif" font-size="10.00">std::unique_ptr&lt; Logging</text>
<text text-anchor="middle" x="646.88" y="-153.5" font-family="Helvetica,sans-Serif" font-size="10.00">::FMTsolverlogger &gt;</text>
</a>
</g>
</g>
<!-- Node8&#45;&gt;Node7 -->
<g id="edge7" class="edge">
<title>Node8&#45;&gt;Node7</title>
<path fill="none" stroke="#9a32cd" stroke-dasharray="5,2" d="M720.31,-161.08C737.12,-160.84 754.93,-160.76 771.5,-161 777.27,-161.09 783.31,-161.21 789.3,-161.36"/>
<polygon fill="#9a32cd" stroke="#9a32cd" points="720.32,-157.58 710.38,-161.24 720.44,-164.58 720.32,-157.58"/>
<text text-anchor="middle" x="749" y="-163.5" font-family="Helvetica,sans-Serif" font-size="10.00"> solverref</text>
</g>
<!-- Node9 -->
<g id="node9" class="node">
<title>Node9</title>
<g id="a_node9"><a xlink:href="classLogging_1_1FMTsolverlogger.html" target="_top" xlink:title=" ">
<polygon fill="white" stroke="#666666" points="535,-173 408.75,-173 408.75,-153 535,-153 535,-173"/>
<text text-anchor="middle" x="471.88" y="-159.5" font-family="Helvetica,sans-Serif" font-size="10.00">Logging::FMTsolverlogger</text>
</a>
</g>
</g>
<!-- Node9&#45;&gt;Node8 -->
<g id="edge8" class="edge">
<title>Node9&#45;&gt;Node8</title>
<path fill="none" stroke="#9a32cd" stroke-dasharray="5,2" d="M546.48,-163C559.3,-163 572.52,-163 584.96,-163"/>
<polygon fill="#9a32cd" stroke="#9a32cd" points="546.85,-159.5 536.85,-163 546.85,-166.5 546.85,-159.5"/>
<text text-anchor="middle" x="560.12" y="-165.5" font-family="Helvetica,sans-Serif" font-size="10.00"> ptr</text>
</g>
<!-- Node10 -->
<g id="node10" class="node">
<title>Node10</title>
<g id="a_node10"><a xlink:title=" ">
<polygon fill="white" stroke="#666666" points="371.75,-173 263.5,-173 263.5,-153 371.75,-153 371.75,-173"/>
<text text-anchor="middle" x="317.62" y="-159.5" font-family="Helvetica,sans-Serif" font-size="10.00">CoinMessageHandler</text>
</a>
</g>
</g>
<!-- Node10&#45;&gt;Node9 -->
<g id="edge9" class="edge">
<title>Node10&#45;&gt;Node9</title>
<path fill="none" stroke="#63b8ff" d="M383.37,-163C391.61,-163 400.04,-163 408.25,-163"/>
<polygon fill="#63b8ff" stroke="#63b8ff" points="383.39,-159.5 373.39,-163 383.39,-166.5 383.39,-159.5"/>
</g>
<!-- Node11 -->
<g id="node11" class="node">
<title>Node11</title>
<g id="a_node11"><a xlink:title=" ">
<polygon fill="white" stroke="#666666" points="676.62,-232 617.12,-232 617.12,-212 676.62,-212 676.62,-232"/>
<text text-anchor="middle" x="646.88" y="-218.5" font-family="Helvetica,sans-Serif" font-size="10.00">std::string</text>
</a>
</g>
</g>
<!-- Node11&#45;&gt;Node1 -->
<g id="edge23" class="edge">
<title>Node11&#45;&gt;Node1</title>
<path fill="none" stroke="#9a32cd" stroke-dasharray="5,2" d="M688.36,-222C727.09,-222 787.16,-222 839.25,-222 839.25,-222 839.25,-222 1917.25,-222 1961.95,-222 2012.6,-229.25 2047.64,-235.43"/>
<polygon fill="#9a32cd" stroke="#9a32cd" points="688.57,-218.5 678.57,-222 688.57,-225.5 688.57,-218.5"/>
<text text-anchor="middle" x="1393.25" y="-224.5" font-family="Helvetica,sans-Serif" font-size="10.00"> name</text>
</g>
<!-- Node11&#45;&gt;Node7 -->
<g id="edge10" class="edge">
<title>Node11&#45;&gt;Node7</title>
<path fill="none" stroke="#9a32cd" stroke-dasharray="5,2" d="M687.84,-208.49C700.2,-204.39 713.89,-199.93 726.5,-196 751.72,-188.14 780.27,-179.79 802.34,-173.45"/>
<polygon fill="#9a32cd" stroke="#9a32cd" points="686.74,-205.17 678.36,-211.65 688.95,-211.81 686.74,-205.17"/>
<text text-anchor="middle" x="749" y="-198.5" font-family="Helvetica,sans-Serif" font-size="10.00"> filepath</text>
</g>
<!-- Node21 -->
<g id="node21" class="node">
<title>Node21</title>
<g id="a_node21"><a xlink:title=" ">
<polygon fill="white" stroke="#666666" points="1771,-276 1648.5,-276 1648.5,-256 1771,-256 1771,-276"/>
<text text-anchor="middle" x="1709.75" y="-262.5" font-family="Helvetica,sans-Serif" font-size="10.00">std::vector&lt; std::string &gt;</text>
</a>
</g>
</g>
<!-- Node11&#45;&gt;Node21 -->
<g id="edge22" class="edge">
<title>Node11&#45;&gt;Node21</title>
<path fill="none" stroke="#9a32cd" stroke-dasharray="5,2" d="M687.66,-235.65C726.01,-247.58 785.9,-263 839.25,-263 839.25,-263 839.25,-263 1496.38,-263 1547.63,-263 1605.84,-263.88 1648.34,-264.69"/>
<polygon fill="#9a32cd" stroke="#9a32cd" points="689,-232.4 678.41,-232.7 686.87,-239.07 689,-232.4"/>
<text text-anchor="middle" x="1132.38" y="-265.5" font-family="Helvetica,sans-Serif" font-size="10.00"> elements</text>
</g>
<!-- Node12 -->
<g id="node12" class="node">
<title>Node12</title>
<g id="a_node12"><a xlink:title=" ">
<polygon fill="white" stroke="#666666" points="518.88,-238 424.88,-238 424.88,-206 518.88,-206 518.88,-238"/>
<text text-anchor="start" x="432.88" y="-224.5" font-family="Helvetica,sans-Serif" font-size="10.00">std::basic_string&lt;</text>
<text text-anchor="middle" x="471.88" y="-212.5" font-family="Helvetica,sans-Serif" font-size="10.00"> Char &gt;</text>
</a>
</g>
</g>
<!-- Node12&#45;&gt;Node11 -->
<g id="edge11" class="edge">
<title>Node12&#45;&gt;Node11</title>
<path fill="none" stroke="#63b8ff" d="M530.47,-222C559.43,-222 593.26,-222 616.78,-222"/>
<polygon fill="#63b8ff" stroke="#63b8ff" points="530.75,-218.5 520.75,-222 530.75,-225.5 530.75,-218.5"/>
</g>
<!-- Node13 -->
<g id="node13" class="node">
<title>Node13</title>
<g id="a_node13"><a xlink:title=" ">
<polygon fill="white" stroke="#666666" points="683.38,-129 610.38,-129 610.38,-109 683.38,-109 683.38,-129"/>
<text text-anchor="middle" x="646.88" y="-115.5" font-family="Helvetica,sans-Serif" font-size="10.00">std::ofstream</text>
</a>
</g>
</g>
<!-- Node13&#45;&gt;Node7 -->
<g id="edge12" class="edge">
<title>Node13&#45;&gt;Node7</title>
<path fill="none" stroke="#9a32cd" stroke-dasharray="5,2" d="M694.94,-128.29C718.06,-133.01 746.31,-139.01 771.5,-145 781.21,-147.31 791.65,-149.99 801.36,-152.56"/>
<polygon fill="#9a32cd" stroke="#9a32cd" points="695.67,-124.87 685.17,-126.32 694.28,-131.73 695.67,-124.87"/>
<text text-anchor="middle" x="749" y="-147.5" font-family="Helvetica,sans-Serif" font-size="10.00"> filestream</text>
</g>
<!-- Node14 -->
<g id="node14" class="node">
<title>Node14</title>
<g id="a_node14"><a xlink:title=" ">
<polygon fill="white" stroke="#666666" points="522.62,-135 421.12,-135 421.12,-103 522.62,-103 522.62,-135"/>
<text text-anchor="start" x="429.12" y="-121.5" font-family="Helvetica,sans-Serif" font-size="10.00">std::basic_ofstream</text>
<text text-anchor="middle" x="471.88" y="-109.5" font-family="Helvetica,sans-Serif" font-size="10.00">&lt; Char &gt;</text>
</a>
</g>
</g>
<!-- Node14&#45;&gt;Node13 -->
<g id="edge13" class="edge">
<title>Node14&#45;&gt;Node13</title>
<path fill="none" stroke="#63b8ff" d="M534.3,-119C559.63,-119 588.11,-119 609.96,-119"/>
<polygon fill="#63b8ff" stroke="#63b8ff" points="534.43,-115.5 524.43,-119 534.43,-122.5 534.43,-115.5"/>
</g>
<!-- Node15 -->
<g id="node15" class="node">
<title>Node15</title>
<g id="a_node15"><a xlink:title=" ">
<polygon fill="white" stroke="#666666" points="367.25,-135 268,-135 268,-103 367.25,-103 367.25,-135"/>
<text text-anchor="start" x="276" y="-121.5" font-family="Helvetica,sans-Serif" font-size="10.00">std::basic_ostream</text>
<text text-anchor="middle" x="317.62" y="-109.5" font-family="Helvetica,sans-Serif" font-size="10.00">&lt; Char &gt;</text>
</a>
</g>
</g>
<!-- Node15&#45;&gt;Node14 -->
<g id="edge14" class="edge">
<title>Node15&#45;&gt;Node14</title>
<path fill="none" stroke="#63b8ff" d="M379.01,-119C392.81,-119 407.33,-119 420.65,-119"/>
<polygon fill="#63b8ff" stroke="#63b8ff" points="379.15,-115.5 369.15,-119 379.15,-122.5 379.15,-115.5"/>
</g>
<!-- Node16 -->
<g id="node16" class="node">
<title>Node16</title>
<g id="a_node16"><a xlink:title=" ">
<polygon fill="white" stroke="#666666" points="226.5,-129 111.5,-129 111.5,-109 226.5,-109 226.5,-129"/>
<text text-anchor="middle" x="169" y="-115.5" font-family="Helvetica,sans-Serif" font-size="10.00">std::basic_ios&lt; Char &gt;</text>
</a>
</g>
</g>
<!-- Node16&#45;&gt;Node15 -->
<g id="edge15" class="edge">
<title>Node16&#45;&gt;Node15</title>
<path fill="none" stroke="#63b8ff" d="M237.93,-119C247.98,-119 258.16,-119 267.72,-119"/>
<polygon fill="#63b8ff" stroke="#63b8ff" points="238.2,-115.5 228.2,-119 238.2,-122.5 238.2,-115.5"/>
</g>
<!-- Node17 -->
<g id="node17" class="node">
<title>Node17</title>
<g id="a_node17"><a xlink:title=" ">
<polygon fill="white" stroke="#666666" points="74.5,-129 0,-129 0,-109 74.5,-109 74.5,-129"/>
<text text-anchor="middle" x="37.25" y="-115.5" font-family="Helvetica,sans-Serif" font-size="10.00">std::ios_base</text>
</a>
</g>
</g>
<!-- Node17&#45;&gt;Node16 -->
<g id="edge16" class="edge">
<title>Node17&#45;&gt;Node16</title>
<path fill="none" stroke="#63b8ff" d="M86.07,-119C94.32,-119 102.96,-119 111.41,-119"/>
<polygon fill="#63b8ff" stroke="#63b8ff" points="86.25,-115.5 76.25,-119 86.25,-122.5 86.25,-115.5"/>
</g>
<!-- Node18 -->
<g id="node18" class="node">
<title>Node18</title>
<g id="a_node18"><a xlink:title=" ">
<polygon fill="white" stroke="#666666" points="1060,-32 946.5,-32 946.5,0 1060,0 1060,-32"/>
<text text-anchor="start" x="954.5" y="-18.5" font-family="Helvetica,sans-Serif" font-size="10.00">std::vector&lt; Exception</text>
<text text-anchor="middle" x="1003.25" y="-6.5" font-family="Helvetica,sans-Serif" font-size="10.00">::FMTexc &gt;</text>
</a>
</g>
</g>
<!-- Node18&#45;&gt;Node5 -->
<g id="edge17" class="edge">
<title>Node18&#45;&gt;Node5</title>
<path fill="none" stroke="#9a32cd" stroke-dasharray="5,2" d="M1071.46,-30.91C1105.08,-39.29 1146.05,-50.9 1181.5,-65 1210.49,-76.53 1242.1,-94.38 1260.9,-105.62"/>
<polygon fill="#9a32cd" stroke="#9a32cd" points="1072.37,-27.54 1061.83,-28.56 1070.71,-34.33 1072.37,-27.54"/>
<text text-anchor="middle" x="1132.38" y="-67.5" font-family="Helvetica,sans-Serif" font-size="10.00"> errorstowarnings</text>
</g>
<!-- Node19 -->
<g id="node19" class="node">
<title>Node19</title>
<g id="a_node19"><a xlink:title=" ">
<polygon fill="white" stroke="#666666" points="1060.75,-132 945.75,-132 945.75,-100 1060.75,-100 1060.75,-132"/>
<text text-anchor="start" x="953.75" y="-118.5" font-family="Helvetica,sans-Serif" font-size="10.00">std::set&lt; boost::thread</text>
<text text-anchor="middle" x="1003.25" y="-106.5" font-family="Helvetica,sans-Serif" font-size="10.00">::id &gt;</text>
</a>
</g>
</g>
<!-- Node19&#45;&gt;Node5 -->
<g id="edge18" class="edge">
<title>Node19&#45;&gt;Node5</title>
<path fill="none" stroke="#9a32cd" stroke-dasharray="5,2" d="M1072.02,-116C1110.53,-116 1158.94,-116 1199.12,-116"/>
<polygon fill="#9a32cd" stroke="#9a32cd" points="1072.43,-112.5 1062.43,-116 1072.43,-119.5 1072.43,-112.5"/>
<text text-anchor="middle" x="1132.38" y="-118.5" font-family="Helvetica,sans-Serif" font-size="10.00"> registered_threads</text>
</g>
<!-- Node20 -->
<g id="node20" class="node">
<title>Node20</title>
<g id="a_node20"><a xlink:title=" ">
<polygon fill="white" stroke="#666666" points="1054.38,-82 952.12,-82 952.12,-50 1054.38,-50 1054.38,-82"/>
<text text-anchor="start" x="960.12" y="-68.5" font-family="Helvetica,sans-Serif" font-size="10.00">std::unordered_map</text>
<text text-anchor="middle" x="1003.25" y="-56.5" font-family="Helvetica,sans-Serif" font-size="10.00">&lt; int, size_t &gt;</text>
</a>
</g>
</g>
<!-- Node20&#45;&gt;Node5 -->
<g id="edge19" class="edge">
<title>Node20&#45;&gt;Node5</title>
<path fill="none" stroke="#9a32cd" stroke-dasharray="5,2" d="M1065.83,-77.26C1112.17,-85.73 1175.21,-97.25 1220.47,-105.53"/>
<polygon fill="#9a32cd" stroke="#9a32cd" points="1066.69,-73.86 1056.22,-75.5 1065.43,-80.74 1066.69,-73.86"/>
<text text-anchor="middle" x="1132.38" y="-101.5" font-family="Helvetica,sans-Serif" font-size="10.00"> _specificwarningcount</text>
</g>
<!-- Node21&#45;&gt;Node1 -->
<g id="edge21" class="edge">
<title>Node21&#45;&gt;Node1</title>
<path fill="none" stroke="#9a32cd" stroke-dasharray="5,2" d="M1760.11,-279.07C1814.97,-291.63 1905.95,-306.58 1982.75,-291 2016.48,-284.15 2052.56,-266.05 2073.38,-254.42"/>
<polygon fill="#9a32cd" stroke="#9a32cd" points="1760.98,-275.68 1750.44,-276.79 1759.37,-282.5 1760.98,-275.68"/>
<text text-anchor="middle" x="1916.25" y="-311.5" font-family="Helvetica,sans-Serif" font-size="10.00"> aggregates</text>
<text text-anchor="middle" x="1916.25" y="-299.5" font-family="Helvetica,sans-Serif" font-size="10.00">partials</text>
</g>
<!-- Node22 -->
<g id="node22" class="node">
<title>Node22</title>
<g id="a_node22"><a xlink:title=" ">
<polygon fill="white" stroke="#666666" points="1973.75,-282 1858.75,-282 1858.75,-250 1973.75,-250 1973.75,-282"/>
<text text-anchor="start" x="1866.75" y="-268.5" font-family="Helvetica,sans-Serif" font-size="10.00">std::vector&lt; std::vector</text>
<text text-anchor="middle" x="1916.25" y="-256.5" font-family="Helvetica,sans-Serif" font-size="10.00">&lt; std::string &gt; &gt;</text>
</a>
</g>
</g>
<!-- Node21&#45;&gt;Node22 -->
<g id="edge25" class="edge">
<title>Node21&#45;&gt;Node22</title>
<path fill="none" stroke="#9a32cd" stroke-dasharray="5,2" d="M1782.49,-266C1807.36,-266 1834.88,-266 1858.38,-266"/>
<polygon fill="#9a32cd" stroke="#9a32cd" points="1782.79,-262.5 1772.79,-266 1782.79,-269.5 1782.79,-262.5"/>
<text text-anchor="middle" x="1810.38" y="-268.5" font-family="Helvetica,sans-Serif" font-size="10.00"> elements</text>
</g>
<!-- Node22&#45;&gt;Node1 -->
<g id="edge24" class="edge">
<title>Node22&#45;&gt;Node1</title>
<path fill="none" stroke="#9a32cd" stroke-dasharray="5,2" d="M1985.3,-257.38C2006.33,-254.72 2028.9,-251.86 2047.76,-249.47"/>
<polygon fill="#9a32cd" stroke="#9a32cd" points="1985.12,-253.88 1975.64,-258.61 1986,-260.82 1985.12,-253.88"/>
<text text-anchor="middle" x="2015.38" y="-257.5" font-family="Helvetica,sans-Serif" font-size="10.00"> series</text>
</g>
</g>
</svg>
        <g id="navigator" transform="translate(0 0)" fill="#404254">
                <rect fill="#f2f5e9" fill-opacity="0.5" stroke="#606060" stroke-width=".5" x="0" y="0" width="60" height="60"/>
                <use id="zoomplus" xlink:href="#zoomPlus" x="17" y="9" onmousedown="handleZoom(evt,'in')"/>
                <use id="zoomminus" xlink:href="#zoomMin" x="42" y="9" onmousedown="handleZoom(evt,'out')"/>
                <use id="reset" xlink:href="#resetDef" x="30" y="36" onmousedown="handleReset()"/>
                <g id="arrowUp" xlink:href="#dirArrow" transform="translate(30 24)" onmousedown="handlePan(0,-1)">
                  <use xlink:href="#rim" fill="#404040">
                        <set attributeName="fill" to="#808080" begin="arrowUp.mouseover" end="arrowUp.mouseout"/>
                  </use>
                  <path fill="none" stroke="white" stroke-width="1.5" d="M0,-3.0v7 M-2.5,-0.5L0,-3.0L2.5,-0.5"/>
                </g>
                <g id="arrowRight" xlink:href="#dirArrow" transform="rotate(90) translate(36 -43)" onmousedown="handlePan(1,0)">
                  <use xlink:href="#rim" fill="#404040">
                        <set attributeName="fill" to="#808080" begin="arrowRight.mouseover" end="arrowRight.mouseout"/>
                  </use>
                  <path fill="none" stroke="white" stroke-width="1.5" d="M0,-3.0v7 M-2.5,-0.5L0,-3.0L2.5,-0.5"/>
                </g>
                <g id="arrowDown" xlink:href="#dirArrow" transform="rotate(180) translate(-30 -48)" onmousedown="handlePan(0,1)">
                  <use xlink:href="#rim" fill="#404040">
                        <set attributeName="fill" to="#808080" begin="arrowDown.mouseover" end="arrowDown.mouseout"/>
                  </use>
                  <path fill="none" stroke="white" stroke-width="1.5" d="M0,-3.0v7 M-2.5,-0.5L0,-3.0L2.5,-0.5"/>
                </g>
                <g id="arrowLeft" xlink:href="#dirArrow" transform="rotate(270) translate(-36 17)" onmousedown="handlePan(-1,0)">
                  <use xlink:href="#rim" fill="#404040">
                        <set attributeName="fill" to="#808080" begin="arrowLeft.mouseover" end="arrowLeft.mouseout"/>
                  </use>
                  <path fill="none" stroke="white" stroke-width="1.5" d="M0,-3.0v7 M-2.5,-0.5L0,-3.0L2.5,-0.5"/>
                </g>
        </g>
        <svg viewBox="0 0 15 15" width="100%" height="30px" preserveAspectRatio="xMaxYMin meet">
         <g id="arrow_out" transform="scale(0.3 0.3)">
          <a xlink:href="classCore_1_1FMTaction__coll__graph_org.svg" target="_base">
           <rect id="button" ry="5" rx="5" y="6" x="6" height="38" width="38"
                fill="#f2f5e9" fill-opacity="0.5" stroke="#606060" stroke-width="1.0"/>
           <path id="arrow"
             d="M 11.500037,31.436501 C 11.940474,20.09759 22.043105,11.32322 32.158766,21.979434 L 37.068811,17.246167 C 37.068811,17.246167 37.088388,32 37.088388,32 L 22.160133,31.978069 C 22.160133,31.978069 26.997745,27.140456 26.997745,27.140456 C 18.528582,18.264221 13.291696,25.230495 11.500037,31.436501 z"
             style="fill:#404040;"/>
          </a>
         </g>
        </svg>
</svg>
