<?xml version="1.0" encoding="UTF-8" standalone="no"?>
<!DOCTYPE svg PUBLIC "-//W3C//DTD SVG 1.1//EN"
 "http://www.w3.org/Graphics/SVG/1.1/DTD/svg11.dtd">
<!-- Generated by graphviz version 8.1.0 (20230707.0739)
 -->
<!-- Title: Exception::FMTfreeexceptionhandler Pages: 1 -->
<svg width="1577pt" height="234pt"
 viewBox="0.00 0.00 1577.25 234.00" xmlns="http://www.w3.org/2000/svg" xmlns:xlink="http://www.w3.org/1999/xlink">
<g id="graph0" class="graph" transform="scale(1 1) rotate(0) translate(4 230)">
<title>Exception::FMTfreeexceptionhandler</title>
<!-- Node1 -->
<g id="Node000001" class="node">
<title>Node1</title>
<g id="a_Node000001"><a xlink:title=" ">
<polygon fill="#999999" stroke="#666666" points="1569.25,-101 1395,-101 1395,-81 1569.25,-81 1569.25,-101"/>
<text text-anchor="middle" x="1482.12" y="-87.5" font-family="Helvetica,sans-Serif" font-size="10.00">Exception::FMTfreeexceptionhandler</text>
</a>
</g>
</g>
<!-- Node2 -->
<g id="Node000002" class="node">
<title>Node2</title>
<g id="a_Node000002"><a xlink:href="classException_1_1FMTexceptionhandler.html" target="_top" xlink:title=" ">
<polygon fill="white" stroke="#666666" points="1358,-101 1199.5,-101 1199.5,-81 1358,-81 1358,-101"/>
<text text-anchor="middle" x="1278.75" y="-87.5" font-family="Helvetica,sans-Serif" font-size="10.00">Exception::FMTexceptionhandler</text>
</a>
</g>
</g>
<!-- Node2&#45;&gt;Node1 -->
<g id="edge1_Node000001_Node000002" class="edge">
<title>Node2&#45;&gt;Node1</title>
<g id="a_edge1_Node000001_Node000002"><a xlink:title=" ">
<path fill="none" stroke="#63b8ff" d="M1369.46,-91C1377.88,-91 1386.41,-91 1394.8,-91"/>
<polygon fill="#63b8ff" stroke="#63b8ff" points="1369.47,-87.5 1359.47,-91 1369.47,-94.5 1369.47,-87.5"/>
</a>
</g>
</g>
<!-- Node3 -->
<g id="Node000003" class="node">
<title>Node3</title>
<g id="a_Node000003"><a xlink:title=" ">
<polygon fill="white" stroke="#666666" points="1065.25,-182 941.25,-182 941.25,-150 1065.25,-150 1065.25,-182"/>
<text text-anchor="start" x="949.25" y="-168.5" font-family="Helvetica,sans-Serif" font-size="10.00">std::shared_ptr&lt; Logging</text>
<text text-anchor="middle" x="1003.25" y="-156.5" font-family="Helvetica,sans-Serif" font-size="10.00">::FMTlogger &gt;</text>
</a>
</g>
</g>
<!-- Node3&#45;&gt;Node2 -->
<g id="edge2_Node000002_Node000003" class="edge">
<title>Node3&#45;&gt;Node2</title>
<g id="a_edge2_Node000002_Node000003"><a xlink:title=" ">
<path fill="none" stroke="#9a32cd" stroke-dasharray="5,2" d="M1076.13,-151.29C1108.54,-144.17 1147.17,-135 1181.5,-125 1205.15,-118.11 1231.49,-108.68 1250.63,-101.5"/>
<polygon fill="#9a32cd" stroke="#9a32cd" points="1075.42,-148.08 1066.39,-153.63 1076.91,-154.92 1075.42,-148.08"/>
</a>
</g>
<text text-anchor="middle" x="1132.38" y="-152.5" font-family="Helvetica,sans-Serif" font-size="10.00" fill="grey"> _logger</text>
</g>
<!-- Node4 -->
<g id="Node000004" class="node">
<title>Node4</title>
<g id="a_Node000004"><a xlink:href="classLogging_1_1FMTlogger.html" target="_top" xlink:title=" ">
<polygon fill="white" stroke="#666666" points="891,-176 789.5,-176 789.5,-156 891,-156 891,-176"/>
<text text-anchor="middle" x="840.25" y="-162.5" font-family="Helvetica,sans-Serif" font-size="10.00">Logging::FMTlogger</text>
</a>
</g>
</g>
<!-- Node4&#45;&gt;Node3 -->
<g id="edge3_Node000003_Node000004" class="edge">
<title>Node4&#45;&gt;Node3</title>
<g id="a_edge3_Node000003_Node000004"><a xlink:title=" ">
<path fill="none" stroke="#9a32cd" stroke-dasharray="5,2" d="M902.22,-166C914.87,-166 928.21,-166 940.88,-166"/>
<polygon fill="#9a32cd" stroke="#9a32cd" points="902.31,-162.5 892.31,-166 902.31,-169.5 902.31,-162.5"/>
</a>
</g>
<text text-anchor="middle" x="916.12" y="-168.5" font-family="Helvetica,sans-Serif" font-size="10.00" fill="grey"> ptr</text>
</g>
<!-- Node5 -->
<g id="Node000005" class="node">
<title>Node5</title>
<g id="a_Node000005"><a xlink:title=" ">
<polygon fill="white" stroke="#666666" points="708.5,-226 585.25,-226 585.25,-194 708.5,-194 708.5,-226"/>
<text text-anchor="start" x="593.25" y="-212.5" font-family="Helvetica,sans-Serif" font-size="10.00">std::unique_ptr&lt; Logging</text>
<text text-anchor="middle" x="646.88" y="-200.5" font-family="Helvetica,sans-Serif" font-size="10.00">::FMTsolverlogger &gt;</text>
</a>
</g>
</g>
<!-- Node5&#45;&gt;Node4 -->
<g id="edge4_Node000004_Node000005" class="edge">
<title>Node5&#45;&gt;Node4</title>
<g id="a_edge4_Node000004_Node000005"><a xlink:title=" ">
<path fill="none" stroke="#9a32cd" stroke-dasharray="5,2" d="M719.37,-193.92C736.46,-190.05 754.63,-185.9 771.5,-182 779.15,-180.23 787.29,-178.33 795.17,-176.47"/>
<polygon fill="#9a32cd" stroke="#9a32cd" points="718.87,-190.67 709.89,-196.3 720.42,-197.5 718.87,-190.67"/>
</a>
</g>
<text text-anchor="middle" x="749" y="-194.5" font-family="Helvetica,sans-Serif" font-size="10.00" fill="grey"> solverref</text>
</g>
<!-- Node6 -->
<g id="Node000006" class="node">
<title>Node6</title>
<g id="a_Node000006"><a xlink:href="classLogging_1_1FMTsolverlogger.html" target="_top" xlink:title=" ">
<polygon fill="white" stroke="#666666" points="535,-220 408.75,-220 408.75,-200 535,-200 535,-220"/>
<text text-anchor="middle" x="471.88" y="-206.5" font-family="Helvetica,sans-Serif" font-size="10.00">Logging::FMTsolverlogger</text>
</a>
</g>
</g>
<!-- Node6&#45;&gt;Node5 -->
<g id="edge5_Node000005_Node000006" class="edge">
<title>Node6&#45;&gt;Node5</title>
<g id="a_edge5_Node000005_Node000006"><a xlink:title=" ">
<path fill="none" stroke="#9a32cd" stroke-dasharray="5,2" d="M546.09,-210C559.04,-210 572.39,-210 584.96,-210"/>
<polygon fill="#9a32cd" stroke="#9a32cd" points="546.33,-206.5 536.33,-210 546.33,-213.5 546.33,-206.5"/>
</a>
</g>
<text text-anchor="middle" x="560.12" y="-212.5" font-family="Helvetica,sans-Serif" font-size="10.00" fill="grey"> ptr</text>
</g>
<!-- Node7 -->
<g id="Node000007" class="node">
<title>Node7</title>
<g id="a_Node000007"><a xlink:title=" ">
<polygon fill="white" stroke="#666666" points="371.75,-220 263.5,-220 263.5,-200 371.75,-200 371.75,-220"/>
<text text-anchor="middle" x="317.62" y="-206.5" font-family="Helvetica,sans-Serif" font-size="10.00">CoinMessageHandler</text>
</a>
</g>
</g>
<!-- Node7&#45;&gt;Node6 -->
<g id="edge6_Node000006_Node000007" class="edge">
<title>Node7&#45;&gt;Node6</title>
<g id="a_edge6_Node000006_Node000007"><a xlink:title=" ">
<path fill="none" stroke="#63b8ff" d="M382.8,-210C391.23,-210 399.85,-210 408.25,-210"/>
<polygon fill="#63b8ff" stroke="#63b8ff" points="382.87,-206.5 372.87,-210 382.87,-213.5 382.87,-206.5"/>
</a>
</g>
</g>
<!-- Node8 -->
<g id="Node000008" class="node">
<title>Node8</title>
<g id="a_Node000008"><a xlink:title=" ">
<polygon fill="white" stroke="#666666" points="676.62,-176 617.12,-176 617.12,-156 676.62,-156 676.62,-176"/>
<text text-anchor="middle" x="646.88" y="-162.5" font-family="Helvetica,sans-Serif" font-size="10.00">std::string</text>
</a>
</g>
</g>
<!-- Node8&#45;&gt;Node4 -->
<g id="edge7_Node000004_Node000008" class="edge">
<title>Node8&#45;&gt;Node4</title>
<g id="a_edge7_Node000004_Node000008"><a xlink:title=" ">
<path fill="none" stroke="#9a32cd" stroke-dasharray="5,2" d="M687.65,-166C717.07,-166 757.37,-166 789.02,-166"/>
<polygon fill="#9a32cd" stroke="#9a32cd" points="687.94,-162.5 677.94,-166 687.94,-169.5 687.94,-162.5"/>
</a>
</g>
<text text-anchor="middle" x="749" y="-168.5" font-family="Helvetica,sans-Serif" font-size="10.00" fill="grey"> filepath</text>
</g>
<!-- Node9 -->
<g id="Node000009" class="node">
<title>Node9</title>
<g id="a_Node000009"><a xlink:title=" ">
<polygon fill="white" stroke="#666666" points="518.88,-182 424.88,-182 424.88,-150 518.88,-150 518.88,-182"/>
<text text-anchor="start" x="432.88" y="-168.5" font-family="Helvetica,sans-Serif" font-size="10.00">std::basic_string&lt;</text>
<text text-anchor="middle" x="471.88" y="-156.5" font-family="Helvetica,sans-Serif" font-size="10.00"> Char &gt;</text>
</a>
</g>
</g>
<!-- Node9&#45;&gt;Node8 -->
<g id="edge8_Node000008_Node000009" class="edge">
<title>Node9&#45;&gt;Node8</title>
<g id="a_edge8_Node000008_Node000009"><a xlink:title=" ">
<path fill="none" stroke="#63b8ff" d="M530.09,-166C559.13,-166 593.16,-166 616.78,-166"/>
<polygon fill="#63b8ff" stroke="#63b8ff" points="530.24,-162.5 520.24,-166 530.24,-169.5 530.24,-162.5"/>
</a>
</g>
</g>
<!-- Node10 -->
<g id="Node000010" class="node">
<title>Node10</title>
<g id="a_Node000010"><a xlink:title=" ">
<polygon fill="white" stroke="#666666" points="683.38,-135 610.38,-135 610.38,-115 683.38,-115 683.38,-135"/>
<text text-anchor="middle" x="646.88" y="-121.5" font-family="Helvetica,sans-Serif" font-size="10.00">std::ofstream</text>
</a>
</g>
</g>
<!-- Node10&#45;&gt;Node4 -->
<g id="edge9_Node000004_Node000010" class="edge">
<title>Node10&#45;&gt;Node4</title>
<g id="a_edge9_Node000004_Node000010"><a xlink:title=" ">
<path fill="none" stroke="#9a32cd" stroke-dasharray="5,2" d="M694.25,-134.01C717.48,-138.62 746.02,-144.42 771.5,-150 779.41,-151.73 787.82,-153.66 795.93,-155.55"/>
<polygon fill="#9a32cd" stroke="#9a32cd" points="695.13,-130.42 684.64,-131.92 693.78,-137.29 695.13,-130.42"/>
</a>
</g>
<text text-anchor="middle" x="749" y="-152.5" font-family="Helvetica,sans-Serif" font-size="10.00" fill="grey"> filestream</text>
</g>
<!-- Node11 -->
<g id="Node000011" class="node">
<title>Node11</title>
<g id="a_Node000011"><a xlink:title=" ">
<polygon fill="white" stroke="#666666" points="522.62,-132 421.12,-132 421.12,-100 522.62,-100 522.62,-132"/>
<text text-anchor="start" x="429.12" y="-118.5" font-family="Helvetica,sans-Serif" font-size="10.00">std::basic_ofstream</text>
<text text-anchor="middle" x="471.88" y="-106.5" font-family="Helvetica,sans-Serif" font-size="10.00">&lt; Char &gt;</text>
</a>
</g>
</g>
<!-- Node11&#45;&gt;Node10 -->
<g id="edge10_Node000010_Node000011" class="edge">
<title>Node11&#45;&gt;Node10</title>
<g id="a_edge10_Node000010_Node000011"><a xlink:title=" ">
<path fill="none" stroke="#63b8ff" d="M533.61,-119.16C559.12,-120.49 587.92,-121.98 609.96,-123.13"/>
<polygon fill="#63b8ff" stroke="#63b8ff" points="534.08,-115.63 523.91,-118.6 533.72,-122.62 534.08,-115.63"/>
</a>
</g>
</g>
<!-- Node12 -->
<g id="Node000012" class="node">
<title>Node12</title>
<g id="a_Node000012"><a xlink:title=" ">
<polygon fill="white" stroke="#666666" points="367.25,-132 268,-132 268,-100 367.25,-100 367.25,-132"/>
<text text-anchor="start" x="276" y="-118.5" font-family="Helvetica,sans-Serif" font-size="10.00">std::basic_ostream</text>
<text text-anchor="middle" x="317.62" y="-106.5" font-family="Helvetica,sans-Serif" font-size="10.00">&lt; Char &gt;</text>
</a>
</g>
</g>
<!-- Node12&#45;&gt;Node11 -->
<g id="edge11_Node000011_Node000012" class="edge">
<title>Node12&#45;&gt;Node11</title>
<g id="a_edge11_Node000011_Node000012"><a xlink:title=" ">
<path fill="none" stroke="#63b8ff" d="M378.6,-116C392.52,-116 407.2,-116 420.65,-116"/>
<polygon fill="#63b8ff" stroke="#63b8ff" points="378.64,-112.5 368.64,-116 378.64,-119.5 378.64,-112.5"/>
</a>
</g>
</g>
<!-- Node13 -->
<g id="Node000013" class="node">
<title>Node13</title>
<g id="a_Node000013"><a xlink:title=" ">
<polygon fill="white" stroke="#666666" points="226.5,-126 111.5,-126 111.5,-106 226.5,-106 226.5,-126"/>
<text text-anchor="middle" x="169" y="-112.5" font-family="Helvetica,sans-Serif" font-size="10.00">std::basic_ios&lt; Char &gt;</text>
</a>
</g>
</g>
<!-- Node13&#45;&gt;Node12 -->
<g id="edge12_Node000012_Node000013" class="edge">
<title>Node13&#45;&gt;Node12</title>
<g id="a_edge12_Node000012_Node000013"><a xlink:title=" ">
<path fill="none" stroke="#63b8ff" d="M237.61,-116C247.76,-116 258.06,-116 267.72,-116"/>
<polygon fill="#63b8ff" stroke="#63b8ff" points="237.69,-112.5 227.69,-116 237.69,-119.5 237.69,-112.5"/>
</a>
</g>
</g>
<!-- Node14 -->
<g id="Node000014" class="node">
<title>Node14</title>
<g id="a_Node000014"><a xlink:title=" ">
<polygon fill="white" stroke="#666666" points="74.5,-126 0,-126 0,-106 74.5,-106 74.5,-126"/>
<text text-anchor="middle" x="37.25" y="-112.5" font-family="Helvetica,sans-Serif" font-size="10.00">std::ios_base</text>
</a>
</g>
</g>
<!-- Node14&#45;&gt;Node13 -->
<g id="edge13_Node000013_Node000014" class="edge">
<title>Node14&#45;&gt;Node13</title>
<g id="a_edge13_Node000013_Node000014"><a xlink:title=" ">
<path fill="none" stroke="#63b8ff" d="M85.5,-116C93.92,-116 102.77,-116 111.41,-116"/>
<polygon fill="#63b8ff" stroke="#63b8ff" points="85.74,-112.5 75.74,-116 85.74,-119.5 85.74,-112.5"/>
</a>
</g>
</g>
<!-- Node15 -->
<g id="Node000015" class="node">
<title>Node15</title>
<g id="a_Node000015"><a xlink:title=" ">
<polygon fill="white" stroke="#666666" points="1060,-132 946.5,-132 946.5,-100 1060,-100 1060,-132"/>
<text text-anchor="start" x="954.5" y="-118.5" font-family="Helvetica,sans-Serif" font-size="10.00">std::vector&lt; Exception</text>
<text text-anchor="middle" x="1003.25" y="-106.5" font-family="Helvetica,sans-Serif" font-size="10.00">::FMTexc &gt;</text>
</a>
</g>
</g>
<!-- Node15&#45;&gt;Node2 -->
<g id="edge14_Node000002_Node000015" class="edge">
<title>Node15&#45;&gt;Node2</title>
<g id="a_edge14_Node000002_Node000015"><a xlink:title=" ">
<path fill="none" stroke="#9a32cd" stroke-dasharray="5,2" d="M1070.87,-109.91C1109.54,-106.38 1158.45,-101.9 1199.01,-98.2"/>
<polygon fill="#9a32cd" stroke="#9a32cd" points="1070.9,-106.48 1061.26,-110.88 1071.53,-113.46 1070.9,-106.48"/>
</a>
</g>
<text text-anchor="middle" x="1132.38" y="-111.5" font-family="Helvetica,sans-Serif" font-size="10.00" fill="grey"> errorstowarnings</text>
</g>
<!-- Node16 -->
<g id="Node000016" class="node">
<title>Node16</title>
<g id="a_Node000016"><a xlink:title=" ">
<polygon fill="white" stroke="#666666" points="1060.75,-82 945.75,-82 945.75,-50 1060.75,-50 1060.75,-82"/>
<text text-anchor="start" x="953.75" y="-68.5" font-family="Helvetica,sans-Serif" font-size="10.00">std::set&lt; boost::thread</text>
<text text-anchor="middle" x="1003.25" y="-56.5" font-family="Helvetica,sans-Serif" font-size="10.00">::id &gt;</text>
</a>
</g>
</g>
<!-- Node16&#45;&gt;Node2 -->
<g id="edge15_Node000002_Node000016" class="edge">
<title>Node16&#45;&gt;Node2</title>
<g id="a_edge15_Node000002_Node000016"><a xlink:title=" ">
<path fill="none" stroke="#9a32cd" stroke-dasharray="5,2" d="M1071.52,-72.15C1110.12,-75.68 1158.76,-80.12 1199.12,-83.81"/>
<polygon fill="#9a32cd" stroke="#9a32cd" points="1072.2,-68.6 1061.92,-71.18 1071.56,-75.58 1072.2,-68.6"/>
</a>
</g>
<text text-anchor="middle" x="1132.38" y="-85.5" font-family="Helvetica,sans-Serif" font-size="10.00" fill="grey"> registered_threads</text>
</g>
<!-- Node17 -->
<g id="Node000017" class="node">
<title>Node17</title>
<g id="a_Node000017"><a xlink:title=" ">
<polygon fill="white" stroke="#666666" points="1054.38,-32 952.12,-32 952.12,0 1054.38,0 1054.38,-32"/>
<text text-anchor="start" x="960.12" y="-18.5" font-family="Helvetica,sans-Serif" font-size="10.00">std::unordered_map</text>
<text text-anchor="middle" x="1003.25" y="-6.5" font-family="Helvetica,sans-Serif" font-size="10.00">&lt; int, size_t &gt;</text>
</a>
</g>
</g>
<!-- Node17&#45;&gt;Node2 -->
<g id="edge16_Node000002_Node000017" class="edge">
<title>Node17&#45;&gt;Node2</title>
<g id="a_edge16_Node000002_Node000017"><a xlink:title=" ">
<path fill="none" stroke="#9a32cd" stroke-dasharray="5,2" d="M1064.99,-28.85C1099.39,-36.51 1143.09,-46.89 1181.5,-58 1204.75,-64.72 1230.68,-73.7 1249.76,-80.6"/>
<polygon fill="#9a32cd" stroke="#9a32cd" points="1066.15,-25.3 1055.63,-26.56 1064.64,-32.14 1066.15,-25.3"/>
</a>
</g>
<text text-anchor="middle" x="1132.38" y="-60.5" font-family="Helvetica,sans-Serif" font-size="10.00" fill="grey"> _specificwarningcount</text>
</g>
</g>
</svg>
