<?xml version="1.0" encoding="UTF-8" standalone="no"?>
<!DOCTYPE svg PUBLIC "-//W3C//DTD SVG 1.1//EN"
 "http://www.w3.org/Graphics/SVG/1.1/DTD/svg11.dtd">
<!-- Generated by graphviz version 8.1.0 (20230707.0739)
 -->
<!-- Title: Parser::FMTparser Pages: 1 -->
<!--zoomable 408 -->

<svg id="main" version="1.1" xmlns="http://www.w3.org/2000/svg" xmlns:xlink="http://www.w3.org/1999/xlink" xml:space="preserve" onload="init(evt)">
<style type="text/css"><![CDATA[
.node, .edge {opacity: 0.7;}
.node.selected, .edge.selected {opacity: 1;}
.edge:hover path { stroke: red; }
.edge:hover polygon { stroke: red; fill: red; }
]]></style>

<defs>
  <circle id="rim" cx="0" cy="0" r="7"/>
  <circle id="rim2" cx="0" cy="0" r="3.5"/>
  <g id="zoomPlus">
    <use xlink:href="#rim" fill="#404040"><set attributeName="fill" to="#808080" begin="zoomplus.mouseover" end="zoomplus.mouseout"/></use>
    <path d="M-4,0h8M0,-4v8" fill="none" stroke="white" stroke-width="1.5" pointer-events="none"/>
  </g>
  <g id="zoomMin">
    <use xlink:href="#rim" fill="#404040"><set attributeName="fill" to="#808080" begin="zoomminus.mouseover" end="zoomminus.mouseout"/></use>
    <path d="M-4,0h8" fill="none" stroke="white" stroke-width="1.5" pointer-events="none"/>
  </g>
  <g id="arrowUp" transform="translate(30 24)">
    <use xlink:href="#rim"/>
    <path pointer-events="none" fill="none" stroke="white" stroke-width="1.5" d="M0,-3.0v7 M-2.5,-0.5L0,-3.0L2.5,-0.5"/>
  </g>
  <g id="arrowRight" transform="rotate(90) translate(36 -43)">
    <use xlink:href="#rim"/>
    <path pointer-events="none" fill="none" stroke="white" stroke-width="1.5" d="M0,-3.0v7 M-2.5,-0.5L0,-3.0L2.5,-0.5"/>
  </g>
  <g id="arrowDown" transform="rotate(180) translate(-30 -48)">
    <use xlink:href="#rim"/>
    <path pointer-events="none" fill="none" stroke="white" stroke-width="1.5" d="M0,-3.0v7 M-2.5,-0.5L0,-3.0L2.5,-0.5"/>
  </g>
  <g id="arrowLeft" transform="rotate(270) translate(-36 17)">
    <use xlink:href="#rim"/>
    <path pointer-events="none" fill="none" stroke="white" stroke-width="1.5" d="M0,-3.0v7 M-2.5,-0.5L0,-3.0L2.5,-0.5"/>
  </g>
  <g id="resetDef">
    <use xlink:href="#rim2" fill="#404040"><set attributeName="fill" to="#808080" begin="reset.mouseover" end="reset.mouseout"/></use>
  </g>
</defs>
<script type="application/ecmascript">
var viewWidth = 578;
var viewHeight = 408;
var sectionId = 'dynsection-0';
</script>
<script type="application/ecmascript" xlink:href="svg.min.js"/>
<svg id="graph" class="graph">
<g id="viewport">
<title>Parser::FMTparser</title>
<!-- Node1 -->
<g id="Node000001" class="node">
<title>Node1</title>
<g id="a_Node000001"><a xlink:title=" ">
<polygon fill="#999999" stroke="#666666" points="221,-210 124,-210 124,-190 221,-190 221,-210"/>
<text text-anchor="middle" x="172.5" y="-196.5" font-family="Helvetica,sans-Serif" font-size="10.00">Parser::FMTparser</text>
</a>
</g>
</g>
<!-- Node3 -->
<g id="Node000003" class="node">
<title>Node3</title>
<g id="a_Node000003"><a xlink:href="classParser_1_1FMTactionparser.html" target="_top" xlink:title=" ">
<polygon fill="white" stroke="#666666" points="393.38,-400 270.12,-400 270.12,-380 393.38,-380 393.38,-400"/>
<text text-anchor="middle" x="331.75" y="-386.5" font-family="Helvetica,sans-Serif" font-size="10.00">Parser::FMTactionparser</text>
</a>
</g>
</g>
<!-- Node1&#45;&gt;Node3 -->
<g id="edge2_Node000001_Node000003" class="edge">
<title>Node1&#45;&gt;Node3</title>
<g id="a_edge2_Node000001_Node000003"><a xlink:title=" ">
<path fill="none" stroke="#63b8ff" d="M177.66,-220.61C186.05,-256.75 208.49,-331.42 257,-371 261.2,-374.43 265.95,-377.24 270.96,-379.56"/>
<polygon fill="#63b8ff" stroke="#63b8ff" points="180.96,-220.35 175.41,-211.33 174.13,-221.85 180.96,-220.35"/>
</a>
</g>
</g>
<!-- Node4 -->
<g id="Node000004" class="node">
<title>Node4</title>
<g id="a_Node000004"><a xlink:href="classParser_1_1FMTareaparser.html" target="_top" xlink:title=" ">
<polygon fill="white" stroke="#666666" points="389.62,-362 273.88,-362 273.88,-342 389.62,-342 389.62,-362"/>
<text text-anchor="middle" x="331.75" y="-348.5" font-family="Helvetica,sans-Serif" font-size="10.00">Parser::FMTareaparser</text>
</a>
</g>
</g>
<!-- Node1&#45;&gt;Node4 -->
<g id="edge3_Node000001_Node000004" class="edge">
<title>Node1&#45;&gt;Node4</title>
<g id="a_edge3_Node000001_Node000004"><a xlink:title=" ">
<path fill="none" stroke="#63b8ff" d="M180.56,-220.11C191.95,-249.52 217.18,-303.9 257,-333 262.02,-336.67 267.68,-339.63 273.58,-342.02"/>
<polygon fill="#63b8ff" stroke="#63b8ff" points="183.64,-219.33 176.88,-211.17 177.07,-221.76 183.64,-219.33"/>
</a>
</g>
</g>
<!-- Node5 -->
<g id="Node000005" class="node">
<title>Node5</title>
<g id="a_Node000005"><a xlink:href="classParser_1_1FMTconstantparser.html" target="_top" xlink:title=" ">
<polygon fill="white" stroke="#666666" points="399,-324 264.5,-324 264.5,-304 399,-304 399,-324"/>
<text text-anchor="middle" x="331.75" y="-310.5" font-family="Helvetica,sans-Serif" font-size="10.00">Parser::FMTconstantparser</text>
</a>
</g>
</g>
<!-- Node1&#45;&gt;Node5 -->
<g id="edge4_Node000001_Node000005" class="edge">
<title>Node1&#45;&gt;Node5</title>
<g id="a_edge4_Node000001_Node000005"><a xlink:title=" ">
<path fill="none" stroke="#63b8ff" d="M185.53,-219.65C199.86,-241.38 225.83,-275.85 257,-295 262.63,-298.46 268.88,-301.29 275.28,-303.61"/>
<polygon fill="#63b8ff" stroke="#63b8ff" points="187.95,-217.94 179.62,-211.4 182.05,-221.71 187.95,-217.94"/>
</a>
</g>
</g>
<!-- Node6 -->
<g id="Node000006" class="node">
<title>Node6</title>
<g id="a_Node000006"><a xlink:href="classParser_1_1FMTlandscapeparser.html" target="_top" xlink:title=" ">
<polygon fill="white" stroke="#666666" points="402.38,-286 261.12,-286 261.12,-266 402.38,-266 402.38,-286"/>
<text text-anchor="middle" x="331.75" y="-272.5" font-family="Helvetica,sans-Serif" font-size="10.00">Parser::FMTlandscapeparser</text>
</a>
</g>
</g>
<!-- Node1&#45;&gt;Node6 -->
<g id="edge5_Node000001_Node000006" class="edge">
<title>Node1&#45;&gt;Node6</title>
<g id="a_edge5_Node000001_Node000006"><a xlink:title=" ">
<path fill="none" stroke="#63b8ff" d="M193.87,-216.9C210.07,-229.57 233.8,-246.48 257,-257 264.35,-260.33 272.38,-263.15 280.35,-265.52"/>
<polygon fill="#63b8ff" stroke="#63b8ff" points="196.68,-213.87 186.69,-210.36 192.31,-219.34 196.68,-213.87"/>
</a>
</g>
</g>
<!-- Node7 -->
<g id="Node000007" class="node">
<title>Node7</title>
<g id="a_Node000007"><a xlink:href="classParser_1_1FMTlifespanparser.html" target="_top" xlink:title=" ">
<polygon fill="white" stroke="#666666" points="396.75,-248 266.75,-248 266.75,-228 396.75,-228 396.75,-248"/>
<text text-anchor="middle" x="331.75" y="-234.5" font-family="Helvetica,sans-Serif" font-size="10.00">Parser::FMTlifespanparser</text>
</a>
</g>
</g>
<!-- Node1&#45;&gt;Node7 -->
<g id="edge6_Node000001_Node000007" class="edge">
<title>Node1&#45;&gt;Node7</title>
<g id="a_edge6_Node000001_Node000007"><a xlink:title=" ">
<path fill="none" stroke="#63b8ff" d="M227.5,-213.05C247.1,-217.78 268.96,-223.07 287.51,-227.55"/>
<polygon fill="#63b8ff" stroke="#63b8ff" points="228.43,-209.43 217.89,-210.48 226.78,-216.24 228.43,-209.43"/>
</a>
</g>
</g>
<!-- Node8 -->
<g id="Node000008" class="node">
<title>Node8</title>
<g id="a_Node000008"><a xlink:href="classParser_1_1FMTmodelparser.html" target="_top" xlink:title=" ">
<polygon fill="white" stroke="#666666" points="393.38,-210 270.12,-210 270.12,-190 393.38,-190 393.38,-210"/>
<text text-anchor="middle" x="331.75" y="-196.5" font-family="Helvetica,sans-Serif" font-size="10.00">Parser::FMTmodelparser</text>
</a>
</g>
</g>
<!-- Node1&#45;&gt;Node8 -->
<g id="edge7_Node000001_Node000008" class="edge">
<title>Node1&#45;&gt;Node8</title>
<g id="a_edge7_Node000001_Node000008"><a xlink:title=" ">
<path fill="none" stroke="#63b8ff" d="M231.74,-200C244.1,-200 257.17,-200 269.63,-200"/>
<polygon fill="#63b8ff" stroke="#63b8ff" points="232.11,-196.5 222.11,-200 232.11,-203.5 232.11,-196.5"/>
</a>
</g>
</g>
<!-- Node10 -->
<g id="Node000010" class="node">
<title>Node10</title>
<g id="a_Node000010"><a xlink:href="classParser_1_1FMToptimizationparser.html" target="_top" xlink:title=" ">
<polygon fill="white" stroke="#666666" points="406.5,-172 257,-172 257,-152 406.5,-152 406.5,-172"/>
<text text-anchor="middle" x="331.75" y="-158.5" font-family="Helvetica,sans-Serif" font-size="10.00">Parser::FMToptimizationparser</text>
</a>
</g>
</g>
<!-- Node1&#45;&gt;Node10 -->
<g id="edge9_Node000001_Node000010" class="edge">
<title>Node1&#45;&gt;Node10</title>
<g id="a_edge9_Node000001_Node000010"><a xlink:title=" ">
<path fill="none" stroke="#63b8ff" d="M227.5,-186.95C247.1,-182.22 268.96,-176.93 287.51,-172.45"/>
<polygon fill="#63b8ff" stroke="#63b8ff" points="226.78,-183.76 217.89,-189.52 228.43,-190.57 226.78,-183.76"/>
</a>
</g>
</g>
<!-- Node11 -->
<g id="Node000011" class="node">
<title>Node11</title>
<g id="a_Node000011"><a xlink:href="classParser_1_1FMToutputparser.html" target="_top" xlink:title=" ">
<polygon fill="white" stroke="#666666" points="393.75,-134 269.75,-134 269.75,-114 393.75,-114 393.75,-134"/>
<text text-anchor="middle" x="331.75" y="-120.5" font-family="Helvetica,sans-Serif" font-size="10.00">Parser::FMToutputparser</text>
</a>
</g>
</g>
<!-- Node1&#45;&gt;Node11 -->
<g id="edge10_Node000001_Node000011" class="edge">
<title>Node1&#45;&gt;Node11</title>
<g id="a_edge10_Node000001_Node000011"><a xlink:title=" ">
<path fill="none" stroke="#63b8ff" d="M193.87,-183.1C210.07,-170.43 233.8,-153.52 257,-143 264.35,-139.67 272.38,-136.85 280.35,-134.48"/>
<polygon fill="#63b8ff" stroke="#63b8ff" points="192.31,-180.66 186.69,-189.64 196.68,-186.13 192.31,-180.66"/>
</a>
</g>
</g>
<!-- Node12 -->
<g id="Node000012" class="node">
<title>Node12</title>
<g id="a_Node000012"><a xlink:href="classParser_1_1FMTscheduleparser.html" target="_top" xlink:title=" ">
<polygon fill="white" stroke="#666666" points="399.75,-96 263.75,-96 263.75,-76 399.75,-76 399.75,-96"/>
<text text-anchor="middle" x="331.75" y="-82.5" font-family="Helvetica,sans-Serif" font-size="10.00">Parser::FMTscheduleparser</text>
</a>
</g>
</g>
<!-- Node1&#45;&gt;Node12 -->
<g id="edge11_Node000001_Node000012" class="edge">
<title>Node1&#45;&gt;Node12</title>
<g id="a_edge11_Node000001_Node000012"><a xlink:title=" ">
<path fill="none" stroke="#63b8ff" d="M185.53,-180.35C199.86,-158.62 225.83,-124.15 257,-105 262.63,-101.54 268.88,-98.71 275.28,-96.39"/>
<polygon fill="#63b8ff" stroke="#63b8ff" points="182.05,-178.29 179.62,-188.6 187.95,-182.06 182.05,-178.29"/>
</a>
</g>
</g>
<!-- Node13 -->
<g id="Node000013" class="node">
<title>Node13</title>
<g id="a_Node000013"><a xlink:href="classParser_1_1FMTtransitionparser.html" target="_top" xlink:title=" ">
<polygon fill="white" stroke="#666666" points="400.12,-58 263.38,-58 263.38,-38 400.12,-38 400.12,-58"/>
<text text-anchor="middle" x="331.75" y="-44.5" font-family="Helvetica,sans-Serif" font-size="10.00">Parser::FMTtransitionparser</text>
</a>
</g>
</g>
<!-- Node1&#45;&gt;Node13 -->
<g id="edge12_Node000001_Node000013" class="edge">
<title>Node1&#45;&gt;Node13</title>
<g id="a_edge12_Node000001_Node000013"><a xlink:title=" ">
<path fill="none" stroke="#63b8ff" d="M180.56,-179.89C191.95,-150.48 217.18,-96.1 257,-67 261.7,-63.57 266.96,-60.75 272.45,-58.45"/>
<polygon fill="#63b8ff" stroke="#63b8ff" points="177.07,-178.24 176.88,-188.83 183.64,-180.67 177.07,-178.24"/>
</a>
</g>
</g>
<!-- Node14 -->
<g id="Node000014" class="node">
<title>Node14</title>
<g id="a_Node000014"><a xlink:href="classParser_1_1FMTyieldparser.html" target="_top" xlink:title=" ">
<polygon fill="white" stroke="#666666" points="390.38,-20 273.12,-20 273.12,0 390.38,0 390.38,-20"/>
<text text-anchor="middle" x="331.75" y="-6.5" font-family="Helvetica,sans-Serif" font-size="10.00">Parser::FMTyieldparser</text>
</a>
</g>
</g>
<!-- Node1&#45;&gt;Node14 -->
<g id="edge13_Node000001_Node000014" class="edge">
<title>Node1&#45;&gt;Node14</title>
<g id="a_edge13_Node000001_Node000014"><a xlink:title=" ">
<path fill="none" stroke="#63b8ff" d="M177.66,-179.39C186.05,-143.25 208.49,-68.58 257,-29 261.71,-25.16 267.11,-22.08 272.8,-19.62"/>
<polygon fill="#63b8ff" stroke="#63b8ff" points="174.13,-178.15 175.41,-188.67 180.96,-179.65 174.13,-178.15"/>
</a>
</g>
</g>
<!-- Node2 -->
<g id="Node000002" class="node">
<title>Node2</title>
<g id="a_Node000002"><a xlink:href="classCore_1_1FMTobject.html" target="_top" xlink:title=" ">
<polygon fill="white" stroke="#666666" points="88,-210 0,-210 0,-190 88,-190 88,-210"/>
<text text-anchor="middle" x="44" y="-196.5" font-family="Helvetica,sans-Serif" font-size="10.00">Core::FMTobject</text>
</a>
</g>
</g>
<!-- Node2&#45;&gt;Node1 -->
<g id="edge1_Node000001_Node000002" class="edge">
<title>Node2&#45;&gt;Node1</title>
<g id="a_edge1_Node000001_Node000002"><a xlink:title=" ">
<path fill="none" stroke="#63b8ff" d="M99.15,-200C107.33,-200 115.71,-200 123.74,-200"/>
<polygon fill="#63b8ff" stroke="#63b8ff" points="99.18,-196.5 89.18,-200 99.18,-203.5 99.18,-196.5"/>
</a>
</g>
</g>
<!-- Node9 -->
<g id="Node000009" class="node">
<title>Node9</title>
<g id="a_Node000009"><a xlink:href="classParallel_1_1FMTparallelwriter.html" target="_top" xlink:title=" ">
<polygon fill="white" stroke="#666666" points="570.25,-210 442.5,-210 442.5,-190 570.25,-190 570.25,-210"/>
<text text-anchor="middle" x="506.38" y="-196.5" font-family="Helvetica,sans-Serif" font-size="10.00">Parallel::FMTparallelwriter</text>
</a>
</g>
</g>
<!-- Node8&#45;&gt;Node9 -->
<g id="edge8_Node000008_Node000009" class="edge">
<title>Node8&#45;&gt;Node9</title>
<g id="a_edge8_Node000008_Node000009"><a xlink:title=" ">
<path fill="none" stroke="#63b8ff" d="M404.46,-200C416.97,-200 429.89,-200 442.14,-200"/>
<polygon fill="#63b8ff" stroke="#63b8ff" points="404.61,-196.5 394.61,-200 404.61,-203.5 404.61,-196.5"/>
</a>
</g>
</g>
</g>
</svg>

<g id="navigator" transform="translate(0 0)" fill="#404254">
  <rect fill="#f2f5e9" fill-opacity="0.5" stroke="#606060" stroke-width=".5" x="0" y="0" width="60" height="60"/>
  <use id="zoomplus" xlink:href="#zoomPlus" x="17" y="9" onmousedown="handleZoom(evt,'in')"/>
  <use id="zoomminus" xlink:href="#zoomMin" x="42" y="9" onmousedown="handleZoom(evt,'out')"/>
  <use id="reset" xlink:href="#resetDef" x="30" y="36" onmousedown="handleReset()"/>
   <use id="arrowup" xlink:href="#arrowUp" x="0" y="0" onmousedown="handlePan(0,-1)"/>
  <use id="arrowright" xlink:href="#arrowRight" x="0" y="0" onmousedown="handlePan(1,0)"/>
  <use id="arrowdown" xlink:href="#arrowDown" x="0" y="0" onmousedown="handlePan(0,1)"/>
  <use id="arrowleft" xlink:href="#arrowLeft" x="0" y="0" onmousedown="handlePan(-1,0)"/>
</g>
<svg viewBox="0 0 15 15" width="100%" height="30px" preserveAspectRatio="xMaxYMin meet">
 <g id="arrow_out" transform="scale(0.3 0.3)">
  <a xlink:href="classParser_1_1FMTparser__inherit__graph_org.svg" target="_base">
   <rect id="button" ry="5" rx="5" y="6" x="6" height="38" width="38"
        fill="#f2f5e9" fill-opacity="0.5" stroke="#606060" stroke-width="1.0"/>
   <path id="arrow"
     d="M 11.500037,31.436501 C 11.940474,20.09759 22.043105,11.32322 32.158766,21.979434 L 37.068811,17.246167 C 37.068811,17.246167 37.088388,32 37.088388,32 L 22.160133,31.978069 C 22.160133,31.978069 26.997745,27.140456 26.997745,27.140456 C 18.528582,18.264221 13.291696,25.230495 11.500037,31.436501 z"
     style="fill:#404040;"/>
  </a>
 </g>
</svg>

<style type='text/css'>
<![CDATA[
[data-mouse-over-selected='false'] { opacity: 0.7; }
[data-mouse-over-selected='true']  { opacity: 1.0; }
]]>
</style>
<script type="application/ecmascript"><![CDATA[
document.addEventListener('DOMContentLoaded', (event) => {
  highlightEdges();
  highlightAdjacentNodes();
});
]]></script>
</svg>
