<?xml version="1.0" encoding="UTF-8" standalone="no"?>
<!DOCTYPE svg PUBLIC "-//W3C//DTD SVG 1.1//EN"
 "http://www.w3.org/Graphics/SVG/1.1/DTD/svg11.dtd">
<!-- Generated by graphviz version 10.0.1 (20240210.2158)
 -->
<!-- Title: Graph::FMTvertexproperties Pages: 1 -->
<svg width="646pt" height="929pt"
 viewBox="0.00 0.00 646.25 929.00" xmlns="http://www.w3.org/2000/svg" xmlns:xlink="http://www.w3.org/1999/xlink">
<g id="graph0" class="graph" transform="scale(1 1) rotate(0) translate(4 925)">
<title>Graph::FMTvertexproperties</title>
<!-- Node1 -->
<g id="node1" class="node">
<title>Node1</title>
<g id="a_node1"><a xlink:title=" ">
<polygon fill="#999999" stroke="#666666" points="290.12,-20 154.12,-20 154.12,0 290.12,0 290.12,-20"/>
<text text-anchor="middle" x="222.12" y="-6.5" font-family="Helvetica,sans-Serif" font-size="10.00">Graph::FMTvertexproperties</text>
</a>
</g>
</g>
<!-- Node2 -->
<g id="node2" class="node">
<title>Node2</title>
<g id="a_node2"><a xlink:href="classGraph_1_1FMTbasevertexproperties.html" target="_top" xlink:title=" ">
<polygon fill="white" stroke="#666666" points="300.62,-77 143.62,-77 143.62,-57 300.62,-57 300.62,-77"/>
<text text-anchor="middle" x="222.12" y="-63.5" font-family="Helvetica,sans-Serif" font-size="10.00">Graph::FMTbasevertexproperties</text>
</a>
</g>
</g>
<!-- Node2&#45;&gt;Node1 -->
<g id="edge1" class="edge">
<title>Node2&#45;&gt;Node1</title>
<path fill="none" stroke="#63b8ff" d="M222.12,-45.69C222.12,-36.97 222.12,-27.22 222.12,-20.28"/>
<polygon fill="#63b8ff" stroke="#63b8ff" points="218.63,-45.4 222.13,-55.4 225.63,-45.4 218.63,-45.4"/>
</g>
<!-- Node3 -->
<g id="node3" class="node">
<title>Node3</title>
<g id="a_node3"><a xlink:title=" ">
<polygon fill="white" stroke="#666666" points="277,-157 167.25,-157 167.25,-125 277,-125 277,-157"/>
<text text-anchor="start" x="175.25" y="-143.5" font-family="Helvetica,sans-Serif" font-size="10.00">std::unique_ptr&lt; Core</text>
<text text-anchor="middle" x="222.12" y="-131.5" font-family="Helvetica,sans-Serif" font-size="10.00">::FMTdevelopment &gt;</text>
</a>
</g>
</g>
<!-- Node3&#45;&gt;Node2 -->
<g id="edge2" class="edge">
<title>Node3&#45;&gt;Node2</title>
<path fill="none" stroke="#9a32cd" stroke-dasharray="5,2" d="M222.12,-113.34C222.12,-100.7 222.12,-86.41 222.12,-77.31"/>
<polygon fill="#9a32cd" stroke="#9a32cd" points="218.63,-113.22 222.13,-123.22 225.63,-113.22 218.63,-113.22"/>
<text text-anchor="middle" x="250.62" y="-97.5" font-family="Helvetica,sans-Serif" font-size="10.00"> development</text>
</g>
<!-- Node4 -->
<g id="node4" class="node">
<title>Node4</title>
<g id="a_node4"><a xlink:href="classCore_1_1FMTdevelopment.html" target="_top" xlink:title=" ">
<polygon fill="white" stroke="#666666" points="280,-225 164.25,-225 164.25,-205 280,-205 280,-225"/>
<text text-anchor="middle" x="222.12" y="-211.5" font-family="Helvetica,sans-Serif" font-size="10.00">Core::FMTdevelopment</text>
</a>
</g>
</g>
<!-- Node4&#45;&gt;Node3 -->
<g id="edge3" class="edge">
<title>Node4&#45;&gt;Node3</title>
<path fill="none" stroke="#9a32cd" stroke-dasharray="5,2" d="M222.12,-193.1C222.12,-181.71 222.12,-167.87 222.12,-157.47"/>
<polygon fill="#9a32cd" stroke="#9a32cd" points="218.63,-193.07 222.13,-203.07 225.63,-193.07 218.63,-193.07"/>
<text text-anchor="middle" x="229.25" y="-177.5" font-family="Helvetica,sans-Serif" font-size="10.00"> ptr</text>
</g>
<!-- Node5 -->
<g id="node5" class="node">
<title>Node5</title>
<g id="a_node5"><a xlink:href="classCore_1_1FMTobject.html" target="_top" xlink:title=" ">
<polygon fill="white" stroke="#666666" points="266.12,-282 178.12,-282 178.12,-262 266.12,-262 266.12,-282"/>
<text text-anchor="middle" x="222.12" y="-268.5" font-family="Helvetica,sans-Serif" font-size="10.00">Core::FMTobject</text>
</a>
</g>
</g>
<!-- Node5&#45;&gt;Node4 -->
<g id="edge4" class="edge">
<title>Node5&#45;&gt;Node4</title>
<path fill="none" stroke="#63b8ff" d="M222.12,-250.69C222.12,-241.97 222.12,-232.22 222.12,-225.28"/>
<polygon fill="#63b8ff" stroke="#63b8ff" points="218.63,-250.4 222.13,-260.4 225.63,-250.4 218.63,-250.4"/>
</g>
<!-- Node6 -->
<g id="node6" class="node">
<title>Node6</title>
<g id="a_node6"><a xlink:title=" ">
<polygon fill="white" stroke="#666666" points="374,-362 240.25,-362 240.25,-330 374,-330 374,-362"/>
<text text-anchor="start" x="248.25" y="-348.5" font-family="Helvetica,sans-Serif" font-size="10.00">std::shared_ptr&lt; Exception</text>
<text text-anchor="middle" x="307.12" y="-336.5" font-family="Helvetica,sans-Serif" font-size="10.00">::FMTexceptionhandler &gt;</text>
</a>
</g>
</g>
<!-- Node6&#45;&gt;Node5 -->
<g id="edge5" class="edge">
<title>Node6&#45;&gt;Node5</title>
<path fill="none" stroke="#9a32cd" stroke-dasharray="5,2" d="M280.64,-322.57C264.64,-309.01 245.08,-292.44 233.12,-282.31"/>
<polygon fill="#9a32cd" stroke="#9a32cd" points="278.05,-324.96 287.94,-328.75 282.58,-319.62 278.05,-324.96"/>
<text text-anchor="middle" x="293.25" y="-302.5" font-family="Helvetica,sans-Serif" font-size="10.00"> _exhandler</text>
</g>
<!-- Node7 -->
<g id="node7" class="node">
<title>Node7</title>
<g id="a_node7"><a xlink:href="classException_1_1FMTexceptionhandler.html" target="_top" xlink:title=" ">
<polygon fill="white" stroke="#666666" points="407.38,-430 248.88,-430 248.88,-410 407.38,-410 407.38,-430"/>
<text text-anchor="middle" x="328.12" y="-416.5" font-family="Helvetica,sans-Serif" font-size="10.00">Exception::FMTexceptionhandler</text>
</a>
</g>
</g>
<!-- Node7&#45;&gt;Node6 -->
<g id="edge6" class="edge">
<title>Node7&#45;&gt;Node6</title>
<path fill="none" stroke="#9a32cd" stroke-dasharray="5,2" d="M322.24,-398.83C318.88,-387.31 314.74,-373.1 311.64,-362.47"/>
<polygon fill="#9a32cd" stroke="#9a32cd" points="318.8,-399.51 324.96,-408.13 325.52,-397.55 318.8,-399.51"/>
<text text-anchor="middle" x="327.25" y="-382.5" font-family="Helvetica,sans-Serif" font-size="10.00"> ptr</text>
</g>
<!-- Node8 -->
<g id="node8" class="node">
<title>Node8</title>
<g id="a_node8"><a xlink:title=" ">
<polygon fill="white" stroke="#666666" points="253.12,-510 129.12,-510 129.12,-478 253.12,-478 253.12,-510"/>
<text text-anchor="start" x="137.12" y="-496.5" font-family="Helvetica,sans-Serif" font-size="10.00">std::shared_ptr&lt; Logging</text>
<text text-anchor="middle" x="191.12" y="-484.5" font-family="Helvetica,sans-Serif" font-size="10.00">::FMTlogger &gt;</text>
</a>
</g>
</g>
<!-- Node8&#45;&gt;Node5 -->
<g id="edge22" class="edge">
<title>Node8&#45;&gt;Node5</title>
<path fill="none" stroke="#9a32cd" stroke-dasharray="5,2" d="M194.9,-466.23C201.85,-416.91 216.36,-313.88 220.81,-282.36"/>
<polygon fill="#9a32cd" stroke="#9a32cd" points="191.45,-465.64 193.52,-476.03 198.38,-466.62 191.45,-465.64"/>
<text text-anchor="middle" x="224.38" y="-382.5" font-family="Helvetica,sans-Serif" font-size="10.00"> _logger</text>
</g>
<!-- Node8&#45;&gt;Node7 -->
<g id="edge7" class="edge">
<title>Node8&#45;&gt;Node7</title>
<path fill="none" stroke="#9a32cd" stroke-dasharray="5,2" d="M230.54,-472.28C256.76,-458.5 289.97,-441.05 310.1,-430.47"/>
<polygon fill="#9a32cd" stroke="#9a32cd" points="229.08,-469.1 221.85,-476.85 232.33,-475.3 229.08,-469.1"/>
<text text-anchor="middle" x="293.38" y="-450.5" font-family="Helvetica,sans-Serif" font-size="10.00"> _logger</text>
</g>
<!-- Node9 -->
<g id="node9" class="node">
<title>Node9</title>
<g id="a_node9"><a xlink:href="classLogging_1_1FMTlogger.html" target="_top" xlink:title=" ">
<polygon fill="white" stroke="#666666" points="241.88,-578 140.38,-578 140.38,-558 241.88,-558 241.88,-578"/>
<text text-anchor="middle" x="191.12" y="-564.5" font-family="Helvetica,sans-Serif" font-size="10.00">Logging::FMTlogger</text>
</a>
</g>
</g>
<!-- Node9&#45;&gt;Node8 -->
<g id="edge8" class="edge">
<title>Node9&#45;&gt;Node8</title>
<path fill="none" stroke="#9a32cd" stroke-dasharray="5,2" d="M191.12,-546.1C191.12,-534.71 191.12,-520.87 191.12,-510.47"/>
<polygon fill="#9a32cd" stroke="#9a32cd" points="187.63,-546.07 191.13,-556.07 194.63,-546.07 187.63,-546.07"/>
<text text-anchor="middle" x="198.25" y="-530.5" font-family="Helvetica,sans-Serif" font-size="10.00"> ptr</text>
</g>
<!-- Node10 -->
<g id="node10" class="node">
<title>Node10</title>
<g id="a_node10"><a xlink:title=" ">
<polygon fill="white" stroke="#666666" points="138.75,-658 15.5,-658 15.5,-626 138.75,-626 138.75,-658"/>
<text text-anchor="start" x="23.5" y="-644.5" font-family="Helvetica,sans-Serif" font-size="10.00">std::unique_ptr&lt; Logging</text>
<text text-anchor="middle" x="77.12" y="-632.5" font-family="Helvetica,sans-Serif" font-size="10.00">::FMTsolverlogger &gt;</text>
</a>
</g>
</g>
<!-- Node10&#45;&gt;Node9 -->
<g id="edge9" class="edge">
<title>Node10&#45;&gt;Node9</title>
<path fill="none" stroke="#9a32cd" stroke-dasharray="5,2" d="M111.09,-619.55C132.72,-605.89 159.67,-588.86 176.13,-578.47"/>
<polygon fill="#9a32cd" stroke="#9a32cd" points="109.45,-616.45 102.86,-624.75 113.18,-622.37 109.45,-616.45"/>
<text text-anchor="middle" x="167.25" y="-598.5" font-family="Helvetica,sans-Serif" font-size="10.00"> solverref</text>
</g>
<!-- Node11 -->
<g id="node11" class="node">
<title>Node11</title>
<g id="a_node11"><a xlink:href="classLogging_1_1FMTsolverlogger.html" target="_top" xlink:title=" ">
<polygon fill="white" stroke="#666666" points="126.25,-732 0,-732 0,-712 126.25,-712 126.25,-732"/>
<text text-anchor="middle" x="63.12" y="-718.5" font-family="Helvetica,sans-Serif" font-size="10.00">Logging::FMTsolverlogger</text>
</a>
</g>
</g>
<!-- Node11&#45;&gt;Node10 -->
<g id="edge10" class="edge">
<title>Node11&#45;&gt;Node10</title>
<path fill="none" stroke="#9a32cd" stroke-dasharray="5,2" d="M66.8,-700.51C69.17,-687.32 72.2,-670.47 74.36,-658.42"/>
<polygon fill="#9a32cd" stroke="#9a32cd" points="63.38,-699.8 65.05,-710.26 70.27,-701.03 63.38,-699.8"/>
<text text-anchor="middle" x="78.25" y="-678.5" font-family="Helvetica,sans-Serif" font-size="10.00"> ptr</text>
</g>
<!-- Node12 -->
<g id="node12" class="node">
<title>Node12</title>
<g id="a_node12"><a xlink:title=" ">
<polygon fill="white" stroke="#666666" points="117.25,-801 9,-801 9,-781 117.25,-781 117.25,-801"/>
<text text-anchor="middle" x="63.12" y="-787.5" font-family="Helvetica,sans-Serif" font-size="10.00">CoinMessageHandler</text>
</a>
</g>
</g>
<!-- Node12&#45;&gt;Node11 -->
<g id="edge11" class="edge">
<title>Node12&#45;&gt;Node11</title>
<path fill="none" stroke="#63b8ff" d="M63.12,-769.51C63.12,-757.07 63.12,-741.81 63.12,-732.24"/>
<polygon fill="#63b8ff" stroke="#63b8ff" points="59.63,-769.17 63.13,-779.17 66.63,-769.17 59.63,-769.17"/>
</g>
<!-- Node13 -->
<g id="node13" class="node">
<title>Node13</title>
<g id="a_node13"><a xlink:title=" ">
<polygon fill="white" stroke="#666666" points="220.88,-652 161.38,-652 161.38,-632 220.88,-632 220.88,-652"/>
<text text-anchor="middle" x="191.12" y="-638.5" font-family="Helvetica,sans-Serif" font-size="10.00">std::string</text>
</a>
</g>
</g>
<!-- Node13&#45;&gt;Node9 -->
<g id="edge12" class="edge">
<title>Node13&#45;&gt;Node9</title>
<path fill="none" stroke="#9a32cd" stroke-dasharray="5,2" d="M191.12,-620.18C191.12,-606.29 191.12,-588.71 191.12,-578.19"/>
<polygon fill="#9a32cd" stroke="#9a32cd" points="187.63,-620.07 191.13,-630.07 194.63,-620.07 187.63,-620.07"/>
<text text-anchor="middle" x="208" y="-598.5" font-family="Helvetica,sans-Serif" font-size="10.00"> filepath</text>
</g>
<!-- Node14 -->
<g id="node14" class="node">
<title>Node14</title>
<g id="a_node14"><a xlink:title=" ">
<polygon fill="white" stroke="#666666" points="238.12,-738 144.12,-738 144.12,-706 238.12,-706 238.12,-738"/>
<text text-anchor="start" x="152.12" y="-724.5" font-family="Helvetica,sans-Serif" font-size="10.00">std::basic_string&lt;</text>
<text text-anchor="middle" x="191.12" y="-712.5" font-family="Helvetica,sans-Serif" font-size="10.00"> Char &gt;</text>
</a>
</g>
</g>
<!-- Node14&#45;&gt;Node13 -->
<g id="edge13" class="edge">
<title>Node14&#45;&gt;Node13</title>
<path fill="none" stroke="#63b8ff" d="M191.12,-694.23C191.12,-679.77 191.12,-662.81 191.12,-652.49"/>
<polygon fill="#63b8ff" stroke="#63b8ff" points="187.63,-694.08 191.13,-704.08 194.63,-694.08 187.63,-694.08"/>
</g>
<!-- Node15 -->
<g id="node15" class="node">
<title>Node15</title>
<g id="a_node15"><a xlink:title=" ">
<polygon fill="white" stroke="#666666" points="327.62,-652 254.62,-652 254.62,-632 327.62,-632 327.62,-652"/>
<text text-anchor="middle" x="291.12" y="-638.5" font-family="Helvetica,sans-Serif" font-size="10.00">std::ofstream</text>
</a>
</g>
</g>
<!-- Node15&#45;&gt;Node9 -->
<g id="edge14" class="edge">
<title>Node15&#45;&gt;Node9</title>
<path fill="none" stroke="#9a32cd" stroke-dasharray="5,2" d="M269.2,-625C257.35,-616.38 242.46,-605.58 229.12,-596 220.97,-590.15 211.8,-583.63 204.51,-578.46"/>
<polygon fill="#9a32cd" stroke="#9a32cd" points="266.96,-627.7 277.1,-630.76 271.08,-622.05 266.96,-627.7"/>
<text text-anchor="middle" x="267.62" y="-598.5" font-family="Helvetica,sans-Serif" font-size="10.00"> filestream</text>
</g>
<!-- Node16 -->
<g id="node16" class="node">
<title>Node16</title>
<g id="a_node16"><a xlink:title=" ">
<polygon fill="white" stroke="#666666" points="357.88,-738 256.38,-738 256.38,-706 357.88,-706 357.88,-738"/>
<text text-anchor="start" x="264.38" y="-724.5" font-family="Helvetica,sans-Serif" font-size="10.00">std::basic_ofstream</text>
<text text-anchor="middle" x="307.12" y="-712.5" font-family="Helvetica,sans-Serif" font-size="10.00">&lt; Char &gt;</text>
</a>
</g>
</g>
<!-- Node16&#45;&gt;Node15 -->
<g id="edge15" class="edge">
<title>Node16&#45;&gt;Node15</title>
<path fill="none" stroke="#63b8ff" d="M301.72,-694.66C298.74,-680.11 295.21,-662.91 293.07,-652.49"/>
<polygon fill="#63b8ff" stroke="#63b8ff" points="298.22,-695.01 303.66,-704.11 305.08,-693.61 298.22,-695.01"/>
</g>
<!-- Node17 -->
<g id="node17" class="node">
<title>Node17</title>
<g id="a_node17"><a xlink:title=" ">
<polygon fill="white" stroke="#666666" points="356.75,-807 257.5,-807 257.5,-775 356.75,-775 356.75,-807"/>
<text text-anchor="start" x="265.5" y="-793.5" font-family="Helvetica,sans-Serif" font-size="10.00">std::basic_ostream</text>
<text text-anchor="middle" x="307.12" y="-781.5" font-family="Helvetica,sans-Serif" font-size="10.00">&lt; Char &gt;</text>
</a>
</g>
</g>
<!-- Node17&#45;&gt;Node16 -->
<g id="edge16" class="edge">
<title>Node17&#45;&gt;Node16</title>
<path fill="none" stroke="#63b8ff" d="M307.12,-763.35C307.12,-754.78 307.12,-745.59 307.12,-738.14"/>
<polygon fill="#63b8ff" stroke="#63b8ff" points="303.63,-763.28 307.13,-773.28 310.63,-763.28 303.63,-763.28"/>
</g>
<!-- Node18 -->
<g id="node18" class="node">
<title>Node18</title>
<g id="a_node18"><a xlink:title=" ">
<polygon fill="white" stroke="#666666" points="364.62,-864 249.62,-864 249.62,-844 364.62,-844 364.62,-864"/>
<text text-anchor="middle" x="307.12" y="-850.5" font-family="Helvetica,sans-Serif" font-size="10.00">std::basic_ios&lt; Char &gt;</text>
</a>
</g>
</g>
<!-- Node18&#45;&gt;Node17 -->
<g id="edge17" class="edge">
<title>Node18&#45;&gt;Node17</title>
<path fill="none" stroke="#63b8ff" d="M307.12,-832.36C307.12,-824.07 307.12,-814.69 307.12,-807.06"/>
<polygon fill="#63b8ff" stroke="#63b8ff" points="303.63,-832.22 307.13,-842.22 310.63,-832.22 303.63,-832.22"/>
</g>
<!-- Node19 -->
<g id="node19" class="node">
<title>Node19</title>
<g id="a_node19"><a xlink:title=" ">
<polygon fill="white" stroke="#666666" points="344.38,-921 269.88,-921 269.88,-901 344.38,-901 344.38,-921"/>
<text text-anchor="middle" x="307.12" y="-907.5" font-family="Helvetica,sans-Serif" font-size="10.00">std::ios_base</text>
</a>
</g>
</g>
<!-- Node19&#45;&gt;Node18 -->
<g id="edge18" class="edge">
<title>Node19&#45;&gt;Node18</title>
<path fill="none" stroke="#63b8ff" d="M307.12,-889.69C307.12,-880.97 307.12,-871.22 307.12,-864.28"/>
<polygon fill="#63b8ff" stroke="#63b8ff" points="303.63,-889.4 307.13,-899.4 310.63,-889.4 303.63,-889.4"/>
</g>
<!-- Node20 -->
<g id="node20" class="node">
<title>Node20</title>
<g id="a_node20"><a xlink:title=" ">
<polygon fill="white" stroke="#666666" points="384.88,-510 271.38,-510 271.38,-478 384.88,-478 384.88,-510"/>
<text text-anchor="start" x="279.38" y="-496.5" font-family="Helvetica,sans-Serif" font-size="10.00">std::vector&lt; Exception</text>
<text text-anchor="middle" x="328.12" y="-484.5" font-family="Helvetica,sans-Serif" font-size="10.00">::FMTexc &gt;</text>
</a>
</g>
</g>
<!-- Node20&#45;&gt;Node7 -->
<g id="edge19" class="edge">
<title>Node20&#45;&gt;Node7</title>
<path fill="none" stroke="#9a32cd" stroke-dasharray="5,2" d="M328.12,-466.34C328.12,-453.7 328.12,-439.41 328.12,-430.31"/>
<polygon fill="#9a32cd" stroke="#9a32cd" points="324.63,-466.22 328.13,-476.22 331.63,-466.22 324.63,-466.22"/>
<text text-anchor="middle" x="365.25" y="-450.5" font-family="Helvetica,sans-Serif" font-size="10.00"> errorstowarnings</text>
</g>
<!-- Node21 -->
<g id="node21" class="node">
<title>Node21</title>
<g id="a_node21"><a xlink:title=" ">
<polygon fill="white" stroke="#666666" points="517.62,-510 402.62,-510 402.62,-478 517.62,-478 517.62,-510"/>
<text text-anchor="start" x="410.62" y="-496.5" font-family="Helvetica,sans-Serif" font-size="10.00">std::set&lt; boost::thread</text>
<text text-anchor="middle" x="460.12" y="-484.5" font-family="Helvetica,sans-Serif" font-size="10.00">::id &gt;</text>
</a>
</g>
</g>
<!-- Node21&#45;&gt;Node7 -->
<g id="edge20" class="edge">
<title>Node21&#45;&gt;Node7</title>
<path fill="none" stroke="#9a32cd" stroke-dasharray="5,2" d="M436.38,-470.04C427.42,-462.26 416.8,-454.03 406.12,-448 393.02,-440.6 377.55,-434.73 363.85,-430.38"/>
<polygon fill="#9a32cd" stroke="#9a32cd" points="433.83,-472.45 443.6,-476.55 438.52,-467.25 433.83,-472.45"/>
<text text-anchor="middle" x="464.75" y="-450.5" font-family="Helvetica,sans-Serif" font-size="10.00"> registered_threads</text>
</g>
<!-- Node22 -->
<g id="node22" class="node">
<title>Node22</title>
<g id="a_node22"><a xlink:title=" ">
<polygon fill="white" stroke="#666666" points="638.25,-510 536,-510 536,-478 638.25,-478 638.25,-510"/>
<text text-anchor="start" x="544" y="-496.5" font-family="Helvetica,sans-Serif" font-size="10.00">std::unordered_map</text>
<text text-anchor="middle" x="587.12" y="-484.5" font-family="Helvetica,sans-Serif" font-size="10.00">&lt; int, size_t &gt;</text>
</a>
</g>
</g>
<!-- Node22&#45;&gt;Node7 -->
<g id="edge21" class="edge">
<title>Node22&#45;&gt;Node7</title>
<path fill="none" stroke="#9a32cd" stroke-dasharray="5,2" d="M556.62,-471.54C542.98,-462.93 526.35,-453.7 510.12,-448 477.58,-436.56 440.1,-429.96 407.65,-426.17"/>
<polygon fill="#9a32cd" stroke="#9a32cd" points="554.42,-474.28 564.71,-476.82 558.25,-468.42 554.42,-474.28"/>
<text text-anchor="middle" x="585.25" y="-450.5" font-family="Helvetica,sans-Serif" font-size="10.00"> _specificwarningcount</text>
</g>
</g>
</svg>
