<?xml version="1.0" encoding="UTF-8" standalone="no"?>
<!DOCTYPE svg PUBLIC "-//W3C//DTD SVG 1.1//EN"
 "http://www.w3.org/Graphics/SVG/1.1/DTD/svg11.dtd">
<!-- Generated by graphviz version 8.1.0 (20230707.0739)
 -->
<!-- Title: Core::FMTfork Pages: 1 -->
<svg width="1934pt" height="325pt"
 viewBox="0.00 0.00 1934.00 325.00" xmlns="http://www.w3.org/2000/svg" xmlns:xlink="http://www.w3.org/1999/xlink">
<g id="graph0" class="graph" transform="scale(1 1) rotate(0) translate(4 321)">
<title>Core::FMTfork</title>
<!-- Node1 -->
<g id="Node000001" class="node">
<title>Node1</title>
<g id="a_Node000001"><a xlink:title=" ">
<polygon fill="#999999" stroke="#666666" points="1926,-185 1848.5,-185 1848.5,-165 1926,-165 1926,-185"/>
<text text-anchor="middle" x="1887.25" y="-171.5" font-family="Helvetica,sans-Serif" font-size="10.00">Core::FMTfork</text>
</a>
</g>
</g>
<!-- Node2 -->
<g id="Node000002" class="node">
<title>Node2</title>
<g id="a_Node000002"><a xlink:href="classCore_1_1FMTspec.html" target="_top" xlink:title=" ">
<polygon fill="white" stroke="#666666" points="1119.62,-250 1036.88,-250 1036.88,-230 1119.62,-230 1119.62,-250"/>
<text text-anchor="middle" x="1078.25" y="-236.5" font-family="Helvetica,sans-Serif" font-size="10.00">Core::FMTspec</text>
</a>
</g>
</g>
<!-- Node2&#45;&gt;Node1 -->
<g id="edge1_Node000001_Node000002" class="edge">
<title>Node2&#45;&gt;Node1</title>
<g id="a_edge1_Node000001_Node000002"><a xlink:title=" ">
<path fill="none" stroke="#63b8ff" d="M1130.87,-237.29C1185.84,-234.64 1275.41,-231 1352.75,-231 1352.75,-231 1352.75,-231 1768.5,-231 1810.6,-231 1853.69,-201.44 1874.1,-185.27"/>
<polygon fill="#63b8ff" stroke="#63b8ff" points="1130.83,-233.84 1121.01,-237.82 1131.17,-240.83 1130.83,-233.84"/>
</a>
</g>
</g>
<!-- Node3 -->
<g id="Node000003" class="node">
<title>Node3</title>
<g id="a_Node000003"><a xlink:href="classCore_1_1FMTperbounds.html" target="_top" xlink:title=" ">
<polygon fill="white" stroke="#666666" points="917.62,-191 810.88,-191 810.88,-171 917.62,-171 917.62,-191"/>
<text text-anchor="middle" x="864.25" y="-177.5" font-family="Helvetica,sans-Serif" font-size="10.00">Core::FMTperbounds</text>
</a>
</g>
</g>
<!-- Node3&#45;&gt;Node2 -->
<g id="edge2_Node000002_Node000003" class="edge">
<title>Node3&#45;&gt;Node2</title>
<g id="a_edge2_Node000002_Node000003"><a xlink:title=" ">
<path fill="none" stroke="#9a32cd" stroke-dasharray="5,2" d="M928.81,-188.26C951.38,-192.29 976.55,-198.49 998.25,-208 1007.29,-211.96 1007.42,-216.59 1016.25,-221 1022.8,-224.27 1030.02,-227.12 1037.14,-229.55"/>
<polygon fill="#9a32cd" stroke="#9a32cd" points="929.41,-184.65 918.97,-186.45 928.26,-191.55 929.41,-184.65"/>
</a>
</g>
<text text-anchor="middle" x="970.88" y="-210.5" font-family="Helvetica,sans-Serif" font-size="10.00" fill="grey"> per</text>
</g>
<!-- Node4 -->
<g id="Node000004" class="node">
<title>Node4</title>
<g id="a_Node000004"><a xlink:href="classCore_1_1FMTbounds.html" target="_top" xlink:title=" ">
<polygon fill="white" stroke="#666666" points="721.25,-229 599.5,-229 599.5,-209 721.25,-209 721.25,-229"/>
<text text-anchor="middle" x="660.38" y="-215.5" font-family="Helvetica,sans-Serif" font-size="10.00">Core::FMTbounds&lt; int &gt;</text>
</a>
</g>
</g>
<!-- Node4&#45;&gt;Node3 -->
<g id="edge3_Node000003_Node000004" class="edge">
<title>Node4&#45;&gt;Node3</title>
<g id="a_edge3_Node000003_Node000004"><a xlink:title=" ">
<path fill="none" stroke="#63b8ff" d="M727.57,-206.54C754.48,-201.47 785.15,-195.7 810.51,-190.93"/>
<polygon fill="#63b8ff" stroke="#63b8ff" points="727.25,-203.23 718.07,-208.52 728.55,-210.11 727.25,-203.23"/>
</a>
</g>
</g>
<!-- Node5 -->
<g id="Node000005" class="node">
<title>Node5</title>
<g id="a_Node000005"><a xlink:href="classCore_1_1FMTagebounds.html" target="_top" xlink:title=" ">
<polygon fill="white" stroke="#666666" points="918.75,-267 809.75,-267 809.75,-247 918.75,-247 918.75,-267"/>
<text text-anchor="middle" x="864.25" y="-253.5" font-family="Helvetica,sans-Serif" font-size="10.00">Core::FMTagebounds</text>
</a>
</g>
</g>
<!-- Node4&#45;&gt;Node5 -->
<g id="edge5_Node000005_Node000004" class="edge">
<title>Node4&#45;&gt;Node5</title>
<g id="a_edge5_Node000005_Node000004"><a xlink:title=" ">
<path fill="none" stroke="#63b8ff" d="M727.8,-231.5C754.29,-236.49 784.39,-242.16 809.48,-246.88"/>
<polygon fill="#63b8ff" stroke="#63b8ff" points="728.55,-227.89 718.07,-229.48 727.25,-234.77 728.55,-227.89"/>
</a>
</g>
</g>
<!-- Node6 -->
<g id="Node000006" class="node">
<title>Node6</title>
<g id="a_Node000006"><a xlink:href="classCore_1_1FMTlockbounds.html" target="_top" xlink:title=" ">
<polygon fill="white" stroke="#666666" points="919.88,-229 808.62,-229 808.62,-209 919.88,-209 919.88,-229"/>
<text text-anchor="middle" x="864.25" y="-215.5" font-family="Helvetica,sans-Serif" font-size="10.00">Core::FMTlockbounds</text>
</a>
</g>
</g>
<!-- Node4&#45;&gt;Node6 -->
<g id="edge7_Node000006_Node000004" class="edge">
<title>Node4&#45;&gt;Node6</title>
<g id="a_edge7_Node000006_Node000004"><a xlink:title=" ">
<path fill="none" stroke="#63b8ff" d="M732.54,-219C757.46,-219 785.05,-219 808.42,-219"/>
<polygon fill="#63b8ff" stroke="#63b8ff" points="732.67,-215.5 722.67,-219 732.67,-222.5 732.67,-215.5"/>
</a>
</g>
</g>
<!-- Node5&#45;&gt;Node2 -->
<g id="edge4_Node000002_Node000005" class="edge">
<title>Node5&#45;&gt;Node2</title>
<g id="a_edge4_Node000002_Node000005"><a xlink:title=" ">
<path fill="none" stroke="#9a32cd" stroke-dasharray="5,2" d="M929.57,-251.84C964.38,-249.05 1006.31,-245.69 1036.59,-243.26"/>
<polygon fill="#9a32cd" stroke="#9a32cd" points="929.71,-248.4 920.02,-252.69 930.27,-255.38 929.71,-248.4"/>
</a>
</g>
<text text-anchor="middle" x="970.88" y="-252.5" font-family="Helvetica,sans-Serif" font-size="10.00" fill="grey"> age</text>
</g>
<!-- Node6&#45;&gt;Node2 -->
<g id="edge6_Node000002_Node000006" class="edge">
<title>Node6&#45;&gt;Node2</title>
<g id="a_edge6_Node000002_Node000006"><a xlink:title=" ">
<path fill="none" stroke="#9a32cd" stroke-dasharray="5,2" d="M931.24,-223.89C952.64,-225.63 976.47,-227.72 998.25,-230 1010.76,-231.31 1024.36,-232.95 1036.69,-234.52"/>
<polygon fill="#9a32cd" stroke="#9a32cd" points="931.55,-220.32 921.3,-223.01 930.99,-227.3 931.55,-220.32"/>
</a>
</g>
<text text-anchor="middle" x="970.88" y="-232.5" font-family="Helvetica,sans-Serif" font-size="10.00" fill="grey"> lock</text>
</g>
<!-- Node7 -->
<g id="Node000007" class="node">
<title>Node7</title>
<g id="a_Node000007"><a xlink:title=" ">
<polygon fill="white" stroke="#666666" points="925.5,-149 803,-149 803,-129 925.5,-129 925.5,-149"/>
<text text-anchor="middle" x="864.25" y="-135.5" font-family="Helvetica,sans-Serif" font-size="10.00">std::vector&lt; std::string &gt;</text>
</a>
</g>
</g>
<!-- Node7&#45;&gt;Node2 -->
<g id="edge8_Node000002_Node000007" class="edge">
<title>Node7&#45;&gt;Node2</title>
<g id="a_edge8_Node000002_Node000007"><a xlink:title=" ">
<path fill="none" stroke="#9a32cd" stroke-dasharray="5,2" d="M936.51,-146.4C958.42,-151.71 981.23,-160.74 998.25,-176 1014.29,-190.38 1000.43,-206.38 1016.25,-221 1021.95,-226.27 1029.1,-230.08 1036.47,-232.83"/>
<polygon fill="#9a32cd" stroke="#9a32cd" points="937.37,-142.78 926.85,-144.07 935.88,-149.62 937.37,-142.78"/>
</a>
</g>
<text text-anchor="middle" x="970.88" y="-178.5" font-family="Helvetica,sans-Serif" font-size="10.00" fill="grey"> yieldnames</text>
</g>
<!-- Node8 -->
<g id="Node000008" class="node">
<title>Node8</title>
<g id="a_Node000008"><a xlink:title=" ">
<polygon fill="white" stroke="#666666" points="690.12,-127 630.62,-127 630.62,-107 690.12,-107 690.12,-127"/>
<text text-anchor="middle" x="660.38" y="-113.5" font-family="Helvetica,sans-Serif" font-size="10.00">std::string</text>
</a>
</g>
</g>
<!-- Node8&#45;&gt;Node7 -->
<g id="edge9_Node000007_Node000008" class="edge">
<title>Node8&#45;&gt;Node7</title>
<g id="a_edge9_Node000007_Node000008"><a xlink:title=" ">
<path fill="none" stroke="#9a32cd" stroke-dasharray="5,2" d="M701.22,-121.34C730.18,-124.5 769.9,-128.83 802.76,-132.41"/>
<polygon fill="#9a32cd" stroke="#9a32cd" points="701.62,-117.76 691.3,-120.15 700.86,-124.71 701.62,-117.76"/>
</a>
</g>
<text text-anchor="middle" x="762.5" y="-132.5" font-family="Helvetica,sans-Serif" font-size="10.00" fill="grey"> elements</text>
</g>
<!-- Node17 -->
<g id="Node000017" class="node">
<title>Node17</title>
<g id="a_Node000017"><a xlink:href="classLogging_1_1FMTlogger.html" target="_top" xlink:title=" ">
<polygon fill="white" stroke="#666666" points="915,-65 813.5,-65 813.5,-45 915,-45 915,-65"/>
<text text-anchor="middle" x="864.25" y="-51.5" font-family="Helvetica,sans-Serif" font-size="10.00">Logging::FMTlogger</text>
</a>
</g>
</g>
<!-- Node8&#45;&gt;Node17 -->
<g id="edge22_Node000017_Node000008" class="edge">
<title>Node8&#45;&gt;Node17</title>
<g id="a_edge22_Node000017_Node000008"><a xlink:title=" ">
<path fill="none" stroke="#9a32cd" stroke-dasharray="5,2" d="M700.81,-104.89C738.22,-93.4 793.84,-76.32 829.32,-65.42"/>
<polygon fill="#9a32cd" stroke="#9a32cd" points="699.83,-101.84 691.3,-108.12 701.89,-108.53 699.83,-101.84"/>
</a>
</g>
<text text-anchor="middle" x="762.5" y="-94.5" font-family="Helvetica,sans-Serif" font-size="10.00" fill="grey"> filepath</text>
</g>
<!-- Node9 -->
<g id="Node000009" class="node">
<title>Node9</title>
<g id="a_Node000009"><a xlink:title=" ">
<polygon fill="white" stroke="#666666" points="525.62,-133 431.62,-133 431.62,-101 525.62,-101 525.62,-133"/>
<text text-anchor="start" x="439.62" y="-119.5" font-family="Helvetica,sans-Serif" font-size="10.00">std::basic_string&lt;</text>
<text text-anchor="middle" x="478.62" y="-107.5" font-family="Helvetica,sans-Serif" font-size="10.00"> Char &gt;</text>
</a>
</g>
</g>
<!-- Node9&#45;&gt;Node8 -->
<g id="edge10_Node000008_Node000009" class="edge">
<title>Node9&#45;&gt;Node8</title>
<g id="a_edge10_Node000008_Node000009"><a xlink:title=" ">
<path fill="none" stroke="#63b8ff" d="M536.63,-117C567.72,-117 604.89,-117 630.13,-117"/>
<polygon fill="#63b8ff" stroke="#63b8ff" points="536.92,-113.5 526.92,-117 536.92,-120.5 536.92,-113.5"/>
</a>
</g>
</g>
<!-- Node10 -->
<g id="Node000010" class="node">
<title>Node10</title>
<g id="a_Node000010"><a xlink:title=" ">
<polygon fill="white" stroke="#666666" points="912.38,-317 816.12,-317 816.12,-285 912.38,-285 912.38,-317"/>
<text text-anchor="start" x="824.12" y="-303.5" font-family="Helvetica,sans-Serif" font-size="10.00">std::vector&lt; Core::</text>
<text text-anchor="middle" x="864.25" y="-291.5" font-family="Helvetica,sans-Serif" font-size="10.00">FMTyldbounds &gt;</text>
</a>
</g>
</g>
<!-- Node10&#45;&gt;Node2 -->
<g id="edge11_Node000002_Node000010" class="edge">
<title>Node10&#45;&gt;Node2</title>
<g id="a_edge11_Node000002_Node000010"><a xlink:title=" ">
<path fill="none" stroke="#9a32cd" stroke-dasharray="5,2" d="M923.29,-286.54C946.67,-280.51 973.83,-273.22 998.25,-266 1014.45,-261.21 1032.34,-255.36 1047,-250.43"/>
<polygon fill="#9a32cd" stroke="#9a32cd" points="922.66,-283.35 913.84,-289.22 924.4,-290.13 922.66,-283.35"/>
</a>
</g>
<text text-anchor="middle" x="970.88" y="-283.5" font-family="Helvetica,sans-Serif" font-size="10.00" fill="grey"> yieldbounds</text>
</g>
<!-- Node11 -->
<g id="Node000011" class="node">
<title>Node11</title>
<g id="a_Node000011"><a xlink:href="classCore_1_1FMTyldbounds.html" target="_top" xlink:title=" ">
<polygon fill="white" stroke="#666666" points="713.38,-311 607.38,-311 607.38,-291 713.38,-291 713.38,-311"/>
<text text-anchor="middle" x="660.38" y="-297.5" font-family="Helvetica,sans-Serif" font-size="10.00">Core::FMTyldbounds</text>
</a>
</g>
</g>
<!-- Node11&#45;&gt;Node10 -->
<g id="edge12_Node000010_Node000011" class="edge">
<title>Node11&#45;&gt;Node10</title>
<g id="a_edge12_Node000010_Node000011"><a xlink:title=" ">
<path fill="none" stroke="#9a32cd" stroke-dasharray="5,2" d="M724.25,-301C753.78,-301 788.41,-301 815.71,-301"/>
<polygon fill="#9a32cd" stroke="#9a32cd" points="724.63,-297.5 714.63,-301 724.63,-304.5 724.63,-297.5"/>
</a>
</g>
<text text-anchor="middle" x="762.5" y="-303.5" font-family="Helvetica,sans-Serif" font-size="10.00" fill="grey"> elements</text>
</g>
<!-- Node12 -->
<g id="Node000012" class="node">
<title>Node12</title>
<g id="a_Node000012"><a xlink:href="classCore_1_1FMTbounds.html" target="_top" xlink:title=" ">
<polygon fill="white" stroke="#666666" points="548.5,-311 408.75,-311 408.75,-291 548.5,-291 548.5,-311"/>
<text text-anchor="middle" x="478.62" y="-297.5" font-family="Helvetica,sans-Serif" font-size="10.00">Core::FMTbounds&lt; double &gt;</text>
</a>
</g>
</g>
<!-- Node12&#45;&gt;Node11 -->
<g id="edge13_Node000011_Node000012" class="edge">
<title>Node12&#45;&gt;Node11</title>
<g id="a_edge13_Node000011_Node000012"><a xlink:title=" ">
<path fill="none" stroke="#63b8ff" d="M559.83,-301C575.8,-301 592.18,-301 606.92,-301"/>
<polygon fill="#63b8ff" stroke="#63b8ff" points="559.86,-297.5 549.86,-301 559.86,-304.5 559.86,-297.5"/>
</a>
</g>
</g>
<!-- Node13 -->
<g id="Node000013" class="node">
<title>Node13</title>
<g id="a_Node000013"><a xlink:href="classCore_1_1FMTobject.html" target="_top" xlink:title=" ">
<polygon fill="white" stroke="#666666" points="1811.5,-138 1723.5,-138 1723.5,-118 1811.5,-118 1811.5,-138"/>
<text text-anchor="middle" x="1767.5" y="-124.5" font-family="Helvetica,sans-Serif" font-size="10.00">Core::FMTobject</text>
</a>
</g>
</g>
<!-- Node13&#45;&gt;Node1 -->
<g id="edge14_Node000001_Node000013" class="edge">
<title>Node13&#45;&gt;Node1</title>
<g id="a_edge14_Node000001_Node000013"><a xlink:title=" ">
<path fill="none" stroke="#63b8ff" d="M1804.74,-142.47C1822.67,-149.62 1843.89,-158.09 1860.19,-164.6"/>
<polygon fill="#63b8ff" stroke="#63b8ff" points="1806.22,-138.89 1795.63,-138.43 1803.62,-145.39 1806.22,-138.89"/>
</a>
</g>
</g>
<!-- Node14 -->
<g id="Node000014" class="node">
<title>Node14</title>
<g id="a_Node000014"><a xlink:title=" ">
<polygon fill="white" stroke="#666666" points="1637.25,-144 1503.5,-144 1503.5,-112 1637.25,-112 1637.25,-144"/>
<text text-anchor="start" x="1511.5" y="-130.5" font-family="Helvetica,sans-Serif" font-size="10.00">std::shared_ptr&lt; Exception</text>
<text text-anchor="middle" x="1570.38" y="-118.5" font-family="Helvetica,sans-Serif" font-size="10.00">::FMTexceptionhandler &gt;</text>
</a>
</g>
</g>
<!-- Node14&#45;&gt;Node13 -->
<g id="edge15_Node000013_Node000014" class="edge">
<title>Node14&#45;&gt;Node13</title>
<g id="a_edge15_Node000013_Node000014"><a xlink:title=" ">
<path fill="none" stroke="#9a32cd" stroke-dasharray="5,2" d="M1648.43,-128C1673.79,-128 1701.07,-128 1723.02,-128"/>
<polygon fill="#9a32cd" stroke="#9a32cd" points="1648.71,-124.5 1638.71,-128 1648.71,-131.5 1648.71,-124.5"/>
</a>
</g>
<text text-anchor="middle" x="1680.38" y="-130.5" font-family="Helvetica,sans-Serif" font-size="10.00" fill="grey"> _exhandler</text>
</g>
<!-- Node15 -->
<g id="Node000015" class="node">
<title>Node15</title>
<g id="a_Node000015"><a xlink:href="classException_1_1FMTexceptionhandler.html" target="_top" xlink:title=" ">
<polygon fill="white" stroke="#666666" points="1433,-138 1274.5,-138 1274.5,-118 1433,-118 1433,-138"/>
<text text-anchor="middle" x="1353.75" y="-124.5" font-family="Helvetica,sans-Serif" font-size="10.00">Exception::FMTexceptionhandler</text>
</a>
</g>
</g>
<!-- Node15&#45;&gt;Node14 -->
<g id="edge16_Node000014_Node000015" class="edge">
<title>Node15&#45;&gt;Node14</title>
<g id="a_edge16_Node000014_Node000015"><a xlink:title=" ">
<path fill="none" stroke="#9a32cd" stroke-dasharray="5,2" d="M1444.28,-128C1463.96,-128 1484.46,-128 1503.03,-128"/>
<polygon fill="#9a32cd" stroke="#9a32cd" points="1444.45,-124.5 1434.45,-128 1444.45,-131.5 1444.45,-124.5"/>
</a>
</g>
<text text-anchor="middle" x="1468.25" y="-130.5" font-family="Helvetica,sans-Serif" font-size="10.00" fill="grey"> ptr</text>
</g>
<!-- Node16 -->
<g id="Node000016" class="node">
<title>Node16</title>
<g id="a_Node000016"><a xlink:title=" ">
<polygon fill="white" stroke="#666666" points="1140.25,-62 1016.25,-62 1016.25,-30 1140.25,-30 1140.25,-62"/>
<text text-anchor="start" x="1024.25" y="-48.5" font-family="Helvetica,sans-Serif" font-size="10.00">std::shared_ptr&lt; Logging</text>
<text text-anchor="middle" x="1078.25" y="-36.5" font-family="Helvetica,sans-Serif" font-size="10.00">::FMTlogger &gt;</text>
</a>
</g>
</g>
<!-- Node16&#45;&gt;Node13 -->
<g id="edge31_Node000013_Node000016" class="edge">
<title>Node16&#45;&gt;Node13</title>
<g id="a_edge31_Node000013_Node000016"><a xlink:title=" ">
<path fill="none" stroke="#9a32cd" stroke-dasharray="5,2" d="M1151.55,-51.07C1258.22,-59.06 1463.86,-76.48 1637.25,-103 1666.06,-107.41 1698.23,-113.62 1723.27,-118.76"/>
<polygon fill="#9a32cd" stroke="#9a32cd" points="1151.84,-47.5 1141.6,-50.25 1151.32,-54.48 1151.84,-47.5"/>
</a>
</g>
<text text-anchor="middle" x="1468.25" y="-85.5" font-family="Helvetica,sans-Serif" font-size="10.00" fill="grey"> _logger</text>
</g>
<!-- Node16&#45;&gt;Node15 -->
<g id="edge17_Node000015_Node000016" class="edge">
<title>Node16&#45;&gt;Node15</title>
<g id="a_edge17_Node000015_Node000016"><a xlink:title=" ">
<path fill="none" stroke="#9a32cd" stroke-dasharray="5,2" d="M1150.84,-61.49C1183.37,-69.11 1222.17,-79.01 1256.5,-90 1281.65,-98.05 1309.66,-109.38 1328.94,-117.58"/>
<polygon fill="#9a32cd" stroke="#9a32cd" points="1152.05,-57.94 1141.52,-59.1 1150.47,-64.76 1152.05,-57.94"/>
</a>
</g>
<text text-anchor="middle" x="1207.38" y="-92.5" font-family="Helvetica,sans-Serif" font-size="10.00" fill="grey"> _logger</text>
</g>
<!-- Node17&#45;&gt;Node16 -->
<g id="edge18_Node000016_Node000017" class="edge">
<title>Node17&#45;&gt;Node16</title>
<g id="a_edge18_Node000016_Node000017"><a xlink:title=" ">
<path fill="none" stroke="#9a32cd" stroke-dasharray="5,2" d="M926.4,-52.4C954.55,-51.21 987.87,-49.79 1016.02,-48.6"/>
<polygon fill="#9a32cd" stroke="#9a32cd" points="926.33,-48.95 916.49,-52.87 926.63,-55.94 926.33,-48.95"/>
</a>
</g>
<text text-anchor="middle" x="970.88" y="-54.5" font-family="Helvetica,sans-Serif" font-size="10.00" fill="grey"> ptr</text>
</g>
<!-- Node18 -->
<g id="Node000018" class="node">
<title>Node18</title>
<g id="a_Node000018"><a xlink:title=" ">
<polygon fill="white" stroke="#666666" points="722,-76 598.75,-76 598.75,-44 722,-44 722,-76"/>
<text text-anchor="start" x="606.75" y="-62.5" font-family="Helvetica,sans-Serif" font-size="10.00">std::unique_ptr&lt; Logging</text>
<text text-anchor="middle" x="660.38" y="-50.5" font-family="Helvetica,sans-Serif" font-size="10.00">::FMTsolverlogger &gt;</text>
</a>
</g>
</g>
<!-- Node18&#45;&gt;Node17 -->
<g id="edge19_Node000017_Node000018" class="edge">
<title>Node18&#45;&gt;Node17</title>
<g id="a_edge19_Node000017_Node000018"><a xlink:title=" ">
<path fill="none" stroke="#9a32cd" stroke-dasharray="5,2" d="M733.24,-58.22C759.7,-57.56 789.07,-56.84 813.19,-56.24"/>
<polygon fill="#9a32cd" stroke="#9a32cd" points="733.4,-54.74 723.49,-58.49 733.58,-61.74 733.4,-54.74"/>
</a>
</g>
<text text-anchor="middle" x="762.5" y="-60.5" font-family="Helvetica,sans-Serif" font-size="10.00" fill="grey"> solverref</text>
</g>
<!-- Node19 -->
<g id="Node000019" class="node">
<title>Node19</title>
<g id="a_Node000019"><a xlink:href="classLogging_1_1FMTsolverlogger.html" target="_top" xlink:title=" ">
<polygon fill="white" stroke="#666666" points="541.75,-70 415.5,-70 415.5,-50 541.75,-50 541.75,-70"/>
<text text-anchor="middle" x="478.62" y="-56.5" font-family="Helvetica,sans-Serif" font-size="10.00">Logging::FMTsolverlogger</text>
</a>
</g>
</g>
<!-- Node19&#45;&gt;Node18 -->
<g id="edge20_Node000018_Node000019" class="edge">
<title>Node19&#45;&gt;Node18</title>
<g id="a_edge20_Node000018_Node000019"><a xlink:title=" ">
<path fill="none" stroke="#9a32cd" stroke-dasharray="5,2" d="M553.09,-60C568.18,-60 583.91,-60 598.5,-60"/>
<polygon fill="#9a32cd" stroke="#9a32cd" points="553.24,-56.5 543.24,-60 553.24,-63.5 553.24,-56.5"/>
</a>
</g>
<text text-anchor="middle" x="573.62" y="-62.5" font-family="Helvetica,sans-Serif" font-size="10.00" fill="grey"> ptr</text>
</g>
<!-- Node20 -->
<g id="Node000020" class="node">
<title>Node20</title>
<g id="a_Node000020"><a xlink:title=" ">
<polygon fill="white" stroke="#666666" points="371.75,-70 263.5,-70 263.5,-50 371.75,-50 371.75,-70"/>
<text text-anchor="middle" x="317.62" y="-56.5" font-family="Helvetica,sans-Serif" font-size="10.00">CoinMessageHandler</text>
</a>
</g>
</g>
<!-- Node20&#45;&gt;Node19 -->
<g id="edge21_Node000019_Node000020" class="edge">
<title>Node20&#45;&gt;Node19</title>
<g id="a_edge21_Node000019_Node000020"><a xlink:title=" ">
<path fill="none" stroke="#63b8ff" d="M382.89,-60C393.49,-60 404.47,-60 415.03,-60"/>
<polygon fill="#63b8ff" stroke="#63b8ff" points="383.01,-56.5 373.01,-60 383.01,-63.5 383.01,-56.5"/>
</a>
</g>
</g>
<!-- Node21 -->
<g id="Node000021" class="node">
<title>Node21</title>
<g id="a_Node000021"><a xlink:title=" ">
<polygon fill="white" stroke="#666666" points="696.88,-26 623.88,-26 623.88,-6 696.88,-6 696.88,-26"/>
<text text-anchor="middle" x="660.38" y="-12.5" font-family="Helvetica,sans-Serif" font-size="10.00">std::ofstream</text>
</a>
</g>
</g>
<!-- Node21&#45;&gt;Node17 -->
<g id="edge23_Node000017_Node000021" class="edge">
<title>Node21&#45;&gt;Node17</title>
<g id="a_edge23_Node000017_Node000021"><a xlink:title=" ">
<path fill="none" stroke="#9a32cd" stroke-dasharray="5,2" d="M707.7,-24.95C739.23,-31.04 780.93,-39.1 813.21,-45.33"/>
<polygon fill="#9a32cd" stroke="#9a32cd" points="708.48,-21.34 698,-22.88 707.16,-28.22 708.48,-21.34"/>
</a>
</g>
<text text-anchor="middle" x="762.5" y="-41.5" font-family="Helvetica,sans-Serif" font-size="10.00" fill="grey"> filestream</text>
</g>
<!-- Node22 -->
<g id="Node000022" class="node">
<title>Node22</title>
<g id="a_Node000022"><a xlink:title=" ">
<polygon fill="white" stroke="#666666" points="529.38,-32 427.88,-32 427.88,0 529.38,0 529.38,-32"/>
<text text-anchor="start" x="435.88" y="-18.5" font-family="Helvetica,sans-Serif" font-size="10.00">std::basic_ofstream</text>
<text text-anchor="middle" x="478.62" y="-6.5" font-family="Helvetica,sans-Serif" font-size="10.00">&lt; Char &gt;</text>
</a>
</g>
</g>
<!-- Node22&#45;&gt;Node21 -->
<g id="edge24_Node000021_Node000022" class="edge">
<title>Node22&#45;&gt;Node21</title>
<g id="a_edge24_Node000021_Node000022"><a xlink:title=" ">
<path fill="none" stroke="#63b8ff" d="M540.45,-16C568.07,-16 599.8,-16 623.53,-16"/>
<polygon fill="#63b8ff" stroke="#63b8ff" points="540.7,-12.5 530.7,-16 540.7,-19.5 540.7,-12.5"/>
</a>
</g>
</g>
<!-- Node23 -->
<g id="Node000023" class="node">
<title>Node23</title>
<g id="a_Node000023"><a xlink:title=" ">
<polygon fill="white" stroke="#666666" points="367.25,-32 268,-32 268,0 367.25,0 367.25,-32"/>
<text text-anchor="start" x="276" y="-18.5" font-family="Helvetica,sans-Serif" font-size="10.00">std::basic_ostream</text>
<text text-anchor="middle" x="317.62" y="-6.5" font-family="Helvetica,sans-Serif" font-size="10.00">&lt; Char &gt;</text>
</a>
</g>
</g>
<!-- Node23&#45;&gt;Node22 -->
<g id="edge25_Node000022_Node000023" class="edge">
<title>Node23&#45;&gt;Node22</title>
<g id="a_edge25_Node000022_Node000023"><a xlink:title=" ">
<path fill="none" stroke="#63b8ff" d="M378.56,-16C394.66,-16 411.9,-16 427.41,-16"/>
<polygon fill="#63b8ff" stroke="#63b8ff" points="378.63,-12.5 368.63,-16 378.63,-19.5 378.63,-12.5"/>
</a>
</g>
</g>
<!-- Node24 -->
<g id="Node000024" class="node">
<title>Node24</title>
<g id="a_Node000024"><a xlink:title=" ">
<polygon fill="white" stroke="#666666" points="226.5,-26 111.5,-26 111.5,-6 226.5,-6 226.5,-26"/>
<text text-anchor="middle" x="169" y="-12.5" font-family="Helvetica,sans-Serif" font-size="10.00">std::basic_ios&lt; Char &gt;</text>
</a>
</g>
</g>
<!-- Node24&#45;&gt;Node23 -->
<g id="edge26_Node000023_Node000024" class="edge">
<title>Node24&#45;&gt;Node23</title>
<g id="a_edge26_Node000023_Node000024"><a xlink:title=" ">
<path fill="none" stroke="#63b8ff" d="M237.61,-16C247.76,-16 258.06,-16 267.72,-16"/>
<polygon fill="#63b8ff" stroke="#63b8ff" points="237.69,-12.5 227.69,-16 237.69,-19.5 237.69,-12.5"/>
</a>
</g>
</g>
<!-- Node25 -->
<g id="Node000025" class="node">
<title>Node25</title>
<g id="a_Node000025"><a xlink:title=" ">
<polygon fill="white" stroke="#666666" points="74.5,-26 0,-26 0,-6 74.5,-6 74.5,-26"/>
<text text-anchor="middle" x="37.25" y="-12.5" font-family="Helvetica,sans-Serif" font-size="10.00">std::ios_base</text>
</a>
</g>
</g>
<!-- Node25&#45;&gt;Node24 -->
<g id="edge27_Node000024_Node000025" class="edge">
<title>Node25&#45;&gt;Node24</title>
<g id="a_edge27_Node000024_Node000025"><a xlink:title=" ">
<path fill="none" stroke="#63b8ff" d="M85.5,-16C93.92,-16 102.77,-16 111.41,-16"/>
<polygon fill="#63b8ff" stroke="#63b8ff" points="85.74,-12.5 75.74,-16 85.74,-19.5 85.74,-12.5"/>
</a>
</g>
</g>
<!-- Node26 -->
<g id="Node000026" class="node">
<title>Node26</title>
<g id="a_Node000026"><a xlink:title=" ">
<polygon fill="white" stroke="#666666" points="1135,-112 1021.5,-112 1021.5,-80 1135,-80 1135,-112"/>
<text text-anchor="start" x="1029.5" y="-98.5" font-family="Helvetica,sans-Serif" font-size="10.00">std::vector&lt; Exception</text>
<text text-anchor="middle" x="1078.25" y="-86.5" font-family="Helvetica,sans-Serif" font-size="10.00">::FMTexc &gt;</text>
</a>
</g>
</g>
<!-- Node26&#45;&gt;Node15 -->
<g id="edge28_Node000015_Node000026" class="edge">
<title>Node26&#45;&gt;Node15</title>
<g id="a_edge28_Node000015_Node000026"><a xlink:title=" ">
<path fill="none" stroke="#9a32cd" stroke-dasharray="5,2" d="M1145.87,-103.8C1184.54,-108.32 1233.45,-114.04 1274.01,-118.79"/>
<polygon fill="#9a32cd" stroke="#9a32cd" points="1146.6,-100.24 1136.26,-102.55 1145.78,-107.19 1146.6,-100.24"/>
</a>
</g>
<text text-anchor="middle" x="1207.38" y="-119.5" font-family="Helvetica,sans-Serif" font-size="10.00" fill="grey"> errorstowarnings</text>
</g>
<!-- Node27 -->
<g id="Node000027" class="node">
<title>Node27</title>
<g id="a_Node000027"><a xlink:title=" ">
<polygon fill="white" stroke="#666666" points="1135.75,-212 1020.75,-212 1020.75,-180 1135.75,-180 1135.75,-212"/>
<text text-anchor="start" x="1028.75" y="-198.5" font-family="Helvetica,sans-Serif" font-size="10.00">std::set&lt; boost::thread</text>
<text text-anchor="middle" x="1078.25" y="-186.5" font-family="Helvetica,sans-Serif" font-size="10.00">::id &gt;</text>
</a>
</g>
</g>
<!-- Node27&#45;&gt;Node15 -->
<g id="edge29_Node000015_Node000027" class="edge">
<title>Node27&#45;&gt;Node15</title>
<g id="a_edge29_Node000015_Node000027"><a xlink:title=" ">
<path fill="none" stroke="#9a32cd" stroke-dasharray="5,2" d="M1146.7,-182.42C1179.91,-175.41 1220.46,-166.38 1256.5,-157 1277.95,-151.42 1301.81,-144.24 1320.4,-138.42"/>
<polygon fill="#9a32cd" stroke="#9a32cd" points="1146.26,-179.15 1137.19,-184.62 1147.69,-186 1146.26,-179.15"/>
</a>
</g>
<text text-anchor="middle" x="1207.38" y="-182.5" font-family="Helvetica,sans-Serif" font-size="10.00" fill="grey"> registered_threads</text>
</g>
<!-- Node28 -->
<g id="Node000028" class="node">
<title>Node28</title>
<g id="a_Node000028"><a xlink:title=" ">
<polygon fill="white" stroke="#666666" points="1129.38,-162 1027.12,-162 1027.12,-130 1129.38,-130 1129.38,-162"/>
<text text-anchor="start" x="1035.12" y="-148.5" font-family="Helvetica,sans-Serif" font-size="10.00">std::unordered_map</text>
<text text-anchor="middle" x="1078.25" y="-136.5" font-family="Helvetica,sans-Serif" font-size="10.00">&lt; int, size_t &gt;</text>
</a>
</g>
</g>
<!-- Node28&#45;&gt;Node15 -->
<g id="edge30_Node000015_Node000028" class="edge">
<title>Node28&#45;&gt;Node15</title>
<g id="a_edge30_Node000015_Node000028"><a xlink:title=" ">
<path fill="none" stroke="#9a32cd" stroke-dasharray="5,2" d="M1140.52,-141.97C1179.97,-139.37 1231.62,-135.97 1274.09,-133.18"/>
<polygon fill="#9a32cd" stroke="#9a32cd" points="1140.48,-138.53 1130.73,-142.68 1140.94,-145.51 1140.48,-138.53"/>
</a>
</g>
<text text-anchor="middle" x="1207.38" y="-143.5" font-family="Helvetica,sans-Serif" font-size="10.00" fill="grey"> _specificwarningcount</text>
</g>
</g>
</svg>
