<?xml version="1.0" encoding="UTF-8" standalone="no"?>
<!DOCTYPE svg PUBLIC "-//W3C//DTD SVG 1.1//EN"
 "http://www.w3.org/Graphics/SVG/1.1/DTD/svg11.dtd">
<!-- Generated by graphviz version 10.0.1 (20240210.2158)
 -->
<!-- Title: Core::FMToutput Pages: 1 -->
<svg width="2055pt" height="444pt"
 viewBox="0.00 0.00 2054.75 444.00" xmlns="http://www.w3.org/2000/svg" xmlns:xlink="http://www.w3.org/1999/xlink">
<g id="graph0" class="graph" transform="scale(1 1) rotate(0) translate(4 440)">
<title>Core::FMToutput</title>
<!-- Node1 -->
<g id="node1" class="node">
<title>Node1</title>
<g id="a_node1"><a xlink:title=" ">
<polygon fill="#999999" stroke="#666666" points="2046.75,-212 1958,-212 1958,-192 2046.75,-192 2046.75,-212"/>
<text text-anchor="middle" x="2002.38" y="-198.5" font-family="Helvetica,sans-Serif" font-size="10.00">Core::FMToutput</text>
</a>
</g>
</g>
<!-- Node2 -->
<g id="node2" class="node">
<title>Node2</title>
<g id="a_node2"><a xlink:href="classCore_1_1FMTobject.html" target="_top" xlink:title=" ">
<polygon fill="white" stroke="#666666" points="1874.38,-188 1786.38,-188 1786.38,-168 1874.38,-168 1874.38,-188"/>
<text text-anchor="middle" x="1830.38" y="-174.5" font-family="Helvetica,sans-Serif" font-size="10.00">Core::FMTobject</text>
</a>
</g>
</g>
<!-- Node2&#45;&gt;Node1 -->
<g id="edge1" class="edge">
<title>Node2&#45;&gt;Node1</title>
<path fill="none" stroke="#63b8ff" d="M1886.09,-185.72C1909.2,-188.99 1935.74,-192.73 1957.52,-195.81"/>
<polygon fill="#63b8ff" stroke="#63b8ff" points="1886.6,-182.26 1876.21,-184.33 1885.62,-189.19 1886.6,-182.26"/>
</g>
<!-- Node3 -->
<g id="node3" class="node">
<title>Node3</title>
<g id="a_node3"><a xlink:title=" ">
<polygon fill="white" stroke="#666666" points="1645.5,-150 1511.75,-150 1511.75,-118 1645.5,-118 1645.5,-150"/>
<text text-anchor="start" x="1519.75" y="-136.5" font-family="Helvetica,sans-Serif" font-size="10.00">std::shared_ptr&lt; Exception</text>
<text text-anchor="middle" x="1578.62" y="-124.5" font-family="Helvetica,sans-Serif" font-size="10.00">::FMTexceptionhandler &gt;</text>
</a>
</g>
</g>
<!-- Node3&#45;&gt;Node2 -->
<g id="edge2" class="edge">
<title>Node3&#45;&gt;Node2</title>
<path fill="none" stroke="#9a32cd" stroke-dasharray="5,2" d="M1656.83,-136.66C1690.22,-139.05 1729.53,-143.56 1764.25,-152 1779.27,-155.65 1795.42,-162.08 1807.88,-167.63"/>
<polygon fill="#9a32cd" stroke="#9a32cd" points="1657.46,-133.19 1647.25,-136.02 1657,-140.18 1657.46,-133.19"/>
<text text-anchor="middle" x="1713.88" y="-154.5" font-family="Helvetica,sans-Serif" font-size="10.00"> _exhandler</text>
</g>
<!-- Node4 -->
<g id="node4" class="node">
<title>Node4</title>
<g id="a_node4"><a xlink:href="classException_1_1FMTexceptionhandler.html" target="_top" xlink:title=" ">
<polygon fill="white" stroke="#666666" points="1433,-126 1274.5,-126 1274.5,-106 1433,-106 1433,-126"/>
<text text-anchor="middle" x="1353.75" y="-112.5" font-family="Helvetica,sans-Serif" font-size="10.00">Exception::FMTexceptionhandler</text>
</a>
</g>
</g>
<!-- Node4&#45;&gt;Node3 -->
<g id="edge3" class="edge">
<title>Node4&#45;&gt;Node3</title>
<path fill="none" stroke="#9a32cd" stroke-dasharray="5,2" d="M1444.55,-123.25C1466.94,-125.06 1490.54,-126.97 1511.55,-128.66"/>
<polygon fill="#9a32cd" stroke="#9a32cd" points="1445.09,-119.78 1434.84,-122.47 1444.52,-126.76 1445.09,-119.78"/>
<text text-anchor="middle" x="1472.38" y="-130.5" font-family="Helvetica,sans-Serif" font-size="10.00"> ptr</text>
</g>
<!-- Node5 -->
<g id="node5" class="node">
<title>Node5</title>
<g id="a_node5"><a xlink:title=" ">
<polygon fill="white" stroke="#666666" points="1140.25,-182 1016.25,-182 1016.25,-150 1140.25,-150 1140.25,-182"/>
<text text-anchor="start" x="1024.25" y="-168.5" font-family="Helvetica,sans-Serif" font-size="10.00">std::shared_ptr&lt; Logging</text>
<text text-anchor="middle" x="1078.25" y="-156.5" font-family="Helvetica,sans-Serif" font-size="10.00">::FMTlogger &gt;</text>
</a>
</g>
</g>
<!-- Node5&#45;&gt;Node2 -->
<g id="edge19" class="edge">
<title>Node5&#45;&gt;Node2</title>
<path fill="none" stroke="#9a32cd" stroke-dasharray="5,2" d="M1151.83,-167.16C1306.11,-169.63 1662.65,-175.33 1786.25,-177.31"/>
<polygon fill="#9a32cd" stroke="#9a32cd" points="1152.2,-163.67 1142.15,-167.01 1152.09,-170.67 1152.2,-163.67"/>
<text text-anchor="middle" x="1472.38" y="-174.5" font-family="Helvetica,sans-Serif" font-size="10.00"> _logger</text>
</g>
<!-- Node5&#45;&gt;Node4 -->
<g id="edge4" class="edge">
<title>Node5&#45;&gt;Node4</title>
<path fill="none" stroke="#9a32cd" stroke-dasharray="5,2" d="M1151.81,-152.73C1196.88,-144.5 1253.97,-134.06 1295.78,-126.42"/>
<polygon fill="#9a32cd" stroke="#9a32cd" points="1151.33,-149.27 1142.12,-154.51 1152.58,-156.15 1151.33,-149.27"/>
<text text-anchor="middle" x="1207.38" y="-153.5" font-family="Helvetica,sans-Serif" font-size="10.00"> _logger</text>
</g>
<!-- Node6 -->
<g id="node6" class="node">
<title>Node6</title>
<g id="a_node6"><a xlink:href="classLogging_1_1FMTlogger.html" target="_top" xlink:title=" ">
<polygon fill="white" stroke="#666666" points="915,-173 813.5,-173 813.5,-153 915,-153 915,-173"/>
<text text-anchor="middle" x="864.25" y="-159.5" font-family="Helvetica,sans-Serif" font-size="10.00">Logging::FMTlogger</text>
</a>
</g>
</g>
<!-- Node6&#45;&gt;Node5 -->
<g id="edge5" class="edge">
<title>Node6&#45;&gt;Node5</title>
<path fill="none" stroke="#9a32cd" stroke-dasharray="5,2" d="M926.78,-163.87C954.84,-164.27 987.99,-164.74 1016.02,-165.13"/>
<polygon fill="#9a32cd" stroke="#9a32cd" points="927.05,-160.37 917,-163.73 926.95,-167.37 927.05,-160.37"/>
<text text-anchor="middle" x="970.88" y="-166.5" font-family="Helvetica,sans-Serif" font-size="10.00"> ptr</text>
</g>
<!-- Node7 -->
<g id="node7" class="node">
<title>Node7</title>
<g id="a_node7"><a xlink:title=" ">
<polygon fill="white" stroke="#666666" points="722,-181 598.75,-181 598.75,-149 722,-149 722,-181"/>
<text text-anchor="start" x="606.75" y="-167.5" font-family="Helvetica,sans-Serif" font-size="10.00">std::unique_ptr&lt; Logging</text>
<text text-anchor="middle" x="660.38" y="-155.5" font-family="Helvetica,sans-Serif" font-size="10.00">::FMTsolverlogger &gt;</text>
</a>
</g>
</g>
<!-- Node7&#45;&gt;Node6 -->
<g id="edge6" class="edge">
<title>Node7&#45;&gt;Node6</title>
<path fill="none" stroke="#9a32cd" stroke-dasharray="5,2" d="M733.74,-163.09C735.85,-163.06 737.94,-163.03 740,-163 764.07,-162.69 790.79,-162.66 813.18,-162.71"/>
<polygon fill="#9a32cd" stroke="#9a32cd" points="733.77,-159.59 723.84,-163.27 733.9,-166.59 733.77,-159.59"/>
<text text-anchor="middle" x="762.5" y="-165.5" font-family="Helvetica,sans-Serif" font-size="10.00"> solverref</text>
</g>
<!-- Node8 -->
<g id="node8" class="node">
<title>Node8</title>
<g id="a_node8"><a xlink:href="classLogging_1_1FMTsolverlogger.html" target="_top" xlink:title=" ">
<polygon fill="white" stroke="#666666" points="541.75,-175 415.5,-175 415.5,-155 541.75,-155 541.75,-175"/>
<text text-anchor="middle" x="478.62" y="-161.5" font-family="Helvetica,sans-Serif" font-size="10.00">Logging::FMTsolverlogger</text>
</a>
</g>
</g>
<!-- Node8&#45;&gt;Node7 -->
<g id="edge7" class="edge">
<title>Node8&#45;&gt;Node7</title>
<path fill="none" stroke="#9a32cd" stroke-dasharray="5,2" d="M553.53,-165C568.49,-165 584.05,-165 598.5,-165"/>
<polygon fill="#9a32cd" stroke="#9a32cd" points="553.75,-161.5 543.75,-165 553.75,-168.5 553.75,-161.5"/>
<text text-anchor="middle" x="573.62" y="-167.5" font-family="Helvetica,sans-Serif" font-size="10.00"> ptr</text>
</g>
<!-- Node9 -->
<g id="node9" class="node">
<title>Node9</title>
<g id="a_node9"><a xlink:title=" ">
<polygon fill="white" stroke="#666666" points="371.75,-175 263.5,-175 263.5,-155 371.75,-155 371.75,-175"/>
<text text-anchor="middle" x="317.62" y="-161.5" font-family="Helvetica,sans-Serif" font-size="10.00">CoinMessageHandler</text>
</a>
</g>
</g>
<!-- Node9&#45;&gt;Node8 -->
<g id="edge8" class="edge">
<title>Node9&#45;&gt;Node8</title>
<path fill="none" stroke="#63b8ff" d="M383.23,-165C393.72,-165 404.58,-165 415.03,-165"/>
<polygon fill="#63b8ff" stroke="#63b8ff" points="383.53,-161.5 373.53,-165 383.53,-168.5 383.53,-161.5"/>
</g>
<!-- Node10 -->
<g id="node10" class="node">
<title>Node10</title>
<g id="a_node10"><a xlink:title=" ">
<polygon fill="white" stroke="#666666" points="690.12,-234 630.62,-234 630.62,-214 690.12,-214 690.12,-234"/>
<text text-anchor="middle" x="660.38" y="-220.5" font-family="Helvetica,sans-Serif" font-size="10.00">std::string</text>
</a>
</g>
</g>
<!-- Node10&#45;&gt;Node1 -->
<g id="edge36" class="edge">
<title>Node10&#45;&gt;Node1</title>
<path fill="none" stroke="#9a32cd" stroke-dasharray="5,2" d="M701.8,-224C742.55,-224 807.27,-224 863.25,-224 863.25,-224 863.25,-224 1831.38,-224 1874.53,-224 1923.33,-216.94 1957.55,-210.82"/>
<polygon fill="#9a32cd" stroke="#9a32cd" points="701.97,-220.5 691.97,-224 701.97,-227.5 701.97,-220.5"/>
<text text-anchor="middle" x="1353.75" y="-250.5" font-family="Helvetica,sans-Serif" font-size="10.00"> description</text>
<text text-anchor="middle" x="1353.75" y="-238.5" font-family="Helvetica,sans-Serif" font-size="10.00">group</text>
<text text-anchor="middle" x="1353.75" y="-226.5" font-family="Helvetica,sans-Serif" font-size="10.00">name</text>
</g>
<!-- Node10&#45;&gt;Node6 -->
<g id="edge9" class="edge">
<title>Node10&#45;&gt;Node6</title>
<path fill="none" stroke="#9a32cd" stroke-dasharray="5,2" d="M701.32,-210.43C713.68,-206.32 727.37,-201.88 740,-198 768.28,-189.31 800.44,-180.21 824.82,-173.46"/>
<polygon fill="#9a32cd" stroke="#9a32cd" points="700.22,-207.1 691.84,-213.59 702.43,-213.74 700.22,-207.1"/>
<text text-anchor="middle" x="762.5" y="-200.5" font-family="Helvetica,sans-Serif" font-size="10.00"> filepath</text>
</g>
<!-- Node27 -->
<g id="node27" class="node">
<title>Node27</title>
<g id="a_node27"><a xlink:title=" ">
<polygon fill="white" stroke="#666666" points="925.5,-272 803,-272 803,-252 925.5,-252 925.5,-272"/>
<text text-anchor="middle" x="864.25" y="-258.5" font-family="Helvetica,sans-Serif" font-size="10.00">std::vector&lt; std::string &gt;</text>
</a>
</g>
</g>
<!-- Node10&#45;&gt;Node27 -->
<g id="edge30" class="edge">
<title>Node10&#45;&gt;Node27</title>
<path fill="none" stroke="#9a32cd" stroke-dasharray="5,2" d="M701.34,-231.52C731.76,-237.25 773.99,-245.2 807.7,-251.54"/>
<polygon fill="#9a32cd" stroke="#9a32cd" points="702.26,-228.13 691.79,-229.72 700.97,-235.01 702.26,-228.13"/>
<text text-anchor="middle" x="762.5" y="-248.5" font-family="Helvetica,sans-Serif" font-size="10.00"> elements</text>
</g>
<!-- Node11 -->
<g id="node11" class="node">
<title>Node11</title>
<g id="a_node11"><a xlink:title=" ">
<polygon fill="white" stroke="#666666" points="525.62,-240 431.62,-240 431.62,-208 525.62,-208 525.62,-240"/>
<text text-anchor="start" x="439.62" y="-226.5" font-family="Helvetica,sans-Serif" font-size="10.00">std::basic_string&lt;</text>
<text text-anchor="middle" x="478.62" y="-214.5" font-family="Helvetica,sans-Serif" font-size="10.00"> Char &gt;</text>
</a>
</g>
</g>
<!-- Node11&#45;&gt;Node10 -->
<g id="edge10" class="edge">
<title>Node11&#45;&gt;Node10</title>
<path fill="none" stroke="#63b8ff" d="M537.04,-224C568.04,-224 605,-224 630.13,-224"/>
<polygon fill="#63b8ff" stroke="#63b8ff" points="537.43,-220.5 527.43,-224 537.43,-227.5 537.43,-220.5"/>
</g>
<!-- Node12 -->
<g id="node12" class="node">
<title>Node12</title>
<g id="a_node12"><a xlink:title=" ">
<polygon fill="white" stroke="#666666" points="696.88,-131 623.88,-131 623.88,-111 696.88,-111 696.88,-131"/>
<text text-anchor="middle" x="660.38" y="-117.5" font-family="Helvetica,sans-Serif" font-size="10.00">std::ofstream</text>
</a>
</g>
</g>
<!-- Node12&#45;&gt;Node6 -->
<g id="edge11" class="edge">
<title>Node12&#45;&gt;Node6</title>
<path fill="none" stroke="#9a32cd" stroke-dasharray="5,2" d="M708.34,-130.33C731.44,-134.97 759.7,-140.69 785,-146 794.93,-148.08 805.56,-150.36 815.69,-152.55"/>
<polygon fill="#9a32cd" stroke="#9a32cd" points="709.08,-126.91 698.59,-128.38 707.71,-133.78 709.08,-126.91"/>
<text text-anchor="middle" x="762.5" y="-148.5" font-family="Helvetica,sans-Serif" font-size="10.00"> filestream</text>
</g>
<!-- Node13 -->
<g id="node13" class="node">
<title>Node13</title>
<g id="a_node13"><a xlink:title=" ">
<polygon fill="white" stroke="#666666" points="529.38,-137 427.88,-137 427.88,-105 529.38,-105 529.38,-137"/>
<text text-anchor="start" x="435.88" y="-123.5" font-family="Helvetica,sans-Serif" font-size="10.00">std::basic_ofstream</text>
<text text-anchor="middle" x="478.62" y="-111.5" font-family="Helvetica,sans-Serif" font-size="10.00">&lt; Char &gt;</text>
</a>
</g>
</g>
<!-- Node13&#45;&gt;Node12 -->
<g id="edge12" class="edge">
<title>Node13&#45;&gt;Node12</title>
<path fill="none" stroke="#63b8ff" d="M541.18,-121C568.63,-121 600.01,-121 623.53,-121"/>
<polygon fill="#63b8ff" stroke="#63b8ff" points="541.21,-117.5 531.21,-121 541.21,-124.5 541.21,-117.5"/>
</g>
<!-- Node14 -->
<g id="node14" class="node">
<title>Node14</title>
<g id="a_node14"><a xlink:title=" ">
<polygon fill="white" stroke="#666666" points="367.25,-137 268,-137 268,-105 367.25,-105 367.25,-137"/>
<text text-anchor="start" x="276" y="-123.5" font-family="Helvetica,sans-Serif" font-size="10.00">std::basic_ostream</text>
<text text-anchor="middle" x="317.62" y="-111.5" font-family="Helvetica,sans-Serif" font-size="10.00">&lt; Char &gt;</text>
</a>
</g>
</g>
<!-- Node14&#45;&gt;Node13 -->
<g id="edge13" class="edge">
<title>Node14&#45;&gt;Node13</title>
<path fill="none" stroke="#63b8ff" d="M379.02,-121C394.99,-121 412.05,-121 427.41,-121"/>
<polygon fill="#63b8ff" stroke="#63b8ff" points="379.14,-117.5 369.14,-121 379.14,-124.5 379.14,-117.5"/>
</g>
<!-- Node15 -->
<g id="node15" class="node">
<title>Node15</title>
<g id="a_node15"><a xlink:title=" ">
<polygon fill="white" stroke="#666666" points="226.5,-131 111.5,-131 111.5,-111 226.5,-111 226.5,-131"/>
<text text-anchor="middle" x="169" y="-117.5" font-family="Helvetica,sans-Serif" font-size="10.00">std::basic_ios&lt; Char &gt;</text>
</a>
</g>
</g>
<!-- Node15&#45;&gt;Node14 -->
<g id="edge14" class="edge">
<title>Node15&#45;&gt;Node14</title>
<path fill="none" stroke="#63b8ff" d="M237.93,-121C247.98,-121 258.16,-121 267.72,-121"/>
<polygon fill="#63b8ff" stroke="#63b8ff" points="238.2,-117.5 228.2,-121 238.2,-124.5 238.2,-117.5"/>
</g>
<!-- Node16 -->
<g id="node16" class="node">
<title>Node16</title>
<g id="a_node16"><a xlink:title=" ">
<polygon fill="white" stroke="#666666" points="74.5,-131 0,-131 0,-111 74.5,-111 74.5,-131"/>
<text text-anchor="middle" x="37.25" y="-117.5" font-family="Helvetica,sans-Serif" font-size="10.00">std::ios_base</text>
</a>
</g>
</g>
<!-- Node16&#45;&gt;Node15 -->
<g id="edge15" class="edge">
<title>Node16&#45;&gt;Node15</title>
<path fill="none" stroke="#63b8ff" d="M86.07,-121C94.32,-121 102.96,-121 111.41,-121"/>
<polygon fill="#63b8ff" stroke="#63b8ff" points="86.25,-117.5 76.25,-121 86.25,-124.5 86.25,-117.5"/>
</g>
<!-- Node17 -->
<g id="node17" class="node">
<title>Node17</title>
<g id="a_node17"><a xlink:title=" ">
<polygon fill="white" stroke="#666666" points="1135,-132 1021.5,-132 1021.5,-100 1135,-100 1135,-132"/>
<text text-anchor="start" x="1029.5" y="-118.5" font-family="Helvetica,sans-Serif" font-size="10.00">std::vector&lt; Exception</text>
<text text-anchor="middle" x="1078.25" y="-106.5" font-family="Helvetica,sans-Serif" font-size="10.00">::FMTexc &gt;</text>
</a>
</g>
</g>
<!-- Node17&#45;&gt;Node4 -->
<g id="edge16" class="edge">
<title>Node17&#45;&gt;Node4</title>
<path fill="none" stroke="#9a32cd" stroke-dasharray="5,2" d="M1146.37,-116C1184.95,-116 1233.62,-116 1274.01,-116"/>
<polygon fill="#9a32cd" stroke="#9a32cd" points="1146.77,-112.5 1136.77,-116 1146.77,-119.5 1146.77,-112.5"/>
<text text-anchor="middle" x="1207.38" y="-118.5" font-family="Helvetica,sans-Serif" font-size="10.00"> errorstowarnings</text>
</g>
<!-- Node18 -->
<g id="node18" class="node">
<title>Node18</title>
<g id="a_node18"><a xlink:title=" ">
<polygon fill="white" stroke="#666666" points="1135.75,-82 1020.75,-82 1020.75,-50 1135.75,-50 1135.75,-82"/>
<text text-anchor="start" x="1028.75" y="-68.5" font-family="Helvetica,sans-Serif" font-size="10.00">std::set&lt; boost::thread</text>
<text text-anchor="middle" x="1078.25" y="-56.5" font-family="Helvetica,sans-Serif" font-size="10.00">::id &gt;</text>
</a>
</g>
</g>
<!-- Node18&#45;&gt;Node4 -->
<g id="edge17" class="edge">
<title>Node18&#45;&gt;Node4</title>
<path fill="none" stroke="#9a32cd" stroke-dasharray="5,2" d="M1147.22,-78.43C1192.91,-86.78 1252.46,-97.66 1295.68,-105.57"/>
<polygon fill="#9a32cd" stroke="#9a32cd" points="1147.87,-74.99 1137.41,-76.63 1146.62,-81.87 1147.87,-74.99"/>
<text text-anchor="middle" x="1207.38" y="-101.5" font-family="Helvetica,sans-Serif" font-size="10.00"> registered_threads</text>
</g>
<!-- Node19 -->
<g id="node19" class="node">
<title>Node19</title>
<g id="a_node19"><a xlink:title=" ">
<polygon fill="white" stroke="#666666" points="1129.38,-32 1027.12,-32 1027.12,0 1129.38,0 1129.38,-32"/>
<text text-anchor="start" x="1035.12" y="-18.5" font-family="Helvetica,sans-Serif" font-size="10.00">std::unordered_map</text>
<text text-anchor="middle" x="1078.25" y="-6.5" font-family="Helvetica,sans-Serif" font-size="10.00">&lt; int, size_t &gt;</text>
</a>
</g>
</g>
<!-- Node19&#45;&gt;Node4 -->
<g id="edge18" class="edge">
<title>Node19&#45;&gt;Node4</title>
<path fill="none" stroke="#9a32cd" stroke-dasharray="5,2" d="M1140.76,-29.51C1175.37,-37.97 1219.02,-50.1 1256.5,-65 1285.49,-76.53 1317.1,-94.38 1335.9,-105.62"/>
<polygon fill="#9a32cd" stroke="#9a32cd" points="1141.88,-26.18 1131.34,-27.24 1140.24,-32.98 1141.88,-26.18"/>
<text text-anchor="middle" x="1207.38" y="-67.5" font-family="Helvetica,sans-Serif" font-size="10.00"> _specificwarningcount</text>
</g>
<!-- Node20 -->
<g id="node20" class="node">
<title>Node20</title>
<g id="a_node20"><a xlink:title=" ">
<polygon fill="white" stroke="#666666" points="1764.25,-297 1663.5,-297 1663.5,-265 1764.25,-265 1764.25,-297"/>
<text text-anchor="start" x="1671.5" y="-283.5" font-family="Helvetica,sans-Serif" font-size="10.00">std::vector&lt; Core::</text>
<text text-anchor="middle" x="1713.88" y="-271.5" font-family="Helvetica,sans-Serif" font-size="10.00">FMToutputsource &gt;</text>
</a>
</g>
</g>
<!-- Node20&#45;&gt;Node1 -->
<g id="edge20" class="edge">
<title>Node20&#45;&gt;Node1</title>
<path fill="none" stroke="#9a32cd" stroke-dasharray="5,2" d="M1775.83,-275.07C1822.01,-269.22 1886.44,-258.14 1940,-238 1957.11,-231.57 1974.95,-220.54 1986.96,-212.38"/>
<polygon fill="#9a32cd" stroke="#9a32cd" points="1775.5,-271.58 1766,-276.26 1776.35,-278.53 1775.5,-271.58"/>
<text text-anchor="middle" x="1830.38" y="-275.5" font-family="Helvetica,sans-Serif" font-size="10.00"> sources</text>
</g>
<!-- Node21 -->
<g id="node21" class="node">
<title>Node21</title>
<g id="a_node21"><a xlink:href="classCore_1_1FMToutputsource.html" target="_top" xlink:title=" ">
<polygon fill="white" stroke="#666666" points="1412.75,-321 1294.75,-321 1294.75,-301 1412.75,-301 1412.75,-321"/>
<text text-anchor="middle" x="1353.75" y="-307.5" font-family="Helvetica,sans-Serif" font-size="10.00">Core::FMToutputsource</text>
</a>
</g>
</g>
<!-- Node21&#45;&gt;Node20 -->
<g id="edge21" class="edge">
<title>Node21&#45;&gt;Node20</title>
<path fill="none" stroke="#9a32cd" stroke-dasharray="5,2" d="M1424.46,-305.16C1494.65,-299.28 1601.19,-290.36 1663.22,-285.16"/>
<polygon fill="#9a32cd" stroke="#9a32cd" points="1424.27,-301.66 1414.59,-305.99 1424.85,-308.64 1424.27,-301.66"/>
<text text-anchor="middle" x="1472.38" y="-304.5" font-family="Helvetica,sans-Serif" font-size="10.00"> elements</text>
</g>
<!-- Node22 -->
<g id="node22" class="node">
<title>Node22</title>
<g id="a_node22"><a xlink:href="classCore_1_1FMTspec.html" target="_top" xlink:title=" ">
<polygon fill="white" stroke="#666666" points="1119.62,-340 1036.88,-340 1036.88,-320 1119.62,-320 1119.62,-340"/>
<text text-anchor="middle" x="1078.25" y="-326.5" font-family="Helvetica,sans-Serif" font-size="10.00">Core::FMTspec</text>
</a>
</g>
</g>
<!-- Node22&#45;&gt;Node21 -->
<g id="edge22" class="edge">
<title>Node22&#45;&gt;Node21</title>
<path fill="none" stroke="#63b8ff" d="M1131.25,-326.39C1177.81,-323.15 1246.01,-318.42 1294.41,-315.05"/>
<polygon fill="#63b8ff" stroke="#63b8ff" points="1131.14,-322.89 1121.41,-327.07 1131.63,-329.87 1131.14,-322.89"/>
</g>
<!-- Node23 -->
<g id="node23" class="node">
<title>Node23</title>
<g id="a_node23"><a xlink:href="classCore_1_1FMTperbounds.html" target="_top" xlink:title=" ">
<polygon fill="white" stroke="#666666" points="917.62,-386 810.88,-386 810.88,-366 917.62,-366 917.62,-386"/>
<text text-anchor="middle" x="864.25" y="-372.5" font-family="Helvetica,sans-Serif" font-size="10.00">Core::FMTperbounds</text>
</a>
</g>
</g>
<!-- Node23&#45;&gt;Node22 -->
<g id="edge23" class="edge">
<title>Node23&#45;&gt;Node22</title>
<path fill="none" stroke="#9a32cd" stroke-dasharray="5,2" d="M929.04,-364.27C951.02,-360.03 975.77,-355.04 998.25,-350 1011.09,-347.12 1025.03,-343.7 1037.57,-340.5"/>
<polygon fill="#9a32cd" stroke="#9a32cd" points="928.47,-360.81 919.31,-366.13 929.78,-367.69 928.47,-360.81"/>
<text text-anchor="middle" x="970.88" y="-363.5" font-family="Helvetica,sans-Serif" font-size="10.00"> per</text>
</g>
<!-- Node24 -->
<g id="node24" class="node">
<title>Node24</title>
<g id="a_node24"><a xlink:href="classCore_1_1FMTbounds.html" target="_top" xlink:title=" ">
<polygon fill="white" stroke="#666666" points="721.25,-348 599.5,-348 599.5,-328 721.25,-328 721.25,-348"/>
<text text-anchor="middle" x="660.38" y="-334.5" font-family="Helvetica,sans-Serif" font-size="10.00">Core::FMTbounds&lt; int &gt;</text>
</a>
</g>
</g>
<!-- Node24&#45;&gt;Node23 -->
<g id="edge24" class="edge">
<title>Node24&#45;&gt;Node23</title>
<path fill="none" stroke="#63b8ff" d="M728.29,-350.6C755.03,-355.63 785.38,-361.34 810.51,-366.07"/>
<polygon fill="#63b8ff" stroke="#63b8ff" points="729.03,-347.17 718.56,-348.76 727.74,-354.05 729.03,-347.17"/>
</g>
<!-- Node25 -->
<g id="node25" class="node">
<title>Node25</title>
<g id="a_node25"><a xlink:href="classCore_1_1FMTagebounds.html" target="_top" xlink:title=" ">
<polygon fill="white" stroke="#666666" points="918.75,-348 809.75,-348 809.75,-328 918.75,-328 918.75,-348"/>
<text text-anchor="middle" x="864.25" y="-334.5" font-family="Helvetica,sans-Serif" font-size="10.00">Core::FMTagebounds</text>
</a>
</g>
</g>
<!-- Node24&#45;&gt;Node25 -->
<g id="edge26" class="edge">
<title>Node24&#45;&gt;Node25</title>
<path fill="none" stroke="#63b8ff" d="M733.02,-338C758.18,-338 786,-338 809.44,-338"/>
<polygon fill="#63b8ff" stroke="#63b8ff" points="733.18,-334.5 723.18,-338 733.18,-341.5 733.18,-334.5"/>
</g>
<!-- Node26 -->
<g id="node26" class="node">
<title>Node26</title>
<g id="a_node26"><a xlink:href="classCore_1_1FMTlockbounds.html" target="_top" xlink:title=" ">
<polygon fill="white" stroke="#666666" points="919.88,-310 808.62,-310 808.62,-290 919.88,-290 919.88,-310"/>
<text text-anchor="middle" x="864.25" y="-296.5" font-family="Helvetica,sans-Serif" font-size="10.00">Core::FMTlockbounds</text>
</a>
</g>
</g>
<!-- Node24&#45;&gt;Node26 -->
<g id="edge28" class="edge">
<title>Node24&#45;&gt;Node26</title>
<path fill="none" stroke="#63b8ff" d="M728.36,-325.39C754.35,-320.5 783.74,-314.97 808.43,-310.32"/>
<polygon fill="#63b8ff" stroke="#63b8ff" points="727.74,-321.95 718.56,-327.24 729.03,-328.83 727.74,-321.95"/>
</g>
<!-- Node25&#45;&gt;Node22 -->
<g id="edge25" class="edge">
<title>Node25&#45;&gt;Node22</title>
<path fill="none" stroke="#9a32cd" stroke-dasharray="5,2" d="M930.47,-335.54C965.1,-334.23 1006.57,-332.67 1036.59,-331.53"/>
<polygon fill="#9a32cd" stroke="#9a32cd" points="930.39,-332.04 920.53,-335.91 930.66,-339.03 930.39,-332.04"/>
<text text-anchor="middle" x="970.88" y="-336.5" font-family="Helvetica,sans-Serif" font-size="10.00"> age</text>
</g>
<!-- Node26&#45;&gt;Node22 -->
<g id="edge27" class="edge">
<title>Node26&#45;&gt;Node22</title>
<path fill="none" stroke="#9a32cd" stroke-dasharray="5,2" d="M931.55,-308C952.87,-310.7 976.58,-313.83 998.25,-317 1010.77,-318.83 1024.37,-321 1036.7,-323.04"/>
<polygon fill="#9a32cd" stroke="#9a32cd" points="932.17,-304.55 921.81,-306.78 931.3,-311.49 932.17,-304.55"/>
<text text-anchor="middle" x="970.88" y="-319.5" font-family="Helvetica,sans-Serif" font-size="10.00"> lock</text>
</g>
<!-- Node27&#45;&gt;Node22 -->
<g id="edge29" class="edge">
<title>Node27&#45;&gt;Node22</title>
<path fill="none" stroke="#9a32cd" stroke-dasharray="5,2" d="M933.13,-274.95C954.26,-279.74 977.46,-285.8 998.25,-293 1019.29,-300.29 1042.21,-311.41 1057.92,-319.55"/>
<polygon fill="#9a32cd" stroke="#9a32cd" points="933.96,-271.55 923.44,-272.81 932.46,-278.38 933.96,-271.55"/>
<text text-anchor="middle" x="970.88" y="-295.5" font-family="Helvetica,sans-Serif" font-size="10.00"> yieldnames</text>
</g>
<!-- Node28 -->
<g id="node28" class="node">
<title>Node28</title>
<g id="a_node28"><a xlink:title=" ">
<polygon fill="white" stroke="#666666" points="912.38,-436 816.12,-436 816.12,-404 912.38,-404 912.38,-436"/>
<text text-anchor="start" x="824.12" y="-422.5" font-family="Helvetica,sans-Serif" font-size="10.00">std::vector&lt; Core::</text>
<text text-anchor="middle" x="864.25" y="-410.5" font-family="Helvetica,sans-Serif" font-size="10.00">FMTyldbounds &gt;</text>
</a>
</g>
</g>
<!-- Node28&#45;&gt;Node22 -->
<g id="edge31" class="edge">
<title>Node28&#45;&gt;Node22</title>
<path fill="none" stroke="#9a32cd" stroke-dasharray="5,2" d="M923.61,-404.23C947.23,-397.05 974.49,-387.75 998.25,-377 1021.52,-366.48 1046.56,-350.75 1062.07,-340.43"/>
<polygon fill="#9a32cd" stroke="#9a32cd" points="922.72,-400.84 914.14,-407.04 924.72,-407.55 922.72,-400.84"/>
<text text-anchor="middle" x="970.88" y="-399.5" font-family="Helvetica,sans-Serif" font-size="10.00"> yieldbounds</text>
</g>
<!-- Node29 -->
<g id="node29" class="node">
<title>Node29</title>
<g id="a_node29"><a xlink:href="classCore_1_1FMTyldbounds.html" target="_top" xlink:title=" ">
<polygon fill="white" stroke="#666666" points="713.38,-430 607.38,-430 607.38,-410 713.38,-410 713.38,-430"/>
<text text-anchor="middle" x="660.38" y="-416.5" font-family="Helvetica,sans-Serif" font-size="10.00">Core::FMTyldbounds</text>
</a>
</g>
</g>
<!-- Node29&#45;&gt;Node28 -->
<g id="edge32" class="edge">
<title>Node29&#45;&gt;Node28</title>
<path fill="none" stroke="#9a32cd" stroke-dasharray="5,2" d="M725.03,-420C754.39,-420 788.65,-420 815.71,-420"/>
<polygon fill="#9a32cd" stroke="#9a32cd" points="725.14,-416.5 715.14,-420 725.14,-423.5 725.14,-416.5"/>
<text text-anchor="middle" x="762.5" y="-422.5" font-family="Helvetica,sans-Serif" font-size="10.00"> elements</text>
</g>
<!-- Node30 -->
<g id="node30" class="node">
<title>Node30</title>
<g id="a_node30"><a xlink:href="classCore_1_1FMTbounds.html" target="_top" xlink:title=" ">
<polygon fill="white" stroke="#666666" points="548.5,-430 408.75,-430 408.75,-410 548.5,-410 548.5,-430"/>
<text text-anchor="middle" x="478.62" y="-416.5" font-family="Helvetica,sans-Serif" font-size="10.00">Core::FMTbounds&lt; double &gt;</text>
</a>
</g>
</g>
<!-- Node30&#45;&gt;Node29 -->
<g id="edge33" class="edge">
<title>Node30&#45;&gt;Node29</title>
<path fill="none" stroke="#63b8ff" d="M560.29,-420C576.11,-420 592.32,-420 606.92,-420"/>
<polygon fill="#63b8ff" stroke="#63b8ff" points="560.38,-416.5 550.38,-420 560.38,-423.5 560.38,-416.5"/>
</g>
<!-- Node31 -->
<g id="node31" class="node">
<title>Node31</title>
<g id="a_node31"><a xlink:title=" ">
<polygon fill="white" stroke="#666666" points="1878.5,-128 1782.25,-128 1782.25,-96 1878.5,-96 1878.5,-128"/>
<text text-anchor="start" x="1790.25" y="-114.5" font-family="Helvetica,sans-Serif" font-size="10.00">std::vector&lt; Core::</text>
<text text-anchor="middle" x="1830.38" y="-102.5" font-family="Helvetica,sans-Serif" font-size="10.00">FMToperator &gt;</text>
</a>
</g>
</g>
<!-- Node31&#45;&gt;Node1 -->
<g id="edge34" class="edge">
<title>Node31&#45;&gt;Node1</title>
<path fill="none" stroke="#9a32cd" stroke-dasharray="5,2" d="M1872.02,-133.52C1906.78,-151.92 1955.29,-177.6 1981.93,-191.71"/>
<polygon fill="#9a32cd" stroke="#9a32cd" points="1873.97,-130.59 1863.5,-129.01 1870.7,-136.78 1873.97,-130.59"/>
<text text-anchor="middle" x="1918.25" y="-169.5" font-family="Helvetica,sans-Serif" font-size="10.00"> operators</text>
</g>
<!-- Node32 -->
<g id="node32" class="node">
<title>Node32</title>
<g id="a_node32"><a xlink:href="classCore_1_1FMToperator.html" target="_top" xlink:title=" ">
<polygon fill="white" stroke="#666666" points="1627.12,-100 1530.12,-100 1530.12,-80 1627.12,-80 1627.12,-100"/>
<text text-anchor="middle" x="1578.62" y="-86.5" font-family="Helvetica,sans-Serif" font-size="10.00">Core::FMToperator</text>
</a>
</g>
</g>
<!-- Node32&#45;&gt;Node31 -->
<g id="edge35" class="edge">
<title>Node32&#45;&gt;Node31</title>
<path fill="none" stroke="#9a32cd" stroke-dasharray="5,2" d="M1638.84,-95.22C1682.62,-99.07 1741.45,-104.25 1782.1,-107.84"/>
<polygon fill="#9a32cd" stroke="#9a32cd" points="1639.26,-91.74 1628.99,-94.35 1638.65,-98.71 1639.26,-91.74"/>
<text text-anchor="middle" x="1713.88" y="-109.5" font-family="Helvetica,sans-Serif" font-size="10.00"> elements</text>
</g>
</g>
</svg>
