<?xml version="1.0" encoding="UTF-8" standalone="no"?>
<!DOCTYPE svg PUBLIC "-//W3C//DTD SVG 1.1//EN"
 "http://www.w3.org/Graphics/SVG/1.1/DTD/svg11.dtd">
<!-- Generated by graphviz version 10.0.1 (20240210.2158)
 -->
<!-- Title: Core::FMTyieldmodelpools Pages: 1 -->
<svg width="1137pt" height="936pt"
 viewBox="0.00 0.00 1136.62 936.00" xmlns="http://www.w3.org/2000/svg" xmlns:xlink="http://www.w3.org/1999/xlink">
<g id="graph0" class="graph" transform="scale(1 1) rotate(0) translate(4 932)">
<title>Core::FMTyieldmodelpools</title>
<!-- Node1 -->
<g id="node1" class="node">
<title>Node1</title>
<g id="a_node1"><a xlink:title=" ">
<polygon fill="#999999" stroke="#666666" points="866.88,-20 735.38,-20 735.38,0 866.88,0 866.88,-20"/>
<text text-anchor="middle" x="801.12" y="-6.5" font-family="Helvetica,sans-Serif" font-size="10.00">Core::FMTyieldmodelpools</text>
</a>
</g>
</g>
<!-- Node2 -->
<g id="node2" class="node">
<title>Node2</title>
<g id="a_node2"><a xlink:href="classCore_1_1FMTyieldmodelnn.html" target="_top" xlink:title=" ">
<polygon fill="white" stroke="#666666" points="860.5,-77 741.75,-77 741.75,-57 860.5,-57 860.5,-77"/>
<text text-anchor="middle" x="801.12" y="-63.5" font-family="Helvetica,sans-Serif" font-size="10.00">Core::FMTyieldmodelnn</text>
</a>
</g>
</g>
<!-- Node2&#45;&gt;Node1 -->
<g id="edge1" class="edge">
<title>Node2&#45;&gt;Node1</title>
<path fill="none" stroke="#63b8ff" d="M801.12,-45.69C801.12,-36.97 801.12,-27.22 801.12,-20.28"/>
<polygon fill="#63b8ff" stroke="#63b8ff" points="797.63,-45.4 801.13,-55.4 804.63,-45.4 797.63,-45.4"/>
</g>
<!-- Node3 -->
<g id="node3" class="node">
<title>Node3</title>
<g id="a_node3"><a xlink:href="classCore_1_1FMTyieldmodel.html" target="_top" xlink:title=" ">
<polygon fill="white" stroke="#666666" points="614.25,-163 506,-163 506,-143 614.25,-143 614.25,-163"/>
<text text-anchor="middle" x="560.12" y="-149.5" font-family="Helvetica,sans-Serif" font-size="10.00">Core::FMTyieldmodel</text>
</a>
</g>
</g>
<!-- Node3&#45;&gt;Node2 -->
<g id="edge2" class="edge">
<title>Node3&#45;&gt;Node2</title>
<path fill="none" stroke="#63b8ff" d="M581.86,-135.85C600.41,-122.87 628.26,-105.16 655.12,-95 682.61,-84.6 714.57,-78.11 741.57,-74.11"/>
<polygon fill="#63b8ff" stroke="#63b8ff" points="579.9,-132.95 573.82,-141.63 583.98,-138.64 579.9,-132.95"/>
</g>
<!-- Node4 -->
<g id="node4" class="node">
<title>Node4</title>
<g id="a_node4"><a xlink:href="classCore_1_1FMTobject.html" target="_top" xlink:title=" ">
<polygon fill="white" stroke="#666666" points="509.12,-237 421.12,-237 421.12,-217 509.12,-217 509.12,-237"/>
<text text-anchor="middle" x="465.12" y="-223.5" font-family="Helvetica,sans-Serif" font-size="10.00">Core::FMTobject</text>
</a>
</g>
</g>
<!-- Node4&#45;&gt;Node3 -->
<g id="edge3" class="edge">
<title>Node4&#45;&gt;Node3</title>
<path fill="none" stroke="#63b8ff" d="M486.58,-209.74C505.43,-195.46 532.2,-175.17 547.7,-163.42"/>
<polygon fill="#63b8ff" stroke="#63b8ff" points="484.61,-206.84 478.75,-215.67 488.83,-212.42 484.61,-206.84"/>
</g>
<!-- Node5 -->
<g id="node5" class="node">
<title>Node5</title>
<g id="a_node5"><a xlink:title=" ">
<polygon fill="white" stroke="#666666" points="422,-317 288.25,-317 288.25,-285 422,-285 422,-317"/>
<text text-anchor="start" x="296.25" y="-303.5" font-family="Helvetica,sans-Serif" font-size="10.00">std::shared_ptr&lt; Exception</text>
<text text-anchor="middle" x="355.12" y="-291.5" font-family="Helvetica,sans-Serif" font-size="10.00">::FMTexceptionhandler &gt;</text>
</a>
</g>
</g>
<!-- Node5&#45;&gt;Node4 -->
<g id="edge4" class="edge">
<title>Node5&#45;&gt;Node4</title>
<path fill="none" stroke="#9a32cd" stroke-dasharray="5,2" d="M375.42,-276.74C382.88,-269.13 391.75,-261.08 400.88,-255 411.65,-247.82 424.64,-241.93 436.12,-237.5"/>
<polygon fill="#9a32cd" stroke="#9a32cd" points="373.26,-273.93 368.96,-283.62 378.36,-278.72 373.26,-273.93"/>
<text text-anchor="middle" x="426.25" y="-257.5" font-family="Helvetica,sans-Serif" font-size="10.00"> _exhandler</text>
</g>
<!-- Node6 -->
<g id="node6" class="node">
<title>Node6</title>
<g id="a_node6"><a xlink:href="classException_1_1FMTexceptionhandler.html" target="_top" xlink:title=" ">
<polygon fill="white" stroke="#666666" points="388.38,-435 229.88,-435 229.88,-415 388.38,-415 388.38,-435"/>
<text text-anchor="middle" x="309.12" y="-421.5" font-family="Helvetica,sans-Serif" font-size="10.00">Exception::FMTexceptionhandler</text>
</a>
</g>
</g>
<!-- Node6&#45;&gt;Node5 -->
<g id="edge5" class="edge">
<title>Node6&#45;&gt;Node5</title>
<path fill="none" stroke="#9a32cd" stroke-dasharray="5,2" d="M316.64,-404.07C325.81,-379.76 341.1,-339.2 349.38,-317.24"/>
<polygon fill="#9a32cd" stroke="#9a32cd" points="313.37,-402.82 313.12,-413.41 319.92,-405.29 313.37,-402.82"/>
<text text-anchor="middle" x="349.25" y="-361.5" font-family="Helvetica,sans-Serif" font-size="10.00"> ptr</text>
</g>
<!-- Node7 -->
<g id="node7" class="node">
<title>Node7</title>
<g id="a_node7"><a xlink:title=" ">
<polygon fill="white" stroke="#666666" points="509.12,-517 385.12,-517 385.12,-485 509.12,-485 509.12,-517"/>
<text text-anchor="start" x="393.12" y="-503.5" font-family="Helvetica,sans-Serif" font-size="10.00">std::shared_ptr&lt; Logging</text>
<text text-anchor="middle" x="447.12" y="-491.5" font-family="Helvetica,sans-Serif" font-size="10.00">::FMTlogger &gt;</text>
</a>
</g>
</g>
<!-- Node7&#45;&gt;Node4 -->
<g id="edge21" class="edge">
<title>Node7&#45;&gt;Node4</title>
<path fill="none" stroke="#9a32cd" stroke-dasharray="5,2" d="M448.89,-473.29C452.8,-414.26 462.01,-275 464.5,-237.46"/>
<polygon fill="#9a32cd" stroke="#9a32cd" points="445.41,-472.88 448.24,-483.09 452.4,-473.34 445.41,-472.88"/>
<text text-anchor="middle" x="475.38" y="-361.5" font-family="Helvetica,sans-Serif" font-size="10.00"> _logger</text>
</g>
<!-- Node7&#45;&gt;Node6 -->
<g id="edge6" class="edge">
<title>Node7&#45;&gt;Node6</title>
<path fill="none" stroke="#9a32cd" stroke-dasharray="5,2" d="M423.38,-477.03C414.42,-469.26 403.81,-461.03 393.12,-455 378.34,-446.66 360.76,-440.14 345.5,-435.4"/>
<polygon fill="#9a32cd" stroke="#9a32cd" points="420.83,-479.44 430.6,-483.54 425.52,-474.25 420.83,-479.44"/>
<text text-anchor="middle" x="428.38" y="-457.5" font-family="Helvetica,sans-Serif" font-size="10.00"> _logger</text>
</g>
<!-- Node8 -->
<g id="node8" class="node">
<title>Node8</title>
<g id="a_node8"><a xlink:href="classLogging_1_1FMTlogger.html" target="_top" xlink:title=" ">
<polygon fill="white" stroke="#666666" points="486.88,-585 385.38,-585 385.38,-565 486.88,-565 486.88,-585"/>
<text text-anchor="middle" x="436.12" y="-571.5" font-family="Helvetica,sans-Serif" font-size="10.00">Logging::FMTlogger</text>
</a>
</g>
</g>
<!-- Node8&#45;&gt;Node7 -->
<g id="edge7" class="edge">
<title>Node8&#45;&gt;Node7</title>
<path fill="none" stroke="#9a32cd" stroke-dasharray="5,2" d="M439.26,-553.46C441.01,-542.01 443.15,-527.99 444.76,-517.47"/>
<polygon fill="#9a32cd" stroke="#9a32cd" points="435.84,-552.68 437.79,-563.09 442.76,-553.73 435.84,-552.68"/>
<text text-anchor="middle" x="449.25" y="-537.5" font-family="Helvetica,sans-Serif" font-size="10.00"> ptr</text>
</g>
<!-- Node9 -->
<g id="node9" class="node">
<title>Node9</title>
<g id="a_node9"><a xlink:title=" ">
<polygon fill="white" stroke="#666666" points="381.75,-665 258.5,-665 258.5,-633 381.75,-633 381.75,-665"/>
<text text-anchor="start" x="266.5" y="-651.5" font-family="Helvetica,sans-Serif" font-size="10.00">std::unique_ptr&lt; Logging</text>
<text text-anchor="middle" x="320.12" y="-639.5" font-family="Helvetica,sans-Serif" font-size="10.00">::FMTsolverlogger &gt;</text>
</a>
</g>
</g>
<!-- Node9&#45;&gt;Node8 -->
<g id="edge8" class="edge">
<title>Node9&#45;&gt;Node8</title>
<path fill="none" stroke="#9a32cd" stroke-dasharray="5,2" d="M348.48,-625.8C358.75,-618.18 370.59,-609.85 381.88,-603 392.49,-596.56 404.84,-590.32 415.08,-585.46"/>
<polygon fill="#9a32cd" stroke="#9a32cd" points="346.64,-622.8 340.77,-631.62 350.86,-628.39 346.64,-622.8"/>
<text text-anchor="middle" x="401.25" y="-605.5" font-family="Helvetica,sans-Serif" font-size="10.00"> solverref</text>
</g>
<!-- Node10 -->
<g id="node10" class="node">
<title>Node10</title>
<g id="a_node10"><a xlink:href="classLogging_1_1FMTsolverlogger.html" target="_top" xlink:title=" ">
<polygon fill="white" stroke="#666666" points="378.25,-739 252,-739 252,-719 378.25,-719 378.25,-739"/>
<text text-anchor="middle" x="315.12" y="-725.5" font-family="Helvetica,sans-Serif" font-size="10.00">Logging::FMTsolverlogger</text>
</a>
</g>
</g>
<!-- Node10&#45;&gt;Node9 -->
<g id="edge9" class="edge">
<title>Node10&#45;&gt;Node9</title>
<path fill="none" stroke="#9a32cd" stroke-dasharray="5,2" d="M316.44,-707.51C317.28,-694.32 318.36,-677.47 319.14,-665.42"/>
<polygon fill="#9a32cd" stroke="#9a32cd" points="312.96,-707.03 315.82,-717.24 319.95,-707.48 312.96,-707.03"/>
<text text-anchor="middle" x="325.25" y="-685.5" font-family="Helvetica,sans-Serif" font-size="10.00"> ptr</text>
</g>
<!-- Node11 -->
<g id="node11" class="node">
<title>Node11</title>
<g id="a_node11"><a xlink:title=" ">
<polygon fill="white" stroke="#666666" points="369.25,-808 261,-808 261,-788 369.25,-788 369.25,-808"/>
<text text-anchor="middle" x="315.12" y="-794.5" font-family="Helvetica,sans-Serif" font-size="10.00">CoinMessageHandler</text>
</a>
</g>
</g>
<!-- Node11&#45;&gt;Node10 -->
<g id="edge10" class="edge">
<title>Node11&#45;&gt;Node10</title>
<path fill="none" stroke="#63b8ff" d="M315.12,-776.51C315.12,-764.07 315.12,-748.81 315.12,-739.24"/>
<polygon fill="#63b8ff" stroke="#63b8ff" points="311.63,-776.17 315.13,-786.17 318.63,-776.17 311.63,-776.17"/>
</g>
<!-- Node12 -->
<g id="node12" class="node">
<title>Node12</title>
<g id="a_node12"><a xlink:title=" ">
<polygon fill="white" stroke="#666666" points="656.88,-659 597.38,-659 597.38,-639 656.88,-639 656.88,-659"/>
<text text-anchor="middle" x="627.12" y="-645.5" font-family="Helvetica,sans-Serif" font-size="10.00">std::string</text>
</a>
</g>
</g>
<!-- Node12&#45;&gt;Node2 -->
<g id="edge27" class="edge">
<title>Node12&#45;&gt;Node2</title>
<path fill="none" stroke="#9a32cd" stroke-dasharray="5,2" d="M668.38,-643.25C707.76,-636.15 761.12,-618.67 761.12,-576 761.12,-576 761.12,-576 761.12,-152 761.12,-122.28 781.79,-91.89 793.41,-77.14"/>
<polygon fill="#9a32cd" stroke="#9a32cd" points="668,-639.77 658.69,-644.82 669.12,-646.68 668,-639.77"/>
<text text-anchor="middle" x="837.25" y="-385.5" font-family="Helvetica,sans-Serif" font-size="10.00"> JSON_PROP_MODEL_OUTPUTS</text>
<text text-anchor="middle" x="837.25" y="-373.5" font-family="Helvetica,sans-Serif" font-size="10.00">JSON_PROP_MODEL_TYPE</text>
<text text-anchor="middle" x="837.25" y="-361.5" font-family="Helvetica,sans-Serif" font-size="10.00">JSON_PROP_MODEL_YIELDS</text>
<text text-anchor="middle" x="837.25" y="-349.5" font-family="Helvetica,sans-Serif" font-size="10.00">JSON_PROP_STAND_FILE_PATH</text>
<text text-anchor="middle" x="837.25" y="-337.5" font-family="Helvetica,sans-Serif" font-size="10.00">modelType</text>
</g>
<!-- Node12&#45;&gt;Node3 -->
<g id="edge22" class="edge">
<title>Node12&#45;&gt;Node3</title>
<path fill="none" stroke="#9a32cd" stroke-dasharray="5,2" d="M589.85,-634.02C566.24,-622.47 540.12,-603.5 540.12,-576 540.12,-576 540.12,-576 540.12,-226 540.12,-202.65 550.01,-176.54 555.88,-163.09"/>
<polygon fill="#9a32cd" stroke="#9a32cd" points="588.14,-637.09 598.7,-638.03 591.04,-630.71 588.14,-637.09"/>
<text text-anchor="middle" x="607.62" y="-427.5" font-family="Helvetica,sans-Serif" font-size="10.00"> JSON_PROP_MODEL_NAME</text>
<text text-anchor="middle" x="607.62" y="-415.5" font-family="Helvetica,sans-Serif" font-size="10.00">modelName</text>
</g>
<!-- Node12&#45;&gt;Node8 -->
<g id="edge11" class="edge">
<title>Node12&#45;&gt;Node8</title>
<path fill="none" stroke="#9a32cd" stroke-dasharray="5,2" d="M585.78,-641.92C558.44,-636.93 522.26,-628.46 492.38,-615 475.26,-607.29 457.84,-594.24 447.02,-585.38"/>
<polygon fill="#9a32cd" stroke="#9a32cd" points="584.98,-645.33 595.43,-643.59 586.17,-638.43 584.98,-645.33"/>
<text text-anchor="middle" x="510" y="-605.5" font-family="Helvetica,sans-Serif" font-size="10.00"> filepath</text>
</g>
<!-- Node22 -->
<g id="node22" class="node">
<title>Node22</title>
<g id="a_node22"><a xlink:title=" ">
<polygon fill="white" stroke="#666666" points="730.38,-237 607.88,-237 607.88,-217 730.38,-217 730.38,-237"/>
<text text-anchor="middle" x="669.12" y="-223.5" font-family="Helvetica,sans-Serif" font-size="10.00">std::vector&lt; std::string &gt;</text>
</a>
</g>
</g>
<!-- Node12&#45;&gt;Node22 -->
<g id="edge24" class="edge">
<title>Node12&#45;&gt;Node22</title>
<path fill="none" stroke="#9a32cd" stroke-dasharray="5,2" d="M659,-633.18C679.81,-621.08 703.12,-601.77 703.12,-576 703.12,-576 703.12,-576 703.12,-300 703.12,-275.39 686.69,-250.2 676.67,-237.13"/>
<polygon fill="#9a32cd" stroke="#9a32cd" points="657.57,-629.98 650.44,-637.82 660.9,-636.14 657.57,-629.98"/>
<text text-anchor="middle" x="724.5" y="-457.5" font-family="Helvetica,sans-Serif" font-size="10.00"> elements</text>
</g>
<!-- Node13 -->
<g id="node13" class="node">
<title>Node13</title>
<g id="a_node13"><a xlink:title=" ">
<polygon fill="white" stroke="#666666" points="674.12,-745 580.12,-745 580.12,-713 674.12,-713 674.12,-745"/>
<text text-anchor="start" x="588.12" y="-731.5" font-family="Helvetica,sans-Serif" font-size="10.00">std::basic_string&lt;</text>
<text text-anchor="middle" x="627.12" y="-719.5" font-family="Helvetica,sans-Serif" font-size="10.00"> Char &gt;</text>
</a>
</g>
</g>
<!-- Node13&#45;&gt;Node12 -->
<g id="edge12" class="edge">
<title>Node13&#45;&gt;Node12</title>
<path fill="none" stroke="#63b8ff" d="M627.12,-701.23C627.12,-686.77 627.12,-669.81 627.12,-659.49"/>
<polygon fill="#63b8ff" stroke="#63b8ff" points="623.63,-701.08 627.13,-711.08 630.63,-701.08 623.63,-701.08"/>
</g>
<!-- Node14 -->
<g id="node14" class="node">
<title>Node14</title>
<g id="a_node14"><a xlink:title=" ">
<polygon fill="white" stroke="#666666" points="474.62,-659 401.62,-659 401.62,-639 474.62,-639 474.62,-659"/>
<text text-anchor="middle" x="438.12" y="-645.5" font-family="Helvetica,sans-Serif" font-size="10.00">std::ofstream</text>
</a>
</g>
</g>
<!-- Node14&#45;&gt;Node8 -->
<g id="edge13" class="edge">
<title>Node14&#45;&gt;Node8</title>
<path fill="none" stroke="#9a32cd" stroke-dasharray="5,2" d="M428.23,-628.21C426.53,-623.95 425.02,-619.41 424.12,-615 423.06,-609.77 423.02,-608.22 424.12,-603 425.45,-596.78 428.3,-590.25 430.9,-585.17"/>
<polygon fill="#9a32cd" stroke="#9a32cd" points="424.95,-629.47 432.27,-637.13 431.33,-626.58 424.95,-629.47"/>
<text text-anchor="middle" x="446.62" y="-605.5" font-family="Helvetica,sans-Serif" font-size="10.00"> filestream</text>
</g>
<!-- Node15 -->
<g id="node15" class="node">
<title>Node15</title>
<g id="a_node15"><a xlink:title=" ">
<polygon fill="white" stroke="#666666" points="497.88,-745 396.38,-745 396.38,-713 497.88,-713 497.88,-745"/>
<text text-anchor="start" x="404.38" y="-731.5" font-family="Helvetica,sans-Serif" font-size="10.00">std::basic_ofstream</text>
<text text-anchor="middle" x="447.12" y="-719.5" font-family="Helvetica,sans-Serif" font-size="10.00">&lt; Char &gt;</text>
</a>
</g>
</g>
<!-- Node15&#45;&gt;Node14 -->
<g id="edge14" class="edge">
<title>Node15&#45;&gt;Node14</title>
<path fill="none" stroke="#63b8ff" d="M444.04,-701.23C442.37,-686.77 440.41,-669.81 439.22,-659.49"/>
<polygon fill="#63b8ff" stroke="#63b8ff" points="440.55,-701.55 445.17,-711.09 447.5,-700.75 440.55,-701.55"/>
</g>
<!-- Node16 -->
<g id="node16" class="node">
<title>Node16</title>
<g id="a_node16"><a xlink:title=" ">
<polygon fill="white" stroke="#666666" points="496.75,-814 397.5,-814 397.5,-782 496.75,-782 496.75,-814"/>
<text text-anchor="start" x="405.5" y="-800.5" font-family="Helvetica,sans-Serif" font-size="10.00">std::basic_ostream</text>
<text text-anchor="middle" x="447.12" y="-788.5" font-family="Helvetica,sans-Serif" font-size="10.00">&lt; Char &gt;</text>
</a>
</g>
</g>
<!-- Node16&#45;&gt;Node15 -->
<g id="edge15" class="edge">
<title>Node16&#45;&gt;Node15</title>
<path fill="none" stroke="#63b8ff" d="M447.12,-770.35C447.12,-761.78 447.12,-752.59 447.12,-745.14"/>
<polygon fill="#63b8ff" stroke="#63b8ff" points="443.63,-770.28 447.13,-780.28 450.63,-770.28 443.63,-770.28"/>
</g>
<!-- Node17 -->
<g id="node17" class="node">
<title>Node17</title>
<g id="a_node17"><a xlink:title=" ">
<polygon fill="white" stroke="#666666" points="504.62,-871 389.62,-871 389.62,-851 504.62,-851 504.62,-871"/>
<text text-anchor="middle" x="447.12" y="-857.5" font-family="Helvetica,sans-Serif" font-size="10.00">std::basic_ios&lt; Char &gt;</text>
</a>
</g>
</g>
<!-- Node17&#45;&gt;Node16 -->
<g id="edge16" class="edge">
<title>Node17&#45;&gt;Node16</title>
<path fill="none" stroke="#63b8ff" d="M447.12,-839.36C447.12,-831.07 447.12,-821.69 447.12,-814.06"/>
<polygon fill="#63b8ff" stroke="#63b8ff" points="443.63,-839.22 447.13,-849.22 450.63,-839.22 443.63,-839.22"/>
</g>
<!-- Node18 -->
<g id="node18" class="node">
<title>Node18</title>
<g id="a_node18"><a xlink:title=" ">
<polygon fill="white" stroke="#666666" points="484.38,-928 409.88,-928 409.88,-908 484.38,-908 484.38,-928"/>
<text text-anchor="middle" x="447.12" y="-914.5" font-family="Helvetica,sans-Serif" font-size="10.00">std::ios_base</text>
</a>
</g>
</g>
<!-- Node18&#45;&gt;Node17 -->
<g id="edge17" class="edge">
<title>Node18&#45;&gt;Node17</title>
<path fill="none" stroke="#63b8ff" d="M447.12,-896.69C447.12,-887.97 447.12,-878.22 447.12,-871.28"/>
<polygon fill="#63b8ff" stroke="#63b8ff" points="443.63,-896.4 447.13,-906.4 450.63,-896.4 443.63,-896.4"/>
</g>
<!-- Node19 -->
<g id="node19" class="node">
<title>Node19</title>
<g id="a_node19"><a xlink:title=" ">
<polygon fill="white" stroke="#666666" points="233.88,-517 120.38,-517 120.38,-485 233.88,-485 233.88,-517"/>
<text text-anchor="start" x="128.38" y="-503.5" font-family="Helvetica,sans-Serif" font-size="10.00">std::vector&lt; Exception</text>
<text text-anchor="middle" x="177.12" y="-491.5" font-family="Helvetica,sans-Serif" font-size="10.00">::FMTexc &gt;</text>
</a>
</g>
</g>
<!-- Node19&#45;&gt;Node6 -->
<g id="edge18" class="edge">
<title>Node19&#45;&gt;Node6</title>
<path fill="none" stroke="#9a32cd" stroke-dasharray="5,2" d="M200.82,-477.16C209.74,-469.4 220.3,-461.14 230.88,-455 244.91,-446.85 261.64,-440.28 276.02,-435.47"/>
<polygon fill="#9a32cd" stroke="#9a32cd" points="198.71,-474.35 193.63,-483.65 203.4,-479.55 198.71,-474.35"/>
<text text-anchor="middle" x="268.25" y="-457.5" font-family="Helvetica,sans-Serif" font-size="10.00"> errorstowarnings</text>
</g>
<!-- Node20 -->
<g id="node20" class="node">
<title>Node20</title>
<g id="a_node20"><a xlink:title=" ">
<polygon fill="white" stroke="#666666" points="366.62,-517 251.62,-517 251.62,-485 366.62,-485 366.62,-517"/>
<text text-anchor="start" x="259.62" y="-503.5" font-family="Helvetica,sans-Serif" font-size="10.00">std::set&lt; boost::thread</text>
<text text-anchor="middle" x="309.12" y="-491.5" font-family="Helvetica,sans-Serif" font-size="10.00">::id &gt;</text>
</a>
</g>
</g>
<!-- Node20&#45;&gt;Node6 -->
<g id="edge19" class="edge">
<title>Node20&#45;&gt;Node6</title>
<path fill="none" stroke="#9a32cd" stroke-dasharray="5,2" d="M309.12,-473.22C309.12,-459.92 309.12,-444.72 309.12,-435.24"/>
<polygon fill="#9a32cd" stroke="#9a32cd" points="305.63,-473.15 309.13,-483.15 312.63,-473.15 305.63,-473.15"/>
<text text-anchor="middle" x="350.75" y="-457.5" font-family="Helvetica,sans-Serif" font-size="10.00"> registered_threads</text>
</g>
<!-- Node21 -->
<g id="node21" class="node">
<title>Node21</title>
<g id="a_node21"><a xlink:title=" ">
<polygon fill="white" stroke="#666666" points="102.25,-517 0,-517 0,-485 102.25,-485 102.25,-517"/>
<text text-anchor="start" x="8" y="-503.5" font-family="Helvetica,sans-Serif" font-size="10.00">std::unordered_map</text>
<text text-anchor="middle" x="51.12" y="-491.5" font-family="Helvetica,sans-Serif" font-size="10.00">&lt; int, size_t &gt;</text>
</a>
</g>
</g>
<!-- Node21&#45;&gt;Node6 -->
<g id="edge20" class="edge">
<title>Node21&#45;&gt;Node6</title>
<path fill="none" stroke="#9a32cd" stroke-dasharray="5,2" d="M75.79,-477.4C86.22,-469.06 98.93,-460.35 111.88,-455 148.82,-439.74 192.58,-432.34 229.49,-428.82"/>
<polygon fill="#9a32cd" stroke="#9a32cd" points="73.85,-474.46 68.44,-483.57 78.35,-479.83 73.85,-474.46"/>
<text text-anchor="middle" x="161.25" y="-457.5" font-family="Helvetica,sans-Serif" font-size="10.00"> _specificwarningcount</text>
</g>
<!-- Node22&#45;&gt;Node2 -->
<g id="edge29" class="edge">
<title>Node22&#45;&gt;Node2</title>
<path fill="none" stroke="#9a32cd" stroke-dasharray="5,2" d="M667.89,-205.23C667.74,-186.04 670.14,-157.5 683.38,-137 703.24,-106.25 742.01,-87.48 769.64,-77.44"/>
<polygon fill="#9a32cd" stroke="#9a32cd" points="664.38,-205.17 668.23,-215.04 671.38,-204.93 664.38,-205.17"/>
<text text-anchor="middle" x="716" y="-149.5" font-family="Helvetica,sans-Serif" font-size="10.00"> modelOutputs</text>
</g>
<!-- Node22&#45;&gt;Node3 -->
<g id="edge23" class="edge">
<title>Node22&#45;&gt;Node3</title>
<path fill="none" stroke="#9a32cd" stroke-dasharray="5,2" d="M624.01,-212.46C615.27,-208.81 606.47,-204.35 598.88,-199 585.05,-189.27 573.03,-173.54 566.18,-163.49"/>
<polygon fill="#9a32cd" stroke="#9a32cd" points="622.56,-215.65 633.15,-215.98 625.07,-209.12 622.56,-215.65"/>
<text text-anchor="middle" x="627.25" y="-189.5" font-family="Helvetica,sans-Serif" font-size="10.00"> modelYields</text>
</g>
<!-- Node23 -->
<g id="node23" class="node">
<title>Node23</title>
<g id="a_node23"><a xlink:title=" ">
<polygon fill="white" stroke="#666666" points="892.62,-169 789.62,-169 789.62,-137 892.62,-137 892.62,-169"/>
<text text-anchor="start" x="797.62" y="-155.5" font-family="Helvetica,sans-Serif" font-size="10.00">std::unique_ptr&lt; Ort</text>
<text text-anchor="middle" x="841.12" y="-143.5" font-family="Helvetica,sans-Serif" font-size="10.00">::Env &gt;</text>
</a>
</g>
</g>
<!-- Node23&#45;&gt;Node2 -->
<g id="edge25" class="edge">
<title>Node23&#45;&gt;Node2</title>
<path fill="none" stroke="#9a32cd" stroke-dasharray="5,2" d="M828.9,-126.33C820.94,-109.61 811.03,-88.79 805.45,-77.09"/>
<polygon fill="#9a32cd" stroke="#9a32cd" points="825.68,-127.7 833.14,-135.23 832,-124.69 825.68,-127.7"/>
<text text-anchor="middle" x="840.12" y="-103.5" font-family="Helvetica,sans-Serif" font-size="10.00"> envPtr</text>
</g>
<!-- Node24 -->
<g id="node24" class="node">
<title>Node24</title>
<g id="a_node24"><a xlink:title=" ">
<polygon fill="white" stroke="#666666" points="1013.62,-169 910.62,-169 910.62,-137 1013.62,-137 1013.62,-169"/>
<text text-anchor="start" x="918.62" y="-155.5" font-family="Helvetica,sans-Serif" font-size="10.00">std::unique_ptr&lt; Ort</text>
<text text-anchor="middle" x="962.12" y="-143.5" font-family="Helvetica,sans-Serif" font-size="10.00">::Session &gt;</text>
</a>
</g>
</g>
<!-- Node24&#45;&gt;Node2 -->
<g id="edge26" class="edge">
<title>Node24&#45;&gt;Node2</title>
<path fill="none" stroke="#9a32cd" stroke-dasharray="5,2" d="M925.98,-131.19C906.37,-120.11 881.62,-106.44 859.12,-95 847.05,-88.86 833.31,-82.44 822.24,-77.4"/>
<polygon fill="#9a32cd" stroke="#9a32cd" points="923.98,-134.08 934.41,-135.97 927.44,-127.99 923.98,-134.08"/>
<text text-anchor="middle" x="925.88" y="-103.5" font-family="Helvetica,sans-Serif" font-size="10.00"> sessionPtr</text>
</g>
<!-- Node25 -->
<g id="node25" class="node">
<title>Node25</title>
<g id="a_node25"><a xlink:title=" ">
<polygon fill="white" stroke="#666666" points="1128.62,-163 1031.62,-163 1031.62,-143 1128.62,-143 1128.62,-163"/>
<text text-anchor="middle" x="1080.12" y="-149.5" font-family="Helvetica,sans-Serif" font-size="10.00">std::vector&lt; float &gt;</text>
</a>
</g>
</g>
<!-- Node25&#45;&gt;Node2 -->
<g id="edge28" class="edge">
<title>Node25&#45;&gt;Node2</title>
<path fill="none" stroke="#9a32cd" stroke-dasharray="5,2" d="M1053.2,-137.29C1028.41,-124.34 990.25,-105.89 955.12,-95 924.66,-85.55 889.72,-79.09 860.83,-74.86"/>
<polygon fill="#9a32cd" stroke="#9a32cd" points="1051.47,-140.33 1061.94,-141.93 1054.75,-134.15 1051.47,-140.33"/>
<text text-anchor="middle" x="1063.25" y="-109.5" font-family="Helvetica,sans-Serif" font-size="10.00"> standardParamMeans</text>
<text text-anchor="middle" x="1063.25" y="-97.5" font-family="Helvetica,sans-Serif" font-size="10.00">standardParamVars</text>
</g>
</g>
</svg>
