<?xml version="1.0" encoding="UTF-8" standalone="no"?>
<!DOCTYPE svg PUBLIC "-//W3C//DTD SVG 1.1//EN"
 "http://www.w3.org/Graphics/SVG/1.1/DTD/svg11.dtd">
<!-- Generated by graphviz version 10.0.1 (20240210.2158)
 -->
<!-- Title: Core::FMTyieldmodeldecisiontree Pages: 1 -->
<svg width="2218pt" height="298pt"
 viewBox="0.00 0.00 2217.50 298.00" xmlns="http://www.w3.org/2000/svg" xmlns:xlink="http://www.w3.org/1999/xlink">
<g id="graph0" class="graph" transform="scale(1 1) rotate(0) translate(4 294)">
<title>Core::FMTyieldmodeldecisiontree</title>
<!-- Node1 -->
<g id="node1" class="node">
<title>Node1</title>
<g id="a_node1"><a xlink:title=" ">
<polygon fill="#999999" stroke="#666666" points="2209.5,-236 2048.75,-236 2048.75,-216 2209.5,-216 2209.5,-236"/>
<text text-anchor="middle" x="2129.12" y="-222.5" font-family="Helvetica,sans-Serif" font-size="10.00">Core::FMTyieldmodeldecisiontree</text>
</a>
</g>
</g>
<!-- Node2 -->
<g id="node2" class="node">
<title>Node2</title>
<g id="a_node2"><a xlink:href="classCore_1_1FMTyieldmodel.html" target="_top" xlink:title=" ">
<polygon fill="white" stroke="#666666" points="2011.75,-236 1903.5,-236 1903.5,-216 2011.75,-216 2011.75,-236"/>
<text text-anchor="middle" x="1957.62" y="-222.5" font-family="Helvetica,sans-Serif" font-size="10.00">Core::FMTyieldmodel</text>
</a>
</g>
</g>
<!-- Node2&#45;&gt;Node1 -->
<g id="edge1" class="edge">
<title>Node2&#45;&gt;Node1</title>
<path fill="none" stroke="#63b8ff" d="M2023.24,-226C2031.49,-226 2040,-226 2048.45,-226"/>
<polygon fill="#63b8ff" stroke="#63b8ff" points="2023.3,-222.5 2013.3,-226 2023.3,-229.5 2023.3,-222.5"/>
</g>
<!-- Node3 -->
<g id="node3" class="node">
<title>Node3</title>
<g id="a_node3"><a xlink:href="classCore_1_1FMTobject.html" target="_top" xlink:title=" ">
<polygon fill="white" stroke="#666666" points="1866.5,-188 1778.5,-188 1778.5,-168 1866.5,-168 1866.5,-188"/>
<text text-anchor="middle" x="1822.5" y="-174.5" font-family="Helvetica,sans-Serif" font-size="10.00">Core::FMTobject</text>
</a>
</g>
</g>
<!-- Node3&#45;&gt;Node2 -->
<g id="edge2" class="edge">
<title>Node3&#45;&gt;Node2</title>
<path fill="none" stroke="#63b8ff" d="M1863.12,-192.29C1883.89,-199.78 1908.88,-208.78 1927.8,-215.61"/>
<polygon fill="#63b8ff" stroke="#63b8ff" points="1864.4,-189.03 1853.81,-188.93 1862.03,-195.61 1864.4,-189.03"/>
</g>
<!-- Node4 -->
<g id="node4" class="node">
<title>Node4</title>
<g id="a_node4"><a xlink:title=" ">
<polygon fill="white" stroke="#666666" points="1692.25,-146 1558.5,-146 1558.5,-114 1692.25,-114 1692.25,-146"/>
<text text-anchor="start" x="1566.5" y="-132.5" font-family="Helvetica,sans-Serif" font-size="10.00">std::shared_ptr&lt; Exception</text>
<text text-anchor="middle" x="1625.38" y="-120.5" font-family="Helvetica,sans-Serif" font-size="10.00">::FMTexceptionhandler &gt;</text>
</a>
</g>
</g>
<!-- Node4&#45;&gt;Node3 -->
<g id="edge3" class="edge">
<title>Node4&#45;&gt;Node3</title>
<path fill="none" stroke="#9a32cd" stroke-dasharray="5,2" d="M1703.78,-139.44C1722.54,-142.62 1742.4,-146.74 1760.5,-152 1774.21,-155.98 1788.95,-162.21 1800.5,-167.57"/>
<polygon fill="#9a32cd" stroke="#9a32cd" points="1704.49,-136.02 1694.06,-137.87 1703.38,-142.93 1704.49,-136.02"/>
<text text-anchor="middle" x="1735.38" y="-154.5" font-family="Helvetica,sans-Serif" font-size="10.00"> _exhandler</text>
</g>
<!-- Node5 -->
<g id="node5" class="node">
<title>Node5</title>
<g id="a_node5"><a xlink:href="classException_1_1FMTexceptionhandler.html" target="_top" xlink:title=" ">
<polygon fill="white" stroke="#666666" points="1466.25,-126 1307.75,-126 1307.75,-106 1466.25,-106 1466.25,-126"/>
<text text-anchor="middle" x="1387" y="-112.5" font-family="Helvetica,sans-Serif" font-size="10.00">Exception::FMTexceptionhandler</text>
</a>
</g>
</g>
<!-- Node5&#45;&gt;Node4 -->
<g id="edge4" class="edge">
<title>Node5&#45;&gt;Node4</title>
<path fill="none" stroke="#9a32cd" stroke-dasharray="5,2" d="M1478,-121.33C1504.67,-122.91 1533.37,-124.61 1558.24,-126.08"/>
<polygon fill="#9a32cd" stroke="#9a32cd" points="1478.41,-117.85 1468.22,-120.75 1478,-124.84 1478.41,-117.85"/>
<text text-anchor="middle" x="1512.38" y="-127.5" font-family="Helvetica,sans-Serif" font-size="10.00"> ptr</text>
</g>
<!-- Node6 -->
<g id="node6" class="node">
<title>Node6</title>
<g id="a_node6"><a xlink:title=" ">
<polygon fill="white" stroke="#666666" points="1173.5,-182 1049.5,-182 1049.5,-150 1173.5,-150 1173.5,-182"/>
<text text-anchor="start" x="1057.5" y="-168.5" font-family="Helvetica,sans-Serif" font-size="10.00">std::shared_ptr&lt; Logging</text>
<text text-anchor="middle" x="1111.5" y="-156.5" font-family="Helvetica,sans-Serif" font-size="10.00">::FMTlogger &gt;</text>
</a>
</g>
</g>
<!-- Node6&#45;&gt;Node3 -->
<g id="edge20" class="edge">
<title>Node6&#45;&gt;Node3</title>
<path fill="none" stroke="#9a32cd" stroke-dasharray="5,2" d="M1184.97,-167.23C1331.74,-169.71 1660.23,-175.27 1778.25,-177.27"/>
<polygon fill="#9a32cd" stroke="#9a32cd" points="1185.44,-163.73 1175.38,-167.06 1185.32,-170.73 1185.44,-163.73"/>
<text text-anchor="middle" x="1512.38" y="-176.5" font-family="Helvetica,sans-Serif" font-size="10.00"> _logger</text>
</g>
<!-- Node6&#45;&gt;Node5 -->
<g id="edge5" class="edge">
<title>Node6&#45;&gt;Node5</title>
<path fill="none" stroke="#9a32cd" stroke-dasharray="5,2" d="M1185.06,-152.73C1230.13,-144.5 1287.22,-134.06 1329.03,-126.42"/>
<polygon fill="#9a32cd" stroke="#9a32cd" points="1184.58,-149.27 1175.37,-154.51 1185.83,-156.15 1184.58,-149.27"/>
<text text-anchor="middle" x="1240.62" y="-154.5" font-family="Helvetica,sans-Serif" font-size="10.00"> _logger</text>
</g>
<!-- Node7 -->
<g id="node7" class="node">
<title>Node7</title>
<g id="a_node7"><a xlink:href="classLogging_1_1FMTlogger.html" target="_top" xlink:title=" ">
<polygon fill="white" stroke="#666666" points="891,-175 789.5,-175 789.5,-155 891,-155 891,-175"/>
<text text-anchor="middle" x="840.25" y="-161.5" font-family="Helvetica,sans-Serif" font-size="10.00">Logging::FMTlogger</text>
</a>
</g>
</g>
<!-- Node7&#45;&gt;Node6 -->
<g id="edge6" class="edge">
<title>Node7&#45;&gt;Node6</title>
<path fill="none" stroke="#9a32cd" stroke-dasharray="5,2" d="M902.67,-165.23C946.63,-165.39 1005.55,-165.61 1049.43,-165.77"/>
<polygon fill="#9a32cd" stroke="#9a32cd" points="902.79,-161.73 892.78,-165.19 902.76,-168.73 902.79,-161.73"/>
<text text-anchor="middle" x="970.25" y="-168.5" font-family="Helvetica,sans-Serif" font-size="10.00"> ptr</text>
</g>
<!-- Node8 -->
<g id="node8" class="node">
<title>Node8</title>
<g id="a_node8"><a xlink:title=" ">
<polygon fill="white" stroke="#666666" points="708.5,-183 585.25,-183 585.25,-151 708.5,-151 708.5,-183"/>
<text text-anchor="start" x="593.25" y="-169.5" font-family="Helvetica,sans-Serif" font-size="10.00">std::unique_ptr&lt; Logging</text>
<text text-anchor="middle" x="646.88" y="-157.5" font-family="Helvetica,sans-Serif" font-size="10.00">::FMTsolverlogger &gt;</text>
</a>
</g>
</g>
<!-- Node8&#45;&gt;Node7 -->
<g id="edge7" class="edge">
<title>Node8&#45;&gt;Node7</title>
<path fill="none" stroke="#9a32cd" stroke-dasharray="5,2" d="M720.24,-165.09C722.35,-165.06 724.44,-165.03 726.5,-165 746.95,-164.74 769.5,-164.69 789.01,-164.73"/>
<polygon fill="#9a32cd" stroke="#9a32cd" points="720.27,-161.59 710.34,-165.27 720.4,-168.59 720.27,-161.59"/>
<text text-anchor="middle" x="749" y="-167.5" font-family="Helvetica,sans-Serif" font-size="10.00"> solverref</text>
</g>
<!-- Node9 -->
<g id="node9" class="node">
<title>Node9</title>
<g id="a_node9"><a xlink:href="classLogging_1_1FMTsolverlogger.html" target="_top" xlink:title=" ">
<polygon fill="white" stroke="#666666" points="535,-177 408.75,-177 408.75,-157 535,-157 535,-177"/>
<text text-anchor="middle" x="471.88" y="-163.5" font-family="Helvetica,sans-Serif" font-size="10.00">Logging::FMTsolverlogger</text>
</a>
</g>
</g>
<!-- Node9&#45;&gt;Node8 -->
<g id="edge8" class="edge">
<title>Node9&#45;&gt;Node8</title>
<path fill="none" stroke="#9a32cd" stroke-dasharray="5,2" d="M546.48,-167C559.3,-167 572.52,-167 584.96,-167"/>
<polygon fill="#9a32cd" stroke="#9a32cd" points="546.85,-163.5 536.85,-167 546.85,-170.5 546.85,-163.5"/>
<text text-anchor="middle" x="560.12" y="-169.5" font-family="Helvetica,sans-Serif" font-size="10.00"> ptr</text>
</g>
<!-- Node10 -->
<g id="node10" class="node">
<title>Node10</title>
<g id="a_node10"><a xlink:title=" ">
<polygon fill="white" stroke="#666666" points="371.75,-177 263.5,-177 263.5,-157 371.75,-157 371.75,-177"/>
<text text-anchor="middle" x="317.62" y="-163.5" font-family="Helvetica,sans-Serif" font-size="10.00">CoinMessageHandler</text>
</a>
</g>
</g>
<!-- Node10&#45;&gt;Node9 -->
<g id="edge9" class="edge">
<title>Node10&#45;&gt;Node9</title>
<path fill="none" stroke="#63b8ff" d="M383.37,-167C391.61,-167 400.04,-167 408.25,-167"/>
<polygon fill="#63b8ff" stroke="#63b8ff" points="383.39,-163.5 373.39,-167 383.39,-170.5 383.39,-163.5"/>
</g>
<!-- Node11 -->
<g id="node11" class="node">
<title>Node11</title>
<g id="a_node11"><a xlink:title=" ">
<polygon fill="white" stroke="#666666" points="676.62,-236 617.12,-236 617.12,-216 676.62,-216 676.62,-236"/>
<text text-anchor="middle" x="646.88" y="-222.5" font-family="Helvetica,sans-Serif" font-size="10.00">std::string</text>
</a>
</g>
</g>
<!-- Node11&#45;&gt;Node2 -->
<g id="edge21" class="edge">
<title>Node11&#45;&gt;Node2</title>
<path fill="none" stroke="#9a32cd" stroke-dasharray="5,2" d="M688.36,-226C727.09,-226 787.16,-226 839.25,-226 839.25,-226 839.25,-226 1823.5,-226 1849.73,-226 1878.87,-226 1903.18,-226"/>
<polygon fill="#9a32cd" stroke="#9a32cd" points="688.57,-222.5 678.57,-226 688.57,-229.5 688.57,-222.5"/>
<text text-anchor="middle" x="1387" y="-240.5" font-family="Helvetica,sans-Serif" font-size="10.00"> JSON_PROP_MODEL_NAME</text>
<text text-anchor="middle" x="1387" y="-228.5" font-family="Helvetica,sans-Serif" font-size="10.00">modelName</text>
</g>
<!-- Node11&#45;&gt;Node7 -->
<g id="edge10" class="edge">
<title>Node11&#45;&gt;Node7</title>
<path fill="none" stroke="#9a32cd" stroke-dasharray="5,2" d="M687.88,-212.61C700.24,-208.52 713.92,-204.03 726.5,-200 752.85,-191.55 782.76,-182.28 805.15,-175.41"/>
<polygon fill="#9a32cd" stroke="#9a32cd" points="686.78,-209.29 678.39,-215.76 688.99,-215.93 686.78,-209.29"/>
<text text-anchor="middle" x="749" y="-202.5" font-family="Helvetica,sans-Serif" font-size="10.00"> filepath</text>
</g>
<!-- Node21 -->
<g id="node21" class="node">
<title>Node21</title>
<g id="a_node21"><a xlink:title=" ">
<polygon fill="white" stroke="#666666" points="1031.5,-284 909,-284 909,-264 1031.5,-264 1031.5,-284"/>
<text text-anchor="middle" x="970.25" y="-270.5" font-family="Helvetica,sans-Serif" font-size="10.00">std::vector&lt; std::string &gt;</text>
</a>
</g>
</g>
<!-- Node11&#45;&gt;Node21 -->
<g id="edge23" class="edge">
<title>Node11&#45;&gt;Node21</title>
<path fill="none" stroke="#9a32cd" stroke-dasharray="5,2" d="M688.25,-233.49C700.52,-235.68 714.05,-238.02 726.5,-240 788.39,-249.84 859.39,-259.61 908.55,-266.13"/>
<polygon fill="#9a32cd" stroke="#9a32cd" points="688.91,-230.05 678.45,-231.71 687.66,-236.94 688.91,-230.05"/>
<text text-anchor="middle" x="749" y="-248.5" font-family="Helvetica,sans-Serif" font-size="10.00"> elements</text>
</g>
<!-- Node12 -->
<g id="node12" class="node">
<title>Node12</title>
<g id="a_node12"><a xlink:title=" ">
<polygon fill="white" stroke="#666666" points="518.88,-242 424.88,-242 424.88,-210 518.88,-210 518.88,-242"/>
<text text-anchor="start" x="432.88" y="-228.5" font-family="Helvetica,sans-Serif" font-size="10.00">std::basic_string&lt;</text>
<text text-anchor="middle" x="471.88" y="-216.5" font-family="Helvetica,sans-Serif" font-size="10.00"> Char &gt;</text>
</a>
</g>
</g>
<!-- Node12&#45;&gt;Node11 -->
<g id="edge11" class="edge">
<title>Node12&#45;&gt;Node11</title>
<path fill="none" stroke="#63b8ff" d="M530.47,-226C559.43,-226 593.26,-226 616.78,-226"/>
<polygon fill="#63b8ff" stroke="#63b8ff" points="530.75,-222.5 520.75,-226 530.75,-229.5 530.75,-222.5"/>
</g>
<!-- Node13 -->
<g id="node13" class="node">
<title>Node13</title>
<g id="a_node13"><a xlink:title=" ">
<polygon fill="white" stroke="#666666" points="683.38,-133 610.38,-133 610.38,-113 683.38,-113 683.38,-133"/>
<text text-anchor="middle" x="646.88" y="-119.5" font-family="Helvetica,sans-Serif" font-size="10.00">std::ofstream</text>
</a>
</g>
</g>
<!-- Node13&#45;&gt;Node7 -->
<g id="edge12" class="edge">
<title>Node13&#45;&gt;Node7</title>
<path fill="none" stroke="#9a32cd" stroke-dasharray="5,2" d="M694.86,-132.6C717.98,-137.39 746.23,-143.36 771.5,-149 779.29,-150.74 787.56,-152.64 795.55,-154.51"/>
<polygon fill="#9a32cd" stroke="#9a32cd" points="695.61,-129.18 685.11,-130.58 694.2,-136.03 695.61,-129.18"/>
<text text-anchor="middle" x="749" y="-151.5" font-family="Helvetica,sans-Serif" font-size="10.00"> filestream</text>
</g>
<!-- Node14 -->
<g id="node14" class="node">
<title>Node14</title>
<g id="a_node14"><a xlink:title=" ">
<polygon fill="white" stroke="#666666" points="522.62,-139 421.12,-139 421.12,-107 522.62,-107 522.62,-139"/>
<text text-anchor="start" x="429.12" y="-125.5" font-family="Helvetica,sans-Serif" font-size="10.00">std::basic_ofstream</text>
<text text-anchor="middle" x="471.88" y="-113.5" font-family="Helvetica,sans-Serif" font-size="10.00">&lt; Char &gt;</text>
</a>
</g>
</g>
<!-- Node14&#45;&gt;Node13 -->
<g id="edge13" class="edge">
<title>Node14&#45;&gt;Node13</title>
<path fill="none" stroke="#63b8ff" d="M534.3,-123C559.63,-123 588.11,-123 609.96,-123"/>
<polygon fill="#63b8ff" stroke="#63b8ff" points="534.43,-119.5 524.43,-123 534.43,-126.5 534.43,-119.5"/>
</g>
<!-- Node15 -->
<g id="node15" class="node">
<title>Node15</title>
<g id="a_node15"><a xlink:title=" ">
<polygon fill="white" stroke="#666666" points="367.25,-139 268,-139 268,-107 367.25,-107 367.25,-139"/>
<text text-anchor="start" x="276" y="-125.5" font-family="Helvetica,sans-Serif" font-size="10.00">std::basic_ostream</text>
<text text-anchor="middle" x="317.62" y="-113.5" font-family="Helvetica,sans-Serif" font-size="10.00">&lt; Char &gt;</text>
</a>
</g>
</g>
<!-- Node15&#45;&gt;Node14 -->
<g id="edge14" class="edge">
<title>Node15&#45;&gt;Node14</title>
<path fill="none" stroke="#63b8ff" d="M379.01,-123C392.81,-123 407.33,-123 420.65,-123"/>
<polygon fill="#63b8ff" stroke="#63b8ff" points="379.15,-119.5 369.15,-123 379.15,-126.5 379.15,-119.5"/>
</g>
<!-- Node16 -->
<g id="node16" class="node">
<title>Node16</title>
<g id="a_node16"><a xlink:title=" ">
<polygon fill="white" stroke="#666666" points="226.5,-133 111.5,-133 111.5,-113 226.5,-113 226.5,-133"/>
<text text-anchor="middle" x="169" y="-119.5" font-family="Helvetica,sans-Serif" font-size="10.00">std::basic_ios&lt; Char &gt;</text>
</a>
</g>
</g>
<!-- Node16&#45;&gt;Node15 -->
<g id="edge15" class="edge">
<title>Node16&#45;&gt;Node15</title>
<path fill="none" stroke="#63b8ff" d="M237.93,-123C247.98,-123 258.16,-123 267.72,-123"/>
<polygon fill="#63b8ff" stroke="#63b8ff" points="238.2,-119.5 228.2,-123 238.2,-126.5 238.2,-119.5"/>
</g>
<!-- Node17 -->
<g id="node17" class="node">
<title>Node17</title>
<g id="a_node17"><a xlink:title=" ">
<polygon fill="white" stroke="#666666" points="74.5,-133 0,-133 0,-113 74.5,-113 74.5,-133"/>
<text text-anchor="middle" x="37.25" y="-119.5" font-family="Helvetica,sans-Serif" font-size="10.00">std::ios_base</text>
</a>
</g>
</g>
<!-- Node17&#45;&gt;Node16 -->
<g id="edge16" class="edge">
<title>Node17&#45;&gt;Node16</title>
<path fill="none" stroke="#63b8ff" d="M86.07,-123C94.32,-123 102.96,-123 111.41,-123"/>
<polygon fill="#63b8ff" stroke="#63b8ff" points="86.25,-119.5 76.25,-123 86.25,-126.5 86.25,-119.5"/>
</g>
<!-- Node18 -->
<g id="node18" class="node">
<title>Node18</title>
<g id="a_node18"><a xlink:title=" ">
<polygon fill="white" stroke="#666666" points="1168.25,-32 1054.75,-32 1054.75,0 1168.25,0 1168.25,-32"/>
<text text-anchor="start" x="1062.75" y="-18.5" font-family="Helvetica,sans-Serif" font-size="10.00">std::vector&lt; Exception</text>
<text text-anchor="middle" x="1111.5" y="-6.5" font-family="Helvetica,sans-Serif" font-size="10.00">::FMTexc &gt;</text>
</a>
</g>
</g>
<!-- Node18&#45;&gt;Node5 -->
<g id="edge17" class="edge">
<title>Node18&#45;&gt;Node5</title>
<path fill="none" stroke="#9a32cd" stroke-dasharray="5,2" d="M1179.71,-30.91C1213.33,-39.29 1254.3,-50.9 1289.75,-65 1318.74,-76.53 1350.35,-94.38 1369.15,-105.62"/>
<polygon fill="#9a32cd" stroke="#9a32cd" points="1180.62,-27.54 1170.08,-28.56 1178.96,-34.33 1180.62,-27.54"/>
<text text-anchor="middle" x="1240.62" y="-67.5" font-family="Helvetica,sans-Serif" font-size="10.00"> errorstowarnings</text>
</g>
<!-- Node19 -->
<g id="node19" class="node">
<title>Node19</title>
<g id="a_node19"><a xlink:title=" ">
<polygon fill="white" stroke="#666666" points="1169,-132 1054,-132 1054,-100 1169,-100 1169,-132"/>
<text text-anchor="start" x="1062" y="-118.5" font-family="Helvetica,sans-Serif" font-size="10.00">std::set&lt; boost::thread</text>
<text text-anchor="middle" x="1111.5" y="-106.5" font-family="Helvetica,sans-Serif" font-size="10.00">::id &gt;</text>
</a>
</g>
</g>
<!-- Node19&#45;&gt;Node5 -->
<g id="edge18" class="edge">
<title>Node19&#45;&gt;Node5</title>
<path fill="none" stroke="#9a32cd" stroke-dasharray="5,2" d="M1180.27,-116C1218.78,-116 1267.19,-116 1307.37,-116"/>
<polygon fill="#9a32cd" stroke="#9a32cd" points="1180.68,-112.5 1170.68,-116 1180.68,-119.5 1180.68,-112.5"/>
<text text-anchor="middle" x="1240.62" y="-118.5" font-family="Helvetica,sans-Serif" font-size="10.00"> registered_threads</text>
</g>
<!-- Node20 -->
<g id="node20" class="node">
<title>Node20</title>
<g id="a_node20"><a xlink:title=" ">
<polygon fill="white" stroke="#666666" points="1162.62,-82 1060.38,-82 1060.38,-50 1162.62,-50 1162.62,-82"/>
<text text-anchor="start" x="1068.38" y="-68.5" font-family="Helvetica,sans-Serif" font-size="10.00">std::unordered_map</text>
<text text-anchor="middle" x="1111.5" y="-56.5" font-family="Helvetica,sans-Serif" font-size="10.00">&lt; int, size_t &gt;</text>
</a>
</g>
</g>
<!-- Node20&#45;&gt;Node5 -->
<g id="edge19" class="edge">
<title>Node20&#45;&gt;Node5</title>
<path fill="none" stroke="#9a32cd" stroke-dasharray="5,2" d="M1174.08,-77.26C1220.42,-85.73 1283.46,-97.25 1328.72,-105.53"/>
<polygon fill="#9a32cd" stroke="#9a32cd" points="1174.94,-73.86 1164.47,-75.5 1173.68,-80.74 1174.94,-73.86"/>
<text text-anchor="middle" x="1240.62" y="-101.5" font-family="Helvetica,sans-Serif" font-size="10.00"> _specificwarningcount</text>
</g>
<!-- Node21&#45;&gt;Node2 -->
<g id="edge22" class="edge">
<title>Node21&#45;&gt;Node2</title>
<path fill="none" stroke="#9a32cd" stroke-dasharray="5,2" d="M1042.93,-275.65C1096.98,-276.75 1172.96,-278 1239.62,-278 1239.62,-278 1239.62,-278 1823.5,-278 1868.91,-278 1917.42,-251.43 1941.4,-236.27"/>
<polygon fill="#9a32cd" stroke="#9a32cd" points="1043.32,-272.16 1033.25,-275.45 1043.17,-279.15 1043.32,-272.16"/>
<text text-anchor="middle" x="1512.38" y="-280.5" font-family="Helvetica,sans-Serif" font-size="10.00"> modelYields</text>
</g>
</g>
</svg>
