<?xml version="1.0" encoding="UTF-8" standalone="no"?>
<!DOCTYPE svg PUBLIC "-//W3C//DTD SVG 1.1//EN"
 "http://www.w3.org/Graphics/SVG/1.1/DTD/svg11.dtd">
<!-- Generated by graphviz version 8.1.0 (20230707.0739)
 -->
<!-- Title: Core::FMTconstraint Pages: 1 -->
<!--zoomable 456 -->

<svg id="main" version="1.1" xmlns="http://www.w3.org/2000/svg" xmlns:xlink="http://www.w3.org/1999/xlink" xml:space="preserve" onload="init(evt)">
<style type="text/css"><![CDATA[
.node, .edge {opacity: 0.7;}
.node.selected, .edge.selected {opacity: 1;}
.edge:hover path { stroke: red; }
.edge:hover polygon { stroke: red; fill: red; }
]]></style>

<defs>
  <circle id="rim" cx="0" cy="0" r="7"/>
  <circle id="rim2" cx="0" cy="0" r="3.5"/>
  <g id="zoomPlus">
    <use xlink:href="#rim" fill="#404040"><set attributeName="fill" to="#808080" begin="zoomplus.mouseover" end="zoomplus.mouseout"/></use>
    <path d="M-4,0h8M0,-4v8" fill="none" stroke="white" stroke-width="1.5" pointer-events="none"/>
  </g>
  <g id="zoomMin">
    <use xlink:href="#rim" fill="#404040"><set attributeName="fill" to="#808080" begin="zoomminus.mouseover" end="zoomminus.mouseout"/></use>
    <path d="M-4,0h8" fill="none" stroke="white" stroke-width="1.5" pointer-events="none"/>
  </g>
  <g id="arrowUp" transform="translate(30 24)">
    <use xlink:href="#rim"/>
    <path pointer-events="none" fill="none" stroke="white" stroke-width="1.5" d="M0,-3.0v7 M-2.5,-0.5L0,-3.0L2.5,-0.5"/>
  </g>
  <g id="arrowRight" transform="rotate(90) translate(36 -43)">
    <use xlink:href="#rim"/>
    <path pointer-events="none" fill="none" stroke="white" stroke-width="1.5" d="M0,-3.0v7 M-2.5,-0.5L0,-3.0L2.5,-0.5"/>
  </g>
  <g id="arrowDown" transform="rotate(180) translate(-30 -48)">
    <use xlink:href="#rim"/>
    <path pointer-events="none" fill="none" stroke="white" stroke-width="1.5" d="M0,-3.0v7 M-2.5,-0.5L0,-3.0L2.5,-0.5"/>
  </g>
  <g id="arrowLeft" transform="rotate(270) translate(-36 17)">
    <use xlink:href="#rim"/>
    <path pointer-events="none" fill="none" stroke="white" stroke-width="1.5" d="M0,-3.0v7 M-2.5,-0.5L0,-3.0L2.5,-0.5"/>
  </g>
  <g id="resetDef">
    <use xlink:href="#rim2" fill="#404040"><set attributeName="fill" to="#808080" begin="reset.mouseover" end="reset.mouseout"/></use>
  </g>
</defs>
<script type="application/ecmascript">
var viewWidth = 2212;
var viewHeight = 456;
var sectionId = 'dynsection-1';
</script>
<script type="application/ecmascript" xlink:href="svg.min.js"/>
<svg id="graph" class="graph">
<g id="viewport">
<title>Core::FMTconstraint</title>
<!-- Node1 -->
<g id="Node000001" class="node">
<title>Node1</title>
<g id="a_Node000001"><a xlink:title=" ">
<polygon fill="#999999" stroke="#666666" points="2204,-327 2099.5,-327 2099.5,-307 2204,-307 2204,-327"/>
<text text-anchor="middle" x="2151.75" y="-313.5" font-family="Helvetica,sans-Serif" font-size="10.00">Core::FMTconstraint</text>
</a>
</g>
</g>
<!-- Node2 -->
<g id="Node000002" class="node">
<title>Node2</title>
<g id="a_Node000002"><a xlink:href="classCore_1_1FMToutput.html" target="_top" xlink:title=" ">
<polygon fill="white" stroke="#666666" points="2062.5,-280 1973.75,-280 1973.75,-260 2062.5,-260 2062.5,-280"/>
<text text-anchor="middle" x="2018.12" y="-266.5" font-family="Helvetica,sans-Serif" font-size="10.00">Core::FMToutput</text>
</a>
</g>
</g>
<!-- Node2&#45;&gt;Node1 -->
<g id="edge1_Node000001_Node000002" class="edge">
<title>Node2&#45;&gt;Node1</title>
<g id="a_edge1_Node000001_Node000002"><a xlink:title=" ">
<path fill="none" stroke="#63b8ff" d="M2058.52,-284.07C2078.79,-291.3 2103.06,-299.97 2121.62,-306.6"/>
<polygon fill="#63b8ff" stroke="#63b8ff" points="2059.93,-280.5 2049.34,-280.43 2057.58,-287.09 2059.93,-280.5"/>
</a>
</g>
</g>
<!-- Node3 -->
<g id="Node000003" class="node">
<title>Node3</title>
<g id="a_Node000003"><a xlink:href="classCore_1_1FMTobject.html" target="_top" xlink:title=" ">
<polygon fill="white" stroke="#666666" points="1887.88,-188 1799.88,-188 1799.88,-168 1887.88,-168 1887.88,-188"/>
<text text-anchor="middle" x="1843.88" y="-174.5" font-family="Helvetica,sans-Serif" font-size="10.00">Core::FMTobject</text>
</a>
</g>
</g>
<!-- Node3&#45;&gt;Node2 -->
<g id="edge2_Node000002_Node000003" class="edge">
<title>Node3&#45;&gt;Node2</title>
<g id="a_edge2_Node000002_Node000003"><a xlink:title=" ">
<path fill="none" stroke="#63b8ff" d="M1898.86,-189.21C1917.65,-194.47 1938.36,-201.87 1955.75,-212 1977.79,-224.84 1998.23,-247.02 2009.05,-259.91"/>
<polygon fill="#63b8ff" stroke="#63b8ff" points="1899.92,-185.61 1889.36,-186.43 1898.13,-192.37 1899.92,-185.61"/>
</a>
</g>
</g>
<!-- Node4 -->
<g id="Node000004" class="node">
<title>Node4</title>
<g id="a_Node000004"><a xlink:title=" ">
<polygon fill="white" stroke="#666666" points="1707.25,-146 1573.5,-146 1573.5,-114 1707.25,-114 1707.25,-146"/>
<text text-anchor="start" x="1581.5" y="-132.5" font-family="Helvetica,sans-Serif" font-size="10.00">std::shared_ptr&lt; Exception</text>
<text text-anchor="middle" x="1640.38" y="-120.5" font-family="Helvetica,sans-Serif" font-size="10.00">::FMTexceptionhandler &gt;</text>
</a>
</g>
</g>
<!-- Node4&#45;&gt;Node3 -->
<g id="edge3_Node000003_Node000004" class="edge">
<title>Node4&#45;&gt;Node3</title>
<g id="a_edge3_Node000003_Node000004"><a xlink:title=" ">
<path fill="none" stroke="#9a32cd" stroke-dasharray="5,2" d="M1718.12,-139.8C1737.04,-142.98 1757.14,-147.01 1775.5,-152 1790.38,-156.05 1806.52,-162.21 1819.26,-167.51"/>
<polygon fill="#9a32cd" stroke="#9a32cd" points="1718.88,-136.22 1708.45,-138.08 1717.76,-143.13 1718.88,-136.22"/>
</a>
</g>
<text text-anchor="middle" x="1750.38" y="-154.5" font-family="Helvetica,sans-Serif" font-size="10.00" fill="grey"> _exhandler</text>
</g>
<!-- Node5 -->
<g id="Node000005" class="node">
<title>Node5</title>
<g id="a_Node000005"><a xlink:href="classException_1_1FMTexceptionhandler.html" target="_top" xlink:title=" ">
<polygon fill="white" stroke="#666666" points="1503,-126 1344.5,-126 1344.5,-106 1503,-106 1503,-126"/>
<text text-anchor="middle" x="1423.75" y="-112.5" font-family="Helvetica,sans-Serif" font-size="10.00">Exception::FMTexceptionhandler</text>
</a>
</g>
</g>
<!-- Node5&#45;&gt;Node4 -->
<g id="edge4_Node000004_Node000005" class="edge">
<title>Node5&#45;&gt;Node4</title>
<g id="a_edge4_Node000004_Node000005"><a xlink:title=" ">
<path fill="none" stroke="#9a32cd" stroke-dasharray="5,2" d="M1514.28,-121.84C1533.96,-123.12 1554.46,-124.46 1573.03,-125.67"/>
<polygon fill="#9a32cd" stroke="#9a32cd" points="1514.66,-118.29 1504.45,-121.13 1514.2,-125.28 1514.66,-118.29"/>
</a>
</g>
<text text-anchor="middle" x="1538.25" y="-127.5" font-family="Helvetica,sans-Serif" font-size="10.00" fill="grey"> ptr</text>
</g>
<!-- Node6 -->
<g id="Node000006" class="node">
<title>Node6</title>
<g id="a_Node000006"><a xlink:title=" ">
<polygon fill="white" stroke="#666666" points="1210.25,-182 1086.25,-182 1086.25,-150 1210.25,-150 1210.25,-182"/>
<text text-anchor="start" x="1094.25" y="-168.5" font-family="Helvetica,sans-Serif" font-size="10.00">std::shared_ptr&lt; Logging</text>
<text text-anchor="middle" x="1148.25" y="-156.5" font-family="Helvetica,sans-Serif" font-size="10.00">::FMTlogger &gt;</text>
</a>
</g>
</g>
<!-- Node6&#45;&gt;Node3 -->
<g id="edge20_Node000003_Node000006" class="edge">
<title>Node6&#45;&gt;Node3</title>
<g id="a_edge20_Node000003_Node000006"><a xlink:title=" ">
<path fill="none" stroke="#9a32cd" stroke-dasharray="5,2" d="M1221.37,-167.25C1365.11,-169.73 1683.43,-175.24 1799.47,-177.25"/>
<polygon fill="#9a32cd" stroke="#9a32cd" points="1221.56,-163.73 1211.5,-167.06 1221.44,-170.73 1221.56,-163.73"/>
</a>
</g>
<text text-anchor="middle" x="1538.25" y="-175.5" font-family="Helvetica,sans-Serif" font-size="10.00" fill="grey"> _logger</text>
</g>
<!-- Node6&#45;&gt;Node5 -->
<g id="edge5_Node000005_Node000006" class="edge">
<title>Node6&#45;&gt;Node5</title>
<g id="a_edge5_Node000005_Node000006"><a xlink:title=" ">
<path fill="none" stroke="#9a32cd" stroke-dasharray="5,2" d="M1221.24,-152.84C1266.39,-144.58 1323.8,-134.09 1365.78,-126.42"/>
<polygon fill="#9a32cd" stroke="#9a32cd" points="1220.84,-149.54 1211.63,-154.78 1222.1,-156.42 1220.84,-149.54"/>
</a>
</g>
<text text-anchor="middle" x="1277.38" y="-154.5" font-family="Helvetica,sans-Serif" font-size="10.00" fill="grey"> _logger</text>
</g>
<!-- Node7 -->
<g id="Node000007" class="node">
<title>Node7</title>
<g id="a_Node000007"><a xlink:href="classLogging_1_1FMTlogger.html" target="_top" xlink:title=" ">
<polygon fill="white" stroke="#666666" points="917.62,-174 816.12,-174 816.12,-154 917.62,-154 917.62,-174"/>
<text text-anchor="middle" x="866.88" y="-160.5" font-family="Helvetica,sans-Serif" font-size="10.00">Logging::FMTlogger</text>
</a>
</g>
</g>
<!-- Node7&#45;&gt;Node6 -->
<g id="edge6_Node000006_Node000007" class="edge">
<title>Node7&#45;&gt;Node6</title>
<g id="a_edge6_Node000006_Node000007"><a xlink:title=" ">
<path fill="none" stroke="#9a32cd" stroke-dasharray="5,2" d="M928.66,-164.44C975.18,-164.77 1039.09,-165.23 1085.78,-165.56"/>
<polygon fill="#9a32cd" stroke="#9a32cd" points="928.85,-160.93 918.82,-164.36 928.8,-167.93 928.85,-160.93"/>
</a>
</g>
<text text-anchor="middle" x="1007" y="-168.5" font-family="Helvetica,sans-Serif" font-size="10.00" fill="grey"> ptr</text>
</g>
<!-- Node8 -->
<g id="Node000008" class="node">
<title>Node8</title>
<g id="a_Node000008"><a xlink:title=" ">
<polygon fill="white" stroke="#666666" points="716.75,-183 593.5,-183 593.5,-151 716.75,-151 716.75,-183"/>
<text text-anchor="start" x="601.5" y="-169.5" font-family="Helvetica,sans-Serif" font-size="10.00">std::unique_ptr&lt; Logging</text>
<text text-anchor="middle" x="655.12" y="-157.5" font-family="Helvetica,sans-Serif" font-size="10.00">::FMTsolverlogger &gt;</text>
</a>
</g>
</g>
<!-- Node8&#45;&gt;Node7 -->
<g id="edge7_Node000007_Node000008" class="edge">
<title>Node8&#45;&gt;Node7</title>
<g id="a_edge7_Node000007_Node000008"><a xlink:title=" ">
<path fill="none" stroke="#9a32cd" stroke-dasharray="5,2" d="M727.59,-165.27C732.81,-165.17 737.98,-165.08 743,-165 766.89,-164.63 793.4,-164.39 815.66,-164.24"/>
<polygon fill="#9a32cd" stroke="#9a32cd" points="727.81,-161.78 717.88,-165.49 727.95,-168.78 727.81,-161.78"/>
</a>
</g>
<text text-anchor="middle" x="765.5" y="-167.5" font-family="Helvetica,sans-Serif" font-size="10.00" fill="grey"> solverref</text>
</g>
<!-- Node9 -->
<g id="Node000009" class="node">
<title>Node9</title>
<g id="a_Node000009"><a xlink:href="classLogging_1_1FMTsolverlogger.html" target="_top" xlink:title=" ">
<polygon fill="white" stroke="#666666" points="535,-177 408.75,-177 408.75,-157 535,-157 535,-177"/>
<text text-anchor="middle" x="471.88" y="-163.5" font-family="Helvetica,sans-Serif" font-size="10.00">Logging::FMTsolverlogger</text>
</a>
</g>
</g>
<!-- Node9&#45;&gt;Node8 -->
<g id="edge8_Node000008_Node000009" class="edge">
<title>Node9&#45;&gt;Node8</title>
<g id="a_edge8_Node000008_Node000009"><a xlink:title=" ">
<path fill="none" stroke="#9a32cd" stroke-dasharray="5,2" d="M545.96,-167C561.62,-167 578.02,-167 593.17,-167"/>
<polygon fill="#9a32cd" stroke="#9a32cd" points="546.25,-163.5 536.25,-167 546.25,-170.5 546.25,-163.5"/>
</a>
</g>
<text text-anchor="middle" x="560.12" y="-169.5" font-family="Helvetica,sans-Serif" font-size="10.00" fill="grey"> ptr</text>
</g>
<!-- Node10 -->
<g id="Node000010" class="node">
<title>Node10</title>
<g id="a_Node000010"><a xlink:title=" ">
<polygon fill="white" stroke="#666666" points="371.75,-177 263.5,-177 263.5,-157 371.75,-157 371.75,-177"/>
<text text-anchor="middle" x="317.62" y="-163.5" font-family="Helvetica,sans-Serif" font-size="10.00">CoinMessageHandler</text>
</a>
</g>
</g>
<!-- Node10&#45;&gt;Node9 -->
<g id="edge9_Node000009_Node000010" class="edge">
<title>Node10&#45;&gt;Node9</title>
<g id="a_edge9_Node000009_Node000010"><a xlink:title=" ">
<path fill="none" stroke="#63b8ff" d="M382.8,-167C391.23,-167 399.85,-167 408.25,-167"/>
<polygon fill="#63b8ff" stroke="#63b8ff" points="382.87,-163.5 372.87,-167 382.87,-170.5 382.87,-163.5"/>
</a>
</g>
</g>
<!-- Node11 -->
<g id="Node000011" class="node">
<title>Node11</title>
<g id="a_Node000011"><a xlink:title=" ">
<polygon fill="white" stroke="#666666" points="684.88,-236 625.38,-236 625.38,-216 684.88,-216 684.88,-236"/>
<text text-anchor="middle" x="655.12" y="-222.5" font-family="Helvetica,sans-Serif" font-size="10.00">std::string</text>
</a>
</g>
</g>
<!-- Node11&#45;&gt;Node2 -->
<g id="edge37_Node000002_Node000011" class="edge">
<title>Node11&#45;&gt;Node2</title>
<g id="a_edge37_Node000002_Node000011"><a xlink:title=" ">
<path fill="none" stroke="#9a32cd" stroke-dasharray="5,2" d="M696.23,-226C738.44,-226 806.83,-226 865.88,-226 865.88,-226 865.88,-226 1844.88,-226 1898.89,-226 1959.55,-246.56 1992.53,-259.57"/>
<polygon fill="#9a32cd" stroke="#9a32cd" points="696.31,-222.5 686.31,-226 696.31,-229.5 696.31,-222.5"/>
</a>
</g>
<text text-anchor="middle" x="1423.75" y="-252.5" font-family="Helvetica,sans-Serif" font-size="10.00" fill="grey"> description</text>
<text text-anchor="middle" x="1423.75" y="-240.5" font-family="Helvetica,sans-Serif" font-size="10.00" fill="grey">group</text>
<text text-anchor="middle" x="1423.75" y="-228.5" font-family="Helvetica,sans-Serif" font-size="10.00" fill="grey">name</text>
</g>
<!-- Node11&#45;&gt;Node7 -->
<g id="edge10_Node000007_Node000011" class="edge">
<title>Node11&#45;&gt;Node7</title>
<g id="a_edge10_Node000007_Node000011"><a xlink:title=" ">
<path fill="none" stroke="#9a32cd" stroke-dasharray="5,2" d="M695.47,-214.17C710.35,-209.71 727.45,-204.6 743,-200 772.2,-191.35 805.34,-181.65 829.84,-174.5"/>
<polygon fill="#9a32cd" stroke="#9a32cd" points="694.64,-211.07 686.07,-217.29 696.65,-217.77 694.64,-211.07"/>
</a>
</g>
<text text-anchor="middle" x="765.5" y="-202.5" font-family="Helvetica,sans-Serif" font-size="10.00" fill="grey"> filepath</text>
</g>
<!-- Node28 -->
<g id="Node000028" class="node">
<title>Node28</title>
<g id="a_Node000028"><a xlink:title=" ">
<polygon fill="white" stroke="#666666" points="1068.25,-383 945.75,-383 945.75,-363 1068.25,-363 1068.25,-383"/>
<text text-anchor="middle" x="1007" y="-369.5" font-family="Helvetica,sans-Serif" font-size="10.00">std::vector&lt; std::string &gt;</text>
</a>
</g>
</g>
<!-- Node11&#45;&gt;Node28 -->
<g id="edge31_Node000028_Node000011" class="edge">
<title>Node11&#45;&gt;Node28</title>
<g id="a_edge31_Node000028_Node000011"><a xlink:title=" ">
<path fill="none" stroke="#9a32cd" stroke-dasharray="5,2" d="M678,-242.97C706.15,-264.06 757.26,-299.83 806,-321 851.25,-340.65 905.59,-354.19 946.2,-362.52"/>
<polygon fill="#9a32cd" stroke="#9a32cd" points="680.45,-239.68 670.37,-236.43 676.22,-245.26 680.45,-239.68"/>
</a>
</g>
<text text-anchor="middle" x="765.5" y="-315.5" font-family="Helvetica,sans-Serif" font-size="10.00" fill="grey"> elements</text>
</g>
<!-- Node12 -->
<g id="Node000012" class="node">
<title>Node12</title>
<g id="a_Node000012"><a xlink:title=" ">
<polygon fill="white" stroke="#666666" points="518.88,-242 424.88,-242 424.88,-210 518.88,-210 518.88,-242"/>
<text text-anchor="start" x="432.88" y="-228.5" font-family="Helvetica,sans-Serif" font-size="10.00">std::basic_string&lt;</text>
<text text-anchor="middle" x="471.88" y="-216.5" font-family="Helvetica,sans-Serif" font-size="10.00"> Char &gt;</text>
</a>
</g>
</g>
<!-- Node12&#45;&gt;Node11 -->
<g id="edge11_Node000011_Node000012" class="edge">
<title>Node12&#45;&gt;Node11</title>
<g id="a_edge11_Node000011_Node000012"><a xlink:title=" ">
<path fill="none" stroke="#63b8ff" d="M529.96,-226C561.55,-226 599.46,-226 625.02,-226"/>
<polygon fill="#63b8ff" stroke="#63b8ff" points="530.08,-222.5 520.08,-226 530.08,-229.5 530.08,-222.5"/>
</a>
</g>
</g>
<!-- Node13 -->
<g id="Node000013" class="node">
<title>Node13</title>
<g id="a_Node000013"><a xlink:title=" ">
<polygon fill="white" stroke="#666666" points="691.62,-133 618.62,-133 618.62,-113 691.62,-113 691.62,-133"/>
<text text-anchor="middle" x="655.12" y="-119.5" font-family="Helvetica,sans-Serif" font-size="10.00">std::ofstream</text>
</a>
</g>
</g>
<!-- Node13&#45;&gt;Node7 -->
<g id="edge12_Node000007_Node000013" class="edge">
<title>Node13&#45;&gt;Node7</title>
<g id="a_edge12_Node000007_Node000013"><a xlink:title=" ">
<path fill="none" stroke="#9a32cd" stroke-dasharray="5,2" d="M702.18,-132C735.83,-138.58 781.42,-147.49 815.94,-154.24"/>
<polygon fill="#9a32cd" stroke="#9a32cd" points="703.19,-128.44 692.71,-129.96 701.85,-135.31 703.19,-128.44"/>
</a>
</g>
<text text-anchor="middle" x="765.5" y="-151.5" font-family="Helvetica,sans-Serif" font-size="10.00" fill="grey"> filestream</text>
</g>
<!-- Node14 -->
<g id="Node000014" class="node">
<title>Node14</title>
<g id="a_Node000014"><a xlink:title=" ">
<polygon fill="white" stroke="#666666" points="522.62,-139 421.12,-139 421.12,-107 522.62,-107 522.62,-139"/>
<text text-anchor="start" x="429.12" y="-125.5" font-family="Helvetica,sans-Serif" font-size="10.00">std::basic_ofstream</text>
<text text-anchor="middle" x="471.88" y="-113.5" font-family="Helvetica,sans-Serif" font-size="10.00">&lt; Char &gt;</text>
</a>
</g>
</g>
<!-- Node14&#45;&gt;Node13 -->
<g id="edge13_Node000013_Node000014" class="edge">
<title>Node14&#45;&gt;Node13</title>
<g id="a_edge13_Node000013_Node000014"><a xlink:title=" ">
<path fill="none" stroke="#63b8ff" d="M533.81,-123C561.9,-123 594.27,-123 618.36,-123"/>
<polygon fill="#63b8ff" stroke="#63b8ff" points="533.88,-119.5 523.88,-123 533.88,-126.5 533.88,-119.5"/>
</a>
</g>
</g>
<!-- Node15 -->
<g id="Node000015" class="node">
<title>Node15</title>
<g id="a_Node000015"><a xlink:title=" ">
<polygon fill="white" stroke="#666666" points="367.25,-139 268,-139 268,-107 367.25,-107 367.25,-139"/>
<text text-anchor="start" x="276" y="-125.5" font-family="Helvetica,sans-Serif" font-size="10.00">std::basic_ostream</text>
<text text-anchor="middle" x="317.62" y="-113.5" font-family="Helvetica,sans-Serif" font-size="10.00">&lt; Char &gt;</text>
</a>
</g>
</g>
<!-- Node15&#45;&gt;Node14 -->
<g id="edge14_Node000014_Node000015" class="edge">
<title>Node15&#45;&gt;Node14</title>
<g id="a_edge14_Node000014_Node000015"><a xlink:title=" ">
<path fill="none" stroke="#63b8ff" d="M378.6,-123C392.52,-123 407.2,-123 420.65,-123"/>
<polygon fill="#63b8ff" stroke="#63b8ff" points="378.64,-119.5 368.64,-123 378.64,-126.5 378.64,-119.5"/>
</a>
</g>
</g>
<!-- Node16 -->
<g id="Node000016" class="node">
<title>Node16</title>
<g id="a_Node000016"><a xlink:title=" ">
<polygon fill="white" stroke="#666666" points="226.5,-133 111.5,-133 111.5,-113 226.5,-113 226.5,-133"/>
<text text-anchor="middle" x="169" y="-119.5" font-family="Helvetica,sans-Serif" font-size="10.00">std::basic_ios&lt; Char &gt;</text>
</a>
</g>
</g>
<!-- Node16&#45;&gt;Node15 -->
<g id="edge15_Node000015_Node000016" class="edge">
<title>Node16&#45;&gt;Node15</title>
<g id="a_edge15_Node000015_Node000016"><a xlink:title=" ">
<path fill="none" stroke="#63b8ff" d="M237.61,-123C247.76,-123 258.06,-123 267.72,-123"/>
<polygon fill="#63b8ff" stroke="#63b8ff" points="237.69,-119.5 227.69,-123 237.69,-126.5 237.69,-119.5"/>
</a>
</g>
</g>
<!-- Node17 -->
<g id="Node000017" class="node">
<title>Node17</title>
<g id="a_Node000017"><a xlink:title=" ">
<polygon fill="white" stroke="#666666" points="74.5,-133 0,-133 0,-113 74.5,-113 74.5,-133"/>
<text text-anchor="middle" x="37.25" y="-119.5" font-family="Helvetica,sans-Serif" font-size="10.00">std::ios_base</text>
</a>
</g>
</g>
<!-- Node17&#45;&gt;Node16 -->
<g id="edge16_Node000016_Node000017" class="edge">
<title>Node17&#45;&gt;Node16</title>
<g id="a_edge16_Node000016_Node000017"><a xlink:title=" ">
<path fill="none" stroke="#63b8ff" d="M85.5,-123C93.92,-123 102.77,-123 111.41,-123"/>
<polygon fill="#63b8ff" stroke="#63b8ff" points="85.74,-119.5 75.74,-123 85.74,-126.5 85.74,-119.5"/>
</a>
</g>
</g>
<!-- Node18 -->
<g id="Node000018" class="node">
<title>Node18</title>
<g id="a_Node000018"><a xlink:title=" ">
<polygon fill="white" stroke="#666666" points="1205,-132 1091.5,-132 1091.5,-100 1205,-100 1205,-132"/>
<text text-anchor="start" x="1099.5" y="-118.5" font-family="Helvetica,sans-Serif" font-size="10.00">std::vector&lt; Exception</text>
<text text-anchor="middle" x="1148.25" y="-106.5" font-family="Helvetica,sans-Serif" font-size="10.00">::FMTexc &gt;</text>
</a>
</g>
</g>
<!-- Node18&#45;&gt;Node5 -->
<g id="edge17_Node000005_Node000018" class="edge">
<title>Node18&#45;&gt;Node5</title>
<g id="a_edge17_Node000005_Node000018"><a xlink:title=" ">
<path fill="none" stroke="#9a32cd" stroke-dasharray="5,2" d="M1215.87,-116C1254.54,-116 1303.45,-116 1344.01,-116"/>
<polygon fill="#9a32cd" stroke="#9a32cd" points="1216.26,-112.5 1206.26,-116 1216.26,-119.5 1216.26,-112.5"/>
</a>
</g>
<text text-anchor="middle" x="1277.38" y="-118.5" font-family="Helvetica,sans-Serif" font-size="10.00" fill="grey"> errorstowarnings</text>
</g>
<!-- Node19 -->
<g id="Node000019" class="node">
<title>Node19</title>
<g id="a_Node000019"><a xlink:title=" ">
<polygon fill="white" stroke="#666666" points="1205.75,-82 1090.75,-82 1090.75,-50 1205.75,-50 1205.75,-82"/>
<text text-anchor="start" x="1098.75" y="-68.5" font-family="Helvetica,sans-Serif" font-size="10.00">std::set&lt; boost::thread</text>
<text text-anchor="middle" x="1148.25" y="-56.5" font-family="Helvetica,sans-Serif" font-size="10.00">::id &gt;</text>
</a>
</g>
</g>
<!-- Node19&#45;&gt;Node5 -->
<g id="edge18_Node000005_Node000019" class="edge">
<title>Node19&#45;&gt;Node5</title>
<g id="a_edge18_Node000005_Node000019"><a xlink:title=" ">
<path fill="none" stroke="#9a32cd" stroke-dasharray="5,2" d="M1216.64,-78.32C1262.41,-86.69 1322.27,-97.63 1365.68,-105.57"/>
<polygon fill="#9a32cd" stroke="#9a32cd" points="1217.39,-74.72 1206.92,-76.36 1216.13,-81.6 1217.39,-74.72"/>
</a>
</g>
<text text-anchor="middle" x="1277.38" y="-101.5" font-family="Helvetica,sans-Serif" font-size="10.00" fill="grey"> registered_threads</text>
</g>
<!-- Node20 -->
<g id="Node000020" class="node">
<title>Node20</title>
<g id="a_Node000020"><a xlink:title=" ">
<polygon fill="white" stroke="#666666" points="1199.38,-32 1097.12,-32 1097.12,0 1199.38,0 1199.38,-32"/>
<text text-anchor="start" x="1105.12" y="-18.5" font-family="Helvetica,sans-Serif" font-size="10.00">std::unordered_map</text>
<text text-anchor="middle" x="1148.25" y="-6.5" font-family="Helvetica,sans-Serif" font-size="10.00">&lt; int, size_t &gt;</text>
</a>
</g>
</g>
<!-- Node20&#45;&gt;Node5 -->
<g id="edge19_Node000005_Node000020" class="edge">
<title>Node20&#45;&gt;Node5</title>
<g id="a_edge19_Node000005_Node000020"><a xlink:title=" ">
<path fill="none" stroke="#9a32cd" stroke-dasharray="5,2" d="M1210.31,-29.4C1244.99,-37.86 1288.86,-50.03 1326.5,-65 1355.49,-76.53 1387.1,-94.38 1405.9,-105.62"/>
<polygon fill="#9a32cd" stroke="#9a32cd" points="1211.41,-25.82 1200.87,-26.89 1209.77,-32.63 1211.41,-25.82"/>
</a>
</g>
<text text-anchor="middle" x="1277.38" y="-67.5" font-family="Helvetica,sans-Serif" font-size="10.00" fill="grey"> _specificwarningcount</text>
</g>
<!-- Node21 -->
<g id="Node000021" class="node">
<title>Node21</title>
<g id="a_Node000021"><a xlink:title=" ">
<polygon fill="white" stroke="#666666" points="1894.25,-336 1793.5,-336 1793.5,-304 1894.25,-304 1894.25,-336"/>
<text text-anchor="start" x="1801.5" y="-322.5" font-family="Helvetica,sans-Serif" font-size="10.00">std::vector&lt; Core::</text>
<text text-anchor="middle" x="1843.88" y="-310.5" font-family="Helvetica,sans-Serif" font-size="10.00">FMToutputsource &gt;</text>
</a>
</g>
</g>
<!-- Node21&#45;&gt;Node2 -->
<g id="edge21_Node000002_Node000021" class="edge">
<title>Node21&#45;&gt;Node2</title>
<g id="a_edge21_Node000002_Node000021"><a xlink:title=" ">
<path fill="none" stroke="#9a32cd" stroke-dasharray="5,2" d="M1904.97,-302.55C1930.36,-295.19 1959.07,-286.85 1981.09,-280.46"/>
<polygon fill="#9a32cd" stroke="#9a32cd" points="1904.32,-299.39 1895.7,-305.54 1906.28,-306.11 1904.32,-299.39"/>
</a>
</g>
<text text-anchor="middle" x="1934" y="-302.5" font-family="Helvetica,sans-Serif" font-size="10.00" fill="grey"> sources</text>
</g>
<!-- Node22 -->
<g id="Node000022" class="node">
<title>Node22</title>
<g id="a_Node000022"><a xlink:href="classCore_1_1FMToutputsource.html" target="_top" xlink:title=" ">
<polygon fill="white" stroke="#666666" points="1699.38,-334 1581.38,-334 1581.38,-314 1699.38,-314 1699.38,-334"/>
<text text-anchor="middle" x="1640.38" y="-320.5" font-family="Helvetica,sans-Serif" font-size="10.00">Core::FMToutputsource</text>
</a>
</g>
</g>
<!-- Node22&#45;&gt;Node21 -->
<g id="edge22_Node000021_Node000022" class="edge">
<title>Node22&#45;&gt;Node21</title>
<g id="a_edge22_Node000021_Node000022"><a xlink:title=" ">
<path fill="none" stroke="#9a32cd" stroke-dasharray="5,2" d="M1710.3,-322.63C1737.55,-322.09 1768.26,-321.48 1793.25,-320.99"/>
<polygon fill="#9a32cd" stroke="#9a32cd" points="1710.59,-319.15 1700.66,-322.84 1710.72,-326.14 1710.59,-319.15"/>
</a>
</g>
<text text-anchor="middle" x="1750.38" y="-325.5" font-family="Helvetica,sans-Serif" font-size="10.00" fill="grey"> elements</text>
</g>
<!-- Node23 -->
<g id="Node000023" class="node">
<title>Node23</title>
<g id="a_Node000023"><a xlink:href="classCore_1_1FMTspec.html" target="_top" xlink:title=" ">
<polygon fill="white" stroke="#666666" points="1465.12,-350 1382.38,-350 1382.38,-330 1465.12,-330 1465.12,-350"/>
<text text-anchor="middle" x="1423.75" y="-336.5" font-family="Helvetica,sans-Serif" font-size="10.00">Core::FMTspec</text>
</a>
</g>
</g>
<!-- Node23&#45;&gt;Node1 -->
<g id="edge38_Node000001_Node000023" class="edge">
<title>Node23&#45;&gt;Node1</title>
<g id="a_edge38_Node000001_Node000023"><a xlink:title=" ">
<path fill="none" stroke="#63b8ff" d="M1476.19,-349.01C1519.55,-355.82 1583.33,-364 1639.38,-364 1639.38,-364 1639.38,-364 2019.12,-364 2062.32,-364 2109.08,-341.28 2133.57,-327.43"/>
<polygon fill="#63b8ff" stroke="#63b8ff" points="1476.77,-345.4 1466.34,-347.27 1475.66,-352.31 1476.77,-345.4"/>
</a>
</g>
</g>
<!-- Node23&#45;&gt;Node22 -->
<g id="edge23_Node000022_Node000023" class="edge">
<title>Node23&#45;&gt;Node22</title>
<g id="a_edge23_Node000022_Node000023"><a xlink:title=" ">
<path fill="none" stroke="#63b8ff" d="M1476.4,-336.15C1508,-333.79 1548.5,-330.77 1581.22,-328.34"/>
<polygon fill="#63b8ff" stroke="#63b8ff" points="1476.34,-332.72 1466.62,-336.95 1476.86,-339.7 1476.34,-332.72"/>
</a>
</g>
</g>
<!-- Node24 -->
<g id="Node000024" class="node">
<title>Node24</title>
<g id="a_Node000024"><a xlink:href="classCore_1_1FMTperbounds.html" target="_top" xlink:title=" ">
<polygon fill="white" stroke="#666666" points="1201.62,-350 1094.88,-350 1094.88,-330 1201.62,-330 1201.62,-350"/>
<text text-anchor="middle" x="1148.25" y="-336.5" font-family="Helvetica,sans-Serif" font-size="10.00">Core::FMTperbounds</text>
</a>
</g>
</g>
<!-- Node24&#45;&gt;Node23 -->
<g id="edge24_Node000023_Node000024" class="edge">
<title>Node24&#45;&gt;Node23</title>
<g id="a_edge24_Node000023_Node000024"><a xlink:title=" ">
<path fill="none" stroke="#9a32cd" stroke-dasharray="5,2" d="M1212.81,-340C1265.05,-340 1337.5,-340 1382.19,-340"/>
<polygon fill="#9a32cd" stroke="#9a32cd" points="1212.98,-336.5 1202.98,-340 1212.98,-343.5 1212.98,-336.5"/>
</a>
</g>
<text text-anchor="middle" x="1277.38" y="-342.5" font-family="Helvetica,sans-Serif" font-size="10.00" fill="grey"> per</text>
</g>
<!-- Node25 -->
<g id="Node000025" class="node">
<title>Node25</title>
<g id="a_Node000025"><a xlink:href="classCore_1_1FMTbounds.html" target="_top" xlink:title=" ">
<polygon fill="white" stroke="#666666" points="927.75,-312 806,-312 806,-292 927.75,-292 927.75,-312"/>
<text text-anchor="middle" x="866.88" y="-298.5" font-family="Helvetica,sans-Serif" font-size="10.00">Core::FMTbounds&lt; int &gt;</text>
</a>
</g>
</g>
<!-- Node25&#45;&gt;Node24 -->
<g id="edge25_Node000024_Node000025" class="edge">
<title>Node25&#45;&gt;Node24</title>
<g id="a_edge25_Node000024_Node000025"><a xlink:title=" ">
<path fill="none" stroke="#63b8ff" d="M934.61,-314.26C938.37,-314.87 942.11,-315.46 945.75,-316 996.1,-323.52 1053.81,-330.19 1094.53,-334.59"/>
<polygon fill="#63b8ff" stroke="#63b8ff" points="935.4,-310.68 924.96,-312.49 934.25,-317.59 935.4,-310.68"/>
</a>
</g>
</g>
<!-- Node26 -->
<g id="Node000026" class="node">
<title>Node26</title>
<g id="a_Node000026"><a xlink:href="classCore_1_1FMTagebounds.html" target="_top" xlink:title=" ">
<polygon fill="white" stroke="#666666" points="1202.75,-312 1093.75,-312 1093.75,-292 1202.75,-292 1202.75,-312"/>
<text text-anchor="middle" x="1148.25" y="-298.5" font-family="Helvetica,sans-Serif" font-size="10.00">Core::FMTagebounds</text>
</a>
</g>
</g>
<!-- Node25&#45;&gt;Node26 -->
<g id="edge27_Node000026_Node000025" class="edge">
<title>Node25&#45;&gt;Node26</title>
<g id="a_edge27_Node000026_Node000025"><a xlink:title=" ">
<path fill="none" stroke="#63b8ff" d="M939.12,-302C987.25,-302 1049.78,-302 1093.69,-302"/>
<polygon fill="#63b8ff" stroke="#63b8ff" points="939.15,-298.5 929.15,-302 939.15,-305.5 939.15,-298.5"/>
</a>
</g>
</g>
<!-- Node27 -->
<g id="Node000027" class="node">
<title>Node27</title>
<g id="a_Node000027"><a xlink:href="classCore_1_1FMTlockbounds.html" target="_top" xlink:title=" ">
<polygon fill="white" stroke="#666666" points="1203.88,-274 1092.62,-274 1092.62,-254 1203.88,-254 1203.88,-274"/>
<text text-anchor="middle" x="1148.25" y="-260.5" font-family="Helvetica,sans-Serif" font-size="10.00">Core::FMTlockbounds</text>
</a>
</g>
</g>
<!-- Node25&#45;&gt;Node27 -->
<g id="edge29_Node000027_Node000025" class="edge">
<title>Node25&#45;&gt;Node27</title>
<g id="a_edge29_Node000027_Node000025"><a xlink:title=" ">
<path fill="none" stroke="#63b8ff" d="M939.01,-292.32C986.65,-285.84 1048.43,-277.44 1092.29,-271.47"/>
<polygon fill="#63b8ff" stroke="#63b8ff" points="938.59,-288.99 929.15,-293.8 939.53,-295.92 938.59,-288.99"/>
</a>
</g>
</g>
<!-- Node26&#45;&gt;Node23 -->
<g id="edge26_Node000023_Node000026" class="edge">
<title>Node26&#45;&gt;Node23</title>
<g id="a_edge26_Node000023_Node000026"><a xlink:title=" ">
<path fill="none" stroke="#9a32cd" stroke-dasharray="5,2" d="M1213.86,-309.37C1247.49,-313.37 1289.26,-318.6 1326.5,-324 1344.77,-326.65 1364.93,-329.95 1382.06,-332.85"/>
<polygon fill="#9a32cd" stroke="#9a32cd" points="1214.58,-305.81 1204.24,-308.12 1213.76,-312.76 1214.58,-305.81"/>
</a>
</g>
<text text-anchor="middle" x="1277.38" y="-326.5" font-family="Helvetica,sans-Serif" font-size="10.00" fill="grey"> age</text>
</g>
<!-- Node27&#45;&gt;Node23 -->
<g id="edge28_Node000023_Node000027" class="edge">
<title>Node27&#45;&gt;Node23</title>
<g id="a_edge28_Node000023_Node000027"><a xlink:title=" ">
<path fill="none" stroke="#9a32cd" stroke-dasharray="5,2" d="M1214.71,-271.83C1248.57,-276.87 1290.29,-284.65 1326.5,-296 1354.38,-304.74 1384.75,-319.59 1403.77,-329.6"/>
<polygon fill="#9a32cd" stroke="#9a32cd" points="1215.41,-268.25 1205.01,-270.28 1214.41,-275.17 1215.41,-268.25"/>
</a>
</g>
<text text-anchor="middle" x="1277.38" y="-298.5" font-family="Helvetica,sans-Serif" font-size="10.00" fill="grey"> lock</text>
</g>
<!-- Node28&#45;&gt;Node23 -->
<g id="edge30_Node000023_Node000028" class="edge">
<title>Node28&#45;&gt;Node23</title>
<g id="a_edge30_Node000023_Node000028"><a xlink:title=" ">
<path fill="none" stroke="#9a32cd" stroke-dasharray="5,2" d="M1079.51,-371.46C1144.18,-369.52 1241.94,-365.26 1326.5,-356 1344.85,-353.99 1365.03,-350.79 1382.14,-347.78"/>
<polygon fill="#9a32cd" stroke="#9a32cd" points="1079.52,-367.99 1069.63,-371.77 1079.73,-374.98 1079.52,-367.99"/>
</a>
</g>
<text text-anchor="middle" x="1148.25" y="-373.5" font-family="Helvetica,sans-Serif" font-size="10.00" fill="grey"> yieldnames</text>
</g>
<!-- Node29 -->
<g id="Node000029" class="node">
<title>Node29</title>
<g id="a_Node000029"><a xlink:title=" ">
<polygon fill="white" stroke="#666666" points="1196.38,-448 1100.12,-448 1100.12,-416 1196.38,-416 1196.38,-448"/>
<text text-anchor="start" x="1108.12" y="-434.5" font-family="Helvetica,sans-Serif" font-size="10.00">std::vector&lt; Core::</text>
<text text-anchor="middle" x="1148.25" y="-422.5" font-family="Helvetica,sans-Serif" font-size="10.00">FMTyldbounds &gt;</text>
</a>
</g>
</g>
<!-- Node29&#45;&gt;Node23 -->
<g id="edge32_Node000023_Node000029" class="edge">
<title>Node29&#45;&gt;Node23</title>
<g id="a_edge32_Node000023_Node000029"><a xlink:title=" ">
<path fill="none" stroke="#9a32cd" stroke-dasharray="5,2" d="M1207.46,-427.1C1242.79,-422.77 1288.29,-414.73 1326.5,-400 1358.65,-387.6 1391.82,-364.12 1409.6,-350.5"/>
<polygon fill="#9a32cd" stroke="#9a32cd" points="1207.37,-423.7 1197.84,-428.33 1208.18,-430.65 1207.37,-423.7"/>
</a>
</g>
<text text-anchor="middle" x="1277.38" y="-425.5" font-family="Helvetica,sans-Serif" font-size="10.00" fill="grey"> yieldbounds</text>
</g>
<!-- Node30 -->
<g id="Node000030" class="node">
<title>Node30</title>
<g id="a_Node000030"><a xlink:href="classCore_1_1FMTyldbounds.html" target="_top" xlink:title=" ">
<polygon fill="white" stroke="#666666" points="919.88,-442 813.88,-442 813.88,-422 919.88,-422 919.88,-442"/>
<text text-anchor="middle" x="866.88" y="-428.5" font-family="Helvetica,sans-Serif" font-size="10.00">Core::FMTyldbounds</text>
</a>
</g>
</g>
<!-- Node30&#45;&gt;Node29 -->
<g id="edge33_Node000029_Node000030" class="edge">
<title>Node30&#45;&gt;Node29</title>
<g id="a_edge33_Node000029_Node000030"><a xlink:title=" ">
<path fill="none" stroke="#9a32cd" stroke-dasharray="5,2" d="M931.04,-432C982.32,-432 1053.48,-432 1099.94,-432"/>
<polygon fill="#9a32cd" stroke="#9a32cd" points="931.1,-428.5 921.1,-432 931.1,-435.5 931.1,-428.5"/>
</a>
</g>
<text text-anchor="middle" x="1007" y="-434.5" font-family="Helvetica,sans-Serif" font-size="10.00" fill="grey"> elements</text>
</g>
<!-- Node31 -->
<g id="Node000031" class="node">
<title>Node31</title>
<g id="a_Node000031"><a xlink:href="classCore_1_1FMTbounds.html" target="_top" xlink:title=" ">
<polygon fill="white" stroke="#666666" points="725,-442 585.25,-442 585.25,-422 725,-422 725,-442"/>
<text text-anchor="middle" x="655.12" y="-428.5" font-family="Helvetica,sans-Serif" font-size="10.00">Core::FMTbounds&lt; double &gt;</text>
</a>
</g>
</g>
<!-- Node31&#45;&gt;Node30 -->
<g id="edge34_Node000030_Node000031" class="edge">
<title>Node31&#45;&gt;Node30</title>
<g id="a_edge34_Node000030_Node000031"><a xlink:title=" ">
<path fill="none" stroke="#63b8ff" d="M736.34,-432C762.25,-432 790.29,-432 813.63,-432"/>
<polygon fill="#63b8ff" stroke="#63b8ff" points="736.39,-428.5 726.39,-432 736.39,-435.5 736.39,-428.5"/>
</a>
</g>
</g>
<!-- Node32 -->
<g id="Node000032" class="node">
<title>Node32</title>
<g id="a_Node000032"><a xlink:title=" ">
<polygon fill="white" stroke="#666666" points="1892,-286 1795.75,-286 1795.75,-254 1892,-254 1892,-286"/>
<text text-anchor="start" x="1803.75" y="-272.5" font-family="Helvetica,sans-Serif" font-size="10.00">std::vector&lt; Core::</text>
<text text-anchor="middle" x="1843.88" y="-260.5" font-family="Helvetica,sans-Serif" font-size="10.00">FMToperator &gt;</text>
</a>
</g>
</g>
<!-- Node32&#45;&gt;Node2 -->
<g id="edge35_Node000002_Node000032" class="edge">
<title>Node32&#45;&gt;Node2</title>
<g id="a_edge35_Node000002_Node000032"><a xlink:title=" ">
<path fill="none" stroke="#9a32cd" stroke-dasharray="5,2" d="M1903.37,-270C1926.26,-270 1952.06,-270 1973.3,-270"/>
<polygon fill="#9a32cd" stroke="#9a32cd" points="1903.4,-266.5 1893.4,-270 1903.4,-273.5 1903.4,-266.5"/>
</a>
</g>
<text text-anchor="middle" x="1934" y="-272.5" font-family="Helvetica,sans-Serif" font-size="10.00" fill="grey"> operators</text>
</g>
<!-- Node33 -->
<g id="Node000033" class="node">
<title>Node33</title>
<g id="a_Node000033"><a xlink:href="classCore_1_1FMToperator.html" target="_top" xlink:title=" ">
<polygon fill="white" stroke="#666666" points="1688.88,-280 1591.88,-280 1591.88,-260 1688.88,-260 1688.88,-280"/>
<text text-anchor="middle" x="1640.38" y="-266.5" font-family="Helvetica,sans-Serif" font-size="10.00">Core::FMToperator</text>
</a>
</g>
</g>
<!-- Node33&#45;&gt;Node32 -->
<g id="edge36_Node000032_Node000033" class="edge">
<title>Node33&#45;&gt;Node32</title>
<g id="a_edge36_Node000032_Node000033"><a xlink:title=" ">
<path fill="none" stroke="#9a32cd" stroke-dasharray="5,2" d="M1700,-270C1730.35,-270 1766.92,-270 1795.47,-270"/>
<polygon fill="#9a32cd" stroke="#9a32cd" points="1700.13,-266.5 1690.13,-270 1700.13,-273.5 1700.13,-266.5"/>
</a>
</g>
<text text-anchor="middle" x="1750.38" y="-272.5" font-family="Helvetica,sans-Serif" font-size="10.00" fill="grey"> elements</text>
</g>
</g>
</svg>

<g id="navigator" transform="translate(0 0)" fill="#404254">
  <rect fill="#f2f5e9" fill-opacity="0.5" stroke="#606060" stroke-width=".5" x="0" y="0" width="60" height="60"/>
  <use id="zoomplus" xlink:href="#zoomPlus" x="17" y="9" onmousedown="handleZoom(evt,'in')"/>
  <use id="zoomminus" xlink:href="#zoomMin" x="42" y="9" onmousedown="handleZoom(evt,'out')"/>
  <use id="reset" xlink:href="#resetDef" x="30" y="36" onmousedown="handleReset()"/>
   <use id="arrowup" xlink:href="#arrowUp" x="0" y="0" onmousedown="handlePan(0,-1)"/>
  <use id="arrowright" xlink:href="#arrowRight" x="0" y="0" onmousedown="handlePan(1,0)"/>
  <use id="arrowdown" xlink:href="#arrowDown" x="0" y="0" onmousedown="handlePan(0,1)"/>
  <use id="arrowleft" xlink:href="#arrowLeft" x="0" y="0" onmousedown="handlePan(-1,0)"/>
</g>
<svg viewBox="0 0 15 15" width="100%" height="30px" preserveAspectRatio="xMaxYMin meet">
 <g id="arrow_out" transform="scale(0.3 0.3)">
  <a xlink:href="classCore_1_1FMTconstraint__coll__graph_org.svg" target="_base">
   <rect id="button" ry="5" rx="5" y="6" x="6" height="38" width="38"
        fill="#f2f5e9" fill-opacity="0.5" stroke="#606060" stroke-width="1.0"/>
   <path id="arrow"
     d="M 11.500037,31.436501 C 11.940474,20.09759 22.043105,11.32322 32.158766,21.979434 L 37.068811,17.246167 C 37.068811,17.246167 37.088388,32 37.088388,32 L 22.160133,31.978069 C 22.160133,31.978069 26.997745,27.140456 26.997745,27.140456 C 18.528582,18.264221 13.291696,25.230495 11.500037,31.436501 z"
     style="fill:#404040;"/>
  </a>
 </g>
</svg>

<style type='text/css'>
<![CDATA[
[data-mouse-over-selected='false'] { opacity: 0.7; }
[data-mouse-over-selected='true']  { opacity: 1.0; }
]]>
</style>
<script type="application/ecmascript"><![CDATA[
document.addEventListener('DOMContentLoaded', (event) => {
  highlightEdges();
  highlightAdjacentNodes();
});
]]></script>
</svg>
