<?xml version="1.0" encoding="UTF-8" standalone="no"?>
<!DOCTYPE svg PUBLIC "-//W3C//DTD SVG 1.1//EN"
 "http://www.w3.org/Graphics/SVG/1.1/DTD/svg11.dtd">
<!-- Generated by graphviz version 8.1.0 (20230707.0739)
 -->
<!-- Title: Core::FMTtransitionmask Pages: 1 -->
<svg width="212pt" height="84pt"
 viewBox="0.00 0.00 212.25 84.00" xmlns="http://www.w3.org/2000/svg" xmlns:xlink="http://www.w3.org/1999/xlink">
<g id="graph0" class="graph" transform="scale(1 1) rotate(0) translate(4 80)">
<title>Core::FMTtransitionmask</title>
<!-- Node1 -->
<g id="Node000001" class="node">
<title>Node1</title>
<g id="a_Node000001"><a xlink:title=" ">
<polygon fill="#999999" stroke="#666666" points="169.62,-20 44.12,-20 44.12,0 169.62,0 169.62,-20"/>
<text text-anchor="middle" x="106.88" y="-6.5" font-family="Helvetica,sans-Serif" font-size="10.00">Core::FMTtransitionmask</text>
</a>
</g>
</g>
<!-- Node2 -->
<g id="Node000002" class="node">
<title>Node2</title>
<g id="a_Node000002"><a xlink:href="classCore_1_1FMTmaskfilter.html" target="_top" xlink:title=" ">
<polygon fill="white" stroke="#666666" points="103.75,-76 0,-76 0,-56 103.75,-56 103.75,-76"/>
<text text-anchor="middle" x="51.88" y="-62.5" font-family="Helvetica,sans-Serif" font-size="10.00">Core::FMTmaskfilter</text>
</a>
</g>
</g>
<!-- Node2&#45;&gt;Node1 -->
<g id="edge1_Node000001_Node000002" class="edge">
<title>Node2&#45;&gt;Node1</title>
<g id="a_edge1_Node000001_Node000002"><a xlink:title=" ">
<path fill="none" stroke="#63b8ff" d="M69.06,-48.13C78.41,-38.94 89.63,-27.93 97.4,-20.3"/>
<polygon fill="#63b8ff" stroke="#63b8ff" points="67.14,-45.09 62.46,-54.59 72.04,-50.09 67.14,-45.09"/>
</a>
</g>
</g>
<!-- Node3 -->
<g id="Node000003" class="node">
<title>Node3</title>
<g id="a_Node000003"><a xlink:href="classCore_1_1FMTspec.html" target="_top" xlink:title=" ">
<polygon fill="white" stroke="#666666" points="204.25,-76 121.5,-76 121.5,-56 204.25,-56 204.25,-76"/>
<text text-anchor="middle" x="162.88" y="-62.5" font-family="Helvetica,sans-Serif" font-size="10.00">Core::FMTspec</text>
</a>
</g>
</g>
<!-- Node3&#45;&gt;Node1 -->
<g id="edge2_Node000001_Node000003" class="edge">
<title>Node3&#45;&gt;Node1</title>
<g id="a_edge2_Node000001_Node000003"><a xlink:title=" ">
<path fill="none" stroke="#63b8ff" d="M145.38,-48.13C135.85,-38.94 124.43,-27.93 116.52,-20.3"/>
<polygon fill="#63b8ff" stroke="#63b8ff" points="142.49,-50.17 152.12,-54.59 147.35,-45.13 142.49,-50.17"/>
</a>
</g>
</g>
</g>
</svg>
