<?xml version="1.0" encoding="UTF-8" standalone="no"?>
<!DOCTYPE svg PUBLIC "-//W3C//DTD SVG 1.1//EN"
 "http://www.w3.org/Graphics/SVG/1.1/DTD/svg11.dtd">
<!-- Generated by graphviz version 10.0.1 (20240210.2158)
 -->
<!-- Title: Spatial::FMTspatialschedule Pages: 1 -->
<!--zoomable 327 -->
<svg id="main" version="1.1" xmlns="http://www.w3.org/2000/svg" xmlns:xlink="http://www.w3.org/1999/xlink" xml:space="preserve" onload="init(evt)">
<style type="text/css"><![CDATA[
.edge:hover path { stroke: red; }
.edge:hover polygon { stroke: red; fill: red; }
]]></style>
<script type="text/javascript"><![CDATA[
var edges = document.getElementsByTagName('g');
if (edges && edges.length) {
  for (var i=0;i<edges.length;i++) {
    if (edges[i].id.substr(0,4)=='edge') {
      edges[i].setAttribute('class','edge');
    }
  }
}
]]></script>
        <defs>
                <circle id="rim" cx="0" cy="0" r="7"/>
                <circle id="rim2" cx="0" cy="0" r="3.5"/>
                <g id="zoomPlus">
                        <use xlink:href="#rim" fill="#404040">
                                <set attributeName="fill" to="#808080" begin="zoomplus.mouseover" end="zoomplus.mouseout"/>
                        </use>
                        <path d="M-4,0h8M0,-4v8" fill="none" stroke="white" stroke-width="1.5" pointer-events="none"/>
                </g>
                <g id="zoomMin">
                        <use xlink:href="#rim" fill="#404040">
                                <set attributeName="fill" to="#808080" begin="zoomminus.mouseover" end="zoomminus.mouseout"/>
                        </use>
                        <path d="M-4,0h8" fill="none" stroke="white" stroke-width="1.5" pointer-events="none"/>
                </g>
                <g id="dirArrow">
                        <path fill="none" stroke="white" stroke-width="1.5" d="M0,-3.0v7 M-2.5,-0.5L0,-3.0L2.5,-0.5"/>
                </g>
               <g id="resetDef">
                       <use xlink:href="#rim2" fill="#404040">
                               <set attributeName="fill" to="#808080" begin="reset.mouseover" end="reset.mouseout"/>
                       </use>
               </g>
        </defs>

<script type="text/javascript">
var viewWidth = 3057;
var viewHeight = 327;
var sectionId = 'dynsection-1';
</script>
<script xlink:href="svgpan.js"/>
<svg id="graph" class="graph">
<g id="viewport">
<title>Spatial::FMTspatialschedule</title>
<!-- Node1 -->
<g id="node1" class="node">
<title>Node1</title>
<g id="a_node1"><a xlink:title=" ">
<polygon fill="#999999" stroke="#666666" points="3049.25,-247 2910.25,-247 2910.25,-227 3049.25,-227 3049.25,-247"/>
<text text-anchor="middle" x="2979.75" y="-233.5" font-family="Helvetica,sans-Serif" font-size="10.00">Spatial::FMTspatialschedule</text>
</a>
</g>
</g>
<!-- Node2 -->
<g id="node2" class="node">
<title>Node2</title>
<g id="a_node2"><a xlink:href="classSpatial_1_1FMTlayer.html" target="_top" xlink:title=" ">
<polygon fill="white" stroke="#666666" points="2873.25,-211 2754.5,-211 2754.5,-179 2873.25,-179 2873.25,-211"/>
<text text-anchor="start" x="2762.5" y="-197.5" font-family="Helvetica,sans-Serif" font-size="10.00">Spatial::FMTlayer&lt;</text>
<text text-anchor="middle" x="2813.88" y="-185.5" font-family="Helvetica,sans-Serif" font-size="10.00"> Graph::FMTlinegraph &gt;</text>
</a>
</g>
</g>
<!-- Node2&#45;&gt;Node1 -->
<g id="edge1" class="edge">
<title>Node2&#45;&gt;Node1</title>
<path fill="none" stroke="#63b8ff" d="M2884.47,-212.84C2902.69,-217.51 2921.74,-222.39 2937.91,-226.53"/>
<polygon fill="#63b8ff" stroke="#63b8ff" points="2885.6,-209.51 2875.04,-210.42 2883.86,-216.29 2885.6,-209.51"/>
</g>
<!-- Node3 -->
<g id="node3" class="node">
<title>Node3</title>
<g id="a_node3"><a xlink:href="classCore_1_1FMTobject.html" target="_top" xlink:title=" ">
<polygon fill="white" stroke="#666666" points="1823.5,-210 1735.5,-210 1735.5,-190 1823.5,-190 1823.5,-210"/>
<text text-anchor="middle" x="1779.5" y="-196.5" font-family="Helvetica,sans-Serif" font-size="10.00">Core::FMTobject</text>
</a>
</g>
</g>
<!-- Node3&#45;&gt;Node2 -->
<g id="edge2" class="edge">
<title>Node3&#45;&gt;Node2</title>
<path fill="none" stroke="#63b8ff" d="M1835.07,-198.52C1894.05,-197.04 1990.81,-195 2074.25,-195 2074.25,-195 2074.25,-195 2603.88,-195 2654.67,-195 2712.42,-195 2754.32,-195"/>
<polygon fill="#63b8ff" stroke="#63b8ff" points="1835.22,-195.01 1825.31,-198.76 1835.4,-202.01 1835.22,-195.01"/>
</g>
<!-- Node25 -->
<g id="node25" class="node">
<title>Node25</title>
<g id="a_node25"><a xlink:href="classGraph_1_1FMTgraph.html" target="_top" xlink:title=" ">
<polygon fill="white" stroke="#666666" points="2181.5,-159 1969,-159 1969,-127 2181.5,-127 2181.5,-159"/>
<text text-anchor="start" x="1977" y="-145.5" font-family="Helvetica,sans-Serif" font-size="10.00">Graph::FMTgraph&lt; FMTbasevertexproperties,</text>
<text text-anchor="middle" x="2075.25" y="-133.5" font-family="Helvetica,sans-Serif" font-size="10.00"> FMTbaseedgeproperties &gt;</text>
</a>
</g>
</g>
<!-- Node3&#45;&gt;Node25 -->
<g id="edge27" class="edge">
<title>Node3&#45;&gt;Node25</title>
<path fill="none" stroke="#63b8ff" d="M1835,-189.42C1878.31,-181.02 1939.66,-169.12 1989.38,-159.47"/>
<polygon fill="#63b8ff" stroke="#63b8ff" points="1834.48,-185.96 1825.33,-191.3 1835.81,-192.83 1834.48,-185.96"/>
</g>
<!-- Node30 -->
<g id="node30" class="node">
<title>Node30</title>
<g id="a_node30"><a xlink:href="classSpatial_1_1FMTeventcontainer.html" target="_top" xlink:title=" ">
<polygon fill="white" stroke="#666666" points="2333.25,-277 2199.5,-277 2199.5,-257 2333.25,-257 2333.25,-277"/>
<text text-anchor="middle" x="2266.38" y="-263.5" font-family="Helvetica,sans-Serif" font-size="10.00">Spatial::FMTeventcontainer</text>
</a>
</g>
</g>
<!-- Node3&#45;&gt;Node30 -->
<g id="edge33" class="edge">
<title>Node3&#45;&gt;Node30</title>
<path fill="none" stroke="#63b8ff" d="M1835.23,-207.56C1924.9,-219.95 2102.79,-244.53 2199.33,-257.87"/>
<polygon fill="#63b8ff" stroke="#63b8ff" points="1835.84,-204.11 1825.46,-206.21 1834.88,-211.05 1835.84,-204.11"/>
</g>
<!-- Node4 -->
<g id="node4" class="node">
<title>Node4</title>
<g id="a_node4"><a xlink:title=" ">
<polygon fill="white" stroke="#666666" points="1582.12,-218 1448.38,-218 1448.38,-186 1582.12,-186 1582.12,-218"/>
<text text-anchor="start" x="1456.38" y="-204.5" font-family="Helvetica,sans-Serif" font-size="10.00">std::shared_ptr&lt; Exception</text>
<text text-anchor="middle" x="1515.25" y="-192.5" font-family="Helvetica,sans-Serif" font-size="10.00">::FMTexceptionhandler &gt;</text>
</a>
</g>
</g>
<!-- Node4&#45;&gt;Node3 -->
<g id="edge3" class="edge">
<title>Node4&#45;&gt;Node3</title>
<path fill="none" stroke="#9a32cd" stroke-dasharray="5,2" d="M1593.93,-201.41C1640.16,-201.06 1697.07,-200.62 1735.38,-200.33"/>
<polygon fill="#9a32cd" stroke="#9a32cd" points="1593.91,-197.91 1583.94,-201.48 1593.97,-204.91 1593.91,-197.91"/>
<text text-anchor="middle" x="1645.12" y="-203.5" font-family="Helvetica,sans-Serif" font-size="10.00"> _exhandler</text>
</g>
<!-- Node5 -->
<g id="node5" class="node">
<title>Node5</title>
<g id="a_node5"><a xlink:href="classException_1_1FMTexceptionhandler.html" target="_top" xlink:title=" ">
<polygon fill="white" stroke="#666666" points="1358,-221 1199.5,-221 1199.5,-201 1358,-201 1358,-221"/>
<text text-anchor="middle" x="1278.75" y="-207.5" font-family="Helvetica,sans-Serif" font-size="10.00">Exception::FMTexceptionhandler</text>
</a>
</g>
</g>
<!-- Node5&#45;&gt;Node4 -->
<g id="edge4" class="edge">
<title>Node5&#45;&gt;Node4</title>
<path fill="none" stroke="#9a32cd" stroke-dasharray="5,2" d="M1369.92,-207.54C1395.98,-206.54 1423.93,-205.47 1448.23,-204.53"/>
<polygon fill="#9a32cd" stroke="#9a32cd" points="1369.86,-204.04 1360,-207.92 1370.13,-211.03 1369.86,-204.04"/>
<text text-anchor="middle" x="1393.25" y="-209.5" font-family="Helvetica,sans-Serif" font-size="10.00"> ptr</text>
</g>
<!-- Node6 -->
<g id="node6" class="node">
<title>Node6</title>
<g id="a_node6"><a xlink:title=" ">
<polygon fill="white" stroke="#666666" points="1065.25,-159 941.25,-159 941.25,-127 1065.25,-127 1065.25,-159"/>
<text text-anchor="start" x="949.25" y="-145.5" font-family="Helvetica,sans-Serif" font-size="10.00">std::shared_ptr&lt; Logging</text>
<text text-anchor="middle" x="1003.25" y="-133.5" font-family="Helvetica,sans-Serif" font-size="10.00">::FMTlogger &gt;</text>
</a>
</g>
</g>
<!-- Node6&#45;&gt;Node3 -->
<g id="edge20" class="edge">
<title>Node6&#45;&gt;Node3</title>
<path fill="none" stroke="#9a32cd" stroke-dasharray="5,2" d="M1076.65,-145.42C1189.21,-149.56 1412.89,-159.32 1602,-177 1647.54,-181.26 1699.41,-188.28 1735.08,-193.45"/>
<polygon fill="#9a32cd" stroke="#9a32cd" points="1077.09,-141.93 1066.97,-145.07 1076.83,-148.93 1077.09,-141.93"/>
<text text-anchor="middle" x="1393.25" y="-164.5" font-family="Helvetica,sans-Serif" font-size="10.00"> _logger</text>
</g>
<!-- Node6&#45;&gt;Node5 -->
<g id="edge5" class="edge">
<title>Node6&#45;&gt;Node5</title>
<path fill="none" stroke="#9a32cd" stroke-dasharray="5,2" d="M1076.53,-160.97C1127.27,-173.59 1193.36,-190.02 1235.68,-200.54"/>
<polygon fill="#9a32cd" stroke="#9a32cd" points="1077.65,-157.64 1067.1,-158.63 1075.96,-164.44 1077.65,-157.64"/>
<text text-anchor="middle" x="1132.38" y="-190.5" font-family="Helvetica,sans-Serif" font-size="10.00"> _logger</text>
</g>
<!-- Node7 -->
<g id="node7" class="node">
<title>Node7</title>
<g id="a_node7"><a xlink:href="classLogging_1_1FMTlogger.html" target="_top" xlink:title=" ">
<polygon fill="white" stroke="#666666" points="891,-132 789.5,-132 789.5,-112 891,-112 891,-132"/>
<text text-anchor="middle" x="840.25" y="-118.5" font-family="Helvetica,sans-Serif" font-size="10.00">Logging::FMTlogger</text>
</a>
</g>
</g>
<!-- Node7&#45;&gt;Node6 -->
<g id="edge6" class="edge">
<title>Node7&#45;&gt;Node6</title>
<path fill="none" stroke="#9a32cd" stroke-dasharray="5,2" d="M902.6,-130C915.14,-131.64 928.34,-133.36 940.88,-135"/>
<polygon fill="#9a32cd" stroke="#9a32cd" points="903.18,-126.55 892.81,-128.73 902.27,-133.49 903.18,-126.55"/>
<text text-anchor="middle" x="916.12" y="-135.5" font-family="Helvetica,sans-Serif" font-size="10.00"> ptr</text>
</g>
<!-- Node8 -->
<g id="node8" class="node">
<title>Node8</title>
<g id="a_node8"><a xlink:title=" ">
<polygon fill="white" stroke="#666666" points="708.5,-169 585.25,-169 585.25,-137 708.5,-137 708.5,-169"/>
<text text-anchor="start" x="593.25" y="-155.5" font-family="Helvetica,sans-Serif" font-size="10.00">std::unique_ptr&lt; Logging</text>
<text text-anchor="middle" x="646.88" y="-143.5" font-family="Helvetica,sans-Serif" font-size="10.00">::FMTsolverlogger &gt;</text>
</a>
</g>
</g>
<!-- Node8&#45;&gt;Node7 -->
<g id="edge7" class="edge">
<title>Node8&#45;&gt;Node7</title>
<path fill="none" stroke="#9a32cd" stroke-dasharray="5,2" d="M720.1,-141.3C743.17,-137.56 768.18,-133.51 789.3,-130.09"/>
<polygon fill="#9a32cd" stroke="#9a32cd" points="719.76,-137.81 710.45,-142.86 720.88,-144.72 719.76,-137.81"/>
<text text-anchor="middle" x="749" y="-142.5" font-family="Helvetica,sans-Serif" font-size="10.00"> solverref</text>
</g>
<!-- Node9 -->
<g id="node9" class="node">
<title>Node9</title>
<g id="a_node9"><a xlink:href="classLogging_1_1FMTsolverlogger.html" target="_top" xlink:title=" ">
<polygon fill="white" stroke="#666666" points="535,-163 408.75,-163 408.75,-143 535,-143 535,-163"/>
<text text-anchor="middle" x="471.88" y="-149.5" font-family="Helvetica,sans-Serif" font-size="10.00">Logging::FMTsolverlogger</text>
</a>
</g>
</g>
<!-- Node9&#45;&gt;Node8 -->
<g id="edge8" class="edge">
<title>Node9&#45;&gt;Node8</title>
<path fill="none" stroke="#9a32cd" stroke-dasharray="5,2" d="M546.48,-153C559.3,-153 572.52,-153 584.96,-153"/>
<polygon fill="#9a32cd" stroke="#9a32cd" points="546.85,-149.5 536.85,-153 546.85,-156.5 546.85,-149.5"/>
<text text-anchor="middle" x="560.12" y="-155.5" font-family="Helvetica,sans-Serif" font-size="10.00"> ptr</text>
</g>
<!-- Node10 -->
<g id="node10" class="node">
<title>Node10</title>
<g id="a_node10"><a xlink:title=" ">
<polygon fill="white" stroke="#666666" points="371.75,-163 263.5,-163 263.5,-143 371.75,-143 371.75,-163"/>
<text text-anchor="middle" x="317.62" y="-149.5" font-family="Helvetica,sans-Serif" font-size="10.00">CoinMessageHandler</text>
</a>
</g>
</g>
<!-- Node10&#45;&gt;Node9 -->
<g id="edge9" class="edge">
<title>Node10&#45;&gt;Node9</title>
<path fill="none" stroke="#63b8ff" d="M383.37,-153C391.61,-153 400.04,-153 408.25,-153"/>
<polygon fill="#63b8ff" stroke="#63b8ff" points="383.39,-149.5 373.39,-153 383.39,-156.5 383.39,-149.5"/>
</g>
<!-- Node11 -->
<g id="node11" class="node">
<title>Node11</title>
<g id="a_node11"><a xlink:title=" ">
<polygon fill="white" stroke="#666666" points="676.62,-65 617.12,-65 617.12,-45 676.62,-45 676.62,-65"/>
<text text-anchor="middle" x="646.88" y="-51.5" font-family="Helvetica,sans-Serif" font-size="10.00">std::string</text>
</a>
</g>
</g>
<!-- Node11&#45;&gt;Node2 -->
<g id="edge22" class="edge">
<title>Node11&#45;&gt;Node2</title>
<path fill="none" stroke="#9a32cd" stroke-dasharray="5,2" d="M679.63,-39.95C716.96,-23.67 781.2,0 839.25,0 839.25,0 839.25,0 2603.88,0 2708.34,0 2782.32,-131.84 2805.31,-178.71"/>
<polygon fill="#9a32cd" stroke="#9a32cd" points="678.48,-36.63 670.78,-43.91 681.33,-43.02 678.48,-36.63"/>
<text text-anchor="middle" x="1645.12" y="-2.5" font-family="Helvetica,sans-Serif" font-size="10.00"> SRS_WKT</text>
</g>
<!-- Node11&#45;&gt;Node7 -->
<g id="edge10" class="edge">
<title>Node11&#45;&gt;Node7</title>
<path fill="none" stroke="#9a32cd" stroke-dasharray="5,2" d="M687.53,-68.18C711.82,-76.33 743.52,-87.09 771.5,-97 784.74,-101.69 799.36,-107.06 811.62,-111.62"/>
<polygon fill="#9a32cd" stroke="#9a32cd" points="688.95,-64.97 678.36,-65.11 686.73,-71.6 688.95,-64.97"/>
<text text-anchor="middle" x="749" y="-99.5" font-family="Helvetica,sans-Serif" font-size="10.00"> filepath</text>
</g>
<!-- Node12 -->
<g id="node12" class="node">
<title>Node12</title>
<g id="a_node12"><a xlink:title=" ">
<polygon fill="white" stroke="#666666" points="518.88,-71 424.88,-71 424.88,-39 518.88,-39 518.88,-71"/>
<text text-anchor="start" x="432.88" y="-57.5" font-family="Helvetica,sans-Serif" font-size="10.00">std::basic_string&lt;</text>
<text text-anchor="middle" x="471.88" y="-45.5" font-family="Helvetica,sans-Serif" font-size="10.00"> Char &gt;</text>
</a>
</g>
</g>
<!-- Node12&#45;&gt;Node11 -->
<g id="edge11" class="edge">
<title>Node12&#45;&gt;Node11</title>
<path fill="none" stroke="#63b8ff" d="M530.47,-55C559.43,-55 593.26,-55 616.78,-55"/>
<polygon fill="#63b8ff" stroke="#63b8ff" points="530.75,-51.5 520.75,-55 530.75,-58.5 530.75,-51.5"/>
</g>
<!-- Node13 -->
<g id="node13" class="node">
<title>Node13</title>
<g id="a_node13"><a xlink:title=" ">
<polygon fill="white" stroke="#666666" points="683.38,-119 610.38,-119 610.38,-99 683.38,-99 683.38,-119"/>
<text text-anchor="middle" x="646.88" y="-105.5" font-family="Helvetica,sans-Serif" font-size="10.00">std::ofstream</text>
</a>
</g>
</g>
<!-- Node13&#45;&gt;Node7 -->
<g id="edge12" class="edge">
<title>Node13&#45;&gt;Node7</title>
<path fill="none" stroke="#9a32cd" stroke-dasharray="5,2" d="M694.84,-110.68C717.95,-111.66 746.21,-113.08 771.5,-115 777.28,-115.44 783.33,-115.97 789.33,-116.53"/>
<polygon fill="#9a32cd" stroke="#9a32cd" points="695.26,-107.19 685.12,-110.28 694.97,-114.19 695.26,-107.19"/>
<text text-anchor="middle" x="749" y="-117.5" font-family="Helvetica,sans-Serif" font-size="10.00"> filestream</text>
</g>
<!-- Node14 -->
<g id="node14" class="node">
<title>Node14</title>
<g id="a_node14"><a xlink:title=" ">
<polygon fill="white" stroke="#666666" points="522.62,-125 421.12,-125 421.12,-93 522.62,-93 522.62,-125"/>
<text text-anchor="start" x="429.12" y="-111.5" font-family="Helvetica,sans-Serif" font-size="10.00">std::basic_ofstream</text>
<text text-anchor="middle" x="471.88" y="-99.5" font-family="Helvetica,sans-Serif" font-size="10.00">&lt; Char &gt;</text>
</a>
</g>
</g>
<!-- Node14&#45;&gt;Node13 -->
<g id="edge13" class="edge">
<title>Node14&#45;&gt;Node13</title>
<path fill="none" stroke="#63b8ff" d="M534.3,-109C559.63,-109 588.11,-109 609.96,-109"/>
<polygon fill="#63b8ff" stroke="#63b8ff" points="534.43,-105.5 524.43,-109 534.43,-112.5 534.43,-105.5"/>
</g>
<!-- Node15 -->
<g id="node15" class="node">
<title>Node15</title>
<g id="a_node15"><a xlink:title=" ">
<polygon fill="white" stroke="#666666" points="367.25,-125 268,-125 268,-93 367.25,-93 367.25,-125"/>
<text text-anchor="start" x="276" y="-111.5" font-family="Helvetica,sans-Serif" font-size="10.00">std::basic_ostream</text>
<text text-anchor="middle" x="317.62" y="-99.5" font-family="Helvetica,sans-Serif" font-size="10.00">&lt; Char &gt;</text>
</a>
</g>
</g>
<!-- Node15&#45;&gt;Node14 -->
<g id="edge14" class="edge">
<title>Node15&#45;&gt;Node14</title>
<path fill="none" stroke="#63b8ff" d="M379.01,-109C392.81,-109 407.33,-109 420.65,-109"/>
<polygon fill="#63b8ff" stroke="#63b8ff" points="379.15,-105.5 369.15,-109 379.15,-112.5 379.15,-105.5"/>
</g>
<!-- Node16 -->
<g id="node16" class="node">
<title>Node16</title>
<g id="a_node16"><a xlink:title=" ">
<polygon fill="white" stroke="#666666" points="226.5,-119 111.5,-119 111.5,-99 226.5,-99 226.5,-119"/>
<text text-anchor="middle" x="169" y="-105.5" font-family="Helvetica,sans-Serif" font-size="10.00">std::basic_ios&lt; Char &gt;</text>
</a>
</g>
</g>
<!-- Node16&#45;&gt;Node15 -->
<g id="edge15" class="edge">
<title>Node16&#45;&gt;Node15</title>
<path fill="none" stroke="#63b8ff" d="M237.93,-109C247.98,-109 258.16,-109 267.72,-109"/>
<polygon fill="#63b8ff" stroke="#63b8ff" points="238.2,-105.5 228.2,-109 238.2,-112.5 238.2,-105.5"/>
</g>
<!-- Node17 -->
<g id="node17" class="node">
<title>Node17</title>
<g id="a_node17"><a xlink:title=" ">
<polygon fill="white" stroke="#666666" points="74.5,-119 0,-119 0,-99 74.5,-99 74.5,-119"/>
<text text-anchor="middle" x="37.25" y="-105.5" font-family="Helvetica,sans-Serif" font-size="10.00">std::ios_base</text>
</a>
</g>
</g>
<!-- Node17&#45;&gt;Node16 -->
<g id="edge16" class="edge">
<title>Node17&#45;&gt;Node16</title>
<path fill="none" stroke="#63b8ff" d="M86.07,-109C94.32,-109 102.96,-109 111.41,-109"/>
<polygon fill="#63b8ff" stroke="#63b8ff" points="86.25,-105.5 76.25,-109 86.25,-112.5 86.25,-105.5"/>
</g>
<!-- Node18 -->
<g id="node18" class="node">
<title>Node18</title>
<g id="a_node18"><a xlink:title=" ">
<polygon fill="white" stroke="#666666" points="1060,-269 946.5,-269 946.5,-237 1060,-237 1060,-269"/>
<text text-anchor="start" x="954.5" y="-255.5" font-family="Helvetica,sans-Serif" font-size="10.00">std::vector&lt; Exception</text>
<text text-anchor="middle" x="1003.25" y="-243.5" font-family="Helvetica,sans-Serif" font-size="10.00">::FMTexc &gt;</text>
</a>
</g>
</g>
<!-- Node18&#45;&gt;Node5 -->
<g id="edge17" class="edge">
<title>Node18&#45;&gt;Node5</title>
<path fill="none" stroke="#9a32cd" stroke-dasharray="5,2" d="M1071.5,-242.67C1113.54,-236.22 1167.52,-227.93 1209.71,-221.45"/>
<polygon fill="#9a32cd" stroke="#9a32cd" points="1071.11,-239.19 1061.75,-244.17 1072.17,-246.11 1071.11,-239.19"/>
<text text-anchor="middle" x="1132.38" y="-242.5" font-family="Helvetica,sans-Serif" font-size="10.00"> errorstowarnings</text>
</g>
<!-- Node19 -->
<g id="node19" class="node">
<title>Node19</title>
<g id="a_node19"><a xlink:title=" ">
<polygon fill="white" stroke="#666666" points="1060.75,-219 945.75,-219 945.75,-187 1060.75,-187 1060.75,-219"/>
<text text-anchor="start" x="953.75" y="-205.5" font-family="Helvetica,sans-Serif" font-size="10.00">std::set&lt; boost::thread</text>
<text text-anchor="middle" x="1003.25" y="-193.5" font-family="Helvetica,sans-Serif" font-size="10.00">::id &gt;</text>
</a>
</g>
</g>
<!-- Node19&#45;&gt;Node5 -->
<g id="edge18" class="edge">
<title>Node19&#45;&gt;Node5</title>
<path fill="none" stroke="#9a32cd" stroke-dasharray="5,2" d="M1072.02,-204.98C1110.53,-206.11 1158.94,-207.52 1199.12,-208.7"/>
<polygon fill="#9a32cd" stroke="#9a32cd" points="1072.53,-201.5 1062.43,-204.7 1072.33,-208.49 1072.53,-201.5"/>
<text text-anchor="middle" x="1132.38" y="-210.5" font-family="Helvetica,sans-Serif" font-size="10.00"> registered_threads</text>
</g>
<!-- Node20 -->
<g id="node20" class="node">
<title>Node20</title>
<g id="a_node20"><a xlink:title=" ">
<polygon fill="white" stroke="#666666" points="1054.38,-319 952.12,-319 952.12,-287 1054.38,-287 1054.38,-319"/>
<text text-anchor="start" x="960.12" y="-305.5" font-family="Helvetica,sans-Serif" font-size="10.00">std::unordered_map</text>
<text text-anchor="middle" x="1003.25" y="-293.5" font-family="Helvetica,sans-Serif" font-size="10.00">&lt; int, size_t &gt;</text>
</a>
</g>
</g>
<!-- Node20&#45;&gt;Node5 -->
<g id="edge19" class="edge">
<title>Node20&#45;&gt;Node5</title>
<path fill="none" stroke="#9a32cd" stroke-dasharray="5,2" d="M1065.51,-289.6C1100.04,-281.35 1143.7,-269.73 1181.5,-256 1208.9,-246.05 1239.14,-231.24 1258.28,-221.36"/>
<polygon fill="#9a32cd" stroke="#9a32cd" points="1065.05,-286.12 1056.12,-291.82 1066.65,-292.93 1065.05,-286.12"/>
<text text-anchor="middle" x="1132.38" y="-286.5" font-family="Helvetica,sans-Serif" font-size="10.00"> _specificwarningcount</text>
</g>
<!-- Node21 -->
<g id="node21" class="node">
<title>Node21</title>
<g id="a_node21"><a xlink:title=" ">
<polygon fill="white" stroke="#666666" points="2656.62,-243 2549.12,-243 2549.12,-223 2656.62,-223 2656.62,-243"/>
<text text-anchor="middle" x="2602.88" y="-229.5" font-family="Helvetica,sans-Serif" font-size="10.00">std::vector&lt; double &gt;</text>
</a>
</g>
</g>
<!-- Node21&#45;&gt;Node2 -->
<g id="edge21" class="edge">
<title>Node21&#45;&gt;Node2</title>
<path fill="none" stroke="#9a32cd" stroke-dasharray="5,2" d="M2668.2,-221.39C2689.9,-217.47 2714.25,-213.05 2736.5,-209 2742.2,-207.96 2748.14,-206.88 2754.08,-205.79"/>
<polygon fill="#9a32cd" stroke="#9a32cd" points="2667.83,-217.9 2658.61,-223.12 2669.07,-224.79 2667.83,-217.9"/>
<text text-anchor="middle" x="2706.88" y="-221.5" font-family="Helvetica,sans-Serif" font-size="10.00"> geotransform</text>
</g>
<!-- Node22 -->
<g id="node22" class="node">
<title>Node22</title>
<g id="a_node22"><a xlink:title=" ">
<polygon fill="white" stroke="#666666" points="2659.25,-167 2546.5,-167 2546.5,-123 2659.25,-123 2659.25,-167"/>
<text text-anchor="start" x="2554.5" y="-153.5" font-family="Helvetica,sans-Serif" font-size="10.00">std::map&lt; Spatial::</text>
<text text-anchor="start" x="2554.5" y="-141.5" font-family="Helvetica,sans-Serif" font-size="10.00">FMTcoordinate, Graph</text>
<text text-anchor="middle" x="2602.88" y="-129.5" font-family="Helvetica,sans-Serif" font-size="10.00">::FMTlinegraph &gt;</text>
</a>
</g>
</g>
<!-- Node22&#45;&gt;Node2 -->
<g id="edge23" class="edge">
<title>Node22&#45;&gt;Node2</title>
<path fill="none" stroke="#9a32cd" stroke-dasharray="5,2" d="M2670.64,-155.08C2691.84,-158.81 2715.28,-163.5 2736.5,-169 2746.94,-171.71 2758.01,-175.14 2768.39,-178.61"/>
<polygon fill="#9a32cd" stroke="#9a32cd" points="2671.39,-151.66 2660.94,-153.42 2670.2,-158.56 2671.39,-151.66"/>
<text text-anchor="middle" x="2706.88" y="-171.5" font-family="Helvetica,sans-Serif" font-size="10.00"> mapping</text>
</g>
<!-- Node23 -->
<g id="node23" class="node">
<title>Node23</title>
<g id="a_node23"><a xlink:href="classSpatial_1_1FMTcoordinate.html" target="_top" xlink:title=" ">
<polygon fill="white" stroke="#666666" points="2467.75,-117 2351.25,-117 2351.25,-97 2467.75,-97 2467.75,-117"/>
<text text-anchor="middle" x="2409.5" y="-103.5" font-family="Helvetica,sans-Serif" font-size="10.00">Spatial::FMTcoordinate</text>
</a>
</g>
</g>
<!-- Node23&#45;&gt;Node22 -->
<g id="edge24" class="edge">
<title>Node23&#45;&gt;Node22</title>
<path fill="none" stroke="#9a32cd" stroke-dasharray="5,2" d="M2479.2,-119.45C2495.39,-122.48 2512.57,-125.78 2528.5,-129 2534.25,-130.16 2540.25,-131.41 2546.22,-132.68"/>
<polygon fill="#9a32cd" stroke="#9a32cd" points="2480.14,-116.06 2469.67,-117.67 2478.86,-122.94 2480.14,-116.06"/>
<text text-anchor="middle" x="2507.12" y="-131.5" font-family="Helvetica,sans-Serif" font-size="10.00"> keys</text>
</g>
<!-- Node24 -->
<g id="node24" class="node">
<title>Node24</title>
<g id="a_node24"><a xlink:href="classGraph_1_1FMTlinegraph.html" target="_top" xlink:title=" ">
<polygon fill="white" stroke="#666666" points="2462.88,-155 2356.12,-155 2356.12,-135 2462.88,-135 2462.88,-155"/>
<text text-anchor="middle" x="2409.5" y="-141.5" font-family="Helvetica,sans-Serif" font-size="10.00">Graph::FMTlinegraph</text>
</a>
</g>
</g>
<!-- Node24&#45;&gt;Node22 -->
<g id="edge25" class="edge">
<title>Node24&#45;&gt;Node22</title>
<path fill="none" stroke="#9a32cd" stroke-dasharray="5,2" d="M2474.78,-145C2497.94,-145 2523.87,-145 2546.24,-145"/>
<polygon fill="#9a32cd" stroke="#9a32cd" points="2474.81,-141.5 2464.81,-145 2474.81,-148.5 2474.81,-141.5"/>
<text text-anchor="middle" x="2507.12" y="-147.5" font-family="Helvetica,sans-Serif" font-size="10.00"> elements</text>
</g>
<!-- Node25&#45;&gt;Node24 -->
<g id="edge26" class="edge">
<title>Node25&#45;&gt;Node24</title>
<path fill="none" stroke="#63b8ff" d="M2193.17,-143.7C2248.63,-144.04 2312.13,-144.42 2355.73,-144.68"/>
<polygon fill="#63b8ff" stroke="#63b8ff" points="2193.37,-140.21 2183.35,-143.64 2193.32,-147.2 2193.37,-140.21"/>
</g>
<!-- Node26 -->
<g id="node26" class="node">
<title>Node26</title>
<g id="a_node26"><a xlink:title=" ">
<polygon fill="white" stroke="#666666" points="1837,-172 1722,-172 1722,-140 1837,-140 1837,-172"/>
<text text-anchor="start" x="1730" y="-158.5" font-family="Helvetica,sans-Serif" font-size="10.00">std::vector&lt; FMTvertex</text>
<text text-anchor="middle" x="1779.5" y="-146.5" font-family="Helvetica,sans-Serif" font-size="10.00">_pair &gt;</text>
</a>
</g>
</g>
<!-- Node26&#45;&gt;Node25 -->
<g id="edge28" class="edge">
<title>Node26&#45;&gt;Node25</title>
<path fill="none" stroke="#9a32cd" stroke-dasharray="5,2" d="M1848.87,-147.32C1862.08,-145.96 1875.83,-144.75 1888.75,-144 1914.63,-142.5 1942.58,-141.84 1968.73,-141.65"/>
<polygon fill="#9a32cd" stroke="#9a32cd" points="1848.5,-143.84 1838.93,-148.39 1849.25,-150.8 1848.5,-143.84"/>
<text text-anchor="middle" x="1919.88" y="-146.5" font-family="Helvetica,sans-Serif" font-size="10.00"> developments</text>
</g>
<!-- Node27 -->
<g id="node27" class="node">
<title>Node27</title>
<g id="a_node27"><a xlink:title=" ">
<polygon fill="white" stroke="#666666" points="1870.75,-122 1688.25,-122 1688.25,-66 1870.75,-66 1870.75,-122"/>
<text text-anchor="start" x="1696.25" y="-108.5" font-family="Helvetica,sans-Serif" font-size="10.00">std::vector&lt; Graph</text>
<text text-anchor="start" x="1696.25" y="-96.5" font-family="Helvetica,sans-Serif" font-size="10.00">::FMToutputnodecache</text>
<text text-anchor="start" x="1696.25" y="-84.5" font-family="Helvetica,sans-Serif" font-size="10.00">&lt; FMTvertex_descriptor</text>
<text text-anchor="middle" x="1779.5" y="-72.5" font-family="Helvetica,sans-Serif" font-size="10.00"> FMT_COMMA FMTvertex_iterator &gt; &gt;</text>
</a>
</g>
</g>
<!-- Node27&#45;&gt;Node25 -->
<g id="edge29" class="edge">
<title>Node27&#45;&gt;Node25</title>
<path fill="none" stroke="#9a32cd" stroke-dasharray="5,2" d="M1882.05,-110.94C1912.34,-115.99 1945.49,-121.52 1975.59,-126.54"/>
<polygon fill="#9a32cd" stroke="#9a32cd" points="1882.96,-107.54 1872.52,-109.35 1881.81,-114.45 1882.96,-107.54"/>
<text text-anchor="middle" x="1919.88" y="-124.5" font-family="Helvetica,sans-Serif" font-size="10.00"> nodescache</text>
</g>
<!-- Node28 -->
<g id="node28" class="node">
<title>Node28</title>
<g id="a_node28"><a xlink:href="classGraph_1_1FMToutputnodecache.html" target="_top" xlink:title=" ">
<polygon fill="white" stroke="#666666" points="1602,-115 1428.5,-115 1428.5,-71 1602,-71 1602,-115"/>
<text text-anchor="start" x="1436.5" y="-101.5" font-family="Helvetica,sans-Serif" font-size="10.00">Graph::FMToutputnodecache</text>
<text text-anchor="start" x="1436.5" y="-89.5" font-family="Helvetica,sans-Serif" font-size="10.00">&lt; FMTvertex_descriptor</text>
<text text-anchor="middle" x="1515.25" y="-77.5" font-family="Helvetica,sans-Serif" font-size="10.00"> FMT_COMMA FMTvertex_iterator &gt;</text>
</a>
</g>
</g>
<!-- Node28&#45;&gt;Node27 -->
<g id="edge30" class="edge">
<title>Node28&#45;&gt;Node27</title>
<path fill="none" stroke="#9a32cd" stroke-dasharray="5,2" d="M1613.9,-93.37C1638.23,-93.47 1664.21,-93.56 1688.16,-93.66"/>
<polygon fill="#9a32cd" stroke="#9a32cd" points="1614.01,-89.87 1604,-93.33 1613.98,-96.87 1614.01,-89.87"/>
<text text-anchor="middle" x="1645.12" y="-96.5" font-family="Helvetica,sans-Serif" font-size="10.00"> elements</text>
</g>
<!-- Node29 -->
<g id="node29" class="node">
<title>Node29</title>
<g id="a_node29"><a xlink:href="classGraph_1_1FMTgraphstats.html" target="_top" xlink:title=" ">
<polygon fill="white" stroke="#666666" points="1836.25,-48 1722.75,-48 1722.75,-28 1836.25,-28 1836.25,-48"/>
<text text-anchor="middle" x="1779.5" y="-34.5" font-family="Helvetica,sans-Serif" font-size="10.00">Graph::FMTgraphstats</text>
</a>
</g>
</g>
<!-- Node29&#45;&gt;Node25 -->
<g id="edge31" class="edge">
<title>Node29&#45;&gt;Node25</title>
<path fill="none" stroke="#9a32cd" stroke-dasharray="5,2" d="M1847.44,-50.58C1855.36,-52.52 1863.27,-54.66 1870.75,-57 1932.42,-76.33 2001.07,-107.47 2040.79,-126.5"/>
<polygon fill="#9a32cd" stroke="#9a32cd" points="1848.31,-47.19 1837.77,-48.34 1846.72,-54.01 1848.31,-47.19"/>
<text text-anchor="middle" x="1919.88" y="-89.5" font-family="Helvetica,sans-Serif" font-size="10.00"> stats</text>
</g>
<!-- Node30&#45;&gt;Node1 -->
<g id="edge32" class="edge">
<title>Node30&#45;&gt;Node1</title>
<path fill="none" stroke="#9a32cd" stroke-dasharray="5,2" d="M2344.96,-272.87C2391.64,-275.92 2452.26,-279 2506.12,-279 2506.12,-279 2506.12,-279 2814.88,-279 2865.54,-279 2922.33,-259.93 2953.99,-247.49"/>
<polygon fill="#9a32cd" stroke="#9a32cd" points="2345.43,-269.4 2335.22,-272.22 2344.97,-276.38 2345.43,-269.4"/>
<text text-anchor="middle" x="2602.88" y="-281.5" font-family="Helvetica,sans-Serif" font-size="10.00"> events</text>
</g>
</g>
</svg>
        <g id="navigator" transform="translate(0 0)" fill="#404254">
                <rect fill="#f2f5e9" fill-opacity="0.5" stroke="#606060" stroke-width=".5" x="0" y="0" width="60" height="60"/>
                <use id="zoomplus" xlink:href="#zoomPlus" x="17" y="9" onmousedown="handleZoom(evt,'in')"/>
                <use id="zoomminus" xlink:href="#zoomMin" x="42" y="9" onmousedown="handleZoom(evt,'out')"/>
                <use id="reset" xlink:href="#resetDef" x="30" y="36" onmousedown="handleReset()"/>
                <g id="arrowUp" xlink:href="#dirArrow" transform="translate(30 24)" onmousedown="handlePan(0,-1)">
                  <use xlink:href="#rim" fill="#404040">
                        <set attributeName="fill" to="#808080" begin="arrowUp.mouseover" end="arrowUp.mouseout"/>
                  </use>
                  <path fill="none" stroke="white" stroke-width="1.5" d="M0,-3.0v7 M-2.5,-0.5L0,-3.0L2.5,-0.5"/>
                </g>
                <g id="arrowRight" xlink:href="#dirArrow" transform="rotate(90) translate(36 -43)" onmousedown="handlePan(1,0)">
                  <use xlink:href="#rim" fill="#404040">
                        <set attributeName="fill" to="#808080" begin="arrowRight.mouseover" end="arrowRight.mouseout"/>
                  </use>
                  <path fill="none" stroke="white" stroke-width="1.5" d="M0,-3.0v7 M-2.5,-0.5L0,-3.0L2.5,-0.5"/>
                </g>
                <g id="arrowDown" xlink:href="#dirArrow" transform="rotate(180) translate(-30 -48)" onmousedown="handlePan(0,1)">
                  <use xlink:href="#rim" fill="#404040">
                        <set attributeName="fill" to="#808080" begin="arrowDown.mouseover" end="arrowDown.mouseout"/>
                  </use>
                  <path fill="none" stroke="white" stroke-width="1.5" d="M0,-3.0v7 M-2.5,-0.5L0,-3.0L2.5,-0.5"/>
                </g>
                <g id="arrowLeft" xlink:href="#dirArrow" transform="rotate(270) translate(-36 17)" onmousedown="handlePan(-1,0)">
                  <use xlink:href="#rim" fill="#404040">
                        <set attributeName="fill" to="#808080" begin="arrowLeft.mouseover" end="arrowLeft.mouseout"/>
                  </use>
                  <path fill="none" stroke="white" stroke-width="1.5" d="M0,-3.0v7 M-2.5,-0.5L0,-3.0L2.5,-0.5"/>
                </g>
        </g>
        <svg viewBox="0 0 15 15" width="100%" height="30px" preserveAspectRatio="xMaxYMin meet">
         <g id="arrow_out" transform="scale(0.3 0.3)">
          <a xlink:href="classSpatial_1_1FMTspatialschedule__coll__graph_org.svg" target="_base">
           <rect id="button" ry="5" rx="5" y="6" x="6" height="38" width="38"
                fill="#f2f5e9" fill-opacity="0.5" stroke="#606060" stroke-width="1.0"/>
           <path id="arrow"
             d="M 11.500037,31.436501 C 11.940474,20.09759 22.043105,11.32322 32.158766,21.979434 L 37.068811,17.246167 C 37.068811,17.246167 37.088388,32 37.088388,32 L 22.160133,31.978069 C 22.160133,31.978069 26.997745,27.140456 26.997745,27.140456 C 18.528582,18.264221 13.291696,25.230495 11.500037,31.436501 z"
             style="fill:#404040;"/>
          </a>
         </g>
        </svg>
</svg>
