<?xml version="1.0" encoding="UTF-8" standalone="no"?>
<!DOCTYPE svg PUBLIC "-//W3C//DTD SVG 1.1//EN"
 "http://www.w3.org/Graphics/SVG/1.1/DTD/svg11.dtd">
<!-- Generated by graphviz version 8.1.0 (20230707.0739)
 -->
<!-- Title: Core::FMToutput Pages: 1 -->
<svg width="2055pt" height="444pt"
 viewBox="0.00 0.00 2054.75 444.00" xmlns="http://www.w3.org/2000/svg" xmlns:xlink="http://www.w3.org/1999/xlink">
<g id="graph0" class="graph" transform="scale(1 1) rotate(0) translate(4 440)">
<title>Core::FMToutput</title>
<!-- Node1 -->
<g id="Node000001" class="node">
<title>Node1</title>
<g id="a_Node000001"><a xlink:title=" ">
<polygon fill="#999999" stroke="#666666" points="2046.75,-212 1958,-212 1958,-192 2046.75,-192 2046.75,-212"/>
<text text-anchor="middle" x="2002.38" y="-198.5" font-family="Helvetica,sans-Serif" font-size="10.00">Core::FMToutput</text>
</a>
</g>
</g>
<!-- Node2 -->
<g id="Node000002" class="node">
<title>Node2</title>
<g id="a_Node000002"><a xlink:href="classCore_1_1FMTobject.html" target="_top" xlink:title=" ">
<polygon fill="white" stroke="#666666" points="1874.38,-188 1786.38,-188 1786.38,-168 1874.38,-168 1874.38,-188"/>
<text text-anchor="middle" x="1830.38" y="-174.5" font-family="Helvetica,sans-Serif" font-size="10.00">Core::FMTobject</text>
</a>
</g>
</g>
<!-- Node2&#45;&gt;Node1 -->
<g id="edge1_Node000001_Node000002" class="edge">
<title>Node2&#45;&gt;Node1</title>
<g id="a_edge1_Node000001_Node000002"><a xlink:title=" ">
<path fill="none" stroke="#63b8ff" d="M1885.46,-185.64C1908.71,-188.92 1935.54,-192.71 1957.52,-195.81"/>
<polygon fill="#63b8ff" stroke="#63b8ff" points="1886.1,-182.05 1875.71,-184.12 1885.13,-188.98 1886.1,-182.05"/>
</a>
</g>
</g>
<!-- Node3 -->
<g id="Node000003" class="node">
<title>Node3</title>
<g id="a_Node000003"><a xlink:title=" ">
<polygon fill="white" stroke="#666666" points="1645.5,-150 1511.75,-150 1511.75,-118 1645.5,-118 1645.5,-150"/>
<text text-anchor="start" x="1519.75" y="-136.5" font-family="Helvetica,sans-Serif" font-size="10.00">std::shared_ptr&lt; Exception</text>
<text text-anchor="middle" x="1578.62" y="-124.5" font-family="Helvetica,sans-Serif" font-size="10.00">::FMTexceptionhandler &gt;</text>
</a>
</g>
</g>
<!-- Node3&#45;&gt;Node2 -->
<g id="edge2_Node000002_Node000003" class="edge">
<title>Node3&#45;&gt;Node2</title>
<g id="a_edge2_Node000002_Node000003"><a xlink:title=" ">
<path fill="none" stroke="#9a32cd" stroke-dasharray="5,2" d="M1656.39,-136.63C1689.88,-139.01 1729.38,-143.52 1764.25,-152 1779.27,-155.65 1795.42,-162.08 1807.88,-167.63"/>
<polygon fill="#9a32cd" stroke="#9a32cd" points="1656.95,-133.09 1646.74,-135.92 1656.49,-140.07 1656.95,-133.09"/>
</a>
</g>
<text text-anchor="middle" x="1713.88" y="-154.5" font-family="Helvetica,sans-Serif" font-size="10.00" fill="grey"> _exhandler</text>
</g>
<!-- Node4 -->
<g id="Node000004" class="node">
<title>Node4</title>
<g id="a_Node000004"><a xlink:href="classException_1_1FMTexceptionhandler.html" target="_top" xlink:title=" ">
<polygon fill="white" stroke="#666666" points="1433,-126 1274.5,-126 1274.5,-106 1433,-106 1433,-126"/>
<text text-anchor="middle" x="1353.75" y="-112.5" font-family="Helvetica,sans-Serif" font-size="10.00">Exception::FMTexceptionhandler</text>
</a>
</g>
</g>
<!-- Node4&#45;&gt;Node3 -->
<g id="edge3_Node000003_Node000004" class="edge">
<title>Node4&#45;&gt;Node3</title>
<g id="a_edge3_Node000003_Node000004"><a xlink:title=" ">
<path fill="none" stroke="#9a32cd" stroke-dasharray="5,2" d="M1444.25,-123.23C1466.73,-125.04 1490.45,-126.96 1511.55,-128.66"/>
<polygon fill="#9a32cd" stroke="#9a32cd" points="1444.58,-119.66 1434.33,-122.35 1444.01,-126.64 1444.58,-119.66"/>
</a>
</g>
<text text-anchor="middle" x="1472.38" y="-130.5" font-family="Helvetica,sans-Serif" font-size="10.00" fill="grey"> ptr</text>
</g>
<!-- Node5 -->
<g id="Node000005" class="node">
<title>Node5</title>
<g id="a_Node000005"><a xlink:title=" ">
<polygon fill="white" stroke="#666666" points="1140.25,-182 1016.25,-182 1016.25,-150 1140.25,-150 1140.25,-182"/>
<text text-anchor="start" x="1024.25" y="-168.5" font-family="Helvetica,sans-Serif" font-size="10.00">std::shared_ptr&lt; Logging</text>
<text text-anchor="middle" x="1078.25" y="-156.5" font-family="Helvetica,sans-Serif" font-size="10.00">::FMTlogger &gt;</text>
</a>
</g>
</g>
<!-- Node5&#45;&gt;Node2 -->
<g id="edge19_Node000002_Node000005" class="edge">
<title>Node5&#45;&gt;Node2</title>
<g id="a_edge19_Node000002_Node000005"><a xlink:title=" ">
<path fill="none" stroke="#9a32cd" stroke-dasharray="5,2" d="M1151.37,-167.15C1305.4,-169.62 1662.52,-175.33 1786.25,-177.31"/>
<polygon fill="#9a32cd" stroke="#9a32cd" points="1151.69,-163.64 1141.64,-166.98 1151.58,-170.64 1151.69,-163.64"/>
</a>
</g>
<text text-anchor="middle" x="1472.38" y="-174.5" font-family="Helvetica,sans-Serif" font-size="10.00" fill="grey"> _logger</text>
</g>
<!-- Node5&#45;&gt;Node4 -->
<g id="edge4_Node000004_Node000005" class="edge">
<title>Node5&#45;&gt;Node4</title>
<g id="a_edge4_Node000004_Node000005"><a xlink:title=" ">
<path fill="none" stroke="#9a32cd" stroke-dasharray="5,2" d="M1151.24,-152.84C1196.39,-144.58 1253.8,-134.09 1295.78,-126.42"/>
<polygon fill="#9a32cd" stroke="#9a32cd" points="1150.84,-149.54 1141.63,-154.78 1152.1,-156.42 1150.84,-149.54"/>
</a>
</g>
<text text-anchor="middle" x="1207.38" y="-153.5" font-family="Helvetica,sans-Serif" font-size="10.00" fill="grey"> _logger</text>
</g>
<!-- Node6 -->
<g id="Node000006" class="node">
<title>Node6</title>
<g id="a_Node000006"><a xlink:href="classLogging_1_1FMTlogger.html" target="_top" xlink:title=" ">
<polygon fill="white" stroke="#666666" points="915,-173 813.5,-173 813.5,-153 915,-153 915,-173"/>
<text text-anchor="middle" x="864.25" y="-159.5" font-family="Helvetica,sans-Serif" font-size="10.00">Logging::FMTlogger</text>
</a>
</g>
</g>
<!-- Node6&#45;&gt;Node5 -->
<g id="edge5_Node000005_Node000006" class="edge">
<title>Node6&#45;&gt;Node5</title>
<g id="a_edge5_Node000005_Node000006"><a xlink:title=" ">
<path fill="none" stroke="#9a32cd" stroke-dasharray="5,2" d="M926.4,-163.87C954.55,-164.26 987.87,-164.74 1016.02,-165.13"/>
<polygon fill="#9a32cd" stroke="#9a32cd" points="926.54,-160.35 916.49,-163.71 926.44,-167.35 926.54,-160.35"/>
</a>
</g>
<text text-anchor="middle" x="970.88" y="-166.5" font-family="Helvetica,sans-Serif" font-size="10.00" fill="grey"> ptr</text>
</g>
<!-- Node7 -->
<g id="Node000007" class="node">
<title>Node7</title>
<g id="a_Node000007"><a xlink:title=" ">
<polygon fill="white" stroke="#666666" points="722,-181 598.75,-181 598.75,-149 722,-149 722,-181"/>
<text text-anchor="start" x="606.75" y="-167.5" font-family="Helvetica,sans-Serif" font-size="10.00">std::unique_ptr&lt; Logging</text>
<text text-anchor="middle" x="660.38" y="-155.5" font-family="Helvetica,sans-Serif" font-size="10.00">::FMTsolverlogger &gt;</text>
</a>
</g>
</g>
<!-- Node7&#45;&gt;Node6 -->
<g id="edge6_Node000006_Node000007" class="edge">
<title>Node7&#45;&gt;Node6</title>
<g id="a_edge6_Node000006_Node000007"><a xlink:title=" ">
<path fill="none" stroke="#9a32cd" stroke-dasharray="5,2" d="M733.19,-163.1C735.48,-163.06 737.76,-163.03 740,-163 764.07,-162.69 790.79,-162.66 813.18,-162.71"/>
<polygon fill="#9a32cd" stroke="#9a32cd" points="733.26,-159.61 723.32,-163.3 733.39,-166.61 733.26,-159.61"/>
</a>
</g>
<text text-anchor="middle" x="762.5" y="-165.5" font-family="Helvetica,sans-Serif" font-size="10.00" fill="grey"> solverref</text>
</g>
<!-- Node8 -->
<g id="Node000008" class="node">
<title>Node8</title>
<g id="a_Node000008"><a xlink:href="classLogging_1_1FMTsolverlogger.html" target="_top" xlink:title=" ">
<polygon fill="white" stroke="#666666" points="541.75,-175 415.5,-175 415.5,-155 541.75,-155 541.75,-175"/>
<text text-anchor="middle" x="478.62" y="-161.5" font-family="Helvetica,sans-Serif" font-size="10.00">Logging::FMTsolverlogger</text>
</a>
</g>
</g>
<!-- Node8&#45;&gt;Node7 -->
<g id="edge7_Node000007_Node000008" class="edge">
<title>Node8&#45;&gt;Node7</title>
<g id="a_edge7_Node000007_Node000008"><a xlink:title=" ">
<path fill="none" stroke="#9a32cd" stroke-dasharray="5,2" d="M553.09,-165C568.18,-165 583.91,-165 598.5,-165"/>
<polygon fill="#9a32cd" stroke="#9a32cd" points="553.24,-161.5 543.24,-165 553.24,-168.5 553.24,-161.5"/>
</a>
</g>
<text text-anchor="middle" x="573.62" y="-167.5" font-family="Helvetica,sans-Serif" font-size="10.00" fill="grey"> ptr</text>
</g>
<!-- Node9 -->
<g id="Node000009" class="node">
<title>Node9</title>
<g id="a_Node000009"><a xlink:title=" ">
<polygon fill="white" stroke="#666666" points="371.75,-175 263.5,-175 263.5,-155 371.75,-155 371.75,-175"/>
<text text-anchor="middle" x="317.62" y="-161.5" font-family="Helvetica,sans-Serif" font-size="10.00">CoinMessageHandler</text>
</a>
</g>
</g>
<!-- Node9&#45;&gt;Node8 -->
<g id="edge8_Node000008_Node000009" class="edge">
<title>Node9&#45;&gt;Node8</title>
<g id="a_edge8_Node000008_Node000009"><a xlink:title=" ">
<path fill="none" stroke="#63b8ff" d="M382.89,-165C393.49,-165 404.47,-165 415.03,-165"/>
<polygon fill="#63b8ff" stroke="#63b8ff" points="383.01,-161.5 373.01,-165 383.01,-168.5 383.01,-161.5"/>
</a>
</g>
</g>
<!-- Node10 -->
<g id="Node000010" class="node">
<title>Node10</title>
<g id="a_Node000010"><a xlink:title=" ">
<polygon fill="white" stroke="#666666" points="690.12,-234 630.62,-234 630.62,-214 690.12,-214 690.12,-234"/>
<text text-anchor="middle" x="660.38" y="-220.5" font-family="Helvetica,sans-Serif" font-size="10.00">std::string</text>
</a>
</g>
</g>
<!-- Node10&#45;&gt;Node1 -->
<g id="edge36_Node000001_Node000010" class="edge">
<title>Node10&#45;&gt;Node1</title>
<g id="a_edge36_Node000001_Node000010"><a xlink:title=" ">
<path fill="none" stroke="#9a32cd" stroke-dasharray="5,2" d="M701.27,-224C742,-224 807.03,-224 863.25,-224 863.25,-224 863.25,-224 1831.38,-224 1874.53,-224 1923.33,-216.94 1957.55,-210.82"/>
<polygon fill="#9a32cd" stroke="#9a32cd" points="701.46,-220.5 691.46,-224 701.46,-227.5 701.46,-220.5"/>
</a>
</g>
<text text-anchor="middle" x="1353.75" y="-250.5" font-family="Helvetica,sans-Serif" font-size="10.00" fill="grey"> description</text>
<text text-anchor="middle" x="1353.75" y="-238.5" font-family="Helvetica,sans-Serif" font-size="10.00" fill="grey">group</text>
<text text-anchor="middle" x="1353.75" y="-226.5" font-family="Helvetica,sans-Serif" font-size="10.00" fill="grey">name</text>
</g>
<!-- Node10&#45;&gt;Node6 -->
<g id="edge9_Node000006_Node000010" class="edge">
<title>Node10&#45;&gt;Node6</title>
<g id="a_edge9_Node000006_Node000010"><a xlink:title=" ">
<path fill="none" stroke="#9a32cd" stroke-dasharray="5,2" d="M700.56,-210.68C713.12,-206.5 727.12,-201.96 740,-198 768.28,-189.31 800.44,-180.21 824.82,-173.46"/>
<polygon fill="#9a32cd" stroke="#9a32cd" points="699.78,-207.58 691.4,-214.07 702,-214.22 699.78,-207.58"/>
</a>
</g>
<text text-anchor="middle" x="762.5" y="-200.5" font-family="Helvetica,sans-Serif" font-size="10.00" fill="grey"> filepath</text>
</g>
<!-- Node27 -->
<g id="Node000027" class="node">
<title>Node27</title>
<g id="a_Node000027"><a xlink:title=" ">
<polygon fill="white" stroke="#666666" points="925.5,-272 803,-272 803,-252 925.5,-252 925.5,-272"/>
<text text-anchor="middle" x="864.25" y="-258.5" font-family="Helvetica,sans-Serif" font-size="10.00">std::vector&lt; std::string &gt;</text>
</a>
</g>
</g>
<!-- Node10&#45;&gt;Node27 -->
<g id="edge30_Node000027_Node000010" class="edge">
<title>Node10&#45;&gt;Node27</title>
<g id="a_edge30_Node000027_Node000010"><a xlink:title=" ">
<path fill="none" stroke="#9a32cd" stroke-dasharray="5,2" d="M700.94,-231.45C731.38,-237.18 773.85,-245.17 807.7,-251.54"/>
<polygon fill="#9a32cd" stroke="#9a32cd" points="701.77,-227.85 691.3,-229.44 700.48,-234.73 701.77,-227.85"/>
</a>
</g>
<text text-anchor="middle" x="762.5" y="-248.5" font-family="Helvetica,sans-Serif" font-size="10.00" fill="grey"> elements</text>
</g>
<!-- Node11 -->
<g id="Node000011" class="node">
<title>Node11</title>
<g id="a_Node000011"><a xlink:title=" ">
<polygon fill="white" stroke="#666666" points="525.62,-240 431.62,-240 431.62,-208 525.62,-208 525.62,-240"/>
<text text-anchor="start" x="439.62" y="-226.5" font-family="Helvetica,sans-Serif" font-size="10.00">std::basic_string&lt;</text>
<text text-anchor="middle" x="478.62" y="-214.5" font-family="Helvetica,sans-Serif" font-size="10.00"> Char &gt;</text>
</a>
</g>
</g>
<!-- Node11&#45;&gt;Node10 -->
<g id="edge10_Node000010_Node000011" class="edge">
<title>Node11&#45;&gt;Node10</title>
<g id="a_edge10_Node000010_Node000011"><a xlink:title=" ">
<path fill="none" stroke="#63b8ff" d="M536.63,-224C567.72,-224 604.89,-224 630.13,-224"/>
<polygon fill="#63b8ff" stroke="#63b8ff" points="536.92,-220.5 526.92,-224 536.92,-227.5 536.92,-220.5"/>
</a>
</g>
</g>
<!-- Node12 -->
<g id="Node000012" class="node">
<title>Node12</title>
<g id="a_Node000012"><a xlink:title=" ">
<polygon fill="white" stroke="#666666" points="696.88,-131 623.88,-131 623.88,-111 696.88,-111 696.88,-131"/>
<text text-anchor="middle" x="660.38" y="-117.5" font-family="Helvetica,sans-Serif" font-size="10.00">std::ofstream</text>
</a>
</g>
</g>
<!-- Node12&#45;&gt;Node6 -->
<g id="edge11_Node000006_Node000012" class="edge">
<title>Node12&#45;&gt;Node6</title>
<g id="a_edge11_Node000006_Node000012"><a xlink:title=" ">
<path fill="none" stroke="#9a32cd" stroke-dasharray="5,2" d="M707.71,-130.21C730.93,-134.86 759.47,-140.65 785,-146 794.93,-148.08 805.56,-150.36 815.69,-152.55"/>
<polygon fill="#9a32cd" stroke="#9a32cd" points="708.6,-126.61 698.11,-128.08 707.23,-133.48 708.6,-126.61"/>
</a>
</g>
<text text-anchor="middle" x="762.5" y="-148.5" font-family="Helvetica,sans-Serif" font-size="10.00" fill="grey"> filestream</text>
</g>
<!-- Node13 -->
<g id="Node000013" class="node">
<title>Node13</title>
<g id="a_Node000013"><a xlink:title=" ">
<polygon fill="white" stroke="#666666" points="529.38,-137 427.88,-137 427.88,-105 529.38,-105 529.38,-137"/>
<text text-anchor="start" x="435.88" y="-123.5" font-family="Helvetica,sans-Serif" font-size="10.00">std::basic_ofstream</text>
<text text-anchor="middle" x="478.62" y="-111.5" font-family="Helvetica,sans-Serif" font-size="10.00">&lt; Char &gt;</text>
</a>
</g>
</g>
<!-- Node13&#45;&gt;Node12 -->
<g id="edge12_Node000012_Node000013" class="edge">
<title>Node13&#45;&gt;Node12</title>
<g id="a_edge12_Node000012_Node000013"><a xlink:title=" ">
<path fill="none" stroke="#63b8ff" d="M540.45,-121C568.07,-121 599.8,-121 623.53,-121"/>
<polygon fill="#63b8ff" stroke="#63b8ff" points="540.7,-117.5 530.7,-121 540.7,-124.5 540.7,-117.5"/>
</a>
</g>
</g>
<!-- Node14 -->
<g id="Node000014" class="node">
<title>Node14</title>
<g id="a_Node000014"><a xlink:title=" ">
<polygon fill="white" stroke="#666666" points="367.25,-137 268,-137 268,-105 367.25,-105 367.25,-137"/>
<text text-anchor="start" x="276" y="-123.5" font-family="Helvetica,sans-Serif" font-size="10.00">std::basic_ostream</text>
<text text-anchor="middle" x="317.62" y="-111.5" font-family="Helvetica,sans-Serif" font-size="10.00">&lt; Char &gt;</text>
</a>
</g>
</g>
<!-- Node14&#45;&gt;Node13 -->
<g id="edge13_Node000013_Node000014" class="edge">
<title>Node14&#45;&gt;Node13</title>
<g id="a_edge13_Node000013_Node000014"><a xlink:title=" ">
<path fill="none" stroke="#63b8ff" d="M378.56,-121C394.66,-121 411.9,-121 427.41,-121"/>
<polygon fill="#63b8ff" stroke="#63b8ff" points="378.63,-117.5 368.63,-121 378.63,-124.5 378.63,-117.5"/>
</a>
</g>
</g>
<!-- Node15 -->
<g id="Node000015" class="node">
<title>Node15</title>
<g id="a_Node000015"><a xlink:title=" ">
<polygon fill="white" stroke="#666666" points="226.5,-131 111.5,-131 111.5,-111 226.5,-111 226.5,-131"/>
<text text-anchor="middle" x="169" y="-117.5" font-family="Helvetica,sans-Serif" font-size="10.00">std::basic_ios&lt; Char &gt;</text>
</a>
</g>
</g>
<!-- Node15&#45;&gt;Node14 -->
<g id="edge14_Node000014_Node000015" class="edge">
<title>Node15&#45;&gt;Node14</title>
<g id="a_edge14_Node000014_Node000015"><a xlink:title=" ">
<path fill="none" stroke="#63b8ff" d="M237.61,-121C247.76,-121 258.06,-121 267.72,-121"/>
<polygon fill="#63b8ff" stroke="#63b8ff" points="237.69,-117.5 227.69,-121 237.69,-124.5 237.69,-117.5"/>
</a>
</g>
</g>
<!-- Node16 -->
<g id="Node000016" class="node">
<title>Node16</title>
<g id="a_Node000016"><a xlink:title=" ">
<polygon fill="white" stroke="#666666" points="74.5,-131 0,-131 0,-111 74.5,-111 74.5,-131"/>
<text text-anchor="middle" x="37.25" y="-117.5" font-family="Helvetica,sans-Serif" font-size="10.00">std::ios_base</text>
</a>
</g>
</g>
<!-- Node16&#45;&gt;Node15 -->
<g id="edge15_Node000015_Node000016" class="edge">
<title>Node16&#45;&gt;Node15</title>
<g id="a_edge15_Node000015_Node000016"><a xlink:title=" ">
<path fill="none" stroke="#63b8ff" d="M85.5,-121C93.92,-121 102.77,-121 111.41,-121"/>
<polygon fill="#63b8ff" stroke="#63b8ff" points="85.74,-117.5 75.74,-121 85.74,-124.5 85.74,-117.5"/>
</a>
</g>
</g>
<!-- Node17 -->
<g id="Node000017" class="node">
<title>Node17</title>
<g id="a_Node000017"><a xlink:title=" ">
<polygon fill="white" stroke="#666666" points="1135,-132 1021.5,-132 1021.5,-100 1135,-100 1135,-132"/>
<text text-anchor="start" x="1029.5" y="-118.5" font-family="Helvetica,sans-Serif" font-size="10.00">std::vector&lt; Exception</text>
<text text-anchor="middle" x="1078.25" y="-106.5" font-family="Helvetica,sans-Serif" font-size="10.00">::FMTexc &gt;</text>
</a>
</g>
</g>
<!-- Node17&#45;&gt;Node4 -->
<g id="edge16_Node000004_Node000017" class="edge">
<title>Node17&#45;&gt;Node4</title>
<g id="a_edge16_Node000004_Node000017"><a xlink:title=" ">
<path fill="none" stroke="#9a32cd" stroke-dasharray="5,2" d="M1145.87,-116C1184.54,-116 1233.45,-116 1274.01,-116"/>
<polygon fill="#9a32cd" stroke="#9a32cd" points="1146.26,-112.5 1136.26,-116 1146.26,-119.5 1146.26,-112.5"/>
</a>
</g>
<text text-anchor="middle" x="1207.38" y="-118.5" font-family="Helvetica,sans-Serif" font-size="10.00" fill="grey"> errorstowarnings</text>
</g>
<!-- Node18 -->
<g id="Node000018" class="node">
<title>Node18</title>
<g id="a_Node000018"><a xlink:title=" ">
<polygon fill="white" stroke="#666666" points="1135.75,-82 1020.75,-82 1020.75,-50 1135.75,-50 1135.75,-82"/>
<text text-anchor="start" x="1028.75" y="-68.5" font-family="Helvetica,sans-Serif" font-size="10.00">std::set&lt; boost::thread</text>
<text text-anchor="middle" x="1078.25" y="-56.5" font-family="Helvetica,sans-Serif" font-size="10.00">::id &gt;</text>
</a>
</g>
</g>
<!-- Node18&#45;&gt;Node4 -->
<g id="edge17_Node000004_Node000018" class="edge">
<title>Node18&#45;&gt;Node4</title>
<g id="a_edge17_Node000004_Node000018"><a xlink:title=" ">
<path fill="none" stroke="#9a32cd" stroke-dasharray="5,2" d="M1146.64,-78.32C1192.41,-86.69 1252.27,-97.63 1295.68,-105.57"/>
<polygon fill="#9a32cd" stroke="#9a32cd" points="1147.39,-74.72 1136.92,-76.36 1146.13,-81.6 1147.39,-74.72"/>
</a>
</g>
<text text-anchor="middle" x="1207.38" y="-101.5" font-family="Helvetica,sans-Serif" font-size="10.00" fill="grey"> registered_threads</text>
</g>
<!-- Node19 -->
<g id="Node000019" class="node">
<title>Node19</title>
<g id="a_Node000019"><a xlink:title=" ">
<polygon fill="white" stroke="#666666" points="1129.38,-32 1027.12,-32 1027.12,0 1129.38,0 1129.38,-32"/>
<text text-anchor="start" x="1035.12" y="-18.5" font-family="Helvetica,sans-Serif" font-size="10.00">std::unordered_map</text>
<text text-anchor="middle" x="1078.25" y="-6.5" font-family="Helvetica,sans-Serif" font-size="10.00">&lt; int, size_t &gt;</text>
</a>
</g>
</g>
<!-- Node19&#45;&gt;Node4 -->
<g id="edge18_Node000004_Node000019" class="edge">
<title>Node19&#45;&gt;Node4</title>
<g id="a_edge18_Node000004_Node000019"><a xlink:title=" ">
<path fill="none" stroke="#9a32cd" stroke-dasharray="5,2" d="M1140.31,-29.4C1174.99,-37.86 1218.86,-50.03 1256.5,-65 1285.49,-76.53 1317.1,-94.38 1335.9,-105.62"/>
<polygon fill="#9a32cd" stroke="#9a32cd" points="1141.41,-25.82 1130.87,-26.89 1139.77,-32.63 1141.41,-25.82"/>
</a>
</g>
<text text-anchor="middle" x="1207.38" y="-67.5" font-family="Helvetica,sans-Serif" font-size="10.00" fill="grey"> _specificwarningcount</text>
</g>
<!-- Node20 -->
<g id="Node000020" class="node">
<title>Node20</title>
<g id="a_Node000020"><a xlink:title=" ">
<polygon fill="white" stroke="#666666" points="1764.25,-297 1663.5,-297 1663.5,-265 1764.25,-265 1764.25,-297"/>
<text text-anchor="start" x="1671.5" y="-283.5" font-family="Helvetica,sans-Serif" font-size="10.00">std::vector&lt; Core::</text>
<text text-anchor="middle" x="1713.88" y="-271.5" font-family="Helvetica,sans-Serif" font-size="10.00">FMToutputsource &gt;</text>
</a>
</g>
</g>
<!-- Node20&#45;&gt;Node1 -->
<g id="edge20_Node000001_Node000020" class="edge">
<title>Node20&#45;&gt;Node1</title>
<g id="a_edge20_Node000001_Node000020"><a xlink:title=" ">
<path fill="none" stroke="#9a32cd" stroke-dasharray="5,2" d="M1775.24,-275.14C1821.46,-269.31 1886.21,-258.22 1940,-238 1957.11,-231.57 1974.95,-220.54 1986.96,-212.38"/>
<polygon fill="#9a32cd" stroke="#9a32cd" points="1775,-271.76 1765.49,-276.44 1775.84,-278.71 1775,-271.76"/>
</a>
</g>
<text text-anchor="middle" x="1830.38" y="-275.5" font-family="Helvetica,sans-Serif" font-size="10.00" fill="grey"> sources</text>
</g>
<!-- Node21 -->
<g id="Node000021" class="node">
<title>Node21</title>
<g id="a_Node000021"><a xlink:href="classCore_1_1FMToutputsource.html" target="_top" xlink:title=" ">
<polygon fill="white" stroke="#666666" points="1412.75,-321 1294.75,-321 1294.75,-301 1412.75,-301 1412.75,-321"/>
<text text-anchor="middle" x="1353.75" y="-307.5" font-family="Helvetica,sans-Serif" font-size="10.00">Core::FMToutputsource</text>
</a>
</g>
</g>
<!-- Node21&#45;&gt;Node20 -->
<g id="edge21_Node000020_Node000021" class="edge">
<title>Node21&#45;&gt;Node20</title>
<g id="a_edge21_Node000020_Node000021"><a xlink:title=" ">
<path fill="none" stroke="#9a32cd" stroke-dasharray="5,2" d="M1424.02,-305.2C1494.21,-299.32 1601.06,-290.37 1663.22,-285.16"/>
<polygon fill="#9a32cd" stroke="#9a32cd" points="1423.76,-301.79 1414.09,-306.11 1424.34,-308.77 1423.76,-301.79"/>
</a>
</g>
<text text-anchor="middle" x="1472.38" y="-304.5" font-family="Helvetica,sans-Serif" font-size="10.00" fill="grey"> elements</text>
</g>
<!-- Node22 -->
<g id="Node000022" class="node">
<title>Node22</title>
<g id="a_Node000022"><a xlink:href="classCore_1_1FMTspec.html" target="_top" xlink:title=" ">
<polygon fill="white" stroke="#666666" points="1119.62,-340 1036.88,-340 1036.88,-320 1119.62,-320 1119.62,-340"/>
<text text-anchor="middle" x="1078.25" y="-326.5" font-family="Helvetica,sans-Serif" font-size="10.00">Core::FMTspec</text>
</a>
</g>
</g>
<!-- Node22&#45;&gt;Node21 -->
<g id="edge22_Node000021_Node000022" class="edge">
<title>Node22&#45;&gt;Node21</title>
<g id="a_edge22_Node000021_Node000022"><a xlink:title=" ">
<path fill="none" stroke="#63b8ff" d="M1130.66,-326.43C1177.23,-323.19 1245.8,-318.43 1294.41,-315.05"/>
<polygon fill="#63b8ff" stroke="#63b8ff" points="1130.63,-322.99 1120.9,-327.18 1131.12,-329.97 1130.63,-322.99"/>
</a>
</g>
</g>
<!-- Node23 -->
<g id="Node000023" class="node">
<title>Node23</title>
<g id="a_Node000023"><a xlink:href="classCore_1_1FMTperbounds.html" target="_top" xlink:title=" ">
<polygon fill="white" stroke="#666666" points="917.62,-386 810.88,-386 810.88,-366 917.62,-366 917.62,-386"/>
<text text-anchor="middle" x="864.25" y="-372.5" font-family="Helvetica,sans-Serif" font-size="10.00">Core::FMTperbounds</text>
</a>
</g>
</g>
<!-- Node23&#45;&gt;Node22 -->
<g id="edge23_Node000022_Node000023" class="edge">
<title>Node23&#45;&gt;Node22</title>
<g id="a_edge23_Node000022_Node000023"><a xlink:title=" ">
<path fill="none" stroke="#9a32cd" stroke-dasharray="5,2" d="M928.43,-364.38C950.57,-360.12 975.56,-355.09 998.25,-350 1011.09,-347.12 1025.03,-343.7 1037.57,-340.5"/>
<polygon fill="#9a32cd" stroke="#9a32cd" points="927.98,-361.1 918.82,-366.41 929.3,-367.97 927.98,-361.1"/>
</a>
</g>
<text text-anchor="middle" x="970.88" y="-363.5" font-family="Helvetica,sans-Serif" font-size="10.00" fill="grey"> per</text>
</g>
<!-- Node24 -->
<g id="Node000024" class="node">
<title>Node24</title>
<g id="a_Node000024"><a xlink:href="classCore_1_1FMTbounds.html" target="_top" xlink:title=" ">
<polygon fill="white" stroke="#666666" points="721.25,-348 599.5,-348 599.5,-328 721.25,-328 721.25,-348"/>
<text text-anchor="middle" x="660.38" y="-334.5" font-family="Helvetica,sans-Serif" font-size="10.00">Core::FMTbounds&lt; int &gt;</text>
</a>
</g>
</g>
<!-- Node24&#45;&gt;Node23 -->
<g id="edge24_Node000023_Node000024" class="edge">
<title>Node24&#45;&gt;Node23</title>
<g id="a_edge24_Node000023_Node000024"><a xlink:title=" ">
<path fill="none" stroke="#63b8ff" d="M727.57,-350.46C754.48,-355.53 785.15,-361.3 810.51,-366.07"/>
<polygon fill="#63b8ff" stroke="#63b8ff" points="728.55,-346.89 718.07,-348.48 727.25,-353.77 728.55,-346.89"/>
</a>
</g>
</g>
<!-- Node25 -->
<g id="Node000025" class="node">
<title>Node25</title>
<g id="a_Node000025"><a xlink:href="classCore_1_1FMTagebounds.html" target="_top" xlink:title=" ">
<polygon fill="white" stroke="#666666" points="918.75,-348 809.75,-348 809.75,-328 918.75,-328 918.75,-348"/>
<text text-anchor="middle" x="864.25" y="-334.5" font-family="Helvetica,sans-Serif" font-size="10.00">Core::FMTagebounds</text>
</a>
</g>
</g>
<!-- Node24&#45;&gt;Node25 -->
<g id="edge26_Node000025_Node000024" class="edge">
<title>Node24&#45;&gt;Node25</title>
<g id="a_edge26_Node000025_Node000024"><a xlink:title=" ">
<path fill="none" stroke="#63b8ff" d="M732.34,-338C757.68,-338 785.79,-338 809.44,-338"/>
<polygon fill="#63b8ff" stroke="#63b8ff" points="732.67,-334.5 722.67,-338 732.67,-341.5 732.67,-334.5"/>
</a>
</g>
</g>
<!-- Node26 -->
<g id="Node000026" class="node">
<title>Node26</title>
<g id="a_Node000026"><a xlink:href="classCore_1_1FMTlockbounds.html" target="_top" xlink:title=" ">
<polygon fill="white" stroke="#666666" points="919.88,-310 808.62,-310 808.62,-290 919.88,-290 919.88,-310"/>
<text text-anchor="middle" x="864.25" y="-296.5" font-family="Helvetica,sans-Serif" font-size="10.00">Core::FMTlockbounds</text>
</a>
</g>
</g>
<!-- Node24&#45;&gt;Node26 -->
<g id="edge28_Node000026_Node000024" class="edge">
<title>Node24&#45;&gt;Node26</title>
<g id="a_edge28_Node000026_Node000024"><a xlink:title=" ">
<path fill="none" stroke="#63b8ff" d="M727.66,-325.52C753.82,-320.6 783.52,-315.01 808.43,-310.32"/>
<polygon fill="#63b8ff" stroke="#63b8ff" points="727.25,-322.23 718.07,-327.52 728.55,-329.11 727.25,-322.23"/>
</a>
</g>
</g>
<!-- Node25&#45;&gt;Node22 -->
<g id="edge25_Node000022_Node000025" class="edge">
<title>Node25&#45;&gt;Node22</title>
<g id="a_edge25_Node000022_Node000025"><a xlink:title=" ">
<path fill="none" stroke="#9a32cd" stroke-dasharray="5,2" d="M929.57,-335.57C964.38,-334.26 1006.31,-332.68 1036.59,-331.53"/>
<polygon fill="#9a32cd" stroke="#9a32cd" points="929.88,-332.1 920.02,-335.97 930.15,-339.09 929.88,-332.1"/>
</a>
</g>
<text text-anchor="middle" x="970.88" y="-336.5" font-family="Helvetica,sans-Serif" font-size="10.00" fill="grey"> age</text>
</g>
<!-- Node26&#45;&gt;Node22 -->
<g id="edge27_Node000022_Node000026" class="edge">
<title>Node26&#45;&gt;Node22</title>
<g id="a_edge27_Node000022_Node000026"><a xlink:title=" ">
<path fill="none" stroke="#9a32cd" stroke-dasharray="5,2" d="M930.96,-307.92C952.43,-310.64 976.38,-313.8 998.25,-317 1010.77,-318.83 1024.37,-321 1036.7,-323.04"/>
<polygon fill="#9a32cd" stroke="#9a32cd" points="931.67,-304.36 921.31,-306.59 930.8,-311.31 931.67,-304.36"/>
</a>
</g>
<text text-anchor="middle" x="970.88" y="-319.5" font-family="Helvetica,sans-Serif" font-size="10.00" fill="grey"> lock</text>
</g>
<!-- Node27&#45;&gt;Node22 -->
<g id="edge29_Node000022_Node000027" class="edge">
<title>Node27&#45;&gt;Node22</title>
<g id="a_edge29_Node000022_Node000027"><a xlink:title=" ">
<path fill="none" stroke="#9a32cd" stroke-dasharray="5,2" d="M932.55,-274.82C953.83,-279.63 977.26,-285.73 998.25,-293 1019.29,-300.29 1042.21,-311.41 1057.92,-319.55"/>
<polygon fill="#9a32cd" stroke="#9a32cd" points="933.48,-271.22 922.97,-272.49 931.98,-278.06 933.48,-271.22"/>
</a>
</g>
<text text-anchor="middle" x="970.88" y="-295.5" font-family="Helvetica,sans-Serif" font-size="10.00" fill="grey"> yieldnames</text>
</g>
<!-- Node28 -->
<g id="Node000028" class="node">
<title>Node28</title>
<g id="a_Node000028"><a xlink:title=" ">
<polygon fill="white" stroke="#666666" points="912.38,-436 816.12,-436 816.12,-404 912.38,-404 912.38,-436"/>
<text text-anchor="start" x="824.12" y="-422.5" font-family="Helvetica,sans-Serif" font-size="10.00">std::vector&lt; Core::</text>
<text text-anchor="middle" x="864.25" y="-410.5" font-family="Helvetica,sans-Serif" font-size="10.00">FMTyldbounds &gt;</text>
</a>
</g>
</g>
<!-- Node28&#45;&gt;Node22 -->
<g id="edge31_Node000022_Node000028" class="edge">
<title>Node28&#45;&gt;Node22</title>
<g id="a_edge31_Node000022_Node000028"><a xlink:title=" ">
<path fill="none" stroke="#9a32cd" stroke-dasharray="5,2" d="M922.97,-404.42C946.74,-397.22 974.27,-387.84 998.25,-377 1021.52,-366.48 1046.56,-350.75 1062.07,-340.43"/>
<polygon fill="#9a32cd" stroke="#9a32cd" points="922.28,-401.27 913.69,-407.47 924.27,-407.98 922.28,-401.27"/>
</a>
</g>
<text text-anchor="middle" x="970.88" y="-399.5" font-family="Helvetica,sans-Serif" font-size="10.00" fill="grey"> yieldbounds</text>
</g>
<!-- Node29 -->
<g id="Node000029" class="node">
<title>Node29</title>
<g id="a_Node000029"><a xlink:href="classCore_1_1FMTyldbounds.html" target="_top" xlink:title=" ">
<polygon fill="white" stroke="#666666" points="713.38,-430 607.38,-430 607.38,-410 713.38,-410 713.38,-430"/>
<text text-anchor="middle" x="660.38" y="-416.5" font-family="Helvetica,sans-Serif" font-size="10.00">Core::FMTyldbounds</text>
</a>
</g>
</g>
<!-- Node29&#45;&gt;Node28 -->
<g id="edge32_Node000028_Node000029" class="edge">
<title>Node29&#45;&gt;Node28</title>
<g id="a_edge32_Node000028_Node000029"><a xlink:title=" ">
<path fill="none" stroke="#9a32cd" stroke-dasharray="5,2" d="M724.25,-420C753.78,-420 788.41,-420 815.71,-420"/>
<polygon fill="#9a32cd" stroke="#9a32cd" points="724.63,-416.5 714.63,-420 724.63,-423.5 724.63,-416.5"/>
</a>
</g>
<text text-anchor="middle" x="762.5" y="-422.5" font-family="Helvetica,sans-Serif" font-size="10.00" fill="grey"> elements</text>
</g>
<!-- Node30 -->
<g id="Node000030" class="node">
<title>Node30</title>
<g id="a_Node000030"><a xlink:href="classCore_1_1FMTbounds.html" target="_top" xlink:title=" ">
<polygon fill="white" stroke="#666666" points="548.5,-430 408.75,-430 408.75,-410 548.5,-410 548.5,-430"/>
<text text-anchor="middle" x="478.62" y="-416.5" font-family="Helvetica,sans-Serif" font-size="10.00">Core::FMTbounds&lt; double &gt;</text>
</a>
</g>
</g>
<!-- Node30&#45;&gt;Node29 -->
<g id="edge33_Node000029_Node000030" class="edge">
<title>Node30&#45;&gt;Node29</title>
<g id="a_edge33_Node000029_Node000030"><a xlink:title=" ">
<path fill="none" stroke="#63b8ff" d="M559.83,-420C575.8,-420 592.18,-420 606.92,-420"/>
<polygon fill="#63b8ff" stroke="#63b8ff" points="559.86,-416.5 549.86,-420 559.86,-423.5 559.86,-416.5"/>
</a>
</g>
</g>
<!-- Node31 -->
<g id="Node000031" class="node">
<title>Node31</title>
<g id="a_Node000031"><a xlink:title=" ">
<polygon fill="white" stroke="#666666" points="1878.5,-128 1782.25,-128 1782.25,-96 1878.5,-96 1878.5,-128"/>
<text text-anchor="start" x="1790.25" y="-114.5" font-family="Helvetica,sans-Serif" font-size="10.00">std::vector&lt; Core::</text>
<text text-anchor="middle" x="1830.38" y="-102.5" font-family="Helvetica,sans-Serif" font-size="10.00">FMToperator &gt;</text>
</a>
</g>
</g>
<!-- Node31&#45;&gt;Node1 -->
<g id="edge34_Node000001_Node000031" class="edge">
<title>Node31&#45;&gt;Node1</title>
<g id="a_edge34_Node000001_Node000031"><a xlink:title=" ">
<path fill="none" stroke="#9a32cd" stroke-dasharray="5,2" d="M1871.57,-133.28C1906.36,-151.7 1955.17,-177.54 1981.93,-191.71"/>
<polygon fill="#9a32cd" stroke="#9a32cd" points="1873.64,-129.88 1863.16,-128.3 1870.36,-136.07 1873.64,-129.88"/>
</a>
</g>
<text text-anchor="middle" x="1918.25" y="-169.5" font-family="Helvetica,sans-Serif" font-size="10.00" fill="grey"> operators</text>
</g>
<!-- Node32 -->
<g id="Node000032" class="node">
<title>Node32</title>
<g id="a_Node000032"><a xlink:href="classCore_1_1FMToperator.html" target="_top" xlink:title=" ">
<polygon fill="white" stroke="#666666" points="1627.12,-100 1530.12,-100 1530.12,-80 1627.12,-80 1627.12,-100"/>
<text text-anchor="middle" x="1578.62" y="-86.5" font-family="Helvetica,sans-Serif" font-size="10.00">Core::FMToperator</text>
</a>
</g>
</g>
<!-- Node32&#45;&gt;Node31 -->
<g id="edge35_Node000031_Node000032" class="edge">
<title>Node32&#45;&gt;Node31</title>
<g id="a_edge35_Node000031_Node000032"><a xlink:title=" ">
<path fill="none" stroke="#9a32cd" stroke-dasharray="5,2" d="M1638.28,-95.17C1682.12,-99.03 1741.28,-104.24 1782.1,-107.84"/>
<polygon fill="#9a32cd" stroke="#9a32cd" points="1638.75,-91.61 1628.48,-94.22 1638.14,-98.58 1638.75,-91.61"/>
</a>
</g>
<text text-anchor="middle" x="1713.88" y="-109.5" font-family="Helvetica,sans-Serif" font-size="10.00" fill="grey"> elements</text>
</g>
</g>
</svg>
