<?xml version="1.0" encoding="UTF-8" standalone="no"?>
<!DOCTYPE svg PUBLIC "-//W3C//DTD SVG 1.1//EN"
 "http://www.w3.org/Graphics/SVG/1.1/DTD/svg11.dtd">
<!-- Generated by graphviz version 10.0.1 (20240210.2158)
 -->
<!-- Title: Spatial::FMTspatialschedule Pages: 1 -->
<svg width="147pt" height="152pt"
 viewBox="0.00 0.00 147.00 152.00" xmlns="http://www.w3.org/2000/svg" xmlns:xlink="http://www.w3.org/1999/xlink">
<g id="graph0" class="graph" transform="scale(1 1) rotate(0) translate(4 148)">
<title>Spatial::FMTspatialschedule</title>
<!-- Node1 -->
<g id="node1" class="node">
<title>Node1</title>
<g id="a_node1"><a xlink:title=" ">
<polygon fill="#999999" stroke="#666666" points="139,-20 0,-20 0,0 139,0 139,-20"/>
<text text-anchor="middle" x="69.5" y="-6.5" font-family="Helvetica,sans-Serif" font-size="10.00">Spatial::FMTspatialschedule</text>
</a>
</g>
</g>
<!-- Node2 -->
<g id="node2" class="node">
<title>Node2</title>
<g id="a_node2"><a xlink:href="classSpatial_1_1FMTlayer.html" target="_top" xlink:title=" ">
<polygon fill="white" stroke="#666666" points="128.88,-88 10.12,-88 10.12,-56 128.88,-56 128.88,-88"/>
<text text-anchor="start" x="18.12" y="-74.5" font-family="Helvetica,sans-Serif" font-size="10.00">Spatial::FMTlayer&lt;</text>
<text text-anchor="middle" x="69.5" y="-62.5" font-family="Helvetica,sans-Serif" font-size="10.00"> Graph::FMTlinegraph &gt;</text>
</a>
</g>
</g>
<!-- Node2&#45;&gt;Node1 -->
<g id="edge1" class="edge">
<title>Node2&#45;&gt;Node1</title>
<path fill="none" stroke="#63b8ff" d="M69.5,-44.08C69.5,-35.6 69.5,-26.8 69.5,-20.41"/>
<polygon fill="#63b8ff" stroke="#63b8ff" points="66,-44.03 69.5,-54.03 73,-44.03 66,-44.03"/>
</g>
<!-- Node3 -->
<g id="node3" class="node">
<title>Node3</title>
<g id="a_node3"><a xlink:href="classCore_1_1FMTobject.html" target="_top" xlink:title=" ">
<polygon fill="white" stroke="#666666" points="113.5,-144 25.5,-144 25.5,-124 113.5,-124 113.5,-144"/>
<text text-anchor="middle" x="69.5" y="-130.5" font-family="Helvetica,sans-Serif" font-size="10.00">Core::FMTobject</text>
</a>
</g>
</g>
<!-- Node3&#45;&gt;Node2 -->
<g id="edge2" class="edge">
<title>Node3&#45;&gt;Node2</title>
<path fill="none" stroke="#63b8ff" d="M69.5,-112.31C69.5,-104.37 69.5,-95.46 69.5,-88.14"/>
<polygon fill="#63b8ff" stroke="#63b8ff" points="66,-112.11 69.5,-122.11 73,-112.11 66,-112.11"/>
</g>
</g>
</svg>
