<?xml version="1.0" encoding="UTF-8" standalone="no"?>
<!DOCTYPE svg PUBLIC "-//W3C//DTD SVG 1.1//EN"
 "http://www.w3.org/Graphics/SVG/1.1/DTD/svg11.dtd">
<!-- Generated by graphviz version 10.0.1 (20240210.2158)
 -->
<!-- Title: Logging::FMTquietlogger Pages: 1 -->
<svg width="373pt" height="428pt"
 viewBox="0.00 0.00 372.62 428.00" xmlns="http://www.w3.org/2000/svg" xmlns:xlink="http://www.w3.org/1999/xlink">
<g id="graph0" class="graph" transform="scale(1 1) rotate(0) translate(4 424)">
<title>Logging::FMTquietlogger</title>
<!-- Node1 -->
<g id="node1" class="node">
<title>Node1</title>
<g id="a_node1"><a xlink:title=" ">
<polygon fill="#999999" stroke="#666666" points="252.38,-20 129.88,-20 129.88,0 252.38,0 252.38,-20"/>
<text text-anchor="middle" x="191.12" y="-6.5" font-family="Helvetica,sans-Serif" font-size="10.00">Logging::FMTquietlogger</text>
</a>
</g>
</g>
<!-- Node2 -->
<g id="node2" class="node">
<title>Node2</title>
<g id="a_node2"><a xlink:href="classLogging_1_1FMTlogger.html" target="_top" xlink:title=" ">
<polygon fill="white" stroke="#666666" points="241.88,-77 140.38,-77 140.38,-57 241.88,-57 241.88,-77"/>
<text text-anchor="middle" x="191.12" y="-63.5" font-family="Helvetica,sans-Serif" font-size="10.00">Logging::FMTlogger</text>
</a>
</g>
</g>
<!-- Node2&#45;&gt;Node1 -->
<g id="edge1" class="edge">
<title>Node2&#45;&gt;Node1</title>
<path fill="none" stroke="#63b8ff" d="M191.12,-45.69C191.12,-36.97 191.12,-27.22 191.12,-20.28"/>
<polygon fill="#63b8ff" stroke="#63b8ff" points="187.63,-45.4 191.13,-55.4 194.63,-45.4 187.63,-45.4"/>
</g>
<!-- Node3 -->
<g id="node3" class="node">
<title>Node3</title>
<g id="a_node3"><a xlink:title=" ">
<polygon fill="white" stroke="#666666" points="138.75,-157 15.5,-157 15.5,-125 138.75,-125 138.75,-157"/>
<text text-anchor="start" x="23.5" y="-143.5" font-family="Helvetica,sans-Serif" font-size="10.00">std::unique_ptr&lt; Logging</text>
<text text-anchor="middle" x="77.12" y="-131.5" font-family="Helvetica,sans-Serif" font-size="10.00">::FMTsolverlogger &gt;</text>
</a>
</g>
</g>
<!-- Node3&#45;&gt;Node2 -->
<g id="edge2" class="edge">
<title>Node3&#45;&gt;Node2</title>
<path fill="none" stroke="#9a32cd" stroke-dasharray="5,2" d="M111.09,-118.55C132.72,-104.89 159.67,-87.86 176.13,-77.47"/>
<polygon fill="#9a32cd" stroke="#9a32cd" points="109.45,-115.45 102.86,-123.75 113.18,-121.37 109.45,-115.45"/>
<text text-anchor="middle" x="167.25" y="-97.5" font-family="Helvetica,sans-Serif" font-size="10.00"> solverref</text>
</g>
<!-- Node4 -->
<g id="node4" class="node">
<title>Node4</title>
<g id="a_node4"><a xlink:href="classLogging_1_1FMTsolverlogger.html" target="_top" xlink:title=" ">
<polygon fill="white" stroke="#666666" points="126.25,-231 0,-231 0,-211 126.25,-211 126.25,-231"/>
<text text-anchor="middle" x="63.12" y="-217.5" font-family="Helvetica,sans-Serif" font-size="10.00">Logging::FMTsolverlogger</text>
</a>
</g>
</g>
<!-- Node4&#45;&gt;Node3 -->
<g id="edge3" class="edge">
<title>Node4&#45;&gt;Node3</title>
<path fill="none" stroke="#9a32cd" stroke-dasharray="5,2" d="M66.8,-199.51C69.17,-186.32 72.2,-169.47 74.36,-157.42"/>
<polygon fill="#9a32cd" stroke="#9a32cd" points="63.38,-198.8 65.05,-209.26 70.27,-200.03 63.38,-198.8"/>
<text text-anchor="middle" x="78.25" y="-177.5" font-family="Helvetica,sans-Serif" font-size="10.00"> ptr</text>
</g>
<!-- Node5 -->
<g id="node5" class="node">
<title>Node5</title>
<g id="a_node5"><a xlink:title=" ">
<polygon fill="white" stroke="#666666" points="117.25,-300 9,-300 9,-280 117.25,-280 117.25,-300"/>
<text text-anchor="middle" x="63.12" y="-286.5" font-family="Helvetica,sans-Serif" font-size="10.00">CoinMessageHandler</text>
</a>
</g>
</g>
<!-- Node5&#45;&gt;Node4 -->
<g id="edge4" class="edge">
<title>Node5&#45;&gt;Node4</title>
<path fill="none" stroke="#63b8ff" d="M63.12,-268.51C63.12,-256.07 63.12,-240.81 63.12,-231.24"/>
<polygon fill="#63b8ff" stroke="#63b8ff" points="59.63,-268.17 63.13,-278.17 66.63,-268.17 59.63,-268.17"/>
</g>
<!-- Node6 -->
<g id="node6" class="node">
<title>Node6</title>
<g id="a_node6"><a xlink:title=" ">
<polygon fill="white" stroke="#666666" points="220.88,-151 161.38,-151 161.38,-131 220.88,-131 220.88,-151"/>
<text text-anchor="middle" x="191.12" y="-137.5" font-family="Helvetica,sans-Serif" font-size="10.00">std::string</text>
</a>
</g>
</g>
<!-- Node6&#45;&gt;Node2 -->
<g id="edge5" class="edge">
<title>Node6&#45;&gt;Node2</title>
<path fill="none" stroke="#9a32cd" stroke-dasharray="5,2" d="M191.12,-119.18C191.12,-105.29 191.12,-87.71 191.12,-77.19"/>
<polygon fill="#9a32cd" stroke="#9a32cd" points="187.63,-119.07 191.13,-129.07 194.63,-119.07 187.63,-119.07"/>
<text text-anchor="middle" x="208" y="-97.5" font-family="Helvetica,sans-Serif" font-size="10.00"> filepath</text>
</g>
<!-- Node7 -->
<g id="node7" class="node">
<title>Node7</title>
<g id="a_node7"><a xlink:title=" ">
<polygon fill="white" stroke="#666666" points="238.12,-237 144.12,-237 144.12,-205 238.12,-205 238.12,-237"/>
<text text-anchor="start" x="152.12" y="-223.5" font-family="Helvetica,sans-Serif" font-size="10.00">std::basic_string&lt;</text>
<text text-anchor="middle" x="191.12" y="-211.5" font-family="Helvetica,sans-Serif" font-size="10.00"> Char &gt;</text>
</a>
</g>
</g>
<!-- Node7&#45;&gt;Node6 -->
<g id="edge6" class="edge">
<title>Node7&#45;&gt;Node6</title>
<path fill="none" stroke="#63b8ff" d="M191.12,-193.23C191.12,-178.77 191.12,-161.81 191.12,-151.49"/>
<polygon fill="#63b8ff" stroke="#63b8ff" points="187.63,-193.08 191.13,-203.08 194.63,-193.08 187.63,-193.08"/>
</g>
<!-- Node8 -->
<g id="node8" class="node">
<title>Node8</title>
<g id="a_node8"><a xlink:title=" ">
<polygon fill="white" stroke="#666666" points="327.62,-151 254.62,-151 254.62,-131 327.62,-131 327.62,-151"/>
<text text-anchor="middle" x="291.12" y="-137.5" font-family="Helvetica,sans-Serif" font-size="10.00">std::ofstream</text>
</a>
</g>
</g>
<!-- Node8&#45;&gt;Node2 -->
<g id="edge7" class="edge">
<title>Node8&#45;&gt;Node2</title>
<path fill="none" stroke="#9a32cd" stroke-dasharray="5,2" d="M269.2,-124C257.35,-115.38 242.46,-104.58 229.12,-95 220.97,-89.15 211.8,-82.63 204.51,-77.46"/>
<polygon fill="#9a32cd" stroke="#9a32cd" points="266.96,-126.7 277.1,-129.76 271.08,-121.05 266.96,-126.7"/>
<text text-anchor="middle" x="266.62" y="-97.5" font-family="Helvetica,sans-Serif" font-size="10.00"> filestream</text>
</g>
<!-- Node9 -->
<g id="node9" class="node">
<title>Node9</title>
<g id="a_node9"><a xlink:title=" ">
<polygon fill="white" stroke="#666666" points="357.88,-237 256.38,-237 256.38,-205 357.88,-205 357.88,-237"/>
<text text-anchor="start" x="264.38" y="-223.5" font-family="Helvetica,sans-Serif" font-size="10.00">std::basic_ofstream</text>
<text text-anchor="middle" x="307.12" y="-211.5" font-family="Helvetica,sans-Serif" font-size="10.00">&lt; Char &gt;</text>
</a>
</g>
</g>
<!-- Node9&#45;&gt;Node8 -->
<g id="edge8" class="edge">
<title>Node9&#45;&gt;Node8</title>
<path fill="none" stroke="#63b8ff" d="M301.72,-193.66C298.74,-179.11 295.21,-161.91 293.07,-151.49"/>
<polygon fill="#63b8ff" stroke="#63b8ff" points="298.22,-194.01 303.66,-203.11 305.08,-192.61 298.22,-194.01"/>
</g>
<!-- Node10 -->
<g id="node10" class="node">
<title>Node10</title>
<g id="a_node10"><a xlink:title=" ">
<polygon fill="white" stroke="#666666" points="356.75,-306 257.5,-306 257.5,-274 356.75,-274 356.75,-306"/>
<text text-anchor="start" x="265.5" y="-292.5" font-family="Helvetica,sans-Serif" font-size="10.00">std::basic_ostream</text>
<text text-anchor="middle" x="307.12" y="-280.5" font-family="Helvetica,sans-Serif" font-size="10.00">&lt; Char &gt;</text>
</a>
</g>
</g>
<!-- Node10&#45;&gt;Node9 -->
<g id="edge9" class="edge">
<title>Node10&#45;&gt;Node9</title>
<path fill="none" stroke="#63b8ff" d="M307.12,-262.35C307.12,-253.78 307.12,-244.59 307.12,-237.14"/>
<polygon fill="#63b8ff" stroke="#63b8ff" points="303.63,-262.28 307.13,-272.28 310.63,-262.28 303.63,-262.28"/>
</g>
<!-- Node11 -->
<g id="node11" class="node">
<title>Node11</title>
<g id="a_node11"><a xlink:title=" ">
<polygon fill="white" stroke="#666666" points="364.62,-363 249.62,-363 249.62,-343 364.62,-343 364.62,-363"/>
<text text-anchor="middle" x="307.12" y="-349.5" font-family="Helvetica,sans-Serif" font-size="10.00">std::basic_ios&lt; Char &gt;</text>
</a>
</g>
</g>
<!-- Node11&#45;&gt;Node10 -->
<g id="edge10" class="edge">
<title>Node11&#45;&gt;Node10</title>
<path fill="none" stroke="#63b8ff" d="M307.12,-331.36C307.12,-323.07 307.12,-313.69 307.12,-306.06"/>
<polygon fill="#63b8ff" stroke="#63b8ff" points="303.63,-331.22 307.13,-341.22 310.63,-331.22 303.63,-331.22"/>
</g>
<!-- Node12 -->
<g id="node12" class="node">
<title>Node12</title>
<g id="a_node12"><a xlink:title=" ">
<polygon fill="white" stroke="#666666" points="344.38,-420 269.88,-420 269.88,-400 344.38,-400 344.38,-420"/>
<text text-anchor="middle" x="307.12" y="-406.5" font-family="Helvetica,sans-Serif" font-size="10.00">std::ios_base</text>
</a>
</g>
</g>
<!-- Node12&#45;&gt;Node11 -->
<g id="edge11" class="edge">
<title>Node12&#45;&gt;Node11</title>
<path fill="none" stroke="#63b8ff" d="M307.12,-388.69C307.12,-379.97 307.12,-370.22 307.12,-363.28"/>
<polygon fill="#63b8ff" stroke="#63b8ff" points="303.63,-388.4 307.13,-398.4 310.63,-388.4 303.63,-388.4"/>
</g>
</g>
</svg>
