<?xml version="1.0" encoding="UTF-8" standalone="no"?>
<!DOCTYPE svg PUBLIC "-//W3C//DTD SVG 1.1//EN"
 "http://www.w3.org/Graphics/SVG/1.1/DTD/svg11.dtd">
<!-- Generated by graphviz version 8.1.0 (20230707.0739)
 -->
<!-- Title: Core::FMTtheme Pages: 1 -->
<!--zoomable 240 -->

<svg id="main" version="1.1" xmlns="http://www.w3.org/2000/svg" xmlns:xlink="http://www.w3.org/1999/xlink" xml:space="preserve" onload="init(evt)">
<style type="text/css"><![CDATA[
.node, .edge {opacity: 0.7;}
.node.selected, .edge.selected {opacity: 1;}
.edge:hover path { stroke: red; }
.edge:hover polygon { stroke: red; fill: red; }
]]></style>

<defs>
  <circle id="rim" cx="0" cy="0" r="7"/>
  <circle id="rim2" cx="0" cy="0" r="3.5"/>
  <g id="zoomPlus">
    <use xlink:href="#rim" fill="#404040"><set attributeName="fill" to="#808080" begin="zoomplus.mouseover" end="zoomplus.mouseout"/></use>
    <path d="M-4,0h8M0,-4v8" fill="none" stroke="white" stroke-width="1.5" pointer-events="none"/>
  </g>
  <g id="zoomMin">
    <use xlink:href="#rim" fill="#404040"><set attributeName="fill" to="#808080" begin="zoomminus.mouseover" end="zoomminus.mouseout"/></use>
    <path d="M-4,0h8" fill="none" stroke="white" stroke-width="1.5" pointer-events="none"/>
  </g>
  <g id="arrowUp" transform="translate(30 24)">
    <use xlink:href="#rim"/>
    <path pointer-events="none" fill="none" stroke="white" stroke-width="1.5" d="M0,-3.0v7 M-2.5,-0.5L0,-3.0L2.5,-0.5"/>
  </g>
  <g id="arrowRight" transform="rotate(90) translate(36 -43)">
    <use xlink:href="#rim"/>
    <path pointer-events="none" fill="none" stroke="white" stroke-width="1.5" d="M0,-3.0v7 M-2.5,-0.5L0,-3.0L2.5,-0.5"/>
  </g>
  <g id="arrowDown" transform="rotate(180) translate(-30 -48)">
    <use xlink:href="#rim"/>
    <path pointer-events="none" fill="none" stroke="white" stroke-width="1.5" d="M0,-3.0v7 M-2.5,-0.5L0,-3.0L2.5,-0.5"/>
  </g>
  <g id="arrowLeft" transform="rotate(270) translate(-36 17)">
    <use xlink:href="#rim"/>
    <path pointer-events="none" fill="none" stroke="white" stroke-width="1.5" d="M0,-3.0v7 M-2.5,-0.5L0,-3.0L2.5,-0.5"/>
  </g>
  <g id="resetDef">
    <use xlink:href="#rim2" fill="#404040"><set attributeName="fill" to="#808080" begin="reset.mouseover" end="reset.mouseout"/></use>
  </g>
</defs>
<script type="application/ecmascript">
var viewWidth = 1870;
var viewHeight = 240;
var sectionId = 'dynsection-1';
</script>
<script type="application/ecmascript" xlink:href="svg.min.js"/>
<svg id="graph" class="graph">
<g id="viewport">
<title>Core::FMTtheme</title>
<!-- Node1 -->
<g id="Node000001" class="node">
<title>Node1</title>
<g id="a_Node000001"><a xlink:title=" ">
<polygon fill="#999999" stroke="#666666" points="1862.25,-163 1773.5,-163 1773.5,-143 1862.25,-143 1862.25,-163"/>
<text text-anchor="middle" x="1817.88" y="-149.5" font-family="Helvetica,sans-Serif" font-size="10.00">Core::FMTtheme</text>
</a>
</g>
</g>
<!-- Node2 -->
<g id="Node000002" class="node">
<title>Node2</title>
<g id="a_Node000002"><a xlink:href="classCore_1_1FMTobject.html" target="_top" xlink:title=" ">
<polygon fill="white" stroke="#666666" points="1736.5,-163 1648.5,-163 1648.5,-143 1736.5,-143 1736.5,-163"/>
<text text-anchor="middle" x="1692.5" y="-149.5" font-family="Helvetica,sans-Serif" font-size="10.00">Core::FMTobject</text>
</a>
</g>
</g>
<!-- Node2&#45;&gt;Node1 -->
<g id="edge1_Node000001_Node000002" class="edge">
<title>Node2&#45;&gt;Node1</title>
<g id="a_edge1_Node000001_Node000002"><a xlink:title=" ">
<path fill="none" stroke="#63b8ff" d="M1747.99,-153C1756.48,-153 1765.15,-153 1773.35,-153"/>
<polygon fill="#63b8ff" stroke="#63b8ff" points="1748,-149.5 1738,-153 1748,-156.5 1748,-149.5"/>
</a>
</g>
</g>
<!-- Node3 -->
<g id="Node000003" class="node">
<title>Node3</title>
<g id="a_Node000003"><a xlink:title=" ">
<polygon fill="white" stroke="#666666" points="1562.25,-143 1428.5,-143 1428.5,-111 1562.25,-111 1562.25,-143"/>
<text text-anchor="start" x="1436.5" y="-129.5" font-family="Helvetica,sans-Serif" font-size="10.00">std::shared_ptr&lt; Exception</text>
<text text-anchor="middle" x="1495.38" y="-117.5" font-family="Helvetica,sans-Serif" font-size="10.00">::FMTexceptionhandler &gt;</text>
</a>
</g>
</g>
<!-- Node3&#45;&gt;Node2 -->
<g id="edge2_Node000002_Node000003" class="edge">
<title>Node3&#45;&gt;Node2</title>
<g id="a_edge2_Node000002_Node000003"><a xlink:title=" ">
<path fill="none" stroke="#9a32cd" stroke-dasharray="5,2" d="M1573.43,-137.27C1598.79,-140.65 1626.07,-144.28 1648.02,-147.21"/>
<polygon fill="#9a32cd" stroke="#9a32cd" points="1574.08,-133.69 1563.71,-135.84 1573.16,-140.63 1574.08,-133.69"/>
</a>
</g>
<text text-anchor="middle" x="1605.38" y="-147.5" font-family="Helvetica,sans-Serif" font-size="10.00" fill="grey"> _exhandler</text>
</g>
<!-- Node4 -->
<g id="Node000004" class="node">
<title>Node4</title>
<g id="a_Node000004"><a xlink:href="classException_1_1FMTexceptionhandler.html" target="_top" xlink:title=" ">
<polygon fill="white" stroke="#666666" points="1358,-123 1199.5,-123 1199.5,-103 1358,-103 1358,-123"/>
<text text-anchor="middle" x="1278.75" y="-109.5" font-family="Helvetica,sans-Serif" font-size="10.00">Exception::FMTexceptionhandler</text>
</a>
</g>
</g>
<!-- Node4&#45;&gt;Node3 -->
<g id="edge3_Node000003_Node000004" class="edge">
<title>Node4&#45;&gt;Node3</title>
<g id="a_edge3_Node000003_Node000004"><a xlink:title=" ">
<path fill="none" stroke="#9a32cd" stroke-dasharray="5,2" d="M1369.28,-118.84C1388.96,-120.12 1409.46,-121.46 1428.03,-122.67"/>
<polygon fill="#9a32cd" stroke="#9a32cd" points="1369.66,-115.29 1359.45,-118.13 1369.2,-122.28 1369.66,-115.29"/>
</a>
</g>
<text text-anchor="middle" x="1393.25" y="-124.5" font-family="Helvetica,sans-Serif" font-size="10.00" fill="grey"> ptr</text>
</g>
<!-- Node5 -->
<g id="Node000005" class="node">
<title>Node5</title>
<g id="a_Node000005"><a xlink:title=" ">
<polygon fill="white" stroke="#666666" points="1065.25,-188 941.25,-188 941.25,-156 1065.25,-156 1065.25,-188"/>
<text text-anchor="start" x="949.25" y="-174.5" font-family="Helvetica,sans-Serif" font-size="10.00">std::shared_ptr&lt; Logging</text>
<text text-anchor="middle" x="1003.25" y="-162.5" font-family="Helvetica,sans-Serif" font-size="10.00">::FMTlogger &gt;</text>
</a>
</g>
</g>
<!-- Node5&#45;&gt;Node2 -->
<g id="edge19_Node000002_Node000005" class="edge">
<title>Node5&#45;&gt;Node2</title>
<g id="a_edge19_Node000002_Node000005"><a xlink:title=" ">
<path fill="none" stroke="#9a32cd" stroke-dasharray="5,2" d="M1076.61,-173.37C1193.33,-175 1430.37,-175.83 1630.5,-161 1636.25,-160.57 1642.29,-159.97 1648.24,-159.29"/>
<polygon fill="#9a32cd" stroke="#9a32cd" points="1076.74,-169.86 1066.69,-173.22 1076.64,-176.86 1076.74,-169.86"/>
</a>
</g>
<text text-anchor="middle" x="1393.25" y="-174.5" font-family="Helvetica,sans-Serif" font-size="10.00" fill="grey"> _logger</text>
</g>
<!-- Node5&#45;&gt;Node4 -->
<g id="edge4_Node000004_Node000005" class="edge">
<title>Node5&#45;&gt;Node4</title>
<g id="a_edge4_Node000004_Node000005"><a xlink:title=" ">
<path fill="none" stroke="#9a32cd" stroke-dasharray="5,2" d="M1068.33,-152.76C1073.37,-151.43 1078.38,-150.16 1083.25,-149 1125.85,-138.88 1174.26,-129.91 1212.13,-123.46"/>
<polygon fill="#9a32cd" stroke="#9a32cd" points="1067.76,-149.56 1059.03,-155.56 1069.6,-156.31 1067.76,-149.56"/>
</a>
</g>
<text text-anchor="middle" x="1132.38" y="-151.5" font-family="Helvetica,sans-Serif" font-size="10.00" fill="grey"> _logger</text>
</g>
<!-- Node6 -->
<g id="Node000006" class="node">
<title>Node6</title>
<g id="a_Node000006"><a xlink:href="classLogging_1_1FMTlogger.html" target="_top" xlink:title=" ">
<polygon fill="white" stroke="#666666" points="891,-182 789.5,-182 789.5,-162 891,-162 891,-182"/>
<text text-anchor="middle" x="840.25" y="-168.5" font-family="Helvetica,sans-Serif" font-size="10.00">Logging::FMTlogger</text>
</a>
</g>
</g>
<!-- Node6&#45;&gt;Node5 -->
<g id="edge5_Node000005_Node000006" class="edge">
<title>Node6&#45;&gt;Node5</title>
<g id="a_edge5_Node000005_Node000006"><a xlink:title=" ">
<path fill="none" stroke="#9a32cd" stroke-dasharray="5,2" d="M902.22,-172C914.87,-172 928.21,-172 940.88,-172"/>
<polygon fill="#9a32cd" stroke="#9a32cd" points="902.31,-168.5 892.31,-172 902.31,-175.5 902.31,-168.5"/>
</a>
</g>
<text text-anchor="middle" x="916.12" y="-174.5" font-family="Helvetica,sans-Serif" font-size="10.00" fill="grey"> ptr</text>
</g>
<!-- Node7 -->
<g id="Node000007" class="node">
<title>Node7</title>
<g id="a_Node000007"><a xlink:title=" ">
<polygon fill="white" stroke="#666666" points="708.5,-232 585.25,-232 585.25,-200 708.5,-200 708.5,-232"/>
<text text-anchor="start" x="593.25" y="-218.5" font-family="Helvetica,sans-Serif" font-size="10.00">std::unique_ptr&lt; Logging</text>
<text text-anchor="middle" x="646.88" y="-206.5" font-family="Helvetica,sans-Serif" font-size="10.00">::FMTsolverlogger &gt;</text>
</a>
</g>
</g>
<!-- Node7&#45;&gt;Node6 -->
<g id="edge6_Node000006_Node000007" class="edge">
<title>Node7&#45;&gt;Node6</title>
<g id="a_edge6_Node000006_Node000007"><a xlink:title=" ">
<path fill="none" stroke="#9a32cd" stroke-dasharray="5,2" d="M719.37,-199.92C736.46,-196.05 754.63,-191.9 771.5,-188 779.15,-186.23 787.29,-184.33 795.17,-182.47"/>
<polygon fill="#9a32cd" stroke="#9a32cd" points="718.87,-196.67 709.89,-202.3 720.42,-203.5 718.87,-196.67"/>
</a>
</g>
<text text-anchor="middle" x="749" y="-200.5" font-family="Helvetica,sans-Serif" font-size="10.00" fill="grey"> solverref</text>
</g>
<!-- Node8 -->
<g id="Node000008" class="node">
<title>Node8</title>
<g id="a_Node000008"><a xlink:href="classLogging_1_1FMTsolverlogger.html" target="_top" xlink:title=" ">
<polygon fill="white" stroke="#666666" points="535,-226 408.75,-226 408.75,-206 535,-206 535,-226"/>
<text text-anchor="middle" x="471.88" y="-212.5" font-family="Helvetica,sans-Serif" font-size="10.00">Logging::FMTsolverlogger</text>
</a>
</g>
</g>
<!-- Node8&#45;&gt;Node7 -->
<g id="edge7_Node000007_Node000008" class="edge">
<title>Node8&#45;&gt;Node7</title>
<g id="a_edge7_Node000007_Node000008"><a xlink:title=" ">
<path fill="none" stroke="#9a32cd" stroke-dasharray="5,2" d="M546.09,-216C559.04,-216 572.39,-216 584.96,-216"/>
<polygon fill="#9a32cd" stroke="#9a32cd" points="546.33,-212.5 536.33,-216 546.33,-219.5 546.33,-212.5"/>
</a>
</g>
<text text-anchor="middle" x="560.12" y="-218.5" font-family="Helvetica,sans-Serif" font-size="10.00" fill="grey"> ptr</text>
</g>
<!-- Node9 -->
<g id="Node000009" class="node">
<title>Node9</title>
<g id="a_Node000009"><a xlink:title=" ">
<polygon fill="white" stroke="#666666" points="371.75,-226 263.5,-226 263.5,-206 371.75,-206 371.75,-226"/>
<text text-anchor="middle" x="317.62" y="-212.5" font-family="Helvetica,sans-Serif" font-size="10.00">CoinMessageHandler</text>
</a>
</g>
</g>
<!-- Node9&#45;&gt;Node8 -->
<g id="edge8_Node000008_Node000009" class="edge">
<title>Node9&#45;&gt;Node8</title>
<g id="a_edge8_Node000008_Node000009"><a xlink:title=" ">
<path fill="none" stroke="#63b8ff" d="M382.8,-216C391.23,-216 399.85,-216 408.25,-216"/>
<polygon fill="#63b8ff" stroke="#63b8ff" points="382.87,-212.5 372.87,-216 382.87,-219.5 382.87,-212.5"/>
</a>
</g>
</g>
<!-- Node10 -->
<g id="Node000010" class="node">
<title>Node10</title>
<g id="a_Node000010"><a xlink:title=" ">
<polygon fill="white" stroke="#666666" points="676.62,-182 617.12,-182 617.12,-162 676.62,-162 676.62,-182"/>
<text text-anchor="middle" x="646.88" y="-168.5" font-family="Helvetica,sans-Serif" font-size="10.00">std::string</text>
</a>
</g>
</g>
<!-- Node10&#45;&gt;Node6 -->
<g id="edge9_Node000006_Node000010" class="edge">
<title>Node10&#45;&gt;Node6</title>
<g id="a_edge9_Node000006_Node000010"><a xlink:title=" ">
<path fill="none" stroke="#9a32cd" stroke-dasharray="5,2" d="M687.65,-172C717.07,-172 757.37,-172 789.02,-172"/>
<polygon fill="#9a32cd" stroke="#9a32cd" points="687.94,-168.5 677.94,-172 687.94,-175.5 687.94,-168.5"/>
</a>
</g>
<text text-anchor="middle" x="749" y="-174.5" font-family="Helvetica,sans-Serif" font-size="10.00" fill="grey"> filepath</text>
</g>
<!-- Node11 -->
<g id="Node000011" class="node">
<title>Node11</title>
<g id="a_Node000011"><a xlink:title=" ">
<polygon fill="white" stroke="#666666" points="518.88,-188 424.88,-188 424.88,-156 518.88,-156 518.88,-188"/>
<text text-anchor="start" x="432.88" y="-174.5" font-family="Helvetica,sans-Serif" font-size="10.00">std::basic_string&lt;</text>
<text text-anchor="middle" x="471.88" y="-162.5" font-family="Helvetica,sans-Serif" font-size="10.00"> Char &gt;</text>
</a>
</g>
</g>
<!-- Node11&#45;&gt;Node10 -->
<g id="edge10_Node000010_Node000011" class="edge">
<title>Node11&#45;&gt;Node10</title>
<g id="a_edge10_Node000010_Node000011"><a xlink:title=" ">
<path fill="none" stroke="#63b8ff" d="M530.09,-172C559.13,-172 593.16,-172 616.78,-172"/>
<polygon fill="#63b8ff" stroke="#63b8ff" points="530.24,-168.5 520.24,-172 530.24,-175.5 530.24,-168.5"/>
</a>
</g>
</g>
<!-- Node12 -->
<g id="Node000012" class="node">
<title>Node12</title>
<g id="a_Node000012"><a xlink:title=" ">
<polygon fill="white" stroke="#666666" points="683.38,-141 610.38,-141 610.38,-121 683.38,-121 683.38,-141"/>
<text text-anchor="middle" x="646.88" y="-127.5" font-family="Helvetica,sans-Serif" font-size="10.00">std::ofstream</text>
</a>
</g>
</g>
<!-- Node12&#45;&gt;Node6 -->
<g id="edge11_Node000006_Node000012" class="edge">
<title>Node12&#45;&gt;Node6</title>
<g id="a_edge11_Node000006_Node000012"><a xlink:title=" ">
<path fill="none" stroke="#9a32cd" stroke-dasharray="5,2" d="M694.25,-140.01C717.48,-144.62 746.02,-150.42 771.5,-156 779.41,-157.73 787.82,-159.66 795.93,-161.55"/>
<polygon fill="#9a32cd" stroke="#9a32cd" points="695.13,-136.42 684.64,-137.92 693.78,-143.29 695.13,-136.42"/>
</a>
</g>
<text text-anchor="middle" x="749" y="-158.5" font-family="Helvetica,sans-Serif" font-size="10.00" fill="grey"> filestream</text>
</g>
<!-- Node13 -->
<g id="Node000013" class="node">
<title>Node13</title>
<g id="a_Node000013"><a xlink:title=" ">
<polygon fill="white" stroke="#666666" points="522.62,-138 421.12,-138 421.12,-106 522.62,-106 522.62,-138"/>
<text text-anchor="start" x="429.12" y="-124.5" font-family="Helvetica,sans-Serif" font-size="10.00">std::basic_ofstream</text>
<text text-anchor="middle" x="471.88" y="-112.5" font-family="Helvetica,sans-Serif" font-size="10.00">&lt; Char &gt;</text>
</a>
</g>
</g>
<!-- Node13&#45;&gt;Node12 -->
<g id="edge12_Node000012_Node000013" class="edge">
<title>Node13&#45;&gt;Node12</title>
<g id="a_edge12_Node000012_Node000013"><a xlink:title=" ">
<path fill="none" stroke="#63b8ff" d="M533.61,-125.16C559.12,-126.49 587.92,-127.98 609.96,-129.13"/>
<polygon fill="#63b8ff" stroke="#63b8ff" points="534.08,-121.63 523.91,-124.6 533.72,-128.62 534.08,-121.63"/>
</a>
</g>
</g>
<!-- Node14 -->
<g id="Node000014" class="node">
<title>Node14</title>
<g id="a_Node000014"><a xlink:title=" ">
<polygon fill="white" stroke="#666666" points="367.25,-138 268,-138 268,-106 367.25,-106 367.25,-138"/>
<text text-anchor="start" x="276" y="-124.5" font-family="Helvetica,sans-Serif" font-size="10.00">std::basic_ostream</text>
<text text-anchor="middle" x="317.62" y="-112.5" font-family="Helvetica,sans-Serif" font-size="10.00">&lt; Char &gt;</text>
</a>
</g>
</g>
<!-- Node14&#45;&gt;Node13 -->
<g id="edge13_Node000013_Node000014" class="edge">
<title>Node14&#45;&gt;Node13</title>
<g id="a_edge13_Node000013_Node000014"><a xlink:title=" ">
<path fill="none" stroke="#63b8ff" d="M378.6,-122C392.52,-122 407.2,-122 420.65,-122"/>
<polygon fill="#63b8ff" stroke="#63b8ff" points="378.64,-118.5 368.64,-122 378.64,-125.5 378.64,-118.5"/>
</a>
</g>
</g>
<!-- Node15 -->
<g id="Node000015" class="node">
<title>Node15</title>
<g id="a_Node000015"><a xlink:title=" ">
<polygon fill="white" stroke="#666666" points="226.5,-132 111.5,-132 111.5,-112 226.5,-112 226.5,-132"/>
<text text-anchor="middle" x="169" y="-118.5" font-family="Helvetica,sans-Serif" font-size="10.00">std::basic_ios&lt; Char &gt;</text>
</a>
</g>
</g>
<!-- Node15&#45;&gt;Node14 -->
<g id="edge14_Node000014_Node000015" class="edge">
<title>Node15&#45;&gt;Node14</title>
<g id="a_edge14_Node000014_Node000015"><a xlink:title=" ">
<path fill="none" stroke="#63b8ff" d="M237.61,-122C247.76,-122 258.06,-122 267.72,-122"/>
<polygon fill="#63b8ff" stroke="#63b8ff" points="237.69,-118.5 227.69,-122 237.69,-125.5 237.69,-118.5"/>
</a>
</g>
</g>
<!-- Node16 -->
<g id="Node000016" class="node">
<title>Node16</title>
<g id="a_Node000016"><a xlink:title=" ">
<polygon fill="white" stroke="#666666" points="74.5,-132 0,-132 0,-112 74.5,-112 74.5,-132"/>
<text text-anchor="middle" x="37.25" y="-118.5" font-family="Helvetica,sans-Serif" font-size="10.00">std::ios_base</text>
</a>
</g>
</g>
<!-- Node16&#45;&gt;Node15 -->
<g id="edge15_Node000015_Node000016" class="edge">
<title>Node16&#45;&gt;Node15</title>
<g id="a_edge15_Node000015_Node000016"><a xlink:title=" ">
<path fill="none" stroke="#63b8ff" d="M85.5,-122C93.92,-122 102.77,-122 111.41,-122"/>
<polygon fill="#63b8ff" stroke="#63b8ff" points="85.74,-118.5 75.74,-122 85.74,-125.5 85.74,-118.5"/>
</a>
</g>
</g>
<!-- Node17 -->
<g id="Node000017" class="node">
<title>Node17</title>
<g id="a_Node000017"><a xlink:title=" ">
<polygon fill="white" stroke="#666666" points="1060,-132 946.5,-132 946.5,-100 1060,-100 1060,-132"/>
<text text-anchor="start" x="954.5" y="-118.5" font-family="Helvetica,sans-Serif" font-size="10.00">std::vector&lt; Exception</text>
<text text-anchor="middle" x="1003.25" y="-106.5" font-family="Helvetica,sans-Serif" font-size="10.00">::FMTexc &gt;</text>
</a>
</g>
</g>
<!-- Node17&#45;&gt;Node4 -->
<g id="edge16_Node000004_Node000017" class="edge">
<title>Node17&#45;&gt;Node4</title>
<g id="a_edge16_Node000004_Node000017"><a xlink:title=" ">
<path fill="none" stroke="#9a32cd" stroke-dasharray="5,2" d="M1071.19,-114.21C1075.27,-114.13 1079.31,-114.06 1083.25,-114 1121.4,-113.42 1163.77,-113.16 1199.2,-113.04"/>
<polygon fill="#9a32cd" stroke="#9a32cd" points="1071.27,-110.73 1061.35,-114.44 1071.42,-117.73 1071.27,-110.73"/>
</a>
</g>
<text text-anchor="middle" x="1132.38" y="-116.5" font-family="Helvetica,sans-Serif" font-size="10.00" fill="grey"> errorstowarnings</text>
</g>
<!-- Node18 -->
<g id="Node000018" class="node">
<title>Node18</title>
<g id="a_Node000018"><a xlink:title=" ">
<polygon fill="white" stroke="#666666" points="1060.75,-82 945.75,-82 945.75,-50 1060.75,-50 1060.75,-82"/>
<text text-anchor="start" x="953.75" y="-68.5" font-family="Helvetica,sans-Serif" font-size="10.00">std::set&lt; boost::thread</text>
<text text-anchor="middle" x="1003.25" y="-56.5" font-family="Helvetica,sans-Serif" font-size="10.00">::id &gt;</text>
</a>
</g>
</g>
<!-- Node18&#45;&gt;Node4 -->
<g id="edge17_Node000004_Node000018" class="edge">
<title>Node18&#45;&gt;Node4</title>
<g id="a_edge17_Node000004_Node000018"><a xlink:title=" ">
<path fill="none" stroke="#9a32cd" stroke-dasharray="5,2" d="M1071.63,-77.58C1116.07,-85.22 1173.82,-95.14 1216.88,-102.54"/>
<polygon fill="#9a32cd" stroke="#9a32cd" points="1072.37,-73.98 1061.92,-75.74 1071.18,-80.88 1072.37,-73.98"/>
</a>
</g>
<text text-anchor="middle" x="1132.38" y="-99.5" font-family="Helvetica,sans-Serif" font-size="10.00" fill="grey"> registered_threads</text>
</g>
<!-- Node19 -->
<g id="Node000019" class="node">
<title>Node19</title>
<g id="a_Node000019"><a xlink:title=" ">
<polygon fill="white" stroke="#666666" points="1054.38,-32 952.12,-32 952.12,0 1054.38,0 1054.38,-32"/>
<text text-anchor="start" x="960.12" y="-18.5" font-family="Helvetica,sans-Serif" font-size="10.00">std::unordered_map</text>
<text text-anchor="middle" x="1003.25" y="-6.5" font-family="Helvetica,sans-Serif" font-size="10.00">&lt; int, size_t &gt;</text>
</a>
</g>
</g>
<!-- Node19&#45;&gt;Node4 -->
<g id="edge18_Node000004_Node000019" class="edge">
<title>Node19&#45;&gt;Node4</title>
<g id="a_edge18_Node000004_Node000019"><a xlink:title=" ">
<path fill="none" stroke="#9a32cd" stroke-dasharray="5,2" d="M1065.23,-29.22C1099.89,-37.54 1143.75,-49.46 1181.5,-64 1210.02,-74.99 1241.24,-91.85 1260.16,-102.65"/>
<polygon fill="#9a32cd" stroke="#9a32cd" points="1066.33,-25.65 1055.79,-26.75 1064.72,-32.46 1066.33,-25.65"/>
</a>
</g>
<text text-anchor="middle" x="1132.38" y="-66.5" font-family="Helvetica,sans-Serif" font-size="10.00" fill="grey"> _specificwarningcount</text>
</g>
</g>
</svg>

<g id="navigator" transform="translate(0 0)" fill="#404254">
  <rect fill="#f2f5e9" fill-opacity="0.5" stroke="#606060" stroke-width=".5" x="0" y="0" width="60" height="60"/>
  <use id="zoomplus" xlink:href="#zoomPlus" x="17" y="9" onmousedown="handleZoom(evt,'in')"/>
  <use id="zoomminus" xlink:href="#zoomMin" x="42" y="9" onmousedown="handleZoom(evt,'out')"/>
  <use id="reset" xlink:href="#resetDef" x="30" y="36" onmousedown="handleReset()"/>
   <use id="arrowup" xlink:href="#arrowUp" x="0" y="0" onmousedown="handlePan(0,-1)"/>
  <use id="arrowright" xlink:href="#arrowRight" x="0" y="0" onmousedown="handlePan(1,0)"/>
  <use id="arrowdown" xlink:href="#arrowDown" x="0" y="0" onmousedown="handlePan(0,1)"/>
  <use id="arrowleft" xlink:href="#arrowLeft" x="0" y="0" onmousedown="handlePan(-1,0)"/>
</g>
<svg viewBox="0 0 15 15" width="100%" height="30px" preserveAspectRatio="xMaxYMin meet">
 <g id="arrow_out" transform="scale(0.3 0.3)">
  <a xlink:href="classCore_1_1FMTtheme__coll__graph_org.svg" target="_base">
   <rect id="button" ry="5" rx="5" y="6" x="6" height="38" width="38"
        fill="#f2f5e9" fill-opacity="0.5" stroke="#606060" stroke-width="1.0"/>
   <path id="arrow"
     d="M 11.500037,31.436501 C 11.940474,20.09759 22.043105,11.32322 32.158766,21.979434 L 37.068811,17.246167 C 37.068811,17.246167 37.088388,32 37.088388,32 L 22.160133,31.978069 C 22.160133,31.978069 26.997745,27.140456 26.997745,27.140456 C 18.528582,18.264221 13.291696,25.230495 11.500037,31.436501 z"
     style="fill:#404040;"/>
  </a>
 </g>
</svg>

<style type='text/css'>
<![CDATA[
[data-mouse-over-selected='false'] { opacity: 0.7; }
[data-mouse-over-selected='true']  { opacity: 1.0; }
]]>
</style>
<script type="application/ecmascript"><![CDATA[
document.addEventListener('DOMContentLoaded', (event) => {
  highlightEdges();
  highlightAdjacentNodes();
});
]]></script>
</svg>
