<?xml version="1.0" encoding="UTF-8" standalone="no"?>
<!DOCTYPE svg PUBLIC "-//W3C//DTD SVG 1.1//EN"
 "http://www.w3.org/Graphics/SVG/1.1/DTD/svg11.dtd">
<!-- Generated by graphviz version 8.1.0 (20230707.0739)
 -->
<!-- Title: Core::FMTobject Pages: 1 -->
<!--zoomable 1138 -->

<svg id="main" version="1.1" xmlns="http://www.w3.org/2000/svg" xmlns:xlink="http://www.w3.org/1999/xlink" xml:space="preserve" onload="init(evt)">
<style type="text/css"><![CDATA[
.node, .edge {opacity: 0.7;}
.node.selected, .edge.selected {opacity: 1;}
.edge:hover path { stroke: red; }
.edge:hover polygon { stroke: red; fill: red; }
]]></style>

<defs>
  <circle id="rim" cx="0" cy="0" r="7"/>
  <circle id="rim2" cx="0" cy="0" r="3.5"/>
  <g id="zoomPlus">
    <use xlink:href="#rim" fill="#404040"><set attributeName="fill" to="#808080" begin="zoomplus.mouseover" end="zoomplus.mouseout"/></use>
    <path d="M-4,0h8M0,-4v8" fill="none" stroke="white" stroke-width="1.5" pointer-events="none"/>
  </g>
  <g id="zoomMin">
    <use xlink:href="#rim" fill="#404040"><set attributeName="fill" to="#808080" begin="zoomminus.mouseover" end="zoomminus.mouseout"/></use>
    <path d="M-4,0h8" fill="none" stroke="white" stroke-width="1.5" pointer-events="none"/>
  </g>
  <g id="arrowUp" transform="translate(30 24)">
    <use xlink:href="#rim"/>
    <path pointer-events="none" fill="none" stroke="white" stroke-width="1.5" d="M0,-3.0v7 M-2.5,-0.5L0,-3.0L2.5,-0.5"/>
  </g>
  <g id="arrowRight" transform="rotate(90) translate(36 -43)">
    <use xlink:href="#rim"/>
    <path pointer-events="none" fill="none" stroke="white" stroke-width="1.5" d="M0,-3.0v7 M-2.5,-0.5L0,-3.0L2.5,-0.5"/>
  </g>
  <g id="arrowDown" transform="rotate(180) translate(-30 -48)">
    <use xlink:href="#rim"/>
    <path pointer-events="none" fill="none" stroke="white" stroke-width="1.5" d="M0,-3.0v7 M-2.5,-0.5L0,-3.0L2.5,-0.5"/>
  </g>
  <g id="arrowLeft" transform="rotate(270) translate(-36 17)">
    <use xlink:href="#rim"/>
    <path pointer-events="none" fill="none" stroke="white" stroke-width="1.5" d="M0,-3.0v7 M-2.5,-0.5L0,-3.0L2.5,-0.5"/>
  </g>
  <g id="resetDef">
    <use xlink:href="#rim2" fill="#404040"><set attributeName="fill" to="#808080" begin="reset.mouseover" end="reset.mouseout"/></use>
  </g>
</defs>
<script type="application/ecmascript">
var viewWidth = 544;
var viewHeight = 1138;
var sectionId = 'dynsection-0';
</script>
<script type="application/ecmascript" xlink:href="svg.min.js"/>
<svg id="graph" class="graph">
<g id="viewport">
<title>Core::FMTobject</title>
<!-- Node1 -->
<g id="Node000001" class="node">
<title>Node1</title>
<g id="a_Node000001"><a xlink:title=" ">
<polygon fill="#999999" stroke="#666666" points="88,-545 0,-545 0,-525 88,-525 88,-545"/>
<text text-anchor="middle" x="44" y="-531.5" font-family="Helvetica,sans-Serif" font-size="10.00">Core::FMTobject</text>
</a>
</g>
</g>
<!-- Node2 -->
<g id="Node000002" class="node">
<title>Node2</title>
<g id="a_Node000002"><a xlink:href="classCore_1_1FMTlist.html" target="_top" xlink:title=" ">
<polygon fill="white" stroke="#666666" points="296.75,-1130 163.75,-1130 163.75,-1110 296.75,-1110 296.75,-1130"/>
<text text-anchor="middle" x="230.25" y="-1116.5" font-family="Helvetica,sans-Serif" font-size="10.00">Core::FMTlist&lt; FMTspec &gt;</text>
</a>
</g>
</g>
<!-- Node1&#45;&gt;Node2 -->
<g id="edge1_Node000001_Node000002" class="edge">
<title>Node1&#45;&gt;Node2</title>
<g id="a_edge1_Node000001_Node000002"><a xlink:title=" ">
<path fill="none" stroke="#63b8ff" d="M44.78,-556.23C44.28,-649.4 47.19,-1021.06 124,-1101 134.36,-1111.78 148.61,-1117.66 163.28,-1120.65"/>
<polygon fill="#63b8ff" stroke="#63b8ff" points="48.29,-556.44 44.86,-546.41 41.29,-556.39 48.29,-556.44"/>
</a>
</g>
</g>
<!-- Node4 -->
<g id="Node000004" class="node">
<title>Node4</title>
<g id="a_Node000004"><a xlink:href="classCore_1_1FMTlist.html" target="_top" xlink:title=" ">
<polygon fill="white" stroke="#666666" points="281.75,-1092 178.75,-1092 178.75,-1072 281.75,-1072 281.75,-1092"/>
<text text-anchor="middle" x="230.25" y="-1078.5" font-family="Helvetica,sans-Serif" font-size="10.00">Core::FMTlist&lt; int &gt;</text>
</a>
</g>
</g>
<!-- Node1&#45;&gt;Node4 -->
<g id="edge3_Node000001_Node000004" class="edge">
<title>Node1&#45;&gt;Node4</title>
<g id="a_edge3_Node000001_Node000004"><a xlink:title=" ">
<path fill="none" stroke="#63b8ff" d="M45.02,-555.92C45.53,-644.68 52.18,-988.99 124,-1063 137.97,-1077.39 158.88,-1083.02 178.39,-1084.72"/>
<polygon fill="#63b8ff" stroke="#63b8ff" points="48.51,-556.13 44.98,-546.14 41.51,-556.16 48.51,-556.13"/>
</a>
</g>
</g>
<!-- Node6 -->
<g id="Node000006" class="node">
<title>Node6</title>
<g id="a_Node000006"><a xlink:href="classCore_1_1FMTlist.html" target="_top" xlink:title=" ">
<polygon fill="white" stroke="#666666" points="294.12,-1054 166.38,-1054 166.38,-1034 294.12,-1034 294.12,-1054"/>
<text text-anchor="middle" x="230.25" y="-1040.5" font-family="Helvetica,sans-Serif" font-size="10.00">Core::FMTlist&lt; FMTfork &gt;</text>
</a>
</g>
</g>
<!-- Node1&#45;&gt;Node6 -->
<g id="edge5_Node000001_Node000006" class="edge">
<title>Node1&#45;&gt;Node6</title>
<g id="a_edge5_Node000001_Node000006"><a xlink:title=" ">
<path fill="none" stroke="#63b8ff" d="M45.28,-556.02C46.88,-640.89 57.27,-957.01 124,-1025 135.05,-1036.26 150.37,-1042.14 165.9,-1044.97"/>
<polygon fill="#63b8ff" stroke="#63b8ff" points="48.77,-556.17 45.11,-546.23 41.77,-556.29 48.77,-556.17"/>
</a>
</g>
</g>
<!-- Node8 -->
<g id="Node000008" class="node">
<title>Node8</title>
<g id="a_Node000008"><a xlink:href="classCore_1_1FMTlist.html" target="_top" xlink:title=" ">
<polygon fill="white" stroke="#666666" points="312.88,-1016 147.62,-1016 147.62,-984 312.88,-984 312.88,-1016"/>
<text text-anchor="start" x="155.62" y="-1002.5" font-family="Helvetica,sans-Serif" font-size="10.00">Core::FMTlist&lt; std</text>
<text text-anchor="middle" x="230.25" y="-990.5" font-family="Helvetica,sans-Serif" font-size="10.00">::unique_ptr&lt; FMTyieldhandler &gt; &gt;</text>
</a>
</g>
</g>
<!-- Node1&#45;&gt;Node8 -->
<g id="edge7_Node000001_Node000008" class="edge">
<title>Node1&#45;&gt;Node8</title>
<g id="a_edge7_Node000001_Node000008"><a xlink:title=" ">
<path fill="none" stroke="#63b8ff" d="M45.82,-556.27C49.33,-635.67 65.65,-913.32 124,-975 130.52,-981.89 138.56,-987.03 147.27,-990.85"/>
<polygon fill="#63b8ff" stroke="#63b8ff" points="49.28,-556.14 45.37,-546.29 42.29,-556.43 49.28,-556.14"/>
</a>
</g>
</g>
<!-- Node10 -->
<g id="Node000010" class="node">
<title>Node10</title>
<g id="a_Node000010"><a xlink:href="classGraph_1_1FMTgraph.html" target="_top" xlink:title=" ">
<polygon fill="white" stroke="#666666" points="336.5,-966 124,-966 124,-934 336.5,-934 336.5,-966"/>
<text text-anchor="start" x="132" y="-952.5" font-family="Helvetica,sans-Serif" font-size="10.00">Graph::FMTgraph&lt; FMTbasevertexproperties,</text>
<text text-anchor="middle" x="230.25" y="-940.5" font-family="Helvetica,sans-Serif" font-size="10.00"> FMTbaseedgeproperties &gt;</text>
</a>
</g>
</g>
<!-- Node1&#45;&gt;Node10 -->
<g id="edge9_Node000001_Node000010" class="edge">
<title>Node1&#45;&gt;Node10</title>
<g id="a_edge9_Node000001_Node000010"><a xlink:title=" ">
<path fill="none" stroke="#63b8ff" d="M46.35,-556.17C51.46,-629.53 72.02,-871.25 124,-925 127.13,-928.24 130.6,-931.09 134.32,-933.6"/>
<polygon fill="#63b8ff" stroke="#63b8ff" points="49.78,-555.95 45.62,-546.2 42.79,-556.41 49.78,-555.95"/>
</a>
</g>
</g>
<!-- Node12 -->
<g id="Node000012" class="node">
<title>Node12</title>
<g id="a_Node000012"><a xlink:href="classGraph_1_1FMTgraph.html" target="_top" xlink:title=" ">
<polygon fill="white" stroke="#666666" points="302,-916 158.5,-916 158.5,-872 302,-872 302,-916"/>
<text text-anchor="start" x="166.5" y="-902.5" font-family="Helvetica,sans-Serif" font-size="10.00">Graph::FMTgraph&lt; Graph</text>
<text text-anchor="start" x="166.5" y="-890.5" font-family="Helvetica,sans-Serif" font-size="10.00">::FMTvertexproperties,</text>
<text text-anchor="middle" x="230.25" y="-878.5" font-family="Helvetica,sans-Serif" font-size="10.00"> Graph::FMTedgeproperties &gt;</text>
</a>
</g>
</g>
<!-- Node1&#45;&gt;Node12 -->
<g id="edge11_Node000001_Node000012" class="edge">
<title>Node1&#45;&gt;Node12</title>
<g id="a_edge11_Node000001_Node000012"><a xlink:title=" ">
<path fill="none" stroke="#63b8ff" d="M47.32,-556.05C54.93,-621.2 81.06,-817.85 124,-863 133.26,-872.73 145.39,-879.45 158.13,-884.09"/>
<polygon fill="#63b8ff" stroke="#63b8ff" points="50.73,-556.02 46.12,-546.48 43.78,-556.81 50.73,-556.02"/>
</a>
</g>
</g>
<!-- Node13 -->
<g id="Node000013" class="node">
<title>Node13</title>
<g id="a_Node000013"><a xlink:href="classSpatial_1_1FMTlayer.html" target="_top" xlink:title=" ">
<polygon fill="white" stroke="#666666" points="294.12,-854 166.38,-854 166.38,-822 294.12,-822 294.12,-854"/>
<text text-anchor="start" x="174.38" y="-840.5" font-family="Helvetica,sans-Serif" font-size="10.00">Spatial::FMTlayer&lt;</text>
<text text-anchor="middle" x="230.25" y="-828.5" font-family="Helvetica,sans-Serif" font-size="10.00"> Core::FMTdevelopment &gt;</text>
</a>
</g>
</g>
<!-- Node1&#45;&gt;Node13 -->
<g id="edge12_Node000001_Node000013" class="edge">
<title>Node1&#45;&gt;Node13</title>
<g id="a_edge12_Node000001_Node000013"><a xlink:title=" ">
<path fill="none" stroke="#63b8ff" d="M44.3,-556.24C43.82,-608.15 50.18,-742.33 124,-813 135.4,-823.91 150.65,-830.35 165.99,-834.08"/>
<polygon fill="#63b8ff" stroke="#63b8ff" points="47.82,-556.49 44.52,-546.42 40.82,-556.35 47.82,-556.49"/>
</a>
</g>
</g>
<!-- Node15 -->
<g id="Node000015" class="node">
<title>Node15</title>
<g id="a_Node000015"><a xlink:href="classSpatial_1_1FMTlayer.html" target="_top" xlink:title=" ">
<polygon fill="white" stroke="#666666" points="289.62,-804 170.88,-804 170.88,-772 289.62,-772 289.62,-804"/>
<text text-anchor="start" x="178.88" y="-790.5" font-family="Helvetica,sans-Serif" font-size="10.00">Spatial::FMTlayer&lt;</text>
<text text-anchor="middle" x="230.25" y="-778.5" font-family="Helvetica,sans-Serif" font-size="10.00"> Graph::FMTlinegraph &gt;</text>
</a>
</g>
</g>
<!-- Node1&#45;&gt;Node15 -->
<g id="edge14_Node000001_Node000015" class="edge">
<title>Node1&#45;&gt;Node15</title>
<g id="a_edge14_Node000001_Node000015"><a xlink:title=" ">
<path fill="none" stroke="#63b8ff" d="M45.84,-556C48.82,-601.02 62.37,-707.26 124,-763 136.75,-774.53 153.83,-781.01 170.51,-784.58"/>
<polygon fill="#63b8ff" stroke="#63b8ff" points="49.28,-555.81 45.25,-546.02 42.29,-556.19 49.28,-555.81"/>
</a>
</g>
</g>
<!-- Node17 -->
<g id="Node000017" class="node">
<title>Node17</title>
<g id="a_Node000017"><a xlink:href="classCore_1_1FMTconstants.html" target="_top" xlink:title=" ">
<polygon fill="white" stroke="#666666" points="282.5,-754 178,-754 178,-734 282.5,-734 282.5,-754"/>
<text text-anchor="middle" x="230.25" y="-740.5" font-family="Helvetica,sans-Serif" font-size="10.00">Core::FMTconstants</text>
</a>
</g>
</g>
<!-- Node1&#45;&gt;Node17 -->
<g id="edge16_Node000001_Node000017" class="edge">
<title>Node1&#45;&gt;Node17</title>
<g id="a_edge16_Node000001_Node000017"><a xlink:title=" ">
<path fill="none" stroke="#63b8ff" d="M47.24,-555.98C52.66,-595.7 70.28,-681.76 124,-725 138.97,-737.05 159.04,-742.46 177.64,-744.63"/>
<polygon fill="#63b8ff" stroke="#63b8ff" points="50.61,-555.74 45.92,-546.24 43.66,-556.59 50.61,-555.74"/>
</a>
</g>
</g>
<!-- Node18 -->
<g id="Node000018" class="node">
<title>Node18</title>
<g id="a_Node000018"><a xlink:href="classCore_1_1FMTdevelopment.html" target="_top" xlink:title=" ">
<polygon fill="white" stroke="#666666" points="288.12,-716 172.38,-716 172.38,-696 288.12,-696 288.12,-716"/>
<text text-anchor="middle" x="230.25" y="-702.5" font-family="Helvetica,sans-Serif" font-size="10.00">Core::FMTdevelopment</text>
</a>
</g>
</g>
<!-- Node1&#45;&gt;Node18 -->
<g id="edge17_Node000001_Node000018" class="edge">
<title>Node1&#45;&gt;Node18</title>
<g id="a_edge17_Node000001_Node000018"><a xlink:title=" ">
<path fill="none" stroke="#63b8ff" d="M49.49,-555.49C57.93,-588.77 79.45,-654.17 124,-687 137.75,-697.13 155.21,-702.44 171.94,-705.07"/>
<polygon fill="#63b8ff" stroke="#63b8ff" points="52.76,-555.08 47.04,-546.16 45.95,-556.7 52.76,-555.08"/>
</a>
</g>
</g>
<!-- Node21 -->
<g id="Node000021" class="node">
<title>Node21</title>
<g id="a_Node000021"><a xlink:href="classCore_1_1FMTfork.html" target="_top" xlink:title=" ">
<polygon fill="white" stroke="#666666" points="269,-678 191.5,-678 191.5,-658 269,-658 269,-678"/>
<text text-anchor="middle" x="230.25" y="-664.5" font-family="Helvetica,sans-Serif" font-size="10.00">Core::FMTfork</text>
</a>
</g>
</g>
<!-- Node1&#45;&gt;Node21 -->
<g id="edge20_Node000001_Node000021" class="edge">
<title>Node1&#45;&gt;Node21</title>
<g id="a_edge20_Node000001_Node000021"><a xlink:title=" ">
<path fill="none" stroke="#63b8ff" d="M53.08,-555.17C64.66,-581.3 88.56,-626.2 124,-649 143.83,-661.76 169.89,-666.53 191.12,-668.11"/>
<polygon fill="#63b8ff" stroke="#63b8ff" points="56,-554.08 48.87,-546.24 49.55,-556.81 56,-554.08"/>
</a>
</g>
</g>
<!-- Node22 -->
<g id="Node000022" class="node">
<title>Node22</title>
<g id="a_Node000022"><a xlink:href="classCore_1_1FMTlist.html" target="_top" xlink:title=" ">
<polygon fill="white" stroke="#666666" points="279.12,-640 181.38,-640 181.38,-620 279.12,-620 279.12,-640"/>
<text text-anchor="middle" x="230.25" y="-626.5" font-family="Helvetica,sans-Serif" font-size="10.00">Core::FMTlist&lt; T &gt;</text>
</a>
</g>
</g>
<!-- Node1&#45;&gt;Node22 -->
<g id="edge21_Node000001_Node000022" class="edge">
<title>Node1&#45;&gt;Node22</title>
<g id="a_edge21_Node000001_Node000022"><a xlink:title=" ">
<path fill="none" stroke="#63b8ff" d="M58.99,-553.74C73.29,-571.45 97.16,-597.29 124,-611 141.44,-619.91 162.39,-624.71 180.98,-627.26"/>
<polygon fill="#63b8ff" stroke="#63b8ff" points="61.33,-552.05 52.42,-546.33 55.82,-556.36 61.33,-552.05"/>
</a>
</g>
</g>
<!-- Node23 -->
<g id="Node000023" class="node">
<title>Node23</title>
<g id="a_Node000023"><a xlink:href="classCore_1_1FMToutput.html" target="_top" xlink:title=" ">
<polygon fill="white" stroke="#666666" points="274.62,-602 185.88,-602 185.88,-582 274.62,-582 274.62,-602"/>
<text text-anchor="middle" x="230.25" y="-588.5" font-family="Helvetica,sans-Serif" font-size="10.00">Core::FMToutput</text>
</a>
</g>
</g>
<!-- Node1&#45;&gt;Node23 -->
<g id="edge22_Node000001_Node000023" class="edge">
<title>Node1&#45;&gt;Node23</title>
<g id="a_edge22_Node000001_Node000023"><a xlink:title=" ">
<path fill="none" stroke="#63b8ff" d="M72.51,-550.5C87.36,-558.28 106.24,-567.24 124,-573 143.78,-579.41 166.4,-583.85 185.59,-586.82"/>
<polygon fill="#63b8ff" stroke="#63b8ff" points="74.4,-547.01 63.93,-545.36 71.09,-553.17 74.4,-547.01"/>
</a>
</g>
</g>
<!-- Node25 -->
<g id="Node000025" class="node">
<title>Node25</title>
<g id="a_Node000025"><a xlink:href="classCore_1_1FMTschedule.html" target="_top" xlink:title=" ">
<polygon fill="white" stroke="#666666" points="280.62,-564 179.88,-564 179.88,-544 280.62,-544 280.62,-564"/>
<text text-anchor="middle" x="230.25" y="-550.5" font-family="Helvetica,sans-Serif" font-size="10.00">Core::FMTschedule</text>
</a>
</g>
</g>
<!-- Node1&#45;&gt;Node25 -->
<g id="edge24_Node000001_Node000025" class="edge">
<title>Node1&#45;&gt;Node25</title>
<g id="a_edge24_Node000001_Node000025"><a xlink:title=" ">
<path fill="none" stroke="#63b8ff" d="M98.8,-540.55C124.28,-543.18 154.53,-546.29 179.48,-548.87"/>
<polygon fill="#63b8ff" stroke="#63b8ff" points="99.5,-537 89.2,-539.45 98.79,-543.96 99.5,-537"/>
</a>
</g>
</g>
<!-- Node26 -->
<g id="Node000026" class="node">
<title>Node26</title>
<g id="a_Node000026"><a xlink:href="classCore_1_1FMTtheme.html" target="_top" xlink:title=" ">
<polygon fill="white" stroke="#666666" points="274.62,-526 185.88,-526 185.88,-506 274.62,-506 274.62,-526"/>
<text text-anchor="middle" x="230.25" y="-512.5" font-family="Helvetica,sans-Serif" font-size="10.00">Core::FMTtheme</text>
</a>
</g>
</g>
<!-- Node1&#45;&gt;Node26 -->
<g id="edge25_Node000001_Node000026" class="edge">
<title>Node1&#45;&gt;Node26</title>
<g id="a_edge25_Node000001_Node000026"><a xlink:title=" ">
<path fill="none" stroke="#63b8ff" d="M98.87,-529.44C126.5,-526.6 159.7,-523.17 185.68,-520.49"/>
<polygon fill="#63b8ff" stroke="#63b8ff" points="98.79,-526.04 89.2,-530.55 99.5,-533 98.79,-526.04"/>
</a>
</g>
</g>
<!-- Node27 -->
<g id="Node000027" class="node">
<title>Node27</title>
<g id="a_Node000027"><a xlink:href="classCore_1_1FMTyieldhandler.html" target="_top" xlink:title=" ">
<polygon fill="white" stroke="#666666" points="287,-488 173.5,-488 173.5,-468 287,-468 287,-488"/>
<text text-anchor="middle" x="230.25" y="-474.5" font-family="Helvetica,sans-Serif" font-size="10.00">Core::FMTyieldhandler</text>
</a>
</g>
</g>
<!-- Node1&#45;&gt;Node27 -->
<g id="edge26_Node000001_Node000027" class="edge">
<title>Node1&#45;&gt;Node27</title>
<g id="a_edge26_Node000001_Node000027"><a xlink:title=" ">
<path fill="none" stroke="#63b8ff" d="M72.51,-519.5C87.36,-511.72 106.24,-502.76 124,-497 139.63,-491.93 157.03,-488.1 173.11,-485.25"/>
<polygon fill="#63b8ff" stroke="#63b8ff" points="71.09,-516.83 63.93,-524.64 74.4,-522.99 71.09,-516.83"/>
</a>
</g>
</g>
<!-- Node32 -->
<g id="Node000032" class="node">
<title>Node32</title>
<g id="a_Node000032"><a xlink:href="classCore_1_1FMTyieldmodel.html" target="_top" xlink:title=" ">
<polygon fill="white" stroke="#666666" points="284.38,-450 176.12,-450 176.12,-430 284.38,-430 284.38,-450"/>
<text text-anchor="middle" x="230.25" y="-436.5" font-family="Helvetica,sans-Serif" font-size="10.00">Core::FMTyieldmodel</text>
</a>
</g>
</g>
<!-- Node1&#45;&gt;Node32 -->
<g id="edge31_Node000001_Node000032" class="edge">
<title>Node1&#45;&gt;Node32</title>
<g id="a_edge31_Node000001_Node000032"><a xlink:title=" ">
<path fill="none" stroke="#63b8ff" d="M58.99,-516.26C73.29,-498.55 97.16,-472.71 124,-459 139.79,-450.93 158.45,-446.24 175.63,-443.53"/>
<polygon fill="#63b8ff" stroke="#63b8ff" points="55.82,-513.64 52.42,-523.67 61.33,-517.95 55.82,-513.64"/>
</a>
</g>
</g>
<!-- Node35 -->
<g id="Node000035" class="node">
<title>Node35</title>
<g id="a_Node000035"><a xlink:href="classCore_1_1FMTyieldrequest.html" target="_top" xlink:title=" ">
<polygon fill="white" stroke="#666666" points="287.38,-412 173.12,-412 173.12,-392 287.38,-392 287.38,-412"/>
<text text-anchor="middle" x="230.25" y="-398.5" font-family="Helvetica,sans-Serif" font-size="10.00">Core::FMTyieldrequest</text>
</a>
</g>
</g>
<!-- Node1&#45;&gt;Node35 -->
<g id="edge34_Node000001_Node000035" class="edge">
<title>Node1&#45;&gt;Node35</title>
<g id="a_edge34_Node000001_Node000035"><a xlink:title=" ">
<path fill="none" stroke="#63b8ff" d="M53.08,-514.83C64.66,-488.7 88.56,-443.8 124,-421 138.37,-411.76 156,-406.7 172.7,-404.02"/>
<polygon fill="#63b8ff" stroke="#63b8ff" points="49.55,-513.19 48.87,-523.76 56,-515.92 49.55,-513.19"/>
</a>
</g>
</g>
<!-- Node36 -->
<g id="Node000036" class="node">
<title>Node36</title>
<g id="a_Node000036"><a xlink:href="classGraph_1_1FMTgraph.html" target="_top" xlink:title=" ">
<polygon fill="white" stroke="#666666" points="317.75,-374 142.75,-374 142.75,-342 317.75,-342 317.75,-374"/>
<text text-anchor="start" x="150.75" y="-360.5" font-family="Helvetica,sans-Serif" font-size="10.00">Graph::FMTgraph&lt; tvertexproperties,</text>
<text text-anchor="middle" x="230.25" y="-348.5" font-family="Helvetica,sans-Serif" font-size="10.00"> tedgeproperties &gt;</text>
</a>
</g>
</g>
<!-- Node1&#45;&gt;Node36 -->
<g id="edge35_Node000001_Node000036" class="edge">
<title>Node1&#45;&gt;Node36</title>
<g id="a_edge35_Node000001_Node000036"><a xlink:title=" ">
<path fill="none" stroke="#63b8ff" d="M49.82,-514.31C58.64,-481.26 80.57,-416.87 124,-383 129.55,-378.67 135.74,-375.07 142.25,-372.08"/>
<polygon fill="#63b8ff" stroke="#63b8ff" points="46.28,-513.04 47.24,-523.59 53.07,-514.74 46.28,-513.04"/>
</a>
</g>
</g>
<!-- Node37 -->
<g id="Node000037" class="node">
<title>Node37</title>
<g id="a_Node000037"><a xlink:href="classModels_1_1FMTlpsolver.html" target="_top" xlink:title=" ">
<polygon fill="white" stroke="#666666" points="282.88,-324 177.62,-324 177.62,-304 282.88,-304 282.88,-324"/>
<text text-anchor="middle" x="230.25" y="-310.5" font-family="Helvetica,sans-Serif" font-size="10.00">Models::FMTlpsolver</text>
</a>
</g>
</g>
<!-- Node1&#45;&gt;Node37 -->
<g id="edge36_Node000001_Node000037" class="edge">
<title>Node1&#45;&gt;Node37</title>
<g id="a_edge36_Node000001_Node000037"><a xlink:title=" ">
<path fill="none" stroke="#63b8ff" d="M46.67,-513.86C51.17,-472.22 67.35,-379.59 124,-333 138.77,-320.85 158.69,-315.4 177.23,-313.23"/>
<polygon fill="#63b8ff" stroke="#63b8ff" points="43.12,-513.32 45.66,-523.61 50.08,-513.98 43.12,-513.32"/>
</a>
</g>
</g>
<!-- Node41 -->
<g id="Node000041" class="node">
<title>Node41</title>
<g id="a_Node000041"><a xlink:href="classModels_1_1FMTmodel.html" target="_top" xlink:title=" ">
<polygon fill="white" stroke="#666666" points="279.88,-286 180.62,-286 180.62,-266 279.88,-266 279.88,-286"/>
<text text-anchor="middle" x="230.25" y="-272.5" font-family="Helvetica,sans-Serif" font-size="10.00">Models::FMTmodel</text>
</a>
</g>
</g>
<!-- Node1&#45;&gt;Node41 -->
<g id="edge38_Node000001_Node000041" class="edge">
<title>Node1&#45;&gt;Node41</title>
<g id="a_edge38_Node000001_Node000041"><a xlink:title=" ">
<path fill="none" stroke="#63b8ff" d="M45.18,-513.89C46.81,-466.76 57.77,-352.59 124,-295 139.34,-281.66 160.82,-276.26 180.37,-274.44"/>
<polygon fill="#63b8ff" stroke="#63b8ff" points="41.67,-513.52 44.94,-523.6 48.66,-513.68 41.67,-513.52"/>
</a>
</g>
</g>
<!-- Node48 -->
<g id="Node000048" class="node">
<title>Node48</title>
<g id="a_Node000048"><a xlink:href="classModels_1_1FMTmodelparameters.html" target="_top" xlink:title=" ">
<polygon fill="white" stroke="#666666" points="304.25,-248 156.25,-248 156.25,-228 304.25,-228 304.25,-248"/>
<text text-anchor="middle" x="230.25" y="-234.5" font-family="Helvetica,sans-Serif" font-size="10.00">Models::FMTmodelparameters</text>
</a>
</g>
</g>
<!-- Node1&#45;&gt;Node48 -->
<g id="edge41_Node000001_Node000048" class="edge">
<title>Node1&#45;&gt;Node48</title>
<g id="a_edge41_Node000001_Node000048"><a xlink:title=" ">
<path fill="none" stroke="#63b8ff" d="M48.07,-513.97C57.05,-455.37 85.13,-292.23 124,-257 132.94,-248.9 144.13,-243.68 155.84,-240.41"/>
<polygon fill="#63b8ff" stroke="#63b8ff" points="44.51,-513.11 46.49,-523.52 51.43,-514.15 44.51,-513.11"/>
</a>
</g>
</g>
<!-- Node49 -->
<g id="Node000049" class="node">
<title>Node49</title>
<g id="a_Node000049"><a xlink:href="classParallel_1_1FMTtask.html" target="_top" xlink:title=" ">
<polygon fill="#fff0f0" stroke="red" points="276.5,-210 184,-210 184,-190 276.5,-190 276.5,-210"/>
<text text-anchor="middle" x="230.25" y="-196.5" font-family="Helvetica,sans-Serif" font-size="10.00">Parallel::FMTtask</text>
</a>
</g>
</g>
<!-- Node1&#45;&gt;Node49 -->
<g id="edge42_Node000001_Node000049" class="edge">
<title>Node1&#45;&gt;Node49</title>
<g id="a_edge42_Node000001_Node000049"><a xlink:title=" ">
<path fill="none" stroke="#63b8ff" d="M47.29,-514.12C54.7,-450.36 80.17,-260.02 124,-219 139.8,-204.22 163.01,-198.96 183.62,-197.61"/>
<polygon fill="#63b8ff" stroke="#63b8ff" points="43.73,-513.47 46.08,-523.8 50.68,-514.25 43.73,-513.47"/>
</a>
</g>
</g>
<!-- Node53 -->
<g id="Node000053" class="node">
<title>Node53</title>
<g id="a_Node000053"><a xlink:href="classParallel_1_1FMTtaskhandler.html" target="_top" xlink:title=" ">
<polygon fill="white" stroke="#666666" points="292.25,-172 168.25,-172 168.25,-152 292.25,-152 292.25,-172"/>
<text text-anchor="middle" x="230.25" y="-158.5" font-family="Helvetica,sans-Serif" font-size="10.00">Parallel::FMTtaskhandler</text>
</a>
</g>
</g>
<!-- Node1&#45;&gt;Node53 -->
<g id="edge44_Node000001_Node000053" class="edge">
<title>Node1&#45;&gt;Node53</title>
<g id="a_edge44_Node000001_Node000053"><a xlink:title=" ">
<path fill="none" stroke="#63b8ff" d="M46.7,-513.9C52.72,-444.92 75.25,-227.79 124,-181 135.79,-169.69 151.91,-163.9 167.99,-161.19"/>
<polygon fill="#63b8ff" stroke="#63b8ff" points="43.15,-513.4 45.8,-523.66 50.13,-513.99 43.15,-513.4"/>
</a>
</g>
</g>
<!-- Node54 -->
<g id="Node000054" class="node">
<title>Node54</title>
<g id="a_Node000054"><a xlink:href="classParser_1_1FMTparser.html" target="_top" xlink:title=" ">
<polygon fill="#fff0f0" stroke="red" points="278.75,-134 181.75,-134 181.75,-114 278.75,-114 278.75,-134"/>
<text text-anchor="middle" x="230.25" y="-120.5" font-family="Helvetica,sans-Serif" font-size="10.00">Parser::FMTparser</text>
</a>
</g>
</g>
<!-- Node1&#45;&gt;Node54 -->
<g id="edge45_Node000001_Node000054" class="edge">
<title>Node1&#45;&gt;Node54</title>
<g id="a_edge45_Node000001_Node000054"><a xlink:title=" ">
<path fill="none" stroke="#63b8ff" d="M46.2,-514.07C50.86,-440.55 70.22,-195.7 124,-143 138.99,-128.31 161.25,-122.89 181.44,-121.42"/>
<polygon fill="#63b8ff" stroke="#63b8ff" points="42.67,-513.5 45.56,-523.69 49.66,-513.93 42.67,-513.5"/>
</a>
</g>
</g>
<!-- Node67 -->
<g id="Node000067" class="node">
<title>Node67</title>
<g id="a_Node000067"><a xlink:href="classSpatial_1_1FMTeventcontainer.html" target="_top" xlink:title=" ">
<polygon fill="white" stroke="#666666" points="297.12,-96 163.38,-96 163.38,-76 297.12,-76 297.12,-96"/>
<text text-anchor="middle" x="230.25" y="-82.5" font-family="Helvetica,sans-Serif" font-size="10.00">Spatial::FMTeventcontainer</text>
</a>
</g>
</g>
<!-- Node1&#45;&gt;Node67 -->
<g id="edge46_Node000001_Node000067" class="edge">
<title>Node1&#45;&gt;Node67</title>
<g id="a_edge46_Node000001_Node000067"><a xlink:title=" ">
<path fill="none" stroke="#63b8ff" d="M45.82,-513.6C49.27,-434.96 65.32,-163.5 124,-105 134.45,-94.58 148.57,-88.8 163.05,-85.78"/>
<polygon fill="#63b8ff" stroke="#63b8ff" points="42.28,-513.37 45.37,-523.5 49.28,-513.65 42.28,-513.37"/>
</a>
</g>
</g>
<!-- Node68 -->
<g id="Node000068" class="node">
<title>Node68</title>
<g id="a_Node000068"><a xlink:href="classSpatial_1_1FMTlayer.html" target="_top" xlink:title=" ">
<polygon fill="white" stroke="#666666" points="288.12,-58 172.38,-58 172.38,-38 288.12,-38 288.12,-58"/>
<text text-anchor="middle" x="230.25" y="-44.5" font-family="Helvetica,sans-Serif" font-size="10.00">Spatial::FMTlayer&lt; T &gt;</text>
</a>
</g>
</g>
<!-- Node1&#45;&gt;Node68 -->
<g id="edge47_Node000001_Node000068" class="edge">
<title>Node1&#45;&gt;Node68</title>
<g id="a_edge47_Node000001_Node000068"><a xlink:title=" ">
<path fill="none" stroke="#63b8ff" d="M45.46,-513.88C47.71,-431.29 60.22,-131.51 124,-67 136.53,-54.32 154.47,-48.48 171.99,-46.13"/>
<polygon fill="#63b8ff" stroke="#63b8ff" points="41.94,-513.74 45.19,-523.82 48.94,-513.91 41.94,-513.74"/>
</a>
</g>
</g>
<!-- Node69 -->
<g id="Node000069" class="node">
<title>Node69</title>
<g id="a_Node000069"><a xlink:href="classVersion_1_1FMTversion.html" target="_top" xlink:title=" ">
<polygon fill="white" stroke="#666666" points="282.5,-20 178,-20 178,0 282.5,0 282.5,-20"/>
<text text-anchor="middle" x="230.25" y="-6.5" font-family="Helvetica,sans-Serif" font-size="10.00">Version::FMTversion</text>
</a>
</g>
</g>
<!-- Node1&#45;&gt;Node69 -->
<g id="edge48_Node000001_Node000069" class="edge">
<title>Node1&#45;&gt;Node69</title>
<g id="a_edge48_Node000001_Node000069"><a xlink:title=" ">
<path fill="none" stroke="#63b8ff" d="M45.17,-513.87C46.31,-427.1 55.17,-99.48 124,-29 137.82,-14.85 158.35,-9.19 177.63,-7.4"/>
<polygon fill="#63b8ff" stroke="#63b8ff" points="41.66,-513.82 45.05,-523.86 48.66,-513.9 41.66,-513.82"/>
</a>
</g>
</g>
<!-- Node3 -->
<g id="Node000003" class="node">
<title>Node3</title>
<g id="a_Node000003"><a xlink:href="classCore_1_1FMTaction.html" target="_top" xlink:title=" ">
<polygon fill="white" stroke="#666666" points="498.38,-1130 410.38,-1130 410.38,-1110 498.38,-1110 498.38,-1130"/>
<text text-anchor="middle" x="454.38" y="-1116.5" font-family="Helvetica,sans-Serif" font-size="10.00">Core::FMTaction</text>
</a>
</g>
</g>
<!-- Node2&#45;&gt;Node3 -->
<g id="edge2_Node000002_Node000003" class="edge">
<title>Node2&#45;&gt;Node3</title>
<g id="a_edge2_Node000002_Node000003"><a xlink:title=" ">
<path fill="none" stroke="#63b8ff" d="M307.88,-1120C341.99,-1120 380.92,-1120 409.91,-1120"/>
<polygon fill="#63b8ff" stroke="#63b8ff" points="307.99,-1116.5 297.99,-1120 307.99,-1123.5 307.99,-1116.5"/>
</a>
</g>
</g>
<!-- Node5 -->
<g id="Node000005" class="node">
<title>Node5</title>
<g id="a_Node000005"><a xlink:href="classCore_1_1FMTlifespans.html" target="_top" xlink:title=" ">
<polygon fill="white" stroke="#666666" points="504.38,-1092 404.38,-1092 404.38,-1072 504.38,-1072 504.38,-1092"/>
<text text-anchor="middle" x="454.38" y="-1078.5" font-family="Helvetica,sans-Serif" font-size="10.00">Core::FMTlifespans</text>
</a>
</g>
</g>
<!-- Node4&#45;&gt;Node5 -->
<g id="edge4_Node000004_Node000005" class="edge">
<title>Node4&#45;&gt;Node5</title>
<g id="a_edge4_Node000004_Node000005"><a xlink:title=" ">
<path fill="none" stroke="#63b8ff" d="M292.82,-1082C327.94,-1082 371.35,-1082 404.18,-1082"/>
<polygon fill="#63b8ff" stroke="#63b8ff" points="293.21,-1078.5 283.21,-1082 293.21,-1085.5 293.21,-1078.5"/>
</a>
</g>
</g>
<!-- Node7 -->
<g id="Node000007" class="node">
<title>Node7</title>
<g id="a_Node000007"><a xlink:href="classCore_1_1FMTtransition.html" target="_top" xlink:title=" ">
<polygon fill="white" stroke="#666666" points="505.12,-1054 403.62,-1054 403.62,-1034 505.12,-1034 505.12,-1054"/>
<text text-anchor="middle" x="454.38" y="-1040.5" font-family="Helvetica,sans-Serif" font-size="10.00">Core::FMTtransition</text>
</a>
</g>
</g>
<!-- Node6&#45;&gt;Node7 -->
<g id="edge6_Node000006_Node000007" class="edge">
<title>Node6&#45;&gt;Node7</title>
<g id="a_edge6_Node000006_Node000007"><a xlink:title=" ">
<path fill="none" stroke="#63b8ff" d="M305.33,-1044C337.54,-1044 374.44,-1044 403.34,-1044"/>
<polygon fill="#63b8ff" stroke="#63b8ff" points="305.6,-1040.5 295.6,-1044 305.6,-1047.5 305.6,-1040.5"/>
</a>
</g>
</g>
<!-- Node9 -->
<g id="Node000009" class="node">
<title>Node9</title>
<g id="a_Node000009"><a xlink:href="classCore_1_1FMTyields.html" target="_top" xlink:title=" ">
<polygon fill="white" stroke="#666666" points="498,-1010 410.75,-1010 410.75,-990 498,-990 498,-1010"/>
<text text-anchor="middle" x="454.38" y="-996.5" font-family="Helvetica,sans-Serif" font-size="10.00">Core::FMTyields</text>
</a>
</g>
</g>
<!-- Node8&#45;&gt;Node9 -->
<g id="edge8_Node000008_Node000009" class="edge">
<title>Node8&#45;&gt;Node9</title>
<g id="a_edge8_Node000008_Node000009"><a xlink:title=" ">
<path fill="none" stroke="#63b8ff" d="M324.27,-1000C354.24,-1000 386.01,-1000 410.53,-1000"/>
<polygon fill="#63b8ff" stroke="#63b8ff" points="324.33,-996.5 314.33,-1000 324.33,-1003.5 324.33,-996.5"/>
</a>
</g>
</g>
<!-- Node11 -->
<g id="Node000011" class="node">
<title>Node11</title>
<g id="a_Node000011"><a xlink:href="classGraph_1_1FMTlinegraph.html" target="_top" xlink:title=" ">
<polygon fill="white" stroke="#666666" points="507.75,-960 401,-960 401,-940 507.75,-940 507.75,-960"/>
<text text-anchor="middle" x="454.38" y="-946.5" font-family="Helvetica,sans-Serif" font-size="10.00">Graph::FMTlinegraph</text>
</a>
</g>
</g>
<!-- Node10&#45;&gt;Node11 -->
<g id="edge10_Node000010_Node000011" class="edge">
<title>Node10&#45;&gt;Node11</title>
<g id="a_edge10_Node000010_Node000011"><a xlink:title=" ">
<path fill="none" stroke="#63b8ff" d="M347.7,-950C366.23,-950 384.56,-950 400.61,-950"/>
<polygon fill="#63b8ff" stroke="#63b8ff" points="347.78,-946.5 337.78,-950 347.78,-953.5 347.78,-946.5"/>
</a>
</g>
</g>
<!-- Node14 -->
<g id="Node000014" class="node">
<title>Node14</title>
<g id="a_Node000014"><a xlink:href="classSpatial_1_1FMTforest.html" target="_top" xlink:title=" ">
<polygon fill="white" stroke="#666666" points="502.12,-848 406.62,-848 406.62,-828 502.12,-828 502.12,-848"/>
<text text-anchor="middle" x="454.38" y="-834.5" font-family="Helvetica,sans-Serif" font-size="10.00">Spatial::FMTforest</text>
</a>
</g>
</g>
<!-- Node13&#45;&gt;Node14 -->
<g id="edge13_Node000013_Node000014" class="edge">
<title>Node13&#45;&gt;Node14</title>
<g id="a_edge13_Node000013_Node000014"><a xlink:title=" ">
<path fill="none" stroke="#63b8ff" d="M305.22,-838C338.53,-838 376.86,-838 406.18,-838"/>
<polygon fill="#63b8ff" stroke="#63b8ff" points="305.6,-834.5 295.6,-838 305.6,-841.5 305.6,-834.5"/>
</a>
</g>
</g>
<!-- Node16 -->
<g id="Node000016" class="node">
<title>Node16</title>
<g id="a_Node000016"><a xlink:href="classSpatial_1_1FMTspatialschedule.html" target="_top" xlink:title=" ">
<polygon fill="white" stroke="#666666" points="523.88,-798 384.88,-798 384.88,-778 523.88,-778 523.88,-798"/>
<text text-anchor="middle" x="454.38" y="-784.5" font-family="Helvetica,sans-Serif" font-size="10.00">Spatial::FMTspatialschedule</text>
</a>
</g>
</g>
<!-- Node15&#45;&gt;Node16 -->
<g id="edge15_Node000015_Node000016" class="edge">
<title>Node15&#45;&gt;Node16</title>
<g id="a_edge15_Node000015_Node000016"><a xlink:title=" ">
<path fill="none" stroke="#63b8ff" d="M300.71,-788C327.42,-788 357.88,-788 384.53,-788"/>
<polygon fill="#63b8ff" stroke="#63b8ff" points="300.9,-784.5 290.9,-788 300.9,-791.5 300.9,-784.5"/>
</a>
</g>
</g>
<!-- Node19 -->
<g id="Node000019" class="node">
<title>Node19</title>
<g id="a_Node000019"><a xlink:href="classCore_1_1FMTactualdevelopment.html" target="_top" xlink:title=" ">
<polygon fill="white" stroke="#666666" points="525.38,-735 383.38,-735 383.38,-715 525.38,-715 525.38,-735"/>
<text text-anchor="middle" x="454.38" y="-721.5" font-family="Helvetica,sans-Serif" font-size="10.00">Core::FMTactualdevelopment</text>
</a>
</g>
</g>
<!-- Node18&#45;&gt;Node19 -->
<g id="edge18_Node000018_Node000019" class="edge">
<title>Node18&#45;&gt;Node19</title>
<g id="a_edge18_Node000018_Node000019"><a xlink:title=" ">
<path fill="none" stroke="#63b8ff" d="M299.22,-711.81C325.87,-714.09 356.43,-716.71 383.27,-719"/>
<polygon fill="#63b8ff" stroke="#63b8ff" points="299.71,-708.26 289.45,-710.89 299.12,-715.23 299.71,-708.26"/>
</a>
</g>
</g>
<!-- Node20 -->
<g id="Node000020" class="node">
<title>Node20</title>
<g id="a_Node000020"><a xlink:href="classCore_1_1FMTfuturdevelopment.html" target="_top" xlink:title=" ">
<polygon fill="white" stroke="#666666" points="521.62,-697 387.12,-697 387.12,-677 521.62,-677 521.62,-697"/>
<text text-anchor="middle" x="454.38" y="-683.5" font-family="Helvetica,sans-Serif" font-size="10.00">Core::FMTfuturdevelopment</text>
</a>
</g>
</g>
<!-- Node18&#45;&gt;Node20 -->
<g id="edge19_Node000018_Node000020" class="edge">
<title>Node18&#45;&gt;Node20</title>
<g id="a_edge19_Node000018_Node000020"><a xlink:title=" ">
<path fill="none" stroke="#63b8ff" d="M299.29,-700.18C327.13,-697.8 359.24,-695.05 386.91,-692.68"/>
<polygon fill="#63b8ff" stroke="#63b8ff" points="299.12,-696.77 289.45,-701.11 299.71,-703.74 299.12,-696.77"/>
</a>
</g>
</g>
<!-- Node24 -->
<g id="Node000024" class="node">
<title>Node24</title>
<g id="a_Node000024"><a xlink:href="classCore_1_1FMTconstraint.html" target="_top" xlink:title=" ">
<polygon fill="white" stroke="#666666" points="506.62,-602 402.12,-602 402.12,-582 506.62,-582 506.62,-602"/>
<text text-anchor="middle" x="454.38" y="-588.5" font-family="Helvetica,sans-Serif" font-size="10.00">Core::FMTconstraint</text>
</a>
</g>
</g>
<!-- Node23&#45;&gt;Node24 -->
<g id="edge23_Node000023_Node000024" class="edge">
<title>Node23&#45;&gt;Node24</title>
<g id="a_edge23_Node000023_Node000024"><a xlink:title=" ">
<path fill="none" stroke="#63b8ff" d="M285.49,-592C320.88,-592 366.8,-592 401.66,-592"/>
<polygon fill="#63b8ff" stroke="#63b8ff" points="285.87,-588.5 275.87,-592 285.87,-595.5 285.87,-588.5"/>
</a>
</g>
</g>
<!-- Node28 -->
<g id="Node000028" class="node">
<title>Node28</title>
<g id="a_Node000028"><a xlink:href="classCore_1_1FMTageyieldhandler.html" target="_top" xlink:title=" ">
<polygon fill="white" stroke="#666666" points="519,-564 389.75,-564 389.75,-544 519,-544 519,-564"/>
<text text-anchor="middle" x="454.38" y="-550.5" font-family="Helvetica,sans-Serif" font-size="10.00">Core::FMTageyieldhandler</text>
</a>
</g>
</g>
<!-- Node27&#45;&gt;Node28 -->
<g id="edge27_Node000027_Node000028" class="edge">
<title>Node27&#45;&gt;Node28</title>
<g id="a_edge27_Node000027_Node000028"><a xlink:title=" ">
<path fill="none" stroke="#63b8ff" d="M297.87,-483.46C311.19,-486.34 324.71,-490.63 336.5,-497 356.97,-508.06 352.33,-523.41 372.5,-535 378.5,-538.45 385.1,-541.27 391.85,-543.58"/>
<polygon fill="#63b8ff" stroke="#63b8ff" points="298.74,-479.87 288.26,-481.45 297.43,-486.75 298.74,-479.87"/>
</a>
</g>
</g>
<!-- Node29 -->
<g id="Node000029" class="node">
<title>Node29</title>
<g id="a_Node000029"><a xlink:href="classCore_1_1FMTcomplexyieldhandler.html" target="_top" xlink:title=" ">
<polygon fill="white" stroke="#666666" points="529.5,-526 379.25,-526 379.25,-506 529.5,-506 529.5,-526"/>
<text text-anchor="middle" x="454.38" y="-512.5" font-family="Helvetica,sans-Serif" font-size="10.00">Core::FMTcomplexyieldhandler</text>
</a>
</g>
</g>
<!-- Node27&#45;&gt;Node29 -->
<g id="edge28_Node000027_Node000029" class="edge">
<title>Node27&#45;&gt;Node29</title>
<g id="a_edge28_Node000027_Node000029"><a xlink:title=" ">
<path fill="none" stroke="#63b8ff" d="M298.07,-489.43C328,-494.55 363.05,-500.55 392.27,-505.55"/>
<polygon fill="#63b8ff" stroke="#63b8ff" points="298.75,-485.83 288.3,-487.59 297.57,-492.73 298.75,-485.83"/>
</a>
</g>
</g>
<!-- Node30 -->
<g id="Node000030" class="node">
<title>Node30</title>
<g id="a_Node000030"><a xlink:href="classCore_1_1FMTmodelyieldhandler.html" target="_top" xlink:title=" ">
<polygon fill="white" stroke="#666666" points="524.25,-488 384.5,-488 384.5,-468 524.25,-468 524.25,-488"/>
<text text-anchor="middle" x="454.38" y="-474.5" font-family="Helvetica,sans-Serif" font-size="10.00">Core::FMTmodelyieldhandler</text>
</a>
</g>
</g>
<!-- Node27&#45;&gt;Node30 -->
<g id="edge29_Node000027_Node000030" class="edge">
<title>Node27&#45;&gt;Node30</title>
<g id="a_edge29_Node000027_Node000030"><a xlink:title=" ">
<path fill="none" stroke="#63b8ff" d="M298.28,-478C325.45,-478 356.83,-478 384.23,-478"/>
<polygon fill="#63b8ff" stroke="#63b8ff" points="298.3,-474.5 288.3,-478 298.3,-481.5 298.3,-474.5"/>
</a>
</g>
</g>
<!-- Node31 -->
<g id="Node000031" class="node">
<title>Node31</title>
<g id="a_Node000031"><a xlink:href="classCore_1_1FMTtimeyieldhandler.html" target="_top" xlink:title=" ">
<polygon fill="white" stroke="#666666" points="520.5,-450 388.25,-450 388.25,-430 520.5,-430 520.5,-450"/>
<text text-anchor="middle" x="454.38" y="-436.5" font-family="Helvetica,sans-Serif" font-size="10.00">Core::FMTtimeyieldhandler</text>
</a>
</g>
</g>
<!-- Node27&#45;&gt;Node31 -->
<g id="edge30_Node000027_Node000031" class="edge">
<title>Node27&#45;&gt;Node31</title>
<g id="a_edge30_Node000027_Node000031"><a xlink:title=" ">
<path fill="none" stroke="#63b8ff" d="M298.07,-466.57C328,-461.45 363.05,-455.45 392.27,-450.45"/>
<polygon fill="#63b8ff" stroke="#63b8ff" points="297.57,-463.27 288.3,-468.41 298.75,-470.17 297.57,-463.27"/>
</a>
</g>
</g>
<!-- Node33 -->
<g id="Node000033" class="node">
<title>Node33</title>
<g id="a_Node000033"><a xlink:href="classCore_1_1FMTyieldmodelnep.html" target="_top" xlink:title=" ">
<polygon fill="white" stroke="#666666" points="516.38,-412 392.38,-412 392.38,-392 516.38,-392 516.38,-412"/>
<text text-anchor="middle" x="454.38" y="-398.5" font-family="Helvetica,sans-Serif" font-size="10.00">Core::FMTyieldmodelnep</text>
</a>
</g>
</g>
<!-- Node32&#45;&gt;Node33 -->
<g id="edge32_Node000032_Node000033" class="edge">
<title>Node32&#45;&gt;Node33</title>
<g id="a_edge32_Node000032_Node000033"><a xlink:title=" ">
<path fill="none" stroke="#63b8ff" d="M295.25,-429.05C325.73,-423.84 361.99,-417.63 392.11,-412.48"/>
<polygon fill="#63b8ff" stroke="#63b8ff" points="295,-425.71 285.74,-430.85 296.18,-432.61 295,-425.71"/>
</a>
</g>
</g>
<!-- Node34 -->
<g id="Node000034" class="node">
<title>Node34</title>
<g id="a_Node000034"><a xlink:href="classCore_1_1FMTyieldmodelpools.html" target="_top" xlink:title=" ">
<polygon fill="white" stroke="#666666" points="520.12,-374 388.62,-374 388.62,-354 520.12,-354 520.12,-374"/>
<text text-anchor="middle" x="454.38" y="-360.5" font-family="Helvetica,sans-Serif" font-size="10.00">Core::FMTyieldmodelpools</text>
</a>
</g>
</g>
<!-- Node32&#45;&gt;Node34 -->
<g id="edge33_Node000032_Node000034" class="edge">
<title>Node32&#45;&gt;Node34</title>
<g id="a_edge33_Node000032_Node000034"><a xlink:title=" ">
<path fill="none" stroke="#63b8ff" d="M295.49,-435.04C309.58,-432.17 324,-427.75 336.5,-421 356.97,-409.94 352.33,-394.59 372.5,-383 378.5,-379.55 385.1,-376.73 391.85,-374.42"/>
<polygon fill="#63b8ff" stroke="#63b8ff" points="295.05,-431.74 285.82,-436.94 296.28,-438.63 295.05,-431.74"/>
</a>
</g>
</g>
<!-- Node38 -->
<g id="Node000038" class="node">
<title>Node38</title>
<g id="a_Node000038"><a xlink:href="classHeuristics_1_1FMTlpheuristic.html" target="_top" xlink:title=" ">
<polygon fill="#fff0f0" stroke="red" points="519,-324 389.75,-324 389.75,-304 519,-304 519,-324"/>
<text text-anchor="middle" x="454.38" y="-310.5" font-family="Helvetica,sans-Serif" font-size="10.00">Heuristics::FMTlpheuristic</text>
</a>
</g>
</g>
<!-- Node37&#45;&gt;Node38 -->
<g id="edge37_Node000037_Node000038" class="edge">
<title>Node37&#45;&gt;Node38</title>
<g id="a_edge37_Node000037_Node000038"><a xlink:title=" ">
<path fill="none" stroke="#63b8ff" d="M294.02,-314C323.82,-314 359.37,-314 389.32,-314"/>
<polygon fill="#63b8ff" stroke="#63b8ff" points="294.33,-310.5 284.33,-314 294.33,-317.5 294.33,-310.5"/>
</a>
</g>
</g>
<!-- Node42 -->
<g id="Node000042" class="node">
<title>Node42</title>
<g id="a_Node000042"><a xlink:href="classModels_1_1FMTsemodel.html" target="_top" xlink:title=" ">
<polygon fill="#fff0f0" stroke="red" points="509.25,-286 399.5,-286 399.5,-266 509.25,-266 509.25,-286"/>
<text text-anchor="middle" x="454.38" y="-272.5" font-family="Helvetica,sans-Serif" font-size="10.00">Models::FMTsemodel</text>
</a>
</g>
</g>
<!-- Node41&#45;&gt;Node42 -->
<g id="edge39_Node000041_Node000042" class="edge">
<title>Node41&#45;&gt;Node42</title>
<g id="a_edge39_Node000041_Node000042"><a xlink:title=" ">
<path fill="none" stroke="#63b8ff" d="M290.89,-276C324.54,-276 366.28,-276 399.03,-276"/>
<polygon fill="#63b8ff" stroke="#63b8ff" points="291.27,-272.5 281.27,-276 291.27,-279.5 291.27,-272.5"/>
</a>
</g>
</g>
<!-- Node45 -->
<g id="Node000045" class="node">
<title>Node45</title>
<g id="a_Node000045"><a xlink:href="classModels_1_1FMTsrmodel.html" target="_top" xlink:title=" ">
<polygon fill="#fff0f0" stroke="red" points="508.12,-248 400.62,-248 400.62,-228 508.12,-228 508.12,-248"/>
<text text-anchor="middle" x="454.38" y="-234.5" font-family="Helvetica,sans-Serif" font-size="10.00">Models::FMTsrmodel</text>
</a>
</g>
</g>
<!-- Node41&#45;&gt;Node45 -->
<g id="edge40_Node000041_Node000045" class="edge">
<title>Node41&#45;&gt;Node45</title>
<g id="a_edge40_Node000041_Node000045"><a xlink:title=" ">
<path fill="none" stroke="#63b8ff" d="M291.01,-265.78C325.05,-259.95 367.33,-252.72 400.21,-247.1"/>
<polygon fill="#63b8ff" stroke="#63b8ff" points="290.54,-262.48 281.27,-267.61 291.72,-269.38 290.54,-262.48"/>
</a>
</g>
</g>
<!-- Node50 -->
<g id="Node000050" class="node">
<title>Node50</title>
<g id="a_Node000050"><a xlink:href="classParallel_1_1FMTopareaschedulertask.html" target="_top" xlink:title=" ">
<polygon fill="white" stroke="#666666" points="536.25,-210 372.5,-210 372.5,-190 536.25,-190 536.25,-210"/>
<text text-anchor="middle" x="454.38" y="-196.5" font-family="Helvetica,sans-Serif" font-size="10.00">Parallel::FMTopareaschedulertask</text>
</a>
</g>
</g>
<!-- Node49&#45;&gt;Node50 -->
<g id="edge43_Node000049_Node000050" class="edge">
<title>Node49&#45;&gt;Node50</title>
<g id="a_edge43_Node000049_Node000050"><a xlink:title=" ">
<path fill="none" stroke="#63b8ff" d="M287.73,-200C313.3,-200 344.02,-200 372.01,-200"/>
<polygon fill="#63b8ff" stroke="#63b8ff" points="287.74,-196.5 277.74,-200 287.74,-203.5 287.74,-196.5"/>
</a>
</g>
</g>
</g>
</svg>

<g id="navigator" transform="translate(0 0)" fill="#404254">
  <rect fill="#f2f5e9" fill-opacity="0.5" stroke="#606060" stroke-width=".5" x="0" y="0" width="60" height="60"/>
  <use id="zoomplus" xlink:href="#zoomPlus" x="17" y="9" onmousedown="handleZoom(evt,'in')"/>
  <use id="zoomminus" xlink:href="#zoomMin" x="42" y="9" onmousedown="handleZoom(evt,'out')"/>
  <use id="reset" xlink:href="#resetDef" x="30" y="36" onmousedown="handleReset()"/>
   <use id="arrowup" xlink:href="#arrowUp" x="0" y="0" onmousedown="handlePan(0,-1)"/>
  <use id="arrowright" xlink:href="#arrowRight" x="0" y="0" onmousedown="handlePan(1,0)"/>
  <use id="arrowdown" xlink:href="#arrowDown" x="0" y="0" onmousedown="handlePan(0,1)"/>
  <use id="arrowleft" xlink:href="#arrowLeft" x="0" y="0" onmousedown="handlePan(-1,0)"/>
</g>
<svg viewBox="0 0 15 15" width="100%" height="30px" preserveAspectRatio="xMaxYMin meet">
 <g id="arrow_out" transform="scale(0.3 0.3)">
  <a xlink:href="classCore_1_1FMTobject__inherit__graph_org.svg" target="_base">
   <rect id="button" ry="5" rx="5" y="6" x="6" height="38" width="38"
        fill="#f2f5e9" fill-opacity="0.5" stroke="#606060" stroke-width="1.0"/>
   <path id="arrow"
     d="M 11.500037,31.436501 C 11.940474,20.09759 22.043105,11.32322 32.158766,21.979434 L 37.068811,17.246167 C 37.068811,17.246167 37.088388,32 37.088388,32 L 22.160133,31.978069 C 22.160133,31.978069 26.997745,27.140456 26.997745,27.140456 C 18.528582,18.264221 13.291696,25.230495 11.500037,31.436501 z"
     style="fill:#404040;"/>
  </a>
 </g>
</svg>

<style type='text/css'>
<![CDATA[
[data-mouse-over-selected='false'] { opacity: 0.7; }
[data-mouse-over-selected='true']  { opacity: 1.0; }
]]>
</style>
<script type="application/ecmascript"><![CDATA[
document.addEventListener('DOMContentLoaded', (event) => {
  highlightEdges();
  highlightAdjacentNodes();
});
]]></script>
</svg>
