<?xml version="1.0" encoding="UTF-8" standalone="no"?>
<!DOCTYPE svg PUBLIC "-//W3C//DTD SVG 1.1//EN"
 "http://www.w3.org/Graphics/SVG/1.1/DTD/svg11.dtd">
<!-- Generated by graphviz version 8.1.0 (20230707.0739)
 -->
<!-- Title: Models::FMTlpmodel Pages: 1 -->
<svg width="116pt" height="196pt"
 viewBox="0.00 0.00 115.50 196.00" xmlns="http://www.w3.org/2000/svg" xmlns:xlink="http://www.w3.org/1999/xlink">
<g id="graph0" class="graph" transform="scale(1 1) rotate(0) translate(4 192)">
<title>Models::FMTlpmodel</title>
<!-- Node1 -->
<g id="Node000001" class="node">
<title>Node1</title>
<g id="a_Node000001"><a xlink:title=" ">
<polygon fill="#999999" stroke="#666666" points="107.12,-20 0.38,-20 0.38,0 107.12,0 107.12,-20"/>
<text text-anchor="middle" x="53.75" y="-6.5" font-family="Helvetica,sans-Serif" font-size="10.00">Models::FMTlpmodel</text>
</a>
</g>
</g>
<!-- Node2 -->
<g id="Node000002" class="node">
<title>Node2</title>
<g id="a_Node000002"><a xlink:href="classModels_1_1FMTsrmodel.html" target="_top" xlink:title=" ">
<polygon fill="white" stroke="#666666" points="107.5,-76 0,-76 0,-56 107.5,-56 107.5,-76"/>
<text text-anchor="middle" x="53.75" y="-62.5" font-family="Helvetica,sans-Serif" font-size="10.00">Models::FMTsrmodel</text>
</a>
</g>
</g>
<!-- Node2&#45;&gt;Node1 -->
<g id="edge1_Node000001_Node000002" class="edge">
<title>Node2&#45;&gt;Node1</title>
<g id="a_edge1_Node000001_Node000002"><a xlink:title=" ">
<path fill="none" stroke="#63b8ff" d="M53.75,-44.71C53.75,-36.32 53.75,-27.01 53.75,-20.3"/>
<polygon fill="#63b8ff" stroke="#63b8ff" points="50.25,-44.59 53.75,-54.59 57.25,-44.59 50.25,-44.59"/>
</a>
</g>
</g>
<!-- Node3 -->
<g id="Node000003" class="node">
<title>Node3</title>
<g id="a_Node000003"><a xlink:href="classModels_1_1FMTmodel.html" target="_top" xlink:title=" ">
<polygon fill="white" stroke="#666666" points="103.38,-132 4.12,-132 4.12,-112 103.38,-112 103.38,-132"/>
<text text-anchor="middle" x="53.75" y="-118.5" font-family="Helvetica,sans-Serif" font-size="10.00">Models::FMTmodel</text>
</a>
</g>
</g>
<!-- Node3&#45;&gt;Node2 -->
<g id="edge2_Node000002_Node000003" class="edge">
<title>Node3&#45;&gt;Node2</title>
<g id="a_edge2_Node000002_Node000003"><a xlink:title=" ">
<path fill="none" stroke="#63b8ff" d="M53.75,-100.71C53.75,-92.32 53.75,-83.01 53.75,-76.3"/>
<polygon fill="#63b8ff" stroke="#63b8ff" points="50.25,-100.59 53.75,-110.59 57.25,-100.59 50.25,-100.59"/>
</a>
</g>
</g>
<!-- Node4 -->
<g id="Node000004" class="node">
<title>Node4</title>
<g id="a_Node000004"><a xlink:href="classCore_1_1FMTobject.html" target="_top" xlink:title=" ">
<polygon fill="white" stroke="#666666" points="97.75,-188 9.75,-188 9.75,-168 97.75,-168 97.75,-188"/>
<text text-anchor="middle" x="53.75" y="-174.5" font-family="Helvetica,sans-Serif" font-size="10.00">Core::FMTobject</text>
</a>
</g>
</g>
<!-- Node4&#45;&gt;Node3 -->
<g id="edge3_Node000003_Node000004" class="edge">
<title>Node4&#45;&gt;Node3</title>
<g id="a_edge3_Node000003_Node000004"><a xlink:title=" ">
<path fill="none" stroke="#63b8ff" d="M53.75,-156.71C53.75,-148.32 53.75,-139.01 53.75,-132.3"/>
<polygon fill="#63b8ff" stroke="#63b8ff" points="50.25,-156.59 53.75,-166.59 57.25,-156.59 50.25,-156.59"/>
</a>
</g>
</g>
</g>
</svg>
