<?xml version="1.0" encoding="UTF-8" standalone="no"?>
<!DOCTYPE svg PUBLIC "-//W3C//DTD SVG 1.1//EN"
 "http://www.w3.org/Graphics/SVG/1.1/DTD/svg11.dtd">
<!-- Generated by graphviz version 10.0.1 (20240210.2158)
 -->
<!-- Title: Spatial::FMTsaschedule Pages: 1 -->
<svg width="133pt" height="165pt"
 viewBox="0.00 0.00 133.00 165.00" xmlns="http://www.w3.org/2000/svg" xmlns:xlink="http://www.w3.org/1999/xlink">
<g id="graph0" class="graph" transform="scale(1 1) rotate(0) translate(4 161)">
<title>Spatial::FMTsaschedule</title>
<!-- Node1 -->
<g id="node1" class="node">
<title>Node1</title>
<g id="a_node1"><a xlink:title=" ">
<polygon fill="#999999" stroke="#666666" points="121,-20 0,-20 0,0 121,0 121,-20"/>
<text text-anchor="middle" x="60.5" y="-6.5" font-family="Helvetica,sans-Serif" font-size="10.00">Spatial::FMTsaschedule</text>
</a>
</g>
</g>
<!-- Node2 -->
<g id="node2" class="node">
<title>Node2</title>
<g id="a_node2"><a xlink:title=" ">
<polygon fill="white" stroke="#666666" points="90.25,-88 30.75,-88 30.75,-68 90.25,-68 90.25,-88"/>
<text text-anchor="middle" x="60.5" y="-74.5" font-family="Helvetica,sans-Serif" font-size="10.00">std::string</text>
</a>
</g>
</g>
<!-- Node2&#45;&gt;Node1 -->
<g id="edge1" class="edge">
<title>Node2&#45;&gt;Node1</title>
<path fill="none" stroke="#9a32cd" stroke-dasharray="5,2" d="M60.5,-56.28C60.5,-44.27 60.5,-29.74 60.5,-20.44"/>
<polygon fill="#9a32cd" stroke="#9a32cd" points="57,-56.03 60.5,-66.03 64,-56.03 57,-56.03"/>
<text text-anchor="middle" x="92.75" y="-40.5" font-family="Helvetica,sans-Serif" font-size="10.00"> ScheduleType</text>
</g>
<!-- Node3 -->
<g id="node3" class="node">
<title>Node3</title>
<g id="a_node3"><a xlink:title=" ">
<polygon fill="white" stroke="#666666" points="107.5,-157 13.5,-157 13.5,-125 107.5,-125 107.5,-157"/>
<text text-anchor="start" x="21.5" y="-143.5" font-family="Helvetica,sans-Serif" font-size="10.00">std::basic_string&lt;</text>
<text text-anchor="middle" x="60.5" y="-131.5" font-family="Helvetica,sans-Serif" font-size="10.00"> Char &gt;</text>
</a>
</g>
</g>
<!-- Node3&#45;&gt;Node2 -->
<g id="edge2" class="edge">
<title>Node3&#45;&gt;Node2</title>
<path fill="none" stroke="#63b8ff" d="M60.5,-113.36C60.5,-104.41 60.5,-95.01 60.5,-88.31"/>
<polygon fill="#63b8ff" stroke="#63b8ff" points="57,-113.09 60.5,-123.09 64,-113.09 57,-113.09"/>
</g>
</g>
</svg>
