<?xml version="1.0" encoding="UTF-8" standalone="no"?>
<!DOCTYPE svg PUBLIC "-//W3C//DTD SVG 1.1//EN"
 "http://www.w3.org/Graphics/SVG/1.1/DTD/svg11.dtd">
<!-- Generated by graphviz version 10.0.1 (20240210.2158)
 -->
<!-- Title: Exception::FMTOutputMissingOperator Pages: 1 -->
<svg width="156pt" height="208pt"
 viewBox="0.00 0.00 156.00 208.00" xmlns="http://www.w3.org/2000/svg" xmlns:xlink="http://www.w3.org/1999/xlink">
<g id="graph0" class="graph" transform="scale(1 1) rotate(0) translate(4 204)">
<title>Exception::FMTOutputMissingOperator</title>
<!-- Node1 -->
<g id="node1" class="node">
<title>Node1</title>
<g id="a_node1"><a xlink:title=" ">
<polygon fill="#999999" stroke="#666666" points="148,-32 0,-32 0,0 148,0 148,-32"/>
<text text-anchor="start" x="8" y="-18.5" font-family="Helvetica,sans-Serif" font-size="10.00">Exception::FMTOutputMissing</text>
<text text-anchor="middle" x="74" y="-6.5" font-family="Helvetica,sans-Serif" font-size="10.00">Operator</text>
</a>
</g>
</g>
<!-- Node2 -->
<g id="node2" class="node">
<title>Node2</title>
<g id="a_node2"><a xlink:href="classException_1_1FMTError.html" target="_top" xlink:title="Exception class derived from FMTException for errors thrown in FMT.">
<polygon fill="white" stroke="#666666" points="127,-88 21,-88 21,-68 127,-68 127,-88"/>
<text text-anchor="middle" x="74" y="-74.5" font-family="Helvetica,sans-Serif" font-size="10.00">Exception::FMTError</text>
</a>
</g>
</g>
<!-- Node2&#45;&gt;Node1 -->
<g id="edge1" class="edge">
<title>Node2&#45;&gt;Node1</title>
<path fill="none" stroke="#63b8ff" d="M74,-56.31C74,-48.37 74,-39.46 74,-32.14"/>
<polygon fill="#63b8ff" stroke="#63b8ff" points="70.5,-56.11 74,-66.11 77.5,-56.11 70.5,-56.11"/>
</g>
<!-- Node3 -->
<g id="node3" class="node">
<title>Node3</title>
<g id="a_node3"><a xlink:href="classException_1_1FMTException.html" target="_top" xlink:title="Base exception class for FMT holding the type, section and message of a given exception.">
<polygon fill="white" stroke="#666666" points="138.25,-144 9.75,-144 9.75,-124 138.25,-124 138.25,-144"/>
<text text-anchor="middle" x="74" y="-130.5" font-family="Helvetica,sans-Serif" font-size="10.00">Exception::FMTException</text>
</a>
</g>
</g>
<!-- Node3&#45;&gt;Node2 -->
<g id="edge2" class="edge">
<title>Node3&#45;&gt;Node2</title>
<path fill="none" stroke="#63b8ff" d="M74,-112.13C74,-103.9 74,-94.85 74,-88.3"/>
<polygon fill="#63b8ff" stroke="#63b8ff" points="70.5,-112.08 74,-122.08 77.5,-112.08 70.5,-112.08"/>
</g>
<!-- Node4 -->
<g id="node4" class="node">
<title>Node4</title>
<g id="a_node4"><a xlink:title=" ">
<polygon fill="white" stroke="#666666" points="112.75,-200 35.25,-200 35.25,-180 112.75,-180 112.75,-200"/>
<text text-anchor="middle" x="74" y="-186.5" font-family="Helvetica,sans-Serif" font-size="10.00">std::exception</text>
</a>
</g>
</g>
<!-- Node4&#45;&gt;Node3 -->
<g id="edge3" class="edge">
<title>Node4&#45;&gt;Node3</title>
<path fill="none" stroke="#63b8ff" d="M74,-168.13C74,-159.9 74,-150.85 74,-144.3"/>
<polygon fill="#63b8ff" stroke="#63b8ff" points="70.5,-168.08 74,-178.08 77.5,-168.08 70.5,-168.08"/>
</g>
</g>
</svg>
