<?xml version="1.0" encoding="UTF-8" standalone="no"?>
<!DOCTYPE svg PUBLIC "-//W3C//DTD SVG 1.1//EN"
 "http://www.w3.org/Graphics/SVG/1.1/DTD/svg11.dtd">
<!-- Generated by graphviz version 10.0.1 (20240210.2158)
 -->
<!-- Title: Parallel::FMTtask Pages: 1 -->
<svg width="424pt" height="104pt"
 viewBox="0.00 0.00 424.25 104.00" xmlns="http://www.w3.org/2000/svg" xmlns:xlink="http://www.w3.org/1999/xlink">
<g id="graph0" class="graph" transform="scale(1 1) rotate(0) translate(4 100)">
<title>Parallel::FMTtask</title>
<!-- Node1 -->
<g id="node1" class="node">
<title>Node1</title>
<g id="a_node1"><a xlink:title=" ">
<polygon fill="#999999" stroke="#666666" points="216.5,-58 124,-58 124,-38 216.5,-38 216.5,-58"/>
<text text-anchor="middle" x="170.25" y="-44.5" font-family="Helvetica,sans-Serif" font-size="10.00">Parallel::FMTtask</text>
</a>
</g>
</g>
<!-- Node3 -->
<g id="node3" class="node">
<title>Node3</title>
<g id="a_node3"><a xlink:href="classParallel_1_1FMTopareaschedulertask.html" target="_top" xlink:title=" ">
<polygon fill="white" stroke="#666666" points="416.25,-96 252.5,-96 252.5,-76 416.25,-76 416.25,-96"/>
<text text-anchor="middle" x="334.38" y="-82.5" font-family="Helvetica,sans-Serif" font-size="10.00">Parallel::FMTopareaschedulertask</text>
</a>
</g>
</g>
<!-- Node1&#45;&gt;Node3 -->
<g id="edge2" class="edge">
<title>Node1&#45;&gt;Node3</title>
<path fill="none" stroke="#63b8ff" d="M226.93,-61.05C247.13,-65.78 269.67,-71.07 288.79,-75.55"/>
<polygon fill="#63b8ff" stroke="#63b8ff" points="227.99,-57.7 217.45,-58.83 226.39,-64.52 227.99,-57.7"/>
</g>
<!-- Node4 -->
<g id="node4" class="node">
<title>Node4</title>
<g id="a_node4"><a xlink:href="classParallel_1_1FMTplanningtask.html" target="_top" xlink:title=" ">
<polygon fill="white" stroke="#666666" points="398.62,-58 270.12,-58 270.12,-38 398.62,-38 398.62,-58"/>
<text text-anchor="middle" x="334.38" y="-44.5" font-family="Helvetica,sans-Serif" font-size="10.00">Parallel::FMTplanningtask</text>
</a>
</g>
</g>
<!-- Node1&#45;&gt;Node4 -->
<g id="edge3" class="edge">
<title>Node1&#45;&gt;Node4</title>
<path fill="none" stroke="#63b8ff" d="M228.31,-48C241.69,-48 256.03,-48 269.68,-48"/>
<polygon fill="#63b8ff" stroke="#63b8ff" points="228.36,-44.5 218.36,-48 228.36,-51.5 228.36,-44.5"/>
</g>
<!-- Node5 -->
<g id="node5" class="node">
<title>Node5</title>
<g id="a_node5"><a xlink:href="classParallel_1_1FMTreplanningtask.html" target="_top" xlink:title=" ">
<polygon fill="white" stroke="#666666" points="402.75,-20 266,-20 266,0 402.75,0 402.75,-20"/>
<text text-anchor="middle" x="334.38" y="-6.5" font-family="Helvetica,sans-Serif" font-size="10.00">Parallel::FMTreplanningtask</text>
</a>
</g>
</g>
<!-- Node1&#45;&gt;Node5 -->
<g id="edge4" class="edge">
<title>Node1&#45;&gt;Node5</title>
<path fill="none" stroke="#63b8ff" d="M226.93,-34.95C247.13,-30.22 269.67,-24.93 288.79,-20.45"/>
<polygon fill="#63b8ff" stroke="#63b8ff" points="226.39,-31.48 217.45,-37.17 227.99,-38.3 226.39,-31.48"/>
</g>
<!-- Node2 -->
<g id="node2" class="node">
<title>Node2</title>
<g id="a_node2"><a xlink:href="classCore_1_1FMTobject.html" target="_top" xlink:title=" ">
<polygon fill="white" stroke="#666666" points="88,-58 0,-58 0,-38 88,-38 88,-58"/>
<text text-anchor="middle" x="44" y="-44.5" font-family="Helvetica,sans-Serif" font-size="10.00">Core::FMTobject</text>
</a>
</g>
</g>
<!-- Node2&#45;&gt;Node1 -->
<g id="edge1" class="edge">
<title>Node2&#45;&gt;Node1</title>
<path fill="none" stroke="#63b8ff" d="M99.72,-48C107.8,-48 116.05,-48 123.92,-48"/>
<polygon fill="#63b8ff" stroke="#63b8ff" points="99.97,-44.5 89.97,-48 99.97,-51.5 99.97,-44.5"/>
</g>
</g>
</svg>
