<?xml version="1.0" encoding="UTF-8" standalone="no"?>
<!DOCTYPE svg PUBLIC "-//W3C//DTD SVG 1.1//EN"
 "http://www.w3.org/Graphics/SVG/1.1/DTD/svg11.dtd">
<!-- Generated by graphviz version 8.1.0 (20230707.0739)
 -->
<!-- Title: C:/Users/CYRGU3/OneDrive &#45; BuroVirtuel/Bureau/FMT/FMT/Include/FMTageyieldhandler.hpp Pages: 1 -->
<svg width="2631pt" height="288pt"
 viewBox="0.00 0.00 2631.26 288.00" xmlns="http://www.w3.org/2000/svg" xmlns:xlink="http://www.w3.org/1999/xlink">
<g id="graph0" class="graph" transform="scale(1 1) rotate(0) translate(4 284)">
<title>C:/Users/CYRGU3/OneDrive &#45; BuroVirtuel/Bureau/FMT/FMT/Include/FMTageyieldhandler.hpp</title>
<!-- Node1 -->
<g id="Node000001" class="node">
<title>Node1</title>
<g id="a_Node000001"><a xlink:title=" ">
<polygon fill="#999999" stroke="#666666" points="1077.72,-280 896.72,-280 896.72,-236 1077.72,-236 1077.72,-280"/>
<text text-anchor="start" x="904.72" y="-266.5" font-family="Helvetica,sans-Serif" font-size="10.00">C:/Users/CYRGU3/OneDrive</text>
<text text-anchor="start" x="904.72" y="-254.5" font-family="Helvetica,sans-Serif" font-size="10.00"> &#45; BuroVirtuel/Bureau/FMT</text>
<text text-anchor="middle" x="987.22" y="-242.5" font-family="Helvetica,sans-Serif" font-size="10.00">/FMT/Include/FMTageyieldhandler.hpp</text>
</a>
</g>
</g>
<!-- Node2 -->
<g id="Node000002" class="node">
<title>Node2</title>
<g id="a_Node000002"><a xlink:href="FMTyieldhandler_8hpp.html" target="_top" xlink:title=" ">
<polygon fill="white" stroke="#666666" points="1040.22,-200 934.22,-200 934.22,-180 1040.22,-180 1040.22,-200"/>
<text text-anchor="middle" x="987.22" y="-186.5" font-family="Helvetica,sans-Serif" font-size="10.00">FMTyieldhandler.hpp</text>
</a>
</g>
</g>
<!-- Node1&#45;&gt;Node2 -->
<g id="edge1_Node000001_Node000002" class="edge">
<title>Node1&#45;&gt;Node2</title>
<g id="a_edge1_Node000001_Node000002"><a xlink:title=" ">
<path fill="none" stroke="#63b8ff" d="M987.22,-235.75C987.22,-227.94 987.22,-219.11 987.22,-211.38"/>
<polygon fill="#63b8ff" stroke="#63b8ff" points="990.72,-211.42 987.22,-201.42 983.72,-211.42 990.72,-211.42"/>
</a>
</g>
</g>
<!-- Node3 -->
<g id="Node000003" class="node">
<title>Node3</title>
<g id="a_Node000003"><a xlink:title=" ">
<polygon fill="#e0e0e0" stroke="#999999" points="2163.22,-20 2123.22,-20 2123.22,0 2163.22,0 2163.22,-20"/>
<text text-anchor="middle" x="2143.22" y="-6.5" font-family="Helvetica,sans-Serif" font-size="10.00">string</text>
</a>
</g>
</g>
<!-- Node1&#45;&gt;Node3 -->
<g id="edge50_Node000001_Node000003" class="edge">
<title>Node1&#45;&gt;Node3</title>
<g id="a_edge50_Node000001_Node000003"><a xlink:title=" ">
<path fill="none" stroke="#63b8ff" d="M1077.94,-254.78C1406.02,-245.78 2516.69,-206.72 2616.22,-88 2625.35,-77.1 2625.79,-66.52 2616.22,-56 2601.3,-39.6 2277.92,-19.01 2174.63,-12.83"/>
<polygon fill="#63b8ff" stroke="#63b8ff" points="2174.89,-9.28 2164.7,-12.18 2174.47,-16.27 2174.89,-9.28"/>
</a>
</g>
</g>
<!-- Node8 -->
<g id="Node000008" class="node">
<title>Node8</title>
<g id="a_Node000008"><a xlink:title=" ">
<polygon fill="#e0e0e0" stroke="#999999" points="728.59,-88 633.84,-88 633.84,-56 728.59,-56 728.59,-88"/>
<text text-anchor="start" x="641.84" y="-74.5" font-family="Helvetica,sans-Serif" font-size="10.00">boost/serialization</text>
<text text-anchor="middle" x="681.22" y="-62.5" font-family="Helvetica,sans-Serif" font-size="10.00">/serialization.hpp</text>
</a>
</g>
</g>
<!-- Node1&#45;&gt;Node8 -->
<g id="edge51_Node000001_Node000008" class="edge">
<title>Node1&#45;&gt;Node8</title>
<g id="a_edge51_Node000001_Node000008"><a xlink:title=" ">
<path fill="none" stroke="#63b8ff" d="M917.38,-235.59C864.35,-217.04 791.52,-186.47 737.22,-144 720.78,-131.15 706.32,-112.51 696.21,-97.55"/>
<polygon fill="#63b8ff" stroke="#63b8ff" points="698.61,-95.82 690.22,-89.35 692.75,-99.64 698.61,-95.82"/>
</a>
</g>
</g>
<!-- Node9 -->
<g id="Node000009" class="node">
<title>Node9</title>
<g id="a_Node000009"><a xlink:title=" ">
<polygon fill="#e0e0e0" stroke="#999999" points="1155.59,-88 1060.84,-88 1060.84,-56 1155.59,-56 1155.59,-88"/>
<text text-anchor="start" x="1068.84" y="-74.5" font-family="Helvetica,sans-Serif" font-size="10.00">boost/serialization</text>
<text text-anchor="middle" x="1108.22" y="-62.5" font-family="Helvetica,sans-Serif" font-size="10.00">/nvp.hpp</text>
</a>
</g>
</g>
<!-- Node1&#45;&gt;Node9 -->
<g id="edge52_Node000001_Node000009" class="edge">
<title>Node1&#45;&gt;Node9</title>
<g id="a_edge52_Node000001_Node000009"><a xlink:title=" ">
<path fill="none" stroke="#63b8ff" d="M1022.94,-235.69C1052.07,-216.03 1091.09,-183.88 1108.22,-144 1114.22,-130.02 1114.44,-113.01 1113.05,-99.15"/>
<polygon fill="#63b8ff" stroke="#63b8ff" points="1116.4,-98.82 1111.6,-89.38 1109.46,-99.76 1116.4,-98.82"/>
</a>
</g>
</g>
<!-- Node31 -->
<g id="Node000031" class="node">
<title>Node31</title>
<g id="a_Node000031"><a xlink:href="FMTdata_8hpp.html" target="_top" xlink:title=" ">
<polygon fill="white" stroke="#666666" points="605.72,-144 532.72,-144 532.72,-124 605.72,-124 605.72,-144"/>
<text text-anchor="middle" x="569.22" y="-130.5" font-family="Helvetica,sans-Serif" font-size="10.00">FMTdata.hpp</text>
</a>
</g>
</g>
<!-- Node1&#45;&gt;Node31 -->
<g id="edge53_Node000001_Node000031" class="edge">
<title>Node1&#45;&gt;Node31</title>
<g id="a_edge53_Node000001_Node000031"><a xlink:title=" ">
<path fill="none" stroke="#63b8ff" d="M896.27,-255.7C824.2,-251.5 722.61,-238.4 642.22,-200 618.66,-188.75 597.06,-167.55 583.57,-152.42"/>
<polygon fill="#63b8ff" stroke="#63b8ff" points="585.78,-150.63 576.61,-145.34 580.48,-155.2 585.78,-150.63"/>
</a>
</g>
</g>
<!-- Node2&#45;&gt;Node3 -->
<g id="edge2_Node000002_Node000003" class="edge">
<title>Node2&#45;&gt;Node3</title>
<g id="a_edge2_Node000002_Node000003"><a xlink:title=" ">
<path fill="none" stroke="#63b8ff" d="M1040.29,-187.75C1313.01,-181.07 2546.23,-147.65 2599.22,-88 2608.66,-77.37 2608.77,-66.54 2599.22,-56 2570.73,-24.56 2273.07,-14.27 2174.63,-11.71"/>
<polygon fill="#63b8ff" stroke="#63b8ff" points="2174.73,-8.19 2164.64,-11.44 2174.55,-15.19 2174.73,-8.19"/>
</a>
</g>
</g>
<!-- Node4 -->
<g id="Node000004" class="node">
<title>Node4</title>
<g id="a_Node000004"><a xlink:title=" ">
<polygon fill="#e0e0e0" stroke="#999999" points="615.59,-82 580.84,-82 580.84,-62 615.59,-62 615.59,-82"/>
<text text-anchor="middle" x="598.22" y="-68.5" font-family="Helvetica,sans-Serif" font-size="10.00">map</text>
</a>
</g>
</g>
<!-- Node2&#45;&gt;Node4 -->
<g id="edge3_Node000002_Node000004" class="edge">
<title>Node2&#45;&gt;Node4</title>
<g id="a_edge3_Node000002_Node000004"><a xlink:title=" ">
<path fill="none" stroke="#63b8ff" d="M933.94,-183.87C882.57,-177.89 803.13,-165.91 737.22,-144 694.62,-129.84 648.95,-104.28 622.02,-88"/>
<polygon fill="#63b8ff" stroke="#63b8ff" points="624.34,-84.7 613.98,-82.46 620.68,-90.67 624.34,-84.7"/>
</a>
</g>
</g>
<!-- Node5 -->
<g id="Node000005" class="node">
<title>Node5</title>
<g id="a_Node000005"><a xlink:title=" ">
<polygon fill="#e0e0e0" stroke="#999999" points="880.59,-144 797.84,-144 797.84,-124 880.59,-124 880.59,-144"/>
<text text-anchor="middle" x="839.22" y="-130.5" font-family="Helvetica,sans-Serif" font-size="10.00">unordered_map</text>
</a>
</g>
</g>
<!-- Node2&#45;&gt;Node5 -->
<g id="edge4_Node000002_Node000005" class="edge">
<title>Node2&#45;&gt;Node5</title>
<g id="a_edge4_Node000002_Node000005"><a xlink:title=" ">
<path fill="none" stroke="#63b8ff" d="M961.44,-179.59C937.6,-170.9 901.95,-157.89 875.29,-148.16"/>
<polygon fill="#63b8ff" stroke="#63b8ff" points="876.79,-144.62 866.2,-144.48 874.39,-151.2 876.79,-144.62"/>
</a>
</g>
</g>
<!-- Node6 -->
<g id="Node000006" class="node">
<title>Node6</title>
<g id="a_Node000006"><a xlink:title=" ">
<polygon fill="#e0e0e0" stroke="#999999" points="975.97,-144 898.47,-144 898.47,-124 975.97,-124 975.97,-144"/>
<text text-anchor="middle" x="937.22" y="-130.5" font-family="Helvetica,sans-Serif" font-size="10.00">unordered_set</text>
</a>
</g>
</g>
<!-- Node2&#45;&gt;Node6 -->
<g id="edge5_Node000002_Node000006" class="edge">
<title>Node2&#45;&gt;Node6</title>
<g id="a_edge5_Node000002_Node000006"><a xlink:title=" ">
<path fill="none" stroke="#63b8ff" d="M978.51,-179.59C971.55,-172.08 961.62,-161.35 953.24,-152.3"/>
<polygon fill="#63b8ff" stroke="#63b8ff" points="956.19,-150.26 946.83,-145.3 951.05,-155.01 956.19,-150.26"/>
</a>
</g>
</g>
<!-- Node7 -->
<g id="Node000007" class="node">
<title>Node7</title>
<g id="a_Node000007"><a xlink:title=" ">
<polygon fill="#e0e0e0" stroke="#999999" points="802.09,-82 746.34,-82 746.34,-62 802.09,-62 802.09,-82"/>
<text text-anchor="middle" x="774.22" y="-68.5" font-family="Helvetica,sans-Serif" font-size="10.00">algorithm</text>
</a>
</g>
</g>
<!-- Node2&#45;&gt;Node7 -->
<g id="edge6_Node000002_Node000007" class="edge">
<title>Node2&#45;&gt;Node7</title>
<g id="a_edge6_Node000002_Node000007"><a xlink:title=" ">
<path fill="none" stroke="#63b8ff" d="M933.88,-183.36C882.31,-176.8 809.13,-164.22 789.22,-144 776.11,-130.7 773.16,-109 772.99,-93.08"/>
<polygon fill="#63b8ff" stroke="#63b8ff" points="776.51,-93.37 773.28,-83.28 769.51,-93.18 776.51,-93.37"/>
</a>
</g>
</g>
<!-- Node2&#45;&gt;Node8 -->
<g id="edge7_Node000002_Node000008" class="edge">
<title>Node2&#45;&gt;Node8</title>
<g id="a_edge7_Node000002_Node000008"><a xlink:title=" ">
<path fill="none" stroke="#63b8ff" d="M933.96,-184.35C889.59,-178.95 825.57,-167.56 774.22,-144 748.04,-131.99 722.33,-111.5 704.6,-95.61"/>
<polygon fill="#63b8ff" stroke="#63b8ff" points="707.3,-93.42 697.57,-89.24 702.57,-98.58 707.3,-93.42"/>
</a>
</g>
</g>
<!-- Node2&#45;&gt;Node9 -->
<g id="edge8_Node000002_Node000009" class="edge">
<title>Node2&#45;&gt;Node9</title>
<g id="a_edge8_Node000002_Node000009"><a xlink:title=" ">
<path fill="none" stroke="#63b8ff" d="M1029.43,-179.58C1050.16,-172.9 1073.92,-161.86 1089.22,-144 1099.83,-131.61 1104.58,-113.89 1106.68,-99.26"/>
<polygon fill="#63b8ff" stroke="#63b8ff" points="1110.26,-99.66 1107.85,-89.34 1103.3,-98.91 1110.26,-99.66"/>
</a>
</g>
</g>
<!-- Node10 -->
<g id="Node000010" class="node">
<title>Node10</title>
<g id="a_Node000010"><a xlink:href="FMTmask_8hpp.html" target="_top" xlink:title=" ">
<polygon fill="white" stroke="#666666" points="1469.34,-144 1391.09,-144 1391.09,-124 1469.34,-124 1469.34,-144"/>
<text text-anchor="middle" x="1430.22" y="-130.5" font-family="Helvetica,sans-Serif" font-size="10.00">FMTmask.hpp</text>
</a>
</g>
</g>
<!-- Node2&#45;&gt;Node10 -->
<g id="edge9_Node000002_Node000010" class="edge">
<title>Node2&#45;&gt;Node10</title>
<g id="a_edge9_Node000002_Node000010"><a xlink:title=" ">
<path fill="none" stroke="#63b8ff" d="M1040.65,-182.49C1126.88,-171.98 1295.52,-151.42 1379.79,-141.15"/>
<polygon fill="#63b8ff" stroke="#63b8ff" points="1380.11,-144.51 1389.61,-139.83 1379.26,-137.56 1380.11,-144.51"/>
</a>
</g>
</g>
<!-- Node23 -->
<g id="Node000023" class="node">
<title>Node23</title>
<g id="a_Node000023"><a xlink:href="FMTutility_8hpp.html" target="_top" xlink:title=" ">
<polygon fill="white" stroke="#666666" points="711.97,-20 634.47,-20 634.47,0 711.97,0 711.97,-20"/>
<text text-anchor="middle" x="673.22" y="-6.5" font-family="Helvetica,sans-Serif" font-size="10.00">FMTutility.hpp</text>
</a>
</g>
</g>
<!-- Node2&#45;&gt;Node23 -->
<g id="edge29_Node000002_Node000023" class="edge">
<title>Node2&#45;&gt;Node23</title>
<g id="a_edge29_Node000002_Node000023"><a xlink:title=" ">
<path fill="none" stroke="#63b8ff" d="M933.97,-187.6C738.65,-181.92 69.58,-157.5 7.22,-88 -2.28,-77.41 -2.49,-66.39 7.22,-56 49.01,-11.29 475.33,-9.73 623.1,-10.55"/>
<polygon fill="#63b8ff" stroke="#63b8ff" points="623.05,-14.05 633.07,-10.61 623.1,-7.05 623.05,-14.05"/>
</a>
</g>
</g>
<!-- Node24 -->
<g id="Node000024" class="node">
<title>Node24</title>
<g id="a_Node000024"><a xlink:title=" ">
<polygon fill="#e0e0e0" stroke="#999999" points="1214.97,-82 1173.47,-82 1173.47,-62 1214.97,-62 1214.97,-82"/>
<text text-anchor="middle" x="1194.22" y="-68.5" font-family="Helvetica,sans-Serif" font-size="10.00">vector</text>
</a>
</g>
</g>
<!-- Node2&#45;&gt;Node24 -->
<g id="edge28_Node000002_Node000024" class="edge">
<title>Node2&#45;&gt;Node24</title>
<g id="a_edge28_Node000002_Node000024"><a xlink:title=" ">
<path fill="none" stroke="#63b8ff" d="M1021.69,-179.55C1046.67,-171.92 1080.74,-159.84 1108.22,-144 1134.5,-128.84 1160.82,-105.64 1177.3,-89.92"/>
<polygon fill="#63b8ff" stroke="#63b8ff" points="1179.23,-92.95 1183.96,-83.47 1174.35,-87.93 1179.23,-92.95"/>
</a>
</g>
</g>
<!-- Node25 -->
<g id="Node000025" class="node">
<title>Node25</title>
<g id="a_Node000025"><a xlink:href="FMTobject_8hpp.html" target="_top" xlink:title=" ">
<polygon fill="white" stroke="#666666" points="2118.47,-144 2037.97,-144 2037.97,-124 2118.47,-124 2118.47,-144"/>
<text text-anchor="middle" x="2078.22" y="-130.5" font-family="Helvetica,sans-Serif" font-size="10.00">FMTobject.hpp</text>
</a>
</g>
</g>
<!-- Node2&#45;&gt;Node25 -->
<g id="edge30_Node000002_Node000025" class="edge">
<title>Node2&#45;&gt;Node25</title>
<g id="a_edge30_Node000002_Node000025"><a xlink:title=" ">
<path fill="none" stroke="#63b8ff" d="M1040.58,-186.36C1226.42,-177.16 1843.87,-146.6 2026.75,-137.55"/>
<polygon fill="#63b8ff" stroke="#63b8ff" points="2026.84,-141 2036.66,-137.01 2026.49,-134.01 2026.84,-141"/>
</a>
</g>
</g>
<!-- Node29 -->
<g id="Node000029" class="node">
<title>Node29</title>
<g id="a_Node000029"><a xlink:href="FMTbounds_8hpp.html" target="_top" xlink:title=" ">
<polygon fill="white" stroke="#666666" points="1080.09,-144 994.34,-144 994.34,-124 1080.09,-124 1080.09,-144"/>
<text text-anchor="middle" x="1037.22" y="-130.5" font-family="Helvetica,sans-Serif" font-size="10.00">FMTbounds.hpp</text>
</a>
</g>
</g>
<!-- Node2&#45;&gt;Node29 -->
<g id="edge39_Node000002_Node000029" class="edge">
<title>Node2&#45;&gt;Node29</title>
<g id="a_edge39_Node000002_Node000029"><a xlink:title=" ">
<path fill="none" stroke="#63b8ff" d="M995.93,-179.59C1002.88,-172.08 1012.81,-161.35 1021.2,-152.3"/>
<polygon fill="#63b8ff" stroke="#63b8ff" points="1023.38,-155.01 1027.61,-145.3 1018.25,-150.26 1023.38,-155.01"/>
</a>
</g>
</g>
<!-- Node10&#45;&gt;Node3 -->
<g id="edge27_Node000010_Node000003" class="edge">
<title>Node10&#45;&gt;Node3</title>
<g id="a_edge27_Node000010_Node000003"><a xlink:title=" ">
<path fill="none" stroke="#63b8ff" d="M1433.97,-123.55C1441.3,-106.53 1459.27,-71.1 1487.22,-56 1607.12,8.8 1959.82,-42.35 2112.16,-19.78"/>
<polygon fill="#63b8ff" stroke="#63b8ff" points="2112.48,-23.1 2121.78,-18.02 2111.34,-16.2 2112.48,-23.1"/>
</a>
</g>
</g>
<!-- Node10&#45;&gt;Node8 -->
<g id="edge15_Node000010_Node000008" class="edge">
<title>Node10&#45;&gt;Node8</title>
<g id="a_edge15_Node000010_Node000008"><a xlink:title=" ">
<path fill="none" stroke="#63b8ff" d="M1390.66,-131.46C1266.48,-126.46 884.58,-109.84 739.86,-88.18"/>
<polygon fill="#63b8ff" stroke="#63b8ff" points="740.47,-84.57 730.04,-86.47 739.38,-91.49 740.47,-84.57"/>
</a>
</g>
</g>
<!-- Node10&#45;&gt;Node9 -->
<g id="edge17_Node000010_Node000009" class="edge">
<title>Node10&#45;&gt;Node9</title>
<g id="a_edge17_Node000010_Node000009"><a xlink:title=" ">
<path fill="none" stroke="#63b8ff" d="M1390.78,-127.51C1340.74,-120.29 1251.58,-106.57 1166.43,-88.37"/>
<polygon fill="#63b8ff" stroke="#63b8ff" points="1167.32,-84.77 1156.8,-86.07 1165.84,-91.61 1167.32,-84.77"/>
</a>
</g>
</g>
<!-- Node11 -->
<g id="Node000011" class="node">
<title>Node11</title>
<g id="a_Node000011"><a xlink:title=" ">
<polygon fill="#e0e0e0" stroke="#999999" points="2272.09,-82 2144.34,-82 2144.34,-62 2272.09,-62 2272.09,-82"/>
<text text-anchor="middle" x="2208.22" y="-68.5" font-family="Helvetica,sans-Serif" font-size="10.00">boost/dynamic_bitset.hpp</text>
</a>
</g>
</g>
<!-- Node10&#45;&gt;Node11 -->
<g id="edge10_Node000010_Node000011" class="edge">
<title>Node10&#45;&gt;Node11</title>
<g id="a_edge10_Node000010_Node000011"><a xlink:title=" ">
<path fill="none" stroke="#63b8ff" d="M1469.77,-132.4C1577.21,-130.35 1883.29,-121.76 2135.22,-88 2142.12,-87.08 2149.34,-85.88 2156.44,-84.56"/>
<polygon fill="#63b8ff" stroke="#63b8ff" points="2156.93,-87.84 2166.08,-82.49 2155.59,-80.97 2156.93,-87.84"/>
</a>
</g>
</g>
<!-- Node12 -->
<g id="Node000012" class="node">
<title>Node12</title>
<g id="a_Node000012"><a xlink:title=" ">
<polygon fill="#e0e0e0" stroke="#999999" points="1624.47,-82 1495.97,-82 1495.97,-62 1624.47,-62 1624.47,-82"/>
<text text-anchor="middle" x="1560.22" y="-68.5" font-family="Helvetica,sans-Serif" font-size="10.00">boost/unordered_map.hpp</text>
</a>
</g>
</g>
<!-- Node10&#45;&gt;Node12 -->
<g id="edge11_Node000010_Node000012" class="edge">
<title>Node10&#45;&gt;Node12</title>
<g id="a_edge11_Node000010_Node000012"><a xlink:title=" ">
<path fill="none" stroke="#63b8ff" d="M1450.53,-123.62C1471.9,-113.76 1505.76,-98.13 1530.21,-86.85"/>
<polygon fill="#63b8ff" stroke="#63b8ff" points="1531.43,-89.68 1539.05,-82.31 1528.5,-83.32 1531.43,-89.68"/>
</a>
</g>
</g>
<!-- Node13 -->
<g id="Node000013" class="node">
<title>Node13</title>
<g id="a_Node000013"><a xlink:title=" ">
<polygon fill="#e0e0e0" stroke="#999999" points="1771.47,-82 1642.97,-82 1642.97,-62 1771.47,-62 1771.47,-82"/>
<text text-anchor="middle" x="1707.22" y="-68.5" font-family="Helvetica,sans-Serif" font-size="10.00">boost/algorithm/string.hpp</text>
</a>
</g>
</g>
<!-- Node10&#45;&gt;Node13 -->
<g id="edge12_Node000010_Node000013" class="edge">
<title>Node10&#45;&gt;Node13</title>
<g id="a_edge12_Node000010_Node000013"><a xlink:title=" ">
<path fill="none" stroke="#63b8ff" d="M1469.61,-124.47C1517.54,-114.09 1598.72,-96.5 1652.65,-84.82"/>
<polygon fill="#63b8ff" stroke="#63b8ff" points="1653.36,-88.03 1662.39,-82.49 1651.88,-81.19 1653.36,-88.03"/>
</a>
</g>
</g>
<!-- Node14 -->
<g id="Node000014" class="node">
<title>Node14</title>
<g id="a_Node000014"><a xlink:title=" ">
<polygon fill="#e0e0e0" stroke="#999999" points="1899.09,-88 1789.34,-88 1789.34,-56 1899.09,-56 1899.09,-88"/>
<text text-anchor="start" x="1797.34" y="-74.5" font-family="Helvetica,sans-Serif" font-size="10.00">boost/algorithm/string</text>
<text text-anchor="middle" x="1844.22" y="-62.5" font-family="Helvetica,sans-Serif" font-size="10.00">/join.hpp</text>
</a>
</g>
</g>
<!-- Node10&#45;&gt;Node14 -->
<g id="edge13_Node000010_Node000014" class="edge">
<title>Node10&#45;&gt;Node14</title>
<g id="a_edge13_Node000010_Node000014"><a xlink:title=" ">
<path fill="none" stroke="#63b8ff" d="M1469.79,-129.25C1532.95,-122.96 1660.62,-109.08 1778.49,-88.2"/>
<polygon fill="#63b8ff" stroke="#63b8ff" points="1778.91,-91.5 1788.13,-86.29 1777.67,-84.61 1778.91,-91.5"/>
</a>
</g>
</g>
<!-- Node15 -->
<g id="Node000015" class="node">
<title>Node15</title>
<g id="a_Node000015"><a xlink:title=" ">
<polygon fill="#e0e0e0" stroke="#999999" points="1042.72,-82 915.72,-82 915.72,-62 1042.72,-62 1042.72,-82"/>
<text text-anchor="middle" x="979.22" y="-68.5" font-family="Helvetica,sans-Serif" font-size="10.00">boost/functional/hash.hpp</text>
</a>
</g>
</g>
<!-- Node10&#45;&gt;Node15 -->
<g id="edge14_Node000010_Node000015" class="edge">
<title>Node10&#45;&gt;Node15</title>
<g id="a_edge14_Node000010_Node000015"><a xlink:title=" ">
<path fill="none" stroke="#63b8ff" d="M1390.61,-129.39C1321.62,-122.86 1175.03,-107.89 1052.22,-88 1046,-86.99 1039.51,-85.83 1033.07,-84.6"/>
<polygon fill="#63b8ff" stroke="#63b8ff" points="1033.83,-80.98 1023.34,-82.49 1032.48,-87.85 1033.83,-80.98"/>
</a>
</g>
</g>
<!-- Node16 -->
<g id="Node000016" class="node">
<title>Node16</title>
<g id="a_Node000016"><a xlink:title=" ">
<polygon fill="#e0e0e0" stroke="#999999" points="2011.59,-88 1916.84,-88 1916.84,-56 2011.59,-56 2011.59,-88"/>
<text text-anchor="start" x="1924.84" y="-74.5" font-family="Helvetica,sans-Serif" font-size="10.00">boost/serialization</text>
<text text-anchor="middle" x="1964.22" y="-62.5" font-family="Helvetica,sans-Serif" font-size="10.00">/split_free.hpp</text>
</a>
</g>
</g>
<!-- Node10&#45;&gt;Node16 -->
<g id="edge16_Node000010_Node000016" class="edge">
<title>Node10&#45;&gt;Node16</title>
<g id="a_edge16_Node000010_Node000016"><a xlink:title=" ">
<path fill="none" stroke="#63b8ff" d="M1469.55,-131.53C1549.97,-128.05 1739.05,-117.42 1905.92,-88.24"/>
<polygon fill="#63b8ff" stroke="#63b8ff" points="1906.14,-91.58 1915.38,-86.38 1904.92,-84.68 1906.14,-91.58"/>
</a>
</g>
</g>
<!-- Node17 -->
<g id="Node000017" class="node">
<title>Node17</title>
<g id="a_Node000017"><a xlink:title=" ">
<polygon fill="#e0e0e0" stroke="#999999" points="1440.59,-88 1345.84,-88 1345.84,-56 1440.59,-56 1440.59,-88"/>
<text text-anchor="start" x="1353.84" y="-74.5" font-family="Helvetica,sans-Serif" font-size="10.00">boost/serialization</text>
<text text-anchor="middle" x="1393.22" y="-62.5" font-family="Helvetica,sans-Serif" font-size="10.00">/export.hpp</text>
</a>
</g>
</g>
<!-- Node10&#45;&gt;Node17 -->
<g id="edge18_Node000010_Node000017" class="edge">
<title>Node10&#45;&gt;Node17</title>
<g id="a_edge18_Node000010_Node000017"><a xlink:title=" ">
<path fill="none" stroke="#63b8ff" d="M1424.44,-123.62C1420.09,-116.58 1413.93,-106.59 1408.23,-97.35"/>
<polygon fill="#63b8ff" stroke="#63b8ff" points="1410.78,-95.82 1402.55,-89.14 1404.82,-99.49 1410.78,-95.82"/>
</a>
</g>
</g>
<!-- Node18 -->
<g id="Node000018" class="node">
<title>Node18</title>
<g id="a_Node000018"><a xlink:title=" ">
<polygon fill="#e0e0e0" stroke="#999999" points="1327.59,-88 1232.84,-88 1232.84,-56 1327.59,-56 1327.59,-88"/>
<text text-anchor="start" x="1240.84" y="-74.5" font-family="Helvetica,sans-Serif" font-size="10.00">boost/serialization</text>
<text text-anchor="middle" x="1280.22" y="-62.5" font-family="Helvetica,sans-Serif" font-size="10.00">/string.hpp</text>
</a>
</g>
</g>
<!-- Node10&#45;&gt;Node18 -->
<g id="edge19_Node000010_Node000018" class="edge">
<title>Node10&#45;&gt;Node18</title>
<g id="a_edge19_Node000010_Node000018"><a xlink:title=" ">
<path fill="none" stroke="#63b8ff" d="M1406.78,-123.62C1386.05,-115.33 1355.13,-102.96 1329.04,-92.53"/>
<polygon fill="#63b8ff" stroke="#63b8ff" points="1330.53,-88.95 1319.94,-88.49 1327.93,-95.45 1330.53,-88.95"/>
</a>
</g>
</g>
<!-- Node19 -->
<g id="Node000019" class="node">
<title>Node19</title>
<g id="a_Node000019"><a xlink:href="FMTexception_8hpp.html" target="_top" xlink:title=" ">
<polygon fill="white" stroke="#666666" points="2126.34,-82 2030.09,-82 2030.09,-62 2126.34,-62 2126.34,-82"/>
<text text-anchor="middle" x="2078.22" y="-68.5" font-family="Helvetica,sans-Serif" font-size="10.00">FMTexception.hpp</text>
</a>
</g>
</g>
<!-- Node10&#45;&gt;Node19 -->
<g id="edge20_Node000010_Node000019" class="edge">
<title>Node10&#45;&gt;Node19</title>
<g id="a_edge20_Node000010_Node000019"><a xlink:title=" ">
<path fill="none" stroke="#63b8ff" d="M1469.51,-132.4C1564.66,-130.42 1814.75,-122.13 2020.22,-88 2025.21,-87.17 2030.41,-86.11 2035.54,-84.95"/>
<polygon fill="#63b8ff" stroke="#63b8ff" points="2036.02,-88.19 2044.92,-82.43 2034.37,-81.39 2036.02,-88.19"/>
</a>
</g>
</g>
<!-- Node10&#45;&gt;Node24 -->
<g id="edge26_Node000010_Node000024" class="edge">
<title>Node10&#45;&gt;Node24</title>
<g id="a_edge26_Node000010_Node000024"><a xlink:title=" ">
<path fill="none" stroke="#63b8ff" d="M1390.69,-127.36C1348.61,-120.68 1280.48,-107.86 1224.22,-88 1223.28,-87.67 1222.34,-87.32 1221.39,-86.94"/>
<polygon fill="#63b8ff" stroke="#63b8ff" points="1222.91,-83.35 1212.35,-82.48 1220.06,-89.74 1222.91,-83.35"/>
</a>
</g>
</g>
<!-- Node19&#45;&gt;Node3 -->
<g id="edge22_Node000019_Node000003" class="edge">
<title>Node19&#45;&gt;Node3</title>
<g id="a_edge22_Node000019_Node000003"><a xlink:title=" ">
<path fill="none" stroke="#63b8ff" d="M2088.37,-61.62C2098.26,-52.5 2113.48,-38.45 2125.39,-27.46"/>
<polygon fill="#63b8ff" stroke="#63b8ff" points="2127.37,-30.47 2132.35,-21.11 2122.62,-25.32 2127.37,-30.47"/>
</a>
</g>
</g>
<!-- Node20 -->
<g id="Node000020" class="node">
<title>Node20</title>
<g id="a_Node000020"><a xlink:title=" ">
<polygon fill="#e0e0e0" stroke="#999999" points="2033.22,-20 1975.22,-20 1975.22,0 2033.22,0 2033.22,-20"/>
<text text-anchor="middle" x="2004.22" y="-6.5" font-family="Helvetica,sans-Serif" font-size="10.00">exception</text>
</a>
</g>
</g>
<!-- Node19&#45;&gt;Node20 -->
<g id="edge21_Node000019_Node000020" class="edge">
<title>Node19&#45;&gt;Node20</title>
<g id="a_edge21_Node000019_Node000020"><a xlink:title=" ">
<path fill="none" stroke="#63b8ff" d="M2066.65,-61.62C2055.18,-52.32 2037.39,-37.9 2023.73,-26.82"/>
<polygon fill="#63b8ff" stroke="#63b8ff" points="2026.43,-23.69 2016.46,-20.11 2022.02,-29.13 2026.43,-23.69"/>
</a>
</g>
</g>
<!-- Node21 -->
<g id="Node000021" class="node">
<title>Node21</title>
<g id="a_Node000021"><a xlink:title=" ">
<polygon fill="#e0e0e0" stroke="#999999" points="2104.97,-20 2051.47,-20 2051.47,0 2104.97,0 2104.97,-20"/>
<text text-anchor="middle" x="2078.22" y="-6.5" font-family="Helvetica,sans-Serif" font-size="10.00">iostream</text>
</a>
</g>
</g>
<!-- Node19&#45;&gt;Node21 -->
<g id="edge23_Node000019_Node000021" class="edge">
<title>Node19&#45;&gt;Node21</title>
<g id="a_edge23_Node000019_Node000021"><a xlink:title=" ">
<path fill="none" stroke="#63b8ff" d="M2078.22,-61.62C2078.22,-53.48 2078.22,-41.39 2078.22,-31.07"/>
<polygon fill="#63b8ff" stroke="#63b8ff" points="2081.72,-31.11 2078.22,-21.11 2074.72,-31.11 2081.72,-31.11"/>
</a>
</g>
</g>
<!-- Node22 -->
<g id="Node000022" class="node">
<title>Node22</title>
<g id="a_Node000022"><a xlink:title=" ">
<polygon fill="#e0e0e0" stroke="#999999" points="2437.84,-20 2386.59,-20 2386.59,0 2437.84,0 2437.84,-20"/>
<text text-anchor="middle" x="2412.22" y="-6.5" font-family="Helvetica,sans-Serif" font-size="10.00">memory</text>
</a>
</g>
</g>
<!-- Node19&#45;&gt;Node22 -->
<g id="edge24_Node000019_Node000022" class="edge">
<title>Node19&#45;&gt;Node22</title>
<g id="a_edge24_Node000019_Node000022"><a xlink:title=" ">
<path fill="none" stroke="#63b8ff" d="M2111.85,-61.58C2119.5,-59.59 2127.61,-57.61 2135.22,-56 2220.65,-37.86 2322.25,-23.06 2375.49,-15.82"/>
<polygon fill="#63b8ff" stroke="#63b8ff" points="2375.65,-19.19 2385.09,-14.39 2374.72,-12.26 2375.65,-19.19"/>
</a>
</g>
</g>
<!-- Node19&#45;&gt;Node23 -->
<g id="edge25_Node000019_Node000023" class="edge">
<title>Node19&#45;&gt;Node23</title>
<g id="a_edge25_Node000019_Node000023"><a xlink:title=" ">
<path fill="none" stroke="#63b8ff" d="M2046.87,-61.55C2038.3,-59.34 2028.97,-57.26 2020.22,-56 1762.55,-18.84 935.12,-12.28 723.09,-11.2"/>
<polygon fill="#63b8ff" stroke="#63b8ff" points="723.32,-7.7 713.31,-11.15 723.29,-14.7 723.32,-7.7"/>
</a>
</g>
</g>
<!-- Node25&#45;&gt;Node9 -->
<g id="edge32_Node000025_Node000009" class="edge">
<title>Node25&#45;&gt;Node9</title>
<g id="a_edge32_Node000025_Node000009"><a xlink:title=" ">
<path fill="none" stroke="#63b8ff" d="M2037.49,-132.15C1886.35,-128.8 1356.88,-115.47 1166.72,-88.13"/>
<polygon fill="#63b8ff" stroke="#63b8ff" points="1167.44,-84.55 1157.03,-86.52 1166.4,-91.47 1167.44,-84.55"/>
</a>
</g>
</g>
<!-- Node25&#45;&gt;Node17 -->
<g id="edge33_Node000025_Node000017" class="edge">
<title>Node25&#45;&gt;Node17</title>
<g id="a_edge33_Node000025_Node000017"><a xlink:title=" ">
<path fill="none" stroke="#63b8ff" d="M2037.62,-131.06C1941.66,-126.23 1693.4,-112.26 1487.22,-88 1475.66,-86.64 1463.34,-84.89 1451.56,-83.07"/>
<polygon fill="#63b8ff" stroke="#63b8ff" points="1452.36,-79.5 1441.93,-81.39 1451.26,-86.41 1452.36,-79.5"/>
</a>
</g>
</g>
<!-- Node25&#45;&gt;Node19 -->
<g id="edge34_Node000025_Node000019" class="edge">
<title>Node25&#45;&gt;Node19</title>
<g id="a_edge34_Node000025_Node000019"><a xlink:title=" ">
<path fill="none" stroke="#63b8ff" d="M2078.22,-123.62C2078.22,-115.48 2078.22,-103.39 2078.22,-93.07"/>
<polygon fill="#63b8ff" stroke="#63b8ff" points="2081.72,-93.11 2078.22,-83.11 2074.72,-93.11 2081.72,-93.11"/>
</a>
</g>
</g>
<!-- Node25&#45;&gt;Node22 -->
<g id="edge35_Node000025_Node000022" class="edge">
<title>Node25&#45;&gt;Node22</title>
<g id="a_edge35_Node000025_Node000022"><a xlink:title=" ">
<path fill="none" stroke="#63b8ff" d="M2118.68,-132.58C2235.48,-130.94 2566.92,-123.21 2599.22,-88 2644.99,-38.11 2515.69,-19.69 2449.1,-13.64"/>
<polygon fill="#63b8ff" stroke="#63b8ff" points="2449.48,-10.07 2439.22,-12.71 2448.89,-17.05 2449.48,-10.07"/>
</a>
</g>
</g>
<!-- Node25&#45;&gt;Node24 -->
<g id="edge37_Node000025_Node000024" class="edge">
<title>Node25&#45;&gt;Node24</title>
<g id="a_edge37_Node000025_Node000024"><a xlink:title=" ">
<path fill="none" stroke="#63b8ff" d="M2037.7,-133.05C1889.95,-132.9 1380.69,-129.31 1224.22,-88 1222.7,-87.6 1221.18,-87.12 1219.66,-86.58"/>
<polygon fill="#63b8ff" stroke="#63b8ff" points="1221.5,-83.13 1210.93,-82.37 1218.72,-89.55 1221.5,-83.13"/>
</a>
</g>
</g>
<!-- Node26 -->
<g id="Node000026" class="node">
<title>Node26</title>
<g id="a_Node000026"><a xlink:title=" ">
<polygon fill="#e0e0e0" stroke="#999999" points="2384.59,-88 2289.84,-88 2289.84,-56 2384.59,-56 2384.59,-88"/>
<text text-anchor="start" x="2297.84" y="-74.5" font-family="Helvetica,sans-Serif" font-size="10.00">boost/serialization</text>
<text text-anchor="middle" x="2337.22" y="-62.5" font-family="Helvetica,sans-Serif" font-size="10.00">/shared_ptr.hpp</text>
</a>
</g>
</g>
<!-- Node25&#45;&gt;Node26 -->
<g id="edge31_Node000025_Node000026" class="edge">
<title>Node25&#45;&gt;Node26</title>
<g id="a_edge31_Node000025_Node000026"><a xlink:title=" ">
<path fill="none" stroke="#63b8ff" d="M2118.78,-124.55C2157.6,-116.35 2218.05,-103.26 2279.01,-88.49"/>
<polygon fill="#63b8ff" stroke="#63b8ff" points="2279.71,-91.68 2288.59,-85.91 2278.05,-84.88 2279.71,-91.68"/>
</a>
</g>
</g>
<!-- Node27 -->
<g id="Node000027" class="node">
<title>Node27</title>
<g id="a_Node000027"><a xlink:title=" ">
<polygon fill="#e0e0e0" stroke="#999999" points="2447.84,-82 2402.59,-82 2402.59,-62 2447.84,-62 2447.84,-82"/>
<text text-anchor="middle" x="2425.22" y="-68.5" font-family="Helvetica,sans-Serif" font-size="10.00">chrono</text>
</a>
</g>
</g>
<!-- Node25&#45;&gt;Node27 -->
<g id="edge36_Node000025_Node000027" class="edge">
<title>Node25&#45;&gt;Node27</title>
<g id="a_edge36_Node000025_Node000027"><a xlink:title=" ">
<path fill="none" stroke="#63b8ff" d="M2118.81,-131.04C2179.61,-127.25 2297.41,-116.6 2393.22,-88 2394.72,-87.55 2396.25,-87.04 2397.78,-86.49"/>
<polygon fill="#63b8ff" stroke="#63b8ff" points="2398.76,-89.45 2406.65,-82.37 2396.07,-82.99 2398.76,-89.45"/>
</a>
</g>
</g>
<!-- Node28 -->
<g id="Node000028" class="node">
<title>Node28</title>
<g id="a_Node000028"><a xlink:title=" ">
<polygon fill="#e0e0e0" stroke="#999999" points="2590.59,-88 2465.84,-88 2465.84,-56 2590.59,-56 2590.59,-88"/>
<text text-anchor="start" x="2473.84" y="-74.5" font-family="Helvetica,sans-Serif" font-size="10.00">boost/dll/runtime_symbol</text>
<text text-anchor="middle" x="2528.22" y="-62.5" font-family="Helvetica,sans-Serif" font-size="10.00">_info.hpp</text>
</a>
</g>
</g>
<!-- Node25&#45;&gt;Node28 -->
<g id="edge38_Node000025_Node000028" class="edge">
<title>Node25&#45;&gt;Node28</title>
<g id="a_edge38_Node000025_Node000028"><a xlink:title=" ">
<path fill="none" stroke="#63b8ff" d="M2118.77,-129.39C2186.4,-123.12 2326.68,-108.99 2454.78,-88.32"/>
<polygon fill="#63b8ff" stroke="#63b8ff" points="2455.25,-91.62 2464.56,-86.56 2454.12,-84.71 2455.25,-91.62"/>
</a>
</g>
</g>
<!-- Node29&#45;&gt;Node4 -->
<g id="edge41_Node000029_Node000004" class="edge">
<title>Node29&#45;&gt;Node4</title>
<g id="a_edge41_Node000029_Node000004"><a xlink:title=" ">
<path fill="none" stroke="#63b8ff" d="M994.12,-125.3C991.11,-124.83 988.12,-124.4 985.22,-124 825.89,-102.27 778.67,-136.04 625.22,-88 624.28,-87.71 623.33,-87.38 622.39,-87.02"/>
<polygon fill="#63b8ff" stroke="#63b8ff" points="624.12,-83.49 613.58,-82.39 621.13,-89.82 624.12,-83.49"/>
</a>
</g>
</g>
<!-- Node29&#45;&gt;Node7 -->
<g id="edge49_Node000029_Node000007" class="edge">
<title>Node29&#45;&gt;Node7</title>
<g id="a_edge49_Node000029_Node000007"><a xlink:title=" ">
<path fill="none" stroke="#63b8ff" d="M994.29,-125.01C939.85,-114.75 849.12,-97.18 816.22,-88 813.91,-87.36 811.56,-86.65 809.19,-85.91"/>
<polygon fill="#63b8ff" stroke="#63b8ff" points="810.5,-82.32 799.9,-82.47 808.28,-88.96 810.5,-82.32"/>
</a>
</g>
</g>
<!-- Node29&#45;&gt;Node8 -->
<g id="edge46_Node000029_Node000008" class="edge">
<title>Node29&#45;&gt;Node8</title>
<g id="a_edge46_Node000029_Node000008"><a xlink:title=" ">
<path fill="none" stroke="#63b8ff" d="M994.1,-125.44C991.1,-124.95 988.11,-124.46 985.22,-124 878.66,-107.05 848.2,-110.22 739.83,-88.41"/>
<polygon fill="#63b8ff" stroke="#63b8ff" points="740.59,-84.79 730.09,-86.22 739.19,-91.65 740.59,-84.79"/>
</a>
</g>
</g>
<!-- Node29&#45;&gt;Node9 -->
<g id="edge47_Node000029_Node000009" class="edge">
<title>Node29&#45;&gt;Node9</title>
<g id="a_edge47_Node000029_Node000009"><a xlink:title=" ">
<path fill="none" stroke="#63b8ff" d="M1048.31,-123.62C1057.29,-116.04 1070.3,-105.05 1081.9,-95.24"/>
<polygon fill="#63b8ff" stroke="#63b8ff" points="1083.65,-97.5 1089.03,-88.37 1079.13,-92.15 1083.65,-97.5"/>
</a>
</g>
</g>
<!-- Node29&#45;&gt;Node15 -->
<g id="edge45_Node000029_Node000015" class="edge">
<title>Node29&#45;&gt;Node15</title>
<g id="a_edge45_Node000029_Node000015"><a xlink:title=" ">
<path fill="none" stroke="#63b8ff" d="M1028.15,-123.62C1019.42,-114.59 1006.01,-100.72 995.44,-89.78"/>
<polygon fill="#63b8ff" stroke="#63b8ff" points="998.49,-87.87 989.03,-83.11 993.46,-92.74 998.49,-87.87"/>
</a>
</g>
</g>
<!-- Node29&#45;&gt;Node18 -->
<g id="edge48_Node000029_Node000018" class="edge">
<title>Node29&#45;&gt;Node18</title>
<g id="a_edge48_Node000029_Node000018"><a xlink:title=" ">
<path fill="none" stroke="#63b8ff" d="M1077.78,-123.55C1113.41,-115.19 1166.92,-102.45 1221.93,-88.55"/>
<polygon fill="#63b8ff" stroke="#63b8ff" points="1222.75,-91.7 1231.58,-85.85 1221.03,-84.92 1222.75,-91.7"/>
</a>
</g>
</g>
<!-- Node29&#45;&gt;Node19 -->
<g id="edge42_Node000029_Node000019" class="edge">
<title>Node29&#45;&gt;Node19</title>
<g id="a_edge42_Node000029_Node000019"><a xlink:title=" ">
<path fill="none" stroke="#63b8ff" d="M1080.57,-131.55C1258.35,-125.51 1926.62,-102.09 2020.22,-88 2025.35,-87.23 2030.68,-86.19 2035.94,-85.01"/>
<polygon fill="#63b8ff" stroke="#63b8ff" points="2036.65,-88.2 2045.55,-82.45 2035.01,-81.39 2036.65,-88.2"/>
</a>
</g>
</g>
<!-- Node29&#45;&gt;Node23 -->
<g id="edge43_Node000029_Node000023" class="edge">
<title>Node29&#45;&gt;Node23</title>
<g id="a_edge43_Node000029_Node000023"><a xlink:title=" ">
<path fill="none" stroke="#63b8ff" d="M993.92,-125.04C946.62,-115.93 874.23,-100.63 849.22,-88 829.51,-78.05 830.51,-66.73 811.22,-56 783.61,-40.65 749.95,-29.54 722.78,-22.2"/>
<polygon fill="#63b8ff" stroke="#63b8ff" points="723.9,-18.61 713.34,-19.48 722.13,-25.39 723.9,-18.61"/>
</a>
</g>
</g>
<!-- Node29&#45;&gt;Node24 -->
<g id="edge44_Node000029_Node000024" class="edge">
<title>Node29&#45;&gt;Node24</title>
<g id="a_edge44_Node000029_Node000024"><a xlink:title=" ">
<path fill="none" stroke="#63b8ff" d="M1067.12,-123.56C1093.11,-115.08 1131.6,-101.87 1164.22,-88 1164.96,-87.68 1165.71,-87.36 1166.47,-87.02"/>
<polygon fill="#63b8ff" stroke="#63b8ff" points="1167.74,-89.83 1175.3,-82.41 1164.76,-83.49 1167.74,-89.83"/>
</a>
</g>
</g>
<!-- Node30 -->
<g id="Node000030" class="node">
<title>Node30</title>
<g id="a_Node000030"><a xlink:title=" ">
<polygon fill="#e0e0e0" stroke="#999999" points="897.84,-82 858.59,-82 858.59,-62 897.84,-62 897.84,-82"/>
<text text-anchor="middle" x="878.22" y="-68.5" font-family="Helvetica,sans-Serif" font-size="10.00">limits</text>
</a>
</g>
</g>
<!-- Node29&#45;&gt;Node30 -->
<g id="edge40_Node000029_Node000030" class="edge">
<title>Node29&#45;&gt;Node30</title>
<g id="a_edge40_Node000029_Node000030"><a xlink:title=" ">
<path fill="none" stroke="#63b8ff" d="M1005.74,-123.51C979.11,-115.15 940.14,-102.13 907.22,-88 906.61,-87.74 906.01,-87.48 905.4,-87.2"/>
<polygon fill="#63b8ff" stroke="#63b8ff" points="907.03,-83.63 896.5,-82.46 904.01,-89.94 907.03,-83.63"/>
</a>
</g>
</g>
<!-- Node31&#45;&gt;Node3 -->
<g id="edge55_Node000031_Node000003" class="edge">
<title>Node31&#45;&gt;Node3</title>
<g id="a_edge55_Node000031_Node000003"><a xlink:title=" ">
<path fill="none" stroke="#63b8ff" d="M566.02,-123.58C561.15,-107.25 554.2,-73.74 572.22,-56 631.61,2.47 1954.29,-31.83 2112.28,-19.28"/>
<polygon fill="#63b8ff" stroke="#63b8ff" points="2112.24,-22.7 2121.79,-18.11 2111.46,-15.74 2112.24,-22.7"/>
</a>
</g>
</g>
<!-- Node31&#45;&gt;Node4 -->
<g id="edge56_Node000031_Node000004" class="edge">
<title>Node31&#45;&gt;Node4</title>
<g id="a_edge56_Node000031_Node000004"><a xlink:title=" ">
<path fill="none" stroke="#63b8ff" d="M573.75,-123.62C577.86,-115.12 584.04,-102.33 589.16,-91.74"/>
<polygon fill="#63b8ff" stroke="#63b8ff" points="592.61,-93.64 593.81,-83.11 586.31,-90.59 592.61,-93.64"/>
</a>
</g>
</g>
<!-- Node31&#45;&gt;Node8 -->
<g id="edge58_Node000031_Node000008" class="edge">
<title>Node31&#45;&gt;Node8</title>
<g id="a_edge58_Node000031_Node000008"><a xlink:title=" ">
<path fill="none" stroke="#63b8ff" d="M586.72,-123.62C601.7,-115.6 623.81,-103.75 642.88,-93.54"/>
<polygon fill="#63b8ff" stroke="#63b8ff" points="644.36,-96.18 651.52,-88.37 641.05,-90.01 644.36,-96.18"/>
</a>
</g>
</g>
<!-- Node31&#45;&gt;Node9 -->
<g id="edge59_Node000031_Node000009" class="edge">
<title>Node31&#45;&gt;Node9</title>
<g id="a_edge59_Node000031_Node000009"><a xlink:title=" ">
<path fill="none" stroke="#63b8ff" d="M606.16,-131.68C685.73,-128.4 879.3,-117.96 1049.7,-88.27"/>
<polygon fill="#63b8ff" stroke="#63b8ff" points="1050.14,-91.57 1059.38,-86.38 1048.92,-84.68 1050.14,-91.57"/>
</a>
</g>
</g>
<!-- Node31&#45;&gt;Node17 -->
<g id="edge63_Node000031_Node000017" class="edge">
<title>Node31&#45;&gt;Node17</title>
<g id="a_edge63_Node000031_Node000017"><a xlink:title=" ">
<path fill="none" stroke="#63b8ff" d="M606.16,-131.27C744.08,-124.73 1226.1,-101.37 1334.63,-87.82"/>
<polygon fill="#63b8ff" stroke="#63b8ff" points="1335.05,-91.16 1344.47,-86.3 1334.08,-84.22 1335.05,-91.16"/>
</a>
</g>
</g>
<!-- Node31&#45;&gt;Node23 -->
<g id="edge57_Node000031_Node000023" class="edge">
<title>Node31&#45;&gt;Node23</title>
<g id="a_edge57_Node000031_Node000023"><a xlink:title=" ">
<path fill="none" stroke="#63b8ff" d="M560.22,-123.74C546.53,-108.5 523.64,-77.67 539.22,-56 558.29,-29.47 593.78,-18.36 623.44,-13.81"/>
<polygon fill="#63b8ff" stroke="#63b8ff" points="623.6,-17.19 633.06,-12.42 622.69,-10.25 623.6,-17.19"/>
</a>
</g>
</g>
<!-- Node31&#45;&gt;Node24 -->
<g id="edge54_Node000031_Node000024" class="edge">
<title>Node31&#45;&gt;Node24</title>
<g id="a_edge54_Node000031_Node000024"><a xlink:title=" ">
<path fill="none" stroke="#63b8ff" d="M605.98,-131.05C727.35,-124.49 1110.55,-102.83 1164.22,-88 1165.54,-87.63 1166.88,-87.21 1168.21,-86.73"/>
<polygon fill="#63b8ff" stroke="#63b8ff" points="1169.37,-89.62 1177.17,-82.45 1166.6,-83.19 1169.37,-89.62"/>
</a>
</g>
</g>
<!-- Node32 -->
<g id="Node000032" class="node">
<title>Node32</title>
<g id="a_Node000032"><a xlink:title=" ">
<polygon fill="#e0e0e0" stroke="#999999" points="110.59,-88 15.84,-88 15.84,-56 110.59,-56 110.59,-88"/>
<text text-anchor="start" x="23.84" y="-74.5" font-family="Helvetica,sans-Serif" font-size="10.00">boost/serialization</text>
<text text-anchor="middle" x="63.22" y="-62.5" font-family="Helvetica,sans-Serif" font-size="10.00">/map.hpp</text>
</a>
</g>
</g>
<!-- Node31&#45;&gt;Node32 -->
<g id="edge60_Node000031_Node000032" class="edge">
<title>Node31&#45;&gt;Node32</title>
<g id="a_edge60_Node000031_Node000032"><a xlink:title=" ">
<path fill="none" stroke="#63b8ff" d="M532.28,-131.27C456.83,-127.31 279.54,-115.86 121.38,-88.01"/>
<polygon fill="#63b8ff" stroke="#63b8ff" points="122.45,-84.47 111.99,-86.16 121.22,-91.36 122.45,-84.47"/>
</a>
</g>
</g>
<!-- Node33 -->
<g id="Node000033" class="node">
<title>Node33</title>
<g id="a_Node000033"><a xlink:title=" ">
<polygon fill="#e0e0e0" stroke="#999999" points="223.59,-88 128.84,-88 128.84,-56 223.59,-56 223.59,-88"/>
<text text-anchor="start" x="136.84" y="-74.5" font-family="Helvetica,sans-Serif" font-size="10.00">boost/serialization</text>
<text text-anchor="middle" x="176.22" y="-62.5" font-family="Helvetica,sans-Serif" font-size="10.00">/vector.hpp</text>
</a>
</g>
</g>
<!-- Node31&#45;&gt;Node33 -->
<g id="edge61_Node000031_Node000033" class="edge">
<title>Node31&#45;&gt;Node33</title>
<g id="a_edge61_Node000031_Node000033"><a xlink:title=" ">
<path fill="none" stroke="#63b8ff" d="M532.31,-129.64C471.92,-123.82 348.1,-110.44 234.67,-88.35"/>
<polygon fill="#63b8ff" stroke="#63b8ff" points="235.57,-84.76 225.08,-86.26 234.21,-91.63 235.57,-84.76"/>
</a>
</g>
</g>
<!-- Node34 -->
<g id="Node000034" class="node">
<title>Node34</title>
<g id="a_Node000034"><a xlink:title=" ">
<polygon fill="#e0e0e0" stroke="#999999" points="336.97,-88 241.47,-88 241.47,-56 336.97,-56 336.97,-88"/>
<text text-anchor="start" x="249.47" y="-74.5" font-family="Helvetica,sans-Serif" font-size="10.00">boost/serialization</text>
<text text-anchor="middle" x="289.22" y="-62.5" font-family="Helvetica,sans-Serif" font-size="10.00">/binary_object.hpp</text>
</a>
</g>
</g>
<!-- Node31&#45;&gt;Node34 -->
<g id="edge62_Node000031_Node000034" class="edge">
<title>Node31&#45;&gt;Node34</title>
<g id="a_edge62_Node000031_Node000034"><a xlink:title=" ">
<path fill="none" stroke="#63b8ff" d="M532.38,-126.25C490.12,-118.35 418.54,-104.52 347.8,-88.29"/>
<polygon fill="#63b8ff" stroke="#63b8ff" points="348.9,-84.73 338.37,-85.88 347.32,-91.55 348.9,-84.73"/>
</a>
</g>
</g>
<!-- Node35 -->
<g id="Node000035" class="node">
<title>Node35</title>
<g id="a_Node000035"><a xlink:title=" ">
<polygon fill="#e0e0e0" stroke="#999999" points="486.97,-88 355.47,-88 355.47,-56 486.97,-56 486.97,-88"/>
<text text-anchor="start" x="363.47" y="-74.5" font-family="Helvetica,sans-Serif" font-size="10.00">boost/unordered/unordered</text>
<text text-anchor="middle" x="421.22" y="-62.5" font-family="Helvetica,sans-Serif" font-size="10.00">_map_fwd.hpp</text>
</a>
</g>
</g>
<!-- Node31&#45;&gt;Node35 -->
<g id="edge64_Node000031_Node000035" class="edge">
<title>Node31&#45;&gt;Node35</title>
<g id="a_edge64_Node000031_Node000035"><a xlink:title=" ">
<path fill="none" stroke="#63b8ff" d="M546.09,-123.62C525.64,-115.33 495.13,-102.96 469.39,-92.53"/>
<polygon fill="#63b8ff" stroke="#63b8ff" points="471.01,-89 460.43,-88.49 468.38,-95.49 471.01,-89"/>
</a>
</g>
</g>
</g>
</svg>
