<?xml version="1.0" encoding="UTF-8" standalone="no"?>
<!DOCTYPE svg PUBLIC "-//W3C//DTD SVG 1.1//EN"
 "http://www.w3.org/Graphics/SVG/1.1/DTD/svg11.dtd">
<!-- Generated by graphviz version 8.1.0 (20230707.0739)
 -->
<!-- Title: C:/Temp/out/FMT/Include/FMTbasevertexproperties.hpp Pages: 1 -->
<!--zoomable 412 -->

<svg id="main" version="1.1" xmlns="http://www.w3.org/2000/svg" xmlns:xlink="http://www.w3.org/1999/xlink" xml:space="preserve" onload="init(evt)">
<style type="text/css"><![CDATA[
.node, .edge {opacity: 0.7;}
.node.selected, .edge.selected {opacity: 1;}
.edge:hover path { stroke: red; }
.edge:hover polygon { stroke: red; fill: red; }
]]></style>

<defs>
  <circle id="rim" cx="0" cy="0" r="7"/>
  <circle id="rim2" cx="0" cy="0" r="3.5"/>
  <g id="zoomPlus">
    <use xlink:href="#rim" fill="#404040"><set attributeName="fill" to="#808080" begin="zoomplus.mouseover" end="zoomplus.mouseout"/></use>
    <path d="M-4,0h8M0,-4v8" fill="none" stroke="white" stroke-width="1.5" pointer-events="none"/>
  </g>
  <g id="zoomMin">
    <use xlink:href="#rim" fill="#404040"><set attributeName="fill" to="#808080" begin="zoomminus.mouseover" end="zoomminus.mouseout"/></use>
    <path d="M-4,0h8" fill="none" stroke="white" stroke-width="1.5" pointer-events="none"/>
  </g>
  <g id="arrowUp" transform="translate(30 24)">
    <use xlink:href="#rim"/>
    <path pointer-events="none" fill="none" stroke="white" stroke-width="1.5" d="M0,-3.0v7 M-2.5,-0.5L0,-3.0L2.5,-0.5"/>
  </g>
  <g id="arrowRight" transform="rotate(90) translate(36 -43)">
    <use xlink:href="#rim"/>
    <path pointer-events="none" fill="none" stroke="white" stroke-width="1.5" d="M0,-3.0v7 M-2.5,-0.5L0,-3.0L2.5,-0.5"/>
  </g>
  <g id="arrowDown" transform="rotate(180) translate(-30 -48)">
    <use xlink:href="#rim"/>
    <path pointer-events="none" fill="none" stroke="white" stroke-width="1.5" d="M0,-3.0v7 M-2.5,-0.5L0,-3.0L2.5,-0.5"/>
  </g>
  <g id="arrowLeft" transform="rotate(270) translate(-36 17)">
    <use xlink:href="#rim"/>
    <path pointer-events="none" fill="none" stroke="white" stroke-width="1.5" d="M0,-3.0v7 M-2.5,-0.5L0,-3.0L2.5,-0.5"/>
  </g>
  <g id="resetDef">
    <use xlink:href="#rim2" fill="#404040"><set attributeName="fill" to="#808080" begin="reset.mouseover" end="reset.mouseout"/></use>
  </g>
</defs>
<script type="application/ecmascript">
var viewWidth = 2642;
var viewHeight = 412;
var sectionId = 'dynsection-0';
</script>
<script type="application/ecmascript" xlink:href="svg.min.js"/>
<svg id="graph" class="graph">
<g id="viewport">
<title>C:/Temp/out/FMT/Include/FMTbasevertexproperties.hpp</title>
<!-- Node1 -->
<g id="Node000001" class="node">
<title>Node1</title>
<g id="a_Node000001"><a xlink:title=" ">
<polygon fill="#999999" stroke="#666666" points="2424.5,-404 2278,-404 2278,-372 2424.5,-372 2424.5,-404"/>
<text text-anchor="start" x="2286" y="-390.5" font-family="Helvetica,sans-Serif" font-size="10.00">C:/Temp/out/FMT/Include</text>
<text text-anchor="middle" x="2351.25" y="-378.5" font-family="Helvetica,sans-Serif" font-size="10.00">/FMTbasevertexproperties.hpp</text>
</a>
</g>
</g>
<!-- Node2 -->
<g id="Node000002" class="node">
<title>Node2</title>
<g id="a_Node000002"><a xlink:href="FMTfuturdevelopment_8hpp.html" target="_top" xlink:title=" ">
<polygon fill="white" stroke="#666666" points="2368.75,-330 2241.75,-330 2241.75,-310 2368.75,-310 2368.75,-330"/>
<text text-anchor="middle" x="2305.25" y="-316.5" font-family="Helvetica,sans-Serif" font-size="10.00">FMTfuturdevelopment.hpp</text>
</a>
</g>
</g>
<!-- Node1&#45;&gt;Node2 -->
<g id="edge1_Node000001_Node000002" class="edge">
<title>Node1&#45;&gt;Node2</title>
<g id="a_edge1_Node000001_Node000002"><a xlink:title=" ">
<path fill="none" stroke="#63b8ff" d="M2340.58,-371.69C2333.82,-362 2325.05,-349.41 2317.93,-339.2"/>
<polygon fill="#63b8ff" stroke="#63b8ff" points="2320.33,-337.52 2311.74,-331.32 2314.59,-341.52 2320.33,-337.52"/>
</a>
</g>
</g>
<!-- Node10 -->
<g id="Node000010" class="node">
<title>Node10</title>
<g id="a_Node000010"><a xlink:title=" ">
<polygon fill="#e0e0e0" stroke="#999999" points="485.62,-156 390.88,-156 390.88,-124 485.62,-124 485.62,-156"/>
<text text-anchor="start" x="398.88" y="-142.5" font-family="Helvetica,sans-Serif" font-size="10.00">boost/serialization</text>
<text text-anchor="middle" x="438.25" y="-130.5" font-family="Helvetica,sans-Serif" font-size="10.00">/serialization.hpp</text>
</a>
</g>
</g>
<!-- Node1&#45;&gt;Node10 -->
<g id="edge59_Node000001_Node000010" class="edge">
<title>Node1&#45;&gt;Node10</title>
<g id="a_edge59_Node000001_Node000010"><a xlink:title=" ">
<path fill="none" stroke="#63b8ff" d="M2277.77,-385.85C1954.8,-380.33 670.39,-353.14 513.25,-268 474.75,-247.14 454.22,-197.48 444.83,-166.81"/>
<polygon fill="#63b8ff" stroke="#63b8ff" points="447.98,-166.1 441.86,-157.45 441.25,-168.03 447.98,-166.1"/>
</a>
</g>
</g>
<!-- Node19 -->
<g id="Node000019" class="node">
<title>Node19</title>
<g id="a_Node000019"><a xlink:title=" ">
<polygon fill="#e0e0e0" stroke="#999999" points="1538.88,-20 1487.62,-20 1487.62,0 1538.88,0 1538.88,-20"/>
<text text-anchor="middle" x="1513.25" y="-6.5" font-family="Helvetica,sans-Serif" font-size="10.00">memory</text>
</a>
</g>
</g>
<!-- Node1&#45;&gt;Node19 -->
<g id="edge62_Node000001_Node000019" class="edge">
<title>Node1&#45;&gt;Node19</title>
<g id="a_edge62_Node000001_Node000019"><a xlink:title=" ">
<path fill="none" stroke="#63b8ff" d="M2360.56,-371.87C2374,-348.54 2397.25,-301.98 2397.25,-259 2397.25,-259 2397.25,-259 2397.25,-139 2397.25,-71.57 2334.28,-77.15 2270.25,-56 2134.21,-11.05 1682.28,-10.01 1549.95,-10.7"/>
<polygon fill="#63b8ff" stroke="#63b8ff" points="1550.19,-7.21 1540.21,-10.77 1550.24,-14.21 1550.19,-7.21"/>
</a>
</g>
</g>
<!-- Node33 -->
<g id="Node000033" class="node">
<title>Node33</title>
<g id="a_Node000033"><a xlink:href="FMTactualdevelopment_8hpp.html" target="_top" xlink:title=" ">
<polygon fill="white" stroke="#666666" points="1689.5,-330 1555,-330 1555,-310 1689.5,-310 1689.5,-330"/>
<text text-anchor="middle" x="1622.25" y="-316.5" font-family="Helvetica,sans-Serif" font-size="10.00">FMTactualdevelopment.hpp</text>
</a>
</g>
</g>
<!-- Node1&#45;&gt;Node33 -->
<g id="edge54_Node000001_Node000033" class="edge">
<title>Node1&#45;&gt;Node33</title>
<g id="a_edge54_Node000001_Node000033"><a xlink:title=" ">
<path fill="none" stroke="#63b8ff" d="M2277.68,-380.34C2139.47,-367.83 1842.25,-340.92 1700.52,-328.09"/>
<polygon fill="#63b8ff" stroke="#63b8ff" points="1701.04,-324.53 1690.77,-327.11 1700.41,-331.5 1701.04,-324.53"/>
</a>
</g>
</g>
<!-- Node34 -->
<g id="Node000034" class="node">
<title>Node34</title>
<g id="a_Node000034"><a xlink:title=" ">
<polygon fill="#e0e0e0" stroke="#999999" points="2519.62,-336 2424.88,-336 2424.88,-304 2519.62,-304 2519.62,-336"/>
<text text-anchor="start" x="2432.88" y="-322.5" font-family="Helvetica,sans-Serif" font-size="10.00">boost/serialization</text>
<text text-anchor="middle" x="2472.25" y="-310.5" font-family="Helvetica,sans-Serif" font-size="10.00">/unique_ptr.hpp</text>
</a>
</g>
</g>
<!-- Node1&#45;&gt;Node34 -->
<g id="edge60_Node000001_Node000034" class="edge">
<title>Node1&#45;&gt;Node34</title>
<g id="a_edge60_Node000001_Node000034"><a xlink:title=" ">
<path fill="none" stroke="#63b8ff" d="M2379.62,-371.53C2396,-362.59 2416.82,-351.24 2434.56,-341.56"/>
<polygon fill="#63b8ff" stroke="#63b8ff" points="2435.96,-344.24 2443.06,-336.38 2432.6,-338.09 2435.96,-344.24"/>
</a>
</g>
</g>
<!-- Node35 -->
<g id="Node000035" class="node">
<title>Node35</title>
<g id="a_Node000035"><a xlink:title=" ">
<polygon fill="#e0e0e0" stroke="#999999" points="2634.38,-336 2538.12,-336 2538.12,-304 2634.38,-304 2634.38,-336"/>
<text text-anchor="start" x="2546.12" y="-322.5" font-family="Helvetica,sans-Serif" font-size="10.00">boost/serialization</text>
<text text-anchor="middle" x="2586.25" y="-310.5" font-family="Helvetica,sans-Serif" font-size="10.00">/split_member.hpp</text>
</a>
</g>
</g>
<!-- Node1&#45;&gt;Node35 -->
<g id="edge61_Node000001_Node000035" class="edge">
<title>Node1&#45;&gt;Node35</title>
<g id="a_edge61_Node000001_Node000035"><a xlink:title=" ">
<path fill="none" stroke="#63b8ff" d="M2406.35,-371.53C2442.8,-361.29 2490.55,-347.88 2527.69,-337.45"/>
<polygon fill="#63b8ff" stroke="#63b8ff" points="2528.19,-340.66 2536.87,-334.59 2526.3,-333.92 2528.19,-340.66"/>
</a>
</g>
</g>
<!-- Node3 -->
<g id="Node000003" class="node">
<title>Node3</title>
<g id="a_Node000003"><a xlink:href="FMTdevelopment_8hpp.html" target="_top" xlink:title=" ">
<polygon fill="white" stroke="#666666" points="1676.38,-268 1568.12,-268 1568.12,-248 1676.38,-248 1676.38,-268"/>
<text text-anchor="middle" x="1622.25" y="-254.5" font-family="Helvetica,sans-Serif" font-size="10.00">FMTdevelopment.hpp</text>
</a>
</g>
</g>
<!-- Node2&#45;&gt;Node3 -->
<g id="edge2_Node000002_Node000003" class="edge">
<title>Node2&#45;&gt;Node3</title>
<g id="a_edge2_Node000002_Node000003"><a xlink:title=" ">
<path fill="none" stroke="#63b8ff" d="M2241.3,-313.38C2111.47,-301.98 1818.25,-276.22 1687.41,-264.72"/>
<polygon fill="#63b8ff" stroke="#63b8ff" points="1688.04,-261.18 1677.77,-263.79 1687.42,-268.15 1688.04,-261.18"/>
</a>
</g>
</g>
<!-- Node2&#45;&gt;Node10 -->
<g id="edge51_Node000002_Node000010" class="edge">
<title>Node2&#45;&gt;Node10</title>
<g id="a_edge51_Node000002_Node000010"><a xlink:title=" ">
<path fill="none" stroke="#63b8ff" d="M2241.46,-316.81C1946.89,-306.44 725.54,-260.85 562.25,-212 527.21,-201.52 491.4,-179.56 467.34,-162.82"/>
<polygon fill="#63b8ff" stroke="#63b8ff" points="469.58,-159.41 459.4,-156.47 465.52,-165.12 469.58,-159.41"/>
</a>
</g>
</g>
<!-- Node13 -->
<g id="Node000013" class="node">
<title>Node13</title>
<g id="a_Node000013"><a xlink:title=" ">
<polygon fill="#e0e0e0" stroke="#999999" points="1575.62,-88 1480.88,-88 1480.88,-56 1575.62,-56 1575.62,-88"/>
<text text-anchor="start" x="1488.88" y="-74.5" font-family="Helvetica,sans-Serif" font-size="10.00">boost/serialization</text>
<text text-anchor="middle" x="1528.25" y="-62.5" font-family="Helvetica,sans-Serif" font-size="10.00">/export.hpp</text>
</a>
</g>
</g>
<!-- Node2&#45;&gt;Node13 -->
<g id="edge53_Node000002_Node000013" class="edge">
<title>Node2&#45;&gt;Node13</title>
<g id="a_edge53_Node000002_Node000013"><a xlink:title=" ">
<path fill="none" stroke="#63b8ff" d="M2306.69,-309.8C2311.05,-278.16 2320.61,-173.07 2264.25,-124 2213.61,-79.91 1752.16,-73.83 1586.84,-73.07"/>
<polygon fill="#63b8ff" stroke="#63b8ff" points="1586.93,-69.57 1576.92,-73.03 1586.91,-76.57 1586.93,-69.57"/>
</a>
</g>
</g>
<!-- Node2&#45;&gt;Node19 -->
<g id="edge52_Node000002_Node000019" class="edge">
<title>Node2&#45;&gt;Node19</title>
<g id="a_edge52_Node000002_Node000019"><a xlink:title=" ">
<path fill="none" stroke="#63b8ff" d="M2312.99,-309.76C2327.92,-290.95 2359.25,-246.32 2359.25,-203 2359.25,-203 2359.25,-203 2359.25,-139 2359.25,-50.1 2263.44,-77.8 2177.25,-56 2056.94,-25.56 1670.98,-14.52 1549.93,-11.76"/>
<polygon fill="#63b8ff" stroke="#63b8ff" points="1550.13,-8.24 1540.06,-11.51 1549.98,-15.24 1550.13,-8.24"/>
</a>
</g>
</g>
<!-- Node4 -->
<g id="Node000004" class="node">
<title>Node4</title>
<g id="a_Node000004"><a xlink:href="FMTmask_8hpp.html" target="_top" xlink:title=" ">
<polygon fill="white" stroke="#666666" points="1273.38,-212 1195.12,-212 1195.12,-192 1273.38,-192 1273.38,-212"/>
<text text-anchor="middle" x="1234.25" y="-198.5" font-family="Helvetica,sans-Serif" font-size="10.00">FMTmask.hpp</text>
</a>
</g>
</g>
<!-- Node3&#45;&gt;Node4 -->
<g id="edge3_Node000003_Node000004" class="edge">
<title>Node3&#45;&gt;Node4</title>
<g id="a_edge3_Node000003_Node000004"><a xlink:title=" ">
<path fill="none" stroke="#63b8ff" d="M1567.89,-249.43C1492.61,-238.96 1357.64,-220.17 1284.56,-210"/>
<polygon fill="#63b8ff" stroke="#63b8ff" points="1285.2,-206.42 1274.82,-208.51 1284.24,-213.35 1285.2,-206.42"/>
</a>
</g>
</g>
<!-- Node3&#45;&gt;Node10 -->
<g id="edge22_Node000003_Node000010" class="edge">
<title>Node3&#45;&gt;Node10</title>
<g id="a_edge22_Node000003_Node000010"><a xlink:title=" ">
<path fill="none" stroke="#63b8ff" d="M1567.71,-257C1385.29,-256.63 797.62,-252.26 613.25,-212 609.91,-211.27 536.46,-181.28 485.79,-160.51"/>
<polygon fill="#63b8ff" stroke="#63b8ff" points="487.25,-156.92 476.67,-156.37 484.6,-163.4 487.25,-156.92"/>
</a>
</g>
</g>
<!-- Node12 -->
<g id="Node000012" class="node">
<title>Node12</title>
<g id="a_Node000012"><a xlink:title=" ">
<polygon fill="#e0e0e0" stroke="#999999" points="1763.62,-156 1668.88,-156 1668.88,-124 1763.62,-124 1763.62,-156"/>
<text text-anchor="start" x="1676.88" y="-142.5" font-family="Helvetica,sans-Serif" font-size="10.00">boost/serialization</text>
<text text-anchor="middle" x="1716.25" y="-130.5" font-family="Helvetica,sans-Serif" font-size="10.00">/nvp.hpp</text>
</a>
</g>
</g>
<!-- Node3&#45;&gt;Node12 -->
<g id="edge23_Node000003_Node000012" class="edge">
<title>Node3&#45;&gt;Node12</title>
<g id="a_edge23_Node000003_Node000012"><a xlink:title=" ">
<path fill="none" stroke="#63b8ff" d="M1629.94,-247.51C1644.45,-229.6 1676.27,-190.34 1696.95,-164.81"/>
<polygon fill="#63b8ff" stroke="#63b8ff" points="1700.18,-167.39 1703.76,-157.41 1694.74,-162.98 1700.18,-167.39"/>
</a>
</g>
</g>
<!-- Node3&#45;&gt;Node13 -->
<g id="edge36_Node000003_Node000013" class="edge">
<title>Node3&#45;&gt;Node13</title>
<g id="a_edge36_Node000003_Node000013"><a xlink:title=" ">
<path fill="none" stroke="#63b8ff" d="M1667.49,-247.52C1743.88,-229.54 1885.22,-186.59 1832.25,-124 1801.42,-87.57 1665.98,-77.15 1586.67,-74.17"/>
<polygon fill="#63b8ff" stroke="#63b8ff" points="1586.98,-70.65 1576.86,-73.8 1586.74,-77.64 1586.98,-70.65"/>
</a>
</g>
</g>
<!-- Node14 -->
<g id="Node000014" class="node">
<title>Node14</title>
<g id="a_Node000014"><a xlink:title=" ">
<polygon fill="#e0e0e0" stroke="#999999" points="1650.62,-156 1555.88,-156 1555.88,-124 1650.62,-124 1650.62,-156"/>
<text text-anchor="start" x="1563.88" y="-142.5" font-family="Helvetica,sans-Serif" font-size="10.00">boost/serialization</text>
<text text-anchor="middle" x="1603.25" y="-130.5" font-family="Helvetica,sans-Serif" font-size="10.00">/string.hpp</text>
</a>
</g>
</g>
<!-- Node3&#45;&gt;Node14 -->
<g id="edge24_Node000003_Node000014" class="edge">
<title>Node3&#45;&gt;Node14</title>
<g id="a_edge24_Node000003_Node000014"><a xlink:title=" ">
<path fill="none" stroke="#63b8ff" d="M1620.7,-247.51C1617.85,-230.15 1611.72,-192.72 1607.54,-167.19"/>
<polygon fill="#63b8ff" stroke="#63b8ff" points="1610.85,-166.72 1605.77,-157.41 1603.94,-167.85 1610.85,-166.72"/>
</a>
</g>
</g>
<!-- Node3&#45;&gt;Node19 -->
<g id="edge34_Node000003_Node000019" class="edge">
<title>Node3&#45;&gt;Node19</title>
<g id="a_edge34_Node000003_Node000019"><a xlink:title=" ">
<path fill="none" stroke="#63b8ff" d="M1567.7,-255.29C1376.27,-248.75 743.5,-222.22 684.25,-156 574.32,-33.13 1302.47,-14.21 1476.49,-11.45"/>
<polygon fill="#63b8ff" stroke="#63b8ff" points="1476.42,-14.94 1486.37,-11.29 1476.31,-7.94 1476.42,-14.94"/>
</a>
</g>
</g>
<!-- Node21 -->
<g id="Node000021" class="node">
<title>Node21</title>
<g id="a_Node000021"><a xlink:title=" ">
<polygon fill="#e0e0e0" stroke="#999999" points="1823,-150 1781.5,-150 1781.5,-130 1823,-130 1823,-150"/>
<text text-anchor="middle" x="1802.25" y="-136.5" font-family="Helvetica,sans-Serif" font-size="10.00">vector</text>
</a>
</g>
</g>
<!-- Node3&#45;&gt;Node21 -->
<g id="edge35_Node000003_Node000021" class="edge">
<title>Node3&#45;&gt;Node21</title>
<g id="a_edge35_Node000003_Node000021"><a xlink:title=" ">
<path fill="none" stroke="#63b8ff" d="M1636.98,-247.51C1668.17,-227.4 1741.12,-180.4 1778.8,-156.11"/>
<polygon fill="#63b8ff" stroke="#63b8ff" points="1780.06,-158.82 1786.57,-150.46 1776.27,-152.94 1780.06,-158.82"/>
</a>
</g>
</g>
<!-- Node22 -->
<g id="Node000022" class="node">
<title>Node22</title>
<g id="a_Node000022"><a xlink:href="FMTobject_8hpp.html" target="_top" xlink:title=" ">
<polygon fill="white" stroke="#666666" points="1967.5,-212 1887,-212 1887,-192 1967.5,-192 1967.5,-212"/>
<text text-anchor="middle" x="1927.25" y="-198.5" font-family="Helvetica,sans-Serif" font-size="10.00">FMTobject.hpp</text>
</a>
</g>
</g>
<!-- Node3&#45;&gt;Node22 -->
<g id="edge25_Node000003_Node000022" class="edge">
<title>Node3&#45;&gt;Node22</title>
<g id="a_edge25_Node000003_Node000022"><a xlink:title=" ">
<path fill="none" stroke="#63b8ff" d="M1675.73,-247.53C1732.1,-237.55 1820.3,-221.94 1875.87,-212.1"/>
<polygon fill="#63b8ff" stroke="#63b8ff" points="1876.29,-215.4 1885.53,-210.21 1875.07,-208.51 1876.29,-215.4"/>
</a>
</g>
</g>
<!-- Node26 -->
<g id="Node000026" class="node">
<title>Node26</title>
<g id="a_Node000026"><a xlink:href="FMTexceptionhandler_8hpp.html" target="_top" xlink:title=" ">
<polygon fill="white" stroke="#666666" points="427.12,-212 299.38,-212 299.38,-192 427.12,-192 427.12,-212"/>
<text text-anchor="middle" x="363.25" y="-198.5" font-family="Helvetica,sans-Serif" font-size="10.00">FMTexceptionhandler.hpp</text>
</a>
</g>
</g>
<!-- Node3&#45;&gt;Node26 -->
<g id="edge37_Node000003_Node000026" class="edge">
<title>Node3&#45;&gt;Node26</title>
<g id="a_edge37_Node000003_Node000026"><a xlink:title=" ">
<path fill="none" stroke="#63b8ff" d="M1567.75,-254.66C1367.14,-246.06 669.52,-216.14 438.33,-206.22"/>
<polygon fill="#63b8ff" stroke="#63b8ff" points="438.49,-202.68 428.35,-205.75 438.19,-209.67 438.49,-202.68"/>
</a>
</g>
</g>
<!-- Node5 -->
<g id="Node000005" class="node">
<title>Node5</title>
<g id="a_Node000005"><a xlink:title=" ">
<polygon fill="#e0e0e0" stroke="#999999" points="1079.12,-150 951.38,-150 951.38,-130 1079.12,-130 1079.12,-150"/>
<text text-anchor="middle" x="1015.25" y="-136.5" font-family="Helvetica,sans-Serif" font-size="10.00">boost/dynamic_bitset.hpp</text>
</a>
</g>
</g>
<!-- Node4&#45;&gt;Node5 -->
<g id="edge4_Node000004_Node000005" class="edge">
<title>Node4&#45;&gt;Node5</title>
<g id="a_edge4_Node000004_Node000005"><a xlink:title=" ">
<path fill="none" stroke="#63b8ff" d="M1200.03,-191.62C1162.29,-181.29 1101.44,-164.61 1059.95,-153.25"/>
<polygon fill="#63b8ff" stroke="#63b8ff" points="1061.16,-149.67 1050.59,-150.41 1059.31,-156.43 1061.16,-149.67"/>
</a>
</g>
</g>
<!-- Node6 -->
<g id="Node000006" class="node">
<title>Node6</title>
<g id="a_Node000006"><a xlink:title=" ">
<polygon fill="#e0e0e0" stroke="#999999" points="1225.5,-150 1097,-150 1097,-130 1225.5,-130 1225.5,-150"/>
<text text-anchor="middle" x="1161.25" y="-136.5" font-family="Helvetica,sans-Serif" font-size="10.00">boost/unordered_map.hpp</text>
</a>
</g>
</g>
<!-- Node4&#45;&gt;Node6 -->
<g id="edge5_Node000004_Node000006" class="edge">
<title>Node4&#45;&gt;Node6</title>
<g id="a_edge5_Node000004_Node000006"><a xlink:title=" ">
<path fill="none" stroke="#63b8ff" d="M1222.84,-191.62C1211.53,-182.32 1193.98,-167.9 1180.5,-156.82"/>
<polygon fill="#63b8ff" stroke="#63b8ff" points="1183.28,-153.76 1173.34,-150.11 1178.84,-159.17 1183.28,-153.76"/>
</a>
</g>
</g>
<!-- Node7 -->
<g id="Node000007" class="node">
<title>Node7</title>
<g id="a_Node000007"><a xlink:title=" ">
<polygon fill="#e0e0e0" stroke="#999999" points="1372.5,-150 1244,-150 1244,-130 1372.5,-130 1372.5,-150"/>
<text text-anchor="middle" x="1308.25" y="-136.5" font-family="Helvetica,sans-Serif" font-size="10.00">boost/algorithm/string.hpp</text>
</a>
</g>
</g>
<!-- Node4&#45;&gt;Node7 -->
<g id="edge6_Node000004_Node000007" class="edge">
<title>Node4&#45;&gt;Node7</title>
<g id="a_edge6_Node000004_Node000007"><a xlink:title=" ">
<path fill="none" stroke="#63b8ff" d="M1245.81,-191.62C1257.28,-182.32 1275.08,-167.9 1288.74,-156.82"/>
<polygon fill="#63b8ff" stroke="#63b8ff" points="1290.45,-159.13 1296.01,-150.11 1286.04,-153.69 1290.45,-159.13"/>
</a>
</g>
</g>
<!-- Node8 -->
<g id="Node000008" class="node">
<title>Node8</title>
<g id="a_Node000008"><a xlink:title=" ">
<polygon fill="#e0e0e0" stroke="#999999" points="1500.12,-156 1390.38,-156 1390.38,-124 1500.12,-124 1500.12,-156"/>
<text text-anchor="start" x="1398.38" y="-142.5" font-family="Helvetica,sans-Serif" font-size="10.00">boost/algorithm/string</text>
<text text-anchor="middle" x="1445.25" y="-130.5" font-family="Helvetica,sans-Serif" font-size="10.00">/join.hpp</text>
</a>
</g>
</g>
<!-- Node4&#45;&gt;Node8 -->
<g id="edge7_Node000004_Node000008" class="edge">
<title>Node4&#45;&gt;Node8</title>
<g id="a_edge7_Node000004_Node000008"><a xlink:title=" ">
<path fill="none" stroke="#63b8ff" d="M1267.22,-191.62C1297.41,-183.04 1342.97,-170.08 1380.44,-159.43"/>
<polygon fill="#63b8ff" stroke="#63b8ff" points="1381.11,-162.59 1389.78,-156.49 1379.2,-155.86 1381.11,-162.59"/>
</a>
</g>
</g>
<!-- Node9 -->
<g id="Node000009" class="node">
<title>Node9</title>
<g id="a_Node000009"><a xlink:title=" ">
<polygon fill="#e0e0e0" stroke="#999999" points="820.75,-150 693.75,-150 693.75,-130 820.75,-130 820.75,-150"/>
<text text-anchor="middle" x="757.25" y="-136.5" font-family="Helvetica,sans-Serif" font-size="10.00">boost/functional/hash.hpp</text>
</a>
</g>
</g>
<!-- Node4&#45;&gt;Node9 -->
<g id="edge8_Node000004_Node000009" class="edge">
<title>Node4&#45;&gt;Node9</title>
<g id="a_edge8_Node000004_Node000009"><a xlink:title=" ">
<path fill="none" stroke="#63b8ff" d="M1194.81,-197.82C1122.33,-191.7 963.22,-177.02 830.25,-156 823.79,-154.98 817.04,-153.78 810.36,-152.5"/>
<polygon fill="#63b8ff" stroke="#63b8ff" points="811.46,-148.96 800.98,-150.46 810.11,-155.83 811.46,-148.96"/>
</a>
</g>
</g>
<!-- Node4&#45;&gt;Node10 -->
<g id="edge9_Node000004_Node000010" class="edge">
<title>Node4&#45;&gt;Node10</title>
<g id="a_edge9_Node000004_Node000010"><a xlink:title=" ">
<path fill="none" stroke="#63b8ff" d="M1194.94,-201.07C1084.59,-200.74 762.76,-196.13 499.25,-156 498.44,-155.88 497.63,-155.75 496.81,-155.61"/>
<polygon fill="#63b8ff" stroke="#63b8ff" points="497.51,-152 487.04,-153.61 496.23,-158.88 497.51,-152"/>
</a>
</g>
</g>
<!-- Node11 -->
<g id="Node000011" class="node">
<title>Node11</title>
<g id="a_Node000011"><a xlink:title=" ">
<polygon fill="#e0e0e0" stroke="#999999" points="933.62,-156 838.88,-156 838.88,-124 933.62,-124 933.62,-156"/>
<text text-anchor="start" x="846.88" y="-142.5" font-family="Helvetica,sans-Serif" font-size="10.00">boost/serialization</text>
<text text-anchor="middle" x="886.25" y="-130.5" font-family="Helvetica,sans-Serif" font-size="10.00">/split_free.hpp</text>
</a>
</g>
</g>
<!-- Node4&#45;&gt;Node11 -->
<g id="edge10_Node000004_Node000011" class="edge">
<title>Node4&#45;&gt;Node11</title>
<g id="a_edge10_Node000004_Node000011"><a xlink:title=" ">
<path fill="none" stroke="#63b8ff" d="M1194.8,-196.31C1140.5,-189.54 1039.49,-175.88 944.48,-156.34"/>
<polygon fill="#63b8ff" stroke="#63b8ff" points="945.33,-152.74 934.82,-154.12 943.9,-159.59 945.33,-152.74"/>
</a>
</g>
</g>
<!-- Node4&#45;&gt;Node12 -->
<g id="edge11_Node000004_Node000012" class="edge">
<title>Node4&#45;&gt;Node12</title>
<g id="a_edge11_Node000004_Node000012"><a xlink:title=" ">
<path fill="none" stroke="#63b8ff" d="M1273.79,-198.82C1347.48,-194.34 1510.87,-182.35 1657.92,-156.05"/>
<polygon fill="#63b8ff" stroke="#63b8ff" points="1658.26,-159.37 1667.47,-154.14 1657.01,-152.48 1658.26,-159.37"/>
</a>
</g>
</g>
<!-- Node4&#45;&gt;Node13 -->
<g id="edge12_Node000004_Node000013" class="edge">
<title>Node4&#45;&gt;Node13</title>
<g id="a_edge12_Node000004_Node000013"><a xlink:title=" ">
<path fill="none" stroke="#63b8ff" d="M1273.78,-199.81C1341.56,-196.93 1475.88,-187.34 1509.25,-156 1524.53,-141.65 1528.71,-117.74 1529.4,-99.26"/>
<polygon fill="#63b8ff" stroke="#63b8ff" points="1532.91,-99.34 1529.44,-89.32 1525.91,-99.31 1532.91,-99.34"/>
</a>
</g>
</g>
<!-- Node4&#45;&gt;Node14 -->
<g id="edge13_Node000004_Node000014" class="edge">
<title>Node4&#45;&gt;Node14</title>
<g id="a_edge13_Node000004_Node000014"><a xlink:title=" ">
<path fill="none" stroke="#63b8ff" d="M1273.84,-196.45C1332.67,-189.41 1446.52,-174.72 1542.25,-156 1543.05,-155.84 1543.86,-155.68 1544.67,-155.52"/>
<polygon fill="#63b8ff" stroke="#63b8ff" points="1545.35,-158.74 1554.4,-153.23 1543.89,-151.89 1545.35,-158.74"/>
</a>
</g>
</g>
<!-- Node15 -->
<g id="Node000015" class="node">
<title>Node15</title>
<g id="a_Node000015"><a xlink:href="FMTexception_8hpp.html" target="_top" xlink:title=" ">
<polygon fill="white" stroke="#666666" points="561.38,-82 465.12,-82 465.12,-62 561.38,-62 561.38,-82"/>
<text text-anchor="middle" x="513.25" y="-68.5" font-family="Helvetica,sans-Serif" font-size="10.00">FMTexception.hpp</text>
</a>
</g>
</g>
<!-- Node4&#45;&gt;Node15 -->
<g id="edge14_Node000004_Node000015" class="edge">
<title>Node4&#45;&gt;Node15</title>
<g id="a_edge14_Node000004_Node000015"><a xlink:title=" ">
<path fill="none" stroke="#63b8ff" d="M1194.82,-199.66C1085.57,-195.65 780.71,-182.36 684.25,-156 628.28,-140.71 568.54,-107.27 536.6,-87.83"/>
<polygon fill="#63b8ff" stroke="#63b8ff" points="538.96,-84.56 528.61,-82.28 535.28,-90.51 538.96,-84.56"/>
</a>
</g>
</g>
<!-- Node17 -->
<g id="Node000017" class="node">
<title>Node17</title>
<g id="a_Node000017"><a xlink:title=" ">
<polygon fill="#e0e0e0" stroke="#999999" points="413.25,-20 373.25,-20 373.25,0 413.25,0 413.25,-20"/>
<text text-anchor="middle" x="393.25" y="-6.5" font-family="Helvetica,sans-Serif" font-size="10.00">string</text>
</a>
</g>
</g>
<!-- Node4&#45;&gt;Node17 -->
<g id="edge21_Node000004_Node000017" class="edge">
<title>Node4&#45;&gt;Node17</title>
<g id="a_edge21_Node000004_Node000017"><a xlink:title=" ">
<path fill="none" stroke="#63b8ff" d="M1194.73,-200.04C1074.74,-196.85 715.98,-185.05 603.25,-156 533.54,-138.03 513.15,-132.09 456.25,-88 434.91,-71.46 416.14,-46.41 404.76,-29.41"/>
<polygon fill="#63b8ff" stroke="#63b8ff" points="407.33,-27.94 398.95,-21.45 401.46,-31.75 407.33,-27.94"/>
</a>
</g>
</g>
<!-- Node4&#45;&gt;Node21 -->
<g id="edge20_Node000004_Node000021" class="edge">
<title>Node4&#45;&gt;Node21</title>
<g id="a_edge20_Node000004_Node000021"><a xlink:title=" ">
<path fill="none" stroke="#63b8ff" d="M1273.61,-199.64C1381.18,-195.61 1678.28,-182.37 1772.25,-156 1773.57,-155.63 1774.91,-155.2 1776.24,-154.72"/>
<polygon fill="#63b8ff" stroke="#63b8ff" points="1777.4,-157.6 1785.2,-150.43 1774.63,-151.17 1777.4,-157.6"/>
</a>
</g>
</g>
<!-- Node16 -->
<g id="Node000016" class="node">
<title>Node16</title>
<g id="a_Node000016"><a xlink:title=" ">
<polygon fill="#e0e0e0" stroke="#999999" points="585.25,-20 527.25,-20 527.25,0 585.25,0 585.25,-20"/>
<text text-anchor="middle" x="556.25" y="-6.5" font-family="Helvetica,sans-Serif" font-size="10.00">exception</text>
</a>
</g>
</g>
<!-- Node15&#45;&gt;Node16 -->
<g id="edge15_Node000015_Node000016" class="edge">
<title>Node15&#45;&gt;Node16</title>
<g id="a_edge15_Node000015_Node000016"><a xlink:title=" ">
<path fill="none" stroke="#63b8ff" d="M519.97,-61.62C526.25,-52.86 535.8,-39.53 543.53,-28.75"/>
<polygon fill="#63b8ff" stroke="#63b8ff" points="546.74,-31.28 549.72,-21.11 541.05,-27.2 546.74,-31.28"/>
</a>
</g>
</g>
<!-- Node15&#45;&gt;Node17 -->
<g id="edge16_Node000015_Node000017" class="edge">
<title>Node15&#45;&gt;Node17</title>
<g id="a_edge16_Node000015_Node000017"><a xlink:title=" ">
<path fill="none" stroke="#63b8ff" d="M494.5,-61.62C474.95,-51.85 444.08,-36.41 421.56,-25.15"/>
<polygon fill="#63b8ff" stroke="#63b8ff" points="423.38,-21.65 412.87,-20.31 420.25,-27.91 423.38,-21.65"/>
</a>
</g>
</g>
<!-- Node18 -->
<g id="Node000018" class="node">
<title>Node18</title>
<g id="a_Node000018"><a xlink:title=" ">
<polygon fill="#e0e0e0" stroke="#999999" points="657,-20 603.5,-20 603.5,0 657,0 657,-20"/>
<text text-anchor="middle" x="630.25" y="-6.5" font-family="Helvetica,sans-Serif" font-size="10.00">iostream</text>
</a>
</g>
</g>
<!-- Node15&#45;&gt;Node18 -->
<g id="edge17_Node000015_Node000018" class="edge">
<title>Node15&#45;&gt;Node18</title>
<g id="a_edge17_Node000015_Node000018"><a xlink:title=" ">
<path fill="none" stroke="#63b8ff" d="M531.53,-61.62C550.51,-51.89 580.42,-36.55 602.35,-25.31"/>
<polygon fill="#63b8ff" stroke="#63b8ff" points="603.8,-27.99 611.1,-20.31 600.6,-21.76 603.8,-27.99"/>
</a>
</g>
</g>
<!-- Node15&#45;&gt;Node19 -->
<g id="edge18_Node000015_Node000019" class="edge">
<title>Node15&#45;&gt;Node19</title>
<g id="a_edge18_Node000015_Node000019"><a xlink:title=" ">
<path fill="none" stroke="#63b8ff" d="M547.13,-61.58C556.2,-59.39 566.04,-57.32 575.25,-56 753.96,-30.33 1325.53,-15.4 1476.43,-11.83"/>
<polygon fill="#63b8ff" stroke="#63b8ff" points="1476.44,-15.31 1486.35,-11.58 1476.28,-8.31 1476.44,-15.31"/>
</a>
</g>
</g>
<!-- Node20 -->
<g id="Node000020" class="node">
<title>Node20</title>
<g id="a_Node000020"><a xlink:href="FMTutility_8hpp.html" target="_top" xlink:title=" ">
<polygon fill="white" stroke="#666666" points="509,-20 431.5,-20 431.5,0 509,0 509,-20"/>
<text text-anchor="middle" x="470.25" y="-6.5" font-family="Helvetica,sans-Serif" font-size="10.00">FMTutility.hpp</text>
</a>
</g>
</g>
<!-- Node15&#45;&gt;Node20 -->
<g id="edge19_Node000015_Node000020" class="edge">
<title>Node15&#45;&gt;Node20</title>
<g id="a_edge19_Node000015_Node000020"><a xlink:title=" ">
<path fill="none" stroke="#63b8ff" d="M506.53,-61.62C500.25,-52.86 490.7,-39.53 482.97,-28.75"/>
<polygon fill="#63b8ff" stroke="#63b8ff" points="485.45,-27.2 476.78,-21.11 479.76,-31.28 485.45,-27.2"/>
</a>
</g>
</g>
<!-- Node22&#45;&gt;Node12 -->
<g id="edge27_Node000022_Node000012" class="edge">
<title>Node22&#45;&gt;Node12</title>
<g id="a_edge27_Node000022_Node000012"><a xlink:title=" ">
<path fill="none" stroke="#63b8ff" d="M1894.28,-191.62C1862.29,-182.53 1813.04,-168.52 1774.45,-157.55"/>
<polygon fill="#63b8ff" stroke="#63b8ff" points="1775.44,-153.91 1764.87,-154.54 1773.53,-160.64 1775.44,-153.91"/>
</a>
</g>
</g>
<!-- Node22&#45;&gt;Node13 -->
<g id="edge28_Node000022_Node000013" class="edge">
<title>Node22&#45;&gt;Node13</title>
<g id="a_edge28_Node000022_Node000013"><a xlink:title=" ">
<path fill="none" stroke="#63b8ff" d="M1927.34,-191.71C1926.95,-175.27 1923.57,-141.18 1903.25,-124 1856.67,-84.61 1680.34,-75.53 1587.01,-73.51"/>
<polygon fill="#63b8ff" stroke="#63b8ff" points="1587.13,-70 1577.06,-73.3 1586.99,-77 1587.13,-70"/>
</a>
</g>
</g>
<!-- Node22&#45;&gt;Node15 -->
<g id="edge29_Node000022_Node000015" class="edge">
<title>Node22&#45;&gt;Node15</title>
<g id="a_edge29_Node000022_Node000015"><a xlink:title=" ">
<path fill="none" stroke="#63b8ff" d="M1919.56,-191.66C1904.76,-174.49 1870.4,-138.36 1832.25,-124 1713.55,-79.34 813.92,-73.78 572.64,-73.1"/>
<polygon fill="#63b8ff" stroke="#63b8ff" points="572.66,-69.59 562.65,-73.07 572.65,-76.59 572.66,-69.59"/>
</a>
</g>
</g>
<!-- Node22&#45;&gt;Node19 -->
<g id="edge30_Node000022_Node000019" class="edge">
<title>Node22&#45;&gt;Node19</title>
<g id="a_edge30_Node000022_Node000019"><a xlink:title=" ">
<path fill="none" stroke="#63b8ff" d="M1967.7,-198.54C2052.97,-192.96 2244.96,-178.04 2264.25,-156 2273.62,-145.3 2273.53,-134.78 2264.25,-124 2170.13,-14.66 1688.09,-9.68 1550.16,-10.54"/>
<polygon fill="#63b8ff" stroke="#63b8ff" points="1550.34,-7.05 1540.36,-10.62 1550.39,-14.05 1550.34,-7.05"/>
</a>
</g>
</g>
<!-- Node22&#45;&gt;Node21 -->
<g id="edge32_Node000022_Node000021" class="edge">
<title>Node22&#45;&gt;Node21</title>
<g id="a_edge32_Node000022_Node000021"><a xlink:title=" ">
<path fill="none" stroke="#63b8ff" d="M1907.72,-191.62C1887.26,-181.81 1854.9,-166.27 1831.42,-155"/>
<polygon fill="#63b8ff" stroke="#63b8ff" points="1833.17,-151.48 1822.64,-150.31 1830.14,-157.79 1833.17,-151.48"/>
</a>
</g>
</g>
<!-- Node23 -->
<g id="Node000023" class="node">
<title>Node23</title>
<g id="a_Node000023"><a xlink:title=" ">
<polygon fill="#e0e0e0" stroke="#999999" points="2049.62,-156 1954.88,-156 1954.88,-124 2049.62,-124 2049.62,-156"/>
<text text-anchor="start" x="1962.88" y="-142.5" font-family="Helvetica,sans-Serif" font-size="10.00">boost/serialization</text>
<text text-anchor="middle" x="2002.25" y="-130.5" font-family="Helvetica,sans-Serif" font-size="10.00">/shared_ptr.hpp</text>
</a>
</g>
</g>
<!-- Node22&#45;&gt;Node23 -->
<g id="edge26_Node000022_Node000023" class="edge">
<title>Node22&#45;&gt;Node23</title>
<g id="a_edge26_Node000022_Node000023"><a xlink:title=" ">
<path fill="none" stroke="#63b8ff" d="M1938.97,-191.62C1948.45,-184.04 1962.19,-173.05 1974.45,-163.24"/>
<polygon fill="#63b8ff" stroke="#63b8ff" points="1976.41,-165.35 1982.03,-156.37 1972.04,-159.89 1976.41,-165.35"/>
</a>
</g>
</g>
<!-- Node24 -->
<g id="Node000024" class="node">
<title>Node24</title>
<g id="a_Node000024"><a xlink:title=" ">
<polygon fill="#e0e0e0" stroke="#999999" points="2112.88,-150 2067.62,-150 2067.62,-130 2112.88,-130 2112.88,-150"/>
<text text-anchor="middle" x="2090.25" y="-136.5" font-family="Helvetica,sans-Serif" font-size="10.00">chrono</text>
</a>
</g>
</g>
<!-- Node22&#45;&gt;Node24 -->
<g id="edge31_Node000022_Node000024" class="edge">
<title>Node22&#45;&gt;Node24</title>
<g id="a_edge31_Node000022_Node000024"><a xlink:title=" ">
<path fill="none" stroke="#63b8ff" d="M1957.77,-191.54C1984.54,-183.01 2024.37,-169.71 2058.25,-156 2059.3,-155.57 2060.37,-155.13 2061.44,-154.68"/>
<polygon fill="#63b8ff" stroke="#63b8ff" points="2062.39,-157.64 2070.11,-150.38 2059.55,-151.24 2062.39,-157.64"/>
</a>
</g>
</g>
<!-- Node25 -->
<g id="Node000025" class="node">
<title>Node25</title>
<g id="a_Node000025"><a xlink:title=" ">
<polygon fill="#e0e0e0" stroke="#999999" points="2255.62,-156 2130.88,-156 2130.88,-124 2255.62,-124 2255.62,-156"/>
<text text-anchor="start" x="2138.88" y="-142.5" font-family="Helvetica,sans-Serif" font-size="10.00">boost/dll/runtime_symbol</text>
<text text-anchor="middle" x="2193.25" y="-130.5" font-family="Helvetica,sans-Serif" font-size="10.00">_info.hpp</text>
</a>
</g>
</g>
<!-- Node22&#45;&gt;Node25 -->
<g id="edge33_Node000022_Node000025" class="edge">
<title>Node22&#45;&gt;Node25</title>
<g id="a_edge33_Node000022_Node000025"><a xlink:title=" ">
<path fill="none" stroke="#63b8ff" d="M1967.94,-191.82C2008.28,-182.72 2070.97,-168.58 2119.99,-157.52"/>
<polygon fill="#63b8ff" stroke="#63b8ff" points="2120.56,-160.76 2129.55,-155.14 2119.02,-153.93 2120.56,-160.76"/>
</a>
</g>
</g>
<!-- Node26&#45;&gt;Node10 -->
<g id="edge45_Node000026_Node000010" class="edge">
<title>Node26&#45;&gt;Node10</title>
<g id="a_edge45_Node000026_Node000010"><a xlink:title=" ">
<path fill="none" stroke="#63b8ff" d="M374.97,-191.62C384.45,-184.04 398.19,-173.05 410.45,-163.24"/>
<polygon fill="#63b8ff" stroke="#63b8ff" points="412.41,-165.35 418.03,-156.37 408.04,-159.89 412.41,-165.35"/>
</a>
</g>
</g>
<!-- Node26&#45;&gt;Node12 -->
<g id="edge46_Node000026_Node000012" class="edge">
<title>Node26&#45;&gt;Node12</title>
<g id="a_edge46_Node000026_Node000012"><a xlink:title=" ">
<path fill="none" stroke="#63b8ff" d="M427.49,-200.66C651.31,-199.18 1396.81,-191.75 1657.94,-155.89"/>
<polygon fill="#63b8ff" stroke="#63b8ff" points="1658.11,-159.26 1667.52,-154.39 1657.12,-152.33 1658.11,-159.26"/>
</a>
</g>
</g>
<!-- Node26&#45;&gt;Node13 -->
<g id="edge47_Node000026_Node000013" class="edge">
<title>Node26&#45;&gt;Node13</title>
<g id="a_edge47_Node000026_Node000013"><a xlink:title=" ">
<path fill="none" stroke="#63b8ff" d="M391.05,-191.54C441.96,-174.66 553.91,-139.68 651.25,-124 956.55,-74.83 1328.39,-71.56 1469.85,-72.32"/>
<polygon fill="#63b8ff" stroke="#63b8ff" points="1469.8,-75.83 1479.83,-72.39 1469.85,-68.83 1469.8,-75.83"/>
</a>
</g>
</g>
<!-- Node26&#45;&gt;Node19 -->
<g id="edge48_Node000026_Node000019" class="edge">
<title>Node26&#45;&gt;Node19</title>
<g id="a_edge48_Node000026_Node000019"><a xlink:title=" ">
<path fill="none" stroke="#63b8ff" d="M362.59,-191.62C362.01,-175.34 363.37,-141.91 382.25,-124 443.97,-65.45 492.38,-122.26 570.25,-88 592.06,-78.41 590.83,-64.05 613.25,-56 695.39,-26.5 1318.14,-14.24 1476.64,-11.58"/>
<polygon fill="#63b8ff" stroke="#63b8ff" points="1476.3,-15.07 1486.24,-11.4 1476.18,-8.07 1476.3,-15.07"/>
</a>
</g>
</g>
<!-- Node27 -->
<g id="Node000027" class="node">
<title>Node27</title>
<g id="a_Node000027"><a xlink:href="FMTlogger_8hpp.html" target="_top" xlink:title=" ">
<polygon fill="white" stroke="#666666" points="80.5,-150 0,-150 0,-130 80.5,-130 80.5,-150"/>
<text text-anchor="middle" x="40.25" y="-136.5" font-family="Helvetica,sans-Serif" font-size="10.00">FMTlogger.hpp</text>
</a>
</g>
</g>
<!-- Node26&#45;&gt;Node27 -->
<g id="edge38_Node000026_Node000027" class="edge">
<title>Node26&#45;&gt;Node27</title>
<g id="a_edge38_Node000026_Node000027"><a xlink:title=" ">
<path fill="none" stroke="#63b8ff" d="M299.1,-192.95C243.27,-185.35 160.36,-172.64 89.25,-156 86.02,-155.24 82.69,-154.39 79.36,-153.48"/>
<polygon fill="#63b8ff" stroke="#63b8ff" points="80.41,-149.86 69.83,-150.46 78.48,-156.58 80.41,-149.86"/>
</a>
</g>
</g>
<!-- Node30 -->
<g id="Node000030" class="node">
<title>Node30</title>
<g id="a_Node000030"><a xlink:title=" ">
<polygon fill="#e0e0e0" stroke="#999999" points="335.62,-150 252.88,-150 252.88,-130 335.62,-130 335.62,-150"/>
<text text-anchor="middle" x="294.25" y="-136.5" font-family="Helvetica,sans-Serif" font-size="10.00">unordered_map</text>
</a>
</g>
</g>
<!-- Node26&#45;&gt;Node30 -->
<g id="edge44_Node000026_Node000030" class="edge">
<title>Node26&#45;&gt;Node30</title>
<g id="a_edge44_Node000026_Node000030"><a xlink:title=" ">
<path fill="none" stroke="#63b8ff" d="M352.47,-191.62C341.87,-182.41 325.5,-168.17 312.81,-157.14"/>
<polygon fill="#63b8ff" stroke="#63b8ff" points="315.57,-154.03 305.73,-150.11 310.98,-159.32 315.57,-154.03"/>
</a>
</g>
</g>
<!-- Node31 -->
<g id="Node000031" class="node">
<title>Node31</title>
<g id="a_Node000031"><a xlink:title=" ">
<polygon fill="#e0e0e0" stroke="#999999" points="128,-150 98.5,-150 98.5,-130 128,-130 128,-150"/>
<text text-anchor="middle" x="113.25" y="-136.5" font-family="Helvetica,sans-Serif" font-size="10.00">set</text>
</a>
</g>
</g>
<!-- Node26&#45;&gt;Node31 -->
<g id="edge49_Node000026_Node000031" class="edge">
<title>Node26&#45;&gt;Node31</title>
<g id="a_edge49_Node000026_Node000031"><a xlink:title=" ">
<path fill="none" stroke="#63b8ff" d="M299.15,-194.51C252.92,-188.34 189.69,-176.8 137.25,-156 136.91,-155.86 136.56,-155.72 136.22,-155.58"/>
<polygon fill="#63b8ff" stroke="#63b8ff" points="137.98,-152.02 127.5,-150.47 134.72,-158.22 137.98,-152.02"/>
</a>
</g>
</g>
<!-- Node32 -->
<g id="Node000032" class="node">
<title>Node32</title>
<g id="a_Node000032"><a xlink:title=" ">
<polygon fill="#e0e0e0" stroke="#999999" points="234.62,-150 145.88,-150 145.88,-130 234.62,-130 234.62,-150"/>
<text text-anchor="middle" x="190.25" y="-136.5" font-family="Helvetica,sans-Serif" font-size="10.00">boost/thread.hpp</text>
</a>
</g>
</g>
<!-- Node26&#45;&gt;Node32 -->
<g id="edge50_Node000026_Node000032" class="edge">
<title>Node26&#45;&gt;Node32</title>
<g id="a_edge50_Node000026_Node000032"><a xlink:title=" ">
<path fill="none" stroke="#63b8ff" d="M336.22,-191.62C306.98,-181.48 260.16,-165.25 227.46,-153.9"/>
<polygon fill="#63b8ff" stroke="#63b8ff" points="228.97,-150.38 218.38,-150.41 226.68,-156.99 228.97,-150.38"/>
</a>
</g>
</g>
<!-- Node27&#45;&gt;Node13 -->
<g id="edge39_Node000027_Node000013" class="edge">
<title>Node27&#45;&gt;Node13</title>
<g id="a_edge39_Node000027_Node000013"><a xlink:title=" ">
<path fill="none" stroke="#63b8ff" d="M66.65,-129.54C73.88,-127.33 81.79,-125.25 89.25,-124 361.51,-78.32 1235.13,-73.5 1469.77,-73.04"/>
<polygon fill="#63b8ff" stroke="#63b8ff" points="1469.46,-76.54 1479.46,-73.02 1469.45,-69.54 1469.46,-76.54"/>
</a>
</g>
</g>
<!-- Node27&#45;&gt;Node15 -->
<g id="edge43_Node000027_Node000015" class="edge">
<title>Node27&#45;&gt;Node15</title>
<g id="a_edge43_Node000027_Node000015"><a xlink:title=" ">
<path fill="none" stroke="#63b8ff" d="M68.01,-129.57C74.89,-127.49 82.29,-125.47 89.25,-124 217.72,-96.83 371.37,-82.85 453.87,-76.81"/>
<polygon fill="#63b8ff" stroke="#63b8ff" points="454.06,-80.23 463.79,-76.02 453.56,-73.25 454.06,-80.23"/>
</a>
</g>
</g>
<!-- Node27&#45;&gt;Node17 -->
<g id="edge42_Node000027_Node000017" class="edge">
<title>Node27&#45;&gt;Node17</title>
<g id="a_edge42_Node000027_Node000017"><a xlink:title=" ">
<path fill="none" stroke="#63b8ff" d="M32.69,-129.53C20.2,-112.68 -1.61,-77.25 17.25,-56 40.04,-30.32 276,-16.59 362.06,-12.4"/>
<polygon fill="#63b8ff" stroke="#63b8ff" points="362.12,-15.86 371.94,-11.88 361.79,-8.86 362.12,-15.86"/>
</a>
</g>
</g>
<!-- Node28 -->
<g id="Node000028" class="node">
<title>Node28</title>
<g id="a_Node000028"><a xlink:title=" ">
<polygon fill="#e0e0e0" stroke="#999999" points="137.88,-88 26.62,-88 26.62,-56 137.88,-56 137.88,-88"/>
<text text-anchor="start" x="34.62" y="-74.5" font-family="Helvetica,sans-Serif" font-size="10.00">boost/thread/recursive</text>
<text text-anchor="middle" x="82.25" y="-62.5" font-family="Helvetica,sans-Serif" font-size="10.00">_mutex.hpp</text>
</a>
</g>
</g>
<!-- Node27&#45;&gt;Node28 -->
<g id="edge40_Node000027_Node000028" class="edge">
<title>Node27&#45;&gt;Node28</title>
<g id="a_edge40_Node000027_Node000028"><a xlink:title=" ">
<path fill="none" stroke="#63b8ff" d="M46.27,-129.54C51.62,-121.13 59.68,-108.47 66.82,-97.25"/>
<polygon fill="#63b8ff" stroke="#63b8ff" points="70.1,-99.62 72.51,-89.3 64.19,-95.86 70.1,-99.62"/>
</a>
</g>
</g>
<!-- Node29 -->
<g id="Node000029" class="node">
<title>Node29</title>
<g id="a_Node000029"><a xlink:title=" ">
<polygon fill="#e0e0e0" stroke="#999999" points="204.38,-82 156.12,-82 156.12,-62 204.38,-62 204.38,-82"/>
<text text-anchor="middle" x="180.25" y="-68.5" font-family="Helvetica,sans-Serif" font-size="10.00">fstream</text>
</a>
</g>
</g>
<!-- Node27&#45;&gt;Node29 -->
<g id="edge41_Node000027_Node000029" class="edge">
<title>Node27&#45;&gt;Node29</title>
<g id="a_edge41_Node000027_Node000029"><a xlink:title=" ">
<path fill="none" stroke="#63b8ff" d="M60.31,-129.54C83.91,-118.42 123.31,-99.84 150.47,-87.04"/>
<polygon fill="#63b8ff" stroke="#63b8ff" points="151.68,-89.87 159.23,-82.44 148.69,-83.54 151.68,-89.87"/>
</a>
</g>
</g>
<!-- Node33&#45;&gt;Node3 -->
<g id="edge55_Node000033_Node000003" class="edge">
<title>Node33&#45;&gt;Node3</title>
<g id="a_edge55_Node000033_Node000003"><a xlink:title=" ">
<path fill="none" stroke="#63b8ff" d="M1622.25,-309.62C1622.25,-301.48 1622.25,-289.39 1622.25,-279.07"/>
<polygon fill="#63b8ff" stroke="#63b8ff" points="1625.75,-279.11 1622.25,-269.11 1618.75,-279.11 1625.75,-279.11"/>
</a>
</g>
</g>
<!-- Node33&#45;&gt;Node10 -->
<g id="edge56_Node000033_Node000010" class="edge">
<title>Node33&#45;&gt;Node10</title>
<g id="a_edge56_Node000033_Node000010"><a xlink:title=" ">
<path fill="none" stroke="#63b8ff" d="M1554.78,-319.14C1331.28,-319.16 624.21,-315.43 534.25,-268 523.08,-262.11 478.97,-199.96 454.62,-164.84"/>
<polygon fill="#63b8ff" stroke="#63b8ff" points="457.16,-163.37 448.6,-157.13 451.41,-167.35 457.16,-163.37"/>
</a>
</g>
</g>
<!-- Node33&#45;&gt;Node12 -->
<g id="edge57_Node000033_Node000012" class="edge">
<title>Node33&#45;&gt;Node12</title>
<g id="a_edge57_Node000033_Node000012"><a xlink:title=" ">
<path fill="none" stroke="#63b8ff" d="M1639.33,-309.53C1653.74,-300.66 1673.8,-286.07 1685.25,-268 1704.93,-236.94 1712.12,-194.32 1714.74,-167.22"/>
<polygon fill="#63b8ff" stroke="#63b8ff" points="1718.31,-167.55 1715.63,-157.3 1711.33,-166.98 1718.31,-167.55"/>
</a>
</g>
</g>
<!-- Node33&#45;&gt;Node13 -->
<g id="edge58_Node000033_Node000013" class="edge">
<title>Node33&#45;&gt;Node13</title>
<g id="a_edge58_Node000033_Node000013"><a xlink:title=" ">
<path fill="none" stroke="#63b8ff" d="M1554.5,-318C1358.26,-313.53 796.24,-289.13 684.25,-156 675.09,-145.12 674.5,-134.36 684.25,-124 711.15,-95.42 1282.22,-79 1469.41,-74.37"/>
<polygon fill="#63b8ff" stroke="#63b8ff" points="1469.48,-77.84 1479.4,-74.1 1469.31,-70.84 1469.48,-77.84"/>
</a>
</g>
</g>
</g>
</svg>

<g id="navigator" transform="translate(0 0)" fill="#404254">
  <rect fill="#f2f5e9" fill-opacity="0.5" stroke="#606060" stroke-width=".5" x="0" y="0" width="60" height="60"/>
  <use id="zoomplus" xlink:href="#zoomPlus" x="17" y="9" onmousedown="handleZoom(evt,'in')"/>
  <use id="zoomminus" xlink:href="#zoomMin" x="42" y="9" onmousedown="handleZoom(evt,'out')"/>
  <use id="reset" xlink:href="#resetDef" x="30" y="36" onmousedown="handleReset()"/>
   <use id="arrowup" xlink:href="#arrowUp" x="0" y="0" onmousedown="handlePan(0,-1)"/>
  <use id="arrowright" xlink:href="#arrowRight" x="0" y="0" onmousedown="handlePan(1,0)"/>
  <use id="arrowdown" xlink:href="#arrowDown" x="0" y="0" onmousedown="handlePan(0,1)"/>
  <use id="arrowleft" xlink:href="#arrowLeft" x="0" y="0" onmousedown="handlePan(-1,0)"/>
</g>
<svg viewBox="0 0 15 15" width="100%" height="30px" preserveAspectRatio="xMaxYMin meet">
 <g id="arrow_out" transform="scale(0.3 0.3)">
  <a xlink:href="FMTbasevertexproperties_8hpp__incl_org.svg" target="_base">
   <rect id="button" ry="5" rx="5" y="6" x="6" height="38" width="38"
        fill="#f2f5e9" fill-opacity="0.5" stroke="#606060" stroke-width="1.0"/>
   <path id="arrow"
     d="M 11.500037,31.436501 C 11.940474,20.09759 22.043105,11.32322 32.158766,21.979434 L 37.068811,17.246167 C 37.068811,17.246167 37.088388,32 37.088388,32 L 22.160133,31.978069 C 22.160133,31.978069 26.997745,27.140456 26.997745,27.140456 C 18.528582,18.264221 13.291696,25.230495 11.500037,31.436501 z"
     style="fill:#404040;"/>
  </a>
 </g>
</svg>

<style type='text/css'>
<![CDATA[
[data-mouse-over-selected='false'] { opacity: 0.7; }
[data-mouse-over-selected='true']  { opacity: 1.0; }
]]>
</style>
<script type="application/ecmascript"><![CDATA[
document.addEventListener('DOMContentLoaded', (event) => {
  highlightEdges();
  highlightAdjacentNodes();
});
]]></script>
</svg>
