<?xml version="1.0" encoding="UTF-8" standalone="no"?>
<!DOCTYPE svg PUBLIC "-//W3C//DTD SVG 1.1//EN"
 "http://www.w3.org/Graphics/SVG/1.1/DTD/svg11.dtd">
<!-- Generated by graphviz version 10.0.1 (20240210.2158)
 -->
<!-- Title: D:/FMT/Include/FMTcoordinate.hpp Pages: 1 -->
<svg width="860pt" height="152pt"
 viewBox="0.00 0.00 860.38 152.00" xmlns="http://www.w3.org/2000/svg" xmlns:xlink="http://www.w3.org/1999/xlink">
<g id="graph0" class="graph" transform="scale(1 1) rotate(0) translate(4 148)">
<title>D:/FMT/Include/FMTcoordinate.hpp</title>
<!-- Node1 -->
<g id="node1" class="node">
<title>Node1</title>
<g id="a_node1"><a xlink:title=" ">
<polygon fill="#999999" stroke="#666666" points="502.75,-144 334.5,-144 334.5,-124 502.75,-124 502.75,-144"/>
<text text-anchor="middle" x="418.62" y="-130.5" font-family="Helvetica,sans-Serif" font-size="10.00">D:/FMT/Include/FMTcoordinate.hpp</text>
</a>
</g>
</g>
<!-- Node2 -->
<g id="node2" class="node">
<title>Node2</title>
<g id="a_node2"><a xlink:title=" ">
<polygon fill="#e0e0e0" stroke="#999999" points="51.25,-20 0,-20 0,0 51.25,0 51.25,-20"/>
<text text-anchor="middle" x="25.62" y="-6.5" font-family="Helvetica,sans-Serif" font-size="10.00">memory</text>
</a>
</g>
</g>
<!-- Node1&#45;&gt;Node2 -->
<g id="edge1" class="edge">
<title>Node1&#45;&gt;Node2</title>
<path fill="none" stroke="#63b8ff" d="M334.17,-129.15C248.85,-123.96 123.93,-112.39 82.62,-88 60.08,-74.69 43.71,-48.63 34.44,-30.54"/>
<polygon fill="#63b8ff" stroke="#63b8ff" points="37.64,-29.11 30.15,-21.61 31.33,-32.14 37.64,-29.11"/>
</g>
<!-- Node3 -->
<g id="node3" class="node">
<title>Node3</title>
<g id="a_node3"><a xlink:title=" ">
<polygon fill="#e0e0e0" stroke="#999999" points="350.88,-82 222.38,-82 222.38,-62 350.88,-62 350.88,-82"/>
<text text-anchor="middle" x="286.62" y="-68.5" font-family="Helvetica,sans-Serif" font-size="10.00">boost/unordered_map.hpp</text>
</a>
</g>
</g>
<!-- Node1&#45;&gt;Node3 -->
<g id="edge2" class="edge">
<title>Node1&#45;&gt;Node3</title>
<path fill="none" stroke="#63b8ff" d="M398,-123.62C376.4,-113.81 342.23,-98.27 317.43,-87"/>
<polygon fill="#63b8ff" stroke="#63b8ff" points="319.04,-83.89 308.48,-82.94 316.14,-90.26 319.04,-83.89"/>
</g>
<!-- Node4 -->
<g id="node4" class="node">
<title>Node4</title>
<g id="a_node4"><a xlink:title=" ">
<polygon fill="#e0e0e0" stroke="#999999" points="410.38,-82 368.88,-82 368.88,-62 410.38,-62 410.38,-82"/>
<text text-anchor="middle" x="389.62" y="-68.5" font-family="Helvetica,sans-Serif" font-size="10.00">vector</text>
</a>
</g>
</g>
<!-- Node1&#45;&gt;Node4 -->
<g id="edge3" class="edge">
<title>Node1&#45;&gt;Node4</title>
<path fill="none" stroke="#63b8ff" d="M414.09,-123.62C410.07,-115.3 404.06,-102.86 399,-92.4"/>
<polygon fill="#63b8ff" stroke="#63b8ff" points="402.19,-90.96 394.69,-83.48 395.89,-94 402.19,-90.96"/>
</g>
<!-- Node5 -->
<g id="node5" class="node">
<title>Node5</title>
<g id="a_node5"><a xlink:title=" ">
<polygon fill="#e0e0e0" stroke="#999999" points="466.5,-82 428.75,-82 428.75,-62 466.5,-62 466.5,-82"/>
<text text-anchor="middle" x="447.62" y="-68.5" font-family="Helvetica,sans-Serif" font-size="10.00">array</text>
</a>
</g>
</g>
<!-- Node1&#45;&gt;Node5 -->
<g id="edge4" class="edge">
<title>Node1&#45;&gt;Node5</title>
<path fill="none" stroke="#63b8ff" d="M423.16,-123.62C427.18,-115.3 433.19,-102.86 438.25,-92.4"/>
<polygon fill="#63b8ff" stroke="#63b8ff" points="441.36,-94 442.56,-83.48 435.06,-90.96 441.36,-94"/>
</g>
<!-- Node6 -->
<g id="node6" class="node">
<title>Node6</title>
<g id="a_node6"><a xlink:title=" ">
<polygon fill="#e0e0e0" stroke="#999999" points="579,-88 484.25,-88 484.25,-56 579,-56 579,-88"/>
<text text-anchor="start" x="492.25" y="-74.5" font-family="Helvetica,sans-Serif" font-size="10.00">boost/serialization</text>
<text text-anchor="middle" x="531.62" y="-62.5" font-family="Helvetica,sans-Serif" font-size="10.00">/serialization.hpp</text>
</a>
</g>
</g>
<!-- Node1&#45;&gt;Node6 -->
<g id="edge5" class="edge">
<title>Node1&#45;&gt;Node6</title>
<path fill="none" stroke="#63b8ff" d="M436.28,-123.62C451.33,-115.63 473.5,-103.86 492.68,-93.68"/>
<polygon fill="#63b8ff" stroke="#63b8ff" points="494.14,-96.86 501.33,-89.08 490.86,-90.68 494.14,-96.86"/>
</g>
<!-- Node7 -->
<g id="node7" class="node">
<title>Node7</title>
<g id="a_node7"><a xlink:title=" ">
<polygon fill="#e0e0e0" stroke="#999999" points="692,-88 597.25,-88 597.25,-56 692,-56 692,-88"/>
<text text-anchor="start" x="605.25" y="-74.5" font-family="Helvetica,sans-Serif" font-size="10.00">boost/serialization</text>
<text text-anchor="middle" x="644.62" y="-62.5" font-family="Helvetica,sans-Serif" font-size="10.00">/nvp.hpp</text>
</a>
</g>
</g>
<!-- Node1&#45;&gt;Node7 -->
<g id="edge6" class="edge">
<title>Node1&#45;&gt;Node7</title>
<path fill="none" stroke="#63b8ff" d="M454.19,-123.56C489.56,-114.17 544.44,-99.6 586.22,-88.51"/>
<polygon fill="#63b8ff" stroke="#63b8ff" points="586.85,-91.96 595.62,-86.01 585.06,-85.19 586.85,-91.96"/>
</g>
<!-- Node8 -->
<g id="node8" class="node">
<title>Node8</title>
<g id="a_node8"><a xlink:title=" ">
<polygon fill="#e0e0e0" stroke="#999999" points="805,-88 710.25,-88 710.25,-56 805,-56 805,-88"/>
<text text-anchor="start" x="718.25" y="-74.5" font-family="Helvetica,sans-Serif" font-size="10.00">boost/serialization</text>
<text text-anchor="middle" x="757.62" y="-62.5" font-family="Helvetica,sans-Serif" font-size="10.00">/array.hpp</text>
</a>
</g>
</g>
<!-- Node1&#45;&gt;Node8 -->
<g id="edge7" class="edge">
<title>Node1&#45;&gt;Node8</title>
<path fill="none" stroke="#63b8ff" d="M490.55,-123.53C545.19,-115.87 622.37,-104.08 699,-88.21"/>
<polygon fill="#63b8ff" stroke="#63b8ff" points="699.26,-91.74 708.33,-86.26 697.83,-84.89 699.26,-91.74"/>
</g>
<!-- Node9 -->
<g id="node9" class="node">
<title>Node9</title>
<g id="a_node9"><a xlink:title=" ">
<polygon fill="#e0e0e0" stroke="#999999" points="109.62,-20 69.62,-20 69.62,0 109.62,0 109.62,-20"/>
<text text-anchor="middle" x="89.62" y="-6.5" font-family="Helvetica,sans-Serif" font-size="10.00">string</text>
</a>
</g>
</g>
<!-- Node1&#45;&gt;Node9 -->
<g id="edge8" class="edge">
<title>Node1&#45;&gt;Node9</title>
<path fill="none" stroke="#63b8ff" d="M334.07,-132.28C250.76,-129.67 131.48,-120.21 99.62,-88 85.21,-73.42 84.39,-48.99 86.1,-31.56"/>
<polygon fill="#63b8ff" stroke="#63b8ff" points="89.55,-32.22 87.43,-21.84 82.61,-31.27 89.55,-32.22"/>
</g>
<!-- Node10 -->
<g id="node10" class="node">
<title>Node10</title>
<g id="a_node10"><a xlink:title=" ">
<polygon fill="#e0e0e0" stroke="#999999" points="852.38,-82 822.88,-82 822.88,-62 852.38,-62 852.38,-82"/>
<text text-anchor="middle" x="837.62" y="-68.5" font-family="Helvetica,sans-Serif" font-size="10.00">set</text>
</a>
</g>
</g>
<!-- Node1&#45;&gt;Node10 -->
<g id="edge9" class="edge">
<title>Node1&#45;&gt;Node10</title>
<path fill="none" stroke="#63b8ff" d="M503.22,-127.76C601.77,-120.88 758.16,-107.37 813.62,-88 813.99,-87.87 814.36,-87.74 814.72,-87.6"/>
<polygon fill="#63b8ff" stroke="#63b8ff" points="816.3,-90.72 823.61,-83.06 813.11,-84.49 816.3,-90.72"/>
</g>
<!-- Node11 -->
<g id="node11" class="node">
<title>Node11</title>
<g id="a_node11"><a xlink:href="FMTexception_8hpp.html" target="_top" xlink:title=" ">
<polygon fill="white" stroke="#666666" points="204.75,-82 108.5,-82 108.5,-62 204.75,-62 204.75,-82"/>
<text text-anchor="middle" x="156.62" y="-68.5" font-family="Helvetica,sans-Serif" font-size="10.00">FMTexception.hpp</text>
</a>
</g>
</g>
<!-- Node1&#45;&gt;Node11 -->
<g id="edge10" class="edge">
<title>Node1&#45;&gt;Node11</title>
<path fill="none" stroke="#63b8ff" d="M372.91,-123.53C331.28,-114.77 268.17,-101.16 213.62,-88 210.04,-87.14 206.34,-86.22 202.63,-85.28"/>
<polygon fill="#63b8ff" stroke="#63b8ff" points="203.56,-81.91 193,-82.81 201.82,-88.69 203.56,-81.91"/>
</g>
<!-- Node11&#45;&gt;Node2 -->
<g id="edge14" class="edge">
<title>Node11&#45;&gt;Node2</title>
<path fill="none" stroke="#63b8ff" d="M136.16,-61.62C114.72,-51.81 80.81,-36.27 56.19,-25"/>
<polygon fill="#63b8ff" stroke="#63b8ff" points="57.88,-21.92 47.33,-20.94 54.96,-28.29 57.88,-21.92"/>
</g>
<!-- Node11&#45;&gt;Node9 -->
<g id="edge12" class="edge">
<title>Node11&#45;&gt;Node9</title>
<path fill="none" stroke="#63b8ff" d="M146.16,-61.62C136.07,-52.59 120.58,-38.72 108.36,-27.78"/>
<polygon fill="#63b8ff" stroke="#63b8ff" points="110.71,-25.19 100.93,-21.12 106.04,-30.4 110.71,-25.19"/>
</g>
<!-- Node12 -->
<g id="node12" class="node">
<title>Node12</title>
<g id="a_node12"><a xlink:title=" ">
<polygon fill="#e0e0e0" stroke="#999999" points="185.62,-20 127.62,-20 127.62,0 185.62,0 185.62,-20"/>
<text text-anchor="middle" x="156.62" y="-6.5" font-family="Helvetica,sans-Serif" font-size="10.00">exception</text>
</a>
</g>
</g>
<!-- Node11&#45;&gt;Node12 -->
<g id="edge11" class="edge">
<title>Node11&#45;&gt;Node12</title>
<path fill="none" stroke="#63b8ff" d="M156.62,-61.62C156.62,-53.56 156.62,-41.65 156.62,-31.41"/>
<polygon fill="#63b8ff" stroke="#63b8ff" points="160.13,-31.63 156.63,-21.63 153.13,-31.63 160.13,-31.63"/>
</g>
<!-- Node13 -->
<g id="node13" class="node">
<title>Node13</title>
<g id="a_node13"><a xlink:title=" ">
<polygon fill="#e0e0e0" stroke="#999999" points="257.38,-20 203.88,-20 203.88,0 257.38,0 257.38,-20"/>
<text text-anchor="middle" x="230.62" y="-6.5" font-family="Helvetica,sans-Serif" font-size="10.00">iostream</text>
</a>
</g>
</g>
<!-- Node11&#45;&gt;Node13 -->
<g id="edge13" class="edge">
<title>Node11&#45;&gt;Node13</title>
<path fill="none" stroke="#63b8ff" d="M168.19,-61.62C179.55,-52.41 197.11,-38.17 210.72,-27.14"/>
<polygon fill="#63b8ff" stroke="#63b8ff" points="212.65,-30.08 218.21,-21.07 208.24,-24.65 212.65,-30.08"/>
</g>
<!-- Node14 -->
<g id="node14" class="node">
<title>Node14</title>
<g id="a_node14"><a xlink:href="FMTutility_8hpp.html" target="_top" xlink:title=" ">
<polygon fill="white" stroke="#666666" points="353.38,-20 275.88,-20 275.88,0 353.38,0 353.38,-20"/>
<text text-anchor="middle" x="314.62" y="-6.5" font-family="Helvetica,sans-Serif" font-size="10.00">FMTutility.hpp</text>
</a>
</g>
</g>
<!-- Node11&#45;&gt;Node14 -->
<g id="edge15" class="edge">
<title>Node11&#45;&gt;Node14</title>
<path fill="none" stroke="#63b8ff" d="M181.31,-61.62C207.67,-51.62 249.67,-35.67 279.47,-24.35"/>
<polygon fill="#63b8ff" stroke="#63b8ff" points="280.33,-27.77 288.44,-20.95 277.84,-21.22 280.33,-27.77"/>
</g>
</g>
</svg>
