<?xml version="1.0" encoding="UTF-8" standalone="no"?>
<!DOCTYPE svg PUBLIC "-//W3C//DTD SVG 1.1//EN"
 "http://www.w3.org/Graphics/SVG/1.1/DTD/svg11.dtd">
<!-- Generated by graphviz version 10.0.1 (20240210.2158)
 -->
<!-- Title: D:/FMT/Include/FMTconstants.hpp Pages: 1 -->
<svg width="737pt" height="140pt"
 viewBox="0.00 0.00 736.50 140.00" xmlns="http://www.w3.org/2000/svg" xmlns:xlink="http://www.w3.org/1999/xlink">
<g id="graph0" class="graph" transform="scale(1 1) rotate(0) translate(4 136)">
<title>D:/FMT/Include/FMTconstants.hpp</title>
<!-- Node1 -->
<g id="node1" class="node">
<title>Node1</title>
<g id="a_node1"><a xlink:title=" ">
<polygon fill="#999999" stroke="#666666" points="553.62,-132 387.62,-132 387.62,-112 553.62,-112 553.62,-132"/>
<text text-anchor="middle" x="470.62" y="-118.5" font-family="Helvetica,sans-Serif" font-size="10.00">D:/FMT/Include/FMTconstants.hpp</text>
</a>
</g>
</g>
<!-- Node2 -->
<g id="node2" class="node">
<title>Node2</title>
<g id="a_node2"><a xlink:href="FMTmodelparser_8hpp.html" target="_top" xlink:title=" ">
<polygon fill="white" stroke="#666666" points="369.88,-76 193.38,-76 193.38,-56 369.88,-56 369.88,-76"/>
<text text-anchor="middle" x="281.62" y="-62.5" font-family="Helvetica,sans-Serif" font-size="10.00">D:/FMT/Include/FMTmodelparser.hpp</text>
</a>
</g>
</g>
<!-- Node1&#45;&gt;Node2 -->
<g id="edge1" class="edge">
<title>Node1&#45;&gt;Node2</title>
<path fill="none" stroke="#63b8ff" d="M426.64,-108.43C392.49,-98.67 345.87,-85.35 314.8,-76.48"/>
<polygon fill="#63b8ff" stroke="#63b8ff" points="425.67,-111.8 436.25,-111.18 427.59,-105.07 425.67,-111.8"/>
</g>
<!-- Node6 -->
<g id="node6" class="node">
<title>Node6</title>
<g id="a_node6"><a xlink:href="PYexportCore_8hpp.html" target="_top" xlink:title=" ">
<polygon fill="white" stroke="#666666" points="552.88,-76 388.38,-76 388.38,-56 552.88,-56 552.88,-76"/>
<text text-anchor="middle" x="470.62" y="-62.5" font-family="Helvetica,sans-Serif" font-size="10.00">D:/FMT/Include/PYexportCore.hpp</text>
</a>
</g>
</g>
<!-- Node1&#45;&gt;Node6 -->
<g id="edge5" class="edge">
<title>Node1&#45;&gt;Node6</title>
<path fill="none" stroke="#63b8ff" d="M470.62,-100.13C470.62,-91.9 470.62,-82.85 470.62,-76.3"/>
<polygon fill="#63b8ff" stroke="#63b8ff" points="467.13,-100.08 470.63,-110.08 474.13,-100.08 467.13,-100.08"/>
</g>
<!-- Node7 -->
<g id="node7" class="node">
<title>Node7</title>
<g id="a_node7"><a xlink:href="RexportCore_8hpp.html" target="_top" xlink:title=" ">
<polygon fill="white" stroke="#666666" points="728.5,-76 570.75,-76 570.75,-56 728.5,-56 728.5,-76"/>
<text text-anchor="middle" x="649.62" y="-62.5" font-family="Helvetica,sans-Serif" font-size="10.00">D:/FMT/Include/RexportCore.hpp</text>
</a>
</g>
</g>
<!-- Node1&#45;&gt;Node7 -->
<g id="edge6" class="edge">
<title>Node1&#45;&gt;Node7</title>
<path fill="none" stroke="#63b8ff" d="M512.71,-108.31C545.01,-98.56 588.91,-85.32 618.2,-76.48"/>
<polygon fill="#63b8ff" stroke="#63b8ff" points="511.82,-104.92 503.25,-111.16 513.84,-111.62 511.82,-104.92"/>
</g>
<!-- Node3 -->
<g id="node3" class="node">
<title>Node3</title>
<g id="a_node3"><a xlink:href="FMTparallelwriter_8hpp.html" target="_top" xlink:title=" ">
<polygon fill="white" stroke="#666666" points="177.25,-20 0,-20 0,0 177.25,0 177.25,-20"/>
<text text-anchor="middle" x="88.62" y="-6.5" font-family="Helvetica,sans-Serif" font-size="10.00">D:/FMT/Include/FMTparallelwriter.hpp</text>
</a>
</g>
</g>
<!-- Node2&#45;&gt;Node3 -->
<g id="edge2" class="edge">
<title>Node2&#45;&gt;Node3</title>
<path fill="none" stroke="#63b8ff" d="M237.16,-52.56C202.25,-42.79 154.36,-29.39 122.51,-20.48"/>
<polygon fill="#63b8ff" stroke="#63b8ff" points="235.98,-55.86 246.55,-55.19 237.86,-49.12 235.98,-55.86"/>
</g>
<!-- Node4 -->
<g id="node4" class="node">
<title>Node4</title>
<g id="a_node4"><a xlink:href="PYexportParser_8hpp.html" target="_top" xlink:title=" ">
<polygon fill="white" stroke="#666666" points="368,-20 195.25,-20 195.25,0 368,0 368,-20"/>
<text text-anchor="middle" x="281.62" y="-6.5" font-family="Helvetica,sans-Serif" font-size="10.00">D:/FMT/Include/PYexportParser.hpp</text>
</a>
</g>
</g>
<!-- Node2&#45;&gt;Node4 -->
<g id="edge3" class="edge">
<title>Node2&#45;&gt;Node4</title>
<path fill="none" stroke="#63b8ff" d="M281.62,-44.13C281.62,-35.9 281.62,-26.85 281.62,-20.3"/>
<polygon fill="#63b8ff" stroke="#63b8ff" points="278.13,-44.08 281.63,-54.08 285.13,-44.08 278.13,-44.08"/>
</g>
<!-- Node5 -->
<g id="node5" class="node">
<title>Node5</title>
<g id="a_node5"><a xlink:href="RexportParser_8hpp.html" target="_top" xlink:title=" ">
<polygon fill="white" stroke="#666666" points="551.62,-20 385.62,-20 385.62,0 551.62,0 551.62,-20"/>
<text text-anchor="middle" x="468.62" y="-6.5" font-family="Helvetica,sans-Serif" font-size="10.00">D:/FMT/Include/RexportParser.hpp</text>
</a>
</g>
</g>
<!-- Node2&#45;&gt;Node5 -->
<g id="edge4" class="edge">
<title>Node2&#45;&gt;Node5</title>
<path fill="none" stroke="#63b8ff" d="M325.14,-52.43C358.94,-42.67 405.06,-29.35 435.8,-20.48"/>
<polygon fill="#63b8ff" stroke="#63b8ff" points="324.29,-49.04 315.65,-55.17 326.23,-55.76 324.29,-49.04"/>
</g>
</g>
</svg>
