<?xml version="1.0" encoding="UTF-8" standalone="no"?>
<!DOCTYPE svg PUBLIC "-//W3C//DTD SVG 1.1//EN"
 "http://www.w3.org/Graphics/SVG/1.1/DTD/svg11.dtd">
<!-- Generated by graphviz version 10.0.1 (20240210.2158)
 -->
<!-- Title: D:/FMT/Include/FMTComplexYieldHandler.h Pages: 1 -->
<svg width="2564pt" height="344pt"
 viewBox="0.00 0.00 2564.11 344.00" xmlns="http://www.w3.org/2000/svg" xmlns:xlink="http://www.w3.org/1999/xlink">
<g id="graph0" class="graph" transform="scale(1 1) rotate(0) translate(4 340)">
<title>D:/FMT/Include/FMTComplexYieldHandler.h</title>
<!-- Node1 -->
<g id="node1" class="node">
<title>Node1</title>
<g id="a_node1"><a xlink:title=" ">
<polygon fill="#999999" stroke="#666666" points="2064.07,-336 1921.32,-336 1921.32,-304 2064.07,-304 2064.07,-336"/>
<text text-anchor="start" x="1929.32" y="-322.5" font-family="Helvetica,sans-Serif" font-size="10.00">D:/FMT/Include/FMTComplex</text>
<text text-anchor="middle" x="1992.69" y="-310.5" font-family="Helvetica,sans-Serif" font-size="10.00">YieldHandler.h</text>
</a>
</g>
</g>
<!-- Node2 -->
<g id="node2" class="node">
<title>Node2</title>
<g id="a_node2"><a xlink:href="FMTYieldHandler_8h.html" target="_top" xlink:title=" ">
<polygon fill="white" stroke="#666666" points="1371.94,-268 1273.44,-268 1273.44,-248 1371.94,-248 1371.94,-268"/>
<text text-anchor="middle" x="1322.69" y="-254.5" font-family="Helvetica,sans-Serif" font-size="10.00">FMTYieldHandler.h</text>
</a>
</g>
</g>
<!-- Node1&#45;&gt;Node2 -->
<g id="edge1" class="edge">
<title>Node1&#45;&gt;Node2</title>
<path fill="none" stroke="#63b8ff" d="M1920.99,-312.58C1788.41,-300.71 1507.19,-275.52 1383.38,-264.43"/>
<polygon fill="#63b8ff" stroke="#63b8ff" points="1384.03,-260.98 1373.76,-263.57 1383.4,-267.95 1384.03,-260.98"/>
</g>
<!-- Node3 -->
<g id="node3" class="node">
<title>Node3</title>
<g id="a_node3"><a xlink:title=" ">
<polygon fill="#e0e0e0" stroke="#999999" points="1966.69,-20 1926.69,-20 1926.69,0 1966.69,0 1966.69,-20"/>
<text text-anchor="middle" x="1946.69" y="-6.5" font-family="Helvetica,sans-Serif" font-size="10.00">string</text>
</a>
</g>
</g>
<!-- Node1&#45;&gt;Node3 -->
<g id="edge55" class="edge">
<title>Node1&#45;&gt;Node3</title>
<path fill="none" stroke="#63b8ff" d="M2064.31,-319.02C2215.55,-317.12 2553.69,-301.83 2553.69,-203 2553.69,-203 2553.69,-203 2553.69,-139 2553.69,-101.16 2563.37,-80.7 2534.69,-56 2492.32,-19.5 2093.87,-12.52 1978.09,-11.26"/>
<polygon fill="#63b8ff" stroke="#63b8ff" points="1978.44,-7.77 1968.41,-11.17 1978.37,-14.77 1978.44,-7.77"/>
</g>
<!-- Node8 -->
<g id="node8" class="node">
<title>Node8</title>
<g id="a_node8"><a xlink:title=" ">
<polygon fill="#e0e0e0" stroke="#999999" points="2409.07,-156 2314.32,-156 2314.32,-124 2409.07,-124 2409.07,-156"/>
<text text-anchor="start" x="2322.32" y="-142.5" font-family="Helvetica,sans-Serif" font-size="10.00">boost/serialization</text>
<text text-anchor="middle" x="2361.69" y="-130.5" font-family="Helvetica,sans-Serif" font-size="10.00">/serialization.hpp</text>
</a>
</g>
</g>
<!-- Node1&#45;&gt;Node8 -->
<g id="edge56" class="edge">
<title>Node1&#45;&gt;Node8</title>
<path fill="none" stroke="#63b8ff" d="M2024.79,-303.52C2091.53,-271.32 2245.21,-197.19 2319.7,-161.26"/>
<polygon fill="#63b8ff" stroke="#63b8ff" points="2320.82,-164.6 2328.3,-157.11 2317.78,-158.3 2320.82,-164.6"/>
</g>
<!-- Node9 -->
<g id="node9" class="node">
<title>Node9</title>
<g id="a_node9"><a xlink:title=" ">
<polygon fill="#e0e0e0" stroke="#999999" points="588.07,-156 493.32,-156 493.32,-124 588.07,-124 588.07,-156"/>
<text text-anchor="start" x="501.32" y="-142.5" font-family="Helvetica,sans-Serif" font-size="10.00">boost/serialization</text>
<text text-anchor="middle" x="540.69" y="-130.5" font-family="Helvetica,sans-Serif" font-size="10.00">/nvp.hpp</text>
</a>
</g>
</g>
<!-- Node1&#45;&gt;Node9 -->
<g id="edge57" class="edge">
<title>Node1&#45;&gt;Node9</title>
<path fill="none" stroke="#63b8ff" d="M1920.94,-318.98C1729.95,-317.6 1194.17,-305.03 760.69,-212 701.19,-199.23 634.98,-176.67 590.89,-160.41"/>
<polygon fill="#63b8ff" stroke="#63b8ff" points="592.19,-157.16 581.6,-156.95 589.75,-163.72 592.19,-157.16"/>
</g>
<!-- Node24 -->
<g id="node24" class="node">
<title>Node24</title>
<g id="a_node24"><a xlink:title=" ">
<polygon fill="#e0e0e0" stroke="#999999" points="528.32,-82 477.07,-82 477.07,-62 528.32,-62 528.32,-82"/>
<text text-anchor="middle" x="502.69" y="-68.5" font-family="Helvetica,sans-Serif" font-size="10.00">memory</text>
</a>
</g>
</g>
<!-- Node1&#45;&gt;Node24 -->
<g id="edge64" class="edge">
<title>Node1&#45;&gt;Node24</title>
<path fill="none" stroke="#63b8ff" d="M1920.87,-318.83C1581.48,-317.27 149.61,-302.02 22.69,-156 13.36,-145.27 13.09,-134.49 22.69,-124 53.35,-90.51 384.77,-94.58 429.69,-88 441.5,-86.27 454.28,-83.84 465.79,-81.44"/>
<polygon fill="#63b8ff" stroke="#63b8ff" points="466.28,-84.91 475.33,-79.39 464.81,-78.07 466.28,-84.91"/>
</g>
<!-- Node32 -->
<g id="node32" class="node">
<title>Node32</title>
<g id="a_node32"><a xlink:href="FMTData_8h.html" target="_top" xlink:title=" ">
<polygon fill="white" stroke="#666666" points="2024.69,-212 1960.69,-212 1960.69,-192 2024.69,-192 2024.69,-212"/>
<text text-anchor="middle" x="1992.69" y="-198.5" font-family="Helvetica,sans-Serif" font-size="10.00">FMTData.h</text>
</a>
</g>
</g>
<!-- Node1&#45;&gt;Node32 -->
<g id="edge43" class="edge">
<title>Node1&#45;&gt;Node32</title>
<path fill="none" stroke="#63b8ff" d="M1992.69,-303.84C1992.69,-283.41 1992.69,-246.97 1992.69,-223.95"/>
<polygon fill="#63b8ff" stroke="#63b8ff" points="1996.19,-223.95 1992.69,-213.95 1989.19,-223.95 1996.19,-223.95"/>
</g>
<!-- Node35 -->
<g id="node35" class="node">
<title>Node35</title>
<g id="a_node35"><a xlink:href="FMTYieldsCache_8h.html" target="_top" xlink:title=" ">
<polygon fill="white" stroke="#666666" points="2525.94,-150 2427.44,-150 2427.44,-130 2525.94,-130 2525.94,-150"/>
<text text-anchor="middle" x="2476.69" y="-136.5" font-family="Helvetica,sans-Serif" font-size="10.00">FMTYieldsCache.h</text>
</a>
</g>
</g>
<!-- Node1&#45;&gt;Node35 -->
<g id="edge58" class="edge">
<title>Node1&#45;&gt;Node35</title>
<path fill="none" stroke="#63b8ff" d="M2035.29,-303.54C2063.04,-293.45 2100.03,-279.98 2132.69,-268 2245.18,-226.75 2378.19,-177.51 2440.76,-154.32"/>
<polygon fill="#63b8ff" stroke="#63b8ff" points="2441.67,-157.72 2449.83,-150.96 2439.23,-151.16 2441.67,-157.72"/>
</g>
<!-- Node2&#45;&gt;Node3 -->
<g id="edge2" class="edge">
<title>Node2&#45;&gt;Node3</title>
<path fill="none" stroke="#63b8ff" d="M1273.2,-256.09C1136.96,-253.26 744.97,-242.84 420.69,-212 240.35,-194.85 -87.95,-267.45 22.69,-124 95.38,-29.76 163.88,-72.83 281.69,-56 614.13,-8.51 1713.88,-10.15 1914.98,-10.86"/>
<polygon fill="#63b8ff" stroke="#63b8ff" points="1914.88,-14.36 1924.9,-10.9 1914.91,-7.36 1914.88,-14.36"/>
</g>
<!-- Node4 -->
<g id="node4" class="node">
<title>Node4</title>
<g id="a_node4"><a xlink:title=" ">
<polygon fill="#e0e0e0" stroke="#999999" points="1957.07,-150 1922.32,-150 1922.32,-130 1957.07,-130 1957.07,-150"/>
<text text-anchor="middle" x="1939.69" y="-136.5" font-family="Helvetica,sans-Serif" font-size="10.00">map</text>
</a>
</g>
</g>
<!-- Node2&#45;&gt;Node4 -->
<g id="edge3" class="edge">
<title>Node2&#45;&gt;Node4</title>
<path fill="none" stroke="#63b8ff" d="M1372.21,-256.09C1505.62,-253.23 1865.44,-242.74 1908.69,-212 1925.12,-200.33 1932.93,-178 1936.59,-161.49"/>
<polygon fill="#63b8ff" stroke="#63b8ff" points="1940.02,-162.22 1938.38,-151.76 1933.13,-160.96 1940.02,-162.22"/>
</g>
<!-- Node5 -->
<g id="node5" class="node">
<title>Node5</title>
<g id="a_node5"><a xlink:title=" ">
<polygon fill="#e0e0e0" stroke="#999999" points="1364.07,-212 1281.32,-212 1281.32,-192 1364.07,-192 1364.07,-212"/>
<text text-anchor="middle" x="1322.69" y="-198.5" font-family="Helvetica,sans-Serif" font-size="10.00">unordered_map</text>
</a>
</g>
</g>
<!-- Node2&#45;&gt;Node5 -->
<g id="edge4" class="edge">
<title>Node2&#45;&gt;Node5</title>
<path fill="none" stroke="#63b8ff" d="M1322.69,-247.59C1322.69,-241.01 1322.69,-231.96 1322.69,-223.73"/>
<polygon fill="#63b8ff" stroke="#63b8ff" points="1326.19,-223.81 1322.69,-213.81 1319.19,-223.81 1326.19,-223.81"/>
</g>
<!-- Node6 -->
<g id="node6" class="node">
<title>Node6</title>
<g id="a_node6"><a xlink:title=" ">
<polygon fill="#e0e0e0" stroke="#999999" points="1459.44,-212 1381.94,-212 1381.94,-192 1459.44,-192 1459.44,-212"/>
<text text-anchor="middle" x="1420.69" y="-198.5" font-family="Helvetica,sans-Serif" font-size="10.00">unordered_set</text>
</a>
</g>
</g>
<!-- Node2&#45;&gt;Node6 -->
<g id="edge5" class="edge">
<title>Node2&#45;&gt;Node6</title>
<path fill="none" stroke="#63b8ff" d="M1339.76,-247.59C1354.57,-239.44 1376.26,-227.48 1393.46,-218"/>
<polygon fill="#63b8ff" stroke="#63b8ff" points="1395.09,-221.1 1402.16,-213.21 1391.72,-214.97 1395.09,-221.1"/>
</g>
<!-- Node7 -->
<g id="node7" class="node">
<title>Node7</title>
<g id="a_node7"><a xlink:title=" ">
<polygon fill="#e0e0e0" stroke="#999999" points="1533.57,-212 1477.82,-212 1477.82,-192 1533.57,-192 1533.57,-212"/>
<text text-anchor="middle" x="1505.69" y="-198.5" font-family="Helvetica,sans-Serif" font-size="10.00">algorithm</text>
</a>
</g>
</g>
<!-- Node2&#45;&gt;Node7 -->
<g id="edge6" class="edge">
<title>Node2&#45;&gt;Node7</title>
<path fill="none" stroke="#63b8ff" d="M1354.57,-247.59C1385.76,-238.39 1433.32,-224.36 1466.74,-214.5"/>
<polygon fill="#63b8ff" stroke="#63b8ff" points="1467.43,-217.94 1476.03,-211.75 1465.45,-211.23 1467.43,-217.94"/>
</g>
<!-- Node2&#45;&gt;Node8 -->
<g id="edge7" class="edge">
<title>Node2&#45;&gt;Node8</title>
<path fill="none" stroke="#63b8ff" d="M1372.06,-256.25C1488.02,-253.96 1786.67,-245.08 2033.69,-212 2129.09,-199.22 2237.95,-173.37 2303.17,-156.64"/>
<polygon fill="#63b8ff" stroke="#63b8ff" points="2303.77,-160.1 2312.58,-154.21 2302.02,-153.32 2303.77,-160.1"/>
</g>
<!-- Node2&#45;&gt;Node9 -->
<g id="edge8" class="edge">
<title>Node2&#45;&gt;Node9</title>
<path fill="none" stroke="#63b8ff" d="M1273.25,-253.37C1191.92,-247.08 1024.96,-232.8 884.69,-212 759.23,-193.4 725.57,-185.75 599.18,-156.51"/>
<polygon fill="#63b8ff" stroke="#63b8ff" points="600.3,-153.18 589.77,-154.33 598.72,-160 600.3,-153.18"/>
</g>
<!-- Node10 -->
<g id="node10" class="node">
<title>Node10</title>
<g id="a_node10"><a xlink:href="FMTMask_8h.html" target="_top" xlink:title=" ">
<polygon fill="white" stroke="#666666" points="1263.57,-212 1195.82,-212 1195.82,-192 1263.57,-192 1263.57,-212"/>
<text text-anchor="middle" x="1229.69" y="-198.5" font-family="Helvetica,sans-Serif" font-size="10.00">FMTMask.h</text>
</a>
</g>
</g>
<!-- Node2&#45;&gt;Node10 -->
<g id="edge9" class="edge">
<title>Node2&#45;&gt;Node10</title>
<path fill="none" stroke="#63b8ff" d="M1306.49,-247.59C1292.44,-239.44 1271.86,-227.48 1255.53,-218"/>
<polygon fill="#63b8ff" stroke="#63b8ff" points="1257.73,-215.23 1247.33,-213.24 1254.22,-221.29 1257.73,-215.23"/>
</g>
<!-- Node25 -->
<g id="node25" class="node">
<title>Node25</title>
<g id="a_node25"><a xlink:href="FMTutility_8h.html" target="_top" xlink:title=" ">
<polygon fill="white" stroke="#666666" points="1980.19,-82 1913.19,-82 1913.19,-62 1980.19,-62 1980.19,-82"/>
<text text-anchor="middle" x="1946.69" y="-68.5" font-family="Helvetica,sans-Serif" font-size="10.00">FMTutility.h</text>
</a>
</g>
</g>
<!-- Node2&#45;&gt;Node25 -->
<g id="edge32" class="edge">
<title>Node2&#45;&gt;Node25</title>
<path fill="none" stroke="#63b8ff" d="M1372.07,-252.25C1490.94,-240.13 1789.61,-205.51 1875.69,-156 1902.34,-140.68 1923.71,-111.48 1935.8,-92.13"/>
<polygon fill="#63b8ff" stroke="#63b8ff" points="1938.77,-93.97 1940.9,-83.59 1932.76,-90.38 1938.77,-93.97"/>
</g>
<!-- Node26 -->
<g id="node26" class="node">
<title>Node26</title>
<g id="a_node26"><a xlink:title=" ">
<polygon fill="#e0e0e0" stroke="#999999" points="647.44,-150 605.94,-150 605.94,-130 647.44,-130 647.44,-150"/>
<text text-anchor="middle" x="626.69" y="-136.5" font-family="Helvetica,sans-Serif" font-size="10.00">vector</text>
</a>
</g>
</g>
<!-- Node2&#45;&gt;Node26 -->
<g id="edge31" class="edge">
<title>Node2&#45;&gt;Node26</title>
<path fill="none" stroke="#63b8ff" d="M1273.05,-249.9C1123.58,-228.49 686.23,-165.37 656.69,-156 655.56,-155.64 654.41,-155.24 653.26,-154.81"/>
<polygon fill="#63b8ff" stroke="#63b8ff" points="655.07,-151.78 644.51,-150.98 652.26,-158.2 655.07,-151.78"/>
</g>
<!-- Node27 -->
<g id="node27" class="node">
<title>Node27</title>
<g id="a_node27"><a xlink:href="FMTObject_8h.html" target="_top" xlink:title=" ">
<polygon fill="white" stroke="#666666" points="501.82,-212 429.57,-212 429.57,-192 501.82,-192 501.82,-212"/>
<text text-anchor="middle" x="465.69" y="-198.5" font-family="Helvetica,sans-Serif" font-size="10.00">FMTObject.h</text>
</a>
</g>
</g>
<!-- Node2&#45;&gt;Node27 -->
<g id="edge33" class="edge">
<title>Node2&#45;&gt;Node27</title>
<path fill="none" stroke="#63b8ff" d="M1273.23,-253.88C1121.39,-244.32 663.26,-215.45 513.57,-206.02"/>
<polygon fill="#63b8ff" stroke="#63b8ff" points="513.82,-202.53 503.62,-205.39 513.38,-209.51 513.82,-202.53"/>
</g>
<!-- Node31 -->
<g id="node31" class="node">
<title>Node31</title>
<g id="a_node31"><a xlink:title=" ">
<polygon fill="#e0e0e0" stroke="#999999" points="1177.32,-212 1090.07,-212 1090.07,-192 1177.32,-192 1177.32,-212"/>
<text text-anchor="middle" x="1133.69" y="-198.5" font-family="Helvetica,sans-Serif" font-size="10.00">FMTBounds.hpp</text>
</a>
</g>
</g>
<!-- Node2&#45;&gt;Node31 -->
<g id="edge42" class="edge">
<title>Node2&#45;&gt;Node31</title>
<path fill="none" stroke="#63b8ff" d="M1289.77,-247.59C1258.66,-238.71 1211.78,-225.31 1177.52,-215.52"/>
<polygon fill="#63b8ff" stroke="#63b8ff" points="1178.9,-212.28 1168.33,-212.9 1176.98,-219.01 1178.9,-212.28"/>
</g>
<!-- Node10&#45;&gt;Node3 -->
<g id="edge30" class="edge">
<title>Node10&#45;&gt;Node3</title>
<path fill="none" stroke="#63b8ff" d="M1263.89,-193.46C1266.86,-192.92 1269.83,-192.42 1272.69,-192 1364.27,-178.49 1603.48,-194.44 1687.69,-156 1706.28,-147.52 1704.03,-135.82 1720.69,-124 1785.02,-78.38 1870.44,-41.11 1915.62,-22.96"/>
<polygon fill="#63b8ff" stroke="#63b8ff" points="1916.79,-26.26 1924.79,-19.32 1914.21,-19.75 1916.79,-26.26"/>
</g>
<!-- Node10&#45;&gt;Node8 -->
<g id="edge15" class="edge">
<title>Node10&#45;&gt;Node8</title>
<path fill="none" stroke="#63b8ff" d="M1263.87,-193.29C1266.85,-192.79 1269.82,-192.35 1272.69,-192 1725.07,-137.19 1849.35,-222.47 2302.77,-156.22"/>
<polygon fill="#63b8ff" stroke="#63b8ff" points="2303.01,-159.72 2312.39,-154.79 2301.98,-152.79 2303.01,-159.72"/>
</g>
<!-- Node10&#45;&gt;Node9 -->
<g id="edge17" class="edge">
<title>Node10&#45;&gt;Node9</title>
<path fill="none" stroke="#63b8ff" d="M1195.5,-193.38C1192.53,-192.86 1189.57,-192.39 1186.69,-192 930.01,-157.49 858.02,-197.05 599.76,-156.29"/>
<polygon fill="#63b8ff" stroke="#63b8ff" points="600.44,-152.86 590.01,-154.73 599.33,-159.77 600.44,-152.86"/>
</g>
<!-- Node11 -->
<g id="node11" class="node">
<title>Node11</title>
<g id="a_node11"><a xlink:title=" ">
<polygon fill="#e0e0e0" stroke="#999999" points="2246.57,-82 2118.82,-82 2118.82,-62 2246.57,-62 2246.57,-82"/>
<text text-anchor="middle" x="2182.69" y="-68.5" font-family="Helvetica,sans-Serif" font-size="10.00">boost/dynamic_bitset.hpp</text>
</a>
</g>
</g>
<!-- Node10&#45;&gt;Node11 -->
<g id="edge10" class="edge">
<title>Node10&#45;&gt;Node11</title>
<path fill="none" stroke="#63b8ff" d="M1263.89,-193.44C1266.86,-192.9 1269.82,-192.41 1272.69,-192 1470.4,-163.48 1533.74,-226.36 1720.69,-156 1742.99,-147.61 1741.57,-132.85 1763.69,-124 1794.82,-111.55 1995.48,-90.85 2107.44,-80.05"/>
<polygon fill="#63b8ff" stroke="#63b8ff" points="2107.53,-83.55 2117.15,-79.11 2106.86,-76.59 2107.53,-83.55"/>
</g>
<!-- Node12 -->
<g id="node12" class="node">
<title>Node12</title>
<g id="a_node12"><a xlink:title=" ">
<polygon fill="#e0e0e0" stroke="#999999" points="1146.94,-150 1018.44,-150 1018.44,-130 1146.94,-130 1146.94,-150"/>
<text text-anchor="middle" x="1082.69" y="-136.5" font-family="Helvetica,sans-Serif" font-size="10.00">boost/unordered_map.hpp</text>
</a>
</g>
</g>
<!-- Node10&#45;&gt;Node12 -->
<g id="edge11" class="edge">
<title>Node10&#45;&gt;Node12</title>
<path fill="none" stroke="#63b8ff" d="M1206.72,-191.62C1182.34,-181.67 1143.59,-165.85 1115.89,-154.55"/>
<polygon fill="#63b8ff" stroke="#63b8ff" points="1117.48,-151.42 1106.9,-150.88 1114.84,-157.9 1117.48,-151.42"/>
</g>
<!-- Node13 -->
<g id="node13" class="node">
<title>Node13</title>
<g id="a_node13"><a xlink:title=" ">
<polygon fill="#e0e0e0" stroke="#999999" points="1293.94,-150 1165.44,-150 1165.44,-130 1293.94,-130 1293.94,-150"/>
<text text-anchor="middle" x="1229.69" y="-136.5" font-family="Helvetica,sans-Serif" font-size="10.00">boost/algorithm/string.hpp</text>
</a>
</g>
</g>
<!-- Node10&#45;&gt;Node13 -->
<g id="edge12" class="edge">
<title>Node10&#45;&gt;Node13</title>
<path fill="none" stroke="#63b8ff" d="M1229.69,-191.62C1229.69,-183.56 1229.69,-171.65 1229.69,-161.41"/>
<polygon fill="#63b8ff" stroke="#63b8ff" points="1233.19,-161.63 1229.69,-151.63 1226.19,-161.63 1233.19,-161.63"/>
</g>
<!-- Node14 -->
<g id="node14" class="node">
<title>Node14</title>
<g id="a_node14"><a xlink:title=" ">
<polygon fill="#e0e0e0" stroke="#999999" points="1421.57,-156 1311.82,-156 1311.82,-124 1421.57,-124 1421.57,-156"/>
<text text-anchor="start" x="1319.82" y="-142.5" font-family="Helvetica,sans-Serif" font-size="10.00">boost/algorithm/string</text>
<text text-anchor="middle" x="1366.69" y="-130.5" font-family="Helvetica,sans-Serif" font-size="10.00">/join.hpp</text>
</a>
</g>
</g>
<!-- Node10&#45;&gt;Node14 -->
<g id="edge13" class="edge">
<title>Node10&#45;&gt;Node14</title>
<path fill="none" stroke="#63b8ff" d="M1251.1,-191.62C1269.7,-183.48 1297.28,-171.4 1320.83,-161.09"/>
<polygon fill="#63b8ff" stroke="#63b8ff" points="1322.18,-164.32 1329.94,-157.1 1319.37,-157.9 1322.18,-164.32"/>
</g>
<!-- Node15 -->
<g id="node15" class="node">
<title>Node15</title>
<g id="a_node15"><a xlink:title=" ">
<polygon fill="#e0e0e0" stroke="#999999" points="1566.19,-150 1439.19,-150 1439.19,-130 1566.19,-130 1566.19,-150"/>
<text text-anchor="middle" x="1502.69" y="-136.5" font-family="Helvetica,sans-Serif" font-size="10.00">boost/functional/hash.hpp</text>
</a>
</g>
</g>
<!-- Node10&#45;&gt;Node15 -->
<g id="edge14" class="edge">
<title>Node10&#45;&gt;Node15</title>
<path fill="none" stroke="#63b8ff" d="M1263.99,-193.46C1310.48,-183.24 1393.98,-164.89 1448.87,-152.83"/>
<polygon fill="#63b8ff" stroke="#63b8ff" points="1449.29,-156.32 1458.3,-150.76 1447.79,-149.48 1449.29,-156.32"/>
</g>
<!-- Node16 -->
<g id="node16" class="node">
<title>Node16</title>
<g id="a_node16"><a xlink:title=" ">
<polygon fill="#e0e0e0" stroke="#999999" points="1679.07,-156 1584.32,-156 1584.32,-124 1679.07,-124 1679.07,-156"/>
<text text-anchor="start" x="1592.32" y="-142.5" font-family="Helvetica,sans-Serif" font-size="10.00">boost/serialization</text>
<text text-anchor="middle" x="1631.69" y="-130.5" font-family="Helvetica,sans-Serif" font-size="10.00">/split_free.hpp</text>
</a>
</g>
</g>
<!-- Node10&#45;&gt;Node16 -->
<g id="edge16" class="edge">
<title>Node10&#45;&gt;Node16</title>
<path fill="none" stroke="#63b8ff" d="M1263.91,-193.56C1266.87,-193 1269.83,-192.47 1272.69,-192 1402.57,-170.71 1439.95,-180.7 1572.89,-156.16"/>
<polygon fill="#63b8ff" stroke="#63b8ff" points="1573.24,-159.66 1582.42,-154.37 1571.95,-152.78 1573.24,-159.66"/>
</g>
<!-- Node17 -->
<g id="node17" class="node">
<title>Node17</title>
<g id="a_node17"><a xlink:title=" ">
<polygon fill="#e0e0e0" stroke="#999999" points="873.07,-156 778.32,-156 778.32,-124 873.07,-124 873.07,-156"/>
<text text-anchor="start" x="786.32" y="-142.5" font-family="Helvetica,sans-Serif" font-size="10.00">boost/serialization</text>
<text text-anchor="middle" x="825.69" y="-130.5" font-family="Helvetica,sans-Serif" font-size="10.00">/export.hpp</text>
</a>
</g>
</g>
<!-- Node10&#45;&gt;Node17 -->
<g id="edge18" class="edge">
<title>Node10&#45;&gt;Node17</title>
<path fill="none" stroke="#63b8ff" d="M1195.48,-193.55C1192.51,-192.99 1189.55,-192.47 1186.69,-192 1055.53,-170.58 1017.72,-181.13 884.58,-156.39"/>
<polygon fill="#63b8ff" stroke="#63b8ff" points="885.51,-153.01 875.04,-154.59 884.21,-159.89 885.51,-153.01"/>
</g>
<!-- Node18 -->
<g id="node18" class="node">
<title>Node18</title>
<g id="a_node18"><a xlink:title=" ">
<polygon fill="#e0e0e0" stroke="#999999" points="760.07,-156 665.32,-156 665.32,-124 760.07,-124 760.07,-156"/>
<text text-anchor="start" x="673.32" y="-142.5" font-family="Helvetica,sans-Serif" font-size="10.00">boost/serialization</text>
<text text-anchor="middle" x="712.69" y="-130.5" font-family="Helvetica,sans-Serif" font-size="10.00">/string.hpp</text>
</a>
</g>
</g>
<!-- Node10&#45;&gt;Node18 -->
<g id="edge19" class="edge">
<title>Node10&#45;&gt;Node18</title>
<path fill="none" stroke="#63b8ff" d="M1195.49,-193.45C1192.52,-192.92 1189.56,-192.42 1186.69,-192 1006.25,-165.43 954.97,-186.91 771.58,-156.11"/>
<polygon fill="#63b8ff" stroke="#63b8ff" points="772.4,-152.7 761.95,-154.46 771.21,-159.6 772.4,-152.7"/>
</g>
<!-- Node19 -->
<g id="node19" class="node">
<title>Node19</title>
<g id="a_node19"><a xlink:title=" ">
<polygon fill="#e0e0e0" stroke="#999999" points="1867.07,-156 1772.32,-156 1772.32,-124 1867.07,-124 1867.07,-156"/>
<text text-anchor="start" x="1780.32" y="-142.5" font-family="Helvetica,sans-Serif" font-size="10.00">boost/serialization</text>
<text text-anchor="middle" x="1819.69" y="-130.5" font-family="Helvetica,sans-Serif" font-size="10.00">/vector.hpp</text>
</a>
</g>
</g>
<!-- Node10&#45;&gt;Node19 -->
<g id="edge20" class="edge">
<title>Node10&#45;&gt;Node19</title>
<path fill="none" stroke="#63b8ff" d="M1263.89,-193.42C1266.86,-192.89 1269.82,-192.4 1272.69,-192 1487.16,-161.75 1544.78,-189.98 1758.69,-156 1759.37,-155.89 1760.04,-155.78 1760.72,-155.67"/>
<polygon fill="#63b8ff" stroke="#63b8ff" points="1761.23,-159.13 1770.41,-153.84 1759.93,-152.26 1761.23,-159.13"/>
</g>
<!-- Node20 -->
<g id="node20" class="node">
<title>Node20</title>
<g id="a_node20"><a xlink:title=" ">
<polygon fill="#e0e0e0" stroke="#999999" points="1000.19,-156 891.19,-156 891.19,-124 1000.19,-124 1000.19,-156"/>
<text text-anchor="start" x="899.19" y="-142.5" font-family="Helvetica,sans-Serif" font-size="10.00">boost/dynamic_bitset</text>
<text text-anchor="middle" x="945.69" y="-130.5" font-family="Helvetica,sans-Serif" font-size="10.00">/serialization.hpp</text>
</a>
</g>
</g>
<!-- Node10&#45;&gt;Node20 -->
<g id="edge21" class="edge">
<title>Node10&#45;&gt;Node20</title>
<path fill="none" stroke="#63b8ff" d="M1195.43,-193.81C1192.47,-193.2 1189.53,-192.59 1186.69,-192 1111.45,-176.47 1089.94,-173.41 1011.41,-156.34"/>
<polygon fill="#63b8ff" stroke="#63b8ff" points="1012.48,-152.99 1001.96,-154.28 1010.98,-159.83 1012.48,-152.99"/>
</g>
<!-- Node21 -->
<g id="node21" class="node">
<title>Node21</title>
<g id="a_node21"><a xlink:href="FMTException_8h.html" target="_top" xlink:title=" ">
<polygon fill="white" stroke="#666666" points="437.32,-150 350.07,-150 350.07,-130 437.32,-130 437.32,-150"/>
<text text-anchor="middle" x="393.69" y="-136.5" font-family="Helvetica,sans-Serif" font-size="10.00">FMTException.h</text>
</a>
</g>
</g>
<!-- Node10&#45;&gt;Node21 -->
<g id="edge22" class="edge">
<title>Node10&#45;&gt;Node21</title>
<path fill="none" stroke="#63b8ff" d="M1195.51,-193.35C1192.54,-192.83 1189.57,-192.37 1186.69,-192 876.87,-151.88 795.31,-189.46 484.69,-156 472.99,-154.74 460.51,-152.97 448.65,-151.08"/>
<polygon fill="#63b8ff" stroke="#63b8ff" points="449.46,-147.66 439.02,-149.49 448.32,-154.57 449.46,-147.66"/>
</g>
<!-- Node10&#45;&gt;Node26 -->
<g id="edge29" class="edge">
<title>Node10&#45;&gt;Node26</title>
<path fill="none" stroke="#63b8ff" d="M1195.5,-193.4C1192.53,-192.87 1189.56,-192.4 1186.69,-192 952.81,-159.74 884.5,-218 656.69,-156 655.51,-155.68 654.32,-155.31 653.14,-154.9"/>
<polygon fill="#63b8ff" stroke="#63b8ff" points="654.7,-151.76 644.12,-151.07 651.96,-158.2 654.7,-151.76"/>
</g>
<!-- Node21&#45;&gt;Node3 -->
<g id="edge24" class="edge">
<title>Node21&#45;&gt;Node3</title>
<path fill="none" stroke="#63b8ff" d="M400.48,-129.7C415.23,-109.77 450.29,-64.12 467.69,-56 535.53,-24.35 1706.13,-13.03 1914.95,-11.26"/>
<polygon fill="#63b8ff" stroke="#63b8ff" points="1914.79,-14.76 1924.76,-11.17 1914.73,-7.76 1914.79,-14.76"/>
</g>
<!-- Node22 -->
<g id="node22" class="node">
<title>Node22</title>
<g id="a_node22"><a xlink:title=" ">
<polygon fill="#e0e0e0" stroke="#999999" points="348.69,-82 290.69,-82 290.69,-62 348.69,-62 348.69,-82"/>
<text text-anchor="middle" x="319.69" y="-68.5" font-family="Helvetica,sans-Serif" font-size="10.00">exception</text>
</a>
</g>
</g>
<!-- Node21&#45;&gt;Node22 -->
<g id="edge23" class="edge">
<title>Node21&#45;&gt;Node22</title>
<path fill="none" stroke="#63b8ff" d="M383.09,-129.54C371.55,-119.25 352.86,-102.58 338.76,-90.01"/>
<polygon fill="#63b8ff" stroke="#63b8ff" points="341.2,-87.49 331.41,-83.45 336.54,-92.71 341.2,-87.49"/>
</g>
<!-- Node23 -->
<g id="node23" class="node">
<title>Node23</title>
<g id="a_node23"><a xlink:title=" ">
<polygon fill="#e0e0e0" stroke="#999999" points="420.44,-82 366.94,-82 366.94,-62 420.44,-62 420.44,-82"/>
<text text-anchor="middle" x="393.69" y="-68.5" font-family="Helvetica,sans-Serif" font-size="10.00">iostream</text>
</a>
</g>
</g>
<!-- Node21&#45;&gt;Node23 -->
<g id="edge25" class="edge">
<title>Node21&#45;&gt;Node23</title>
<path fill="none" stroke="#63b8ff" d="M393.69,-129.54C393.69,-120.23 393.69,-105.7 393.69,-93.7"/>
<polygon fill="#63b8ff" stroke="#63b8ff" points="397.19,-93.95 393.69,-83.95 390.19,-93.95 397.19,-93.95"/>
</g>
<!-- Node21&#45;&gt;Node24 -->
<g id="edge26" class="edge">
<title>Node21&#45;&gt;Node24</title>
<path fill="none" stroke="#63b8ff" d="M409.31,-129.54C427.12,-118.76 456.48,-100.98 477.53,-88.24"/>
<polygon fill="#63b8ff" stroke="#63b8ff" points="479.07,-91.4 485.81,-83.22 475.44,-85.41 479.07,-91.4"/>
</g>
<!-- Node21&#45;&gt;Node25 -->
<g id="edge27" class="edge">
<title>Node21&#45;&gt;Node25</title>
<path fill="none" stroke="#63b8ff" d="M437.51,-130.61C452.43,-128.06 469.24,-125.54 484.69,-124 769.63,-95.67 1686.87,-77.68 1901.48,-73.79"/>
<polygon fill="#63b8ff" stroke="#63b8ff" points="1901.44,-77.29 1911.37,-73.62 1901.31,-70.3 1901.44,-77.29"/>
</g>
<!-- Node25&#45;&gt;Node3 -->
<g id="edge28" class="edge">
<title>Node25&#45;&gt;Node3</title>
<path fill="none" stroke="#63b8ff" d="M1946.69,-61.62C1946.69,-53.56 1946.69,-41.65 1946.69,-31.41"/>
<polygon fill="#63b8ff" stroke="#63b8ff" points="1950.19,-31.63 1946.69,-21.63 1943.19,-31.63 1950.19,-31.63"/>
</g>
<!-- Node27&#45;&gt;Node9 -->
<g id="edge35" class="edge">
<title>Node27&#45;&gt;Node9</title>
<path fill="none" stroke="#63b8ff" d="M477.41,-191.62C486.8,-184.11 500.37,-173.26 512.54,-163.52"/>
<polygon fill="#63b8ff" stroke="#63b8ff" points="514.67,-166.3 520.29,-157.32 510.3,-160.83 514.67,-166.3"/>
</g>
<!-- Node27&#45;&gt;Node17 -->
<g id="edge36" class="edge">
<title>Node27&#45;&gt;Node17</title>
<path fill="none" stroke="#63b8ff" d="M502.3,-196.88C557.48,-190.39 665.42,-176.58 766.83,-156.24"/>
<polygon fill="#63b8ff" stroke="#63b8ff" points="767.3,-159.71 776.41,-154.29 765.91,-152.85 767.3,-159.71"/>
</g>
<!-- Node27&#45;&gt;Node21 -->
<g id="edge37" class="edge">
<title>Node27&#45;&gt;Node21</title>
<path fill="none" stroke="#63b8ff" d="M454.44,-191.62C443.49,-182.5 426.63,-168.45 413.44,-157.46"/>
<polygon fill="#63b8ff" stroke="#63b8ff" points="415.71,-154.79 405.79,-151.08 411.23,-160.17 415.71,-154.79"/>
</g>
<!-- Node27&#45;&gt;Node24 -->
<g id="edge38" class="edge">
<title>Node27&#45;&gt;Node24</title>
<path fill="none" stroke="#63b8ff" d="M467.63,-191.91C470.79,-177.43 477.43,-148.27 484.69,-124 487.8,-113.63 491.76,-102.25 495.17,-92.88"/>
<polygon fill="#63b8ff" stroke="#63b8ff" points="498.37,-94.32 498.57,-83.73 491.81,-91.88 498.37,-94.32"/>
</g>
<!-- Node27&#45;&gt;Node26 -->
<g id="edge40" class="edge">
<title>Node27&#45;&gt;Node26</title>
<path fill="none" stroke="#63b8ff" d="M497.1,-191.51C523.91,-183.09 563.32,-170 596.69,-156 597.31,-155.74 597.94,-155.47 598.57,-155.2"/>
<polygon fill="#63b8ff" stroke="#63b8ff" points="599.83,-158.47 607.42,-151.08 596.87,-152.13 599.83,-158.47"/>
</g>
<!-- Node28 -->
<g id="node28" class="node">
<title>Node28</title>
<g id="a_node28"><a xlink:title=" ">
<polygon fill="#e0e0e0" stroke="#999999" points="126.07,-156 31.32,-156 31.32,-124 126.07,-124 126.07,-156"/>
<text text-anchor="start" x="39.32" y="-142.5" font-family="Helvetica,sans-Serif" font-size="10.00">boost/serialization</text>
<text text-anchor="middle" x="78.69" y="-130.5" font-family="Helvetica,sans-Serif" font-size="10.00">/unique_ptr.hpp</text>
</a>
</g>
</g>
<!-- Node27&#45;&gt;Node28 -->
<g id="edge34" class="edge">
<title>Node27&#45;&gt;Node28</title>
<path fill="none" stroke="#63b8ff" d="M429.2,-197.56C369.91,-191.66 248.86,-178.22 137.64,-156.45"/>
<polygon fill="#63b8ff" stroke="#63b8ff" points="138.54,-153.06 128.04,-154.54 137.17,-159.93 138.54,-153.06"/>
</g>
<!-- Node29 -->
<g id="node29" class="node">
<title>Node29</title>
<g id="a_node29"><a xlink:title=" ">
<polygon fill="#e0e0e0" stroke="#999999" points="189.32,-150 144.07,-150 144.07,-130 189.32,-130 189.32,-150"/>
<text text-anchor="middle" x="166.69" y="-136.5" font-family="Helvetica,sans-Serif" font-size="10.00">chrono</text>
</a>
</g>
</g>
<!-- Node27&#45;&gt;Node29 -->
<g id="edge39" class="edge">
<title>Node27&#45;&gt;Node29</title>
<path fill="none" stroke="#63b8ff" d="M429.12,-198C377,-193.02 278.79,-181.01 198.69,-156 197.52,-155.63 196.34,-155.23 195.15,-154.81"/>
<polygon fill="#63b8ff" stroke="#63b8ff" points="196.6,-151.62 186.03,-151.03 193.92,-158.09 196.6,-151.62"/>
</g>
<!-- Node30 -->
<g id="node30" class="node">
<title>Node30</title>
<g id="a_node30"><a xlink:title=" ">
<polygon fill="#e0e0e0" stroke="#999999" points="332.07,-156 207.32,-156 207.32,-124 332.07,-124 332.07,-156"/>
<text text-anchor="start" x="215.32" y="-142.5" font-family="Helvetica,sans-Serif" font-size="10.00">boost/dll/runtime_symbol</text>
<text text-anchor="middle" x="269.69" y="-130.5" font-family="Helvetica,sans-Serif" font-size="10.00">_info.h</text>
</a>
</g>
</g>
<!-- Node27&#45;&gt;Node30 -->
<g id="edge41" class="edge">
<title>Node27&#45;&gt;Node30</title>
<path fill="none" stroke="#63b8ff" d="M435.07,-191.62C407.38,-183.15 365.78,-170.42 331.24,-159.84"/>
<polygon fill="#63b8ff" stroke="#63b8ff" points="332.33,-156.51 321.74,-156.93 330.28,-163.21 332.33,-156.51"/>
</g>
<!-- Node32&#45;&gt;Node3 -->
<g id="edge45" class="edge">
<title>Node32&#45;&gt;Node3</title>
<path fill="none" stroke="#63b8ff" d="M1999.23,-191.52C2004.85,-182.75 2012.53,-169.14 2015.69,-156 2019.02,-142.17 2018.36,-137.97 2015.69,-124 2009.58,-92.06 2006.09,-83.47 1988.69,-56 1982.31,-45.92 1973.51,-36.08 1965.61,-28.18"/>
<polygon fill="#63b8ff" stroke="#63b8ff" points="1968.29,-25.89 1958.65,-21.5 1963.44,-30.95 1968.29,-25.89"/>
</g>
<!-- Node32&#45;&gt;Node4 -->
<g id="edge46" class="edge">
<title>Node32&#45;&gt;Node4</title>
<path fill="none" stroke="#63b8ff" d="M1984.41,-191.62C1976.59,-182.77 1964.66,-169.26 1955.09,-158.43"/>
<polygon fill="#63b8ff" stroke="#63b8ff" points="1957.99,-156.42 1948.74,-151.25 1952.74,-161.06 1957.99,-156.42"/>
</g>
<!-- Node32&#45;&gt;Node8 -->
<g id="edge48" class="edge">
<title>Node32&#45;&gt;Node8</title>
<path fill="none" stroke="#63b8ff" d="M2024.9,-197.65C2079.99,-191.64 2196.01,-177.8 2302.85,-156.45"/>
<polygon fill="#63b8ff" stroke="#63b8ff" points="2303.23,-159.94 2312.34,-154.53 2301.84,-153.08 2303.23,-159.94"/>
</g>
<!-- Node32&#45;&gt;Node9 -->
<g id="edge49" class="edge">
<title>Node32&#45;&gt;Node9</title>
<path fill="none" stroke="#63b8ff" d="M1960.28,-200.4C1768.15,-196.79 781.22,-177.44 599.72,-156.06"/>
<polygon fill="#63b8ff" stroke="#63b8ff" points="600.37,-152.61 590,-154.78 599.46,-159.55 600.37,-152.61"/>
</g>
<!-- Node32&#45;&gt;Node17 -->
<g id="edge53" class="edge">
<title>Node32&#45;&gt;Node17</title>
<path fill="none" stroke="#63b8ff" d="M1960.2,-200.11C1793.19,-195.5 1033.76,-173.81 884.61,-156.04"/>
<polygon fill="#63b8ff" stroke="#63b8ff" points="885.38,-152.61 875.01,-154.75 884.45,-159.55 885.38,-152.61"/>
</g>
<!-- Node32&#45;&gt;Node19 -->
<g id="edge51" class="edge">
<title>Node32&#45;&gt;Node19</title>
<path fill="none" stroke="#63b8ff" d="M1965.66,-191.62C1941.54,-183.26 1905.46,-170.75 1875.21,-160.25"/>
<polygon fill="#63b8ff" stroke="#63b8ff" points="1876.38,-156.96 1865.79,-156.99 1874.09,-163.57 1876.38,-156.96"/>
</g>
<!-- Node32&#45;&gt;Node24 -->
<g id="edge54" class="edge">
<title>Node32&#45;&gt;Node24</title>
<path fill="none" stroke="#63b8ff" d="M1992.57,-191.73C1991.79,-175 1987.49,-140.03 1965.69,-124 1906.58,-80.52 762.94,-73.98 540.13,-73.12"/>
<polygon fill="#63b8ff" stroke="#63b8ff" points="540.31,-69.62 530.3,-73.08 540.28,-76.62 540.31,-69.62"/>
</g>
<!-- Node32&#45;&gt;Node25 -->
<g id="edge47" class="edge">
<title>Node32&#45;&gt;Node25</title>
<path fill="none" stroke="#63b8ff" d="M1996.12,-191.55C2000.97,-176.57 2008.25,-146.75 1998.69,-124 1992.86,-110.11 1981.2,-98.11 1970.4,-89.24"/>
<polygon fill="#63b8ff" stroke="#63b8ff" points="1972.56,-86.49 1962.49,-83.2 1968.32,-92.06 1972.56,-86.49"/>
</g>
<!-- Node32&#45;&gt;Node26 -->
<g id="edge44" class="edge">
<title>Node32&#45;&gt;Node26</title>
<path fill="none" stroke="#63b8ff" d="M1960.43,-200.3C1762.79,-195.99 721.82,-172.54 656.69,-156 655.33,-155.65 653.95,-155.24 652.58,-154.77"/>
<polygon fill="#63b8ff" stroke="#63b8ff" points="654.35,-151.72 643.78,-151.02 651.61,-158.16 654.35,-151.72"/>
</g>
<!-- Node33 -->
<g id="node33" class="node">
<title>Node33</title>
<g id="a_node33"><a xlink:title=" ">
<polygon fill="#e0e0e0" stroke="#999999" points="2183.07,-156 2088.32,-156 2088.32,-124 2183.07,-124 2183.07,-156"/>
<text text-anchor="start" x="2096.32" y="-142.5" font-family="Helvetica,sans-Serif" font-size="10.00">boost/serialization</text>
<text text-anchor="middle" x="2135.69" y="-130.5" font-family="Helvetica,sans-Serif" font-size="10.00">/map.hpp</text>
</a>
</g>
</g>
<!-- Node32&#45;&gt;Node33 -->
<g id="edge50" class="edge">
<title>Node32&#45;&gt;Node33</title>
<path fill="none" stroke="#63b8ff" d="M2015.04,-191.62C2034.63,-183.41 2063.76,-171.18 2088.49,-160.81"/>
<polygon fill="#63b8ff" stroke="#63b8ff" points="2089.51,-164.17 2097.38,-157.08 2086.8,-157.72 2089.51,-164.17"/>
</g>
<!-- Node34 -->
<g id="node34" class="node">
<title>Node34</title>
<g id="a_node34"><a xlink:title=" ">
<polygon fill="#e0e0e0" stroke="#999999" points="2296.44,-156 2200.94,-156 2200.94,-124 2296.44,-124 2296.44,-156"/>
<text text-anchor="start" x="2208.94" y="-142.5" font-family="Helvetica,sans-Serif" font-size="10.00">boost/serialization</text>
<text text-anchor="middle" x="2248.69" y="-130.5" font-family="Helvetica,sans-Serif" font-size="10.00">/binary_object.hpp</text>
</a>
</g>
</g>
<!-- Node32&#45;&gt;Node34 -->
<g id="edge52" class="edge">
<title>Node32&#45;&gt;Node34</title>
<path fill="none" stroke="#63b8ff" d="M2025.17,-194.02C2062.48,-185.92 2125.79,-171.94 2189.47,-156.5"/>
<polygon fill="#63b8ff" stroke="#63b8ff" points="2190.16,-159.93 2199.05,-154.16 2188.51,-153.13 2190.16,-159.93"/>
</g>
<!-- Node35&#45;&gt;Node3 -->
<g id="edge62" class="edge">
<title>Node35&#45;&gt;Node3</title>
<path fill="none" stroke="#63b8ff" d="M2456.15,-129.57C2417.66,-112.3 2331.7,-75.57 2255.69,-56 2156.16,-30.38 2034.58,-18.03 1978.19,-13.34"/>
<polygon fill="#63b8ff" stroke="#63b8ff" points="1978.63,-9.86 1968.38,-12.55 1978.07,-16.84 1978.63,-9.86"/>
</g>
<!-- Node35&#45;&gt;Node11 -->
<g id="edge60" class="edge">
<title>Node35&#45;&gt;Node11</title>
<path fill="none" stroke="#63b8ff" d="M2440.23,-129.52C2432.79,-127.64 2425,-125.72 2417.69,-124 2357.12,-109.73 2287.42,-94.79 2239.75,-84.8"/>
<polygon fill="#63b8ff" stroke="#63b8ff" points="2240.72,-81.42 2230.21,-82.8 2239.28,-88.27 2240.72,-81.42"/>
</g>
<!-- Node35&#45;&gt;Node24 -->
<g id="edge61" class="edge">
<title>Node35&#45;&gt;Node24</title>
<path fill="none" stroke="#63b8ff" d="M2444.8,-129.51C2436.09,-127.3 2426.59,-125.23 2417.69,-124 2035.61,-71.02 773.63,-72.18 540.05,-72.86"/>
<polygon fill="#63b8ff" stroke="#63b8ff" points="540.32,-69.36 530.33,-72.89 540.34,-76.36 540.32,-69.36"/>
</g>
<!-- Node35&#45;&gt;Node25 -->
<g id="edge63" class="edge">
<title>Node35&#45;&gt;Node25</title>
<path fill="none" stroke="#63b8ff" d="M2442.87,-129.53C2434.67,-127.48 2425.91,-125.48 2417.69,-124 2336.52,-109.36 2093.45,-86.36 1991.98,-77.08"/>
<polygon fill="#63b8ff" stroke="#63b8ff" points="1992.39,-73.6 1982.11,-76.18 1991.75,-80.57 1992.39,-73.6"/>
</g>
<!-- Node36 -->
<g id="node36" class="node">
<title>Node36</title>
<g id="a_node36"><a xlink:title=" ">
<polygon fill="#e0e0e0" stroke="#999999" points="2525.94,-88 2391.44,-88 2391.44,-56 2525.94,-56 2525.94,-88"/>
<text text-anchor="start" x="2399.44" y="-74.5" font-family="Helvetica,sans-Serif" font-size="10.00">boost/unordered/concurrent</text>
<text text-anchor="middle" x="2458.69" y="-62.5" font-family="Helvetica,sans-Serif" font-size="10.00">_flat_map.hpp</text>
</a>
</g>
</g>
<!-- Node35&#45;&gt;Node36 -->
<g id="edge59" class="edge">
<title>Node35&#45;&gt;Node36</title>
<path fill="none" stroke="#63b8ff" d="M2474.11,-129.54C2471.96,-121.64 2468.78,-109.97 2465.86,-99.29"/>
<polygon fill="#63b8ff" stroke="#63b8ff" points="2469.27,-98.49 2463.26,-89.76 2462.52,-100.33 2469.27,-98.49"/>
</g>
</g>
</svg>
