<?xml version="1.0" encoding="UTF-8" standalone="no"?>
<!DOCTYPE svg PUBLIC "-//W3C//DTD SVG 1.1//EN"
 "http://www.w3.org/Graphics/SVG/1.1/DTD/svg11.dtd">
<!-- Generated by graphviz version 10.0.1 (20240210.2158)
 -->
<!-- Title: D:/FMT/Include/FMTcoordinate.hpp Pages: 1 -->
<!--zoomable 420 -->
<svg id="main" version="1.1" xmlns="http://www.w3.org/2000/svg" xmlns:xlink="http://www.w3.org/1999/xlink" xml:space="preserve" onload="init(evt)">
<style type="text/css"><![CDATA[
.edge:hover path { stroke: red; }
.edge:hover polygon { stroke: red; fill: red; }
]]></style>
<script type="text/javascript"><![CDATA[
var edges = document.getElementsByTagName('g');
if (edges && edges.length) {
  for (var i=0;i<edges.length;i++) {
    if (edges[i].id.substr(0,4)=='edge') {
      edges[i].setAttribute('class','edge');
    }
  }
}
]]></script>
        <defs>
                <circle id="rim" cx="0" cy="0" r="7"/>
                <circle id="rim2" cx="0" cy="0" r="3.5"/>
                <g id="zoomPlus">
                        <use xlink:href="#rim" fill="#404040">
                                <set attributeName="fill" to="#808080" begin="zoomplus.mouseover" end="zoomplus.mouseout"/>
                        </use>
                        <path d="M-4,0h8M0,-4v8" fill="none" stroke="white" stroke-width="1.5" pointer-events="none"/>
                </g>
                <g id="zoomMin">
                        <use xlink:href="#rim" fill="#404040">
                                <set attributeName="fill" to="#808080" begin="zoomminus.mouseover" end="zoomminus.mouseout"/>
                        </use>
                        <path d="M-4,0h8" fill="none" stroke="white" stroke-width="1.5" pointer-events="none"/>
                </g>
                <g id="dirArrow">
                        <path fill="none" stroke="white" stroke-width="1.5" d="M0,-3.0v7 M-2.5,-0.5L0,-3.0L2.5,-0.5"/>
                </g>
               <g id="resetDef">
                       <use xlink:href="#rim2" fill="#404040">
                               <set attributeName="fill" to="#808080" begin="reset.mouseover" end="reset.mouseout"/>
                       </use>
               </g>
        </defs>

<script type="text/javascript">
var viewWidth = 899;
var viewHeight = 420;
var sectionId = 'dynsection-1';
</script>
<script xlink:href="svgpan.js"/>
<svg id="graph" class="graph">
<g id="viewport">
<title>D:/FMT/Include/FMTcoordinate.hpp</title>
<!-- Node1 -->
<g id="node1" class="node">
<title>Node1</title>
<g id="a_node1"><a xlink:title=" ">
<polygon fill="#999999" stroke="#666666" points="615.38,-412 447.12,-412 447.12,-392 615.38,-392 615.38,-412"/>
<text text-anchor="middle" x="531.25" y="-398.5" font-family="Helvetica,sans-Serif" font-size="10.00">D:/FMT/Include/FMTcoordinate.hpp</text>
</a>
</g>
</g>
<!-- Node2 -->
<g id="node2" class="node">
<title>Node2</title>
<g id="a_node2"><a xlink:href="FMTevent_8hpp.html" target="_top" xlink:title=" ">
<polygon fill="white" stroke="#666666" points="374.12,-356 228.38,-356 228.38,-336 374.12,-336 374.12,-356"/>
<text text-anchor="middle" x="301.25" y="-342.5" font-family="Helvetica,sans-Serif" font-size="10.00">D:/FMT/Include/FMTevent.hpp</text>
</a>
</g>
</g>
<!-- Node1&#45;&gt;Node2 -->
<g id="edge1" class="edge">
<title>Node1&#45;&gt;Node2</title>
<path fill="none" stroke="#63b8ff" d="M479.87,-388.94C438.1,-379.13 379.99,-365.49 341.53,-356.46"/>
<polygon fill="#63b8ff" stroke="#63b8ff" points="478.92,-392.31 489.45,-391.19 480.52,-385.49 478.92,-392.31"/>
</g>
<!-- Node8 -->
<g id="node8" class="node">
<title>Node8</title>
<g id="a_node8"><a xlink:href="Rdeclarations_8hpp.html" target="_top" xlink:title=" ">
<polygon fill="white" stroke="#666666" points="728.75,-76 565.75,-76 565.75,-56 728.75,-56 728.75,-76"/>
<text text-anchor="middle" x="647.25" y="-62.5" font-family="Helvetica,sans-Serif" font-size="10.00">D:/FMT/Include/Rdeclarations.hpp</text>
</a>
</g>
</g>
<!-- Node1&#45;&gt;Node8 -->
<g id="edge29" class="edge">
<title>Node1&#45;&gt;Node8</title>
<path fill="none" stroke="#63b8ff" d="M604.62,-388.33C625.41,-381.66 646.61,-371.49 662.25,-356 684.02,-334.43 685.25,-321.64 685.25,-291 685.25,-291 685.25,-291 685.25,-177 685.25,-137.8 663.43,-94.84 652.86,-76.33"/>
<polygon fill="#63b8ff" stroke="#63b8ff" points="603.87,-384.9 595.27,-391.08 605.85,-391.62 603.87,-384.9"/>
</g>
<!-- Node13 -->
<g id="node13" class="node">
<title>Node13</title>
<g id="a_node13"><a xlink:href="RexportSpatial_8hpp.html" target="_top" xlink:title=" ">
<polygon fill="white" stroke="#666666" points="263,-188 95.5,-188 95.5,-168 263,-168 263,-188"/>
<text text-anchor="middle" x="179.25" y="-174.5" font-family="Helvetica,sans-Serif" font-size="10.00">D:/FMT/Include/RexportSpatial.hpp</text>
</a>
</g>
</g>
<!-- Node1&#45;&gt;Node13 -->
<g id="edge30" class="edge">
<title>Node1&#45;&gt;Node13</title>
<path fill="none" stroke="#63b8ff" d="M435.46,-396.09C357.14,-390.47 253.9,-378.91 219.25,-356 167.43,-321.74 169.14,-285.99 173.25,-224 174.07,-211.57 176.17,-197.35 177.65,-188.27"/>
<polygon fill="#63b8ff" stroke="#63b8ff" points="435.09,-399.57 445.31,-396.77 435.58,-392.59 435.09,-399.57"/>
</g>
<!-- Node14 -->
<g id="node14" class="node">
<title>Node14</title>
<g id="a_node14"><a xlink:href="PYexportSpatial_8hpp.html" target="_top" xlink:title=" ">
<polygon fill="white" stroke="#666666" points="581.38,-244 407.12,-244 407.12,-224 581.38,-224 581.38,-244"/>
<text text-anchor="middle" x="494.25" y="-230.5" font-family="Helvetica,sans-Serif" font-size="10.00">D:/FMT/Include/PYexportSpatial.hpp</text>
</a>
</g>
</g>
<!-- Node1&#45;&gt;Node14 -->
<g id="edge28" class="edge">
<title>Node1&#45;&gt;Node14</title>
<path fill="none" stroke="#63b8ff" d="M515.26,-382.76C509.44,-375.03 503.5,-365.6 500.25,-356 486.83,-316.35 490.65,-265.23 493.01,-244.43"/>
<polygon fill="#63b8ff" stroke="#63b8ff" points="512.38,-384.77 521.4,-390.34 517.82,-380.37 512.38,-384.77"/>
</g>
<!-- Node15 -->
<g id="node15" class="node">
<title>Node15</title>
<g id="a_node15"><a xlink:href="FMTeventrelation_8hpp.html" target="_top" xlink:title=" ">
<polygon fill="white" stroke="#666666" points="890.88,-356 713.62,-356 713.62,-336 890.88,-336 890.88,-356"/>
<text text-anchor="middle" x="802.25" y="-342.5" font-family="Helvetica,sans-Serif" font-size="10.00">D:/FMT/Include/FMTeventrelation.hpp</text>
</a>
</g>
</g>
<!-- Node1&#45;&gt;Node15 -->
<g id="edge21" class="edge">
<title>Node1&#45;&gt;Node15</title>
<path fill="none" stroke="#63b8ff" d="M589.9,-389.31C639.25,-379.48 708.9,-365.6 754.79,-356.46"/>
<polygon fill="#63b8ff" stroke="#63b8ff" points="589.37,-385.85 580.25,-391.24 590.74,-392.71 589.37,-385.85"/>
</g>
<!-- Node16 -->
<g id="node16" class="node">
<title>Node16</title>
<g id="a_node16"><a xlink:href="FMTlayer_8hpp.html" target="_top" xlink:title=" ">
<polygon fill="white" stroke="#666666" points="653.38,-356 509.12,-356 509.12,-336 653.38,-336 653.38,-356"/>
<text text-anchor="middle" x="581.25" y="-342.5" font-family="Helvetica,sans-Serif" font-size="10.00">D:/FMT/Include/FMTlayer.hpp</text>
</a>
</g>
</g>
<!-- Node1&#45;&gt;Node16 -->
<g id="edge22" class="edge">
<title>Node1&#45;&gt;Node16</title>
<path fill="none" stroke="#63b8ff" d="M547.65,-383.29C555.99,-374.28 565.79,-363.7 572.64,-356.3"/>
<polygon fill="#63b8ff" stroke="#63b8ff" points="545.21,-380.77 540.99,-390.48 550.35,-385.52 545.21,-380.77"/>
</g>
<!-- Node3 -->
<g id="node3" class="node">
<title>Node3</title>
<g id="a_node3"><a xlink:href="FMTeventcontainer_8hpp.html" target="_top" xlink:title=" ">
<polygon fill="white" stroke="#666666" points="394,-300 208.5,-300 208.5,-280 394,-280 394,-300"/>
<text text-anchor="middle" x="301.25" y="-286.5" font-family="Helvetica,sans-Serif" font-size="10.00">D:/FMT/Include/FMTeventcontainer.hpp</text>
</a>
</g>
</g>
<!-- Node2&#45;&gt;Node3 -->
<g id="edge2" class="edge">
<title>Node2&#45;&gt;Node3</title>
<path fill="none" stroke="#63b8ff" d="M301.25,-324.13C301.25,-315.9 301.25,-306.85 301.25,-300.3"/>
<polygon fill="#63b8ff" stroke="#63b8ff" points="297.75,-324.08 301.25,-334.08 304.75,-324.08 297.75,-324.08"/>
</g>
<!-- Node2&#45;&gt;Node13 -->
<g id="edge20" class="edge">
<title>Node2&#45;&gt;Node13</title>
<path fill="none" stroke="#63b8ff" d="M245.89,-331.72C228.56,-324.95 210.94,-314.87 199.25,-300 172.68,-266.18 175.59,-210.4 178,-188.37"/>
<polygon fill="#63b8ff" stroke="#63b8ff" points="244.57,-334.96 255.16,-335.02 246.91,-328.37 244.57,-334.96"/>
</g>
<!-- Node4 -->
<g id="node4" class="node">
<title>Node4</title>
<g id="a_node4"><a xlink:href="FMTspatialschedule_8hpp.html" target="_top" xlink:title=" ">
<polygon fill="white" stroke="#666666" points="388.62,-244 197.88,-244 197.88,-224 388.62,-224 388.62,-244"/>
<text text-anchor="middle" x="293.25" y="-230.5" font-family="Helvetica,sans-Serif" font-size="10.00">D:/FMT/Include/FMTspatialschedule.hpp</text>
</a>
</g>
</g>
<!-- Node3&#45;&gt;Node4 -->
<g id="edge3" class="edge">
<title>Node3&#45;&gt;Node4</title>
<path fill="none" stroke="#63b8ff" d="M298.2,-268.43C296.97,-260.11 295.61,-250.93 294.63,-244.3"/>
<polygon fill="#63b8ff" stroke="#63b8ff" points="294.71,-268.72 299.63,-278.1 301.63,-267.69 294.71,-268.72"/>
</g>
<!-- Node3&#45;&gt;Node14 -->
<g id="edge19" class="edge">
<title>Node3&#45;&gt;Node14</title>
<path fill="none" stroke="#63b8ff" d="M345.71,-276.56C380.63,-266.79 428.51,-253.39 460.37,-244.48"/>
<polygon fill="#63b8ff" stroke="#63b8ff" points="345.01,-273.12 336.33,-279.19 346.9,-279.86 345.01,-273.12"/>
</g>
<!-- Node5 -->
<g id="node5" class="node">
<title>Node5</title>
<g id="a_node5"><a xlink:href="FMTsemodel_8hpp.html" target="_top" xlink:title=" ">
<polygon fill="white" stroke="#666666" points="459.25,-188 299.25,-188 299.25,-168 459.25,-168 459.25,-188"/>
<text text-anchor="middle" x="379.25" y="-174.5" font-family="Helvetica,sans-Serif" font-size="10.00">D:/FMT/Include/FMTsemodel.hpp</text>
</a>
</g>
</g>
<!-- Node4&#45;&gt;Node5 -->
<g id="edge4" class="edge">
<title>Node4&#45;&gt;Node5</title>
<path fill="none" stroke="#63b8ff" d="M317.87,-217.54C332.8,-208.17 351.37,-196.51 364.15,-188.48"/>
<polygon fill="#63b8ff" stroke="#63b8ff" points="316.12,-214.51 309.51,-222.79 319.84,-220.44 316.12,-214.51"/>
</g>
<!-- Node4&#45;&gt;Node13 -->
<g id="edge18" class="edge">
<title>Node4&#45;&gt;Node13</title>
<path fill="none" stroke="#63b8ff" d="M263.16,-218.75C242.97,-209.18 216.94,-196.85 199.26,-188.48"/>
<polygon fill="#63b8ff" stroke="#63b8ff" points="261.49,-221.83 272.02,-222.95 264.49,-215.5 261.49,-221.83"/>
</g>
<!-- Node6 -->
<g id="node6" class="node">
<title>Node6</title>
<g id="a_node6"><a xlink:href="FMTsamodel_8hpp.html" target="_top" xlink:title=" ">
<polygon fill="white" stroke="#666666" points="576.25,-132 416.25,-132 416.25,-112 576.25,-112 576.25,-132"/>
<text text-anchor="middle" x="496.25" y="-118.5" font-family="Helvetica,sans-Serif" font-size="10.00">D:/FMT/Include/FMTsamodel.hpp</text>
</a>
</g>
</g>
<!-- Node5&#45;&gt;Node6 -->
<g id="edge5" class="edge">
<title>Node5&#45;&gt;Node6</title>
<path fill="none" stroke="#63b8ff" d="M409.85,-162.88C430.61,-153.3 457.49,-140.89 475.71,-132.48"/>
<polygon fill="#63b8ff" stroke="#63b8ff" points="408.62,-159.59 401,-166.96 411.55,-165.95 408.62,-159.59"/>
</g>
<!-- Node7 -->
<g id="node7" class="node">
<title>Node7</title>
<g id="a_node7"><a xlink:href="PYexportModel_8hpp.html" target="_top" xlink:title=" ">
<polygon fill="white" stroke="#666666" points="170.5,-76 0,-76 0,-56 170.5,-56 170.5,-76"/>
<text text-anchor="middle" x="85.25" y="-62.5" font-family="Helvetica,sans-Serif" font-size="10.00">D:/FMT/Include/PYexportModel.hpp</text>
</a>
</g>
</g>
<!-- Node5&#45;&gt;Node7 -->
<g id="edge15" class="edge">
<title>Node5&#45;&gt;Node7</title>
<path fill="none" stroke="#63b8ff" d="M302.19,-165.51C265.79,-158.49 222.3,-147.76 185.25,-132 150.57,-117.25 114.66,-90.62 96.79,-76.46"/>
<polygon fill="#63b8ff" stroke="#63b8ff" points="301.28,-168.9 311.75,-167.29 302.57,-162.02 301.28,-168.9"/>
</g>
<!-- Node5&#45;&gt;Node8 -->
<g id="edge16" class="edge">
<title>Node5&#45;&gt;Node8</title>
<path fill="none" stroke="#63b8ff" d="M470.38,-168.9C507.79,-162.65 550.4,-151.59 585.25,-132 610.26,-117.94 631.35,-90.51 641.23,-76.2"/>
<polygon fill="#63b8ff" stroke="#63b8ff" points="470.3,-165.37 460.97,-170.38 471.39,-172.29 470.3,-165.37"/>
</g>
<!-- Node9 -->
<g id="node9" class="node">
<title>Node9</title>
<g id="a_node9"><a xlink:href="RexportModel_8hpp.html" target="_top" xlink:title=" ">
<polygon fill="white" stroke="#666666" points="548.12,-76 384.38,-76 384.38,-56 548.12,-56 548.12,-76"/>
<text text-anchor="middle" x="466.25" y="-62.5" font-family="Helvetica,sans-Serif" font-size="10.00">D:/FMT/Include/RexportModel.hpp</text>
</a>
</g>
</g>
<!-- Node5&#45;&gt;Node9 -->
<g id="edge17" class="edge">
<title>Node5&#45;&gt;Node9</title>
<path fill="none" stroke="#63b8ff" d="M384.84,-157.18C389.36,-143.52 396.72,-125.48 407.25,-112 418.91,-97.07 436.63,-84.45 449.61,-76.41"/>
<polygon fill="#63b8ff" stroke="#63b8ff" points="381.61,-155.79 382.03,-166.38 388.3,-157.84 381.61,-155.79"/>
</g>
<!-- Node10 -->
<g id="node10" class="node">
<title>Node10</title>
<g id="a_node10"><a xlink:href="FMTsesmodel_8hpp.html" target="_top" xlink:title=" ">
<polygon fill="white" stroke="#666666" points="359.88,-132 194.62,-132 194.62,-112 359.88,-112 359.88,-132"/>
<text text-anchor="middle" x="277.25" y="-118.5" font-family="Helvetica,sans-Serif" font-size="10.00">D:/FMT/Include/FMTsesmodel.hpp</text>
</a>
</g>
</g>
<!-- Node5&#45;&gt;Node10 -->
<g id="edge9" class="edge">
<title>Node5&#45;&gt;Node10</title>
<path fill="none" stroke="#63b8ff" d="M351.32,-162.21C333.41,-152.73 310.68,-140.7 295.16,-132.48"/>
<polygon fill="#63b8ff" stroke="#63b8ff" points="349.67,-165.3 360.15,-166.89 352.95,-159.11 349.67,-165.3"/>
</g>
<!-- Node6&#45;&gt;Node7 -->
<g id="edge6" class="edge">
<title>Node6&#45;&gt;Node7</title>
<path fill="none" stroke="#63b8ff" d="M412.91,-110.05C337.82,-100.18 228.59,-85.83 157.23,-76.46"/>
<polygon fill="#63b8ff" stroke="#63b8ff" points="412.32,-113.5 422.69,-111.33 413.23,-106.56 412.32,-113.5"/>
</g>
<!-- Node6&#45;&gt;Node8 -->
<g id="edge7" class="edge">
<title>Node6&#45;&gt;Node8</title>
<path fill="none" stroke="#63b8ff" d="M533.19,-107.79C560.29,-98.1 596.46,-85.16 620.74,-76.48"/>
<polygon fill="#63b8ff" stroke="#63b8ff" points="532.21,-104.42 523.98,-111.08 534.57,-111.01 532.21,-104.42"/>
</g>
<!-- Node6&#45;&gt;Node9 -->
<g id="edge8" class="edge">
<title>Node6&#45;&gt;Node9</title>
<path fill="none" stroke="#63b8ff" d="M485.46,-101.58C480.68,-92.97 475.27,-83.24 471.42,-76.3"/>
<polygon fill="#63b8ff" stroke="#63b8ff" points="482.37,-103.23 490.29,-110.27 488.49,-99.83 482.37,-103.23"/>
</g>
<!-- Node10&#45;&gt;Node7 -->
<g id="edge12" class="edge">
<title>Node10&#45;&gt;Node7</title>
<path fill="none" stroke="#63b8ff" d="M233.02,-108.56C198.28,-98.79 150.65,-85.39 118.95,-76.48"/>
<polygon fill="#63b8ff" stroke="#63b8ff" points="231.77,-111.85 242.35,-111.18 233.67,-105.11 231.77,-111.85"/>
</g>
<!-- Node10&#45;&gt;Node8 -->
<g id="edge13" class="edge">
<title>Node10&#45;&gt;Node8</title>
<path fill="none" stroke="#63b8ff" d="M353.11,-109.93C420.68,-100.07 518.48,-85.79 582.45,-76.46"/>
<polygon fill="#63b8ff" stroke="#63b8ff" points="353.01,-106.41 343.62,-111.31 354.02,-113.33 353.01,-106.41"/>
</g>
<!-- Node10&#45;&gt;Node9 -->
<g id="edge14" class="edge">
<title>Node10&#45;&gt;Node9</title>
<path fill="none" stroke="#63b8ff" d="M321.24,-108.43C355.39,-98.67 402.01,-85.35 433.07,-76.48"/>
<polygon fill="#63b8ff" stroke="#63b8ff" points="320.28,-105.07 311.63,-111.18 322.2,-111.8 320.28,-105.07"/>
</g>
<!-- Node11 -->
<g id="node11" class="node">
<title>Node11</title>
<g id="a_node11"><a xlink:href="FMTpythonpickle_8hpp.html" target="_top" xlink:title=" ">
<polygon fill="white" stroke="#666666" points="366.25,-76 188.25,-76 188.25,-56 366.25,-56 366.25,-76"/>
<text text-anchor="middle" x="277.25" y="-62.5" font-family="Helvetica,sans-Serif" font-size="10.00">D:/FMT/Include/FMTpythonpickle.hpp</text>
</a>
</g>
</g>
<!-- Node10&#45;&gt;Node11 -->
<g id="edge10" class="edge">
<title>Node10&#45;&gt;Node11</title>
<path fill="none" stroke="#63b8ff" d="M277.25,-100.13C277.25,-91.9 277.25,-82.85 277.25,-76.3"/>
<polygon fill="#63b8ff" stroke="#63b8ff" points="273.75,-100.08 277.25,-110.08 280.75,-100.08 273.75,-100.08"/>
</g>
<!-- Node12 -->
<g id="node12" class="node">
<title>Node12</title>
<g id="a_node12"><a xlink:href="PYexportHeuristics_8hpp.html" target="_top" xlink:title=" ">
<polygon fill="white" stroke="#666666" points="371.12,-20 183.38,-20 183.38,0 371.12,0 371.12,-20"/>
<text text-anchor="middle" x="277.25" y="-6.5" font-family="Helvetica,sans-Serif" font-size="10.00">D:/FMT/Include/PYexportHeuristics.hpp</text>
</a>
</g>
</g>
<!-- Node11&#45;&gt;Node12 -->
<g id="edge11" class="edge">
<title>Node11&#45;&gt;Node12</title>
<path fill="none" stroke="#63b8ff" d="M277.25,-44.13C277.25,-35.9 277.25,-26.85 277.25,-20.3"/>
<polygon fill="#63b8ff" stroke="#63b8ff" points="273.75,-44.08 277.25,-54.08 280.75,-44.08 273.75,-44.08"/>
</g>
<!-- Node16&#45;&gt;Node4 -->
<g id="edge27" class="edge">
<title>Node16&#45;&gt;Node4</title>
<path fill="none" stroke="#63b8ff" d="M545.77,-331.45C486.61,-308.85 369.28,-264.04 318.1,-244.49"/>
<polygon fill="#63b8ff" stroke="#63b8ff" points="544.44,-334.69 555.03,-334.99 546.94,-328.15 544.44,-334.69"/>
</g>
<!-- Node17 -->
<g id="node17" class="node">
<title>Node17</title>
<g id="a_node17"><a xlink:href="FMTforest_8hpp.html" target="_top" xlink:title=" ">
<polygon fill="white" stroke="#666666" points="656.88,-300 509.62,-300 509.62,-280 656.88,-280 656.88,-300"/>
<text text-anchor="middle" x="583.25" y="-286.5" font-family="Helvetica,sans-Serif" font-size="10.00">D:/FMT/Include/FMTforest.hpp</text>
</a>
</g>
</g>
<!-- Node16&#45;&gt;Node17 -->
<g id="edge23" class="edge">
<title>Node16&#45;&gt;Node17</title>
<path fill="none" stroke="#63b8ff" d="M582.02,-324.13C582.33,-315.9 582.66,-306.85 582.91,-300.3"/>
<polygon fill="#63b8ff" stroke="#63b8ff" points="578.53,-323.96 581.65,-334.08 585.52,-324.22 578.53,-323.96"/>
</g>
<!-- Node17&#45;&gt;Node8 -->
<g id="edge25" class="edge">
<title>Node17&#45;&gt;Node8</title>
<path fill="none" stroke="#63b8ff" d="M594.94,-269.82C599.3,-262.03 603.98,-252.8 607.25,-244 630.2,-182.29 642.34,-103.37 646.02,-76.47"/>
<polygon fill="#63b8ff" stroke="#63b8ff" points="591.96,-267.99 589.93,-278.38 598,-271.52 591.96,-267.99"/>
</g>
<!-- Node17&#45;&gt;Node13 -->
<g id="edge26" class="edge">
<title>Node17&#45;&gt;Node13</title>
<path fill="none" stroke="#63b8ff" d="M592.4,-269.43C597.6,-255.11 601.13,-236.14 590.25,-224 584.83,-217.95 381.62,-197.96 263.01,-186.77"/>
<polygon fill="#63b8ff" stroke="#63b8ff" points="589.32,-267.73 588.71,-278.3 595.78,-270.42 589.32,-267.73"/>
</g>
<!-- Node17&#45;&gt;Node14 -->
<g id="edge24" class="edge">
<title>Node17&#45;&gt;Node14</title>
<path fill="none" stroke="#63b8ff" d="M558.22,-273.81C542.69,-264.39 523.23,-252.58 509.87,-244.48"/>
<polygon fill="#63b8ff" stroke="#63b8ff" points="556.09,-276.61 566.45,-278.81 559.72,-270.63 556.09,-276.61"/>
</g>
</g>
</svg>
        <g id="navigator" transform="translate(0 0)" fill="#404254">
                <rect fill="#f2f5e9" fill-opacity="0.5" stroke="#606060" stroke-width=".5" x="0" y="0" width="60" height="60"/>
                <use id="zoomplus" xlink:href="#zoomPlus" x="17" y="9" onmousedown="handleZoom(evt,'in')"/>
                <use id="zoomminus" xlink:href="#zoomMin" x="42" y="9" onmousedown="handleZoom(evt,'out')"/>
                <use id="reset" xlink:href="#resetDef" x="30" y="36" onmousedown="handleReset()"/>
                <g id="arrowUp" xlink:href="#dirArrow" transform="translate(30 24)" onmousedown="handlePan(0,-1)">
                  <use xlink:href="#rim" fill="#404040">
                        <set attributeName="fill" to="#808080" begin="arrowUp.mouseover" end="arrowUp.mouseout"/>
                  </use>
                  <path fill="none" stroke="white" stroke-width="1.5" d="M0,-3.0v7 M-2.5,-0.5L0,-3.0L2.5,-0.5"/>
                </g>
                <g id="arrowRight" xlink:href="#dirArrow" transform="rotate(90) translate(36 -43)" onmousedown="handlePan(1,0)">
                  <use xlink:href="#rim" fill="#404040">
                        <set attributeName="fill" to="#808080" begin="arrowRight.mouseover" end="arrowRight.mouseout"/>
                  </use>
                  <path fill="none" stroke="white" stroke-width="1.5" d="M0,-3.0v7 M-2.5,-0.5L0,-3.0L2.5,-0.5"/>
                </g>
                <g id="arrowDown" xlink:href="#dirArrow" transform="rotate(180) translate(-30 -48)" onmousedown="handlePan(0,1)">
                  <use xlink:href="#rim" fill="#404040">
                        <set attributeName="fill" to="#808080" begin="arrowDown.mouseover" end="arrowDown.mouseout"/>
                  </use>
                  <path fill="none" stroke="white" stroke-width="1.5" d="M0,-3.0v7 M-2.5,-0.5L0,-3.0L2.5,-0.5"/>
                </g>
                <g id="arrowLeft" xlink:href="#dirArrow" transform="rotate(270) translate(-36 17)" onmousedown="handlePan(-1,0)">
                  <use xlink:href="#rim" fill="#404040">
                        <set attributeName="fill" to="#808080" begin="arrowLeft.mouseover" end="arrowLeft.mouseout"/>
                  </use>
                  <path fill="none" stroke="white" stroke-width="1.5" d="M0,-3.0v7 M-2.5,-0.5L0,-3.0L2.5,-0.5"/>
                </g>
        </g>
        <svg viewBox="0 0 15 15" width="100%" height="30px" preserveAspectRatio="xMaxYMin meet">
         <g id="arrow_out" transform="scale(0.3 0.3)">
          <a xlink:href="FMTcoordinate_8hpp__dep__incl_org.svg" target="_base">
           <rect id="button" ry="5" rx="5" y="6" x="6" height="38" width="38"
                fill="#f2f5e9" fill-opacity="0.5" stroke="#606060" stroke-width="1.0"/>
           <path id="arrow"
             d="M 11.500037,31.436501 C 11.940474,20.09759 22.043105,11.32322 32.158766,21.979434 L 37.068811,17.246167 C 37.068811,17.246167 37.088388,32 37.088388,32 L 22.160133,31.978069 C 22.160133,31.978069 26.997745,27.140456 26.997745,27.140456 C 18.528582,18.264221 13.291696,25.230495 11.500037,31.436501 z"
             style="fill:#404040;"/>
          </a>
         </g>
        </svg>
</svg>
