<?xml version="1.0" encoding="UTF-8" standalone="no"?>
<!DOCTYPE svg PUBLIC "-//W3C//DTD SVG 1.1//EN"
 "http://www.w3.org/Graphics/SVG/1.1/DTD/svg11.dtd">
<!-- Generated by graphviz version 10.0.1 (20240210.2158)
 -->
<!-- Title: D:/FMT/Include/FMTConstants.h Pages: 1 -->
<svg width="666pt" height="152pt"
 viewBox="0.00 0.00 666.00 152.00" xmlns="http://www.w3.org/2000/svg" xmlns:xlink="http://www.w3.org/1999/xlink">
<g id="graph0" class="graph" transform="scale(1 1) rotate(0) translate(4 148)">
<title>D:/FMT/Include/FMTConstants.h</title>
<!-- Node1 -->
<g id="node1" class="node">
<title>Node1</title>
<g id="a_node1"><a xlink:title=" ">
<polygon fill="#999999" stroke="#666666" points="493.88,-144 336.88,-144 336.88,-124 493.88,-124 493.88,-144"/>
<text text-anchor="middle" x="415.38" y="-130.5" font-family="Helvetica,sans-Serif" font-size="10.00">D:/FMT/Include/FMTConstants.h</text>
</a>
</g>
</g>
<!-- Node2 -->
<g id="node2" class="node">
<title>Node2</title>
<g id="a_node2"><a xlink:href="FMTModelParser_8h.html" target="_top" xlink:title=" ">
<polygon fill="white" stroke="#666666" points="320.12,-88 152.62,-88 152.62,-68 320.12,-68 320.12,-88"/>
<text text-anchor="middle" x="236.38" y="-74.5" font-family="Helvetica,sans-Serif" font-size="10.00">D:/FMT/Include/FMTModelParser.h</text>
</a>
</g>
</g>
<!-- Node1&#45;&gt;Node2 -->
<g id="edge1" class="edge">
<title>Node1&#45;&gt;Node2</title>
<path fill="none" stroke="#63b8ff" d="M373.29,-120.31C340.99,-110.56 297.09,-97.32 267.8,-88.48"/>
<polygon fill="#63b8ff" stroke="#63b8ff" points="372.16,-123.62 382.75,-123.16 374.18,-116.92 372.16,-123.62"/>
</g>
<!-- Node6 -->
<g id="node6" class="node">
<title>Node6</title>
<g id="a_node6"><a xlink:href="PYexportCore_8h.html" target="_top" xlink:title=" ">
<polygon fill="white" stroke="#666666" points="492.38,-88 338.38,-88 338.38,-68 492.38,-68 492.38,-88"/>
<text text-anchor="middle" x="415.38" y="-74.5" font-family="Helvetica,sans-Serif" font-size="10.00">D:/FMT/Include/PYexportCore.h</text>
</a>
</g>
</g>
<!-- Node1&#45;&gt;Node6 -->
<g id="edge5" class="edge">
<title>Node1&#45;&gt;Node6</title>
<path fill="none" stroke="#63b8ff" d="M415.38,-112.13C415.38,-103.9 415.38,-94.85 415.38,-88.3"/>
<polygon fill="#63b8ff" stroke="#63b8ff" points="411.88,-112.08 415.38,-122.08 418.88,-112.08 411.88,-112.08"/>
</g>
<!-- Node7 -->
<g id="node7" class="node">
<title>Node7</title>
<g id="a_node7"><a xlink:href="RexportCore_8h.html" target="_top" xlink:title=" ">
<polygon fill="white" stroke="#666666" points="658,-88 510.75,-88 510.75,-68 658,-68 658,-88"/>
<text text-anchor="middle" x="584.38" y="-74.5" font-family="Helvetica,sans-Serif" font-size="10.00">D:/FMT/Include/RexportCore.h</text>
</a>
</g>
</g>
<!-- Node1&#45;&gt;Node7 -->
<g id="edge6" class="edge">
<title>Node1&#45;&gt;Node7</title>
<path fill="none" stroke="#63b8ff" d="M455.5,-120.18C485.97,-110.44 527.17,-97.28 554.71,-88.48"/>
<polygon fill="#63b8ff" stroke="#63b8ff" points="454.71,-116.76 446.25,-123.13 456.85,-123.42 454.71,-116.76"/>
</g>
<!-- Node3 -->
<g id="node3" class="node">
<title>Node3</title>
<g id="a_node3"><a xlink:href="FMTParallelWriter_8h.html" target="_top" xlink:title=" ">
<polygon fill="white" stroke="#666666" points="136.75,-32 0,-32 0,0 136.75,0 136.75,-32"/>
<text text-anchor="start" x="8" y="-18.5" font-family="Helvetica,sans-Serif" font-size="10.00">D:/FMT/Include/FMTParallel</text>
<text text-anchor="middle" x="68.38" y="-6.5" font-family="Helvetica,sans-Serif" font-size="10.00">Writer.h</text>
</a>
</g>
</g>
<!-- Node2&#45;&gt;Node3 -->
<g id="edge2" class="edge">
<title>Node2&#45;&gt;Node3</title>
<path fill="none" stroke="#63b8ff" d="M199.62,-63.87C173.74,-54.63 138.99,-42.22 111.75,-32.49"/>
<polygon fill="#63b8ff" stroke="#63b8ff" points="198.11,-67.05 208.7,-67.12 200.46,-60.46 198.11,-67.05"/>
</g>
<!-- Node4 -->
<g id="node4" class="node">
<title>Node4</title>
<g id="a_node4"><a xlink:href="PYexportParser_8h.html" target="_top" xlink:title=" ">
<polygon fill="white" stroke="#666666" points="317.5,-26 155.25,-26 155.25,-6 317.5,-6 317.5,-26"/>
<text text-anchor="middle" x="236.38" y="-12.5" font-family="Helvetica,sans-Serif" font-size="10.00">D:/FMT/Include/PYexportParser.h</text>
</a>
</g>
</g>
<!-- Node2&#45;&gt;Node4 -->
<g id="edge3" class="edge">
<title>Node2&#45;&gt;Node4</title>
<path fill="none" stroke="#63b8ff" d="M236.38,-56.25C236.38,-45.97 236.38,-34.09 236.38,-26.11"/>
<polygon fill="#63b8ff" stroke="#63b8ff" points="232.88,-56.11 236.38,-66.11 239.88,-56.11 232.88,-56.11"/>
</g>
<!-- Node5 -->
<g id="node5" class="node">
<title>Node5</title>
<g id="a_node5"><a xlink:href="RexportParser_8h.html" target="_top" xlink:title=" ">
<polygon fill="white" stroke="#666666" points="491.12,-26 335.62,-26 335.62,-6 491.12,-6 491.12,-26"/>
<text text-anchor="middle" x="413.38" y="-12.5" font-family="Helvetica,sans-Serif" font-size="10.00">D:/FMT/Include/RexportParser.h</text>
</a>
</g>
</g>
<!-- Node2&#45;&gt;Node5 -->
<g id="edge4" class="edge">
<title>Node2&#45;&gt;Node5</title>
<path fill="none" stroke="#63b8ff" d="M274.77,-63.98C308.18,-52.66 355.79,-36.52 385.62,-26.41"/>
<polygon fill="#63b8ff" stroke="#63b8ff" points="273.81,-60.61 265.46,-67.14 276.06,-67.24 273.81,-60.61"/>
</g>
</g>
</svg>
