<?xml version="1.0" encoding="UTF-8" standalone="no"?>
<!DOCTYPE svg PUBLIC "-//W3C//DTD SVG 1.1//EN"
 "http://www.w3.org/Graphics/SVG/1.1/DTD/svg11.dtd">
<!-- Generated by graphviz version 10.0.1 (20240210.2158)
 -->
<!-- Title: D:/FMT/Include/FMTcomplexyieldhandler.hpp Pages: 1 -->
<!--zoomable 264 -->
<svg id="main" version="1.1" xmlns="http://www.w3.org/2000/svg" xmlns:xlink="http://www.w3.org/1999/xlink" xml:space="preserve" onload="init(evt)">
<style type="text/css"><![CDATA[
.edge:hover path { stroke: red; }
.edge:hover polygon { stroke: red; fill: red; }
]]></style>
<script type="text/javascript"><![CDATA[
var edges = document.getElementsByTagName('g');
if (edges && edges.length) {
  for (var i=0;i<edges.length;i++) {
    if (edges[i].id.substr(0,4)=='edge') {
      edges[i].setAttribute('class','edge');
    }
  }
}
]]></script>
        <defs>
                <circle id="rim" cx="0" cy="0" r="7"/>
                <circle id="rim2" cx="0" cy="0" r="3.5"/>
                <g id="zoomPlus">
                        <use xlink:href="#rim" fill="#404040">
                                <set attributeName="fill" to="#808080" begin="zoomplus.mouseover" end="zoomplus.mouseout"/>
                        </use>
                        <path d="M-4,0h8M0,-4v8" fill="none" stroke="white" stroke-width="1.5" pointer-events="none"/>
                </g>
                <g id="zoomMin">
                        <use xlink:href="#rim" fill="#404040">
                                <set attributeName="fill" to="#808080" begin="zoomminus.mouseover" end="zoomminus.mouseout"/>
                        </use>
                        <path d="M-4,0h8" fill="none" stroke="white" stroke-width="1.5" pointer-events="none"/>
                </g>
                <g id="dirArrow">
                        <path fill="none" stroke="white" stroke-width="1.5" d="M0,-3.0v7 M-2.5,-0.5L0,-3.0L2.5,-0.5"/>
                </g>
               <g id="resetDef">
                       <use xlink:href="#rim2" fill="#404040">
                               <set attributeName="fill" to="#808080" begin="reset.mouseover" end="reset.mouseout"/>
                       </use>
               </g>
        </defs>

<script type="text/javascript">
var viewWidth = 2729;
var viewHeight = 264;
var sectionId = 'dynsection-0';
</script>
<script xlink:href="svgpan.js"/>
<svg id="graph" class="graph">
<g id="viewport">
<title>D:/FMT/Include/FMTcomplexyieldhandler.hpp</title>
<!-- Node1 -->
<g id="node1" class="node">
<title>Node1</title>
<g id="a_node1"><a xlink:title=" ">
<polygon fill="#999999" stroke="#666666" points="1210.09,-256 998.34,-256 998.34,-236 1210.09,-236 1210.09,-256"/>
<text text-anchor="middle" x="1104.22" y="-242.5" font-family="Helvetica,sans-Serif" font-size="10.00">D:/FMT/Include/FMTcomplexyieldhandler.hpp</text>
</a>
</g>
</g>
<!-- Node2 -->
<g id="node2" class="node">
<title>Node2</title>
<g id="a_node2"><a xlink:href="FMTyieldhandler_8hpp.html" target="_top" xlink:title=" ">
<polygon fill="white" stroke="#666666" points="1021.22,-200 915.22,-200 915.22,-180 1021.22,-180 1021.22,-200"/>
<text text-anchor="middle" x="968.22" y="-186.5" font-family="Helvetica,sans-Serif" font-size="10.00">FMTyieldhandler.hpp</text>
</a>
</g>
</g>
<!-- Node1&#45;&gt;Node2 -->
<g id="edge1" class="edge">
<title>Node1&#45;&gt;Node2</title>
<path fill="none" stroke="#63b8ff" d="M1080.53,-235.59C1059.01,-227.05 1027.02,-214.35 1002.67,-204.68"/>
<polygon fill="#63b8ff" stroke="#63b8ff" points="1004.08,-201.48 993.5,-201.04 1001.5,-207.98 1004.08,-201.48"/>
</g>
<!-- Node3 -->
<g id="node3" class="node">
<title>Node3</title>
<g id="a_node3"><a xlink:title=" ">
<polygon fill="#e0e0e0" stroke="#999999" points="1558.22,-20 1518.22,-20 1518.22,0 1558.22,0 1558.22,-20"/>
<text text-anchor="middle" x="1538.22" y="-6.5" font-family="Helvetica,sans-Serif" font-size="10.00">string</text>
</a>
</g>
</g>
<!-- Node1&#45;&gt;Node3 -->
<g id="edge62" class="edge">
<title>Node1&#45;&gt;Node3</title>
<path fill="none" stroke="#63b8ff" d="M1210.37,-242.29C1542.26,-232.71 2543.87,-195.09 2638.22,-88 2647.62,-77.33 2648.07,-66.26 2638.22,-56 2619.2,-36.19 1747.57,-15.68 1569.71,-11.69"/>
<polygon fill="#63b8ff" stroke="#63b8ff" points="1569.93,-8.2 1559.86,-11.47 1569.78,-15.2 1569.93,-8.2"/>
</g>
<!-- Node8 -->
<g id="node8" class="node">
<title>Node8</title>
<g id="a_node8"><a xlink:title=" ">
<polygon fill="#e0e0e0" stroke="#999999" points="675.59,-88 580.84,-88 580.84,-56 675.59,-56 675.59,-88"/>
<text text-anchor="start" x="588.84" y="-74.5" font-family="Helvetica,sans-Serif" font-size="10.00">boost/serialization</text>
<text text-anchor="middle" x="628.22" y="-62.5" font-family="Helvetica,sans-Serif" font-size="10.00">/serialization.hpp</text>
</a>
</g>
</g>
<!-- Node1&#45;&gt;Node8 -->
<g id="edge63" class="edge">
<title>Node1&#45;&gt;Node8</title>
<path fill="none" stroke="#63b8ff" d="M1026.96,-235.53C915.76,-220.57 717.84,-188.51 662.22,-144 648.27,-132.84 639.7,-114.57 634.66,-99.36"/>
<polygon fill="#63b8ff" stroke="#63b8ff" points="638.07,-98.55 631.88,-89.94 631.35,-100.53 638.07,-98.55"/>
</g>
<!-- Node9 -->
<g id="node9" class="node">
<title>Node9</title>
<g id="a_node9"><a xlink:title=" ">
<polygon fill="#e0e0e0" stroke="#999999" points="1106.59,-88 1011.84,-88 1011.84,-56 1106.59,-56 1106.59,-88"/>
<text text-anchor="start" x="1019.84" y="-74.5" font-family="Helvetica,sans-Serif" font-size="10.00">boost/serialization</text>
<text text-anchor="middle" x="1059.22" y="-62.5" font-family="Helvetica,sans-Serif" font-size="10.00">/nvp.hpp</text>
</a>
</g>
</g>
<!-- Node1&#45;&gt;Node9 -->
<g id="edge64" class="edge">
<title>Node1&#45;&gt;Node9</title>
<path fill="none" stroke="#63b8ff" d="M1126.39,-235.64C1168.95,-216.34 1255.01,-170.06 1221.22,-124 1217.94,-119.54 1162.8,-102.77 1117.75,-89.67"/>
<polygon fill="#63b8ff" stroke="#63b8ff" points="1118.88,-86.35 1108.3,-86.93 1116.93,-93.07 1118.88,-86.35"/>
</g>
<!-- Node22 -->
<g id="node22" class="node">
<title>Node22</title>
<g id="a_node22"><a xlink:title=" ">
<polygon fill="#e0e0e0" stroke="#999999" points="2720.84,-20 2669.59,-20 2669.59,0 2720.84,0 2720.84,-20"/>
<text text-anchor="middle" x="2695.22" y="-6.5" font-family="Helvetica,sans-Serif" font-size="10.00">memory</text>
</a>
</g>
</g>
<!-- Node1&#45;&gt;Node22 -->
<g id="edge65" class="edge">
<title>Node1&#45;&gt;Node22</title>
<path fill="none" stroke="#63b8ff" d="M1210.55,-243.29C1499.14,-237.74 2292.14,-216.17 2542.22,-144 2601.1,-127.01 2626.67,-133.05 2668.22,-88 2682.74,-72.25 2689.53,-48.22 2692.65,-31.2"/>
<polygon fill="#63b8ff" stroke="#63b8ff" points="2696.04,-32.18 2694.11,-21.76 2689.12,-31.12 2696.04,-32.18"/>
</g>
<!-- Node31 -->
<g id="node31" class="node">
<title>Node31</title>
<g id="a_node31"><a xlink:href="FMTdata_8hpp.html" target="_top" xlink:title=" ">
<polygon fill="white" stroke="#666666" points="593.72,-144 520.72,-144 520.72,-124 593.72,-124 593.72,-144"/>
<text text-anchor="middle" x="557.22" y="-130.5" font-family="Helvetica,sans-Serif" font-size="10.00">FMTdata.hpp</text>
</a>
</g>
</g>
<!-- Node1&#45;&gt;Node31 -->
<g id="edge50" class="edge">
<title>Node1&#45;&gt;Node31</title>
<path fill="none" stroke="#63b8ff" d="M997.93,-244.47C874.06,-242.26 678.05,-233.38 613.22,-200 593.2,-189.69 577.3,-168.9 567.64,-153.6"/>
<polygon fill="#63b8ff" stroke="#63b8ff" points="570.86,-152.18 562.74,-145.38 564.85,-155.76 570.86,-152.18"/>
</g>
<!-- Node2&#45;&gt;Node3 -->
<g id="edge2" class="edge">
<title>Node2&#45;&gt;Node3</title>
<path fill="none" stroke="#63b8ff" d="M914.95,-180.4C825.03,-163.81 658.81,-123 722.22,-56 749.67,-27 1360.12,-14.2 1506.76,-11.54"/>
<polygon fill="#63b8ff" stroke="#63b8ff" points="1506.55,-15.04 1516.49,-11.37 1506.43,-8.04 1506.55,-15.04"/>
</g>
<!-- Node4 -->
<g id="node4" class="node">
<title>Node4</title>
<g id="a_node4"><a xlink:title=" ">
<polygon fill="#e0e0e0" stroke="#999999" points="765.59,-82 730.84,-82 730.84,-62 765.59,-62 765.59,-82"/>
<text text-anchor="middle" x="748.22" y="-68.5" font-family="Helvetica,sans-Serif" font-size="10.00">map</text>
</a>
</g>
</g>
<!-- Node2&#45;&gt;Node4 -->
<g id="edge3" class="edge">
<title>Node2&#45;&gt;Node4</title>
<path fill="none" stroke="#63b8ff" d="M921.36,-179.55C892.63,-172.47 855.8,-161.04 826.22,-144 801.55,-129.79 778.07,-106.65 763.44,-90.67"/>
<polygon fill="#63b8ff" stroke="#63b8ff" points="766.18,-88.48 756.91,-83.34 760.95,-93.13 766.18,-88.48"/>
</g>
<!-- Node5 -->
<g id="node5" class="node">
<title>Node5</title>
<g id="a_node5"><a xlink:title=" ">
<polygon fill="#e0e0e0" stroke="#999999" points="1116.59,-144 1033.84,-144 1033.84,-124 1116.59,-124 1116.59,-144"/>
<text text-anchor="middle" x="1075.22" y="-130.5" font-family="Helvetica,sans-Serif" font-size="10.00">unordered_map</text>
</a>
</g>
</g>
<!-- Node2&#45;&gt;Node5 -->
<g id="edge4" class="edge">
<title>Node2&#45;&gt;Node5</title>
<path fill="none" stroke="#63b8ff" d="M986.85,-179.59C1003.25,-171.32 1027.38,-159.14 1046.28,-149.6"/>
<polygon fill="#63b8ff" stroke="#63b8ff" points="1047.73,-152.79 1055.08,-145.16 1044.58,-146.54 1047.73,-152.79"/>
</g>
<!-- Node6 -->
<g id="node6" class="node">
<title>Node6</title>
<g id="a_node6"><a xlink:title=" ">
<polygon fill="#e0e0e0" stroke="#999999" points="1211.97,-144 1134.47,-144 1134.47,-124 1211.97,-124 1211.97,-144"/>
<text text-anchor="middle" x="1173.22" y="-130.5" font-family="Helvetica,sans-Serif" font-size="10.00">unordered_set</text>
</a>
</g>
</g>
<!-- Node2&#45;&gt;Node6 -->
<g id="edge5" class="edge">
<title>Node2&#45;&gt;Node6</title>
<path fill="none" stroke="#63b8ff" d="M1003.93,-179.59C1037.82,-170.67 1088.96,-157.19 1126.17,-147.39"/>
<polygon fill="#63b8ff" stroke="#63b8ff" points="1126.99,-150.8 1135.77,-144.87 1125.2,-144.03 1126.99,-150.8"/>
</g>
<!-- Node7 -->
<g id="node7" class="node">
<title>Node7</title>
<g id="a_node7"><a xlink:title=" ">
<polygon fill="#e0e0e0" stroke="#999999" points="839.09,-82 783.34,-82 783.34,-62 839.09,-62 839.09,-82"/>
<text text-anchor="middle" x="811.22" y="-68.5" font-family="Helvetica,sans-Serif" font-size="10.00">algorithm</text>
</a>
</g>
</g>
<!-- Node2&#45;&gt;Node7 -->
<g id="edge6" class="edge">
<title>Node2&#45;&gt;Node7</title>
<path fill="none" stroke="#63b8ff" d="M916.53,-179.51C892.53,-172.92 864.99,-161.97 845.22,-144 830.22,-130.38 821.19,-108.73 816.25,-92.92"/>
<polygon fill="#63b8ff" stroke="#63b8ff" points="819.72,-92.32 813.64,-83.65 812.98,-94.22 819.72,-92.32"/>
</g>
<!-- Node2&#45;&gt;Node8 -->
<g id="edge7" class="edge">
<title>Node2&#45;&gt;Node8</title>
<path fill="none" stroke="#63b8ff" d="M914.84,-184.77C844.97,-178.49 726.94,-165.12 689.22,-144 669.72,-133.09 653.58,-113.42 642.8,-97.55"/>
<polygon fill="#63b8ff" stroke="#63b8ff" points="645.99,-96.04 637.63,-89.54 640.12,-99.84 645.99,-96.04"/>
</g>
<!-- Node2&#45;&gt;Node9 -->
<g id="edge8" class="edge">
<title>Node2&#45;&gt;Node9</title>
<path fill="none" stroke="#63b8ff" d="M975.66,-179.51C989.65,-161.68 1020.25,-122.68 1040.27,-97.15"/>
<polygon fill="#63b8ff" stroke="#63b8ff" points="1042.77,-99.63 1046.19,-89.6 1037.27,-95.31 1042.77,-99.63"/>
</g>
<!-- Node10 -->
<g id="node10" class="node">
<title>Node10</title>
<g id="a_node10"><a xlink:href="FMTmask_8hpp.html" target="_top" xlink:title=" ">
<polygon fill="white" stroke="#666666" points="1531.34,-144 1453.09,-144 1453.09,-124 1531.34,-124 1531.34,-144"/>
<text text-anchor="middle" x="1492.22" y="-130.5" font-family="Helvetica,sans-Serif" font-size="10.00">FMTmask.hpp</text>
</a>
</g>
</g>
<!-- Node2&#45;&gt;Node10 -->
<g id="edge9" class="edge">
<title>Node2&#45;&gt;Node10</title>
<path fill="none" stroke="#63b8ff" d="M1021.34,-183.53C1122.71,-173.08 1342.43,-150.44 1441.71,-140.2"/>
<polygon fill="#63b8ff" stroke="#63b8ff" points="1441.83,-143.71 1451.42,-139.2 1441.11,-136.75 1441.83,-143.71"/>
</g>
<!-- Node23 -->
<g id="node23" class="node">
<title>Node23</title>
<g id="a_node23"><a xlink:href="FMTutility_8hpp.html" target="_top" xlink:title=" ">
<polygon fill="white" stroke="#666666" points="729.97,-20 652.47,-20 652.47,0 729.97,0 729.97,-20"/>
<text text-anchor="middle" x="691.22" y="-6.5" font-family="Helvetica,sans-Serif" font-size="10.00">FMTutility.hpp</text>
</a>
</g>
</g>
<!-- Node2&#45;&gt;Node23 -->
<g id="edge29" class="edge">
<title>Node2&#45;&gt;Node23</title>
<path fill="none" stroke="#63b8ff" d="M915.01,-187.49C722.2,-181.47 68.19,-156.13 7.22,-88 -2.27,-77.4 -2.5,-66.38 7.22,-56 50.27,-10.02 490.01,-9.31 640.8,-10.45"/>
<polygon fill="#63b8ff" stroke="#63b8ff" points="640.44,-13.94 650.47,-10.53 640.5,-6.94 640.44,-13.94"/>
</g>
<!-- Node24 -->
<g id="node24" class="node">
<title>Node24</title>
<g id="a_node24"><a xlink:title=" ">
<polygon fill="#e0e0e0" stroke="#999999" points="993.97,-82 952.47,-82 952.47,-62 993.97,-62 993.97,-82"/>
<text text-anchor="middle" x="973.22" y="-68.5" font-family="Helvetica,sans-Serif" font-size="10.00">vector</text>
</a>
</g>
</g>
<!-- Node2&#45;&gt;Node24 -->
<g id="edge28" class="edge">
<title>Node2&#45;&gt;Node24</title>
<path fill="none" stroke="#63b8ff" d="M968.63,-179.51C969.43,-160.81 971.24,-118.82 972.33,-93.51"/>
<polygon fill="#63b8ff" stroke="#63b8ff" points="975.82,-93.95 972.75,-83.81 968.82,-93.65 975.82,-93.95"/>
</g>
<!-- Node25 -->
<g id="node25" class="node">
<title>Node25</title>
<g id="a_node25"><a xlink:href="FMTobject_8hpp.html" target="_top" xlink:title=" ">
<polygon fill="white" stroke="#666666" points="2188.47,-144 2107.97,-144 2107.97,-124 2188.47,-124 2188.47,-144"/>
<text text-anchor="middle" x="2148.22" y="-130.5" font-family="Helvetica,sans-Serif" font-size="10.00">FMTobject.hpp</text>
</a>
</g>
</g>
<!-- Node2&#45;&gt;Node25 -->
<g id="edge30" class="edge">
<title>Node2&#45;&gt;Node25</title>
<path fill="none" stroke="#63b8ff" d="M1021.6,-186.56C1218.35,-177.55 1901.65,-146.28 2096.18,-137.38"/>
<polygon fill="#63b8ff" stroke="#63b8ff" points="2096.14,-140.89 2105.97,-136.93 2095.82,-133.89 2096.14,-140.89"/>
</g>
<!-- Node29 -->
<g id="node29" class="node">
<title>Node29</title>
<g id="a_node29"><a xlink:href="FMTbounds_8hpp.html" target="_top" xlink:title=" ">
<polygon fill="white" stroke="#666666" points="940.09,-144 854.34,-144 854.34,-124 940.09,-124 940.09,-144"/>
<text text-anchor="middle" x="897.22" y="-130.5" font-family="Helvetica,sans-Serif" font-size="10.00">FMTbounds.hpp</text>
</a>
</g>
</g>
<!-- Node2&#45;&gt;Node29 -->
<g id="edge39" class="edge">
<title>Node2&#45;&gt;Node29</title>
<path fill="none" stroke="#63b8ff" d="M955.85,-179.59C945.57,-171.77 930.7,-160.46 918.51,-151.19"/>
<polygon fill="#63b8ff" stroke="#63b8ff" points="920.73,-148.48 910.65,-145.21 916.49,-154.05 920.73,-148.48"/>
</g>
<!-- Node10&#45;&gt;Node3 -->
<g id="edge27" class="edge">
<title>Node10&#45;&gt;Node3</title>
<path fill="none" stroke="#63b8ff" d="M1498.88,-123.78C1504.96,-114.98 1513.8,-101.14 1519.22,-88 1526.84,-69.52 1531.93,-47.23 1534.9,-31.4"/>
<polygon fill="#63b8ff" stroke="#63b8ff" points="1538.31,-32.23 1536.59,-21.78 1531.42,-31.03 1538.31,-32.23"/>
</g>
<!-- Node10&#45;&gt;Node8 -->
<g id="edge15" class="edge">
<title>Node10&#45;&gt;Node8</title>
<path fill="none" stroke="#63b8ff" d="M1452.84,-132.09C1339.21,-129.15 1001.11,-118.33 722.22,-88 710.88,-86.77 698.83,-85.11 687.27,-83.35"/>
<polygon fill="#63b8ff" stroke="#63b8ff" points="687.83,-79.89 677.41,-81.79 686.74,-86.81 687.83,-79.89"/>
</g>
<!-- Node10&#45;&gt;Node9 -->
<g id="edge17" class="edge">
<title>Node10&#45;&gt;Node9</title>
<path fill="none" stroke="#63b8ff" d="M1452.7,-130.08C1385.83,-124.75 1246.01,-111.91 1118.15,-88.19"/>
<polygon fill="#63b8ff" stroke="#63b8ff" points="1118.96,-84.78 1108.49,-86.37 1117.67,-91.66 1118.96,-84.78"/>
</g>
<!-- Node11 -->
<g id="node11" class="node">
<title>Node11</title>
<g id="a_node11"><a xlink:title=" ">
<polygon fill="#e0e0e0" stroke="#999999" points="1510.09,-82 1382.34,-82 1382.34,-62 1510.09,-62 1510.09,-82"/>
<text text-anchor="middle" x="1446.22" y="-68.5" font-family="Helvetica,sans-Serif" font-size="10.00">boost/dynamic_bitset.hpp</text>
</a>
</g>
</g>
<!-- Node10&#45;&gt;Node11 -->
<g id="edge10" class="edge">
<title>Node10&#45;&gt;Node11</title>
<path fill="none" stroke="#63b8ff" d="M1485.03,-123.62C1478.37,-114.94 1468.3,-101.8 1460.08,-91.08"/>
<polygon fill="#63b8ff" stroke="#63b8ff" points="1462.99,-89.12 1454.12,-83.31 1457.43,-93.38 1462.99,-89.12"/>
</g>
<!-- Node12 -->
<g id="node12" class="node">
<title>Node12</title>
<g id="a_node12"><a xlink:title=" ">
<polygon fill="#e0e0e0" stroke="#999999" points="1694.47,-82 1565.97,-82 1565.97,-62 1694.47,-62 1694.47,-82"/>
<text text-anchor="middle" x="1630.22" y="-68.5" font-family="Helvetica,sans-Serif" font-size="10.00">boost/unordered_map.hpp</text>
</a>
</g>
</g>
<!-- Node10&#45;&gt;Node12 -->
<g id="edge11" class="edge">
<title>Node10&#45;&gt;Node12</title>
<path fill="none" stroke="#63b8ff" d="M1513.78,-123.62C1536.46,-113.76 1572.41,-98.13 1598.36,-86.85"/>
<polygon fill="#63b8ff" stroke="#63b8ff" points="1599.64,-90.11 1607.42,-82.91 1596.85,-83.69 1599.64,-90.11"/>
</g>
<!-- Node13 -->
<g id="node13" class="node">
<title>Node13</title>
<g id="a_node13"><a xlink:title=" ">
<polygon fill="#e0e0e0" stroke="#999999" points="1954.47,-82 1825.97,-82 1825.97,-62 1954.47,-62 1954.47,-82"/>
<text text-anchor="middle" x="1890.22" y="-68.5" font-family="Helvetica,sans-Serif" font-size="10.00">boost/algorithm/string.hpp</text>
</a>
</g>
</g>
<!-- Node10&#45;&gt;Node13 -->
<g id="edge12" class="edge">
<title>Node10&#45;&gt;Node13</title>
<path fill="none" stroke="#63b8ff" d="M1531.74,-128.31C1592.89,-120.88 1714.05,-105.43 1816.22,-88 1822.19,-86.98 1828.43,-85.84 1834.63,-84.65"/>
<polygon fill="#63b8ff" stroke="#63b8ff" points="1835.06,-88.14 1844.21,-82.78 1833.72,-81.27 1835.06,-88.14"/>
</g>
<!-- Node14 -->
<g id="node14" class="node">
<title>Node14</title>
<g id="a_node14"><a xlink:title=" ">
<polygon fill="#e0e0e0" stroke="#999999" points="2082.09,-88 1972.34,-88 1972.34,-56 2082.09,-56 2082.09,-88"/>
<text text-anchor="start" x="1980.34" y="-74.5" font-family="Helvetica,sans-Serif" font-size="10.00">boost/algorithm/string</text>
<text text-anchor="middle" x="2027.22" y="-62.5" font-family="Helvetica,sans-Serif" font-size="10.00">/join.hpp</text>
</a>
</g>
</g>
<!-- Node10&#45;&gt;Node14 -->
<g id="edge13" class="edge">
<title>Node10&#45;&gt;Node14</title>
<path fill="none" stroke="#63b8ff" d="M1531.84,-131.02C1611.32,-126.67 1796,-114.61 1960.83,-88.24"/>
<polygon fill="#63b8ff" stroke="#63b8ff" points="1961.35,-91.7 1970.66,-86.65 1960.23,-84.79 1961.35,-91.7"/>
</g>
<!-- Node15 -->
<g id="node15" class="node">
<title>Node15</title>
<g id="a_node15"><a xlink:title=" ">
<polygon fill="#e0e0e0" stroke="#999999" points="1364.72,-82 1237.72,-82 1237.72,-62 1364.72,-62 1364.72,-82"/>
<text text-anchor="middle" x="1301.22" y="-68.5" font-family="Helvetica,sans-Serif" font-size="10.00">boost/functional/hash.hpp</text>
</a>
</g>
</g>
<!-- Node10&#45;&gt;Node15 -->
<g id="edge14" class="edge">
<title>Node10&#45;&gt;Node15</title>
<path fill="none" stroke="#63b8ff" d="M1462.37,-123.62C1429.95,-113.44 1377.96,-97.11 1341.83,-85.76"/>
<polygon fill="#63b8ff" stroke="#63b8ff" points="1343.2,-82.52 1332.61,-82.86 1341.1,-89.2 1343.2,-82.52"/>
</g>
<!-- Node16 -->
<g id="node16" class="node">
<title>Node16</title>
<g id="a_node16"><a xlink:title=" ">
<polygon fill="#e0e0e0" stroke="#999999" points="2309.59,-88 2214.84,-88 2214.84,-56 2309.59,-56 2309.59,-88"/>
<text text-anchor="start" x="2222.84" y="-74.5" font-family="Helvetica,sans-Serif" font-size="10.00">boost/serialization</text>
<text text-anchor="middle" x="2262.22" y="-62.5" font-family="Helvetica,sans-Serif" font-size="10.00">/split_free.hpp</text>
</a>
</g>
</g>
<!-- Node10&#45;&gt;Node16 -->
<g id="edge16" class="edge">
<title>Node10&#45;&gt;Node16</title>
<path fill="none" stroke="#63b8ff" d="M1531.55,-133.19C1638.24,-133.13 1942.07,-129.21 2203.24,-88.08"/>
<polygon fill="#63b8ff" stroke="#63b8ff" points="2203.65,-91.56 2212.97,-86.52 2202.55,-84.65 2203.65,-91.56"/>
</g>
<!-- Node17 -->
<g id="node17" class="node">
<title>Node17</title>
<g id="a_node17"><a xlink:title=" ">
<polygon fill="#e0e0e0" stroke="#999999" points="1807.59,-88 1712.84,-88 1712.84,-56 1807.59,-56 1807.59,-88"/>
<text text-anchor="start" x="1720.84" y="-74.5" font-family="Helvetica,sans-Serif" font-size="10.00">boost/serialization</text>
<text text-anchor="middle" x="1760.22" y="-62.5" font-family="Helvetica,sans-Serif" font-size="10.00">/export.hpp</text>
</a>
</g>
</g>
<!-- Node10&#45;&gt;Node17 -->
<g id="edge18" class="edge">
<title>Node10&#45;&gt;Node17</title>
<path fill="none" stroke="#63b8ff" d="M1531.62,-125.18C1571.86,-117.06 1636.38,-103.69 1701.49,-88.35"/>
<polygon fill="#63b8ff" stroke="#63b8ff" points="1701.97,-91.83 1710.89,-86.12 1700.35,-85.02 1701.97,-91.83"/>
</g>
<!-- Node18 -->
<g id="node18" class="node">
<title>Node18</title>
<g id="a_node18"><a xlink:title=" ">
<polygon fill="#e0e0e0" stroke="#999999" points="1219.59,-88 1124.84,-88 1124.84,-56 1219.59,-56 1219.59,-88"/>
<text text-anchor="start" x="1132.84" y="-74.5" font-family="Helvetica,sans-Serif" font-size="10.00">boost/serialization</text>
<text text-anchor="middle" x="1172.22" y="-62.5" font-family="Helvetica,sans-Serif" font-size="10.00">/string.hpp</text>
</a>
</g>
</g>
<!-- Node10&#45;&gt;Node18 -->
<g id="edge19" class="edge">
<title>Node10&#45;&gt;Node18</title>
<path fill="none" stroke="#63b8ff" d="M1452.8,-127.36C1403.35,-120.04 1315.74,-106.29 1231.14,-88.3"/>
<polygon fill="#63b8ff" stroke="#63b8ff" points="1232.03,-84.91 1221.52,-86.23 1230.56,-91.75 1232.03,-84.91"/>
</g>
<!-- Node19 -->
<g id="node19" class="node">
<title>Node19</title>
<g id="a_node19"><a xlink:href="FMTexception_8hpp.html" target="_top" xlink:title=" ">
<polygon fill="white" stroke="#666666" points="2196.34,-82 2100.09,-82 2100.09,-62 2196.34,-62 2196.34,-82"/>
<text text-anchor="middle" x="2148.22" y="-68.5" font-family="Helvetica,sans-Serif" font-size="10.00">FMTexception.hpp</text>
</a>
</g>
</g>
<!-- Node10&#45;&gt;Node19 -->
<g id="edge20" class="edge">
<title>Node10&#45;&gt;Node19</title>
<path fill="none" stroke="#63b8ff" d="M1531.76,-132.51C1628.12,-130.79 1882.43,-123.01 2091.22,-88 2095.87,-87.22 2100.7,-86.23 2105.49,-85.14"/>
<polygon fill="#63b8ff" stroke="#63b8ff" points="2106.13,-88.59 2115.01,-82.81 2104.47,-81.79 2106.13,-88.59"/>
</g>
<!-- Node10&#45;&gt;Node24 -->
<g id="edge26" class="edge">
<title>Node10&#45;&gt;Node24</title>
<path fill="none" stroke="#63b8ff" d="M1452.84,-131.26C1352.2,-126.51 1087.56,-112.04 1003.22,-88 1002.04,-87.66 1000.86,-87.28 999.67,-86.87"/>
<polygon fill="#63b8ff" stroke="#63b8ff" points="1001.24,-83.73 990.67,-83 998.47,-90.16 1001.24,-83.73"/>
</g>
<!-- Node19&#45;&gt;Node3 -->
<g id="edge22" class="edge">
<title>Node19&#45;&gt;Node3</title>
<path fill="none" stroke="#63b8ff" d="M2116.18,-61.51C2108.09,-59.41 2099.39,-57.4 2091.22,-56 1895.06,-22.48 1655.37,-13.75 1570.14,-11.64"/>
<polygon fill="#63b8ff" stroke="#63b8ff" points="1570.31,-8.14 1560.23,-11.4 1570.14,-15.14 1570.31,-8.14"/>
</g>
<!-- Node20 -->
<g id="node20" class="node">
<title>Node20</title>
<g id="a_node20"><a xlink:title=" ">
<polygon fill="#e0e0e0" stroke="#999999" points="2214.22,-20 2156.22,-20 2156.22,0 2214.22,0 2214.22,-20"/>
<text text-anchor="middle" x="2185.22" y="-6.5" font-family="Helvetica,sans-Serif" font-size="10.00">exception</text>
</a>
</g>
</g>
<!-- Node19&#45;&gt;Node20 -->
<g id="edge21" class="edge">
<title>Node19&#45;&gt;Node20</title>
<path fill="none" stroke="#63b8ff" d="M2154,-61.62C2159.24,-53.12 2167.13,-40.33 2173.66,-29.74"/>
<polygon fill="#63b8ff" stroke="#63b8ff" points="2176.53,-31.75 2178.8,-21.4 2170.58,-28.08 2176.53,-31.75"/>
</g>
<!-- Node21 -->
<g id="node21" class="node">
<title>Node21</title>
<g id="a_node21"><a xlink:title=" ">
<polygon fill="#e0e0e0" stroke="#999999" points="2137.97,-20 2084.47,-20 2084.47,0 2137.97,0 2137.97,-20"/>
<text text-anchor="middle" x="2111.22" y="-6.5" font-family="Helvetica,sans-Serif" font-size="10.00">iostream</text>
</a>
</g>
</g>
<!-- Node19&#45;&gt;Node21 -->
<g id="edge23" class="edge">
<title>Node19&#45;&gt;Node21</title>
<path fill="none" stroke="#63b8ff" d="M2142.44,-61.62C2137.19,-53.12 2129.31,-40.33 2122.77,-29.74"/>
<polygon fill="#63b8ff" stroke="#63b8ff" points="2125.86,-28.08 2117.63,-21.4 2119.9,-31.75 2125.86,-28.08"/>
</g>
<!-- Node19&#45;&gt;Node22 -->
<g id="edge24" class="edge">
<title>Node19&#45;&gt;Node22</title>
<path fill="none" stroke="#63b8ff" d="M2181.14,-61.5C2189.28,-59.43 2198.02,-57.43 2206.22,-56 2373.16,-26.93 2575.64,-15.87 2657.85,-12.38"/>
<polygon fill="#63b8ff" stroke="#63b8ff" points="2657.95,-15.88 2667.8,-11.97 2657.66,-8.89 2657.95,-15.88"/>
</g>
<!-- Node19&#45;&gt;Node23 -->
<g id="edge25" class="edge">
<title>Node19&#45;&gt;Node23</title>
<path fill="none" stroke="#63b8ff" d="M2117.42,-61.54C2109,-59.33 2099.82,-57.25 2091.22,-56 1822.88,-16.89 959.55,-11.77 741.57,-11.1"/>
<polygon fill="#63b8ff" stroke="#63b8ff" points="741.73,-7.6 731.72,-11.07 741.71,-14.6 741.73,-7.6"/>
</g>
<!-- Node25&#45;&gt;Node9 -->
<g id="edge32" class="edge">
<title>Node25&#45;&gt;Node9</title>
<path fill="none" stroke="#63b8ff" d="M2107.74,-132.39C1944.65,-129.76 1334.56,-118.19 1118.19,-87.99"/>
<polygon fill="#63b8ff" stroke="#63b8ff" points="1118.85,-84.55 1108.45,-86.57 1117.84,-91.48 1118.85,-84.55"/>
</g>
<!-- Node25&#45;&gt;Node17 -->
<g id="edge33" class="edge">
<title>Node25&#45;&gt;Node17</title>
<path fill="none" stroke="#63b8ff" d="M2107.7,-129.1C2047.12,-122.93 1929.19,-109.56 1819.3,-88.25"/>
<polygon fill="#63b8ff" stroke="#63b8ff" points="1819.99,-84.82 1809.5,-86.32 1818.63,-91.69 1819.99,-84.82"/>
</g>
<!-- Node25&#45;&gt;Node19 -->
<g id="edge34" class="edge">
<title>Node25&#45;&gt;Node19</title>
<path fill="none" stroke="#63b8ff" d="M2148.22,-123.62C2148.22,-115.56 2148.22,-103.65 2148.22,-93.41"/>
<polygon fill="#63b8ff" stroke="#63b8ff" points="2151.72,-93.63 2148.22,-83.63 2144.72,-93.63 2151.72,-93.63"/>
</g>
<!-- Node25&#45;&gt;Node22 -->
<g id="edge35" class="edge">
<title>Node25&#45;&gt;Node22</title>
<path fill="none" stroke="#63b8ff" d="M2188.59,-133.46C2291.63,-133.99 2561.63,-131.1 2638.22,-88 2661.04,-75.16 2677.34,-48.99 2686.52,-30.75"/>
<polygon fill="#63b8ff" stroke="#63b8ff" points="2689.67,-32.27 2690.77,-21.73 2683.34,-29.28 2689.67,-32.27"/>
</g>
<!-- Node25&#45;&gt;Node24 -->
<g id="edge37" class="edge">
<title>Node25&#45;&gt;Node24</title>
<path fill="none" stroke="#63b8ff" d="M2107.64,-132.42C1916.63,-129.55 1111.78,-115.89 1003.22,-88 1001.85,-87.65 1000.48,-87.23 999.11,-86.76"/>
<polygon fill="#63b8ff" stroke="#63b8ff" points="1000.88,-83.71 990.31,-83 998.13,-90.15 1000.88,-83.71"/>
</g>
<!-- Node26 -->
<g id="node26" class="node">
<title>Node26</title>
<g id="a_node26"><a xlink:title=" ">
<polygon fill="#e0e0e0" stroke="#999999" points="2565.59,-88 2470.84,-88 2470.84,-56 2565.59,-56 2565.59,-88"/>
<text text-anchor="start" x="2478.84" y="-74.5" font-family="Helvetica,sans-Serif" font-size="10.00">boost/serialization</text>
<text text-anchor="middle" x="2518.22" y="-62.5" font-family="Helvetica,sans-Serif" font-size="10.00">/shared_ptr.hpp</text>
</a>
</g>
</g>
<!-- Node25&#45;&gt;Node26 -->
<g id="edge31" class="edge">
<title>Node25&#45;&gt;Node26</title>
<path fill="none" stroke="#63b8ff" d="M2188.49,-128.7C2246.23,-122.22 2356.03,-108.69 2459.17,-88.26"/>
<polygon fill="#63b8ff" stroke="#63b8ff" points="2459.82,-91.7 2468.93,-86.3 2458.44,-84.84 2459.82,-91.7"/>
</g>
<!-- Node27 -->
<g id="node27" class="node">
<title>Node27</title>
<g id="a_node27"><a xlink:title=" ">
<polygon fill="#e0e0e0" stroke="#999999" points="2628.84,-82 2583.59,-82 2583.59,-62 2628.84,-62 2628.84,-82"/>
<text text-anchor="middle" x="2606.22" y="-68.5" font-family="Helvetica,sans-Serif" font-size="10.00">chrono</text>
</a>
</g>
</g>
<!-- Node25&#45;&gt;Node27 -->
<g id="edge36" class="edge">
<title>Node25&#45;&gt;Node27</title>
<path fill="none" stroke="#63b8ff" d="M2188.69,-133.16C2265.37,-132.49 2436.49,-126.38 2574.22,-88 2575.58,-87.62 2576.96,-87.19 2578.33,-86.71"/>
<polygon fill="#63b8ff" stroke="#63b8ff" points="2579.34,-90.08 2587.28,-83.07 2576.7,-83.6 2579.34,-90.08"/>
</g>
<!-- Node28 -->
<g id="node28" class="node">
<title>Node28</title>
<g id="a_node28"><a xlink:title=" ">
<polygon fill="#e0e0e0" stroke="#999999" points="2452.59,-88 2327.84,-88 2327.84,-56 2452.59,-56 2452.59,-88"/>
<text text-anchor="start" x="2335.84" y="-74.5" font-family="Helvetica,sans-Serif" font-size="10.00">boost/dll/runtime_symbol</text>
<text text-anchor="middle" x="2390.22" y="-62.5" font-family="Helvetica,sans-Serif" font-size="10.00">_info.hpp</text>
</a>
</g>
</g>
<!-- Node25&#45;&gt;Node28 -->
<g id="edge38" class="edge">
<title>Node25&#45;&gt;Node28</title>
<path fill="none" stroke="#63b8ff" d="M2186.3,-123.56C2221.19,-114.91 2273.82,-101.86 2316.87,-91.18"/>
<polygon fill="#63b8ff" stroke="#63b8ff" points="2317.55,-94.62 2326.41,-88.82 2315.86,-87.83 2317.55,-94.62"/>
</g>
<!-- Node29&#45;&gt;Node4 -->
<g id="edge41" class="edge">
<title>Node29&#45;&gt;Node4</title>
<path fill="none" stroke="#63b8ff" d="M866.8,-123.5C841.54,-115.23 804.91,-102.34 774.22,-88 774,-87.9 773.78,-87.79 773.56,-87.69"/>
<polygon fill="#63b8ff" stroke="#63b8ff" points="775.48,-84.74 765,-83.19 772.22,-90.94 775.48,-84.74"/>
</g>
<!-- Node29&#45;&gt;Node7 -->
<g id="edge49" class="edge">
<title>Node29&#45;&gt;Node7</title>
<path fill="none" stroke="#63b8ff" d="M883.78,-123.62C870.4,-114.29 849.62,-99.79 833.72,-88.7"/>
<polygon fill="#63b8ff" stroke="#63b8ff" points="836.01,-86.03 825.8,-83.18 832,-91.77 836.01,-86.03"/>
</g>
<!-- Node29&#45;&gt;Node8 -->
<g id="edge46" class="edge">
<title>Node29&#45;&gt;Node8</title>
<path fill="none" stroke="#63b8ff" d="M854.89,-123.56C809.63,-113.46 737.55,-97.39 686.85,-86.08"/>
<polygon fill="#63b8ff" stroke="#63b8ff" points="687.73,-82.69 677.21,-83.93 686.21,-89.52 687.73,-82.69"/>
</g>
<!-- Node29&#45;&gt;Node9 -->
<g id="edge47" class="edge">
<title>Node29&#45;&gt;Node9</title>
<path fill="none" stroke="#63b8ff" d="M922.53,-123.62C945.02,-115.3 978.61,-102.86 1006.86,-92.39"/>
<polygon fill="#63b8ff" stroke="#63b8ff" points="1007.81,-95.77 1015.97,-89.02 1005.38,-89.21 1007.81,-95.77"/>
</g>
<!-- Node29&#45;&gt;Node15 -->
<g id="edge45" class="edge">
<title>Node29&#45;&gt;Node15</title>
<path fill="none" stroke="#63b8ff" d="M940.47,-128.07C1003.81,-120.62 1125.46,-105.52 1228.22,-88 1234.2,-86.98 1240.43,-85.83 1246.63,-84.63"/>
<polygon fill="#63b8ff" stroke="#63b8ff" points="1247.07,-88.12 1256.2,-82.74 1245.71,-81.25 1247.07,-88.12"/>
</g>
<!-- Node29&#45;&gt;Node18 -->
<g id="edge48" class="edge">
<title>Node29&#45;&gt;Node18</title>
<path fill="none" stroke="#63b8ff" d="M940.38,-124.8C982.15,-116.71 1047.48,-103.64 1113.37,-88.36"/>
<polygon fill="#63b8ff" stroke="#63b8ff" points="1113.95,-91.82 1122.9,-86.14 1112.36,-85 1113.95,-91.82"/>
</g>
<!-- Node29&#45;&gt;Node19 -->
<g id="edge42" class="edge">
<title>Node29&#45;&gt;Node19</title>
<path fill="none" stroke="#63b8ff" d="M940.44,-129.57C965.24,-127.7 996.96,-125.47 1025.22,-124 1498.62,-99.37 1622.18,-156.75 2091.22,-88 2096.19,-87.27 2101.36,-86.27 2106.46,-85.13"/>
<polygon fill="#63b8ff" stroke="#63b8ff" points="2107.06,-88.58 2115.94,-82.81 2105.4,-81.78 2107.06,-88.58"/>
</g>
<!-- Node29&#45;&gt;Node23 -->
<g id="edge43" class="edge">
<title>Node29&#45;&gt;Node23</title>
<path fill="none" stroke="#63b8ff" d="M893.83,-123.62C887.48,-107.35 872.21,-73.92 848.22,-56 817.13,-32.77 774.41,-21.52 741.38,-16.08"/>
<polygon fill="#63b8ff" stroke="#63b8ff" points="742.04,-12.64 731.63,-14.61 741,-19.56 742.04,-12.64"/>
</g>
<!-- Node29&#45;&gt;Node24 -->
<g id="edge44" class="edge">
<title>Node29&#45;&gt;Node24</title>
<path fill="none" stroke="#63b8ff" d="M909.09,-123.62C920.76,-114.41 938.8,-100.17 952.78,-89.14"/>
<polygon fill="#63b8ff" stroke="#63b8ff" points="954.81,-91.99 960.49,-83.05 950.47,-86.5 954.81,-91.99"/>
</g>
<!-- Node30 -->
<g id="node30" class="node">
<title>Node30</title>
<g id="a_node30"><a xlink:title=" ">
<polygon fill="#e0e0e0" stroke="#999999" points="934.84,-82 895.59,-82 895.59,-62 934.84,-62 934.84,-82"/>
<text text-anchor="middle" x="915.22" y="-68.5" font-family="Helvetica,sans-Serif" font-size="10.00">limits</text>
</a>
</g>
</g>
<!-- Node29&#45;&gt;Node30 -->
<g id="edge40" class="edge">
<title>Node29&#45;&gt;Node30</title>
<path fill="none" stroke="#63b8ff" d="M900.03,-123.62C902.47,-115.48 906.1,-103.39 909.2,-93.07"/>
<polygon fill="#63b8ff" stroke="#63b8ff" points="912.53,-94.15 912.05,-83.56 905.82,-92.13 912.53,-94.15"/>
</g>
<!-- Node31&#45;&gt;Node3 -->
<g id="edge52" class="edge">
<title>Node31&#45;&gt;Node3</title>
<path fill="none" stroke="#63b8ff" d="M555.79,-123.66C553.86,-107.14 552.63,-72.92 572.22,-56 608.39,-24.75 1345.08,-13.48 1506.95,-11.38"/>
<polygon fill="#63b8ff" stroke="#63b8ff" points="1506.53,-14.89 1516.49,-11.26 1506.44,-7.89 1506.53,-14.89"/>
</g>
<!-- Node31&#45;&gt;Node4 -->
<g id="edge53" class="edge">
<title>Node31&#45;&gt;Node4</title>
<path fill="none" stroke="#63b8ff" d="M587.06,-123.62C623.42,-112.2 684.37,-93.06 719.98,-81.87"/>
<polygon fill="#63b8ff" stroke="#63b8ff" points="720.66,-85.33 729.15,-78.99 718.56,-78.65 720.66,-85.33"/>
</g>
<!-- Node31&#45;&gt;Node8 -->
<g id="edge55" class="edge">
<title>Node31&#45;&gt;Node8</title>
<path fill="none" stroke="#63b8ff" d="M568.31,-123.62C577.2,-116.11 590.04,-105.26 601.56,-95.52"/>
<polygon fill="#63b8ff" stroke="#63b8ff" points="603.49,-98.48 608.87,-89.35 598.97,-93.13 603.49,-98.48"/>
</g>
<!-- Node31&#45;&gt;Node9 -->
<g id="edge56" class="edge">
<title>Node31&#45;&gt;Node9</title>
<path fill="none" stroke="#63b8ff" d="M594.21,-131.29C669.19,-127.38 844.51,-116.06 1000.2,-88.38"/>
<polygon fill="#63b8ff" stroke="#63b8ff" points="1000.66,-91.85 1009.88,-86.63 999.42,-84.97 1000.66,-91.85"/>
</g>
<!-- Node31&#45;&gt;Node17 -->
<g id="edge60" class="edge">
<title>Node31&#45;&gt;Node17</title>
<path fill="none" stroke="#63b8ff" d="M593.96,-131.78C776.4,-125.71 1580.73,-98.61 1701.26,-87.63"/>
<polygon fill="#63b8ff" stroke="#63b8ff" points="1701.43,-91.13 1710.98,-86.54 1700.65,-84.17 1701.43,-91.13"/>
</g>
<!-- Node31&#45;&gt;Node23 -->
<g id="edge54" class="edge">
<title>Node31&#45;&gt;Node23</title>
<path fill="none" stroke="#63b8ff" d="M550.81,-123.96C540.72,-108.51 523.77,-76.68 539.22,-56 562.45,-24.9 606.22,-14.41 640.85,-11.26"/>
<polygon fill="#63b8ff" stroke="#63b8ff" points="640.97,-14.76 650.69,-10.56 640.47,-7.78 640.97,-14.76"/>
</g>
<!-- Node31&#45;&gt;Node24 -->
<g id="edge51" class="edge">
<title>Node31&#45;&gt;Node24</title>
<path fill="none" stroke="#63b8ff" d="M594.13,-133.09C664.02,-132.3 819.85,-126 944.22,-88 945.19,-87.7 946.17,-87.37 947.15,-87.02"/>
<polygon fill="#63b8ff" stroke="#63b8ff" points="948.28,-90.34 956.01,-83.1 945.45,-83.94 948.28,-90.34"/>
</g>
<!-- Node32 -->
<g id="node32" class="node">
<title>Node32</title>
<g id="a_node32"><a xlink:title=" ">
<polygon fill="#e0e0e0" stroke="#999999" points="374.59,-88 279.84,-88 279.84,-56 374.59,-56 374.59,-88"/>
<text text-anchor="start" x="287.84" y="-74.5" font-family="Helvetica,sans-Serif" font-size="10.00">boost/serialization</text>
<text text-anchor="middle" x="327.22" y="-62.5" font-family="Helvetica,sans-Serif" font-size="10.00">/map.hpp</text>
</a>
</g>
</g>
<!-- Node31&#45;&gt;Node32 -->
<g id="edge57" class="edge">
<title>Node31&#45;&gt;Node32</title>
<path fill="none" stroke="#63b8ff" d="M520.76,-123.55C488,-115.05 438.28,-102.13 385.7,-88.38"/>
<polygon fill="#63b8ff" stroke="#63b8ff" points="386.82,-85.06 376.26,-85.92 385.05,-91.83 386.82,-85.06"/>
</g>
<!-- Node33 -->
<g id="node33" class="node">
<title>Node33</title>
<g id="a_node33"><a xlink:title=" ">
<polygon fill="#e0e0e0" stroke="#999999" points="487.59,-88 392.84,-88 392.84,-56 487.59,-56 487.59,-88"/>
<text text-anchor="start" x="400.84" y="-74.5" font-family="Helvetica,sans-Serif" font-size="10.00">boost/serialization</text>
<text text-anchor="middle" x="440.22" y="-62.5" font-family="Helvetica,sans-Serif" font-size="10.00">/vector.hpp</text>
</a>
</g>
</g>
<!-- Node31&#45;&gt;Node33 -->
<g id="edge58" class="edge">
<title>Node31&#45;&gt;Node33</title>
<path fill="none" stroke="#63b8ff" d="M538.94,-123.62C523.28,-115.6 500.18,-103.75 480.27,-93.54"/>
<polygon fill="#63b8ff" stroke="#63b8ff" points="482.04,-90.51 471.54,-89.06 478.84,-96.74 482.04,-90.51"/>
</g>
<!-- Node34 -->
<g id="node34" class="node">
<title>Node34</title>
<g id="a_node34"><a xlink:title=" ">
<polygon fill="#e0e0e0" stroke="#999999" points="111.97,-88 16.47,-88 16.47,-56 111.97,-56 111.97,-88"/>
<text text-anchor="start" x="24.47" y="-74.5" font-family="Helvetica,sans-Serif" font-size="10.00">boost/serialization</text>
<text text-anchor="middle" x="64.22" y="-62.5" font-family="Helvetica,sans-Serif" font-size="10.00">/binary_object.hpp</text>
</a>
</g>
</g>
<!-- Node31&#45;&gt;Node34 -->
<g id="edge59" class="edge">
<title>Node31&#45;&gt;Node34</title>
<path fill="none" stroke="#63b8ff" d="M520.49,-131.13C446.89,-126.97 276.02,-115.25 123.27,-88.19"/>
<polygon fill="#63b8ff" stroke="#63b8ff" points="124.25,-84.81 113.79,-86.48 123.01,-91.7 124.25,-84.81"/>
</g>
<!-- Node35 -->
<g id="node35" class="node">
<title>Node35</title>
<g id="a_node35"><a xlink:title=" ">
<polygon fill="#e0e0e0" stroke="#999999" points="261.97,-88 130.47,-88 130.47,-56 261.97,-56 261.97,-88"/>
<text text-anchor="start" x="138.47" y="-74.5" font-family="Helvetica,sans-Serif" font-size="10.00">boost/unordered/unordered</text>
<text text-anchor="middle" x="196.22" y="-62.5" font-family="Helvetica,sans-Serif" font-size="10.00">_map_fwd.hpp</text>
</a>
</g>
</g>
<!-- Node31&#45;&gt;Node35 -->
<g id="edge61" class="edge">
<title>Node31&#45;&gt;Node35</title>
<path fill="none" stroke="#63b8ff" d="M520.57,-127.73C468.15,-120.08 368.5,-105.14 273.68,-88.4"/>
<polygon fill="#63b8ff" stroke="#63b8ff" points="274.39,-84.97 263.93,-86.66 273.17,-91.86 274.39,-84.97"/>
</g>
</g>
</svg>
        <g id="navigator" transform="translate(0 0)" fill="#404254">
                <rect fill="#f2f5e9" fill-opacity="0.5" stroke="#606060" stroke-width=".5" x="0" y="0" width="60" height="60"/>
                <use id="zoomplus" xlink:href="#zoomPlus" x="17" y="9" onmousedown="handleZoom(evt,'in')"/>
                <use id="zoomminus" xlink:href="#zoomMin" x="42" y="9" onmousedown="handleZoom(evt,'out')"/>
                <use id="reset" xlink:href="#resetDef" x="30" y="36" onmousedown="handleReset()"/>
                <g id="arrowUp" xlink:href="#dirArrow" transform="translate(30 24)" onmousedown="handlePan(0,-1)">
                  <use xlink:href="#rim" fill="#404040">
                        <set attributeName="fill" to="#808080" begin="arrowUp.mouseover" end="arrowUp.mouseout"/>
                  </use>
                  <path fill="none" stroke="white" stroke-width="1.5" d="M0,-3.0v7 M-2.5,-0.5L0,-3.0L2.5,-0.5"/>
                </g>
                <g id="arrowRight" xlink:href="#dirArrow" transform="rotate(90) translate(36 -43)" onmousedown="handlePan(1,0)">
                  <use xlink:href="#rim" fill="#404040">
                        <set attributeName="fill" to="#808080" begin="arrowRight.mouseover" end="arrowRight.mouseout"/>
                  </use>
                  <path fill="none" stroke="white" stroke-width="1.5" d="M0,-3.0v7 M-2.5,-0.5L0,-3.0L2.5,-0.5"/>
                </g>
                <g id="arrowDown" xlink:href="#dirArrow" transform="rotate(180) translate(-30 -48)" onmousedown="handlePan(0,1)">
                  <use xlink:href="#rim" fill="#404040">
                        <set attributeName="fill" to="#808080" begin="arrowDown.mouseover" end="arrowDown.mouseout"/>
                  </use>
                  <path fill="none" stroke="white" stroke-width="1.5" d="M0,-3.0v7 M-2.5,-0.5L0,-3.0L2.5,-0.5"/>
                </g>
                <g id="arrowLeft" xlink:href="#dirArrow" transform="rotate(270) translate(-36 17)" onmousedown="handlePan(-1,0)">
                  <use xlink:href="#rim" fill="#404040">
                        <set attributeName="fill" to="#808080" begin="arrowLeft.mouseover" end="arrowLeft.mouseout"/>
                  </use>
                  <path fill="none" stroke="white" stroke-width="1.5" d="M0,-3.0v7 M-2.5,-0.5L0,-3.0L2.5,-0.5"/>
                </g>
        </g>
        <svg viewBox="0 0 15 15" width="100%" height="30px" preserveAspectRatio="xMaxYMin meet">
         <g id="arrow_out" transform="scale(0.3 0.3)">
          <a xlink:href="FMTcomplexyieldhandler_8hpp__incl_org.svg" target="_base">
           <rect id="button" ry="5" rx="5" y="6" x="6" height="38" width="38"
                fill="#f2f5e9" fill-opacity="0.5" stroke="#606060" stroke-width="1.0"/>
           <path id="arrow"
             d="M 11.500037,31.436501 C 11.940474,20.09759 22.043105,11.32322 32.158766,21.979434 L 37.068811,17.246167 C 37.068811,17.246167 37.088388,32 37.088388,32 L 22.160133,31.978069 C 22.160133,31.978069 26.997745,27.140456 26.997745,27.140456 C 18.528582,18.264221 13.291696,25.230495 11.500037,31.436501 z"
             style="fill:#404040;"/>
          </a>
         </g>
        </svg>
</svg>
