<?xml version="1.0" encoding="UTF-8" standalone="no"?>
<!DOCTYPE svg PUBLIC "-//W3C//DTD SVG 1.1//EN"
 "http://www.w3.org/Graphics/SVG/1.1/DTD/svg11.dtd">
<!-- Generated by graphviz version 8.1.0 (20230707.0739)
 -->
<!-- Title: C:/Temp/out/FMT/Include/FMTconstantparser.hpp Pages: 1 -->
<!--zoomable 288 -->

<svg id="main" version="1.1" xmlns="http://www.w3.org/2000/svg" xmlns:xlink="http://www.w3.org/1999/xlink" xml:space="preserve" onload="init(evt)">
<style type="text/css"><![CDATA[
.node, .edge {opacity: 0.7;}
.node.selected, .edge.selected {opacity: 1;}
.edge:hover path { stroke: red; }
.edge:hover polygon { stroke: red; fill: red; }
]]></style>

<defs>
  <circle id="rim" cx="0" cy="0" r="7"/>
  <circle id="rim2" cx="0" cy="0" r="3.5"/>
  <g id="zoomPlus">
    <use xlink:href="#rim" fill="#404040"><set attributeName="fill" to="#808080" begin="zoomplus.mouseover" end="zoomplus.mouseout"/></use>
    <path d="M-4,0h8M0,-4v8" fill="none" stroke="white" stroke-width="1.5" pointer-events="none"/>
  </g>
  <g id="zoomMin">
    <use xlink:href="#rim" fill="#404040"><set attributeName="fill" to="#808080" begin="zoomminus.mouseover" end="zoomminus.mouseout"/></use>
    <path d="M-4,0h8" fill="none" stroke="white" stroke-width="1.5" pointer-events="none"/>
  </g>
  <g id="arrowUp" transform="translate(30 24)">
    <use xlink:href="#rim"/>
    <path pointer-events="none" fill="none" stroke="white" stroke-width="1.5" d="M0,-3.0v7 M-2.5,-0.5L0,-3.0L2.5,-0.5"/>
  </g>
  <g id="arrowRight" transform="rotate(90) translate(36 -43)">
    <use xlink:href="#rim"/>
    <path pointer-events="none" fill="none" stroke="white" stroke-width="1.5" d="M0,-3.0v7 M-2.5,-0.5L0,-3.0L2.5,-0.5"/>
  </g>
  <g id="arrowDown" transform="rotate(180) translate(-30 -48)">
    <use xlink:href="#rim"/>
    <path pointer-events="none" fill="none" stroke="white" stroke-width="1.5" d="M0,-3.0v7 M-2.5,-0.5L0,-3.0L2.5,-0.5"/>
  </g>
  <g id="arrowLeft" transform="rotate(270) translate(-36 17)">
    <use xlink:href="#rim"/>
    <path pointer-events="none" fill="none" stroke="white" stroke-width="1.5" d="M0,-3.0v7 M-2.5,-0.5L0,-3.0L2.5,-0.5"/>
  </g>
  <g id="resetDef">
    <use xlink:href="#rim2" fill="#404040"><set attributeName="fill" to="#808080" begin="reset.mouseover" end="reset.mouseout"/></use>
  </g>
</defs>
<script type="application/ecmascript">
var viewWidth = 1008;
var viewHeight = 288;
var sectionId = 'dynsection-0';
</script>
<script type="application/ecmascript" xlink:href="svg.min.js"/>
<svg id="graph" class="graph">
<g id="viewport">
<title>C:/Temp/out/FMT/Include/FMTconstantparser.hpp</title>
<!-- Node1 -->
<g id="Node000001" class="node">
<title>Node1</title>
<g id="a_Node000001"><a xlink:title=" ">
<polygon fill="#999999" stroke="#666666" points="862.88,-280 737.38,-280 737.38,-248 862.88,-248 862.88,-280"/>
<text text-anchor="start" x="745.38" y="-266.5" font-family="Helvetica,sans-Serif" font-size="10.00">C:/Temp/out/FMT/Include</text>
<text text-anchor="middle" x="800.12" y="-254.5" font-family="Helvetica,sans-Serif" font-size="10.00">/FMTconstantparser.hpp</text>
</a>
</g>
</g>
<!-- Node2 -->
<g id="Node000002" class="node">
<title>Node2</title>
<g id="a_Node000002"><a xlink:href="FMTparser_8hpp.html" target="_top" xlink:title=" ">
<polygon fill="white" stroke="#666666" points="629.75,-212 548.5,-212 548.5,-192 629.75,-192 629.75,-212"/>
<text text-anchor="middle" x="589.12" y="-198.5" font-family="Helvetica,sans-Serif" font-size="10.00">FMTparser.hpp</text>
</a>
</g>
</g>
<!-- Node1&#45;&gt;Node2 -->
<g id="edge1_Node000001_Node000002" class="edge">
<title>Node1&#45;&gt;Node2</title>
<g id="a_edge1_Node000001_Node000002"><a xlink:title=" ">
<path fill="none" stroke="#63b8ff" d="M745.79,-247.55C710.64,-237.55 665.5,-224.72 632.7,-215.39"/>
<polygon fill="#63b8ff" stroke="#63b8ff" points="634.1,-211.87 623.52,-212.5 632.18,-218.6 634.1,-211.87"/>
</a>
</g>
</g>
<!-- Node7 -->
<g id="Node000007" class="node">
<title>Node7</title>
<g id="a_Node000007"><a xlink:title=" ">
<polygon fill="#e0e0e0" stroke="#999999" points="993.12,-20 953.12,-20 953.12,0 993.12,0 993.12,-20"/>
<text text-anchor="middle" x="973.12" y="-6.5" font-family="Helvetica,sans-Serif" font-size="10.00">string</text>
</a>
</g>
</g>
<!-- Node1&#45;&gt;Node7 -->
<g id="edge27_Node000001_Node000007" class="edge">
<title>Node1&#45;&gt;Node7</title>
<g id="a_edge27_Node000001_Node000007"><a xlink:title=" ">
<path fill="none" stroke="#63b8ff" d="M844.43,-247.56C885.03,-231.13 943.74,-201.21 977.12,-156 1003.9,-119.73 1003.89,-100.01 994.12,-56 992.12,-46.97 988.11,-37.61 984.13,-29.78"/>
<polygon fill="#63b8ff" stroke="#63b8ff" points="986.77,-28.32 978.9,-21.22 980.63,-31.68 986.77,-28.32"/>
</a>
</g>
</g>
<!-- Node3 -->
<g id="Node000003" class="node">
<title>Node3</title>
<g id="a_Node000003"><a xlink:title=" ">
<polygon fill="#e0e0e0" stroke="#999999" points="843,-150 757.25,-150 757.25,-130 843,-130 843,-150"/>
<text text-anchor="middle" x="800.12" y="-136.5" font-family="Helvetica,sans-Serif" font-size="10.00">boost/regex.hpp</text>
</a>
</g>
</g>
<!-- Node2&#45;&gt;Node3 -->
<g id="edge2_Node000002_Node000003" class="edge">
<title>Node2&#45;&gt;Node3</title>
<g id="a_edge2_Node000002_Node000003"><a xlink:title=" ">
<path fill="none" stroke="#63b8ff" d="M622.64,-191.57C654.83,-182.5 704.82,-168.37 748.12,-156 751.05,-155.17 754.06,-154.3 757.1,-153.43"/>
<polygon fill="#63b8ff" stroke="#63b8ff" points="757.76,-156.59 766.4,-150.47 755.82,-149.87 757.76,-156.59"/>
</a>
</g>
</g>
<!-- Node4 -->
<g id="Node000004" class="node">
<title>Node4</title>
<g id="a_Node000004"><a xlink:title=" ">
<polygon fill="#e0e0e0" stroke="#999999" points="945.12,-150 899.12,-150 899.12,-130 945.12,-130 945.12,-150"/>
<text text-anchor="middle" x="922.12" y="-136.5" font-family="Helvetica,sans-Serif" font-size="10.00">iterator</text>
</a>
</g>
</g>
<!-- Node2&#45;&gt;Node4 -->
<g id="edge3_Node000002_Node000004" class="edge">
<title>Node2&#45;&gt;Node4</title>
<g id="a_edge3_Node000002_Node000004"><a xlink:title=" ">
<path fill="none" stroke="#63b8ff" d="M629.97,-197.84C687.65,-192.69 795.9,-180.5 885.12,-156 887.05,-155.47 889,-154.87 890.96,-154.23"/>
<polygon fill="#63b8ff" stroke="#63b8ff" points="892.11,-157.17 900.29,-150.44 889.7,-150.6 892.11,-157.17"/>
</a>
</g>
</g>
<!-- Node5 -->
<g id="Node000005" class="node">
<title>Node5</title>
<g id="a_Node000005"><a xlink:title=" ">
<polygon fill="#e0e0e0" stroke="#999999" points="864.88,-20 811.38,-20 811.38,0 864.88,0 864.88,-20"/>
<text text-anchor="middle" x="838.12" y="-6.5" font-family="Helvetica,sans-Serif" font-size="10.00">iostream</text>
</a>
</g>
</g>
<!-- Node2&#45;&gt;Node5 -->
<g id="edge4_Node000002_Node000005" class="edge">
<title>Node2&#45;&gt;Node5</title>
<g id="a_edge4_Node000002_Node000005"><a xlink:title=" ">
<path fill="none" stroke="#63b8ff" d="M630.06,-200.17C696.74,-197.86 824.2,-189.11 852.12,-156 882.33,-120.19 861.49,-60.28 847.66,-29.9"/>
<polygon fill="#63b8ff" stroke="#63b8ff" points="850.47,-28.65 842.99,-21.14 844.15,-31.67 850.47,-28.65"/>
</a>
</g>
</g>
<!-- Node6 -->
<g id="Node000006" class="node">
<title>Node6</title>
<g id="a_Node000006"><a xlink:title=" ">
<polygon fill="#e0e0e0" stroke="#999999" points="48.25,-150 0,-150 0,-130 48.25,-130 48.25,-150"/>
<text text-anchor="middle" x="24.12" y="-136.5" font-family="Helvetica,sans-Serif" font-size="10.00">fstream</text>
</a>
</g>
</g>
<!-- Node2&#45;&gt;Node6 -->
<g id="edge5_Node000002_Node000006" class="edge">
<title>Node2&#45;&gt;Node6</title>
<g id="a_edge5_Node000002_Node000006"><a xlink:title=" ">
<path fill="none" stroke="#63b8ff" d="M548.16,-201.51C458.69,-201.77 239.58,-197.66 62.12,-156 59.77,-155.45 57.37,-154.77 54.97,-154.02"/>
<polygon fill="#63b8ff" stroke="#63b8ff" points="56.28,-150.42 45.68,-150.37 53.93,-157.02 56.28,-150.42"/>
</a>
</g>
</g>
<!-- Node2&#45;&gt;Node7 -->
<g id="edge6_Node000002_Node000007" class="edge">
<title>Node2&#45;&gt;Node7</title>
<g id="a_edge6_Node000002_Node000007"><a xlink:title=" ">
<path fill="none" stroke="#63b8ff" d="M629.95,-198.75C720.38,-193.38 931.41,-178.54 954.12,-156 987.36,-123.02 982.57,-62.29 977.29,-30.92"/>
<polygon fill="#63b8ff" stroke="#63b8ff" points="980.61,-30.64 975.32,-21.46 973.73,-31.93 980.61,-30.64"/>
</a>
</g>
</g>
<!-- Node8 -->
<g id="Node000008" class="node">
<title>Node8</title>
<g id="a_Node000008"><a xlink:title=" ">
<polygon fill="#e0e0e0" stroke="#999999" points="145.88,-82 104.38,-82 104.38,-62 145.88,-62 145.88,-82"/>
<text text-anchor="middle" x="125.12" y="-68.5" font-family="Helvetica,sans-Serif" font-size="10.00">vector</text>
</a>
</g>
</g>
<!-- Node2&#45;&gt;Node8 -->
<g id="edge7_Node000002_Node000008" class="edge">
<title>Node2&#45;&gt;Node8</title>
<g id="a_edge7_Node000002_Node000008"><a xlink:title=" ">
<path fill="none" stroke="#63b8ff" d="M548.27,-195.46C499.62,-188.4 416.15,-174.82 346.12,-156 259.11,-132.61 238.02,-123.33 155.12,-88 154.38,-87.68 153.63,-87.36 152.88,-87.02"/>
<polygon fill="#63b8ff" stroke="#63b8ff" points="154.58,-83.49 144.04,-82.4 151.61,-89.82 154.58,-83.49"/>
</a>
</g>
</g>
<!-- Node9 -->
<g id="Node000009" class="node">
<title>Node9</title>
<g id="a_Node000009"><a xlink:title=" ">
<polygon fill="#e0e0e0" stroke="#999999" points="397.25,-150 355,-150 355,-130 397.25,-130 397.25,-150"/>
<text text-anchor="middle" x="376.12" y="-136.5" font-family="Helvetica,sans-Serif" font-size="10.00">queue</text>
</a>
</g>
</g>
<!-- Node2&#45;&gt;Node9 -->
<g id="edge8_Node000002_Node000009" class="edge">
<title>Node2&#45;&gt;Node9</title>
<g id="a_edge8_Node000002_Node000009"><a xlink:title=" ">
<path fill="none" stroke="#63b8ff" d="M548.01,-193.61C510.4,-186.22 453.57,-173.45 406.12,-156 405.19,-155.66 404.25,-155.29 403.31,-154.91"/>
<polygon fill="#63b8ff" stroke="#63b8ff" points="404.84,-151.31 394.28,-150.4 401.96,-157.7 404.84,-151.31"/>
</a>
</g>
</g>
<!-- Node10 -->
<g id="Node000010" class="node">
<title>Node10</title>
<g id="a_Node000010"><a xlink:href="FMTutility_8hpp.html" target="_top" xlink:title=" ">
<polygon fill="white" stroke="#666666" points="364.88,-20 287.38,-20 287.38,0 364.88,0 364.88,-20"/>
<text text-anchor="middle" x="326.12" y="-6.5" font-family="Helvetica,sans-Serif" font-size="10.00">FMTutility.hpp</text>
</a>
</g>
</g>
<!-- Node2&#45;&gt;Node10 -->
<g id="edge9_Node000002_Node000010" class="edge">
<title>Node2&#45;&gt;Node10</title>
<g id="a_edge9_Node000002_Node000010"><a xlink:title=" ">
<path fill="none" stroke="#63b8ff" d="M548.3,-198.7C438.86,-191.54 143.94,-165.26 95.12,-88 52.8,-21.01 196.29,-10.84 276.18,-10.2"/>
<polygon fill="#63b8ff" stroke="#63b8ff" points="276.02,-13.69 286.01,-10.16 276,-6.69 276.02,-13.69"/>
</a>
</g>
</g>
<!-- Node11 -->
<g id="Node000011" class="node">
<title>Node11</title>
<g id="a_Node000011"><a xlink:title=" ">
<polygon fill="#e0e0e0" stroke="#999999" points="551,-150 513.25,-150 513.25,-130 551,-130 551,-150"/>
<text text-anchor="middle" x="532.12" y="-136.5" font-family="Helvetica,sans-Serif" font-size="10.00">array</text>
</a>
</g>
</g>
<!-- Node2&#45;&gt;Node11 -->
<g id="edge10_Node000002_Node000011" class="edge">
<title>Node2&#45;&gt;Node11</title>
<g id="a_edge10_Node000002_Node000011"><a xlink:title=" ">
<path fill="none" stroke="#63b8ff" d="M580.22,-191.62C571.64,-182.59 558.46,-168.72 548.06,-157.78"/>
<polygon fill="#63b8ff" stroke="#63b8ff" points="551.21,-155.95 541.78,-151.11 546.13,-160.77 551.21,-155.95"/>
</a>
</g>
</g>
<!-- Node12 -->
<g id="Node000012" class="node">
<title>Node12</title>
<g id="a_Node000012"><a xlink:title=" ">
<polygon fill="#e0e0e0" stroke="#999999" points="609.12,-150 569.12,-150 569.12,-130 609.12,-130 609.12,-150"/>
<text text-anchor="middle" x="589.12" y="-136.5" font-family="Helvetica,sans-Serif" font-size="10.00">ctime</text>
</a>
</g>
</g>
<!-- Node2&#45;&gt;Node12 -->
<g id="edge11_Node000002_Node000012" class="edge">
<title>Node2&#45;&gt;Node12</title>
<g id="a_edge11_Node000002_Node000012"><a xlink:title=" ">
<path fill="none" stroke="#63b8ff" d="M589.12,-191.62C589.12,-183.48 589.12,-171.39 589.12,-161.07"/>
<polygon fill="#63b8ff" stroke="#63b8ff" points="592.63,-161.11 589.12,-151.11 585.63,-161.11 592.63,-161.11"/>
</a>
</g>
</g>
<!-- Node13 -->
<g id="Node000013" class="node">
<title>Node13</title>
<g id="a_Node000013"><a xlink:title=" ">
<polygon fill="#e0e0e0" stroke="#999999" points="738.75,-156 627.5,-156 627.5,-124 738.75,-124 738.75,-156"/>
<text text-anchor="start" x="635.5" y="-142.5" font-family="Helvetica,sans-Serif" font-size="10.00">boost/thread/recursive</text>
<text text-anchor="middle" x="683.12" y="-130.5" font-family="Helvetica,sans-Serif" font-size="10.00">_mutex.hpp</text>
</a>
</g>
</g>
<!-- Node2&#45;&gt;Node13 -->
<g id="edge12_Node000002_Node000013" class="edge">
<title>Node2&#45;&gt;Node13</title>
<g id="a_edge12_Node000002_Node000013"><a xlink:title=" ">
<path fill="none" stroke="#63b8ff" d="M603.81,-191.62C616.16,-183.75 634.27,-172.19 650.07,-162.1"/>
<polygon fill="#63b8ff" stroke="#63b8ff" points="651.49,-164.7 658.04,-156.37 647.73,-158.8 651.49,-164.7"/>
</a>
</g>
</g>
<!-- Node14 -->
<g id="Node000014" class="node">
<title>Node14</title>
<g id="a_Node000014"><a xlink:href="FMTobject_8hpp.html" target="_top" xlink:title=" ">
<polygon fill="white" stroke="#666666" points="495.38,-150 414.88,-150 414.88,-130 495.38,-130 495.38,-150"/>
<text text-anchor="middle" x="455.12" y="-136.5" font-family="Helvetica,sans-Serif" font-size="10.00">FMTobject.hpp</text>
</a>
</g>
</g>
<!-- Node2&#45;&gt;Node14 -->
<g id="edge13_Node000002_Node000014" class="edge">
<title>Node2&#45;&gt;Node14</title>
<g id="a_edge13_Node000002_Node000014"><a xlink:title=" ">
<path fill="none" stroke="#63b8ff" d="M568.19,-191.62C546.06,-181.72 510.95,-165.99 485.72,-154.7"/>
<polygon fill="#63b8ff" stroke="#63b8ff" points="487.47,-151.2 476.92,-150.31 484.61,-157.59 487.47,-151.2"/>
</a>
</g>
</g>
<!-- Node14&#45;&gt;Node8 -->
<g id="edge25_Node000014_Node000008" class="edge">
<title>Node14&#45;&gt;Node8</title>
<g id="a_edge25_Node000014_Node000008"><a xlink:title=" ">
<path fill="none" stroke="#63b8ff" d="M426.82,-129.52C420.09,-127.5 412.9,-125.51 406.12,-124 296.14,-99.43 262.69,-121.63 155.12,-88 153.84,-87.6 152.55,-87.15 151.25,-86.66"/>
<polygon fill="#63b8ff" stroke="#63b8ff" points="153.11,-83.21 142.55,-82.39 150.29,-89.62 153.11,-83.21"/>
</a>
</g>
</g>
<!-- Node15 -->
<g id="Node000015" class="node">
<title>Node15</title>
<g id="a_Node000015"><a xlink:title=" ">
<polygon fill="#e0e0e0" stroke="#999999" points="401.5,-88 306.75,-88 306.75,-56 401.5,-56 401.5,-88"/>
<text text-anchor="start" x="314.75" y="-74.5" font-family="Helvetica,sans-Serif" font-size="10.00">boost/serialization</text>
<text text-anchor="middle" x="354.12" y="-62.5" font-family="Helvetica,sans-Serif" font-size="10.00">/shared_ptr.hpp</text>
</a>
</g>
</g>
<!-- Node14&#45;&gt;Node15 -->
<g id="edge14_Node000014_Node000015" class="edge">
<title>Node14&#45;&gt;Node15</title>
<g id="a_edge14_Node000014_Node000015"><a xlink:title=" ">
<path fill="none" stroke="#63b8ff" d="M440.65,-129.54C426.63,-120.38 404.86,-106.15 386.67,-94.27"/>
<polygon fill="#63b8ff" stroke="#63b8ff" points="388.83,-90.84 378.54,-88.3 385,-96.7 388.83,-90.84"/>
</a>
</g>
</g>
<!-- Node16 -->
<g id="Node000016" class="node">
<title>Node16</title>
<g id="a_Node000016"><a xlink:title=" ">
<polygon fill="#e0e0e0" stroke="#999999" points="514.5,-88 419.75,-88 419.75,-56 514.5,-56 514.5,-88"/>
<text text-anchor="start" x="427.75" y="-74.5" font-family="Helvetica,sans-Serif" font-size="10.00">boost/serialization</text>
<text text-anchor="middle" x="467.12" y="-62.5" font-family="Helvetica,sans-Serif" font-size="10.00">/nvp.hpp</text>
</a>
</g>
</g>
<!-- Node14&#45;&gt;Node16 -->
<g id="edge15_Node000014_Node000016" class="edge">
<title>Node14&#45;&gt;Node16</title>
<g id="a_edge15_Node000014_Node000016"><a xlink:title=" ">
<path fill="none" stroke="#63b8ff" d="M456.84,-129.54C458.3,-121.55 460.45,-109.72 462.41,-98.95"/>
<polygon fill="#63b8ff" stroke="#63b8ff" points="466,-99.77 464.34,-89.3 459.11,-98.51 466,-99.77"/>
</a>
</g>
</g>
<!-- Node17 -->
<g id="Node000017" class="node">
<title>Node17</title>
<g id="a_Node000017"><a xlink:title=" ">
<polygon fill="#e0e0e0" stroke="#999999" points="627.5,-88 532.75,-88 532.75,-56 627.5,-56 627.5,-88"/>
<text text-anchor="start" x="540.75" y="-74.5" font-family="Helvetica,sans-Serif" font-size="10.00">boost/serialization</text>
<text text-anchor="middle" x="580.12" y="-62.5" font-family="Helvetica,sans-Serif" font-size="10.00">/export.hpp</text>
</a>
</g>
</g>
<!-- Node14&#45;&gt;Node17 -->
<g id="edge16_Node000014_Node000017" class="edge">
<title>Node14&#45;&gt;Node17</title>
<g id="a_edge16_Node000014_Node000017"><a xlink:title=" ">
<path fill="none" stroke="#63b8ff" d="M473.03,-129.54C490.87,-120.12 518.82,-105.37 541.7,-93.29"/>
<polygon fill="#63b8ff" stroke="#63b8ff" points="542.94,-96.07 550.15,-88.3 539.67,-89.88 542.94,-96.07"/>
</a>
</g>
</g>
<!-- Node18 -->
<g id="Node000018" class="node">
<title>Node18</title>
<g id="a_Node000018"><a xlink:href="FMTexception_8hpp.html" target="_top" xlink:title=" ">
<polygon fill="white" stroke="#666666" points="779.25,-82 683,-82 683,-62 779.25,-62 779.25,-82"/>
<text text-anchor="middle" x="731.12" y="-68.5" font-family="Helvetica,sans-Serif" font-size="10.00">FMTexception.hpp</text>
</a>
</g>
</g>
<!-- Node14&#45;&gt;Node18 -->
<g id="edge17_Node000014_Node000018" class="edge">
<title>Node14&#45;&gt;Node18</title>
<g id="a_edge17_Node000014_Node000018"><a xlink:title=" ">
<path fill="none" stroke="#63b8ff" d="M484.55,-129.56C490.97,-127.62 497.76,-125.67 504.12,-124 576.74,-105 595.98,-104.83 669.12,-88 673.26,-87.05 677.54,-86.05 681.83,-85.03"/>
<polygon fill="#63b8ff" stroke="#63b8ff" points="682.55,-88.22 691.46,-82.5 680.92,-81.41 682.55,-88.22"/>
</a>
</g>
</g>
<!-- Node20 -->
<g id="Node000020" class="node">
<title>Node20</title>
<g id="a_Node000020"><a xlink:title=" ">
<polygon fill="#e0e0e0" stroke="#999999" points="681.75,-20 630.5,-20 630.5,0 681.75,0 681.75,-20"/>
<text text-anchor="middle" x="656.12" y="-6.5" font-family="Helvetica,sans-Serif" font-size="10.00">memory</text>
</a>
</g>
</g>
<!-- Node14&#45;&gt;Node20 -->
<g id="edge23_Node000014_Node000020" class="edge">
<title>Node14&#45;&gt;Node20</title>
<g id="a_edge23_Node000014_Node000020"><a xlink:title=" ">
<path fill="none" stroke="#63b8ff" d="M485.4,-129.57C491.59,-127.69 498.06,-125.76 504.12,-124 562.54,-107.1 593.39,-131.26 636.12,-88 650.96,-72.98 655.21,-48.46 656.23,-31.12"/>
<polygon fill="#63b8ff" stroke="#63b8ff" points="659.75,-31.33 656.5,-21.25 652.75,-31.15 659.75,-31.33"/>
</a>
</g>
</g>
<!-- Node21 -->
<g id="Node000021" class="node">
<title>Node21</title>
<g id="a_Node000021"><a xlink:title=" ">
<polygon fill="#e0e0e0" stroke="#999999" points="842.75,-82 797.5,-82 797.5,-62 842.75,-62 842.75,-82"/>
<text text-anchor="middle" x="820.12" y="-68.5" font-family="Helvetica,sans-Serif" font-size="10.00">chrono</text>
</a>
</g>
</g>
<!-- Node14&#45;&gt;Node21 -->
<g id="edge24_Node000014_Node000021" class="edge">
<title>Node14&#45;&gt;Node21</title>
<g id="a_edge24_Node000014_Node000021"><a xlink:title=" ">
<path fill="none" stroke="#63b8ff" d="M483.15,-129.52C489.96,-127.47 497.25,-125.48 504.12,-124 628.52,-97.28 665.93,-123.43 788.12,-88 789.64,-87.56 791.16,-87.06 792.69,-86.52"/>
<polygon fill="#63b8ff" stroke="#63b8ff" points="793.67,-89.49 801.57,-82.43 790.99,-83.02 793.67,-89.49"/>
</a>
</g>
</g>
<!-- Node22 -->
<g id="Node000022" class="node">
<title>Node22</title>
<g id="a_Node000022"><a xlink:title=" ">
<polygon fill="#e0e0e0" stroke="#999999" points="288.5,-88 163.75,-88 163.75,-56 288.5,-56 288.5,-88"/>
<text text-anchor="start" x="171.75" y="-74.5" font-family="Helvetica,sans-Serif" font-size="10.00">boost/dll/runtime_symbol</text>
<text text-anchor="middle" x="226.12" y="-62.5" font-family="Helvetica,sans-Serif" font-size="10.00">_info.hpp</text>
</a>
</g>
</g>
<!-- Node14&#45;&gt;Node22 -->
<g id="edge26_Node000014_Node000022" class="edge">
<title>Node14&#45;&gt;Node22</title>
<g id="a_edge26_Node000014_Node000022"><a xlink:title=" ">
<path fill="none" stroke="#63b8ff" d="M424.57,-129.54C418.47,-127.68 412.1,-125.76 406.12,-124 368.43,-112.89 326.16,-100.89 292.06,-91.33"/>
<polygon fill="#63b8ff" stroke="#63b8ff" points="293.33,-87.77 282.76,-88.44 291.44,-94.51 293.33,-87.77"/>
</a>
</g>
</g>
<!-- Node18&#45;&gt;Node5 -->
<g id="edge20_Node000018_Node000005" class="edge">
<title>Node18&#45;&gt;Node5</title>
<g id="a_edge20_Node000018_Node000005"><a xlink:title=" ">
<path fill="none" stroke="#63b8ff" d="M747.84,-61.62C765.04,-51.98 792.06,-36.83 812.07,-25.61"/>
<polygon fill="#63b8ff" stroke="#63b8ff" points="813.51,-28.25 820.52,-20.31 810.09,-22.15 813.51,-28.25"/>
</a>
</g>
</g>
<!-- Node18&#45;&gt;Node7 -->
<g id="edge19_Node000018_Node000007" class="edge">
<title>Node18&#45;&gt;Node7</title>
<g id="a_edge19_Node000018_Node000007"><a xlink:title=" ">
<path fill="none" stroke="#63b8ff" d="M766.67,-61.54C773.77,-59.68 781.18,-57.76 788.12,-56 842.28,-42.29 905.57,-27.07 942.32,-18.31"/>
<polygon fill="#63b8ff" stroke="#63b8ff" points="942.92,-21.52 951.84,-15.8 941.3,-14.71 942.92,-21.52"/>
</a>
</g>
</g>
<!-- Node18&#45;&gt;Node10 -->
<g id="edge22_Node000018_Node000010" class="edge">
<title>Node18&#45;&gt;Node10</title>
<g id="a_edge22_Node000018_Node000010"><a xlink:title=" ">
<path fill="none" stroke="#63b8ff" d="M682.81,-63.25C667.85,-60.89 651.31,-58.3 636.12,-56 544.31,-42.09 437.07,-26.72 375.82,-18.02"/>
<polygon fill="#63b8ff" stroke="#63b8ff" points="376.69,-14.47 366.3,-16.53 375.71,-21.4 376.69,-14.47"/>
</a>
</g>
</g>
<!-- Node19 -->
<g id="Node000019" class="node">
<title>Node19</title>
<g id="a_Node000019"><a xlink:title=" ">
<polygon fill="#e0e0e0" stroke="#999999" points="760.12,-20 702.12,-20 702.12,0 760.12,0 760.12,-20"/>
<text text-anchor="middle" x="731.12" y="-6.5" font-family="Helvetica,sans-Serif" font-size="10.00">exception</text>
</a>
</g>
</g>
<!-- Node18&#45;&gt;Node19 -->
<g id="edge18_Node000018_Node000019" class="edge">
<title>Node18&#45;&gt;Node19</title>
<g id="a_edge18_Node000018_Node000019"><a xlink:title=" ">
<path fill="none" stroke="#63b8ff" d="M731.12,-61.62C731.12,-53.48 731.12,-41.39 731.12,-31.07"/>
<polygon fill="#63b8ff" stroke="#63b8ff" points="734.63,-31.11 731.12,-21.11 727.63,-31.11 734.63,-31.11"/>
</a>
</g>
</g>
<!-- Node18&#45;&gt;Node20 -->
<g id="edge21_Node000018_Node000020" class="edge">
<title>Node18&#45;&gt;Node20</title>
<g id="a_edge21_Node000018_Node000020"><a xlink:title=" ">
<path fill="none" stroke="#63b8ff" d="M719.41,-61.62C707.78,-52.32 689.75,-37.9 675.9,-26.82"/>
<polygon fill="#63b8ff" stroke="#63b8ff" points="678.51,-23.63 668.52,-20.11 674.14,-29.09 678.51,-23.63"/>
</a>
</g>
</g>
</g>
</svg>

<g id="navigator" transform="translate(0 0)" fill="#404254">
  <rect fill="#f2f5e9" fill-opacity="0.5" stroke="#606060" stroke-width=".5" x="0" y="0" width="60" height="60"/>
  <use id="zoomplus" xlink:href="#zoomPlus" x="17" y="9" onmousedown="handleZoom(evt,'in')"/>
  <use id="zoomminus" xlink:href="#zoomMin" x="42" y="9" onmousedown="handleZoom(evt,'out')"/>
  <use id="reset" xlink:href="#resetDef" x="30" y="36" onmousedown="handleReset()"/>
   <use id="arrowup" xlink:href="#arrowUp" x="0" y="0" onmousedown="handlePan(0,-1)"/>
  <use id="arrowright" xlink:href="#arrowRight" x="0" y="0" onmousedown="handlePan(1,0)"/>
  <use id="arrowdown" xlink:href="#arrowDown" x="0" y="0" onmousedown="handlePan(0,1)"/>
  <use id="arrowleft" xlink:href="#arrowLeft" x="0" y="0" onmousedown="handlePan(-1,0)"/>
</g>
<svg viewBox="0 0 15 15" width="100%" height="30px" preserveAspectRatio="xMaxYMin meet">
 <g id="arrow_out" transform="scale(0.3 0.3)">
  <a xlink:href="FMTconstantparser_8hpp__incl_org.svg" target="_base">
   <rect id="button" ry="5" rx="5" y="6" x="6" height="38" width="38"
        fill="#f2f5e9" fill-opacity="0.5" stroke="#606060" stroke-width="1.0"/>
   <path id="arrow"
     d="M 11.500037,31.436501 C 11.940474,20.09759 22.043105,11.32322 32.158766,21.979434 L 37.068811,17.246167 C 37.068811,17.246167 37.088388,32 37.088388,32 L 22.160133,31.978069 C 22.160133,31.978069 26.997745,27.140456 26.997745,27.140456 C 18.528582,18.264221 13.291696,25.230495 11.500037,31.436501 z"
     style="fill:#404040;"/>
  </a>
 </g>
</svg>

<style type='text/css'>
<![CDATA[
[data-mouse-over-selected='false'] { opacity: 0.7; }
[data-mouse-over-selected='true']  { opacity: 1.0; }
]]>
</style>
<script type="application/ecmascript"><![CDATA[
document.addEventListener('DOMContentLoaded', (event) => {
  highlightEdges();
  highlightAdjacentNodes();
});
]]></script>
</svg>
