<?xml version="1.0" encoding="UTF-8" standalone="no"?>
<!DOCTYPE svg PUBLIC "-//W3C//DTD SVG 1.1//EN"
 "http://www.w3.org/Graphics/SVG/1.1/DTD/svg11.dtd">
<!-- Generated by graphviz version 10.0.1 (20240210.2158)
 -->
<!-- Title: D:/FMT/Include/FMTDefaultExceptionHandler.h Pages: 1 -->
<svg width="819pt" height="344pt"
 viewBox="0.00 0.00 818.66 344.00" xmlns="http://www.w3.org/2000/svg" xmlns:xlink="http://www.w3.org/1999/xlink">
<g id="graph0" class="graph" transform="scale(1 1) rotate(0) translate(4 340)">
<title>D:/FMT/Include/FMTDefaultExceptionHandler.h</title>
<!-- Node1 -->
<g id="node1" class="node">
<title>Node1</title>
<g id="a_node1"><a xlink:title=" ">
<polygon fill="#999999" stroke="#666666" points="512.25,-336 377.75,-336 377.75,-304 512.25,-304 512.25,-336"/>
<text text-anchor="start" x="385.75" y="-322.5" font-family="Helvetica,sans-Serif" font-size="10.00">D:/FMT/Include/FMTDefault</text>
<text text-anchor="middle" x="445" y="-310.5" font-family="Helvetica,sans-Serif" font-size="10.00">ExceptionHandler.h</text>
</a>
</g>
</g>
<!-- Node2 -->
<g id="node2" class="node">
<title>Node2</title>
<g id="a_node2"><a xlink:href="FMTExceptionHandler_8h.html" target="_top" xlink:title=" ">
<polygon fill="white" stroke="#666666" points="505.12,-268 384.88,-268 384.88,-248 505.12,-248 505.12,-268"/>
<text text-anchor="middle" x="445" y="-254.5" font-family="Helvetica,sans-Serif" font-size="10.00">FMTExceptionHandler.h</text>
</a>
</g>
</g>
<!-- Node1&#45;&gt;Node2 -->
<g id="edge1" class="edge">
<title>Node1&#45;&gt;Node2</title>
<path fill="none" stroke="#63b8ff" d="M445,-303.55C445,-296.34 445,-287.66 445,-279.88"/>
<polygon fill="#63b8ff" stroke="#63b8ff" points="448.5,-279.92 445,-269.92 441.5,-279.92 448.5,-279.92"/>
</g>
<!-- Node7 -->
<g id="node7" class="node">
<title>Node7</title>
<g id="a_node7"><a xlink:title=" ">
<polygon fill="#e0e0e0" stroke="#999999" points="420,-20 380,-20 380,0 420,0 420,-20"/>
<text text-anchor="middle" x="400" y="-6.5" font-family="Helvetica,sans-Serif" font-size="10.00">string</text>
</a>
</g>
</g>
<!-- Node1&#45;&gt;Node7 -->
<g id="edge23" class="edge">
<title>Node1&#45;&gt;Node7</title>
<path fill="none" stroke="#63b8ff" d="M377.41,-314.52C252.93,-304.39 0,-274.3 0,-197 0,-197 0,-197 0,-127 0,-50.46 273.59,-21.18 368.24,-13.34"/>
<polygon fill="#63b8ff" stroke="#63b8ff" points="368.42,-16.84 378.11,-12.55 367.86,-9.86 368.42,-16.84"/>
</g>
<!-- Node9 -->
<g id="node9" class="node">
<title>Node9</title>
<g id="a_node9"><a xlink:href="FMTException_8h.html" target="_top" xlink:title=" ">
<polygon fill="white" stroke="#666666" points="552.62,-138 465.38,-138 465.38,-118 552.62,-118 552.62,-138"/>
<text text-anchor="middle" x="509" y="-124.5" font-family="Helvetica,sans-Serif" font-size="10.00">FMTException.h</text>
</a>
</g>
</g>
<!-- Node1&#45;&gt;Node9 -->
<g id="edge22" class="edge">
<title>Node1&#45;&gt;Node9</title>
<path fill="none" stroke="#63b8ff" d="M512.67,-308.58C606.65,-292.58 769.12,-258.8 804,-212 812.5,-200.6 813.16,-190.88 804,-180 773.95,-144.31 640.96,-133.6 564.19,-130.38"/>
<polygon fill="#63b8ff" stroke="#63b8ff" points="564.48,-126.89 554.35,-130 564.21,-133.88 564.48,-126.89"/>
</g>
<!-- Node3 -->
<g id="node3" class="node">
<title>Node3</title>
<g id="a_node3"><a xlink:href="FMTLogger_8h.html" target="_top" xlink:title=" ">
<polygon fill="white" stroke="#666666" points="382.5,-206 309.5,-206 309.5,-186 382.5,-186 382.5,-206"/>
<text text-anchor="middle" x="346" y="-192.5" font-family="Helvetica,sans-Serif" font-size="10.00">FMTLogger.h</text>
</a>
</g>
</g>
<!-- Node2&#45;&gt;Node3 -->
<g id="edge2" class="edge">
<title>Node2&#45;&gt;Node3</title>
<path fill="none" stroke="#63b8ff" d="M429.53,-247.62C413.91,-238.16 389.53,-223.38 371.13,-212.23"/>
<polygon fill="#63b8ff" stroke="#63b8ff" points="373.02,-209.28 362.65,-207.09 369.39,-215.27 373.02,-209.28"/>
</g>
<!-- Node4 -->
<g id="node4" class="node">
<title>Node4</title>
<g id="a_node4"><a xlink:title=" ">
<polygon fill="#e0e0e0" stroke="#999999" points="122.38,-144 27.62,-144 27.62,-112 122.38,-112 122.38,-144"/>
<text text-anchor="start" x="35.62" y="-130.5" font-family="Helvetica,sans-Serif" font-size="10.00">boost/serialization</text>
<text text-anchor="middle" x="75" y="-118.5" font-family="Helvetica,sans-Serif" font-size="10.00">/export.hpp</text>
</a>
</g>
</g>
<!-- Node2&#45;&gt;Node4 -->
<g id="edge18" class="edge">
<title>Node2&#45;&gt;Node4</title>
<path fill="none" stroke="#63b8ff" d="M398.38,-247.55C368.98,-240.39 330.87,-228.88 300,-212 280.63,-201.41 281.55,-190.26 262,-180 260.51,-179.22 187.86,-159.5 133.56,-144.81"/>
<polygon fill="#63b8ff" stroke="#63b8ff" points="134.66,-141.48 124.09,-142.25 132.83,-148.24 134.66,-141.48"/>
</g>
<!-- Node8 -->
<g id="node8" class="node">
<title>Node8</title>
<g id="a_node8"><a xlink:title=" ">
<polygon fill="#e0e0e0" stroke="#999999" points="425.62,-76 374.38,-76 374.38,-56 425.62,-56 425.62,-76"/>
<text text-anchor="middle" x="400" y="-62.5" font-family="Helvetica,sans-Serif" font-size="10.00">memory</text>
</a>
</g>
</g>
<!-- Node2&#45;&gt;Node8 -->
<g id="edge19" class="edge">
<title>Node2&#45;&gt;Node8</title>
<path fill="none" stroke="#63b8ff" d="M441.57,-247.79C438.3,-238.76 433.38,-224.56 430,-212 418.18,-168.09 408.37,-115.62 403.44,-87.4"/>
<polygon fill="#63b8ff" stroke="#63b8ff" points="406.92,-87 401.78,-77.74 400.02,-88.19 406.92,-87"/>
</g>
<!-- Node13 -->
<g id="node13" class="node">
<title>Node13</title>
<g id="a_node13"><a xlink:title=" ">
<polygon fill="#e0e0e0" stroke="#999999" points="521.38,-206 438.62,-206 438.62,-186 521.38,-186 521.38,-206"/>
<text text-anchor="middle" x="480" y="-192.5" font-family="Helvetica,sans-Serif" font-size="10.00">unordered_map</text>
</a>
</g>
</g>
<!-- Node2&#45;&gt;Node13 -->
<g id="edge15" class="edge">
<title>Node2&#45;&gt;Node13</title>
<path fill="none" stroke="#63b8ff" d="M450.47,-247.62C455.43,-239.12 462.89,-226.33 469.07,-215.74"/>
<polygon fill="#63b8ff" stroke="#63b8ff" points="471.91,-217.82 473.92,-207.42 465.86,-214.29 471.91,-217.82"/>
</g>
<!-- Node14 -->
<g id="node14" class="node">
<title>Node14</title>
<g id="a_node14"><a xlink:title=" ">
<polygon fill="#e0e0e0" stroke="#999999" points="634.38,-212 539.62,-212 539.62,-180 634.38,-180 634.38,-212"/>
<text text-anchor="start" x="547.62" y="-198.5" font-family="Helvetica,sans-Serif" font-size="10.00">boost/serialization</text>
<text text-anchor="middle" x="587" y="-186.5" font-family="Helvetica,sans-Serif" font-size="10.00">/serialization.hpp</text>
</a>
</g>
</g>
<!-- Node2&#45;&gt;Node14 -->
<g id="edge16" class="edge">
<title>Node2&#45;&gt;Node14</title>
<path fill="none" stroke="#63b8ff" d="M467.19,-247.62C486.55,-239.44 515.31,-227.29 539.79,-216.95"/>
<polygon fill="#63b8ff" stroke="#63b8ff" points="541.1,-220.2 548.94,-213.08 538.37,-213.75 541.1,-220.2"/>
</g>
<!-- Node15 -->
<g id="node15" class="node">
<title>Node15</title>
<g id="a_node15"><a xlink:title=" ">
<polygon fill="#e0e0e0" stroke="#999999" points="747.38,-212 652.62,-212 652.62,-180 747.38,-180 747.38,-212"/>
<text text-anchor="start" x="660.62" y="-198.5" font-family="Helvetica,sans-Serif" font-size="10.00">boost/serialization</text>
<text text-anchor="middle" x="700" y="-186.5" font-family="Helvetica,sans-Serif" font-size="10.00">/nvp.hpp</text>
</a>
</g>
</g>
<!-- Node2&#45;&gt;Node15 -->
<g id="edge17" class="edge">
<title>Node2&#45;&gt;Node15</title>
<path fill="none" stroke="#63b8ff" d="M488.75,-247.5C526.58,-239.19 583.01,-226.56 641.24,-212.38"/>
<polygon fill="#63b8ff" stroke="#63b8ff" points="641.78,-215.86 650.67,-210.08 640.12,-209.06 641.78,-215.86"/>
</g>
<!-- Node16 -->
<g id="node16" class="node">
<title>Node16</title>
<g id="a_node16"><a xlink:title=" ">
<polygon fill="#e0e0e0" stroke="#999999" points="794.75,-206 765.25,-206 765.25,-186 794.75,-186 794.75,-206"/>
<text text-anchor="middle" x="780" y="-192.5" font-family="Helvetica,sans-Serif" font-size="10.00">set</text>
</a>
</g>
</g>
<!-- Node2&#45;&gt;Node16 -->
<g id="edge20" class="edge">
<title>Node2&#45;&gt;Node16</title>
<path fill="none" stroke="#63b8ff" d="M505.55,-255.59C569.57,-252.44 672.63,-242.54 756,-212 756.36,-211.87 756.73,-211.73 757.09,-211.58"/>
<polygon fill="#63b8ff" stroke="#63b8ff" points="758.69,-214.7 765.96,-206.99 755.47,-208.48 758.69,-214.7"/>
</g>
<!-- Node17 -->
<g id="node17" class="node">
<title>Node17</title>
<g id="a_node17"><a xlink:title=" ">
<polygon fill="#e0e0e0" stroke="#999999" points="253.38,-206 164.62,-206 164.62,-186 253.38,-186 253.38,-206"/>
<text text-anchor="middle" x="209" y="-192.5" font-family="Helvetica,sans-Serif" font-size="10.00">boost/thread.hpp</text>
</a>
</g>
</g>
<!-- Node2&#45;&gt;Node17 -->
<g id="edge21" class="edge">
<title>Node2&#45;&gt;Node17</title>
<path fill="none" stroke="#63b8ff" d="M407.48,-247.58C371.45,-238.51 315.48,-224.4 267,-212 263.52,-211.11 259.93,-210.19 256.32,-209.26"/>
<polygon fill="#63b8ff" stroke="#63b8ff" points="257.52,-205.96 246.97,-206.85 255.78,-212.74 257.52,-205.96"/>
</g>
<!-- Node3&#45;&gt;Node4 -->
<g id="edge3" class="edge">
<title>Node3&#45;&gt;Node4</title>
<path fill="none" stroke="#63b8ff" d="M315.08,-185.53C308.48,-183.61 301.53,-181.67 295,-180 226.1,-162.33 205.42,-161.68 133.6,-144.56"/>
<polygon fill="#63b8ff" stroke="#63b8ff" points="134.63,-141.21 124.09,-142.27 132.99,-148.02 134.63,-141.21"/>
</g>
<!-- Node5 -->
<g id="node5" class="node">
<title>Node5</title>
<g id="a_node5"><a xlink:title=" ">
<polygon fill="#e0e0e0" stroke="#999999" points="251.62,-144 140.38,-144 140.38,-112 251.62,-112 251.62,-144"/>
<text text-anchor="start" x="148.38" y="-130.5" font-family="Helvetica,sans-Serif" font-size="10.00">boost/thread/recursive</text>
<text text-anchor="middle" x="196" y="-118.5" font-family="Helvetica,sans-Serif" font-size="10.00">_mutex.hpp</text>
</a>
</g>
</g>
<!-- Node3&#45;&gt;Node5 -->
<g id="edge4" class="edge">
<title>Node3&#45;&gt;Node5</title>
<path fill="none" stroke="#63b8ff" d="M324.51,-185.54C302.89,-176.03 268.89,-161.07 241.29,-148.93"/>
<polygon fill="#63b8ff" stroke="#63b8ff" points="243.01,-145.86 232.45,-145.04 240.19,-152.27 243.01,-145.86"/>
</g>
<!-- Node6 -->
<g id="node6" class="node">
<title>Node6</title>
<g id="a_node6"><a xlink:title=" ">
<polygon fill="#e0e0e0" stroke="#999999" points="318.12,-138 269.88,-138 269.88,-118 318.12,-118 318.12,-138"/>
<text text-anchor="middle" x="294" y="-124.5" font-family="Helvetica,sans-Serif" font-size="10.00">fstream</text>
</a>
</g>
</g>
<!-- Node3&#45;&gt;Node6 -->
<g id="edge5" class="edge">
<title>Node3&#45;&gt;Node6</title>
<path fill="none" stroke="#63b8ff" d="M338.55,-185.54C330.75,-175.64 318.3,-159.84 308.54,-147.46"/>
<polygon fill="#63b8ff" stroke="#63b8ff" points="311.31,-145.32 302.37,-139.63 305.81,-149.65 311.31,-145.32"/>
</g>
<!-- Node3&#45;&gt;Node7 -->
<g id="edge6" class="edge">
<title>Node3&#45;&gt;Node7</title>
<path fill="none" stroke="#63b8ff" d="M345.65,-185.79C345.1,-162.87 345.72,-101.79 365,-56 369.15,-46.14 376.03,-36.59 382.6,-28.84"/>
<polygon fill="#63b8ff" stroke="#63b8ff" points="385.12,-31.27 389.24,-21.5 379.93,-26.57 385.12,-31.27"/>
</g>
<!-- Node3&#45;&gt;Node8 -->
<g id="edge7" class="edge">
<title>Node3&#45;&gt;Node8</title>
<path fill="none" stroke="#63b8ff" d="M349.88,-185.79C358.56,-165.23 379.68,-115.16 391.55,-87.03"/>
<polygon fill="#63b8ff" stroke="#63b8ff" points="394.76,-88.44 395.42,-77.86 388.31,-85.72 394.76,-88.44"/>
</g>
<!-- Node3&#45;&gt;Node9 -->
<g id="edge8" class="edge">
<title>Node3&#45;&gt;Node9</title>
<path fill="none" stroke="#63b8ff" d="M369.35,-185.54C397.07,-174.32 443.51,-155.52 475.17,-142.7"/>
<polygon fill="#63b8ff" stroke="#63b8ff" points="476.33,-146 484.29,-139.01 473.7,-139.52 476.33,-146"/>
</g>
<!-- Node9&#45;&gt;Node7 -->
<g id="edge10" class="edge">
<title>Node9&#45;&gt;Node7</title>
<path fill="none" stroke="#63b8ff" d="M500.08,-117.51C481.79,-98.04 439.78,-53.33 416.42,-28.48"/>
<polygon fill="#63b8ff" stroke="#63b8ff" points="419.17,-26.29 409.77,-21.4 414.07,-31.09 419.17,-26.29"/>
</g>
<!-- Node9&#45;&gt;Node8 -->
<g id="edge12" class="edge">
<title>Node9&#45;&gt;Node8</title>
<path fill="none" stroke="#63b8ff" d="M491.97,-117.62C474.53,-108.03 447.17,-92.97 426.82,-81.77"/>
<polygon fill="#63b8ff" stroke="#63b8ff" points="428.69,-78.8 418.24,-77.04 425.31,-84.93 428.69,-78.8"/>
</g>
<!-- Node10 -->
<g id="node10" class="node">
<title>Node10</title>
<g id="a_node10"><a xlink:title=" ">
<polygon fill="#e0e0e0" stroke="#999999" points="697,-76 639,-76 639,-56 697,-56 697,-76"/>
<text text-anchor="middle" x="668" y="-62.5" font-family="Helvetica,sans-Serif" font-size="10.00">exception</text>
</a>
</g>
</g>
<!-- Node9&#45;&gt;Node10 -->
<g id="edge9" class="edge">
<title>Node9&#45;&gt;Node10</title>
<path fill="none" stroke="#63b8ff" d="M533.84,-117.62C560.37,-107.62 602.63,-91.67 632.62,-80.35"/>
<polygon fill="#63b8ff" stroke="#63b8ff" points="633.53,-83.75 641.65,-76.94 631.06,-77.2 633.53,-83.75"/>
</g>
<!-- Node11 -->
<g id="node11" class="node">
<title>Node11</title>
<g id="a_node11"><a xlink:title=" ">
<polygon fill="#e0e0e0" stroke="#999999" points="535.75,-76 482.25,-76 482.25,-56 535.75,-56 535.75,-76"/>
<text text-anchor="middle" x="509" y="-62.5" font-family="Helvetica,sans-Serif" font-size="10.00">iostream</text>
</a>
</g>
</g>
<!-- Node9&#45;&gt;Node11 -->
<g id="edge11" class="edge">
<title>Node9&#45;&gt;Node11</title>
<path fill="none" stroke="#63b8ff" d="M509,-117.62C509,-109.56 509,-97.65 509,-87.41"/>
<polygon fill="#63b8ff" stroke="#63b8ff" points="512.5,-87.63 509,-77.63 505.5,-87.63 512.5,-87.63"/>
</g>
<!-- Node12 -->
<g id="node12" class="node">
<title>Node12</title>
<g id="a_node12"><a xlink:href="FMTutility_8h.html" target="_top" xlink:title=" ">
<polygon fill="white" stroke="#666666" points="620.5,-76 553.5,-76 553.5,-56 620.5,-56 620.5,-76"/>
<text text-anchor="middle" x="587" y="-62.5" font-family="Helvetica,sans-Serif" font-size="10.00">FMTutility.h</text>
</a>
</g>
</g>
<!-- Node9&#45;&gt;Node12 -->
<g id="edge13" class="edge">
<title>Node9&#45;&gt;Node12</title>
<path fill="none" stroke="#63b8ff" d="M521.19,-117.62C533.21,-108.38 551.82,-94.07 566.18,-83.01"/>
<polygon fill="#63b8ff" stroke="#63b8ff" points="567.91,-86.1 573.7,-77.23 563.64,-80.55 567.91,-86.1"/>
</g>
<!-- Node12&#45;&gt;Node7 -->
<g id="edge14" class="edge">
<title>Node12&#45;&gt;Node7</title>
<path fill="none" stroke="#63b8ff" d="M554.43,-55.59C519.74,-45.58 465.22,-29.83 431.1,-19.98"/>
<polygon fill="#63b8ff" stroke="#63b8ff" points="432.41,-16.72 421.83,-17.3 430.46,-23.44 432.41,-16.72"/>
</g>
</g>
</svg>
