<?xml version="1.0" encoding="UTF-8" standalone="no"?>
<!DOCTYPE svg PUBLIC "-//W3C//DTD SVG 1.1//EN"
 "http://www.w3.org/Graphics/SVG/1.1/DTD/svg11.dtd">
<!-- Generated by graphviz version 10.0.1 (20240210.2158)
 -->
<!-- Title: D:/FMT/Include/FMTdevelopmentpath.hpp Pages: 1 -->
<!--zoomable 420 -->
<svg id="main" version="1.1" xmlns="http://www.w3.org/2000/svg" xmlns:xlink="http://www.w3.org/1999/xlink" xml:space="preserve" onload="init(evt)">
<style type="text/css"><![CDATA[
.edge:hover path { stroke: red; }
.edge:hover polygon { stroke: red; fill: red; }
]]></style>
<script type="text/javascript"><![CDATA[
var edges = document.getElementsByTagName('g');
if (edges && edges.length) {
  for (var i=0;i<edges.length;i++) {
    if (edges[i].id.substr(0,4)=='edge') {
      edges[i].setAttribute('class','edge');
    }
  }
}
]]></script>
        <defs>
                <circle id="rim" cx="0" cy="0" r="7"/>
                <circle id="rim2" cx="0" cy="0" r="3.5"/>
                <g id="zoomPlus">
                        <use xlink:href="#rim" fill="#404040">
                                <set attributeName="fill" to="#808080" begin="zoomplus.mouseover" end="zoomplus.mouseout"/>
                        </use>
                        <path d="M-4,0h8M0,-4v8" fill="none" stroke="white" stroke-width="1.5" pointer-events="none"/>
                </g>
                <g id="zoomMin">
                        <use xlink:href="#rim" fill="#404040">
                                <set attributeName="fill" to="#808080" begin="zoomminus.mouseover" end="zoomminus.mouseout"/>
                        </use>
                        <path d="M-4,0h8" fill="none" stroke="white" stroke-width="1.5" pointer-events="none"/>
                </g>
                <g id="dirArrow">
                        <path fill="none" stroke="white" stroke-width="1.5" d="M0,-3.0v7 M-2.5,-0.5L0,-3.0L2.5,-0.5"/>
                </g>
               <g id="resetDef">
                       <use xlink:href="#rim2" fill="#404040">
                               <set attributeName="fill" to="#808080" begin="reset.mouseover" end="reset.mouseout"/>
                       </use>
               </g>
        </defs>

<script type="text/javascript">
var viewWidth = 1309;
var viewHeight = 420;
var sectionId = 'dynsection-1';
</script>
<script xlink:href="svgpan.js"/>
<svg id="graph" class="graph">
<g id="viewport">
<title>D:/FMT/Include/FMTdevelopmentpath.hpp</title>
<!-- Node1 -->
<g id="node1" class="node">
<title>Node1</title>
<g id="a_node1"><a xlink:title=" ">
<polygon fill="#999999" stroke="#666666" points="1069.93,-412 873.93,-412 873.93,-392 1069.93,-392 1069.93,-412"/>
<text text-anchor="middle" x="971.93" y="-398.5" font-family="Helvetica,sans-Serif" font-size="10.00">D:/FMT/Include/FMTdevelopmentpath.hpp</text>
</a>
</g>
</g>
<!-- Node2 -->
<g id="node2" class="node">
<title>Node2</title>
<g id="a_node2"><a xlink:href="FMTgraph_8hpp.html" target="_top" xlink:title=" ">
<polygon fill="white" stroke="#666666" points="842.55,-356 695.3,-356 695.3,-336 842.55,-336 842.55,-356"/>
<text text-anchor="middle" x="768.93" y="-342.5" font-family="Helvetica,sans-Serif" font-size="10.00">D:/FMT/Include/FMTgraph.hpp</text>
</a>
</g>
</g>
<!-- Node1&#45;&gt;Node2 -->
<g id="edge1" class="edge">
<title>Node1&#45;&gt;Node2</title>
<path fill="none" stroke="#63b8ff" d="M925.64,-388.69C888.87,-378.91 838.22,-365.43 804.56,-356.48"/>
<polygon fill="#63b8ff" stroke="#63b8ff" points="924.54,-392.02 935.11,-391.2 926.34,-385.25 924.54,-392.02"/>
</g>
<!-- Node8 -->
<g id="node8" class="node">
<title>Node8</title>
<g id="a_node8"><a xlink:href="Rdeclarations_8hpp.html" target="_top" xlink:title=" ">
<polygon fill="white" stroke="#666666" points="848.43,-76 685.43,-76 685.43,-56 848.43,-56 848.43,-76"/>
<text text-anchor="middle" x="766.93" y="-62.5" font-family="Helvetica,sans-Serif" font-size="10.00">D:/FMT/Include/Rdeclarations.hpp</text>
</a>
</g>
</g>
<!-- Node1&#45;&gt;Node8 -->
<g id="edge47" class="edge">
<title>Node1&#45;&gt;Node8</title>
<path fill="none" stroke="#63b8ff" d="M971.93,-380.32C971.93,-358.22 971.93,-322.13 971.93,-291 971.93,-291 971.93,-291 971.93,-177 971.93,-115.91 900.37,-88.61 841.81,-76.49"/>
<polygon fill="#63b8ff" stroke="#63b8ff" points="968.43,-380.07 971.93,-390.07 975.43,-380.07 968.43,-380.07"/>
</g>
<!-- Node23 -->
<g id="node23" class="node">
<title>Node23</title>
<g id="a_node23"><a xlink:href="RexportCore_8hpp.html" target="_top" xlink:title=" ">
<polygon fill="white" stroke="#666666" points="1157.8,-356 1000.05,-356 1000.05,-336 1157.8,-336 1157.8,-356"/>
<text text-anchor="middle" x="1078.93" y="-342.5" font-family="Helvetica,sans-Serif" font-size="10.00">D:/FMT/Include/RexportCore.hpp</text>
</a>
</g>
</g>
<!-- Node1&#45;&gt;Node23 -->
<g id="edge48" class="edge">
<title>Node1&#45;&gt;Node23</title>
<path fill="none" stroke="#63b8ff" d="M1000.7,-386.48C1019.57,-376.96 1043.71,-364.78 1060.15,-356.48"/>
<polygon fill="#63b8ff" stroke="#63b8ff" points="999.27,-383.28 991.92,-390.91 1002.42,-389.53 999.27,-383.28"/>
</g>
<!-- Node3 -->
<g id="node3" class="node">
<title>Node3</title>
<g id="a_node3"><a xlink:href="FMTlinegraph_8hpp.html" target="_top" xlink:title=" ">
<polygon fill="white" stroke="#666666" points="652.05,-300 489.8,-300 489.8,-280 652.05,-280 652.05,-300"/>
<text text-anchor="middle" x="570.93" y="-286.5" font-family="Helvetica,sans-Serif" font-size="10.00">D:/FMT/Include/FMTlinegraph.hpp</text>
</a>
</g>
</g>
<!-- Node2&#45;&gt;Node3 -->
<g id="edge2" class="edge">
<title>Node2&#45;&gt;Node3</title>
<path fill="none" stroke="#63b8ff" d="M723.78,-332.69C687.92,-322.91 638.51,-309.43 605.69,-300.48"/>
<polygon fill="#63b8ff" stroke="#63b8ff" points="722.41,-335.94 732.98,-335.2 724.25,-329.19 722.41,-335.94"/>
</g>
<!-- Node13 -->
<g id="node13" class="node">
<title>Node13</title>
<g id="a_node13"><a xlink:href="RexportSpatial_8hpp.html" target="_top" xlink:title=" ">
<polygon fill="white" stroke="#666666" points="483.68,-188 316.18,-188 316.18,-168 483.68,-168 483.68,-188"/>
<text text-anchor="middle" x="399.93" y="-174.5" font-family="Helvetica,sans-Serif" font-size="10.00">D:/FMT/Include/RexportSpatial.hpp</text>
</a>
</g>
</g>
<!-- Node2&#45;&gt;Node13 -->
<g id="edge46" class="edge">
<title>Node2&#45;&gt;Node13</title>
<path fill="none" stroke="#63b8ff" d="M683.52,-339.22C611.04,-332.95 513.73,-320.93 480.93,-300 437.24,-272.12 411.58,-211.3 403.09,-188.17"/>
<polygon fill="#63b8ff" stroke="#63b8ff" points="683.17,-342.7 693.42,-340.05 683.75,-335.72 683.17,-342.7"/>
</g>
<!-- Node14 -->
<g id="node14" class="node">
<title>Node14</title>
<g id="a_node14"><a xlink:href="FMToperatingareascheme_8hpp.html" target="_top" xlink:title=" ">
<polygon fill="white" stroke="#666666" points="1290.05,-188 1073.8,-188 1073.8,-168 1290.05,-168 1290.05,-188"/>
<text text-anchor="middle" x="1181.93" y="-174.5" font-family="Helvetica,sans-Serif" font-size="10.00">D:/FMT/Include/FMToperatingareascheme.hpp</text>
</a>
</g>
</g>
<!-- Node2&#45;&gt;Node14 -->
<g id="edge21" class="edge">
<title>Node2&#45;&gt;Node14</title>
<path fill="none" stroke="#63b8ff" d="M807.19,-331.81C832.03,-323.1 865.04,-311.26 893.93,-300 994.49,-260.81 1112.74,-209.43 1160.41,-188.5"/>
<polygon fill="#63b8ff" stroke="#63b8ff" points="806.11,-328.48 797.82,-335.08 808.42,-335.09 806.11,-328.48"/>
</g>
<!-- Node17 -->
<g id="node17" class="node">
<title>Node17</title>
<g id="a_node17"><a xlink:href="FMToutputnodecache_8hpp.html" target="_top" xlink:title=" ">
<polygon fill="white" stroke="#666666" points="867.68,-300 670.18,-300 670.18,-280 867.68,-280 867.68,-300"/>
<text text-anchor="middle" x="768.93" y="-286.5" font-family="Helvetica,sans-Serif" font-size="10.00">D:/FMT/Include/FMToutputnodecache.hpp</text>
</a>
</g>
</g>
<!-- Node2&#45;&gt;Node17 -->
<g id="edge29" class="edge">
<title>Node2&#45;&gt;Node17</title>
<path fill="none" stroke="#63b8ff" d="M762.35,-324.43C761.9,-316.11 762.34,-306.93 763.68,-300.3"/>
<polygon fill="#63b8ff" stroke="#63b8ff" points="758.84,-324.57 763.49,-334.09 765.8,-323.75 758.84,-324.57"/>
</g>
<!-- Node18 -->
<g id="node18" class="node">
<title>Node18</title>
<g id="a_node18"><a xlink:href="FMTsrmodel_8hpp.html" target="_top" xlink:title=" ">
<polygon fill="white" stroke="#666666" points="857.8,-188 700.05,-188 700.05,-168 857.8,-168 857.8,-188"/>
<text text-anchor="middle" x="778.93" y="-174.5" font-family="Helvetica,sans-Serif" font-size="10.00">D:/FMT/Include/FMTsrmodel.hpp</text>
</a>
</g>
</g>
<!-- Node2&#45;&gt;Node18 -->
<g id="edge31" class="edge">
<title>Node2&#45;&gt;Node18</title>
<path fill="none" stroke="#63b8ff" d="M833.8,-331.84C850.63,-325.16 866.85,-315.12 876.93,-300 906.39,-255.8 832.89,-208.16 797.12,-188.41"/>
<polygon fill="#63b8ff" stroke="#63b8ff" points="832.96,-328.42 824.71,-335.06 835.3,-335.02 832.96,-328.42"/>
</g>
<!-- Node21 -->
<g id="node21" class="node">
<title>Node21</title>
<g id="a_node21"><a xlink:href="PYexportGraph_8hpp.html" target="_top" xlink:title=" ">
<polygon fill="white" stroke="#666666" points="201.18,-300 30.68,-300 30.68,-280 201.18,-280 201.18,-300"/>
<text text-anchor="middle" x="115.93" y="-286.5" font-family="Helvetica,sans-Serif" font-size="10.00">D:/FMT/Include/PYexportGraph.hpp</text>
</a>
</g>
</g>
<!-- Node2&#45;&gt;Node21 -->
<g id="edge44" class="edge">
<title>Node2&#45;&gt;Node21</title>
<path fill="none" stroke="#63b8ff" d="M683.9,-338.56C574.29,-330.16 377.84,-314.8 209.93,-300 207.15,-299.76 204.33,-299.5 201.48,-299.25"/>
<polygon fill="#63b8ff" stroke="#63b8ff" points="683.45,-342.03 693.69,-339.31 683.99,-335.05 683.45,-342.03"/>
</g>
<!-- Node22 -->
<g id="node22" class="node">
<title>Node22</title>
<g id="a_node22"><a xlink:href="PYexportSpatial_8hpp.html" target="_top" xlink:title=" ">
<polygon fill="white" stroke="#666666" points="393.05,-300 218.8,-300 218.8,-280 393.05,-280 393.05,-300"/>
<text text-anchor="middle" x="305.93" y="-286.5" font-family="Helvetica,sans-Serif" font-size="10.00">D:/FMT/Include/PYexportSpatial.hpp</text>
</a>
</g>
</g>
<!-- Node2&#45;&gt;Node22 -->
<g id="edge45" class="edge">
<title>Node2&#45;&gt;Node22</title>
<path fill="none" stroke="#63b8ff" d="M683.68,-335.06C599.14,-325.2 470.51,-310.2 387.33,-300.49"/>
<polygon fill="#63b8ff" stroke="#63b8ff" points="683.21,-338.53 693.55,-336.21 684.02,-331.57 683.21,-338.53"/>
</g>
<!-- Node4 -->
<g id="node4" class="node">
<title>Node4</title>
<g id="a_node4"><a xlink:href="FMTspatialschedule_8hpp.html" target="_top" xlink:title=" ">
<polygon fill="white" stroke="#666666" points="677.3,-244 486.55,-244 486.55,-224 677.3,-224 677.3,-244"/>
<text text-anchor="middle" x="581.93" y="-230.5" font-family="Helvetica,sans-Serif" font-size="10.00">D:/FMT/Include/FMTspatialschedule.hpp</text>
</a>
</g>
</g>
<!-- Node3&#45;&gt;Node4 -->
<g id="edge3" class="edge">
<title>Node3&#45;&gt;Node4</title>
<path fill="none" stroke="#63b8ff" d="M575.12,-268.43C576.81,-260.11 578.68,-250.93 580.03,-244.3"/>
<polygon fill="#63b8ff" stroke="#63b8ff" points="571.71,-267.61 573.15,-278.11 578.57,-269.01 571.71,-267.61"/>
</g>
<!-- Node3&#45;&gt;Node8 -->
<g id="edge19" class="edge">
<title>Node3&#45;&gt;Node8</title>
<path fill="none" stroke="#63b8ff" d="M660.27,-277.5C724.48,-265.09 809.49,-239.66 866.93,-188 893.47,-164.13 913.49,-141.18 892.93,-112 880.08,-93.77 859.15,-82.89 838.01,-76.4"/>
<polygon fill="#63b8ff" stroke="#63b8ff" points="660.03,-273.98 650.84,-279.24 661.31,-280.86 660.03,-273.98"/>
</g>
<!-- Node3&#45;&gt;Node13 -->
<g id="edge20" class="edge">
<title>Node3&#45;&gt;Node13</title>
<path fill="none" stroke="#63b8ff" d="M537.15,-275.05C519.02,-266.98 496.62,-256.05 477.93,-244 451.26,-226.81 423.53,-201.66 409.42,-188.24"/>
<polygon fill="#63b8ff" stroke="#63b8ff" points="535.59,-278.19 546.15,-278.97 538.38,-271.77 535.59,-278.19"/>
</g>
<!-- Node5 -->
<g id="node5" class="node">
<title>Node5</title>
<g id="a_node5"><a xlink:href="FMTsemodel_8hpp.html" target="_top" xlink:title=" ">
<polygon fill="white" stroke="#666666" points="661.93,-188 501.93,-188 501.93,-168 661.93,-168 661.93,-188"/>
<text text-anchor="middle" x="581.93" y="-174.5" font-family="Helvetica,sans-Serif" font-size="10.00">D:/FMT/Include/FMTsemodel.hpp</text>
</a>
</g>
</g>
<!-- Node4&#45;&gt;Node5 -->
<g id="edge4" class="edge">
<title>Node4&#45;&gt;Node5</title>
<path fill="none" stroke="#63b8ff" d="M581.93,-212.13C581.93,-203.9 581.93,-194.85 581.93,-188.3"/>
<polygon fill="#63b8ff" stroke="#63b8ff" points="578.43,-212.08 581.93,-222.08 585.43,-212.08 578.43,-212.08"/>
</g>
<!-- Node4&#45;&gt;Node13 -->
<g id="edge18" class="edge">
<title>Node4&#45;&gt;Node13</title>
<path fill="none" stroke="#63b8ff" d="M539.57,-220.43C506.68,-210.67 461.79,-197.35 431.88,-188.48"/>
<polygon fill="#63b8ff" stroke="#63b8ff" points="538.19,-223.67 548.78,-223.16 540.18,-216.96 538.19,-223.67"/>
</g>
<!-- Node6 -->
<g id="node6" class="node">
<title>Node6</title>
<g id="a_node6"><a xlink:href="FMTsamodel_8hpp.html" target="_top" xlink:title=" ">
<polygon fill="white" stroke="#666666" points="248.93,-132 88.93,-132 88.93,-112 248.93,-112 248.93,-132"/>
<text text-anchor="middle" x="168.93" y="-118.5" font-family="Helvetica,sans-Serif" font-size="10.00">D:/FMT/Include/FMTsamodel.hpp</text>
</a>
</g>
</g>
<!-- Node5&#45;&gt;Node6 -->
<g id="edge5" class="edge">
<title>Node5&#45;&gt;Node6</title>
<path fill="none" stroke="#63b8ff" d="M498.18,-166.05C422.73,-156.18 312.96,-141.83 241.26,-132.46"/>
<polygon fill="#63b8ff" stroke="#63b8ff" points="497.65,-169.51 508.02,-167.34 498.55,-162.57 497.65,-169.51"/>
</g>
<!-- Node7 -->
<g id="node7" class="node">
<title>Node7</title>
<g id="a_node7"><a xlink:href="PYexportModel_8hpp.html" target="_top" xlink:title=" ">
<polygon fill="white" stroke="#666666" points="263.18,-76 92.68,-76 92.68,-56 263.18,-56 263.18,-76"/>
<text text-anchor="middle" x="177.93" y="-62.5" font-family="Helvetica,sans-Serif" font-size="10.00">D:/FMT/Include/PYexportModel.hpp</text>
</a>
</g>
</g>
<!-- Node5&#45;&gt;Node7 -->
<g id="edge15" class="edge">
<title>Node5&#45;&gt;Node7</title>
<path fill="none" stroke="#63b8ff" d="M490.42,-168.09C401.62,-163.98 43.83,-169.59 8.93,-132 -22.03,-98.65 36.05,-82.24 92.38,-74.26"/>
<polygon fill="#63b8ff" stroke="#63b8ff" points="490.18,-171.58 500.37,-168.71 490.61,-164.59 490.18,-171.58"/>
</g>
<!-- Node5&#45;&gt;Node8 -->
<g id="edge16" class="edge">
<title>Node5&#45;&gt;Node8</title>
<path fill="none" stroke="#63b8ff" d="M609.14,-162.34C624.95,-153.7 645.2,-142.46 662.93,-132 695.21,-112.96 732.26,-89.38 752.26,-76.5"/>
<polygon fill="#63b8ff" stroke="#63b8ff" points="607.9,-159.03 600.79,-166.88 611.24,-165.18 607.9,-159.03"/>
</g>
<!-- Node9 -->
<g id="node9" class="node">
<title>Node9</title>
<g id="a_node9"><a xlink:href="RexportModel_8hpp.html" target="_top" xlink:title=" ">
<polygon fill="white" stroke="#666666" points="452.8,-76 289.05,-76 289.05,-56 452.8,-56 452.8,-76"/>
<text text-anchor="middle" x="370.93" y="-62.5" font-family="Helvetica,sans-Serif" font-size="10.00">D:/FMT/Include/RexportModel.hpp</text>
</a>
</g>
</g>
<!-- Node5&#45;&gt;Node9 -->
<g id="edge17" class="edge">
<title>Node5&#45;&gt;Node9</title>
<path fill="none" stroke="#63b8ff" d="M490.46,-168.06C411.23,-163.82 109.35,-164.1 79.93,-132 73.92,-125.45 74.14,-118.75 79.93,-112 86.91,-103.86 209.69,-87.07 293.51,-76.45"/>
<polygon fill="#63b8ff" stroke="#63b8ff" points="490.15,-171.55 500.37,-168.75 490.64,-164.57 490.15,-171.55"/>
</g>
<!-- Node10 -->
<g id="node10" class="node">
<title>Node10</title>
<g id="a_node10"><a xlink:href="FMTsesmodel_8hpp.html" target="_top" xlink:title=" ">
<polygon fill="white" stroke="#666666" points="653.55,-132 488.3,-132 488.3,-112 653.55,-112 653.55,-132"/>
<text text-anchor="middle" x="570.93" y="-118.5" font-family="Helvetica,sans-Serif" font-size="10.00">D:/FMT/Include/FMTsesmodel.hpp</text>
</a>
</g>
</g>
<!-- Node5&#45;&gt;Node10 -->
<g id="edge9" class="edge">
<title>Node5&#45;&gt;Node10</title>
<path fill="none" stroke="#63b8ff" d="M577.74,-156.43C576.04,-148.11 574.17,-138.93 572.82,-132.3"/>
<polygon fill="#63b8ff" stroke="#63b8ff" points="574.28,-157.01 579.71,-166.11 581.14,-155.61 574.28,-157.01"/>
</g>
<!-- Node6&#45;&gt;Node7 -->
<g id="edge6" class="edge">
<title>Node6&#45;&gt;Node7</title>
<path fill="none" stroke="#63b8ff" d="M172.36,-100.43C173.74,-92.11 175.27,-82.93 176.38,-76.3"/>
<polygon fill="#63b8ff" stroke="#63b8ff" points="168.94,-99.66 170.75,-110.1 175.84,-100.81 168.94,-99.66"/>
</g>
<!-- Node6&#45;&gt;Node8 -->
<g id="edge7" class="edge">
<title>Node6&#45;&gt;Node8</title>
<path fill="none" stroke="#63b8ff" d="M260.56,-112.73C376.4,-102.26 574.07,-84.42 685.07,-74.39"/>
<polygon fill="#63b8ff" stroke="#63b8ff" points="260.42,-109.22 250.77,-113.61 261.05,-116.2 260.42,-109.22"/>
</g>
<!-- Node6&#45;&gt;Node9 -->
<g id="edge8" class="edge">
<title>Node6&#45;&gt;Node9</title>
<path fill="none" stroke="#63b8ff" d="M214.99,-108.69C251.57,-98.91 301.98,-85.43 335.47,-76.48"/>
<polygon fill="#63b8ff" stroke="#63b8ff" points="214.33,-105.24 205.58,-111.2 216.14,-112 214.33,-105.24"/>
</g>
<!-- Node10&#45;&gt;Node7 -->
<g id="edge12" class="edge">
<title>Node10&#45;&gt;Node7</title>
<path fill="none" stroke="#63b8ff" d="M490.79,-109.99C419.01,-100.13 314.85,-85.81 246.75,-76.46"/>
<polygon fill="#63b8ff" stroke="#63b8ff" points="490.14,-113.43 500.52,-111.33 491.09,-106.5 490.14,-113.43"/>
</g>
<!-- Node10&#45;&gt;Node8 -->
<g id="edge13" class="edge">
<title>Node10&#45;&gt;Node8</title>
<path fill="none" stroke="#63b8ff" d="M616.08,-108.56C651.54,-98.79 700.17,-85.39 732.52,-76.48"/>
<polygon fill="#63b8ff" stroke="#63b8ff" points="615.24,-105.16 606.53,-111.19 617.1,-111.91 615.24,-105.16"/>
</g>
<!-- Node10&#45;&gt;Node9 -->
<g id="edge14" class="edge">
<title>Node10&#45;&gt;Node9</title>
<path fill="none" stroke="#63b8ff" d="M525.32,-108.69C489.1,-98.91 439.19,-85.43 406.04,-76.48"/>
<polygon fill="#63b8ff" stroke="#63b8ff" points="524.06,-111.97 534.63,-111.2 525.89,-105.21 524.06,-111.97"/>
</g>
<!-- Node11 -->
<g id="node11" class="node">
<title>Node11</title>
<g id="a_node11"><a xlink:href="FMTpythonpickle_8hpp.html" target="_top" xlink:title=" ">
<polygon fill="white" stroke="#666666" points="1044.93,-76 866.93,-76 866.93,-56 1044.93,-56 1044.93,-76"/>
<text text-anchor="middle" x="955.93" y="-62.5" font-family="Helvetica,sans-Serif" font-size="10.00">D:/FMT/Include/FMTpythonpickle.hpp</text>
</a>
</g>
</g>
<!-- Node10&#45;&gt;Node11 -->
<g id="edge10" class="edge">
<title>Node10&#45;&gt;Node11</title>
<path fill="none" stroke="#63b8ff" d="M649.43,-109.99C719.75,-100.13 821.8,-85.81 888.5,-76.46"/>
<polygon fill="#63b8ff" stroke="#63b8ff" points="649.35,-106.47 639.93,-111.32 650.32,-113.4 649.35,-106.47"/>
</g>
<!-- Node12 -->
<g id="node12" class="node">
<title>Node12</title>
<g id="a_node12"><a xlink:href="PYexportHeuristics_8hpp.html" target="_top" xlink:title=" ">
<polygon fill="white" stroke="#666666" points="1166.8,-20 979.05,-20 979.05,0 1166.8,0 1166.8,-20"/>
<text text-anchor="middle" x="1072.93" y="-6.5" font-family="Helvetica,sans-Serif" font-size="10.00">D:/FMT/Include/PYexportHeuristics.hpp</text>
</a>
</g>
</g>
<!-- Node11&#45;&gt;Node12 -->
<g id="edge11" class="edge">
<title>Node11&#45;&gt;Node12</title>
<path fill="none" stroke="#63b8ff" d="M986.53,-50.88C1007.29,-41.3 1034.16,-28.89 1052.39,-20.48"/>
<polygon fill="#63b8ff" stroke="#63b8ff" points="985.3,-47.59 977.68,-54.96 988.23,-53.95 985.3,-47.59"/>
</g>
<!-- Node14&#45;&gt;Node12 -->
<g id="edge27" class="edge">
<title>Node14&#45;&gt;Node12</title>
<path fill="none" stroke="#63b8ff" d="M1212.65,-162.41C1255.51,-140.12 1324.51,-95.96 1291.93,-56 1275.86,-36.3 1218.89,-24.97 1167.09,-18.62"/>
<polygon fill="#63b8ff" stroke="#63b8ff" points="1211.09,-159.27 1203.75,-166.91 1214.25,-165.52 1211.09,-159.27"/>
</g>
<!-- Node15 -->
<g id="node15" class="node">
<title>Node15</title>
<g id="a_node15"><a xlink:href="FMToperatingareascheduler_8hpp.html" target="_top" xlink:title=" ">
<polygon fill="white" stroke="#666666" points="1223.8,-132 1000.05,-132 1000.05,-112 1223.8,-112 1223.8,-132"/>
<text text-anchor="middle" x="1111.93" y="-118.5" font-family="Helvetica,sans-Serif" font-size="10.00">D:/FMT/Include/FMToperatingareascheduler.hpp</text>
</a>
</g>
</g>
<!-- Node14&#45;&gt;Node15 -->
<g id="edge22" class="edge">
<title>Node14&#45;&gt;Node15</title>
<path fill="none" stroke="#63b8ff" d="M1160.77,-160.68C1148.73,-151.39 1134.08,-140.09 1123.98,-132.3"/>
<polygon fill="#63b8ff" stroke="#63b8ff" points="1158.48,-163.33 1168.54,-166.67 1162.76,-157.79 1158.48,-163.33"/>
</g>
<!-- Node16 -->
<g id="node16" class="node">
<title>Node16</title>
<g id="a_node16"><a xlink:href="RexportHeuristics_8hpp.html" target="_top" xlink:title=" ">
<polygon fill="white" stroke="#666666" points="1282.43,-76 1101.43,-76 1101.43,-56 1282.43,-56 1282.43,-76"/>
<text text-anchor="middle" x="1191.93" y="-62.5" font-family="Helvetica,sans-Serif" font-size="10.00">D:/FMT/Include/RexportHeuristics.hpp</text>
</a>
</g>
</g>
<!-- Node14&#45;&gt;Node16 -->
<g id="edge28" class="edge">
<title>Node14&#45;&gt;Node16</title>
<path fill="none" stroke="#63b8ff" d="M1207.79,-161.16C1217.58,-153.65 1227.63,-143.75 1232.93,-132 1242.42,-110.96 1220.36,-88.67 1205.06,-76.43"/>
<polygon fill="#63b8ff" stroke="#63b8ff" points="1206.05,-158.1 1199.89,-166.72 1210.08,-163.83 1206.05,-158.1"/>
</g>
<!-- Node15&#45;&gt;Node8 -->
<g id="edge25" class="edge">
<title>Node15&#45;&gt;Node8</title>
<path fill="none" stroke="#63b8ff" d="M1040.41,-109.81C977.44,-99.95 886.76,-85.76 827.35,-76.46"/>
<polygon fill="#63b8ff" stroke="#63b8ff" points="1039.52,-113.21 1049.94,-111.3 1040.61,-106.29 1039.52,-113.21"/>
</g>
<!-- Node15&#45;&gt;Node11 -->
<g id="edge23" class="edge">
<title>Node15&#45;&gt;Node11</title>
<path fill="none" stroke="#63b8ff" d="M1074.14,-107.92C1046.1,-98.21 1008.51,-85.2 983.31,-76.48"/>
<polygon fill="#63b8ff" stroke="#63b8ff" points="1072.73,-111.14 1083.33,-111.1 1075.02,-104.52 1072.73,-111.14"/>
</g>
<!-- Node15&#45;&gt;Node12 -->
<g id="edge24" class="edge">
<title>Node15&#45;&gt;Node12</title>
<path fill="none" stroke="#63b8ff" d="M1103.18,-101.49C1099.8,-93.64 1096.01,-84.46 1092.93,-76 1085.82,-56.47 1079.03,-33.07 1075.49,-20.35"/>
<polygon fill="#63b8ff" stroke="#63b8ff" points="1099.88,-102.67 1107.11,-110.42 1106.29,-99.85 1099.88,-102.67"/>
</g>
<!-- Node15&#45;&gt;Node16 -->
<g id="edge26" class="edge">
<title>Node15&#45;&gt;Node16</title>
<path fill="none" stroke="#63b8ff" d="M1135.23,-105.27C1149.05,-95.94 1166.11,-84.43 1177.88,-76.48"/>
<polygon fill="#63b8ff" stroke="#63b8ff" points="1133.45,-102.25 1127.12,-110.75 1137.36,-108.05 1133.45,-102.25"/>
</g>
<!-- Node17&#45;&gt;Node2 -->
<g id="edge30" class="edge">
<title>Node17&#45;&gt;Node2</title>
<path fill="none" stroke="#63b8ff" d="M775.51,-311.73C775.95,-319.96 775.51,-329.01 774.2,-335.59"/>
<polygon fill="#63b8ff" stroke="#63b8ff" points="778.99,-311.33 774.35,-301.8 772.04,-312.14 778.99,-311.33"/>
</g>
<!-- Node18&#45;&gt;Node7 -->
<g id="edge41" class="edge">
<title>Node18&#45;&gt;Node7</title>
<path fill="none" stroke="#63b8ff" d="M688.29,-169.3C682.42,-168.85 676.59,-168.41 670.93,-168 605.31,-163.27 125.01,-179.91 79.93,-132 56.77,-107.39 104.52,-87.44 141.16,-76.4"/>
<polygon fill="#63b8ff" stroke="#63b8ff" points="687.86,-172.78 698.1,-170.07 688.41,-165.8 687.86,-172.78"/>
</g>
<!-- Node18&#45;&gt;Node8 -->
<g id="edge42" class="edge">
<title>Node18&#45;&gt;Node8</title>
<path fill="none" stroke="#63b8ff" d="M829.27,-164.22C860.99,-153.53 893.13,-136.14 876.93,-112 864.68,-93.76 843.59,-82.9 823.12,-76.45"/>
<polygon fill="#63b8ff" stroke="#63b8ff" points="828.52,-160.79 820.04,-167.13 830.63,-167.46 828.52,-160.79"/>
</g>
<!-- Node18&#45;&gt;Node9 -->
<g id="edge43" class="edge">
<title>Node18&#45;&gt;Node9</title>
<path fill="none" stroke="#63b8ff" d="M688.12,-169.31C549.13,-157.42 299.2,-135.59 295.93,-132 276.03,-110.16 316.45,-88.41 345.3,-76.43"/>
<polygon fill="#63b8ff" stroke="#63b8ff" points="687.8,-172.79 698.07,-170.15 688.4,-165.82 687.8,-172.79"/>
</g>
<!-- Node19 -->
<g id="node19" class="node">
<title>Node19</title>
<g id="a_node19"><a xlink:href="FMTlpmodel_8hpp.html" target="_top" xlink:title=" ">
<polygon fill="white" stroke="#666666" points="867.43,-132 710.43,-132 710.43,-112 867.43,-112 867.43,-132"/>
<text text-anchor="middle" x="788.93" y="-118.5" font-family="Helvetica,sans-Serif" font-size="10.00">D:/FMT/Include/FMTlpmodel.hpp</text>
</a>
</g>
</g>
<!-- Node18&#45;&gt;Node19 -->
<g id="edge32" class="edge">
<title>Node18&#45;&gt;Node19</title>
<path fill="none" stroke="#63b8ff" d="M782.74,-156.43C784.28,-148.11 785.98,-138.93 787.21,-132.3"/>
<polygon fill="#63b8ff" stroke="#63b8ff" points="779.33,-155.64 780.95,-166.11 786.21,-156.91 779.33,-155.64"/>
</g>
<!-- Node20 -->
<g id="node20" class="node">
<title>Node20</title>
<g id="a_node20"><a xlink:href="FMTnssmodel_8hpp.html" target="_top" xlink:title=" ">
<polygon fill="white" stroke="#666666" points="470.55,-132 305.3,-132 305.3,-112 470.55,-112 470.55,-132"/>
<text text-anchor="middle" x="387.93" y="-118.5" font-family="Helvetica,sans-Serif" font-size="10.00">D:/FMT/Include/FMTnssmodel.hpp</text>
</a>
</g>
</g>
<!-- Node18&#45;&gt;Node20 -->
<g id="edge37" class="edge">
<title>Node18&#45;&gt;Node20</title>
<path fill="none" stroke="#63b8ff" d="M699.2,-165.99C627.78,-156.13 524.15,-141.81 456.4,-132.46"/>
<polygon fill="#63b8ff" stroke="#63b8ff" points="698.49,-169.42 708.87,-167.33 699.45,-162.49 698.49,-169.42"/>
</g>
<!-- Node19&#45;&gt;Node7 -->
<g id="edge34" class="edge">
<title>Node19&#45;&gt;Node7</title>
<path fill="none" stroke="#63b8ff" d="M698.57,-113.01C581.36,-102.66 378.36,-84.71 263.53,-74.57"/>
<polygon fill="#63b8ff" stroke="#63b8ff" points="698.21,-116.5 708.48,-113.89 698.83,-109.52 698.21,-116.5"/>
</g>
<!-- Node19&#45;&gt;Node8 -->
<g id="edge35" class="edge">
<title>Node19&#45;&gt;Node8</title>
<path fill="none" stroke="#63b8ff" d="M780.78,-101C777.33,-92.54 773.48,-83.08 770.72,-76.3"/>
<polygon fill="#63b8ff" stroke="#63b8ff" points="777.51,-102.25 784.53,-110.19 783.99,-99.61 777.51,-102.25"/>
</g>
<!-- Node19&#45;&gt;Node9 -->
<g id="edge36" class="edge">
<title>Node19&#45;&gt;Node9</title>
<path fill="none" stroke="#63b8ff" d="M704.63,-110.11C628.26,-100.24 516.86,-85.85 444.13,-76.46"/>
<polygon fill="#63b8ff" stroke="#63b8ff" points="703.77,-113.53 714.14,-111.34 704.67,-106.59 703.77,-113.53"/>
</g>
<!-- Node19&#45;&gt;Node11 -->
<g id="edge33" class="edge">
<title>Node19&#45;&gt;Node11</title>
<path fill="none" stroke="#63b8ff" d="M828.58,-108.18C858.69,-98.44 899.4,-85.28 926.61,-76.48"/>
<polygon fill="#63b8ff" stroke="#63b8ff" points="827.9,-104.72 819.46,-111.13 830.05,-111.38 827.9,-104.72"/>
</g>
<!-- Node20&#45;&gt;Node7 -->
<g id="edge38" class="edge">
<title>Node20&#45;&gt;Node7</title>
<path fill="none" stroke="#63b8ff" d="M340.53,-108.81C302.46,-99.02 249.76,-85.47 214.79,-76.48"/>
<polygon fill="#63b8ff" stroke="#63b8ff" points="339.33,-112.12 349.88,-111.22 341.07,-105.34 339.33,-112.12"/>
</g>
<!-- Node20&#45;&gt;Node8 -->
<g id="edge39" class="edge">
<title>Node20&#45;&gt;Node8</title>
<path fill="none" stroke="#63b8ff" d="M465.64,-109.93C534.85,-100.07 635.02,-85.79 700.55,-76.46"/>
<polygon fill="#63b8ff" stroke="#63b8ff" points="465.28,-106.44 455.88,-111.32 466.27,-113.37 465.28,-106.44"/>
</g>
<!-- Node20&#45;&gt;Node9 -->
<g id="edge40" class="edge">
<title>Node20&#45;&gt;Node9</title>
<path fill="none" stroke="#63b8ff" d="M381.54,-100.71C378.9,-92.32 375.97,-83.01 373.86,-76.3"/>
<polygon fill="#63b8ff" stroke="#63b8ff" points="378.17,-101.66 384.51,-110.15 384.85,-99.56 378.17,-101.66"/>
</g>
</g>
</svg>
        <g id="navigator" transform="translate(0 0)" fill="#404254">
                <rect fill="#f2f5e9" fill-opacity="0.5" stroke="#606060" stroke-width=".5" x="0" y="0" width="60" height="60"/>
                <use id="zoomplus" xlink:href="#zoomPlus" x="17" y="9" onmousedown="handleZoom(evt,'in')"/>
                <use id="zoomminus" xlink:href="#zoomMin" x="42" y="9" onmousedown="handleZoom(evt,'out')"/>
                <use id="reset" xlink:href="#resetDef" x="30" y="36" onmousedown="handleReset()"/>
                <g id="arrowUp" xlink:href="#dirArrow" transform="translate(30 24)" onmousedown="handlePan(0,-1)">
                  <use xlink:href="#rim" fill="#404040">
                        <set attributeName="fill" to="#808080" begin="arrowUp.mouseover" end="arrowUp.mouseout"/>
                  </use>
                  <path fill="none" stroke="white" stroke-width="1.5" d="M0,-3.0v7 M-2.5,-0.5L0,-3.0L2.5,-0.5"/>
                </g>
                <g id="arrowRight" xlink:href="#dirArrow" transform="rotate(90) translate(36 -43)" onmousedown="handlePan(1,0)">
                  <use xlink:href="#rim" fill="#404040">
                        <set attributeName="fill" to="#808080" begin="arrowRight.mouseover" end="arrowRight.mouseout"/>
                  </use>
                  <path fill="none" stroke="white" stroke-width="1.5" d="M0,-3.0v7 M-2.5,-0.5L0,-3.0L2.5,-0.5"/>
                </g>
                <g id="arrowDown" xlink:href="#dirArrow" transform="rotate(180) translate(-30 -48)" onmousedown="handlePan(0,1)">
                  <use xlink:href="#rim" fill="#404040">
                        <set attributeName="fill" to="#808080" begin="arrowDown.mouseover" end="arrowDown.mouseout"/>
                  </use>
                  <path fill="none" stroke="white" stroke-width="1.5" d="M0,-3.0v7 M-2.5,-0.5L0,-3.0L2.5,-0.5"/>
                </g>
                <g id="arrowLeft" xlink:href="#dirArrow" transform="rotate(270) translate(-36 17)" onmousedown="handlePan(-1,0)">
                  <use xlink:href="#rim" fill="#404040">
                        <set attributeName="fill" to="#808080" begin="arrowLeft.mouseover" end="arrowLeft.mouseout"/>
                  </use>
                  <path fill="none" stroke="white" stroke-width="1.5" d="M0,-3.0v7 M-2.5,-0.5L0,-3.0L2.5,-0.5"/>
                </g>
        </g>
        <svg viewBox="0 0 15 15" width="100%" height="30px" preserveAspectRatio="xMaxYMin meet">
         <g id="arrow_out" transform="scale(0.3 0.3)">
          <a xlink:href="FMTdevelopmentpath_8hpp__dep__incl_org.svg" target="_base">
           <rect id="button" ry="5" rx="5" y="6" x="6" height="38" width="38"
                fill="#f2f5e9" fill-opacity="0.5" stroke="#606060" stroke-width="1.0"/>
           <path id="arrow"
             d="M 11.500037,31.436501 C 11.940474,20.09759 22.043105,11.32322 32.158766,21.979434 L 37.068811,17.246167 C 37.068811,17.246167 37.088388,32 37.088388,32 L 22.160133,31.978069 C 22.160133,31.978069 26.997745,27.140456 26.997745,27.140456 C 18.528582,18.264221 13.291696,25.230495 11.500037,31.436501 z"
             style="fill:#404040;"/>
          </a>
         </g>
        </svg>
</svg>
