<?xml version="1.0" encoding="UTF-8" standalone="no"?>
<!DOCTYPE svg PUBLIC "-//W3C//DTD SVG 1.1//EN"
 "http://www.w3.org/Graphics/SVG/1.1/DTD/svg11.dtd">
<!-- Generated by graphviz version 8.1.0 (20230707.0739)
 -->
<!-- Title: C:/Users/CYRGU3/OneDrive &#45; BuroVirtuel/Bureau/FMT/FMT/Include/FMTdefaultexceptionhandler.hpp Pages: 1 -->
<svg width="697pt" height="300pt"
 viewBox="0.00 0.00 696.97 300.00" xmlns="http://www.w3.org/2000/svg" xmlns:xlink="http://www.w3.org/1999/xlink">
<g id="graph0" class="graph" transform="scale(1 1) rotate(0) translate(4 296)">
<title>C:/Users/CYRGU3/OneDrive &#45; BuroVirtuel/Bureau/FMT/FMT/Include/FMTdefaultexceptionhandler.hpp</title>
<!-- Node1 -->
<g id="Node000001" class="node">
<title>Node1</title>
<g id="a_Node000001"><a xlink:title=" ">
<polygon fill="#999999" stroke="#666666" points="507.38,-292 291.88,-292 291.88,-248 507.38,-248 507.38,-292"/>
<text text-anchor="start" x="299.88" y="-278.5" font-family="Helvetica,sans-Serif" font-size="10.00">C:/Users/CYRGU3/OneDrive</text>
<text text-anchor="start" x="299.88" y="-266.5" font-family="Helvetica,sans-Serif" font-size="10.00"> &#45; BuroVirtuel/Bureau/FMT</text>
<text text-anchor="middle" x="399.62" y="-254.5" font-family="Helvetica,sans-Serif" font-size="10.00">/FMT/Include/FMTdefaultexceptionhandler.hpp</text>
</a>
</g>
</g>
<!-- Node2 -->
<g id="Node000002" class="node">
<title>Node2</title>
<g id="a_Node000002"><a xlink:href="FMTexceptionhandler_8hpp.html" target="_top" xlink:title=" ">
<polygon fill="white" stroke="#666666" points="463.5,-212 335.75,-212 335.75,-192 463.5,-192 463.5,-212"/>
<text text-anchor="middle" x="399.62" y="-198.5" font-family="Helvetica,sans-Serif" font-size="10.00">FMTexceptionhandler.hpp</text>
</a>
</g>
</g>
<!-- Node1&#45;&gt;Node2 -->
<g id="edge1_Node000001_Node000002" class="edge">
<title>Node1&#45;&gt;Node2</title>
<g id="a_edge1_Node000001_Node000002"><a xlink:title=" ">
<path fill="none" stroke="#63b8ff" d="M399.62,-247.75C399.62,-239.94 399.62,-231.11 399.62,-223.38"/>
<polygon fill="#63b8ff" stroke="#63b8ff" points="403.13,-223.42 399.62,-213.42 396.13,-223.42 403.13,-223.42"/>
</a>
</g>
</g>
<!-- Node7 -->
<g id="Node000007" class="node">
<title>Node7</title>
<g id="a_Node000007"><a xlink:title=" ">
<polygon fill="#e0e0e0" stroke="#999999" points="353.62,-20 313.62,-20 313.62,0 353.62,0 353.62,-20"/>
<text text-anchor="middle" x="333.62" y="-6.5" font-family="Helvetica,sans-Serif" font-size="10.00">string</text>
</a>
</g>
</g>
<!-- Node1&#45;&gt;Node7 -->
<g id="edge21_Node000001_Node000007" class="edge">
<title>Node1&#45;&gt;Node7</title>
<g id="a_edge21_Node000001_Node000007"><a xlink:title=" ">
<path fill="none" stroke="#63b8ff" d="M507.69,-257.21C600.48,-241.43 714.75,-205.3 683.62,-124 669.11,-86.08 658.31,-75.36 622.62,-56 578.41,-32.02 429.56,-18.2 364.5,-13.18"/>
<polygon fill="#63b8ff" stroke="#63b8ff" points="364.96,-9.63 354.73,-12.37 364.43,-16.61 364.96,-9.63"/>
</a>
</g>
</g>
<!-- Node8 -->
<g id="Node000008" class="node">
<title>Node8</title>
<g id="a_Node000008"><a xlink:href="FMTexception_8hpp.html" target="_top" xlink:title=" ">
<polygon fill="white" stroke="#666666" points="184.75,-82 88.5,-82 88.5,-62 184.75,-62 184.75,-82"/>
<text text-anchor="middle" x="136.62" y="-68.5" font-family="Helvetica,sans-Serif" font-size="10.00">FMTexception.hpp</text>
</a>
</g>
</g>
<!-- Node1&#45;&gt;Node8 -->
<g id="edge20_Node000001_Node000008" class="edge">
<title>Node1&#45;&gt;Node8</title>
<g id="a_edge20_Node000001_Node000008"><a xlink:title=" ">
<path fill="none" stroke="#63b8ff" d="M291.73,-260.72C221.01,-249.04 133.44,-221.32 87.62,-156 71.97,-133.68 96.08,-106.16 115.68,-89.09"/>
<polygon fill="#63b8ff" stroke="#63b8ff" points="117.48,-91.33 122.95,-82.26 113.01,-85.93 117.48,-91.33"/>
</a>
</g>
</g>
<!-- Node3 -->
<g id="Node000003" class="node">
<title>Node3</title>
<g id="a_Node000003"><a xlink:href="FMTlogger_8hpp.html" target="_top" xlink:title=" ">
<polygon fill="white" stroke="#666666" points="176.88,-150 96.38,-150 96.38,-130 176.88,-130 176.88,-150"/>
<text text-anchor="middle" x="136.62" y="-136.5" font-family="Helvetica,sans-Serif" font-size="10.00">FMTlogger.hpp</text>
</a>
</g>
</g>
<!-- Node2&#45;&gt;Node3 -->
<g id="edge2_Node000002_Node000003" class="edge">
<title>Node2&#45;&gt;Node3</title>
<g id="a_edge2_Node000002_Node000003"><a xlink:title=" ">
<path fill="none" stroke="#63b8ff" d="M349,-191.54C305.67,-183.14 241.74,-170.06 186.62,-156 183.48,-155.2 180.23,-154.32 176.98,-153.42"/>
<polygon fill="#63b8ff" stroke="#63b8ff" points="178.23,-149.85 167.65,-150.45 176.3,-156.58 178.23,-149.85"/>
</a>
</g>
</g>
<!-- Node4 -->
<g id="Node000004" class="node">
<title>Node4</title>
<g id="a_Node000004"><a xlink:title=" ">
<polygon fill="#e0e0e0" stroke="#999999" points="614,-88 519.25,-88 519.25,-56 614,-56 614,-88"/>
<text text-anchor="start" x="527.25" y="-74.5" font-family="Helvetica,sans-Serif" font-size="10.00">boost/serialization</text>
<text text-anchor="middle" x="566.62" y="-62.5" font-family="Helvetica,sans-Serif" font-size="10.00">/export.hpp</text>
</a>
</g>
</g>
<!-- Node2&#45;&gt;Node4 -->
<g id="edge16_Node000002_Node000004" class="edge">
<title>Node2&#45;&gt;Node4</title>
<g id="a_edge16_Node000002_Node000004"><a xlink:title=" ">
<path fill="none" stroke="#63b8ff" d="M463.86,-199.38C534.43,-196.08 641.17,-186.11 666.62,-156 675.81,-145.14 674.05,-136.13 666.62,-124 656.97,-108.23 640.73,-97.15 624.12,-89.44"/>
<polygon fill="#63b8ff" stroke="#63b8ff" points="625.92,-85.97 615.34,-85.28 623.18,-92.42 625.92,-85.97"/>
</a>
</g>
</g>
<!-- Node11 -->
<g id="Node000011" class="node">
<title>Node11</title>
<g id="a_Node000011"><a xlink:title=" ">
<polygon fill="#e0e0e0" stroke="#999999" points="51.25,-20 0,-20 0,0 51.25,0 51.25,-20"/>
<text text-anchor="middle" x="25.62" y="-6.5" font-family="Helvetica,sans-Serif" font-size="10.00">memory</text>
</a>
</g>
</g>
<!-- Node2&#45;&gt;Node11 -->
<g id="edge17_Node000002_Node000011" class="edge">
<title>Node2&#45;&gt;Node11</title>
<g id="a_edge17_Node000002_Node000011"><a xlink:title=" ">
<path fill="none" stroke="#63b8ff" d="M335.38,-199.02C255.58,-195.34 125.33,-184.96 87.62,-156 47.39,-125.09 32.92,-62.94 27.99,-30.99"/>
<polygon fill="#63b8ff" stroke="#63b8ff" points="31.36,-30.78 26.54,-21.34 24.42,-31.72 31.36,-30.78"/>
</a>
</g>
</g>
<!-- Node13 -->
<g id="Node000013" class="node">
<title>Node13</title>
<g id="a_Node000013"><a xlink:title=" ">
<polygon fill="#e0e0e0" stroke="#999999" points="278,-150 195.25,-150 195.25,-130 278,-130 278,-150"/>
<text text-anchor="middle" x="236.62" y="-136.5" font-family="Helvetica,sans-Serif" font-size="10.00">unordered_map</text>
</a>
</g>
</g>
<!-- Node2&#45;&gt;Node13 -->
<g id="edge13_Node000002_Node000013" class="edge">
<title>Node2&#45;&gt;Node13</title>
<g id="a_edge13_Node000002_Node000013"><a xlink:title=" ">
<path fill="none" stroke="#63b8ff" d="M374.16,-191.62C346.84,-181.57 303.26,-165.53 272.49,-154.2"/>
<polygon fill="#63b8ff" stroke="#63b8ff" points="273.78,-150.58 263.18,-150.41 271.36,-157.15 273.78,-150.58"/>
</a>
</g>
</g>
<!-- Node14 -->
<g id="Node000014" class="node">
<title>Node14</title>
<g id="a_Node000014"><a xlink:title=" ">
<polygon fill="#e0e0e0" stroke="#999999" points="391,-156 296.25,-156 296.25,-124 391,-124 391,-156"/>
<text text-anchor="start" x="304.25" y="-142.5" font-family="Helvetica,sans-Serif" font-size="10.00">boost/serialization</text>
<text text-anchor="middle" x="343.62" y="-130.5" font-family="Helvetica,sans-Serif" font-size="10.00">/serialization.hpp</text>
</a>
</g>
</g>
<!-- Node2&#45;&gt;Node14 -->
<g id="edge14_Node000002_Node000014" class="edge">
<title>Node2&#45;&gt;Node14</title>
<g id="a_edge14_Node000002_Node000014"><a xlink:title=" ">
<path fill="none" stroke="#63b8ff" d="M390.88,-191.62C383.95,-184.21 373.99,-173.53 365,-163.9"/>
<polygon fill="#63b8ff" stroke="#63b8ff" points="368.14,-162.06 358.76,-157.14 363.02,-166.84 368.14,-162.06"/>
</a>
</g>
</g>
<!-- Node15 -->
<g id="Node000015" class="node">
<title>Node15</title>
<g id="a_Node000015"><a xlink:title=" ">
<polygon fill="#e0e0e0" stroke="#999999" points="504,-156 409.25,-156 409.25,-124 504,-124 504,-156"/>
<text text-anchor="start" x="417.25" y="-142.5" font-family="Helvetica,sans-Serif" font-size="10.00">boost/serialization</text>
<text text-anchor="middle" x="456.62" y="-130.5" font-family="Helvetica,sans-Serif" font-size="10.00">/nvp.hpp</text>
</a>
</g>
</g>
<!-- Node2&#45;&gt;Node15 -->
<g id="edge15_Node000002_Node000015" class="edge">
<title>Node2&#45;&gt;Node15</title>
<g id="a_edge15_Node000002_Node000015"><a xlink:title=" ">
<path fill="none" stroke="#63b8ff" d="M408.53,-191.62C415.58,-184.21 425.72,-173.53 434.87,-163.9"/>
<polygon fill="#63b8ff" stroke="#63b8ff" points="436.89,-166.8 441.24,-157.14 431.82,-161.98 436.89,-166.8"/>
</a>
</g>
</g>
<!-- Node16 -->
<g id="Node000016" class="node">
<title>Node16</title>
<g id="a_Node000016"><a xlink:title=" ">
<polygon fill="#e0e0e0" stroke="#999999" points="551.38,-150 521.88,-150 521.88,-130 551.38,-130 551.38,-150"/>
<text text-anchor="middle" x="536.62" y="-136.5" font-family="Helvetica,sans-Serif" font-size="10.00">set</text>
</a>
</g>
</g>
<!-- Node2&#45;&gt;Node16 -->
<g id="edge18_Node000002_Node000016" class="edge">
<title>Node2&#45;&gt;Node16</title>
<g id="a_edge18_Node000002_Node000016"><a xlink:title=" ">
<path fill="none" stroke="#63b8ff" d="M427.17,-191.6C450.43,-183.3 484.37,-170.31 512.62,-156 512.73,-155.95 512.83,-155.9 512.93,-155.85"/>
<polygon fill="#63b8ff" stroke="#63b8ff" points="514.43,-158.45 521.4,-150.47 510.98,-152.36 514.43,-158.45"/>
</a>
</g>
</g>
<!-- Node17 -->
<g id="Node000017" class="node">
<title>Node17</title>
<g id="a_Node000017"><a xlink:title=" ">
<polygon fill="#e0e0e0" stroke="#999999" points="658,-150 569.25,-150 569.25,-130 658,-130 658,-150"/>
<text text-anchor="middle" x="613.62" y="-136.5" font-family="Helvetica,sans-Serif" font-size="10.00">boost/thread.hpp</text>
</a>
</g>
</g>
<!-- Node2&#45;&gt;Node17 -->
<g id="edge19_Node000002_Node000017" class="edge">
<title>Node2&#45;&gt;Node17</title>
<g id="a_edge19_Node000002_Node000017"><a xlink:title=" ">
<path fill="none" stroke="#63b8ff" d="M433.56,-191.55C466.14,-182.47 516.76,-168.34 560.62,-156 563.6,-155.16 566.67,-154.3 569.77,-153.42"/>
<polygon fill="#63b8ff" stroke="#63b8ff" points="570.6,-156.55 579.27,-150.46 568.69,-149.81 570.6,-156.55"/>
</a>
</g>
</g>
<!-- Node3&#45;&gt;Node4 -->
<g id="edge3_Node000003_Node000004" class="edge">
<title>Node3&#45;&gt;Node4</title>
<g id="a_edge3_Node000003_Node000004"><a xlink:title=" ">
<path fill="none" stroke="#63b8ff" d="M165.24,-129.57C172.19,-127.52 179.63,-125.51 186.62,-124 246.65,-111.05 417.53,-90.28 508.3,-79.68"/>
<polygon fill="#63b8ff" stroke="#63b8ff" points="508.43,-83.08 517.96,-78.44 507.62,-76.12 508.43,-83.08"/>
</a>
</g>
</g>
<!-- Node5 -->
<g id="Node000005" class="node">
<title>Node5</title>
<g id="a_Node000005"><a xlink:title=" ">
<polygon fill="#e0e0e0" stroke="#999999" points="418.25,-88 307,-88 307,-56 418.25,-56 418.25,-88"/>
<text text-anchor="start" x="315" y="-74.5" font-family="Helvetica,sans-Serif" font-size="10.00">boost/thread/recursive</text>
<text text-anchor="middle" x="362.62" y="-62.5" font-family="Helvetica,sans-Serif" font-size="10.00">_mutex.hpp</text>
</a>
</g>
</g>
<!-- Node3&#45;&gt;Node5 -->
<g id="edge4_Node000003_Node000005" class="edge">
<title>Node3&#45;&gt;Node5</title>
<g id="a_edge4_Node000003_Node000005"><a xlink:title=" ">
<path fill="none" stroke="#63b8ff" d="M168.08,-129.51C174.23,-127.67 180.63,-125.77 186.62,-124 223.52,-113.12 264.83,-101.14 298.14,-91.53"/>
<polygon fill="#63b8ff" stroke="#63b8ff" points="299.03,-94.63 307.67,-88.49 297.09,-87.9 299.03,-94.63"/>
</a>
</g>
</g>
<!-- Node6 -->
<g id="Node000006" class="node">
<title>Node6</title>
<g id="a_Node000006"><a xlink:title=" ">
<polygon fill="#e0e0e0" stroke="#999999" points="288.75,-82 240.5,-82 240.5,-62 288.75,-62 288.75,-82"/>
<text text-anchor="middle" x="264.62" y="-68.5" font-family="Helvetica,sans-Serif" font-size="10.00">fstream</text>
</a>
</g>
</g>
<!-- Node3&#45;&gt;Node6 -->
<g id="edge5_Node000003_Node000006" class="edge">
<title>Node3&#45;&gt;Node6</title>
<g id="a_edge5_Node000003_Node000006"><a xlink:title=" ">
<path fill="none" stroke="#63b8ff" d="M154.96,-129.54C176.35,-118.52 211.93,-100.17 236.74,-87.38"/>
<polygon fill="#63b8ff" stroke="#63b8ff" points="238.04,-90.13 245.32,-82.44 234.83,-83.91 238.04,-90.13"/>
</a>
</g>
</g>
<!-- Node3&#45;&gt;Node7 -->
<g id="edge6_Node000003_Node000007" class="edge">
<title>Node3&#45;&gt;Node7</title>
<g id="a_edge6_Node000003_Node000007"><a xlink:title=" ">
<path fill="none" stroke="#63b8ff" d="M146.95,-129.67C169.6,-109.23 222.39,-61.88 231.62,-56 254.15,-41.66 282.02,-29.71 302.93,-21.74"/>
<polygon fill="#63b8ff" stroke="#63b8ff" points="304.01,-24.7 312.17,-17.94 301.57,-18.13 304.01,-24.7"/>
</a>
</g>
</g>
<!-- Node3&#45;&gt;Node8 -->
<g id="edge7_Node000003_Node000008" class="edge">
<title>Node3&#45;&gt;Node8</title>
<g id="a_edge7_Node000003_Node000008"><a xlink:title=" ">
<path fill="none" stroke="#63b8ff" d="M136.62,-129.54C136.62,-120.13 136.62,-105.39 136.62,-93.32"/>
<polygon fill="#63b8ff" stroke="#63b8ff" points="140.13,-93.44 136.62,-83.44 133.13,-93.44 140.13,-93.44"/>
</a>
</g>
</g>
<!-- Node8&#45;&gt;Node7 -->
<g id="edge9_Node000008_Node000007" class="edge">
<title>Node8&#45;&gt;Node7</title>
<g id="a_edge9_Node000008_Node000007"><a xlink:title=" ">
<path fill="none" stroke="#63b8ff" d="M167.92,-61.56C199.62,-51.99 250.36,-36.63 303.13,-20.45"/>
<polygon fill="#63b8ff" stroke="#63b8ff" points="303.82,-23.59 312.35,-17.31 301.76,-16.9 303.82,-23.59"/>
</a>
</g>
</g>
<!-- Node9 -->
<g id="Node000009" class="node">
<title>Node9</title>
<g id="a_Node000009"><a xlink:title=" ">
<polygon fill="#e0e0e0" stroke="#999999" points="127.62,-20 69.62,-20 69.62,0 127.62,0 127.62,-20"/>
<text text-anchor="middle" x="98.62" y="-6.5" font-family="Helvetica,sans-Serif" font-size="10.00">exception</text>
</a>
</g>
</g>
<!-- Node8&#45;&gt;Node9 -->
<g id="edge8_Node000008_Node000009" class="edge">
<title>Node8&#45;&gt;Node9</title>
<g id="a_edge8_Node000008_Node000009"><a xlink:title=" ">
<path fill="none" stroke="#63b8ff" d="M130.69,-61.62C125.19,-52.94 116.86,-39.8 110.07,-29.08"/>
<polygon fill="#63b8ff" stroke="#63b8ff" points="112.7,-27.69 104.4,-21.11 106.79,-31.43 112.7,-27.69"/>
</a>
</g>
</g>
<!-- Node10 -->
<g id="Node000010" class="node">
<title>Node10</title>
<g id="a_Node000010"><a xlink:title=" ">
<polygon fill="#e0e0e0" stroke="#999999" points="199.38,-20 145.88,-20 145.88,0 199.38,0 199.38,-20"/>
<text text-anchor="middle" x="172.62" y="-6.5" font-family="Helvetica,sans-Serif" font-size="10.00">iostream</text>
</a>
</g>
</g>
<!-- Node8&#45;&gt;Node10 -->
<g id="edge10_Node000008_Node000010" class="edge">
<title>Node8&#45;&gt;Node10</title>
<g id="a_edge10_Node000008_Node000010"><a xlink:title=" ">
<path fill="none" stroke="#63b8ff" d="M142.25,-61.62C147.41,-53.03 155.19,-40.07 161.58,-29.41"/>
<polygon fill="#63b8ff" stroke="#63b8ff" points="165.01,-31.49 167.16,-21.11 159.01,-27.89 165.01,-31.49"/>
</a>
</g>
</g>
<!-- Node8&#45;&gt;Node11 -->
<g id="edge11_Node000008_Node000011" class="edge">
<title>Node8&#45;&gt;Node11</title>
<g id="a_edge11_Node000008_Node000011"><a xlink:title=" ">
<path fill="none" stroke="#63b8ff" d="M119.28,-61.62C101.36,-51.94 73.15,-36.69 52.37,-25.46"/>
<polygon fill="#63b8ff" stroke="#63b8ff" points="54.31,-21.99 43.85,-20.31 50.98,-28.14 54.31,-21.99"/>
</a>
</g>
</g>
<!-- Node12 -->
<g id="Node000012" class="node">
<title>Node12</title>
<g id="a_Node000012"><a xlink:href="FMTutility_8hpp.html" target="_top" xlink:title=" ">
<polygon fill="white" stroke="#666666" points="295.38,-20 217.88,-20 217.88,0 295.38,0 295.38,-20"/>
<text text-anchor="middle" x="256.62" y="-6.5" font-family="Helvetica,sans-Serif" font-size="10.00">FMTutility.hpp</text>
</a>
</g>
</g>
<!-- Node8&#45;&gt;Node12 -->
<g id="edge12_Node000008_Node000012" class="edge">
<title>Node8&#45;&gt;Node12</title>
<g id="a_edge12_Node000008_Node000012"><a xlink:title=" ">
<path fill="none" stroke="#63b8ff" d="M155.38,-61.62C174.92,-51.85 205.8,-36.41 228.32,-25.15"/>
<polygon fill="#63b8ff" stroke="#63b8ff" points="229.63,-27.91 237.01,-20.31 226.5,-21.65 229.63,-27.91"/>
</a>
</g>
</g>
</g>
</svg>
