<?xml version="1.0" encoding="UTF-8" standalone="no"?>
<!DOCTYPE svg PUBLIC "-//W3C//DTD SVG 1.1//EN"
 "http://www.w3.org/Graphics/SVG/1.1/DTD/svg11.dtd">
<!-- Generated by graphviz version 10.0.1 (20240210.2158)
 -->
<!-- Title: D:/FMT/Include/FMTData.h Pages: 1 -->
<!--zoomable 152 -->
<svg id="main" version="1.1" xmlns="http://www.w3.org/2000/svg" xmlns:xlink="http://www.w3.org/1999/xlink" xml:space="preserve" onload="init(evt)">
<style type="text/css"><![CDATA[
.edge:hover path { stroke: red; }
.edge:hover polygon { stroke: red; fill: red; }
]]></style>
<script type="text/javascript"><![CDATA[
var edges = document.getElementsByTagName('g');
if (edges && edges.length) {
  for (var i=0;i<edges.length;i++) {
    if (edges[i].id.substr(0,4)=='edge') {
      edges[i].setAttribute('class','edge');
    }
  }
}
]]></script>
        <defs>
                <circle id="rim" cx="0" cy="0" r="7"/>
                <circle id="rim2" cx="0" cy="0" r="3.5"/>
                <g id="zoomPlus">
                        <use xlink:href="#rim" fill="#404040">
                                <set attributeName="fill" to="#808080" begin="zoomplus.mouseover" end="zoomplus.mouseout"/>
                        </use>
                        <path d="M-4,0h8M0,-4v8" fill="none" stroke="white" stroke-width="1.5" pointer-events="none"/>
                </g>
                <g id="zoomMin">
                        <use xlink:href="#rim" fill="#404040">
                                <set attributeName="fill" to="#808080" begin="zoomminus.mouseover" end="zoomminus.mouseout"/>
                        </use>
                        <path d="M-4,0h8" fill="none" stroke="white" stroke-width="1.5" pointer-events="none"/>
                </g>
                <g id="dirArrow">
                        <path fill="none" stroke="white" stroke-width="1.5" d="M0,-3.0v7 M-2.5,-0.5L0,-3.0L2.5,-0.5"/>
                </g>
               <g id="resetDef">
                       <use xlink:href="#rim2" fill="#404040">
                               <set attributeName="fill" to="#808080" begin="reset.mouseover" end="reset.mouseout"/>
                       </use>
               </g>
        </defs>

<script type="text/javascript">
var viewWidth = 595;
var viewHeight = 152;
var sectionId = 'dynsection-1';
</script>
<script xlink:href="svgpan.js"/>
<svg id="graph" class="graph">
<g id="viewport">
<title>D:/FMT/Include/FMTData.h</title>
<!-- Node1 -->
<g id="node1" class="node">
<title>Node1</title>
<g id="a_node1"><a xlink:title=" ">
<polygon fill="#999999" stroke="#666666" points="431.75,-144 298.75,-144 298.75,-124 431.75,-124 431.75,-144"/>
<text text-anchor="middle" x="365.25" y="-130.5" font-family="Helvetica,sans-Serif" font-size="10.00">D:/FMT/Include/FMTData.h</text>
</a>
</g>
</g>
<!-- Node2 -->
<g id="node2" class="node">
<title>Node2</title>
<g id="a_node2"><a xlink:href="FMTAgeYieldHandler_8h.html" target="_top" xlink:title=" ">
<polygon fill="white" stroke="#666666" points="223,-88 79.5,-88 79.5,-56 223,-56 223,-88"/>
<text text-anchor="start" x="87.5" y="-74.5" font-family="Helvetica,sans-Serif" font-size="10.00">D:/FMT/Include/FMTAgeYield</text>
<text text-anchor="middle" x="151.25" y="-62.5" font-family="Helvetica,sans-Serif" font-size="10.00">Handler.h</text>
</a>
</g>
</g>
<!-- Node1&#45;&gt;Node2 -->
<g id="edge1" class="edge">
<title>Node1&#45;&gt;Node2</title>
<path fill="none" stroke="#63b8ff" d="M321.06,-120.61C287.85,-111.3 242.13,-98.48 206.5,-88.49"/>
<polygon fill="#63b8ff" stroke="#63b8ff" points="319.78,-123.89 330.36,-123.22 321.67,-117.15 319.78,-123.89"/>
</g>
<!-- Node5 -->
<g id="node5" class="node">
<title>Node5</title>
<g id="a_node5"><a xlink:href="RexportCore_8h.html" target="_top" xlink:title=" ">
<polygon fill="white" stroke="#666666" points="489.88,-20 342.62,-20 342.62,0 489.88,0 489.88,-20"/>
<text text-anchor="middle" x="416.25" y="-6.5" font-family="Helvetica,sans-Serif" font-size="10.00">D:/FMT/Include/RexportCore.h</text>
</a>
</g>
</g>
<!-- Node1&#45;&gt;Node5 -->
<g id="edge10" class="edge">
<title>Node1&#45;&gt;Node5</title>
<path fill="none" stroke="#63b8ff" d="M380.6,-114.77C386.53,-106.94 392.92,-97.44 397.25,-88 407.81,-64.97 413.01,-35.27 415.09,-20.38"/>
<polygon fill="#63b8ff" stroke="#63b8ff" points="377.95,-112.47 374.45,-122.47 383.43,-116.83 377.95,-112.47"/>
</g>
<!-- Node6 -->
<g id="node6" class="node">
<title>Node6</title>
<g id="a_node6"><a xlink:href="FMTComplexYieldHandler_8h.html" target="_top" xlink:title=" ">
<polygon fill="white" stroke="#666666" points="586.62,-88 443.88,-88 443.88,-56 586.62,-56 586.62,-88"/>
<text text-anchor="start" x="451.88" y="-74.5" font-family="Helvetica,sans-Serif" font-size="10.00">D:/FMT/Include/FMTComplex</text>
<text text-anchor="middle" x="515.25" y="-62.5" font-family="Helvetica,sans-Serif" font-size="10.00">YieldHandler.h</text>
</a>
</g>
</g>
<!-- Node1&#45;&gt;Node6 -->
<g id="edge5" class="edge">
<title>Node1&#45;&gt;Node6</title>
<path fill="none" stroke="#63b8ff" d="M399.31,-119.38C422.28,-110.19 452.63,-98.05 476.52,-88.49"/>
<polygon fill="#63b8ff" stroke="#63b8ff" points="398.08,-116.1 390.09,-123.06 400.68,-122.6 398.08,-116.1"/>
</g>
<!-- Node7 -->
<g id="node7" class="node">
<title>Node7</title>
<g id="a_node7"><a xlink:href="FMTTimeYieldHandler_8h.html" target="_top" xlink:title=" ">
<polygon fill="white" stroke="#666666" points="387.88,-88 240.62,-88 240.62,-56 387.88,-56 387.88,-88"/>
<text text-anchor="start" x="248.62" y="-74.5" font-family="Helvetica,sans-Serif" font-size="10.00">D:/FMT/Include/FMTTimeYield</text>
<text text-anchor="middle" x="314.25" y="-62.5" font-family="Helvetica,sans-Serif" font-size="10.00">Handler.h</text>
</a>
</g>
</g>
<!-- Node1&#45;&gt;Node7 -->
<g id="edge6" class="edge">
<title>Node1&#45;&gt;Node7</title>
<path fill="none" stroke="#63b8ff" d="M350.03,-115.1C342.74,-106.51 334.09,-96.34 327.12,-88.14"/>
<polygon fill="#63b8ff" stroke="#63b8ff" points="347.16,-117.12 356.3,-122.47 352.49,-112.59 347.16,-117.12"/>
</g>
<!-- Node3 -->
<g id="node3" class="node">
<title>Node3</title>
<g id="a_node3"><a xlink:href="PYexportCore_8h.html" target="_top" xlink:title=" ">
<polygon fill="white" stroke="#666666" points="324.25,-20 170.25,-20 170.25,0 324.25,0 324.25,-20"/>
<text text-anchor="middle" x="247.25" y="-6.5" font-family="Helvetica,sans-Serif" font-size="10.00">D:/FMT/Include/PYexportCore.h</text>
</a>
</g>
</g>
<!-- Node2&#45;&gt;Node3 -->
<g id="edge2" class="edge">
<title>Node2&#45;&gt;Node3</title>
<path fill="none" stroke="#63b8ff" d="M185.57,-49.55C201.55,-39.56 219.73,-28.2 232.2,-20.41"/>
<polygon fill="#63b8ff" stroke="#63b8ff" points="183.88,-46.48 177.26,-54.75 187.59,-52.41 183.88,-46.48"/>
</g>
<!-- Node4 -->
<g id="node4" class="node">
<title>Node4</title>
<g id="a_node4"><a xlink:href="Rdeclarations_8h.html" target="_top" xlink:title=" ">
<polygon fill="white" stroke="#666666" points="152.5,-20 0,-20 0,0 152.5,0 152.5,-20"/>
<text text-anchor="middle" x="76.25" y="-6.5" font-family="Helvetica,sans-Serif" font-size="10.00">D:/FMT/Include/Rdeclarations.h</text>
</a>
</g>
</g>
<!-- Node2&#45;&gt;Node4 -->
<g id="edge3" class="edge">
<title>Node2&#45;&gt;Node4</title>
<path fill="none" stroke="#63b8ff" d="M123.02,-48.42C110.89,-38.71 97.38,-27.9 88.01,-20.41"/>
<polygon fill="#63b8ff" stroke="#63b8ff" points="120.76,-51.09 130.75,-54.6 125.13,-45.62 120.76,-51.09"/>
</g>
<!-- Node2&#45;&gt;Node5 -->
<g id="edge4" class="edge">
<title>Node2&#45;&gt;Node5</title>
<path fill="none" stroke="#63b8ff" d="M230.63,-53.03C277.84,-42.34 335.84,-29.21 374.31,-20.5"/>
<polygon fill="#63b8ff" stroke="#63b8ff" points="229.95,-49.59 220.97,-55.21 231.5,-56.42 229.95,-49.59"/>
</g>
<!-- Node7&#45;&gt;Node3 -->
<g id="edge7" class="edge">
<title>Node7&#45;&gt;Node3</title>
<path fill="none" stroke="#63b8ff" d="M288.71,-48.13C277.96,-38.5 266.04,-27.83 257.76,-20.41"/>
<polygon fill="#63b8ff" stroke="#63b8ff" points="286.08,-50.47 295.87,-54.54 290.75,-45.26 286.08,-50.47"/>
</g>
<!-- Node7&#45;&gt;Node4 -->
<g id="edge8" class="edge">
<title>Node7&#45;&gt;Node4</title>
<path fill="none" stroke="#63b8ff" d="M241.89,-52.76C199.68,-42.12 148.18,-29.13 113.92,-20.5"/>
<polygon fill="#63b8ff" stroke="#63b8ff" points="240.94,-56.13 251.49,-55.18 242.65,-49.34 240.94,-56.13"/>
</g>
<!-- Node7&#45;&gt;Node5 -->
<g id="edge9" class="edge">
<title>Node7&#45;&gt;Node5</title>
<path fill="none" stroke="#63b8ff" d="M350.23,-49.83C367.32,-39.78 386.89,-28.27 400.26,-20.41"/>
<polygon fill="#63b8ff" stroke="#63b8ff" points="348.67,-46.69 341.82,-54.78 352.22,-52.73 348.67,-46.69"/>
</g>
</g>
</svg>
        <g id="navigator" transform="translate(0 0)" fill="#404254">
                <rect fill="#f2f5e9" fill-opacity="0.5" stroke="#606060" stroke-width=".5" x="0" y="0" width="60" height="60"/>
                <use id="zoomplus" xlink:href="#zoomPlus" x="17" y="9" onmousedown="handleZoom(evt,'in')"/>
                <use id="zoomminus" xlink:href="#zoomMin" x="42" y="9" onmousedown="handleZoom(evt,'out')"/>
                <use id="reset" xlink:href="#resetDef" x="30" y="36" onmousedown="handleReset()"/>
                <g id="arrowUp" xlink:href="#dirArrow" transform="translate(30 24)" onmousedown="handlePan(0,-1)">
                  <use xlink:href="#rim" fill="#404040">
                        <set attributeName="fill" to="#808080" begin="arrowUp.mouseover" end="arrowUp.mouseout"/>
                  </use>
                  <path fill="none" stroke="white" stroke-width="1.5" d="M0,-3.0v7 M-2.5,-0.5L0,-3.0L2.5,-0.5"/>
                </g>
                <g id="arrowRight" xlink:href="#dirArrow" transform="rotate(90) translate(36 -43)" onmousedown="handlePan(1,0)">
                  <use xlink:href="#rim" fill="#404040">
                        <set attributeName="fill" to="#808080" begin="arrowRight.mouseover" end="arrowRight.mouseout"/>
                  </use>
                  <path fill="none" stroke="white" stroke-width="1.5" d="M0,-3.0v7 M-2.5,-0.5L0,-3.0L2.5,-0.5"/>
                </g>
                <g id="arrowDown" xlink:href="#dirArrow" transform="rotate(180) translate(-30 -48)" onmousedown="handlePan(0,1)">
                  <use xlink:href="#rim" fill="#404040">
                        <set attributeName="fill" to="#808080" begin="arrowDown.mouseover" end="arrowDown.mouseout"/>
                  </use>
                  <path fill="none" stroke="white" stroke-width="1.5" d="M0,-3.0v7 M-2.5,-0.5L0,-3.0L2.5,-0.5"/>
                </g>
                <g id="arrowLeft" xlink:href="#dirArrow" transform="rotate(270) translate(-36 17)" onmousedown="handlePan(-1,0)">
                  <use xlink:href="#rim" fill="#404040">
                        <set attributeName="fill" to="#808080" begin="arrowLeft.mouseover" end="arrowLeft.mouseout"/>
                  </use>
                  <path fill="none" stroke="white" stroke-width="1.5" d="M0,-3.0v7 M-2.5,-0.5L0,-3.0L2.5,-0.5"/>
                </g>
        </g>
        <svg viewBox="0 0 15 15" width="100%" height="30px" preserveAspectRatio="xMaxYMin meet">
         <g id="arrow_out" transform="scale(0.3 0.3)">
          <a xlink:href="FMTData_8h__dep__incl_org.svg" target="_base">
           <rect id="button" ry="5" rx="5" y="6" x="6" height="38" width="38"
                fill="#f2f5e9" fill-opacity="0.5" stroke="#606060" stroke-width="1.0"/>
           <path id="arrow"
             d="M 11.500037,31.436501 C 11.940474,20.09759 22.043105,11.32322 32.158766,21.979434 L 37.068811,17.246167 C 37.068811,17.246167 37.088388,32 37.088388,32 L 22.160133,31.978069 C 22.160133,31.978069 26.997745,27.140456 26.997745,27.140456 C 18.528582,18.264221 13.291696,25.230495 11.500037,31.436501 z"
             style="fill:#404040;"/>
          </a>
         </g>
        </svg>
</svg>
