<?xml version="1.0" encoding="UTF-8" standalone="no"?>
<!DOCTYPE svg PUBLIC "-//W3C//DTD SVG 1.1//EN"
 "http://www.w3.org/Graphics/SVG/1.1/DTD/svg11.dtd">
<!-- Generated by graphviz version 10.0.1 (20240210.2158)
 -->
<!-- Title: D:/FMT/Include/FMTData.h Pages: 1 -->
<svg width="972pt" height="152pt"
 viewBox="0.00 0.00 972.38 152.00" xmlns="http://www.w3.org/2000/svg" xmlns:xlink="http://www.w3.org/1999/xlink">
<g id="graph0" class="graph" transform="scale(1 1) rotate(0) translate(4 148)">
<title>D:/FMT/Include/FMTData.h</title>
<!-- Node1 -->
<g id="node1" class="node">
<title>Node1</title>
<g id="a_node1"><a xlink:title=" ">
<polygon fill="#999999" stroke="#666666" points="462.25,-144 329.25,-144 329.25,-124 462.25,-124 462.25,-144"/>
<text text-anchor="middle" x="395.75" y="-130.5" font-family="Helvetica,sans-Serif" font-size="10.00">D:/FMT/Include/FMTData.h</text>
</a>
</g>
</g>
<!-- Node2 -->
<g id="node2" class="node">
<title>Node2</title>
<g id="a_node2"><a xlink:title=" ">
<polygon fill="#e0e0e0" stroke="#999999" points="41.5,-82 0,-82 0,-62 41.5,-62 41.5,-82"/>
<text text-anchor="middle" x="20.75" y="-68.5" font-family="Helvetica,sans-Serif" font-size="10.00">vector</text>
</a>
</g>
</g>
<!-- Node1&#45;&gt;Node2 -->
<g id="edge1" class="edge">
<title>Node1&#45;&gt;Node2</title>
<path fill="none" stroke="#63b8ff" d="M328.87,-129.55C259.52,-124.73 148.47,-113.49 55.75,-88 53.95,-87.51 52.13,-86.94 50.3,-86.32"/>
<polygon fill="#63b8ff" stroke="#63b8ff" points="52.04,-83.24 41.45,-82.92 49.53,-89.77 52.04,-83.24"/>
</g>
<!-- Node3 -->
<g id="node3" class="node">
<title>Node3</title>
<g id="a_node3"><a xlink:title=" ">
<polygon fill="#e0e0e0" stroke="#999999" points="146.75,-20 106.75,-20 106.75,0 146.75,0 146.75,-20"/>
<text text-anchor="middle" x="126.75" y="-6.5" font-family="Helvetica,sans-Serif" font-size="10.00">string</text>
</a>
</g>
</g>
<!-- Node1&#45;&gt;Node3 -->
<g id="edge2" class="edge">
<title>Node1&#45;&gt;Node3</title>
<path fill="none" stroke="#63b8ff" d="M328.77,-132.98C247.96,-131.37 119.13,-123.15 88.75,-88 73.31,-70.13 91.52,-44.9 107.66,-28.25"/>
<polygon fill="#63b8ff" stroke="#63b8ff" points="109.9,-30.95 114.63,-21.47 105.02,-25.94 109.9,-30.95"/>
</g>
<!-- Node4 -->
<g id="node4" class="node">
<title>Node4</title>
<g id="a_node4"><a xlink:title=" ">
<polygon fill="#e0e0e0" stroke="#999999" points="132.12,-82 97.38,-82 97.38,-62 132.12,-62 132.12,-82"/>
<text text-anchor="middle" x="114.75" y="-68.5" font-family="Helvetica,sans-Serif" font-size="10.00">map</text>
</a>
</g>
</g>
<!-- Node1&#45;&gt;Node4 -->
<g id="edge3" class="edge">
<title>Node1&#45;&gt;Node4</title>
<path fill="none" stroke="#63b8ff" d="M328.95,-127.27C276.81,-121.36 203.15,-109.81 141.75,-88 141.12,-87.78 140.48,-87.54 139.85,-87.29"/>
<polygon fill="#63b8ff" stroke="#63b8ff" points="141.66,-84.27 131.12,-83.14 138.65,-90.59 141.66,-84.27"/>
</g>
<!-- Node5 -->
<g id="node5" class="node">
<title>Node5</title>
<g id="a_node5"><a xlink:href="FMTutility_8h.html" target="_top" xlink:title=" ">
<polygon fill="white" stroke="#666666" points="217.25,-82 150.25,-82 150.25,-62 217.25,-62 217.25,-82"/>
<text text-anchor="middle" x="183.75" y="-68.5" font-family="Helvetica,sans-Serif" font-size="10.00">FMTutility.h</text>
</a>
</g>
</g>
<!-- Node1&#45;&gt;Node5 -->
<g id="edge4" class="edge">
<title>Node1&#45;&gt;Node5</title>
<path fill="none" stroke="#63b8ff" d="M356.92,-123.55C322.51,-114.96 271.01,-101.59 226.75,-88 224.65,-87.36 222.5,-86.68 220.34,-85.97"/>
<polygon fill="#63b8ff" stroke="#63b8ff" points="221.6,-82.7 211,-82.84 219.37,-89.34 221.6,-82.7"/>
</g>
<!-- Node6 -->
<g id="node6" class="node">
<title>Node6</title>
<g id="a_node6"><a xlink:title=" ">
<polygon fill="#e0e0e0" stroke="#999999" points="330.12,-88 235.38,-88 235.38,-56 330.12,-56 330.12,-88"/>
<text text-anchor="start" x="243.38" y="-74.5" font-family="Helvetica,sans-Serif" font-size="10.00">boost/serialization</text>
<text text-anchor="middle" x="282.75" y="-62.5" font-family="Helvetica,sans-Serif" font-size="10.00">/serialization.hpp</text>
</a>
</g>
</g>
<!-- Node1&#45;&gt;Node6 -->
<g id="edge6" class="edge">
<title>Node1&#45;&gt;Node6</title>
<path fill="none" stroke="#63b8ff" d="M378.09,-123.62C363.05,-115.63 340.87,-103.86 321.69,-93.68"/>
<polygon fill="#63b8ff" stroke="#63b8ff" points="323.51,-90.68 313.04,-89.08 320.23,-96.86 323.51,-90.68"/>
</g>
<!-- Node7 -->
<g id="node7" class="node">
<title>Node7</title>
<g id="a_node7"><a xlink:title=" ">
<polygon fill="#e0e0e0" stroke="#999999" points="443.12,-88 348.38,-88 348.38,-56 443.12,-56 443.12,-88"/>
<text text-anchor="start" x="356.38" y="-74.5" font-family="Helvetica,sans-Serif" font-size="10.00">boost/serialization</text>
<text text-anchor="middle" x="395.75" y="-62.5" font-family="Helvetica,sans-Serif" font-size="10.00">/nvp.hpp</text>
</a>
</g>
</g>
<!-- Node1&#45;&gt;Node7 -->
<g id="edge7" class="edge">
<title>Node1&#45;&gt;Node7</title>
<path fill="none" stroke="#63b8ff" d="M395.75,-123.62C395.75,-117.1 395.75,-108.05 395.75,-99.4"/>
<polygon fill="#63b8ff" stroke="#63b8ff" points="399.25,-99.65 395.75,-89.65 392.25,-99.65 399.25,-99.65"/>
</g>
<!-- Node8 -->
<g id="node8" class="node">
<title>Node8</title>
<g id="a_node8"><a xlink:title=" ">
<polygon fill="#e0e0e0" stroke="#999999" points="556.12,-88 461.38,-88 461.38,-56 556.12,-56 556.12,-88"/>
<text text-anchor="start" x="469.38" y="-74.5" font-family="Helvetica,sans-Serif" font-size="10.00">boost/serialization</text>
<text text-anchor="middle" x="508.75" y="-62.5" font-family="Helvetica,sans-Serif" font-size="10.00">/map.hpp</text>
</a>
</g>
</g>
<!-- Node1&#45;&gt;Node8 -->
<g id="edge8" class="edge">
<title>Node1&#45;&gt;Node8</title>
<path fill="none" stroke="#63b8ff" d="M413.41,-123.62C428.45,-115.63 450.63,-103.86 469.81,-93.68"/>
<polygon fill="#63b8ff" stroke="#63b8ff" points="471.27,-96.86 478.46,-89.08 467.99,-90.68 471.27,-96.86"/>
</g>
<!-- Node9 -->
<g id="node9" class="node">
<title>Node9</title>
<g id="a_node9"><a xlink:title=" ">
<polygon fill="#e0e0e0" stroke="#999999" points="669.12,-88 574.38,-88 574.38,-56 669.12,-56 669.12,-88"/>
<text text-anchor="start" x="582.38" y="-74.5" font-family="Helvetica,sans-Serif" font-size="10.00">boost/serialization</text>
<text text-anchor="middle" x="621.75" y="-62.5" font-family="Helvetica,sans-Serif" font-size="10.00">/vector.hpp</text>
</a>
</g>
</g>
<!-- Node1&#45;&gt;Node9 -->
<g id="edge9" class="edge">
<title>Node1&#45;&gt;Node9</title>
<path fill="none" stroke="#63b8ff" d="M431.31,-123.56C466.68,-114.17 521.57,-99.6 563.34,-88.51"/>
<polygon fill="#63b8ff" stroke="#63b8ff" points="563.98,-91.96 572.74,-86.01 562.18,-85.19 563.98,-91.96"/>
</g>
<!-- Node10 -->
<g id="node10" class="node">
<title>Node10</title>
<g id="a_node10"><a xlink:title=" ">
<polygon fill="#e0e0e0" stroke="#999999" points="782.5,-88 687,-88 687,-56 782.5,-56 782.5,-88"/>
<text text-anchor="start" x="695" y="-74.5" font-family="Helvetica,sans-Serif" font-size="10.00">boost/serialization</text>
<text text-anchor="middle" x="734.75" y="-62.5" font-family="Helvetica,sans-Serif" font-size="10.00">/binary_object.hpp</text>
</a>
</g>
</g>
<!-- Node1&#45;&gt;Node10 -->
<g id="edge10" class="edge">
<title>Node1&#45;&gt;Node10</title>
<path fill="none" stroke="#63b8ff" d="M462.47,-124.25C517.25,-116.64 597.06,-104.56 675.56,-88.34"/>
<polygon fill="#63b8ff" stroke="#63b8ff" points="676.08,-91.81 685.15,-86.33 674.64,-84.96 676.08,-91.81"/>
</g>
<!-- Node11 -->
<g id="node11" class="node">
<title>Node11</title>
<g id="a_node11"><a xlink:title=" ">
<polygon fill="#e0e0e0" stroke="#999999" points="895.12,-88 800.38,-88 800.38,-56 895.12,-56 895.12,-88"/>
<text text-anchor="start" x="808.38" y="-74.5" font-family="Helvetica,sans-Serif" font-size="10.00">boost/serialization</text>
<text text-anchor="middle" x="847.75" y="-62.5" font-family="Helvetica,sans-Serif" font-size="10.00">/export.hpp</text>
</a>
</g>
</g>
<!-- Node1&#45;&gt;Node11 -->
<g id="edge11" class="edge">
<title>Node1&#45;&gt;Node11</title>
<path fill="none" stroke="#63b8ff" d="M462.42,-128.46C539.09,-122.57 668.88,-110.52 788.71,-88.42"/>
<polygon fill="#63b8ff" stroke="#63b8ff" points="789.23,-91.88 798.41,-86.6 787.94,-85 789.23,-91.88"/>
</g>
<!-- Node12 -->
<g id="node12" class="node">
<title>Node12</title>
<g id="a_node12"><a xlink:title=" ">
<polygon fill="#e0e0e0" stroke="#999999" points="964.38,-82 913.12,-82 913.12,-62 964.38,-62 964.38,-82"/>
<text text-anchor="middle" x="938.75" y="-68.5" font-family="Helvetica,sans-Serif" font-size="10.00">memory</text>
</a>
</g>
</g>
<!-- Node1&#45;&gt;Node12 -->
<g id="edge12" class="edge">
<title>Node1&#45;&gt;Node12</title>
<path fill="none" stroke="#63b8ff" d="M462.62,-133.74C560.84,-133.35 749.2,-126.91 903.75,-88 905.6,-87.53 907.48,-86.98 909.36,-86.37"/>
<polygon fill="#63b8ff" stroke="#63b8ff" points="910.35,-89.74 918.46,-82.92 907.87,-83.19 910.35,-89.74"/>
</g>
<!-- Node5&#45;&gt;Node3 -->
<g id="edge5" class="edge">
<title>Node5&#45;&gt;Node3</title>
<path fill="none" stroke="#63b8ff" d="M174.84,-61.62C166.43,-52.77 153.6,-39.26 143.3,-28.43"/>
<polygon fill="#63b8ff" stroke="#63b8ff" points="145.87,-26.05 136.45,-21.21 140.8,-30.87 145.87,-26.05"/>
</g>
</g>
</svg>
