<?xml version="1.0" encoding="UTF-8" standalone="no"?>
<!DOCTYPE svg PUBLIC "-//W3C//DTD SVG 1.1//EN"
 "http://www.w3.org/Graphics/SVG/1.1/DTD/svg11.dtd">
<!-- Generated by graphviz version 10.0.1 (20240210.2158)
 -->
<!-- Title: D:/FMT/Include/FMTdefaultlogger.hpp Pages: 1 -->
<!--zoomable 220 -->
<svg id="main" version="1.1" xmlns="http://www.w3.org/2000/svg" xmlns:xlink="http://www.w3.org/1999/xlink" xml:space="preserve" onload="init(evt)">
<style type="text/css"><![CDATA[
.edge:hover path { stroke: red; }
.edge:hover polygon { stroke: red; fill: red; }
]]></style>
<script type="text/javascript"><![CDATA[
var edges = document.getElementsByTagName('g');
if (edges && edges.length) {
  for (var i=0;i<edges.length;i++) {
    if (edges[i].id.substr(0,4)=='edge') {
      edges[i].setAttribute('class','edge');
    }
  }
}
]]></script>
        <defs>
                <circle id="rim" cx="0" cy="0" r="7"/>
                <circle id="rim2" cx="0" cy="0" r="3.5"/>
                <g id="zoomPlus">
                        <use xlink:href="#rim" fill="#404040">
                                <set attributeName="fill" to="#808080" begin="zoomplus.mouseover" end="zoomplus.mouseout"/>
                        </use>
                        <path d="M-4,0h8M0,-4v8" fill="none" stroke="white" stroke-width="1.5" pointer-events="none"/>
                </g>
                <g id="zoomMin">
                        <use xlink:href="#rim" fill="#404040">
                                <set attributeName="fill" to="#808080" begin="zoomminus.mouseover" end="zoomminus.mouseout"/>
                        </use>
                        <path d="M-4,0h8" fill="none" stroke="white" stroke-width="1.5" pointer-events="none"/>
                </g>
                <g id="dirArrow">
                        <path fill="none" stroke="white" stroke-width="1.5" d="M0,-3.0v7 M-2.5,-0.5L0,-3.0L2.5,-0.5"/>
                </g>
               <g id="resetDef">
                       <use xlink:href="#rim2" fill="#404040">
                               <set attributeName="fill" to="#808080" begin="reset.mouseover" end="reset.mouseout"/>
                       </use>
               </g>
        </defs>

<script type="text/javascript">
var viewWidth = 641;
var viewHeight = 220;
var sectionId = 'dynsection-0';
</script>
<script xlink:href="svgpan.js"/>
<svg id="graph" class="graph">
<g id="viewport">
<title>D:/FMT/Include/FMTdefaultlogger.hpp</title>
<!-- Node1 -->
<g id="node1" class="node">
<title>Node1</title>
<g id="a_node1"><a xlink:title=" ">
<polygon fill="#999999" stroke="#666666" points="408.38,-212 230.38,-212 230.38,-192 408.38,-192 408.38,-212"/>
<text text-anchor="middle" x="319.38" y="-198.5" font-family="Helvetica,sans-Serif" font-size="10.00">D:/FMT/Include/FMTdefaultlogger.hpp</text>
</a>
</g>
</g>
<!-- Node2 -->
<g id="node2" class="node">
<title>Node2</title>
<g id="a_node2"><a xlink:href="FMTlogger_8hpp.html" target="_top" xlink:title=" ">
<polygon fill="white" stroke="#666666" points="306.62,-150 226.12,-150 226.12,-130 306.62,-130 306.62,-150"/>
<text text-anchor="middle" x="266.38" y="-136.5" font-family="Helvetica,sans-Serif" font-size="10.00">FMTlogger.hpp</text>
</a>
</g>
</g>
<!-- Node1&#45;&gt;Node2 -->
<g id="edge1" class="edge">
<title>Node1&#45;&gt;Node2</title>
<path fill="none" stroke="#63b8ff" d="M311.09,-191.62C303.27,-182.77 291.34,-169.26 281.77,-158.43"/>
<polygon fill="#63b8ff" stroke="#63b8ff" points="284.67,-156.42 275.43,-151.25 279.42,-161.06 284.67,-156.42"/>
</g>
<!-- Node12 -->
<g id="node12" class="node">
<title>Node12</title>
<g id="a_node12"><a xlink:title=" ">
<polygon fill="#e0e0e0" stroke="#999999" points="419.75,-156 325,-156 325,-124 419.75,-124 419.75,-156"/>
<text text-anchor="start" x="333" y="-142.5" font-family="Helvetica,sans-Serif" font-size="10.00">boost/serialization</text>
<text text-anchor="middle" x="372.38" y="-130.5" font-family="Helvetica,sans-Serif" font-size="10.00">/nvp.hpp</text>
</a>
</g>
</g>
<!-- Node1&#45;&gt;Node12 -->
<g id="edge12" class="edge">
<title>Node1&#45;&gt;Node12</title>
<path fill="none" stroke="#63b8ff" d="M327.66,-191.62C334.01,-184.43 343.07,-174.17 351.38,-164.77"/>
<polygon fill="#63b8ff" stroke="#63b8ff" points="354,-167.09 358,-157.27 348.76,-162.45 354,-167.09"/>
</g>
<!-- Node3 -->
<g id="node3" class="node">
<title>Node3</title>
<g id="a_node3"><a xlink:title=" ">
<polygon fill="#e0e0e0" stroke="#999999" points="94.75,-88 0,-88 0,-56 94.75,-56 94.75,-88"/>
<text text-anchor="start" x="8" y="-74.5" font-family="Helvetica,sans-Serif" font-size="10.00">boost/serialization</text>
<text text-anchor="middle" x="47.38" y="-62.5" font-family="Helvetica,sans-Serif" font-size="10.00">/export.hpp</text>
</a>
</g>
</g>
<!-- Node2&#45;&gt;Node3 -->
<g id="edge2" class="edge">
<title>Node2&#45;&gt;Node3</title>
<path fill="none" stroke="#63b8ff" d="M235,-129.54C201.45,-119.43 147.49,-103.17 106.03,-90.68"/>
<polygon fill="#63b8ff" stroke="#63b8ff" points="107.27,-87.39 96.68,-87.86 105.25,-94.1 107.27,-87.39"/>
</g>
<!-- Node4 -->
<g id="node4" class="node">
<title>Node4</title>
<g id="a_node4"><a xlink:title=" ">
<polygon fill="#e0e0e0" stroke="#999999" points="224,-88 112.75,-88 112.75,-56 224,-56 224,-88"/>
<text text-anchor="start" x="120.75" y="-74.5" font-family="Helvetica,sans-Serif" font-size="10.00">boost/thread/recursive</text>
<text text-anchor="middle" x="168.38" y="-62.5" font-family="Helvetica,sans-Serif" font-size="10.00">_mutex.hpp</text>
</a>
</g>
</g>
<!-- Node2&#45;&gt;Node4 -->
<g id="edge3" class="edge">
<title>Node2&#45;&gt;Node4</title>
<path fill="none" stroke="#63b8ff" d="M252.33,-129.54C238.85,-120.46 217.99,-106.41 200.44,-94.59"/>
<polygon fill="#63b8ff" stroke="#63b8ff" points="202.6,-91.83 192.35,-89.15 198.69,-97.64 202.6,-91.83"/>
</g>
<!-- Node5 -->
<g id="node5" class="node">
<title>Node5</title>
<g id="a_node5"><a xlink:title=" ">
<polygon fill="#e0e0e0" stroke="#999999" points="290.5,-82 242.25,-82 242.25,-62 290.5,-62 290.5,-82"/>
<text text-anchor="middle" x="266.38" y="-68.5" font-family="Helvetica,sans-Serif" font-size="10.00">fstream</text>
</a>
</g>
</g>
<!-- Node2&#45;&gt;Node5 -->
<g id="edge4" class="edge">
<title>Node2&#45;&gt;Node5</title>
<path fill="none" stroke="#63b8ff" d="M266.38,-129.54C266.38,-120.23 266.38,-105.7 266.38,-93.7"/>
<polygon fill="#63b8ff" stroke="#63b8ff" points="269.88,-93.95 266.38,-83.95 262.88,-93.95 269.88,-93.95"/>
</g>
<!-- Node6 -->
<g id="node6" class="node">
<title>Node6</title>
<g id="a_node6"><a xlink:title=" ">
<polygon fill="#e0e0e0" stroke="#999999" points="321.38,-20 281.38,-20 281.38,0 321.38,0 321.38,-20"/>
<text text-anchor="middle" x="301.38" y="-6.5" font-family="Helvetica,sans-Serif" font-size="10.00">string</text>
</a>
</g>
</g>
<!-- Node2&#45;&gt;Node6 -->
<g id="edge5" class="edge">
<title>Node2&#45;&gt;Node6</title>
<path fill="none" stroke="#63b8ff" d="M274.71,-129.66C282.74,-120.01 294.39,-104.12 299.38,-88 305.12,-69.45 304.99,-47.18 303.8,-31.37"/>
<polygon fill="#63b8ff" stroke="#63b8ff" points="307.32,-31.39 302.86,-21.77 300.35,-32.07 307.32,-31.39"/>
</g>
<!-- Node7 -->
<g id="node7" class="node">
<title>Node7</title>
<g id="a_node7"><a xlink:href="FMTexception_8hpp.html" target="_top" xlink:title=" ">
<polygon fill="white" stroke="#666666" points="474.5,-82 378.25,-82 378.25,-62 474.5,-62 474.5,-82"/>
<text text-anchor="middle" x="426.38" y="-68.5" font-family="Helvetica,sans-Serif" font-size="10.00">FMTexception.hpp</text>
</a>
</g>
</g>
<!-- Node2&#45;&gt;Node7 -->
<g id="edge6" class="edge">
<title>Node2&#45;&gt;Node7</title>
<path fill="none" stroke="#63b8ff" d="M289.3,-129.54C316.51,-118.32 362.09,-99.52 393.16,-86.7"/>
<polygon fill="#63b8ff" stroke="#63b8ff" points="394.18,-90.06 402.09,-83.02 391.52,-83.59 394.18,-90.06"/>
</g>
<!-- Node7&#45;&gt;Node6 -->
<g id="edge8" class="edge">
<title>Node7&#45;&gt;Node6</title>
<path fill="none" stroke="#63b8ff" d="M406.84,-61.62C386.48,-51.85 354.32,-36.41 330.86,-25.15"/>
<polygon fill="#63b8ff" stroke="#63b8ff" points="332.66,-22.14 322.13,-20.96 329.63,-28.45 332.66,-22.14"/>
</g>
<!-- Node8 -->
<g id="node8" class="node">
<title>Node8</title>
<g id="a_node8"><a xlink:title=" ">
<polygon fill="#e0e0e0" stroke="#999999" points="397.38,-20 339.38,-20 339.38,0 397.38,0 397.38,-20"/>
<text text-anchor="middle" x="368.38" y="-6.5" font-family="Helvetica,sans-Serif" font-size="10.00">exception</text>
</a>
</g>
</g>
<!-- Node7&#45;&gt;Node8 -->
<g id="edge7" class="edge">
<title>Node7&#45;&gt;Node8</title>
<path fill="none" stroke="#63b8ff" d="M417.31,-61.62C408.66,-52.68 395.43,-38.99 384.91,-28.1"/>
<polygon fill="#63b8ff" stroke="#63b8ff" points="387.7,-25.96 378.24,-21.2 382.67,-30.82 387.7,-25.96"/>
</g>
<!-- Node9 -->
<g id="node9" class="node">
<title>Node9</title>
<g id="a_node9"><a xlink:title=" ">
<polygon fill="#e0e0e0" stroke="#999999" points="469.12,-20 415.62,-20 415.62,0 469.12,0 469.12,-20"/>
<text text-anchor="middle" x="442.38" y="-6.5" font-family="Helvetica,sans-Serif" font-size="10.00">iostream</text>
</a>
</g>
</g>
<!-- Node7&#45;&gt;Node9 -->
<g id="edge9" class="edge">
<title>Node7&#45;&gt;Node9</title>
<path fill="none" stroke="#63b8ff" d="M428.88,-61.62C431.05,-53.48 434.27,-41.39 437.02,-31.07"/>
<polygon fill="#63b8ff" stroke="#63b8ff" points="440.36,-32.14 439.55,-21.58 433.6,-30.34 440.36,-32.14"/>
</g>
<!-- Node10 -->
<g id="node10" class="node">
<title>Node10</title>
<g id="a_node10"><a xlink:title=" ">
<polygon fill="#e0e0e0" stroke="#999999" points="538,-20 486.75,-20 486.75,0 538,0 538,-20"/>
<text text-anchor="middle" x="512.38" y="-6.5" font-family="Helvetica,sans-Serif" font-size="10.00">memory</text>
</a>
</g>
</g>
<!-- Node7&#45;&gt;Node10 -->
<g id="edge10" class="edge">
<title>Node7&#45;&gt;Node10</title>
<path fill="none" stroke="#63b8ff" d="M439.81,-61.62C453.19,-52.29 473.97,-37.79 489.87,-26.7"/>
<polygon fill="#63b8ff" stroke="#63b8ff" points="491.59,-29.77 497.79,-21.18 487.59,-24.03 491.59,-29.77"/>
</g>
<!-- Node11 -->
<g id="node11" class="node">
<title>Node11</title>
<g id="a_node11"><a xlink:href="FMTutility_8hpp.html" target="_top" xlink:title=" ">
<polygon fill="white" stroke="#666666" points="633.12,-20 555.62,-20 555.62,0 633.12,0 633.12,-20"/>
<text text-anchor="middle" x="594.38" y="-6.5" font-family="Helvetica,sans-Serif" font-size="10.00">FMTutility.hpp</text>
</a>
</g>
</g>
<!-- Node7&#45;&gt;Node11 -->
<g id="edge11" class="edge">
<title>Node7&#45;&gt;Node11</title>
<path fill="none" stroke="#63b8ff" d="M452.62,-61.62C480.78,-51.57 525.7,-35.53 557.41,-24.2"/>
<polygon fill="#63b8ff" stroke="#63b8ff" points="558.37,-27.58 566.61,-20.92 556.01,-20.98 558.37,-27.58"/>
</g>
</g>
</svg>
        <g id="navigator" transform="translate(0 0)" fill="#404254">
                <rect fill="#f2f5e9" fill-opacity="0.5" stroke="#606060" stroke-width=".5" x="0" y="0" width="60" height="60"/>
                <use id="zoomplus" xlink:href="#zoomPlus" x="17" y="9" onmousedown="handleZoom(evt,'in')"/>
                <use id="zoomminus" xlink:href="#zoomMin" x="42" y="9" onmousedown="handleZoom(evt,'out')"/>
                <use id="reset" xlink:href="#resetDef" x="30" y="36" onmousedown="handleReset()"/>
                <g id="arrowUp" xlink:href="#dirArrow" transform="translate(30 24)" onmousedown="handlePan(0,-1)">
                  <use xlink:href="#rim" fill="#404040">
                        <set attributeName="fill" to="#808080" begin="arrowUp.mouseover" end="arrowUp.mouseout"/>
                  </use>
                  <path fill="none" stroke="white" stroke-width="1.5" d="M0,-3.0v7 M-2.5,-0.5L0,-3.0L2.5,-0.5"/>
                </g>
                <g id="arrowRight" xlink:href="#dirArrow" transform="rotate(90) translate(36 -43)" onmousedown="handlePan(1,0)">
                  <use xlink:href="#rim" fill="#404040">
                        <set attributeName="fill" to="#808080" begin="arrowRight.mouseover" end="arrowRight.mouseout"/>
                  </use>
                  <path fill="none" stroke="white" stroke-width="1.5" d="M0,-3.0v7 M-2.5,-0.5L0,-3.0L2.5,-0.5"/>
                </g>
                <g id="arrowDown" xlink:href="#dirArrow" transform="rotate(180) translate(-30 -48)" onmousedown="handlePan(0,1)">
                  <use xlink:href="#rim" fill="#404040">
                        <set attributeName="fill" to="#808080" begin="arrowDown.mouseover" end="arrowDown.mouseout"/>
                  </use>
                  <path fill="none" stroke="white" stroke-width="1.5" d="M0,-3.0v7 M-2.5,-0.5L0,-3.0L2.5,-0.5"/>
                </g>
                <g id="arrowLeft" xlink:href="#dirArrow" transform="rotate(270) translate(-36 17)" onmousedown="handlePan(-1,0)">
                  <use xlink:href="#rim" fill="#404040">
                        <set attributeName="fill" to="#808080" begin="arrowLeft.mouseover" end="arrowLeft.mouseout"/>
                  </use>
                  <path fill="none" stroke="white" stroke-width="1.5" d="M0,-3.0v7 M-2.5,-0.5L0,-3.0L2.5,-0.5"/>
                </g>
        </g>
        <svg viewBox="0 0 15 15" width="100%" height="30px" preserveAspectRatio="xMaxYMin meet">
         <g id="arrow_out" transform="scale(0.3 0.3)">
          <a xlink:href="FMTdefaultlogger_8hpp__incl_org.svg" target="_base">
           <rect id="button" ry="5" rx="5" y="6" x="6" height="38" width="38"
                fill="#f2f5e9" fill-opacity="0.5" stroke="#606060" stroke-width="1.0"/>
           <path id="arrow"
             d="M 11.500037,31.436501 C 11.940474,20.09759 22.043105,11.32322 32.158766,21.979434 L 37.068811,17.246167 C 37.068811,17.246167 37.088388,32 37.088388,32 L 22.160133,31.978069 C 22.160133,31.978069 26.997745,27.140456 26.997745,27.140456 C 18.528582,18.264221 13.291696,25.230495 11.500037,31.436501 z"
             style="fill:#404040;"/>
          </a>
         </g>
        </svg>
</svg>
