<?xml version="1.0" encoding="UTF-8" standalone="no"?>
<!DOCTYPE svg PUBLIC "-//W3C//DTD SVG 1.1//EN"
 "http://www.w3.org/Graphics/SVG/1.1/DTD/svg11.dtd">
<!-- Generated by graphviz version 8.1.0 (20230707.0739)
 -->
<!-- Title: C:/Users/CYRGU3/OneDrive &#45; BuroVirtuel/Bureau/FMT/FMT/Include/FMTdevelopment.hpp Pages: 1 -->
<svg width="2246pt" height="300pt"
 viewBox="0.00 0.00 2246.09 300.00" xmlns="http://www.w3.org/2000/svg" xmlns:xlink="http://www.w3.org/1999/xlink">
<g id="graph0" class="graph" transform="scale(1 1) rotate(0) translate(4 296)">
<title>C:/Users/CYRGU3/OneDrive &#45; BuroVirtuel/Bureau/FMT/FMT/Include/FMTdevelopment.hpp</title>
<!-- Node1 -->
<g id="Node000001" class="node">
<title>Node1</title>
<g id="a_Node000001"><a xlink:title=" ">
<polygon fill="#999999" stroke="#666666" points="1354.62,-292 1187.12,-292 1187.12,-248 1354.62,-248 1354.62,-292"/>
<text text-anchor="start" x="1195.12" y="-278.5" font-family="Helvetica,sans-Serif" font-size="10.00">C:/Users/CYRGU3/OneDrive</text>
<text text-anchor="start" x="1195.12" y="-266.5" font-family="Helvetica,sans-Serif" font-size="10.00"> &#45; BuroVirtuel/Bureau/FMT</text>
<text text-anchor="middle" x="1270.88" y="-254.5" font-family="Helvetica,sans-Serif" font-size="10.00">/FMT/Include/FMTdevelopment.hpp</text>
</a>
</g>
</g>
<!-- Node2 -->
<g id="Node000002" class="node">
<title>Node2</title>
<g id="a_Node000002"><a xlink:href="FMTmask_8hpp.html" target="_top" xlink:title=" ">
<polygon fill="white" stroke="#666666" points="893,-212 814.75,-212 814.75,-192 893,-192 893,-212"/>
<text text-anchor="middle" x="853.88" y="-198.5" font-family="Helvetica,sans-Serif" font-size="10.00">FMTmask.hpp</text>
</a>
</g>
</g>
<!-- Node1&#45;&gt;Node2 -->
<g id="edge1_Node000001_Node000002" class="edge">
<title>Node1&#45;&gt;Node2</title>
<g id="a_edge1_Node000001_Node000002"><a xlink:title=" ">
<path fill="none" stroke="#63b8ff" d="M1186.74,-255.68C1102.05,-242.28 974.23,-222.05 904.19,-210.96"/>
<polygon fill="#63b8ff" stroke="#63b8ff" points="904.88,-207.37 894.46,-209.26 903.79,-214.28 904.88,-207.37"/>
</a>
</g>
</g>
<!-- Node8 -->
<g id="Node000008" class="node">
<title>Node8</title>
<g id="a_Node000008"><a xlink:title=" ">
<polygon fill="#e0e0e0" stroke="#999999" points="1205.25,-156 1110.5,-156 1110.5,-124 1205.25,-124 1205.25,-156"/>
<text text-anchor="start" x="1118.5" y="-142.5" font-family="Helvetica,sans-Serif" font-size="10.00">boost/serialization</text>
<text text-anchor="middle" x="1157.88" y="-130.5" font-family="Helvetica,sans-Serif" font-size="10.00">/serialization.hpp</text>
</a>
</g>
</g>
<!-- Node1&#45;&gt;Node8 -->
<g id="edge20_Node000001_Node000008" class="edge">
<title>Node1&#45;&gt;Node8</title>
<g id="a_edge20_Node000001_Node000008"><a xlink:title=" ">
<path fill="none" stroke="#63b8ff" d="M1251.96,-247.58C1231.7,-224.63 1199.65,-188.32 1178.69,-164.58"/>
<polygon fill="#63b8ff" stroke="#63b8ff" points="1181.76,-162.63 1172.51,-157.45 1176.51,-167.26 1181.76,-162.63"/>
</a>
</g>
</g>
<!-- Node10 -->
<g id="Node000010" class="node">
<title>Node10</title>
<g id="a_Node000010"><a xlink:title=" ">
<polygon fill="#e0e0e0" stroke="#999999" points="1318.25,-156 1223.5,-156 1223.5,-124 1318.25,-124 1318.25,-156"/>
<text text-anchor="start" x="1231.5" y="-142.5" font-family="Helvetica,sans-Serif" font-size="10.00">boost/serialization</text>
<text text-anchor="middle" x="1270.88" y="-130.5" font-family="Helvetica,sans-Serif" font-size="10.00">/nvp.hpp</text>
</a>
</g>
</g>
<!-- Node1&#45;&gt;Node10 -->
<g id="edge21_Node000001_Node000010" class="edge">
<title>Node1&#45;&gt;Node10</title>
<g id="a_edge21_Node000001_Node000010"><a xlink:title=" ">
<path fill="none" stroke="#63b8ff" d="M1270.88,-247.58C1270.88,-225.54 1270.88,-191.17 1270.88,-167.45"/>
<polygon fill="#63b8ff" stroke="#63b8ff" points="1274.38,-167.45 1270.88,-157.45 1267.38,-167.45 1274.38,-167.45"/>
</a>
</g>
</g>
<!-- Node11 -->
<g id="Node000011" class="node">
<title>Node11</title>
<g id="a_Node000011"><a xlink:title=" ">
<polygon fill="#e0e0e0" stroke="#999999" points="1694.25,-88 1599.5,-88 1599.5,-56 1694.25,-56 1694.25,-88"/>
<text text-anchor="start" x="1607.5" y="-74.5" font-family="Helvetica,sans-Serif" font-size="10.00">boost/serialization</text>
<text text-anchor="middle" x="1646.88" y="-62.5" font-family="Helvetica,sans-Serif" font-size="10.00">/export.hpp</text>
</a>
</g>
</g>
<!-- Node1&#45;&gt;Node11 -->
<g id="edge34_Node000001_Node000011" class="edge">
<title>Node1&#45;&gt;Node11</title>
<g id="a_edge34_Node000001_Node000011"><a xlink:title=" ">
<path fill="none" stroke="#63b8ff" d="M1355.1,-259.01C1467.96,-243.69 1658.98,-210.32 1700.88,-156 1716.03,-136.35 1696.92,-112.46 1677.37,-95.37"/>
<polygon fill="#63b8ff" stroke="#63b8ff" points="1680,-92.17 1670.06,-88.49 1675.53,-97.57 1680,-92.17"/>
</a>
</g>
</g>
<!-- Node12 -->
<g id="Node000012" class="node">
<title>Node12</title>
<g id="a_Node000012"><a xlink:title=" ">
<polygon fill="#e0e0e0" stroke="#999999" points="1033.25,-156 938.5,-156 938.5,-124 1033.25,-124 1033.25,-156"/>
<text text-anchor="start" x="946.5" y="-142.5" font-family="Helvetica,sans-Serif" font-size="10.00">boost/serialization</text>
<text text-anchor="middle" x="985.88" y="-130.5" font-family="Helvetica,sans-Serif" font-size="10.00">/string.hpp</text>
</a>
</g>
</g>
<!-- Node1&#45;&gt;Node12 -->
<g id="edge22_Node000001_Node000012" class="edge">
<title>Node1&#45;&gt;Node12</title>
<g id="a_edge22_Node000001_Node000012"><a xlink:title=" ">
<path fill="none" stroke="#63b8ff" d="M1223.17,-247.58C1169.39,-223.42 1082.65,-184.46 1030.27,-160.94"/>
<polygon fill="#63b8ff" stroke="#63b8ff" points="1031.83,-157.35 1021.27,-156.45 1028.96,-163.74 1031.83,-157.35"/>
</a>
</g>
</g>
<!-- Node17 -->
<g id="Node000017" class="node">
<title>Node17</title>
<g id="a_Node000017"><a xlink:title=" ">
<polygon fill="#e0e0e0" stroke="#999999" points="2103.5,-20 2052.25,-20 2052.25,0 2103.5,0 2103.5,-20"/>
<text text-anchor="middle" x="2077.88" y="-6.5" font-family="Helvetica,sans-Serif" font-size="10.00">memory</text>
</a>
</g>
</g>
<!-- Node1&#45;&gt;Node17 -->
<g id="edge32_Node000001_Node000017" class="edge">
<title>Node1&#45;&gt;Node17</title>
<g id="a_edge32_Node000001_Node000017"><a xlink:title=" ">
<path fill="none" stroke="#63b8ff" d="M1354.83,-265.54C1577.75,-255.47 2171.34,-222.58 2226.88,-156 2270.62,-103.55 2168.29,-49.42 2111.93,-24.74"/>
<polygon fill="#63b8ff" stroke="#63b8ff" points="2113.56,-21.21 2102.99,-20.49 2110.8,-27.64 2113.56,-21.21"/>
</a>
</g>
</g>
<!-- Node19 -->
<g id="Node000019" class="node">
<title>Node19</title>
<g id="a_Node000019"><a xlink:title=" ">
<polygon fill="#e0e0e0" stroke="#999999" points="1092.62,-150 1051.12,-150 1051.12,-130 1092.62,-130 1092.62,-150"/>
<text text-anchor="middle" x="1071.88" y="-136.5" font-family="Helvetica,sans-Serif" font-size="10.00">vector</text>
</a>
</g>
</g>
<!-- Node1&#45;&gt;Node19 -->
<g id="edge33_Node000001_Node000019" class="edge">
<title>Node1&#45;&gt;Node19</title>
<g id="a_edge33_Node000001_Node000019"><a xlink:title=" ">
<path fill="none" stroke="#63b8ff" d="M1237.57,-247.58C1197.31,-221.68 1130.61,-178.78 1095.37,-156.11"/>
<polygon fill="#63b8ff" stroke="#63b8ff" points="1097.61,-152.75 1087.31,-150.29 1093.83,-158.64 1097.61,-152.75"/>
</a>
</g>
</g>
<!-- Node20 -->
<g id="Node000020" class="node">
<title>Node20</title>
<g id="a_Node000020"><a xlink:href="FMTobject_8hpp.html" target="_top" xlink:title=" ">
<polygon fill="white" stroke="#666666" points="1437.12,-212 1356.62,-212 1356.62,-192 1437.12,-192 1437.12,-212"/>
<text text-anchor="middle" x="1396.88" y="-198.5" font-family="Helvetica,sans-Serif" font-size="10.00">FMTobject.hpp</text>
</a>
</g>
</g>
<!-- Node1&#45;&gt;Node20 -->
<g id="edge23_Node000001_Node000020" class="edge">
<title>Node1&#45;&gt;Node20</title>
<g id="a_edge23_Node000001_Node000020"><a xlink:title=" ">
<path fill="none" stroke="#63b8ff" d="M1311.78,-247.57C1330.77,-237.63 1352.81,-226.08 1369.71,-217.23"/>
<polygon fill="#63b8ff" stroke="#63b8ff" points="1370.76,-220.11 1378,-212.37 1367.51,-213.91 1370.76,-220.11"/>
</a>
</g>
</g>
<!-- Node24 -->
<g id="Node000024" class="node">
<title>Node24</title>
<g id="a_Node000024"><a xlink:href="FMTexceptionhandler_8hpp.html" target="_top" xlink:title=" ">
<polygon fill="white" stroke="#666666" points="1910.75,-212 1783,-212 1783,-192 1910.75,-192 1910.75,-212"/>
<text text-anchor="middle" x="1846.88" y="-198.5" font-family="Helvetica,sans-Serif" font-size="10.00">FMTexceptionhandler.hpp</text>
</a>
</g>
</g>
<!-- Node1&#45;&gt;Node24 -->
<g id="edge35_Node000001_Node000024" class="edge">
<title>Node1&#45;&gt;Node24</title>
<g id="a_edge35_Node000001_Node000024"><a xlink:title=" ">
<path fill="none" stroke="#63b8ff" d="M1354.94,-259.37C1467.24,-246.5 1664.5,-223.9 1771.95,-211.58"/>
<polygon fill="#63b8ff" stroke="#63b8ff" points="1772.16,-214.97 1781.7,-210.35 1771.37,-208.01 1772.16,-214.97"/>
</a>
</g>
</g>
<!-- Node3 -->
<g id="Node000003" class="node">
<title>Node3</title>
<g id="a_Node000003"><a xlink:title=" ">
<polygon fill="#e0e0e0" stroke="#999999" points="127.75,-150 0,-150 0,-130 127.75,-130 127.75,-150"/>
<text text-anchor="middle" x="63.88" y="-136.5" font-family="Helvetica,sans-Serif" font-size="10.00">boost/dynamic_bitset.hpp</text>
</a>
</g>
</g>
<!-- Node2&#45;&gt;Node3 -->
<g id="edge2_Node000002_Node000003" class="edge">
<title>Node2&#45;&gt;Node3</title>
<g id="a_edge2_Node000002_Node000003"><a xlink:title=" ">
<path fill="none" stroke="#63b8ff" d="M814.44,-200.46C705.89,-198.56 393.71,-190.28 136.88,-156 129.89,-155.07 122.58,-153.85 115.39,-152.52"/>
<polygon fill="#63b8ff" stroke="#63b8ff" points="116.11,-148.9 105.63,-150.42 114.78,-155.77 116.11,-148.9"/>
</a>
</g>
</g>
<!-- Node4 -->
<g id="Node000004" class="node">
<title>Node4</title>
<g id="a_Node000004"><a xlink:title=" ">
<polygon fill="#e0e0e0" stroke="#999999" points="274.12,-150 145.62,-150 145.62,-130 274.12,-130 274.12,-150"/>
<text text-anchor="middle" x="209.88" y="-136.5" font-family="Helvetica,sans-Serif" font-size="10.00">boost/unordered_map.hpp</text>
</a>
</g>
</g>
<!-- Node2&#45;&gt;Node4 -->
<g id="edge3_Node000002_Node000004" class="edge">
<title>Node2&#45;&gt;Node4</title>
<g id="a_edge3_Node000002_Node000004"><a xlink:title=" ">
<path fill="none" stroke="#63b8ff" d="M814.31,-199.53C721.35,-195.71 481.96,-183.79 283.88,-156 276.98,-155.03 269.76,-153.82 262.64,-152.51"/>
<polygon fill="#63b8ff" stroke="#63b8ff" points="263.47,-148.91 252.99,-150.46 262.14,-155.78 263.47,-148.91"/>
</a>
</g>
</g>
<!-- Node5 -->
<g id="Node000005" class="node">
<title>Node5</title>
<g id="a_Node000005"><a xlink:title=" ">
<polygon fill="#e0e0e0" stroke="#999999" points="421.12,-150 292.62,-150 292.62,-130 421.12,-130 421.12,-150"/>
<text text-anchor="middle" x="356.88" y="-136.5" font-family="Helvetica,sans-Serif" font-size="10.00">boost/algorithm/string.hpp</text>
</a>
</g>
</g>
<!-- Node2&#45;&gt;Node5 -->
<g id="edge4_Node000002_Node000005" class="edge">
<title>Node2&#45;&gt;Node5</title>
<g id="a_edge4_Node000002_Node000005"><a xlink:title=" ">
<path fill="none" stroke="#63b8ff" d="M814.25,-198.08C739.03,-192.26 570.5,-177.86 429.88,-156 423.33,-154.98 416.48,-153.77 409.72,-152.49"/>
<polygon fill="#63b8ff" stroke="#63b8ff" points="410.7,-148.92 400.21,-150.42 409.35,-155.78 410.7,-148.92"/>
</a>
</g>
</g>
<!-- Node6 -->
<g id="Node000006" class="node">
<title>Node6</title>
<g id="a_Node000006"><a xlink:title=" ">
<polygon fill="#e0e0e0" stroke="#999999" points="548.75,-156 439,-156 439,-124 548.75,-124 548.75,-156"/>
<text text-anchor="start" x="447" y="-142.5" font-family="Helvetica,sans-Serif" font-size="10.00">boost/algorithm/string</text>
<text text-anchor="middle" x="493.88" y="-130.5" font-family="Helvetica,sans-Serif" font-size="10.00">/join.hpp</text>
</a>
</g>
</g>
<!-- Node2&#45;&gt;Node6 -->
<g id="edge5_Node000002_Node000006" class="edge">
<title>Node2&#45;&gt;Node6</title>
<g id="a_edge5_Node000002_Node000006"><a xlink:title=" ">
<path fill="none" stroke="#63b8ff" d="M814.44,-196.02C759.55,-188.86 656.79,-174.67 559.58,-156.24"/>
<polygon fill="#63b8ff" stroke="#63b8ff" points="560.45,-152.65 549.97,-154.21 559.14,-159.53 560.45,-152.65"/>
</a>
</g>
</g>
<!-- Node7 -->
<g id="Node000007" class="node">
<title>Node7</title>
<g id="a_Node000007"><a xlink:title=" ">
<polygon fill="#e0e0e0" stroke="#999999" points="806.38,-150 679.38,-150 679.38,-130 806.38,-130 806.38,-150"/>
<text text-anchor="middle" x="742.88" y="-136.5" font-family="Helvetica,sans-Serif" font-size="10.00">boost/functional/hash.hpp</text>
</a>
</g>
</g>
<!-- Node2&#45;&gt;Node7 -->
<g id="edge6_Node000002_Node000007" class="edge">
<title>Node2&#45;&gt;Node7</title>
<g id="a_edge6_Node000002_Node000007"><a xlink:title=" ">
<path fill="none" stroke="#63b8ff" d="M836.53,-191.62C818.61,-181.94 790.4,-166.69 769.62,-155.46"/>
<polygon fill="#63b8ff" stroke="#63b8ff" points="771.56,-151.99 761.1,-150.31 768.23,-158.14 771.56,-151.99"/>
</a>
</g>
</g>
<!-- Node2&#45;&gt;Node8 -->
<g id="edge7_Node000002_Node000008" class="edge">
<title>Node2&#45;&gt;Node8</title>
<g id="a_edge7_Node000002_Node000008"><a xlink:title=" ">
<path fill="none" stroke="#63b8ff" d="M893.16,-194.9C940.12,-187.37 1021.29,-173.67 1099.74,-156.38"/>
<polygon fill="#63b8ff" stroke="#63b8ff" points="1100.28,-159.62 1109.28,-154.03 1098.76,-152.79 1100.28,-159.62"/>
</a>
</g>
</g>
<!-- Node9 -->
<g id="Node000009" class="node">
<title>Node9</title>
<g id="a_Node000009"><a xlink:title=" ">
<polygon fill="#e0e0e0" stroke="#999999" points="661.25,-156 566.5,-156 566.5,-124 661.25,-124 661.25,-156"/>
<text text-anchor="start" x="574.5" y="-142.5" font-family="Helvetica,sans-Serif" font-size="10.00">boost/serialization</text>
<text text-anchor="middle" x="613.88" y="-130.5" font-family="Helvetica,sans-Serif" font-size="10.00">/split_free.hpp</text>
</a>
</g>
</g>
<!-- Node2&#45;&gt;Node9 -->
<g id="edge8_Node000002_Node000009" class="edge">
<title>Node2&#45;&gt;Node9</title>
<g id="a_edge8_Node000002_Node000009"><a xlink:title=" ">
<path fill="none" stroke="#63b8ff" d="M814.33,-191.59C779.29,-183.2 726.46,-170.4 672.05,-156.53"/>
<polygon fill="#63b8ff" stroke="#63b8ff" points="673.07,-152.92 662.52,-153.84 671.34,-159.71 673.07,-152.92"/>
</a>
</g>
</g>
<!-- Node2&#45;&gt;Node10 -->
<g id="edge9_Node000002_Node000010" class="edge">
<title>Node2&#45;&gt;Node10</title>
<g id="a_edge9_Node000002_Node000010"><a xlink:title=" ">
<path fill="none" stroke="#63b8ff" d="M893.3,-197.8C957.93,-192.18 1090.59,-179.08 1212.46,-156.1"/>
<polygon fill="#63b8ff" stroke="#63b8ff" points="1212.92,-159.39 1222.09,-154.07 1211.61,-152.51 1212.92,-159.39"/>
</a>
</g>
</g>
<!-- Node2&#45;&gt;Node11 -->
<g id="edge10_Node000002_Node000011" class="edge">
<title>Node2&#45;&gt;Node11</title>
<g id="a_edge10_Node000002_Node000011"><a xlink:title=" ">
<path fill="none" stroke="#63b8ff" d="M862.87,-191.54C882.06,-171.39 925.62,-125.93 929.88,-124 1048.85,-69.92 1386.69,-99.49 1516.88,-88 1540.31,-85.93 1566.06,-83.08 1588.41,-80.42"/>
<polygon fill="#63b8ff" stroke="#63b8ff" points="1588.58,-83.81 1598.09,-79.13 1587.74,-76.86 1588.58,-83.81"/>
</a>
</g>
</g>
<!-- Node2&#45;&gt;Node12 -->
<g id="edge11_Node000002_Node000012" class="edge">
<title>Node2&#45;&gt;Node12</title>
<g id="a_edge11_Node000002_Node000012"><a xlink:title=" ">
<path fill="none" stroke="#63b8ff" d="M874.5,-191.62C892.5,-183.44 919.23,-171.29 941.99,-160.95"/>
<polygon fill="#63b8ff" stroke="#63b8ff" points="943.14,-163.81 950.8,-156.49 940.24,-157.44 943.14,-163.81"/>
</a>
</g>
</g>
<!-- Node13 -->
<g id="Node000013" class="node">
<title>Node13</title>
<g id="a_Node000013"><a xlink:href="FMTexception_8hpp.html" target="_top" xlink:title=" ">
<polygon fill="white" stroke="#666666" points="1508,-82 1411.75,-82 1411.75,-62 1508,-62 1508,-82"/>
<text text-anchor="middle" x="1459.88" y="-68.5" font-family="Helvetica,sans-Serif" font-size="10.00">FMTexception.hpp</text>
</a>
</g>
</g>
<!-- Node2&#45;&gt;Node13 -->
<g id="edge12_Node000002_Node000013" class="edge">
<title>Node2&#45;&gt;Node13</title>
<g id="a_edge12_Node000002_Node000013"><a xlink:title=" ">
<path fill="none" stroke="#63b8ff" d="M856.04,-191.71C860.48,-174.95 872.35,-139.93 896.88,-124 938.45,-97 1265.04,-80.85 1400.9,-75.24"/>
<polygon fill="#63b8ff" stroke="#63b8ff" points="1400.66,-78.72 1410.51,-74.81 1400.37,-71.72 1400.66,-78.72"/>
</a>
</g>
</g>
<!-- Node15 -->
<g id="Node000015" class="node">
<title>Node15</title>
<g id="a_Node000015"><a xlink:title=" ">
<polygon fill="#e0e0e0" stroke="#999999" points="1581.88,-20 1541.88,-20 1541.88,0 1581.88,0 1581.88,-20"/>
<text text-anchor="middle" x="1561.88" y="-6.5" font-family="Helvetica,sans-Serif" font-size="10.00">string</text>
</a>
</g>
</g>
<!-- Node2&#45;&gt;Node15 -->
<g id="edge19_Node000002_Node000015" class="edge">
<title>Node2&#45;&gt;Node15</title>
<g id="a_edge19_Node000002_Node000015"><a xlink:title=" ">
<path fill="none" stroke="#63b8ff" d="M852.33,-191.64C850.25,-175.39 848.65,-142.01 866.88,-124 971.16,-21 1369.33,-52.4 1531.07,-20"/>
<polygon fill="#63b8ff" stroke="#63b8ff" points="1531.35,-23.3 1540.38,-17.77 1529.87,-16.46 1531.35,-23.3"/>
</a>
</g>
</g>
<!-- Node2&#45;&gt;Node19 -->
<g id="edge18_Node000002_Node000019" class="edge">
<title>Node2&#45;&gt;Node19</title>
<g id="a_edge18_Node000002_Node000019"><a xlink:title=" ">
<path fill="none" stroke="#63b8ff" d="M893.16,-194.31C931.74,-187.12 991.89,-174.2 1041.88,-156 1042.81,-155.66 1043.75,-155.3 1044.7,-154.92"/>
<polygon fill="#63b8ff" stroke="#63b8ff" points="1046.04,-157.71 1053.72,-150.42 1043.17,-151.32 1046.04,-157.71"/>
</a>
</g>
</g>
<!-- Node14 -->
<g id="Node000014" class="node">
<title>Node14</title>
<g id="a_Node000014"><a xlink:title=" ">
<polygon fill="#e0e0e0" stroke="#999999" points="1451.88,-20 1393.88,-20 1393.88,0 1451.88,0 1451.88,-20"/>
<text text-anchor="middle" x="1422.88" y="-6.5" font-family="Helvetica,sans-Serif" font-size="10.00">exception</text>
</a>
</g>
</g>
<!-- Node13&#45;&gt;Node14 -->
<g id="edge13_Node000013_Node000014" class="edge">
<title>Node13&#45;&gt;Node14</title>
<g id="a_edge13_Node000013_Node000014"><a xlink:title=" ">
<path fill="none" stroke="#63b8ff" d="M1454.09,-61.62C1448.8,-53.03 1440.8,-40.07 1434.23,-29.41"/>
<polygon fill="#63b8ff" stroke="#63b8ff" points="1436.72,-27.79 1428.49,-21.11 1430.76,-31.46 1436.72,-27.79"/>
</a>
</g>
</g>
<!-- Node13&#45;&gt;Node15 -->
<g id="edge14_Node000013_Node000015" class="edge">
<title>Node13&#45;&gt;Node15</title>
<g id="a_edge14_Node000013_Node000015"><a xlink:title=" ">
<path fill="none" stroke="#63b8ff" d="M1475.81,-61.62C1492.13,-52.03 1517.73,-36.97 1536.77,-25.77"/>
<polygon fill="#63b8ff" stroke="#63b8ff" points="1538.2,-28.4 1545.05,-20.31 1534.66,-22.36 1538.2,-28.4"/>
</a>
</g>
</g>
<!-- Node16 -->
<g id="Node000016" class="node">
<title>Node16</title>
<g id="a_Node000016"><a xlink:title=" ">
<polygon fill="#e0e0e0" stroke="#999999" points="1523.62,-20 1470.12,-20 1470.12,0 1523.62,0 1523.62,-20"/>
<text text-anchor="middle" x="1496.88" y="-6.5" font-family="Helvetica,sans-Serif" font-size="10.00">iostream</text>
</a>
</g>
</g>
<!-- Node13&#45;&gt;Node16 -->
<g id="edge15_Node000013_Node000016" class="edge">
<title>Node13&#45;&gt;Node16</title>
<g id="a_edge15_Node000013_Node000016"><a xlink:title=" ">
<path fill="none" stroke="#63b8ff" d="M1465.66,-61.62C1470.95,-53.03 1478.95,-40.07 1485.52,-29.41"/>
<polygon fill="#63b8ff" stroke="#63b8ff" points="1488.99,-31.46 1491.26,-21.11 1483.03,-27.79 1488.99,-31.46"/>
</a>
</g>
</g>
<!-- Node13&#45;&gt;Node17 -->
<g id="edge16_Node000013_Node000017" class="edge">
<title>Node13&#45;&gt;Node17</title>
<g id="a_edge16_Node000013_Node000017"><a xlink:title=" ">
<path fill="none" stroke="#63b8ff" d="M1508.37,-65.19C1533.06,-62.3 1563.55,-58.83 1590.88,-56 1759.06,-38.6 1960.27,-21.04 2041.36,-14.1"/>
<polygon fill="#63b8ff" stroke="#63b8ff" points="2041.32,-17.53 2050.99,-13.19 2040.72,-10.56 2041.32,-17.53"/>
</a>
</g>
</g>
<!-- Node18 -->
<g id="Node000018" class="node">
<title>Node18</title>
<g id="a_Node000018"><a xlink:href="FMTutility_8hpp.html" target="_top" xlink:title=" ">
<polygon fill="white" stroke="#666666" points="1375.62,-20 1298.12,-20 1298.12,0 1375.62,0 1375.62,-20"/>
<text text-anchor="middle" x="1336.88" y="-6.5" font-family="Helvetica,sans-Serif" font-size="10.00">FMTutility.hpp</text>
</a>
</g>
</g>
<!-- Node13&#45;&gt;Node18 -->
<g id="edge17_Node000013_Node000018" class="edge">
<title>Node13&#45;&gt;Node18</title>
<g id="a_edge17_Node000013_Node000018"><a xlink:title=" ">
<path fill="none" stroke="#63b8ff" d="M1440.66,-61.62C1420.53,-51.81 1388.69,-36.27 1365.58,-25"/>
<polygon fill="#63b8ff" stroke="#63b8ff" points="1367.48,-21.55 1356.96,-20.31 1364.41,-27.84 1367.48,-21.55"/>
</a>
</g>
</g>
<!-- Node20&#45;&gt;Node10 -->
<g id="edge25_Node000020_Node000010" class="edge">
<title>Node20&#45;&gt;Node10</title>
<g id="a_edge25_Node000020_Node000010"><a xlink:title=" ">
<path fill="none" stroke="#63b8ff" d="M1377.19,-191.62C1360.02,-183.45 1334.54,-171.32 1312.83,-160.98"/>
<polygon fill="#63b8ff" stroke="#63b8ff" points="1314.69,-157.51 1304.16,-156.37 1311.68,-163.83 1314.69,-157.51"/>
</a>
</g>
</g>
<!-- Node20&#45;&gt;Node11 -->
<g id="edge26_Node000020_Node000011" class="edge">
<title>Node20&#45;&gt;Node11</title>
<g id="a_edge26_Node000020_Node000011"><a xlink:title=" ">
<path fill="none" stroke="#63b8ff" d="M1437.49,-200.84C1508.97,-199.6 1652.65,-192.51 1683.88,-156 1698.77,-138.59 1684.86,-114.22 1670.03,-96.39"/>
<polygon fill="#63b8ff" stroke="#63b8ff" points="1673.04,-94.39 1663.8,-89.22 1667.8,-99.03 1673.04,-94.39"/>
</a>
</g>
</g>
<!-- Node20&#45;&gt;Node13 -->
<g id="edge27_Node000020_Node000013" class="edge">
<title>Node20&#45;&gt;Node13</title>
<g id="a_edge27_Node000020_Node000013"><a xlink:title=" ">
<path fill="none" stroke="#63b8ff" d="M1387.46,-191.58C1373.71,-176.64 1351.2,-146.86 1364.88,-124 1375.58,-106.11 1394.95,-94.13 1413.42,-86.31"/>
<polygon fill="#63b8ff" stroke="#63b8ff" points="1414.48,-89.26 1422.53,-82.38 1411.94,-82.74 1414.48,-89.26"/>
</a>
</g>
</g>
<!-- Node20&#45;&gt;Node17 -->
<g id="edge28_Node000020_Node000017" class="edge">
<title>Node20&#45;&gt;Node17</title>
<g id="a_edge28_Node000020_Node000017"><a xlink:title=" ">
<path fill="none" stroke="#63b8ff" d="M1437.46,-200.46C1541.12,-198.58 1813.28,-190.43 1895.88,-156 1916.26,-147.51 1916.74,-137.93 1933.88,-124 1977.3,-88.7 2029.12,-48.5 2057.24,-26.84"/>
<polygon fill="#63b8ff" stroke="#63b8ff" points="2059.02,-29.11 2064.82,-20.24 2054.76,-23.56 2059.02,-29.11"/>
</a>
</g>
</g>
<!-- Node20&#45;&gt;Node19 -->
<g id="edge30_Node000020_Node000019" class="edge">
<title>Node20&#45;&gt;Node19</title>
<g id="a_edge30_Node000020_Node000019"><a xlink:title=" ">
<path fill="none" stroke="#63b8ff" d="M1356.37,-198.82C1298.66,-194.83 1190.01,-183.99 1101.88,-156 1100.6,-155.59 1099.3,-155.14 1098.01,-154.65"/>
<polygon fill="#63b8ff" stroke="#63b8ff" points="1099.87,-151.2 1089.31,-150.37 1097.04,-157.6 1099.87,-151.2"/>
</a>
</g>
</g>
<!-- Node21 -->
<g id="Node000021" class="node">
<title>Node21</title>
<g id="a_Node000021"><a xlink:title=" ">
<polygon fill="#e0e0e0" stroke="#999999" points="1675.25,-156 1580.5,-156 1580.5,-124 1675.25,-124 1675.25,-156"/>
<text text-anchor="start" x="1588.5" y="-142.5" font-family="Helvetica,sans-Serif" font-size="10.00">boost/serialization</text>
<text text-anchor="middle" x="1627.88" y="-130.5" font-family="Helvetica,sans-Serif" font-size="10.00">/shared_ptr.hpp</text>
</a>
</g>
</g>
<!-- Node20&#45;&gt;Node21 -->
<g id="edge24_Node000020_Node000021" class="edge">
<title>Node20&#45;&gt;Node21</title>
<g id="a_edge24_Node000020_Node000021"><a xlink:title=" ">
<path fill="none" stroke="#63b8ff" d="M1433.55,-191.56C1466.57,-183.06 1516.71,-170.11 1569.67,-156.31"/>
<polygon fill="#63b8ff" stroke="#63b8ff" points="1570.5,-159.45 1579.29,-153.54 1568.73,-152.67 1570.5,-159.45"/>
</a>
</g>
</g>
<!-- Node22 -->
<g id="Node000022" class="node">
<title>Node22</title>
<g id="a_Node000022"><a xlink:title=" ">
<polygon fill="#e0e0e0" stroke="#999999" points="1419.5,-150 1374.25,-150 1374.25,-130 1419.5,-130 1419.5,-150"/>
<text text-anchor="middle" x="1396.88" y="-136.5" font-family="Helvetica,sans-Serif" font-size="10.00">chrono</text>
</a>
</g>
</g>
<!-- Node20&#45;&gt;Node22 -->
<g id="edge29_Node000020_Node000022" class="edge">
<title>Node20&#45;&gt;Node22</title>
<g id="a_edge29_Node000020_Node000022"><a xlink:title=" ">
<path fill="none" stroke="#63b8ff" d="M1396.88,-191.62C1396.88,-183.48 1396.88,-171.39 1396.88,-161.07"/>
<polygon fill="#63b8ff" stroke="#63b8ff" points="1400.38,-161.11 1396.88,-151.11 1393.38,-161.11 1400.38,-161.11"/>
</a>
</g>
</g>
<!-- Node23 -->
<g id="Node000023" class="node">
<title>Node23</title>
<g id="a_Node000023"><a xlink:title=" ">
<polygon fill="#e0e0e0" stroke="#999999" points="1562.25,-156 1437.5,-156 1437.5,-124 1562.25,-124 1562.25,-156"/>
<text text-anchor="start" x="1445.5" y="-142.5" font-family="Helvetica,sans-Serif" font-size="10.00">boost/dll/runtime_symbol</text>
<text text-anchor="middle" x="1499.88" y="-130.5" font-family="Helvetica,sans-Serif" font-size="10.00">_info.hpp</text>
</a>
</g>
</g>
<!-- Node20&#45;&gt;Node23 -->
<g id="edge31_Node000020_Node000023" class="edge">
<title>Node20&#45;&gt;Node23</title>
<g id="a_edge31_Node000020_Node000023"><a xlink:title=" ">
<path fill="none" stroke="#63b8ff" d="M1412.97,-191.62C1426.62,-183.67 1446.71,-171.97 1464.14,-161.82"/>
<polygon fill="#63b8ff" stroke="#63b8ff" points="1465.6,-164.43 1472.48,-156.37 1462.08,-158.38 1465.6,-164.43"/>
</a>
</g>
</g>
<!-- Node24&#45;&gt;Node8 -->
<g id="edge43_Node000024_Node000008" class="edge">
<title>Node24&#45;&gt;Node8</title>
<g id="a_edge43_Node000024_Node000008"><a xlink:title=" ">
<path fill="none" stroke="#63b8ff" d="M1782.72,-200.37C1669.92,-198.39 1428.7,-190.35 1216.36,-156.02"/>
<polygon fill="#63b8ff" stroke="#63b8ff" points="1217.06,-152.42 1206.63,-154.26 1215.93,-159.33 1217.06,-152.42"/>
</a>
</g>
</g>
<!-- Node24&#45;&gt;Node10 -->
<g id="edge44_Node000024_Node000010" class="edge">
<title>Node24&#45;&gt;Node10</title>
<g id="a_edge44_Node000024_Node000010"><a xlink:title=" ">
<path fill="none" stroke="#63b8ff" d="M1782.8,-196.35C1690.31,-189.34 1514.13,-174.86 1364.88,-156 1353.33,-154.54 1341.02,-152.75 1329.24,-150.92"/>
<polygon fill="#63b8ff" stroke="#63b8ff" points="1330.03,-147.34 1319.61,-149.23 1328.94,-154.26 1330.03,-147.34"/>
</a>
</g>
</g>
<!-- Node24&#45;&gt;Node11 -->
<g id="edge45_Node000024_Node000011" class="edge">
<title>Node24&#45;&gt;Node11</title>
<g id="a_edge45_Node000024_Node000011"><a xlink:title=" ">
<path fill="none" stroke="#63b8ff" d="M1837.32,-191.56C1821.29,-176.06 1787.51,-144.87 1754.88,-124 1736.37,-112.16 1714.68,-101.39 1695.61,-92.82"/>
<polygon fill="#63b8ff" stroke="#63b8ff" points="1697.18,-89.25 1686.62,-88.43 1694.36,-95.66 1697.18,-89.25"/>
</a>
</g>
</g>
<!-- Node24&#45;&gt;Node17 -->
<g id="edge46_Node000024_Node000017" class="edge">
<title>Node24&#45;&gt;Node17</title>
<g id="a_edge46_Node000024_Node000017"><a xlink:title=" ">
<path fill="none" stroke="#63b8ff" d="M1911.05,-200.55C1988.46,-198.47 2111.86,-189.79 2140.88,-156 2174.56,-116.77 2124.54,-56.75 2095.78,-27.78"/>
<polygon fill="#63b8ff" stroke="#63b8ff" points="2098.58,-25.65 2088.98,-21.17 2093.69,-30.66 2098.58,-25.65"/>
</a>
</g>
</g>
<!-- Node25 -->
<g id="Node000025" class="node">
<title>Node25</title>
<g id="a_Node000025"><a xlink:href="FMTlogger_8hpp.html" target="_top" xlink:title=" ">
<polygon fill="white" stroke="#666666" points="1887.12,-150 1806.62,-150 1806.62,-130 1887.12,-130 1887.12,-150"/>
<text text-anchor="middle" x="1846.88" y="-136.5" font-family="Helvetica,sans-Serif" font-size="10.00">FMTlogger.hpp</text>
</a>
</g>
</g>
<!-- Node24&#45;&gt;Node25 -->
<g id="edge36_Node000024_Node000025" class="edge">
<title>Node24&#45;&gt;Node25</title>
<g id="a_edge36_Node000024_Node000025"><a xlink:title=" ">
<path fill="none" stroke="#63b8ff" d="M1846.88,-191.62C1846.88,-183.48 1846.88,-171.39 1846.88,-161.07"/>
<polygon fill="#63b8ff" stroke="#63b8ff" points="1850.38,-161.11 1846.88,-151.11 1843.38,-161.11 1850.38,-161.11"/>
</a>
</g>
</g>
<!-- Node28 -->
<g id="Node000028" class="node">
<title>Node28</title>
<g id="a_Node000028"><a xlink:title=" ">
<polygon fill="#e0e0e0" stroke="#999999" points="2132.25,-150 2049.5,-150 2049.5,-130 2132.25,-130 2132.25,-150"/>
<text text-anchor="middle" x="2090.88" y="-136.5" font-family="Helvetica,sans-Serif" font-size="10.00">unordered_map</text>
</a>
</g>
</g>
<!-- Node24&#45;&gt;Node28 -->
<g id="edge42_Node000024_Node000028" class="edge">
<title>Node24&#45;&gt;Node28</title>
<g id="a_edge42_Node000024_Node000028"><a xlink:title=" ">
<path fill="none" stroke="#63b8ff" d="M1890.74,-191.52C1929.97,-182.86 1988.97,-169.41 2039.88,-156 2042.89,-155.21 2045.99,-154.36 2049.11,-153.49"/>
<polygon fill="#63b8ff" stroke="#63b8ff" points="2050.01,-156.59 2058.67,-150.48 2048.09,-149.86 2050.01,-156.59"/>
</a>
</g>
</g>
<!-- Node29 -->
<g id="Node000029" class="node">
<title>Node29</title>
<g id="a_Node000029"><a xlink:title=" ">
<polygon fill="#e0e0e0" stroke="#999999" points="2217.62,-150 2188.12,-150 2188.12,-130 2217.62,-130 2217.62,-150"/>
<text text-anchor="middle" x="2202.88" y="-136.5" font-family="Helvetica,sans-Serif" font-size="10.00">set</text>
</a>
</g>
</g>
<!-- Node24&#45;&gt;Node29 -->
<g id="edge47_Node000024_Node000029" class="edge">
<title>Node24&#45;&gt;Node29</title>
<g id="a_edge47_Node000024_Node000029"><a xlink:title=" ">
<path fill="none" stroke="#63b8ff" d="M1910.97,-198.6C1977.94,-194.63 2085.38,-184.06 2173.88,-156 2175.18,-155.59 2176.5,-155.12 2177.82,-154.6"/>
<polygon fill="#63b8ff" stroke="#63b8ff" points="2179,-157.45 2186.64,-150.11 2176.09,-151.09 2179,-157.45"/>
</a>
</g>
</g>
<!-- Node30 -->
<g id="Node000030" class="node">
<title>Node30</title>
<g id="a_Node000030"><a xlink:title=" ">
<polygon fill="#e0e0e0" stroke="#999999" points="2031.25,-150 1942.5,-150 1942.5,-130 2031.25,-130 2031.25,-150"/>
<text text-anchor="middle" x="1986.88" y="-136.5" font-family="Helvetica,sans-Serif" font-size="10.00">boost/thread.hpp</text>
</a>
</g>
</g>
<!-- Node24&#45;&gt;Node30 -->
<g id="edge48_Node000024_Node000030" class="edge">
<title>Node24&#45;&gt;Node30</title>
<g id="a_edge48_Node000024_Node000030"><a xlink:title=" ">
<path fill="none" stroke="#63b8ff" d="M1868.75,-191.62C1891.97,-181.67 1928.88,-165.85 1955.26,-154.55"/>
<polygon fill="#63b8ff" stroke="#63b8ff" points="1956.34,-157.47 1964.15,-150.31 1953.58,-151.03 1956.34,-157.47"/>
</a>
</g>
</g>
<!-- Node25&#45;&gt;Node11 -->
<g id="edge37_Node000025_Node000011" class="edge">
<title>Node25&#45;&gt;Node11</title>
<g id="a_edge37_Node000025_Node000011"><a xlink:title=" ">
<path fill="none" stroke="#63b8ff" d="M1818.22,-129.54C1788.5,-119.74 1741.24,-104.14 1703.88,-91.81"/>
<polygon fill="#63b8ff" stroke="#63b8ff" points="1705.22,-88.24 1694.63,-88.43 1703.03,-94.89 1705.22,-88.24"/>
</a>
</g>
</g>
<!-- Node25&#45;&gt;Node13 -->
<g id="edge41_Node000025_Node000013" class="edge">
<title>Node25&#45;&gt;Node13</title>
<g id="a_edge41_Node000025_Node000013"><a xlink:title=" ">
<path fill="none" stroke="#63b8ff" d="M1806.19,-132.06C1737.61,-120.37 1598.73,-96.68 1519.25,-83.13"/>
<polygon fill="#63b8ff" stroke="#63b8ff" points="1519.89,-79.51 1509.45,-81.28 1518.71,-86.41 1519.89,-79.51"/>
</a>
</g>
</g>
<!-- Node25&#45;&gt;Node15 -->
<g id="edge40_Node000025_Node000015" class="edge">
<title>Node25&#45;&gt;Node15</title>
<g id="a_edge40_Node000025_Node000015"><a xlink:title=" ">
<path fill="none" stroke="#63b8ff" d="M1823.23,-129.65C1801.14,-120.46 1767.62,-105.3 1740.88,-88 1722.34,-76.01 1722.2,-66.67 1702.88,-56 1667.37,-36.4 1622.05,-23.86 1592.51,-17.13"/>
<polygon fill="#63b8ff" stroke="#63b8ff" points="1593.53,-13.55 1583.02,-14.83 1592.04,-20.39 1593.53,-13.55"/>
</a>
</g>
</g>
<!-- Node26 -->
<g id="Node000026" class="node">
<title>Node26</title>
<g id="a_Node000026"><a xlink:title=" ">
<polygon fill="#e0e0e0" stroke="#999999" points="1861.5,-88 1750.25,-88 1750.25,-56 1861.5,-56 1861.5,-88"/>
<text text-anchor="start" x="1758.25" y="-74.5" font-family="Helvetica,sans-Serif" font-size="10.00">boost/thread/recursive</text>
<text text-anchor="middle" x="1805.88" y="-62.5" font-family="Helvetica,sans-Serif" font-size="10.00">_mutex.hpp</text>
</a>
</g>
</g>
<!-- Node25&#45;&gt;Node26 -->
<g id="edge38_Node000025_Node000026" class="edge">
<title>Node25&#45;&gt;Node26</title>
<g id="a_edge38_Node000025_Node000026"><a xlink:title=" ">
<path fill="none" stroke="#63b8ff" d="M1841,-129.54C1835.83,-121.22 1828.07,-108.72 1821.15,-97.59"/>
<polygon fill="#63b8ff" stroke="#63b8ff" points="1823.63,-95.95 1815.38,-89.3 1817.68,-99.64 1823.63,-95.95"/>
</a>
</g>
</g>
<!-- Node27 -->
<g id="Node000027" class="node">
<title>Node27</title>
<g id="a_Node000027"><a xlink:title=" ">
<polygon fill="#e0e0e0" stroke="#999999" points="1928,-82 1879.75,-82 1879.75,-62 1928,-62 1928,-82"/>
<text text-anchor="middle" x="1903.88" y="-68.5" font-family="Helvetica,sans-Serif" font-size="10.00">fstream</text>
</a>
</g>
</g>
<!-- Node25&#45;&gt;Node27 -->
<g id="edge39_Node000025_Node000027" class="edge">
<title>Node25&#45;&gt;Node27</title>
<g id="a_edge39_Node000025_Node000027"><a xlink:title=" ">
<path fill="none" stroke="#63b8ff" d="M1855.04,-129.54C1863.76,-119.45 1877.78,-103.22 1888.56,-90.73"/>
<polygon fill="#63b8ff" stroke="#63b8ff" points="1891.84,-93.29 1895.72,-83.44 1886.54,-88.72 1891.84,-93.29"/>
</a>
</g>
</g>
</g>
</svg>
