<?xml version="1.0" encoding="UTF-8" standalone="no"?>
<!DOCTYPE svg PUBLIC "-//W3C//DTD SVG 1.1//EN"
 "http://www.w3.org/Graphics/SVG/1.1/DTD/svg11.dtd">
<!-- Generated by graphviz version 8.1.0 (20230707.0739)
 -->
<!-- Title: C:/Temp/out/FMT/Include/FMTdata.hpp Pages: 1 -->
<svg width="533pt" height="176pt"
 viewBox="0.00 0.00 532.62 176.00" xmlns="http://www.w3.org/2000/svg" xmlns:xlink="http://www.w3.org/1999/xlink">
<g id="graph0" class="graph" transform="scale(1 1) rotate(0) translate(4 172)">
<title>C:/Temp/out/FMT/Include/FMTdata.hpp</title>
<!-- Node1 -->
<g id="Node000001" class="node">
<title>Node1</title>
<g id="a_Node000001"><a xlink:title=" ">
<polygon fill="#999999" stroke="#666666" points="367.5,-168 242,-168 242,-136 367.5,-136 367.5,-168"/>
<text text-anchor="start" x="250" y="-154.5" font-family="Helvetica,sans-Serif" font-size="10.00">C:/Temp/out/FMT/Include</text>
<text text-anchor="middle" x="304.75" y="-142.5" font-family="Helvetica,sans-Serif" font-size="10.00">/FMTdata.hpp</text>
</a>
</g>
</g>
<!-- Node2 -->
<g id="Node000002" class="node">
<title>Node2</title>
<g id="a_Node000002"><a xlink:href="FMTageyieldhandler_8hpp.html" target="_top" xlink:title=" ">
<polygon fill="white" stroke="#666666" points="176.5,-100 51,-100 51,-68 176.5,-68 176.5,-100"/>
<text text-anchor="start" x="59" y="-86.5" font-family="Helvetica,sans-Serif" font-size="10.00">C:/Temp/out/FMT/Include</text>
<text text-anchor="middle" x="113.75" y="-74.5" font-family="Helvetica,sans-Serif" font-size="10.00">/FMTageyieldhandler.hpp</text>
</a>
</g>
</g>
<!-- Node1&#45;&gt;Node2 -->
<g id="edge1_Node000001_Node000002" class="edge">
<title>Node1&#45;&gt;Node2</title>
<g id="a_edge1_Node000001_Node000002"><a xlink:title=" ">
<path fill="none" stroke="#63b8ff" d="M249.62,-131.95C220.73,-121.97 185.79,-109.89 158.58,-100.49"/>
<polygon fill="#63b8ff" stroke="#63b8ff" points="248.37,-135.57 258.97,-135.53 250.66,-128.95 248.37,-135.57"/>
</a>
</g>
</g>
<!-- Node5 -->
<g id="Node000005" class="node">
<title>Node5</title>
<g id="a_Node000005"><a xlink:href="RexportCore_8hpp.html" target="_top" xlink:title=" ">
<polygon fill="white" stroke="#666666" points="413.5,-32 288,-32 288,0 413.5,0 413.5,-32"/>
<text text-anchor="start" x="296" y="-18.5" font-family="Helvetica,sans-Serif" font-size="10.00">C:/Temp/out/FMT/Include</text>
<text text-anchor="middle" x="350.75" y="-6.5" font-family="Helvetica,sans-Serif" font-size="10.00">/RexportCore.hpp</text>
</a>
</g>
</g>
<!-- Node1&#45;&gt;Node5 -->
<g id="edge10_Node000001_Node000005" class="edge">
<title>Node1&#45;&gt;Node5</title>
<g id="a_edge10_Node000001_Node000005"><a xlink:title=" ">
<path fill="none" stroke="#63b8ff" d="M319.38,-126.51C323.83,-118.3 328.42,-108.95 331.75,-100 340.25,-77.14 345.69,-49.27 348.48,-32.34"/>
<polygon fill="#63b8ff" stroke="#63b8ff" points="315.97,-124.43 314.11,-134.86 322.07,-127.87 315.97,-124.43"/>
</a>
</g>
</g>
<!-- Node6 -->
<g id="Node000006" class="node">
<title>Node6</title>
<g id="a_Node000006"><a xlink:href="FMTcomplexyieldhandler_8hpp.html" target="_top" xlink:title=" ">
<polygon fill="white" stroke="#666666" points="524.62,-100 378.88,-100 378.88,-68 524.62,-68 524.62,-100"/>
<text text-anchor="start" x="386.88" y="-86.5" font-family="Helvetica,sans-Serif" font-size="10.00">C:/Temp/out/FMT/Include</text>
<text text-anchor="middle" x="451.75" y="-74.5" font-family="Helvetica,sans-Serif" font-size="10.00">/FMTcomplexyieldhandler.hpp</text>
</a>
</g>
</g>
<!-- Node1&#45;&gt;Node6 -->
<g id="edge5_Node000001_Node000006" class="edge">
<title>Node1&#45;&gt;Node6</title>
<g id="a_edge5_Node000001_Node000006"><a xlink:title=" ">
<path fill="none" stroke="#63b8ff" d="M349.24,-131.03C371.06,-121.23 396.95,-109.61 417.25,-100.49"/>
<polygon fill="#63b8ff" stroke="#63b8ff" points="347.9,-128.24 340.21,-135.53 350.77,-134.62 347.9,-128.24"/>
</a>
</g>
</g>
<!-- Node7 -->
<g id="Node000007" class="node">
<title>Node7</title>
<g id="a_Node000007"><a xlink:href="FMTtimeyieldhandler_8hpp.html" target="_top" xlink:title=" ">
<polygon fill="white" stroke="#666666" points="322.62,-100 194.88,-100 194.88,-68 322.62,-68 322.62,-100"/>
<text text-anchor="start" x="202.88" y="-86.5" font-family="Helvetica,sans-Serif" font-size="10.00">C:/Temp/out/FMT/Include</text>
<text text-anchor="middle" x="258.75" y="-74.5" font-family="Helvetica,sans-Serif" font-size="10.00">/FMTtimeyieldhandler.hpp</text>
</a>
</g>
</g>
<!-- Node1&#45;&gt;Node7 -->
<g id="edge6_Node000001_Node000007" class="edge">
<title>Node1&#45;&gt;Node7</title>
<g id="a_edge6_Node000001_Node000007"><a xlink:title=" ">
<path fill="none" stroke="#63b8ff" d="M287.93,-126.87C281.72,-117.96 274.87,-108.12 269.36,-100.22"/>
<polygon fill="#63b8ff" stroke="#63b8ff" points="285.49,-128.49 294.08,-134.69 291.23,-124.49 285.49,-128.49"/>
</a>
</g>
</g>
<!-- Node3 -->
<g id="Node000003" class="node">
<title>Node3</title>
<g id="a_Node000003"><a xlink:href="PYexportCore_8hpp.html" target="_top" xlink:title=" ">
<polygon fill="white" stroke="#666666" points="269.5,-32 144,-32 144,0 269.5,0 269.5,-32"/>
<text text-anchor="start" x="152" y="-18.5" font-family="Helvetica,sans-Serif" font-size="10.00">C:/Temp/out/FMT/Include</text>
<text text-anchor="middle" x="206.75" y="-6.5" font-family="Helvetica,sans-Serif" font-size="10.00">/PYexportCore.hpp</text>
</a>
</g>
</g>
<!-- Node2&#45;&gt;Node3 -->
<g id="edge2_Node000002_Node000003" class="edge">
<title>Node2&#45;&gt;Node3</title>
<g id="a_edge2_Node000002_Node000003"><a xlink:title=" ">
<path fill="none" stroke="#63b8ff" d="M144.16,-61.42C157.48,-51.96 172.82,-41.08 184.97,-32.45"/>
<polygon fill="#63b8ff" stroke="#63b8ff" points="142.45,-59.05 136.32,-67.69 146.5,-64.76 142.45,-59.05"/>
</a>
</g>
</g>
<!-- Node4 -->
<g id="Node000004" class="node">
<title>Node4</title>
<g id="a_Node000004"><a xlink:href="Rdeclarations_8hpp.html" target="_top" xlink:title=" ">
<polygon fill="white" stroke="#666666" points="125.5,-32 0,-32 0,0 125.5,0 125.5,-32"/>
<text text-anchor="start" x="8" y="-18.5" font-family="Helvetica,sans-Serif" font-size="10.00">C:/Temp/out/FMT/Include</text>
<text text-anchor="middle" x="62.75" y="-6.5" font-family="Helvetica,sans-Serif" font-size="10.00">/Rdeclarations.hpp</text>
</a>
</g>
</g>
<!-- Node2&#45;&gt;Node4 -->
<g id="edge3_Node000002_Node000004" class="edge">
<title>Node2&#45;&gt;Node4</title>
<g id="a_edge3_Node000002_Node000004"><a xlink:title=" ">
<path fill="none" stroke="#63b8ff" d="M95.32,-59.15C88.38,-50.17 80.68,-40.21 74.51,-32.22"/>
<polygon fill="#63b8ff" stroke="#63b8ff" points="93.04,-60.92 101.92,-66.69 98.58,-56.64 93.04,-60.92"/>
</a>
</g>
</g>
<!-- Node2&#45;&gt;Node5 -->
<g id="edge4_Node000002_Node000005" class="edge">
<title>Node2&#45;&gt;Node5</title>
<g id="a_edge4_Node000002_Node000005"><a xlink:title=" ">
<path fill="none" stroke="#63b8ff" d="M179.81,-64.6C216.1,-54.5 260.62,-42.1 295.12,-32.49"/>
<polygon fill="#63b8ff" stroke="#63b8ff" points="179.01,-61.47 170.32,-67.53 180.89,-68.21 179.01,-61.47"/>
</a>
</g>
</g>
<!-- Node7&#45;&gt;Node3 -->
<g id="edge7_Node000007_Node000003" class="edge">
<title>Node7&#45;&gt;Node3</title>
<g id="a_edge7_Node000007_Node000003"><a xlink:title=" ">
<path fill="none" stroke="#63b8ff" d="M239.96,-59.15C232.88,-50.17 225.03,-40.21 218.75,-32.22"/>
<polygon fill="#63b8ff" stroke="#63b8ff" points="237.75,-61 246.69,-66.69 243.25,-56.67 237.75,-61"/>
</a>
</g>
</g>
<!-- Node7&#45;&gt;Node4 -->
<g id="edge8_Node000007_Node000004" class="edge">
<title>Node7&#45;&gt;Node4</title>
<g id="a_edge8_Node000007_Node000004"><a xlink:title=" ">
<path fill="none" stroke="#63b8ff" d="M202.57,-64.08C172.84,-54.07 136.8,-41.94 108.75,-32.49"/>
<polygon fill="#63b8ff" stroke="#63b8ff" points="201.2,-67.65 211.8,-67.53 203.44,-61.02 201.2,-67.65"/>
</a>
</g>
</g>
<!-- Node7&#45;&gt;Node5 -->
<g id="edge9_Node000007_Node000005" class="edge">
<title>Node7&#45;&gt;Node5</title>
<g id="a_edge9_Node000007_Node000005"><a xlink:title=" ">
<path fill="none" stroke="#63b8ff" d="M288.83,-61.42C302.01,-51.96 317.18,-41.08 329.21,-32.45"/>
<polygon fill="#63b8ff" stroke="#63b8ff" points="287.17,-59.02 281.09,-67.69 291.25,-64.71 287.17,-59.02"/>
</a>
</g>
</g>
</g>
</svg>
