<?xml version="1.0" encoding="UTF-8" standalone="no"?>
<!DOCTYPE svg PUBLIC "-//W3C//DTD SVG 1.1//EN"
 "http://www.w3.org/Graphics/SVG/1.1/DTD/svg11.dtd">
<!-- Generated by graphviz version 10.0.1 (20240210.2158)
 -->
<!-- Title: D:/FMT/Include/FMTevent.hpp Pages: 1 -->
<!--zoomable 220 -->
<svg id="main" version="1.1" xmlns="http://www.w3.org/2000/svg" xmlns:xlink="http://www.w3.org/1999/xlink" xml:space="preserve" onload="init(evt)">
<style type="text/css"><![CDATA[
.edge:hover path { stroke: red; }
.edge:hover polygon { stroke: red; fill: red; }
]]></style>
<script type="text/javascript"><![CDATA[
var edges = document.getElementsByTagName('g');
if (edges && edges.length) {
  for (var i=0;i<edges.length;i++) {
    if (edges[i].id.substr(0,4)=='edge') {
      edges[i].setAttribute('class','edge');
    }
  }
}
]]></script>
        <defs>
                <circle id="rim" cx="0" cy="0" r="7"/>
                <circle id="rim2" cx="0" cy="0" r="3.5"/>
                <g id="zoomPlus">
                        <use xlink:href="#rim" fill="#404040">
                                <set attributeName="fill" to="#808080" begin="zoomplus.mouseover" end="zoomplus.mouseout"/>
                        </use>
                        <path d="M-4,0h8M0,-4v8" fill="none" stroke="white" stroke-width="1.5" pointer-events="none"/>
                </g>
                <g id="zoomMin">
                        <use xlink:href="#rim" fill="#404040">
                                <set attributeName="fill" to="#808080" begin="zoomminus.mouseover" end="zoomminus.mouseout"/>
                        </use>
                        <path d="M-4,0h8" fill="none" stroke="white" stroke-width="1.5" pointer-events="none"/>
                </g>
                <g id="dirArrow">
                        <path fill="none" stroke="white" stroke-width="1.5" d="M0,-3.0v7 M-2.5,-0.5L0,-3.0L2.5,-0.5"/>
                </g>
               <g id="resetDef">
                       <use xlink:href="#rim2" fill="#404040">
                               <set attributeName="fill" to="#808080" begin="reset.mouseover" end="reset.mouseout"/>
                       </use>
               </g>
        </defs>

<script type="text/javascript">
var viewWidth = 828;
var viewHeight = 220;
var sectionId = 'dynsection-0';
</script>
<script xlink:href="svgpan.js"/>
<svg id="graph" class="graph">
<g id="viewport">
<title>D:/FMT/Include/FMTevent.hpp</title>
<!-- Node1 -->
<g id="node1" class="node">
<title>Node1</title>
<g id="a_node1"><a xlink:title=" ">
<polygon fill="#999999" stroke="#666666" points="574.25,-212 428.5,-212 428.5,-192 574.25,-192 574.25,-212"/>
<text text-anchor="middle" x="501.38" y="-198.5" font-family="Helvetica,sans-Serif" font-size="10.00">D:/FMT/Include/FMTevent.hpp</text>
</a>
</g>
</g>
<!-- Node2 -->
<g id="node2" class="node">
<title>Node2</title>
<g id="a_node2"><a xlink:href="FMTcoordinate_8hpp.html" target="_top" xlink:title=" ">
<polygon fill="white" stroke="#666666" points="421,-150 321.75,-150 321.75,-130 421,-130 421,-150"/>
<text text-anchor="middle" x="371.38" y="-136.5" font-family="Helvetica,sans-Serif" font-size="10.00">FMTcoordinate.hpp</text>
</a>
</g>
</g>
<!-- Node1&#45;&gt;Node2 -->
<g id="edge1" class="edge">
<title>Node1&#45;&gt;Node2</title>
<path fill="none" stroke="#63b8ff" d="M481.06,-191.62C459.79,-181.81 426.13,-166.27 401.71,-155"/>
<polygon fill="#63b8ff" stroke="#63b8ff" points="403.47,-151.96 392.92,-150.94 400.53,-158.31 403.47,-151.96"/>
</g>
<!-- Node7 -->
<g id="node7" class="node">
<title>Node7</title>
<g id="a_node7"><a xlink:title=" ">
<polygon fill="#e0e0e0" stroke="#999999" points="94.75,-88 0,-88 0,-56 94.75,-56 94.75,-88"/>
<text text-anchor="start" x="8" y="-74.5" font-family="Helvetica,sans-Serif" font-size="10.00">boost/serialization</text>
<text text-anchor="middle" x="47.38" y="-62.5" font-family="Helvetica,sans-Serif" font-size="10.00">/serialization.hpp</text>
</a>
</g>
</g>
<!-- Node1&#45;&gt;Node7 -->
<g id="edge20" class="edge">
<title>Node1&#45;&gt;Node7</title>
<path fill="none" stroke="#63b8ff" d="M457.99,-191.58C419.54,-183.01 361.97,-169.65 312.38,-156 239.75,-136.01 157.07,-109.5 103.66,-91.88"/>
<polygon fill="#63b8ff" stroke="#63b8ff" points="105.08,-88.67 94.48,-88.85 102.88,-95.31 105.08,-88.67"/>
</g>
<!-- Node8 -->
<g id="node8" class="node">
<title>Node8</title>
<g id="a_node8"><a xlink:title=" ">
<polygon fill="#e0e0e0" stroke="#999999" points="819.75,-88 725,-88 725,-56 819.75,-56 819.75,-88"/>
<text text-anchor="start" x="733" y="-74.5" font-family="Helvetica,sans-Serif" font-size="10.00">boost/serialization</text>
<text text-anchor="middle" x="772.38" y="-62.5" font-family="Helvetica,sans-Serif" font-size="10.00">/nvp.hpp</text>
</a>
</g>
</g>
<!-- Node1&#45;&gt;Node8 -->
<g id="edge21" class="edge">
<title>Node1&#45;&gt;Node8</title>
<path fill="none" stroke="#63b8ff" d="M491.84,-191.97C476.67,-176.51 450.49,-144.68 468.38,-124 502.67,-84.34 644.28,-97.39 713.35,-87.89"/>
<polygon fill="#63b8ff" stroke="#63b8ff" points="713.8,-91.36 723.08,-86.25 712.64,-84.46 713.8,-91.36"/>
</g>
<!-- Node16 -->
<g id="node16" class="node">
<title>Node16</title>
<g id="a_node16"><a xlink:title=" ">
<polygon fill="#e0e0e0" stroke="#999999" points="525.5,-150 477.25,-150 477.25,-130 525.5,-130 525.5,-150"/>
<text text-anchor="middle" x="501.38" y="-136.5" font-family="Helvetica,sans-Serif" font-size="10.00">random</text>
</a>
</g>
</g>
<!-- Node1&#45;&gt;Node16 -->
<g id="edge17" class="edge">
<title>Node1&#45;&gt;Node16</title>
<path fill="none" stroke="#63b8ff" d="M501.38,-191.62C501.38,-183.56 501.38,-171.65 501.38,-161.41"/>
<polygon fill="#63b8ff" stroke="#63b8ff" points="504.88,-161.63 501.38,-151.63 497.88,-161.63 504.88,-161.63"/>
</g>
<!-- Node17 -->
<g id="node17" class="node">
<title>Node17</title>
<g id="a_node17"><a xlink:title=" ">
<polygon fill="#e0e0e0" stroke="#999999" points="583,-150 543.75,-150 543.75,-130 583,-130 583,-150"/>
<text text-anchor="middle" x="563.38" y="-136.5" font-family="Helvetica,sans-Serif" font-size="10.00">limits</text>
</a>
</g>
</g>
<!-- Node1&#45;&gt;Node17 -->
<g id="edge18" class="edge">
<title>Node1&#45;&gt;Node17</title>
<path fill="none" stroke="#63b8ff" d="M511.06,-191.62C520.31,-182.68 534.45,-168.99 545.7,-158.1"/>
<polygon fill="#63b8ff" stroke="#63b8ff" points="548.12,-160.63 552.87,-151.17 543.25,-155.6 548.12,-160.63"/>
</g>
<!-- Node18 -->
<g id="node18" class="node">
<title>Node18</title>
<g id="a_node18"><a xlink:title=" ">
<polygon fill="#e0e0e0" stroke="#999999" points="647.38,-150 601.38,-150 601.38,-130 647.38,-130 647.38,-150"/>
<text text-anchor="middle" x="624.38" y="-136.5" font-family="Helvetica,sans-Serif" font-size="10.00">iterator</text>
</a>
</g>
</g>
<!-- Node1&#45;&gt;Node18 -->
<g id="edge19" class="edge">
<title>Node1&#45;&gt;Node18</title>
<path fill="none" stroke="#63b8ff" d="M520.59,-191.62C540.54,-181.89 571.99,-166.55 595.05,-155.31"/>
<polygon fill="#63b8ff" stroke="#63b8ff" points="596.48,-158.5 603.93,-150.97 593.41,-152.21 596.48,-158.5"/>
</g>
<!-- Node19 -->
<g id="node19" class="node">
<title>Node19</title>
<g id="a_node19"><a xlink:title=" ">
<polygon fill="#e0e0e0" stroke="#999999" points="759.75,-156 665,-156 665,-124 759.75,-124 759.75,-156"/>
<text text-anchor="start" x="673" y="-142.5" font-family="Helvetica,sans-Serif" font-size="10.00">boost/serialization</text>
<text text-anchor="middle" x="712.38" y="-130.5" font-family="Helvetica,sans-Serif" font-size="10.00">/set.hpp</text>
</a>
</g>
</g>
<!-- Node1&#45;&gt;Node19 -->
<g id="edge22" class="edge">
<title>Node1&#45;&gt;Node19</title>
<path fill="none" stroke="#63b8ff" d="M534.34,-191.62C566.34,-182.53 615.59,-168.52 654.18,-157.55"/>
<polygon fill="#63b8ff" stroke="#63b8ff" points="654.64,-161.06 663.3,-154.95 652.73,-154.32 654.64,-161.06"/>
</g>
<!-- Node3 -->
<g id="node3" class="node">
<title>Node3</title>
<g id="a_node3"><a xlink:title=" ">
<polygon fill="#e0e0e0" stroke="#999999" points="659,-20 607.75,-20 607.75,0 659,0 659,-20"/>
<text text-anchor="middle" x="633.38" y="-6.5" font-family="Helvetica,sans-Serif" font-size="10.00">memory</text>
</a>
</g>
</g>
<!-- Node2&#45;&gt;Node3 -->
<g id="edge2" class="edge">
<title>Node2&#45;&gt;Node3</title>
<path fill="none" stroke="#63b8ff" d="M406.42,-129.56C446.61,-118.43 509.74,-99.94 531.38,-88 550.71,-77.33 551.88,-69.47 569.38,-56 582.41,-45.96 597.43,-35.35 609.64,-26.96"/>
<polygon fill="#63b8ff" stroke="#63b8ff" points="611.59,-29.86 617.89,-21.34 607.65,-24.08 611.59,-29.86"/>
</g>
<!-- Node4 -->
<g id="node4" class="node">
<title>Node4</title>
<g id="a_node4"><a xlink:title=" ">
<polygon fill="#e0e0e0" stroke="#999999" points="706.62,-82 578.12,-82 578.12,-62 706.62,-62 706.62,-82"/>
<text text-anchor="middle" x="642.38" y="-68.5" font-family="Helvetica,sans-Serif" font-size="10.00">boost/unordered_map.hpp</text>
</a>
</g>
</g>
<!-- Node2&#45;&gt;Node4 -->
<g id="edge3" class="edge">
<title>Node2&#45;&gt;Node4</title>
<path fill="none" stroke="#63b8ff" d="M410.2,-129.54C458.2,-117.85 539.96,-97.94 592.54,-85.14"/>
<polygon fill="#63b8ff" stroke="#63b8ff" points="593.26,-88.56 602.15,-82.8 591.6,-81.76 593.26,-88.56"/>
</g>
<!-- Node5 -->
<g id="node5" class="node">
<title>Node5</title>
<g id="a_node5"><a xlink:title=" ">
<polygon fill="#e0e0e0" stroke="#999999" points="154.12,-82 112.62,-82 112.62,-62 154.12,-62 154.12,-82"/>
<text text-anchor="middle" x="133.38" y="-68.5" font-family="Helvetica,sans-Serif" font-size="10.00">vector</text>
</a>
</g>
</g>
<!-- Node2&#45;&gt;Node5 -->
<g id="edge4" class="edge">
<title>Node2&#45;&gt;Node5</title>
<path fill="none" stroke="#63b8ff" d="M321.28,-129.99C278.56,-121.53 215.9,-107.3 163.38,-88 162.58,-87.71 161.77,-87.4 160.96,-87.08"/>
<polygon fill="#63b8ff" stroke="#63b8ff" points="162.47,-83.92 151.91,-83.02 159.61,-90.3 162.47,-83.92"/>
</g>
<!-- Node6 -->
<g id="node6" class="node">
<title>Node6</title>
<g id="a_node6"><a xlink:title=" ">
<polygon fill="#e0e0e0" stroke="#999999" points="210.25,-82 172.5,-82 172.5,-62 210.25,-62 210.25,-82"/>
<text text-anchor="middle" x="191.38" y="-68.5" font-family="Helvetica,sans-Serif" font-size="10.00">array</text>
</a>
</g>
</g>
<!-- Node2&#45;&gt;Node6 -->
<g id="edge5" class="edge">
<title>Node2&#45;&gt;Node6</title>
<path fill="none" stroke="#63b8ff" d="M337.86,-129.53C306.65,-120.29 259.11,-105.16 219.38,-88 218.89,-87.79 218.41,-87.58 217.92,-87.36"/>
<polygon fill="#63b8ff" stroke="#63b8ff" points="219.61,-84.29 209.09,-83.02 216.52,-90.57 219.61,-84.29"/>
</g>
<!-- Node2&#45;&gt;Node7 -->
<g id="edge6" class="edge">
<title>Node2&#45;&gt;Node7</title>
<path fill="none" stroke="#63b8ff" d="M321.26,-130.6C269.57,-121.68 186.4,-106.63 105.81,-88.47"/>
<polygon fill="#63b8ff" stroke="#63b8ff" points="106.98,-85.15 96.45,-86.34 105.42,-91.97 106.98,-85.15"/>
</g>
<!-- Node2&#45;&gt;Node8 -->
<g id="edge7" class="edge">
<title>Node2&#45;&gt;Node8</title>
<path fill="none" stroke="#63b8ff" d="M408.81,-129.55C417.49,-127.55 426.73,-125.56 435.38,-124 555.34,-102.29 590.26,-111.46 713.57,-88.18"/>
<polygon fill="#63b8ff" stroke="#63b8ff" points="713.94,-91.67 723.1,-86.34 712.62,-84.8 713.94,-91.67"/>
</g>
<!-- Node9 -->
<g id="node9" class="node">
<title>Node9</title>
<g id="a_node9"><a xlink:title=" ">
<polygon fill="#e0e0e0" stroke="#999999" points="322.75,-88 228,-88 228,-56 322.75,-56 322.75,-88"/>
<text text-anchor="start" x="236" y="-74.5" font-family="Helvetica,sans-Serif" font-size="10.00">boost/serialization</text>
<text text-anchor="middle" x="275.38" y="-62.5" font-family="Helvetica,sans-Serif" font-size="10.00">/array.hpp</text>
</a>
</g>
</g>
<!-- Node2&#45;&gt;Node9 -->
<g id="edge8" class="edge">
<title>Node2&#45;&gt;Node9</title>
<path fill="none" stroke="#63b8ff" d="M357.62,-129.54C344.41,-120.46 323.98,-106.41 306.78,-94.59"/>
<polygon fill="#63b8ff" stroke="#63b8ff" points="309.1,-91.94 298.88,-89.16 305.14,-97.71 309.1,-91.94"/>
</g>
<!-- Node10 -->
<g id="node10" class="node">
<title>Node10</title>
<g id="a_node10"><a xlink:title=" ">
<polygon fill="#e0e0e0" stroke="#999999" points="345.38,-20 305.38,-20 305.38,0 345.38,0 345.38,-20"/>
<text text-anchor="middle" x="325.38" y="-6.5" font-family="Helvetica,sans-Serif" font-size="10.00">string</text>
</a>
</g>
</g>
<!-- Node2&#45;&gt;Node10 -->
<g id="edge9" class="edge">
<title>Node2&#45;&gt;Node10</title>
<path fill="none" stroke="#63b8ff" d="M368.07,-129.79C360.68,-109.23 342.68,-59.16 332.57,-31.03"/>
<polygon fill="#63b8ff" stroke="#63b8ff" points="335.97,-30.12 329.29,-21.89 329.38,-32.49 335.97,-30.12"/>
</g>
<!-- Node11 -->
<g id="node11" class="node">
<title>Node11</title>
<g id="a_node11"><a xlink:title=" ">
<polygon fill="#e0e0e0" stroke="#999999" points="408.12,-82 378.62,-82 378.62,-62 408.12,-62 408.12,-82"/>
<text text-anchor="middle" x="393.38" y="-68.5" font-family="Helvetica,sans-Serif" font-size="10.00">set</text>
</a>
</g>
</g>
<!-- Node2&#45;&gt;Node11 -->
<g id="edge10" class="edge">
<title>Node2&#45;&gt;Node11</title>
<path fill="none" stroke="#63b8ff" d="M374.53,-129.54C377.66,-120.13 382.58,-105.39 386.6,-93.32"/>
<polygon fill="#63b8ff" stroke="#63b8ff" points="389.91,-94.47 389.75,-83.87 383.27,-92.25 389.91,-94.47"/>
</g>
<!-- Node12 -->
<g id="node12" class="node">
<title>Node12</title>
<g id="a_node12"><a xlink:href="FMTexception_8hpp.html" target="_top" xlink:title=" ">
<polygon fill="white" stroke="#666666" points="522.5,-82 426.25,-82 426.25,-62 522.5,-62 522.5,-82"/>
<text text-anchor="middle" x="474.38" y="-68.5" font-family="Helvetica,sans-Serif" font-size="10.00">FMTexception.hpp</text>
</a>
</g>
</g>
<!-- Node2&#45;&gt;Node12 -->
<g id="edge11" class="edge">
<title>Node2&#45;&gt;Node12</title>
<path fill="none" stroke="#63b8ff" d="M386.13,-129.54C402.81,-118.86 430.2,-101.31 450.05,-88.59"/>
<polygon fill="#63b8ff" stroke="#63b8ff" points="451.84,-91.6 458.37,-83.26 448.06,-85.7 451.84,-91.6"/>
</g>
<!-- Node12&#45;&gt;Node3 -->
<g id="edge15" class="edge">
<title>Node12&#45;&gt;Node3</title>
<path fill="none" stroke="#63b8ff" d="M499.22,-61.62C525.74,-51.62 568,-35.67 598,-24.35"/>
<polygon fill="#63b8ff" stroke="#63b8ff" points="598.91,-27.75 607.03,-20.94 596.44,-21.2 598.91,-27.75"/>
</g>
<!-- Node12&#45;&gt;Node10 -->
<g id="edge13" class="edge">
<title>Node12&#45;&gt;Node10</title>
<path fill="none" stroke="#63b8ff" d="M451.09,-61.62C425.51,-51.32 384.32,-34.74 356.11,-23.38"/>
<polygon fill="#63b8ff" stroke="#63b8ff" points="357.61,-20.21 347.03,-19.72 355,-26.7 357.61,-20.21"/>
</g>
<!-- Node13 -->
<g id="node13" class="node">
<title>Node13</title>
<g id="a_node13"><a xlink:title=" ">
<polygon fill="#e0e0e0" stroke="#999999" points="589.38,-20 531.38,-20 531.38,0 589.38,0 589.38,-20"/>
<text text-anchor="middle" x="560.38" y="-6.5" font-family="Helvetica,sans-Serif" font-size="10.00">exception</text>
</a>
</g>
</g>
<!-- Node12&#45;&gt;Node13 -->
<g id="edge12" class="edge">
<title>Node12&#45;&gt;Node13</title>
<path fill="none" stroke="#63b8ff" d="M487.81,-61.62C501.19,-52.29 521.97,-37.79 537.87,-26.7"/>
<polygon fill="#63b8ff" stroke="#63b8ff" points="539.59,-29.77 545.79,-21.18 535.59,-24.03 539.59,-29.77"/>
</g>
<!-- Node14 -->
<g id="node14" class="node">
<title>Node14</title>
<g id="a_node14"><a xlink:title=" ">
<polygon fill="#e0e0e0" stroke="#999999" points="417.12,-20 363.62,-20 363.62,0 417.12,0 417.12,-20"/>
<text text-anchor="middle" x="390.38" y="-6.5" font-family="Helvetica,sans-Serif" font-size="10.00">iostream</text>
</a>
</g>
</g>
<!-- Node12&#45;&gt;Node14 -->
<g id="edge14" class="edge">
<title>Node12&#45;&gt;Node14</title>
<path fill="none" stroke="#63b8ff" d="M461.25,-61.62C448.18,-52.29 427.88,-37.79 412.35,-26.7"/>
<polygon fill="#63b8ff" stroke="#63b8ff" points="414.81,-24.15 404.64,-21.19 410.74,-29.85 414.81,-24.15"/>
</g>
<!-- Node15 -->
<g id="node15" class="node">
<title>Node15</title>
<g id="a_node15"><a xlink:href="FMTutility_8hpp.html" target="_top" xlink:title=" ">
<polygon fill="white" stroke="#666666" points="513.12,-20 435.62,-20 435.62,0 513.12,0 513.12,-20"/>
<text text-anchor="middle" x="474.38" y="-6.5" font-family="Helvetica,sans-Serif" font-size="10.00">FMTutility.hpp</text>
</a>
</g>
</g>
<!-- Node12&#45;&gt;Node15 -->
<g id="edge16" class="edge">
<title>Node12&#45;&gt;Node15</title>
<path fill="none" stroke="#63b8ff" d="M474.38,-61.62C474.38,-53.56 474.38,-41.65 474.38,-31.41"/>
<polygon fill="#63b8ff" stroke="#63b8ff" points="477.88,-31.63 474.38,-21.63 470.88,-31.63 477.88,-31.63"/>
</g>
</g>
</svg>
        <g id="navigator" transform="translate(0 0)" fill="#404254">
                <rect fill="#f2f5e9" fill-opacity="0.5" stroke="#606060" stroke-width=".5" x="0" y="0" width="60" height="60"/>
                <use id="zoomplus" xlink:href="#zoomPlus" x="17" y="9" onmousedown="handleZoom(evt,'in')"/>
                <use id="zoomminus" xlink:href="#zoomMin" x="42" y="9" onmousedown="handleZoom(evt,'out')"/>
                <use id="reset" xlink:href="#resetDef" x="30" y="36" onmousedown="handleReset()"/>
                <g id="arrowUp" xlink:href="#dirArrow" transform="translate(30 24)" onmousedown="handlePan(0,-1)">
                  <use xlink:href="#rim" fill="#404040">
                        <set attributeName="fill" to="#808080" begin="arrowUp.mouseover" end="arrowUp.mouseout"/>
                  </use>
                  <path fill="none" stroke="white" stroke-width="1.5" d="M0,-3.0v7 M-2.5,-0.5L0,-3.0L2.5,-0.5"/>
                </g>
                <g id="arrowRight" xlink:href="#dirArrow" transform="rotate(90) translate(36 -43)" onmousedown="handlePan(1,0)">
                  <use xlink:href="#rim" fill="#404040">
                        <set attributeName="fill" to="#808080" begin="arrowRight.mouseover" end="arrowRight.mouseout"/>
                  </use>
                  <path fill="none" stroke="white" stroke-width="1.5" d="M0,-3.0v7 M-2.5,-0.5L0,-3.0L2.5,-0.5"/>
                </g>
                <g id="arrowDown" xlink:href="#dirArrow" transform="rotate(180) translate(-30 -48)" onmousedown="handlePan(0,1)">
                  <use xlink:href="#rim" fill="#404040">
                        <set attributeName="fill" to="#808080" begin="arrowDown.mouseover" end="arrowDown.mouseout"/>
                  </use>
                  <path fill="none" stroke="white" stroke-width="1.5" d="M0,-3.0v7 M-2.5,-0.5L0,-3.0L2.5,-0.5"/>
                </g>
                <g id="arrowLeft" xlink:href="#dirArrow" transform="rotate(270) translate(-36 17)" onmousedown="handlePan(-1,0)">
                  <use xlink:href="#rim" fill="#404040">
                        <set attributeName="fill" to="#808080" begin="arrowLeft.mouseover" end="arrowLeft.mouseout"/>
                  </use>
                  <path fill="none" stroke="white" stroke-width="1.5" d="M0,-3.0v7 M-2.5,-0.5L0,-3.0L2.5,-0.5"/>
                </g>
        </g>
        <svg viewBox="0 0 15 15" width="100%" height="30px" preserveAspectRatio="xMaxYMin meet">
         <g id="arrow_out" transform="scale(0.3 0.3)">
          <a xlink:href="FMTevent_8hpp__incl_org.svg" target="_base">
           <rect id="button" ry="5" rx="5" y="6" x="6" height="38" width="38"
                fill="#f2f5e9" fill-opacity="0.5" stroke="#606060" stroke-width="1.0"/>
           <path id="arrow"
             d="M 11.500037,31.436501 C 11.940474,20.09759 22.043105,11.32322 32.158766,21.979434 L 37.068811,17.246167 C 37.068811,17.246167 37.088388,32 37.088388,32 L 22.160133,31.978069 C 22.160133,31.978069 26.997745,27.140456 26.997745,27.140456 C 18.528582,18.264221 13.291696,25.230495 11.500037,31.436501 z"
             style="fill:#404040;"/>
          </a>
         </g>
        </svg>
</svg>
