<?xml version="1.0" encoding="UTF-8" standalone="no"?>
<!DOCTYPE svg PUBLIC "-//W3C//DTD SVG 1.1//EN"
 "http://www.w3.org/Graphics/SVG/1.1/DTD/svg11.dtd">
<!-- Generated by graphviz version 10.0.1 (20240210.2158)
 -->
<!-- Title: D:/FMT/Include/FMTedgeproperties.hpp Pages: 1 -->
<svg width="446pt" height="152pt"
 viewBox="0.00 0.00 446.38 152.00" xmlns="http://www.w3.org/2000/svg" xmlns:xlink="http://www.w3.org/1999/xlink">
<g id="graph0" class="graph" transform="scale(1 1) rotate(0) translate(4 148)">
<title>D:/FMT/Include/FMTedgeproperties.hpp</title>
<!-- Node1 -->
<g id="node1" class="node">
<title>Node1</title>
<g id="a_node1"><a xlink:title=" ">
<polygon fill="#999999" stroke="#666666" points="354.88,-144 167.88,-144 167.88,-124 354.88,-124 354.88,-144"/>
<text text-anchor="middle" x="261.38" y="-130.5" font-family="Helvetica,sans-Serif" font-size="10.00">D:/FMT/Include/FMTedgeproperties.hpp</text>
</a>
</g>
</g>
<!-- Node2 -->
<g id="node2" class="node">
<title>Node2</title>
<g id="a_node2"><a xlink:title=" ">
<polygon fill="#e0e0e0" stroke="#999999" points="94.75,-32 0,-32 0,0 94.75,0 94.75,-32"/>
<text text-anchor="start" x="8" y="-18.5" font-family="Helvetica,sans-Serif" font-size="10.00">boost/serialization</text>
<text text-anchor="middle" x="47.38" y="-6.5" font-family="Helvetica,sans-Serif" font-size="10.00">/serialization.hpp</text>
</a>
</g>
</g>
<!-- Node1&#45;&gt;Node2 -->
<g id="edge1" class="edge">
<title>Node1&#45;&gt;Node2</title>
<path fill="none" stroke="#63b8ff" d="M240.2,-123.51C220.98,-114.74 191.95,-101.12 167.38,-88 137.85,-72.24 105.22,-52.79 81.45,-38.24"/>
<polygon fill="#63b8ff" stroke="#63b8ff" points="83.47,-35.38 73.12,-33.12 79.81,-41.34 83.47,-35.38"/>
</g>
<!-- Node3 -->
<g id="node3" class="node">
<title>Node3</title>
<g id="a_node3"><a xlink:title=" ">
<polygon fill="#e0e0e0" stroke="#999999" points="207.75,-32 113,-32 113,0 207.75,0 207.75,-32"/>
<text text-anchor="start" x="121" y="-18.5" font-family="Helvetica,sans-Serif" font-size="10.00">boost/serialization</text>
<text text-anchor="middle" x="160.38" y="-6.5" font-family="Helvetica,sans-Serif" font-size="10.00">/nvp.hpp</text>
</a>
</g>
</g>
<!-- Node1&#45;&gt;Node3 -->
<g id="edge2" class="edge">
<title>Node1&#45;&gt;Node3</title>
<path fill="none" stroke="#63b8ff" d="M234.44,-123.64C217.27,-116.39 195.82,-104.74 182.38,-88 172.21,-75.35 166.72,-57.99 163.77,-43.6"/>
<polygon fill="#63b8ff" stroke="#63b8ff" points="167.24,-43.14 162.1,-33.88 160.34,-44.32 167.24,-43.14"/>
</g>
<!-- Node4 -->
<g id="node4" class="node">
<title>Node4</title>
<g id="a_node4"><a xlink:title=" ">
<polygon fill="#e0e0e0" stroke="#999999" points="380.12,-26 338.62,-26 338.62,-6 380.12,-6 380.12,-26"/>
<text text-anchor="middle" x="359.38" y="-12.5" font-family="Helvetica,sans-Serif" font-size="10.00">vector</text>
</a>
</g>
</g>
<!-- Node1&#45;&gt;Node4 -->
<g id="edge3" class="edge">
<title>Node1&#45;&gt;Node4</title>
<path fill="none" stroke="#63b8ff" d="M288.49,-123.51C305.43,-116.26 326.42,-104.66 339.38,-88 350.68,-73.47 355.59,-52.87 357.73,-37.6"/>
<polygon fill="#63b8ff" stroke="#63b8ff" points="361.2,-38.1 358.79,-27.78 354.24,-37.35 361.2,-38.1"/>
</g>
<!-- Node5 -->
<g id="node5" class="node">
<title>Node5</title>
<g id="a_node5"><a xlink:title=" ">
<polygon fill="#e0e0e0" stroke="#999999" points="438.38,-26 398.38,-26 398.38,-6 438.38,-6 438.38,-26"/>
<text text-anchor="middle" x="418.38" y="-12.5" font-family="Helvetica,sans-Serif" font-size="10.00">string</text>
</a>
</g>
</g>
<!-- Node1&#45;&gt;Node5 -->
<g id="edge4" class="edge">
<title>Node1&#45;&gt;Node5</title>
<path fill="none" stroke="#63b8ff" d="M290.25,-123.64C310.82,-116.08 338.42,-104.06 359.38,-88 378.57,-73.28 395.64,-51.24 406.42,-35.62"/>
<polygon fill="#63b8ff" stroke="#63b8ff" points="409.07,-37.95 411.71,-27.69 403.25,-34.07 409.07,-37.95"/>
</g>
<!-- Node6 -->
<g id="node6" class="node">
<title>Node6</title>
<g id="a_node6"><a xlink:href="FMTbaseedgeproperties_8hpp.html" target="_top" xlink:title=" ">
<polygon fill="white" stroke="#666666" points="330.88,-88 191.88,-88 191.88,-68 330.88,-68 330.88,-88"/>
<text text-anchor="middle" x="261.38" y="-74.5" font-family="Helvetica,sans-Serif" font-size="10.00">FMTbaseedgeproperties.hpp</text>
</a>
</g>
</g>
<!-- Node1&#45;&gt;Node6 -->
<g id="edge5" class="edge">
<title>Node1&#45;&gt;Node6</title>
<path fill="none" stroke="#63b8ff" d="M261.38,-123.59C261.38,-117.01 261.38,-107.96 261.38,-99.73"/>
<polygon fill="#63b8ff" stroke="#63b8ff" points="264.88,-99.81 261.38,-89.81 257.88,-99.81 264.88,-99.81"/>
</g>
<!-- Node6&#45;&gt;Node2 -->
<g id="edge6" class="edge">
<title>Node6&#45;&gt;Node2</title>
<path fill="none" stroke="#63b8ff" d="M227.94,-67.62C195.34,-58.49 145.09,-44.4 105.87,-33.4"/>
<polygon fill="#63b8ff" stroke="#63b8ff" points="106.9,-30.05 96.33,-30.72 105.01,-36.79 106.9,-30.05"/>
</g>
<!-- Node6&#45;&gt;Node3 -->
<g id="edge7" class="edge">
<title>Node6&#45;&gt;Node3</title>
<path fill="none" stroke="#63b8ff" d="M245.59,-67.62C232.33,-59.75 212.87,-48.19 195.9,-38.1"/>
<polygon fill="#63b8ff" stroke="#63b8ff" points="197.94,-35.24 187.56,-33.15 194.36,-41.26 197.94,-35.24"/>
</g>
<!-- Node6&#45;&gt;Node4 -->
<g id="edge9" class="edge">
<title>Node6&#45;&gt;Node4</title>
<path fill="none" stroke="#63b8ff" d="M276.69,-67.62C292.15,-58.16 316.29,-43.38 334.5,-32.23"/>
<polygon fill="#63b8ff" stroke="#63b8ff" points="336.18,-35.31 342.88,-27.1 332.52,-29.34 336.18,-35.31"/>
</g>
<!-- Node6&#45;&gt;Node5 -->
<g id="edge10" class="edge">
<title>Node6&#45;&gt;Node5</title>
<path fill="none" stroke="#63b8ff" d="M292.09,-67.53C318.31,-59.14 356.83,-46.06 389.38,-32 389.86,-31.79 390.34,-31.58 390.83,-31.36"/>
<polygon fill="#63b8ff" stroke="#63b8ff" points="392.22,-34.58 399.72,-27.1 389.19,-28.27 392.22,-34.58"/>
</g>
<!-- Node7 -->
<g id="node7" class="node">
<title>Node7</title>
<g id="a_node7"><a xlink:title=" ">
<polygon fill="#e0e0e0" stroke="#999999" points="320.75,-32 226,-32 226,0 320.75,0 320.75,-32"/>
<text text-anchor="start" x="234" y="-18.5" font-family="Helvetica,sans-Serif" font-size="10.00">boost/serialization</text>
<text text-anchor="middle" x="273.38" y="-6.5" font-family="Helvetica,sans-Serif" font-size="10.00">/export.hpp</text>
</a>
</g>
</g>
<!-- Node6&#45;&gt;Node7 -->
<g id="edge8" class="edge">
<title>Node6&#45;&gt;Node7</title>
<path fill="none" stroke="#63b8ff" d="M263.25,-67.62C264.56,-61.1 266.37,-52.05 268.09,-43.4"/>
<polygon fill="#63b8ff" stroke="#63b8ff" points="271.52,-44.12 270.05,-33.62 264.66,-42.74 271.52,-44.12"/>
</g>
</g>
</svg>
