<?xml version="1.0" encoding="UTF-8" standalone="no"?>
<!DOCTYPE svg PUBLIC "-//W3C//DTD SVG 1.1//EN"
 "http://www.w3.org/Graphics/SVG/1.1/DTD/svg11.dtd">
<!-- Generated by graphviz version 8.1.0 (20230707.0739)
 -->
<!-- Title: C:/Users/CYRGU3/OneDrive &#45; BuroVirtuel/Bureau/FMT/FMT/Include/FMTedgeproperties.hpp Pages: 1 -->
<svg width="446pt" height="176pt"
 viewBox="0.00 0.00 446.38 176.00" xmlns="http://www.w3.org/2000/svg" xmlns:xlink="http://www.w3.org/1999/xlink">
<g id="graph0" class="graph" transform="scale(1 1) rotate(0) translate(4 172)">
<title>C:/Users/CYRGU3/OneDrive &#45; BuroVirtuel/Bureau/FMT/FMT/Include/FMTedgeproperties.hpp</title>
<!-- Node1 -->
<g id="Node000001" class="node">
<title>Node1</title>
<g id="a_Node000001"><a xlink:title=" ">
<polygon fill="#999999" stroke="#666666" points="350,-168 172.75,-168 172.75,-124 350,-124 350,-168"/>
<text text-anchor="start" x="180.75" y="-154.5" font-family="Helvetica,sans-Serif" font-size="10.00">C:/Users/CYRGU3/OneDrive</text>
<text text-anchor="start" x="180.75" y="-142.5" font-family="Helvetica,sans-Serif" font-size="10.00"> &#45; BuroVirtuel/Bureau/FMT</text>
<text text-anchor="middle" x="261.38" y="-130.5" font-family="Helvetica,sans-Serif" font-size="10.00">/FMT/Include/FMTedgeproperties.hpp</text>
</a>
</g>
</g>
<!-- Node2 -->
<g id="Node000002" class="node">
<title>Node2</title>
<g id="a_Node000002"><a xlink:title=" ">
<polygon fill="#e0e0e0" stroke="#999999" points="94.75,-32 0,-32 0,0 94.75,0 94.75,-32"/>
<text text-anchor="start" x="8" y="-18.5" font-family="Helvetica,sans-Serif" font-size="10.00">boost/serialization</text>
<text text-anchor="middle" x="47.38" y="-6.5" font-family="Helvetica,sans-Serif" font-size="10.00">/serialization.hpp</text>
</a>
</g>
</g>
<!-- Node1&#45;&gt;Node2 -->
<g id="edge1_Node000001_Node000002" class="edge">
<title>Node1&#45;&gt;Node2</title>
<g id="a_edge1_Node000001_Node000002"><a xlink:title=" ">
<path fill="none" stroke="#63b8ff" d="M225.56,-123.58C185.68,-99.72 121.67,-61.44 82.2,-37.83"/>
<polygon fill="#63b8ff" stroke="#63b8ff" points="84.58,-34.58 74.2,-32.45 80.99,-40.59 84.58,-34.58"/>
</a>
</g>
</g>
<!-- Node3 -->
<g id="Node000003" class="node">
<title>Node3</title>
<g id="a_Node000003"><a xlink:title=" ">
<polygon fill="#e0e0e0" stroke="#999999" points="207.75,-32 113,-32 113,0 207.75,0 207.75,-32"/>
<text text-anchor="start" x="121" y="-18.5" font-family="Helvetica,sans-Serif" font-size="10.00">boost/serialization</text>
<text text-anchor="middle" x="160.38" y="-6.5" font-family="Helvetica,sans-Serif" font-size="10.00">/nvp.hpp</text>
</a>
</g>
</g>
<!-- Node1&#45;&gt;Node3 -->
<g id="edge2_Node000001_Node000003" class="edge">
<title>Node1&#45;&gt;Node3</title>
<g id="a_edge2_Node000001_Node000003"><a xlink:title=" ">
<path fill="none" stroke="#63b8ff" d="M221.75,-123.68C207.6,-114.37 192.64,-102.28 182.38,-88 172.87,-74.77 167.39,-57.32 164.27,-43.03"/>
<polygon fill="#63b8ff" stroke="#63b8ff" points="167.56,-42.56 162.25,-33.39 160.68,-43.87 167.56,-42.56"/>
</a>
</g>
</g>
<!-- Node4 -->
<g id="Node000004" class="node">
<title>Node4</title>
<g id="a_Node000004"><a xlink:title=" ">
<polygon fill="#e0e0e0" stroke="#999999" points="380.12,-26 338.62,-26 338.62,-6 380.12,-6 380.12,-26"/>
<text text-anchor="middle" x="359.38" y="-12.5" font-family="Helvetica,sans-Serif" font-size="10.00">vector</text>
</a>
</g>
</g>
<!-- Node1&#45;&gt;Node4 -->
<g id="edge3_Node000001_Node000004" class="edge">
<title>Node1&#45;&gt;Node4</title>
<g id="a_edge3_Node000001_Node000004"><a xlink:title=" ">
<path fill="none" stroke="#63b8ff" d="M300.69,-123.73C314.68,-114.42 329.42,-102.33 339.38,-88 349.98,-72.73 354.99,-51.94 357.34,-36.81"/>
<polygon fill="#63b8ff" stroke="#63b8ff" points="360.91,-37.46 358.71,-27.1 353.97,-36.57 360.91,-37.46"/>
</a>
</g>
</g>
<!-- Node5 -->
<g id="Node000005" class="node">
<title>Node5</title>
<g id="a_Node000005"><a xlink:title=" ">
<polygon fill="#e0e0e0" stroke="#999999" points="438.38,-26 398.38,-26 398.38,-6 438.38,-6 438.38,-26"/>
<text text-anchor="middle" x="418.38" y="-12.5" font-family="Helvetica,sans-Serif" font-size="10.00">string</text>
</a>
</g>
</g>
<!-- Node1&#45;&gt;Node5 -->
<g id="edge4_Node000001_Node000005" class="edge">
<title>Node1&#45;&gt;Node5</title>
<g id="a_edge4_Node000001_Node000005"><a xlink:title=" ">
<path fill="none" stroke="#63b8ff" d="M304.97,-123.5C322.46,-113.86 342.24,-101.59 358.38,-88 377.18,-72.15 394.86,-50.02 406.08,-34.69"/>
<polygon fill="#63b8ff" stroke="#63b8ff" points="409.22,-37.32 412.19,-27.15 403.53,-33.25 409.22,-37.32"/>
</a>
</g>
</g>
<!-- Node6 -->
<g id="Node000006" class="node">
<title>Node6</title>
<g id="a_Node000006"><a xlink:href="FMTbaseedgeproperties_8hpp.html" target="_top" xlink:title=" ">
<polygon fill="white" stroke="#666666" points="330.88,-88 191.88,-88 191.88,-68 330.88,-68 330.88,-88"/>
<text text-anchor="middle" x="261.38" y="-74.5" font-family="Helvetica,sans-Serif" font-size="10.00">FMTbaseedgeproperties.hpp</text>
</a>
</g>
</g>
<!-- Node1&#45;&gt;Node6 -->
<g id="edge5_Node000001_Node000006" class="edge">
<title>Node1&#45;&gt;Node6</title>
<g id="a_edge5_Node000001_Node000006"><a xlink:title=" ">
<path fill="none" stroke="#63b8ff" d="M261.38,-123.75C261.38,-115.94 261.38,-107.11 261.38,-99.38"/>
<polygon fill="#63b8ff" stroke="#63b8ff" points="264.88,-99.42 261.38,-89.42 257.88,-99.42 264.88,-99.42"/>
</a>
</g>
</g>
<!-- Node6&#45;&gt;Node2 -->
<g id="edge6_Node000006_Node000002" class="edge">
<title>Node6&#45;&gt;Node2</title>
<g id="a_edge6_Node000006_Node000002"><a xlink:title=" ">
<path fill="none" stroke="#63b8ff" d="M227.94,-67.62C195.2,-58.45 144.66,-44.28 105.37,-33.26"/>
<polygon fill="#63b8ff" stroke="#63b8ff" points="106.44,-29.65 95.87,-30.32 104.55,-36.39 106.44,-29.65"/>
</a>
</g>
</g>
<!-- Node6&#45;&gt;Node3 -->
<g id="edge7_Node000006_Node000003" class="edge">
<title>Node6&#45;&gt;Node3</title>
<g id="a_edge7_Node000006_Node000003"><a xlink:title=" ">
<path fill="none" stroke="#63b8ff" d="M245.59,-67.62C232.21,-59.67 212.51,-47.97 195.42,-37.82"/>
<polygon fill="#63b8ff" stroke="#63b8ff" points="197.64,-34.47 187.25,-32.37 194.06,-40.49 197.64,-34.47"/>
</a>
</g>
</g>
<!-- Node6&#45;&gt;Node4 -->
<g id="edge9_Node000006_Node000004" class="edge">
<title>Node6&#45;&gt;Node4</title>
<g id="a_edge9_Node000006_Node000004"><a xlink:title=" ">
<path fill="none" stroke="#63b8ff" d="M276.69,-67.62C292.29,-58.07 316.74,-43.11 335.01,-31.92"/>
<polygon fill="#63b8ff" stroke="#63b8ff" points="336.47,-34.52 343.17,-26.31 332.81,-28.55 336.47,-34.52"/>
</a>
</g>
</g>
<!-- Node6&#45;&gt;Node5 -->
<g id="edge10_Node000006_Node000005" class="edge">
<title>Node6&#45;&gt;Node5</title>
<g id="a_edge10_Node000006_Node000005"><a xlink:title=" ">
<path fill="none" stroke="#63b8ff" d="M292.09,-67.53C318.31,-59.14 356.83,-46.06 389.38,-32 389.98,-31.74 390.58,-31.47 391.19,-31.2"/>
<polygon fill="#63b8ff" stroke="#63b8ff" points="392.59,-33.93 400.08,-26.44 389.55,-27.62 392.59,-33.93"/>
</a>
</g>
</g>
<!-- Node7 -->
<g id="Node000007" class="node">
<title>Node7</title>
<g id="a_Node000007"><a xlink:title=" ">
<polygon fill="#e0e0e0" stroke="#999999" points="320.75,-32 226,-32 226,0 320.75,0 320.75,-32"/>
<text text-anchor="start" x="234" y="-18.5" font-family="Helvetica,sans-Serif" font-size="10.00">boost/serialization</text>
<text text-anchor="middle" x="273.38" y="-6.5" font-family="Helvetica,sans-Serif" font-size="10.00">/export.hpp</text>
</a>
</g>
</g>
<!-- Node6&#45;&gt;Node7 -->
<g id="edge8_Node000006_Node000007" class="edge">
<title>Node6&#45;&gt;Node7</title>
<g id="a_edge8_Node000006_Node000007"><a xlink:title=" ">
<path fill="none" stroke="#63b8ff" d="M263.25,-67.62C264.58,-60.95 266.45,-51.64 268.21,-42.82"/>
<polygon fill="#63b8ff" stroke="#63b8ff" points="271.82,-43.63 270.35,-33.14 264.95,-42.26 271.82,-43.63"/>
</a>
</g>
</g>
</g>
</svg>
