<?xml version="1.0" encoding="UTF-8" standalone="no"?>
<!DOCTYPE svg PUBLIC "-//W3C//DTD SVG 1.1//EN"
 "http://www.w3.org/Graphics/SVG/1.1/DTD/svg11.dtd">
<!-- Generated by graphviz version 10.0.1 (20240210.2158)
 -->
<!-- Title: D:/FMT/Include/FMTforest.hpp Pages: 1 -->
<!--zoomable 332 -->
<svg id="main" version="1.1" xmlns="http://www.w3.org/2000/svg" xmlns:xlink="http://www.w3.org/1999/xlink" xml:space="preserve" onload="init(evt)">
<style type="text/css"><![CDATA[
.edge:hover path { stroke: red; }
.edge:hover polygon { stroke: red; fill: red; }
]]></style>
<script type="text/javascript"><![CDATA[
var edges = document.getElementsByTagName('g');
if (edges && edges.length) {
  for (var i=0;i<edges.length;i++) {
    if (edges[i].id.substr(0,4)=='edge') {
      edges[i].setAttribute('class','edge');
    }
  }
}
]]></script>
        <defs>
                <circle id="rim" cx="0" cy="0" r="7"/>
                <circle id="rim2" cx="0" cy="0" r="3.5"/>
                <g id="zoomPlus">
                        <use xlink:href="#rim" fill="#404040">
                                <set attributeName="fill" to="#808080" begin="zoomplus.mouseover" end="zoomplus.mouseout"/>
                        </use>
                        <path d="M-4,0h8M0,-4v8" fill="none" stroke="white" stroke-width="1.5" pointer-events="none"/>
                </g>
                <g id="zoomMin">
                        <use xlink:href="#rim" fill="#404040">
                                <set attributeName="fill" to="#808080" begin="zoomminus.mouseover" end="zoomminus.mouseout"/>
                        </use>
                        <path d="M-4,0h8" fill="none" stroke="white" stroke-width="1.5" pointer-events="none"/>
                </g>
                <g id="dirArrow">
                        <path fill="none" stroke="white" stroke-width="1.5" d="M0,-3.0v7 M-2.5,-0.5L0,-3.0L2.5,-0.5"/>
                </g>
               <g id="resetDef">
                       <use xlink:href="#rim2" fill="#404040">
                               <set attributeName="fill" to="#808080" begin="reset.mouseover" end="reset.mouseout"/>
                       </use>
               </g>
        </defs>

<script type="text/javascript">
var viewWidth = 2651;
var viewHeight = 332;
var sectionId = 'dynsection-0';
</script>
<script xlink:href="svgpan.js"/>
<svg id="graph" class="graph">
<g id="viewport">
<title>D:/FMT/Include/FMTforest.hpp</title>
<!-- Node1 -->
<g id="node1" class="node">
<title>Node1</title>
<g id="a_node1"><a xlink:title=" ">
<polygon fill="#999999" stroke="#666666" points="1256.01,-324 1108.76,-324 1108.76,-304 1256.01,-304 1256.01,-324"/>
<text text-anchor="middle" x="1182.39" y="-310.5" font-family="Helvetica,sans-Serif" font-size="10.00">D:/FMT/Include/FMTforest.hpp</text>
</a>
</g>
</g>
<!-- Node2 -->
<g id="node2" class="node">
<title>Node2</title>
<g id="a_node2"><a xlink:href="FMTlayer_8hpp.html" target="_top" xlink:title=" ">
<polygon fill="white" stroke="#666666" points="761.01,-268 685.76,-268 685.76,-248 761.01,-248 761.01,-268"/>
<text text-anchor="middle" x="723.39" y="-254.5" font-family="Helvetica,sans-Serif" font-size="10.00">FMTlayer.hpp</text>
</a>
</g>
</g>
<!-- Node1&#45;&gt;Node2 -->
<g id="edge1" class="edge">
<title>Node1&#45;&gt;Node2</title>
<path fill="none" stroke="#63b8ff" d="M1108.39,-304.29C1014.01,-293.19 853.4,-274.29 772.72,-264.8"/>
<polygon fill="#63b8ff" stroke="#63b8ff" points="773.26,-261.34 762.92,-263.65 772.44,-268.29 773.26,-261.34"/>
</g>
<!-- Node29 -->
<g id="node29" class="node">
<title>Node29</title>
<g id="a_node29"><a xlink:href="FMTdevelopment_8hpp.html" target="_top" xlink:title=" ">
<polygon fill="white" stroke="#666666" points="1189.51,-268 1081.26,-268 1081.26,-248 1189.51,-248 1189.51,-268"/>
<text text-anchor="middle" x="1135.39" y="-254.5" font-family="Helvetica,sans-Serif" font-size="10.00">FMTdevelopment.hpp</text>
</a>
</g>
</g>
<!-- Node1&#45;&gt;Node29 -->
<g id="edge45" class="edge">
<title>Node1&#45;&gt;Node29</title>
<path fill="none" stroke="#63b8ff" d="M1174.2,-303.59C1167.8,-296.24 1158.71,-285.8 1150.94,-276.87"/>
<polygon fill="#63b8ff" stroke="#63b8ff" points="1153.68,-274.69 1144.48,-269.44 1148.4,-279.28 1153.68,-274.69"/>
</g>
<!-- Node37 -->
<g id="node37" class="node">
<title>Node37</title>
<g id="a_node37"><a xlink:title=" ">
<polygon fill="#e0e0e0" stroke="#999999" points="1253.39,-268 1207.39,-268 1207.39,-248 1253.39,-248 1253.39,-268"/>
<text text-anchor="middle" x="1230.39" y="-254.5" font-family="Helvetica,sans-Serif" font-size="10.00">iterator</text>
</a>
</g>
</g>
<!-- Node1&#45;&gt;Node37 -->
<g id="edge68" class="edge">
<title>Node1&#45;&gt;Node37</title>
<path fill="none" stroke="#63b8ff" d="M1190.75,-303.59C1197.29,-296.24 1206.57,-285.8 1214.51,-276.87"/>
<polygon fill="#63b8ff" stroke="#63b8ff" points="1217.09,-279.23 1221.12,-269.43 1211.86,-274.58 1217.09,-279.23"/>
</g>
<!-- Node38 -->
<g id="node38" class="node">
<title>Node38</title>
<g id="a_node38"><a xlink:title=" ">
<polygon fill="#e0e0e0" stroke="#999999" points="1321.64,-268 1271.14,-268 1271.14,-248 1321.64,-248 1321.64,-268"/>
<text text-anchor="middle" x="1296.39" y="-254.5" font-family="Helvetica,sans-Serif" font-size="10.00">numeric</text>
</a>
</g>
</g>
<!-- Node1&#45;&gt;Node38 -->
<g id="edge69" class="edge">
<title>Node1&#45;&gt;Node38</title>
<path fill="none" stroke="#63b8ff" d="M1202.25,-303.59C1219.87,-295.24 1245.9,-282.92 1266.12,-273.34"/>
<polygon fill="#63b8ff" stroke="#63b8ff" points="1267.47,-276.57 1275.01,-269.13 1264.47,-270.25 1267.47,-276.57"/>
</g>
<!-- Node3 -->
<g id="node3" class="node">
<title>Node3</title>
<g id="a_node3"><a xlink:title=" ">
<polygon fill="#e0e0e0" stroke="#999999" points="493.01,-20 441.76,-20 441.76,0 493.01,0 493.01,-20"/>
<text text-anchor="middle" x="467.39" y="-6.5" font-family="Helvetica,sans-Serif" font-size="10.00">memory</text>
</a>
</g>
</g>
<!-- Node2&#45;&gt;Node3 -->
<g id="edge2" class="edge">
<title>Node2&#45;&gt;Node3</title>
<path fill="none" stroke="#63b8ff" d="M685.64,-257.31C553.18,-258 115.26,-256.87 73.39,-212 39.46,-175.64 -88.94,-230.77 104.39,-56 151.59,-13.33 347.33,-9.89 430.13,-10.41"/>
<polygon fill="#63b8ff" stroke="#63b8ff" points="429.95,-13.91 439.98,-10.5 430.02,-6.91 429.95,-13.91"/>
</g>
<!-- Node4 -->
<g id="node4" class="node">
<title>Node4</title>
<g id="a_node4"><a xlink:title=" ">
<polygon fill="#e0e0e0" stroke="#999999" points="116.76,-212 82.01,-212 82.01,-192 116.76,-192 116.76,-212"/>
<text text-anchor="middle" x="99.39" y="-198.5" font-family="Helvetica,sans-Serif" font-size="10.00">map</text>
</a>
</g>
</g>
<!-- Node2&#45;&gt;Node4 -->
<g id="edge3" class="edge">
<title>Node2&#45;&gt;Node4</title>
<path fill="none" stroke="#63b8ff" d="M685.58,-256.83C591.15,-255.82 337.64,-249.53 130.39,-212 129.56,-211.85 128.73,-211.69 127.88,-211.51"/>
<polygon fill="#63b8ff" stroke="#63b8ff" points="128.96,-208.17 118.41,-209.15 127.27,-214.97 128.96,-208.17"/>
</g>
<!-- Node5 -->
<g id="node5" class="node">
<title>Node5</title>
<g id="a_node5"><a xlink:title=" ">
<polygon fill="#e0e0e0" stroke="#999999" points="582.14,-150 540.64,-150 540.64,-130 582.14,-130 582.14,-150"/>
<text text-anchor="middle" x="561.39" y="-136.5" font-family="Helvetica,sans-Serif" font-size="10.00">vector</text>
</a>
</g>
</g>
<!-- Node2&#45;&gt;Node5 -->
<g id="edge4" class="edge">
<title>Node2&#45;&gt;Node5</title>
<path fill="none" stroke="#63b8ff" d="M710.13,-247.51C682.35,-227.61 617.75,-181.36 583.55,-156.87"/>
<polygon fill="#63b8ff" stroke="#63b8ff" points="585.78,-154.16 575.61,-151.18 581.7,-159.85 585.78,-154.16"/>
</g>
<!-- Node6 -->
<g id="node6" class="node">
<title>Node6</title>
<g id="a_node6"><a xlink:href="FMTcoordinate_8hpp.html" target="_top" xlink:title=" ">
<polygon fill="white" stroke="#666666" points="866.01,-212 766.76,-212 766.76,-192 866.01,-192 866.01,-212"/>
<text text-anchor="middle" x="816.39" y="-198.5" font-family="Helvetica,sans-Serif" font-size="10.00">FMTcoordinate.hpp</text>
</a>
</g>
</g>
<!-- Node2&#45;&gt;Node6 -->
<g id="edge5" class="edge">
<title>Node2&#45;&gt;Node6</title>
<path fill="none" stroke="#63b8ff" d="M739.59,-247.59C753.64,-239.44 774.22,-227.48 790.55,-218"/>
<polygon fill="#63b8ff" stroke="#63b8ff" points="791.86,-221.29 798.75,-213.24 788.35,-215.23 791.86,-221.29"/>
</g>
<!-- Node10 -->
<g id="node10" class="node">
<title>Node10</title>
<g id="a_node10"><a xlink:title=" ">
<polygon fill="#e0e0e0" stroke="#999999" points="1024.76,-156 930.01,-156 930.01,-124 1024.76,-124 1024.76,-156"/>
<text text-anchor="start" x="938.01" y="-142.5" font-family="Helvetica,sans-Serif" font-size="10.00">boost/serialization</text>
<text text-anchor="middle" x="977.39" y="-130.5" font-family="Helvetica,sans-Serif" font-size="10.00">/nvp.hpp</text>
</a>
</g>
</g>
<!-- Node2&#45;&gt;Node10 -->
<g id="edge30" class="edge">
<title>Node2&#45;&gt;Node10</title>
<path fill="none" stroke="#63b8ff" d="M761.48,-249.3C793,-242.09 838.43,-229.76 875.39,-212 902.63,-198.91 930.6,-178.89 950.34,-163.44"/>
<polygon fill="#63b8ff" stroke="#63b8ff" points="952.51,-166.18 958.15,-157.21 948.15,-160.71 952.51,-166.18"/>
</g>
<!-- Node18 -->
<g id="node18" class="node">
<title>Node18</title>
<g id="a_node18"><a xlink:href="FMTobject_8hpp.html" target="_top" xlink:title=" ">
<polygon fill="white" stroke="#666666" points="577.64,-212 497.14,-212 497.14,-192 577.64,-192 577.64,-212"/>
<text text-anchor="middle" x="537.39" y="-198.5" font-family="Helvetica,sans-Serif" font-size="10.00">FMTobject.hpp</text>
</a>
</g>
</g>
<!-- Node2&#45;&gt;Node18 -->
<g id="edge21" class="edge">
<title>Node2&#45;&gt;Node18</title>
<path fill="none" stroke="#63b8ff" d="M690.99,-247.59C660.51,-238.74 614.63,-225.43 580.95,-215.65"/>
<polygon fill="#63b8ff" stroke="#63b8ff" points="582.07,-212.33 571.49,-212.9 580.12,-219.05 582.07,-212.33"/>
</g>
<!-- Node23 -->
<g id="node23" class="node">
<title>Node23</title>
<g id="a_node23"><a xlink:href="FMTexceptionhandler_8hpp.html" target="_top" xlink:title=" ">
<polygon fill="white" stroke="#666666" points="1298.26,-212 1170.51,-212 1170.51,-192 1298.26,-192 1298.26,-212"/>
<text text-anchor="middle" x="1234.39" y="-198.5" font-family="Helvetica,sans-Serif" font-size="10.00">FMTexceptionhandler.hpp</text>
</a>
</g>
</g>
<!-- Node2&#45;&gt;Node23 -->
<g id="edge31" class="edge">
<title>Node2&#45;&gt;Node23</title>
<path fill="none" stroke="#63b8ff" d="M761.38,-252.99C845.38,-244.11 1048.18,-222.68 1159,-210.97"/>
<polygon fill="#63b8ff" stroke="#63b8ff" points="1159.32,-214.45 1168.9,-209.92 1158.59,-207.49 1159.32,-214.45"/>
</g>
<!-- Node6&#45;&gt;Node3 -->
<g id="edge6" class="edge">
<title>Node6&#45;&gt;Node3</title>
<path fill="none" stroke="#63b8ff" d="M811.72,-191.6C803.34,-175.6 784.26,-142.96 759.39,-124 679.55,-63.13 562.93,-31.28 504.16,-18.25"/>
<polygon fill="#63b8ff" stroke="#63b8ff" points="505.19,-14.89 494.68,-16.21 503.72,-21.74 505.19,-14.89"/>
</g>
<!-- Node6&#45;&gt;Node5 -->
<g id="edge8" class="edge">
<title>Node6&#45;&gt;Node5</title>
<path fill="none" stroke="#63b8ff" d="M766.68,-194.93C720.41,-188.39 649.98,-176.1 591.39,-156 590.43,-155.67 589.45,-155.31 588.48,-154.94"/>
<polygon fill="#63b8ff" stroke="#63b8ff" points="590.13,-151.84 579.57,-150.99 587.29,-158.24 590.13,-151.84"/>
</g>
<!-- Node7 -->
<g id="node7" class="node">
<title>Node7</title>
<g id="a_node7"><a xlink:title=" ">
<polygon fill="#e0e0e0" stroke="#999999" points="1171.64,-150 1043.14,-150 1043.14,-130 1171.64,-130 1171.64,-150"/>
<text text-anchor="middle" x="1107.39" y="-136.5" font-family="Helvetica,sans-Serif" font-size="10.00">boost/unordered_map.hpp</text>
</a>
</g>
</g>
<!-- Node6&#45;&gt;Node7 -->
<g id="edge7" class="edge">
<title>Node6&#45;&gt;Node7</title>
<path fill="none" stroke="#63b8ff" d="M862.18,-191.56C913.09,-181.06 995.39,-164.09 1050.42,-152.75"/>
<polygon fill="#63b8ff" stroke="#63b8ff" points="1050.82,-156.24 1059.9,-150.79 1049.4,-149.38 1050.82,-156.24"/>
</g>
<!-- Node8 -->
<g id="node8" class="node">
<title>Node8</title>
<g id="a_node8"><a xlink:title=" ">
<polygon fill="#e0e0e0" stroke="#999999" points="638.26,-150 600.51,-150 600.51,-130 638.26,-130 638.26,-150"/>
<text text-anchor="middle" x="619.39" y="-136.5" font-family="Helvetica,sans-Serif" font-size="10.00">array</text>
</a>
</g>
</g>
<!-- Node6&#45;&gt;Node8 -->
<g id="edge9" class="edge">
<title>Node6&#45;&gt;Node8</title>
<path fill="none" stroke="#63b8ff" d="M769.19,-191.51C734.77,-183.86 687.35,-171.78 647.39,-156 646.76,-155.75 646.13,-155.5 645.5,-155.23"/>
<polygon fill="#63b8ff" stroke="#63b8ff" points="647.27,-152.19 636.74,-151.03 644.25,-158.51 647.27,-152.19"/>
</g>
<!-- Node9 -->
<g id="node9" class="node">
<title>Node9</title>
<g id="a_node9"><a xlink:title=" ">
<polygon fill="#e0e0e0" stroke="#999999" points="1739.76,-156 1645.01,-156 1645.01,-124 1739.76,-124 1739.76,-156"/>
<text text-anchor="start" x="1653.01" y="-142.5" font-family="Helvetica,sans-Serif" font-size="10.00">boost/serialization</text>
<text text-anchor="middle" x="1692.39" y="-130.5" font-family="Helvetica,sans-Serif" font-size="10.00">/serialization.hpp</text>
</a>
</g>
</g>
<!-- Node6&#45;&gt;Node9 -->
<g id="edge10" class="edge">
<title>Node6&#45;&gt;Node9</title>
<path fill="none" stroke="#63b8ff" d="M866.39,-199.87C990.58,-196.68 1322.92,-185.83 1598.39,-156 1609.73,-154.77 1621.78,-153.12 1633.34,-151.35"/>
<polygon fill="#63b8ff" stroke="#63b8ff" points="1633.87,-154.81 1643.2,-149.8 1632.78,-147.9 1633.87,-154.81"/>
</g>
<!-- Node6&#45;&gt;Node10 -->
<g id="edge11" class="edge">
<title>Node6&#45;&gt;Node10</title>
<path fill="none" stroke="#63b8ff" d="M841.55,-191.62C863.9,-183.3 897.28,-170.86 925.36,-160.39"/>
<polygon fill="#63b8ff" stroke="#63b8ff" points="926.26,-163.79 934.4,-157.02 923.81,-157.23 926.26,-163.79"/>
</g>
<!-- Node11 -->
<g id="node11" class="node">
<title>Node11</title>
<g id="a_node11"><a xlink:title=" ">
<polygon fill="#e0e0e0" stroke="#999999" points="750.76,-156 656.01,-156 656.01,-124 750.76,-124 750.76,-156"/>
<text text-anchor="start" x="664.01" y="-142.5" font-family="Helvetica,sans-Serif" font-size="10.00">boost/serialization</text>
<text text-anchor="middle" x="703.39" y="-130.5" font-family="Helvetica,sans-Serif" font-size="10.00">/array.hpp</text>
</a>
</g>
</g>
<!-- Node6&#45;&gt;Node11 -->
<g id="edge12" class="edge">
<title>Node6&#45;&gt;Node11</title>
<path fill="none" stroke="#63b8ff" d="M798.73,-191.62C783.68,-183.63 761.51,-171.86 742.33,-161.68"/>
<polygon fill="#63b8ff" stroke="#63b8ff" points="744.15,-158.68 733.68,-157.08 740.87,-164.86 744.15,-158.68"/>
</g>
<!-- Node12 -->
<g id="node12" class="node">
<title>Node12</title>
<g id="a_node12"><a xlink:title=" ">
<polygon fill="#e0e0e0" stroke="#999999" points="1321.39,-20 1281.39,-20 1281.39,0 1321.39,0 1321.39,-20"/>
<text text-anchor="middle" x="1301.39" y="-6.5" font-family="Helvetica,sans-Serif" font-size="10.00">string</text>
</a>
</g>
</g>
<!-- Node6&#45;&gt;Node12 -->
<g id="edge13" class="edge">
<title>Node6&#45;&gt;Node12</title>
<path fill="none" stroke="#63b8ff" d="M820.48,-191.67C828.24,-175.16 846.73,-140.96 873.39,-124 941.49,-80.68 973.17,-107.9 1051.39,-88 1131.29,-67.67 1223.58,-37.45 1270.52,-21.6"/>
<polygon fill="#63b8ff" stroke="#63b8ff" points="1271.39,-24.99 1279.73,-18.47 1269.14,-18.37 1271.39,-24.99"/>
</g>
<!-- Node13 -->
<g id="node13" class="node">
<title>Node13</title>
<g id="a_node13"><a xlink:title=" ">
<polygon fill="#e0e0e0" stroke="#999999" points="912.14,-150 882.64,-150 882.64,-130 912.14,-130 912.14,-150"/>
<text text-anchor="middle" x="897.39" y="-136.5" font-family="Helvetica,sans-Serif" font-size="10.00">set</text>
</a>
</g>
</g>
<!-- Node6&#45;&gt;Node13 -->
<g id="edge14" class="edge">
<title>Node6&#45;&gt;Node13</title>
<path fill="none" stroke="#63b8ff" d="M829.05,-191.62C841.53,-182.38 860.85,-168.07 875.77,-157.01"/>
<polygon fill="#63b8ff" stroke="#63b8ff" points="877.65,-159.97 883.61,-151.21 873.49,-154.35 877.65,-159.97"/>
</g>
<!-- Node14 -->
<g id="node14" class="node">
<title>Node14</title>
<g id="a_node14"><a xlink:href="FMTexception_8hpp.html" target="_top" xlink:title=" ">
<polygon fill="white" stroke="#666666" points="1042.51,-82 946.26,-82 946.26,-62 1042.51,-62 1042.51,-82"/>
<text text-anchor="middle" x="994.39" y="-68.5" font-family="Helvetica,sans-Serif" font-size="10.00">FMTexception.hpp</text>
</a>
</g>
</g>
<!-- Node6&#45;&gt;Node14 -->
<g id="edge15" class="edge">
<title>Node6&#45;&gt;Node14</title>
<path fill="none" stroke="#63b8ff" d="M816.66,-191.56C817.64,-175.5 821.94,-142.78 840.39,-124 865.28,-98.66 903.03,-85.91 934.92,-79.49"/>
<polygon fill="#63b8ff" stroke="#63b8ff" points="935.23,-83 944.44,-77.75 933.97,-76.11 935.23,-83"/>
</g>
<!-- Node14&#45;&gt;Node3 -->
<g id="edge19" class="edge">
<title>Node14&#45;&gt;Node3</title>
<path fill="none" stroke="#63b8ff" d="M959.16,-61.57C950.46,-59.49 941.13,-57.47 932.39,-56 774.54,-29.4 583.69,-17.07 504.55,-12.81"/>
<polygon fill="#63b8ff" stroke="#63b8ff" points="504.95,-9.33 494.78,-12.3 504.58,-16.32 504.95,-9.33"/>
</g>
<!-- Node14&#45;&gt;Node12 -->
<g id="edge17" class="edge">
<title>Node14&#45;&gt;Node12</title>
<path fill="none" stroke="#63b8ff" d="M1032.02,-61.54C1040.04,-59.62 1048.48,-57.68 1056.39,-56 1132.66,-39.78 1223.03,-24.09 1269.8,-16.22"/>
<polygon fill="#63b8ff" stroke="#63b8ff" points="1270.21,-19.7 1279.49,-14.6 1269.05,-12.8 1270.21,-19.7"/>
</g>
<!-- Node15 -->
<g id="node15" class="node">
<title>Node15</title>
<g id="a_node15"><a xlink:title=" ">
<polygon fill="#e0e0e0" stroke="#999999" points="949.39,-20 891.39,-20 891.39,0 949.39,0 949.39,-20"/>
<text text-anchor="middle" x="920.39" y="-6.5" font-family="Helvetica,sans-Serif" font-size="10.00">exception</text>
</a>
</g>
</g>
<!-- Node14&#45;&gt;Node15 -->
<g id="edge16" class="edge">
<title>Node14&#45;&gt;Node15</title>
<path fill="none" stroke="#63b8ff" d="M982.83,-61.62C971.47,-52.41 953.9,-38.17 940.29,-27.14"/>
<polygon fill="#63b8ff" stroke="#63b8ff" points="942.78,-24.65 932.8,-21.07 938.37,-30.08 942.78,-24.65"/>
</g>
<!-- Node16 -->
<g id="node16" class="node">
<title>Node16</title>
<g id="a_node16"><a xlink:title=" ">
<polygon fill="#e0e0e0" stroke="#999999" points="1021.14,-20 967.64,-20 967.64,0 1021.14,0 1021.14,-20"/>
<text text-anchor="middle" x="994.39" y="-6.5" font-family="Helvetica,sans-Serif" font-size="10.00">iostream</text>
</a>
</g>
</g>
<!-- Node14&#45;&gt;Node16 -->
<g id="edge18" class="edge">
<title>Node14&#45;&gt;Node16</title>
<path fill="none" stroke="#63b8ff" d="M994.39,-61.62C994.39,-53.56 994.39,-41.65 994.39,-31.41"/>
<polygon fill="#63b8ff" stroke="#63b8ff" points="997.89,-31.63 994.39,-21.63 990.89,-31.63 997.89,-31.63"/>
</g>
<!-- Node17 -->
<g id="node17" class="node">
<title>Node17</title>
<g id="a_node17"><a xlink:href="FMTutility_8hpp.html" target="_top" xlink:title=" ">
<polygon fill="white" stroke="#666666" points="1117.14,-20 1039.64,-20 1039.64,0 1117.14,0 1117.14,-20"/>
<text text-anchor="middle" x="1078.39" y="-6.5" font-family="Helvetica,sans-Serif" font-size="10.00">FMTutility.hpp</text>
</a>
</g>
</g>
<!-- Node14&#45;&gt;Node17 -->
<g id="edge20" class="edge">
<title>Node14&#45;&gt;Node17</title>
<path fill="none" stroke="#63b8ff" d="M1007.51,-61.62C1020.58,-52.29 1040.88,-37.79 1056.41,-26.7"/>
<polygon fill="#63b8ff" stroke="#63b8ff" points="1058.02,-29.85 1064.12,-21.19 1053.95,-24.15 1058.02,-29.85"/>
</g>
<!-- Node18&#45;&gt;Node3 -->
<g id="edge26" class="edge">
<title>Node18&#45;&gt;Node3</title>
<path fill="none" stroke="#63b8ff" d="M496.69,-198.93C406.56,-193.92 196.41,-179.79 175.39,-156 98.04,-68.44 335.28,-27.81 430.07,-15.36"/>
<polygon fill="#63b8ff" stroke="#63b8ff" points="430.44,-18.84 439.92,-14.1 429.55,-11.89 430.44,-18.84"/>
</g>
<!-- Node18&#45;&gt;Node5 -->
<g id="edge28" class="edge">
<title>Node18&#45;&gt;Node5</title>
<path fill="none" stroke="#63b8ff" d="M541.14,-191.62C544.43,-183.39 549.34,-171.13 553.49,-160.74"/>
<polygon fill="#63b8ff" stroke="#63b8ff" points="556.72,-162.1 557.18,-151.52 550.22,-159.5 556.72,-162.1"/>
</g>
<!-- Node18&#45;&gt;Node10 -->
<g id="edge23" class="edge">
<title>Node18&#45;&gt;Node10</title>
<path fill="none" stroke="#63b8ff" d="M578.04,-198.18C646.46,-193.03 789.07,-180.47 918.27,-156.44"/>
<polygon fill="#63b8ff" stroke="#63b8ff" points="918.87,-159.89 928.05,-154.59 917.57,-153.01 918.87,-159.89"/>
</g>
<!-- Node18&#45;&gt;Node14 -->
<g id="edge25" class="edge">
<title>Node18&#45;&gt;Node14</title>
<path fill="none" stroke="#63b8ff" d="M532.78,-191.56C525.69,-175.5 514.57,-142.78 531.39,-124 557.86,-94.45 815.75,-80.24 934.76,-75.21"/>
<polygon fill="#63b8ff" stroke="#63b8ff" points="934.82,-78.71 944.66,-74.8 934.53,-71.72 934.82,-78.71"/>
</g>
<!-- Node19 -->
<g id="node19" class="node">
<title>Node19</title>
<g id="a_node19"><a xlink:title=" ">
<polygon fill="#e0e0e0" stroke="#999999" points="278.76,-156 184.01,-156 184.01,-124 278.76,-124 278.76,-156"/>
<text text-anchor="start" x="192.01" y="-142.5" font-family="Helvetica,sans-Serif" font-size="10.00">boost/serialization</text>
<text text-anchor="middle" x="231.39" y="-130.5" font-family="Helvetica,sans-Serif" font-size="10.00">/shared_ptr.hpp</text>
</a>
</g>
</g>
<!-- Node18&#45;&gt;Node19 -->
<g id="edge22" class="edge">
<title>Node18&#45;&gt;Node19</title>
<path fill="none" stroke="#63b8ff" d="M496.91,-194.78C449.53,-187.27 368.47,-173.69 290.03,-156.49"/>
<polygon fill="#63b8ff" stroke="#63b8ff" points="290.98,-153.12 280.46,-154.37 289.46,-159.95 290.98,-153.12"/>
</g>
<!-- Node20 -->
<g id="node20" class="node">
<title>Node20</title>
<g id="a_node20"><a xlink:title=" ">
<polygon fill="#e0e0e0" stroke="#999999" points="1664.76,-88 1570.01,-88 1570.01,-56 1664.76,-56 1664.76,-88"/>
<text text-anchor="start" x="1578.01" y="-74.5" font-family="Helvetica,sans-Serif" font-size="10.00">boost/serialization</text>
<text text-anchor="middle" x="1617.39" y="-62.5" font-family="Helvetica,sans-Serif" font-size="10.00">/export.hpp</text>
</a>
</g>
</g>
<!-- Node18&#45;&gt;Node20 -->
<g id="edge24" class="edge">
<title>Node18&#45;&gt;Node20</title>
<path fill="none" stroke="#63b8ff" d="M577.85,-199.37C752.47,-192.27 1433.7,-164.13 1454.39,-156 1474.94,-147.92 1473.49,-135.42 1492.39,-124 1513.07,-111.5 1537.36,-100.8 1559,-92.47"/>
<polygon fill="#63b8ff" stroke="#63b8ff" points="1560.16,-95.78 1568.3,-88.99 1557.71,-89.22 1560.16,-95.78"/>
</g>
<!-- Node21 -->
<g id="node21" class="node">
<title>Node21</title>
<g id="a_node21"><a xlink:title=" ">
<polygon fill="#e0e0e0" stroke="#999999" points="342.01,-150 296.76,-150 296.76,-130 342.01,-130 342.01,-150"/>
<text text-anchor="middle" x="319.39" y="-136.5" font-family="Helvetica,sans-Serif" font-size="10.00">chrono</text>
</a>
</g>
</g>
<!-- Node18&#45;&gt;Node21 -->
<g id="edge27" class="edge">
<title>Node18&#45;&gt;Node21</title>
<path fill="none" stroke="#63b8ff" d="M496.8,-193.63C458.66,-186.13 400.29,-173.18 351.39,-156 350.26,-155.6 349.12,-155.18 347.97,-154.74"/>
<polygon fill="#63b8ff" stroke="#63b8ff" points="349.7,-151.67 339.13,-150.96 346.95,-158.11 349.7,-151.67"/>
</g>
<!-- Node22 -->
<g id="node22" class="node">
<title>Node22</title>
<g id="a_node22"><a xlink:title=" ">
<polygon fill="#e0e0e0" stroke="#999999" points="484.76,-156 360.01,-156 360.01,-124 484.76,-124 484.76,-156"/>
<text text-anchor="start" x="368.01" y="-142.5" font-family="Helvetica,sans-Serif" font-size="10.00">boost/dll/runtime_symbol</text>
<text text-anchor="middle" x="422.39" y="-130.5" font-family="Helvetica,sans-Serif" font-size="10.00">_info.hpp</text>
</a>
</g>
</g>
<!-- Node18&#45;&gt;Node22 -->
<g id="edge29" class="edge">
<title>Node18&#45;&gt;Node22</title>
<path fill="none" stroke="#63b8ff" d="M519.42,-191.62C504.11,-183.63 481.54,-171.86 462.02,-161.68"/>
<polygon fill="#63b8ff" stroke="#63b8ff" points="463.68,-158.6 453.2,-157.07 460.44,-164.8 463.68,-158.6"/>
</g>
<!-- Node23&#45;&gt;Node3 -->
<g id="edge42" class="edge">
<title>Node23&#45;&gt;Node3</title>
<path fill="none" stroke="#63b8ff" d="M1230.74,-191.53C1223.75,-174.82 1206.79,-140.3 1180.39,-124 1087.49,-66.64 1045.26,-104.83 937.39,-88 776.14,-62.85 584.16,-30.71 504.68,-17.31"/>
<polygon fill="#63b8ff" stroke="#63b8ff" points="505.29,-13.86 494.84,-15.65 504.12,-20.76 505.29,-13.86"/>
</g>
<!-- Node23&#45;&gt;Node9 -->
<g id="edge39" class="edge">
<title>Node23&#45;&gt;Node9</title>
<path fill="none" stroke="#63b8ff" d="M1298.7,-196.26C1377.52,-189.87 1514.97,-176.82 1631.39,-156 1632.06,-155.88 1632.73,-155.76 1633.41,-155.63"/>
<polygon fill="#63b8ff" stroke="#63b8ff" points="1633.97,-159.09 1643.08,-153.68 1632.58,-152.23 1633.97,-159.09"/>
</g>
<!-- Node23&#45;&gt;Node10 -->
<g id="edge40" class="edge">
<title>Node23&#45;&gt;Node10</title>
<path fill="none" stroke="#63b8ff" d="M1190.19,-191.53C1151.97,-183.24 1094.98,-170.62 1036.24,-156.4"/>
<polygon fill="#63b8ff" stroke="#63b8ff" points="1037.27,-153.05 1026.72,-154.09 1035.61,-159.85 1037.27,-153.05"/>
</g>
<!-- Node23&#45;&gt;Node13 -->
<g id="edge43" class="edge">
<title>Node23&#45;&gt;Node13</title>
<path fill="none" stroke="#63b8ff" d="M1170.16,-199.49C1105.52,-196.21 1003.88,-186.18 921.39,-156 921.03,-155.87 920.66,-155.73 920.3,-155.58"/>
<polygon fill="#63b8ff" stroke="#63b8ff" points="921.92,-152.48 911.43,-150.99 918.7,-158.7 921.92,-152.48"/>
</g>
<!-- Node23&#45;&gt;Node20 -->
<g id="edge41" class="edge">
<title>Node23&#45;&gt;Node20</title>
<path fill="none" stroke="#63b8ff" d="M1298.41,-201.62C1390.91,-201.14 1555.56,-194.67 1598.39,-156 1613.87,-142.02 1618.06,-118.24 1618.7,-99.71"/>
<polygon fill="#63b8ff" stroke="#63b8ff" points="1622.2,-99.95 1618.69,-89.95 1615.2,-99.96 1622.2,-99.95"/>
</g>
<!-- Node24 -->
<g id="node24" class="node">
<title>Node24</title>
<g id="a_node24"><a xlink:href="FMTlogger_8hpp.html" target="_top" xlink:title=" ">
<polygon fill="white" stroke="#666666" points="1445.64,-150 1365.14,-150 1365.14,-130 1445.64,-130 1445.64,-150"/>
<text text-anchor="middle" x="1405.39" y="-136.5" font-family="Helvetica,sans-Serif" font-size="10.00">FMTlogger.hpp</text>
</a>
</g>
</g>
<!-- Node23&#45;&gt;Node24 -->
<g id="edge32" class="edge">
<title>Node23&#45;&gt;Node24</title>
<path fill="none" stroke="#63b8ff" d="M1261.11,-191.62C1289.76,-181.57 1335.48,-165.53 1367.77,-154.2"/>
<polygon fill="#63b8ff" stroke="#63b8ff" points="1368.87,-157.52 1377.15,-150.91 1366.55,-150.92 1368.87,-157.52"/>
</g>
<!-- Node27 -->
<g id="node27" class="node">
<title>Node27</title>
<g id="a_node27"><a xlink:title=" ">
<polygon fill="#e0e0e0" stroke="#999999" points="1309.76,-150 1227.01,-150 1227.01,-130 1309.76,-130 1309.76,-150"/>
<text text-anchor="middle" x="1268.39" y="-136.5" font-family="Helvetica,sans-Serif" font-size="10.00">unordered_map</text>
</a>
</g>
</g>
<!-- Node23&#45;&gt;Node27 -->
<g id="edge38" class="edge">
<title>Node23&#45;&gt;Node27</title>
<path fill="none" stroke="#63b8ff" d="M1239.7,-191.62C1244.47,-183.21 1251.62,-170.6 1257.58,-160.07"/>
<polygon fill="#63b8ff" stroke="#63b8ff" points="1260.59,-161.86 1262.48,-151.43 1254.5,-158.4 1260.59,-161.86"/>
</g>
<!-- Node28 -->
<g id="node28" class="node">
<title>Node28</title>
<g id="a_node28"><a xlink:title=" ">
<polygon fill="#e0e0e0" stroke="#999999" points="1589.76,-150 1501.01,-150 1501.01,-130 1589.76,-130 1589.76,-150"/>
<text text-anchor="middle" x="1545.39" y="-136.5" font-family="Helvetica,sans-Serif" font-size="10.00">boost/thread.hpp</text>
</a>
</g>
</g>
<!-- Node23&#45;&gt;Node28 -->
<g id="edge44" class="edge">
<title>Node23&#45;&gt;Node28</title>
<path fill="none" stroke="#63b8ff" d="M1295.22,-191.53C1346.63,-183.21 1422.11,-170.22 1487.39,-156 1491.38,-155.13 1495.52,-154.17 1499.66,-153.18"/>
<polygon fill="#63b8ff" stroke="#63b8ff" points="1500.2,-156.65 1509.06,-150.84 1498.51,-149.86 1500.2,-156.65"/>
</g>
<!-- Node24&#45;&gt;Node12 -->
<g id="edge36" class="edge">
<title>Node24&#45;&gt;Node12</title>
<path fill="none" stroke="#63b8ff" d="M1412.64,-129.66C1424.39,-113.32 1444.7,-79.08 1428.39,-56 1406.82,-25.47 1362.7,-15.52 1332.58,-12.36"/>
<polygon fill="#63b8ff" stroke="#63b8ff" points="1333.18,-8.89 1322.92,-11.55 1332.59,-15.87 1333.18,-8.89"/>
</g>
<!-- Node24&#45;&gt;Node14 -->
<g id="edge37" class="edge">
<title>Node24&#45;&gt;Node14</title>
<path fill="none" stroke="#63b8ff" d="M1373.86,-129.51C1366.53,-127.5 1358.72,-125.54 1351.39,-124 1247.92,-102.33 1125.63,-87.06 1054.37,-79.17"/>
<polygon fill="#63b8ff" stroke="#63b8ff" points="1054.78,-75.7 1044.45,-78.09 1054.01,-82.66 1054.78,-75.7"/>
</g>
<!-- Node24&#45;&gt;Node20 -->
<g id="edge33" class="edge">
<title>Node24&#45;&gt;Node20</title>
<path fill="none" stroke="#63b8ff" d="M1435.76,-129.54C1467.79,-119.57 1519.03,-103.62 1558.93,-91.2"/>
<polygon fill="#63b8ff" stroke="#63b8ff" points="1559.9,-94.56 1568.41,-88.25 1557.82,-87.88 1559.9,-94.56"/>
</g>
<!-- Node25 -->
<g id="node25" class="node">
<title>Node25</title>
<g id="a_node25"><a xlink:title=" ">
<polygon fill="#e0e0e0" stroke="#999999" points="1419.01,-88 1307.76,-88 1307.76,-56 1419.01,-56 1419.01,-88"/>
<text text-anchor="start" x="1315.76" y="-74.5" font-family="Helvetica,sans-Serif" font-size="10.00">boost/thread/recursive</text>
<text text-anchor="middle" x="1363.39" y="-62.5" font-family="Helvetica,sans-Serif" font-size="10.00">_mutex.hpp</text>
</a>
</g>
</g>
<!-- Node24&#45;&gt;Node25 -->
<g id="edge34" class="edge">
<title>Node24&#45;&gt;Node25</title>
<path fill="none" stroke="#63b8ff" d="M1399.37,-129.54C1394.13,-121.3 1386.28,-108.97 1379.25,-97.93"/>
<polygon fill="#63b8ff" stroke="#63b8ff" points="1382.26,-96.14 1373.94,-89.58 1376.35,-99.89 1382.26,-96.14"/>
</g>
<!-- Node26 -->
<g id="node26" class="node">
<title>Node26</title>
<g id="a_node26"><a xlink:title=" ">
<polygon fill="#e0e0e0" stroke="#999999" points="1289.51,-82 1241.26,-82 1241.26,-62 1289.51,-62 1289.51,-82"/>
<text text-anchor="middle" x="1265.39" y="-68.5" font-family="Helvetica,sans-Serif" font-size="10.00">fstream</text>
</a>
</g>
</g>
<!-- Node24&#45;&gt;Node26 -->
<g id="edge35" class="edge">
<title>Node24&#45;&gt;Node26</title>
<path fill="none" stroke="#63b8ff" d="M1385.33,-129.54C1361.84,-118.47 1322.68,-100.01 1295.52,-87.21"/>
<polygon fill="#63b8ff" stroke="#63b8ff" points="1297.32,-84.18 1286.78,-83.08 1294.33,-90.51 1297.32,-84.18"/>
</g>
<!-- Node29&#45;&gt;Node3 -->
<g id="edge64" class="edge">
<title>Node29&#45;&gt;Node3</title>
<path fill="none" stroke="#63b8ff" d="M1081.05,-255.69C884.17,-250.35 216.51,-227.11 156.39,-156 135.96,-131.83 168.78,-64.93 179.39,-56 216.72,-24.57 361.23,-14.96 430.27,-12.13"/>
<polygon fill="#63b8ff" stroke="#63b8ff" points="430.08,-15.64 439.94,-11.76 429.82,-8.64 430.08,-15.64"/>
</g>
<!-- Node29&#45;&gt;Node5 -->
<g id="edge65" class="edge">
<title>Node29&#45;&gt;Node5</title>
<path fill="none" stroke="#63b8ff" d="M1080.96,-254.06C1006.97,-249.27 870.85,-237.6 757.39,-212 681.44,-194.86 663.27,-185.93 591.39,-156 590.77,-155.74 590.14,-155.48 589.51,-155.2"/>
<polygon fill="#63b8ff" stroke="#63b8ff" points="591.2,-152.13 580.66,-151.09 588.25,-158.48 591.2,-152.13"/>
</g>
<!-- Node29&#45;&gt;Node9 -->
<g id="edge60" class="edge">
<title>Node29&#45;&gt;Node9</title>
<path fill="none" stroke="#63b8ff" d="M1181.3,-247.51C1267.54,-229.68 1459.66,-189.89 1621.39,-156 1625.38,-155.16 1629.51,-154.3 1633.66,-153.42"/>
<polygon fill="#63b8ff" stroke="#63b8ff" points="1634.11,-156.91 1643.17,-151.42 1632.67,-150.06 1634.11,-156.91"/>
</g>
<!-- Node29&#45;&gt;Node10 -->
<g id="edge61" class="edge">
<title>Node29&#45;&gt;Node10</title>
<path fill="none" stroke="#63b8ff" d="M1122.46,-247.51C1097.53,-229.21 1042.24,-188.61 1007.57,-163.16"/>
<polygon fill="#63b8ff" stroke="#63b8ff" points="1009.74,-160.41 999.6,-157.31 1005.59,-166.05 1009.74,-160.41"/>
</g>
<!-- Node29&#45;&gt;Node18 -->
<g id="edge63" class="edge">
<title>Node29&#45;&gt;Node18</title>
<path fill="none" stroke="#63b8ff" d="M1081,-252.09C966.43,-241.74 701.6,-217.83 589.26,-207.68"/>
<polygon fill="#63b8ff" stroke="#63b8ff" points="589.71,-204.21 579.43,-206.8 589.08,-211.18 589.71,-204.21"/>
</g>
<!-- Node29&#45;&gt;Node20 -->
<g id="edge66" class="edge">
<title>Node29&#45;&gt;Node20</title>
<path fill="none" stroke="#63b8ff" d="M1189.93,-248.97C1338.4,-226.98 1739.31,-166.73 1748.39,-156 1775.18,-124.31 1722.22,-100.69 1675.83,-86.91"/>
<polygon fill="#63b8ff" stroke="#63b8ff" points="1676.87,-83.57 1666.3,-84.2 1674.96,-90.3 1676.87,-83.57"/>
</g>
<!-- Node29&#45;&gt;Node23 -->
<g id="edge67" class="edge">
<title>Node29&#45;&gt;Node23</title>
<path fill="none" stroke="#63b8ff" d="M1152.63,-247.59C1167.73,-239.36 1189.92,-227.26 1207.37,-217.74"/>
<polygon fill="#63b8ff" stroke="#63b8ff" points="1208.58,-221.07 1215.68,-213.2 1205.23,-214.92 1208.58,-221.07"/>
</g>
<!-- Node30 -->
<g id="node30" class="node">
<title>Node30</title>
<g id="a_node30"><a xlink:href="FMTmask_8hpp.html" target="_top" xlink:title=" ">
<polygon fill="white" stroke="#666666" points="1904.51,-212 1826.26,-212 1826.26,-192 1904.51,-192 1904.51,-212"/>
<text text-anchor="middle" x="1865.39" y="-198.5" font-family="Helvetica,sans-Serif" font-size="10.00">FMTmask.hpp</text>
</a>
</g>
</g>
<!-- Node29&#45;&gt;Node30 -->
<g id="edge46" class="edge">
<title>Node29&#45;&gt;Node30</title>
<path fill="none" stroke="#63b8ff" d="M1189.99,-248.93C1192.83,-248.59 1195.64,-248.28 1198.39,-248 1456.65,-221.62 1522.7,-233.83 1781.39,-212 1792.24,-211.08 1803.85,-209.94 1814.88,-208.78"/>
<polygon fill="#63b8ff" stroke="#63b8ff" points="1815.03,-212.29 1824.6,-207.74 1814.29,-205.33 1815.03,-212.29"/>
</g>
<!-- Node36 -->
<g id="node36" class="node">
<title>Node36</title>
<g id="a_node36"><a xlink:title=" ">
<polygon fill="#e0e0e0" stroke="#999999" points="2642.76,-156 2548.01,-156 2548.01,-124 2642.76,-124 2642.76,-156"/>
<text text-anchor="start" x="2556.01" y="-142.5" font-family="Helvetica,sans-Serif" font-size="10.00">boost/serialization</text>
<text text-anchor="middle" x="2595.39" y="-130.5" font-family="Helvetica,sans-Serif" font-size="10.00">/string.hpp</text>
</a>
</g>
</g>
<!-- Node29&#45;&gt;Node36 -->
<g id="edge62" class="edge">
<title>Node29&#45;&gt;Node36</title>
<path fill="none" stroke="#63b8ff" d="M1189.99,-248.89C1192.83,-248.56 1195.64,-248.27 1198.39,-248 1515.1,-217.47 1595.99,-234.29 1913.39,-212 2189.83,-192.58 2261.06,-201.66 2534.39,-156 2535.06,-155.89 2535.74,-155.77 2536.42,-155.65"/>
<polygon fill="#63b8ff" stroke="#63b8ff" points="2536.95,-159.12 2546.1,-153.77 2535.61,-152.24 2536.95,-159.12"/>
</g>
<!-- Node30&#45;&gt;Node5 -->
<g id="edge58" class="edge">
<title>Node30&#45;&gt;Node5</title>
<path fill="none" stroke="#63b8ff" d="M1825.88,-200.08C1617.43,-195.15 652.58,-171.59 591.39,-156 590.02,-155.65 588.65,-155.24 587.28,-154.77"/>
<polygon fill="#63b8ff" stroke="#63b8ff" points="589.05,-151.72 578.48,-151.02 586.31,-158.16 589.05,-151.72"/>
</g>
<!-- Node30&#45;&gt;Node7 -->
<g id="edge48" class="edge">
<title>Node30&#45;&gt;Node7</title>
<path fill="none" stroke="#63b8ff" d="M1825.93,-199.15C1724.77,-194.21 1448.02,-179.48 1218.39,-156 1206.95,-154.83 1194.88,-153.4 1183.08,-151.9"/>
<polygon fill="#63b8ff" stroke="#63b8ff" points="1183.74,-148.45 1173.37,-150.63 1182.83,-155.39 1183.74,-148.45"/>
</g>
<!-- Node30&#45;&gt;Node9 -->
<g id="edge52" class="edge">
<title>Node30&#45;&gt;Node9</title>
<path fill="none" stroke="#63b8ff" d="M1838.36,-191.62C1814.24,-183.26 1778.16,-170.75 1747.9,-160.25"/>
<polygon fill="#63b8ff" stroke="#63b8ff" points="1749.08,-156.96 1738.48,-156.99 1746.78,-163.57 1749.08,-156.96"/>
</g>
<!-- Node30&#45;&gt;Node10 -->
<g id="edge54" class="edge">
<title>Node30&#45;&gt;Node10</title>
<path fill="none" stroke="#63b8ff" d="M1826.18,-199.93C1686.33,-195.97 1211.47,-181.1 1036.47,-156.02"/>
<polygon fill="#63b8ff" stroke="#63b8ff" points="1037.04,-152.57 1026.63,-154.54 1036,-159.49 1037.04,-152.57"/>
</g>
<!-- Node30&#45;&gt;Node12 -->
<g id="edge59" class="edge">
<title>Node30&#45;&gt;Node12</title>
<path fill="none" stroke="#63b8ff" d="M1904.68,-192.68C1906.27,-192.43 1907.84,-192.2 1909.39,-192 2040.67,-174.67 2590.53,-221.93 2501.39,-124 2420.32,-34.94 1514.65,-14.68 1333,-11.5"/>
<polygon fill="#63b8ff" stroke="#63b8ff" points="1333.22,-8 1323.16,-11.33 1333.1,-15 1333.22,-8"/>
</g>
<!-- Node30&#45;&gt;Node14 -->
<g id="edge57" class="edge">
<title>Node30&#45;&gt;Node14</title>
<path fill="none" stroke="#63b8ff" d="M1825.9,-200.56C1721.64,-198.92 1441.17,-191.25 1356.39,-156 1336,-147.52 1338.48,-133.16 1318.39,-124 1232.2,-84.68 1121.19,-74.93 1054.03,-72.92"/>
<polygon fill="#63b8ff" stroke="#63b8ff" points="1054.42,-69.43 1044.34,-72.68 1054.25,-76.42 1054.42,-69.43"/>
</g>
<!-- Node30&#45;&gt;Node20 -->
<g id="edge55" class="edge">
<title>Node30&#45;&gt;Node20</title>
<path fill="none" stroke="#63b8ff" d="M1857.58,-191.51C1843.82,-175.37 1813.63,-142.54 1781.39,-124 1748.9,-105.32 1708.78,-92.69 1676.36,-84.67"/>
<polygon fill="#63b8ff" stroke="#63b8ff" points="1677.25,-81.29 1666.71,-82.38 1675.63,-88.1 1677.25,-81.29"/>
</g>
<!-- Node31 -->
<g id="node31" class="node">
<title>Node31</title>
<g id="a_node31"><a xlink:title=" ">
<polygon fill="#e0e0e0" stroke="#999999" points="1961.26,-150 1833.51,-150 1833.51,-130 1961.26,-130 1961.26,-150"/>
<text text-anchor="middle" x="1897.39" y="-136.5" font-family="Helvetica,sans-Serif" font-size="10.00">boost/dynamic_bitset.hpp</text>
</a>
</g>
</g>
<!-- Node30&#45;&gt;Node31 -->
<g id="edge47" class="edge">
<title>Node30&#45;&gt;Node31</title>
<path fill="none" stroke="#63b8ff" d="M1870.39,-191.62C1874.88,-183.21 1881.6,-170.6 1887.22,-160.07"/>
<polygon fill="#63b8ff" stroke="#63b8ff" points="1890.2,-161.92 1891.82,-151.45 1884.02,-158.62 1890.2,-161.92"/>
</g>
<!-- Node32 -->
<g id="node32" class="node">
<title>Node32</title>
<g id="a_node32"><a xlink:title=" ">
<polygon fill="#e0e0e0" stroke="#999999" points="2107.64,-150 1979.14,-150 1979.14,-130 2107.64,-130 2107.64,-150"/>
<text text-anchor="middle" x="2043.39" y="-136.5" font-family="Helvetica,sans-Serif" font-size="10.00">boost/algorithm/string.hpp</text>
</a>
</g>
</g>
<!-- Node30&#45;&gt;Node32 -->
<g id="edge49" class="edge">
<title>Node30&#45;&gt;Node32</title>
<path fill="none" stroke="#63b8ff" d="M1893.2,-191.62C1923.16,-181.53 1971.04,-165.39 2004.67,-154.05"/>
<polygon fill="#63b8ff" stroke="#63b8ff" points="2005.69,-157.4 2014.04,-150.89 2003.45,-150.77 2005.69,-157.4"/>
</g>
<!-- Node33 -->
<g id="node33" class="node">
<title>Node33</title>
<g id="a_node33"><a xlink:title=" ">
<polygon fill="#e0e0e0" stroke="#999999" points="2235.26,-156 2125.51,-156 2125.51,-124 2235.26,-124 2235.26,-156"/>
<text text-anchor="start" x="2133.51" y="-142.5" font-family="Helvetica,sans-Serif" font-size="10.00">boost/algorithm/string</text>
<text text-anchor="middle" x="2180.39" y="-130.5" font-family="Helvetica,sans-Serif" font-size="10.00">/join.hpp</text>
</a>
</g>
</g>
<!-- Node30&#45;&gt;Node33 -->
<g id="edge50" class="edge">
<title>Node30&#45;&gt;Node33</title>
<path fill="none" stroke="#63b8ff" d="M1904.64,-194.62C1951.92,-186.8 2034.02,-172.75 2114,-156.43"/>
<polygon fill="#63b8ff" stroke="#63b8ff" points="2114.7,-159.86 2123.79,-154.42 2113.29,-153 2114.7,-159.86"/>
</g>
<!-- Node34 -->
<g id="node34" class="node">
<title>Node34</title>
<g id="a_node34"><a xlink:title=" ">
<polygon fill="#e0e0e0" stroke="#999999" points="2379.89,-150 2252.89,-150 2252.89,-130 2379.89,-130 2379.89,-150"/>
<text text-anchor="middle" x="2316.39" y="-136.5" font-family="Helvetica,sans-Serif" font-size="10.00">boost/functional/hash.hpp</text>
</a>
</g>
</g>
<!-- Node30&#45;&gt;Node34 -->
<g id="edge51" class="edge">
<title>Node30&#45;&gt;Node34</title>
<path fill="none" stroke="#63b8ff" d="M1904.83,-197.46C1973.9,-191.01 2121.12,-176.12 2244.39,-156 2250.45,-155.01 2256.78,-153.86 2263.06,-152.65"/>
<polygon fill="#63b8ff" stroke="#63b8ff" points="2263.64,-156.11 2272.76,-150.72 2262.27,-149.24 2263.64,-156.11"/>
</g>
<!-- Node35 -->
<g id="node35" class="node">
<title>Node35</title>
<g id="a_node35"><a xlink:title=" ">
<polygon fill="#e0e0e0" stroke="#999999" points="2492.76,-156 2398.01,-156 2398.01,-124 2492.76,-124 2492.76,-156"/>
<text text-anchor="start" x="2406.01" y="-142.5" font-family="Helvetica,sans-Serif" font-size="10.00">boost/serialization</text>
<text text-anchor="middle" x="2445.39" y="-130.5" font-family="Helvetica,sans-Serif" font-size="10.00">/split_free.hpp</text>
</a>
</g>
</g>
<!-- Node30&#45;&gt;Node35 -->
<g id="edge53" class="edge">
<title>Node30&#45;&gt;Node35</title>
<path fill="none" stroke="#63b8ff" d="M1904.81,-199.98C1990.76,-197.26 2201.53,-187.83 2386.26,-156.36"/>
<polygon fill="#63b8ff" stroke="#63b8ff" points="2386.81,-159.82 2396.06,-154.67 2385.61,-152.92 2386.81,-159.82"/>
</g>
<!-- Node30&#45;&gt;Node36 -->
<g id="edge56" class="edge">
<title>Node30&#45;&gt;Node36</title>
<path fill="none" stroke="#63b8ff" d="M1904.86,-200.73C2008.64,-199.52 2297.43,-192.82 2534.39,-156 2535.06,-155.9 2535.74,-155.79 2536.42,-155.67"/>
<polygon fill="#63b8ff" stroke="#63b8ff" points="2536.92,-159.14 2546.11,-153.86 2535.64,-152.26 2536.92,-159.14"/>
</g>
</g>
</svg>
        <g id="navigator" transform="translate(0 0)" fill="#404254">
                <rect fill="#f2f5e9" fill-opacity="0.5" stroke="#606060" stroke-width=".5" x="0" y="0" width="60" height="60"/>
                <use id="zoomplus" xlink:href="#zoomPlus" x="17" y="9" onmousedown="handleZoom(evt,'in')"/>
                <use id="zoomminus" xlink:href="#zoomMin" x="42" y="9" onmousedown="handleZoom(evt,'out')"/>
                <use id="reset" xlink:href="#resetDef" x="30" y="36" onmousedown="handleReset()"/>
                <g id="arrowUp" xlink:href="#dirArrow" transform="translate(30 24)" onmousedown="handlePan(0,-1)">
                  <use xlink:href="#rim" fill="#404040">
                        <set attributeName="fill" to="#808080" begin="arrowUp.mouseover" end="arrowUp.mouseout"/>
                  </use>
                  <path fill="none" stroke="white" stroke-width="1.5" d="M0,-3.0v7 M-2.5,-0.5L0,-3.0L2.5,-0.5"/>
                </g>
                <g id="arrowRight" xlink:href="#dirArrow" transform="rotate(90) translate(36 -43)" onmousedown="handlePan(1,0)">
                  <use xlink:href="#rim" fill="#404040">
                        <set attributeName="fill" to="#808080" begin="arrowRight.mouseover" end="arrowRight.mouseout"/>
                  </use>
                  <path fill="none" stroke="white" stroke-width="1.5" d="M0,-3.0v7 M-2.5,-0.5L0,-3.0L2.5,-0.5"/>
                </g>
                <g id="arrowDown" xlink:href="#dirArrow" transform="rotate(180) translate(-30 -48)" onmousedown="handlePan(0,1)">
                  <use xlink:href="#rim" fill="#404040">
                        <set attributeName="fill" to="#808080" begin="arrowDown.mouseover" end="arrowDown.mouseout"/>
                  </use>
                  <path fill="none" stroke="white" stroke-width="1.5" d="M0,-3.0v7 M-2.5,-0.5L0,-3.0L2.5,-0.5"/>
                </g>
                <g id="arrowLeft" xlink:href="#dirArrow" transform="rotate(270) translate(-36 17)" onmousedown="handlePan(-1,0)">
                  <use xlink:href="#rim" fill="#404040">
                        <set attributeName="fill" to="#808080" begin="arrowLeft.mouseover" end="arrowLeft.mouseout"/>
                  </use>
                  <path fill="none" stroke="white" stroke-width="1.5" d="M0,-3.0v7 M-2.5,-0.5L0,-3.0L2.5,-0.5"/>
                </g>
        </g>
        <svg viewBox="0 0 15 15" width="100%" height="30px" preserveAspectRatio="xMaxYMin meet">
         <g id="arrow_out" transform="scale(0.3 0.3)">
          <a xlink:href="FMTforest_8hpp__incl_org.svg" target="_base">
           <rect id="button" ry="5" rx="5" y="6" x="6" height="38" width="38"
                fill="#f2f5e9" fill-opacity="0.5" stroke="#606060" stroke-width="1.0"/>
           <path id="arrow"
             d="M 11.500037,31.436501 C 11.940474,20.09759 22.043105,11.32322 32.158766,21.979434 L 37.068811,17.246167 C 37.068811,17.246167 37.088388,32 37.088388,32 L 22.160133,31.978069 C 22.160133,31.978069 26.997745,27.140456 26.997745,27.140456 C 18.528582,18.264221 13.291696,25.230495 11.500037,31.436501 z"
             style="fill:#404040;"/>
          </a>
         </g>
        </svg>
</svg>
