<?xml version="1.0" encoding="UTF-8" standalone="no"?>
<!DOCTYPE svg PUBLIC "-//W3C//DTD SVG 1.1//EN"
 "http://www.w3.org/Graphics/SVG/1.1/DTD/svg11.dtd">
<!-- Generated by graphviz version 10.0.1 (20240210.2158)
 -->
<!-- Title: D:/FMT/Include/FMTforest.hpp Pages: 1 -->
<svg width="549pt" height="84pt"
 viewBox="0.00 0.00 548.88 84.00" xmlns="http://www.w3.org/2000/svg" xmlns:xlink="http://www.w3.org/1999/xlink">
<g id="graph0" class="graph" transform="scale(1 1) rotate(0) translate(4 80)">
<title>D:/FMT/Include/FMTforest.hpp</title>
<!-- Node1 -->
<g id="node1" class="node">
<title>Node1</title>
<g id="a_node1"><a xlink:title=" ">
<polygon fill="#999999" stroke="#666666" points="347.75,-76 200.5,-76 200.5,-56 347.75,-56 347.75,-76"/>
<text text-anchor="middle" x="274.12" y="-62.5" font-family="Helvetica,sans-Serif" font-size="10.00">D:/FMT/Include/FMTforest.hpp</text>
</a>
</g>
</g>
<!-- Node2 -->
<g id="node2" class="node">
<title>Node2</title>
<g id="a_node2"><a xlink:href="PYexportSpatial_8hpp.html" target="_top" xlink:title=" ">
<polygon fill="white" stroke="#666666" points="174.25,-20 0,-20 0,0 174.25,0 174.25,-20"/>
<text text-anchor="middle" x="87.12" y="-6.5" font-family="Helvetica,sans-Serif" font-size="10.00">D:/FMT/Include/PYexportSpatial.hpp</text>
</a>
</g>
</g>
<!-- Node1&#45;&gt;Node2 -->
<g id="edge1" class="edge">
<title>Node1&#45;&gt;Node2</title>
<path fill="none" stroke="#63b8ff" d="M230.61,-52.43C196.81,-42.67 150.69,-29.35 119.95,-20.48"/>
<polygon fill="#63b8ff" stroke="#63b8ff" points="229.52,-55.76 240.1,-55.17 231.46,-49.04 229.52,-55.76"/>
</g>
<!-- Node3 -->
<g id="node3" class="node">
<title>Node3</title>
<g id="a_node3"><a xlink:href="Rdeclarations_8hpp.html" target="_top" xlink:title=" ">
<polygon fill="white" stroke="#666666" points="355.62,-20 192.62,-20 192.62,0 355.62,0 355.62,-20"/>
<text text-anchor="middle" x="274.12" y="-6.5" font-family="Helvetica,sans-Serif" font-size="10.00">D:/FMT/Include/Rdeclarations.hpp</text>
</a>
</g>
</g>
<!-- Node1&#45;&gt;Node3 -->
<g id="edge2" class="edge">
<title>Node1&#45;&gt;Node3</title>
<path fill="none" stroke="#63b8ff" d="M274.12,-44.13C274.12,-35.9 274.12,-26.85 274.12,-20.3"/>
<polygon fill="#63b8ff" stroke="#63b8ff" points="270.63,-44.08 274.13,-54.08 277.63,-44.08 270.63,-44.08"/>
</g>
<!-- Node4 -->
<g id="node4" class="node">
<title>Node4</title>
<g id="a_node4"><a xlink:href="RexportSpatial_8hpp.html" target="_top" xlink:title=" ">
<polygon fill="white" stroke="#666666" points="540.88,-20 373.38,-20 373.38,0 540.88,0 540.88,-20"/>
<text text-anchor="middle" x="457.12" y="-6.5" font-family="Helvetica,sans-Serif" font-size="10.00">D:/FMT/Include/RexportSpatial.hpp</text>
</a>
</g>
</g>
<!-- Node1&#45;&gt;Node4 -->
<g id="edge3" class="edge">
<title>Node1&#45;&gt;Node4</title>
<path fill="none" stroke="#63b8ff" d="M316.71,-52.43C349.78,-42.67 394.92,-29.35 425,-20.48"/>
<polygon fill="#63b8ff" stroke="#63b8ff" points="316.05,-48.98 307.45,-55.17 318.03,-55.69 316.05,-48.98"/>
</g>
</g>
</svg>
