<?xml version="1.0" encoding="UTF-8" standalone="no"?>
<!DOCTYPE svg PUBLIC "-//W3C//DTD SVG 1.1//EN"
 "http://www.w3.org/Graphics/SVG/1.1/DTD/svg11.dtd">
<!-- Generated by graphviz version 10.0.1 (20240210.2158)
 -->
<!-- Title: D:/FMT/Include/FMTgraphdescription.hpp Pages: 1 -->
<svg width="2537pt" height="524pt"
 viewBox="0.00 0.00 2536.76 524.00" xmlns="http://www.w3.org/2000/svg" xmlns:xlink="http://www.w3.org/1999/xlink">
<g id="graph0" class="graph" transform="scale(1 1) rotate(0) translate(4 520)">
<title>D:/FMT/Include/FMTgraphdescription.hpp</title>
<!-- Node1 -->
<g id="node1" class="node">
<title>Node1</title>
<g id="a_node1"><a xlink:title=" ">
<polygon fill="#999999" stroke="#666666" points="610.01,-516 415.51,-516 415.51,-496 610.01,-496 610.01,-516"/>
<text text-anchor="middle" x="512.76" y="-502.5" font-family="Helvetica,sans-Serif" font-size="10.00">D:/FMT/Include/FMTgraphdescription.hpp</text>
</a>
</g>
</g>
<!-- Node2 -->
<g id="node2" class="node">
<title>Node2</title>
<g id="a_node2"><a xlink:href="FMTvertexproperties_8hpp.html" target="_top" xlink:title=" ">
<polygon fill="white" stroke="#666666" points="306.01,-454 183.51,-454 183.51,-434 306.01,-434 306.01,-454"/>
<text text-anchor="middle" x="244.76" y="-440.5" font-family="Helvetica,sans-Serif" font-size="10.00">FMTvertexproperties.hpp</text>
</a>
</g>
</g>
<!-- Node1&#45;&gt;Node2 -->
<g id="edge1" class="edge">
<title>Node1&#45;&gt;Node2</title>
<path fill="none" stroke="#63b8ff" d="M470.59,-495.56C424,-485.13 348.86,-468.31 298.18,-456.96"/>
<polygon fill="#63b8ff" stroke="#63b8ff" points="299.13,-453.58 288.6,-454.82 297.6,-460.42 299.13,-453.58"/>
</g>
<!-- Node8 -->
<g id="node8" class="node">
<title>Node8</title>
<g id="a_node8"><a xlink:href="FMTdevelopment_8hpp.html" target="_top" xlink:title=" ">
<polygon fill="white" stroke="#666666" points="1488.89,-268 1380.64,-268 1380.64,-248 1488.89,-248 1488.89,-268"/>
<text text-anchor="middle" x="1434.76" y="-254.5" font-family="Helvetica,sans-Serif" font-size="10.00">FMTdevelopment.hpp</text>
</a>
</g>
</g>
<!-- Node1&#45;&gt;Node8 -->
<g id="edge79" class="edge">
<title>Node1&#45;&gt;Node8</title>
<path fill="none" stroke="#63b8ff" d="M415.03,-498.48C320.91,-491.18 190.51,-477.98 174.76,-460 150.06,-431.79 88.79,-394.29 178.76,-304 221.09,-261.52 1117.21,-258.82 1369.3,-258.9"/>
<polygon fill="#63b8ff" stroke="#63b8ff" points="1368.95,-262.4 1378.95,-258.9 1368.95,-255.4 1368.95,-262.4"/>
</g>
<!-- Node38 -->
<g id="node38" class="node">
<title>Node38</title>
<g id="a_node38"><a xlink:href="FMTedgeproperties_8hpp.html" target="_top" xlink:title=" ">
<polygon fill="white" stroke="#666666" points="535.76,-268 417.76,-268 417.76,-248 535.76,-248 535.76,-268"/>
<text text-anchor="middle" x="476.76" y="-254.5" font-family="Helvetica,sans-Serif" font-size="10.00">FMTedgeproperties.hpp</text>
</a>
</g>
</g>
<!-- Node1&#45;&gt;Node38 -->
<g id="edge68" class="edge">
<title>Node1&#45;&gt;Node38</title>
<path fill="none" stroke="#63b8ff" d="M415.46,-499.79C311.68,-493.21 159.7,-480.24 141.76,-460 95.77,-408.09 98.63,-354.88 145.76,-304 179.9,-267.15 319.39,-259.57 406.03,-258.51"/>
<polygon fill="#63b8ff" stroke="#63b8ff" points="405.88,-262.02 415.85,-258.42 405.82,-255.02 405.88,-262.02"/>
</g>
<!-- Node40 -->
<g id="node40" class="node">
<title>Node40</title>
<g id="a_node40"><a xlink:title=" ">
<polygon fill="#e0e0e0" stroke="#999999" points="437.89,-460 323.64,-460 323.64,-428 437.89,-428 437.89,-460"/>
<text text-anchor="start" x="331.64" y="-446.5" font-family="Helvetica,sans-Serif" font-size="10.00">boost/graph/adjacency</text>
<text text-anchor="middle" x="380.76" y="-434.5" font-family="Helvetica,sans-Serif" font-size="10.00">_list.hpp</text>
</a>
</g>
</g>
<!-- Node1&#45;&gt;Node40 -->
<g id="edge80" class="edge">
<title>Node1&#45;&gt;Node40</title>
<path fill="none" stroke="#63b8ff" d="M492.14,-495.62C474.3,-487.52 447.88,-475.51 425.26,-465.23"/>
<polygon fill="#63b8ff" stroke="#63b8ff" points="426.77,-462.07 416.22,-461.12 423.87,-468.44 426.77,-462.07"/>
</g>
<!-- Node41 -->
<g id="node41" class="node">
<title>Node41</title>
<g id="a_node41"><a xlink:title=" ">
<polygon fill="#e0e0e0" stroke="#999999" points="569.89,-460 455.64,-460 455.64,-428 569.89,-428 569.89,-460"/>
<text text-anchor="start" x="463.64" y="-446.5" font-family="Helvetica,sans-Serif" font-size="10.00">boost/graph/adjacency</text>
<text text-anchor="middle" x="512.76" y="-434.5" font-family="Helvetica,sans-Serif" font-size="10.00">_matrix.hpp</text>
</a>
</g>
</g>
<!-- Node1&#45;&gt;Node41 -->
<g id="edge81" class="edge">
<title>Node1&#45;&gt;Node41</title>
<path fill="none" stroke="#63b8ff" d="M512.76,-495.62C512.76,-489.1 512.76,-480.05 512.76,-471.4"/>
<polygon fill="#63b8ff" stroke="#63b8ff" points="516.26,-471.65 512.76,-461.65 509.26,-471.65 516.26,-471.65"/>
</g>
<!-- Node42 -->
<g id="node42" class="node">
<title>Node42</title>
<g id="a_node42"><a xlink:title=" ">
<polygon fill="#e0e0e0" stroke="#999999" points="689.14,-460 588.39,-460 588.39,-428 689.14,-428 689.14,-460"/>
<text text-anchor="start" x="596.39" y="-446.5" font-family="Helvetica,sans-Serif" font-size="10.00">boost/graph/labeled</text>
<text text-anchor="middle" x="638.76" y="-434.5" font-family="Helvetica,sans-Serif" font-size="10.00">_graph.hpp</text>
</a>
</g>
</g>
<!-- Node1&#45;&gt;Node42 -->
<g id="edge82" class="edge">
<title>Node1&#45;&gt;Node42</title>
<path fill="none" stroke="#63b8ff" d="M532.45,-495.62C549.46,-487.52 574.64,-475.53 596.22,-465.26"/>
<polygon fill="#63b8ff" stroke="#63b8ff" points="597.59,-468.48 605.11,-461.02 594.58,-462.16 597.59,-468.48"/>
</g>
<!-- Node43 -->
<g id="node43" class="node">
<title>Node43</title>
<g id="a_node43"><a xlink:title=" ">
<polygon fill="#e0e0e0" stroke="#999999" points="816.64,-454 706.89,-454 706.89,-434 816.64,-434 816.64,-454"/>
<text text-anchor="middle" x="761.76" y="-440.5" font-family="Helvetica,sans-Serif" font-size="10.00">boost/graph/copy.hpp</text>
</a>
</g>
</g>
<!-- Node1&#45;&gt;Node43 -->
<g id="edge83" class="edge">
<title>Node1&#45;&gt;Node43</title>
<path fill="none" stroke="#63b8ff" d="M551.94,-495.56C594.96,-485.19 664.16,-468.52 711.23,-457.18"/>
<polygon fill="#63b8ff" stroke="#63b8ff" points="712.03,-460.58 720.93,-454.84 710.39,-453.78 712.03,-460.58"/>
</g>
<!-- Node44 -->
<g id="node44" class="node">
<title>Node44</title>
<g id="a_node44"><a xlink:title=" ">
<polygon fill="#e0e0e0" stroke="#999999" points="976.39,-454 835.14,-454 835.14,-434 976.39,-434 976.39,-454"/>
<text text-anchor="middle" x="905.76" y="-440.5" font-family="Helvetica,sans-Serif" font-size="10.00">boost/graph/graph_utility.hpp</text>
</a>
</g>
</g>
<!-- Node1&#45;&gt;Node44 -->
<g id="edge84" class="edge">
<title>Node1&#45;&gt;Node44</title>
<path fill="none" stroke="#63b8ff" d="M585,-495.5C648.53,-486.94 743.44,-473.63 825.76,-460 832.28,-458.92 839.09,-457.74 845.86,-456.52"/>
<polygon fill="#63b8ff" stroke="#63b8ff" points="846.47,-459.96 855.68,-454.73 845.21,-453.08 846.47,-459.96"/>
</g>
<!-- Node45 -->
<g id="node45" class="node">
<title>Node45</title>
<g id="a_node45"><a xlink:title=" ">
<polygon fill="#e0e0e0" stroke="#999999" points="1095.14,-460 994.39,-460 994.39,-428 1095.14,-428 1095.14,-460"/>
<text text-anchor="start" x="1002.39" y="-446.5" font-family="Helvetica,sans-Serif" font-size="10.00">boost/graph/adj_list</text>
<text text-anchor="middle" x="1044.76" y="-434.5" font-family="Helvetica,sans-Serif" font-size="10.00">_serialize.hpp</text>
</a>
</g>
</g>
<!-- Node1&#45;&gt;Node45 -->
<g id="edge85" class="edge">
<title>Node1&#45;&gt;Node45</title>
<path fill="none" stroke="#63b8ff" d="M610.27,-500.12C703.69,-494.45 848.75,-483.01 982.75,-460.37"/>
<polygon fill="#63b8ff" stroke="#63b8ff" points="983.27,-463.83 992.53,-458.69 982.08,-456.93 983.27,-463.83"/>
</g>
<!-- Node3 -->
<g id="node3" class="node">
<title>Node3</title>
<g id="a_node3"><a xlink:title=" ">
<polygon fill="#e0e0e0" stroke="#999999" points="114.14,-156 19.39,-156 19.39,-124 114.14,-124 114.14,-156"/>
<text text-anchor="start" x="27.39" y="-142.5" font-family="Helvetica,sans-Serif" font-size="10.00">boost/serialization</text>
<text text-anchor="middle" x="66.76" y="-130.5" font-family="Helvetica,sans-Serif" font-size="10.00">/serialization.hpp</text>
</a>
</g>
</g>
<!-- Node2&#45;&gt;Node3 -->
<g id="edge2" class="edge">
<title>Node2&#45;&gt;Node3</title>
<path fill="none" stroke="#63b8ff" d="M238.83,-433.61C227.16,-415.07 200.42,-372.38 178.76,-336 142.77,-275.55 101.95,-203.57 80.93,-166.26"/>
<polygon fill="#63b8ff" stroke="#63b8ff" points="84.01,-164.58 76.06,-157.58 77.91,-168.02 84.01,-164.58"/>
</g>
<!-- Node4 -->
<g id="node4" class="node">
<title>Node4</title>
<g id="a_node4"><a xlink:title=" ">
<polygon fill="#e0e0e0" stroke="#999999" points="282.14,-336 187.39,-336 187.39,-304 282.14,-304 282.14,-336"/>
<text text-anchor="start" x="195.39" y="-322.5" font-family="Helvetica,sans-Serif" font-size="10.00">boost/serialization</text>
<text text-anchor="middle" x="234.76" y="-310.5" font-family="Helvetica,sans-Serif" font-size="10.00">/unique_ptr.hpp</text>
</a>
</g>
</g>
<!-- Node2&#45;&gt;Node4 -->
<g id="edge3" class="edge">
<title>Node2&#45;&gt;Node4</title>
<path fill="none" stroke="#63b8ff" d="M244.01,-433.83C242.53,-415.76 239.18,-374.95 236.95,-347.68"/>
<polygon fill="#63b8ff" stroke="#63b8ff" points="240.44,-347.43 236.13,-337.75 233.46,-348 240.44,-347.43"/>
</g>
<!-- Node5 -->
<g id="node5" class="node">
<title>Node5</title>
<g id="a_node5"><a xlink:title=" ">
<polygon fill="#e0e0e0" stroke="#999999" points="2440.39,-20 2389.14,-20 2389.14,0 2440.39,0 2440.39,-20"/>
<text text-anchor="middle" x="2414.76" y="-6.5" font-family="Helvetica,sans-Serif" font-size="10.00">memory</text>
</a>
</g>
</g>
<!-- Node2&#45;&gt;Node5 -->
<g id="edge4" class="edge">
<title>Node2&#45;&gt;Node5</title>
<path fill="none" stroke="#63b8ff" d="M282.7,-433.58C293.04,-431.36 304.28,-429.28 314.76,-428 812.21,-367.25 941.14,-414.94 1441.76,-392 1858.96,-372.89 1963.47,-369.37 2379.76,-336 2446.11,-330.68 2528.76,-387.56 2528.76,-321 2528.76,-321 2528.76,-321 2528.76,-139 2528.76,-87.36 2476.37,-46.91 2442.62,-26.21"/>
<polygon fill="#63b8ff" stroke="#63b8ff" points="2444.52,-23.27 2434.13,-21.2 2440.96,-29.29 2444.52,-23.27"/>
</g>
<!-- Node6 -->
<g id="node6" class="node">
<title>Node6</title>
<g id="a_node6"><a xlink:href="FMTbasevertexproperties_8hpp.html" target="_top" xlink:title=" ">
<polygon fill="white" stroke="#666666" points="1432.51,-392 1289.01,-392 1289.01,-372 1432.51,-372 1432.51,-392"/>
<text text-anchor="middle" x="1360.76" y="-378.5" font-family="Helvetica,sans-Serif" font-size="10.00">FMTbasevertexproperties.hpp</text>
</a>
</g>
</g>
<!-- Node2&#45;&gt;Node6 -->
<g id="edge5" class="edge">
<title>Node2&#45;&gt;Node6</title>
<path fill="none" stroke="#63b8ff" d="M283.07,-433.58C293.31,-431.39 304.41,-429.32 314.76,-428 500.32,-404.3 1063.72,-389.62 1277.39,-384.78"/>
<polygon fill="#63b8ff" stroke="#63b8ff" points="1277.39,-388.28 1287.31,-384.55 1277.24,-381.28 1277.39,-388.28"/>
</g>
<!-- Node6&#45;&gt;Node3 -->
<g id="edge64" class="edge">
<title>Node6&#45;&gt;Node3</title>
<path fill="none" stroke="#63b8ff" d="M1288.67,-379.49C1069.92,-374.02 416.96,-350.99 223.76,-268 176.28,-247.6 176.13,-224.27 135.76,-192 123.55,-182.24 109.76,-171.91 97.73,-163.12"/>
<polygon fill="#63b8ff" stroke="#63b8ff" points="99.9,-160.37 89.75,-157.33 95.79,-166.03 99.9,-160.37"/>
</g>
<!-- Node6&#45;&gt;Node4 -->
<g id="edge65" class="edge">
<title>Node6&#45;&gt;Node4</title>
<path fill="none" stroke="#63b8ff" d="M1288.59,-379.82C1081.55,-376.14 488.13,-363.44 295.76,-336 295.09,-335.9 294.41,-335.8 293.73,-335.7"/>
<polygon fill="#63b8ff" stroke="#63b8ff" points="294.49,-332.28 284.03,-333.97 293.25,-339.17 294.49,-332.28"/>
</g>
<!-- Node6&#45;&gt;Node5 -->
<g id="edge67" class="edge">
<title>Node6&#45;&gt;Node5</title>
<path fill="none" stroke="#63b8ff" d="M1432.74,-380.81C1681.64,-379.23 2490.76,-365.86 2490.76,-259 2490.76,-259 2490.76,-259 2490.76,-139 2490.76,-94.08 2455.73,-51.16 2433.24,-28.22"/>
<polygon fill="#63b8ff" stroke="#63b8ff" points="2435.99,-26.03 2426.41,-21.51 2431.09,-31.02 2435.99,-26.03"/>
</g>
<!-- Node7 -->
<g id="node7" class="node">
<title>Node7</title>
<g id="a_node7"><a xlink:href="FMTfuturdevelopment_8hpp.html" target="_top" xlink:title=" ">
<polygon fill="white" stroke="#666666" points="1573.26,-330 1446.26,-330 1446.26,-310 1573.26,-310 1573.26,-330"/>
<text text-anchor="middle" x="1509.76" y="-316.5" font-family="Helvetica,sans-Serif" font-size="10.00">FMTfuturdevelopment.hpp</text>
</a>
</g>
</g>
<!-- Node6&#45;&gt;Node7 -->
<g id="edge6" class="edge">
<title>Node6&#45;&gt;Node7</title>
<path fill="none" stroke="#63b8ff" d="M1384.04,-371.62C1408.75,-361.67 1448.04,-345.85 1476.12,-334.55"/>
<polygon fill="#63b8ff" stroke="#63b8ff" points="1477.27,-337.86 1485.24,-330.87 1474.66,-331.36 1477.27,-337.86"/>
</g>
<!-- Node36 -->
<g id="node36" class="node">
<title>Node36</title>
<g id="a_node36"><a xlink:href="FMTactualdevelopment_8hpp.html" target="_top" xlink:title=" ">
<polygon fill="white" stroke="#666666" points="1428.01,-330 1293.51,-330 1293.51,-310 1428.01,-310 1428.01,-330"/>
<text text-anchor="middle" x="1360.76" y="-316.5" font-family="Helvetica,sans-Serif" font-size="10.00">FMTactualdevelopment.hpp</text>
</a>
</g>
</g>
<!-- Node6&#45;&gt;Node36 -->
<g id="edge59" class="edge">
<title>Node6&#45;&gt;Node36</title>
<path fill="none" stroke="#63b8ff" d="M1360.76,-371.62C1360.76,-363.56 1360.76,-351.65 1360.76,-341.41"/>
<polygon fill="#63b8ff" stroke="#63b8ff" points="1364.26,-341.63 1360.76,-331.63 1357.26,-341.63 1364.26,-341.63"/>
</g>
<!-- Node37 -->
<g id="node37" class="node">
<title>Node37</title>
<g id="a_node37"><a xlink:title=" ">
<polygon fill="#e0e0e0" stroke="#999999" points="1687.89,-336 1591.64,-336 1591.64,-304 1687.89,-304 1687.89,-336"/>
<text text-anchor="start" x="1599.64" y="-322.5" font-family="Helvetica,sans-Serif" font-size="10.00">boost/serialization</text>
<text text-anchor="middle" x="1639.76" y="-310.5" font-family="Helvetica,sans-Serif" font-size="10.00">/split_member.hpp</text>
</a>
</g>
</g>
<!-- Node6&#45;&gt;Node37 -->
<g id="edge66" class="edge">
<title>Node6&#45;&gt;Node37</title>
<path fill="none" stroke="#63b8ff" d="M1411.64,-371.55C1454.28,-363.43 1517.02,-351.04 1580.31,-336.5"/>
<polygon fill="#63b8ff" stroke="#63b8ff" points="1580.87,-339.96 1589.82,-334.3 1579.29,-333.14 1580.87,-339.96"/>
</g>
<!-- Node7&#45;&gt;Node3 -->
<g id="edge56" class="edge">
<title>Node7&#45;&gt;Node3</title>
<path fill="none" stroke="#63b8ff" d="M1469.8,-309.53C1459.12,-307.35 1447.55,-305.29 1436.76,-304 1209.79,-276.9 633,-312.36 408.76,-268 393.87,-265.05 209.49,-195.3 117.82,-160.45"/>
<polygon fill="#63b8ff" stroke="#63b8ff" points="119.13,-157.2 108.54,-156.92 116.64,-163.74 119.13,-157.2"/>
</g>
<!-- Node7&#45;&gt;Node5 -->
<g id="edge57" class="edge">
<title>Node7&#45;&gt;Node5</title>
<path fill="none" stroke="#63b8ff" d="M1550.12,-309.55C1560.69,-307.39 1572.11,-305.34 1582.76,-304 1748.97,-283.08 2174.64,-313.88 2335.76,-268 2392.97,-251.71 2452.76,-262.49 2452.76,-203 2452.76,-203 2452.76,-203 2452.76,-139 2452.76,-99.18 2435.65,-55.16 2424.39,-30.51"/>
<polygon fill="#63b8ff" stroke="#63b8ff" points="2427.67,-29.25 2420.22,-21.72 2421.34,-32.25 2427.67,-29.25"/>
</g>
<!-- Node7&#45;&gt;Node8 -->
<g id="edge7" class="edge">
<title>Node7&#45;&gt;Node8</title>
<path fill="none" stroke="#63b8ff" d="M1498.04,-309.62C1486.53,-300.41 1468.73,-286.17 1454.93,-275.14"/>
<polygon fill="#63b8ff" stroke="#63b8ff" points="1457.33,-272.57 1447.33,-269.06 1452.96,-278.04 1457.33,-272.57"/>
</g>
<!-- Node17 -->
<g id="node17" class="node">
<title>Node17</title>
<g id="a_node17"><a xlink:title=" ">
<polygon fill="#e0e0e0" stroke="#999999" points="1829.14,-88 1734.39,-88 1734.39,-56 1829.14,-56 1829.14,-88"/>
<text text-anchor="start" x="1742.39" y="-74.5" font-family="Helvetica,sans-Serif" font-size="10.00">boost/serialization</text>
<text text-anchor="middle" x="1781.76" y="-62.5" font-family="Helvetica,sans-Serif" font-size="10.00">/export.hpp</text>
</a>
</g>
</g>
<!-- Node7&#45;&gt;Node17 -->
<g id="edge58" class="edge">
<title>Node7&#45;&gt;Node17</title>
<path fill="none" stroke="#63b8ff" d="M1550.12,-309.56C1560.69,-307.4 1572.11,-305.35 1582.76,-304 1623.16,-298.89 2286.69,-297.49 2314.76,-268 2358.89,-221.65 2357.81,-171.36 2314.76,-124 2283.35,-89.44 1972.88,-77.71 1840.77,-74.27"/>
<polygon fill="#63b8ff" stroke="#63b8ff" points="1840.91,-70.77 1830.82,-74.02 1840.73,-77.77 1840.91,-70.77"/>
</g>
<!-- Node8&#45;&gt;Node3 -->
<g id="edge27" class="edge">
<title>Node8&#45;&gt;Node3</title>
<path fill="none" stroke="#63b8ff" d="M1380.37,-257.5C1191.3,-258.82 563.59,-259.42 368.76,-212 348.28,-207.02 345.85,-198.38 325.76,-192 240.52,-164.92 215.23,-174.69 127.76,-156 126.94,-155.82 126.12,-155.65 125.29,-155.47"/>
<polygon fill="#63b8ff" stroke="#63b8ff" points="126.32,-152.11 115.79,-153.33 124.78,-158.94 126.32,-152.11"/>
</g>
<!-- Node8&#45;&gt;Node5 -->
<g id="edge39" class="edge">
<title>Node8&#45;&gt;Node5</title>
<path fill="none" stroke="#63b8ff" d="M1489.33,-257.38C1603.19,-257.29 1874.04,-252.4 2096.76,-212 2182.13,-196.52 2206.59,-195.63 2283.76,-156 2327.73,-133.42 2339.5,-125.45 2371.76,-88 2386.86,-70.47 2399.12,-46.8 2406.63,-30.35"/>
<polygon fill="#63b8ff" stroke="#63b8ff" points="2409.63,-32.23 2410.44,-21.67 2403.22,-29.42 2409.63,-32.23"/>
</g>
<!-- Node9 -->
<g id="node9" class="node">
<title>Node9</title>
<g id="a_node9"><a xlink:href="FMTmask_8hpp.html" target="_top" xlink:title=" ">
<polygon fill="white" stroke="#666666" points="1248.89,-212 1170.64,-212 1170.64,-192 1248.89,-192 1248.89,-212"/>
<text text-anchor="middle" x="1209.76" y="-198.5" font-family="Helvetica,sans-Serif" font-size="10.00">FMTmask.hpp</text>
</a>
</g>
</g>
<!-- Node8&#45;&gt;Node9 -->
<g id="edge8" class="edge">
<title>Node8&#45;&gt;Node9</title>
<path fill="none" stroke="#63b8ff" d="M1395.31,-247.53C1357.76,-238.52 1301.06,-224.91 1260.23,-215.11"/>
<polygon fill="#63b8ff" stroke="#63b8ff" points="1261.18,-211.74 1250.64,-212.81 1259.54,-218.55 1261.18,-211.74"/>
</g>
<!-- Node16 -->
<g id="node16" class="node">
<title>Node16</title>
<g id="a_node16"><a xlink:title=" ">
<polygon fill="#e0e0e0" stroke="#999999" points="1780.14,-156 1685.39,-156 1685.39,-124 1780.14,-124 1780.14,-156"/>
<text text-anchor="start" x="1693.39" y="-142.5" font-family="Helvetica,sans-Serif" font-size="10.00">boost/serialization</text>
<text text-anchor="middle" x="1732.76" y="-130.5" font-family="Helvetica,sans-Serif" font-size="10.00">/nvp.hpp</text>
</a>
</g>
</g>
<!-- Node8&#45;&gt;Node16 -->
<g id="edge28" class="edge">
<title>Node8&#45;&gt;Node16</title>
<path fill="none" stroke="#63b8ff" d="M1459.15,-247.51C1507.87,-228.54 1618.1,-185.63 1682.8,-160.45"/>
<polygon fill="#63b8ff" stroke="#63b8ff" points="1683.71,-163.85 1691.75,-156.96 1681.17,-157.33 1683.71,-163.85"/>
</g>
<!-- Node8&#45;&gt;Node17 -->
<g id="edge41" class="edge">
<title>Node8&#45;&gt;Node17</title>
<path fill="none" stroke="#63b8ff" d="M1489.36,-254.44C1663.25,-245.71 2195.61,-214.38 2243.76,-156 2252.81,-145.03 2253.25,-134.59 2243.76,-124 2217.32,-94.48 1959.38,-80.23 1840.82,-75.2"/>
<polygon fill="#63b8ff" stroke="#63b8ff" points="1841.1,-71.71 1830.97,-74.79 1840.81,-78.7 1841.1,-71.71"/>
</g>
<!-- Node18 -->
<g id="node18" class="node">
<title>Node18</title>
<g id="a_node18"><a xlink:title=" ">
<polygon fill="#e0e0e0" stroke="#999999" points="693.14,-156 598.39,-156 598.39,-124 693.14,-124 693.14,-156"/>
<text text-anchor="start" x="606.39" y="-142.5" font-family="Helvetica,sans-Serif" font-size="10.00">boost/serialization</text>
<text text-anchor="middle" x="645.76" y="-130.5" font-family="Helvetica,sans-Serif" font-size="10.00">/string.hpp</text>
</a>
</g>
</g>
<!-- Node8&#45;&gt;Node18 -->
<g id="edge29" class="edge">
<title>Node8&#45;&gt;Node18</title>
<path fill="none" stroke="#63b8ff" d="M1380.56,-251.42C1259.23,-238.5 956.77,-203.95 706.76,-156 706.09,-155.87 705.42,-155.74 704.74,-155.61"/>
<polygon fill="#63b8ff" stroke="#63b8ff" points="705.6,-152.21 695.09,-153.57 704.15,-159.06 705.6,-152.21"/>
</g>
<!-- Node24 -->
<g id="node24" class="node">
<title>Node24</title>
<g id="a_node24"><a xlink:title=" ">
<polygon fill="#e0e0e0" stroke="#999999" points="1839.51,-150 1798.01,-150 1798.01,-130 1839.51,-130 1839.51,-150"/>
<text text-anchor="middle" x="1818.76" y="-136.5" font-family="Helvetica,sans-Serif" font-size="10.00">vector</text>
</a>
</g>
</g>
<!-- Node8&#45;&gt;Node24 -->
<g id="edge40" class="edge">
<title>Node8&#45;&gt;Node24</title>
<path fill="none" stroke="#63b8ff" d="M1489.34,-254.66C1570.95,-250.32 1720.1,-238.9 1765.76,-212 1786.01,-200.07 1800.96,-177.1 1809.73,-160.51"/>
<polygon fill="#63b8ff" stroke="#63b8ff" points="1812.83,-162.13 1814.13,-151.62 1806.56,-159.03 1812.83,-162.13"/>
</g>
<!-- Node25 -->
<g id="node25" class="node">
<title>Node25</title>
<g id="a_node25"><a xlink:href="FMTobject_8hpp.html" target="_top" xlink:title=" ">
<polygon fill="white" stroke="#666666" points="1946.01,-212 1865.51,-212 1865.51,-192 1946.01,-192 1946.01,-212"/>
<text text-anchor="middle" x="1905.76" y="-198.5" font-family="Helvetica,sans-Serif" font-size="10.00">FMTobject.hpp</text>
</a>
</g>
</g>
<!-- Node8&#45;&gt;Node25 -->
<g id="edge30" class="edge">
<title>Node8&#45;&gt;Node25</title>
<path fill="none" stroke="#63b8ff" d="M1489.25,-250.75C1580.77,-240.26 1764.12,-219.24 1853.87,-208.95"/>
<polygon fill="#63b8ff" stroke="#63b8ff" points="1854.08,-212.45 1863.61,-207.83 1853.28,-205.49 1854.08,-212.45"/>
</g>
<!-- Node29 -->
<g id="node29" class="node">
<title>Node29</title>
<g id="a_node29"><a xlink:href="FMTexceptionhandler_8hpp.html" target="_top" xlink:title=" ">
<polygon fill="white" stroke="#666666" points="505.64,-212 377.89,-212 377.89,-192 505.64,-192 505.64,-212"/>
<text text-anchor="middle" x="441.76" y="-198.5" font-family="Helvetica,sans-Serif" font-size="10.00">FMTexceptionhandler.hpp</text>
</a>
</g>
</g>
<!-- Node8&#45;&gt;Node29 -->
<g id="edge42" class="edge">
<title>Node8&#45;&gt;Node29</title>
<path fill="none" stroke="#63b8ff" d="M1380.23,-255.74C1239.33,-252.17 851.42,-240.45 517.19,-212.14"/>
<polygon fill="#63b8ff" stroke="#63b8ff" points="517.6,-208.66 507.34,-211.3 517,-215.64 517.6,-208.66"/>
</g>
<!-- Node9&#45;&gt;Node3 -->
<g id="edge14" class="edge">
<title>Node9&#45;&gt;Node3</title>
<path fill="none" stroke="#63b8ff" d="M1170.59,-200.95C1032.19,-200.41 553.42,-195.62 160.76,-156 149.42,-154.86 137.36,-153.24 125.8,-151.49"/>
<polygon fill="#63b8ff" stroke="#63b8ff" points="126.36,-148.03 115.94,-149.94 125.27,-154.95 126.36,-148.03"/>
</g>
<!-- Node10 -->
<g id="node10" class="node">
<title>Node10</title>
<g id="a_node10"><a xlink:title=" ">
<polygon fill="#e0e0e0" stroke="#999999" points="1483.64,-150 1355.89,-150 1355.89,-130 1483.64,-130 1483.64,-150"/>
<text text-anchor="middle" x="1419.76" y="-136.5" font-family="Helvetica,sans-Serif" font-size="10.00">boost/dynamic_bitset.hpp</text>
</a>
</g>
</g>
<!-- Node9&#45;&gt;Node10 -->
<g id="edge9" class="edge">
<title>Node9&#45;&gt;Node10</title>
<path fill="none" stroke="#63b8ff" d="M1242.57,-191.62C1278.45,-181.37 1336.13,-164.9 1375.88,-153.54"/>
<polygon fill="#63b8ff" stroke="#63b8ff" points="1376.72,-156.94 1385.38,-150.82 1374.8,-150.21 1376.72,-156.94"/>
</g>
<!-- Node11 -->
<g id="node11" class="node">
<title>Node11</title>
<g id="a_node11"><a xlink:title=" ">
<polygon fill="#e0e0e0" stroke="#999999" points="1630.01,-150 1501.51,-150 1501.51,-130 1630.01,-130 1630.01,-150"/>
<text text-anchor="middle" x="1565.76" y="-136.5" font-family="Helvetica,sans-Serif" font-size="10.00">boost/unordered_map.hpp</text>
</a>
</g>
</g>
<!-- Node9&#45;&gt;Node11 -->
<g id="edge10" class="edge">
<title>Node9&#45;&gt;Node11</title>
<path fill="none" stroke="#63b8ff" d="M1249.23,-195.3C1304.01,-187.25 1406.13,-171.78 1492.76,-156 1498.42,-154.97 1504.32,-153.84 1510.2,-152.69"/>
<polygon fill="#63b8ff" stroke="#63b8ff" points="1510.83,-156.13 1519.94,-150.74 1509.45,-149.27 1510.83,-156.13"/>
</g>
<!-- Node12 -->
<g id="node12" class="node">
<title>Node12</title>
<g id="a_node12"><a xlink:title=" ">
<polygon fill="#e0e0e0" stroke="#999999" points="953.01,-150 824.51,-150 824.51,-130 953.01,-130 953.01,-150"/>
<text text-anchor="middle" x="888.76" y="-136.5" font-family="Helvetica,sans-Serif" font-size="10.00">boost/algorithm/string.hpp</text>
</a>
</g>
</g>
<!-- Node9&#45;&gt;Node12 -->
<g id="edge11" class="edge">
<title>Node9&#45;&gt;Node12</title>
<path fill="none" stroke="#63b8ff" d="M1170.19,-194.11C1121.2,-185.52 1035.23,-170.21 961.76,-156 956.27,-154.94 950.54,-153.8 944.83,-152.66"/>
<polygon fill="#63b8ff" stroke="#63b8ff" points="945.88,-149.3 935.38,-150.75 944.49,-156.16 945.88,-149.3"/>
</g>
<!-- Node13 -->
<g id="node13" class="node">
<title>Node13</title>
<g id="a_node13"><a xlink:title=" ">
<polygon fill="#e0e0e0" stroke="#999999" points="1080.64,-156 970.89,-156 970.89,-124 1080.64,-124 1080.64,-156"/>
<text text-anchor="start" x="978.89" y="-142.5" font-family="Helvetica,sans-Serif" font-size="10.00">boost/algorithm/string</text>
<text text-anchor="middle" x="1025.76" y="-130.5" font-family="Helvetica,sans-Serif" font-size="10.00">/join.hpp</text>
</a>
</g>
</g>
<!-- Node9&#45;&gt;Node13 -->
<g id="edge12" class="edge">
<title>Node9&#45;&gt;Node13</title>
<path fill="none" stroke="#63b8ff" d="M1181.01,-191.62C1155.13,-183.19 1116.31,-170.53 1083.96,-159.98"/>
<polygon fill="#63b8ff" stroke="#63b8ff" points="1085.3,-156.73 1074.7,-156.96 1083.13,-163.39 1085.3,-156.73"/>
</g>
<!-- Node14 -->
<g id="node14" class="node">
<title>Node14</title>
<g id="a_node14"><a xlink:title=" ">
<polygon fill="#e0e0e0" stroke="#999999" points="1225.26,-150 1098.26,-150 1098.26,-130 1225.26,-130 1225.26,-150"/>
<text text-anchor="middle" x="1161.76" y="-136.5" font-family="Helvetica,sans-Serif" font-size="10.00">boost/functional/hash.hpp</text>
</a>
</g>
</g>
<!-- Node9&#45;&gt;Node14 -->
<g id="edge13" class="edge">
<title>Node9&#45;&gt;Node14</title>
<path fill="none" stroke="#63b8ff" d="M1202.26,-191.62C1195.32,-182.94 1184.8,-169.8 1176.22,-159.08"/>
<polygon fill="#63b8ff" stroke="#63b8ff" points="1178.98,-156.92 1170,-151.29 1173.51,-161.29 1178.98,-156.92"/>
</g>
<!-- Node15 -->
<g id="node15" class="node">
<title>Node15</title>
<g id="a_node15"><a xlink:title=" ">
<polygon fill="#e0e0e0" stroke="#999999" points="1338.14,-156 1243.39,-156 1243.39,-124 1338.14,-124 1338.14,-156"/>
<text text-anchor="start" x="1251.39" y="-142.5" font-family="Helvetica,sans-Serif" font-size="10.00">boost/serialization</text>
<text text-anchor="middle" x="1290.76" y="-130.5" font-family="Helvetica,sans-Serif" font-size="10.00">/split_free.hpp</text>
</a>
</g>
</g>
<!-- Node9&#45;&gt;Node15 -->
<g id="edge15" class="edge">
<title>Node9&#45;&gt;Node15</title>
<path fill="none" stroke="#63b8ff" d="M1222.42,-191.62C1232.76,-183.97 1247.79,-172.83 1261.12,-162.95"/>
<polygon fill="#63b8ff" stroke="#63b8ff" points="1262.84,-166.04 1268.79,-157.27 1258.67,-160.41 1262.84,-166.04"/>
</g>
<!-- Node9&#45;&gt;Node16 -->
<g id="edge16" class="edge">
<title>Node9&#45;&gt;Node16</title>
<path fill="none" stroke="#63b8ff" d="M1249.26,-199.07C1329.4,-194.75 1516.66,-182.48 1671.76,-156 1672.43,-155.89 1673.11,-155.77 1673.79,-155.65"/>
<polygon fill="#63b8ff" stroke="#63b8ff" points="1674.33,-159.11 1683.46,-153.74 1672.97,-152.24 1674.33,-159.11"/>
</g>
<!-- Node9&#45;&gt;Node17 -->
<g id="edge17" class="edge">
<title>Node9&#45;&gt;Node17</title>
<path fill="none" stroke="#63b8ff" d="M1249.34,-199.8C1341.73,-196.54 1569.07,-185.64 1638.76,-156 1659.08,-147.36 1658.24,-136.03 1676.76,-124 1694.75,-112.32 1715.8,-101.58 1734.32,-93"/>
<polygon fill="#63b8ff" stroke="#63b8ff" points="1735.56,-96.28 1743.22,-88.96 1732.67,-89.91 1735.56,-96.28"/>
</g>
<!-- Node9&#45;&gt;Node18 -->
<g id="edge18" class="edge">
<title>Node9&#45;&gt;Node18</title>
<path fill="none" stroke="#63b8ff" d="M1170.37,-199.51C1085.25,-195.85 878,-184.54 706.76,-156 706.09,-155.89 705.41,-155.77 704.73,-155.65"/>
<polygon fill="#63b8ff" stroke="#63b8ff" points="705.54,-152.24 695.06,-153.77 704.2,-159.12 705.54,-152.24"/>
</g>
<!-- Node19 -->
<g id="node19" class="node">
<title>Node19</title>
<g id="a_node19"><a xlink:href="FMTexception_8hpp.html" target="_top" xlink:title=" ">
<polygon fill="white" stroke="#666666" points="844.89,-82 748.64,-82 748.64,-62 844.89,-62 844.89,-82"/>
<text text-anchor="middle" x="796.76" y="-68.5" font-family="Helvetica,sans-Serif" font-size="10.00">FMTexception.hpp</text>
</a>
</g>
</g>
<!-- Node9&#45;&gt;Node19 -->
<g id="edge19" class="edge">
<title>Node9&#45;&gt;Node19</title>
<path fill="none" stroke="#63b8ff" d="M1170.14,-199.04C1075.44,-194.01 841.87,-179.35 815.76,-156 798.49,-140.55 795.25,-112.9 795.33,-93.79"/>
<polygon fill="#63b8ff" stroke="#63b8ff" points="798.82,-94.06 795.71,-83.93 791.82,-93.79 798.82,-94.06"/>
</g>
<!-- Node21 -->
<g id="node21" class="node">
<title>Node21</title>
<g id="a_node21"><a xlink:title=" ">
<polygon fill="#e0e0e0" stroke="#999999" points="199.76,-20 159.76,-20 159.76,0 199.76,0 199.76,-20"/>
<text text-anchor="middle" x="179.76" y="-6.5" font-family="Helvetica,sans-Serif" font-size="10.00">string</text>
</a>
</g>
</g>
<!-- Node9&#45;&gt;Node21 -->
<g id="edge26" class="edge">
<title>Node9&#45;&gt;Node21</title>
<path fill="none" stroke="#63b8ff" d="M1170.28,-199.71C1095.8,-196.62 929.84,-186.61 793.76,-156 751.53,-146.5 743.41,-135.81 701.76,-124 567.31,-85.87 531.38,-85.43 394.76,-56 329.64,-41.97 253.3,-26.14 211.36,-17.49"/>
<polygon fill="#63b8ff" stroke="#63b8ff" points="212.22,-14.1 201.72,-15.51 210.8,-20.95 212.22,-14.1"/>
</g>
<!-- Node9&#45;&gt;Node24 -->
<g id="edge25" class="edge">
<title>Node9&#45;&gt;Node24</title>
<path fill="none" stroke="#63b8ff" d="M1249.25,-199.9C1362.48,-196.45 1686.75,-184.3 1788.76,-156 1789.94,-155.67 1791.13,-155.3 1792.31,-154.89"/>
<polygon fill="#63b8ff" stroke="#63b8ff" points="1793.5,-158.19 1801.32,-151.04 1790.75,-151.75 1793.5,-158.19"/>
</g>
<!-- Node19&#45;&gt;Node5 -->
<g id="edge23" class="edge">
<title>Node19&#45;&gt;Node5</title>
<path fill="none" stroke="#63b8ff" d="M830.31,-61.54C839.46,-59.32 849.43,-57.25 858.76,-56 1165.71,-14.89 2170.16,-11.32 2377.22,-11.02"/>
<polygon fill="#63b8ff" stroke="#63b8ff" points="2377.13,-14.52 2387.12,-11.01 2377.12,-7.52 2377.13,-14.52"/>
</g>
<!-- Node20 -->
<g id="node20" class="node">
<title>Node20</title>
<g id="a_node20"><a xlink:title=" ">
<polygon fill="#e0e0e0" stroke="#999999" points="911.76,-20 853.76,-20 853.76,0 911.76,0 911.76,-20"/>
<text text-anchor="middle" x="882.76" y="-6.5" font-family="Helvetica,sans-Serif" font-size="10.00">exception</text>
</a>
</g>
</g>
<!-- Node19&#45;&gt;Node20 -->
<g id="edge20" class="edge">
<title>Node19&#45;&gt;Node20</title>
<path fill="none" stroke="#63b8ff" d="M810.2,-61.62C823.58,-52.29 844.36,-37.79 860.26,-26.7"/>
<polygon fill="#63b8ff" stroke="#63b8ff" points="861.98,-29.77 868.18,-21.18 857.97,-24.03 861.98,-29.77"/>
</g>
<!-- Node19&#45;&gt;Node21 -->
<g id="edge21" class="edge">
<title>Node19&#45;&gt;Node21</title>
<path fill="none" stroke="#63b8ff" d="M761.87,-61.55C753.08,-59.45 743.62,-57.42 734.76,-56 537.35,-24.32 296.65,-14.46 211.47,-11.84"/>
<polygon fill="#63b8ff" stroke="#63b8ff" points="211.67,-8.34 201.57,-11.54 211.46,-15.34 211.67,-8.34"/>
</g>
<!-- Node22 -->
<g id="node22" class="node">
<title>Node22</title>
<g id="a_node22"><a xlink:title=" ">
<polygon fill="#e0e0e0" stroke="#999999" points="739.51,-20 686.01,-20 686.01,0 739.51,0 739.51,-20"/>
<text text-anchor="middle" x="712.76" y="-6.5" font-family="Helvetica,sans-Serif" font-size="10.00">iostream</text>
</a>
</g>
</g>
<!-- Node19&#45;&gt;Node22 -->
<g id="edge22" class="edge">
<title>Node19&#45;&gt;Node22</title>
<path fill="none" stroke="#63b8ff" d="M783.64,-61.62C770.57,-52.29 750.27,-37.79 734.74,-26.7"/>
<polygon fill="#63b8ff" stroke="#63b8ff" points="737.2,-24.15 727.03,-21.19 733.13,-29.85 737.2,-24.15"/>
</g>
<!-- Node23 -->
<g id="node23" class="node">
<title>Node23</title>
<g id="a_node23"><a xlink:href="FMTutility_8hpp.html" target="_top" xlink:title=" ">
<polygon fill="white" stroke="#666666" points="835.51,-20 758.01,-20 758.01,0 835.51,0 835.51,-20"/>
<text text-anchor="middle" x="796.76" y="-6.5" font-family="Helvetica,sans-Serif" font-size="10.00">FMTutility.hpp</text>
</a>
</g>
</g>
<!-- Node19&#45;&gt;Node23 -->
<g id="edge24" class="edge">
<title>Node19&#45;&gt;Node23</title>
<path fill="none" stroke="#63b8ff" d="M796.76,-61.62C796.76,-53.56 796.76,-41.65 796.76,-31.41"/>
<polygon fill="#63b8ff" stroke="#63b8ff" points="800.26,-31.63 796.76,-21.63 793.26,-31.63 800.26,-31.63"/>
</g>
<!-- Node25&#45;&gt;Node5 -->
<g id="edge35" class="edge">
<title>Node25&#45;&gt;Node5</title>
<path fill="none" stroke="#63b8ff" d="M1946.4,-198.46C2024.23,-193.13 2191.28,-179.3 2243.76,-156 2311.47,-125.94 2373.01,-60.44 2400.14,-28.8"/>
<polygon fill="#63b8ff" stroke="#63b8ff" points="2402.68,-31.21 2406.44,-21.31 2397.33,-26.71 2402.68,-31.21"/>
</g>
<!-- Node25&#45;&gt;Node16 -->
<g id="edge32" class="edge">
<title>Node25&#45;&gt;Node16</title>
<path fill="none" stroke="#63b8ff" d="M1878.73,-191.62C1854.61,-183.26 1818.53,-170.75 1788.28,-160.25"/>
<polygon fill="#63b8ff" stroke="#63b8ff" points="1789.45,-156.96 1778.86,-156.99 1787.16,-163.57 1789.45,-156.96"/>
</g>
<!-- Node25&#45;&gt;Node17 -->
<g id="edge33" class="edge">
<title>Node25&#45;&gt;Node17</title>
<path fill="none" stroke="#63b8ff" d="M1905.15,-191.6C1903.67,-175.88 1898.64,-144.02 1881.76,-124 1870.58,-110.74 1855.08,-100.54 1839.63,-92.87"/>
<polygon fill="#63b8ff" stroke="#63b8ff" points="1841.44,-89.85 1830.9,-88.82 1838.5,-96.2 1841.44,-89.85"/>
</g>
<!-- Node25&#45;&gt;Node19 -->
<g id="edge34" class="edge">
<title>Node25&#45;&gt;Node19</title>
<path fill="none" stroke="#63b8ff" d="M1900.2,-191.56C1888.91,-172.74 1863.14,-131.69 1848.76,-124 1761.32,-77.25 1066.87,-73.11 856.77,-72.93"/>
<polygon fill="#63b8ff" stroke="#63b8ff" points="856.9,-69.43 846.89,-72.93 856.89,-76.43 856.9,-69.43"/>
</g>
<!-- Node25&#45;&gt;Node24 -->
<g id="edge37" class="edge">
<title>Node25&#45;&gt;Node24</title>
<path fill="none" stroke="#63b8ff" d="M1892.17,-191.62C1878.63,-182.29 1857.61,-167.79 1841.53,-156.7"/>
<polygon fill="#63b8ff" stroke="#63b8ff" points="1843.73,-153.96 1833.51,-151.17 1839.75,-159.73 1843.73,-153.96"/>
</g>
<!-- Node26 -->
<g id="node26" class="node">
<title>Node26</title>
<g id="a_node26"><a xlink:title=" ">
<polygon fill="#e0e0e0" stroke="#999999" points="2171.14,-156 2076.39,-156 2076.39,-124 2171.14,-124 2171.14,-156"/>
<text text-anchor="start" x="2084.39" y="-142.5" font-family="Helvetica,sans-Serif" font-size="10.00">boost/serialization</text>
<text text-anchor="middle" x="2123.76" y="-130.5" font-family="Helvetica,sans-Serif" font-size="10.00">/shared_ptr.hpp</text>
</a>
</g>
</g>
<!-- Node25&#45;&gt;Node26 -->
<g id="edge31" class="edge">
<title>Node25&#45;&gt;Node26</title>
<path fill="none" stroke="#63b8ff" d="M1939.82,-191.62C1973.32,-182.41 2025.11,-168.15 2065.21,-157.11"/>
<polygon fill="#63b8ff" stroke="#63b8ff" points="2066.02,-160.52 2074.73,-154.49 2064.16,-153.77 2066.02,-160.52"/>
</g>
<!-- Node27 -->
<g id="node27" class="node">
<title>Node27</title>
<g id="a_node27"><a xlink:title=" ">
<polygon fill="#e0e0e0" stroke="#999999" points="2234.39,-150 2189.14,-150 2189.14,-130 2234.39,-130 2234.39,-150"/>
<text text-anchor="middle" x="2211.76" y="-136.5" font-family="Helvetica,sans-Serif" font-size="10.00">chrono</text>
</a>
</g>
</g>
<!-- Node25&#45;&gt;Node27 -->
<g id="edge36" class="edge">
<title>Node25&#45;&gt;Node27</title>
<path fill="none" stroke="#63b8ff" d="M1946.49,-197.84C2000.73,-192.83 2099.18,-180.98 2179.76,-156 2180.93,-155.64 2182.12,-155.24 2183.31,-154.81"/>
<polygon fill="#63b8ff" stroke="#63b8ff" points="2184.53,-158.09 2192.43,-151.04 2181.85,-151.63 2184.53,-158.09"/>
</g>
<!-- Node28 -->
<g id="node28" class="node">
<title>Node28</title>
<g id="a_node28"><a xlink:title=" ">
<polygon fill="#e0e0e0" stroke="#999999" points="2058.14,-156 1933.39,-156 1933.39,-124 2058.14,-124 2058.14,-156"/>
<text text-anchor="start" x="1941.39" y="-142.5" font-family="Helvetica,sans-Serif" font-size="10.00">boost/dll/runtime_symbol</text>
<text text-anchor="middle" x="1995.76" y="-130.5" font-family="Helvetica,sans-Serif" font-size="10.00">_info.hpp</text>
</a>
</g>
</g>
<!-- Node25&#45;&gt;Node28 -->
<g id="edge38" class="edge">
<title>Node25&#45;&gt;Node28</title>
<path fill="none" stroke="#63b8ff" d="M1919.82,-191.62C1931.42,-183.89 1948.34,-172.62 1963.26,-162.67"/>
<polygon fill="#63b8ff" stroke="#63b8ff" points="1965.06,-165.67 1971.44,-157.21 1961.18,-159.85 1965.06,-165.67"/>
</g>
<!-- Node29&#45;&gt;Node3 -->
<g id="edge50" class="edge">
<title>Node29&#45;&gt;Node3</title>
<path fill="none" stroke="#63b8ff" d="M377.4,-193.66C313.71,-185.96 213.58,-172.66 127.76,-156 127.09,-155.87 126.42,-155.74 125.74,-155.6"/>
<polygon fill="#63b8ff" stroke="#63b8ff" points="126.6,-152.21 116.09,-153.55 125.15,-159.05 126.6,-152.21"/>
</g>
<!-- Node29&#45;&gt;Node5 -->
<g id="edge53" class="edge">
<title>Node29&#45;&gt;Node5</title>
<path fill="none" stroke="#63b8ff" d="M457.32,-191.52C489.84,-171.79 563.04,-127.82 575.76,-124 754.28,-70.44 2132,-20.74 2377.42,-12.27"/>
<polygon fill="#63b8ff" stroke="#63b8ff" points="2377.49,-15.77 2387.36,-11.93 2377.25,-8.77 2377.49,-15.77"/>
</g>
<!-- Node29&#45;&gt;Node16 -->
<g id="edge51" class="edge">
<title>Node29&#45;&gt;Node16</title>
<path fill="none" stroke="#63b8ff" d="M505.82,-192.77C508.84,-192.49 511.83,-192.23 514.76,-192 1013.08,-153.38 1141.21,-203.47 1638.76,-156 1650.11,-154.92 1662.17,-153.33 1673.74,-151.58"/>
<polygon fill="#63b8ff" stroke="#63b8ff" points="1674.26,-155.05 1683.6,-150.04 1673.17,-148.13 1674.26,-155.05"/>
</g>
<!-- Node29&#45;&gt;Node17 -->
<g id="edge52" class="edge">
<title>Node29&#45;&gt;Node17</title>
<path fill="none" stroke="#63b8ff" d="M505.97,-191.76C558.81,-183.71 635.52,-170.99 701.76,-156 753.09,-144.39 763.84,-132.55 815.76,-124 991.8,-95.01 1540.99,-79.01 1722.71,-74.41"/>
<polygon fill="#63b8ff" stroke="#63b8ff" points="1722.72,-77.91 1732.63,-74.16 1722.55,-70.91 1722.72,-77.91"/>
</g>
<!-- Node30 -->
<g id="node30" class="node">
<title>Node30</title>
<g id="a_node30"><a xlink:href="FMTlogger_8hpp.html" target="_top" xlink:title=" ">
<polygon fill="white" stroke="#666666" points="250.01,-150 169.51,-150 169.51,-130 250.01,-130 250.01,-150"/>
<text text-anchor="middle" x="209.76" y="-136.5" font-family="Helvetica,sans-Serif" font-size="10.00">FMTlogger.hpp</text>
</a>
</g>
</g>
<!-- Node29&#45;&gt;Node30 -->
<g id="edge43" class="edge">
<title>Node29&#45;&gt;Node30</title>
<path fill="none" stroke="#63b8ff" d="M400.53,-191.56C363.32,-182.87 307.18,-169.35 258.76,-156 256.06,-155.25 253.28,-154.47 250.49,-153.66"/>
<polygon fill="#63b8ff" stroke="#63b8ff" points="251.78,-150.39 241.19,-150.9 249.79,-157.1 251.78,-150.39"/>
</g>
<!-- Node33 -->
<g id="node33" class="node">
<title>Node33</title>
<g id="a_node33"><a xlink:title=" ">
<polygon fill="#e0e0e0" stroke="#999999" points="505.14,-150 422.39,-150 422.39,-130 505.14,-130 505.14,-150"/>
<text text-anchor="middle" x="463.76" y="-136.5" font-family="Helvetica,sans-Serif" font-size="10.00">unordered_map</text>
</a>
</g>
</g>
<!-- Node29&#45;&gt;Node33 -->
<g id="edge49" class="edge">
<title>Node29&#45;&gt;Node33</title>
<path fill="none" stroke="#63b8ff" d="M445.2,-191.62C448.22,-183.39 452.71,-171.13 456.52,-160.74"/>
<polygon fill="#63b8ff" stroke="#63b8ff" points="459.74,-162.13 459.9,-151.53 453.17,-159.72 459.74,-162.13"/>
</g>
<!-- Node34 -->
<g id="node34" class="node">
<title>Node34</title>
<g id="a_node34"><a xlink:title=" ">
<polygon fill="#e0e0e0" stroke="#999999" points="297.51,-150 268.01,-150 268.01,-130 297.51,-130 297.51,-150"/>
<text text-anchor="middle" x="282.76" y="-136.5" font-family="Helvetica,sans-Serif" font-size="10.00">set</text>
</a>
</g>
</g>
<!-- Node29&#45;&gt;Node34 -->
<g id="edge54" class="edge">
<title>Node29&#45;&gt;Node34</title>
<path fill="none" stroke="#63b8ff" d="M405.91,-191.57C378.18,-183.67 339.17,-171.26 306.76,-156 306.66,-155.95 306.55,-155.9 306.44,-155.85"/>
<polygon fill="#63b8ff" stroke="#63b8ff" points="308.43,-152.95 297.99,-151.19 305.06,-159.08 308.43,-152.95"/>
</g>
<!-- Node35 -->
<g id="node35" class="node">
<title>Node35</title>
<g id="a_node35"><a xlink:title=" ">
<polygon fill="#e0e0e0" stroke="#999999" points="404.14,-150 315.39,-150 315.39,-130 404.14,-130 404.14,-150"/>
<text text-anchor="middle" x="359.76" y="-136.5" font-family="Helvetica,sans-Serif" font-size="10.00">boost/thread.hpp</text>
</a>
</g>
</g>
<!-- Node29&#45;&gt;Node35 -->
<g id="edge55" class="edge">
<title>Node29&#45;&gt;Node35</title>
<path fill="none" stroke="#63b8ff" d="M428.95,-191.62C416.31,-182.38 396.75,-168.07 381.65,-157.01"/>
<polygon fill="#63b8ff" stroke="#63b8ff" points="383.84,-154.28 373.71,-151.2 379.71,-159.93 383.84,-154.28"/>
</g>
<!-- Node30&#45;&gt;Node17 -->
<g id="edge44" class="edge">
<title>Node30&#45;&gt;Node17</title>
<path fill="none" stroke="#63b8ff" d="M236.16,-129.53C243.39,-127.32 251.3,-125.24 258.76,-124 404.84,-99.63 1460.6,-78.87 1722.89,-74.05"/>
<polygon fill="#63b8ff" stroke="#63b8ff" points="1722.61,-77.56 1732.55,-73.88 1722.48,-70.56 1722.61,-77.56"/>
</g>
<!-- Node30&#45;&gt;Node19 -->
<g id="edge48" class="edge">
<title>Node30&#45;&gt;Node19</title>
<path fill="none" stroke="#63b8ff" d="M237.24,-129.52C244.19,-127.42 251.69,-125.4 258.76,-124 430.28,-89.98 637.2,-78.47 737.08,-74.72"/>
<polygon fill="#63b8ff" stroke="#63b8ff" points="737.05,-78.22 746.92,-74.36 736.8,-71.22 737.05,-78.22"/>
</g>
<!-- Node30&#45;&gt;Node21 -->
<g id="edge47" class="edge">
<title>Node30&#45;&gt;Node21</title>
<path fill="none" stroke="#63b8ff" d="M207.6,-129.79C202.81,-109.32 191.15,-59.61 184.54,-31.41"/>
<polygon fill="#63b8ff" stroke="#63b8ff" points="188.02,-30.88 182.33,-21.94 181.2,-32.48 188.02,-30.88"/>
</g>
<!-- Node31 -->
<g id="node31" class="node">
<title>Node31</title>
<g id="a_node31"><a xlink:title=" ">
<polygon fill="#e0e0e0" stroke="#999999" points="319.39,-88 208.14,-88 208.14,-56 319.39,-56 319.39,-88"/>
<text text-anchor="start" x="216.14" y="-74.5" font-family="Helvetica,sans-Serif" font-size="10.00">boost/thread/recursive</text>
<text text-anchor="middle" x="263.76" y="-62.5" font-family="Helvetica,sans-Serif" font-size="10.00">_mutex.hpp</text>
</a>
</g>
</g>
<!-- Node30&#45;&gt;Node31 -->
<g id="edge45" class="edge">
<title>Node30&#45;&gt;Node31</title>
<path fill="none" stroke="#63b8ff" d="M217.5,-129.54C224.45,-121.05 234.95,-108.21 244.19,-96.92"/>
<polygon fill="#63b8ff" stroke="#63b8ff" points="246.66,-99.43 250.28,-89.47 241.24,-95 246.66,-99.43"/>
</g>
<!-- Node32 -->
<g id="node32" class="node">
<title>Node32</title>
<g id="a_node32"><a xlink:title=" ">
<polygon fill="#e0e0e0" stroke="#999999" points="385.89,-82 337.64,-82 337.64,-62 385.89,-62 385.89,-82"/>
<text text-anchor="middle" x="361.76" y="-68.5" font-family="Helvetica,sans-Serif" font-size="10.00">fstream</text>
</a>
</g>
</g>
<!-- Node30&#45;&gt;Node32 -->
<g id="edge46" class="edge">
<title>Node30&#45;&gt;Node32</title>
<path fill="none" stroke="#63b8ff" d="M232.2,-129.56C256.17,-119.43 295.25,-102.8 328.76,-88 329.52,-87.67 330.28,-87.33 331.05,-86.98"/>
<polygon fill="#63b8ff" stroke="#63b8ff" points="332.13,-90.34 339.82,-83.05 329.26,-83.95 332.13,-90.34"/>
</g>
<!-- Node36&#45;&gt;Node3 -->
<g id="edge61" class="edge">
<title>Node36&#45;&gt;Node3</title>
<path fill="none" stroke="#63b8ff" d="M1293.21,-318.47C1068.53,-316.37 355.19,-306.67 259.76,-268 212.49,-248.84 216.31,-220.14 173.76,-192 155.89,-180.18 134.85,-169.54 116.18,-161.07"/>
<polygon fill="#63b8ff" stroke="#63b8ff" points="117.74,-157.93 107.18,-157.08 114.9,-164.33 117.74,-157.93"/>
</g>
<!-- Node36&#45;&gt;Node8 -->
<g id="edge60" class="edge">
<title>Node36&#45;&gt;Node8</title>
<path fill="none" stroke="#63b8ff" d="M1372.32,-309.62C1383.69,-300.41 1401.25,-286.17 1414.86,-275.14"/>
<polygon fill="#63b8ff" stroke="#63b8ff" points="1416.78,-278.08 1422.35,-269.07 1412.38,-272.65 1416.78,-278.08"/>
</g>
<!-- Node36&#45;&gt;Node16 -->
<g id="edge62" class="edge">
<title>Node36&#45;&gt;Node16</title>
<path fill="none" stroke="#63b8ff" d="M1389.57,-309.58C1417.62,-300.11 1461.24,-284.57 1497.76,-268 1570.64,-234.94 1652.04,-188.74 1697.36,-162.14"/>
<polygon fill="#63b8ff" stroke="#63b8ff" points="1699.14,-165.16 1705.97,-157.07 1695.58,-159.13 1699.14,-165.16"/>
</g>
<!-- Node36&#45;&gt;Node17 -->
<g id="edge63" class="edge">
<title>Node36&#45;&gt;Node17</title>
<path fill="none" stroke="#63b8ff" d="M1407.11,-309.55C1417.19,-307.61 1427.82,-305.66 1437.76,-304 1621.04,-273.38 2152.66,-307.14 2260.76,-156 2269.04,-144.43 2270.27,-134.58 2260.76,-124 2233.14,-93.28 1962.71,-79.6 1840.81,-74.95"/>
<polygon fill="#63b8ff" stroke="#63b8ff" points="1841.13,-71.46 1831.01,-74.59 1840.87,-78.46 1841.13,-71.46"/>
</g>
<!-- Node38&#45;&gt;Node3 -->
<g id="edge69" class="edge">
<title>Node38&#45;&gt;Node3</title>
<path fill="none" stroke="#63b8ff" d="M444.29,-247.5C415.54,-238.89 372.55,-225.51 335.76,-212 314.07,-204.03 309.78,-199.01 287.76,-192 218.3,-169.9 198.71,-172.7 127.76,-156 126.95,-155.81 126.12,-155.61 125.3,-155.42"/>
<polygon fill="#63b8ff" stroke="#63b8ff" points="126.37,-152.08 115.83,-153.15 124.74,-158.88 126.37,-152.08"/>
</g>
<!-- Node38&#45;&gt;Node16 -->
<g id="edge70" class="edge">
<title>Node38&#45;&gt;Node16</title>
<path fill="none" stroke="#63b8ff" d="M536.16,-255.14C666.84,-250.7 989.07,-237.87 1257.76,-212 1442.58,-194.2 1489.35,-190.66 1671.76,-156 1672.43,-155.87 1673.1,-155.74 1673.78,-155.61"/>
<polygon fill="#63b8ff" stroke="#63b8ff" points="1674.37,-159.06 1683.44,-153.59 1672.93,-152.21 1674.37,-159.06"/>
</g>
<!-- Node38&#45;&gt;Node21 -->
<g id="edge72" class="edge">
<title>Node38&#45;&gt;Node21</title>
<path fill="none" stroke="#63b8ff" d="M417.31,-253.13C303.42,-244.34 61.23,-218.58 10.76,-156 -36.99,-96.79 88.49,-42.94 149.12,-21.19"/>
<polygon fill="#63b8ff" stroke="#63b8ff" points="149.93,-24.62 158.21,-18.01 147.61,-18.01 149.93,-24.62"/>
</g>
<!-- Node38&#45;&gt;Node24 -->
<g id="edge71" class="edge">
<title>Node38&#45;&gt;Node24</title>
<path fill="none" stroke="#63b8ff" d="M536.12,-255.69C679.48,-252.16 1055.89,-240.7 1368.76,-212 1556.29,-194.8 1608.75,-211.31 1788.76,-156 1789.9,-155.65 1791.05,-155.26 1792.2,-154.84"/>
<polygon fill="#63b8ff" stroke="#63b8ff" points="1793.19,-158.23 1800.96,-151.03 1790.4,-151.81 1793.19,-158.23"/>
</g>
<!-- Node39 -->
<g id="node39" class="node">
<title>Node39</title>
<g id="a_node39"><a xlink:href="FMTbaseedgeproperties_8hpp.html" target="_top" xlink:title=" ">
<polygon fill="white" stroke="#666666" points="662.26,-212 523.26,-212 523.26,-192 662.26,-192 662.26,-212"/>
<text text-anchor="middle" x="592.76" y="-198.5" font-family="Helvetica,sans-Serif" font-size="10.00">FMTbaseedgeproperties.hpp</text>
</a>
</g>
</g>
<!-- Node38&#45;&gt;Node39 -->
<g id="edge73" class="edge">
<title>Node38&#45;&gt;Node39</title>
<path fill="none" stroke="#63b8ff" d="M496.97,-247.59C514.99,-239.21 541.63,-226.8 562.24,-217.21"/>
<polygon fill="#63b8ff" stroke="#63b8ff" points="563.44,-220.51 571.03,-213.12 560.48,-214.17 563.44,-220.51"/>
</g>
<!-- Node39&#45;&gt;Node3 -->
<g id="edge74" class="edge">
<title>Node39&#45;&gt;Node3</title>
<path fill="none" stroke="#63b8ff" d="M523.03,-192.88C520.24,-192.58 517.47,-192.28 514.76,-192 342.95,-174.1 298.1,-184.7 127.76,-156 127.09,-155.89 126.41,-155.77 125.74,-155.65"/>
<polygon fill="#63b8ff" stroke="#63b8ff" points="126.54,-152.24 116.06,-153.76 125.2,-159.11 126.54,-152.24"/>
</g>
<!-- Node39&#45;&gt;Node16 -->
<g id="edge75" class="edge">
<title>Node39&#45;&gt;Node16</title>
<path fill="none" stroke="#63b8ff" d="M662.74,-200.77C831.21,-199.61 1272.55,-192.97 1638.76,-156 1650.11,-154.85 1662.17,-153.24 1673.73,-151.48"/>
<polygon fill="#63b8ff" stroke="#63b8ff" points="1674.25,-154.95 1683.59,-149.94 1673.16,-148.03 1674.25,-154.95"/>
</g>
<!-- Node39&#45;&gt;Node17 -->
<g id="edge76" class="edge">
<title>Node39&#45;&gt;Node17</title>
<path fill="none" stroke="#63b8ff" d="M588.66,-191.69C582.24,-175.53 572.27,-142.26 589.76,-124 629.31,-82.73 1487.16,-74.71 1722.51,-73.29"/>
<polygon fill="#63b8ff" stroke="#63b8ff" points="1722.39,-76.79 1732.37,-73.23 1722.35,-69.79 1722.39,-76.79"/>
</g>
<!-- Node39&#45;&gt;Node21 -->
<g id="edge78" class="edge">
<title>Node39&#45;&gt;Node21</title>
<path fill="none" stroke="#63b8ff" d="M523.03,-192.91C520.23,-192.6 517.47,-192.29 514.76,-192 475.46,-187.73 187.27,-185.34 160.76,-156 129.23,-121.1 153.28,-60.78 168.99,-30.11"/>
<polygon fill="#63b8ff" stroke="#63b8ff" points="171.92,-32.05 173.56,-21.58 165.75,-28.74 171.92,-32.05"/>
</g>
<!-- Node39&#45;&gt;Node24 -->
<g id="edge77" class="edge">
<title>Node39&#45;&gt;Node24</title>
<path fill="none" stroke="#63b8ff" d="M662.44,-200.1C901.55,-196.76 1679.94,-183.86 1788.76,-156 1790.13,-155.65 1791.5,-155.23 1792.87,-154.76"/>
<polygon fill="#63b8ff" stroke="#63b8ff" points="1793.85,-158.15 1801.67,-151.01 1791.1,-151.72 1793.85,-158.15"/>
</g>
</g>
</svg>
