<?xml version="1.0" encoding="UTF-8" standalone="no"?>
<!DOCTYPE svg PUBLIC "-//W3C//DTD SVG 1.1//EN"
 "http://www.w3.org/Graphics/SVG/1.1/DTD/svg11.dtd">
<!-- Generated by graphviz version 10.0.1 (20240210.2158)
 -->
<!-- Title: D:/FMT/Include/FMTgraphstats.hpp Pages: 1 -->
<!--zoomable 420 -->
<svg id="main" version="1.1" xmlns="http://www.w3.org/2000/svg" xmlns:xlink="http://www.w3.org/1999/xlink" xml:space="preserve" onload="init(evt)">
<style type="text/css"><![CDATA[
.edge:hover path { stroke: red; }
.edge:hover polygon { stroke: red; fill: red; }
]]></style>
<script type="text/javascript"><![CDATA[
var edges = document.getElementsByTagName('g');
if (edges && edges.length) {
  for (var i=0;i<edges.length;i++) {
    if (edges[i].id.substr(0,4)=='edge') {
      edges[i].setAttribute('class','edge');
    }
  }
}
]]></script>
        <defs>
                <circle id="rim" cx="0" cy="0" r="7"/>
                <circle id="rim2" cx="0" cy="0" r="3.5"/>
                <g id="zoomPlus">
                        <use xlink:href="#rim" fill="#404040">
                                <set attributeName="fill" to="#808080" begin="zoomplus.mouseover" end="zoomplus.mouseout"/>
                        </use>
                        <path d="M-4,0h8M0,-4v8" fill="none" stroke="white" stroke-width="1.5" pointer-events="none"/>
                </g>
                <g id="zoomMin">
                        <use xlink:href="#rim" fill="#404040">
                                <set attributeName="fill" to="#808080" begin="zoomminus.mouseover" end="zoomminus.mouseout"/>
                        </use>
                        <path d="M-4,0h8" fill="none" stroke="white" stroke-width="1.5" pointer-events="none"/>
                </g>
                <g id="dirArrow">
                        <path fill="none" stroke="white" stroke-width="1.5" d="M0,-3.0v7 M-2.5,-0.5L0,-3.0L2.5,-0.5"/>
                </g>
               <g id="resetDef">
                       <use xlink:href="#rim2" fill="#404040">
                               <set attributeName="fill" to="#808080" begin="reset.mouseover" end="reset.mouseout"/>
                       </use>
               </g>
        </defs>

<script type="text/javascript">
var viewWidth = 1329;
var viewHeight = 420;
var sectionId = 'dynsection-1';
</script>
<script xlink:href="svgpan.js"/>
<svg id="graph" class="graph">
<g id="viewport">
<title>D:/FMT/Include/FMTgraphstats.hpp</title>
<!-- Node1 -->
<g id="node1" class="node">
<title>Node1</title>
<g id="a_node1"><a xlink:title=" ">
<polygon fill="#999999" stroke="#666666" points="938.62,-412 769.62,-412 769.62,-392 938.62,-392 938.62,-412"/>
<text text-anchor="middle" x="854.12" y="-398.5" font-family="Helvetica,sans-Serif" font-size="10.00">D:/FMT/Include/FMTgraphstats.hpp</text>
</a>
</g>
</g>
<!-- Node2 -->
<g id="node2" class="node">
<title>Node2</title>
<g id="a_node2"><a xlink:href="FMTgraph_8hpp.html" target="_top" xlink:title=" ">
<polygon fill="white" stroke="#666666" points="712.75,-356 565.5,-356 565.5,-336 712.75,-336 712.75,-356"/>
<text text-anchor="middle" x="639.12" y="-342.5" font-family="Helvetica,sans-Serif" font-size="10.00">D:/FMT/Include/FMTgraph.hpp</text>
</a>
</g>
</g>
<!-- Node1&#45;&gt;Node2 -->
<g id="edge1" class="edge">
<title>Node1&#45;&gt;Node2</title>
<path fill="none" stroke="#63b8ff" d="M805.6,-388.81C766.62,-379.02 712.66,-365.47 676.87,-356.48"/>
<polygon fill="#63b8ff" stroke="#63b8ff" points="804.66,-392.18 815.21,-391.23 806.36,-385.39 804.66,-392.18"/>
</g>
<!-- Node21 -->
<g id="node21" class="node">
<title>Node21</title>
<g id="a_node21"><a xlink:href="PYexportGraph_8hpp.html" target="_top" xlink:title=" ">
<polygon fill="white" stroke="#666666" points="1053.38,-300 882.88,-300 882.88,-280 1053.38,-280 1053.38,-300"/>
<text text-anchor="middle" x="968.12" y="-286.5" font-family="Helvetica,sans-Serif" font-size="10.00">D:/FMT/Include/PYexportGraph.hpp</text>
</a>
</g>
</g>
<!-- Node1&#45;&gt;Node21 -->
<g id="edge47" class="edge">
<title>Node1&#45;&gt;Node21</title>
<path fill="none" stroke="#63b8ff" d="M855.74,-380.57C857.8,-366.62 862.49,-348.46 873.12,-336 888.05,-318.51 911.3,-307.33 931.06,-300.5"/>
<polygon fill="#63b8ff" stroke="#63b8ff" points="852.27,-380.1 854.65,-390.42 859.23,-380.87 852.27,-380.1"/>
</g>
<!-- Node23 -->
<g id="node23" class="node">
<title>Node23</title>
<g id="a_node23"><a xlink:href="RexportGraph_8hpp.html" target="_top" xlink:title=" ">
<polygon fill="white" stroke="#666666" points="1046,-356 882.25,-356 882.25,-336 1046,-336 1046,-356"/>
<text text-anchor="middle" x="964.12" y="-342.5" font-family="Helvetica,sans-Serif" font-size="10.00">D:/FMT/Include/RexportGraph.hpp</text>
</a>
</g>
</g>
<!-- Node1&#45;&gt;Node23 -->
<g id="edge48" class="edge">
<title>Node1&#45;&gt;Node23</title>
<path fill="none" stroke="#63b8ff" d="M883.43,-386.61C902.87,-377.07 927.84,-364.81 944.81,-356.48"/>
<polygon fill="#63b8ff" stroke="#63b8ff" points="882.08,-383.38 874.64,-390.93 885.16,-389.66 882.08,-383.38"/>
</g>
<!-- Node3 -->
<g id="node3" class="node">
<title>Node3</title>
<g id="a_node3"><a xlink:href="FMTlinegraph_8hpp.html" target="_top" xlink:title=" ">
<polygon fill="white" stroke="#666666" points="582.25,-300 420,-300 420,-280 582.25,-280 582.25,-300"/>
<text text-anchor="middle" x="501.12" y="-286.5" font-family="Helvetica,sans-Serif" font-size="10.00">D:/FMT/Include/FMTlinegraph.hpp</text>
</a>
</g>
</g>
<!-- Node2&#45;&gt;Node3 -->
<g id="edge2" class="edge">
<title>Node2&#45;&gt;Node3</title>
<path fill="none" stroke="#63b8ff" d="M604.37,-331.4C579.72,-321.75 547.24,-309.05 525.35,-300.48"/>
<polygon fill="#63b8ff" stroke="#63b8ff" points="603.09,-334.66 613.68,-335.04 605.64,-328.14 603.09,-334.66"/>
</g>
<!-- Node13 -->
<g id="node13" class="node">
<title>Node13</title>
<g id="a_node13"><a xlink:href="RexportSpatial_8hpp.html" target="_top" xlink:title=" ">
<polygon fill="white" stroke="#666666" points="580.88,-188 413.38,-188 413.38,-168 580.88,-168 580.88,-188"/>
<text text-anchor="middle" x="497.12" y="-174.5" font-family="Helvetica,sans-Serif" font-size="10.00">D:/FMT/Include/RexportSpatial.hpp</text>
</a>
</g>
</g>
<!-- Node2&#45;&gt;Node13 -->
<g id="edge46" class="edge">
<title>Node2&#45;&gt;Node13</title>
<path fill="none" stroke="#63b8ff" d="M554.05,-339.29C497.06,-333.48 429.26,-322.06 411.12,-300 378.56,-260.38 448.59,-209.24 481.39,-188.43"/>
<polygon fill="#63b8ff" stroke="#63b8ff" points="553.49,-342.75 563.78,-340.23 554.16,-335.78 553.49,-342.75"/>
</g>
<!-- Node14 -->
<g id="node14" class="node">
<title>Node14</title>
<g id="a_node14"><a xlink:href="FMToperatingareascheme_8hpp.html" target="_top" xlink:title=" ">
<polygon fill="white" stroke="#666666" points="216.25,-188 0,-188 0,-168 216.25,-168 216.25,-188"/>
<text text-anchor="middle" x="108.12" y="-174.5" font-family="Helvetica,sans-Serif" font-size="10.00">D:/FMT/Include/FMToperatingareascheme.hpp</text>
</a>
</g>
</g>
<!-- Node2&#45;&gt;Node14 -->
<g id="edge21" class="edge">
<title>Node2&#45;&gt;Node14</title>
<path fill="none" stroke="#63b8ff" d="M554.07,-342.76C418.86,-338.41 166.9,-326.79 136.12,-300 102.95,-271.12 104.87,-211.43 107.01,-188.37"/>
<polygon fill="#63b8ff" stroke="#63b8ff" points="553.58,-346.25 563.68,-343.06 553.8,-339.25 553.58,-346.25"/>
</g>
<!-- Node17 -->
<g id="node17" class="node">
<title>Node17</title>
<g id="a_node17"><a xlink:href="FMToutputnodecache_8hpp.html" target="_top" xlink:title=" ">
<polygon fill="white" stroke="#666666" points="864.88,-300 667.38,-300 667.38,-280 864.88,-280 864.88,-300"/>
<text text-anchor="middle" x="766.12" y="-286.5" font-family="Helvetica,sans-Serif" font-size="10.00">D:/FMT/Include/FMToutputnodecache.hpp</text>
</a>
</g>
</g>
<!-- Node2&#45;&gt;Node17 -->
<g id="edge29" class="edge">
<title>Node2&#45;&gt;Node17</title>
<path fill="none" stroke="#63b8ff" d="M666.32,-330.88C687.67,-321.3 717.09,-308.89 738.55,-300.48"/>
<polygon fill="#63b8ff" stroke="#63b8ff" points="665,-327.63 657.36,-334.97 667.91,-334 665,-327.63"/>
</g>
<!-- Node18 -->
<g id="node18" class="node">
<title>Node18</title>
<g id="a_node18"><a xlink:href="FMTsrmodel_8hpp.html" target="_top" xlink:title=" ">
<polygon fill="white" stroke="#666666" points="1082,-188 924.25,-188 924.25,-168 1082,-168 1082,-188"/>
<text text-anchor="middle" x="1003.12" y="-174.5" font-family="Helvetica,sans-Serif" font-size="10.00">D:/FMT/Include/FMTsrmodel.hpp</text>
</a>
</g>
</g>
<!-- Node2&#45;&gt;Node18 -->
<g id="edge31" class="edge">
<title>Node2&#45;&gt;Node18</title>
<path fill="none" stroke="#63b8ff" d="M640.1,-324.46C641.85,-310.19 646.42,-291.7 658.12,-280 728.83,-209.27 846.2,-187.51 924.11,-181.13"/>
<polygon fill="#63b8ff" stroke="#63b8ff" points="636.63,-323.88 639.3,-334.13 643.61,-324.45 636.63,-323.88"/>
</g>
<!-- Node2&#45;&gt;Node21 -->
<g id="edge44" class="edge">
<title>Node2&#45;&gt;Node21</title>
<path fill="none" stroke="#63b8ff" d="M708.07,-333.68C768.09,-323.83 854.09,-309.72 910.51,-300.46"/>
<polygon fill="#63b8ff" stroke="#63b8ff" points="707.6,-330.21 698.3,-335.29 708.74,-337.12 707.6,-330.21"/>
</g>
<!-- Node22 -->
<g id="node22" class="node">
<title>Node22</title>
<g id="a_node22"><a xlink:href="PYexportSpatial_8hpp.html" target="_top" xlink:title=" ">
<polygon fill="white" stroke="#666666" points="319.25,-300 145,-300 145,-280 319.25,-280 319.25,-300"/>
<text text-anchor="middle" x="232.12" y="-286.5" font-family="Helvetica,sans-Serif" font-size="10.00">D:/FMT/Include/PYexportSpatial.hpp</text>
</a>
</g>
</g>
<!-- Node2&#45;&gt;Node22 -->
<g id="edge45" class="edge">
<title>Node2&#45;&gt;Node22</title>
<path fill="none" stroke="#63b8ff" d="M556.59,-334.05C482.24,-324.18 374.07,-309.83 303.4,-300.46"/>
<polygon fill="#63b8ff" stroke="#63b8ff" points="555.89,-337.49 566.26,-335.33 556.81,-330.55 555.89,-337.49"/>
</g>
<!-- Node4 -->
<g id="node4" class="node">
<title>Node4</title>
<g id="a_node4"><a xlink:href="FMTspatialschedule_8hpp.html" target="_top" xlink:title=" ">
<polygon fill="white" stroke="#666666" points="641.5,-244 450.75,-244 450.75,-224 641.5,-224 641.5,-244"/>
<text text-anchor="middle" x="546.12" y="-230.5" font-family="Helvetica,sans-Serif" font-size="10.00">D:/FMT/Include/FMTspatialschedule.hpp</text>
</a>
</g>
</g>
<!-- Node3&#45;&gt;Node4 -->
<g id="edge3" class="edge">
<title>Node3&#45;&gt;Node4</title>
<path fill="none" stroke="#63b8ff" d="M516.12,-271C523.58,-262.06 532.27,-251.62 538.38,-244.3"/>
<polygon fill="#63b8ff" stroke="#63b8ff" points="513.65,-268.51 509.93,-278.43 519.02,-272.99 513.65,-268.51"/>
</g>
<!-- Node8 -->
<g id="node8" class="node">
<title>Node8</title>
<g id="a_node8"><a xlink:href="Rdeclarations_8hpp.html" target="_top" xlink:title=" ">
<polygon fill="white" stroke="#666666" points="717.62,-76 554.62,-76 554.62,-56 717.62,-56 717.62,-76"/>
<text text-anchor="middle" x="636.12" y="-62.5" font-family="Helvetica,sans-Serif" font-size="10.00">D:/FMT/Include/Rdeclarations.hpp</text>
</a>
</g>
</g>
<!-- Node3&#45;&gt;Node8 -->
<g id="edge19" class="edge">
<title>Node3&#45;&gt;Node8</title>
<path fill="none" stroke="#63b8ff" d="M473.72,-273.87C461.24,-266.07 446.89,-255.73 436.12,-244 416.75,-222.87 411.48,-215.71 404.12,-188 394.8,-152.9 405.2,-133.95 434.12,-112 454.59,-96.47 515.22,-84.25 564.76,-76.49"/>
<polygon fill="#63b8ff" stroke="#63b8ff" points="471.55,-276.65 481.93,-278.78 475.14,-270.64 471.55,-276.65"/>
</g>
<!-- Node3&#45;&gt;Node13 -->
<g id="edge20" class="edge">
<title>Node3&#45;&gt;Node13</title>
<path fill="none" stroke="#63b8ff" d="M471.04,-273.83C459.82,-266.48 448.31,-256.5 442.12,-244 430.98,-221.48 458.89,-200.2 478.9,-188.45"/>
<polygon fill="#63b8ff" stroke="#63b8ff" points="469.01,-276.69 479.39,-278.83 472.61,-270.69 469.01,-276.69"/>
</g>
<!-- Node5 -->
<g id="node5" class="node">
<title>Node5</title>
<g id="a_node5"><a xlink:href="FMTsemodel_8hpp.html" target="_top" xlink:title=" ">
<polygon fill="white" stroke="#666666" points="761.12,-188 601.12,-188 601.12,-168 761.12,-168 761.12,-188"/>
<text text-anchor="middle" x="681.12" y="-174.5" font-family="Helvetica,sans-Serif" font-size="10.00">D:/FMT/Include/FMTsemodel.hpp</text>
</a>
</g>
</g>
<!-- Node4&#45;&gt;Node5 -->
<g id="edge4" class="edge">
<title>Node4&#45;&gt;Node5</title>
<path fill="none" stroke="#63b8ff" d="M580.12,-219.4C604.24,-209.75 636.01,-197.05 657.43,-188.48"/>
<polygon fill="#63b8ff" stroke="#63b8ff" points="579.03,-216.07 571.05,-223.03 581.63,-222.57 579.03,-216.07"/>
</g>
<!-- Node4&#45;&gt;Node13 -->
<g id="edge18" class="edge">
<title>Node4&#45;&gt;Node13</title>
<path fill="none" stroke="#63b8ff" d="M530.05,-215.29C521.88,-206.28 512.28,-195.7 505.56,-188.3"/>
<polygon fill="#63b8ff" stroke="#63b8ff" points="527.26,-217.42 536.57,-222.47 532.44,-212.72 527.26,-217.42"/>
</g>
<!-- Node6 -->
<g id="node6" class="node">
<title>Node6</title>
<g id="a_node6"><a xlink:href="FMTsamodel_8hpp.html" target="_top" xlink:title=" ">
<polygon fill="white" stroke="#666666" points="1047.12,-132 887.12,-132 887.12,-112 1047.12,-112 1047.12,-132"/>
<text text-anchor="middle" x="967.12" y="-118.5" font-family="Helvetica,sans-Serif" font-size="10.00">D:/FMT/Include/FMTsamodel.hpp</text>
</a>
</g>
</g>
<!-- Node5&#45;&gt;Node6 -->
<g id="edge5" class="edge">
<title>Node5&#45;&gt;Node6</title>
<path fill="none" stroke="#63b8ff" d="M742.37,-165.44C794.48,-155.6 868.4,-141.64 917.04,-132.46"/>
<polygon fill="#63b8ff" stroke="#63b8ff" points="741.93,-161.96 732.76,-167.25 743.23,-168.84 741.93,-161.96"/>
</g>
<!-- Node7 -->
<g id="node7" class="node">
<title>Node7</title>
<g id="a_node7"><a xlink:href="PYexportModel_8hpp.html" target="_top" xlink:title=" ">
<polygon fill="white" stroke="#666666" points="1196.38,-76 1025.88,-76 1025.88,-56 1196.38,-56 1196.38,-76"/>
<text text-anchor="middle" x="1111.12" y="-62.5" font-family="Helvetica,sans-Serif" font-size="10.00">D:/FMT/Include/PYexportModel.hpp</text>
</a>
</g>
</g>
<!-- Node5&#45;&gt;Node7 -->
<g id="edge15" class="edge">
<title>Node5&#45;&gt;Node7</title>
<path fill="none" stroke="#63b8ff" d="M772.7,-172.84C927.21,-165.38 1224.52,-148.91 1240.12,-132 1266.15,-103.8 1214.99,-86.09 1169.61,-76.4"/>
<polygon fill="#63b8ff" stroke="#63b8ff" points="772.71,-169.34 762.88,-173.31 773.04,-176.33 772.71,-169.34"/>
</g>
<!-- Node5&#45;&gt;Node8 -->
<g id="edge16" class="edge">
<title>Node5&#45;&gt;Node8</title>
<path fill="none" stroke="#63b8ff" d="M593.33,-165.96C529.29,-157 452.03,-143.94 442.12,-132 436.45,-125.16 436.6,-118.96 442.12,-112 456.37,-94.07 507.84,-82.64 554.19,-75.79"/>
<polygon fill="#63b8ff" stroke="#63b8ff" points="592.82,-169.42 603.21,-167.32 593.78,-162.48 592.82,-169.42"/>
</g>
<!-- Node9 -->
<g id="node9" class="node">
<title>Node9</title>
<g id="a_node9"><a xlink:href="RexportModel_8hpp.html" target="_top" xlink:title=" ">
<polygon fill="white" stroke="#666666" points="972,-76 808.25,-76 808.25,-56 972,-56 972,-76"/>
<text text-anchor="middle" x="890.12" y="-62.5" font-family="Helvetica,sans-Serif" font-size="10.00">D:/FMT/Include/RexportModel.hpp</text>
</a>
</g>
</g>
<!-- Node5&#45;&gt;Node9 -->
<g id="edge17" class="edge">
<title>Node5&#45;&gt;Node9</title>
<path fill="none" stroke="#63b8ff" d="M682.61,-156.24C684.74,-141.86 689.87,-123.34 702.12,-112 719.43,-95.99 774.37,-84 820.42,-76.44"/>
<polygon fill="#63b8ff" stroke="#63b8ff" points="679.15,-155.7 681.56,-166.02 686.11,-156.45 679.15,-155.7"/>
</g>
<!-- Node10 -->
<g id="node10" class="node">
<title>Node10</title>
<g id="a_node10"><a xlink:href="FMTsesmodel_8hpp.html" target="_top" xlink:title=" ">
<polygon fill="white" stroke="#666666" points="616.75,-132 451.5,-132 451.5,-112 616.75,-112 616.75,-132"/>
<text text-anchor="middle" x="534.12" y="-118.5" font-family="Helvetica,sans-Serif" font-size="10.00">D:/FMT/Include/FMTsesmodel.hpp</text>
</a>
</g>
</g>
<!-- Node5&#45;&gt;Node10 -->
<g id="edge9" class="edge">
<title>Node5&#45;&gt;Node10</title>
<path fill="none" stroke="#63b8ff" d="M644.82,-163.66C618.47,-153.98 583.46,-141.12 559.93,-132.48"/>
<polygon fill="#63b8ff" stroke="#63b8ff" points="643.51,-166.91 654.1,-167.07 645.92,-160.34 643.51,-166.91"/>
</g>
<!-- Node6&#45;&gt;Node7 -->
<g id="edge6" class="edge">
<title>Node6&#45;&gt;Node7</title>
<path fill="none" stroke="#63b8ff" d="M1002.69,-107.66C1028.5,-97.98 1062.8,-85.12 1085.85,-76.48"/>
<polygon fill="#63b8ff" stroke="#63b8ff" points="1001.76,-104.27 993.63,-111.06 1004.22,-110.83 1001.76,-104.27"/>
</g>
<!-- Node6&#45;&gt;Node8 -->
<g id="edge7" class="edge">
<title>Node6&#45;&gt;Node8</title>
<path fill="none" stroke="#63b8ff" d="M897.76,-109.68C837.37,-99.83 750.85,-85.72 694.09,-76.46"/>
<polygon fill="#63b8ff" stroke="#63b8ff" points="897.16,-113.13 907.6,-111.29 898.29,-106.22 897.16,-113.13"/>
</g>
<!-- Node6&#45;&gt;Node9 -->
<g id="edge8" class="edge">
<title>Node6&#45;&gt;Node9</title>
<path fill="none" stroke="#63b8ff" d="M944.31,-105C931.08,-95.72 914.87,-84.35 903.64,-76.48"/>
<polygon fill="#63b8ff" stroke="#63b8ff" points="942.28,-107.85 952.47,-110.72 946.3,-102.12 942.28,-107.85"/>
</g>
<!-- Node10&#45;&gt;Node7 -->
<g id="edge12" class="edge">
<title>Node10&#45;&gt;Node7</title>
<path fill="none" stroke="#63b8ff" d="M628.52,-112.17C738.65,-101.86 919.16,-84.97 1025.41,-75.02"/>
<polygon fill="#63b8ff" stroke="#63b8ff" points="628.24,-108.68 618.61,-113.09 628.89,-115.65 628.24,-108.68"/>
</g>
<!-- Node10&#45;&gt;Node8 -->
<g id="edge13" class="edge">
<title>Node10&#45;&gt;Node8</title>
<path fill="none" stroke="#63b8ff" d="M562.05,-106.21C579.97,-96.73 602.69,-84.7 618.22,-76.48"/>
<polygon fill="#63b8ff" stroke="#63b8ff" points="560.43,-103.11 553.23,-110.89 563.71,-109.3 560.43,-103.11"/>
</g>
<!-- Node10&#45;&gt;Node9 -->
<g id="edge14" class="edge">
<title>Node10&#45;&gt;Node9</title>
<path fill="none" stroke="#63b8ff" d="M607.92,-109.81C672.9,-99.95 766.48,-85.76 827.78,-76.46"/>
<polygon fill="#63b8ff" stroke="#63b8ff" points="607.4,-106.34 598.04,-111.31 608.45,-113.27 607.4,-106.34"/>
</g>
<!-- Node11 -->
<g id="node11" class="node">
<title>Node11</title>
<g id="a_node11"><a xlink:href="FMTpythonpickle_8hpp.html" target="_top" xlink:title=" ">
<polygon fill="white" stroke="#666666" points="528.12,-76 350.12,-76 350.12,-56 528.12,-56 528.12,-76"/>
<text text-anchor="middle" x="439.12" y="-62.5" font-family="Helvetica,sans-Serif" font-size="10.00">D:/FMT/Include/FMTpythonpickle.hpp</text>
</a>
</g>
</g>
<!-- Node10&#45;&gt;Node11 -->
<g id="edge10" class="edge">
<title>Node10&#45;&gt;Node11</title>
<path fill="none" stroke="#63b8ff" d="M507.88,-106.08C491.23,-96.62 470.19,-84.66 455.8,-76.48"/>
<polygon fill="#63b8ff" stroke="#63b8ff" points="505.84,-108.95 516.26,-110.85 509.3,-102.86 505.84,-108.95"/>
</g>
<!-- Node12 -->
<g id="node12" class="node">
<title>Node12</title>
<g id="a_node12"><a xlink:href="PYexportHeuristics_8hpp.html" target="_top" xlink:title=" ">
<polygon fill="white" stroke="#666666" points="399,-20 211.25,-20 211.25,0 399,0 399,-20"/>
<text text-anchor="middle" x="305.12" y="-6.5" font-family="Helvetica,sans-Serif" font-size="10.00">D:/FMT/Include/PYexportHeuristics.hpp</text>
</a>
</g>
</g>
<!-- Node11&#45;&gt;Node12 -->
<g id="edge11" class="edge">
<title>Node11&#45;&gt;Node12</title>
<path fill="none" stroke="#63b8ff" d="M405.38,-51.4C381.44,-41.75 349.91,-29.05 328.65,-20.48"/>
<polygon fill="#63b8ff" stroke="#63b8ff" points="403.8,-54.54 414.38,-55.03 406.41,-48.04 403.8,-54.54"/>
</g>
<!-- Node14&#45;&gt;Node12 -->
<g id="edge27" class="edge">
<title>Node14&#45;&gt;Node12</title>
<path fill="none" stroke="#63b8ff" d="M96.25,-157.8C81.85,-131.79 62.28,-85.25 86.12,-56 102.19,-36.3 159.16,-24.97 210.97,-18.62"/>
<polygon fill="#63b8ff" stroke="#63b8ff" points="93.13,-159.41 101.2,-166.27 99.18,-155.87 93.13,-159.41"/>
</g>
<!-- Node15 -->
<g id="node15" class="node">
<title>Node15</title>
<g id="a_node15"><a xlink:href="FMToperatingareascheduler_8hpp.html" target="_top" xlink:title=" ">
<polygon fill="white" stroke="#666666" points="357,-132 133.25,-132 133.25,-112 357,-112 357,-132"/>
<text text-anchor="middle" x="245.12" y="-118.5" font-family="Helvetica,sans-Serif" font-size="10.00">D:/FMT/Include/FMToperatingareascheduler.hpp</text>
</a>
</g>
</g>
<!-- Node14&#45;&gt;Node15 -->
<g id="edge22" class="edge">
<title>Node14&#45;&gt;Node15</title>
<path fill="none" stroke="#63b8ff" d="M142.62,-163.4C167.1,-153.75 199.34,-141.05 221.08,-132.48"/>
<polygon fill="#63b8ff" stroke="#63b8ff" points="141.42,-160.12 133.4,-167.04 143.98,-166.63 141.42,-160.12"/>
</g>
<!-- Node16 -->
<g id="node16" class="node">
<title>Node16</title>
<g id="a_node16"><a xlink:href="RexportHeuristics_8hpp.html" target="_top" xlink:title=" ">
<polygon fill="white" stroke="#666666" points="276.62,-76 95.62,-76 95.62,-56 276.62,-56 276.62,-76"/>
<text text-anchor="middle" x="186.12" y="-62.5" font-family="Helvetica,sans-Serif" font-size="10.00">D:/FMT/Include/RexportHeuristics.hpp</text>
</a>
</g>
</g>
<!-- Node14&#45;&gt;Node16 -->
<g id="edge28" class="edge">
<title>Node14&#45;&gt;Node16</title>
<path fill="none" stroke="#63b8ff" d="M109.49,-156.73C111.23,-143.11 115.19,-125.29 124.12,-112 134.74,-96.22 152.84,-84.03 166.75,-76.34"/>
<polygon fill="#63b8ff" stroke="#63b8ff" points="106.04,-156.01 108.58,-166.3 113.01,-156.68 106.04,-156.01"/>
</g>
<!-- Node15&#45;&gt;Node8 -->
<g id="edge25" class="edge">
<title>Node15&#45;&gt;Node8</title>
<path fill="none" stroke="#63b8ff" d="M324.85,-109.99C396.27,-100.13 499.9,-85.81 567.65,-76.46"/>
<polygon fill="#63b8ff" stroke="#63b8ff" points="324.61,-106.49 315.18,-111.33 325.56,-113.42 324.61,-106.49"/>
</g>
<!-- Node15&#45;&gt;Node11 -->
<g id="edge23" class="edge">
<title>Node15&#45;&gt;Node11</title>
<path fill="none" stroke="#63b8ff" d="M289.82,-108.56C324.91,-98.79 373.05,-85.39 405.07,-76.48"/>
<polygon fill="#63b8ff" stroke="#63b8ff" points="289.07,-105.13 280.38,-111.19 290.95,-111.88 289.07,-105.13"/>
</g>
<!-- Node15&#45;&gt;Node12 -->
<g id="edge24" class="edge">
<title>Node15&#45;&gt;Node12</title>
<path fill="none" stroke="#63b8ff" d="M263.72,-103.66C271.24,-95.82 279.46,-86.06 285.12,-76 295.43,-57.68 301.07,-33.41 303.56,-20.32"/>
<polygon fill="#63b8ff" stroke="#63b8ff" points="261.42,-101.02 256.78,-110.54 266.35,-105.98 261.42,-101.02"/>
</g>
<!-- Node15&#45;&gt;Node16 -->
<g id="edge26" class="edge">
<title>Node15&#45;&gt;Node16</title>
<path fill="none" stroke="#63b8ff" d="M226.38,-103.85C216.41,-94.72 204.54,-83.86 196.28,-76.3"/>
<polygon fill="#63b8ff" stroke="#63b8ff" points="223.99,-106.4 233.73,-110.57 228.72,-101.24 223.99,-106.4"/>
</g>
<!-- Node17&#45;&gt;Node2 -->
<g id="edge30" class="edge">
<title>Node17&#45;&gt;Node2</title>
<path fill="none" stroke="#63b8ff" d="M738.74,-305.21C717.34,-314.8 687.92,-327.21 666.51,-335.59"/>
<polygon fill="#63b8ff" stroke="#63b8ff" points="740.09,-308.44 747.73,-301.11 737.18,-302.07 740.09,-308.44"/>
</g>
<!-- Node18&#45;&gt;Node7 -->
<g id="edge41" class="edge">
<title>Node18&#45;&gt;Node7</title>
<path fill="none" stroke="#63b8ff" d="M1093.44,-176.41C1174,-173.73 1283.4,-164.07 1311.12,-132 1348.25,-89.05 1266.49,-74.3 1196.56,-69.33"/>
<polygon fill="#63b8ff" stroke="#63b8ff" points="1093.67,-172.9 1083.78,-176.69 1093.88,-179.9 1093.67,-172.9"/>
</g>
<!-- Node18&#45;&gt;Node8 -->
<g id="edge42" class="edge">
<title>Node18&#45;&gt;Node8</title>
<path fill="none" stroke="#63b8ff" d="M912.52,-169.66C837.68,-162.47 738.1,-149.96 702.12,-132 675.65,-118.78 653.14,-90.99 642.57,-76.4"/>
<polygon fill="#63b8ff" stroke="#63b8ff" points="912.05,-173.13 922.33,-170.59 912.71,-166.16 912.05,-173.13"/>
</g>
<!-- Node18&#45;&gt;Node9 -->
<g id="edge43" class="edge">
<title>Node18&#45;&gt;Node9</title>
<path fill="none" stroke="#63b8ff" d="M1093.52,-171.56C1152.32,-165.92 1221.43,-154.58 1240.12,-132 1245.79,-125.15 1246,-118.67 1240.12,-112 1231.32,-102 1072.8,-84.8 972.14,-74.81"/>
<polygon fill="#63b8ff" stroke="#63b8ff" points="1093.44,-168.05 1083.8,-172.45 1094.08,-175.02 1093.44,-168.05"/>
</g>
<!-- Node19 -->
<g id="node19" class="node">
<title>Node19</title>
<g id="a_node19"><a xlink:href="FMTlpmodel_8hpp.html" target="_top" xlink:title=" ">
<polygon fill="white" stroke="#666666" points="868.62,-132 711.62,-132 711.62,-112 868.62,-112 868.62,-132"/>
<text text-anchor="middle" x="790.12" y="-118.5" font-family="Helvetica,sans-Serif" font-size="10.00">D:/FMT/Include/FMTlpmodel.hpp</text>
</a>
</g>
</g>
<!-- Node18&#45;&gt;Node19 -->
<g id="edge32" class="edge">
<title>Node18&#45;&gt;Node19</title>
<path fill="none" stroke="#63b8ff" d="M955.05,-164.81C916.44,-155.02 862.98,-141.47 827.52,-132.48"/>
<polygon fill="#63b8ff" stroke="#63b8ff" points="954,-168.16 964.56,-167.22 955.72,-161.37 954,-168.16"/>
</g>
<!-- Node20 -->
<g id="node20" class="node">
<title>Node20</title>
<g id="a_node20"><a xlink:href="FMTnssmodel_8hpp.html" target="_top" xlink:title=" ">
<polygon fill="white" stroke="#666666" points="1230.75,-132 1065.5,-132 1065.5,-112 1230.75,-112 1230.75,-132"/>
<text text-anchor="middle" x="1148.12" y="-118.5" font-family="Helvetica,sans-Serif" font-size="10.00">D:/FMT/Include/FMTnssmodel.hpp</text>
</a>
</g>
</g>
<!-- Node18&#45;&gt;Node20 -->
<g id="edge37" class="edge">
<title>Node18&#45;&gt;Node20</title>
<path fill="none" stroke="#63b8ff" d="M1038.94,-163.66C1064.93,-153.98 1099.46,-141.12 1122.67,-132.48"/>
<polygon fill="#63b8ff" stroke="#63b8ff" points="1037.95,-160.3 1029.8,-167.07 1040.39,-166.86 1037.95,-160.3"/>
</g>
<!-- Node19&#45;&gt;Node7 -->
<g id="edge34" class="edge">
<title>Node19&#45;&gt;Node7</title>
<path fill="none" stroke="#63b8ff" d="M857.4,-109.68C915.96,-99.83 999.86,-85.72 1054.91,-76.46"/>
<polygon fill="#63b8ff" stroke="#63b8ff" points="857.18,-106.17 847.9,-111.28 858.34,-113.07 857.18,-106.17"/>
</g>
<!-- Node19&#45;&gt;Node8 -->
<g id="edge35" class="edge">
<title>Node19&#45;&gt;Node8</title>
<path fill="none" stroke="#63b8ff" d="M752.46,-107.79C724.81,-98.1 687.92,-85.16 663.16,-76.48"/>
<polygon fill="#63b8ff" stroke="#63b8ff" points="751.28,-111.09 761.87,-111.09 753.59,-104.48 751.28,-111.09"/>
</g>
<!-- Node19&#45;&gt;Node9 -->
<g id="edge36" class="edge">
<title>Node19&#45;&gt;Node9</title>
<path fill="none" stroke="#63b8ff" d="M817.26,-106.35C834.86,-96.84 857.28,-84.74 872.57,-76.48"/>
<polygon fill="#63b8ff" stroke="#63b8ff" points="816.01,-103.04 808.88,-110.87 819.34,-109.2 816.01,-103.04"/>
</g>
<!-- Node19&#45;&gt;Node11 -->
<g id="edge33" class="edge">
<title>Node19&#45;&gt;Node11</title>
<path fill="none" stroke="#63b8ff" d="M717.36,-109.81C653.29,-99.95 561.04,-85.76 500.6,-76.46"/>
<polygon fill="#63b8ff" stroke="#63b8ff" points="716.67,-113.24 727.09,-111.3 717.74,-106.32 716.67,-113.24"/>
</g>
<!-- Node20&#45;&gt;Node7 -->
<g id="edge38" class="edge">
<title>Node20&#45;&gt;Node7</title>
<path fill="none" stroke="#63b8ff" d="M1135.21,-102.15C1129.22,-93.4 1122.36,-83.39 1117.5,-76.3"/>
<polygon fill="#63b8ff" stroke="#63b8ff" points="1132.28,-104.07 1140.82,-110.35 1138.06,-100.12 1132.28,-104.07"/>
</g>
<!-- Node20&#45;&gt;Node8 -->
<g id="edge39" class="edge">
<title>Node20&#45;&gt;Node8</title>
<path fill="none" stroke="#63b8ff" d="M1053.82,-111.05C957.48,-100.89 809.42,-85.28 717.89,-75.62"/>
<polygon fill="#63b8ff" stroke="#63b8ff" points="1053.19,-114.51 1063.5,-112.08 1053.93,-107.55 1053.19,-114.51"/>
</g>
<!-- Node20&#45;&gt;Node9 -->
<g id="edge40" class="edge">
<title>Node20&#45;&gt;Node9</title>
<path fill="none" stroke="#63b8ff" d="M1091.69,-109.19C1044.75,-99.36 978.81,-85.56 935.31,-76.46"/>
<polygon fill="#63b8ff" stroke="#63b8ff" points="1090.9,-112.6 1101.41,-111.22 1092.34,-105.75 1090.9,-112.6"/>
</g>
</g>
</svg>
        <g id="navigator" transform="translate(0 0)" fill="#404254">
                <rect fill="#f2f5e9" fill-opacity="0.5" stroke="#606060" stroke-width=".5" x="0" y="0" width="60" height="60"/>
                <use id="zoomplus" xlink:href="#zoomPlus" x="17" y="9" onmousedown="handleZoom(evt,'in')"/>
                <use id="zoomminus" xlink:href="#zoomMin" x="42" y="9" onmousedown="handleZoom(evt,'out')"/>
                <use id="reset" xlink:href="#resetDef" x="30" y="36" onmousedown="handleReset()"/>
                <g id="arrowUp" xlink:href="#dirArrow" transform="translate(30 24)" onmousedown="handlePan(0,-1)">
                  <use xlink:href="#rim" fill="#404040">
                        <set attributeName="fill" to="#808080" begin="arrowUp.mouseover" end="arrowUp.mouseout"/>
                  </use>
                  <path fill="none" stroke="white" stroke-width="1.5" d="M0,-3.0v7 M-2.5,-0.5L0,-3.0L2.5,-0.5"/>
                </g>
                <g id="arrowRight" xlink:href="#dirArrow" transform="rotate(90) translate(36 -43)" onmousedown="handlePan(1,0)">
                  <use xlink:href="#rim" fill="#404040">
                        <set attributeName="fill" to="#808080" begin="arrowRight.mouseover" end="arrowRight.mouseout"/>
                  </use>
                  <path fill="none" stroke="white" stroke-width="1.5" d="M0,-3.0v7 M-2.5,-0.5L0,-3.0L2.5,-0.5"/>
                </g>
                <g id="arrowDown" xlink:href="#dirArrow" transform="rotate(180) translate(-30 -48)" onmousedown="handlePan(0,1)">
                  <use xlink:href="#rim" fill="#404040">
                        <set attributeName="fill" to="#808080" begin="arrowDown.mouseover" end="arrowDown.mouseout"/>
                  </use>
                  <path fill="none" stroke="white" stroke-width="1.5" d="M0,-3.0v7 M-2.5,-0.5L0,-3.0L2.5,-0.5"/>
                </g>
                <g id="arrowLeft" xlink:href="#dirArrow" transform="rotate(270) translate(-36 17)" onmousedown="handlePan(-1,0)">
                  <use xlink:href="#rim" fill="#404040">
                        <set attributeName="fill" to="#808080" begin="arrowLeft.mouseover" end="arrowLeft.mouseout"/>
                  </use>
                  <path fill="none" stroke="white" stroke-width="1.5" d="M0,-3.0v7 M-2.5,-0.5L0,-3.0L2.5,-0.5"/>
                </g>
        </g>
        <svg viewBox="0 0 15 15" width="100%" height="30px" preserveAspectRatio="xMaxYMin meet">
         <g id="arrow_out" transform="scale(0.3 0.3)">
          <a xlink:href="FMTgraphstats_8hpp__dep__incl_org.svg" target="_base">
           <rect id="button" ry="5" rx="5" y="6" x="6" height="38" width="38"
                fill="#f2f5e9" fill-opacity="0.5" stroke="#606060" stroke-width="1.0"/>
           <path id="arrow"
             d="M 11.500037,31.436501 C 11.940474,20.09759 22.043105,11.32322 32.158766,21.979434 L 37.068811,17.246167 C 37.068811,17.246167 37.088388,32 37.088388,32 L 22.160133,31.978069 C 22.160133,31.978069 26.997745,27.140456 26.997745,27.140456 C 18.528582,18.264221 13.291696,25.230495 11.500037,31.436501 z"
             style="fill:#404040;"/>
          </a>
         </g>
        </svg>
</svg>
