<?xml version="1.0" encoding="UTF-8" standalone="no"?>
<!DOCTYPE svg PUBLIC "-//W3C//DTD SVG 1.1//EN"
 "http://www.w3.org/Graphics/SVG/1.1/DTD/svg11.dtd">
<!-- Generated by graphviz version 10.0.1 (20240210.2158)
 -->
<!-- Title: D:/FMT/Include/FMTlayer.hpp Pages: 1 -->
<!--zoomable 276 -->
<svg id="main" version="1.1" xmlns="http://www.w3.org/2000/svg" xmlns:xlink="http://www.w3.org/1999/xlink" xml:space="preserve" onload="init(evt)">
<style type="text/css"><![CDATA[
.edge:hover path { stroke: red; }
.edge:hover polygon { stroke: red; fill: red; }
]]></style>
<script type="text/javascript"><![CDATA[
var edges = document.getElementsByTagName('g');
if (edges && edges.length) {
  for (var i=0;i<edges.length;i++) {
    if (edges[i].id.substr(0,4)=='edge') {
      edges[i].setAttribute('class','edge');
    }
  }
}
]]></script>
        <defs>
                <circle id="rim" cx="0" cy="0" r="7"/>
                <circle id="rim2" cx="0" cy="0" r="3.5"/>
                <g id="zoomPlus">
                        <use xlink:href="#rim" fill="#404040">
                                <set attributeName="fill" to="#808080" begin="zoomplus.mouseover" end="zoomplus.mouseout"/>
                        </use>
                        <path d="M-4,0h8M0,-4v8" fill="none" stroke="white" stroke-width="1.5" pointer-events="none"/>
                </g>
                <g id="zoomMin">
                        <use xlink:href="#rim" fill="#404040">
                                <set attributeName="fill" to="#808080" begin="zoomminus.mouseover" end="zoomminus.mouseout"/>
                        </use>
                        <path d="M-4,0h8" fill="none" stroke="white" stroke-width="1.5" pointer-events="none"/>
                </g>
                <g id="dirArrow">
                        <path fill="none" stroke="white" stroke-width="1.5" d="M0,-3.0v7 M-2.5,-0.5L0,-3.0L2.5,-0.5"/>
                </g>
               <g id="resetDef">
                       <use xlink:href="#rim2" fill="#404040">
                               <set attributeName="fill" to="#808080" begin="reset.mouseover" end="reset.mouseout"/>
                       </use>
               </g>
        </defs>

<script type="text/javascript">
var viewWidth = 1583;
var viewHeight = 276;
var sectionId = 'dynsection-0';
</script>
<script xlink:href="svgpan.js"/>
<svg id="graph" class="graph">
<g id="viewport">
<title>D:/FMT/Include/FMTlayer.hpp</title>
<!-- Node1 -->
<g id="node1" class="node">
<title>Node1</title>
<g id="a_node1"><a xlink:title=" ">
<polygon fill="#999999" stroke="#666666" points="954.91,-268 810.66,-268 810.66,-248 954.91,-248 954.91,-268"/>
<text text-anchor="middle" x="882.78" y="-254.5" font-family="Helvetica,sans-Serif" font-size="10.00">D:/FMT/Include/FMTlayer.hpp</text>
</a>
</g>
</g>
<!-- Node2 -->
<g id="node2" class="node">
<title>Node2</title>
<g id="a_node2"><a xlink:title=" ">
<polygon fill="#e0e0e0" stroke="#999999" points="889.41,-20 838.16,-20 838.16,0 889.41,0 889.41,-20"/>
<text text-anchor="middle" x="863.78" y="-6.5" font-family="Helvetica,sans-Serif" font-size="10.00">memory</text>
</a>
</g>
</g>
<!-- Node1&#45;&gt;Node2 -->
<g id="edge1" class="edge">
<title>Node1&#45;&gt;Node2</title>
<path fill="none" stroke="#63b8ff" d="M810.16,-254.23C609.94,-245.84 61.42,-217.39 10.78,-156 -97.13,-25.16 649.02,-12.32 826.49,-11.12"/>
<polygon fill="#63b8ff" stroke="#63b8ff" points="826.32,-14.62 836.3,-11.06 826.28,-7.62 826.32,-14.62"/>
</g>
<!-- Node3 -->
<g id="node3" class="node">
<title>Node3</title>
<g id="a_node3"><a xlink:title=" ">
<polygon fill="#e0e0e0" stroke="#999999" points="1257.16,-212 1222.41,-212 1222.41,-192 1257.16,-192 1257.16,-212"/>
<text text-anchor="middle" x="1239.78" y="-198.5" font-family="Helvetica,sans-Serif" font-size="10.00">map</text>
</a>
</g>
</g>
<!-- Node1&#45;&gt;Node3 -->
<g id="edge2" class="edge">
<title>Node1&#45;&gt;Node3</title>
<path fill="none" stroke="#63b8ff" d="M955.21,-251.31C1020.21,-245.27 1118.25,-233.84 1211.03,-212.28"/>
<polygon fill="#63b8ff" stroke="#63b8ff" points="1211.62,-215.73 1220.55,-210.02 1210.01,-208.92 1211.62,-215.73"/>
</g>
<!-- Node4 -->
<g id="node4" class="node">
<title>Node4</title>
<g id="a_node4"><a xlink:title=" ">
<polygon fill="#e0e0e0" stroke="#999999" points="1146.53,-150 1105.03,-150 1105.03,-130 1146.53,-130 1146.53,-150"/>
<text text-anchor="middle" x="1125.78" y="-136.5" font-family="Helvetica,sans-Serif" font-size="10.00">vector</text>
</a>
</g>
</g>
<!-- Node1&#45;&gt;Node4 -->
<g id="edge3" class="edge">
<title>Node1&#45;&gt;Node4</title>
<path fill="none" stroke="#63b8ff" d="M903.26,-247.64C941.5,-230.09 1026.26,-190.87 1096.78,-156 1097.12,-155.84 1097.45,-155.67 1097.79,-155.5"/>
<polygon fill="#63b8ff" stroke="#63b8ff" points="1099.05,-158.79 1106.39,-151.15 1095.88,-152.54 1099.05,-158.79"/>
</g>
<!-- Node5 -->
<g id="node5" class="node">
<title>Node5</title>
<g id="a_node5"><a xlink:href="FMTcoordinate_8hpp.html" target="_top" xlink:title=" ">
<polygon fill="white" stroke="#666666" points="1204.41,-212 1105.16,-212 1105.16,-192 1204.41,-192 1204.41,-212"/>
<text text-anchor="middle" x="1154.78" y="-198.5" font-family="Helvetica,sans-Serif" font-size="10.00">FMTcoordinate.hpp</text>
</a>
</g>
</g>
<!-- Node1&#45;&gt;Node5 -->
<g id="edge4" class="edge">
<title>Node1&#45;&gt;Node5</title>
<path fill="none" stroke="#63b8ff" d="M930.47,-247.53C976.55,-238.38 1046.46,-224.5 1095.97,-214.68"/>
<polygon fill="#63b8ff" stroke="#63b8ff" points="1096.54,-218.13 1105.66,-212.75 1095.17,-211.27 1096.54,-218.13"/>
</g>
<!-- Node9 -->
<g id="node9" class="node">
<title>Node9</title>
<g id="a_node9"><a xlink:title=" ">
<polygon fill="#e0e0e0" stroke="#999999" points="655.16,-156 560.41,-156 560.41,-124 655.16,-124 655.16,-156"/>
<text text-anchor="start" x="568.41" y="-142.5" font-family="Helvetica,sans-Serif" font-size="10.00">boost/serialization</text>
<text text-anchor="middle" x="607.78" y="-130.5" font-family="Helvetica,sans-Serif" font-size="10.00">/nvp.hpp</text>
</a>
</g>
</g>
<!-- Node1&#45;&gt;Node9 -->
<g id="edge29" class="edge">
<title>Node1&#45;&gt;Node9</title>
<path fill="none" stroke="#63b8ff" d="M860.28,-247.51C815.5,-228.62 714.43,-185.99 654.63,-160.76"/>
<polygon fill="#63b8ff" stroke="#63b8ff" points="656.29,-157.66 645.72,-157 653.57,-164.11 656.29,-157.66"/>
</g>
<!-- Node17 -->
<g id="node17" class="node">
<title>Node17</title>
<g id="a_node17"><a xlink:href="FMTobject_8hpp.html" target="_top" xlink:title=" ">
<polygon fill="white" stroke="#666666" points="923.03,-212 842.53,-212 842.53,-192 923.03,-192 923.03,-212"/>
<text text-anchor="middle" x="882.78" y="-198.5" font-family="Helvetica,sans-Serif" font-size="10.00">FMTobject.hpp</text>
</a>
</g>
</g>
<!-- Node1&#45;&gt;Node17 -->
<g id="edge20" class="edge">
<title>Node1&#45;&gt;Node17</title>
<path fill="none" stroke="#63b8ff" d="M882.78,-247.59C882.78,-241.01 882.78,-231.96 882.78,-223.73"/>
<polygon fill="#63b8ff" stroke="#63b8ff" points="886.28,-223.81 882.78,-213.81 879.28,-223.81 886.28,-223.81"/>
</g>
<!-- Node22 -->
<g id="node22" class="node">
<title>Node22</title>
<g id="a_node22"><a xlink:href="FMTexceptionhandler_8hpp.html" target="_top" xlink:title=" ">
<polygon fill="white" stroke="#666666" points="436.66,-212 308.91,-212 308.91,-192 436.66,-192 436.66,-212"/>
<text text-anchor="middle" x="372.78" y="-198.5" font-family="Helvetica,sans-Serif" font-size="10.00">FMTexceptionhandler.hpp</text>
</a>
</g>
</g>
<!-- Node1&#45;&gt;Node22 -->
<g id="edge30" class="edge">
<title>Node1&#45;&gt;Node22</title>
<path fill="none" stroke="#63b8ff" d="M810.25,-249.32C714.23,-239.15 545.71,-221.31 448.24,-210.99"/>
<polygon fill="#63b8ff" stroke="#63b8ff" points="448.82,-207.53 438.51,-209.96 448.09,-214.49 448.82,-207.53"/>
</g>
<!-- Node5&#45;&gt;Node2 -->
<g id="edge5" class="edge">
<title>Node5&#45;&gt;Node2</title>
<path fill="none" stroke="#63b8ff" d="M1201.64,-191.57C1248.97,-181.56 1316.2,-165.87 1323.78,-156 1332.45,-144.72 1332.56,-135.19 1323.78,-124 1271.06,-56.76 1000.84,-24.23 900.95,-14.36"/>
<polygon fill="#63b8ff" stroke="#63b8ff" points="901.44,-10.89 891.15,-13.41 900.77,-17.86 901.44,-10.89"/>
</g>
<!-- Node5&#45;&gt;Node4 -->
<g id="edge7" class="edge">
<title>Node5&#45;&gt;Node4</title>
<path fill="none" stroke="#63b8ff" d="M1150.25,-191.62C1146.23,-183.3 1140.22,-170.86 1135.16,-160.4"/>
<polygon fill="#63b8ff" stroke="#63b8ff" points="1138.35,-158.96 1130.85,-151.48 1132.05,-162 1138.35,-158.96"/>
</g>
<!-- Node6 -->
<g id="node6" class="node">
<title>Node6</title>
<g id="a_node6"><a xlink:title=" ">
<polygon fill="#e0e0e0" stroke="#999999" points="1575.03,-150 1446.53,-150 1446.53,-130 1575.03,-130 1575.03,-150"/>
<text text-anchor="middle" x="1510.78" y="-136.5" font-family="Helvetica,sans-Serif" font-size="10.00">boost/unordered_map.hpp</text>
</a>
</g>
</g>
<!-- Node5&#45;&gt;Node6 -->
<g id="edge6" class="edge">
<title>Node5&#45;&gt;Node6</title>
<path fill="none" stroke="#63b8ff" d="M1204.83,-193.35C1260.54,-184.74 1353.23,-170.09 1432.78,-156 1439.05,-154.89 1445.58,-153.69 1452.1,-152.48"/>
<polygon fill="#63b8ff" stroke="#63b8ff" points="1452.31,-156 1461.49,-150.71 1451.01,-149.12 1452.31,-156"/>
</g>
<!-- Node7 -->
<g id="node7" class="node">
<title>Node7</title>
<g id="a_node7"><a xlink:title=" ">
<polygon fill="#e0e0e0" stroke="#999999" points="1202.66,-150 1164.91,-150 1164.91,-130 1202.66,-130 1202.66,-150"/>
<text text-anchor="middle" x="1183.78" y="-136.5" font-family="Helvetica,sans-Serif" font-size="10.00">array</text>
</a>
</g>
</g>
<!-- Node5&#45;&gt;Node7 -->
<g id="edge8" class="edge">
<title>Node5&#45;&gt;Node7</title>
<path fill="none" stroke="#63b8ff" d="M1159.31,-191.62C1163.34,-183.3 1169.35,-170.86 1174.41,-160.4"/>
<polygon fill="#63b8ff" stroke="#63b8ff" points="1177.52,-162 1178.72,-151.48 1171.22,-158.96 1177.52,-162"/>
</g>
<!-- Node8 -->
<g id="node8" class="node">
<title>Node8</title>
<g id="a_node8"><a xlink:title=" ">
<polygon fill="#e0e0e0" stroke="#999999" points="495.16,-156 400.41,-156 400.41,-124 495.16,-124 495.16,-156"/>
<text text-anchor="start" x="408.41" y="-142.5" font-family="Helvetica,sans-Serif" font-size="10.00">boost/serialization</text>
<text text-anchor="middle" x="447.78" y="-130.5" font-family="Helvetica,sans-Serif" font-size="10.00">/serialization.hpp</text>
</a>
</g>
</g>
<!-- Node5&#45;&gt;Node8 -->
<g id="edge9" class="edge">
<title>Node5&#45;&gt;Node8</title>
<path fill="none" stroke="#63b8ff" d="M1105.07,-198.81C977.42,-192.98 639.33,-176.28 506.68,-156.22"/>
<polygon fill="#63b8ff" stroke="#63b8ff" points="507.53,-152.82 497.11,-154.7 506.43,-159.73 507.53,-152.82"/>
</g>
<!-- Node5&#45;&gt;Node9 -->
<g id="edge10" class="edge">
<title>Node5&#45;&gt;Node9</title>
<path fill="none" stroke="#63b8ff" d="M1104.69,-199.14C1017.51,-195.31 832.19,-184.54 666.44,-156.08"/>
<polygon fill="#63b8ff" stroke="#63b8ff" points="667.49,-152.72 657.04,-154.44 666.29,-159.61 667.49,-152.72"/>
</g>
<!-- Node10 -->
<g id="node10" class="node">
<title>Node10</title>
<g id="a_node10"><a xlink:title=" ">
<polygon fill="#e0e0e0" stroke="#999999" points="1315.16,-156 1220.41,-156 1220.41,-124 1315.16,-124 1315.16,-156"/>
<text text-anchor="start" x="1228.41" y="-142.5" font-family="Helvetica,sans-Serif" font-size="10.00">boost/serialization</text>
<text text-anchor="middle" x="1267.78" y="-130.5" font-family="Helvetica,sans-Serif" font-size="10.00">/array.hpp</text>
</a>
</g>
</g>
<!-- Node5&#45;&gt;Node10 -->
<g id="edge11" class="edge">
<title>Node5&#45;&gt;Node10</title>
<path fill="none" stroke="#63b8ff" d="M1172.44,-191.62C1187.49,-183.63 1209.66,-171.86 1228.84,-161.68"/>
<polygon fill="#63b8ff" stroke="#63b8ff" points="1230.3,-164.86 1237.49,-157.08 1227.02,-158.68 1230.3,-164.86"/>
</g>
<!-- Node11 -->
<g id="node11" class="node">
<title>Node11</title>
<g id="a_node11"><a xlink:title=" ">
<polygon fill="#e0e0e0" stroke="#999999" points="1438.78,-20 1398.78,-20 1398.78,0 1438.78,0 1438.78,-20"/>
<text text-anchor="middle" x="1418.78" y="-6.5" font-family="Helvetica,sans-Serif" font-size="10.00">string</text>
</a>
</g>
</g>
<!-- Node5&#45;&gt;Node11 -->
<g id="edge12" class="edge">
<title>Node5&#45;&gt;Node11</title>
<path fill="none" stroke="#63b8ff" d="M1204.91,-193.33C1265.52,-183.65 1361.06,-166.95 1373.78,-156 1410.48,-124.42 1417.68,-63.5 1418.82,-31.61"/>
<polygon fill="#63b8ff" stroke="#63b8ff" points="1422.32,-31.8 1418.99,-21.75 1415.32,-31.69 1422.32,-31.8"/>
</g>
<!-- Node12 -->
<g id="node12" class="node">
<title>Node12</title>
<g id="a_node12"><a xlink:title=" ">
<polygon fill="#e0e0e0" stroke="#999999" points="542.53,-150 513.03,-150 513.03,-130 542.53,-130 542.53,-150"/>
<text text-anchor="middle" x="527.78" y="-136.5" font-family="Helvetica,sans-Serif" font-size="10.00">set</text>
</a>
</g>
</g>
<!-- Node5&#45;&gt;Node12 -->
<g id="edge13" class="edge">
<title>Node5&#45;&gt;Node12</title>
<path fill="none" stroke="#63b8ff" d="M1105.09,-198.66C970.19,-192.13 603.72,-173.01 551.78,-156 551.42,-155.88 551.05,-155.75 550.68,-155.62"/>
<polygon fill="#63b8ff" stroke="#63b8ff" points="552.28,-152.5 541.77,-151.15 549.14,-158.76 552.28,-152.5"/>
</g>
<!-- Node13 -->
<g id="node13" class="node">
<title>Node13</title>
<g id="a_node13"><a xlink:href="FMTexception_8hpp.html" target="_top" xlink:title=" ">
<polygon fill="white" stroke="#666666" points="1389.91,-82 1293.66,-82 1293.66,-62 1389.91,-62 1389.91,-82"/>
<text text-anchor="middle" x="1341.78" y="-68.5" font-family="Helvetica,sans-Serif" font-size="10.00">FMTexception.hpp</text>
</a>
</g>
</g>
<!-- Node5&#45;&gt;Node13 -->
<g id="edge14" class="edge">
<title>Node5&#45;&gt;Node13</title>
<path fill="none" stroke="#63b8ff" d="M1204.87,-193.17C1261.54,-183.8 1347.25,-167.9 1356.78,-156 1371.2,-138.02 1362.22,-110.79 1353.17,-92.47"/>
<polygon fill="#63b8ff" stroke="#63b8ff" points="1356.27,-90.85 1348.45,-83.71 1350.11,-94.17 1356.27,-90.85"/>
</g>
<!-- Node13&#45;&gt;Node2 -->
<g id="edge18" class="edge">
<title>Node13&#45;&gt;Node2</title>
<path fill="none" stroke="#63b8ff" d="M1306.21,-61.56C1297.61,-59.51 1288.4,-57.5 1279.78,-56 1141.15,-31.84 974.12,-18.48 901.06,-13.4"/>
<polygon fill="#63b8ff" stroke="#63b8ff" points="901.47,-9.92 891.26,-12.74 901,-16.91 901.47,-9.92"/>
</g>
<!-- Node13&#45;&gt;Node11 -->
<g id="edge16" class="edge">
<title>Node13&#45;&gt;Node11</title>
<path fill="none" stroke="#63b8ff" d="M1353.81,-61.62C1365.57,-52.47 1383.7,-38.34 1397.83,-27.33"/>
<polygon fill="#63b8ff" stroke="#63b8ff" points="1399.91,-30.15 1405.64,-21.24 1395.6,-24.63 1399.91,-30.15"/>
</g>
<!-- Node14 -->
<g id="node14" class="node">
<title>Node14</title>
<g id="a_node14"><a xlink:title=" ">
<polygon fill="#e0e0e0" stroke="#999999" points="1212.78,-20 1154.78,-20 1154.78,0 1212.78,0 1212.78,-20"/>
<text text-anchor="middle" x="1183.78" y="-6.5" font-family="Helvetica,sans-Serif" font-size="10.00">exception</text>
</a>
</g>
</g>
<!-- Node13&#45;&gt;Node14 -->
<g id="edge15" class="edge">
<title>Node13&#45;&gt;Node14</title>
<path fill="none" stroke="#63b8ff" d="M1317.1,-61.62C1290.74,-51.62 1248.74,-35.67 1218.94,-24.35"/>
<polygon fill="#63b8ff" stroke="#63b8ff" points="1220.56,-21.22 1209.97,-20.95 1218.08,-27.77 1220.56,-21.22"/>
</g>
<!-- Node15 -->
<g id="node15" class="node">
<title>Node15</title>
<g id="a_node15"><a xlink:title=" ">
<polygon fill="#e0e0e0" stroke="#999999" points="1284.53,-20 1231.03,-20 1231.03,0 1284.53,0 1284.53,-20"/>
<text text-anchor="middle" x="1257.78" y="-6.5" font-family="Helvetica,sans-Serif" font-size="10.00">iostream</text>
</a>
</g>
</g>
<!-- Node13&#45;&gt;Node15 -->
<g id="edge17" class="edge">
<title>Node13&#45;&gt;Node15</title>
<path fill="none" stroke="#63b8ff" d="M1328.66,-61.62C1315.59,-52.29 1295.29,-37.79 1279.76,-26.7"/>
<polygon fill="#63b8ff" stroke="#63b8ff" points="1282.22,-24.15 1272.05,-21.19 1278.15,-29.85 1282.22,-24.15"/>
</g>
<!-- Node16 -->
<g id="node16" class="node">
<title>Node16</title>
<g id="a_node16"><a xlink:href="FMTutility_8hpp.html" target="_top" xlink:title=" ">
<polygon fill="white" stroke="#666666" points="1380.53,-20 1303.03,-20 1303.03,0 1380.53,0 1380.53,-20"/>
<text text-anchor="middle" x="1341.78" y="-6.5" font-family="Helvetica,sans-Serif" font-size="10.00">FMTutility.hpp</text>
</a>
</g>
</g>
<!-- Node13&#45;&gt;Node16 -->
<g id="edge19" class="edge">
<title>Node13&#45;&gt;Node16</title>
<path fill="none" stroke="#63b8ff" d="M1341.78,-61.62C1341.78,-53.56 1341.78,-41.65 1341.78,-31.41"/>
<polygon fill="#63b8ff" stroke="#63b8ff" points="1345.28,-31.63 1341.78,-21.63 1338.28,-31.63 1345.28,-31.63"/>
</g>
<!-- Node17&#45;&gt;Node2 -->
<g id="edge25" class="edge">
<title>Node17&#45;&gt;Node2</title>
<path fill="none" stroke="#63b8ff" d="M881.84,-191.58C878.92,-162.33 869.94,-72.59 865.85,-31.69"/>
<polygon fill="#63b8ff" stroke="#63b8ff" points="869.36,-31.59 864.88,-21.99 862.39,-32.28 869.36,-31.59"/>
</g>
<!-- Node17&#45;&gt;Node4 -->
<g id="edge27" class="edge">
<title>Node17&#45;&gt;Node4</title>
<path fill="none" stroke="#63b8ff" d="M923.51,-195.78C967.24,-189.41 1038.31,-176.84 1096.78,-156 1097.58,-155.71 1098.39,-155.41 1099.2,-155.09"/>
<polygon fill="#63b8ff" stroke="#63b8ff" points="1100.54,-158.33 1108.19,-150.99 1097.64,-151.96 1100.54,-158.33"/>
</g>
<!-- Node17&#45;&gt;Node9 -->
<g id="edge22" class="edge">
<title>Node17&#45;&gt;Node9</title>
<path fill="none" stroke="#63b8ff" d="M842.06,-193.27C800.47,-185.23 733.8,-171.93 666.82,-156.4"/>
<polygon fill="#63b8ff" stroke="#63b8ff" points="667.64,-153 657.1,-154.14 666.05,-159.82 667.64,-153"/>
</g>
<!-- Node17&#45;&gt;Node13 -->
<g id="edge24" class="edge">
<title>Node17&#45;&gt;Node13</title>
<path fill="none" stroke="#63b8ff" d="M884.45,-191.55C887.93,-174.86 897.67,-140.38 920.78,-124 977.54,-83.78 1179.9,-75.15 1281.98,-73.39"/>
<polygon fill="#63b8ff" stroke="#63b8ff" points="1281.86,-76.89 1291.81,-73.24 1281.75,-69.89 1281.86,-76.89"/>
</g>
<!-- Node18 -->
<g id="node18" class="node">
<title>Node18</title>
<g id="a_node18"><a xlink:title=" ">
<polygon fill="#e0e0e0" stroke="#999999" points="1024.16,-156 929.41,-156 929.41,-124 1024.16,-124 1024.16,-156"/>
<text text-anchor="start" x="937.41" y="-142.5" font-family="Helvetica,sans-Serif" font-size="10.00">boost/serialization</text>
<text text-anchor="middle" x="976.78" y="-130.5" font-family="Helvetica,sans-Serif" font-size="10.00">/shared_ptr.hpp</text>
</a>
</g>
</g>
<!-- Node17&#45;&gt;Node18 -->
<g id="edge21" class="edge">
<title>Node17&#45;&gt;Node18</title>
<path fill="none" stroke="#63b8ff" d="M897.47,-191.62C909.7,-183.82 927.59,-172.4 943.28,-162.38"/>
<polygon fill="#63b8ff" stroke="#63b8ff" points="944.88,-165.52 951.42,-157.19 941.11,-159.62 944.88,-165.52"/>
</g>
<!-- Node19 -->
<g id="node19" class="node">
<title>Node19</title>
<g id="a_node19"><a xlink:title=" ">
<polygon fill="#e0e0e0" stroke="#999999" points="593.16,-88 498.41,-88 498.41,-56 593.16,-56 593.16,-88"/>
<text text-anchor="start" x="506.41" y="-74.5" font-family="Helvetica,sans-Serif" font-size="10.00">boost/serialization</text>
<text text-anchor="middle" x="545.78" y="-62.5" font-family="Helvetica,sans-Serif" font-size="10.00">/export.hpp</text>
</a>
</g>
</g>
<!-- Node17&#45;&gt;Node19 -->
<g id="edge23" class="edge">
<title>Node17&#45;&gt;Node19</title>
<path fill="none" stroke="#63b8ff" d="M876.5,-191.65C864.86,-175.11 838.23,-140.87 806.78,-124 743.16,-89.87 659.88,-78.4 604.69,-74.65"/>
<polygon fill="#63b8ff" stroke="#63b8ff" points="605.07,-71.17 594.87,-74.05 604.64,-78.15 605.07,-71.17"/>
</g>
<!-- Node20 -->
<g id="node20" class="node">
<title>Node20</title>
<g id="a_node20"><a xlink:title=" ">
<polygon fill="#e0e0e0" stroke="#999999" points="1087.41,-150 1042.16,-150 1042.16,-130 1087.41,-130 1087.41,-150"/>
<text text-anchor="middle" x="1064.78" y="-136.5" font-family="Helvetica,sans-Serif" font-size="10.00">chrono</text>
</a>
</g>
</g>
<!-- Node17&#45;&gt;Node20 -->
<g id="edge26" class="edge">
<title>Node17&#45;&gt;Node20</title>
<path fill="none" stroke="#63b8ff" d="M919.66,-191.56C950.33,-183.33 994.94,-170.46 1032.78,-156 1033.74,-155.64 1034.7,-155.26 1035.67,-154.86"/>
<polygon fill="#63b8ff" stroke="#63b8ff" points="1036.87,-158.16 1044.64,-150.96 1034.08,-151.74 1036.87,-158.16"/>
</g>
<!-- Node21 -->
<g id="node21" class="node">
<title>Node21</title>
<g id="a_node21"><a xlink:title=" ">
<polygon fill="#e0e0e0" stroke="#999999" points="798.16,-156 673.41,-156 673.41,-124 798.16,-124 798.16,-156"/>
<text text-anchor="start" x="681.41" y="-142.5" font-family="Helvetica,sans-Serif" font-size="10.00">boost/dll/runtime_symbol</text>
<text text-anchor="middle" x="735.78" y="-130.5" font-family="Helvetica,sans-Serif" font-size="10.00">_info.hpp</text>
</a>
</g>
</g>
<!-- Node17&#45;&gt;Node21 -->
<g id="edge28" class="edge">
<title>Node17&#45;&gt;Node21</title>
<path fill="none" stroke="#63b8ff" d="M859.81,-191.62C839.68,-183.41 809.73,-171.18 784.31,-160.81"/>
<polygon fill="#63b8ff" stroke="#63b8ff" points="785.72,-157.6 775.14,-157.06 783.07,-164.08 785.72,-157.6"/>
</g>
<!-- Node22&#45;&gt;Node2 -->
<g id="edge41" class="edge">
<title>Node22&#45;&gt;Node2</title>
<path fill="none" stroke="#63b8ff" d="M310.04,-191.51C289.27,-185.05 268.29,-174.21 255.78,-156 230.62,-119.36 225.54,-88.57 255.78,-56 294.64,-14.16 699.99,-10.88 826.37,-10.89"/>
<polygon fill="#63b8ff" stroke="#63b8ff" points="826.19,-14.38 836.19,-10.89 826.2,-7.38 826.19,-14.38"/>
</g>
<!-- Node22&#45;&gt;Node8 -->
<g id="edge38" class="edge">
<title>Node22&#45;&gt;Node8</title>
<path fill="none" stroke="#63b8ff" d="M384.5,-191.62C393.89,-184.11 407.46,-173.26 419.63,-163.52"/>
<polygon fill="#63b8ff" stroke="#63b8ff" points="421.76,-166.3 427.38,-157.32 417.39,-160.83 421.76,-166.3"/>
</g>
<!-- Node22&#45;&gt;Node9 -->
<g id="edge39" class="edge">
<title>Node22&#45;&gt;Node9</title>
<path fill="none" stroke="#63b8ff" d="M411.24,-191.51C445.18,-183.1 496.28,-170.34 549.18,-156.66"/>
<polygon fill="#63b8ff" stroke="#63b8ff" points="549.87,-160.09 558.67,-154.2 548.11,-153.32 549.87,-160.09"/>
</g>
<!-- Node22&#45;&gt;Node12 -->
<g id="edge42" class="edge">
<title>Node22&#45;&gt;Node12</title>
<path fill="none" stroke="#63b8ff" d="M407,-191.58C433.94,-183.62 472.09,-171.1 503.78,-156 503.89,-155.95 503.99,-155.9 504.1,-155.85"/>
<polygon fill="#63b8ff" stroke="#63b8ff" points="505.5,-159.08 512.55,-151.17 502.1,-152.95 505.5,-159.08"/>
</g>
<!-- Node22&#45;&gt;Node19 -->
<g id="edge40" class="edge">
<title>Node22&#45;&gt;Node19</title>
<path fill="none" stroke="#63b8ff" d="M372.37,-191.61C372.2,-175.62 374.21,-143 391.78,-124 398.68,-116.54 446.72,-101.29 487.33,-89.4"/>
<polygon fill="#63b8ff" stroke="#63b8ff" points="488.19,-92.8 496.82,-86.65 486.24,-86.07 488.19,-92.8"/>
</g>
<!-- Node23 -->
<g id="node23" class="node">
<title>Node23</title>
<g id="a_node23"><a xlink:href="FMTlogger_8hpp.html" target="_top" xlink:title=" ">
<polygon fill="white" stroke="#666666" points="345.03,-150 264.53,-150 264.53,-130 345.03,-130 345.03,-150"/>
<text text-anchor="middle" x="304.78" y="-136.5" font-family="Helvetica,sans-Serif" font-size="10.00">FMTlogger.hpp</text>
</a>
</g>
</g>
<!-- Node22&#45;&gt;Node23 -->
<g id="edge31" class="edge">
<title>Node22&#45;&gt;Node23</title>
<path fill="none" stroke="#63b8ff" d="M362.16,-191.62C351.82,-182.5 335.89,-168.45 323.43,-157.46"/>
<polygon fill="#63b8ff" stroke="#63b8ff" points="326.06,-155.11 316.25,-151.11 321.43,-160.35 326.06,-155.11"/>
</g>
<!-- Node26 -->
<g id="node26" class="node">
<title>Node26</title>
<g id="a_node26"><a xlink:title=" ">
<polygon fill="#e0e0e0" stroke="#999999" points="102.16,-150 19.41,-150 19.41,-130 102.16,-130 102.16,-150"/>
<text text-anchor="middle" x="60.78" y="-136.5" font-family="Helvetica,sans-Serif" font-size="10.00">unordered_map</text>
</a>
</g>
</g>
<!-- Node22&#45;&gt;Node26 -->
<g id="edge37" class="edge">
<title>Node22&#45;&gt;Node26</title>
<path fill="none" stroke="#63b8ff" d="M308.55,-192.04C255.46,-184.13 178.29,-171.46 111.78,-156 108.47,-155.23 105.06,-154.37 101.64,-153.47"/>
<polygon fill="#63b8ff" stroke="#63b8ff" points="102.86,-150.17 92.29,-150.87 100.99,-156.92 102.86,-150.17"/>
</g>
<!-- Node27 -->
<g id="node27" class="node">
<title>Node27</title>
<g id="a_node27"><a xlink:title=" ">
<polygon fill="#e0e0e0" stroke="#999999" points="209.16,-150 120.41,-150 120.41,-130 209.16,-130 209.16,-150"/>
<text text-anchor="middle" x="164.78" y="-136.5" font-family="Helvetica,sans-Serif" font-size="10.00">boost/thread.hpp</text>
</a>
</g>
</g>
<!-- Node22&#45;&gt;Node27 -->
<g id="edge43" class="edge">
<title>Node22&#45;&gt;Node27</title>
<path fill="none" stroke="#63b8ff" d="M340.28,-191.62C304.75,-181.37 247.62,-164.9 208.25,-153.54"/>
<polygon fill="#63b8ff" stroke="#63b8ff" points="209.43,-150.24 198.85,-150.83 207.49,-156.96 209.43,-150.24"/>
</g>
<!-- Node23&#45;&gt;Node11 -->
<g id="edge35" class="edge">
<title>Node23&#45;&gt;Node11</title>
<path fill="none" stroke="#63b8ff" d="M344.21,-129.55C374.8,-121.24 417.61,-107.42 451.78,-88 470.98,-77.09 469.2,-63.98 489.78,-56 673.12,15.1 1174.48,-51.52 1387.21,-19.86"/>
<polygon fill="#63b8ff" stroke="#63b8ff" points="1387.54,-23.35 1396.86,-18.31 1386.43,-16.44 1387.54,-23.35"/>
</g>
<!-- Node23&#45;&gt;Node13 -->
<g id="edge36" class="edge">
<title>Node23&#45;&gt;Node13</title>
<path fill="none" stroke="#63b8ff" d="M345.36,-130.99C359.95,-128.38 376.55,-125.72 391.78,-124 726.9,-86.25 1131.78,-76.27 1281.96,-73.78"/>
<polygon fill="#63b8ff" stroke="#63b8ff" points="1281.72,-77.29 1291.66,-73.63 1281.61,-70.29 1281.72,-77.29"/>
</g>
<!-- Node23&#45;&gt;Node19 -->
<g id="edge32" class="edge">
<title>Node23&#45;&gt;Node19</title>
<path fill="none" stroke="#63b8ff" d="M338.77,-129.53C345.4,-127.69 352.31,-125.78 358.78,-124 401.71,-112.18 450.22,-98.96 487.07,-88.94"/>
<polygon fill="#63b8ff" stroke="#63b8ff" points="487.92,-92.33 496.65,-86.33 486.08,-85.58 487.92,-92.33"/>
</g>
<!-- Node24 -->
<g id="node24" class="node">
<title>Node24</title>
<g id="a_node24"><a xlink:title=" ">
<polygon fill="#e0e0e0" stroke="#999999" points="376.41,-88 265.16,-88 265.16,-56 376.41,-56 376.41,-88"/>
<text text-anchor="start" x="273.16" y="-74.5" font-family="Helvetica,sans-Serif" font-size="10.00">boost/thread/recursive</text>
<text text-anchor="middle" x="320.78" y="-62.5" font-family="Helvetica,sans-Serif" font-size="10.00">_mutex.hpp</text>
</a>
</g>
</g>
<!-- Node23&#45;&gt;Node24 -->
<g id="edge33" class="edge">
<title>Node23&#45;&gt;Node24</title>
<path fill="none" stroke="#63b8ff" d="M307.08,-129.54C308.99,-121.64 311.82,-109.97 314.41,-99.29"/>
<polygon fill="#63b8ff" stroke="#63b8ff" points="317.76,-100.32 316.72,-89.77 310.96,-98.67 317.76,-100.32"/>
</g>
<!-- Node25 -->
<g id="node25" class="node">
<title>Node25</title>
<g id="a_node25"><a xlink:title=" ">
<polygon fill="#e0e0e0" stroke="#999999" points="442.91,-82 394.66,-82 394.66,-62 442.91,-62 442.91,-82"/>
<text text-anchor="middle" x="418.78" y="-68.5" font-family="Helvetica,sans-Serif" font-size="10.00">fstream</text>
</a>
</g>
</g>
<!-- Node23&#45;&gt;Node25 -->
<g id="edge34" class="edge">
<title>Node23&#45;&gt;Node25</title>
<path fill="none" stroke="#63b8ff" d="M321.12,-129.54C339.83,-118.71 370.73,-100.82 392.76,-88.06"/>
<polygon fill="#63b8ff" stroke="#63b8ff" points="394.27,-91.24 401.17,-83.2 390.76,-85.18 394.27,-91.24"/>
</g>
</g>
</svg>
        <g id="navigator" transform="translate(0 0)" fill="#404254">
                <rect fill="#f2f5e9" fill-opacity="0.5" stroke="#606060" stroke-width=".5" x="0" y="0" width="60" height="60"/>
                <use id="zoomplus" xlink:href="#zoomPlus" x="17" y="9" onmousedown="handleZoom(evt,'in')"/>
                <use id="zoomminus" xlink:href="#zoomMin" x="42" y="9" onmousedown="handleZoom(evt,'out')"/>
                <use id="reset" xlink:href="#resetDef" x="30" y="36" onmousedown="handleReset()"/>
                <g id="arrowUp" xlink:href="#dirArrow" transform="translate(30 24)" onmousedown="handlePan(0,-1)">
                  <use xlink:href="#rim" fill="#404040">
                        <set attributeName="fill" to="#808080" begin="arrowUp.mouseover" end="arrowUp.mouseout"/>
                  </use>
                  <path fill="none" stroke="white" stroke-width="1.5" d="M0,-3.0v7 M-2.5,-0.5L0,-3.0L2.5,-0.5"/>
                </g>
                <g id="arrowRight" xlink:href="#dirArrow" transform="rotate(90) translate(36 -43)" onmousedown="handlePan(1,0)">
                  <use xlink:href="#rim" fill="#404040">
                        <set attributeName="fill" to="#808080" begin="arrowRight.mouseover" end="arrowRight.mouseout"/>
                  </use>
                  <path fill="none" stroke="white" stroke-width="1.5" d="M0,-3.0v7 M-2.5,-0.5L0,-3.0L2.5,-0.5"/>
                </g>
                <g id="arrowDown" xlink:href="#dirArrow" transform="rotate(180) translate(-30 -48)" onmousedown="handlePan(0,1)">
                  <use xlink:href="#rim" fill="#404040">
                        <set attributeName="fill" to="#808080" begin="arrowDown.mouseover" end="arrowDown.mouseout"/>
                  </use>
                  <path fill="none" stroke="white" stroke-width="1.5" d="M0,-3.0v7 M-2.5,-0.5L0,-3.0L2.5,-0.5"/>
                </g>
                <g id="arrowLeft" xlink:href="#dirArrow" transform="rotate(270) translate(-36 17)" onmousedown="handlePan(-1,0)">
                  <use xlink:href="#rim" fill="#404040">
                        <set attributeName="fill" to="#808080" begin="arrowLeft.mouseover" end="arrowLeft.mouseout"/>
                  </use>
                  <path fill="none" stroke="white" stroke-width="1.5" d="M0,-3.0v7 M-2.5,-0.5L0,-3.0L2.5,-0.5"/>
                </g>
        </g>
        <svg viewBox="0 0 15 15" width="100%" height="30px" preserveAspectRatio="xMaxYMin meet">
         <g id="arrow_out" transform="scale(0.3 0.3)">
          <a xlink:href="FMTlayer_8hpp__incl_org.svg" target="_base">
           <rect id="button" ry="5" rx="5" y="6" x="6" height="38" width="38"
                fill="#f2f5e9" fill-opacity="0.5" stroke="#606060" stroke-width="1.0"/>
           <path id="arrow"
             d="M 11.500037,31.436501 C 11.940474,20.09759 22.043105,11.32322 32.158766,21.979434 L 37.068811,17.246167 C 37.068811,17.246167 37.088388,32 37.088388,32 L 22.160133,31.978069 C 22.160133,31.978069 26.997745,27.140456 26.997745,27.140456 C 18.528582,18.264221 13.291696,25.230495 11.500037,31.436501 z"
             style="fill:#404040;"/>
          </a>
         </g>
        </svg>
</svg>
