<?xml version="1.0" encoding="UTF-8" standalone="no"?>
<!DOCTYPE svg PUBLIC "-//W3C//DTD SVG 1.1//EN"
 "http://www.w3.org/Graphics/SVG/1.1/DTD/svg11.dtd">
<!-- Generated by graphviz version 8.1.0 (20230707.0739)
 -->
<!-- Title: C:/Users/CYRGU3/OneDrive &#45; BuroVirtuel/Bureau/FMT/FMT/Include/FMTlpsolver.hpp Pages: 1 -->
<svg width="1085pt" height="372pt"
 viewBox="0.00 0.00 1085.41 372.00" xmlns="http://www.w3.org/2000/svg" xmlns:xlink="http://www.w3.org/1999/xlink">
<g id="graph0" class="graph" transform="scale(1 1) rotate(0) translate(4 368)">
<title>C:/Users/CYRGU3/OneDrive &#45; BuroVirtuel/Bureau/FMT/FMT/Include/FMTlpsolver.hpp</title>
<!-- Node1 -->
<g id="Node000001" class="node">
<title>Node1</title>
<g id="a_Node000001"><a xlink:title=" ">
<polygon fill="#999999" stroke="#666666" points="600.29,-364 454.54,-364 454.54,-320 600.29,-320 600.29,-364"/>
<text text-anchor="start" x="462.54" y="-350.5" font-family="Helvetica,sans-Serif" font-size="10.00">C:/Users/CYRGU3/OneDrive</text>
<text text-anchor="start" x="462.54" y="-338.5" font-family="Helvetica,sans-Serif" font-size="10.00"> &#45; BuroVirtuel/Bureau/FMT</text>
<text text-anchor="middle" x="527.41" y="-326.5" font-family="Helvetica,sans-Serif" font-size="10.00">/FMT/Include/FMTlpsolver.hpp</text>
</a>
</g>
</g>
<!-- Node2 -->
<g id="Node000002" class="node">
<title>Node2</title>
<g id="a_Node000002"><a xlink:href="FMTlpheuristic_8hpp.html" target="_top" xlink:title=" ">
<polygon fill="white" stroke="#666666" points="229.29,-284 71.54,-284 71.54,-240 229.29,-240 229.29,-284"/>
<text text-anchor="start" x="79.54" y="-270.5" font-family="Helvetica,sans-Serif" font-size="10.00">C:/Users/CYRGU3/OneDrive</text>
<text text-anchor="start" x="79.54" y="-258.5" font-family="Helvetica,sans-Serif" font-size="10.00"> &#45; BuroVirtuel/Bureau/FMT</text>
<text text-anchor="middle" x="150.41" y="-246.5" font-family="Helvetica,sans-Serif" font-size="10.00">/FMT/Include/FMTlpheuristic.hpp</text>
</a>
</g>
</g>
<!-- Node1&#45;&gt;Node2 -->
<g id="edge1_Node000001_Node000002" class="edge">
<title>Node1&#45;&gt;Node2</title>
<g id="a_edge1_Node000001_Node000002"><a xlink:title=" ">
<path fill="none" stroke="#63b8ff" d="M443.37,-324.68C386.78,-313.56 310.52,-298.31 243.41,-284 238.96,-283.05 234.39,-282.06 229.78,-281.06"/>
<polygon fill="#63b8ff" stroke="#63b8ff" points="442.57,-328.29 453.05,-326.78 443.91,-321.42 442.57,-328.29"/>
</a>
</g>
</g>
<!-- Node4 -->
<g id="Node000004" class="node">
<title>Node4</title>
<g id="a_Node000004"><a xlink:href="PYexportHeuristics_8hpp.html" target="_top" xlink:title=" ">
<polygon fill="white" stroke="#666666" points="316.41,-44 138.41,-44 138.41,0 316.41,0 316.41,-44"/>
<text text-anchor="start" x="146.41" y="-30.5" font-family="Helvetica,sans-Serif" font-size="10.00">C:/Users/CYRGU3/OneDrive</text>
<text text-anchor="start" x="146.41" y="-18.5" font-family="Helvetica,sans-Serif" font-size="10.00"> &#45; BuroVirtuel/Bureau/FMT</text>
<text text-anchor="middle" x="227.41" y="-6.5" font-family="Helvetica,sans-Serif" font-size="10.00">/FMT/Include/PYexportHeuristics.hpp</text>
</a>
</g>
</g>
<!-- Node1&#45;&gt;Node4 -->
<g id="edge24_Node000001_Node000004" class="edge">
<title>Node1&#45;&gt;Node4</title>
<g id="a_edge24_Node000001_Node000004"><a xlink:title=" ">
<path fill="none" stroke="#63b8ff" d="M443.23,-339.09C326.84,-335.06 124.15,-322.55 62.41,-284 11.72,-252.35 -16.23,-213.49 10.41,-160 39.61,-101.38 106.83,-64.91 158.77,-44.48"/>
<polygon fill="#63b8ff" stroke="#63b8ff" points="443.1,-342.63 453.21,-339.46 443.33,-335.63 443.1,-342.63"/>
</a>
</g>
</g>
<!-- Node5 -->
<g id="Node000005" class="node">
<title>Node5</title>
<g id="a_Node000005"><a xlink:href="RexportHeuristics_8hpp.html" target="_top" xlink:title=" ">
<polygon fill="white" stroke="#666666" points="313.04,-124 141.79,-124 141.79,-80 313.04,-80 313.04,-124"/>
<text text-anchor="start" x="149.79" y="-110.5" font-family="Helvetica,sans-Serif" font-size="10.00">C:/Users/CYRGU3/OneDrive</text>
<text text-anchor="start" x="149.79" y="-98.5" font-family="Helvetica,sans-Serif" font-size="10.00"> &#45; BuroVirtuel/Bureau/FMT</text>
<text text-anchor="middle" x="227.41" y="-86.5" font-family="Helvetica,sans-Serif" font-size="10.00">/FMT/Include/RexportHeuristics.hpp</text>
</a>
</g>
</g>
<!-- Node1&#45;&gt;Node5 -->
<g id="edge27_Node000001_Node000005" class="edge">
<title>Node1&#45;&gt;Node5</title>
<g id="a_edge27_Node000001_Node000005"><a xlink:title=" ">
<path fill="none" stroke="#63b8ff" d="M455.02,-315.55C400.22,-293.25 326.15,-256.18 276.41,-204 254.49,-181.01 240.62,-146.35 233.44,-124.2"/>
<polygon fill="#63b8ff" stroke="#63b8ff" points="453.43,-319.09 464.02,-319.55 456.03,-312.59 453.43,-319.09"/>
</a>
</g>
</g>
<!-- Node8 -->
<g id="Node000008" class="node">
<title>Node8</title>
<g id="a_Node000008"><a xlink:href="Rdeclarations_8hpp.html" target="_top" xlink:title=" ">
<polygon fill="white" stroke="#666666" points="709.04,-124 555.79,-124 555.79,-80 709.04,-80 709.04,-124"/>
<text text-anchor="start" x="563.79" y="-110.5" font-family="Helvetica,sans-Serif" font-size="10.00">C:/Users/CYRGU3/OneDrive</text>
<text text-anchor="start" x="563.79" y="-98.5" font-family="Helvetica,sans-Serif" font-size="10.00"> &#45; BuroVirtuel/Bureau/FMT</text>
<text text-anchor="middle" x="632.41" y="-86.5" font-family="Helvetica,sans-Serif" font-size="10.00">/FMT/Include/Rdeclarations.hpp</text>
</a>
</g>
</g>
<!-- Node1&#45;&gt;Node8 -->
<g id="edge26_Node000001_Node000008" class="edge">
<title>Node1&#45;&gt;Node8</title>
<g id="a_edge26_Node000001_Node000008"><a xlink:title=" ">
<path fill="none" stroke="#63b8ff" d="M541.16,-309.84C562.82,-260.74 604.34,-166.63 622.96,-124.42"/>
<polygon fill="#63b8ff" stroke="#63b8ff" points="537.56,-308.32 536.73,-318.88 543.97,-311.14 537.56,-308.32"/>
</a>
</g>
</g>
<!-- Node9 -->
<g id="Node000009" class="node">
<title>Node9</title>
<g id="a_Node000009"><a xlink:href="FMTsrmodel_8hpp.html" target="_top" xlink:title=" ">
<polygon fill="white" stroke="#666666" points="830.41,-284 682.41,-284 682.41,-240 830.41,-240 830.41,-284"/>
<text text-anchor="start" x="690.41" y="-270.5" font-family="Helvetica,sans-Serif" font-size="10.00">C:/Users/CYRGU3/OneDrive</text>
<text text-anchor="start" x="690.41" y="-258.5" font-family="Helvetica,sans-Serif" font-size="10.00"> &#45; BuroVirtuel/Bureau/FMT</text>
<text text-anchor="middle" x="756.41" y="-246.5" font-family="Helvetica,sans-Serif" font-size="10.00">/FMT/Include/FMTsrmodel.hpp</text>
</a>
</g>
</g>
<!-- Node1&#45;&gt;Node9 -->
<g id="edge11_Node000001_Node000009" class="edge">
<title>Node1&#45;&gt;Node9</title>
<g id="a_edge11_Node000001_Node000009"><a xlink:title=" ">
<path fill="none" stroke="#63b8ff" d="M600.68,-316.04C630.63,-305.84 664.91,-294.17 693.67,-284.37"/>
<polygon fill="#63b8ff" stroke="#63b8ff" points="599.63,-313.05 591.29,-319.58 601.88,-319.67 599.63,-313.05"/>
</a>
</g>
</g>
<!-- Node11 -->
<g id="Node000011" class="node">
<title>Node11</title>
<g id="a_Node000011"><a xlink:href="PYexportModel_8hpp.html" target="_top" xlink:title=" ">
<polygon fill="white" stroke="#666666" points="887.79,-124 727.04,-124 727.04,-80 887.79,-80 887.79,-124"/>
<text text-anchor="start" x="735.04" y="-110.5" font-family="Helvetica,sans-Serif" font-size="10.00">C:/Users/CYRGU3/OneDrive</text>
<text text-anchor="start" x="735.04" y="-98.5" font-family="Helvetica,sans-Serif" font-size="10.00"> &#45; BuroVirtuel/Bureau/FMT</text>
<text text-anchor="middle" x="807.41" y="-86.5" font-family="Helvetica,sans-Serif" font-size="10.00">/FMT/Include/PYexportModel.hpp</text>
</a>
</g>
</g>
<!-- Node1&#45;&gt;Node11 -->
<g id="edge25_Node000001_Node000011" class="edge">
<title>Node1&#45;&gt;Node11</title>
<g id="a_edge25_Node000001_Node000011"><a xlink:title=" ">
<path fill="none" stroke="#63b8ff" d="M556.78,-311.72C564.2,-303.26 571.68,-293.69 577.41,-284 607.26,-233.54 579.95,-200.42 622.41,-160 630.55,-152.25 680.68,-137.04 726.71,-124.28"/>
<polygon fill="#63b8ff" stroke="#63b8ff" points="554.6,-309.02 550.45,-318.77 559.77,-313.73 554.6,-309.02"/>
</a>
</g>
</g>
<!-- Node12 -->
<g id="Node000012" class="node">
<title>Node12</title>
<g id="a_Node000012"><a xlink:href="RexportModel_8hpp.html" target="_top" xlink:title=" ">
<polygon fill="white" stroke="#666666" points="1077.41,-124 923.41,-124 923.41,-80 1077.41,-80 1077.41,-124"/>
<text text-anchor="start" x="931.41" y="-110.5" font-family="Helvetica,sans-Serif" font-size="10.00">C:/Users/CYRGU3/OneDrive</text>
<text text-anchor="start" x="931.41" y="-98.5" font-family="Helvetica,sans-Serif" font-size="10.00"> &#45; BuroVirtuel/Bureau/FMT</text>
<text text-anchor="middle" x="1000.41" y="-86.5" font-family="Helvetica,sans-Serif" font-size="10.00">/FMT/Include/RexportModel.hpp</text>
</a>
</g>
</g>
<!-- Node1&#45;&gt;Node12 -->
<g id="edge28_Node000001_Node000012" class="edge">
<title>Node1&#45;&gt;Node12</title>
<g id="a_edge28_Node000001_Node000012"><a xlink:title=" ">
<path fill="none" stroke="#63b8ff" d="M611.21,-330.93C739.82,-313.44 975.73,-272.6 1020.41,-204 1036.12,-179.89 1024.16,-146.15 1013.12,-124.44"/>
<polygon fill="#63b8ff" stroke="#63b8ff" points="611.07,-327.55 601.63,-332.35 612.01,-334.49 611.07,-327.55"/>
</a>
</g>
</g>
<!-- Node3 -->
<g id="Node000003" class="node">
<title>Node3</title>
<g id="a_Node000003"><a xlink:href="FMToperatingareaclusterer_8hpp.html" target="_top" xlink:title=" ">
<polygon fill="white" stroke="#666666" points="229.16,-204 19.66,-204 19.66,-160 229.16,-160 229.16,-204"/>
<text text-anchor="start" x="27.66" y="-190.5" font-family="Helvetica,sans-Serif" font-size="10.00">C:/Users/CYRGU3/OneDrive</text>
<text text-anchor="start" x="27.66" y="-178.5" font-family="Helvetica,sans-Serif" font-size="10.00"> &#45; BuroVirtuel/Bureau/FMT</text>
<text text-anchor="middle" x="124.41" y="-166.5" font-family="Helvetica,sans-Serif" font-size="10.00">/FMT/Include/FMToperatingareaclusterer.hpp</text>
</a>
</g>
</g>
<!-- Node2&#45;&gt;Node3 -->
<g id="edge2_Node000002_Node000003" class="edge">
<title>Node2&#45;&gt;Node3</title>
<g id="a_edge2_Node000002_Node000003"><a xlink:title=" ">
<path fill="none" stroke="#63b8ff" d="M139.87,-229.38C137.06,-220.94 134.09,-212.02 131.51,-204.29"/>
<polygon fill="#63b8ff" stroke="#63b8ff" points="136.82,-230.31 143.31,-238.69 143.46,-228.09 136.82,-230.31"/>
</a>
</g>
</g>
<!-- Node6 -->
<g id="Node000006" class="node">
<title>Node6</title>
<g id="a_Node000006"><a xlink:href="FMToperatingareascheduler_8hpp.html" target="_top" xlink:title=" ">
<polygon fill="white" stroke="#666666" points="499.41,-204 285.41,-204 285.41,-160 499.41,-160 499.41,-204"/>
<text text-anchor="start" x="293.41" y="-190.5" font-family="Helvetica,sans-Serif" font-size="10.00">C:/Users/CYRGU3/OneDrive</text>
<text text-anchor="start" x="293.41" y="-178.5" font-family="Helvetica,sans-Serif" font-size="10.00"> &#45; BuroVirtuel/Bureau/FMT</text>
<text text-anchor="middle" x="392.41" y="-166.5" font-family="Helvetica,sans-Serif" font-size="10.00">/FMT/Include/FMToperatingareascheduler.hpp</text>
</a>
</g>
</g>
<!-- Node2&#45;&gt;Node6 -->
<g id="edge5_Node000002_Node000006" class="edge">
<title>Node2&#45;&gt;Node6</title>
<g id="a_edge5_Node000002_Node000006"><a xlink:title=" ">
<path fill="none" stroke="#63b8ff" d="M227.01,-236.31C258.85,-226.05 295.45,-214.25 326.11,-204.37"/>
<polygon fill="#63b8ff" stroke="#63b8ff" points="226.3,-233.18 217.86,-239.58 228.45,-239.85 226.3,-233.18"/>
</a>
</g>
</g>
<!-- Node3&#45;&gt;Node4 -->
<g id="edge3_Node000003_Node000004" class="edge">
<title>Node3&#45;&gt;Node4</title>
<g id="a_edge3_Node000003_Node000004"><a xlink:title=" ">
<path fill="none" stroke="#63b8ff" d="M119.75,-148.85C118.33,-127.76 119.77,-100.41 132.41,-80 141.83,-64.79 156.95,-53.11 172.37,-44.4"/>
<polygon fill="#63b8ff" stroke="#63b8ff" points="116.33,-148.91 120.74,-158.54 123.3,-148.26 116.33,-148.91"/>
</a>
</g>
</g>
<!-- Node3&#45;&gt;Node5 -->
<g id="edge4_Node000003_Node000005" class="edge">
<title>Node3&#45;&gt;Node5</title>
<g id="a_edge4_Node000003_Node000005"><a xlink:title=" ">
<path fill="none" stroke="#63b8ff" d="M161.02,-153.28C173.61,-143.74 187.5,-133.23 199.3,-124.29"/>
<polygon fill="#63b8ff" stroke="#63b8ff" points="159.42,-150.86 153.56,-159.69 163.64,-156.44 159.42,-150.86"/>
</a>
</g>
</g>
<!-- Node6&#45;&gt;Node4 -->
<g id="edge8_Node000006_Node000004" class="edge">
<title>Node6&#45;&gt;Node4</title>
<g id="a_edge8_Node000006_Node000004"><a xlink:title=" ">
<path fill="none" stroke="#63b8ff" d="M375.88,-150.38C363.23,-128.9 344.29,-100.49 322.41,-80 307.53,-66.06 288.68,-53.9 271.71,-44.42"/>
<polygon fill="#63b8ff" stroke="#63b8ff" points="373.22,-151.77 381.23,-158.7 379.29,-148.29 373.22,-151.77"/>
</a>
</g>
</g>
<!-- Node6&#45;&gt;Node5 -->
<g id="edge10_Node000006_Node000005" class="edge">
<title>Node6&#45;&gt;Node5</title>
<g id="a_edge10_Node000006_Node000005"><a xlink:title=" ">
<path fill="none" stroke="#63b8ff" d="M337.56,-155.07C316.52,-145.13 292.78,-133.9 272.73,-124.42"/>
<polygon fill="#63b8ff" stroke="#63b8ff" points="335.79,-158.58 346.32,-159.69 338.78,-152.25 335.79,-158.58"/>
</a>
</g>
</g>
<!-- Node7 -->
<g id="Node000007" class="node">
<title>Node7</title>
<g id="a_Node000007"><a xlink:href="FMTpythonpickle_8hpp.html" target="_top" xlink:title=" ">
<polygon fill="white" stroke="#666666" points="537.54,-124 369.29,-124 369.29,-80 537.54,-80 537.54,-124"/>
<text text-anchor="start" x="377.29" y="-110.5" font-family="Helvetica,sans-Serif" font-size="10.00">C:/Users/CYRGU3/OneDrive</text>
<text text-anchor="start" x="377.29" y="-98.5" font-family="Helvetica,sans-Serif" font-size="10.00"> &#45; BuroVirtuel/Bureau/FMT</text>
<text text-anchor="middle" x="453.41" y="-86.5" font-family="Helvetica,sans-Serif" font-size="10.00">/FMT/Include/FMTpythonpickle.hpp</text>
</a>
</g>
</g>
<!-- Node6&#45;&gt;Node7 -->
<g id="edge6_Node000006_Node000007" class="edge">
<title>Node6&#45;&gt;Node7</title>
<g id="a_edge6_Node000006_Node000007"><a xlink:title=" ">
<path fill="none" stroke="#63b8ff" d="M415.83,-151.06C422.81,-142.13 430.31,-132.54 436.76,-124.29"/>
<polygon fill="#63b8ff" stroke="#63b8ff" points="412.48,-148.65 409.08,-158.69 418,-152.97 412.48,-148.65"/>
</a>
</g>
</g>
<!-- Node6&#45;&gt;Node8 -->
<g id="edge9_Node000006_Node000008" class="edge">
<title>Node6&#45;&gt;Node8</title>
<g id="a_edge9_Node000006_Node000008"><a xlink:title=" ">
<path fill="none" stroke="#63b8ff" d="M468.38,-156.31C499.96,-146.05 536.25,-134.25 566.66,-124.37"/>
<polygon fill="#63b8ff" stroke="#63b8ff" points="467.74,-153.16 459.31,-159.58 469.9,-159.82 467.74,-153.16"/>
</a>
</g>
</g>
<!-- Node7&#45;&gt;Node4 -->
<g id="edge7_Node000007_Node000004" class="edge">
<title>Node7&#45;&gt;Node4</title>
<g id="a_edge7_Node000007_Node000004"><a xlink:title=" ">
<path fill="none" stroke="#63b8ff" d="M381.1,-76.04C351.55,-65.84 317.71,-54.17 289.33,-44.37"/>
<polygon fill="#63b8ff" stroke="#63b8ff" points="379.76,-79.63 390.36,-79.58 382.05,-73.01 379.76,-79.63"/>
</a>
</g>
</g>
<!-- Node9&#45;&gt;Node8 -->
<g id="edge22_Node000009_Node000008" class="edge">
<title>Node9&#45;&gt;Node8</title>
<g id="a_edge22_Node000009_Node000008"><a xlink:title=" ">
<path fill="none" stroke="#63b8ff" d="M672.27,-242.45C652.7,-234.02 634.16,-221.77 622.41,-204 606.67,-180.19 614.85,-146.07 622.99,-124.22"/>
<polygon fill="#63b8ff" stroke="#63b8ff" points="670.67,-245.98 681.26,-246.41 673.25,-239.47 670.67,-245.98"/>
</a>
</g>
</g>
<!-- Node10 -->
<g id="Node000010" class="node">
<title>Node10</title>
<g id="a_Node000010"><a xlink:href="FMTlpmodel_8hpp.html" target="_top" xlink:title=" ">
<polygon fill="white" stroke="#666666" points="779.04,-204 631.79,-204 631.79,-160 779.04,-160 779.04,-204"/>
<text text-anchor="start" x="639.79" y="-190.5" font-family="Helvetica,sans-Serif" font-size="10.00">C:/Users/CYRGU3/OneDrive</text>
<text text-anchor="start" x="639.79" y="-178.5" font-family="Helvetica,sans-Serif" font-size="10.00"> &#45; BuroVirtuel/Bureau/FMT</text>
<text text-anchor="middle" x="705.41" y="-166.5" font-family="Helvetica,sans-Serif" font-size="10.00">/FMT/Include/FMTlpmodel.hpp</text>
</a>
</g>
</g>
<!-- Node9&#45;&gt;Node10 -->
<g id="edge12_Node000009_Node000010" class="edge">
<title>Node9&#45;&gt;Node10</title>
<g id="a_edge12_Node000009_Node000010"><a xlink:title=" ">
<path fill="none" stroke="#63b8ff" d="M736.47,-230.5C730.74,-221.74 724.61,-212.37 719.33,-204.29"/>
<polygon fill="#63b8ff" stroke="#63b8ff" points="734.07,-232.23 742.48,-238.69 739.93,-228.4 734.07,-232.23"/>
</a>
</g>
</g>
<!-- Node9&#45;&gt;Node11 -->
<g id="edge21_Node000009_Node000011" class="edge">
<title>Node9&#45;&gt;Node11</title>
<g id="a_edge21_Node000009_Node000011"><a xlink:title=" ">
<path fill="none" stroke="#63b8ff" d="M776.03,-230.33C780.66,-222.04 785.18,-212.89 788.41,-204 798.04,-177.51 803.02,-145.24 805.43,-124.42"/>
<polygon fill="#63b8ff" stroke="#63b8ff" points="772.63,-228.2 770.62,-238.6 778.68,-231.73 772.63,-228.2"/>
</a>
</g>
</g>
<!-- Node9&#45;&gt;Node12 -->
<g id="edge23_Node000009_Node000012" class="edge">
<title>Node9&#45;&gt;Node12</title>
<g id="a_edge23_Node000009_Node000012"><a xlink:title=" ">
<path fill="none" stroke="#63b8ff" d="M841.55,-252.3C903.79,-243.98 980.64,-228.93 1000.41,-204 1018.17,-181.61 1013.32,-146.78 1007.44,-124.44"/>
<polygon fill="#63b8ff" stroke="#63b8ff" points="841.37,-248.92 831.91,-253.68 842.27,-255.87 841.37,-248.92"/>
</a>
</g>
</g>
<!-- Node13 -->
<g id="Node000013" class="node">
<title>Node13</title>
<g id="a_Node000013"><a xlink:href="FMTnssmodel_8hpp.html" target="_top" xlink:title=" ">
<polygon fill="white" stroke="#666666" points="991.16,-204 835.66,-204 835.66,-160 991.16,-160 991.16,-204"/>
<text text-anchor="start" x="843.66" y="-190.5" font-family="Helvetica,sans-Serif" font-size="10.00">C:/Users/CYRGU3/OneDrive</text>
<text text-anchor="start" x="843.66" y="-178.5" font-family="Helvetica,sans-Serif" font-size="10.00"> &#45; BuroVirtuel/Bureau/FMT</text>
<text text-anchor="middle" x="913.41" y="-166.5" font-family="Helvetica,sans-Serif" font-size="10.00">/FMT/Include/FMTnssmodel.hpp</text>
</a>
</g>
</g>
<!-- Node9&#45;&gt;Node13 -->
<g id="edge17_Node000009_Node000013" class="edge">
<title>Node9&#45;&gt;Node13</title>
<g id="a_edge17_Node000009_Node000013"><a xlink:title=" ">
<path fill="none" stroke="#63b8ff" d="M809.15,-234.8C829.03,-224.92 851.39,-213.81 870.29,-204.42"/>
<polygon fill="#63b8ff" stroke="#63b8ff" points="807.71,-232.1 800.31,-239.69 810.83,-238.37 807.71,-232.1"/>
</a>
</g>
</g>
<!-- Node10&#45;&gt;Node7 -->
<g id="edge13_Node000010_Node000007" class="edge">
<title>Node10&#45;&gt;Node7</title>
<g id="a_edge13_Node000010_Node000007"><a xlink:title=" ">
<path fill="none" stroke="#63b8ff" d="M626.07,-156.44C592.82,-146.15 554.52,-134.29 522.45,-124.37"/>
<polygon fill="#63b8ff" stroke="#63b8ff" points="624.63,-159.97 635.22,-159.58 626.7,-153.28 624.63,-159.97"/>
</a>
</g>
</g>
<!-- Node10&#45;&gt;Node8 -->
<g id="edge15_Node000010_Node000008" class="edge">
<title>Node10&#45;&gt;Node8</title>
<g id="a_edge15_Node000010_Node000008"><a xlink:title=" ">
<path fill="none" stroke="#63b8ff" d="M678.17,-151.89C669.6,-142.74 660.3,-132.8 652.33,-124.29"/>
<polygon fill="#63b8ff" stroke="#63b8ff" points="675.08,-153.78 684.46,-158.69 680.19,-148.99 675.08,-153.78"/>
</a>
</g>
</g>
<!-- Node10&#45;&gt;Node11 -->
<g id="edge14_Node000010_Node000011" class="edge">
<title>Node10&#45;&gt;Node11</title>
<g id="a_edge14_Node000010_Node000011"><a xlink:title=" ">
<path fill="none" stroke="#63b8ff" d="M741.67,-153.28C754.13,-143.74 767.88,-133.23 779.57,-124.29"/>
<polygon fill="#63b8ff" stroke="#63b8ff" points="740.1,-150.83 734.28,-159.69 744.35,-156.39 740.1,-150.83"/>
</a>
</g>
</g>
<!-- Node10&#45;&gt;Node12 -->
<g id="edge16_Node000010_Node000012" class="edge">
<title>Node10&#45;&gt;Node12</title>
<g id="a_edge16_Node000010_Node000012"><a xlink:title=" ">
<path fill="none" stroke="#63b8ff" d="M789.93,-158.65C831.83,-147.57 882.08,-134.29 922.97,-123.48"/>
<polygon fill="#63b8ff" stroke="#63b8ff" points="789.24,-155.48 780.47,-161.42 791.03,-162.25 789.24,-155.48"/>
</a>
</g>
</g>
<!-- Node13&#45;&gt;Node8 -->
<g id="edge19_Node000013_Node000008" class="edge">
<title>Node13&#45;&gt;Node8</title>
<g id="a_edge19_Node000013_Node000008"><a xlink:title=" ">
<path fill="none" stroke="#63b8ff" d="M825.9,-156.71C788.6,-146.35 745.46,-134.38 709.4,-124.37"/>
<polygon fill="#63b8ff" stroke="#63b8ff" points="824.68,-160.28 835.26,-159.58 826.56,-153.54 824.68,-160.28"/>
</a>
</g>
</g>
<!-- Node13&#45;&gt;Node11 -->
<g id="edge18_Node000013_Node000011" class="edge">
<title>Node13&#45;&gt;Node11</title>
<g id="a_edge18_Node000013_Node000011"><a xlink:title=" ">
<path fill="none" stroke="#63b8ff" d="M875.73,-153.28C862.78,-143.74 848.49,-133.23 836.34,-124.29"/>
<polygon fill="#63b8ff" stroke="#63b8ff" points="873.32,-156.58 883.45,-159.69 877.47,-150.94 873.32,-156.58"/>
</a>
</g>
</g>
<!-- Node13&#45;&gt;Node12 -->
<g id="edge20_Node000013_Node000012" class="edge">
<title>Node13&#45;&gt;Node12</title>
<g id="a_edge20_Node000013_Node000012"><a xlink:title=" ">
<path fill="none" stroke="#63b8ff" d="M945.26,-152.45C955.64,-143.14 966.98,-132.97 976.67,-124.29"/>
<polygon fill="#63b8ff" stroke="#63b8ff" points="943.29,-149.4 938.18,-158.69 947.97,-154.62 943.29,-149.4"/>
</a>
</g>
</g>
</g>
</svg>
