<?xml version="1.0" encoding="UTF-8" standalone="no"?>
<!DOCTYPE svg PUBLIC "-//W3C//DTD SVG 1.1//EN"
 "http://www.w3.org/Graphics/SVG/1.1/DTD/svg11.dtd">
<!-- Generated by graphviz version 10.0.1 (20240210.2158)
 -->
<!-- Title: D:/FMT/Include/FMTlpsolver.hpp Pages: 1 -->
<!--zoomable 288 -->
<svg id="main" version="1.1" xmlns="http://www.w3.org/2000/svg" xmlns:xlink="http://www.w3.org/1999/xlink" xml:space="preserve" onload="init(evt)">
<style type="text/css"><![CDATA[
.edge:hover path { stroke: red; }
.edge:hover polygon { stroke: red; fill: red; }
]]></style>
<script type="text/javascript"><![CDATA[
var edges = document.getElementsByTagName('g');
if (edges && edges.length) {
  for (var i=0;i<edges.length;i++) {
    if (edges[i].id.substr(0,4)=='edge') {
      edges[i].setAttribute('class','edge');
    }
  }
}
]]></script>
        <defs>
                <circle id="rim" cx="0" cy="0" r="7"/>
                <circle id="rim2" cx="0" cy="0" r="3.5"/>
                <g id="zoomPlus">
                        <use xlink:href="#rim" fill="#404040">
                                <set attributeName="fill" to="#808080" begin="zoomplus.mouseover" end="zoomplus.mouseout"/>
                        </use>
                        <path d="M-4,0h8M0,-4v8" fill="none" stroke="white" stroke-width="1.5" pointer-events="none"/>
                </g>
                <g id="zoomMin">
                        <use xlink:href="#rim" fill="#404040">
                                <set attributeName="fill" to="#808080" begin="zoomminus.mouseover" end="zoomminus.mouseout"/>
                        </use>
                        <path d="M-4,0h8" fill="none" stroke="white" stroke-width="1.5" pointer-events="none"/>
                </g>
                <g id="dirArrow">
                        <path fill="none" stroke="white" stroke-width="1.5" d="M0,-3.0v7 M-2.5,-0.5L0,-3.0L2.5,-0.5"/>
                </g>
               <g id="resetDef">
                       <use xlink:href="#rim2" fill="#404040">
                               <set attributeName="fill" to="#808080" begin="reset.mouseover" end="reset.mouseout"/>
                       </use>
               </g>
        </defs>

<script type="text/javascript">
var viewWidth = 1492;
var viewHeight = 288;
var sectionId = 'dynsection-0';
</script>
<script xlink:href="svgpan.js"/>
<svg id="graph" class="graph">
<g id="viewport">
<title>D:/FMT/Include/FMTlpsolver.hpp</title>
<!-- Node1 -->
<g id="node1" class="node">
<title>Node1</title>
<g id="a_node1"><a xlink:title=" ">
<polygon fill="#999999" stroke="#666666" points="982.62,-280 827.12,-280 827.12,-260 982.62,-260 982.62,-280"/>
<text text-anchor="middle" x="904.88" y="-266.5" font-family="Helvetica,sans-Serif" font-size="10.00">D:/FMT/Include/FMTlpsolver.hpp</text>
</a>
</g>
</g>
<!-- Node2 -->
<g id="node2" class="node">
<title>Node2</title>
<g id="a_node2"><a xlink:href="FMTsolverinterface_8hpp.html" target="_top" xlink:title=" ">
<polygon fill="white" stroke="#666666" points="115.75,-218 0,-218 0,-198 115.75,-198 115.75,-218"/>
<text text-anchor="middle" x="57.88" y="-204.5" font-family="Helvetica,sans-Serif" font-size="10.00">FMTsolverinterface.hpp</text>
</a>
</g>
</g>
<!-- Node1&#45;&gt;Node2 -->
<g id="edge1" class="edge">
<title>Node1&#45;&gt;Node2</title>
<path fill="none" stroke="#63b8ff" d="M826.69,-268.26C686.47,-266.09 383.23,-257.56 129.88,-224 123.14,-223.11 116.1,-221.94 109.17,-220.65"/>
<polygon fill="#63b8ff" stroke="#63b8ff" points="110.03,-217.25 99.55,-218.76 108.68,-224.12 110.03,-217.25"/>
</g>
<!-- Node3 -->
<g id="node3" class="node">
<title>Node3</title>
<g id="a_node3"><a xlink:href="FMTmatrixbuild_8hpp.html" target="_top" xlink:title=" ">
<polygon fill="white" stroke="#666666" points="675.62,-218 574.12,-218 574.12,-198 675.62,-198 675.62,-218"/>
<text text-anchor="middle" x="624.88" y="-204.5" font-family="Helvetica,sans-Serif" font-size="10.00">FMTmatrixbuild.hpp</text>
</a>
</g>
</g>
<!-- Node1&#45;&gt;Node3 -->
<g id="edge2" class="edge">
<title>Node1&#45;&gt;Node3</title>
<path fill="none" stroke="#63b8ff" d="M860.82,-259.56C812.03,-249.11 733.31,-232.24 680.36,-220.89"/>
<polygon fill="#63b8ff" stroke="#63b8ff" points="681.13,-217.48 670.62,-218.8 679.66,-224.32 681.13,-217.48"/>
</g>
<!-- Node6 -->
<g id="node6" class="node">
<title>Node6</title>
<g id="a_node6"><a xlink:title=" ">
<polygon fill="#e0e0e0" stroke="#999999" points="441.5,-20 390.25,-20 390.25,0 441.5,0 441.5,-20"/>
<text text-anchor="middle" x="415.88" y="-6.5" font-family="Helvetica,sans-Serif" font-size="10.00">memory</text>
</a>
</g>
</g>
<!-- Node1&#45;&gt;Node6 -->
<g id="edge36" class="edge">
<title>Node1&#45;&gt;Node6</title>
<path fill="none" stroke="#63b8ff" d="M826.86,-268.31C661.52,-265.06 284.3,-247.54 202.88,-156 173.16,-122.59 163.54,-90.59 191.88,-56 215.05,-27.71 321.04,-16.83 378.53,-12.95"/>
<polygon fill="#63b8ff" stroke="#63b8ff" points="378.75,-16.45 388.51,-12.32 378.31,-9.46 378.75,-16.45"/>
</g>
<!-- Node8 -->
<g id="node8" class="node">
<title>Node8</title>
<g id="a_node8"><a xlink:href="FMTobject_8hpp.html" target="_top" xlink:title=" ">
<polygon fill="white" stroke="#666666" points="774.12,-150 693.62,-150 693.62,-130 774.12,-130 774.12,-150"/>
<text text-anchor="middle" x="733.88" y="-136.5" font-family="Helvetica,sans-Serif" font-size="10.00">FMTobject.hpp</text>
</a>
</g>
</g>
<!-- Node1&#45;&gt;Node8 -->
<g id="edge35" class="edge">
<title>Node1&#45;&gt;Node8</title>
<path fill="none" stroke="#63b8ff" d="M892.3,-259.59C863.27,-237.86 791.31,-184 755.23,-156.98"/>
<polygon fill="#63b8ff" stroke="#63b8ff" points="757.78,-154.52 747.68,-151.33 753.59,-160.13 757.78,-154.52"/>
</g>
<!-- Node11 -->
<g id="node11" class="node">
<title>Node11</title>
<g id="a_node11"><a xlink:title=" ">
<polygon fill="#e0e0e0" stroke="#999999" points="1250.25,-88 1155.5,-88 1155.5,-56 1250.25,-56 1250.25,-88"/>
<text text-anchor="start" x="1163.5" y="-74.5" font-family="Helvetica,sans-Serif" font-size="10.00">boost/serialization</text>
<text text-anchor="middle" x="1202.88" y="-62.5" font-family="Helvetica,sans-Serif" font-size="10.00">/export.hpp</text>
</a>
</g>
</g>
<!-- Node1&#45;&gt;Node11 -->
<g id="edge39" class="edge">
<title>Node1&#45;&gt;Node11</title>
<path fill="none" stroke="#63b8ff" d="M904.65,-259.68C904.58,-233.54 908.29,-159.12 950.88,-124 1017.52,-69.04 1057.46,-106.32 1141.88,-88 1142.69,-87.82 1143.52,-87.64 1144.35,-87.46"/>
<polygon fill="#63b8ff" stroke="#63b8ff" points="1144.86,-90.93 1153.84,-85.3 1143.31,-84.11 1144.86,-90.93"/>
</g>
<!-- Node17 -->
<g id="node17" class="node">
<title>Node17</title>
<g id="a_node17"><a xlink:href="FMTexceptionhandler_8hpp.html" target="_top" xlink:title=" ">
<polygon fill="white" stroke="#666666" points="1060.75,-218 933,-218 933,-198 1060.75,-198 1060.75,-218"/>
<text text-anchor="middle" x="996.88" y="-204.5" font-family="Helvetica,sans-Serif" font-size="10.00">FMTexceptionhandler.hpp</text>
</a>
</g>
</g>
<!-- Node1&#45;&gt;Node17 -->
<g id="edge21" class="edge">
<title>Node1&#45;&gt;Node17</title>
<path fill="none" stroke="#63b8ff" d="M919.25,-259.62C933.7,-250.2 956.21,-235.52 973.28,-224.39"/>
<polygon fill="#63b8ff" stroke="#63b8ff" points="974.87,-227.53 981.33,-219.14 971.05,-221.67 974.87,-227.53"/>
</g>
<!-- Node21 -->
<g id="node21" class="node">
<title>Node21</title>
<g id="a_node21"><a xlink:title=" ">
<polygon fill="#e0e0e0" stroke="#999999" points="1419.25,-150 1336.5,-150 1336.5,-130 1419.25,-130 1419.25,-150"/>
<text text-anchor="middle" x="1377.88" y="-136.5" font-family="Helvetica,sans-Serif" font-size="10.00">unordered_map</text>
</a>
</g>
</g>
<!-- Node1&#45;&gt;Node21 -->
<g id="edge37" class="edge">
<title>Node1&#45;&gt;Node21</title>
<path fill="none" stroke="#63b8ff" d="M962.9,-259.58C995.61,-252.73 1036.48,-241.52 1069.88,-224 1089.43,-213.74 1087.82,-201.23 1107.88,-192 1197.48,-150.75 1230.71,-177.96 1326.88,-156 1330.23,-155.23 1333.69,-154.37 1337.15,-153.46"/>
<polygon fill="#63b8ff" stroke="#63b8ff" points="1337.94,-156.87 1346.64,-150.83 1336.07,-150.13 1337.94,-156.87"/>
</g>
<!-- Node25 -->
<g id="node25" class="node">
<title>Node25</title>
<g id="a_node25"><a xlink:title=" ">
<polygon fill="#e0e0e0" stroke="#999999" points="1213,-224 1116.75,-224 1116.75,-192 1213,-192 1213,-224"/>
<text text-anchor="start" x="1124.75" y="-210.5" font-family="Helvetica,sans-Serif" font-size="10.00">boost/serialization</text>
<text text-anchor="middle" x="1164.88" y="-198.5" font-family="Helvetica,sans-Serif" font-size="10.00">/split_member.hpp</text>
</a>
</g>
</g>
<!-- Node1&#45;&gt;Node25 -->
<g id="edge38" class="edge">
<title>Node1&#45;&gt;Node25</title>
<path fill="none" stroke="#63b8ff" d="M947.4,-259.51C987.52,-250.52 1049.34,-236.56 1102.88,-224 1103.7,-223.81 1104.54,-223.61 1105.38,-223.41"/>
<polygon fill="#63b8ff" stroke="#63b8ff" points="1106.1,-226.84 1115.02,-221.12 1104.48,-220.03 1106.1,-226.84"/>
</g>
<!-- Node26 -->
<g id="node26" class="node">
<title>Node26</title>
<g id="a_node26"><a xlink:title=" ">
<polygon fill="#e0e0e0" stroke="#999999" points="1333,-224 1230.75,-224 1230.75,-192 1333,-192 1333,-224"/>
<text text-anchor="start" x="1238.75" y="-210.5" font-family="Helvetica,sans-Serif" font-size="10.00">boost/archive/binary</text>
<text text-anchor="middle" x="1281.88" y="-198.5" font-family="Helvetica,sans-Serif" font-size="10.00">_oarchive.hpp</text>
</a>
</g>
</g>
<!-- Node1&#45;&gt;Node26 -->
<g id="edge40" class="edge">
<title>Node1&#45;&gt;Node26</title>
<path fill="none" stroke="#63b8ff" d="M983.09,-260.19C1044.78,-252.72 1133.2,-240.85 1219.26,-224.39"/>
<polygon fill="#63b8ff" stroke="#63b8ff" points="1219.93,-227.83 1229.08,-222.49 1218.6,-220.96 1219.93,-227.83"/>
</g>
<!-- Node27 -->
<g id="node27" class="node">
<title>Node27</title>
<g id="a_node27"><a xlink:title=" ">
<polygon fill="#e0e0e0" stroke="#999999" points="1453,-224 1350.75,-224 1350.75,-192 1453,-192 1453,-224"/>
<text text-anchor="start" x="1358.75" y="-210.5" font-family="Helvetica,sans-Serif" font-size="10.00">boost/archive/binary</text>
<text text-anchor="middle" x="1401.88" y="-198.5" font-family="Helvetica,sans-Serif" font-size="10.00">_iarchive.hpp</text>
</a>
</g>
</g>
<!-- Node1&#45;&gt;Node27 -->
<g id="edge41" class="edge">
<title>Node1&#45;&gt;Node27</title>
<path fill="none" stroke="#63b8ff" d="M983.09,-264.32C1068.41,-258.45 1209.11,-246.56 1338.94,-224.37"/>
<polygon fill="#63b8ff" stroke="#63b8ff" points="1339.52,-227.82 1348.77,-222.66 1338.32,-220.92 1339.52,-227.82"/>
</g>
<!-- Node28 -->
<g id="node28" class="node">
<title>Node28</title>
<g id="a_node28"><a xlink:href="FMTserializablematrix_8hpp.html" target="_top" xlink:title=" ">
<polygon fill="white" stroke="#666666" points="341.88,-150 211.88,-150 211.88,-130 341.88,-130 341.88,-150"/>
<text text-anchor="middle" x="276.88" y="-136.5" font-family="Helvetica,sans-Serif" font-size="10.00">FMTserializablematrix.hpp</text>
</a>
</g>
</g>
<!-- Node1&#45;&gt;Node28 -->
<g id="edge42" class="edge">
<title>Node1&#45;&gt;Node28</title>
<path fill="none" stroke="#63b8ff" d="M826.67,-261.99C757.4,-254.99 653.76,-242.58 564.88,-224 474.05,-205.01 370.02,-172.21 315.25,-154.04"/>
<polygon fill="#63b8ff" stroke="#63b8ff" points="316.36,-150.73 305.77,-150.88 314.15,-157.37 316.36,-150.73"/>
</g>
<!-- Node4 -->
<g id="node4" class="node">
<title>Node4</title>
<g id="a_node4"><a xlink:title=" ">
<polygon fill="#e0e0e0" stroke="#999999" points="439.62,-82 398.12,-82 398.12,-62 439.62,-62 439.62,-82"/>
<text text-anchor="middle" x="418.88" y="-68.5" font-family="Helvetica,sans-Serif" font-size="10.00">vector</text>
</a>
</g>
</g>
<!-- Node3&#45;&gt;Node4 -->
<g id="edge3" class="edge">
<title>Node3&#45;&gt;Node4</title>
<path fill="none" stroke="#63b8ff" d="M574.01,-203.3C536.7,-198.1 486.98,-185.67 453.88,-156 435.72,-139.72 426.69,-112.48 422.41,-93.67"/>
<polygon fill="#63b8ff" stroke="#63b8ff" points="425.87,-93.09 420.49,-83.96 419,-94.45 425.87,-93.09"/>
</g>
<!-- Node5 -->
<g id="node5" class="node">
<title>Node5</title>
<g id="a_node5"><a xlink:title=" ">
<polygon fill="#e0e0e0" stroke="#999999" points="1147.88,-20 1107.88,-20 1107.88,0 1147.88,0 1147.88,-20"/>
<text text-anchor="middle" x="1127.88" y="-6.5" font-family="Helvetica,sans-Serif" font-size="10.00">string</text>
</a>
</g>
</g>
<!-- Node3&#45;&gt;Node5 -->
<g id="edge4" class="edge">
<title>Node3&#45;&gt;Node5</title>
<path fill="none" stroke="#63b8ff" d="M655.44,-197.56C709.05,-181.2 823.64,-147.14 921.88,-124 1004.26,-104.59 1047.5,-146.28 1108.88,-88 1123.99,-73.65 1127.87,-49.35 1128.52,-31.89"/>
<polygon fill="#63b8ff" stroke="#63b8ff" points="1132.02,-31.9 1128.53,-21.89 1125.02,-31.89 1132.02,-31.9"/>
</g>
<!-- Node3&#45;&gt;Node6 -->
<g id="edge5" class="edge">
<title>Node3&#45;&gt;Node6</title>
<path fill="none" stroke="#63b8ff" d="M573.73,-198.28C523.61,-188.93 451.53,-173.11 428.88,-156 390.68,-127.15 376.1,-102.13 388.88,-56 391.45,-46.7 396.51,-37.4 401.57,-29.68"/>
<polygon fill="#63b8ff" stroke="#63b8ff" points="404.42,-31.72 407.34,-21.53 398.7,-27.67 404.42,-31.72"/>
</g>
<!-- Node7 -->
<g id="node7" class="node">
<title>Node7</title>
<g id="a_node7"><a xlink:href="FMTutility_8hpp.html" target="_top" xlink:title=" ">
<polygon fill="white" stroke="#666666" points="582.62,-20 505.12,-20 505.12,0 582.62,0 582.62,-20"/>
<text text-anchor="middle" x="543.88" y="-6.5" font-family="Helvetica,sans-Serif" font-size="10.00">FMTutility.hpp</text>
</a>
</g>
</g>
<!-- Node3&#45;&gt;Node7 -->
<g id="edge6" class="edge">
<title>Node3&#45;&gt;Node7</title>
<path fill="none" stroke="#63b8ff" d="M619.1,-197.79C607.06,-178.26 579.09,-130.93 562.88,-88 555.81,-69.3 550.65,-47.04 547.5,-31.28"/>
<polygon fill="#63b8ff" stroke="#63b8ff" points="550.99,-30.89 545.7,-21.71 544.11,-32.19 550.99,-30.89"/>
</g>
<!-- Node3&#45;&gt;Node8 -->
<g id="edge7" class="edge">
<title>Node3&#45;&gt;Node8</title>
<path fill="none" stroke="#63b8ff" d="M640.49,-197.54C658.3,-186.76 687.66,-168.98 708.71,-156.24"/>
<polygon fill="#63b8ff" stroke="#63b8ff" points="710.25,-159.4 716.99,-151.22 706.63,-153.41 710.25,-159.4"/>
</g>
<!-- Node8&#45;&gt;Node4 -->
<g id="edge19" class="edge">
<title>Node8&#45;&gt;Node4</title>
<path fill="none" stroke="#63b8ff" d="M693.34,-130.51C629.91,-117.22 508.51,-91.78 450.83,-79.7"/>
<polygon fill="#63b8ff" stroke="#63b8ff" points="451.84,-76.33 441.34,-77.71 450.41,-83.18 451.84,-76.33"/>
</g>
<!-- Node8&#45;&gt;Node6 -->
<g id="edge17" class="edge">
<title>Node8&#45;&gt;Node6</title>
<path fill="none" stroke="#63b8ff" d="M694.43,-129.55C659.29,-120.58 606.78,-105.85 562.88,-88 518.43,-69.93 469.59,-42.78 440.9,-26.01"/>
<polygon fill="#63b8ff" stroke="#63b8ff" points="442.97,-23.18 432.58,-21.11 439.42,-29.21 442.97,-23.18"/>
</g>
<!-- Node9 -->
<g id="node9" class="node">
<title>Node9</title>
<g id="a_node9"><a xlink:title=" ">
<polygon fill="#e0e0e0" stroke="#999999" points="666.25,-88 571.5,-88 571.5,-56 666.25,-56 666.25,-88"/>
<text text-anchor="start" x="579.5" y="-74.5" font-family="Helvetica,sans-Serif" font-size="10.00">boost/serialization</text>
<text text-anchor="middle" x="618.88" y="-62.5" font-family="Helvetica,sans-Serif" font-size="10.00">/shared_ptr.hpp</text>
</a>
</g>
</g>
<!-- Node8&#45;&gt;Node9 -->
<g id="edge8" class="edge">
<title>Node8&#45;&gt;Node9</title>
<path fill="none" stroke="#63b8ff" d="M717.4,-129.54C701.28,-120.29 676.19,-105.89 655.36,-93.94"/>
<polygon fill="#63b8ff" stroke="#63b8ff" points="657.26,-91 646.85,-89.05 653.78,-97.07 657.26,-91"/>
</g>
<!-- Node10 -->
<g id="node10" class="node">
<title>Node10</title>
<g id="a_node10"><a xlink:title=" ">
<polygon fill="#e0e0e0" stroke="#999999" points="985.25,-88 890.5,-88 890.5,-56 985.25,-56 985.25,-88"/>
<text text-anchor="start" x="898.5" y="-74.5" font-family="Helvetica,sans-Serif" font-size="10.00">boost/serialization</text>
<text text-anchor="middle" x="937.88" y="-62.5" font-family="Helvetica,sans-Serif" font-size="10.00">/nvp.hpp</text>
</a>
</g>
</g>
<!-- Node8&#45;&gt;Node10 -->
<g id="edge9" class="edge">
<title>Node8&#45;&gt;Node10</title>
<path fill="none" stroke="#63b8ff" d="M763.1,-129.54C793.29,-119.78 841.21,-104.28 879.24,-91.97"/>
<polygon fill="#63b8ff" stroke="#63b8ff" points="880.31,-95.3 888.75,-88.89 878.16,-88.64 880.31,-95.3"/>
</g>
<!-- Node8&#45;&gt;Node11 -->
<g id="edge10" class="edge">
<title>Node8&#45;&gt;Node11</title>
<path fill="none" stroke="#63b8ff" d="M774.43,-133.8C843.26,-124.89 987.33,-105.96 1108.88,-88 1120.16,-86.33 1132.18,-84.48 1143.74,-82.65"/>
<polygon fill="#63b8ff" stroke="#63b8ff" points="1144.27,-86.11 1153.59,-81.08 1143.17,-79.2 1144.27,-86.11"/>
</g>
<!-- Node12 -->
<g id="node12" class="node">
<title>Node12</title>
<g id="a_node12"><a xlink:href="FMTexception_8hpp.html" target="_top" xlink:title=" ">
<polygon fill="white" stroke="#666666" points="1100,-82 1003.75,-82 1003.75,-62 1100,-62 1100,-82"/>
<text text-anchor="middle" x="1051.88" y="-68.5" font-family="Helvetica,sans-Serif" font-size="10.00">FMTexception.hpp</text>
</a>
</g>
</g>
<!-- Node8&#45;&gt;Node12 -->
<g id="edge11" class="edge">
<title>Node8&#45;&gt;Node12</title>
<path fill="none" stroke="#63b8ff" d="M774.47,-131.34C836.66,-119.56 952.66,-97.36 993.88,-88 997.69,-87.13 1001.64,-86.2 1005.6,-85.23"/>
<polygon fill="#63b8ff" stroke="#63b8ff" points="1006.36,-88.65 1015.22,-82.83 1004.67,-81.86 1006.36,-88.65"/>
</g>
<!-- Node15 -->
<g id="node15" class="node">
<title>Node15</title>
<g id="a_node15"><a xlink:title=" ">
<polygon fill="#e0e0e0" stroke="#999999" points="729.5,-82 684.25,-82 684.25,-62 729.5,-62 729.5,-82"/>
<text text-anchor="middle" x="706.88" y="-68.5" font-family="Helvetica,sans-Serif" font-size="10.00">chrono</text>
</a>
</g>
</g>
<!-- Node8&#45;&gt;Node15 -->
<g id="edge18" class="edge">
<title>Node8&#45;&gt;Node15</title>
<path fill="none" stroke="#63b8ff" d="M730.01,-129.54C726.12,-120.04 720,-105.09 715.04,-92.95"/>
<polygon fill="#63b8ff" stroke="#63b8ff" points="718.34,-91.77 711.31,-83.84 711.86,-94.42 718.34,-91.77"/>
</g>
<!-- Node16 -->
<g id="node16" class="node">
<title>Node16</title>
<g id="a_node16"><a xlink:title=" ">
<polygon fill="#e0e0e0" stroke="#999999" points="872.25,-88 747.5,-88 747.5,-56 872.25,-56 872.25,-88"/>
<text text-anchor="start" x="755.5" y="-74.5" font-family="Helvetica,sans-Serif" font-size="10.00">boost/dll/runtime_symbol</text>
<text text-anchor="middle" x="809.88" y="-62.5" font-family="Helvetica,sans-Serif" font-size="10.00">_info.hpp</text>
</a>
</g>
</g>
<!-- Node8&#45;&gt;Node16 -->
<g id="edge20" class="edge">
<title>Node8&#45;&gt;Node16</title>
<path fill="none" stroke="#63b8ff" d="M744.76,-129.54C754.93,-120.71 770.5,-107.19 783.87,-95.58"/>
<polygon fill="#63b8ff" stroke="#63b8ff" points="785.86,-98.49 791.11,-89.29 781.27,-93.21 785.86,-98.49"/>
</g>
<!-- Node12&#45;&gt;Node5 -->
<g id="edge13" class="edge">
<title>Node12&#45;&gt;Node5</title>
<path fill="none" stroke="#63b8ff" d="M1063.75,-61.62C1075.42,-52.41 1093.46,-38.17 1107.43,-27.14"/>
<polygon fill="#63b8ff" stroke="#63b8ff" points="1109.46,-29.99 1115.14,-21.05 1105.13,-24.5 1109.46,-29.99"/>
</g>
<!-- Node12&#45;&gt;Node6 -->
<g id="edge15" class="edge">
<title>Node12&#45;&gt;Node6</title>
<path fill="none" stroke="#63b8ff" d="M1019.58,-61.54C1011.27,-59.42 1002.29,-57.38 993.88,-56 774.89,-20.07 716.85,-40.41 495.88,-20 481.88,-18.71 466.54,-17.04 453.07,-15.5"/>
<polygon fill="#63b8ff" stroke="#63b8ff" points="453.63,-12.04 443.29,-14.36 452.82,-18.99 453.63,-12.04"/>
</g>
<!-- Node12&#45;&gt;Node7 -->
<g id="edge16" class="edge">
<title>Node12&#45;&gt;Node7</title>
<path fill="none" stroke="#63b8ff" d="M1018.94,-61.55C1010.8,-59.47 1002.07,-57.46 993.88,-56 850.25,-30.4 678.05,-18.26 594.42,-13.52"/>
<polygon fill="#63b8ff" stroke="#63b8ff" points="594.67,-10.03 584.49,-12.97 594.28,-17.02 594.67,-10.03"/>
</g>
<!-- Node13 -->
<g id="node13" class="node">
<title>Node13</title>
<g id="a_node13"><a xlink:title=" ">
<polygon fill="#e0e0e0" stroke="#999999" points="1084.88,-20 1026.88,-20 1026.88,0 1084.88,0 1084.88,-20"/>
<text text-anchor="middle" x="1055.88" y="-6.5" font-family="Helvetica,sans-Serif" font-size="10.00">exception</text>
</a>
</g>
</g>
<!-- Node12&#45;&gt;Node13 -->
<g id="edge12" class="edge">
<title>Node12&#45;&gt;Node13</title>
<path fill="none" stroke="#63b8ff" d="M1052.5,-61.62C1053.04,-53.56 1053.83,-41.65 1054.51,-31.41"/>
<polygon fill="#63b8ff" stroke="#63b8ff" points="1057.99,-31.83 1055.17,-21.62 1051.01,-31.37 1057.99,-31.83"/>
</g>
<!-- Node14 -->
<g id="node14" class="node">
<title>Node14</title>
<g id="a_node14"><a xlink:title=" ">
<polygon fill="#e0e0e0" stroke="#999999" points="1008.62,-20 955.12,-20 955.12,0 1008.62,0 1008.62,-20"/>
<text text-anchor="middle" x="981.88" y="-6.5" font-family="Helvetica,sans-Serif" font-size="10.00">iostream</text>
</a>
</g>
</g>
<!-- Node12&#45;&gt;Node14 -->
<g id="edge14" class="edge">
<title>Node12&#45;&gt;Node14</title>
<path fill="none" stroke="#63b8ff" d="M1040.94,-61.62C1030.29,-52.5 1013.89,-38.45 1001.08,-27.46"/>
<polygon fill="#63b8ff" stroke="#63b8ff" points="1003.53,-24.95 993.66,-21.1 998.97,-30.26 1003.53,-24.95"/>
</g>
<!-- Node17&#45;&gt;Node6 -->
<g id="edge32" class="edge">
<title>Node17&#45;&gt;Node6</title>
<path fill="none" stroke="#63b8ff" d="M932.9,-205C831.94,-199.13 632.78,-176.28 492.88,-88 467.51,-72 444.02,-46.26 429.81,-29"/>
<polygon fill="#63b8ff" stroke="#63b8ff" points="432.85,-27.2 423.87,-21.58 427.39,-31.57 432.85,-27.2"/>
</g>
<!-- Node17&#45;&gt;Node10 -->
<g id="edge30" class="edge">
<title>Node17&#45;&gt;Node10</title>
<path fill="none" stroke="#63b8ff" d="M975.34,-197.52C959.27,-189.15 938.51,-175.27 928.88,-156 920.08,-138.41 923.14,-116.15 927.95,-99.11"/>
<polygon fill="#63b8ff" stroke="#63b8ff" points="931.25,-100.3 930.98,-89.71 924.58,-98.16 931.25,-100.3"/>
</g>
<!-- Node17&#45;&gt;Node11 -->
<g id="edge31" class="edge">
<title>Node17&#45;&gt;Node11</title>
<path fill="none" stroke="#63b8ff" d="M987.09,-197.62C971.14,-181.2 943.14,-146.86 961.88,-124 1013.6,-60.91 1062.24,-105.74 1141.88,-88 1142.69,-87.82 1143.52,-87.63 1144.35,-87.45"/>
<polygon fill="#63b8ff" stroke="#63b8ff" points="1144.87,-90.92 1153.83,-85.25 1143.3,-84.1 1144.87,-90.92"/>
</g>
<!-- Node18 -->
<g id="node18" class="node">
<title>Node18</title>
<g id="a_node18"><a xlink:href="FMTlogger_8hpp.html" target="_top" xlink:title=" ">
<polygon fill="white" stroke="#666666" points="1318.12,-150 1237.62,-150 1237.62,-130 1318.12,-130 1318.12,-150"/>
<text text-anchor="middle" x="1277.88" y="-136.5" font-family="Helvetica,sans-Serif" font-size="10.00">FMTlogger.hpp</text>
</a>
</g>
</g>
<!-- Node17&#45;&gt;Node18 -->
<g id="edge22" class="edge">
<title>Node17&#45;&gt;Node18</title>
<path fill="none" stroke="#63b8ff" d="M1044.46,-197.57C1091.34,-188.03 1164.87,-172.38 1227.88,-156 1230.78,-155.25 1233.76,-154.44 1236.76,-153.6"/>
<polygon fill="#63b8ff" stroke="#63b8ff" points="1237.47,-157.03 1246.11,-150.9 1235.54,-150.31 1237.47,-157.03"/>
</g>
<!-- Node17&#45;&gt;Node21 -->
<g id="edge28" class="edge">
<title>Node17&#45;&gt;Node21</title>
<path fill="none" stroke="#63b8ff" d="M1044.24,-197.51C1054.34,-195.6 1064.95,-193.66 1074.88,-192 1186.46,-173.31 1216.32,-180.02 1326.88,-156 1330.28,-155.26 1333.79,-154.41 1337.31,-153.5"/>
<polygon fill="#63b8ff" stroke="#63b8ff" points="1338.22,-156.88 1346.94,-150.86 1336.37,-150.13 1338.22,-156.88"/>
</g>
<!-- Node22 -->
<g id="node22" class="node">
<title>Node22</title>
<g id="a_node22"><a xlink:title=" ">
<polygon fill="#e0e0e0" stroke="#999999" points="1065.25,-156 970.5,-156 970.5,-124 1065.25,-124 1065.25,-156"/>
<text text-anchor="start" x="978.5" y="-142.5" font-family="Helvetica,sans-Serif" font-size="10.00">boost/serialization</text>
<text text-anchor="middle" x="1017.88" y="-130.5" font-family="Helvetica,sans-Serif" font-size="10.00">/serialization.hpp</text>
</a>
</g>
</g>
<!-- Node17&#45;&gt;Node22 -->
<g id="edge29" class="edge">
<title>Node17&#45;&gt;Node22</title>
<path fill="none" stroke="#63b8ff" d="M999.88,-197.54C1002.43,-189.55 1006.19,-177.72 1009.62,-166.95"/>
<polygon fill="#63b8ff" stroke="#63b8ff" points="1012.85,-168.33 1012.55,-157.74 1006.18,-166.21 1012.85,-168.33"/>
</g>
<!-- Node23 -->
<g id="node23" class="node">
<title>Node23</title>
<g id="a_node23"><a xlink:title=" ">
<polygon fill="#e0e0e0" stroke="#999999" points="1112.62,-150 1083.12,-150 1083.12,-130 1112.62,-130 1112.62,-150"/>
<text text-anchor="middle" x="1097.88" y="-136.5" font-family="Helvetica,sans-Serif" font-size="10.00">set</text>
</a>
</g>
</g>
<!-- Node17&#45;&gt;Node23 -->
<g id="edge33" class="edge">
<title>Node17&#45;&gt;Node23</title>
<path fill="none" stroke="#63b8ff" d="M1011.35,-197.54C1027.7,-186.86 1054.56,-169.31 1074.02,-156.59"/>
<polygon fill="#63b8ff" stroke="#63b8ff" points="1075.71,-159.67 1082.16,-151.27 1071.88,-153.81 1075.71,-159.67"/>
</g>
<!-- Node24 -->
<g id="node24" class="node">
<title>Node24</title>
<g id="a_node24"><a xlink:title=" ">
<polygon fill="#e0e0e0" stroke="#999999" points="1219.25,-150 1130.5,-150 1130.5,-130 1219.25,-130 1219.25,-150"/>
<text text-anchor="middle" x="1174.88" y="-136.5" font-family="Helvetica,sans-Serif" font-size="10.00">boost/thread.hpp</text>
</a>
</g>
</g>
<!-- Node17&#45;&gt;Node24 -->
<g id="edge34" class="edge">
<title>Node17&#45;&gt;Node24</title>
<path fill="none" stroke="#63b8ff" d="M1022.38,-197.54C1052.91,-186.22 1104.25,-167.19 1138.83,-154.37"/>
<polygon fill="#63b8ff" stroke="#63b8ff" points="1139.84,-157.72 1148,-150.96 1137.41,-151.16 1139.84,-157.72"/>
</g>
<!-- Node18&#45;&gt;Node5 -->
<g id="edge26" class="edge">
<title>Node18&#45;&gt;Node5</title>
<path fill="none" stroke="#63b8ff" d="M1278.47,-129.72C1279.04,-112.86 1277.76,-76.99 1258.88,-56 1233.32,-27.59 1189.02,-17.11 1159.09,-13.25"/>
<polygon fill="#63b8ff" stroke="#63b8ff" points="1159.83,-9.81 1149.51,-12.2 1159.07,-16.77 1159.83,-9.81"/>
</g>
<!-- Node18&#45;&gt;Node11 -->
<g id="edge23" class="edge">
<title>Node18&#45;&gt;Node11</title>
<path fill="none" stroke="#63b8ff" d="M1267.13,-129.54C1257.1,-120.71 1241.73,-107.19 1228.54,-95.58"/>
<polygon fill="#63b8ff" stroke="#63b8ff" points="1231.22,-93.28 1221.4,-89.3 1226.59,-98.53 1231.22,-93.28"/>
</g>
<!-- Node18&#45;&gt;Node12 -->
<g id="edge27" class="edge">
<title>Node18&#45;&gt;Node12</title>
<path fill="none" stroke="#63b8ff" d="M1246.42,-129.51C1240.27,-127.67 1233.87,-125.77 1227.88,-124 1183,-110.77 1131.59,-95.9 1095.97,-85.65"/>
<polygon fill="#63b8ff" stroke="#63b8ff" points="1097.02,-82.31 1086.44,-82.91 1095.09,-89.04 1097.02,-82.31"/>
</g>
<!-- Node19 -->
<g id="node19" class="node">
<title>Node19</title>
<g id="a_node19"><a xlink:title=" ">
<polygon fill="#e0e0e0" stroke="#999999" points="1417.5,-88 1306.25,-88 1306.25,-56 1417.5,-56 1417.5,-88"/>
<text text-anchor="start" x="1314.25" y="-74.5" font-family="Helvetica,sans-Serif" font-size="10.00">boost/thread/recursive</text>
<text text-anchor="middle" x="1361.88" y="-62.5" font-family="Helvetica,sans-Serif" font-size="10.00">_mutex.hpp</text>
</a>
</g>
</g>
<!-- Node18&#45;&gt;Node19 -->
<g id="edge24" class="edge">
<title>Node18&#45;&gt;Node19</title>
<path fill="none" stroke="#63b8ff" d="M1289.91,-129.54C1301.26,-120.63 1318.69,-106.93 1333.55,-95.25"/>
<polygon fill="#63b8ff" stroke="#63b8ff" points="1335.51,-98.17 1341.21,-89.24 1331.19,-92.66 1335.51,-98.17"/>
</g>
<!-- Node20 -->
<g id="node20" class="node">
<title>Node20</title>
<g id="a_node20"><a xlink:title=" ">
<polygon fill="#e0e0e0" stroke="#999999" points="1484,-82 1435.75,-82 1435.75,-62 1484,-62 1484,-82"/>
<text text-anchor="middle" x="1459.88" y="-68.5" font-family="Helvetica,sans-Serif" font-size="10.00">fstream</text>
</a>
</g>
</g>
<!-- Node18&#45;&gt;Node20 -->
<g id="edge25" class="edge">
<title>Node18&#45;&gt;Node20</title>
<path fill="none" stroke="#63b8ff" d="M1308.15,-129.59C1338.48,-119.94 1386.35,-104.1 1426.88,-88 1427.82,-87.62 1428.78,-87.24 1429.75,-86.84"/>
<polygon fill="#63b8ff" stroke="#63b8ff" points="1430.93,-90.14 1438.73,-82.96 1428.16,-83.71 1430.93,-90.14"/>
</g>
<!-- Node28&#45;&gt;Node4 -->
<g id="edge44" class="edge">
<title>Node28&#45;&gt;Node4</title>
<path fill="none" stroke="#63b8ff" d="M297.22,-129.54C321.05,-118.47 360.77,-100.01 388.31,-87.21"/>
<polygon fill="#63b8ff" stroke="#63b8ff" points="389.6,-90.47 397.2,-83.08 386.65,-84.12 389.6,-90.47"/>
</g>
<!-- Node28&#45;&gt;Node6 -->
<g id="edge43" class="edge">
<title>Node28&#45;&gt;Node6</title>
<path fill="none" stroke="#63b8ff" d="M251.4,-129.51C233.71,-121.42 211.49,-107.91 200.88,-88 194.18,-75.45 191.91,-67.04 200.88,-56 222.83,-28.98 322.85,-17.61 378.4,-13.31"/>
<polygon fill="#63b8ff" stroke="#63b8ff" points="378.63,-16.8 388.35,-12.59 378.13,-9.82 378.63,-16.8"/>
</g>
<!-- Node28&#45;&gt;Node7 -->
<g id="edge45" class="edge">
<title>Node28&#45;&gt;Node7</title>
<path fill="none" stroke="#63b8ff" d="M286.86,-129.63C305.5,-112.63 347.46,-76.53 388.88,-56 422.19,-39.49 462.62,-28 493.83,-20.77"/>
<polygon fill="#63b8ff" stroke="#63b8ff" points="494.41,-24.23 503.4,-18.63 492.88,-17.39 494.41,-24.23"/>
</g>
<!-- Node29 -->
<g id="node29" class="node">
<title>Node29</title>
<g id="a_node29"><a xlink:title=" ">
<polygon fill="#e0e0e0" stroke="#999999" points="304.25,-88 209.5,-88 209.5,-56 304.25,-56 304.25,-88"/>
<text text-anchor="start" x="217.5" y="-74.5" font-family="Helvetica,sans-Serif" font-size="10.00">boost/serialization</text>
<text text-anchor="middle" x="256.88" y="-62.5" font-family="Helvetica,sans-Serif" font-size="10.00">/vector.hpp</text>
</a>
</g>
</g>
<!-- Node28&#45;&gt;Node29 -->
<g id="edge46" class="edge">
<title>Node28&#45;&gt;Node29</title>
<path fill="none" stroke="#63b8ff" d="M274.01,-129.54C271.61,-121.64 268.08,-109.97 264.84,-99.29"/>
<polygon fill="#63b8ff" stroke="#63b8ff" points="268.2,-98.3 261.95,-89.75 261.5,-100.33 268.2,-98.3"/>
</g>
</g>
</svg>
        <g id="navigator" transform="translate(0 0)" fill="#404254">
                <rect fill="#f2f5e9" fill-opacity="0.5" stroke="#606060" stroke-width=".5" x="0" y="0" width="60" height="60"/>
                <use id="zoomplus" xlink:href="#zoomPlus" x="17" y="9" onmousedown="handleZoom(evt,'in')"/>
                <use id="zoomminus" xlink:href="#zoomMin" x="42" y="9" onmousedown="handleZoom(evt,'out')"/>
                <use id="reset" xlink:href="#resetDef" x="30" y="36" onmousedown="handleReset()"/>
                <g id="arrowUp" xlink:href="#dirArrow" transform="translate(30 24)" onmousedown="handlePan(0,-1)">
                  <use xlink:href="#rim" fill="#404040">
                        <set attributeName="fill" to="#808080" begin="arrowUp.mouseover" end="arrowUp.mouseout"/>
                  </use>
                  <path fill="none" stroke="white" stroke-width="1.5" d="M0,-3.0v7 M-2.5,-0.5L0,-3.0L2.5,-0.5"/>
                </g>
                <g id="arrowRight" xlink:href="#dirArrow" transform="rotate(90) translate(36 -43)" onmousedown="handlePan(1,0)">
                  <use xlink:href="#rim" fill="#404040">
                        <set attributeName="fill" to="#808080" begin="arrowRight.mouseover" end="arrowRight.mouseout"/>
                  </use>
                  <path fill="none" stroke="white" stroke-width="1.5" d="M0,-3.0v7 M-2.5,-0.5L0,-3.0L2.5,-0.5"/>
                </g>
                <g id="arrowDown" xlink:href="#dirArrow" transform="rotate(180) translate(-30 -48)" onmousedown="handlePan(0,1)">
                  <use xlink:href="#rim" fill="#404040">
                        <set attributeName="fill" to="#808080" begin="arrowDown.mouseover" end="arrowDown.mouseout"/>
                  </use>
                  <path fill="none" stroke="white" stroke-width="1.5" d="M0,-3.0v7 M-2.5,-0.5L0,-3.0L2.5,-0.5"/>
                </g>
                <g id="arrowLeft" xlink:href="#dirArrow" transform="rotate(270) translate(-36 17)" onmousedown="handlePan(-1,0)">
                  <use xlink:href="#rim" fill="#404040">
                        <set attributeName="fill" to="#808080" begin="arrowLeft.mouseover" end="arrowLeft.mouseout"/>
                  </use>
                  <path fill="none" stroke="white" stroke-width="1.5" d="M0,-3.0v7 M-2.5,-0.5L0,-3.0L2.5,-0.5"/>
                </g>
        </g>
        <svg viewBox="0 0 15 15" width="100%" height="30px" preserveAspectRatio="xMaxYMin meet">
         <g id="arrow_out" transform="scale(0.3 0.3)">
          <a xlink:href="FMTlpsolver_8hpp__incl_org.svg" target="_base">
           <rect id="button" ry="5" rx="5" y="6" x="6" height="38" width="38"
                fill="#f2f5e9" fill-opacity="0.5" stroke="#606060" stroke-width="1.0"/>
           <path id="arrow"
             d="M 11.500037,31.436501 C 11.940474,20.09759 22.043105,11.32322 32.158766,21.979434 L 37.068811,17.246167 C 37.068811,17.246167 37.088388,32 37.088388,32 L 22.160133,31.978069 C 22.160133,31.978069 26.997745,27.140456 26.997745,27.140456 C 18.528582,18.264221 13.291696,25.230495 11.500037,31.436501 z"
             style="fill:#404040;"/>
          </a>
         </g>
        </svg>
</svg>
