<?xml version="1.0" encoding="UTF-8" standalone="no"?>
<!DOCTYPE svg PUBLIC "-//W3C//DTD SVG 1.1//EN"
 "http://www.w3.org/Graphics/SVG/1.1/DTD/svg11.dtd">
<!-- Generated by graphviz version 10.0.1 (20240210.2158)
 -->
<!-- Title: D:/FMT/Include/FMTlogger.hpp Pages: 1 -->
<svg width="641pt" height="152pt"
 viewBox="0.00 0.00 641.12 152.00" xmlns="http://www.w3.org/2000/svg" xmlns:xlink="http://www.w3.org/1999/xlink">
<g id="graph0" class="graph" transform="scale(1 1) rotate(0) translate(4 148)">
<title>D:/FMT/Include/FMTlogger.hpp</title>
<!-- Node1 -->
<g id="node1" class="node">
<title>Node1</title>
<g id="a_node1"><a xlink:title=" ">
<polygon fill="#999999" stroke="#666666" points="341.12,-144 191.62,-144 191.62,-124 341.12,-124 341.12,-144"/>
<text text-anchor="middle" x="266.38" y="-130.5" font-family="Helvetica,sans-Serif" font-size="10.00">D:/FMT/Include/FMTlogger.hpp</text>
</a>
</g>
</g>
<!-- Node2 -->
<g id="node2" class="node">
<title>Node2</title>
<g id="a_node2"><a xlink:title=" ">
<polygon fill="#e0e0e0" stroke="#999999" points="94.75,-88 0,-88 0,-56 94.75,-56 94.75,-88"/>
<text text-anchor="start" x="8" y="-74.5" font-family="Helvetica,sans-Serif" font-size="10.00">boost/serialization</text>
<text text-anchor="middle" x="47.38" y="-62.5" font-family="Helvetica,sans-Serif" font-size="10.00">/export.hpp</text>
</a>
</g>
</g>
<!-- Node1&#45;&gt;Node2 -->
<g id="edge1" class="edge">
<title>Node1&#45;&gt;Node2</title>
<path fill="none" stroke="#63b8ff" d="M232.16,-123.62C198.51,-114.41 146.48,-100.15 106.19,-89.11"/>
<polygon fill="#63b8ff" stroke="#63b8ff" points="107.19,-85.76 96.62,-86.49 105.34,-92.51 107.19,-85.76"/>
</g>
<!-- Node3 -->
<g id="node3" class="node">
<title>Node3</title>
<g id="a_node3"><a xlink:title=" ">
<polygon fill="#e0e0e0" stroke="#999999" points="224,-88 112.75,-88 112.75,-56 224,-56 224,-88"/>
<text text-anchor="start" x="120.75" y="-74.5" font-family="Helvetica,sans-Serif" font-size="10.00">boost/thread/recursive</text>
<text text-anchor="middle" x="168.38" y="-62.5" font-family="Helvetica,sans-Serif" font-size="10.00">_mutex.hpp</text>
</a>
</g>
</g>
<!-- Node1&#45;&gt;Node3 -->
<g id="edge2" class="edge">
<title>Node1&#45;&gt;Node3</title>
<path fill="none" stroke="#63b8ff" d="M251.06,-123.62C238.31,-115.82 219.66,-104.4 203.3,-94.38"/>
<polygon fill="#63b8ff" stroke="#63b8ff" points="205.13,-91.4 194.78,-89.16 201.48,-97.37 205.13,-91.4"/>
</g>
<!-- Node4 -->
<g id="node4" class="node">
<title>Node4</title>
<g id="a_node4"><a xlink:title=" ">
<polygon fill="#e0e0e0" stroke="#999999" points="290.5,-82 242.25,-82 242.25,-62 290.5,-62 290.5,-82"/>
<text text-anchor="middle" x="266.38" y="-68.5" font-family="Helvetica,sans-Serif" font-size="10.00">fstream</text>
</a>
</g>
</g>
<!-- Node1&#45;&gt;Node4 -->
<g id="edge3" class="edge">
<title>Node1&#45;&gt;Node4</title>
<path fill="none" stroke="#63b8ff" d="M266.38,-123.62C266.38,-115.56 266.38,-103.65 266.38,-93.41"/>
<polygon fill="#63b8ff" stroke="#63b8ff" points="269.88,-93.63 266.38,-83.63 262.88,-93.63 269.88,-93.63"/>
</g>
<!-- Node5 -->
<g id="node5" class="node">
<title>Node5</title>
<g id="a_node5"><a xlink:title=" ">
<polygon fill="#e0e0e0" stroke="#999999" points="321.38,-20 281.38,-20 281.38,0 321.38,0 321.38,-20"/>
<text text-anchor="middle" x="301.38" y="-6.5" font-family="Helvetica,sans-Serif" font-size="10.00">string</text>
</a>
</g>
</g>
<!-- Node1&#45;&gt;Node5 -->
<g id="edge4" class="edge">
<title>Node1&#45;&gt;Node5</title>
<path fill="none" stroke="#63b8ff" d="M275.93,-123.65C283.87,-115.19 294.61,-101.93 299.38,-88 305.65,-69.63 305.45,-47.33 304.11,-31.47"/>
<polygon fill="#63b8ff" stroke="#63b8ff" points="307.62,-31.38 303.04,-21.83 300.66,-32.15 307.62,-31.38"/>
</g>
<!-- Node6 -->
<g id="node6" class="node">
<title>Node6</title>
<g id="a_node6"><a xlink:href="FMTexception_8hpp.html" target="_top" xlink:title=" ">
<polygon fill="white" stroke="#666666" points="474.5,-82 378.25,-82 378.25,-62 474.5,-62 474.5,-82"/>
<text text-anchor="middle" x="426.38" y="-68.5" font-family="Helvetica,sans-Serif" font-size="10.00">FMTexception.hpp</text>
</a>
</g>
</g>
<!-- Node1&#45;&gt;Node6 -->
<g id="edge5" class="edge">
<title>Node1&#45;&gt;Node6</title>
<path fill="none" stroke="#63b8ff" d="M291.38,-123.62C318.07,-113.62 360.59,-97.67 390.78,-86.35"/>
<polygon fill="#63b8ff" stroke="#63b8ff" points="391.74,-89.73 399.87,-82.94 389.28,-83.17 391.74,-89.73"/>
</g>
<!-- Node6&#45;&gt;Node5 -->
<g id="edge7" class="edge">
<title>Node6&#45;&gt;Node5</title>
<path fill="none" stroke="#63b8ff" d="M406.84,-61.62C386.48,-51.85 354.32,-36.41 330.86,-25.15"/>
<polygon fill="#63b8ff" stroke="#63b8ff" points="332.66,-22.14 322.13,-20.96 329.63,-28.45 332.66,-22.14"/>
</g>
<!-- Node7 -->
<g id="node7" class="node">
<title>Node7</title>
<g id="a_node7"><a xlink:title=" ">
<polygon fill="#e0e0e0" stroke="#999999" points="397.38,-20 339.38,-20 339.38,0 397.38,0 397.38,-20"/>
<text text-anchor="middle" x="368.38" y="-6.5" font-family="Helvetica,sans-Serif" font-size="10.00">exception</text>
</a>
</g>
</g>
<!-- Node6&#45;&gt;Node7 -->
<g id="edge6" class="edge">
<title>Node6&#45;&gt;Node7</title>
<path fill="none" stroke="#63b8ff" d="M417.31,-61.62C408.66,-52.68 395.43,-38.99 384.91,-28.1"/>
<polygon fill="#63b8ff" stroke="#63b8ff" points="387.7,-25.96 378.24,-21.2 382.67,-30.82 387.7,-25.96"/>
</g>
<!-- Node8 -->
<g id="node8" class="node">
<title>Node8</title>
<g id="a_node8"><a xlink:title=" ">
<polygon fill="#e0e0e0" stroke="#999999" points="469.12,-20 415.62,-20 415.62,0 469.12,0 469.12,-20"/>
<text text-anchor="middle" x="442.38" y="-6.5" font-family="Helvetica,sans-Serif" font-size="10.00">iostream</text>
</a>
</g>
</g>
<!-- Node6&#45;&gt;Node8 -->
<g id="edge8" class="edge">
<title>Node6&#45;&gt;Node8</title>
<path fill="none" stroke="#63b8ff" d="M428.88,-61.62C431.05,-53.48 434.27,-41.39 437.02,-31.07"/>
<polygon fill="#63b8ff" stroke="#63b8ff" points="440.36,-32.14 439.55,-21.58 433.6,-30.34 440.36,-32.14"/>
</g>
<!-- Node9 -->
<g id="node9" class="node">
<title>Node9</title>
<g id="a_node9"><a xlink:title=" ">
<polygon fill="#e0e0e0" stroke="#999999" points="538,-20 486.75,-20 486.75,0 538,0 538,-20"/>
<text text-anchor="middle" x="512.38" y="-6.5" font-family="Helvetica,sans-Serif" font-size="10.00">memory</text>
</a>
</g>
</g>
<!-- Node6&#45;&gt;Node9 -->
<g id="edge9" class="edge">
<title>Node6&#45;&gt;Node9</title>
<path fill="none" stroke="#63b8ff" d="M439.81,-61.62C453.19,-52.29 473.97,-37.79 489.87,-26.7"/>
<polygon fill="#63b8ff" stroke="#63b8ff" points="491.59,-29.77 497.79,-21.18 487.59,-24.03 491.59,-29.77"/>
</g>
<!-- Node10 -->
<g id="node10" class="node">
<title>Node10</title>
<g id="a_node10"><a xlink:href="FMTutility_8hpp.html" target="_top" xlink:title=" ">
<polygon fill="white" stroke="#666666" points="633.12,-20 555.62,-20 555.62,0 633.12,0 633.12,-20"/>
<text text-anchor="middle" x="594.38" y="-6.5" font-family="Helvetica,sans-Serif" font-size="10.00">FMTutility.hpp</text>
</a>
</g>
</g>
<!-- Node6&#45;&gt;Node10 -->
<g id="edge10" class="edge">
<title>Node6&#45;&gt;Node10</title>
<path fill="none" stroke="#63b8ff" d="M452.62,-61.62C480.78,-51.57 525.7,-35.53 557.41,-24.2"/>
<polygon fill="#63b8ff" stroke="#63b8ff" points="558.37,-27.58 566.61,-20.92 556.01,-20.98 558.37,-27.58"/>
</g>
</g>
</svg>
