<?xml version="1.0" encoding="UTF-8" standalone="no"?>
<!DOCTYPE svg PUBLIC "-//W3C//DTD SVG 1.1//EN"
 "http://www.w3.org/Graphics/SVG/1.1/DTD/svg11.dtd">
<!-- Generated by graphviz version 10.0.1 (20240210.2158)
 -->
<!-- Title: D:/FMT/Include/FMTlpheuristic.hpp Pages: 1 -->
<!--zoomable 344 -->
<svg id="main" version="1.1" xmlns="http://www.w3.org/2000/svg" xmlns:xlink="http://www.w3.org/1999/xlink" xml:space="preserve" onload="init(evt)">
<style type="text/css"><![CDATA[
.edge:hover path { stroke: red; }
.edge:hover polygon { stroke: red; fill: red; }
]]></style>
<script type="text/javascript"><![CDATA[
var edges = document.getElementsByTagName('g');
if (edges && edges.length) {
  for (var i=0;i<edges.length;i++) {
    if (edges[i].id.substr(0,4)=='edge') {
      edges[i].setAttribute('class','edge');
    }
  }
}
]]></script>
        <defs>
                <circle id="rim" cx="0" cy="0" r="7"/>
                <circle id="rim2" cx="0" cy="0" r="3.5"/>
                <g id="zoomPlus">
                        <use xlink:href="#rim" fill="#404040">
                                <set attributeName="fill" to="#808080" begin="zoomplus.mouseover" end="zoomplus.mouseout"/>
                        </use>
                        <path d="M-4,0h8M0,-4v8" fill="none" stroke="white" stroke-width="1.5" pointer-events="none"/>
                </g>
                <g id="zoomMin">
                        <use xlink:href="#rim" fill="#404040">
                                <set attributeName="fill" to="#808080" begin="zoomminus.mouseover" end="zoomminus.mouseout"/>
                        </use>
                        <path d="M-4,0h8" fill="none" stroke="white" stroke-width="1.5" pointer-events="none"/>
                </g>
                <g id="dirArrow">
                        <path fill="none" stroke="white" stroke-width="1.5" d="M0,-3.0v7 M-2.5,-0.5L0,-3.0L2.5,-0.5"/>
                </g>
               <g id="resetDef">
                       <use xlink:href="#rim2" fill="#404040">
                               <set attributeName="fill" to="#808080" begin="reset.mouseover" end="reset.mouseout"/>
                       </use>
               </g>
        </defs>

<script type="text/javascript">
var viewWidth = 1537;
var viewHeight = 344;
var sectionId = 'dynsection-0';
</script>
<script xlink:href="svgpan.js"/>
<svg id="graph" class="graph">
<g id="viewport">
<title>D:/FMT/Include/FMTlpheuristic.hpp</title>
<!-- Node1 -->
<g id="node1" class="node">
<title>Node1</title>
<g id="a_node1"><a xlink:title=" ">
<polygon fill="#999999" stroke="#666666" points="1387.75,-336 1220.25,-336 1220.25,-316 1387.75,-316 1387.75,-336"/>
<text text-anchor="middle" x="1304" y="-322.5" font-family="Helvetica,sans-Serif" font-size="10.00">D:/FMT/Include/FMTlpheuristic.hpp</text>
</a>
</g>
</g>
<!-- Node2 -->
<g id="node2" class="node">
<title>Node2</title>
<g id="a_node2"><a xlink:href="FMTlpsolver_8hpp.html" target="_top" xlink:title=" ">
<polygon fill="white" stroke="#666666" points="792.25,-280 705.75,-280 705.75,-260 792.25,-260 792.25,-280"/>
<text text-anchor="middle" x="749" y="-266.5" font-family="Helvetica,sans-Serif" font-size="10.00">FMTlpsolver.hpp</text>
</a>
</g>
</g>
<!-- Node1&#45;&gt;Node2 -->
<g id="edge1" class="edge">
<title>Node1&#45;&gt;Node2</title>
<path fill="none" stroke="#63b8ff" d="M1220.01,-316.83C1104.84,-305.62 901.13,-285.8 803.78,-276.33"/>
<polygon fill="#63b8ff" stroke="#63b8ff" points="804.24,-272.86 793.95,-275.37 803.57,-279.83 804.24,-272.86"/>
</g>
<!-- Node3 -->
<g id="node3" class="node">
<title>Node3</title>
<g id="a_node3"><a xlink:href="FMTsolverinterface_8hpp.html" target="_top" xlink:title=" ">
<polygon fill="white" stroke="#666666" points="324.88,-218 209.12,-218 209.12,-198 324.88,-198 324.88,-218"/>
<text text-anchor="middle" x="267" y="-204.5" font-family="Helvetica,sans-Serif" font-size="10.00">FMTsolverinterface.hpp</text>
</a>
</g>
</g>
<!-- Node1&#45;&gt;Node3 -->
<g id="edge56" class="edge">
<title>Node1&#45;&gt;Node3</title>
<path fill="none" stroke="#63b8ff" d="M1219.86,-320.83C1102.5,-314.53 883.11,-301.07 697,-280 533.05,-261.44 491.95,-255.58 330,-224 325.34,-223.09 320.51,-222.08 315.69,-221.01"/>
<polygon fill="#63b8ff" stroke="#63b8ff" points="316.54,-217.62 306.01,-218.81 314.98,-224.44 316.54,-217.62"/>
</g>
<!-- Node5 -->
<g id="node5" class="node">
<title>Node5</title>
<g id="a_node5"><a xlink:title=" ">
<polygon fill="#e0e0e0" stroke="#999999" points="295.75,-82 254.25,-82 254.25,-62 295.75,-62 295.75,-82"/>
<text text-anchor="middle" x="275" y="-68.5" font-family="Helvetica,sans-Serif" font-size="10.00">vector</text>
</a>
</g>
</g>
<!-- Node1&#45;&gt;Node5 -->
<g id="edge51" class="edge">
<title>Node1&#45;&gt;Node5</title>
<path fill="none" stroke="#63b8ff" d="M1220.17,-323.93C973.88,-319.89 265.61,-301.56 200,-224 164.23,-181.72 222.31,-119.45 255.05,-89.84"/>
<polygon fill="#63b8ff" stroke="#63b8ff" points="257.17,-92.63 262.37,-83.39 252.55,-87.37 257.17,-92.63"/>
</g>
<!-- Node7 -->
<g id="node7" class="node">
<title>Node7</title>
<g id="a_node7"><a xlink:title=" ">
<polygon fill="#e0e0e0" stroke="#999999" points="346.62,-20 295.38,-20 295.38,0 346.62,0 346.62,-20"/>
<text text-anchor="middle" x="321" y="-6.5" font-family="Helvetica,sans-Serif" font-size="10.00">memory</text>
</a>
</g>
</g>
<!-- Node1&#45;&gt;Node7 -->
<g id="edge49" class="edge">
<title>Node1&#45;&gt;Node7</title>
<path fill="none" stroke="#63b8ff" d="M1219.86,-323.32C1010.95,-318.83 472.64,-305.1 295,-280 161.47,-261.13 0,-343.86 0,-209 0,-209 0,-209 0,-139 0,-96.61 12.23,-80.26 47,-56 84.59,-29.77 217.53,-17.68 283.41,-13.19"/>
<polygon fill="#63b8ff" stroke="#63b8ff" points="283.64,-16.69 293.39,-12.54 283.18,-9.7 283.64,-16.69"/>
</g>
<!-- Node11 -->
<g id="node11" class="node">
<title>Node11</title>
<g id="a_node11"><a xlink:title=" ">
<polygon fill="#e0e0e0" stroke="#999999" points="1315.38,-88 1220.62,-88 1220.62,-56 1315.38,-56 1315.38,-88"/>
<text text-anchor="start" x="1228.62" y="-74.5" font-family="Helvetica,sans-Serif" font-size="10.00">boost/serialization</text>
<text text-anchor="middle" x="1268" y="-62.5" font-family="Helvetica,sans-Serif" font-size="10.00">/nvp.hpp</text>
</a>
</g>
</g>
<!-- Node1&#45;&gt;Node11 -->
<g id="edge54" class="edge">
<title>Node1&#45;&gt;Node11</title>
<path fill="none" stroke="#63b8ff" d="M1313.93,-315.74C1322.17,-307.33 1333.27,-294.11 1338,-280 1360.04,-214.26 1369.44,-185.8 1338,-124 1331.94,-112.08 1321.64,-102.29 1310.78,-94.58"/>
<polygon fill="#63b8ff" stroke="#63b8ff" points="1312.74,-91.68 1302.45,-89.17 1308.93,-97.55 1312.74,-91.68"/>
</g>
<!-- Node12 -->
<g id="node12" class="node">
<title>Node12</title>
<g id="a_node12"><a xlink:title=" ">
<polygon fill="#e0e0e0" stroke="#999999" points="1202.38,-88 1107.62,-88 1107.62,-56 1202.38,-56 1202.38,-88"/>
<text text-anchor="start" x="1115.62" y="-74.5" font-family="Helvetica,sans-Serif" font-size="10.00">boost/serialization</text>
<text text-anchor="middle" x="1155" y="-62.5" font-family="Helvetica,sans-Serif" font-size="10.00">/export.hpp</text>
</a>
</g>
</g>
<!-- Node1&#45;&gt;Node12 -->
<g id="edge55" class="edge">
<title>Node1&#45;&gt;Node12</title>
<path fill="none" stroke="#63b8ff" d="M1307.43,-315.88C1318.29,-285.31 1348.69,-185 1305,-124 1299.27,-116 1253.11,-101.02 1213.49,-89.35"/>
<polygon fill="#63b8ff" stroke="#63b8ff" points="1214.56,-86.02 1203.98,-86.58 1212.6,-92.74 1214.56,-86.02"/>
</g>
<!-- Node16 -->
<g id="node16" class="node">
<title>Node16</title>
<g id="a_node16"><a xlink:title=" ">
<polygon fill="#e0e0e0" stroke="#999999" points="1400.62,-82 1355.38,-82 1355.38,-62 1400.62,-62 1400.62,-82"/>
<text text-anchor="middle" x="1378" y="-68.5" font-family="Helvetica,sans-Serif" font-size="10.00">chrono</text>
</a>
</g>
</g>
<!-- Node1&#45;&gt;Node16 -->
<g id="edge52" class="edge">
<title>Node1&#45;&gt;Node16</title>
<path fill="none" stroke="#63b8ff" d="M1318.66,-315.66C1330.19,-307.57 1345.79,-294.86 1355,-280 1391.87,-220.5 1386.13,-132.62 1381.14,-93.3"/>
<polygon fill="#63b8ff" stroke="#63b8ff" points="1384.64,-93.06 1379.78,-83.64 1377.71,-94.03 1384.64,-93.06"/>
</g>
<!-- Node23 -->
<g id="node23" class="node">
<title>Node23</title>
<g id="a_node23"><a xlink:title=" ">
<polygon fill="#e0e0e0" stroke="#999999" points="1296.38,-156 1201.62,-156 1201.62,-124 1296.38,-124 1296.38,-156"/>
<text text-anchor="start" x="1209.62" y="-142.5" font-family="Helvetica,sans-Serif" font-size="10.00">boost/serialization</text>
<text text-anchor="middle" x="1249" y="-130.5" font-family="Helvetica,sans-Serif" font-size="10.00">/serialization.hpp</text>
</a>
</g>
</g>
<!-- Node1&#45;&gt;Node23 -->
<g id="edge53" class="edge">
<title>Node1&#45;&gt;Node23</title>
<path fill="none" stroke="#63b8ff" d="M1301.2,-315.62C1293.07,-288.44 1269.29,-208.87 1256.82,-167.18"/>
<polygon fill="#63b8ff" stroke="#63b8ff" points="1260.21,-166.29 1253.99,-157.71 1253.51,-168.29 1260.21,-166.29"/>
</g>
<!-- Node31 -->
<g id="node31" class="node">
<title>Node31</title>
<g id="a_node31"><a xlink:title=" ">
<polygon fill="#e0e0e0" stroke="#999999" points="1476.12,-280 1427.88,-280 1427.88,-260 1476.12,-260 1476.12,-280"/>
<text text-anchor="middle" x="1452" y="-266.5" font-family="Helvetica,sans-Serif" font-size="10.00">random</text>
</a>
</g>
</g>
<!-- Node1&#45;&gt;Node31 -->
<g id="edge48" class="edge">
<title>Node1&#45;&gt;Node31</title>
<path fill="none" stroke="#63b8ff" d="M1329.78,-315.59C1353.95,-306.78 1390.26,-293.53 1417.03,-283.76"/>
<polygon fill="#63b8ff" stroke="#63b8ff" points="1417.88,-287.17 1426.08,-280.46 1415.48,-280.6 1417.88,-287.17"/>
</g>
<!-- Node32 -->
<g id="node32" class="node">
<title>Node32</title>
<g id="a_node32"><a xlink:title=" ">
<polygon fill="#e0e0e0" stroke="#999999" points="1529.38,-280 1494.62,-280 1494.62,-260 1529.38,-260 1529.38,-280"/>
<text text-anchor="middle" x="1512" y="-266.5" font-family="Helvetica,sans-Serif" font-size="10.00">map</text>
</a>
</g>
</g>
<!-- Node1&#45;&gt;Node32 -->
<g id="edge50" class="edge">
<title>Node1&#45;&gt;Node32</title>
<path fill="none" stroke="#63b8ff" d="M1345.94,-315.55C1380.41,-307.57 1430.73,-295.42 1483.42,-280.28"/>
<polygon fill="#63b8ff" stroke="#63b8ff" points="1484.26,-283.68 1492.89,-277.53 1482.31,-276.96 1484.26,-283.68"/>
</g>
<!-- Node2&#45;&gt;Node3 -->
<g id="edge2" class="edge">
<title>Node2&#45;&gt;Node3</title>
<path fill="none" stroke="#63b8ff" d="M705.43,-265.6C630.33,-259.44 471.78,-245.07 339,-224 332.93,-223.04 326.6,-221.91 320.32,-220.7"/>
<polygon fill="#63b8ff" stroke="#63b8ff" points="321.11,-217.29 310.62,-218.78 319.75,-224.16 321.11,-217.29"/>
</g>
<!-- Node4 -->
<g id="node4" class="node">
<title>Node4</title>
<g id="a_node4"><a xlink:href="FMTmatrixbuild_8hpp.html" target="_top" xlink:title=" ">
<polygon fill="white" stroke="#666666" points="760.75,-218 659.25,-218 659.25,-198 760.75,-198 760.75,-218"/>
<text text-anchor="middle" x="710" y="-204.5" font-family="Helvetica,sans-Serif" font-size="10.00">FMTmatrixbuild.hpp</text>
</a>
</g>
</g>
<!-- Node2&#45;&gt;Node4 -->
<g id="edge3" class="edge">
<title>Node2&#45;&gt;Node4</title>
<path fill="none" stroke="#63b8ff" d="M742.91,-259.62C737.38,-251.12 729.07,-238.33 722.18,-227.74"/>
<polygon fill="#63b8ff" stroke="#63b8ff" points="725.13,-225.86 716.75,-219.38 719.26,-229.67 725.13,-225.86"/>
</g>
<!-- Node2&#45;&gt;Node7 -->
<g id="edge37" class="edge">
<title>Node2&#45;&gt;Node7</title>
<path fill="none" stroke="#63b8ff" d="M723.2,-259.53C702.63,-251.46 673.47,-238.82 650,-224 631.33,-212.21 632.3,-200.69 612,-192 477.19,-134.27 406.69,-236.33 284,-156 244.09,-129.87 221.38,-97.44 245,-56 253.64,-40.85 269.6,-30.28 284.68,-23.21"/>
<polygon fill="#63b8ff" stroke="#63b8ff" points="285.66,-26.59 293.48,-19.45 282.91,-20.15 285.66,-26.59"/>
</g>
<!-- Node9 -->
<g id="node9" class="node">
<title>Node9</title>
<g id="a_node9"><a xlink:href="FMTobject_8hpp.html" target="_top" xlink:title=" ">
<polygon fill="white" stroke="#666666" points="679.25,-150 598.75,-150 598.75,-130 679.25,-130 679.25,-150"/>
<text text-anchor="middle" x="639" y="-136.5" font-family="Helvetica,sans-Serif" font-size="10.00">FMTobject.hpp</text>
</a>
</g>
</g>
<!-- Node2&#45;&gt;Node9 -->
<g id="edge36" class="edge">
<title>Node2&#45;&gt;Node9</title>
<path fill="none" stroke="#63b8ff" d="M756.11,-259.65C766.87,-244.28 784.55,-213.27 770,-192 752.24,-166.03 719.16,-153.29 690.68,-147.03"/>
<polygon fill="#63b8ff" stroke="#63b8ff" points="691.61,-143.64 681.12,-145.16 690.26,-150.51 691.61,-143.64"/>
</g>
<!-- Node2&#45;&gt;Node12 -->
<g id="edge40" class="edge">
<title>Node2&#45;&gt;Node12</title>
<path fill="none" stroke="#63b8ff" d="M792.73,-267.48C874.99,-263.98 1049.15,-253.24 1101,-224 1134.62,-205.05 1142.29,-192.44 1155,-156 1161.3,-137.93 1161.07,-116.28 1159.38,-99.62"/>
<polygon fill="#63b8ff" stroke="#63b8ff" points="1162.89,-99.48 1158.16,-90 1155.94,-100.36 1162.89,-99.48"/>
</g>
<!-- Node18 -->
<g id="node18" class="node">
<title>Node18</title>
<g id="a_node18"><a xlink:href="FMTexceptionhandler_8hpp.html" target="_top" xlink:title=" ">
<polygon fill="white" stroke="#666666" points="954.88,-218 827.12,-218 827.12,-198 954.88,-198 954.88,-218"/>
<text text-anchor="middle" x="891" y="-204.5" font-family="Helvetica,sans-Serif" font-size="10.00">FMTexceptionhandler.hpp</text>
</a>
</g>
</g>
<!-- Node2&#45;&gt;Node18 -->
<g id="edge22" class="edge">
<title>Node2&#45;&gt;Node18</title>
<path fill="none" stroke="#63b8ff" d="M771.19,-259.62C794.63,-249.72 831.85,-233.99 858.58,-222.7"/>
<polygon fill="#63b8ff" stroke="#63b8ff" points="859.72,-226.01 867.57,-218.9 857,-219.57 859.72,-226.01"/>
</g>
<!-- Node22 -->
<g id="node22" class="node">
<title>Node22</title>
<g id="a_node22"><a xlink:title=" ">
<polygon fill="#e0e0e0" stroke="#999999" points="1146.38,-150 1063.62,-150 1063.62,-130 1146.38,-130 1146.38,-150"/>
<text text-anchor="middle" x="1105" y="-136.5" font-family="Helvetica,sans-Serif" font-size="10.00">unordered_map</text>
</a>
</g>
</g>
<!-- Node2&#45;&gt;Node22 -->
<g id="edge38" class="edge">
<title>Node2&#45;&gt;Node22</title>
<path fill="none" stroke="#63b8ff" d="M792.44,-268.62C871.7,-267.06 1035.53,-259.49 1078,-224 1096.23,-208.77 1102.26,-181.07 1104.19,-161.89"/>
<polygon fill="#63b8ff" stroke="#63b8ff" points="1107.68,-162.2 1104.86,-151.98 1100.69,-161.72 1107.68,-162.2"/>
</g>
<!-- Node26 -->
<g id="node26" class="node">
<title>Node26</title>
<g id="a_node26"><a xlink:title=" ">
<polygon fill="#e0e0e0" stroke="#999999" points="1069.12,-224 972.88,-224 972.88,-192 1069.12,-192 1069.12,-224"/>
<text text-anchor="start" x="980.88" y="-210.5" font-family="Helvetica,sans-Serif" font-size="10.00">boost/serialization</text>
<text text-anchor="middle" x="1021" y="-198.5" font-family="Helvetica,sans-Serif" font-size="10.00">/split_member.hpp</text>
</a>
</g>
</g>
<!-- Node2&#45;&gt;Node26 -->
<g id="edge39" class="edge">
<title>Node2&#45;&gt;Node26</title>
<path fill="none" stroke="#63b8ff" d="M792.38,-260.6C833.53,-252.47 897.34,-239.49 961.41,-224.55"/>
<polygon fill="#63b8ff" stroke="#63b8ff" points="962.12,-227.98 971.06,-222.28 960.52,-221.16 962.12,-227.98"/>
</g>
<!-- Node27 -->
<g id="node27" class="node">
<title>Node27</title>
<g id="a_node27"><a xlink:title=" ">
<polygon fill="#e0e0e0" stroke="#999999" points="483.12,-224 380.88,-224 380.88,-192 483.12,-192 483.12,-224"/>
<text text-anchor="start" x="388.88" y="-210.5" font-family="Helvetica,sans-Serif" font-size="10.00">boost/archive/binary</text>
<text text-anchor="middle" x="432" y="-198.5" font-family="Helvetica,sans-Serif" font-size="10.00">_oarchive.hpp</text>
</a>
</g>
</g>
<!-- Node2&#45;&gt;Node27 -->
<g id="edge41" class="edge">
<title>Node2&#45;&gt;Node27</title>
<path fill="none" stroke="#63b8ff" d="M705.62,-262.38C656.68,-254.69 574.47,-241.14 494.58,-224.46"/>
<polygon fill="#63b8ff" stroke="#63b8ff" points="495.32,-221.04 484.81,-222.4 493.87,-227.89 495.32,-221.04"/>
</g>
<!-- Node28 -->
<g id="node28" class="node">
<title>Node28</title>
<g id="a_node28"><a xlink:title=" ">
<polygon fill="#e0e0e0" stroke="#999999" points="603.12,-224 500.88,-224 500.88,-192 603.12,-192 603.12,-224"/>
<text text-anchor="start" x="508.88" y="-210.5" font-family="Helvetica,sans-Serif" font-size="10.00">boost/archive/binary</text>
<text text-anchor="middle" x="552" y="-198.5" font-family="Helvetica,sans-Serif" font-size="10.00">_iarchive.hpp</text>
</a>
</g>
</g>
<!-- Node2&#45;&gt;Node28 -->
<g id="edge42" class="edge">
<title>Node2&#45;&gt;Node28</title>
<path fill="none" stroke="#63b8ff" d="M718.22,-259.62C690.39,-251.15 648.58,-238.42 613.86,-227.84"/>
<polygon fill="#63b8ff" stroke="#63b8ff" points="614.89,-224.5 604.31,-224.93 612.85,-231.19 614.89,-224.5"/>
</g>
<!-- Node29 -->
<g id="node29" class="node">
<title>Node29</title>
<g id="a_node29"><a xlink:href="FMTserializablematrix_8hpp.html" target="_top" xlink:title=" ">
<polygon fill="white" stroke="#666666" points="168,-150 38,-150 38,-130 168,-130 168,-150"/>
<text text-anchor="middle" x="103" y="-136.5" font-family="Helvetica,sans-Serif" font-size="10.00">FMTserializablematrix.hpp</text>
</a>
</g>
</g>
<!-- Node2&#45;&gt;Node29 -->
<g id="edge43" class="edge">
<title>Node2&#45;&gt;Node29</title>
<path fill="none" stroke="#63b8ff" d="M705.36,-266.93C619.32,-262.33 431.03,-249.61 372,-224 351.74,-215.21 353.8,-201.77 334,-192 318.71,-184.45 226.09,-165.24 162.87,-152.67"/>
<polygon fill="#63b8ff" stroke="#63b8ff" points="163.8,-149.29 153.31,-150.78 162.44,-156.16 163.8,-149.29"/>
</g>
<!-- Node4&#45;&gt;Node5 -->
<g id="edge4" class="edge">
<title>Node4&#45;&gt;Node5</title>
<path fill="none" stroke="#63b8ff" d="M672.35,-197.51C663.42,-195.48 653.91,-193.5 645,-192 571.17,-179.56 370.08,-200.68 310,-156 290.13,-141.23 281.45,-112.98 277.72,-93.58"/>
<polygon fill="#63b8ff" stroke="#63b8ff" points="281.2,-93.15 276.16,-83.83 274.28,-94.26 281.2,-93.15"/>
</g>
<!-- Node6 -->
<g id="node6" class="node">
<title>Node6</title>
<g id="a_node6"><a xlink:title=" ">
<polygon fill="#e0e0e0" stroke="#999999" points="866,-20 826,-20 826,0 866,0 866,-20"/>
<text text-anchor="middle" x="846" y="-6.5" font-family="Helvetica,sans-Serif" font-size="10.00">string</text>
</a>
</g>
</g>
<!-- Node4&#45;&gt;Node6 -->
<g id="edge5" class="edge">
<title>Node4&#45;&gt;Node6</title>
<path fill="none" stroke="#63b8ff" d="M709.02,-197.51C707.82,-180.63 707.84,-145.16 726,-124 757.04,-87.84 795.04,-123.35 827,-88 840.84,-72.7 844.98,-48.94 846.05,-31.86"/>
<polygon fill="#63b8ff" stroke="#63b8ff" points="849.54,-31.95 846.32,-21.86 842.55,-31.76 849.54,-31.95"/>
</g>
<!-- Node4&#45;&gt;Node7 -->
<g id="edge6" class="edge">
<title>Node4&#45;&gt;Node7</title>
<path fill="none" stroke="#63b8ff" d="M669.01,-197.58C618.56,-185.84 535.92,-166.1 506,-156 433.57,-131.54 400.16,-143.89 348,-88 333.38,-72.33 326.61,-48.29 323.52,-31.25"/>
<polygon fill="#63b8ff" stroke="#63b8ff" points="327.04,-31.15 322.08,-21.79 320.12,-32.2 327.04,-31.15"/>
</g>
<!-- Node8 -->
<g id="node8" class="node">
<title>Node8</title>
<g id="a_node8"><a xlink:href="FMTutility_8hpp.html" target="_top" xlink:title=" ">
<polygon fill="white" stroke="#666666" points="441.75,-20 364.25,-20 364.25,0 441.75,0 441.75,-20"/>
<text text-anchor="middle" x="403" y="-6.5" font-family="Helvetica,sans-Serif" font-size="10.00">FMTutility.hpp</text>
</a>
</g>
</g>
<!-- Node4&#45;&gt;Node8 -->
<g id="edge7" class="edge">
<title>Node4&#45;&gt;Node8</title>
<path fill="none" stroke="#63b8ff" d="M675.94,-197.58C623.96,-181.86 523.84,-146.14 457,-88 438.1,-71.56 422.46,-47.18 412.96,-30.27"/>
<polygon fill="#63b8ff" stroke="#63b8ff" points="416.18,-28.87 408.35,-21.73 410.02,-32.19 416.18,-28.87"/>
</g>
<!-- Node4&#45;&gt;Node9 -->
<g id="edge8" class="edge">
<title>Node4&#45;&gt;Node9</title>
<path fill="none" stroke="#63b8ff" d="M699.83,-197.54C688.76,-187.25 670.83,-170.58 657.29,-158.01"/>
<polygon fill="#63b8ff" stroke="#63b8ff" points="659.97,-155.71 650.26,-151.47 655.2,-160.84 659.97,-155.71"/>
</g>
<!-- Node9&#45;&gt;Node5 -->
<g id="edge20" class="edge">
<title>Node9&#45;&gt;Node5</title>
<path fill="none" stroke="#63b8ff" d="M598.3,-131.62C525.15,-118.36 372.91,-90.75 306.79,-78.76"/>
<polygon fill="#63b8ff" stroke="#63b8ff" points="307.8,-75.39 297.34,-77.05 306.55,-82.28 307.8,-75.39"/>
</g>
<!-- Node9&#45;&gt;Node7 -->
<g id="edge18" class="edge">
<title>Node9&#45;&gt;Node7</title>
<path fill="none" stroke="#63b8ff" d="M598.3,-130.57C560.78,-122.11 503.96,-107.53 457,-88 415.42,-70.7 370.59,-43.47 344.2,-26.45"/>
<polygon fill="#63b8ff" stroke="#63b8ff" points="346.28,-23.63 335.99,-21.09 342.45,-29.49 346.28,-23.63"/>
</g>
<!-- Node10 -->
<g id="node10" class="node">
<title>Node10</title>
<g id="a_node10"><a xlink:title=" ">
<polygon fill="#e0e0e0" stroke="#999999" points="703.38,-88 608.62,-88 608.62,-56 703.38,-56 703.38,-88"/>
<text text-anchor="start" x="616.62" y="-74.5" font-family="Helvetica,sans-Serif" font-size="10.00">boost/serialization</text>
<text text-anchor="middle" x="656" y="-62.5" font-family="Helvetica,sans-Serif" font-size="10.00">/shared_ptr.hpp</text>
</a>
</g>
</g>
<!-- Node9&#45;&gt;Node10 -->
<g id="edge9" class="edge">
<title>Node9&#45;&gt;Node10</title>
<path fill="none" stroke="#63b8ff" d="M641.44,-129.54C643.47,-121.64 646.48,-109.97 649.23,-99.29"/>
<polygon fill="#63b8ff" stroke="#63b8ff" points="652.58,-100.32 651.68,-89.77 645.8,-98.58 652.58,-100.32"/>
</g>
<!-- Node9&#45;&gt;Node11 -->
<g id="edge10" class="edge">
<title>Node9&#45;&gt;Node11</title>
<path fill="none" stroke="#63b8ff" d="M679.6,-131.16C694.18,-128.57 710.79,-125.87 726,-124 936.86,-98.06 995.81,-122.78 1208.98,-88.11"/>
<polygon fill="#63b8ff" stroke="#63b8ff" points="1209.46,-91.58 1218.75,-86.49 1208.31,-84.67 1209.46,-91.58"/>
</g>
<!-- Node9&#45;&gt;Node12 -->
<g id="edge11" class="edge">
<title>Node9&#45;&gt;Node12</title>
<path fill="none" stroke="#63b8ff" d="M679.64,-131.44C694.22,-128.87 710.82,-126.12 726,-124 874.3,-103.27 912.57,-107.81 1061,-88 1072.3,-86.49 1084.34,-84.71 1095.9,-82.9"/>
<polygon fill="#63b8ff" stroke="#63b8ff" points="1096.43,-86.36 1105.75,-81.34 1095.33,-79.45 1096.43,-86.36"/>
</g>
<!-- Node13 -->
<g id="node13" class="node">
<title>Node13</title>
<g id="a_node13"><a xlink:href="FMTexception_8hpp.html" target="_top" xlink:title=" ">
<polygon fill="white" stroke="#666666" points="818.12,-82 721.88,-82 721.88,-62 818.12,-62 818.12,-82"/>
<text text-anchor="middle" x="770" y="-68.5" font-family="Helvetica,sans-Serif" font-size="10.00">FMTexception.hpp</text>
</a>
</g>
</g>
<!-- Node9&#45;&gt;Node13 -->
<g id="edge12" class="edge">
<title>Node9&#45;&gt;Node13</title>
<path fill="none" stroke="#63b8ff" d="M657.77,-129.54C679.56,-118.57 715.75,-100.33 741.12,-87.55"/>
<polygon fill="#63b8ff" stroke="#63b8ff" points="742.56,-90.74 749.91,-83.12 739.41,-84.49 742.56,-90.74"/>
</g>
<!-- Node9&#45;&gt;Node16 -->
<g id="edge19" class="edge">
<title>Node9&#45;&gt;Node16</title>
<path fill="none" stroke="#63b8ff" d="M679.58,-131.04C694.17,-128.44 710.77,-125.77 726,-124 990.49,-93.33 1061.38,-131.87 1324,-88 1330.64,-86.89 1337.64,-85.29 1344.31,-83.53"/>
<polygon fill="#63b8ff" stroke="#63b8ff" points="1344.97,-86.98 1353.66,-80.92 1343.09,-80.24 1344.97,-86.98"/>
</g>
<!-- Node17 -->
<g id="node17" class="node">
<title>Node17</title>
<g id="a_node17"><a xlink:title=" ">
<polygon fill="#e0e0e0" stroke="#999999" points="590.38,-88 465.62,-88 465.62,-56 590.38,-56 590.38,-88"/>
<text text-anchor="start" x="473.62" y="-74.5" font-family="Helvetica,sans-Serif" font-size="10.00">boost/dll/runtime_symbol</text>
<text text-anchor="middle" x="528" y="-62.5" font-family="Helvetica,sans-Serif" font-size="10.00">_info.hpp</text>
</a>
</g>
</g>
<!-- Node9&#45;&gt;Node17 -->
<g id="edge21" class="edge">
<title>Node9&#45;&gt;Node17</title>
<path fill="none" stroke="#63b8ff" d="M623.1,-129.54C607.61,-120.34 583.54,-106.02 563.49,-94.1"/>
<polygon fill="#63b8ff" stroke="#63b8ff" points="565.42,-91.18 555.03,-89.07 561.84,-97.19 565.42,-91.18"/>
</g>
<!-- Node13&#45;&gt;Node6 -->
<g id="edge14" class="edge">
<title>Node13&#45;&gt;Node6</title>
<path fill="none" stroke="#63b8ff" d="M781.88,-61.62C793.54,-52.41 811.58,-38.17 825.56,-27.14"/>
<polygon fill="#63b8ff" stroke="#63b8ff" points="827.59,-29.99 833.27,-21.05 823.25,-24.5 827.59,-29.99"/>
</g>
<!-- Node13&#45;&gt;Node7 -->
<g id="edge16" class="edge">
<title>Node13&#45;&gt;Node7</title>
<path fill="none" stroke="#63b8ff" d="M737.07,-61.55C728.93,-59.48 720.19,-57.46 712,-56 558.54,-28.58 513.9,-47.59 357.83,-20.26"/>
<polygon fill="#63b8ff" stroke="#63b8ff" points="358.84,-16.89 348.38,-18.57 357.61,-23.78 358.84,-16.89"/>
</g>
<!-- Node13&#45;&gt;Node8 -->
<g id="edge17" class="edge">
<title>Node13&#45;&gt;Node8</title>
<path fill="none" stroke="#63b8ff" d="M736.1,-61.58C728.23,-59.57 719.85,-57.58 712,-56 621.38,-37.74 514.4,-23.84 453.05,-16.59"/>
<polygon fill="#63b8ff" stroke="#63b8ff" points="453.61,-13.14 443.27,-15.45 452.8,-20.09 453.61,-13.14"/>
</g>
<!-- Node14 -->
<g id="node14" class="node">
<title>Node14</title>
<g id="a_node14"><a xlink:title=" ">
<polygon fill="#e0e0e0" stroke="#999999" points="803,-20 745,-20 745,0 803,0 803,-20"/>
<text text-anchor="middle" x="774" y="-6.5" font-family="Helvetica,sans-Serif" font-size="10.00">exception</text>
</a>
</g>
</g>
<!-- Node13&#45;&gt;Node14 -->
<g id="edge13" class="edge">
<title>Node13&#45;&gt;Node14</title>
<path fill="none" stroke="#63b8ff" d="M770.62,-61.62C771.16,-53.56 771.96,-41.65 772.64,-31.41"/>
<polygon fill="#63b8ff" stroke="#63b8ff" points="776.12,-31.83 773.29,-21.62 769.13,-31.37 776.12,-31.83"/>
</g>
<!-- Node15 -->
<g id="node15" class="node">
<title>Node15</title>
<g id="a_node15"><a xlink:title=" ">
<polygon fill="#e0e0e0" stroke="#999999" points="726.75,-20 673.25,-20 673.25,0 726.75,0 726.75,-20"/>
<text text-anchor="middle" x="700" y="-6.5" font-family="Helvetica,sans-Serif" font-size="10.00">iostream</text>
</a>
</g>
</g>
<!-- Node13&#45;&gt;Node15 -->
<g id="edge15" class="edge">
<title>Node13&#45;&gt;Node15</title>
<path fill="none" stroke="#63b8ff" d="M759.06,-61.62C748.42,-52.5 732.02,-38.45 719.2,-27.46"/>
<polygon fill="#63b8ff" stroke="#63b8ff" points="721.65,-24.95 711.78,-21.1 717.1,-30.26 721.65,-24.95"/>
</g>
<!-- Node18&#45;&gt;Node7 -->
<g id="edge33" class="edge">
<title>Node18&#45;&gt;Node7</title>
<path fill="none" stroke="#63b8ff" d="M826.66,-199.19C765.28,-191.02 670.51,-176.5 590,-156 499.83,-133.04 469.91,-138.86 392,-88 368.07,-72.38 346.76,-46.92 333.88,-29.59"/>
<polygon fill="#63b8ff" stroke="#63b8ff" points="336.87,-27.76 328.19,-21.69 331.19,-31.85 336.87,-27.76"/>
</g>
<!-- Node18&#45;&gt;Node11 -->
<g id="edge31" class="edge">
<title>Node18&#45;&gt;Node11</title>
<path fill="none" stroke="#63b8ff" d="M919.87,-197.53C945.48,-188.55 983.45,-173.82 1014,-156 1033.97,-144.36 1034.13,-133.95 1055,-124 1116.1,-94.88 1139.6,-104.02 1209.06,-88.33"/>
<polygon fill="#63b8ff" stroke="#63b8ff" points="1209.74,-91.77 1218.66,-86.06 1208.12,-84.96 1209.74,-91.77"/>
</g>
<!-- Node18&#45;&gt;Node12 -->
<g id="edge32" class="edge">
<title>Node18&#45;&gt;Node12</title>
<path fill="none" stroke="#63b8ff" d="M908.55,-197.6C926.57,-187.78 955.26,-171.64 979,-156 998.89,-142.89 1001.13,-135.48 1022,-124 1045.39,-111.13 1072.71,-100.04 1096.48,-91.53"/>
<polygon fill="#63b8ff" stroke="#63b8ff" points="1097.42,-94.91 1105.7,-88.3 1095.1,-88.3 1097.42,-94.91"/>
</g>
<!-- Node19 -->
<g id="node19" class="node">
<title>Node19</title>
<g id="a_node19"><a xlink:href="FMTlogger_8hpp.html" target="_top" xlink:title=" ">
<polygon fill="white" stroke="#666666" points="970.25,-150 889.75,-150 889.75,-130 970.25,-130 970.25,-150"/>
<text text-anchor="middle" x="930" y="-136.5" font-family="Helvetica,sans-Serif" font-size="10.00">FMTlogger.hpp</text>
</a>
</g>
</g>
<!-- Node18&#45;&gt;Node19 -->
<g id="edge23" class="edge">
<title>Node18&#45;&gt;Node19</title>
<path fill="none" stroke="#63b8ff" d="M896.59,-197.54C902.32,-187.84 911.41,-172.47 918.65,-160.2"/>
<polygon fill="#63b8ff" stroke="#63b8ff" points="921.58,-162.13 923.65,-151.74 915.55,-158.57 921.58,-162.13"/>
</g>
<!-- Node18&#45;&gt;Node22 -->
<g id="edge29" class="edge">
<title>Node18&#45;&gt;Node22</title>
<path fill="none" stroke="#63b8ff" d="M921.66,-197.54C958.93,-186.05 1021.97,-166.61 1063.54,-153.79"/>
<polygon fill="#63b8ff" stroke="#63b8ff" points="1064.43,-157.18 1072.95,-150.88 1062.36,-150.49 1064.43,-157.18"/>
</g>
<!-- Node18&#45;&gt;Node23 -->
<g id="edge30" class="edge">
<title>Node18&#45;&gt;Node23</title>
<path fill="none" stroke="#63b8ff" d="M936.14,-197.54C945.35,-195.66 954.98,-193.73 964,-192 1042.09,-176.99 1132.51,-161.06 1190.19,-151.07"/>
<polygon fill="#63b8ff" stroke="#63b8ff" points="1190.53,-154.56 1199.79,-149.41 1189.34,-147.67 1190.53,-154.56"/>
</g>
<!-- Node24 -->
<g id="node24" class="node">
<title>Node24</title>
<g id="a_node24"><a xlink:title=" ">
<polygon fill="#e0e0e0" stroke="#999999" points="764.75,-150 735.25,-150 735.25,-130 764.75,-130 764.75,-150"/>
<text text-anchor="middle" x="750" y="-136.5" font-family="Helvetica,sans-Serif" font-size="10.00">set</text>
</a>
</g>
</g>
<!-- Node18&#45;&gt;Node24 -->
<g id="edge34" class="edge">
<title>Node18&#45;&gt;Node24</title>
<path fill="none" stroke="#63b8ff" d="M866.76,-197.65C844.73,-188.9 811.25,-174.95 774.26,-155.69"/>
<polygon fill="#63b8ff" stroke="#63b8ff" points="776.08,-152.69 765.6,-151.1 772.8,-158.88 776.08,-152.69"/>
</g>
<!-- Node25 -->
<g id="node25" class="node">
<title>Node25</title>
<g id="a_node25"><a xlink:title=" ">
<polygon fill="#e0e0e0" stroke="#999999" points="871.38,-150 782.62,-150 782.62,-130 871.38,-130 871.38,-150"/>
<text text-anchor="middle" x="827" y="-136.5" font-family="Helvetica,sans-Serif" font-size="10.00">boost/thread.hpp</text>
</a>
</g>
</g>
<!-- Node18&#45;&gt;Node25 -->
<g id="edge35" class="edge">
<title>Node18&#45;&gt;Node25</title>
<path fill="none" stroke="#63b8ff" d="M881.83,-197.54C871.95,-187.35 856,-170.9 843.84,-158.37"/>
<polygon fill="#63b8ff" stroke="#63b8ff" points="846.68,-156.27 837.21,-151.53 841.66,-161.14 846.68,-156.27"/>
</g>
<!-- Node19&#45;&gt;Node6 -->
<g id="edge27" class="edge">
<title>Node19&#45;&gt;Node6</title>
<path fill="none" stroke="#63b8ff" d="M959.24,-129.56C995.97,-117.41 1054.97,-96.81 1061,-88 1069.03,-76.26 1069.97,-67.04 1061,-56 1038.25,-28 931.7,-16.81 877.64,-12.87"/>
<polygon fill="#63b8ff" stroke="#63b8ff" points="878.06,-9.39 867.84,-12.2 877.58,-16.38 878.06,-9.39"/>
</g>
<!-- Node19&#45;&gt;Node12 -->
<g id="edge24" class="edge">
<title>Node19&#45;&gt;Node12</title>
<path fill="none" stroke="#63b8ff" d="M962.24,-129.54C997.22,-119.28 1053.82,-102.68 1096.66,-90.11"/>
<polygon fill="#63b8ff" stroke="#63b8ff" points="1097.45,-93.53 1106.06,-87.36 1095.48,-86.81 1097.45,-93.53"/>
</g>
<!-- Node19&#45;&gt;Node13 -->
<g id="edge28" class="edge">
<title>Node19&#45;&gt;Node13</title>
<path fill="none" stroke="#63b8ff" d="M907.08,-129.54C879.87,-118.32 834.28,-99.52 803.21,-86.7"/>
<polygon fill="#63b8ff" stroke="#63b8ff" points="804.86,-83.59 794.28,-83.02 802.19,-90.06 804.86,-83.59"/>
</g>
<!-- Node20 -->
<g id="node20" class="node">
<title>Node20</title>
<g id="a_node20"><a xlink:title=" ">
<polygon fill="#e0e0e0" stroke="#999999" points="985.62,-88 874.38,-88 874.38,-56 985.62,-56 985.62,-88"/>
<text text-anchor="start" x="882.38" y="-74.5" font-family="Helvetica,sans-Serif" font-size="10.00">boost/thread/recursive</text>
<text text-anchor="middle" x="930" y="-62.5" font-family="Helvetica,sans-Serif" font-size="10.00">_mutex.hpp</text>
</a>
</g>
</g>
<!-- Node19&#45;&gt;Node20 -->
<g id="edge25" class="edge">
<title>Node19&#45;&gt;Node20</title>
<path fill="none" stroke="#63b8ff" d="M930,-129.54C930,-121.72 930,-110.22 930,-99.63"/>
<polygon fill="#63b8ff" stroke="#63b8ff" points="933.5,-99.81 930,-89.81 926.5,-99.81 933.5,-99.81"/>
</g>
<!-- Node21 -->
<g id="node21" class="node">
<title>Node21</title>
<g id="a_node21"><a xlink:title=" ">
<polygon fill="#e0e0e0" stroke="#999999" points="1052.12,-82 1003.88,-82 1003.88,-62 1052.12,-62 1052.12,-82"/>
<text text-anchor="middle" x="1028" y="-68.5" font-family="Helvetica,sans-Serif" font-size="10.00">fstream</text>
</a>
</g>
</g>
<!-- Node19&#45;&gt;Node21 -->
<g id="edge26" class="edge">
<title>Node19&#45;&gt;Node21</title>
<path fill="none" stroke="#63b8ff" d="M944.04,-129.54C959.83,-118.91 985.73,-101.47 1004.6,-88.76"/>
<polygon fill="#63b8ff" stroke="#63b8ff" points="1006.39,-91.77 1012.73,-83.28 1002.48,-85.97 1006.39,-91.77"/>
</g>
<!-- Node29&#45;&gt;Node5 -->
<g id="edge45" class="edge">
<title>Node29&#45;&gt;Node5</title>
<path fill="none" stroke="#63b8ff" d="M129.67,-129.51C157.38,-119.54 201.95,-103.23 240,-88 241.14,-87.55 242.29,-87.08 243.45,-86.6"/>
<polygon fill="#63b8ff" stroke="#63b8ff" points="244.7,-89.88 252.57,-82.79 242,-83.42 244.7,-89.88"/>
</g>
<!-- Node29&#45;&gt;Node7 -->
<g id="edge44" class="edge">
<title>Node29&#45;&gt;Node7</title>
<path fill="none" stroke="#63b8ff" d="M90.76,-129.55C71.2,-113.34 37.02,-79.67 57,-56 85.58,-22.13 217.99,-13.75 283.75,-11.68"/>
<polygon fill="#63b8ff" stroke="#63b8ff" points="283.8,-15.18 293.69,-11.4 283.6,-8.18 283.8,-15.18"/>
</g>
<!-- Node29&#45;&gt;Node8 -->
<g id="edge46" class="edge">
<title>Node29&#45;&gt;Node8</title>
<path fill="none" stroke="#63b8ff" d="M116.5,-129.54C141.05,-112.7 195.1,-77.29 245,-56 279.81,-41.15 320.99,-29.6 352.58,-21.93"/>
<polygon fill="#63b8ff" stroke="#63b8ff" points="353.36,-25.34 362.28,-19.62 351.74,-18.53 353.36,-25.34"/>
</g>
<!-- Node30 -->
<g id="node30" class="node">
<title>Node30</title>
<g id="a_node30"><a xlink:title=" ">
<polygon fill="#e0e0e0" stroke="#999999" points="160.38,-88 65.62,-88 65.62,-56 160.38,-56 160.38,-88"/>
<text text-anchor="start" x="73.62" y="-74.5" font-family="Helvetica,sans-Serif" font-size="10.00">boost/serialization</text>
<text text-anchor="middle" x="113" y="-62.5" font-family="Helvetica,sans-Serif" font-size="10.00">/vector.hpp</text>
</a>
</g>
</g>
<!-- Node29&#45;&gt;Node30 -->
<g id="edge47" class="edge">
<title>Node29&#45;&gt;Node30</title>
<path fill="none" stroke="#63b8ff" d="M104.43,-129.54C105.62,-121.72 107.36,-110.22 108.97,-99.63"/>
<polygon fill="#63b8ff" stroke="#63b8ff" points="112.42,-100.21 110.45,-89.8 105.5,-99.16 112.42,-100.21"/>
</g>
</g>
</svg>
        <g id="navigator" transform="translate(0 0)" fill="#404254">
                <rect fill="#f2f5e9" fill-opacity="0.5" stroke="#606060" stroke-width=".5" x="0" y="0" width="60" height="60"/>
                <use id="zoomplus" xlink:href="#zoomPlus" x="17" y="9" onmousedown="handleZoom(evt,'in')"/>
                <use id="zoomminus" xlink:href="#zoomMin" x="42" y="9" onmousedown="handleZoom(evt,'out')"/>
                <use id="reset" xlink:href="#resetDef" x="30" y="36" onmousedown="handleReset()"/>
                <g id="arrowUp" xlink:href="#dirArrow" transform="translate(30 24)" onmousedown="handlePan(0,-1)">
                  <use xlink:href="#rim" fill="#404040">
                        <set attributeName="fill" to="#808080" begin="arrowUp.mouseover" end="arrowUp.mouseout"/>
                  </use>
                  <path fill="none" stroke="white" stroke-width="1.5" d="M0,-3.0v7 M-2.5,-0.5L0,-3.0L2.5,-0.5"/>
                </g>
                <g id="arrowRight" xlink:href="#dirArrow" transform="rotate(90) translate(36 -43)" onmousedown="handlePan(1,0)">
                  <use xlink:href="#rim" fill="#404040">
                        <set attributeName="fill" to="#808080" begin="arrowRight.mouseover" end="arrowRight.mouseout"/>
                  </use>
                  <path fill="none" stroke="white" stroke-width="1.5" d="M0,-3.0v7 M-2.5,-0.5L0,-3.0L2.5,-0.5"/>
                </g>
                <g id="arrowDown" xlink:href="#dirArrow" transform="rotate(180) translate(-30 -48)" onmousedown="handlePan(0,1)">
                  <use xlink:href="#rim" fill="#404040">
                        <set attributeName="fill" to="#808080" begin="arrowDown.mouseover" end="arrowDown.mouseout"/>
                  </use>
                  <path fill="none" stroke="white" stroke-width="1.5" d="M0,-3.0v7 M-2.5,-0.5L0,-3.0L2.5,-0.5"/>
                </g>
                <g id="arrowLeft" xlink:href="#dirArrow" transform="rotate(270) translate(-36 17)" onmousedown="handlePan(-1,0)">
                  <use xlink:href="#rim" fill="#404040">
                        <set attributeName="fill" to="#808080" begin="arrowLeft.mouseover" end="arrowLeft.mouseout"/>
                  </use>
                  <path fill="none" stroke="white" stroke-width="1.5" d="M0,-3.0v7 M-2.5,-0.5L0,-3.0L2.5,-0.5"/>
                </g>
        </g>
        <svg viewBox="0 0 15 15" width="100%" height="30px" preserveAspectRatio="xMaxYMin meet">
         <g id="arrow_out" transform="scale(0.3 0.3)">
          <a xlink:href="FMTlpheuristic_8hpp__incl_org.svg" target="_base">
           <rect id="button" ry="5" rx="5" y="6" x="6" height="38" width="38"
                fill="#f2f5e9" fill-opacity="0.5" stroke="#606060" stroke-width="1.0"/>
           <path id="arrow"
             d="M 11.500037,31.436501 C 11.940474,20.09759 22.043105,11.32322 32.158766,21.979434 L 37.068811,17.246167 C 37.068811,17.246167 37.088388,32 37.088388,32 L 22.160133,31.978069 C 22.160133,31.978069 26.997745,27.140456 26.997745,27.140456 C 18.528582,18.264221 13.291696,25.230495 11.500037,31.436501 z"
             style="fill:#404040;"/>
          </a>
         </g>
        </svg>
</svg>
