<?xml version="1.0" encoding="UTF-8" standalone="no"?>
<!DOCTYPE svg PUBLIC "-//W3C//DTD SVG 1.1//EN"
 "http://www.w3.org/Graphics/SVG/1.1/DTD/svg11.dtd">
<!-- Generated by graphviz version 8.1.0 (20230707.0739)
 -->
<!-- Title: C:/Temp/out/FMT/Include/FMTmaskfilter.hpp Pages: 1 -->
<svg width="661pt" height="108pt"
 viewBox="0.00 0.00 660.62 108.00" xmlns="http://www.w3.org/2000/svg" xmlns:xlink="http://www.w3.org/1999/xlink">
<g id="graph0" class="graph" transform="scale(1 1) rotate(0) translate(4 104)">
<title>C:/Temp/out/FMT/Include/FMTmaskfilter.hpp</title>
<!-- Node1 -->
<g id="Node000001" class="node">
<title>Node1</title>
<g id="a_Node000001"><a xlink:title=" ">
<polygon fill="#999999" stroke="#666666" points="411.62,-100 286.12,-100 286.12,-68 411.62,-68 411.62,-100"/>
<text text-anchor="start" x="294.12" y="-86.5" font-family="Helvetica,sans-Serif" font-size="10.00">C:/Temp/out/FMT/Include</text>
<text text-anchor="middle" x="348.88" y="-74.5" font-family="Helvetica,sans-Serif" font-size="10.00">/FMTmaskfilter.hpp</text>
</a>
</g>
</g>
<!-- Node2 -->
<g id="Node000002" class="node">
<title>Node2</title>
<g id="a_Node000002"><a xlink:title=" ">
<polygon fill="#e0e0e0" stroke="#999999" points="127.75,-26 0,-26 0,-6 127.75,-6 127.75,-26"/>
<text text-anchor="middle" x="63.88" y="-12.5" font-family="Helvetica,sans-Serif" font-size="10.00">boost/dynamic_bitset.hpp</text>
</a>
</g>
</g>
<!-- Node1&#45;&gt;Node2 -->
<g id="edge1_Node000001_Node000002" class="edge">
<title>Node1&#45;&gt;Node2</title>
<g id="a_edge1_Node000001_Node000002"><a xlink:title=" ">
<path fill="none" stroke="#63b8ff" d="M285.98,-68.43C234.62,-56.54 162.95,-39.94 115.06,-28.85"/>
<polygon fill="#63b8ff" stroke="#63b8ff" points="116.15,-25.28 105.62,-26.44 114.57,-32.1 116.15,-25.28"/>
</a>
</g>
</g>
<!-- Node3 -->
<g id="Node000003" class="node">
<title>Node3</title>
<g id="a_Node000003"><a xlink:title=" ">
<polygon fill="#e0e0e0" stroke="#999999" points="240.25,-32 145.5,-32 145.5,0 240.25,0 240.25,-32"/>
<text text-anchor="start" x="153.5" y="-18.5" font-family="Helvetica,sans-Serif" font-size="10.00">boost/serialization</text>
<text text-anchor="middle" x="192.88" y="-6.5" font-family="Helvetica,sans-Serif" font-size="10.00">/serialization.hpp</text>
</a>
</g>
</g>
<!-- Node1&#45;&gt;Node3 -->
<g id="edge2_Node000001_Node000003" class="edge">
<title>Node1&#45;&gt;Node3</title>
<g id="a_edge2_Node000001_Node000003"><a xlink:title=" ">
<path fill="none" stroke="#63b8ff" d="M312.3,-67.53C290.57,-58.33 262.8,-46.58 239.5,-36.73"/>
<polygon fill="#63b8ff" stroke="#63b8ff" points="241.06,-33.16 230.49,-32.49 238.34,-39.61 241.06,-33.16"/>
</a>
</g>
</g>
<!-- Node4 -->
<g id="Node000004" class="node">
<title>Node4</title>
<g id="a_Node000004"><a xlink:title=" ">
<polygon fill="#e0e0e0" stroke="#999999" points="353.25,-32 258.5,-32 258.5,0 353.25,0 353.25,-32"/>
<text text-anchor="start" x="266.5" y="-18.5" font-family="Helvetica,sans-Serif" font-size="10.00">boost/serialization</text>
<text text-anchor="middle" x="305.88" y="-6.5" font-family="Helvetica,sans-Serif" font-size="10.00">/nvp.hpp</text>
</a>
</g>
</g>
<!-- Node1&#45;&gt;Node4 -->
<g id="edge3_Node000001_Node000004" class="edge">
<title>Node1&#45;&gt;Node4</title>
<g id="a_edge3_Node000001_Node000004"><a xlink:title=" ">
<path fill="none" stroke="#63b8ff" d="M338.9,-67.69C333.8,-59.86 327.47,-50.15 321.72,-41.32"/>
<polygon fill="#63b8ff" stroke="#63b8ff" points="324.19,-39.69 315.79,-33.22 318.32,-43.51 324.19,-39.69"/>
</a>
</g>
</g>
<!-- Node5 -->
<g id="Node000005" class="node">
<title>Node5</title>
<g id="a_Node000005"><a xlink:title=" ">
<polygon fill="#e0e0e0" stroke="#999999" points="412.62,-26 371.12,-26 371.12,-6 412.62,-6 412.62,-26"/>
<text text-anchor="middle" x="391.88" y="-12.5" font-family="Helvetica,sans-Serif" font-size="10.00">vector</text>
</a>
</g>
</g>
<!-- Node1&#45;&gt;Node5 -->
<g id="edge4_Node000001_Node000005" class="edge">
<title>Node1&#45;&gt;Node5</title>
<g id="a_edge4_Node000001_Node000005"><a xlink:title=" ">
<path fill="none" stroke="#63b8ff" d="M358.85,-67.69C365.1,-58.1 373.2,-45.67 379.81,-35.52"/>
<polygon fill="#63b8ff" stroke="#63b8ff" points="383.28,-37.61 385.81,-27.32 377.41,-33.78 383.28,-37.61"/>
</a>
</g>
</g>
<!-- Node6 -->
<g id="Node000006" class="node">
<title>Node6</title>
<g id="a_Node000006"><a xlink:title=" ">
<polygon fill="#e0e0e0" stroke="#999999" points="557.38,-26 430.38,-26 430.38,-6 557.38,-6 557.38,-26"/>
<text text-anchor="middle" x="493.88" y="-12.5" font-family="Helvetica,sans-Serif" font-size="10.00">boost/functional/hash.hpp</text>
</a>
</g>
</g>
<!-- Node1&#45;&gt;Node6 -->
<g id="edge5_Node000001_Node000006" class="edge">
<title>Node1&#45;&gt;Node6</title>
<g id="a_edge5_Node000001_Node000006"><a xlink:title=" ">
<path fill="none" stroke="#63b8ff" d="M382.87,-67.53C407.23,-56.44 439.74,-41.64 463.29,-30.92"/>
<polygon fill="#63b8ff" stroke="#63b8ff" points="464.44,-33.79 472.09,-26.46 461.54,-27.42 464.44,-33.79"/>
</a>
</g>
</g>
<!-- Node7 -->
<g id="Node000007" class="node">
<title>Node7</title>
<g id="a_Node000007"><a xlink:href="FMTutility_8hpp.html" target="_top" xlink:title=" ">
<polygon fill="white" stroke="#666666" points="652.62,-26 575.12,-26 575.12,-6 652.62,-6 652.62,-26"/>
<text text-anchor="middle" x="613.88" y="-12.5" font-family="Helvetica,sans-Serif" font-size="10.00">FMTutility.hpp</text>
</a>
</g>
</g>
<!-- Node1&#45;&gt;Node7 -->
<g id="edge6_Node000001_Node000007" class="edge">
<title>Node1&#45;&gt;Node7</title>
<g id="a_edge6_Node000001_Node000007"><a xlink:title=" ">
<path fill="none" stroke="#63b8ff" d="M411.7,-69.69C455.43,-60.08 514.98,-46.33 566.88,-32 569.64,-31.24 572.49,-30.41 575.35,-29.56"/>
<polygon fill="#63b8ff" stroke="#63b8ff" points="576.12,-32.68 584.65,-26.41 574.06,-25.99 576.12,-32.68"/>
</a>
</g>
</g>
</g>
</svg>
