<?xml version="1.0" encoding="UTF-8" standalone="no"?>
<!DOCTYPE svg PUBLIC "-//W3C//DTD SVG 1.1//EN"
 "http://www.w3.org/Graphics/SVG/1.1/DTD/svg11.dtd">
<!-- Generated by graphviz version 10.0.1 (20240210.2158)
 -->
<!-- Title: D:/FMT/Include/FMTmodel.hpp Pages: 1 -->
<svg width="1829pt" height="420pt"
 viewBox="0.00 0.00 1828.70 420.00" xmlns="http://www.w3.org/2000/svg" xmlns:xlink="http://www.w3.org/1999/xlink">
<g id="graph0" class="graph" transform="scale(1 1) rotate(0) translate(4 416)">
<title>D:/FMT/Include/FMTmodel.hpp</title>
<!-- Node1 -->
<g id="node1" class="node">
<title>Node1</title>
<g id="a_node1"><a xlink:title=" ">
<polygon fill="#999999" stroke="#666666" points="1416.57,-412 1267.07,-412 1267.07,-392 1416.57,-392 1416.57,-412"/>
<text text-anchor="middle" x="1341.82" y="-398.5" font-family="Helvetica,sans-Serif" font-size="10.00">D:/FMT/Include/FMTmodel.hpp</text>
</a>
</g>
</g>
<!-- Node2 -->
<g id="node2" class="node">
<title>Node2</title>
<g id="a_node2"><a xlink:href="FMTgraph_8hpp.html" target="_top" xlink:title=" ">
<polygon fill="white" stroke="#666666" points="1024.45,-356 877.2,-356 877.2,-336 1024.45,-336 1024.45,-356"/>
<text text-anchor="middle" x="950.82" y="-342.5" font-family="Helvetica,sans-Serif" font-size="10.00">D:/FMT/Include/FMTgraph.hpp</text>
</a>
</g>
</g>
<!-- Node1&#45;&gt;Node2 -->
<g id="edge1" class="edge">
<title>Node1&#45;&gt;Node2</title>
<path fill="none" stroke="#63b8ff" d="M1262.09,-389.99C1190.68,-380.13 1087.04,-365.81 1019.3,-356.46"/>
<polygon fill="#63b8ff" stroke="#63b8ff" points="1261.38,-393.42 1271.77,-391.33 1262.34,-386.49 1261.38,-393.42"/>
</g>
<!-- Node5 -->
<g id="node5" class="node">
<title>Node5</title>
<g id="a_node5"><a xlink:href="FMTsemodel_8hpp.html" target="_top" xlink:title=" ">
<polygon fill="white" stroke="#666666" points="791.82,-188 631.82,-188 631.82,-168 791.82,-168 791.82,-188"/>
<text text-anchor="middle" x="711.82" y="-174.5" font-family="Helvetica,sans-Serif" font-size="10.00">D:/FMT/Include/FMTsemodel.hpp</text>
</a>
</g>
</g>
<!-- Node1&#45;&gt;Node5 -->
<g id="edge48" class="edge">
<title>Node1&#45;&gt;Node5</title>
<path fill="none" stroke="#63b8ff" d="M1332.37,-381.62C1317.95,-354.25 1287.75,-304.86 1246.82,-280 1171.54,-234.27 922.31,-201.59 792.31,-187.2"/>
<polygon fill="#63b8ff" stroke="#63b8ff" points="1329.08,-382.87 1336.73,-390.2 1335.32,-379.7 1329.08,-382.87"/>
</g>
<!-- Node7 -->
<g id="node7" class="node">
<title>Node7</title>
<g id="a_node7"><a xlink:href="PYexportModel_8hpp.html" target="_top" xlink:title=" ">
<polygon fill="white" stroke="#666666" points="1070.07,-76 899.57,-76 899.57,-56 1070.07,-56 1070.07,-76"/>
<text text-anchor="middle" x="984.82" y="-62.5" font-family="Helvetica,sans-Serif" font-size="10.00">D:/FMT/Include/PYexportModel.hpp</text>
</a>
</g>
</g>
<!-- Node1&#45;&gt;Node7 -->
<g id="edge50" class="edge">
<title>Node1&#45;&gt;Node7</title>
<path fill="none" stroke="#63b8ff" d="M1355.97,-382.3C1370.44,-361.27 1390.82,-325.52 1390.82,-291 1390.82,-291 1390.82,-291 1390.82,-177 1390.82,-111.18 1189.54,-83.52 1070.43,-72.91"/>
<polygon fill="#63b8ff" stroke="#63b8ff" points="1353.14,-380.23 1350.15,-390.4 1358.83,-384.32 1353.14,-380.23"/>
</g>
<!-- Node8 -->
<g id="node8" class="node">
<title>Node8</title>
<g id="a_node8"><a xlink:href="Rdeclarations_8hpp.html" target="_top" xlink:title=" ">
<polygon fill="white" stroke="#666666" points="633.32,-76 470.32,-76 470.32,-56 633.32,-56 633.32,-76"/>
<text text-anchor="middle" x="551.82" y="-62.5" font-family="Helvetica,sans-Serif" font-size="10.00">D:/FMT/Include/Rdeclarations.hpp</text>
</a>
</g>
</g>
<!-- Node1&#45;&gt;Node8 -->
<g id="edge52" class="edge">
<title>Node1&#45;&gt;Node8</title>
<path fill="none" stroke="#63b8ff" d="M1255.38,-400.26C1016.48,-397.08 364.82,-380.22 364.82,-291 364.82,-291 364.82,-291 364.82,-177 364.82,-116.92 437.41,-89.01 492.14,-76.5"/>
<polygon fill="#63b8ff" stroke="#63b8ff" points="1255.22,-403.76 1265.27,-400.39 1255.31,-396.76 1255.22,-403.76"/>
</g>
<!-- Node9 -->
<g id="node9" class="node">
<title>Node9</title>
<g id="a_node9"><a xlink:href="RexportModel_8hpp.html" target="_top" xlink:title=" ">
<polygon fill="white" stroke="#666666" points="1285.7,-76 1121.95,-76 1121.95,-56 1285.7,-56 1285.7,-76"/>
<text text-anchor="middle" x="1203.82" y="-62.5" font-family="Helvetica,sans-Serif" font-size="10.00">D:/FMT/Include/RexportModel.hpp</text>
</a>
</g>
</g>
<!-- Node1&#45;&gt;Node9 -->
<g id="edge53" class="edge">
<title>Node1&#45;&gt;Node9</title>
<path fill="none" stroke="#63b8ff" d="M1370.36,-385.76C1382.37,-378.16 1395.64,-368.02 1404.82,-356 1423.51,-331.52 1428.82,-321.8 1428.82,-291 1428.82,-291 1428.82,-291 1428.82,-177 1428.82,-146.2 1428,-132.28 1404.82,-112 1386.22,-95.73 1329.09,-83.9 1280.47,-76.47"/>
<polygon fill="#63b8ff" stroke="#63b8ff" points="1368.79,-382.62 1362,-390.75 1372.38,-388.63 1368.79,-382.62"/>
</g>
<!-- Node11 -->
<g id="node11" class="node">
<title>Node11</title>
<g id="a_node11"><a xlink:href="FMTpythonpickle_8hpp.html" target="_top" xlink:title=" ">
<polygon fill="white" stroke="#666666" points="433.82,-76 255.82,-76 255.82,-56 433.82,-56 433.82,-76"/>
<text text-anchor="middle" x="344.82" y="-62.5" font-family="Helvetica,sans-Serif" font-size="10.00">D:/FMT/Include/FMTpythonpickle.hpp</text>
</a>
</g>
</g>
<!-- Node1&#45;&gt;Node11 -->
<g id="edge47" class="edge">
<title>Node1&#45;&gt;Node11</title>
<path fill="none" stroke="#63b8ff" d="M1255.45,-401.64C1061.06,-402.27 594.47,-399.09 443.82,-356 386.63,-339.64 326.82,-350.49 326.82,-291 326.82,-291 326.82,-291 326.82,-177 326.82,-139.27 337.27,-95.19 342.24,-76.33"/>
<polygon fill="#63b8ff" stroke="#63b8ff" points="1255.23,-405.14 1265.22,-401.6 1255.21,-398.14 1255.23,-405.14"/>
</g>
<!-- Node18 -->
<g id="node18" class="node">
<title>Node18</title>
<g id="a_node18"><a xlink:href="FMTsrmodel_8hpp.html" target="_top" xlink:title=" ">
<polygon fill="white" stroke="#666666" points="1282.7,-188 1124.95,-188 1124.95,-168 1282.7,-168 1282.7,-188"/>
<text text-anchor="middle" x="1203.82" y="-174.5" font-family="Helvetica,sans-Serif" font-size="10.00">D:/FMT/Include/FMTsrmodel.hpp</text>
</a>
</g>
</g>
<!-- Node1&#45;&gt;Node18 -->
<g id="edge49" class="edge">
<title>Node1&#45;&gt;Node18</title>
<path fill="none" stroke="#63b8ff" d="M1345.19,-380.35C1349.84,-344.47 1353.94,-270.08 1317.82,-224 1303.51,-205.75 1280.72,-194.88 1259.27,-188.42"/>
<polygon fill="#63b8ff" stroke="#63b8ff" points="1341.74,-379.8 1343.75,-390.2 1348.66,-380.81 1341.74,-379.8"/>
</g>
<!-- Node23 -->
<g id="node23" class="node">
<title>Node23</title>
<g id="a_node23"><a xlink:href="PYexportParallel_8hpp.html" target="_top" xlink:title=" ">
<polygon fill="white" stroke="#666666" points="1633.07,-356 1456.57,-356 1456.57,-336 1633.07,-336 1633.07,-356"/>
<text text-anchor="middle" x="1544.82" y="-342.5" font-family="Helvetica,sans-Serif" font-size="10.00">D:/FMT/Include/PYexportParallel.hpp</text>
</a>
</g>
</g>
<!-- Node1&#45;&gt;Node23 -->
<g id="edge51" class="edge">
<title>Node1&#45;&gt;Node23</title>
<path fill="none" stroke="#63b8ff" d="M1388.11,-388.69C1424.88,-378.91 1475.53,-365.43 1509.19,-356.48"/>
<polygon fill="#63b8ff" stroke="#63b8ff" points="1387.41,-385.25 1378.64,-391.2 1389.21,-392.02 1387.41,-385.25"/>
</g>
<!-- Node24 -->
<g id="node24" class="node">
<title>Node24</title>
<g id="a_node24"><a xlink:href="RexportParallel_8hpp.html" target="_top" xlink:title=" ">
<polygon fill="white" stroke="#666666" points="1820.7,-356 1650.95,-356 1650.95,-336 1820.7,-336 1820.7,-356"/>
<text text-anchor="middle" x="1735.82" y="-342.5" font-family="Helvetica,sans-Serif" font-size="10.00">D:/FMT/Include/RexportParallel.hpp</text>
</a>
</g>
</g>
<!-- Node1&#45;&gt;Node24 -->
<g id="edge54" class="edge">
<title>Node1&#45;&gt;Node24</title>
<path fill="none" stroke="#63b8ff" d="M1422.16,-389.99C1494.13,-380.13 1598.55,-365.81 1666.82,-356.46"/>
<polygon fill="#63b8ff" stroke="#63b8ff" points="1421.83,-386.5 1412.4,-391.33 1422.78,-393.44 1421.83,-386.5"/>
</g>
<!-- Node3 -->
<g id="node3" class="node">
<title>Node3</title>
<g id="a_node3"><a xlink:href="FMTlinegraph_8hpp.html" target="_top" xlink:title=" ">
<polygon fill="white" stroke="#666666" points="641.95,-300 479.7,-300 479.7,-280 641.95,-280 641.95,-300"/>
<text text-anchor="middle" x="560.82" y="-286.5" font-family="Helvetica,sans-Serif" font-size="10.00">D:/FMT/Include/FMTlinegraph.hpp</text>
</a>
</g>
</g>
<!-- Node2&#45;&gt;Node3 -->
<g id="edge2" class="edge">
<title>Node2&#45;&gt;Node3</title>
<path fill="none" stroke="#63b8ff" d="M871.3,-333.99C800.06,-324.13 696.7,-309.81 629.12,-300.46"/>
<polygon fill="#63b8ff" stroke="#63b8ff" points="870.56,-337.42 880.94,-335.32 871.52,-330.49 870.56,-337.42"/>
</g>
<!-- Node13 -->
<g id="node13" class="node">
<title>Node13</title>
<g id="a_node13"><a xlink:href="RexportSpatial_8hpp.html" target="_top" xlink:title=" ">
<polygon fill="white" stroke="#666666" points="560.57,-188 393.07,-188 393.07,-168 560.57,-168 560.57,-188"/>
<text text-anchor="middle" x="476.82" y="-174.5" font-family="Helvetica,sans-Serif" font-size="10.00">D:/FMT/Include/RexportSpatial.hpp</text>
</a>
</g>
</g>
<!-- Node2&#45;&gt;Node13 -->
<g id="edge46" class="edge">
<title>Node2&#45;&gt;Node13</title>
<path fill="none" stroke="#63b8ff" d="M865.74,-343.12C734.97,-339.33 496.83,-328.56 470.82,-300 442.07,-268.43 462.69,-210.84 472.46,-188.35"/>
<polygon fill="#63b8ff" stroke="#63b8ff" points="865.29,-346.61 875.38,-343.39 865.49,-339.61 865.29,-346.61"/>
</g>
<!-- Node14 -->
<g id="node14" class="node">
<title>Node14</title>
<g id="a_node14"><a xlink:href="FMToperatingareascheme_8hpp.html" target="_top" xlink:title=" ">
<polygon fill="white" stroke="#666666" points="224.95,-188 8.7,-188 8.7,-168 224.95,-168 224.95,-188"/>
<text text-anchor="middle" x="116.82" y="-174.5" font-family="Helvetica,sans-Serif" font-size="10.00">D:/FMT/Include/FMToperatingareascheme.hpp</text>
</a>
</g>
</g>
<!-- Node2&#45;&gt;Node14 -->
<g id="edge21" class="edge">
<title>Node2&#45;&gt;Node14</title>
<path fill="none" stroke="#63b8ff" d="M865.31,-343.79C765.66,-340.88 596.55,-331.27 454.82,-300 330.35,-272.54 189.06,-211.74 137.24,-188.39"/>
<polygon fill="#63b8ff" stroke="#63b8ff" points="865.21,-347.29 875.3,-344.06 865.4,-340.29 865.21,-347.29"/>
</g>
<!-- Node17 -->
<g id="node17" class="node">
<title>Node17</title>
<g id="a_node17"><a xlink:href="FMToutputnodecache_8hpp.html" target="_top" xlink:title=" ">
<polygon fill="white" stroke="#666666" points="1049.57,-300 852.07,-300 852.07,-280 1049.57,-280 1049.57,-300"/>
<text text-anchor="middle" x="950.82" y="-286.5" font-family="Helvetica,sans-Serif" font-size="10.00">D:/FMT/Include/FMToutputnodecache.hpp</text>
</a>
</g>
</g>
<!-- Node2&#45;&gt;Node17 -->
<g id="edge29" class="edge">
<title>Node2&#45;&gt;Node17</title>
<path fill="none" stroke="#63b8ff" d="M944.24,-324.43C943.79,-316.11 944.23,-306.93 945.58,-300.3"/>
<polygon fill="#63b8ff" stroke="#63b8ff" points="940.74,-324.57 945.38,-334.09 947.69,-323.75 940.74,-324.57"/>
</g>
<!-- Node2&#45;&gt;Node18 -->
<g id="edge31" class="edge">
<title>Node2&#45;&gt;Node18</title>
<path fill="none" stroke="#63b8ff" d="M1036,-343.96C1113.6,-340.98 1220.06,-331.14 1246.82,-300 1276.17,-265.85 1232.43,-210.25 1212.67,-188.32"/>
<polygon fill="#63b8ff" stroke="#63b8ff" points="1036.16,-340.45 1026.29,-344.29 1036.41,-347.44 1036.16,-340.45"/>
</g>
<!-- Node21 -->
<g id="node21" class="node">
<title>Node21</title>
<g id="a_node21"><a xlink:href="PYexportGraph_8hpp.html" target="_top" xlink:title=" ">
<polygon fill="white" stroke="#666666" points="1238.07,-300 1067.57,-300 1067.57,-280 1238.07,-280 1238.07,-300"/>
<text text-anchor="middle" x="1152.82" y="-286.5" font-family="Helvetica,sans-Serif" font-size="10.00">D:/FMT/Include/PYexportGraph.hpp</text>
</a>
</g>
</g>
<!-- Node2&#45;&gt;Node21 -->
<g id="edge44" class="edge">
<title>Node2&#45;&gt;Node21</title>
<path fill="none" stroke="#63b8ff" d="M996.88,-332.69C1033.47,-322.91 1083.87,-309.43 1117.36,-300.48"/>
<polygon fill="#63b8ff" stroke="#63b8ff" points="996.23,-329.24 987.47,-335.2 998.03,-336 996.23,-329.24"/>
</g>
<!-- Node22 -->
<g id="node22" class="node">
<title>Node22</title>
<g id="a_node22"><a xlink:href="PYexportSpatial_8hpp.html" target="_top" xlink:title=" ">
<polygon fill="white" stroke="#666666" points="833.95,-300 659.7,-300 659.7,-280 833.95,-280 833.95,-300"/>
<text text-anchor="middle" x="746.82" y="-286.5" font-family="Helvetica,sans-Serif" font-size="10.00">D:/FMT/Include/PYexportSpatial.hpp</text>
</a>
</g>
</g>
<!-- Node2&#45;&gt;Node22 -->
<g id="edge45" class="edge">
<title>Node2&#45;&gt;Node22</title>
<path fill="none" stroke="#63b8ff" d="M904.3,-332.69C867.36,-322.91 816.45,-309.43 782.63,-300.48"/>
<polygon fill="#63b8ff" stroke="#63b8ff" points="903.26,-336.03 913.82,-335.21 905.05,-329.26 903.26,-336.03"/>
</g>
<!-- Node4 -->
<g id="node4" class="node">
<title>Node4</title>
<g id="a_node4"><a xlink:href="FMTspatialschedule_8hpp.html" target="_top" xlink:title=" ">
<polygon fill="white" stroke="#666666" points="807.2,-244 616.45,-244 616.45,-224 807.2,-224 807.2,-244"/>
<text text-anchor="middle" x="711.82" y="-230.5" font-family="Helvetica,sans-Serif" font-size="10.00">D:/FMT/Include/FMTspatialschedule.hpp</text>
</a>
</g>
</g>
<!-- Node3&#45;&gt;Node4 -->
<g id="edge3" class="edge">
<title>Node3&#45;&gt;Node4</title>
<path fill="none" stroke="#63b8ff" d="M597.76,-275.79C624.86,-266.1 661.04,-253.16 685.31,-244.48"/>
<polygon fill="#63b8ff" stroke="#63b8ff" points="596.79,-272.42 588.55,-279.08 599.14,-279.01 596.79,-272.42"/>
</g>
<!-- Node3&#45;&gt;Node8 -->
<g id="edge19" class="edge">
<title>Node3&#45;&gt;Node8</title>
<path fill="none" stroke="#63b8ff" d="M569.53,-269.28C579.52,-243.35 591.85,-197.6 569.82,-168 536.58,-123.33 483.06,-176.67 449.82,-132 429.95,-105.3 473.79,-86.74 510.06,-76.48"/>
<polygon fill="#63b8ff" stroke="#63b8ff" points="566.4,-267.7 565.82,-278.28 572.87,-270.37 566.4,-267.7"/>
</g>
<!-- Node3&#45;&gt;Node13 -->
<g id="edge20" class="edge">
<title>Node3&#45;&gt;Node13</title>
<path fill="none" stroke="#63b8ff" d="M546.76,-270.58C528.64,-246.86 497.84,-206.52 483.97,-188.35"/>
<polygon fill="#63b8ff" stroke="#63b8ff" points="543.89,-272.6 552.74,-278.42 549.45,-268.35 543.89,-272.6"/>
</g>
<!-- Node4&#45;&gt;Node5 -->
<g id="edge4" class="edge">
<title>Node4&#45;&gt;Node5</title>
<path fill="none" stroke="#63b8ff" d="M711.82,-212.13C711.82,-203.9 711.82,-194.85 711.82,-188.3"/>
<polygon fill="#63b8ff" stroke="#63b8ff" points="708.32,-212.08 711.82,-222.08 715.32,-212.08 708.32,-212.08"/>
</g>
<!-- Node4&#45;&gt;Node13 -->
<g id="edge18" class="edge">
<title>Node4&#45;&gt;Node13</title>
<path fill="none" stroke="#63b8ff" d="M659.6,-221C616.9,-211.19 557.35,-197.51 517.98,-188.46"/>
<polygon fill="#63b8ff" stroke="#63b8ff" points="658.61,-224.36 669.14,-223.19 660.18,-217.54 658.61,-224.36"/>
</g>
<!-- Node6 -->
<g id="node6" class="node">
<title>Node6</title>
<g id="a_node6"><a xlink:href="FMTsamodel_8hpp.html" target="_top" xlink:title=" ">
<polygon fill="white" stroke="#666666" points="1064.82,-132 904.82,-132 904.82,-112 1064.82,-112 1064.82,-132"/>
<text text-anchor="middle" x="984.82" y="-118.5" font-family="Helvetica,sans-Serif" font-size="10.00">D:/FMT/Include/FMTsamodel.hpp</text>
</a>
</g>
</g>
<!-- Node5&#45;&gt;Node6 -->
<g id="edge5" class="edge">
<title>Node5&#45;&gt;Node6</title>
<path fill="none" stroke="#63b8ff" d="M770.91,-165.31C820.62,-155.48 890.78,-141.6 937.01,-132.46"/>
<polygon fill="#63b8ff" stroke="#63b8ff" points="770.3,-161.86 761.17,-167.24 771.66,-168.73 770.3,-161.86"/>
</g>
<!-- Node5&#45;&gt;Node7 -->
<g id="edge15" class="edge">
<title>Node5&#45;&gt;Node7</title>
<path fill="none" stroke="#63b8ff" d="M708.87,-156.35C708.05,-142.02 709.66,-123.52 720.82,-112 745.13,-86.92 831.84,-75.78 899.34,-70.85"/>
<polygon fill="#63b8ff" stroke="#63b8ff" points="705.36,-156.49 709.87,-166.07 712.32,-155.77 705.36,-156.49"/>
</g>
<!-- Node5&#45;&gt;Node8 -->
<g id="edge16" class="edge">
<title>Node5&#45;&gt;Node8</title>
<path fill="none" stroke="#63b8ff" d="M620.44,-166.42C552.7,-157.64 470.36,-144.59 459.82,-132 439.11,-107.26 483.31,-87.41 517.36,-76.42"/>
<polygon fill="#63b8ff" stroke="#63b8ff" points="619.73,-169.86 630.1,-167.66 620.62,-162.92 619.73,-169.86"/>
</g>
<!-- Node5&#45;&gt;Node9 -->
<g id="edge17" class="edge">
<title>Node5&#45;&gt;Node9</title>
<path fill="none" stroke="#63b8ff" d="M803.53,-176.62C959.57,-175 1263.13,-167.31 1295.82,-132 1318.01,-108.04 1272.1,-87.68 1237.49,-76.42"/>
<polygon fill="#63b8ff" stroke="#63b8ff" points="803.58,-173.12 793.61,-176.71 803.64,-180.12 803.58,-173.12"/>
</g>
<!-- Node10 -->
<g id="node10" class="node">
<title>Node10</title>
<g id="a_node10"><a xlink:href="FMTsesmodel_8hpp.html" target="_top" xlink:title=" ">
<polygon fill="white" stroke="#666666" points="634.45,-132 469.2,-132 469.2,-112 634.45,-112 634.45,-132"/>
<text text-anchor="middle" x="551.82" y="-118.5" font-family="Helvetica,sans-Serif" font-size="10.00">D:/FMT/Include/FMTsesmodel.hpp</text>
</a>
</g>
</g>
<!-- Node5&#45;&gt;Node10 -->
<g id="edge9" class="edge">
<title>Node5&#45;&gt;Node10</title>
<path fill="none" stroke="#63b8ff" d="M673.07,-163.92C644.3,-154.21 605.75,-141.2 579.91,-132.48"/>
<polygon fill="#63b8ff" stroke="#63b8ff" points="671.92,-167.23 682.52,-167.11 674.16,-160.6 671.92,-167.23"/>
</g>
<!-- Node6&#45;&gt;Node7 -->
<g id="edge6" class="edge">
<title>Node6&#45;&gt;Node7</title>
<path fill="none" stroke="#63b8ff" d="M984.82,-100.13C984.82,-91.9 984.82,-82.85 984.82,-76.3"/>
<polygon fill="#63b8ff" stroke="#63b8ff" points="981.32,-100.08 984.82,-110.08 988.32,-100.08 981.32,-100.08"/>
</g>
<!-- Node6&#45;&gt;Node8 -->
<g id="edge7" class="edge">
<title>Node6&#45;&gt;Node8</title>
<path fill="none" stroke="#63b8ff" d="M897.5,-110.11C818.39,-100.24 702.98,-85.85 627.65,-76.46"/>
<polygon fill="#63b8ff" stroke="#63b8ff" points="897.04,-113.58 907.4,-111.34 897.91,-106.63 897.04,-113.58"/>
</g>
<!-- Node6&#45;&gt;Node9 -->
<g id="edge8" class="edge">
<title>Node6&#45;&gt;Node9</title>
<path fill="none" stroke="#63b8ff" d="M1034.25,-108.81C1073.99,-99.01 1129.01,-85.45 1165.47,-76.46"/>
<polygon fill="#63b8ff" stroke="#63b8ff" points="1033.56,-105.38 1024.69,-111.17 1035.24,-112.17 1033.56,-105.38"/>
</g>
<!-- Node10&#45;&gt;Node7 -->
<g id="edge12" class="edge">
<title>Node10&#45;&gt;Node7</title>
<path fill="none" stroke="#63b8ff" d="M639.14,-110.11C718.26,-100.24 833.66,-85.85 908.99,-76.46"/>
<polygon fill="#63b8ff" stroke="#63b8ff" points="638.73,-106.63 629.24,-111.34 639.6,-113.58 638.73,-106.63"/>
</g>
<!-- Node10&#45;&gt;Node8 -->
<g id="edge13" class="edge">
<title>Node10&#45;&gt;Node8</title>
<path fill="none" stroke="#63b8ff" d="M551.82,-100.13C551.82,-91.9 551.82,-82.85 551.82,-76.3"/>
<polygon fill="#63b8ff" stroke="#63b8ff" points="548.32,-100.08 551.82,-110.08 555.32,-100.08 548.32,-100.08"/>
</g>
<!-- Node10&#45;&gt;Node9 -->
<g id="edge14" class="edge">
<title>Node10&#45;&gt;Node9</title>
<path fill="none" stroke="#63b8ff" d="M646.03,-113.2C773.84,-102.61 1000.14,-83.87 1121.5,-73.82"/>
<polygon fill="#63b8ff" stroke="#63b8ff" points="645.91,-109.69 636.24,-114.01 646.49,-116.67 645.91,-109.69"/>
</g>
<!-- Node10&#45;&gt;Node11 -->
<g id="edge10" class="edge">
<title>Node10&#45;&gt;Node11</title>
<path fill="none" stroke="#63b8ff" d="M505.1,-108.81C467.58,-99.02 415.62,-85.47 381.16,-76.48"/>
<polygon fill="#63b8ff" stroke="#63b8ff" points="503.74,-112.07 514.3,-111.21 505.51,-105.3 503.74,-112.07"/>
</g>
<!-- Node12 -->
<g id="node12" class="node">
<title>Node12</title>
<g id="a_node12"><a xlink:href="PYexportHeuristics_8hpp.html" target="_top" xlink:title=" ">
<polygon fill="white" stroke="#666666" points="321.7,-20 133.95,-20 133.95,0 321.7,0 321.7,-20"/>
<text text-anchor="middle" x="227.82" y="-6.5" font-family="Helvetica,sans-Serif" font-size="10.00">D:/FMT/Include/PYexportHeuristics.hpp</text>
</a>
</g>
</g>
<!-- Node11&#45;&gt;Node12 -->
<g id="edge11" class="edge">
<title>Node11&#45;&gt;Node12</title>
<path fill="none" stroke="#63b8ff" d="M314.22,-50.88C293.46,-41.3 266.59,-28.89 248.36,-20.48"/>
<polygon fill="#63b8ff" stroke="#63b8ff" points="312.52,-53.95 323.07,-54.96 315.45,-47.59 312.52,-53.95"/>
</g>
<!-- Node14&#45;&gt;Node12 -->
<g id="edge27" class="edge">
<title>Node14&#45;&gt;Node12</title>
<path fill="none" stroke="#63b8ff" d="M86.58,-162.33C44.39,-139.93 -23.49,-95.63 8.82,-56 24.89,-36.3 81.86,-24.97 133.66,-18.62"/>
<polygon fill="#63b8ff" stroke="#63b8ff" points="84.83,-165.36 95.33,-166.84 88.04,-159.14 84.83,-165.36"/>
</g>
<!-- Node15 -->
<g id="node15" class="node">
<title>Node15</title>
<g id="a_node15"><a xlink:href="FMToperatingareascheduler_8hpp.html" target="_top" xlink:title=" ">
<polygon fill="white" stroke="#666666" points="298.7,-132 74.95,-132 74.95,-112 298.7,-112 298.7,-132"/>
<text text-anchor="middle" x="186.82" y="-118.5" font-family="Helvetica,sans-Serif" font-size="10.00">D:/FMT/Include/FMToperatingareascheduler.hpp</text>
</a>
</g>
</g>
<!-- Node14&#45;&gt;Node15 -->
<g id="edge22" class="edge">
<title>Node14&#45;&gt;Node15</title>
<path fill="none" stroke="#63b8ff" d="M137.98,-160.68C150.02,-151.39 164.67,-140.09 174.77,-132.3"/>
<polygon fill="#63b8ff" stroke="#63b8ff" points="135.99,-157.79 130.21,-166.67 140.27,-163.33 135.99,-157.79"/>
</g>
<!-- Node16 -->
<g id="node16" class="node">
<title>Node16</title>
<g id="a_node16"><a xlink:href="RexportHeuristics_8hpp.html" target="_top" xlink:title=" ">
<polygon fill="white" stroke="#666666" points="199.32,-76 18.32,-76 18.32,-56 199.32,-56 199.32,-76"/>
<text text-anchor="middle" x="108.82" y="-62.5" font-family="Helvetica,sans-Serif" font-size="10.00">D:/FMT/Include/RexportHeuristics.hpp</text>
</a>
</g>
</g>
<!-- Node14&#45;&gt;Node16 -->
<g id="edge28" class="edge">
<title>Node14&#45;&gt;Node16</title>
<path fill="none" stroke="#63b8ff" d="M90.96,-161.16C81.17,-153.65 71.12,-143.75 65.82,-132 56.19,-110.66 79.22,-88.48 95.16,-76.34"/>
<polygon fill="#63b8ff" stroke="#63b8ff" points="88.67,-163.83 98.86,-166.72 92.7,-158.1 88.67,-163.83"/>
</g>
<!-- Node15&#45;&gt;Node8 -->
<g id="edge25" class="edge">
<title>Node15&#45;&gt;Node8</title>
<path fill="none" stroke="#63b8ff" d="M262.07,-109.87C328.71,-100.01 424.92,-85.77 487.9,-76.46"/>
<polygon fill="#63b8ff" stroke="#63b8ff" points="261.69,-106.38 252.31,-111.31 262.72,-113.31 261.69,-106.38"/>
</g>
<!-- Node15&#45;&gt;Node11 -->
<g id="edge23" class="edge">
<title>Node15&#45;&gt;Node11</title>
<path fill="none" stroke="#63b8ff" d="M225.09,-107.92C253.5,-98.21 291.57,-85.2 317.09,-76.48"/>
<polygon fill="#63b8ff" stroke="#63b8ff" points="224.11,-104.56 215.78,-111.1 226.37,-111.18 224.11,-104.56"/>
</g>
<!-- Node15&#45;&gt;Node12 -->
<g id="edge24" class="edge">
<title>Node15&#45;&gt;Node12</title>
<path fill="none" stroke="#63b8ff" d="M196.75,-101.28C200.47,-93.5 204.57,-84.43 207.82,-76 215.29,-56.61 221.94,-33.16 225.37,-20.39"/>
<polygon fill="#63b8ff" stroke="#63b8ff" points="193.65,-99.63 192.39,-110.15 199.94,-102.72 193.65,-99.63"/>
</g>
<!-- Node15&#45;&gt;Node16 -->
<g id="edge26" class="edge">
<title>Node15&#45;&gt;Node16</title>
<path fill="none" stroke="#63b8ff" d="M164.1,-105.27C150.63,-95.94 134,-84.43 122.51,-76.48"/>
<polygon fill="#63b8ff" stroke="#63b8ff" points="161.78,-107.92 171.99,-110.73 165.76,-102.16 161.78,-107.92"/>
</g>
<!-- Node17&#45;&gt;Node2 -->
<g id="edge30" class="edge">
<title>Node17&#45;&gt;Node2</title>
<path fill="none" stroke="#63b8ff" d="M957.41,-311.73C957.85,-319.96 957.41,-329.01 956.09,-335.59"/>
<polygon fill="#63b8ff" stroke="#63b8ff" points="960.88,-311.33 956.24,-301.8 953.93,-312.14 960.88,-311.33"/>
</g>
<!-- Node18&#45;&gt;Node7 -->
<g id="edge41" class="edge">
<title>Node18&#45;&gt;Node7</title>
<path fill="none" stroke="#63b8ff" d="M1173.79,-162.59C1155.76,-153.87 1132.4,-142.45 1111.82,-132 1094.8,-123.36 1090.78,-120.75 1073.82,-112 1049.66,-99.54 1021.66,-85.44 1003.62,-76.39"/>
<polygon fill="#63b8ff" stroke="#63b8ff" points="1172.11,-165.66 1182.63,-166.85 1175.15,-159.36 1172.11,-165.66"/>
</g>
<!-- Node18&#45;&gt;Node8 -->
<g id="edge42" class="edge">
<title>Node18&#45;&gt;Node8</title>
<path fill="none" stroke="#63b8ff" d="M1113.2,-175.93C1015.24,-173.08 855.11,-163.45 720.82,-132 664.5,-118.81 601.84,-91 571.04,-76.4"/>
<polygon fill="#63b8ff" stroke="#63b8ff" points="1112.94,-179.43 1123.03,-176.2 1113.13,-172.43 1112.94,-179.43"/>
</g>
<!-- Node18&#45;&gt;Node9 -->
<g id="edge43" class="edge">
<title>Node18&#45;&gt;Node9</title>
<path fill="none" stroke="#63b8ff" d="M1284.84,-163.82C1302.06,-157.13 1318.22,-147.08 1328.82,-132 1349.43,-102.68 1305.51,-85.63 1264.18,-76.41"/>
<polygon fill="#63b8ff" stroke="#63b8ff" points="1283.76,-160.49 1275.45,-167.07 1286.05,-167.11 1283.76,-160.49"/>
</g>
<!-- Node19 -->
<g id="node19" class="node">
<title>Node19</title>
<g id="a_node19"><a xlink:href="FMTlpmodel_8hpp.html" target="_top" xlink:title=" ">
<polygon fill="white" stroke="#666666" points="886.32,-132 729.32,-132 729.32,-112 886.32,-112 886.32,-132"/>
<text text-anchor="middle" x="807.82" y="-118.5" font-family="Helvetica,sans-Serif" font-size="10.00">D:/FMT/Include/FMTlpmodel.hpp</text>
</a>
</g>
</g>
<!-- Node18&#45;&gt;Node19 -->
<g id="edge32" class="edge">
<title>Node18&#45;&gt;Node19</title>
<path fill="none" stroke="#63b8ff" d="M1123.07,-165.99C1050.74,-156.13 945.79,-141.81 877.17,-132.46"/>
<polygon fill="#63b8ff" stroke="#63b8ff" points="1122.51,-169.44 1132.89,-167.33 1123.46,-162.51 1122.51,-169.44"/>
</g>
<!-- Node20 -->
<g id="node20" class="node">
<title>Node20</title>
<g id="a_node20"><a xlink:href="FMTnssmodel_8hpp.html" target="_top" xlink:title=" ">
<polygon fill="white" stroke="#666666" points="1286.45,-132 1121.2,-132 1121.2,-112 1286.45,-112 1286.45,-132"/>
<text text-anchor="middle" x="1203.82" y="-118.5" font-family="Helvetica,sans-Serif" font-size="10.00">D:/FMT/Include/FMTnssmodel.hpp</text>
</a>
</g>
</g>
<!-- Node18&#45;&gt;Node20 -->
<g id="edge37" class="edge">
<title>Node18&#45;&gt;Node20</title>
<path fill="none" stroke="#63b8ff" d="M1203.82,-156.13C1203.82,-147.9 1203.82,-138.85 1203.82,-132.3"/>
<polygon fill="#63b8ff" stroke="#63b8ff" points="1200.32,-156.08 1203.82,-166.08 1207.32,-156.08 1200.32,-156.08"/>
</g>
<!-- Node19&#45;&gt;Node7 -->
<g id="edge34" class="edge">
<title>Node19&#45;&gt;Node7</title>
<path fill="none" stroke="#63b8ff" d="M849.43,-108.31C881.38,-98.56 924.79,-85.32 953.75,-76.48"/>
<polygon fill="#63b8ff" stroke="#63b8ff" points="848.64,-104.89 840.1,-111.15 850.69,-111.58 848.64,-104.89"/>
</g>
<!-- Node19&#45;&gt;Node8 -->
<g id="edge35" class="edge">
<title>Node19&#45;&gt;Node8</title>
<path fill="none" stroke="#63b8ff" d="M751.82,-109.19C705.25,-99.36 639.82,-85.56 596.65,-76.46"/>
<polygon fill="#63b8ff" stroke="#63b8ff" points="750.95,-112.58 761.46,-111.22 752.39,-105.73 750.95,-112.58"/>
</g>
<!-- Node19&#45;&gt;Node9 -->
<g id="edge36" class="edge">
<title>Node19&#45;&gt;Node9</title>
<path fill="none" stroke="#63b8ff" d="M888.57,-109.99C960.9,-100.13 1065.86,-85.81 1134.47,-76.46"/>
<polygon fill="#63b8ff" stroke="#63b8ff" points="888.19,-106.51 878.75,-111.33 889.13,-113.44 888.19,-106.51"/>
</g>
<!-- Node19&#45;&gt;Node11 -->
<g id="edge33" class="edge">
<title>Node19&#45;&gt;Node11</title>
<path fill="none" stroke="#63b8ff" d="M717.61,-110.48C632.98,-100.61 507.55,-85.98 425.99,-76.47"/>
<polygon fill="#63b8ff" stroke="#63b8ff" points="717.18,-113.95 727.51,-111.63 717.99,-107 717.18,-113.95"/>
</g>
<!-- Node20&#45;&gt;Node7 -->
<g id="edge38" class="edge">
<title>Node20&#45;&gt;Node7</title>
<path fill="none" stroke="#63b8ff" d="M1154.39,-108.81C1114.66,-99.01 1059.64,-85.45 1023.17,-76.46"/>
<polygon fill="#63b8ff" stroke="#63b8ff" points="1153.41,-112.17 1163.95,-111.17 1155.08,-105.38 1153.41,-112.17"/>
</g>
<!-- Node20&#45;&gt;Node8 -->
<g id="edge39" class="edge">
<title>Node20&#45;&gt;Node8</title>
<path fill="none" stroke="#63b8ff" d="M1109.6,-113.2C981.6,-102.6 754.86,-83.82 633.63,-73.78"/>
<polygon fill="#63b8ff" stroke="#63b8ff" points="1109.15,-116.67 1119.41,-114.01 1109.73,-109.69 1109.15,-116.67"/>
</g>
<!-- Node20&#45;&gt;Node9 -->
<g id="edge40" class="edge">
<title>Node20&#45;&gt;Node9</title>
<path fill="none" stroke="#63b8ff" d="M1203.82,-100.13C1203.82,-91.9 1203.82,-82.85 1203.82,-76.3"/>
<polygon fill="#63b8ff" stroke="#63b8ff" points="1200.32,-100.08 1203.82,-110.08 1207.32,-100.08 1200.32,-100.08"/>
</g>
</g>
</svg>
