<?xml version="1.0" encoding="UTF-8" standalone="no"?>
<!DOCTYPE svg PUBLIC "-//W3C//DTD SVG 1.1//EN"
 "http://www.w3.org/Graphics/SVG/1.1/DTD/svg11.dtd">
<!-- Generated by graphviz version 10.0.1 (20240210.2158)
 -->
<!-- Title: D:/FMT/Include/FMTmaskfilter.hpp Pages: 1 -->
<svg width="661pt" height="96pt"
 viewBox="0.00 0.00 660.62 96.00" xmlns="http://www.w3.org/2000/svg" xmlns:xlink="http://www.w3.org/1999/xlink">
<g id="graph0" class="graph" transform="scale(1 1) rotate(0) translate(4 92)">
<title>D:/FMT/Include/FMTmaskfilter.hpp</title>
<!-- Node1 -->
<g id="node1" class="node">
<title>Node1</title>
<g id="a_node1"><a xlink:title=" ">
<polygon fill="#999999" stroke="#666666" points="431.5,-88 266.25,-88 266.25,-68 431.5,-68 431.5,-88"/>
<text text-anchor="middle" x="348.88" y="-74.5" font-family="Helvetica,sans-Serif" font-size="10.00">D:/FMT/Include/FMTmaskfilter.hpp</text>
</a>
</g>
</g>
<!-- Node2 -->
<g id="node2" class="node">
<title>Node2</title>
<g id="a_node2"><a xlink:title=" ">
<polygon fill="#e0e0e0" stroke="#999999" points="127.75,-26 0,-26 0,-6 127.75,-6 127.75,-26"/>
<text text-anchor="middle" x="63.88" y="-12.5" font-family="Helvetica,sans-Serif" font-size="10.00">boost/dynamic_bitset.hpp</text>
</a>
</g>
</g>
<!-- Node1&#45;&gt;Node2 -->
<g id="edge1" class="edge">
<title>Node1&#45;&gt;Node2</title>
<path fill="none" stroke="#63b8ff" d="M304.03,-67.56C254.27,-57.08 173.91,-40.16 120.01,-28.82"/>
<polygon fill="#63b8ff" stroke="#63b8ff" points="120.92,-25.43 110.41,-26.8 119.47,-32.28 120.92,-25.43"/>
</g>
<!-- Node3 -->
<g id="node3" class="node">
<title>Node3</title>
<g id="a_node3"><a xlink:title=" ">
<polygon fill="#e0e0e0" stroke="#999999" points="240.25,-32 145.5,-32 145.5,0 240.25,0 240.25,-32"/>
<text text-anchor="start" x="153.5" y="-18.5" font-family="Helvetica,sans-Serif" font-size="10.00">boost/serialization</text>
<text text-anchor="middle" x="192.88" y="-6.5" font-family="Helvetica,sans-Serif" font-size="10.00">/serialization.hpp</text>
</a>
</g>
</g>
<!-- Node1&#45;&gt;Node3 -->
<g id="edge2" class="edge">
<title>Node1&#45;&gt;Node3</title>
<path fill="none" stroke="#63b8ff" d="M324.5,-67.62C302.94,-59.33 270.78,-46.96 243.65,-36.53"/>
<polygon fill="#63b8ff" stroke="#63b8ff" points="245.15,-33.36 234.56,-33.03 242.64,-39.89 245.15,-33.36"/>
</g>
<!-- Node4 -->
<g id="node4" class="node">
<title>Node4</title>
<g id="a_node4"><a xlink:title=" ">
<polygon fill="#e0e0e0" stroke="#999999" points="353.25,-32 258.5,-32 258.5,0 353.25,0 353.25,-32"/>
<text text-anchor="start" x="266.5" y="-18.5" font-family="Helvetica,sans-Serif" font-size="10.00">boost/serialization</text>
<text text-anchor="middle" x="305.88" y="-6.5" font-family="Helvetica,sans-Serif" font-size="10.00">/nvp.hpp</text>
</a>
</g>
</g>
<!-- Node1&#45;&gt;Node4 -->
<g id="edge3" class="edge">
<title>Node1&#45;&gt;Node4</title>
<path fill="none" stroke="#63b8ff" d="M342.16,-67.62C337.11,-60.58 329.95,-50.59 323.33,-41.35"/>
<polygon fill="#63b8ff" stroke="#63b8ff" points="326.28,-39.46 317.61,-33.37 320.59,-43.54 326.28,-39.46"/>
</g>
<!-- Node5 -->
<g id="node5" class="node">
<title>Node5</title>
<g id="a_node5"><a xlink:title=" ">
<polygon fill="#e0e0e0" stroke="#999999" points="412.62,-26 371.12,-26 371.12,-6 412.62,-6 412.62,-26"/>
<text text-anchor="middle" x="391.88" y="-12.5" font-family="Helvetica,sans-Serif" font-size="10.00">vector</text>
</a>
</g>
</g>
<!-- Node1&#45;&gt;Node5 -->
<g id="edge4" class="edge">
<title>Node1&#45;&gt;Node5</title>
<path fill="none" stroke="#63b8ff" d="M355.59,-67.62C361.75,-59.03 371.04,-46.07 378.68,-35.41"/>
<polygon fill="#63b8ff" stroke="#63b8ff" points="381.48,-37.51 384.46,-27.34 375.79,-33.43 381.48,-37.51"/>
</g>
<!-- Node6 -->
<g id="node6" class="node">
<title>Node6</title>
<g id="a_node6"><a xlink:title=" ">
<polygon fill="#e0e0e0" stroke="#999999" points="557.38,-26 430.38,-26 430.38,-6 557.38,-6 557.38,-26"/>
<text text-anchor="middle" x="493.88" y="-12.5" font-family="Helvetica,sans-Serif" font-size="10.00">boost/functional/hash.hpp</text>
</a>
</g>
</g>
<!-- Node1&#45;&gt;Node6 -->
<g id="edge5" class="edge">
<title>Node1&#45;&gt;Node6</title>
<path fill="none" stroke="#63b8ff" d="M371.53,-67.62C395.47,-57.72 433.47,-41.99 460.77,-30.7"/>
<polygon fill="#63b8ff" stroke="#63b8ff" points="462.08,-33.95 469.98,-26.89 459.4,-27.48 462.08,-33.95"/>
</g>
<!-- Node7 -->
<g id="node7" class="node">
<title>Node7</title>
<g id="a_node7"><a xlink:href="FMTutility_8hpp.html" target="_top" xlink:title=" ">
<polygon fill="white" stroke="#666666" points="652.62,-26 575.12,-26 575.12,-6 652.62,-6 652.62,-26"/>
<text text-anchor="middle" x="613.88" y="-12.5" font-family="Helvetica,sans-Serif" font-size="10.00">FMTutility.hpp</text>
</a>
</g>
</g>
<!-- Node1&#45;&gt;Node7 -->
<g id="edge6" class="edge">
<title>Node1&#45;&gt;Node7</title>
<path fill="none" stroke="#63b8ff" d="M402.55,-67.55C446.9,-59.36 511.36,-46.55 566.88,-32 569.63,-31.28 572.46,-30.49 575.3,-29.67"/>
<polygon fill="#63b8ff" stroke="#63b8ff" points="576.18,-33.06 584.73,-26.81 574.15,-26.36 576.18,-33.06"/>
</g>
</g>
</svg>
