<?xml version="1.0" encoding="UTF-8" standalone="no"?>
<!DOCTYPE svg PUBLIC "-//W3C//DTD SVG 1.1//EN"
 "http://www.w3.org/Graphics/SVG/1.1/DTD/svg11.dtd">
<!-- Generated by graphviz version 10.0.1 (20240210.2158)
 -->
<!-- Title: D:/FMT/Include/FMTMask.h Pages: 1 -->
<!--zoomable 220 -->
<svg id="main" version="1.1" xmlns="http://www.w3.org/2000/svg" xmlns:xlink="http://www.w3.org/1999/xlink" xml:space="preserve" onload="init(evt)">
<style type="text/css"><![CDATA[
.edge:hover path { stroke: red; }
.edge:hover polygon { stroke: red; fill: red; }
]]></style>
<script type="text/javascript"><![CDATA[
var edges = document.getElementsByTagName('g');
if (edges && edges.length) {
  for (var i=0;i<edges.length;i++) {
    if (edges[i].id.substr(0,4)=='edge') {
      edges[i].setAttribute('class','edge');
    }
  }
}
]]></script>
        <defs>
                <circle id="rim" cx="0" cy="0" r="7"/>
                <circle id="rim2" cx="0" cy="0" r="3.5"/>
                <g id="zoomPlus">
                        <use xlink:href="#rim" fill="#404040">
                                <set attributeName="fill" to="#808080" begin="zoomplus.mouseover" end="zoomplus.mouseout"/>
                        </use>
                        <path d="M-4,0h8M0,-4v8" fill="none" stroke="white" stroke-width="1.5" pointer-events="none"/>
                </g>
                <g id="zoomMin">
                        <use xlink:href="#rim" fill="#404040">
                                <set attributeName="fill" to="#808080" begin="zoomminus.mouseover" end="zoomminus.mouseout"/>
                        </use>
                        <path d="M-4,0h8" fill="none" stroke="white" stroke-width="1.5" pointer-events="none"/>
                </g>
                <g id="dirArrow">
                        <path fill="none" stroke="white" stroke-width="1.5" d="M0,-3.0v7 M-2.5,-0.5L0,-3.0L2.5,-0.5"/>
                </g>
               <g id="resetDef">
                       <use xlink:href="#rim2" fill="#404040">
                               <set attributeName="fill" to="#808080" begin="reset.mouseover" end="reset.mouseout"/>
                       </use>
               </g>
        </defs>

<script type="text/javascript">
var viewWidth = 1891;
var viewHeight = 220;
var sectionId = 'dynsection-0';
</script>
<script xlink:href="svgpan.js"/>
<svg id="graph" class="graph">
<g id="viewport">
<title>D:/FMT/Include/FMTMask.h</title>
<!-- Node1 -->
<g id="node1" class="node">
<title>Node1</title>
<g id="a_node1"><a xlink:title=" ">
<polygon fill="#999999" stroke="#666666" points="1053.25,-212 916.5,-212 916.5,-192 1053.25,-192 1053.25,-212"/>
<text text-anchor="middle" x="984.88" y="-198.5" font-family="Helvetica,sans-Serif" font-size="10.00">D:/FMT/Include/FMTMask.h</text>
</a>
</g>
</g>
<!-- Node2 -->
<g id="node2" class="node">
<title>Node2</title>
<g id="a_node2"><a xlink:title=" ">
<polygon fill="#e0e0e0" stroke="#999999" points="127.75,-150 0,-150 0,-130 127.75,-130 127.75,-150"/>
<text text-anchor="middle" x="63.88" y="-136.5" font-family="Helvetica,sans-Serif" font-size="10.00">boost/dynamic_bitset.hpp</text>
</a>
</g>
</g>
<!-- Node1&#45;&gt;Node2 -->
<g id="edge1" class="edge">
<title>Node1&#45;&gt;Node2</title>
<path fill="none" stroke="#63b8ff" d="M916.14,-200.83C771.38,-199.71 424.76,-193 136.88,-156 130.05,-155.12 122.91,-153.96 115.89,-152.68"/>
<polygon fill="#63b8ff" stroke="#63b8ff" points="116.59,-149.25 106.11,-150.78 115.26,-156.12 116.59,-149.25"/>
</g>
<!-- Node3 -->
<g id="node3" class="node">
<title>Node3</title>
<g id="a_node3"><a xlink:title=" ">
<polygon fill="#e0e0e0" stroke="#999999" points="274.12,-150 145.62,-150 145.62,-130 274.12,-130 274.12,-150"/>
<text text-anchor="middle" x="209.88" y="-136.5" font-family="Helvetica,sans-Serif" font-size="10.00">boost/unordered_map.hpp</text>
</a>
</g>
</g>
<!-- Node1&#45;&gt;Node3 -->
<g id="edge2" class="edge">
<title>Node1&#45;&gt;Node3</title>
<path fill="none" stroke="#63b8ff" d="M916.41,-199.69C790.62,-196.6 514.47,-186.63 283.88,-156 277.05,-155.09 269.91,-153.93 262.87,-152.65"/>
<polygon fill="#63b8ff" stroke="#63b8ff" points="263.55,-149.21 253.07,-150.77 262.23,-156.09 263.55,-149.21"/>
</g>
<!-- Node4 -->
<g id="node4" class="node">
<title>Node4</title>
<g id="a_node4"><a xlink:title=" ">
<polygon fill="#e0e0e0" stroke="#999999" points="421.12,-150 292.62,-150 292.62,-130 421.12,-130 421.12,-150"/>
<text text-anchor="middle" x="356.88" y="-136.5" font-family="Helvetica,sans-Serif" font-size="10.00">boost/algorithm/string.hpp</text>
</a>
</g>
</g>
<!-- Node1&#45;&gt;Node4 -->
<g id="edge3" class="edge">
<title>Node1&#45;&gt;Node4</title>
<path fill="none" stroke="#63b8ff" d="M916.22,-198.13C811.08,-193.12 604.05,-180.86 429.88,-156 423.31,-155.06 416.45,-153.9 409.67,-152.64"/>
<polygon fill="#63b8ff" stroke="#63b8ff" points="410.38,-149.21 399.9,-150.74 409.05,-156.08 410.38,-149.21"/>
</g>
<!-- Node5 -->
<g id="node5" class="node">
<title>Node5</title>
<g id="a_node5"><a xlink:title=" ">
<polygon fill="#e0e0e0" stroke="#999999" points="548.75,-156 439,-156 439,-124 548.75,-124 548.75,-156"/>
<text text-anchor="start" x="447" y="-142.5" font-family="Helvetica,sans-Serif" font-size="10.00">boost/algorithm/string</text>
<text text-anchor="middle" x="493.88" y="-130.5" font-family="Helvetica,sans-Serif" font-size="10.00">/join.hpp</text>
</a>
</g>
</g>
<!-- Node1&#45;&gt;Node5 -->
<g id="edge4" class="edge">
<title>Node1&#45;&gt;Node5</title>
<path fill="none" stroke="#63b8ff" d="M916.31,-196.53C833.79,-190.54 690.89,-178.22 560.11,-156.44"/>
<polygon fill="#63b8ff" stroke="#63b8ff" points="561.04,-153.04 550.6,-154.83 559.88,-159.95 561.04,-153.04"/>
</g>
<!-- Node6 -->
<g id="node6" class="node">
<title>Node6</title>
<g id="a_node6"><a xlink:title=" ">
<polygon fill="#e0e0e0" stroke="#999999" points="693.38,-150 566.38,-150 566.38,-130 693.38,-130 693.38,-150"/>
<text text-anchor="middle" x="629.88" y="-136.5" font-family="Helvetica,sans-Serif" font-size="10.00">boost/functional/hash.hpp</text>
</a>
</g>
</g>
<!-- Node1&#45;&gt;Node6 -->
<g id="edge5" class="edge">
<title>Node1&#45;&gt;Node6</title>
<path fill="none" stroke="#63b8ff" d="M920.34,-191.53C863.09,-182.94 777.25,-169.57 702.88,-156 697.21,-154.97 691.31,-153.84 685.43,-152.68"/>
<polygon fill="#63b8ff" stroke="#63b8ff" points="686.18,-149.26 675.69,-150.73 684.81,-156.13 686.18,-149.26"/>
</g>
<!-- Node7 -->
<g id="node7" class="node">
<title>Node7</title>
<g id="a_node7"><a xlink:title=" ">
<polygon fill="#e0e0e0" stroke="#999999" points="806.25,-156 711.5,-156 711.5,-124 806.25,-124 806.25,-156"/>
<text text-anchor="start" x="719.5" y="-142.5" font-family="Helvetica,sans-Serif" font-size="10.00">boost/serialization</text>
<text text-anchor="middle" x="758.88" y="-130.5" font-family="Helvetica,sans-Serif" font-size="10.00">/serialization.hpp</text>
</a>
</g>
</g>
<!-- Node1&#45;&gt;Node7 -->
<g id="edge6" class="edge">
<title>Node1&#45;&gt;Node7</title>
<path fill="none" stroke="#63b8ff" d="M949.31,-191.56C913.94,-182.17 859.06,-167.6 817.28,-156.51"/>
<polygon fill="#63b8ff" stroke="#63b8ff" points="818.44,-153.19 807.88,-154.01 816.65,-159.96 818.44,-153.19"/>
</g>
<!-- Node8 -->
<g id="node8" class="node">
<title>Node8</title>
<g id="a_node8"><a xlink:title=" ">
<polygon fill="#e0e0e0" stroke="#999999" points="919.25,-156 824.5,-156 824.5,-124 919.25,-124 919.25,-156"/>
<text text-anchor="start" x="832.5" y="-142.5" font-family="Helvetica,sans-Serif" font-size="10.00">boost/serialization</text>
<text text-anchor="middle" x="871.88" y="-130.5" font-family="Helvetica,sans-Serif" font-size="10.00">/split_free.hpp</text>
</a>
</g>
</g>
<!-- Node1&#45;&gt;Node8 -->
<g id="edge7" class="edge">
<title>Node1&#45;&gt;Node8</title>
<path fill="none" stroke="#63b8ff" d="M967.22,-191.62C952.17,-183.63 930,-171.86 910.82,-161.68"/>
<polygon fill="#63b8ff" stroke="#63b8ff" points="912.64,-158.68 902.17,-157.08 909.36,-164.86 912.64,-158.68"/>
</g>
<!-- Node9 -->
<g id="node9" class="node">
<title>Node9</title>
<g id="a_node9"><a xlink:title=" ">
<polygon fill="#e0e0e0" stroke="#999999" points="1032.25,-156 937.5,-156 937.5,-124 1032.25,-124 1032.25,-156"/>
<text text-anchor="start" x="945.5" y="-142.5" font-family="Helvetica,sans-Serif" font-size="10.00">boost/serialization</text>
<text text-anchor="middle" x="984.88" y="-130.5" font-family="Helvetica,sans-Serif" font-size="10.00">/nvp.hpp</text>
</a>
</g>
</g>
<!-- Node1&#45;&gt;Node9 -->
<g id="edge8" class="edge">
<title>Node1&#45;&gt;Node9</title>
<path fill="none" stroke="#63b8ff" d="M984.88,-191.62C984.88,-185.1 984.88,-176.05 984.88,-167.4"/>
<polygon fill="#63b8ff" stroke="#63b8ff" points="988.38,-167.65 984.88,-157.65 981.38,-167.65 988.38,-167.65"/>
</g>
<!-- Node10 -->
<g id="node10" class="node">
<title>Node10</title>
<g id="a_node10"><a xlink:title=" ">
<polygon fill="#e0e0e0" stroke="#999999" points="1145.25,-156 1050.5,-156 1050.5,-124 1145.25,-124 1145.25,-156"/>
<text text-anchor="start" x="1058.5" y="-142.5" font-family="Helvetica,sans-Serif" font-size="10.00">boost/serialization</text>
<text text-anchor="middle" x="1097.88" y="-130.5" font-family="Helvetica,sans-Serif" font-size="10.00">/export.hpp</text>
</a>
</g>
</g>
<!-- Node1&#45;&gt;Node10 -->
<g id="edge9" class="edge">
<title>Node1&#45;&gt;Node10</title>
<path fill="none" stroke="#63b8ff" d="M1002.53,-191.62C1017.58,-183.63 1039.75,-171.86 1058.93,-161.68"/>
<polygon fill="#63b8ff" stroke="#63b8ff" points="1060.39,-164.86 1067.58,-157.08 1057.11,-158.68 1060.39,-164.86"/>
</g>
<!-- Node11 -->
<g id="node11" class="node">
<title>Node11</title>
<g id="a_node11"><a xlink:title=" ">
<polygon fill="#e0e0e0" stroke="#999999" points="1220.25,-88 1125.5,-88 1125.5,-56 1220.25,-56 1220.25,-88"/>
<text text-anchor="start" x="1133.5" y="-74.5" font-family="Helvetica,sans-Serif" font-size="10.00">boost/serialization</text>
<text text-anchor="middle" x="1172.88" y="-62.5" font-family="Helvetica,sans-Serif" font-size="10.00">/string.hpp</text>
</a>
</g>
</g>
<!-- Node1&#45;&gt;Node11 -->
<g id="edge10" class="edge">
<title>Node1&#45;&gt;Node11</title>
<path fill="none" stroke="#63b8ff" d="M1053.74,-198.88C1088.23,-194.21 1128.04,-182.76 1153.88,-156 1168.21,-141.15 1172.56,-117.82 1173.55,-99.66"/>
<polygon fill="#63b8ff" stroke="#63b8ff" points="1177.05,-99.94 1173.76,-89.87 1170.05,-99.8 1177.05,-99.94"/>
</g>
<!-- Node12 -->
<g id="node12" class="node">
<title>Node12</title>
<g id="a_node12"><a xlink:title=" ">
<polygon fill="#e0e0e0" stroke="#999999" points="1295.25,-156 1200.5,-156 1200.5,-124 1295.25,-124 1295.25,-156"/>
<text text-anchor="start" x="1208.5" y="-142.5" font-family="Helvetica,sans-Serif" font-size="10.00">boost/serialization</text>
<text text-anchor="middle" x="1247.88" y="-130.5" font-family="Helvetica,sans-Serif" font-size="10.00">/vector.hpp</text>
</a>
</g>
</g>
<!-- Node1&#45;&gt;Node12 -->
<g id="edge11" class="edge">
<title>Node1&#45;&gt;Node12</title>
<path fill="none" stroke="#63b8ff" d="M1028.68,-191.53C1069.64,-182.61 1132.48,-168.75 1186.88,-156 1187.69,-155.81 1188.51,-155.62 1189.34,-155.42"/>
<polygon fill="#63b8ff" stroke="#63b8ff" points="1189.89,-158.89 1198.81,-153.16 1188.27,-152.08 1189.89,-158.89"/>
</g>
<!-- Node13 -->
<g id="node13" class="node">
<title>Node13</title>
<g id="a_node13"><a xlink:title=" ">
<polygon fill="#e0e0e0" stroke="#999999" points="1422.38,-156 1313.38,-156 1313.38,-124 1422.38,-124 1422.38,-156"/>
<text text-anchor="start" x="1321.38" y="-142.5" font-family="Helvetica,sans-Serif" font-size="10.00">boost/dynamic_bitset</text>
<text text-anchor="middle" x="1367.88" y="-130.5" font-family="Helvetica,sans-Serif" font-size="10.00">/serialization.hpp</text>
</a>
</g>
</g>
<!-- Node1&#45;&gt;Node13 -->
<g id="edge12" class="edge">
<title>Node1&#45;&gt;Node13</title>
<path fill="none" stroke="#63b8ff" d="M1053.62,-193.12C1115.89,-185.57 1210.38,-173.09 1301.98,-156.25"/>
<polygon fill="#63b8ff" stroke="#63b8ff" points="1302.45,-159.72 1311.64,-154.45 1301.17,-152.84 1302.45,-159.72"/>
</g>
<!-- Node14 -->
<g id="node14" class="node">
<title>Node14</title>
<g id="a_node14"><a xlink:href="FMTException_8h.html" target="_top" xlink:title=" ">
<polygon fill="white" stroke="#666666" points="1527.5,-150 1440.25,-150 1440.25,-130 1527.5,-130 1527.5,-150"/>
<text text-anchor="middle" x="1483.88" y="-136.5" font-family="Helvetica,sans-Serif" font-size="10.00">FMTException.h</text>
</a>
</g>
</g>
<!-- Node1&#45;&gt;Node14 -->
<g id="edge13" class="edge">
<title>Node1&#45;&gt;Node14</title>
<path fill="none" stroke="#63b8ff" d="M1053.41,-197.82C1141.43,-192.88 1298.62,-181.19 1430.88,-156 1434.75,-155.26 1438.75,-154.37 1442.74,-153.4"/>
<polygon fill="#63b8ff" stroke="#63b8ff" points="1443.58,-156.8 1452.36,-150.88 1441.8,-150.03 1443.58,-156.8"/>
</g>
<!-- Node16 -->
<g id="node16" class="node">
<title>Node16</title>
<g id="a_node16"><a xlink:title=" ">
<polygon fill="#e0e0e0" stroke="#999999" points="1545.88,-20 1505.88,-20 1505.88,0 1545.88,0 1545.88,-20"/>
<text text-anchor="middle" x="1525.88" y="-6.5" font-family="Helvetica,sans-Serif" font-size="10.00">string</text>
</a>
</g>
</g>
<!-- Node1&#45;&gt;Node16 -->
<g id="edge24" class="edge">
<title>Node1&#45;&gt;Node16</title>
<path fill="none" stroke="#63b8ff" d="M1053.35,-199.32C1158.17,-195.86 1364.4,-185.61 1536.88,-156 1653.32,-136.01 1721.8,-181.62 1793.88,-88 1802.55,-76.73 1803.06,-66.86 1793.88,-56 1763.89,-20.56 1621.6,-13.01 1557.42,-11.42"/>
<polygon fill="#63b8ff" stroke="#63b8ff" points="1557.61,-7.92 1547.54,-11.21 1557.47,-14.92 1557.61,-7.92"/>
</g>
<!-- Node22 -->
<g id="node22" class="node">
<title>Node22</title>
<g id="a_node22"><a xlink:title=" ">
<polygon fill="#e0e0e0" stroke="#999999" points="1882.62,-150 1841.12,-150 1841.12,-130 1882.62,-130 1882.62,-150"/>
<text text-anchor="middle" x="1861.88" y="-136.5" font-family="Helvetica,sans-Serif" font-size="10.00">vector</text>
</a>
</g>
</g>
<!-- Node1&#45;&gt;Node22 -->
<g id="edge23" class="edge">
<title>Node1&#45;&gt;Node22</title>
<path fill="none" stroke="#63b8ff" d="M1053.46,-200.42C1227.06,-198.47 1680.48,-190.14 1826.88,-156 1828.78,-155.56 1830.71,-155.01 1832.63,-154.4"/>
<polygon fill="#63b8ff" stroke="#63b8ff" points="1833.86,-157.68 1841.98,-150.88 1831.39,-151.13 1833.86,-157.68"/>
</g>
<!-- Node14&#45;&gt;Node11 -->
<g id="edge22" class="edge">
<title>Node14&#45;&gt;Node11</title>
<path fill="none" stroke="#63b8ff" d="M1452.34,-129.52C1445.31,-127.56 1437.86,-125.61 1430.88,-124 1345.47,-104.36 1319.87,-107.52 1231.56,-88.48"/>
<polygon fill="#63b8ff" stroke="#63b8ff" points="1232.46,-85.09 1221.94,-86.37 1230.96,-91.93 1232.46,-85.09"/>
</g>
<!-- Node15 -->
<g id="node15" class="node">
<title>Node15</title>
<g id="a_node15"><a xlink:title=" ">
<polygon fill="#e0e0e0" stroke="#999999" points="1295.88,-82 1237.88,-82 1237.88,-62 1295.88,-62 1295.88,-82"/>
<text text-anchor="middle" x="1266.88" y="-68.5" font-family="Helvetica,sans-Serif" font-size="10.00">exception</text>
</a>
</g>
</g>
<!-- Node14&#45;&gt;Node15 -->
<g id="edge14" class="edge">
<title>Node14&#45;&gt;Node15</title>
<path fill="none" stroke="#63b8ff" d="M1450.88,-129.55C1408.19,-117.27 1336.18,-96.44 1309.88,-88 1307.93,-87.38 1305.93,-86.72 1303.92,-86.06"/>
<polygon fill="#63b8ff" stroke="#63b8ff" points="1305.21,-82.8 1294.62,-82.9 1302.96,-89.43 1305.21,-82.8"/>
</g>
<!-- Node14&#45;&gt;Node16 -->
<g id="edge15" class="edge">
<title>Node14&#45;&gt;Node16</title>
<path fill="none" stroke="#63b8ff" d="M1451.74,-129.51C1412.18,-117.5 1349.38,-97.27 1342.88,-88 1334.71,-76.36 1334.1,-67.19 1342.88,-56 1361.35,-32.43 1446.98,-19.56 1494.28,-14.14"/>
<polygon fill="#63b8ff" stroke="#63b8ff" points="1494.62,-17.62 1504.18,-13.05 1493.86,-10.66 1494.62,-17.62"/>
</g>
<!-- Node17 -->
<g id="node17" class="node">
<title>Node17</title>
<g id="a_node17"><a xlink:title=" ">
<polygon fill="#e0e0e0" stroke="#999999" points="1405.62,-82 1352.12,-82 1352.12,-62 1405.62,-62 1405.62,-82"/>
<text text-anchor="middle" x="1378.88" y="-68.5" font-family="Helvetica,sans-Serif" font-size="10.00">iostream</text>
</a>
</g>
</g>
<!-- Node14&#45;&gt;Node17 -->
<g id="edge16" class="edge">
<title>Node14&#45;&gt;Node17</title>
<path fill="none" stroke="#63b8ff" d="M1468.83,-129.54C1451.76,-118.81 1423.65,-101.14 1403.39,-88.41"/>
<polygon fill="#63b8ff" stroke="#63b8ff" points="1405.5,-85.6 1395.17,-83.24 1401.78,-91.53 1405.5,-85.6"/>
</g>
<!-- Node18 -->
<g id="node18" class="node">
<title>Node18</title>
<g id="a_node18"><a xlink:title=" ">
<polygon fill="#e0e0e0" stroke="#999999" points="1474.5,-82 1423.25,-82 1423.25,-62 1474.5,-62 1474.5,-82"/>
<text text-anchor="middle" x="1448.88" y="-68.5" font-family="Helvetica,sans-Serif" font-size="10.00">memory</text>
</a>
</g>
</g>
<!-- Node14&#45;&gt;Node18 -->
<g id="edge17" class="edge">
<title>Node14&#45;&gt;Node18</title>
<path fill="none" stroke="#63b8ff" d="M1478.86,-129.54C1473.77,-119.94 1465.73,-104.78 1459.25,-92.57"/>
<polygon fill="#63b8ff" stroke="#63b8ff" points="1462.37,-90.97 1454.59,-83.78 1456.18,-94.25 1462.37,-90.97"/>
</g>
<!-- Node19 -->
<g id="node19" class="node">
<title>Node19</title>
<g id="a_node19"><a xlink:href="FMTutility_8h.html" target="_top" xlink:title=" ">
<polygon fill="white" stroke="#666666" points="1559.38,-82 1492.38,-82 1492.38,-62 1559.38,-62 1559.38,-82"/>
<text text-anchor="middle" x="1525.88" y="-68.5" font-family="Helvetica,sans-Serif" font-size="10.00">FMTutility.h</text>
</a>
</g>
</g>
<!-- Node14&#45;&gt;Node19 -->
<g id="edge18" class="edge">
<title>Node14&#45;&gt;Node19</title>
<path fill="none" stroke="#63b8ff" d="M1489.89,-129.54C1496.13,-119.74 1506.05,-104.16 1513.89,-91.83"/>
<polygon fill="#63b8ff" stroke="#63b8ff" points="1516.64,-94.03 1519.06,-83.72 1510.73,-90.27 1516.64,-94.03"/>
</g>
<!-- Node20 -->
<g id="node20" class="node">
<title>Node20</title>
<g id="a_node20"><a xlink:title=" ">
<polygon fill="#e0e0e0" stroke="#999999" points="1672.25,-88 1577.5,-88 1577.5,-56 1672.25,-56 1672.25,-88"/>
<text text-anchor="start" x="1585.5" y="-74.5" font-family="Helvetica,sans-Serif" font-size="10.00">boost/serialization</text>
<text text-anchor="middle" x="1624.88" y="-62.5" font-family="Helvetica,sans-Serif" font-size="10.00">/access.hpp</text>
</a>
</g>
</g>
<!-- Node14&#45;&gt;Node20 -->
<g id="edge20" class="edge">
<title>Node14&#45;&gt;Node20</title>
<path fill="none" stroke="#63b8ff" d="M1504.08,-129.54C1524.22,-120.11 1555.8,-105.33 1581.62,-93.25"/>
<polygon fill="#63b8ff" stroke="#63b8ff" points="1582.97,-96.48 1590.54,-89.07 1580,-90.14 1582.97,-96.48"/>
</g>
<!-- Node21 -->
<g id="node21" class="node">
<title>Node21</title>
<g id="a_node21"><a xlink:title=" ">
<polygon fill="#e0e0e0" stroke="#999999" points="1785.25,-88 1690.5,-88 1690.5,-56 1785.25,-56 1785.25,-88"/>
<text text-anchor="start" x="1698.5" y="-74.5" font-family="Helvetica,sans-Serif" font-size="10.00">boost/serialization</text>
<text text-anchor="middle" x="1737.88" y="-62.5" font-family="Helvetica,sans-Serif" font-size="10.00">/base_object.hpp</text>
</a>
</g>
</g>
<!-- Node14&#45;&gt;Node21 -->
<g id="edge21" class="edge">
<title>Node14&#45;&gt;Node21</title>
<path fill="none" stroke="#63b8ff" d="M1520.56,-129.55C1557.89,-119.92 1617.72,-104.47 1679.2,-88.43"/>
<polygon fill="#63b8ff" stroke="#63b8ff" points="1680.04,-91.83 1688.83,-85.92 1678.27,-85.06 1680.04,-91.83"/>
</g>
<!-- Node19&#45;&gt;Node16 -->
<g id="edge19" class="edge">
<title>Node19&#45;&gt;Node16</title>
<path fill="none" stroke="#63b8ff" d="M1525.88,-61.62C1525.88,-53.56 1525.88,-41.65 1525.88,-31.41"/>
<polygon fill="#63b8ff" stroke="#63b8ff" points="1529.38,-31.63 1525.88,-21.63 1522.38,-31.63 1529.38,-31.63"/>
</g>
</g>
</svg>
        <g id="navigator" transform="translate(0 0)" fill="#404254">
                <rect fill="#f2f5e9" fill-opacity="0.5" stroke="#606060" stroke-width=".5" x="0" y="0" width="60" height="60"/>
                <use id="zoomplus" xlink:href="#zoomPlus" x="17" y="9" onmousedown="handleZoom(evt,'in')"/>
                <use id="zoomminus" xlink:href="#zoomMin" x="42" y="9" onmousedown="handleZoom(evt,'out')"/>
                <use id="reset" xlink:href="#resetDef" x="30" y="36" onmousedown="handleReset()"/>
                <g id="arrowUp" xlink:href="#dirArrow" transform="translate(30 24)" onmousedown="handlePan(0,-1)">
                  <use xlink:href="#rim" fill="#404040">
                        <set attributeName="fill" to="#808080" begin="arrowUp.mouseover" end="arrowUp.mouseout"/>
                  </use>
                  <path fill="none" stroke="white" stroke-width="1.5" d="M0,-3.0v7 M-2.5,-0.5L0,-3.0L2.5,-0.5"/>
                </g>
                <g id="arrowRight" xlink:href="#dirArrow" transform="rotate(90) translate(36 -43)" onmousedown="handlePan(1,0)">
                  <use xlink:href="#rim" fill="#404040">
                        <set attributeName="fill" to="#808080" begin="arrowRight.mouseover" end="arrowRight.mouseout"/>
                  </use>
                  <path fill="none" stroke="white" stroke-width="1.5" d="M0,-3.0v7 M-2.5,-0.5L0,-3.0L2.5,-0.5"/>
                </g>
                <g id="arrowDown" xlink:href="#dirArrow" transform="rotate(180) translate(-30 -48)" onmousedown="handlePan(0,1)">
                  <use xlink:href="#rim" fill="#404040">
                        <set attributeName="fill" to="#808080" begin="arrowDown.mouseover" end="arrowDown.mouseout"/>
                  </use>
                  <path fill="none" stroke="white" stroke-width="1.5" d="M0,-3.0v7 M-2.5,-0.5L0,-3.0L2.5,-0.5"/>
                </g>
                <g id="arrowLeft" xlink:href="#dirArrow" transform="rotate(270) translate(-36 17)" onmousedown="handlePan(-1,0)">
                  <use xlink:href="#rim" fill="#404040">
                        <set attributeName="fill" to="#808080" begin="arrowLeft.mouseover" end="arrowLeft.mouseout"/>
                  </use>
                  <path fill="none" stroke="white" stroke-width="1.5" d="M0,-3.0v7 M-2.5,-0.5L0,-3.0L2.5,-0.5"/>
                </g>
        </g>
        <svg viewBox="0 0 15 15" width="100%" height="30px" preserveAspectRatio="xMaxYMin meet">
         <g id="arrow_out" transform="scale(0.3 0.3)">
          <a xlink:href="FMTMask_8h__incl_org.svg" target="_base">
           <rect id="button" ry="5" rx="5" y="6" x="6" height="38" width="38"
                fill="#f2f5e9" fill-opacity="0.5" stroke="#606060" stroke-width="1.0"/>
           <path id="arrow"
             d="M 11.500037,31.436501 C 11.940474,20.09759 22.043105,11.32322 32.158766,21.979434 L 37.068811,17.246167 C 37.068811,17.246167 37.088388,32 37.088388,32 L 22.160133,31.978069 C 22.160133,31.978069 26.997745,27.140456 26.997745,27.140456 C 18.528582,18.264221 13.291696,25.230495 11.500037,31.436501 z"
             style="fill:#404040;"/>
          </a>
         </g>
        </svg>
</svg>
