<?xml version="1.0" encoding="UTF-8" standalone="no"?>
<!DOCTYPE svg PUBLIC "-//W3C//DTD SVG 1.1//EN"
 "http://www.w3.org/Graphics/SVG/1.1/DTD/svg11.dtd">
<!-- Generated by graphviz version 8.1.0 (20230707.0739)
 -->
<!-- Title: C:/Temp/out/FMT/Include/FMTmodelparameters.hpp Pages: 1 -->
<svg width="1224pt" height="300pt"
 viewBox="0.00 0.00 1224.25 300.00" xmlns="http://www.w3.org/2000/svg" xmlns:xlink="http://www.w3.org/1999/xlink">
<g id="graph0" class="graph" transform="scale(1 1) rotate(0) translate(4 296)">
<title>C:/Temp/out/FMT/Include/FMTmodelparameters.hpp</title>
<!-- Node1 -->
<g id="Node000001" class="node">
<title>Node1</title>
<g id="a_Node000001"><a xlink:title=" ">
<polygon fill="#999999" stroke="#666666" points="991.5,-292 859.25,-292 859.25,-260 991.5,-260 991.5,-292"/>
<text text-anchor="start" x="867.25" y="-278.5" font-family="Helvetica,sans-Serif" font-size="10.00">C:/Temp/out/FMT/Include</text>
<text text-anchor="middle" x="925.38" y="-266.5" font-family="Helvetica,sans-Serif" font-size="10.00">/FMTmodelparameters.hpp</text>
</a>
</g>
</g>
<!-- Node2 -->
<g id="Node000002" class="node">
<title>Node2</title>
<g id="a_Node000002"><a xlink:href="FMTexceptionhandler_8hpp.html" target="_top" xlink:title=" ">
<polygon fill="white" stroke="#666666" points="498.25,-218 370.5,-218 370.5,-198 498.25,-198 498.25,-218"/>
<text text-anchor="middle" x="434.38" y="-204.5" font-family="Helvetica,sans-Serif" font-size="10.00">FMTexceptionhandler.hpp</text>
</a>
</g>
</g>
<!-- Node1&#45;&gt;Node2 -->
<g id="edge1_Node000001_Node000002" class="edge">
<title>Node1&#45;&gt;Node2</title>
<g id="a_edge1_Node000001_Node000002"><a xlink:title=" ">
<path fill="none" stroke="#63b8ff" d="M858.9,-266.06C767.83,-253.82 604.75,-231.9 509.4,-219.09"/>
<polygon fill="#63b8ff" stroke="#63b8ff" points="510.07,-215.51 499.69,-217.65 509.14,-222.45 510.07,-215.51"/>
</a>
</g>
</g>
<!-- Node4 -->
<g id="Node000004" class="node">
<title>Node4</title>
<g id="a_Node000004"><a xlink:title=" ">
<polygon fill="#e0e0e0" stroke="#999999" points="675.75,-88 581,-88 581,-56 675.75,-56 675.75,-88"/>
<text text-anchor="start" x="589" y="-74.5" font-family="Helvetica,sans-Serif" font-size="10.00">boost/serialization</text>
<text text-anchor="middle" x="628.38" y="-62.5" font-family="Helvetica,sans-Serif" font-size="10.00">/export.hpp</text>
</a>
</g>
</g>
<!-- Node1&#45;&gt;Node4 -->
<g id="edge29_Node000001_Node000004" class="edge">
<title>Node1&#45;&gt;Node4</title>
<g id="a_edge29_Node000001_Node000004"><a xlink:title=" ">
<path fill="none" stroke="#63b8ff" d="M882.93,-259.57C860.13,-250.53 831.94,-238.13 808.38,-224 745.81,-186.49 682.81,-127.69 650.52,-95.66"/>
<polygon fill="#63b8ff" stroke="#63b8ff" points="653.53,-93.72 643.99,-89.12 648.58,-98.67 653.53,-93.72"/>
</a>
</g>
</g>
<!-- Node18 -->
<g id="Node000018" class="node">
<title>Node18</title>
<g id="a_Node000018"><a xlink:href="FMTobject_8hpp.html" target="_top" xlink:title=" ">
<polygon fill="white" stroke="#666666" points="897.62,-218 817.12,-218 817.12,-198 897.62,-198 897.62,-218"/>
<text text-anchor="middle" x="857.38" y="-204.5" font-family="Helvetica,sans-Serif" font-size="10.00">FMTobject.hpp</text>
</a>
</g>
</g>
<!-- Node1&#45;&gt;Node18 -->
<g id="edge20_Node000001_Node000018" class="edge">
<title>Node1&#45;&gt;Node18</title>
<g id="a_edge20_Node000001_Node000018"><a xlink:title=" ">
<path fill="none" stroke="#63b8ff" d="M909.6,-259.69C899.2,-249.6 885.57,-236.36 874.84,-225.95"/>
<polygon fill="#63b8ff" stroke="#63b8ff" points="877.59,-223.77 867.97,-219.32 872.71,-228.79 877.59,-223.77"/>
</a>
</g>
</g>
<!-- Node21 -->
<g id="Node000021" class="node">
<title>Node21</title>
<g id="a_Node000021"><a xlink:title=" ">
<polygon fill="#e0e0e0" stroke="#999999" points="1167.12,-150 1125.62,-150 1125.62,-130 1167.12,-130 1167.12,-150"/>
<text text-anchor="middle" x="1146.38" y="-136.5" font-family="Helvetica,sans-Serif" font-size="10.00">vector</text>
</a>
</g>
</g>
<!-- Node1&#45;&gt;Node21 -->
<g id="edge33_Node000001_Node000021" class="edge">
<title>Node1&#45;&gt;Node21</title>
<g id="a_edge33_Node000001_Node000021"><a xlink:title=" ">
<path fill="none" stroke="#63b8ff" d="M924.31,-259.81C923.89,-241.16 926.23,-209.81 944.38,-192 1000.12,-137.29 1042.62,-181.68 1116.38,-156 1117.47,-155.62 1118.59,-155.2 1119.7,-154.76"/>
<polygon fill="#63b8ff" stroke="#63b8ff" points="1120.87,-157.63 1128.57,-150.35 1118.01,-151.24 1120.87,-157.63"/>
</a>
</g>
</g>
<!-- Node23 -->
<g id="Node000023" class="node">
<title>Node23</title>
<g id="a_Node000023"><a xlink:title=" ">
<polygon fill="#e0e0e0" stroke="#999999" points="1047.75,-224 953,-224 953,-192 1047.75,-192 1047.75,-224"/>
<text text-anchor="start" x="961" y="-210.5" font-family="Helvetica,sans-Serif" font-size="10.00">boost/serialization</text>
<text text-anchor="middle" x="1000.38" y="-198.5" font-family="Helvetica,sans-Serif" font-size="10.00">/array.hpp</text>
</a>
</g>
</g>
<!-- Node1&#45;&gt;Node23 -->
<g id="edge30_Node000001_Node000023" class="edge">
<title>Node1&#45;&gt;Node23</title>
<g id="a_edge30_Node000001_Node000023"><a xlink:title=" ">
<path fill="none" stroke="#63b8ff" d="M942.77,-259.69C952.26,-251.34 964.19,-240.84 974.73,-231.56"/>
<polygon fill="#63b8ff" stroke="#63b8ff" points="976.62,-233.69 981.81,-224.45 972,-228.43 976.62,-233.69"/>
</a>
</g>
</g>
<!-- Node24 -->
<g id="Node000024" class="node">
<title>Node24</title>
<g id="a_Node000024"><a xlink:title=" ">
<polygon fill="#e0e0e0" stroke="#999999" points="1160.75,-224 1066,-224 1066,-192 1160.75,-192 1160.75,-224"/>
<text text-anchor="start" x="1074" y="-210.5" font-family="Helvetica,sans-Serif" font-size="10.00">boost/serialization</text>
<text text-anchor="middle" x="1113.38" y="-198.5" font-family="Helvetica,sans-Serif" font-size="10.00">/vector.hpp</text>
</a>
</g>
</g>
<!-- Node1&#45;&gt;Node24 -->
<g id="edge31_Node000001_Node000024" class="edge">
<title>Node1&#45;&gt;Node24</title>
<g id="a_edge31_Node000001_Node000024"><a xlink:title=" ">
<path fill="none" stroke="#63b8ff" d="M969.45,-259.53C996.23,-250.13 1030.61,-238.05 1059.06,-228.07"/>
<polygon fill="#63b8ff" stroke="#63b8ff" points="1059.97,-231.11 1068.25,-224.49 1057.65,-224.5 1059.97,-231.11"/>
</a>
</g>
</g>
<!-- Node25 -->
<g id="Node000025" class="node">
<title>Node25</title>
<g id="a_Node000025"><a xlink:title=" ">
<polygon fill="#e0e0e0" stroke="#999999" points="1216.25,-218 1178.5,-218 1178.5,-198 1216.25,-198 1216.25,-218"/>
<text text-anchor="middle" x="1197.38" y="-204.5" font-family="Helvetica,sans-Serif" font-size="10.00">array</text>
</a>
</g>
</g>
<!-- Node1&#45;&gt;Node25 -->
<g id="edge32_Node000001_Node000025" class="edge">
<title>Node1&#45;&gt;Node25</title>
<g id="a_edge32_Node000001_Node000025"><a xlink:title=" ">
<path fill="none" stroke="#63b8ff" d="M991.77,-266.37C1041.66,-258.64 1111.12,-245.2 1169.38,-224 1170.28,-223.67 1171.2,-223.32 1172.11,-222.94"/>
<polygon fill="#63b8ff" stroke="#63b8ff" points="1173.2,-225.82 1180.75,-218.38 1170.21,-219.49 1173.2,-225.82"/>
</a>
</g>
</g>
<!-- Node3 -->
<g id="Node000003" class="node">
<title>Node3</title>
<g id="a_Node000003"><a xlink:href="FMTlogger_8hpp.html" target="_top" xlink:title=" ">
<polygon fill="white" stroke="#666666" points="187.62,-150 107.12,-150 107.12,-130 187.62,-130 187.62,-150"/>
<text text-anchor="middle" x="147.38" y="-136.5" font-family="Helvetica,sans-Serif" font-size="10.00">FMTlogger.hpp</text>
</a>
</g>
</g>
<!-- Node2&#45;&gt;Node3 -->
<g id="edge2_Node000002_Node000003" class="edge">
<title>Node2&#45;&gt;Node3</title>
<g id="a_edge2_Node000002_Node000003"><a xlink:title=" ">
<path fill="none" stroke="#63b8ff" d="M385.09,-197.58C336.96,-188.11 261.78,-172.56 197.38,-156 194.23,-155.19 190.98,-154.31 187.73,-153.41"/>
<polygon fill="#63b8ff" stroke="#63b8ff" points="188.99,-149.84 178.41,-150.43 187.05,-156.56 188.99,-149.84"/>
</a>
</g>
</g>
<!-- Node2&#45;&gt;Node4 -->
<g id="edge16_Node000002_Node000004" class="edge">
<title>Node2&#45;&gt;Node4</title>
<g id="a_edge16_Node000002_Node000004"><a xlink:title=" ">
<path fill="none" stroke="#63b8ff" d="M444.36,-197.57C461.78,-181.39 499.25,-147.77 534.38,-124 550.96,-112.78 570.25,-101.96 587.02,-93.2"/>
<polygon fill="#63b8ff" stroke="#63b8ff" points="588.28,-95.98 595.57,-88.29 585.08,-89.75 588.28,-95.98"/>
</a>
</g>
</g>
<!-- Node11 -->
<g id="Node000011" class="node">
<title>Node11</title>
<g id="a_Node000011"><a xlink:title=" ">
<polygon fill="#e0e0e0" stroke="#999999" points="564,-20 512.75,-20 512.75,0 564,0 564,-20"/>
<text text-anchor="middle" x="538.38" y="-6.5" font-family="Helvetica,sans-Serif" font-size="10.00">memory</text>
</a>
</g>
</g>
<!-- Node2&#45;&gt;Node11 -->
<g id="edge17_Node000002_Node000011" class="edge">
<title>Node2&#45;&gt;Node11</title>
<g id="a_edge17_Node000002_Node000011"><a xlink:title=" ">
<path fill="none" stroke="#63b8ff" d="M439.39,-197.55C455.56,-167.08 506.5,-71.08 528.31,-29.98"/>
<polygon fill="#63b8ff" stroke="#63b8ff" points="531.81,-31.83 533.41,-21.36 525.63,-28.55 531.81,-31.83"/>
</a>
</g>
</g>
<!-- Node13 -->
<g id="Node000013" class="node">
<title>Node13</title>
<g id="a_Node000013"><a xlink:title=" ">
<polygon fill="#e0e0e0" stroke="#999999" points="288.75,-150 206,-150 206,-130 288.75,-130 288.75,-150"/>
<text text-anchor="middle" x="247.38" y="-136.5" font-family="Helvetica,sans-Serif" font-size="10.00">unordered_map</text>
</a>
</g>
</g>
<!-- Node2&#45;&gt;Node13 -->
<g id="edge13_Node000002_Node000013" class="edge">
<title>Node2&#45;&gt;Node13</title>
<g id="a_edge13_Node000002_Node000013"><a xlink:title=" ">
<path fill="none" stroke="#63b8ff" d="M407.58,-197.54C375.23,-186.12 320.64,-166.86 284.3,-154.03"/>
<polygon fill="#63b8ff" stroke="#63b8ff" points="285.71,-150.47 275.12,-150.44 283.38,-157.07 285.71,-150.47"/>
</a>
</g>
</g>
<!-- Node14 -->
<g id="Node000014" class="node">
<title>Node14</title>
<g id="a_Node000014"><a xlink:title=" ">
<polygon fill="#e0e0e0" stroke="#999999" points="401.75,-156 307,-156 307,-124 401.75,-124 401.75,-156"/>
<text text-anchor="start" x="315" y="-142.5" font-family="Helvetica,sans-Serif" font-size="10.00">boost/serialization</text>
<text text-anchor="middle" x="354.38" y="-130.5" font-family="Helvetica,sans-Serif" font-size="10.00">/serialization.hpp</text>
</a>
</g>
</g>
<!-- Node2&#45;&gt;Node14 -->
<g id="edge14_Node000002_Node000014" class="edge">
<title>Node2&#45;&gt;Node14</title>
<g id="a_edge14_Node000002_Node000014"><a xlink:title=" ">
<path fill="none" stroke="#63b8ff" d="M422.91,-197.54C412.11,-188.63 395.51,-174.93 381.35,-163.25"/>
<polygon fill="#63b8ff" stroke="#63b8ff" points="383.86,-159.97 373.92,-156.3 379.41,-165.36 383.86,-159.97"/>
</a>
</g>
</g>
<!-- Node15 -->
<g id="Node000015" class="node">
<title>Node15</title>
<g id="a_Node000015"><a xlink:title=" ">
<polygon fill="#e0e0e0" stroke="#999999" points="637.75,-156 543,-156 543,-124 637.75,-124 637.75,-156"/>
<text text-anchor="start" x="551" y="-142.5" font-family="Helvetica,sans-Serif" font-size="10.00">boost/serialization</text>
<text text-anchor="middle" x="590.38" y="-130.5" font-family="Helvetica,sans-Serif" font-size="10.00">/nvp.hpp</text>
</a>
</g>
</g>
<!-- Node2&#45;&gt;Node15 -->
<g id="edge15_Node000002_Node000015" class="edge">
<title>Node2&#45;&gt;Node15</title>
<g id="a_edge15_Node000002_Node000015"><a xlink:title=" ">
<path fill="none" stroke="#63b8ff" d="M456.73,-197.54C479.41,-187.95 515.2,-172.81 544.03,-160.61"/>
<polygon fill="#63b8ff" stroke="#63b8ff" points="545.06,-163.55 552.91,-156.43 542.34,-157.1 545.06,-163.55"/>
</a>
</g>
</g>
<!-- Node16 -->
<g id="Node000016" class="node">
<title>Node16</title>
<g id="a_Node000016"><a xlink:title=" ">
<polygon fill="#e0e0e0" stroke="#999999" points="449.12,-150 419.62,-150 419.62,-130 449.12,-130 449.12,-150"/>
<text text-anchor="middle" x="434.38" y="-136.5" font-family="Helvetica,sans-Serif" font-size="10.00">set</text>
</a>
</g>
</g>
<!-- Node2&#45;&gt;Node16 -->
<g id="edge18_Node000002_Node000016" class="edge">
<title>Node2&#45;&gt;Node16</title>
<g id="a_edge18_Node000002_Node000016"><a xlink:title=" ">
<path fill="none" stroke="#63b8ff" d="M434.38,-197.54C434.38,-188.13 434.38,-173.39 434.38,-161.32"/>
<polygon fill="#63b8ff" stroke="#63b8ff" points="437.88,-161.44 434.38,-151.44 430.88,-161.44 437.88,-161.44"/>
</a>
</g>
</g>
<!-- Node17 -->
<g id="Node000017" class="node">
<title>Node17</title>
<g id="a_Node000017"><a xlink:title=" ">
<polygon fill="#e0e0e0" stroke="#999999" points="88.75,-150 0,-150 0,-130 88.75,-130 88.75,-150"/>
<text text-anchor="middle" x="44.38" y="-136.5" font-family="Helvetica,sans-Serif" font-size="10.00">boost/thread.hpp</text>
</a>
</g>
</g>
<!-- Node2&#45;&gt;Node17 -->
<g id="edge19_Node000002_Node000017" class="edge">
<title>Node2&#45;&gt;Node17</title>
<g id="a_edge19_Node000002_Node000017"><a xlink:title=" ">
<path fill="none" stroke="#63b8ff" d="M370.17,-199.59C302.24,-191.2 192.13,-176.06 98.38,-156 94.48,-155.17 90.46,-154.22 86.44,-153.21"/>
<polygon fill="#63b8ff" stroke="#63b8ff" points="87.47,-149.6 76.91,-150.45 85.7,-156.37 87.47,-149.6"/>
</a>
</g>
</g>
<!-- Node3&#45;&gt;Node4 -->
<g id="edge3_Node000003_Node000004" class="edge">
<title>Node3&#45;&gt;Node4</title>
<g id="a_edge3_Node000003_Node000004"><a xlink:title=" ">
<path fill="none" stroke="#63b8ff" d="M175.71,-129.57C182.73,-127.49 190.28,-125.47 197.38,-124 329.06,-96.67 486.63,-82.66 569.98,-76.68"/>
<polygon fill="#63b8ff" stroke="#63b8ff" points="570.02,-80.12 579.75,-75.92 569.53,-73.13 570.02,-80.12"/>
</a>
</g>
</g>
<!-- Node5 -->
<g id="Node000005" class="node">
<title>Node5</title>
<g id="a_Node000005"><a xlink:title=" ">
<polygon fill="#e0e0e0" stroke="#999999" points="203,-88 91.75,-88 91.75,-56 203,-56 203,-88"/>
<text text-anchor="start" x="99.75" y="-74.5" font-family="Helvetica,sans-Serif" font-size="10.00">boost/thread/recursive</text>
<text text-anchor="middle" x="147.38" y="-62.5" font-family="Helvetica,sans-Serif" font-size="10.00">_mutex.hpp</text>
</a>
</g>
</g>
<!-- Node3&#45;&gt;Node5 -->
<g id="edge4_Node000003_Node000005" class="edge">
<title>Node3&#45;&gt;Node5</title>
<g id="a_edge4_Node000003_Node000005"><a xlink:title=" ">
<path fill="none" stroke="#63b8ff" d="M147.38,-129.54C147.38,-121.64 147.38,-109.97 147.38,-99.29"/>
<polygon fill="#63b8ff" stroke="#63b8ff" points="150.88,-99.3 147.38,-89.3 143.88,-99.3 150.88,-99.3"/>
</a>
</g>
</g>
<!-- Node6 -->
<g id="Node000006" class="node">
<title>Node6</title>
<g id="a_Node000006"><a xlink:title=" ">
<polygon fill="#e0e0e0" stroke="#999999" points="73.5,-82 25.25,-82 25.25,-62 73.5,-62 73.5,-82"/>
<text text-anchor="middle" x="49.38" y="-68.5" font-family="Helvetica,sans-Serif" font-size="10.00">fstream</text>
</a>
</g>
</g>
<!-- Node3&#45;&gt;Node6 -->
<g id="edge5_Node000003_Node000006" class="edge">
<title>Node3&#45;&gt;Node6</title>
<g id="a_edge5_Node000003_Node000006"><a xlink:title=" ">
<path fill="none" stroke="#63b8ff" d="M133.33,-129.54C117.4,-118.81 91.16,-101.14 72.26,-88.41"/>
<polygon fill="#63b8ff" stroke="#63b8ff" points="74.64,-85.12 64.39,-82.44 70.73,-90.93 74.64,-85.12"/>
</a>
</g>
</g>
<!-- Node7 -->
<g id="Node000007" class="node">
<title>Node7</title>
<g id="a_Node000007"><a xlink:title=" ">
<polygon fill="#e0e0e0" stroke="#999999" points="251.38,-20 211.38,-20 211.38,0 251.38,0 251.38,-20"/>
<text text-anchor="middle" x="231.38" y="-6.5" font-family="Helvetica,sans-Serif" font-size="10.00">string</text>
</a>
</g>
</g>
<!-- Node3&#45;&gt;Node7 -->
<g id="edge6_Node000003_Node000007" class="edge">
<title>Node3&#45;&gt;Node7</title>
<g id="a_edge6_Node000003_Node000007"><a xlink:title=" ">
<path fill="none" stroke="#63b8ff" d="M164.98,-129.65C179.85,-120.86 200.54,-106.31 212.38,-88 223.56,-70.69 228.16,-47.3 230.05,-30.86"/>
<polygon fill="#63b8ff" stroke="#63b8ff" points="233.59,-31.57 231.01,-21.3 226.62,-30.94 233.59,-31.57"/>
</a>
</g>
</g>
<!-- Node8 -->
<g id="Node000008" class="node">
<title>Node8</title>
<g id="a_Node000008"><a xlink:href="FMTexception_8hpp.html" target="_top" xlink:title=" ">
<polygon fill="white" stroke="#666666" points="420.5,-82 324.25,-82 324.25,-62 420.5,-62 420.5,-82"/>
<text text-anchor="middle" x="372.38" y="-68.5" font-family="Helvetica,sans-Serif" font-size="10.00">FMTexception.hpp</text>
</a>
</g>
</g>
<!-- Node3&#45;&gt;Node8 -->
<g id="edge7_Node000003_Node000008" class="edge">
<title>Node3&#45;&gt;Node8</title>
<g id="a_edge7_Node000003_Node000008"><a xlink:title=" ">
<path fill="none" stroke="#63b8ff" d="M178.84,-129.52C184.98,-127.68 191.38,-125.77 197.38,-124 242.34,-110.7 293.88,-95.71 329.32,-85.44"/>
<polygon fill="#63b8ff" stroke="#63b8ff" points="330.14,-88.56 338.78,-82.42 328.2,-81.84 330.14,-88.56"/>
</a>
</g>
</g>
<!-- Node8&#45;&gt;Node7 -->
<g id="edge9_Node000008_Node000007" class="edge">
<title>Node8&#45;&gt;Node7</title>
<g id="a_edge9_Node000008_Node000007"><a xlink:title=" ">
<path fill="none" stroke="#63b8ff" d="M350.34,-61.62C326.41,-51.44 288.04,-35.11 261.37,-23.76"/>
<polygon fill="#63b8ff" stroke="#63b8ff" points="263,-20.23 252.43,-19.53 260.26,-26.67 263,-20.23"/>
</a>
</g>
</g>
<!-- Node9 -->
<g id="Node000009" class="node">
<title>Node9</title>
<g id="a_Node000009"><a xlink:title=" ">
<polygon fill="#e0e0e0" stroke="#999999" points="327.38,-20 269.38,-20 269.38,0 327.38,0 327.38,-20"/>
<text text-anchor="middle" x="298.38" y="-6.5" font-family="Helvetica,sans-Serif" font-size="10.00">exception</text>
</a>
</g>
</g>
<!-- Node8&#45;&gt;Node9 -->
<g id="edge8_Node000008_Node000009" class="edge">
<title>Node8&#45;&gt;Node9</title>
<g id="a_edge8_Node000008_Node000009"><a xlink:title=" ">
<path fill="none" stroke="#63b8ff" d="M360.81,-61.62C349.34,-52.32 331.55,-37.9 317.89,-26.82"/>
<polygon fill="#63b8ff" stroke="#63b8ff" points="320.59,-23.69 310.61,-20.11 316.18,-29.13 320.59,-23.69"/>
</a>
</g>
</g>
<!-- Node10 -->
<g id="Node000010" class="node">
<title>Node10</title>
<g id="a_Node000010"><a xlink:title=" ">
<polygon fill="#e0e0e0" stroke="#999999" points="399.12,-20 345.62,-20 345.62,0 399.12,0 399.12,-20"/>
<text text-anchor="middle" x="372.38" y="-6.5" font-family="Helvetica,sans-Serif" font-size="10.00">iostream</text>
</a>
</g>
</g>
<!-- Node8&#45;&gt;Node10 -->
<g id="edge10_Node000008_Node000010" class="edge">
<title>Node8&#45;&gt;Node10</title>
<g id="a_edge10_Node000008_Node000010"><a xlink:title=" ">
<path fill="none" stroke="#63b8ff" d="M372.38,-61.62C372.38,-53.48 372.38,-41.39 372.38,-31.07"/>
<polygon fill="#63b8ff" stroke="#63b8ff" points="375.88,-31.11 372.38,-21.11 368.88,-31.11 375.88,-31.11"/>
</a>
</g>
</g>
<!-- Node8&#45;&gt;Node11 -->
<g id="edge11_Node000008_Node000011" class="edge">
<title>Node8&#45;&gt;Node11</title>
<g id="a_edge11_Node000008_Node000011"><a xlink:title=" ">
<path fill="none" stroke="#63b8ff" d="M398.31,-61.62C426.25,-51.53 470.9,-35.39 502.26,-24.05"/>
<polygon fill="#63b8ff" stroke="#63b8ff" points="503.13,-27.1 511.35,-20.41 500.75,-20.52 503.13,-27.1"/>
</a>
</g>
</g>
<!-- Node12 -->
<g id="Node000012" class="node">
<title>Node12</title>
<g id="a_Node000012"><a xlink:href="FMTutility_8hpp.html" target="_top" xlink:title=" ">
<polygon fill="white" stroke="#666666" points="495.12,-20 417.62,-20 417.62,0 495.12,0 495.12,-20"/>
<text text-anchor="middle" x="456.38" y="-6.5" font-family="Helvetica,sans-Serif" font-size="10.00">FMTutility.hpp</text>
</a>
</g>
</g>
<!-- Node8&#45;&gt;Node12 -->
<g id="edge12_Node000008_Node000012" class="edge">
<title>Node8&#45;&gt;Node12</title>
<g id="a_edge12_Node000008_Node000012"><a xlink:title=" ">
<path fill="none" stroke="#63b8ff" d="M385.5,-61.62C398.57,-52.29 418.87,-37.79 434.4,-26.7"/>
<polygon fill="#63b8ff" stroke="#63b8ff" points="436.24,-28.97 442.34,-20.31 432.17,-23.27 436.24,-28.97"/>
</a>
</g>
</g>
<!-- Node18&#45;&gt;Node4 -->
<g id="edge23_Node000018_Node000004" class="edge">
<title>Node18&#45;&gt;Node4</title>
<g id="a_edge23_Node000018_Node000004"><a xlink:title=" ">
<path fill="none" stroke="#63b8ff" d="M875.95,-197.57C903.85,-182.21 951.01,-150.8 928.38,-124 898.06,-88.1 765.03,-77.47 686.66,-74.32"/>
<polygon fill="#63b8ff" stroke="#63b8ff" points="687.11,-70.8 676.98,-73.92 686.85,-77.79 687.11,-70.8"/>
</a>
</g>
</g>
<!-- Node18&#45;&gt;Node8 -->
<g id="edge24_Node000018_Node000008" class="edge">
<title>Node18&#45;&gt;Node8</title>
<g id="a_edge24_Node000018_Node000008"><a xlink:title=" ">
<path fill="none" stroke="#63b8ff" d="M831.38,-197.51C804.12,-187.48 760.07,-171.05 722.38,-156 688.34,-142.41 681.48,-134.52 646.38,-124 573.81,-102.25 487.52,-88.02 431.44,-80.26"/>
<polygon fill="#63b8ff" stroke="#63b8ff" points="432.01,-76.67 421.63,-78.79 431.07,-83.61 432.01,-76.67"/>
</a>
</g>
</g>
<!-- Node18&#45;&gt;Node11 -->
<g id="edge25_Node000018_Node000011" class="edge">
<title>Node18&#45;&gt;Node11</title>
<g id="a_edge25_Node000018_Node000011"><a xlink:title=" ">
<path fill="none" stroke="#63b8ff" d="M889.35,-197.6C909.3,-189.9 933.38,-176.81 945.38,-156 952.48,-143.68 953.98,-135.32 945.38,-124 899.9,-64.18 666.37,-27.71 575.05,-15.55"/>
<polygon fill="#63b8ff" stroke="#63b8ff" points="575.76,-11.98 565.39,-14.16 574.85,-18.92 575.76,-11.98"/>
</a>
</g>
</g>
<!-- Node18&#45;&gt;Node15 -->
<g id="edge22_Node000018_Node000015" class="edge">
<title>Node18&#45;&gt;Node15</title>
<g id="a_edge22_Node000018_Node000015"><a xlink:title=" ">
<path fill="none" stroke="#63b8ff" d="M819.12,-197.54C774.47,-186.51 700.15,-168.14 648.39,-155.34"/>
<polygon fill="#63b8ff" stroke="#63b8ff" points="649.58,-151.78 639.03,-152.78 647.9,-158.58 649.58,-151.78"/>
</a>
</g>
</g>
<!-- Node19 -->
<g id="Node000019" class="node">
<title>Node19</title>
<g id="a_Node000019"><a xlink:title=" ">
<polygon fill="#e0e0e0" stroke="#999999" points="1107.75,-156 1013,-156 1013,-124 1107.75,-124 1107.75,-156"/>
<text text-anchor="start" x="1021" y="-142.5" font-family="Helvetica,sans-Serif" font-size="10.00">boost/serialization</text>
<text text-anchor="middle" x="1060.38" y="-130.5" font-family="Helvetica,sans-Serif" font-size="10.00">/shared_ptr.hpp</text>
</a>
</g>
</g>
<!-- Node18&#45;&gt;Node19 -->
<g id="edge21_Node000018_Node000019" class="edge">
<title>Node18&#45;&gt;Node19</title>
<g id="a_edge21_Node000018_Node000019"><a xlink:title=" ">
<path fill="none" stroke="#63b8ff" d="M886.46,-197.54C916.62,-187.74 964.59,-172.14 1002.52,-159.81"/>
<polygon fill="#63b8ff" stroke="#63b8ff" points="1003.49,-162.85 1011.92,-156.43 1001.33,-156.19 1003.49,-162.85"/>
</a>
</g>
</g>
<!-- Node20 -->
<g id="Node000020" class="node">
<title>Node20</title>
<g id="a_Node000020"><a xlink:title=" ">
<polygon fill="#e0e0e0" stroke="#999999" points="777,-150 731.75,-150 731.75,-130 777,-130 777,-150"/>
<text text-anchor="middle" x="754.38" y="-136.5" font-family="Helvetica,sans-Serif" font-size="10.00">chrono</text>
</a>
</g>
</g>
<!-- Node18&#45;&gt;Node20 -->
<g id="edge26_Node000018_Node000020" class="edge">
<title>Node18&#45;&gt;Node20</title>
<g id="a_edge26_Node000018_Node000020"><a xlink:title=" ">
<path fill="none" stroke="#63b8ff" d="M842.62,-197.54C825.79,-186.76 798.04,-168.98 778.16,-156.24"/>
<polygon fill="#63b8ff" stroke="#63b8ff" points="780.41,-152.89 770.11,-150.44 776.64,-158.78 780.41,-152.89"/>
</a>
</g>
</g>
<!-- Node18&#45;&gt;Node21 -->
<g id="edge27_Node000018_Node000021" class="edge">
<title>Node18&#45;&gt;Node21</title>
<g id="a_edge27_Node000018_Node000021"><a xlink:title=" ">
<path fill="none" stroke="#63b8ff" d="M889.51,-197.52C896.68,-195.56 904.26,-193.61 911.38,-192 1001.6,-171.6 1028.53,-184.99 1116.38,-156 1117.48,-155.64 1118.6,-155.24 1119.72,-154.81"/>
<polygon fill="#63b8ff" stroke="#63b8ff" points="1120.87,-157.69 1128.61,-150.45 1118.04,-151.28 1120.87,-157.69"/>
</a>
</g>
</g>
<!-- Node22 -->
<g id="Node000022" class="node">
<title>Node22</title>
<g id="a_Node000022"><a xlink:title=" ">
<polygon fill="#e0e0e0" stroke="#999999" points="919.75,-156 795,-156 795,-124 919.75,-124 919.75,-156"/>
<text text-anchor="start" x="803" y="-142.5" font-family="Helvetica,sans-Serif" font-size="10.00">boost/dll/runtime_symbol</text>
<text text-anchor="middle" x="857.38" y="-130.5" font-family="Helvetica,sans-Serif" font-size="10.00">_info.hpp</text>
</a>
</g>
</g>
<!-- Node18&#45;&gt;Node22 -->
<g id="edge28_Node000018_Node000022" class="edge">
<title>Node18&#45;&gt;Node22</title>
<g id="a_edge28_Node000018_Node000022"><a xlink:title=" ">
<path fill="none" stroke="#63b8ff" d="M857.38,-197.54C857.38,-189.64 857.38,-177.97 857.38,-167.29"/>
<polygon fill="#63b8ff" stroke="#63b8ff" points="860.88,-167.3 857.38,-157.3 853.88,-167.3 860.88,-167.3"/>
</a>
</g>
</g>
</g>
</svg>
