<?xml version="1.0" encoding="UTF-8" standalone="no"?>
<!DOCTYPE svg PUBLIC "-//W3C//DTD SVG 1.1//EN"
 "http://www.w3.org/Graphics/SVG/1.1/DTD/svg11.dtd">
<!-- Generated by graphviz version 10.0.1 (20240210.2158)
 -->
<!-- Title: D:/FMT/Include/FMTmodelparser.hpp Pages: 1 -->
<svg width="560pt" height="84pt"
 viewBox="0.00 0.00 559.62 84.00" xmlns="http://www.w3.org/2000/svg" xmlns:xlink="http://www.w3.org/1999/xlink">
<g id="graph0" class="graph" transform="scale(1 1) rotate(0) translate(4 80)">
<title>D:/FMT/Include/FMTmodelparser.hpp</title>
<!-- Node1 -->
<g id="node1" class="node">
<title>Node1</title>
<g id="a_node1"><a xlink:title=" ">
<polygon fill="#999999" stroke="#666666" points="369.88,-76 193.38,-76 193.38,-56 369.88,-56 369.88,-76"/>
<text text-anchor="middle" x="281.62" y="-62.5" font-family="Helvetica,sans-Serif" font-size="10.00">D:/FMT/Include/FMTmodelparser.hpp</text>
</a>
</g>
</g>
<!-- Node2 -->
<g id="node2" class="node">
<title>Node2</title>
<g id="a_node2"><a xlink:href="FMTparallelwriter_8hpp.html" target="_top" xlink:title=" ">
<polygon fill="white" stroke="#666666" points="177.25,-20 0,-20 0,0 177.25,0 177.25,-20"/>
<text text-anchor="middle" x="88.62" y="-6.5" font-family="Helvetica,sans-Serif" font-size="10.00">D:/FMT/Include/FMTparallelwriter.hpp</text>
</a>
</g>
</g>
<!-- Node1&#45;&gt;Node2 -->
<g id="edge1" class="edge">
<title>Node1&#45;&gt;Node2</title>
<path fill="none" stroke="#63b8ff" d="M237.16,-52.56C202.25,-42.79 154.36,-29.39 122.51,-20.48"/>
<polygon fill="#63b8ff" stroke="#63b8ff" points="235.98,-55.86 246.55,-55.19 237.86,-49.12 235.98,-55.86"/>
</g>
<!-- Node3 -->
<g id="node3" class="node">
<title>Node3</title>
<g id="a_node3"><a xlink:href="PYexportParser_8hpp.html" target="_top" xlink:title=" ">
<polygon fill="white" stroke="#666666" points="368,-20 195.25,-20 195.25,0 368,0 368,-20"/>
<text text-anchor="middle" x="281.62" y="-6.5" font-family="Helvetica,sans-Serif" font-size="10.00">D:/FMT/Include/PYexportParser.hpp</text>
</a>
</g>
</g>
<!-- Node1&#45;&gt;Node3 -->
<g id="edge2" class="edge">
<title>Node1&#45;&gt;Node3</title>
<path fill="none" stroke="#63b8ff" d="M281.62,-44.13C281.62,-35.9 281.62,-26.85 281.62,-20.3"/>
<polygon fill="#63b8ff" stroke="#63b8ff" points="278.13,-44.08 281.63,-54.08 285.13,-44.08 278.13,-44.08"/>
</g>
<!-- Node4 -->
<g id="node4" class="node">
<title>Node4</title>
<g id="a_node4"><a xlink:href="RexportParser_8hpp.html" target="_top" xlink:title=" ">
<polygon fill="white" stroke="#666666" points="551.62,-20 385.62,-20 385.62,0 551.62,0 551.62,-20"/>
<text text-anchor="middle" x="468.62" y="-6.5" font-family="Helvetica,sans-Serif" font-size="10.00">D:/FMT/Include/RexportParser.hpp</text>
</a>
</g>
</g>
<!-- Node1&#45;&gt;Node4 -->
<g id="edge3" class="edge">
<title>Node1&#45;&gt;Node4</title>
<path fill="none" stroke="#63b8ff" d="M325.14,-52.43C358.94,-42.67 405.06,-29.35 435.8,-20.48"/>
<polygon fill="#63b8ff" stroke="#63b8ff" points="324.29,-49.04 315.65,-55.17 326.23,-55.76 324.29,-49.04"/>
</g>
</g>
</svg>
