<?xml version="1.0" encoding="UTF-8" standalone="no"?>
<!DOCTYPE svg PUBLIC "-//W3C//DTD SVG 1.1//EN"
 "http://www.w3.org/Graphics/SVG/1.1/DTD/svg11.dtd">
<!-- Generated by graphviz version 10.0.1 (20240210.2158)
 -->
<!-- Title: D:/FMT/Include/FMToperatingarea.hpp Pages: 1 -->
<svg width="1569pt" height="208pt"
 viewBox="0.00 0.00 1568.75 208.00" xmlns="http://www.w3.org/2000/svg" xmlns:xlink="http://www.w3.org/1999/xlink">
<g id="graph0" class="graph" transform="scale(1 1) rotate(0) translate(4 204)">
<title>D:/FMT/Include/FMToperatingarea.hpp</title>
<!-- Node1 -->
<g id="node1" class="node">
<title>Node1</title>
<g id="a_node1"><a xlink:title=" ">
<polygon fill="#999999" stroke="#666666" points="1454.25,-200 1272.5,-200 1272.5,-180 1454.25,-180 1454.25,-200"/>
<text text-anchor="middle" x="1363.38" y="-186.5" font-family="Helvetica,sans-Serif" font-size="10.00">D:/FMT/Include/FMToperatingarea.hpp</text>
</a>
</g>
</g>
<!-- Node2 -->
<g id="node2" class="node">
<title>Node2</title>
<g id="a_node2"><a xlink:href="FMTmask_8hpp.html" target="_top" xlink:title=" ">
<polygon fill="white" stroke="#666666" points="843.5,-144 765.25,-144 765.25,-124 843.5,-124 843.5,-144"/>
<text text-anchor="middle" x="804.38" y="-130.5" font-family="Helvetica,sans-Serif" font-size="10.00">FMTmask.hpp</text>
</a>
</g>
</g>
<!-- Node1&#45;&gt;Node2 -->
<g id="edge1" class="edge">
<title>Node1&#45;&gt;Node2</title>
<path fill="none" stroke="#63b8ff" d="M1272.01,-180.17C1153.14,-168.69 949.55,-149.02 855.17,-139.91"/>
<polygon fill="#63b8ff" stroke="#63b8ff" points="855.74,-136.45 845.45,-138.97 855.06,-143.41 855.74,-136.45"/>
</g>
<!-- Node8 -->
<g id="node8" class="node">
<title>Node8</title>
<g id="a_node8"><a xlink:title=" ">
<polygon fill="#e0e0e0" stroke="#999999" points="94.75,-88 0,-88 0,-56 94.75,-56 94.75,-88"/>
<text text-anchor="start" x="8" y="-74.5" font-family="Helvetica,sans-Serif" font-size="10.00">boost/serialization</text>
<text text-anchor="middle" x="47.38" y="-62.5" font-family="Helvetica,sans-Serif" font-size="10.00">/serialization.hpp</text>
</a>
</g>
</g>
<!-- Node1&#45;&gt;Node8 -->
<g id="edge23" class="edge">
<title>Node1&#45;&gt;Node8</title>
<path fill="none" stroke="#63b8ff" d="M1272.2,-187.39C1065.56,-182.5 546.03,-163.31 106.17,-88.11"/>
<polygon fill="#63b8ff" stroke="#63b8ff" points="107.08,-84.71 96.63,-86.46 105.89,-91.61 107.08,-84.71"/>
</g>
<!-- Node10 -->
<g id="node10" class="node">
<title>Node10</title>
<g id="a_node10"><a xlink:title=" ">
<polygon fill="#e0e0e0" stroke="#999999" points="1297.75,-88 1203,-88 1203,-56 1297.75,-56 1297.75,-88"/>
<text text-anchor="start" x="1211" y="-74.5" font-family="Helvetica,sans-Serif" font-size="10.00">boost/serialization</text>
<text text-anchor="middle" x="1250.38" y="-62.5" font-family="Helvetica,sans-Serif" font-size="10.00">/nvp.hpp</text>
</a>
</g>
</g>
<!-- Node1&#45;&gt;Node10 -->
<g id="edge24" class="edge">
<title>Node1&#45;&gt;Node10</title>
<path fill="none" stroke="#63b8ff" d="M1354.13,-179.51C1336.61,-161.52 1298.1,-121.99 1273.25,-96.48"/>
<polygon fill="#63b8ff" stroke="#63b8ff" points="1275.93,-94.22 1266.45,-89.5 1270.92,-99.1 1275.93,-94.22"/>
</g>
<!-- Node11 -->
<g id="node11" class="node">
<title>Node11</title>
<g id="a_node11"><a xlink:title=" ">
<polygon fill="#e0e0e0" stroke="#999999" points="1410.75,-88 1316,-88 1316,-56 1410.75,-56 1410.75,-88"/>
<text text-anchor="start" x="1324" y="-74.5" font-family="Helvetica,sans-Serif" font-size="10.00">boost/serialization</text>
<text text-anchor="middle" x="1363.38" y="-62.5" font-family="Helvetica,sans-Serif" font-size="10.00">/export.hpp</text>
</a>
</g>
</g>
<!-- Node1&#45;&gt;Node11 -->
<g id="edge25" class="edge">
<title>Node1&#45;&gt;Node11</title>
<path fill="none" stroke="#63b8ff" d="M1363.38,-179.51C1363.38,-162.3 1363.38,-125.39 1363.38,-99.88"/>
<polygon fill="#63b8ff" stroke="#63b8ff" points="1366.88,-99.93 1363.38,-89.93 1359.88,-99.93 1366.88,-99.93"/>
</g>
<!-- Node17 -->
<g id="node17" class="node">
<title>Node17</title>
<g id="a_node17"><a xlink:title=" ">
<polygon fill="#e0e0e0" stroke="#999999" points="982,-20 930.75,-20 930.75,0 982,0 982,-20"/>
<text text-anchor="middle" x="956.38" y="-6.5" font-family="Helvetica,sans-Serif" font-size="10.00">memory</text>
</a>
</g>
</g>
<!-- Node1&#45;&gt;Node17 -->
<g id="edge22" class="edge">
<title>Node1&#45;&gt;Node17</title>
<path fill="none" stroke="#63b8ff" d="M1382.9,-179.5C1425.76,-157.49 1521.01,-101.37 1479.38,-56 1446.64,-20.33 1107.95,-12.87 993.74,-11.37"/>
<polygon fill="#63b8ff" stroke="#63b8ff" points="994.04,-7.87 984,-11.25 993.95,-14.87 994.04,-7.87"/>
</g>
<!-- Node19 -->
<g id="node19" class="node">
<title>Node19</title>
<g id="a_node19"><a xlink:title=" ">
<polygon fill="#e0e0e0" stroke="#999999" points="1470.12,-82 1428.62,-82 1428.62,-62 1470.12,-62 1470.12,-82"/>
<text text-anchor="middle" x="1449.38" y="-68.5" font-family="Helvetica,sans-Serif" font-size="10.00">vector</text>
</a>
</g>
</g>
<!-- Node1&#45;&gt;Node19 -->
<g id="edge20" class="edge">
<title>Node1&#45;&gt;Node19</title>
<path fill="none" stroke="#63b8ff" d="M1370.41,-179.51C1384.66,-160.29 1417.12,-116.5 1435.68,-91.47"/>
<polygon fill="#63b8ff" stroke="#63b8ff" points="1438.43,-93.63 1441.58,-83.52 1432.81,-89.46 1438.43,-93.63"/>
</g>
<!-- Node20 -->
<g id="node20" class="node">
<title>Node20</title>
<g id="a_node20"><a xlink:title=" ">
<polygon fill="#e0e0e0" stroke="#999999" points="1560.75,-144 1526,-144 1526,-124 1560.75,-124 1560.75,-144"/>
<text text-anchor="middle" x="1543.38" y="-130.5" font-family="Helvetica,sans-Serif" font-size="10.00">map</text>
</a>
</g>
</g>
<!-- Node1&#45;&gt;Node20 -->
<g id="edge21" class="edge">
<title>Node1&#45;&gt;Node20</title>
<path fill="none" stroke="#63b8ff" d="M1394.73,-179.59C1428.79,-169.38 1482.69,-153.2 1515.37,-143.4"/>
<polygon fill="#63b8ff" stroke="#63b8ff" points="1515.96,-146.88 1524.53,-140.65 1513.95,-140.17 1515.96,-146.88"/>
</g>
<!-- Node3 -->
<g id="node3" class="node">
<title>Node3</title>
<g id="a_node3"><a xlink:title=" ">
<polygon fill="#e0e0e0" stroke="#999999" points="506.25,-82 378.5,-82 378.5,-62 506.25,-62 506.25,-82"/>
<text text-anchor="middle" x="442.38" y="-68.5" font-family="Helvetica,sans-Serif" font-size="10.00">boost/dynamic_bitset.hpp</text>
</a>
</g>
</g>
<!-- Node2&#45;&gt;Node3 -->
<g id="edge2" class="edge">
<title>Node2&#45;&gt;Node3</title>
<path fill="none" stroke="#63b8ff" d="M765.01,-127.48C709.3,-119.54 604.32,-104.05 515.38,-88 509.71,-86.98 503.81,-85.86 497.93,-84.71"/>
<polygon fill="#63b8ff" stroke="#63b8ff" points="498.68,-81.29 488.19,-82.76 497.31,-88.15 498.68,-81.29"/>
</g>
<!-- Node4 -->
<g id="node4" class="node">
<title>Node4</title>
<g id="a_node4"><a xlink:title=" ">
<polygon fill="#e0e0e0" stroke="#999999" points="652.62,-82 524.12,-82 524.12,-62 652.62,-62 652.62,-82"/>
<text text-anchor="middle" x="588.38" y="-68.5" font-family="Helvetica,sans-Serif" font-size="10.00">boost/unordered_map.hpp</text>
</a>
</g>
</g>
<!-- Node2&#45;&gt;Node4 -->
<g id="edge3" class="edge">
<title>Node2&#45;&gt;Node4</title>
<path fill="none" stroke="#63b8ff" d="M770.62,-123.62C733.64,-113.35 674.14,-96.82 633.25,-85.47"/>
<polygon fill="#63b8ff" stroke="#63b8ff" points="634.27,-82.12 623.7,-82.81 632.4,-88.86 634.27,-82.12"/>
</g>
<!-- Node5 -->
<g id="node5" class="node">
<title>Node5</title>
<g id="a_node5"><a xlink:title=" ">
<polygon fill="#e0e0e0" stroke="#999999" points="799.62,-82 671.12,-82 671.12,-62 799.62,-62 799.62,-82"/>
<text text-anchor="middle" x="735.38" y="-68.5" font-family="Helvetica,sans-Serif" font-size="10.00">boost/algorithm/string.hpp</text>
</a>
</g>
</g>
<!-- Node2&#45;&gt;Node5 -->
<g id="edge4" class="edge">
<title>Node2&#45;&gt;Node5</title>
<path fill="none" stroke="#63b8ff" d="M793.59,-123.62C783.1,-114.5 766.94,-100.45 754.3,-89.46"/>
<polygon fill="#63b8ff" stroke="#63b8ff" points="756.84,-87.03 747,-83.11 752.25,-92.31 756.84,-87.03"/>
</g>
<!-- Node6 -->
<g id="node6" class="node">
<title>Node6</title>
<g id="a_node6"><a xlink:title=" ">
<polygon fill="#e0e0e0" stroke="#999999" points="927.25,-88 817.5,-88 817.5,-56 927.25,-56 927.25,-88"/>
<text text-anchor="start" x="825.5" y="-74.5" font-family="Helvetica,sans-Serif" font-size="10.00">boost/algorithm/string</text>
<text text-anchor="middle" x="872.38" y="-62.5" font-family="Helvetica,sans-Serif" font-size="10.00">/join.hpp</text>
</a>
</g>
</g>
<!-- Node2&#45;&gt;Node6 -->
<g id="edge5" class="edge">
<title>Node2&#45;&gt;Node6</title>
<path fill="none" stroke="#63b8ff" d="M815,-123.62C823.43,-116.19 835.57,-105.47 846.52,-95.81"/>
<polygon fill="#63b8ff" stroke="#63b8ff" points="848.63,-98.62 853.82,-89.37 844,-93.37 848.63,-98.62"/>
</g>
<!-- Node7 -->
<g id="node7" class="node">
<title>Node7</title>
<g id="a_node7"><a xlink:title=" ">
<polygon fill="#e0e0e0" stroke="#999999" points="1071.88,-82 944.88,-82 944.88,-62 1071.88,-62 1071.88,-82"/>
<text text-anchor="middle" x="1008.38" y="-68.5" font-family="Helvetica,sans-Serif" font-size="10.00">boost/functional/hash.hpp</text>
</a>
</g>
</g>
<!-- Node2&#45;&gt;Node7 -->
<g id="edge6" class="edge">
<title>Node2&#45;&gt;Node7</title>
<path fill="none" stroke="#63b8ff" d="M836.25,-123.62C871.03,-113.4 926.89,-96.97 965.5,-85.61"/>
<polygon fill="#63b8ff" stroke="#63b8ff" points="966.33,-89.01 974.94,-82.84 964.35,-82.3 966.33,-89.01"/>
</g>
<!-- Node2&#45;&gt;Node8 -->
<g id="edge7" class="edge">
<title>Node2&#45;&gt;Node8</title>
<path fill="none" stroke="#63b8ff" d="M764.99,-133.12C659.56,-132.88 362.09,-128.53 106.13,-88.05"/>
<polygon fill="#63b8ff" stroke="#63b8ff" points="107.05,-84.65 96.62,-86.52 105.94,-91.56 107.05,-84.65"/>
</g>
<!-- Node9 -->
<g id="node9" class="node">
<title>Node9</title>
<g id="a_node9"><a xlink:title=" ">
<polygon fill="#e0e0e0" stroke="#999999" points="1184.75,-88 1090,-88 1090,-56 1184.75,-56 1184.75,-88"/>
<text text-anchor="start" x="1098" y="-74.5" font-family="Helvetica,sans-Serif" font-size="10.00">boost/serialization</text>
<text text-anchor="middle" x="1137.38" y="-62.5" font-family="Helvetica,sans-Serif" font-size="10.00">/split_free.hpp</text>
</a>
</g>
</g>
<!-- Node2&#45;&gt;Node9 -->
<g id="edge8" class="edge">
<title>Node2&#45;&gt;Node9</title>
<path fill="none" stroke="#63b8ff" d="M843.9,-127.77C895.53,-120.67 988.93,-106.93 1078.39,-88.29"/>
<polygon fill="#63b8ff" stroke="#63b8ff" points="1079.02,-91.74 1088.08,-86.25 1077.57,-84.89 1079.02,-91.74"/>
</g>
<!-- Node2&#45;&gt;Node10 -->
<g id="edge9" class="edge">
<title>Node2&#45;&gt;Node10</title>
<path fill="none" stroke="#63b8ff" d="M843.86,-130.3C912.52,-125.19 1058.5,-112.57 1191.42,-88.19"/>
<polygon fill="#63b8ff" stroke="#63b8ff" points="1191.92,-91.65 1201.11,-86.38 1190.63,-84.77 1191.92,-91.65"/>
</g>
<!-- Node2&#45;&gt;Node11 -->
<g id="edge10" class="edge">
<title>Node2&#45;&gt;Node11</title>
<path fill="none" stroke="#63b8ff" d="M843.72,-131.72C927,-128.53 1127.28,-118.32 1304.51,-88.12"/>
<polygon fill="#63b8ff" stroke="#63b8ff" points="1304.86,-91.61 1314.12,-86.45 1303.67,-84.71 1304.86,-91.61"/>
</g>
<!-- Node12 -->
<g id="node12" class="node">
<title>Node12</title>
<g id="a_node12"><a xlink:title=" ">
<polygon fill="#e0e0e0" stroke="#999999" points="207.75,-88 113,-88 113,-56 207.75,-56 207.75,-88"/>
<text text-anchor="start" x="121" y="-74.5" font-family="Helvetica,sans-Serif" font-size="10.00">boost/serialization</text>
<text text-anchor="middle" x="160.38" y="-62.5" font-family="Helvetica,sans-Serif" font-size="10.00">/string.hpp</text>
</a>
</g>
</g>
<!-- Node2&#45;&gt;Node12 -->
<g id="edge11" class="edge">
<title>Node2&#45;&gt;Node12</title>
<path fill="none" stroke="#63b8ff" d="M764.92,-132.43C671.64,-130.56 430.16,-122.67 219.41,-88.12"/>
<polygon fill="#63b8ff" stroke="#63b8ff" points="220.06,-84.68 209.63,-86.49 218.91,-91.58 220.06,-84.68"/>
</g>
<!-- Node13 -->
<g id="node13" class="node">
<title>Node13</title>
<g id="a_node13"><a xlink:href="FMTexception_8hpp.html" target="_top" xlink:title=" ">
<polygon fill="white" stroke="#666666" points="322.5,-82 226.25,-82 226.25,-62 322.5,-62 322.5,-82"/>
<text text-anchor="middle" x="274.38" y="-68.5" font-family="Helvetica,sans-Serif" font-size="10.00">FMTexception.hpp</text>
</a>
</g>
</g>
<!-- Node2&#45;&gt;Node13 -->
<g id="edge12" class="edge">
<title>Node2&#45;&gt;Node13</title>
<path fill="none" stroke="#63b8ff" d="M764.99,-131.1C684.18,-126.78 493.94,-114.5 336.38,-88 331.19,-87.13 325.79,-86.06 320.44,-84.91"/>
<polygon fill="#63b8ff" stroke="#63b8ff" points="321.61,-81.58 311.08,-82.77 320.05,-88.41 321.61,-81.58"/>
</g>
<!-- Node15 -->
<g id="node15" class="node">
<title>Node15</title>
<g id="a_node15"><a xlink:title=" ">
<polygon fill="#e0e0e0" stroke="#999999" points="371.38,-20 331.38,-20 331.38,0 371.38,0 371.38,-20"/>
<text text-anchor="middle" x="351.38" y="-6.5" font-family="Helvetica,sans-Serif" font-size="10.00">string</text>
</a>
</g>
</g>
<!-- Node2&#45;&gt;Node15 -->
<g id="edge19" class="edge">
<title>Node2&#45;&gt;Node15</title>
<path fill="none" stroke="#63b8ff" d="M764.8,-131.49C663.15,-127.27 398.75,-113.88 369.38,-88 353.62,-74.13 350.27,-49.36 350.12,-31.66"/>
<polygon fill="#63b8ff" stroke="#63b8ff" points="353.61,-31.89 350.4,-21.79 346.62,-31.69 353.61,-31.89"/>
</g>
<!-- Node2&#45;&gt;Node19 -->
<g id="edge18" class="edge">
<title>Node2&#45;&gt;Node19</title>
<path fill="none" stroke="#63b8ff" d="M843.77,-132.11C961.65,-129.15 1310.21,-118.02 1419.38,-88 1420.55,-87.68 1421.74,-87.3 1422.93,-86.89"/>
<polygon fill="#63b8ff" stroke="#63b8ff" points="1424.11,-90.19 1431.94,-83.05 1421.37,-83.75 1424.11,-90.19"/>
</g>
<!-- Node14 -->
<g id="node14" class="node">
<title>Node14</title>
<g id="a_node14"><a xlink:title=" ">
<polygon fill="#e0e0e0" stroke="#999999" points="145.38,-20 87.38,-20 87.38,0 145.38,0 145.38,-20"/>
<text text-anchor="middle" x="116.38" y="-6.5" font-family="Helvetica,sans-Serif" font-size="10.00">exception</text>
</a>
</g>
</g>
<!-- Node13&#45;&gt;Node14 -->
<g id="edge13" class="edge">
<title>Node13&#45;&gt;Node14</title>
<path fill="none" stroke="#63b8ff" d="M249.69,-61.62C223.33,-51.62 181.33,-35.67 151.53,-24.35"/>
<polygon fill="#63b8ff" stroke="#63b8ff" points="153.16,-21.22 142.56,-20.95 150.67,-27.77 153.16,-21.22"/>
</g>
<!-- Node13&#45;&gt;Node15 -->
<g id="edge14" class="edge">
<title>Node13&#45;&gt;Node15</title>
<path fill="none" stroke="#63b8ff" d="M286.41,-61.62C298.16,-52.47 316.29,-38.34 330.42,-27.33"/>
<polygon fill="#63b8ff" stroke="#63b8ff" points="332.5,-30.15 338.23,-21.24 328.2,-24.63 332.5,-30.15"/>
</g>
<!-- Node16 -->
<g id="node16" class="node">
<title>Node16</title>
<g id="a_node16"><a xlink:title=" ">
<polygon fill="#e0e0e0" stroke="#999999" points="217.12,-20 163.62,-20 163.62,0 217.12,0 217.12,-20"/>
<text text-anchor="middle" x="190.38" y="-6.5" font-family="Helvetica,sans-Serif" font-size="10.00">iostream</text>
</a>
</g>
</g>
<!-- Node13&#45;&gt;Node16 -->
<g id="edge15" class="edge">
<title>Node13&#45;&gt;Node16</title>
<path fill="none" stroke="#63b8ff" d="M261.25,-61.62C248.18,-52.29 227.88,-37.79 212.35,-26.7"/>
<polygon fill="#63b8ff" stroke="#63b8ff" points="214.81,-24.15 204.64,-21.19 210.74,-29.85 214.81,-24.15"/>
</g>
<!-- Node13&#45;&gt;Node17 -->
<g id="edge16" class="edge">
<title>Node13&#45;&gt;Node17</title>
<path fill="none" stroke="#63b8ff" d="M322.6,-62.62C337.56,-60.23 354.12,-57.79 369.38,-56 576.28,-31.77 825.81,-17.6 918.94,-12.83"/>
<polygon fill="#63b8ff" stroke="#63b8ff" points="918.94,-16.33 928.75,-12.33 918.59,-9.34 918.94,-16.33"/>
</g>
<!-- Node18 -->
<g id="node18" class="node">
<title>Node18</title>
<g id="a_node18"><a xlink:href="FMTutility_8hpp.html" target="_top" xlink:title=" ">
<polygon fill="white" stroke="#666666" points="313.12,-20 235.62,-20 235.62,0 313.12,0 313.12,-20"/>
<text text-anchor="middle" x="274.38" y="-6.5" font-family="Helvetica,sans-Serif" font-size="10.00">FMTutility.hpp</text>
</a>
</g>
</g>
<!-- Node13&#45;&gt;Node18 -->
<g id="edge17" class="edge">
<title>Node13&#45;&gt;Node18</title>
<path fill="none" stroke="#63b8ff" d="M274.38,-61.62C274.38,-53.56 274.38,-41.65 274.38,-31.41"/>
<polygon fill="#63b8ff" stroke="#63b8ff" points="277.88,-31.63 274.38,-21.63 270.88,-31.63 277.88,-31.63"/>
</g>
</g>
</svg>
