<?xml version="1.0" encoding="UTF-8" standalone="no"?>
<!DOCTYPE svg PUBLIC "-//W3C//DTD SVG 1.1//EN"
 "http://www.w3.org/Graphics/SVG/1.1/DTD/svg11.dtd">
<!-- Generated by graphviz version 10.0.1 (20240210.2158)
 -->
<!-- Title: D:/FMT/Include/FMToutput.hpp Pages: 1 -->
<!--zoomable 532 -->
<svg id="main" version="1.1" xmlns="http://www.w3.org/2000/svg" xmlns:xlink="http://www.w3.org/1999/xlink" xml:space="preserve" onload="init(evt)">
<style type="text/css"><![CDATA[
.edge:hover path { stroke: red; }
.edge:hover polygon { stroke: red; fill: red; }
]]></style>
<script type="text/javascript"><![CDATA[
var edges = document.getElementsByTagName('g');
if (edges && edges.length) {
  for (var i=0;i<edges.length;i++) {
    if (edges[i].id.substr(0,4)=='edge') {
      edges[i].setAttribute('class','edge');
    }
  }
}
]]></script>
        <defs>
                <circle id="rim" cx="0" cy="0" r="7"/>
                <circle id="rim2" cx="0" cy="0" r="3.5"/>
                <g id="zoomPlus">
                        <use xlink:href="#rim" fill="#404040">
                                <set attributeName="fill" to="#808080" begin="zoomplus.mouseover" end="zoomplus.mouseout"/>
                        </use>
                        <path d="M-4,0h8M0,-4v8" fill="none" stroke="white" stroke-width="1.5" pointer-events="none"/>
                </g>
                <g id="zoomMin">
                        <use xlink:href="#rim" fill="#404040">
                                <set attributeName="fill" to="#808080" begin="zoomminus.mouseover" end="zoomminus.mouseout"/>
                        </use>
                        <path d="M-4,0h8" fill="none" stroke="white" stroke-width="1.5" pointer-events="none"/>
                </g>
                <g id="dirArrow">
                        <path fill="none" stroke="white" stroke-width="1.5" d="M0,-3.0v7 M-2.5,-0.5L0,-3.0L2.5,-0.5"/>
                </g>
               <g id="resetDef">
                       <use xlink:href="#rim2" fill="#404040">
                               <set attributeName="fill" to="#808080" begin="reset.mouseover" end="reset.mouseout"/>
                       </use>
               </g>
        </defs>

<script type="text/javascript">
var viewWidth = 2152;
var viewHeight = 532;
var sectionId = 'dynsection-1';
</script>
<script xlink:href="svgpan.js"/>
<svg id="graph" class="graph">
<g id="viewport">
<title>D:/FMT/Include/FMToutput.hpp</title>
<!-- Node1 -->
<g id="node1" class="node">
<title>Node1</title>
<g id="a_node1"><a xlink:title=" ">
<polygon fill="#999999" stroke="#666666" points="1556.25,-524 1406,-524 1406,-504 1556.25,-504 1556.25,-524"/>
<text text-anchor="middle" x="1481.12" y="-510.5" font-family="Helvetica,sans-Serif" font-size="10.00">D:/FMT/Include/FMToutput.hpp</text>
</a>
</g>
</g>
<!-- Node2 -->
<g id="node2" class="node">
<title>Node2</title>
<g id="a_node2"><a xlink:href="FMTconstraint_8hpp.html" target="_top" xlink:title=" ">
<polygon fill="white" stroke="#666666" points="1327.12,-468 1161.12,-468 1161.12,-448 1327.12,-448 1327.12,-468"/>
<text text-anchor="middle" x="1244.12" y="-454.5" font-family="Helvetica,sans-Serif" font-size="10.00">D:/FMT/Include/FMTconstraint.hpp</text>
</a>
</g>
</g>
<!-- Node1&#45;&gt;Node2 -->
<g id="edge1" class="edge">
<title>Node1&#45;&gt;Node2</title>
<path fill="none" stroke="#63b8ff" d="M1428.46,-501C1385.4,-491.19 1325.34,-477.51 1285.63,-468.46"/>
<polygon fill="#63b8ff" stroke="#63b8ff" points="1427.57,-504.39 1438.1,-503.2 1429.12,-497.56 1427.57,-504.39"/>
</g>
<!-- Node9 -->
<g id="node9" class="node">
<title>Node9</title>
<g id="a_node9"><a xlink:href="Rdeclarations_8hpp.html" target="_top" xlink:title=" ">
<polygon fill="white" stroke="#666666" points="1296.62,-76 1133.62,-76 1133.62,-56 1296.62,-56 1296.62,-76"/>
<text text-anchor="middle" x="1215.12" y="-62.5" font-family="Helvetica,sans-Serif" font-size="10.00">D:/FMT/Include/Rdeclarations.hpp</text>
</a>
</g>
</g>
<!-- Node1&#45;&gt;Node9 -->
<g id="edge68" class="edge">
<title>Node1&#45;&gt;Node9</title>
<path fill="none" stroke="#63b8ff" d="M1394.5,-509.68C1117,-498.48 268.12,-459.61 268.12,-403 268.12,-403 268.12,-403 268.12,-289 268.12,-112.01 903.1,-76.02 1133.15,-68.79"/>
<polygon fill="#63b8ff" stroke="#63b8ff" points="1394.06,-513.17 1404.19,-510.07 1394.34,-506.17 1394.06,-513.17"/>
</g>
<!-- Node24 -->
<g id="node24" class="node">
<title>Node24</title>
<g id="a_node24"><a xlink:href="FMTmodel_8hpp.html" target="_top" xlink:title=" ">
<polygon fill="white" stroke="#666666" points="1587.88,-412 1438.38,-412 1438.38,-392 1587.88,-392 1587.88,-412"/>
<text text-anchor="middle" x="1513.12" y="-398.5" font-family="Helvetica,sans-Serif" font-size="10.00">D:/FMT/Include/FMTmodel.hpp</text>
</a>
</g>
</g>
<!-- Node1&#45;&gt;Node24 -->
<g id="edge61" class="edge">
<title>Node1&#45;&gt;Node24</title>
<path fill="none" stroke="#63b8ff" d="M1487.05,-492.64C1494.01,-468.72 1505.26,-430.03 1510.4,-412.35"/>
<polygon fill="#63b8ff" stroke="#63b8ff" points="1483.71,-491.59 1484.28,-502.17 1490.43,-493.54 1483.71,-491.59"/>
</g>
<!-- Node25 -->
<g id="node25" class="node">
<title>Node25</title>
<g id="a_node25"><a xlink:href="PYexportParallel_8hpp.html" target="_top" xlink:title=" ">
<polygon fill="white" stroke="#666666" points="1755.38,-356 1578.88,-356 1578.88,-336 1755.38,-336 1755.38,-356"/>
<text text-anchor="middle" x="1667.12" y="-342.5" font-family="Helvetica,sans-Serif" font-size="10.00">D:/FMT/Include/PYexportParallel.hpp</text>
</a>
</g>
</g>
<!-- Node1&#45;&gt;Node25 -->
<g id="edge67" class="edge">
<title>Node1&#45;&gt;Node25</title>
<path fill="none" stroke="#63b8ff" d="M1500.69,-496.3C1523.88,-476.42 1563.62,-442.13 1597.12,-412 1618.83,-392.48 1643.78,-369.08 1657.25,-356.36"/>
<polygon fill="#63b8ff" stroke="#63b8ff" points="1498.57,-493.5 1493.25,-502.66 1503.13,-498.82 1498.57,-493.5"/>
</g>
<!-- Node26 -->
<g id="node26" class="node">
<title>Node26</title>
<g id="a_node26"><a xlink:href="RexportParallel_8hpp.html" target="_top" xlink:title=" ">
<polygon fill="white" stroke="#666666" points="1981,-356 1811.25,-356 1811.25,-336 1981,-336 1981,-356"/>
<text text-anchor="middle" x="1896.12" y="-342.5" font-family="Helvetica,sans-Serif" font-size="10.00">D:/FMT/Include/RexportParallel.hpp</text>
</a>
</g>
</g>
<!-- Node1&#45;&gt;Node26 -->
<g id="edge70" class="edge">
<title>Node1&#45;&gt;Node26</title>
<path fill="none" stroke="#63b8ff" d="M1560.47,-501.81C1661.73,-486.01 1829.21,-454.31 1874.12,-412 1889.91,-397.13 1894.37,-370.55 1895.63,-356.43"/>
<polygon fill="#63b8ff" stroke="#63b8ff" points="1560.21,-498.31 1550.86,-503.29 1561.28,-505.22 1560.21,-498.31"/>
</g>
<!-- Node27 -->
<g id="node27" class="node">
<title>Node27</title>
<g id="a_node27"><a xlink:href="PYexportCore_8hpp.html" target="_top" xlink:title=" ">
<polygon fill="white" stroke="#666666" points="1168.38,-412 1003.88,-412 1003.88,-392 1168.38,-392 1168.38,-412"/>
<text text-anchor="middle" x="1086.12" y="-398.5" font-family="Helvetica,sans-Serif" font-size="10.00">D:/FMT/Include/PYexportCore.hpp</text>
</a>
</g>
</g>
<!-- Node1&#45;&gt;Node27 -->
<g id="edge66" class="edge">
<title>Node1&#45;&gt;Node27</title>
<path fill="none" stroke="#63b8ff" d="M1394.08,-507.31C1311.29,-500.8 1193.45,-488.31 1152.12,-468 1125.57,-454.95 1103.09,-427.08 1092.55,-412.44"/>
<polygon fill="#63b8ff" stroke="#63b8ff" points="1393.77,-510.8 1404.01,-508.08 1394.31,-503.82 1393.77,-510.8"/>
</g>
<!-- Node28 -->
<g id="node28" class="node">
<title>Node28</title>
<g id="a_node28"><a xlink:href="RexportCore_8hpp.html" target="_top" xlink:title=" ">
<polygon fill="white" stroke="#666666" points="1420,-412 1262.25,-412 1262.25,-392 1420,-392 1420,-412"/>
<text text-anchor="middle" x="1341.12" y="-398.5" font-family="Helvetica,sans-Serif" font-size="10.00">D:/FMT/Include/RexportCore.hpp</text>
</a>
</g>
</g>
<!-- Node1&#45;&gt;Node28 -->
<g id="edge69" class="edge">
<title>Node1&#45;&gt;Node28</title>
<path fill="none" stroke="#63b8ff" d="M1460.45,-496.76C1430.73,-473.4 1376.87,-431.09 1353.03,-412.35"/>
<polygon fill="#63b8ff" stroke="#63b8ff" points="1457.97,-499.26 1468,-502.69 1462.3,-493.76 1457.97,-499.26"/>
</g>
<!-- Node29 -->
<g id="node29" class="node">
<title>Node29</title>
<g id="a_node29"><a xlink:href="FMTopareaschedulertask_8hpp.html" target="_top" xlink:title=" ">
<polygon fill="white" stroke="#666666" points="1864.75,-412 1651.5,-412 1651.5,-392 1864.75,-392 1864.75,-412"/>
<text text-anchor="middle" x="1758.12" y="-398.5" font-family="Helvetica,sans-Serif" font-size="10.00">D:/FMT/Include/FMTopareaschedulertask.hpp</text>
</a>
</g>
</g>
<!-- Node1&#45;&gt;Node29 -->
<g id="edge62" class="edge">
<title>Node1&#45;&gt;Node29</title>
<path fill="none" stroke="#63b8ff" d="M1532.54,-500.76C1562.9,-492.85 1601.79,-481.52 1635.12,-468 1675.41,-451.66 1719.86,-426.17 1742.69,-412.47"/>
<polygon fill="#63b8ff" stroke="#63b8ff" points="1532.05,-497.27 1523.23,-503.14 1533.79,-504.05 1532.05,-497.27"/>
</g>
<!-- Node3 -->
<g id="node3" class="node">
<title>Node3</title>
<g id="a_node3"><a xlink:href="FMTgraph_8hpp.html" target="_top" xlink:title=" ">
<polygon fill="white" stroke="#666666" points="879.75,-356 732.5,-356 732.5,-336 879.75,-336 879.75,-356"/>
<text text-anchor="middle" x="806.12" y="-342.5" font-family="Helvetica,sans-Serif" font-size="10.00">D:/FMT/Include/FMTgraph.hpp</text>
</a>
</g>
</g>
<!-- Node2&#45;&gt;Node3 -->
<g id="edge2" class="edge">
<title>Node2&#45;&gt;Node3</title>
<path fill="none" stroke="#63b8ff" d="M1230.69,-438.47C1218.53,-423.25 1199.2,-402.54 1177.12,-392 1126.11,-367.64 972.66,-355.6 879.86,-350.38"/>
<polygon fill="#63b8ff" stroke="#63b8ff" points="1227.83,-440.49 1236.67,-446.31 1233.39,-436.24 1227.83,-440.49"/>
</g>
<!-- Node2&#45;&gt;Node9 -->
<g id="edge59" class="edge">
<title>Node2&#45;&gt;Node9</title>
<path fill="none" stroke="#63b8ff" d="M1238.29,-436.5C1224.13,-385.54 1188.22,-248.82 1176.12,-132 1175.21,-123.16 1173.02,-120.33 1176.12,-112 1181.54,-97.47 1194,-84.52 1203.39,-76.28"/>
<polygon fill="#63b8ff" stroke="#63b8ff" points="1234.91,-437.41 1240.99,-446.09 1241.65,-435.51 1234.91,-437.41"/>
</g>
<!-- Node2&#45;&gt;Node24 -->
<g id="edge48" class="edge">
<title>Node2&#45;&gt;Node24</title>
<path fill="none" stroke="#63b8ff" d="M1302.35,-445.31C1351.32,-435.48 1420.46,-421.6 1466.02,-412.46"/>
<polygon fill="#63b8ff" stroke="#63b8ff" points="1301.89,-441.83 1292.77,-447.23 1303.27,-448.7 1301.89,-441.83"/>
</g>
<!-- Node2&#45;&gt;Node27 -->
<g id="edge58" class="edge">
<title>Node2&#45;&gt;Node27</title>
<path fill="none" stroke="#63b8ff" d="M1205.86,-443.92C1177.45,-434.21 1139.38,-421.2 1113.86,-412.48"/>
<polygon fill="#63b8ff" stroke="#63b8ff" points="1204.58,-447.18 1215.17,-447.1 1206.84,-440.56 1204.58,-447.18"/>
</g>
<!-- Node2&#45;&gt;Node28 -->
<g id="edge60" class="edge">
<title>Node2&#45;&gt;Node28</title>
<path fill="none" stroke="#63b8ff" d="M1270.93,-442.08C1287.92,-432.62 1309.4,-420.66 1324.1,-412.48"/>
<polygon fill="#63b8ff" stroke="#63b8ff" points="1269.38,-438.94 1262.34,-446.86 1272.78,-445.05 1269.38,-438.94"/>
</g>
<!-- Node4 -->
<g id="node4" class="node">
<title>Node4</title>
<g id="a_node4"><a xlink:href="FMTlinegraph_8hpp.html" target="_top" xlink:title=" ">
<polygon fill="white" stroke="#666666" points="1168.25,-300 1006,-300 1006,-280 1168.25,-280 1168.25,-300"/>
<text text-anchor="middle" x="1087.12" y="-286.5" font-family="Helvetica,sans-Serif" font-size="10.00">D:/FMT/Include/FMTlinegraph.hpp</text>
</a>
</g>
</g>
<!-- Node3&#45;&gt;Node4 -->
<g id="edge3" class="edge">
<title>Node3&#45;&gt;Node4</title>
<path fill="none" stroke="#63b8ff" d="M866.62,-333.37C917.8,-323.54 990.23,-309.62 1037.91,-300.46"/>
<polygon fill="#63b8ff" stroke="#63b8ff" points="866.04,-329.92 856.88,-335.25 867.36,-336.8 866.04,-329.92"/>
</g>
<!-- Node14 -->
<g id="node14" class="node">
<title>Node14</title>
<g id="a_node14"><a xlink:href="RexportSpatial_8hpp.html" target="_top" xlink:title=" ">
<polygon fill="white" stroke="#666666" points="919.88,-188 752.38,-188 752.38,-168 919.88,-168 919.88,-188"/>
<text text-anchor="middle" x="836.12" y="-174.5" font-family="Helvetica,sans-Serif" font-size="10.00">D:/FMT/Include/RexportSpatial.hpp</text>
</a>
</g>
</g>
<!-- Node3&#45;&gt;Node14 -->
<g id="edge47" class="edge">
<title>Node3&#45;&gt;Node14</title>
<path fill="none" stroke="#63b8ff" d="M721.01,-343.32C658.55,-338.57 589.11,-323.77 617.12,-280 651.88,-225.69 724.07,-200.17 776.08,-188.46"/>
<polygon fill="#63b8ff" stroke="#63b8ff" points="720.44,-346.79 730.66,-343.97 720.91,-339.81 720.44,-346.79"/>
</g>
<!-- Node15 -->
<g id="node15" class="node">
<title>Node15</title>
<g id="a_node15"><a xlink:href="FMToperatingareascheme_8hpp.html" target="_top" xlink:title=" ">
<polygon fill="white" stroke="#666666" points="216.25,-188 0,-188 0,-168 216.25,-168 216.25,-188"/>
<text text-anchor="middle" x="108.12" y="-174.5" font-family="Helvetica,sans-Serif" font-size="10.00">D:/FMT/Include/FMToperatingareascheme.hpp</text>
</a>
</g>
</g>
<!-- Node3&#45;&gt;Node15 -->
<g id="edge22" class="edge">
<title>Node3&#45;&gt;Node15</title>
<path fill="none" stroke="#63b8ff" d="M720.91,-344.9C630.52,-342.83 484.34,-333.83 363.12,-300 266.6,-273.06 161.57,-211.95 123.21,-188.45"/>
<polygon fill="#63b8ff" stroke="#63b8ff" points="720.61,-348.39 730.68,-345.1 720.75,-341.4 720.61,-348.39"/>
</g>
<!-- Node18 -->
<g id="node18" class="node">
<title>Node18</title>
<g id="a_node18"><a xlink:href="FMToutputnodecache_8hpp.html" target="_top" xlink:title=" ">
<polygon fill="white" stroke="#666666" points="569.88,-300 372.38,-300 372.38,-280 569.88,-280 569.88,-300"/>
<text text-anchor="middle" x="471.12" y="-286.5" font-family="Helvetica,sans-Serif" font-size="10.00">D:/FMT/Include/FMToutputnodecache.hpp</text>
</a>
</g>
</g>
<!-- Node3&#45;&gt;Node18 -->
<g id="edge30" class="edge">
<title>Node3&#45;&gt;Node18</title>
<path fill="none" stroke="#63b8ff" d="M731.08,-333.81C668.3,-323.95 580.35,-309.76 524.52,-300.46"/>
<polygon fill="#63b8ff" stroke="#63b8ff" points="730.19,-337.21 740.61,-335.3 731.28,-330.29 730.19,-337.21"/>
</g>
<!-- Node19 -->
<g id="node19" class="node">
<title>Node19</title>
<g id="a_node19"><a xlink:href="FMTsrmodel_8hpp.html" target="_top" xlink:title=" ">
<polygon fill="white" stroke="#666666" points="1465,-188 1307.25,-188 1307.25,-168 1465,-168 1465,-188"/>
<text text-anchor="middle" x="1386.12" y="-174.5" font-family="Helvetica,sans-Serif" font-size="10.00">D:/FMT/Include/FMTsrmodel.hpp</text>
</a>
</g>
</g>
<!-- Node3&#45;&gt;Node19 -->
<g id="edge32" class="edge">
<title>Node3&#45;&gt;Node19</title>
<path fill="none" stroke="#63b8ff" d="M891.69,-344.32C968.29,-341.46 1082.75,-331.56 1177.12,-300 1258.64,-272.74 1343.62,-211.55 1374.25,-188.25"/>
<polygon fill="#63b8ff" stroke="#63b8ff" points="891.58,-340.82 881.71,-344.66 891.82,-347.82 891.58,-340.82"/>
</g>
<!-- Node22 -->
<g id="node22" class="node">
<title>Node22</title>
<g id="a_node22"><a xlink:href="PYexportGraph_8hpp.html" target="_top" xlink:title=" ">
<polygon fill="white" stroke="#666666" points="796.38,-300 625.88,-300 625.88,-280 796.38,-280 796.38,-300"/>
<text text-anchor="middle" x="711.12" y="-286.5" font-family="Helvetica,sans-Serif" font-size="10.00">D:/FMT/Include/PYexportGraph.hpp</text>
</a>
</g>
</g>
<!-- Node3&#45;&gt;Node22 -->
<g id="edge45" class="edge">
<title>Node3&#45;&gt;Node22</title>
<path fill="none" stroke="#63b8ff" d="M779.88,-330.08C763.23,-320.62 742.19,-308.66 727.8,-300.48"/>
<polygon fill="#63b8ff" stroke="#63b8ff" points="777.84,-332.95 788.26,-334.85 781.3,-326.86 777.84,-332.95"/>
</g>
<!-- Node23 -->
<g id="node23" class="node">
<title>Node23</title>
<g id="a_node23"><a xlink:href="PYexportSpatial_8hpp.html" target="_top" xlink:title=" ">
<polygon fill="white" stroke="#666666" points="988.25,-300 814,-300 814,-280 988.25,-280 988.25,-300"/>
<text text-anchor="middle" x="901.12" y="-286.5" font-family="Helvetica,sans-Serif" font-size="10.00">D:/FMT/Include/PYexportSpatial.hpp</text>
</a>
</g>
</g>
<!-- Node3&#45;&gt;Node23 -->
<g id="edge46" class="edge">
<title>Node3&#45;&gt;Node23</title>
<path fill="none" stroke="#63b8ff" d="M832.37,-330.08C849.02,-320.62 870.06,-308.66 884.45,-300.48"/>
<polygon fill="#63b8ff" stroke="#63b8ff" points="830.95,-326.86 823.99,-334.85 834.41,-332.95 830.95,-326.86"/>
</g>
<!-- Node5 -->
<g id="node5" class="node">
<title>Node5</title>
<g id="a_node5"><a xlink:href="FMTspatialschedule_8hpp.html" target="_top" xlink:title=" ">
<polygon fill="white" stroke="#666666" points="1054.5,-244 863.75,-244 863.75,-224 1054.5,-224 1054.5,-244"/>
<text text-anchor="middle" x="959.12" y="-230.5" font-family="Helvetica,sans-Serif" font-size="10.00">D:/FMT/Include/FMTspatialschedule.hpp</text>
</a>
</g>
</g>
<!-- Node4&#45;&gt;Node5 -->
<g id="edge4" class="edge">
<title>Node4&#45;&gt;Node5</title>
<path fill="none" stroke="#63b8ff" d="M1054.27,-275.14C1031.48,-265.52 1001.72,-252.97 981.59,-244.48"/>
<polygon fill="#63b8ff" stroke="#63b8ff" points="1052.86,-278.34 1063.43,-279.01 1055.58,-271.89 1052.86,-278.34"/>
</g>
<!-- Node4&#45;&gt;Node9 -->
<g id="edge20" class="edge">
<title>Node4&#45;&gt;Node9</title>
<path fill="none" stroke="#63b8ff" d="M1083.13,-268.47C1077.42,-232.8 1071.13,-158.7 1106.12,-112 1119.75,-93.81 1142.05,-82.94 1162.95,-76.45"/>
<polygon fill="#63b8ff" stroke="#63b8ff" points="1079.68,-269.03 1084.87,-278.27 1086.57,-267.81 1079.68,-269.03"/>
</g>
<!-- Node4&#45;&gt;Node14 -->
<g id="edge21" class="edge">
<title>Node4&#45;&gt;Node14</title>
<path fill="none" stroke="#63b8ff" d="M1008.34,-277.84C945.66,-268.29 866.6,-254.46 855.12,-244 839.14,-229.43 836.32,-202.22 835.99,-188.07"/>
<polygon fill="#63b8ff" stroke="#63b8ff" points="1007.53,-281.26 1017.94,-279.29 1008.57,-274.34 1007.53,-281.26"/>
</g>
<!-- Node6 -->
<g id="node6" class="node">
<title>Node6</title>
<g id="a_node6"><a xlink:href="FMTsemodel_8hpp.html" target="_top" xlink:title=" ">
<polygon fill="white" stroke="#666666" points="1643.12,-188 1483.12,-188 1483.12,-168 1643.12,-168 1643.12,-188"/>
<text text-anchor="middle" x="1563.12" y="-174.5" font-family="Helvetica,sans-Serif" font-size="10.00">D:/FMT/Include/FMTsemodel.hpp</text>
</a>
</g>
</g>
<!-- Node5&#45;&gt;Node6 -->
<g id="edge5" class="edge">
<title>Node5&#45;&gt;Node6</title>
<path fill="none" stroke="#63b8ff" d="M1066.02,-224.09C1170.2,-215.3 1333.09,-201.29 1474.12,-188 1477.06,-187.72 1480.05,-187.44 1483.08,-187.15"/>
<polygon fill="#63b8ff" stroke="#63b8ff" points="1065.73,-220.6 1056.06,-224.93 1066.32,-227.57 1065.73,-220.6"/>
</g>
<!-- Node5&#45;&gt;Node14 -->
<g id="edge19" class="edge">
<title>Node5&#45;&gt;Node14</title>
<path fill="none" stroke="#63b8ff" d="M927.26,-219.01C905.39,-209.41 876.97,-196.93 857.72,-188.48"/>
<polygon fill="#63b8ff" stroke="#63b8ff" points="925.75,-222.17 936.31,-222.99 928.56,-215.76 925.75,-222.17"/>
</g>
<!-- Node7 -->
<g id="node7" class="node">
<title>Node7</title>
<g id="a_node7"><a xlink:href="FMTsamodel_8hpp.html" target="_top" xlink:title=" ">
<polygon fill="white" stroke="#666666" points="2041.12,-132 1881.12,-132 1881.12,-112 2041.12,-112 2041.12,-132"/>
<text text-anchor="middle" x="1961.12" y="-118.5" font-family="Helvetica,sans-Serif" font-size="10.00">D:/FMT/Include/FMTsamodel.hpp</text>
</a>
</g>
</g>
<!-- Node6&#45;&gt;Node7 -->
<g id="edge6" class="edge">
<title>Node6&#45;&gt;Node7</title>
<path fill="none" stroke="#63b8ff" d="M1644.28,-165.99C1716.98,-156.13 1822.46,-141.81 1891.42,-132.46"/>
<polygon fill="#63b8ff" stroke="#63b8ff" points="1643.85,-162.52 1634.41,-167.33 1644.79,-169.45 1643.85,-162.52"/>
</g>
<!-- Node8 -->
<g id="node8" class="node">
<title>Node8</title>
<g id="a_node8"><a xlink:href="PYexportModel_8hpp.html" target="_top" xlink:title=" ">
<polygon fill="white" stroke="#666666" points="2084.38,-76 1913.88,-76 1913.88,-56 2084.38,-56 2084.38,-76"/>
<text text-anchor="middle" x="1999.12" y="-62.5" font-family="Helvetica,sans-Serif" font-size="10.00">D:/FMT/Include/PYexportModel.hpp</text>
</a>
</g>
</g>
<!-- Node6&#45;&gt;Node8 -->
<g id="edge16" class="edge">
<title>Node6&#45;&gt;Node8</title>
<path fill="none" stroke="#63b8ff" d="M1654.99,-176.25C1805.29,-174.06 2090.23,-165.48 2121.12,-132 2146.51,-104.48 2095.66,-86.37 2052.05,-76.41"/>
<polygon fill="#63b8ff" stroke="#63b8ff" points="1654.99,-172.75 1645.03,-176.39 1655.08,-179.75 1654.99,-172.75"/>
</g>
<!-- Node6&#45;&gt;Node9 -->
<g id="edge17" class="edge">
<title>Node6&#45;&gt;Node9</title>
<path fill="none" stroke="#63b8ff" d="M1532,-162.85C1513.13,-154.16 1488.62,-142.69 1467.12,-132 1450.04,-123.5 1447.08,-118.47 1429.12,-112 1381.98,-95.01 1326.56,-83.58 1283.93,-76.49"/>
<polygon fill="#63b8ff" stroke="#63b8ff" points="1530.47,-166 1541.02,-166.99 1533.39,-159.64 1530.47,-166"/>
</g>
<!-- Node10 -->
<g id="node10" class="node">
<title>Node10</title>
<g id="a_node10"><a xlink:href="RexportModel_8hpp.html" target="_top" xlink:title=" ">
<polygon fill="white" stroke="#666666" points="1896,-76 1732.25,-76 1732.25,-56 1896,-56 1896,-76"/>
<text text-anchor="middle" x="1814.12" y="-62.5" font-family="Helvetica,sans-Serif" font-size="10.00">D:/FMT/Include/RexportModel.hpp</text>
</a>
</g>
</g>
<!-- Node6&#45;&gt;Node10 -->
<g id="edge18" class="edge">
<title>Node6&#45;&gt;Node10</title>
<path fill="none" stroke="#63b8ff" d="M1654.82,-171.69C1792.24,-163.29 2037,-146.4 2050.12,-132 2056.11,-125.43 2055.79,-118.85 2050.12,-112 2039.76,-99.47 1954.39,-85.5 1889.28,-76.5"/>
<polygon fill="#63b8ff" stroke="#63b8ff" points="1654.78,-168.19 1645.01,-172.29 1655.2,-175.18 1654.78,-168.19"/>
</g>
<!-- Node11 -->
<g id="node11" class="node">
<title>Node11</title>
<g id="a_node11"><a xlink:href="FMTsesmodel_8hpp.html" target="_top" xlink:title=" ">
<polygon fill="white" stroke="#666666" points="1641.75,-132 1476.5,-132 1476.5,-112 1641.75,-112 1641.75,-132"/>
<text text-anchor="middle" x="1559.12" y="-118.5" font-family="Helvetica,sans-Serif" font-size="10.00">D:/FMT/Include/FMTsesmodel.hpp</text>
</a>
</g>
</g>
<!-- Node6&#45;&gt;Node11 -->
<g id="edge10" class="edge">
<title>Node6&#45;&gt;Node11</title>
<path fill="none" stroke="#63b8ff" d="M1561.58,-156.13C1560.97,-147.9 1560.3,-138.85 1559.81,-132.3"/>
<polygon fill="#63b8ff" stroke="#63b8ff" points="1558.09,-156.37 1562.32,-166.08 1565.07,-155.85 1558.09,-156.37"/>
</g>
<!-- Node7&#45;&gt;Node8 -->
<g id="edge7" class="edge">
<title>Node7&#45;&gt;Node8</title>
<path fill="none" stroke="#63b8ff" d="M1974.19,-102.44C1980.39,-93.62 1987.54,-83.47 1992.58,-76.3"/>
<polygon fill="#63b8ff" stroke="#63b8ff" points="1971.51,-100.16 1968.62,-110.36 1977.23,-104.19 1971.51,-100.16"/>
</g>
<!-- Node7&#45;&gt;Node9 -->
<g id="edge8" class="edge">
<title>Node7&#45;&gt;Node9</title>
<path fill="none" stroke="#63b8ff" d="M1869.76,-114.39C1723.15,-103.77 1437.57,-83.1 1297.12,-72.94"/>
<polygon fill="#63b8ff" stroke="#63b8ff" points="1869.2,-117.85 1879.43,-115.09 1869.71,-110.87 1869.2,-117.85"/>
</g>
<!-- Node7&#45;&gt;Node10 -->
<g id="edge9" class="edge">
<title>Node7&#45;&gt;Node10</title>
<path fill="none" stroke="#63b8ff" d="M1924.82,-107.66C1898.47,-97.98 1863.46,-85.12 1839.93,-76.48"/>
<polygon fill="#63b8ff" stroke="#63b8ff" points="1923.51,-110.91 1934.1,-111.07 1925.92,-104.34 1923.51,-110.91"/>
</g>
<!-- Node11&#45;&gt;Node8 -->
<g id="edge13" class="edge">
<title>Node11&#45;&gt;Node8</title>
<path fill="none" stroke="#63b8ff" d="M1647.6,-110.14C1727.91,-100.29 1845.15,-85.9 1921.79,-76.49"/>
<polygon fill="#63b8ff" stroke="#63b8ff" points="1647.52,-106.62 1638.03,-111.32 1648.38,-113.57 1647.52,-106.62"/>
</g>
<!-- Node11&#45;&gt;Node9 -->
<g id="edge14" class="edge">
<title>Node11&#45;&gt;Node9</title>
<path fill="none" stroke="#63b8ff" d="M1487.81,-109.81C1425.02,-99.95 1334.6,-85.76 1275.37,-76.46"/>
<polygon fill="#63b8ff" stroke="#63b8ff" points="1486.89,-113.2 1497.32,-111.3 1487.98,-106.29 1486.89,-113.2"/>
</g>
<!-- Node11&#45;&gt;Node10 -->
<g id="edge15" class="edge">
<title>Node11&#45;&gt;Node10</title>
<path fill="none" stroke="#63b8ff" d="M1614.9,-109.19C1661.3,-99.36 1726.47,-85.56 1769.47,-76.46"/>
<polygon fill="#63b8ff" stroke="#63b8ff" points="1614.37,-105.72 1605.32,-111.22 1615.82,-112.57 1614.37,-105.72"/>
</g>
<!-- Node12 -->
<g id="node12" class="node">
<title>Node12</title>
<g id="a_node12"><a xlink:href="FMTpythonpickle_8hpp.html" target="_top" xlink:title=" ">
<polygon fill="white" stroke="#666666" points="452.12,-76 274.12,-76 274.12,-56 452.12,-56 452.12,-76"/>
<text text-anchor="middle" x="363.12" y="-62.5" font-family="Helvetica,sans-Serif" font-size="10.00">D:/FMT/Include/FMTpythonpickle.hpp</text>
</a>
</g>
</g>
<!-- Node11&#45;&gt;Node12 -->
<g id="edge11" class="edge">
<title>Node11&#45;&gt;Node12</title>
<path fill="none" stroke="#63b8ff" d="M1464.82,-114.17C1452.81,-113.39 1440.68,-112.64 1429.12,-112 1067.09,-91.83 635.44,-76.2 452.31,-69.95"/>
<polygon fill="#63b8ff" stroke="#63b8ff" points="1464.55,-117.66 1474.76,-114.83 1465.02,-110.68 1464.55,-117.66"/>
</g>
<!-- Node13 -->
<g id="node13" class="node">
<title>Node13</title>
<g id="a_node13"><a xlink:href="PYexportHeuristics_8hpp.html" target="_top" xlink:title=" ">
<polygon fill="white" stroke="#666666" points="340,-20 152.25,-20 152.25,0 340,0 340,-20"/>
<text text-anchor="middle" x="246.12" y="-6.5" font-family="Helvetica,sans-Serif" font-size="10.00">D:/FMT/Include/PYexportHeuristics.hpp</text>
</a>
</g>
</g>
<!-- Node12&#45;&gt;Node13 -->
<g id="edge12" class="edge">
<title>Node12&#45;&gt;Node13</title>
<path fill="none" stroke="#63b8ff" d="M332.53,-50.88C311.77,-41.3 284.89,-28.89 266.66,-20.48"/>
<polygon fill="#63b8ff" stroke="#63b8ff" points="330.82,-53.95 341.37,-54.96 333.76,-47.59 330.82,-53.95"/>
</g>
<!-- Node15&#45;&gt;Node13 -->
<g id="edge28" class="edge">
<title>Node15&#45;&gt;Node13</title>
<path fill="none" stroke="#63b8ff" d="M84.46,-161.46C51.27,-137.79 -1.96,-91.66 27.12,-56 43.19,-36.3 100.16,-24.97 151.97,-18.62"/>
<polygon fill="#63b8ff" stroke="#63b8ff" points="82.15,-164.12 92.36,-166.93 86.13,-158.36 82.15,-164.12"/>
</g>
<!-- Node16 -->
<g id="node16" class="node">
<title>Node16</title>
<g id="a_node16"><a xlink:href="FMToperatingareascheduler_8hpp.html" target="_top" xlink:title=" ">
<polygon fill="white" stroke="#666666" points="316,-132 92.25,-132 92.25,-112 316,-112 316,-132"/>
<text text-anchor="middle" x="204.12" y="-118.5" font-family="Helvetica,sans-Serif" font-size="10.00">D:/FMT/Include/FMToperatingareascheduler.hpp</text>
</a>
</g>
</g>
<!-- Node15&#45;&gt;Node16 -->
<g id="edge23" class="edge">
<title>Node15&#45;&gt;Node16</title>
<path fill="none" stroke="#63b8ff" d="M134.65,-162.08C151.47,-152.62 172.73,-140.66 187.27,-132.48"/>
<polygon fill="#63b8ff" stroke="#63b8ff" points="133.17,-158.9 126.17,-166.85 136.6,-165 133.17,-158.9"/>
</g>
<!-- Node17 -->
<g id="node17" class="node">
<title>Node17</title>
<g id="a_node17"><a xlink:href="RexportHeuristics_8hpp.html" target="_top" xlink:title=" ">
<polygon fill="white" stroke="#666666" points="217.62,-76 36.62,-76 36.62,-56 217.62,-56 217.62,-76"/>
<text text-anchor="middle" x="127.12" y="-62.5" font-family="Helvetica,sans-Serif" font-size="10.00">D:/FMT/Include/RexportHeuristics.hpp</text>
</a>
</g>
</g>
<!-- Node15&#45;&gt;Node17 -->
<g id="edge29" class="edge">
<title>Node15&#45;&gt;Node17</title>
<path fill="none" stroke="#63b8ff" d="M93.23,-158.4C84.68,-145.36 76.79,-127.55 83.12,-112 89.23,-97.03 102.98,-84.32 113.5,-76.27"/>
<polygon fill="#63b8ff" stroke="#63b8ff" points="90.38,-160.43 99.09,-166.47 96.05,-156.32 90.38,-160.43"/>
</g>
<!-- Node16&#45;&gt;Node9 -->
<g id="edge26" class="edge">
<title>Node16&#45;&gt;Node9</title>
<path fill="none" stroke="#63b8ff" d="M327.62,-114.2C341.29,-113.45 355,-112.71 368.12,-112 648.97,-96.83 982.23,-79.25 1133.36,-71.3"/>
<polygon fill="#63b8ff" stroke="#63b8ff" points="327.47,-110.7 317.67,-114.74 327.85,-117.69 327.47,-110.7"/>
</g>
<!-- Node16&#45;&gt;Node12 -->
<g id="edge24" class="edge">
<title>Node16&#45;&gt;Node12</title>
<path fill="none" stroke="#63b8ff" d="M242.64,-107.92C271.22,-98.21 309.54,-85.2 335.21,-76.48"/>
<polygon fill="#63b8ff" stroke="#63b8ff" points="241.6,-104.58 233.25,-111.11 243.85,-111.21 241.6,-104.58"/>
</g>
<!-- Node16&#45;&gt;Node13 -->
<g id="edge25" class="edge">
<title>Node16&#45;&gt;Node13</title>
<path fill="none" stroke="#63b8ff" d="M214.57,-101.32C218.48,-93.55 222.77,-84.48 226.12,-76 233.77,-56.68 240.35,-33.2 243.73,-20.41"/>
<polygon fill="#63b8ff" stroke="#63b8ff" points="211.47,-99.71 209.98,-110.2 217.69,-102.92 211.47,-99.71"/>
</g>
<!-- Node16&#45;&gt;Node17 -->
<g id="edge27" class="edge">
<title>Node16&#45;&gt;Node17</title>
<path fill="none" stroke="#63b8ff" d="M181.31,-105C168.08,-95.72 151.87,-84.35 140.64,-76.48"/>
<polygon fill="#63b8ff" stroke="#63b8ff" points="179.28,-107.85 189.47,-110.72 183.3,-102.12 179.28,-107.85"/>
</g>
<!-- Node18&#45;&gt;Node3 -->
<g id="edge31" class="edge">
<title>Node18&#45;&gt;Node3</title>
<path fill="none" stroke="#63b8ff" d="M546.09,-302.18C608.86,-312.04 696.81,-326.23 752.67,-335.53"/>
<polygon fill="#63b8ff" stroke="#63b8ff" points="546.99,-298.78 536.57,-300.69 545.9,-305.7 546.99,-298.78"/>
</g>
<!-- Node19&#45;&gt;Node8 -->
<g id="edge42" class="edge">
<title>Node19&#45;&gt;Node8</title>
<path fill="none" stroke="#63b8ff" d="M1476.46,-168.11C1576.61,-163.97 2008.06,-176.77 2050.12,-132 2067.51,-113.5 2036.47,-89.51 2015.66,-76.46"/>
<polygon fill="#63b8ff" stroke="#63b8ff" points="1476.56,-164.6 1466.78,-168.67 1476.96,-171.59 1476.56,-164.6"/>
</g>
<!-- Node19&#45;&gt;Node9 -->
<g id="edge43" class="edge">
<title>Node19&#45;&gt;Node9</title>
<path fill="none" stroke="#63b8ff" d="M1320.75,-164.47C1297.9,-157.69 1273.22,-147.43 1254.12,-132 1235.49,-116.95 1223.64,-90.45 1218.35,-76.38"/>
<polygon fill="#63b8ff" stroke="#63b8ff" points="1319.75,-167.82 1330.32,-167.12 1321.62,-161.08 1319.75,-167.82"/>
</g>
<!-- Node19&#45;&gt;Node10 -->
<g id="edge44" class="edge">
<title>Node19&#45;&gt;Node10</title>
<path fill="none" stroke="#63b8ff" d="M1476.72,-168.02C1548.63,-163.59 1808.78,-160 1834.12,-132 1848.54,-116.07 1832.35,-89.94 1821.79,-76.16"/>
<polygon fill="#63b8ff" stroke="#63b8ff" points="1476.49,-164.53 1466.79,-168.78 1477.02,-171.51 1476.49,-164.53"/>
</g>
<!-- Node20 -->
<g id="node20" class="node">
<title>Node20</title>
<g id="a_node20"><a xlink:href="FMTlpmodel_8hpp.html" target="_top" xlink:title=" ">
<polygon fill="white" stroke="#666666" points="1419.62,-132 1262.62,-132 1262.62,-112 1419.62,-112 1419.62,-132"/>
<text text-anchor="middle" x="1341.12" y="-118.5" font-family="Helvetica,sans-Serif" font-size="10.00">D:/FMT/Include/FMTlpmodel.hpp</text>
</a>
</g>
</g>
<!-- Node19&#45;&gt;Node20 -->
<g id="edge33" class="edge">
<title>Node19&#45;&gt;Node20</title>
<path fill="none" stroke="#63b8ff" d="M1371.13,-159C1363.67,-150.06 1354.98,-139.62 1348.87,-132.3"/>
<polygon fill="#63b8ff" stroke="#63b8ff" points="1368.23,-160.99 1377.32,-166.43 1373.6,-156.51 1368.23,-160.99"/>
</g>
<!-- Node21 -->
<g id="node21" class="node">
<title>Node21</title>
<g id="a_node21"><a xlink:href="FMTnssmodel_8hpp.html" target="_top" xlink:title=" ">
<polygon fill="white" stroke="#666666" points="1824.75,-132 1659.5,-132 1659.5,-112 1824.75,-112 1824.75,-132"/>
<text text-anchor="middle" x="1742.12" y="-118.5" font-family="Helvetica,sans-Serif" font-size="10.00">D:/FMT/Include/FMTnssmodel.hpp</text>
</a>
</g>
</g>
<!-- Node19&#45;&gt;Node21 -->
<g id="edge38" class="edge">
<title>Node19&#45;&gt;Node21</title>
<path fill="none" stroke="#63b8ff" d="M1459.92,-165.81C1524.9,-155.95 1618.48,-141.76 1679.78,-132.46"/>
<polygon fill="#63b8ff" stroke="#63b8ff" points="1459.4,-162.34 1450.04,-167.31 1460.45,-169.27 1459.4,-162.34"/>
</g>
<!-- Node20&#45;&gt;Node8 -->
<g id="edge35" class="edge">
<title>Node20&#45;&gt;Node8</title>
<path fill="none" stroke="#63b8ff" d="M1431.26,-114.25C1542.63,-105.81 1737.91,-90.67 1905.12,-76 1907.9,-75.76 1910.72,-75.51 1913.57,-75.25"/>
<polygon fill="#63b8ff" stroke="#63b8ff" points="1431.3,-110.74 1421.6,-114.98 1431.83,-117.72 1431.3,-110.74"/>
</g>
<!-- Node20&#45;&gt;Node9 -->
<g id="edge36" class="edge">
<title>Node20&#45;&gt;Node9</title>
<path fill="none" stroke="#63b8ff" d="M1308.79,-107.14C1286.35,-97.52 1257.05,-84.97 1237.24,-76.48"/>
<polygon fill="#63b8ff" stroke="#63b8ff" points="1307.22,-110.28 1317.79,-111 1309.97,-103.84 1307.22,-110.28"/>
</g>
<!-- Node20&#45;&gt;Node10 -->
<g id="edge37" class="edge">
<title>Node20&#45;&gt;Node10</title>
<path fill="none" stroke="#63b8ff" d="M1431.44,-110.69C1518.12,-100.79 1647.92,-85.98 1731.82,-76.4"/>
<polygon fill="#63b8ff" stroke="#63b8ff" points="1431.07,-107.21 1421.53,-111.82 1431.86,-114.16 1431.07,-107.21"/>
</g>
<!-- Node20&#45;&gt;Node12 -->
<g id="edge34" class="edge">
<title>Node20&#45;&gt;Node12</title>
<path fill="none" stroke="#63b8ff" d="M1250.93,-116.02C1064.36,-105.72 637.96,-82.17 452.28,-71.92"/>
<polygon fill="#63b8ff" stroke="#63b8ff" points="1250.64,-119.51 1260.82,-116.57 1251.03,-112.52 1250.64,-119.51"/>
</g>
<!-- Node21&#45;&gt;Node8 -->
<g id="edge39" class="edge">
<title>Node21&#45;&gt;Node8</title>
<path fill="none" stroke="#63b8ff" d="M1798.34,-109.19C1845.1,-99.36 1910.78,-85.56 1954.12,-76.46"/>
<polygon fill="#63b8ff" stroke="#63b8ff" points="1797.73,-105.74 1788.67,-111.22 1799.17,-112.59 1797.73,-105.74"/>
</g>
<!-- Node21&#45;&gt;Node9 -->
<g id="edge40" class="edge">
<title>Node21&#45;&gt;Node9</title>
<path fill="none" stroke="#63b8ff" d="M1647.9,-111.35C1547.93,-101.1 1391.58,-85.08 1296.7,-75.36"/>
<polygon fill="#63b8ff" stroke="#63b8ff" points="1647.39,-114.81 1657.7,-112.35 1648.1,-107.85 1647.39,-114.81"/>
</g>
<!-- Node21&#45;&gt;Node10 -->
<g id="edge41" class="edge">
<title>Node21&#45;&gt;Node10</title>
<path fill="none" stroke="#63b8ff" d="M1763.52,-104.95C1775.97,-95.61 1791.24,-84.16 1801.73,-76.3"/>
<polygon fill="#63b8ff" stroke="#63b8ff" points="1761.78,-101.89 1755.88,-110.69 1765.98,-107.49 1761.78,-101.89"/>
</g>
<!-- Node24&#45;&gt;Node3 -->
<g id="edge49" class="edge">
<title>Node24&#45;&gt;Node3</title>
<path fill="none" stroke="#63b8ff" d="M1426.78,-391.82C1222.51,-373.68 994.66,-358.68 880.04,-351.51"/>
<polygon fill="#63b8ff" stroke="#63b8ff" points="1426.25,-395.29 1436.52,-392.69 1426.88,-388.31 1426.25,-395.29"/>
</g>
<!-- Node24&#45;&gt;Node6 -->
<g id="edge51" class="edge">
<title>Node24&#45;&gt;Node6</title>
<path fill="none" stroke="#63b8ff" d="M1504.66,-381.34C1500.17,-368.47 1496.13,-351.26 1499.12,-336 1510.73,-276.79 1544.79,-211.73 1557.9,-188.16"/>
<polygon fill="#63b8ff" stroke="#63b8ff" points="1501.29,-382.31 1508.18,-390.36 1507.81,-379.77 1501.29,-382.31"/>
</g>
<!-- Node24&#45;&gt;Node8 -->
<g id="edge53" class="edge">
<title>Node24&#45;&gt;Node8</title>
<path fill="none" stroke="#63b8ff" d="M1525.52,-382.28C1535.92,-367.86 1551.96,-348.37 1570.12,-336 1791.83,-185.02 1983.81,-351.4 2138.12,-132 2159.35,-101.82 2116.93,-85.27 2073.51,-76.44"/>
<polygon fill="#63b8ff" stroke="#63b8ff" points="1522.68,-380.24 1519.86,-390.46 1528.43,-384.23 1522.68,-380.24"/>
</g>
<!-- Node24&#45;&gt;Node9 -->
<g id="edge55" class="edge">
<title>Node24&#45;&gt;Node9</title>
<path fill="none" stroke="#63b8ff" d="M1487.96,-385.59C1435.8,-352.99 1313.5,-273.01 1226.12,-188 1203.44,-165.93 1192.47,-161.91 1182.12,-132 1174.93,-111.19 1192.76,-88.64 1204.92,-76.33"/>
<polygon fill="#63b8ff" stroke="#63b8ff" points="1486.07,-388.54 1496.42,-390.84 1489.77,-382.6 1486.07,-388.54"/>
</g>
<!-- Node24&#45;&gt;Node10 -->
<g id="edge56" class="edge">
<title>Node24&#45;&gt;Node10</title>
<path fill="none" stroke="#63b8ff" d="M1516.33,-380.89C1519.49,-366.82 1525.6,-348.41 1537.12,-336 1618.89,-247.99 1671.16,-267.53 1783.12,-224 1813.94,-212.02 2046.69,-158.75 2066.12,-132 2071.35,-124.81 2071.83,-118.82 2066.12,-112 2055.11,-98.84 1965.6,-85.17 1896.36,-76.41"/>
<polygon fill="#63b8ff" stroke="#63b8ff" points="1512.95,-379.9 1514.53,-390.38 1519.83,-381.21 1512.95,-379.9"/>
</g>
<!-- Node24&#45;&gt;Node12 -->
<g id="edge50" class="edge">
<title>Node24&#45;&gt;Node12</title>
<path fill="none" stroke="#63b8ff" d="M1426.81,-391.87C1114,-367.74 1031.99,-387.81 723.12,-356 553.12,-338.49 344.12,-461.9 344.12,-291 344.12,-291 344.12,-291 344.12,-177 344.12,-139.21 355.15,-95.17 360.4,-76.32"/>
<polygon fill="#63b8ff" stroke="#63b8ff" points="1426.29,-395.34 1436.53,-392.63 1426.83,-388.36 1426.29,-395.34"/>
</g>
<!-- Node24&#45;&gt;Node19 -->
<g id="edge52" class="edge">
<title>Node24&#45;&gt;Node19</title>
<path fill="none" stroke="#63b8ff" d="M1502.21,-381.92C1476.06,-336.21 1410.56,-221.72 1391.44,-188.3"/>
<polygon fill="#63b8ff" stroke="#63b8ff" points="1499.07,-383.49 1507.08,-390.43 1505.15,-380.01 1499.07,-383.49"/>
</g>
<!-- Node24&#45;&gt;Node25 -->
<g id="edge54" class="edge">
<title>Node24&#45;&gt;Node25</title>
<path fill="none" stroke="#63b8ff" d="M1550.79,-387.79C1578.44,-378.1 1615.33,-365.16 1640.09,-356.48"/>
<polygon fill="#63b8ff" stroke="#63b8ff" points="1549.66,-384.48 1541.38,-391.09 1551.97,-391.09 1549.66,-384.48"/>
</g>
<!-- Node24&#45;&gt;Node26 -->
<g id="edge57" class="edge">
<title>Node24&#45;&gt;Node26</title>
<path fill="none" stroke="#63b8ff" d="M1591.66,-389.93C1661.6,-380.07 1762.83,-365.79 1829.05,-356.46"/>
<polygon fill="#63b8ff" stroke="#63b8ff" points="1591.19,-386.46 1581.78,-391.32 1592.17,-393.39 1591.19,-386.46"/>
</g>
<!-- Node29&#45;&gt;Node9 -->
<g id="edge64" class="edge">
<title>Node29&#45;&gt;Node9</title>
<path fill="none" stroke="#63b8ff" d="M1766.42,-381.13C1770.8,-367.21 1773.54,-348.86 1764.12,-336 1635.81,-160.62 1488.25,-293.24 1298.12,-188 1264.47,-169.37 1252.61,-164.56 1232.12,-132 1220.95,-114.23 1217.08,-89.31 1215.77,-76.09"/>
<polygon fill="#63b8ff" stroke="#63b8ff" points="1763.27,-379.55 1763.1,-390.15 1769.84,-381.97 1763.27,-379.55"/>
</g>
<!-- Node29&#45;&gt;Node25 -->
<g id="edge63" class="edge">
<title>Node29&#45;&gt;Node25</title>
<path fill="none" stroke="#63b8ff" d="M1732.53,-385.81C1716.66,-376.39 1696.76,-364.58 1683.1,-356.48"/>
<polygon fill="#63b8ff" stroke="#63b8ff" points="1730.59,-388.73 1740.97,-390.82 1734.16,-382.71 1730.59,-388.73"/>
</g>
<!-- Node29&#45;&gt;Node26 -->
<g id="edge65" class="edge">
<title>Node29&#45;&gt;Node26</title>
<path fill="none" stroke="#63b8ff" d="M1792.88,-387.4C1817.53,-377.75 1850.01,-365.05 1871.9,-356.48"/>
<polygon fill="#63b8ff" stroke="#63b8ff" points="1791.61,-384.14 1783.57,-391.04 1794.16,-390.66 1791.61,-384.14"/>
</g>
</g>
</svg>
        <g id="navigator" transform="translate(0 0)" fill="#404254">
                <rect fill="#f2f5e9" fill-opacity="0.5" stroke="#606060" stroke-width=".5" x="0" y="0" width="60" height="60"/>
                <use id="zoomplus" xlink:href="#zoomPlus" x="17" y="9" onmousedown="handleZoom(evt,'in')"/>
                <use id="zoomminus" xlink:href="#zoomMin" x="42" y="9" onmousedown="handleZoom(evt,'out')"/>
                <use id="reset" xlink:href="#resetDef" x="30" y="36" onmousedown="handleReset()"/>
                <g id="arrowUp" xlink:href="#dirArrow" transform="translate(30 24)" onmousedown="handlePan(0,-1)">
                  <use xlink:href="#rim" fill="#404040">
                        <set attributeName="fill" to="#808080" begin="arrowUp.mouseover" end="arrowUp.mouseout"/>
                  </use>
                  <path fill="none" stroke="white" stroke-width="1.5" d="M0,-3.0v7 M-2.5,-0.5L0,-3.0L2.5,-0.5"/>
                </g>
                <g id="arrowRight" xlink:href="#dirArrow" transform="rotate(90) translate(36 -43)" onmousedown="handlePan(1,0)">
                  <use xlink:href="#rim" fill="#404040">
                        <set attributeName="fill" to="#808080" begin="arrowRight.mouseover" end="arrowRight.mouseout"/>
                  </use>
                  <path fill="none" stroke="white" stroke-width="1.5" d="M0,-3.0v7 M-2.5,-0.5L0,-3.0L2.5,-0.5"/>
                </g>
                <g id="arrowDown" xlink:href="#dirArrow" transform="rotate(180) translate(-30 -48)" onmousedown="handlePan(0,1)">
                  <use xlink:href="#rim" fill="#404040">
                        <set attributeName="fill" to="#808080" begin="arrowDown.mouseover" end="arrowDown.mouseout"/>
                  </use>
                  <path fill="none" stroke="white" stroke-width="1.5" d="M0,-3.0v7 M-2.5,-0.5L0,-3.0L2.5,-0.5"/>
                </g>
                <g id="arrowLeft" xlink:href="#dirArrow" transform="rotate(270) translate(-36 17)" onmousedown="handlePan(-1,0)">
                  <use xlink:href="#rim" fill="#404040">
                        <set attributeName="fill" to="#808080" begin="arrowLeft.mouseover" end="arrowLeft.mouseout"/>
                  </use>
                  <path fill="none" stroke="white" stroke-width="1.5" d="M0,-3.0v7 M-2.5,-0.5L0,-3.0L2.5,-0.5"/>
                </g>
        </g>
        <svg viewBox="0 0 15 15" width="100%" height="30px" preserveAspectRatio="xMaxYMin meet">
         <g id="arrow_out" transform="scale(0.3 0.3)">
          <a xlink:href="FMToutput_8hpp__dep__incl_org.svg" target="_base">
           <rect id="button" ry="5" rx="5" y="6" x="6" height="38" width="38"
                fill="#f2f5e9" fill-opacity="0.5" stroke="#606060" stroke-width="1.0"/>
           <path id="arrow"
             d="M 11.500037,31.436501 C 11.940474,20.09759 22.043105,11.32322 32.158766,21.979434 L 37.068811,17.246167 C 37.068811,17.246167 37.088388,32 37.088388,32 L 22.160133,31.978069 C 22.160133,31.978069 26.997745,27.140456 26.997745,27.140456 C 18.528582,18.264221 13.291696,25.230495 11.500037,31.436501 z"
             style="fill:#404040;"/>
          </a>
         </g>
        </svg>
</svg>
