<?xml version="1.0" encoding="UTF-8" standalone="no"?>
<!DOCTYPE svg PUBLIC "-//W3C//DTD SVG 1.1//EN"
 "http://www.w3.org/Graphics/SVG/1.1/DTD/svg11.dtd">
<!-- Generated by graphviz version 10.0.1 (20240210.2158)
 -->
<!-- Title: D:/FMT/Include/FMToperatingareacluster.hpp Pages: 1 -->
<!--zoomable 320 -->
<svg id="main" version="1.1" xmlns="http://www.w3.org/2000/svg" xmlns:xlink="http://www.w3.org/1999/xlink" xml:space="preserve" onload="init(evt)">
<style type="text/css"><![CDATA[
.edge:hover path { stroke: red; }
.edge:hover polygon { stroke: red; fill: red; }
]]></style>
<script type="text/javascript"><![CDATA[
var edges = document.getElementsByTagName('g');
if (edges && edges.length) {
  for (var i=0;i<edges.length;i++) {
    if (edges[i].id.substr(0,4)=='edge') {
      edges[i].setAttribute('class','edge');
    }
  }
}
]]></script>
        <defs>
                <circle id="rim" cx="0" cy="0" r="7"/>
                <circle id="rim2" cx="0" cy="0" r="3.5"/>
                <g id="zoomPlus">
                        <use xlink:href="#rim" fill="#404040">
                                <set attributeName="fill" to="#808080" begin="zoomplus.mouseover" end="zoomplus.mouseout"/>
                        </use>
                        <path d="M-4,0h8M0,-4v8" fill="none" stroke="white" stroke-width="1.5" pointer-events="none"/>
                </g>
                <g id="zoomMin">
                        <use xlink:href="#rim" fill="#404040">
                                <set attributeName="fill" to="#808080" begin="zoomminus.mouseover" end="zoomminus.mouseout"/>
                        </use>
                        <path d="M-4,0h8" fill="none" stroke="white" stroke-width="1.5" pointer-events="none"/>
                </g>
                <g id="dirArrow">
                        <path fill="none" stroke="white" stroke-width="1.5" d="M0,-3.0v7 M-2.5,-0.5L0,-3.0L2.5,-0.5"/>
                </g>
               <g id="resetDef">
                       <use xlink:href="#rim2" fill="#404040">
                               <set attributeName="fill" to="#808080" begin="reset.mouseover" end="reset.mouseout"/>
                       </use>
               </g>
        </defs>

<script type="text/javascript">
var viewWidth = 1515;
var viewHeight = 320;
var sectionId = 'dynsection-0';
</script>
<script xlink:href="svgpan.js"/>
<svg id="graph" class="graph">
<g id="viewport">
<title>D:/FMT/Include/FMToperatingareacluster.hpp</title>
<!-- Node1 -->
<g id="node1" class="node">
<title>Node1</title>
<g id="a_node1"><a xlink:title=" ">
<polygon fill="#999999" stroke="#666666" points="1380.88,-312 1169.88,-312 1169.88,-292 1380.88,-292 1380.88,-312"/>
<text text-anchor="middle" x="1275.38" y="-298.5" font-family="Helvetica,sans-Serif" font-size="10.00">D:/FMT/Include/FMToperatingareacluster.hpp</text>
</a>
</g>
</g>
<!-- Node2 -->
<g id="node2" class="node">
<title>Node2</title>
<g id="a_node2"><a xlink:href="FMToperatingareaclusterbinary_8hpp.html" target="_top" xlink:title=" ">
<polygon fill="white" stroke="#666666" points="1359.5,-256 1191.25,-256 1191.25,-236 1359.5,-236 1359.5,-256"/>
<text text-anchor="middle" x="1275.38" y="-242.5" font-family="Helvetica,sans-Serif" font-size="10.00">FMToperatingareaclusterbinary.hpp</text>
</a>
</g>
</g>
<!-- Node1&#45;&gt;Node2 -->
<g id="edge1" class="edge">
<title>Node1&#45;&gt;Node2</title>
<path fill="none" stroke="#63b8ff" d="M1275.38,-291.59C1275.38,-285.01 1275.38,-275.96 1275.38,-267.73"/>
<polygon fill="#63b8ff" stroke="#63b8ff" points="1278.88,-267.81 1275.38,-257.81 1271.88,-267.81 1278.88,-267.81"/>
</g>
<!-- Node3 -->
<g id="node3" class="node">
<title>Node3</title>
<g id="a_node3"><a xlink:title=" ">
<polygon fill="#e0e0e0" stroke="#999999" points="94.75,-88 0,-88 0,-56 94.75,-56 94.75,-88"/>
<text text-anchor="start" x="8" y="-74.5" font-family="Helvetica,sans-Serif" font-size="10.00">boost/serialization</text>
<text text-anchor="middle" x="47.38" y="-62.5" font-family="Helvetica,sans-Serif" font-size="10.00">/serialization.hpp</text>
</a>
</g>
</g>
<!-- Node1&#45;&gt;Node3 -->
<g id="edge31" class="edge">
<title>Node1&#45;&gt;Node3</title>
<path fill="none" stroke="#63b8ff" d="M1169.8,-294.51C1070.7,-287.65 918.5,-275.15 787.38,-256 662.23,-237.72 631.43,-229.2 508.38,-200 416.89,-178.29 395.02,-168.96 304.38,-144 236.4,-125.28 158.33,-103.7 106.24,-89.29"/>
<polygon fill="#63b8ff" stroke="#63b8ff" points="107.24,-85.94 96.67,-86.64 105.37,-92.68 107.24,-85.94"/>
</g>
<!-- Node4 -->
<g id="node4" class="node">
<title>Node4</title>
<g id="a_node4"><a xlink:title=" ">
<polygon fill="#e0e0e0" stroke="#999999" points="1506.75,-88 1412,-88 1412,-56 1506.75,-56 1506.75,-88"/>
<text text-anchor="start" x="1420" y="-74.5" font-family="Helvetica,sans-Serif" font-size="10.00">boost/serialization</text>
<text text-anchor="middle" x="1459.38" y="-62.5" font-family="Helvetica,sans-Serif" font-size="10.00">/nvp.hpp</text>
</a>
</g>
</g>
<!-- Node1&#45;&gt;Node4 -->
<g id="edge32" class="edge">
<title>Node1&#45;&gt;Node4</title>
<path fill="none" stroke="#63b8ff" d="M1320.62,-291.54C1342.87,-284.87 1368.63,-273.84 1386.38,-256 1430,-212.13 1448.42,-138.91 1455.47,-99.71"/>
<polygon fill="#63b8ff" stroke="#63b8ff" points="1458.9,-100.41 1457.1,-89.97 1452,-99.26 1458.9,-100.41"/>
</g>
<!-- Node5 -->
<g id="node5" class="node">
<title>Node5</title>
<g id="a_node5"><a xlink:title=" ">
<polygon fill="#e0e0e0" stroke="#999999" points="1393.75,-88 1299,-88 1299,-56 1393.75,-56 1393.75,-88"/>
<text text-anchor="start" x="1307" y="-74.5" font-family="Helvetica,sans-Serif" font-size="10.00">boost/serialization</text>
<text text-anchor="middle" x="1346.38" y="-62.5" font-family="Helvetica,sans-Serif" font-size="10.00">/export.hpp</text>
</a>
</g>
</g>
<!-- Node1&#45;&gt;Node5 -->
<g id="edge33" class="edge">
<title>Node1&#45;&gt;Node5</title>
<path fill="none" stroke="#63b8ff" d="M1317.51,-291.5C1336.49,-284.89 1357.13,-273.93 1368.38,-256 1399.09,-207.02 1375.49,-136.03 1358.95,-98.49"/>
<polygon fill="#63b8ff" stroke="#63b8ff" points="1362.3,-97.4 1354.95,-89.78 1355.94,-100.33 1362.3,-97.4"/>
</g>
<!-- Node21 -->
<g id="node21" class="node">
<title>Node21</title>
<g id="a_node21"><a xlink:title=" ">
<polygon fill="#e0e0e0" stroke="#999999" points="154.12,-82 112.62,-82 112.62,-62 154.12,-62 154.12,-82"/>
<text text-anchor="middle" x="133.38" y="-68.5" font-family="Helvetica,sans-Serif" font-size="10.00">vector</text>
</a>
</g>
</g>
<!-- Node1&#45;&gt;Node21 -->
<g id="edge34" class="edge">
<title>Node1&#45;&gt;Node21</title>
<path fill="none" stroke="#63b8ff" d="M1178.65,-291.5C982.76,-270.32 526.9,-211.08 163.38,-88 162.41,-87.67 161.44,-87.32 160.46,-86.95"/>
<polygon fill="#63b8ff" stroke="#63b8ff" points="162.11,-83.85 151.54,-83.01 159.28,-90.25 162.11,-83.85"/>
</g>
<!-- Node2&#45;&gt;Node3 -->
<g id="edge2" class="edge">
<title>Node2&#45;&gt;Node3</title>
<path fill="none" stroke="#63b8ff" d="M1190.95,-235.57C1042.28,-218.73 724.14,-181.74 456.38,-144 302.61,-122.33 260.62,-121.09 105.81,-88.41"/>
<polygon fill="#63b8ff" stroke="#63b8ff" points="106.94,-85.07 96.43,-86.42 105.49,-91.92 106.94,-85.07"/>
</g>
<!-- Node2&#45;&gt;Node4 -->
<g id="edge3" class="edge">
<title>Node2&#45;&gt;Node4</title>
<path fill="none" stroke="#63b8ff" d="M1285.53,-235.51C1313.75,-209.13 1393.7,-134.39 1434.61,-96.15"/>
<polygon fill="#63b8ff" stroke="#63b8ff" points="1436.92,-98.78 1441.84,-89.39 1432.14,-93.67 1436.92,-98.78"/>
</g>
<!-- Node2&#45;&gt;Node5 -->
<g id="edge4" class="edge">
<title>Node2&#45;&gt;Node5</title>
<path fill="none" stroke="#63b8ff" d="M1279.29,-235.51C1289.93,-209.74 1319.62,-137.81 1335.7,-98.86"/>
<polygon fill="#63b8ff" stroke="#63b8ff" points="1338.88,-100.34 1339.46,-89.76 1332.41,-97.67 1338.88,-100.34"/>
</g>
<!-- Node6 -->
<g id="node6" class="node">
<title>Node6</title>
<g id="a_node6"><a xlink:href="FMToperatingarea_8hpp.html" target="_top" xlink:title=" ">
<polygon fill="white" stroke="#666666" points="1280.75,-200 1168,-200 1168,-180 1280.75,-180 1280.75,-200"/>
<text text-anchor="middle" x="1224.38" y="-186.5" font-family="Helvetica,sans-Serif" font-size="10.00">FMToperatingarea.hpp</text>
</a>
</g>
</g>
<!-- Node2&#45;&gt;Node6 -->
<g id="edge5" class="edge">
<title>Node2&#45;&gt;Node6</title>
<path fill="none" stroke="#63b8ff" d="M1266.49,-235.59C1259.47,-228.16 1249.47,-217.58 1240.98,-208.58"/>
<polygon fill="#63b8ff" stroke="#63b8ff" points="1243.61,-206.27 1234.2,-201.4 1238.52,-211.07 1243.61,-206.27"/>
</g>
<!-- Node6&#45;&gt;Node3 -->
<g id="edge28" class="edge">
<title>Node6&#45;&gt;Node3</title>
<path fill="none" stroke="#63b8ff" d="M1167.62,-184.73C1067.13,-177.1 851.35,-160.38 669.38,-144 609.2,-138.58 203.57,-102.69 106.57,-88.22"/>
<polygon fill="#63b8ff" stroke="#63b8ff" points="107.15,-84.77 96.71,-86.61 106.02,-91.68 107.15,-84.77"/>
</g>
<!-- Node6&#45;&gt;Node4 -->
<g id="edge29" class="edge">
<title>Node6&#45;&gt;Node4</title>
<path fill="none" stroke="#63b8ff" d="M1243.61,-179.51C1281.55,-160.78 1366.81,-118.69 1418.07,-93.39"/>
<polygon fill="#63b8ff" stroke="#63b8ff" points="1419.37,-96.65 1426.79,-89.08 1416.28,-90.37 1419.37,-96.65"/>
</g>
<!-- Node6&#45;&gt;Node5 -->
<g id="edge30" class="edge">
<title>Node6&#45;&gt;Node5</title>
<path fill="none" stroke="#63b8ff" d="M1234.36,-179.51C1253.36,-161.44 1295.21,-121.65 1322.03,-96.15"/>
<polygon fill="#63b8ff" stroke="#63b8ff" points="1324.23,-98.88 1329.07,-89.46 1319.41,-93.81 1324.23,-98.88"/>
</g>
<!-- Node7 -->
<g id="node7" class="node">
<title>Node7</title>
<g id="a_node7"><a xlink:href="FMTmask_8hpp.html" target="_top" xlink:title=" ">
<polygon fill="white" stroke="#666666" points="917.5,-144 839.25,-144 839.25,-124 917.5,-124 917.5,-144"/>
<text text-anchor="middle" x="878.38" y="-130.5" font-family="Helvetica,sans-Serif" font-size="10.00">FMTmask.hpp</text>
</a>
</g>
</g>
<!-- Node6&#45;&gt;Node7 -->
<g id="edge6" class="edge">
<title>Node6&#45;&gt;Node7</title>
<path fill="none" stroke="#63b8ff" d="M1167.63,-180.14C1101.39,-169.81 992.83,-152.86 929.23,-142.94"/>
<polygon fill="#63b8ff" stroke="#63b8ff" points="929.82,-139.49 919.4,-141.4 928.74,-146.4 929.82,-139.49"/>
</g>
<!-- Node19 -->
<g id="node19" class="node">
<title>Node19</title>
<g id="a_node19"><a xlink:title=" ">
<polygon fill="#e0e0e0" stroke="#999999" points="1297,-20 1245.75,-20 1245.75,0 1297,0 1297,-20"/>
<text text-anchor="middle" x="1271.38" y="-6.5" font-family="Helvetica,sans-Serif" font-size="10.00">memory</text>
</a>
</g>
</g>
<!-- Node6&#45;&gt;Node19 -->
<g id="edge27" class="edge">
<title>Node6&#45;&gt;Node19</title>
<path fill="none" stroke="#63b8ff" d="M1227.09,-179.56C1232.2,-161.71 1243.52,-121.8 1252.38,-88 1257.44,-68.66 1262.87,-46.49 1266.62,-30.92"/>
<polygon fill="#63b8ff" stroke="#63b8ff" points="1269.95,-32.04 1268.88,-21.5 1263.15,-30.41 1269.95,-32.04"/>
</g>
<!-- Node6&#45;&gt;Node21 -->
<g id="edge25" class="edge">
<title>Node6&#45;&gt;Node21</title>
<path fill="none" stroke="#63b8ff" d="M1167.59,-182.69C1091,-174.14 950.35,-158.3 830.38,-144 758.78,-135.46 741.14,-131.01 669.38,-124 444.98,-102.1 380.82,-147.56 163.38,-88 162.2,-87.68 161.01,-87.31 159.82,-86.9"/>
<polygon fill="#63b8ff" stroke="#63b8ff" points="161.38,-83.76 150.81,-83.06 158.64,-90.2 161.38,-83.76"/>
</g>
<!-- Node22 -->
<g id="node22" class="node">
<title>Node22</title>
<g id="a_node22"><a xlink:title=" ">
<polygon fill="#e0e0e0" stroke="#999999" points="1222.75,-144 1188,-144 1188,-124 1222.75,-124 1222.75,-144"/>
<text text-anchor="middle" x="1205.38" y="-130.5" font-family="Helvetica,sans-Serif" font-size="10.00">map</text>
</a>
</g>
</g>
<!-- Node6&#45;&gt;Node22 -->
<g id="edge26" class="edge">
<title>Node6&#45;&gt;Node22</title>
<path fill="none" stroke="#63b8ff" d="M1221.07,-179.59C1218.7,-172.86 1215.41,-163.53 1212.47,-155.15"/>
<polygon fill="#63b8ff" stroke="#63b8ff" points="1215.77,-154 1209.15,-145.73 1209.17,-156.32 1215.77,-154"/>
</g>
<!-- Node7&#45;&gt;Node3 -->
<g id="edge12" class="edge">
<title>Node7&#45;&gt;Node3</title>
<path fill="none" stroke="#63b8ff" d="M838.8,-131.18C696.64,-124.56 214.87,-101.58 106.29,-88.06"/>
<polygon fill="#63b8ff" stroke="#63b8ff" points="107.09,-84.63 96.7,-86.71 106.11,-91.57 107.09,-84.63"/>
</g>
<!-- Node7&#45;&gt;Node4 -->
<g id="edge14" class="edge">
<title>Node7&#45;&gt;Node4</title>
<path fill="none" stroke="#63b8ff" d="M917.78,-131.92C1003.76,-129.08 1214.66,-119.43 1400.54,-88.1"/>
<polygon fill="#63b8ff" stroke="#63b8ff" points="1400.86,-91.6 1410.12,-86.46 1399.67,-84.7 1400.86,-91.6"/>
</g>
<!-- Node7&#45;&gt;Node5 -->
<g id="edge15" class="edge">
<title>Node7&#45;&gt;Node5</title>
<path fill="none" stroke="#63b8ff" d="M917.75,-128.77C985.99,-121.32 1130.61,-105.03 1252.38,-88 1263.67,-86.42 1275.7,-84.6 1287.26,-82.79"/>
<polygon fill="#63b8ff" stroke="#63b8ff" points="1287.79,-86.25 1297.11,-81.22 1286.69,-79.34 1287.79,-86.25"/>
</g>
<!-- Node8 -->
<g id="node8" class="node">
<title>Node8</title>
<g id="a_node8"><a xlink:title=" ">
<polygon fill="#e0e0e0" stroke="#999999" points="1243.25,-82 1115.5,-82 1115.5,-62 1243.25,-62 1243.25,-82"/>
<text text-anchor="middle" x="1179.38" y="-68.5" font-family="Helvetica,sans-Serif" font-size="10.00">boost/dynamic_bitset.hpp</text>
</a>
</g>
</g>
<!-- Node7&#45;&gt;Node8 -->
<g id="edge7" class="edge">
<title>Node7&#45;&gt;Node8</title>
<path fill="none" stroke="#63b8ff" d="M917.94,-125.29C963.42,-116.4 1040.32,-101.3 1106.38,-88 1111.57,-86.95 1116.97,-85.86 1122.38,-84.76"/>
<polygon fill="#63b8ff" stroke="#63b8ff" points="1122.86,-88.23 1131.95,-82.8 1121.45,-81.37 1122.86,-88.23"/>
</g>
<!-- Node9 -->
<g id="node9" class="node">
<title>Node9</title>
<g id="a_node9"><a xlink:title=" ">
<polygon fill="#e0e0e0" stroke="#999999" points="300.62,-82 172.12,-82 172.12,-62 300.62,-62 300.62,-82"/>
<text text-anchor="middle" x="236.38" y="-68.5" font-family="Helvetica,sans-Serif" font-size="10.00">boost/unordered_map.hpp</text>
</a>
</g>
</g>
<!-- Node7&#45;&gt;Node9 -->
<g id="edge8" class="edge">
<title>Node7&#45;&gt;Node9</title>
<path fill="none" stroke="#63b8ff" d="M839,-128.96C822.71,-127.33 803.64,-125.5 786.38,-124 575.01,-105.67 520.53,-117.13 310.38,-88 303.64,-87.07 296.59,-85.9 289.64,-84.62"/>
<polygon fill="#63b8ff" stroke="#63b8ff" points="290.45,-81.21 279.97,-82.76 289.13,-88.09 290.45,-81.21"/>
</g>
<!-- Node10 -->
<g id="node10" class="node">
<title>Node10</title>
<g id="a_node10"><a xlink:title=" ">
<polygon fill="#e0e0e0" stroke="#999999" points="447.62,-82 319.12,-82 319.12,-62 447.62,-62 447.62,-82"/>
<text text-anchor="middle" x="383.38" y="-68.5" font-family="Helvetica,sans-Serif" font-size="10.00">boost/algorithm/string.hpp</text>
</a>
</g>
</g>
<!-- Node7&#45;&gt;Node10 -->
<g id="edge9" class="edge">
<title>Node7&#45;&gt;Node10</title>
<path fill="none" stroke="#63b8ff" d="M838.89,-129.01C741.24,-119.11 493.64,-93.8 456.38,-88 450.07,-87.02 443.48,-85.86 436.96,-84.62"/>
<polygon fill="#63b8ff" stroke="#63b8ff" points="438.07,-81.28 427.58,-82.79 436.72,-88.14 438.07,-81.28"/>
</g>
<!-- Node11 -->
<g id="node11" class="node">
<title>Node11</title>
<g id="a_node11"><a xlink:title=" ">
<polygon fill="#e0e0e0" stroke="#999999" points="575.25,-88 465.5,-88 465.5,-56 575.25,-56 575.25,-88"/>
<text text-anchor="start" x="473.5" y="-74.5" font-family="Helvetica,sans-Serif" font-size="10.00">boost/algorithm/string</text>
<text text-anchor="middle" x="520.38" y="-62.5" font-family="Helvetica,sans-Serif" font-size="10.00">/join.hpp</text>
</a>
</g>
</g>
<!-- Node7&#45;&gt;Node11 -->
<g id="edge10" class="edge">
<title>Node7&#45;&gt;Node11</title>
<path fill="none" stroke="#63b8ff" d="M839.21,-128C784.8,-120.84 683.04,-106.65 586.6,-88.34"/>
<polygon fill="#63b8ff" stroke="#63b8ff" points="587.44,-84.94 576.96,-86.49 586.12,-91.81 587.44,-84.94"/>
</g>
<!-- Node12 -->
<g id="node12" class="node">
<title>Node12</title>
<g id="a_node12"><a xlink:title=" ">
<polygon fill="#e0e0e0" stroke="#999999" points="719.88,-82 592.88,-82 592.88,-62 719.88,-62 719.88,-82"/>
<text text-anchor="middle" x="656.38" y="-68.5" font-family="Helvetica,sans-Serif" font-size="10.00">boost/functional/hash.hpp</text>
</a>
</g>
</g>
<!-- Node7&#45;&gt;Node12 -->
<g id="edge11" class="edge">
<title>Node7&#45;&gt;Node12</title>
<path fill="none" stroke="#63b8ff" d="M843.69,-123.62C805.6,-113.33 744.26,-96.75 702.23,-85.39"/>
<polygon fill="#63b8ff" stroke="#63b8ff" points="703.21,-82.03 692.65,-82.8 701.39,-88.79 703.21,-82.03"/>
</g>
<!-- Node13 -->
<g id="node13" class="node">
<title>Node13</title>
<g id="a_node13"><a xlink:title=" ">
<polygon fill="#e0e0e0" stroke="#999999" points="832.75,-88 738,-88 738,-56 832.75,-56 832.75,-88"/>
<text text-anchor="start" x="746" y="-74.5" font-family="Helvetica,sans-Serif" font-size="10.00">boost/serialization</text>
<text text-anchor="middle" x="785.38" y="-62.5" font-family="Helvetica,sans-Serif" font-size="10.00">/split_free.hpp</text>
</a>
</g>
</g>
<!-- Node7&#45;&gt;Node13 -->
<g id="edge13" class="edge">
<title>Node7&#45;&gt;Node13</title>
<path fill="none" stroke="#63b8ff" d="M863.84,-123.62C851.74,-115.82 834.05,-104.4 818.52,-94.38"/>
<polygon fill="#63b8ff" stroke="#63b8ff" points="820.78,-91.67 810.48,-89.19 816.98,-97.56 820.78,-91.67"/>
</g>
<!-- Node14 -->
<g id="node14" class="node">
<title>Node14</title>
<g id="a_node14"><a xlink:title=" ">
<polygon fill="#e0e0e0" stroke="#999999" points="945.75,-88 851,-88 851,-56 945.75,-56 945.75,-88"/>
<text text-anchor="start" x="859" y="-74.5" font-family="Helvetica,sans-Serif" font-size="10.00">boost/serialization</text>
<text text-anchor="middle" x="898.38" y="-62.5" font-family="Helvetica,sans-Serif" font-size="10.00">/string.hpp</text>
</a>
</g>
</g>
<!-- Node7&#45;&gt;Node14 -->
<g id="edge16" class="edge">
<title>Node7&#45;&gt;Node14</title>
<path fill="none" stroke="#63b8ff" d="M881.5,-123.62C883.72,-116.95 886.83,-107.64 889.77,-98.82"/>
<polygon fill="#63b8ff" stroke="#63b8ff" points="893.01,-100.17 892.85,-89.58 886.37,-97.96 893.01,-100.17"/>
</g>
<!-- Node15 -->
<g id="node15" class="node">
<title>Node15</title>
<g id="a_node15"><a xlink:href="FMTexception_8hpp.html" target="_top" xlink:title=" ">
<polygon fill="white" stroke="#666666" points="1097.5,-82 1001.25,-82 1001.25,-62 1097.5,-62 1097.5,-82"/>
<text text-anchor="middle" x="1049.38" y="-68.5" font-family="Helvetica,sans-Serif" font-size="10.00">FMTexception.hpp</text>
</a>
</g>
</g>
<!-- Node7&#45;&gt;Node15 -->
<g id="edge17" class="edge">
<title>Node7&#45;&gt;Node15</title>
<path fill="none" stroke="#63b8ff" d="M905.09,-123.62C933.75,-113.57 979.47,-97.53 1011.75,-86.2"/>
<polygon fill="#63b8ff" stroke="#63b8ff" points="1012.86,-89.52 1021.13,-82.91 1010.54,-82.92 1012.86,-89.52"/>
</g>
<!-- Node17 -->
<g id="node17" class="node">
<title>Node17</title>
<g id="a_node17"><a xlink:title=" ">
<polygon fill="#e0e0e0" stroke="#999999" points="984.38,-20 944.38,-20 944.38,0 984.38,0 984.38,-20"/>
<text text-anchor="middle" x="964.38" y="-6.5" font-family="Helvetica,sans-Serif" font-size="10.00">string</text>
</a>
</g>
</g>
<!-- Node7&#45;&gt;Node17 -->
<g id="edge24" class="edge">
<title>Node7&#45;&gt;Node17</title>
<path fill="none" stroke="#63b8ff" d="M906.38,-123.61C923.08,-116.51 943.15,-105.03 954.38,-88 965.37,-71.32 966.98,-48.14 966.4,-31.58"/>
<polygon fill="#63b8ff" stroke="#63b8ff" points="969.91,-31.68 965.74,-21.94 962.93,-32.15 969.91,-31.68"/>
</g>
<!-- Node7&#45;&gt;Node21 -->
<g id="edge23" class="edge">
<title>Node7&#45;&gt;Node21</title>
<path fill="none" stroke="#63b8ff" d="M839.01,-128.8C822.73,-127.16 803.66,-125.34 786.38,-124 648.12,-113.25 297.37,-123.74 163.38,-88 162.01,-87.64 160.64,-87.21 159.27,-86.73"/>
<polygon fill="#63b8ff" stroke="#63b8ff" points="161.05,-83.68 150.48,-82.95 158.29,-90.12 161.05,-83.68"/>
</g>
<!-- Node16 -->
<g id="node16" class="node">
<title>Node16</title>
<g id="a_node16"><a xlink:title=" ">
<polygon fill="#e0e0e0" stroke="#999999" points="1060.38,-20 1002.38,-20 1002.38,0 1060.38,0 1060.38,-20"/>
<text text-anchor="middle" x="1031.38" y="-6.5" font-family="Helvetica,sans-Serif" font-size="10.00">exception</text>
</a>
</g>
</g>
<!-- Node15&#45;&gt;Node16 -->
<g id="edge18" class="edge">
<title>Node15&#45;&gt;Node16</title>
<path fill="none" stroke="#63b8ff" d="M1046.56,-61.62C1044.12,-53.48 1040.49,-41.39 1037.4,-31.07"/>
<polygon fill="#63b8ff" stroke="#63b8ff" points="1040.77,-30.13 1034.54,-21.56 1034.06,-32.15 1040.77,-30.13"/>
</g>
<!-- Node15&#45;&gt;Node17 -->
<g id="edge19" class="edge">
<title>Node15&#45;&gt;Node17</title>
<path fill="none" stroke="#63b8ff" d="M1036.09,-61.62C1022.87,-52.29 1002.33,-37.79 986.62,-26.7"/>
<polygon fill="#63b8ff" stroke="#63b8ff" points="988.99,-24.09 978.8,-21.18 984.95,-29.81 988.99,-24.09"/>
</g>
<!-- Node18 -->
<g id="node18" class="node">
<title>Node18</title>
<g id="a_node18"><a xlink:title=" ">
<polygon fill="#e0e0e0" stroke="#999999" points="1132.12,-20 1078.62,-20 1078.62,0 1132.12,0 1132.12,-20"/>
<text text-anchor="middle" x="1105.38" y="-6.5" font-family="Helvetica,sans-Serif" font-size="10.00">iostream</text>
</a>
</g>
</g>
<!-- Node15&#45;&gt;Node18 -->
<g id="edge20" class="edge">
<title>Node15&#45;&gt;Node18</title>
<path fill="none" stroke="#63b8ff" d="M1058.12,-61.62C1066.39,-52.77 1079,-39.26 1089.11,-28.43"/>
<polygon fill="#63b8ff" stroke="#63b8ff" points="1091.57,-30.92 1095.84,-21.22 1086.46,-26.14 1091.57,-30.92"/>
</g>
<!-- Node15&#45;&gt;Node19 -->
<g id="edge21" class="edge">
<title>Node15&#45;&gt;Node19</title>
<path fill="none" stroke="#63b8ff" d="M1084.06,-61.62C1124.86,-50.6 1192.31,-32.37 1234.17,-21.05"/>
<polygon fill="#63b8ff" stroke="#63b8ff" points="1235.05,-24.44 1243.79,-18.45 1233.23,-17.68 1235.05,-24.44"/>
</g>
<!-- Node20 -->
<g id="node20" class="node">
<title>Node20</title>
<g id="a_node20"><a xlink:href="FMTutility_8hpp.html" target="_top" xlink:title=" ">
<polygon fill="white" stroke="#666666" points="1228.12,-20 1150.62,-20 1150.62,0 1228.12,0 1228.12,-20"/>
<text text-anchor="middle" x="1189.38" y="-6.5" font-family="Helvetica,sans-Serif" font-size="10.00">FMTutility.hpp</text>
</a>
</g>
</g>
<!-- Node15&#45;&gt;Node20 -->
<g id="edge22" class="edge">
<title>Node15&#45;&gt;Node20</title>
<path fill="none" stroke="#63b8ff" d="M1071.25,-61.62C1094.37,-51.72 1131.05,-35.99 1157.41,-24.7"/>
<polygon fill="#63b8ff" stroke="#63b8ff" points="1158.45,-28.06 1166.26,-20.91 1155.69,-21.63 1158.45,-28.06"/>
</g>
</g>
</svg>
        <g id="navigator" transform="translate(0 0)" fill="#404254">
                <rect fill="#f2f5e9" fill-opacity="0.5" stroke="#606060" stroke-width=".5" x="0" y="0" width="60" height="60"/>
                <use id="zoomplus" xlink:href="#zoomPlus" x="17" y="9" onmousedown="handleZoom(evt,'in')"/>
                <use id="zoomminus" xlink:href="#zoomMin" x="42" y="9" onmousedown="handleZoom(evt,'out')"/>
                <use id="reset" xlink:href="#resetDef" x="30" y="36" onmousedown="handleReset()"/>
                <g id="arrowUp" xlink:href="#dirArrow" transform="translate(30 24)" onmousedown="handlePan(0,-1)">
                  <use xlink:href="#rim" fill="#404040">
                        <set attributeName="fill" to="#808080" begin="arrowUp.mouseover" end="arrowUp.mouseout"/>
                  </use>
                  <path fill="none" stroke="white" stroke-width="1.5" d="M0,-3.0v7 M-2.5,-0.5L0,-3.0L2.5,-0.5"/>
                </g>
                <g id="arrowRight" xlink:href="#dirArrow" transform="rotate(90) translate(36 -43)" onmousedown="handlePan(1,0)">
                  <use xlink:href="#rim" fill="#404040">
                        <set attributeName="fill" to="#808080" begin="arrowRight.mouseover" end="arrowRight.mouseout"/>
                  </use>
                  <path fill="none" stroke="white" stroke-width="1.5" d="M0,-3.0v7 M-2.5,-0.5L0,-3.0L2.5,-0.5"/>
                </g>
                <g id="arrowDown" xlink:href="#dirArrow" transform="rotate(180) translate(-30 -48)" onmousedown="handlePan(0,1)">
                  <use xlink:href="#rim" fill="#404040">
                        <set attributeName="fill" to="#808080" begin="arrowDown.mouseover" end="arrowDown.mouseout"/>
                  </use>
                  <path fill="none" stroke="white" stroke-width="1.5" d="M0,-3.0v7 M-2.5,-0.5L0,-3.0L2.5,-0.5"/>
                </g>
                <g id="arrowLeft" xlink:href="#dirArrow" transform="rotate(270) translate(-36 17)" onmousedown="handlePan(-1,0)">
                  <use xlink:href="#rim" fill="#404040">
                        <set attributeName="fill" to="#808080" begin="arrowLeft.mouseover" end="arrowLeft.mouseout"/>
                  </use>
                  <path fill="none" stroke="white" stroke-width="1.5" d="M0,-3.0v7 M-2.5,-0.5L0,-3.0L2.5,-0.5"/>
                </g>
        </g>
        <svg viewBox="0 0 15 15" width="100%" height="30px" preserveAspectRatio="xMaxYMin meet">
         <g id="arrow_out" transform="scale(0.3 0.3)">
          <a xlink:href="FMToperatingareacluster_8hpp__incl_org.svg" target="_base">
           <rect id="button" ry="5" rx="5" y="6" x="6" height="38" width="38"
                fill="#f2f5e9" fill-opacity="0.5" stroke="#606060" stroke-width="1.0"/>
           <path id="arrow"
             d="M 11.500037,31.436501 C 11.940474,20.09759 22.043105,11.32322 32.158766,21.979434 L 37.068811,17.246167 C 37.068811,17.246167 37.088388,32 37.088388,32 L 22.160133,31.978069 C 22.160133,31.978069 26.997745,27.140456 26.997745,27.140456 C 18.528582,18.264221 13.291696,25.230495 11.500037,31.436501 z"
             style="fill:#404040;"/>
          </a>
         </g>
        </svg>
</svg>
