<?xml version="1.0" encoding="UTF-8" standalone="no"?>
<!DOCTYPE svg PUBLIC "-//W3C//DTD SVG 1.1//EN"
 "http://www.w3.org/Graphics/SVG/1.1/DTD/svg11.dtd">
<!-- Generated by graphviz version 10.0.1 (20240210.2158)
 -->
<!-- Title: D:/FMT/Include/FMToutputparser.hpp Pages: 1 -->
<svg width="908pt" height="276pt"
 viewBox="0.00 0.00 907.76 276.00" xmlns="http://www.w3.org/2000/svg" xmlns:xlink="http://www.w3.org/1999/xlink">
<g id="graph0" class="graph" transform="scale(1 1) rotate(0) translate(4 272)">
<title>D:/FMT/Include/FMToutputparser.hpp</title>
<!-- Node1 -->
<g id="node1" class="node">
<title>Node1</title>
<g id="a_node1"><a xlink:title=" ">
<polygon fill="#999999" stroke="#666666" points="500.38,-268 323.12,-268 323.12,-248 500.38,-248 500.38,-268"/>
<text text-anchor="middle" x="411.75" y="-254.5" font-family="Helvetica,sans-Serif" font-size="10.00">D:/FMT/Include/FMToutputparser.hpp</text>
</a>
</g>
</g>
<!-- Node2 -->
<g id="node2" class="node">
<title>Node2</title>
<g id="a_node2"><a xlink:href="FMTparser_8hpp.html" target="_top" xlink:title=" ">
<polygon fill="white" stroke="#666666" points="552.38,-212 471.12,-212 471.12,-192 552.38,-192 552.38,-212"/>
<text text-anchor="middle" x="511.75" y="-198.5" font-family="Helvetica,sans-Serif" font-size="10.00">FMTparser.hpp</text>
</a>
</g>
</g>
<!-- Node1&#45;&gt;Node2 -->
<g id="edge1" class="edge">
<title>Node1&#45;&gt;Node2</title>
<path fill="none" stroke="#63b8ff" d="M429.17,-247.59C444.42,-239.36 466.83,-227.26 484.46,-217.74"/>
<polygon fill="#63b8ff" stroke="#63b8ff" points="485.73,-221.03 492.86,-213.2 482.4,-214.87 485.73,-221.03"/>
</g>
<!-- Node3 -->
<g id="node3" class="node">
<title>Node3</title>
<g id="a_node3"><a xlink:title=" ">
<polygon fill="#e0e0e0" stroke="#999999" points="114.62,-150 28.88,-150 28.88,-130 114.62,-130 114.62,-150"/>
<text text-anchor="middle" x="71.75" y="-136.5" font-family="Helvetica,sans-Serif" font-size="10.00">boost/regex.hpp</text>
</a>
</g>
</g>
<!-- Node1&#45;&gt;Node3 -->
<g id="edge28" class="edge">
<title>Node1&#45;&gt;Node3</title>
<path fill="none" stroke="#63b8ff" d="M383.93,-247.51C323.38,-226.85 179.58,-177.79 110.33,-154.16"/>
<polygon fill="#63b8ff" stroke="#63b8ff" points="111.51,-150.87 100.91,-150.95 109.25,-157.49 111.51,-150.87"/>
</g>
<!-- Node7 -->
<g id="node7" class="node">
<title>Node7</title>
<g id="a_node7"><a xlink:title=" ">
<polygon fill="#e0e0e0" stroke="#999999" points="890.75,-20 850.75,-20 850.75,0 890.75,0 890.75,-20"/>
<text text-anchor="middle" x="870.75" y="-6.5" font-family="Helvetica,sans-Serif" font-size="10.00">string</text>
</a>
</g>
</g>
<!-- Node1&#45;&gt;Node7 -->
<g id="edge29" class="edge">
<title>Node1&#45;&gt;Node7</title>
<path fill="none" stroke="#63b8ff" d="M500.87,-248.68C620.03,-235.74 822.35,-206.85 874.75,-156 907.11,-124.61 901.51,-100.01 891.75,-56 889.79,-47.18 885.92,-38.04 882.02,-30.32"/>
<polygon fill="#63b8ff" stroke="#63b8ff" points="885.11,-28.66 877.25,-21.55 878.96,-32.01 885.11,-28.66"/>
</g>
<!-- Node10 -->
<g id="node10" class="node">
<title>Node10</title>
<g id="a_node10"><a xlink:href="FMTutility_8hpp.html" target="_top" xlink:title=" ">
<polygon fill="white" stroke="#666666" points="77.5,-20 0,-20 0,0 77.5,0 77.5,-20"/>
<text text-anchor="middle" x="38.75" y="-6.5" font-family="Helvetica,sans-Serif" font-size="10.00">FMTutility.hpp</text>
</a>
</g>
</g>
<!-- Node1&#45;&gt;Node10 -->
<g id="edge27" class="edge">
<title>Node1&#45;&gt;Node10</title>
<path fill="none" stroke="#63b8ff" d="M327.76,-247.5C223.99,-233.81 56.58,-204.69 19.75,-156 -8.36,-118.83 13.61,-60.42 28.29,-30.34"/>
<polygon fill="#63b8ff" stroke="#63b8ff" points="31.3,-32.14 32.75,-21.64 25.07,-28.94 31.3,-32.14"/>
</g>
<!-- Node2&#45;&gt;Node3 -->
<g id="edge2" class="edge">
<title>Node2&#45;&gt;Node3</title>
<path fill="none" stroke="#63b8ff" d="M470.65,-198.08C400.21,-192.64 252.09,-179.36 128.75,-156 124.41,-155.18 119.91,-154.21 115.42,-153.16"/>
<polygon fill="#63b8ff" stroke="#63b8ff" points="116.44,-149.8 105.89,-150.8 114.76,-156.6 116.44,-149.8"/>
</g>
<!-- Node4 -->
<g id="node4" class="node">
<title>Node4</title>
<g id="a_node4"><a xlink:title=" ">
<polygon fill="#e0e0e0" stroke="#999999" points="387.75,-150 341.75,-150 341.75,-130 387.75,-130 387.75,-150"/>
<text text-anchor="middle" x="364.75" y="-136.5" font-family="Helvetica,sans-Serif" font-size="10.00">iterator</text>
</a>
</g>
</g>
<!-- Node2&#45;&gt;Node4 -->
<g id="edge3" class="edge">
<title>Node2&#45;&gt;Node4</title>
<path fill="none" stroke="#63b8ff" d="M486.43,-191.64C463,-182.84 427.28,-169.11 396.75,-156 395.99,-155.67 395.22,-155.34 394.44,-155"/>
<polygon fill="#63b8ff" stroke="#63b8ff" points="396.22,-151.96 385.67,-151.03 393.34,-158.34 396.22,-151.96"/>
</g>
<!-- Node5 -->
<g id="node5" class="node">
<title>Node5</title>
<g id="a_node5"><a xlink:title=" ">
<polygon fill="#e0e0e0" stroke="#999999" points="815.5,-20 762,-20 762,0 815.5,0 815.5,-20"/>
<text text-anchor="middle" x="788.75" y="-6.5" font-family="Helvetica,sans-Serif" font-size="10.00">iostream</text>
</a>
</g>
</g>
<!-- Node2&#45;&gt;Node5 -->
<g id="edge4" class="edge">
<title>Node2&#45;&gt;Node5</title>
<path fill="none" stroke="#63b8ff" d="M546.58,-191.57C576.61,-183.16 620.96,-170.02 658.75,-156 667.57,-152.73 808.61,-95.87 813.75,-88 825.59,-69.88 814.13,-45.69 803.13,-29.29"/>
<polygon fill="#63b8ff" stroke="#63b8ff" points="806.14,-27.48 797.43,-21.44 800.47,-31.59 806.14,-27.48"/>
</g>
<!-- Node6 -->
<g id="node6" class="node">
<title>Node6</title>
<g id="a_node6"><a xlink:title=" ">
<polygon fill="#e0e0e0" stroke="#999999" points="453.88,-150 405.62,-150 405.62,-130 453.88,-130 453.88,-150"/>
<text text-anchor="middle" x="429.75" y="-136.5" font-family="Helvetica,sans-Serif" font-size="10.00">fstream</text>
</a>
</g>
</g>
<!-- Node2&#45;&gt;Node6 -->
<g id="edge5" class="edge">
<title>Node2&#45;&gt;Node6</title>
<path fill="none" stroke="#63b8ff" d="M498.94,-191.62C486.3,-182.38 466.74,-168.07 451.64,-157.01"/>
<polygon fill="#63b8ff" stroke="#63b8ff" points="453.83,-154.28 443.69,-151.2 449.7,-159.93 453.83,-154.28"/>
</g>
<!-- Node2&#45;&gt;Node7 -->
<g id="edge6" class="edge">
<title>Node2&#45;&gt;Node7</title>
<path fill="none" stroke="#63b8ff" d="M552.85,-201.55C634.02,-201.71 810.62,-197.18 851.75,-156 884.55,-123.16 880.19,-63.28 875.02,-31.72"/>
<polygon fill="#63b8ff" stroke="#63b8ff" points="878.47,-31.12 873.21,-21.93 871.59,-32.4 878.47,-31.12"/>
</g>
<!-- Node8 -->
<g id="node8" class="node">
<title>Node8</title>
<g id="a_node8"><a xlink:title=" ">
<polygon fill="#e0e0e0" stroke="#999999" points="804.5,-82 763,-82 763,-62 804.5,-62 804.5,-82"/>
<text text-anchor="middle" x="783.75" y="-68.5" font-family="Helvetica,sans-Serif" font-size="10.00">vector</text>
</a>
</g>
</g>
<!-- Node2&#45;&gt;Node8 -->
<g id="edge7" class="edge">
<title>Node2&#45;&gt;Node8</title>
<path fill="none" stroke="#63b8ff" d="M522.11,-191.59C544.19,-171.55 594.29,-126.3 598.75,-124 661.6,-91.57 687.22,-111.98 753.75,-88 754.55,-87.71 755.36,-87.41 756.17,-87.09"/>
<polygon fill="#63b8ff" stroke="#63b8ff" points="757.51,-90.32 765.22,-83.05 754.66,-83.93 757.51,-90.32"/>
</g>
<!-- Node9 -->
<g id="node9" class="node">
<title>Node9</title>
<g id="a_node9"><a xlink:title=" ">
<polygon fill="#e0e0e0" stroke="#999999" points="649.88,-150 607.62,-150 607.62,-130 649.88,-130 649.88,-150"/>
<text text-anchor="middle" x="628.75" y="-136.5" font-family="Helvetica,sans-Serif" font-size="10.00">queue</text>
</a>
</g>
</g>
<!-- Node2&#45;&gt;Node9 -->
<g id="edge8" class="edge">
<title>Node2&#45;&gt;Node9</title>
<path fill="none" stroke="#63b8ff" d="M530.03,-191.62C548.92,-181.94 578.65,-166.69 600.56,-155.46"/>
<polygon fill="#63b8ff" stroke="#63b8ff" points="601.95,-158.68 609.25,-151 598.76,-152.45 601.95,-158.68"/>
</g>
<!-- Node2&#45;&gt;Node10 -->
<g id="edge9" class="edge">
<title>Node2&#45;&gt;Node10</title>
<path fill="none" stroke="#63b8ff" d="M470.68,-198.86C410.69,-194.87 296.08,-184.01 202.75,-156 185.71,-150.88 69.04,-101.76 57.75,-88 44.74,-72.14 40.43,-48.65 39.11,-31.79"/>
<polygon fill="#63b8ff" stroke="#63b8ff" points="42.62,-31.77 38.66,-21.94 35.62,-32.09 42.62,-31.77"/>
</g>
<!-- Node11 -->
<g id="node11" class="node">
<title>Node11</title>
<g id="a_node11"><a xlink:title=" ">
<polygon fill="#e0e0e0" stroke="#999999" points="784.62,-150 746.88,-150 746.88,-130 784.62,-130 784.62,-150"/>
<text text-anchor="middle" x="765.75" y="-136.5" font-family="Helvetica,sans-Serif" font-size="10.00">array</text>
</a>
</g>
</g>
<!-- Node2&#45;&gt;Node11 -->
<g id="edge10" class="edge">
<title>Node2&#45;&gt;Node11</title>
<path fill="none" stroke="#63b8ff" d="M552.79,-195.48C597.7,-188.79 671.48,-175.88 732.75,-156 733.92,-155.62 735.1,-155.21 736.28,-154.78"/>
<polygon fill="#63b8ff" stroke="#63b8ff" points="737.51,-158.06 745.44,-151.05 734.86,-151.58 737.51,-158.06"/>
</g>
<!-- Node12 -->
<g id="node12" class="node">
<title>Node12</title>
<g id="a_node12"><a xlink:title=" ">
<polygon fill="#e0e0e0" stroke="#999999" points="842.75,-150 802.75,-150 802.75,-130 842.75,-130 842.75,-150"/>
<text text-anchor="middle" x="822.75" y="-136.5" font-family="Helvetica,sans-Serif" font-size="10.00">ctime</text>
</a>
</g>
</g>
<!-- Node2&#45;&gt;Node12 -->
<g id="edge11" class="edge">
<title>Node2&#45;&gt;Node12</title>
<path fill="none" stroke="#63b8ff" d="M552.87,-198.55C608.66,-194.31 710.86,-183.27 793.75,-156 794.72,-155.68 795.69,-155.34 796.66,-154.97"/>
<polygon fill="#63b8ff" stroke="#63b8ff" points="797.83,-158.28 805.51,-150.98 794.95,-151.9 797.83,-158.28"/>
</g>
<!-- Node13 -->
<g id="node13" class="node">
<title>Node13</title>
<g id="a_node13"><a xlink:title=" ">
<polygon fill="#e0e0e0" stroke="#999999" points="323.38,-156 212.12,-156 212.12,-124 323.38,-124 323.38,-156"/>
<text text-anchor="start" x="220.12" y="-142.5" font-family="Helvetica,sans-Serif" font-size="10.00">boost/thread/recursive</text>
<text text-anchor="middle" x="267.75" y="-130.5" font-family="Helvetica,sans-Serif" font-size="10.00">_mutex.hpp</text>
</a>
</g>
</g>
<!-- Node2&#45;&gt;Node13 -->
<g id="edge12" class="edge">
<title>Node2&#45;&gt;Node13</title>
<path fill="none" stroke="#63b8ff" d="M473.36,-191.56C436.24,-182.43 379.23,-168.41 334.65,-157.45"/>
<polygon fill="#63b8ff" stroke="#63b8ff" points="335.62,-154.08 325.07,-155.1 333.95,-160.88 335.62,-154.08"/>
</g>
<!-- Node14 -->
<g id="node14" class="node">
<title>Node14</title>
<g id="a_node14"><a xlink:href="FMTobject_8hpp.html" target="_top" xlink:title=" ">
<polygon fill="white" stroke="#666666" points="552,-150 471.5,-150 471.5,-130 552,-130 552,-150"/>
<text text-anchor="middle" x="511.75" y="-136.5" font-family="Helvetica,sans-Serif" font-size="10.00">FMTobject.hpp</text>
</a>
</g>
</g>
<!-- Node2&#45;&gt;Node14 -->
<g id="edge13" class="edge">
<title>Node2&#45;&gt;Node14</title>
<path fill="none" stroke="#63b8ff" d="M511.75,-191.62C511.75,-183.56 511.75,-171.65 511.75,-161.41"/>
<polygon fill="#63b8ff" stroke="#63b8ff" points="515.25,-161.63 511.75,-151.63 508.25,-161.63 515.25,-161.63"/>
</g>
<!-- Node14&#45;&gt;Node8 -->
<g id="edge25" class="edge">
<title>Node14&#45;&gt;Node8</title>
<path fill="none" stroke="#63b8ff" d="M544.19,-129.53C551.27,-127.59 558.74,-125.64 565.75,-124 648.58,-104.6 673.17,-115.28 753.75,-88 754.72,-87.67 755.69,-87.32 756.66,-86.95"/>
<polygon fill="#63b8ff" stroke="#63b8ff" points="757.84,-90.25 765.58,-83.01 755.02,-83.85 757.84,-90.25"/>
</g>
<!-- Node15 -->
<g id="node15" class="node">
<title>Node15</title>
<g id="a_node15"><a xlink:title=" ">
<polygon fill="#e0e0e0" stroke="#999999" points="630.12,-88 535.38,-88 535.38,-56 630.12,-56 630.12,-88"/>
<text text-anchor="start" x="543.38" y="-74.5" font-family="Helvetica,sans-Serif" font-size="10.00">boost/serialization</text>
<text text-anchor="middle" x="582.75" y="-62.5" font-family="Helvetica,sans-Serif" font-size="10.00">/shared_ptr.hpp</text>
</a>
</g>
</g>
<!-- Node14&#45;&gt;Node15 -->
<g id="edge14" class="edge">
<title>Node14&#45;&gt;Node15</title>
<path fill="none" stroke="#63b8ff" d="M521.92,-129.54C531.33,-120.8 545.69,-107.45 558.1,-95.92"/>
<polygon fill="#63b8ff" stroke="#63b8ff" points="560.24,-98.7 565.18,-89.33 555.47,-93.58 560.24,-98.7"/>
</g>
<!-- Node16 -->
<g id="node16" class="node">
<title>Node16</title>
<g id="a_node16"><a xlink:title=" ">
<polygon fill="#e0e0e0" stroke="#999999" points="161.12,-88 66.38,-88 66.38,-56 161.12,-56 161.12,-88"/>
<text text-anchor="start" x="74.38" y="-74.5" font-family="Helvetica,sans-Serif" font-size="10.00">boost/serialization</text>
<text text-anchor="middle" x="113.75" y="-62.5" font-family="Helvetica,sans-Serif" font-size="10.00">/nvp.hpp</text>
</a>
</g>
</g>
<!-- Node14&#45;&gt;Node16 -->
<g id="edge15" class="edge">
<title>Node14&#45;&gt;Node16</title>
<path fill="none" stroke="#63b8ff" d="M483.73,-129.51C476.92,-127.46 469.62,-125.47 462.75,-124 336.61,-97.02 301.6,-111.44 174.75,-88 174.08,-87.88 173.41,-87.75 172.73,-87.62"/>
<polygon fill="#63b8ff" stroke="#63b8ff" points="173.57,-84.22 163.07,-85.63 172.16,-91.08 173.57,-84.22"/>
</g>
<!-- Node17 -->
<g id="node17" class="node">
<title>Node17</title>
<g id="a_node17"><a xlink:title=" ">
<polygon fill="#e0e0e0" stroke="#999999" points="311.12,-88 216.38,-88 216.38,-56 311.12,-56 311.12,-88"/>
<text text-anchor="start" x="224.38" y="-74.5" font-family="Helvetica,sans-Serif" font-size="10.00">boost/serialization</text>
<text text-anchor="middle" x="263.75" y="-62.5" font-family="Helvetica,sans-Serif" font-size="10.00">/export.hpp</text>
</a>
</g>
</g>
<!-- Node14&#45;&gt;Node17 -->
<g id="edge16" class="edge">
<title>Node14&#45;&gt;Node17</title>
<path fill="none" stroke="#63b8ff" d="M481.76,-129.56C475.5,-127.66 468.92,-125.72 462.75,-124 402.95,-107.33 385.05,-104.73 322.31,-88.63"/>
<polygon fill="#63b8ff" stroke="#63b8ff" points="323.42,-85.31 312.86,-86.19 321.67,-92.08 323.42,-85.31"/>
</g>
<!-- Node18 -->
<g id="node18" class="node">
<title>Node18</title>
<g id="a_node18"><a xlink:href="FMTexception_8hpp.html" target="_top" xlink:title=" ">
<polygon fill="white" stroke="#666666" points="744.88,-82 648.62,-82 648.62,-62 744.88,-62 744.88,-82"/>
<text text-anchor="middle" x="696.75" y="-68.5" font-family="Helvetica,sans-Serif" font-size="10.00">FMTexception.hpp</text>
</a>
</g>
</g>
<!-- Node14&#45;&gt;Node18 -->
<g id="edge17" class="edge">
<title>Node14&#45;&gt;Node18</title>
<path fill="none" stroke="#63b8ff" d="M538.26,-129.54C570.13,-118.17 623.81,-99.02 659.75,-86.2"/>
<polygon fill="#63b8ff" stroke="#63b8ff" points="660.63,-89.6 668.87,-82.95 658.27,-83.01 660.63,-89.6"/>
</g>
<!-- Node20 -->
<g id="node20" class="node">
<title>Node20</title>
<g id="a_node20"><a xlink:title=" ">
<polygon fill="#e0e0e0" stroke="#999999" points="431.38,-20 380.12,-20 380.12,0 431.38,0 431.38,-20"/>
<text text-anchor="middle" x="405.75" y="-6.5" font-family="Helvetica,sans-Serif" font-size="10.00">memory</text>
</a>
</g>
</g>
<!-- Node14&#45;&gt;Node20 -->
<g id="edge23" class="edge">
<title>Node14&#45;&gt;Node20</title>
<path fill="none" stroke="#63b8ff" d="M483.45,-129.51C476.72,-127.49 469.52,-125.51 462.75,-124 406.88,-111.59 245.28,-131.2 207.75,-88 160.76,-33.91 299.1,-17.57 368.56,-12.84"/>
<polygon fill="#63b8ff" stroke="#63b8ff" points="368.6,-16.34 378.36,-12.22 368.16,-9.36 368.6,-16.34"/>
</g>
<!-- Node21 -->
<g id="node21" class="node">
<title>Node21</title>
<g id="a_node21"><a xlink:title=" ">
<polygon fill="#e0e0e0" stroke="#999999" points="374.38,-82 329.12,-82 329.12,-62 374.38,-62 374.38,-82"/>
<text text-anchor="middle" x="351.75" y="-68.5" font-family="Helvetica,sans-Serif" font-size="10.00">chrono</text>
</a>
</g>
</g>
<!-- Node14&#45;&gt;Node21 -->
<g id="edge24" class="edge">
<title>Node14&#45;&gt;Node21</title>
<path fill="none" stroke="#63b8ff" d="M487.03,-129.65C461.12,-119.73 419.31,-103.4 383.75,-88 382.99,-87.67 382.22,-87.33 381.45,-86.99"/>
<polygon fill="#63b8ff" stroke="#63b8ff" points="383.23,-83.96 372.68,-83.01 380.34,-90.33 383.23,-83.96"/>
</g>
<!-- Node22 -->
<g id="node22" class="node">
<title>Node22</title>
<g id="a_node22"><a xlink:title=" ">
<polygon fill="#e0e0e0" stroke="#999999" points="517.12,-88 392.38,-88 392.38,-56 517.12,-56 517.12,-88"/>
<text text-anchor="start" x="400.38" y="-74.5" font-family="Helvetica,sans-Serif" font-size="10.00">boost/dll/runtime_symbol</text>
<text text-anchor="middle" x="454.75" y="-62.5" font-family="Helvetica,sans-Serif" font-size="10.00">_info.hpp</text>
</a>
</g>
</g>
<!-- Node14&#45;&gt;Node22 -->
<g id="edge26" class="edge">
<title>Node14&#45;&gt;Node22</title>
<path fill="none" stroke="#63b8ff" d="M503.58,-129.54C496.25,-121.05 485.16,-108.21 475.41,-96.92"/>
<polygon fill="#63b8ff" stroke="#63b8ff" points="478.14,-94.73 468.95,-89.45 472.84,-99.3 478.14,-94.73"/>
</g>
<!-- Node18&#45;&gt;Node5 -->
<g id="edge20" class="edge">
<title>Node18&#45;&gt;Node5</title>
<path fill="none" stroke="#63b8ff" d="M711.12,-61.62C725.57,-52.2 748.09,-37.52 765.16,-26.39"/>
<polygon fill="#63b8ff" stroke="#63b8ff" points="766.74,-29.53 773.21,-21.14 762.92,-23.67 766.74,-29.53"/>
</g>
<!-- Node18&#45;&gt;Node7 -->
<g id="edge19" class="edge">
<title>Node18&#45;&gt;Node7</title>
<path fill="none" stroke="#63b8ff" d="M723.94,-61.62C755.23,-50.83 806.53,-33.14 839.46,-21.79"/>
<polygon fill="#63b8ff" stroke="#63b8ff" points="840.53,-25.12 848.85,-18.55 838.25,-18.5 840.53,-25.12"/>
</g>
<!-- Node18&#45;&gt;Node10 -->
<g id="edge22" class="edge">
<title>Node18&#45;&gt;Node10</title>
<path fill="none" stroke="#63b8ff" d="M664.45,-61.56C656.14,-59.43 647.16,-57.39 638.75,-56 437.06,-22.63 193.09,-13.98 89.35,-11.76"/>
<polygon fill="#63b8ff" stroke="#63b8ff" points="89.58,-8.26 79.51,-11.56 89.44,-15.26 89.58,-8.26"/>
</g>
<!-- Node19 -->
<g id="node19" class="node">
<title>Node19</title>
<g id="a_node19"><a xlink:title=" ">
<polygon fill="#e0e0e0" stroke="#999999" points="725.75,-20 667.75,-20 667.75,0 725.75,0 725.75,-20"/>
<text text-anchor="middle" x="696.75" y="-6.5" font-family="Helvetica,sans-Serif" font-size="10.00">exception</text>
</a>
</g>
</g>
<!-- Node18&#45;&gt;Node19 -->
<g id="edge18" class="edge">
<title>Node18&#45;&gt;Node19</title>
<path fill="none" stroke="#63b8ff" d="M696.75,-61.62C696.75,-53.56 696.75,-41.65 696.75,-31.41"/>
<polygon fill="#63b8ff" stroke="#63b8ff" points="700.25,-31.63 696.75,-21.63 693.25,-31.63 700.25,-31.63"/>
</g>
<!-- Node18&#45;&gt;Node20 -->
<g id="edge21" class="edge">
<title>Node18&#45;&gt;Node20</title>
<path fill="none" stroke="#63b8ff" d="M661.56,-61.53C654.05,-59.61 646.16,-57.67 638.75,-56 569.99,-40.48 489.05,-25.61 442.94,-17.44"/>
<polygon fill="#63b8ff" stroke="#63b8ff" points="443.66,-14.02 433.21,-15.73 442.45,-20.91 443.66,-14.02"/>
</g>
</g>
</svg>
