<?xml version="1.0" encoding="UTF-8" standalone="no"?>
<!DOCTYPE svg PUBLIC "-//W3C//DTD SVG 1.1//EN"
 "http://www.w3.org/Graphics/SVG/1.1/DTD/svg11.dtd">
<!-- Generated by graphviz version 10.0.1 (20240210.2158)
 -->
<!-- Title: D:/FMT/Include/FMTOutputParser.h Pages: 1 -->
<!--zoomable 356 -->
<svg id="main" version="1.1" xmlns="http://www.w3.org/2000/svg" xmlns:xlink="http://www.w3.org/1999/xlink" xml:space="preserve" onload="init(evt)">
<style type="text/css"><![CDATA[
.edge:hover path { stroke: red; }
.edge:hover polygon { stroke: red; fill: red; }
]]></style>
<script type="text/javascript"><![CDATA[
var edges = document.getElementsByTagName('g');
if (edges && edges.length) {
  for (var i=0;i<edges.length;i++) {
    if (edges[i].id.substr(0,4)=='edge') {
      edges[i].setAttribute('class','edge');
    }
  }
}
]]></script>
        <defs>
                <circle id="rim" cx="0" cy="0" r="7"/>
                <circle id="rim2" cx="0" cy="0" r="3.5"/>
                <g id="zoomPlus">
                        <use xlink:href="#rim" fill="#404040">
                                <set attributeName="fill" to="#808080" begin="zoomplus.mouseover" end="zoomplus.mouseout"/>
                        </use>
                        <path d="M-4,0h8M0,-4v8" fill="none" stroke="white" stroke-width="1.5" pointer-events="none"/>
                </g>
                <g id="zoomMin">
                        <use xlink:href="#rim" fill="#404040">
                                <set attributeName="fill" to="#808080" begin="zoomminus.mouseover" end="zoomminus.mouseout"/>
                        </use>
                        <path d="M-4,0h8" fill="none" stroke="white" stroke-width="1.5" pointer-events="none"/>
                </g>
                <g id="dirArrow">
                        <path fill="none" stroke="white" stroke-width="1.5" d="M0,-3.0v7 M-2.5,-0.5L0,-3.0L2.5,-0.5"/>
                </g>
               <g id="resetDef">
                       <use xlink:href="#rim2" fill="#404040">
                               <set attributeName="fill" to="#808080" begin="reset.mouseover" end="reset.mouseout"/>
                       </use>
               </g>
        </defs>

<script type="text/javascript">
var viewWidth = 1305;
var viewHeight = 356;
var sectionId = 'dynsection-0';
</script>
<script xlink:href="svgpan.js"/>
<svg id="graph" class="graph">
<g id="viewport">
<title>D:/FMT/Include/FMTOutputParser.h</title>
<!-- Node1 -->
<g id="node1" class="node">
<title>Node1</title>
<g id="a_node1"><a xlink:title=" ">
<polygon fill="#999999" stroke="#666666" points="354.99,-348 221.24,-348 221.24,-316 354.99,-316 354.99,-348"/>
<text text-anchor="start" x="229.24" y="-334.5" font-family="Helvetica,sans-Serif" font-size="10.00">D:/FMT/Include/FMTOutput</text>
<text text-anchor="middle" x="288.12" y="-322.5" font-family="Helvetica,sans-Serif" font-size="10.00">Parser.h</text>
</a>
</g>
</g>
<!-- Node2 -->
<g id="node2" class="node">
<title>Node2</title>
<g id="a_node2"><a xlink:href="FMTParser_8h.html" target="_top" xlink:title=" ">
<polygon fill="white" stroke="#666666" points="400.24,-280 327.99,-280 327.99,-260 400.24,-260 400.24,-280"/>
<text text-anchor="middle" x="364.12" y="-266.5" font-family="Helvetica,sans-Serif" font-size="10.00">FMTParser.h</text>
</a>
</g>
</g>
<!-- Node1&#45;&gt;Node2 -->
<g id="edge1" class="edge">
<title>Node1&#45;&gt;Node2</title>
<path fill="none" stroke="#63b8ff" d="M307.69,-315.55C318.57,-306.95 332.12,-296.26 343.21,-287.5"/>
<polygon fill="#63b8ff" stroke="#63b8ff" points="345.33,-290.29 351.01,-281.35 340.99,-284.8 345.33,-290.29"/>
</g>
<!-- Node3 -->
<g id="node3" class="node">
<title>Node3</title>
<g id="a_node3"><a xlink:title=" ">
<polygon fill="#e0e0e0" stroke="#999999" points="105.99,-218 20.24,-218 20.24,-198 105.99,-198 105.99,-218"/>
<text text-anchor="middle" x="63.12" y="-204.5" font-family="Helvetica,sans-Serif" font-size="10.00">boost/regex.hpp</text>
</a>
</g>
</g>
<!-- Node1&#45;&gt;Node3 -->
<g id="edge32" class="edge">
<title>Node1&#45;&gt;Node3</title>
<path fill="none" stroke="#63b8ff" d="M259.62,-315.55C216.01,-291.91 133.29,-247.05 90.41,-223.8"/>
<polygon fill="#63b8ff" stroke="#63b8ff" points="92.21,-220.79 81.75,-219.1 88.87,-226.95 92.21,-220.79"/>
</g>
<!-- Node7 -->
<g id="node7" class="node">
<title>Node7</title>
<g id="a_node7"><a xlink:title=" ">
<polygon fill="#e0e0e0" stroke="#999999" points="915.12,-20 875.12,-20 875.12,0 915.12,0 915.12,-20"/>
<text text-anchor="middle" x="895.12" y="-6.5" font-family="Helvetica,sans-Serif" font-size="10.00">string</text>
</a>
</g>
</g>
<!-- Node1&#45;&gt;Node7 -->
<g id="edge33" class="edge">
<title>Node1&#45;&gt;Node7</title>
<path fill="none" stroke="#63b8ff" d="M355.1,-329.96C580.46,-325.58 1297.12,-304.17 1297.12,-209 1297.12,-209 1297.12,-209 1297.12,-139 1297.12,-90.74 1269.41,-79.24 1227.12,-56 1175.69,-27.74 999.09,-16.07 926.58,-12.4"/>
<polygon fill="#63b8ff" stroke="#63b8ff" points="927.14,-8.92 916.99,-11.93 926.8,-15.91 927.14,-8.92"/>
</g>
<!-- Node10 -->
<g id="node10" class="node">
<title>Node10</title>
<g id="a_node10"><a xlink:href="FMTutility_8h.html" target="_top" xlink:title=" ">
<polygon fill="white" stroke="#666666" points="299.62,-82 232.62,-82 232.62,-62 299.62,-62 299.62,-82"/>
<text text-anchor="middle" x="266.12" y="-68.5" font-family="Helvetica,sans-Serif" font-size="10.00">FMTutility.h</text>
</a>
</g>
</g>
<!-- Node1&#45;&gt;Node10 -->
<g id="edge31" class="edge">
<title>Node1&#45;&gt;Node10</title>
<path fill="none" stroke="#63b8ff" d="M220.77,-325.93C154.91,-316.97 57.91,-292.24 11.12,-224 -45.9,-140.85 133.77,-96.52 221.2,-80.3"/>
<polygon fill="#63b8ff" stroke="#63b8ff" points="221.67,-83.77 230.89,-78.55 220.43,-76.88 221.67,-83.77"/>
</g>
<!-- Node2&#45;&gt;Node3 -->
<g id="edge2" class="edge">
<title>Node2&#45;&gt;Node3</title>
<path fill="none" stroke="#63b8ff" d="M327.56,-263.14C279.7,-255.26 193.26,-240.35 120.12,-224 116.3,-223.15 112.36,-222.22 108.42,-221.25"/>
<polygon fill="#63b8ff" stroke="#63b8ff" points="109.4,-217.89 98.84,-218.83 107.68,-224.67 109.4,-217.89"/>
</g>
<!-- Node4 -->
<g id="node4" class="node">
<title>Node4</title>
<g id="a_node4"><a xlink:title=" ">
<polygon fill="#e0e0e0" stroke="#999999" points="578.12,-218 532.12,-218 532.12,-198 578.12,-198 578.12,-218"/>
<text text-anchor="middle" x="555.12" y="-204.5" font-family="Helvetica,sans-Serif" font-size="10.00">iterator</text>
</a>
</g>
</g>
<!-- Node2&#45;&gt;Node4 -->
<g id="edge3" class="edge">
<title>Node2&#45;&gt;Node4</title>
<path fill="none" stroke="#63b8ff" d="M400.65,-260.46C433.23,-252.42 481.99,-239.34 523.12,-224 524.07,-223.64 525.04,-223.27 526.01,-222.88"/>
<polygon fill="#63b8ff" stroke="#63b8ff" points="527.2,-226.18 534.99,-219 524.42,-219.76 527.2,-226.18"/>
</g>
<!-- Node5 -->
<g id="node5" class="node">
<title>Node5</title>
<g id="a_node5"><a xlink:title=" ">
<polygon fill="#e0e0e0" stroke="#999999" points="502.87,-82 449.37,-82 449.37,-62 502.87,-62 502.87,-82"/>
<text text-anchor="middle" x="476.12" y="-68.5" font-family="Helvetica,sans-Serif" font-size="10.00">iostream</text>
</a>
</g>
</g>
<!-- Node2&#45;&gt;Node5 -->
<g id="edge4" class="edge">
<title>Node2&#45;&gt;Node5</title>
<path fill="none" stroke="#63b8ff" d="M400.72,-267.06C457.82,-263.18 563.98,-252.27 587.12,-224 637.9,-161.94 515.12,-180.56 494.12,-156 479.39,-138.78 475.86,-112.34 475.39,-93.94"/>
<polygon fill="#63b8ff" stroke="#63b8ff" points="478.89,-94 475.45,-83.97 471.89,-93.95 478.89,-94"/>
</g>
<!-- Node6 -->
<g id="node6" class="node">
<title>Node6</title>
<g id="a_node6"><a xlink:title=" ">
<polygon fill="#e0e0e0" stroke="#999999" points="210.24,-218 161.99,-218 161.99,-198 210.24,-198 210.24,-218"/>
<text text-anchor="middle" x="186.12" y="-204.5" font-family="Helvetica,sans-Serif" font-size="10.00">fstream</text>
</a>
</g>
</g>
<!-- Node2&#45;&gt;Node6 -->
<g id="edge5" class="edge">
<title>Node2&#45;&gt;Node6</title>
<path fill="none" stroke="#63b8ff" d="M329.42,-259.56C299.79,-251.19 256.19,-238.11 219.12,-224 218.16,-223.64 217.2,-223.26 216.23,-222.87"/>
<polygon fill="#63b8ff" stroke="#63b8ff" points="217.8,-219.74 207.23,-219.04 215.06,-226.18 217.8,-219.74"/>
</g>
<!-- Node2&#45;&gt;Node7 -->
<g id="edge6" class="edge">
<title>Node2&#45;&gt;Node7</title>
<path fill="none" stroke="#63b8ff" d="M400.5,-267.17C559.21,-258.81 1185.36,-221.84 1240.12,-156 1329.14,-48.96 1027.39,-19.52 926.7,-12.77"/>
<polygon fill="#63b8ff" stroke="#63b8ff" points="927.17,-9.29 916.96,-12.15 926.72,-16.28 927.17,-9.29"/>
</g>
<!-- Node8 -->
<g id="node8" class="node">
<title>Node8</title>
<g id="a_node8"><a xlink:title=" ">
<polygon fill="#e0e0e0" stroke="#999999" points="544.87,-150 503.37,-150 503.37,-130 544.87,-130 544.87,-150"/>
<text text-anchor="middle" x="524.12" y="-136.5" font-family="Helvetica,sans-Serif" font-size="10.00">vector</text>
</a>
</g>
</g>
<!-- Node2&#45;&gt;Node8 -->
<g id="edge7" class="edge">
<title>Node2&#45;&gt;Node8</title>
<path fill="none" stroke="#63b8ff" d="M400.64,-268.13C464.55,-265.74 592.51,-256.88 620.12,-224 629.26,-213.11 627.44,-204.19 620.12,-192 619.62,-191.17 580.34,-170.46 552.18,-155.69"/>
<polygon fill="#63b8ff" stroke="#63b8ff" points="553.86,-152.62 543.38,-151.08 550.62,-158.82 553.86,-152.62"/>
</g>
<!-- Node9 -->
<g id="node9" class="node">
<title>Node9</title>
<g id="a_node9"><a xlink:title=" ">
<polygon fill="#e0e0e0" stroke="#999999" points="270.24,-218 227.99,-218 227.99,-198 270.24,-198 270.24,-218"/>
<text text-anchor="middle" x="249.12" y="-204.5" font-family="Helvetica,sans-Serif" font-size="10.00">queue</text>
</a>
</g>
</g>
<!-- Node2&#45;&gt;Node9 -->
<g id="edge8" class="edge">
<title>Node2&#45;&gt;Node9</title>
<path fill="none" stroke="#63b8ff" d="M346.15,-259.62C327.66,-249.98 298.62,-234.83 277.12,-223.61"/>
<polygon fill="#63b8ff" stroke="#63b8ff" points="278.78,-220.53 268.3,-219.01 275.55,-226.74 278.78,-220.53"/>
</g>
<!-- Node2&#45;&gt;Node10 -->
<g id="edge9" class="edge">
<title>Node2&#45;&gt;Node10</title>
<path fill="none" stroke="#63b8ff" d="M327.69,-266.61C273.23,-262.19 174.67,-250.64 153.12,-224 113.94,-175.59 195.34,-115.77 239.78,-88.21"/>
<polygon fill="#63b8ff" stroke="#63b8ff" points="241.38,-91.33 248.13,-83.16 237.76,-85.34 241.38,-91.33"/>
</g>
<!-- Node11 -->
<g id="node11" class="node">
<title>Node11</title>
<g id="a_node11"><a xlink:title=" ">
<polygon fill="#e0e0e0" stroke="#999999" points="325.99,-218 288.24,-218 288.24,-198 325.99,-198 325.99,-218"/>
<text text-anchor="middle" x="307.12" y="-204.5" font-family="Helvetica,sans-Serif" font-size="10.00">array</text>
</a>
</g>
</g>
<!-- Node2&#45;&gt;Node11 -->
<g id="edge11" class="edge">
<title>Node2&#45;&gt;Node11</title>
<path fill="none" stroke="#63b8ff" d="M355.21,-259.62C346.79,-250.77 333.96,-237.26 323.67,-226.43"/>
<polygon fill="#63b8ff" stroke="#63b8ff" points="326.24,-224.05 316.81,-219.21 321.16,-228.87 326.24,-224.05"/>
</g>
<!-- Node12 -->
<g id="node12" class="node">
<title>Node12</title>
<g id="a_node12"><a xlink:title=" ">
<polygon fill="#e0e0e0" stroke="#999999" points="384.12,-218 344.12,-218 344.12,-198 384.12,-198 384.12,-218"/>
<text text-anchor="middle" x="364.12" y="-204.5" font-family="Helvetica,sans-Serif" font-size="10.00">ctime</text>
</a>
</g>
</g>
<!-- Node2&#45;&gt;Node12 -->
<g id="edge12" class="edge">
<title>Node2&#45;&gt;Node12</title>
<path fill="none" stroke="#63b8ff" d="M364.12,-259.62C364.12,-251.56 364.12,-239.65 364.12,-229.41"/>
<polygon fill="#63b8ff" stroke="#63b8ff" points="367.62,-229.63 364.12,-219.63 360.62,-229.63 367.62,-229.63"/>
</g>
<!-- Node13 -->
<g id="node13" class="node">
<title>Node13</title>
<g id="a_node13"><a xlink:title=" ">
<polygon fill="#e0e0e0" stroke="#999999" points="513.74,-224 402.49,-224 402.49,-192 513.74,-192 513.74,-224"/>
<text text-anchor="start" x="410.49" y="-210.5" font-family="Helvetica,sans-Serif" font-size="10.00">boost/thread/recursive</text>
<text text-anchor="middle" x="458.12" y="-198.5" font-family="Helvetica,sans-Serif" font-size="10.00">_mutex.hpp</text>
</a>
</g>
</g>
<!-- Node2&#45;&gt;Node13 -->
<g id="edge13" class="edge">
<title>Node2&#45;&gt;Node13</title>
<path fill="none" stroke="#63b8ff" d="M378.8,-259.62C391.03,-251.82 408.92,-240.4 424.61,-230.38"/>
<polygon fill="#63b8ff" stroke="#63b8ff" points="426.21,-233.52 432.75,-225.19 422.44,-227.62 426.21,-233.52"/>
</g>
<!-- Node14 -->
<g id="node14" class="node">
<title>Node14</title>
<g id="a_node14"><a xlink:href="FMTObject_8h.html" target="_top" xlink:title=" ">
<polygon fill="white" stroke="#666666" points="864.24,-218 791.99,-218 791.99,-198 864.24,-198 864.24,-218"/>
<text text-anchor="middle" x="828.12" y="-204.5" font-family="Helvetica,sans-Serif" font-size="10.00">FMTObject.h</text>
</a>
</g>
</g>
<!-- Node2&#45;&gt;Node14 -->
<g id="edge14" class="edge">
<title>Node2&#45;&gt;Node14</title>
<path fill="none" stroke="#63b8ff" d="M400.52,-264.29C483.6,-253.55 687.14,-227.23 780.23,-215.19"/>
<polygon fill="#63b8ff" stroke="#63b8ff" points="780.59,-218.68 790.05,-213.92 779.69,-211.73 780.59,-218.68"/>
</g>
<!-- Node10&#45;&gt;Node7 -->
<g id="edge10" class="edge">
<title>Node10&#45;&gt;Node7</title>
<path fill="none" stroke="#63b8ff" d="M299.93,-67.77C410.01,-57.27 757.09,-24.17 863.68,-14"/>
<polygon fill="#63b8ff" stroke="#63b8ff" points="863.77,-17.51 873.39,-13.07 863.11,-10.54 863.77,-17.51"/>
</g>
<!-- Node14&#45;&gt;Node8 -->
<g id="edge29" class="edge">
<title>Node14&#45;&gt;Node8</title>
<path fill="none" stroke="#63b8ff" d="M791.66,-203.68C738.16,-198.05 635.79,-184.35 553.12,-156 552.31,-155.72 551.5,-155.43 550.69,-155.12"/>
<polygon fill="#63b8ff" stroke="#63b8ff" points="552.24,-151.98 541.69,-151.06 549.36,-158.36 552.24,-151.98"/>
</g>
<!-- Node15 -->
<g id="node15" class="node">
<title>Node15</title>
<g id="a_node15"><a xlink:title=" ">
<polygon fill="#e0e0e0" stroke="#999999" points="1231.49,-156 1136.74,-156 1136.74,-124 1231.49,-124 1231.49,-156"/>
<text text-anchor="start" x="1144.74" y="-142.5" font-family="Helvetica,sans-Serif" font-size="10.00">boost/serialization</text>
<text text-anchor="middle" x="1184.12" y="-130.5" font-family="Helvetica,sans-Serif" font-size="10.00">/unique_ptr.hpp</text>
</a>
</g>
</g>
<!-- Node14&#45;&gt;Node15 -->
<g id="edge15" class="edge">
<title>Node14&#45;&gt;Node15</title>
<path fill="none" stroke="#63b8ff" d="M864.6,-201.53C920.48,-192.97 1030.52,-175.36 1123.12,-156 1123.94,-155.83 1124.76,-155.65 1125.59,-155.48"/>
<polygon fill="#63b8ff" stroke="#63b8ff" points="1126.09,-158.95 1135.09,-153.36 1124.57,-152.12 1126.09,-158.95"/>
</g>
<!-- Node16 -->
<g id="node16" class="node">
<title>Node16</title>
<g id="a_node16"><a xlink:title=" ">
<polygon fill="#e0e0e0" stroke="#999999" points="762.49,-156 667.74,-156 667.74,-124 762.49,-124 762.49,-156"/>
<text text-anchor="start" x="675.74" y="-142.5" font-family="Helvetica,sans-Serif" font-size="10.00">boost/serialization</text>
<text text-anchor="middle" x="715.12" y="-130.5" font-family="Helvetica,sans-Serif" font-size="10.00">/nvp.hpp</text>
</a>
</g>
</g>
<!-- Node14&#45;&gt;Node16 -->
<g id="edge16" class="edge">
<title>Node14&#45;&gt;Node16</title>
<path fill="none" stroke="#63b8ff" d="M811.93,-197.54C796.16,-188.34 771.65,-174.02 751.24,-162.1"/>
<polygon fill="#63b8ff" stroke="#63b8ff" points="753.02,-159.09 742.62,-157.06 749.49,-165.13 753.02,-159.09"/>
</g>
<!-- Node17 -->
<g id="node17" class="node">
<title>Node17</title>
<g id="a_node17"><a xlink:title=" ">
<polygon fill="#e0e0e0" stroke="#999999" points="875.49,-156 780.74,-156 780.74,-124 875.49,-124 875.49,-156"/>
<text text-anchor="start" x="788.74" y="-142.5" font-family="Helvetica,sans-Serif" font-size="10.00">boost/serialization</text>
<text text-anchor="middle" x="828.12" y="-130.5" font-family="Helvetica,sans-Serif" font-size="10.00">/export.hpp</text>
</a>
</g>
</g>
<!-- Node14&#45;&gt;Node17 -->
<g id="edge17" class="edge">
<title>Node14&#45;&gt;Node17</title>
<path fill="none" stroke="#63b8ff" d="M828.12,-197.54C828.12,-189.72 828.12,-178.22 828.12,-167.63"/>
<polygon fill="#63b8ff" stroke="#63b8ff" points="831.62,-167.81 828.12,-157.81 824.62,-167.81 831.62,-167.81"/>
</g>
<!-- Node18 -->
<g id="node18" class="node">
<title>Node18</title>
<g id="a_node18"><a xlink:href="FMTException_8h.html" target="_top" xlink:title=" ">
<polygon fill="white" stroke="#666666" points="649.74,-150 562.49,-150 562.49,-130 649.74,-130 649.74,-150"/>
<text text-anchor="middle" x="606.12" y="-136.5" font-family="Helvetica,sans-Serif" font-size="10.00">FMTException.h</text>
</a>
</g>
</g>
<!-- Node14&#45;&gt;Node18 -->
<g id="edge18" class="edge">
<title>Node14&#45;&gt;Node18</title>
<path fill="none" stroke="#63b8ff" d="M796.31,-197.54C757.57,-186.03 691.97,-166.53 648.85,-153.71"/>
<polygon fill="#63b8ff" stroke="#63b8ff" points="649.9,-150.36 639.31,-150.87 647.9,-157.07 649.9,-150.36"/>
</g>
<!-- Node20 -->
<g id="node20" class="node">
<title>Node20</title>
<g id="a_node20"><a xlink:title=" ">
<polygon fill="#e0e0e0" stroke="#999999" points="1079.74,-82 1028.49,-82 1028.49,-62 1079.74,-62 1079.74,-82"/>
<text text-anchor="middle" x="1054.12" y="-68.5" font-family="Helvetica,sans-Serif" font-size="10.00">memory</text>
</a>
</g>
</g>
<!-- Node14&#45;&gt;Node20 -->
<g id="edge27" class="edge">
<title>Node14&#45;&gt;Node20</title>
<path fill="none" stroke="#63b8ff" d="M864.51,-205.43C929.63,-201.76 1061.93,-190.2 1090.12,-156 1106.19,-136.49 1087.83,-108.71 1071.97,-90.76"/>
<polygon fill="#63b8ff" stroke="#63b8ff" points="1074.53,-88.38 1065.14,-83.48 1069.42,-93.17 1074.53,-88.38"/>
</g>
<!-- Node24 -->
<g id="node24" class="node">
<title>Node24</title>
<g id="a_node24"><a xlink:title=" ">
<polygon fill="#e0e0e0" stroke="#999999" points="938.74,-150 893.49,-150 893.49,-130 938.74,-130 938.74,-150"/>
<text text-anchor="middle" x="916.12" y="-136.5" font-family="Helvetica,sans-Serif" font-size="10.00">chrono</text>
</a>
</g>
</g>
<!-- Node14&#45;&gt;Node24 -->
<g id="edge28" class="edge">
<title>Node14&#45;&gt;Node24</title>
<path fill="none" stroke="#63b8ff" d="M840.72,-197.54C854.71,-187.06 877.52,-169.95 894.39,-157.29"/>
<polygon fill="#63b8ff" stroke="#63b8ff" points="896.42,-160.15 902.32,-151.35 892.22,-154.55 896.42,-160.15"/>
</g>
<!-- Node25 -->
<g id="node25" class="node">
<title>Node25</title>
<g id="a_node25"><a xlink:title=" ">
<polygon fill="#e0e0e0" stroke="#999999" points="1081.49,-156 956.74,-156 956.74,-124 1081.49,-124 1081.49,-156"/>
<text text-anchor="start" x="964.74" y="-142.5" font-family="Helvetica,sans-Serif" font-size="10.00">boost/dll/runtime_symbol</text>
<text text-anchor="middle" x="1019.12" y="-130.5" font-family="Helvetica,sans-Serif" font-size="10.00">_info.h</text>
</a>
</g>
</g>
<!-- Node14&#45;&gt;Node25 -->
<g id="edge30" class="edge">
<title>Node14&#45;&gt;Node25</title>
<path fill="none" stroke="#63b8ff" d="M855.48,-197.54C883.62,-187.82 928.22,-172.41 963.76,-160.13"/>
<polygon fill="#63b8ff" stroke="#63b8ff" points="964.73,-163.5 973.04,-156.92 962.44,-156.88 964.73,-163.5"/>
</g>
<!-- Node18&#45;&gt;Node5 -->
<g id="edge21" class="edge">
<title>Node18&#45;&gt;Node5</title>
<path fill="none" stroke="#63b8ff" d="M587.49,-129.54C565.87,-118.57 529.95,-100.33 504.77,-87.55"/>
<polygon fill="#63b8ff" stroke="#63b8ff" points="506.56,-84.53 496.06,-83.12 503.39,-90.77 506.56,-84.53"/>
</g>
<!-- Node18&#45;&gt;Node7 -->
<g id="edge20" class="edge">
<title>Node18&#45;&gt;Node7</title>
<path fill="none" stroke="#63b8ff" d="M591.8,-129.74C568.86,-113.81 528.55,-80.56 550.12,-56 570.68,-32.58 782.36,-17.67 863.6,-12.78"/>
<polygon fill="#63b8ff" stroke="#63b8ff" points="863.75,-16.27 873.53,-12.19 863.34,-9.28 863.75,-16.27"/>
</g>
<!-- Node18&#45;&gt;Node10 -->
<g id="edge23" class="edge">
<title>Node18&#45;&gt;Node10</title>
<path fill="none" stroke="#63b8ff" d="M575.46,-129.58C568.48,-127.59 561.07,-125.61 554.12,-124 468.97,-104.24 368.11,-87.99 311.17,-79.47"/>
<polygon fill="#63b8ff" stroke="#63b8ff" points="311.95,-76.05 301.54,-78.04 310.92,-82.97 311.95,-76.05"/>
</g>
<!-- Node19 -->
<g id="node19" class="node">
<title>Node19</title>
<g id="a_node19"><a xlink:title=" ">
<polygon fill="#e0e0e0" stroke="#999999" points="842.12,-82 784.12,-82 784.12,-62 842.12,-62 842.12,-82"/>
<text text-anchor="middle" x="813.12" y="-68.5" font-family="Helvetica,sans-Serif" font-size="10.00">exception</text>
</a>
</g>
</g>
<!-- Node18&#45;&gt;Node19 -->
<g id="edge19" class="edge">
<title>Node18&#45;&gt;Node19</title>
<path fill="none" stroke="#63b8ff" d="M638.56,-129.56C680.11,-117.4 749.79,-96.8 775.12,-88 776.66,-87.46 778.24,-86.9 779.84,-86.32"/>
<polygon fill="#63b8ff" stroke="#63b8ff" points="780.79,-89.7 788.91,-82.89 778.32,-83.15 780.79,-89.7"/>
</g>
<!-- Node18&#45;&gt;Node20 -->
<g id="edge22" class="edge">
<title>Node18&#45;&gt;Node20</title>
<path fill="none" stroke="#63b8ff" d="M636.46,-129.52C643.82,-127.47 651.71,-125.48 659.12,-124 792.54,-97.39 828.4,-107.07 963.12,-88 981.02,-85.47 1000.84,-82.25 1017.4,-79.44"/>
<polygon fill="#63b8ff" stroke="#63b8ff" points="1017.52,-82.97 1026.78,-77.84 1016.34,-76.07 1017.52,-82.97"/>
</g>
<!-- Node21 -->
<g id="node21" class="node">
<title>Node21</title>
<g id="a_node21"><a xlink:title=" ">
<polygon fill="#e0e0e0" stroke="#999999" points="954.49,-88 859.74,-88 859.74,-56 954.49,-56 954.49,-88"/>
<text text-anchor="start" x="867.74" y="-74.5" font-family="Helvetica,sans-Serif" font-size="10.00">boost/serialization</text>
<text text-anchor="middle" x="907.12" y="-62.5" font-family="Helvetica,sans-Serif" font-size="10.00">/access.hpp</text>
</a>
</g>
</g>
<!-- Node18&#45;&gt;Node21 -->
<g id="edge24" class="edge">
<title>Node18&#45;&gt;Node21</title>
<path fill="none" stroke="#63b8ff" d="M637.66,-129.57C644.69,-127.61 652.13,-125.64 659.12,-124 740.17,-104.97 764.48,-107.03 848.41,-88.51"/>
<polygon fill="#63b8ff" stroke="#63b8ff" points="849.05,-91.95 858.04,-86.35 847.52,-85.12 849.05,-91.95"/>
</g>
<!-- Node22 -->
<g id="node22" class="node">
<title>Node22</title>
<g id="a_node22"><a xlink:title=" ">
<polygon fill="#e0e0e0" stroke="#999999" points="653.49,-88 558.74,-88 558.74,-56 653.49,-56 653.49,-88"/>
<text text-anchor="start" x="566.74" y="-74.5" font-family="Helvetica,sans-Serif" font-size="10.00">boost/serialization</text>
<text text-anchor="middle" x="606.12" y="-62.5" font-family="Helvetica,sans-Serif" font-size="10.00">/base_object.hpp</text>
</a>
</g>
</g>
<!-- Node18&#45;&gt;Node22 -->
<g id="edge25" class="edge">
<title>Node18&#45;&gt;Node22</title>
<path fill="none" stroke="#63b8ff" d="M606.12,-129.54C606.12,-121.72 606.12,-110.22 606.12,-99.63"/>
<polygon fill="#63b8ff" stroke="#63b8ff" points="609.62,-99.81 606.12,-89.81 602.62,-99.81 609.62,-99.81"/>
</g>
<!-- Node23 -->
<g id="node23" class="node">
<title>Node23</title>
<g id="a_node23"><a xlink:title=" ">
<polygon fill="#e0e0e0" stroke="#999999" points="766.49,-88 671.74,-88 671.74,-56 766.49,-56 766.49,-88"/>
<text text-anchor="start" x="679.74" y="-74.5" font-family="Helvetica,sans-Serif" font-size="10.00">boost/serialization</text>
<text text-anchor="middle" x="719.12" y="-62.5" font-family="Helvetica,sans-Serif" font-size="10.00">/string.hpp</text>
</a>
</g>
</g>
<!-- Node18&#45;&gt;Node23 -->
<g id="edge26" class="edge">
<title>Node18&#45;&gt;Node23</title>
<path fill="none" stroke="#63b8ff" d="M622.31,-129.54C638.07,-120.34 662.58,-106.02 682.99,-94.1"/>
<polygon fill="#63b8ff" stroke="#63b8ff" points="684.74,-97.13 691.61,-89.06 681.21,-91.09 684.74,-97.13"/>
</g>
</g>
</svg>
        <g id="navigator" transform="translate(0 0)" fill="#404254">
                <rect fill="#f2f5e9" fill-opacity="0.5" stroke="#606060" stroke-width=".5" x="0" y="0" width="60" height="60"/>
                <use id="zoomplus" xlink:href="#zoomPlus" x="17" y="9" onmousedown="handleZoom(evt,'in')"/>
                <use id="zoomminus" xlink:href="#zoomMin" x="42" y="9" onmousedown="handleZoom(evt,'out')"/>
                <use id="reset" xlink:href="#resetDef" x="30" y="36" onmousedown="handleReset()"/>
                <g id="arrowUp" xlink:href="#dirArrow" transform="translate(30 24)" onmousedown="handlePan(0,-1)">
                  <use xlink:href="#rim" fill="#404040">
                        <set attributeName="fill" to="#808080" begin="arrowUp.mouseover" end="arrowUp.mouseout"/>
                  </use>
                  <path fill="none" stroke="white" stroke-width="1.5" d="M0,-3.0v7 M-2.5,-0.5L0,-3.0L2.5,-0.5"/>
                </g>
                <g id="arrowRight" xlink:href="#dirArrow" transform="rotate(90) translate(36 -43)" onmousedown="handlePan(1,0)">
                  <use xlink:href="#rim" fill="#404040">
                        <set attributeName="fill" to="#808080" begin="arrowRight.mouseover" end="arrowRight.mouseout"/>
                  </use>
                  <path fill="none" stroke="white" stroke-width="1.5" d="M0,-3.0v7 M-2.5,-0.5L0,-3.0L2.5,-0.5"/>
                </g>
                <g id="arrowDown" xlink:href="#dirArrow" transform="rotate(180) translate(-30 -48)" onmousedown="handlePan(0,1)">
                  <use xlink:href="#rim" fill="#404040">
                        <set attributeName="fill" to="#808080" begin="arrowDown.mouseover" end="arrowDown.mouseout"/>
                  </use>
                  <path fill="none" stroke="white" stroke-width="1.5" d="M0,-3.0v7 M-2.5,-0.5L0,-3.0L2.5,-0.5"/>
                </g>
                <g id="arrowLeft" xlink:href="#dirArrow" transform="rotate(270) translate(-36 17)" onmousedown="handlePan(-1,0)">
                  <use xlink:href="#rim" fill="#404040">
                        <set attributeName="fill" to="#808080" begin="arrowLeft.mouseover" end="arrowLeft.mouseout"/>
                  </use>
                  <path fill="none" stroke="white" stroke-width="1.5" d="M0,-3.0v7 M-2.5,-0.5L0,-3.0L2.5,-0.5"/>
                </g>
        </g>
        <svg viewBox="0 0 15 15" width="100%" height="30px" preserveAspectRatio="xMaxYMin meet">
         <g id="arrow_out" transform="scale(0.3 0.3)">
          <a xlink:href="FMTOutputParser_8h__incl_org.svg" target="_base">
           <rect id="button" ry="5" rx="5" y="6" x="6" height="38" width="38"
                fill="#f2f5e9" fill-opacity="0.5" stroke="#606060" stroke-width="1.0"/>
           <path id="arrow"
             d="M 11.500037,31.436501 C 11.940474,20.09759 22.043105,11.32322 32.158766,21.979434 L 37.068811,17.246167 C 37.068811,17.246167 37.088388,32 37.088388,32 L 22.160133,31.978069 C 22.160133,31.978069 26.997745,27.140456 26.997745,27.140456 C 18.528582,18.264221 13.291696,25.230495 11.500037,31.436501 z"
             style="fill:#404040;"/>
          </a>
         </g>
        </svg>
</svg>
