<?xml version="1.0" encoding="UTF-8" standalone="no"?>
<!DOCTYPE svg PUBLIC "-//W3C//DTD SVG 1.1//EN"
 "http://www.w3.org/Graphics/SVG/1.1/DTD/svg11.dtd">
<!-- Generated by graphviz version 8.1.0 (20230707.0739)
 -->
<!-- Title: C:/Users/CYRGU3/OneDrive &#45; BuroVirtuel/Bureau/FMT/FMT/Include/FMToperatingareascheme.hpp Pages: 1 -->
<svg width="598pt" height="292pt"
 viewBox="0.00 0.00 597.90 292.00" xmlns="http://www.w3.org/2000/svg" xmlns:xlink="http://www.w3.org/1999/xlink">
<g id="graph0" class="graph" transform="scale(1 1) rotate(0) translate(4 288)">
<title>C:/Users/CYRGU3/OneDrive &#45; BuroVirtuel/Bureau/FMT/FMT/Include/FMToperatingareascheme.hpp</title>
<!-- Node1 -->
<g id="Node000001" class="node">
<title>Node1</title>
<g id="a_Node000001"><a xlink:title=" ">
<polygon fill="#999999" stroke="#666666" points="584.38,-284 377.88,-284 377.88,-240 584.38,-240 584.38,-284"/>
<text text-anchor="start" x="385.88" y="-270.5" font-family="Helvetica,sans-Serif" font-size="10.00">C:/Users/CYRGU3/OneDrive</text>
<text text-anchor="start" x="385.88" y="-258.5" font-family="Helvetica,sans-Serif" font-size="10.00"> &#45; BuroVirtuel/Bureau/FMT</text>
<text text-anchor="middle" x="481.12" y="-246.5" font-family="Helvetica,sans-Serif" font-size="10.00">/FMT/Include/FMToperatingareascheme.hpp</text>
</a>
</g>
</g>
<!-- Node2 -->
<g id="Node000002" class="node">
<title>Node2</title>
<g id="a_Node000002"><a xlink:href="FMToperatingareascheduler_8hpp.html" target="_top" xlink:title=" ">
<polygon fill="white" stroke="#666666" points="408.12,-204 194.12,-204 194.12,-160 408.12,-160 408.12,-204"/>
<text text-anchor="start" x="202.12" y="-190.5" font-family="Helvetica,sans-Serif" font-size="10.00">C:/Users/CYRGU3/OneDrive</text>
<text text-anchor="start" x="202.12" y="-178.5" font-family="Helvetica,sans-Serif" font-size="10.00"> &#45; BuroVirtuel/Bureau/FMT</text>
<text text-anchor="middle" x="301.12" y="-166.5" font-family="Helvetica,sans-Serif" font-size="10.00">/FMT/Include/FMToperatingareascheduler.hpp</text>
</a>
</g>
</g>
<!-- Node1&#45;&gt;Node2 -->
<g id="edge1_Node000001_Node000002" class="edge">
<title>Node1&#45;&gt;Node2</title>
<g id="a_edge1_Node000001_Node000002"><a xlink:title=" ">
<path fill="none" stroke="#63b8ff" d="M421.91,-235.34C398.81,-225.33 372.63,-213.99 350.56,-204.42"/>
<polygon fill="#63b8ff" stroke="#63b8ff" points="420.37,-238.92 430.94,-239.69 423.16,-232.5 420.37,-238.92"/>
</a>
</g>
</g>
<!-- Node4 -->
<g id="Node000004" class="node">
<title>Node4</title>
<g id="a_Node000004"><a xlink:href="PYexportHeuristics_8hpp.html" target="_top" xlink:title=" ">
<polygon fill="white" stroke="#666666" points="285.12,-44 107.12,-44 107.12,0 285.12,0 285.12,-44"/>
<text text-anchor="start" x="115.12" y="-30.5" font-family="Helvetica,sans-Serif" font-size="10.00">C:/Users/CYRGU3/OneDrive</text>
<text text-anchor="start" x="115.12" y="-18.5" font-family="Helvetica,sans-Serif" font-size="10.00"> &#45; BuroVirtuel/Bureau/FMT</text>
<text text-anchor="middle" x="196.12" y="-6.5" font-family="Helvetica,sans-Serif" font-size="10.00">/FMT/Include/PYexportHeuristics.hpp</text>
</a>
</g>
</g>
<!-- Node1&#45;&gt;Node4 -->
<g id="edge7_Node000001_Node000004" class="edge">
<title>Node1&#45;&gt;Node4</title>
<g id="a_edge7_Node000001_Node000004"><a xlink:title=" ">
<path fill="none" stroke="#63b8ff" d="M515.59,-232.44C557.17,-194.6 616.72,-127.14 576.12,-80 539.34,-37.29 385.52,-26.13 285.21,-23.48"/>
<polygon fill="#63b8ff" stroke="#63b8ff" points="513.69,-229.34 508.55,-238.6 518.34,-234.57 513.69,-229.34"/>
</a>
</g>
</g>
<!-- Node6 -->
<g id="Node000006" class="node">
<title>Node6</title>
<g id="a_Node000006"><a xlink:href="RexportHeuristics_8hpp.html" target="_top" xlink:title=" ">
<polygon fill="white" stroke="#666666" points="566.75,-124 395.5,-124 395.5,-80 566.75,-80 566.75,-124"/>
<text text-anchor="start" x="403.5" y="-110.5" font-family="Helvetica,sans-Serif" font-size="10.00">C:/Users/CYRGU3/OneDrive</text>
<text text-anchor="start" x="403.5" y="-98.5" font-family="Helvetica,sans-Serif" font-size="10.00"> &#45; BuroVirtuel/Bureau/FMT</text>
<text text-anchor="middle" x="481.12" y="-86.5" font-family="Helvetica,sans-Serif" font-size="10.00">/FMT/Include/RexportHeuristics.hpp</text>
</a>
</g>
</g>
<!-- Node1&#45;&gt;Node6 -->
<g id="edge8_Node000001_Node000006" class="edge">
<title>Node1&#45;&gt;Node6</title>
<g id="a_edge8_Node000001_Node000006"><a xlink:title=" ">
<path fill="none" stroke="#63b8ff" d="M481.12,-228.98C481.12,-197.84 481.12,-151.41 481.12,-124.48"/>
<polygon fill="#63b8ff" stroke="#63b8ff" points="477.63,-228.69 481.12,-238.69 484.63,-228.69 477.63,-228.69"/>
</a>
</g>
</g>
<!-- Node3 -->
<g id="Node000003" class="node">
<title>Node3</title>
<g id="a_Node000003"><a xlink:href="FMTpythonpickle_8hpp.html" target="_top" xlink:title=" ">
<polygon fill="white" stroke="#666666" points="168.25,-124 0,-124 0,-80 168.25,-80 168.25,-124"/>
<text text-anchor="start" x="8" y="-110.5" font-family="Helvetica,sans-Serif" font-size="10.00">C:/Users/CYRGU3/OneDrive</text>
<text text-anchor="start" x="8" y="-98.5" font-family="Helvetica,sans-Serif" font-size="10.00"> &#45; BuroVirtuel/Bureau/FMT</text>
<text text-anchor="middle" x="84.12" y="-86.5" font-family="Helvetica,sans-Serif" font-size="10.00">/FMT/Include/FMTpythonpickle.hpp</text>
</a>
</g>
</g>
<!-- Node2&#45;&gt;Node3 -->
<g id="edge2_Node000002_Node000003" class="edge">
<title>Node2&#45;&gt;Node3</title>
<g id="a_edge2_Node000002_Node000003"><a xlink:title=" ">
<path fill="none" stroke="#63b8ff" d="M231.32,-155.91C203.04,-145.74 170.71,-134.12 143.58,-124.37"/>
<polygon fill="#63b8ff" stroke="#63b8ff" points="229.95,-159.49 240.54,-159.58 232.32,-152.91 229.95,-159.49"/>
</a>
</g>
</g>
<!-- Node2&#45;&gt;Node4 -->
<g id="edge4_Node000002_Node000004" class="edge">
<title>Node2&#45;&gt;Node4</title>
<g id="a_edge4_Node000002_Node000004"><a xlink:title=" ">
<path fill="none" stroke="#63b8ff" d="M245.81,-153.81C234.1,-145.71 222.94,-135.78 215.12,-124 199.15,-99.91 195.78,-65.87 195.47,-44.11"/>
<polygon fill="#63b8ff" stroke="#63b8ff" points="243.53,-157.15 253.82,-159.65 247.33,-151.28 243.53,-157.15"/>
</a>
</g>
</g>
<!-- Node5 -->
<g id="Node000005" class="node">
<title>Node5</title>
<g id="a_Node000005"><a xlink:href="Rdeclarations_8hpp.html" target="_top" xlink:title=" ">
<polygon fill="white" stroke="#666666" points="377.75,-124 224.5,-124 224.5,-80 377.75,-80 377.75,-124"/>
<text text-anchor="start" x="232.5" y="-110.5" font-family="Helvetica,sans-Serif" font-size="10.00">C:/Users/CYRGU3/OneDrive</text>
<text text-anchor="start" x="232.5" y="-98.5" font-family="Helvetica,sans-Serif" font-size="10.00"> &#45; BuroVirtuel/Bureau/FMT</text>
<text text-anchor="middle" x="301.12" y="-86.5" font-family="Helvetica,sans-Serif" font-size="10.00">/FMT/Include/Rdeclarations.hpp</text>
</a>
</g>
</g>
<!-- Node2&#45;&gt;Node5 -->
<g id="edge5_Node000002_Node000005" class="edge">
<title>Node2&#45;&gt;Node5</title>
<g id="a_edge5_Node000002_Node000005"><a xlink:title=" ">
<path fill="none" stroke="#63b8ff" d="M301.12,-148.82C301.12,-140.54 301.12,-131.85 301.12,-124.29"/>
<polygon fill="#63b8ff" stroke="#63b8ff" points="297.63,-148.69 301.12,-158.69 304.63,-148.69 297.63,-148.69"/>
</a>
</g>
</g>
<!-- Node2&#45;&gt;Node6 -->
<g id="edge6_Node000002_Node000006" class="edge">
<title>Node2&#45;&gt;Node6</title>
<g id="a_edge6_Node000002_Node000006"><a xlink:title=" ">
<path fill="none" stroke="#63b8ff" d="M360.34,-155.34C383.44,-145.33 409.62,-133.99 431.69,-124.42"/>
<polygon fill="#63b8ff" stroke="#63b8ff" points="359.09,-152.5 351.31,-159.69 361.88,-158.92 359.09,-152.5"/>
</a>
</g>
</g>
<!-- Node3&#45;&gt;Node4 -->
<g id="edge3_Node000003_Node000004" class="edge">
<title>Node3&#45;&gt;Node4</title>
<g id="a_edge3_Node000003_Node000004"><a xlink:title=" ">
<path fill="none" stroke="#63b8ff" d="M123.54,-73.55C137.33,-63.95 152.6,-53.31 165.56,-44.29"/>
<polygon fill="#63b8ff" stroke="#63b8ff" points="121.94,-71.1 115.73,-79.69 125.94,-76.84 121.94,-71.1"/>
</a>
</g>
</g>
</g>
</svg>
