<?xml version="1.0" encoding="UTF-8" standalone="no"?>
<!DOCTYPE svg PUBLIC "-//W3C//DTD SVG 1.1//EN"
 "http://www.w3.org/Graphics/SVG/1.1/DTD/svg11.dtd">
<!-- Generated by graphviz version 8.1.0 (20230707.0739)
 -->
<!-- Title: C:/Temp/out/FMT/Include/FMTpredictor.hpp Pages: 1 -->
<svg width="256pt" height="96pt"
 viewBox="0.00 0.00 255.50 96.00" xmlns="http://www.w3.org/2000/svg" xmlns:xlink="http://www.w3.org/1999/xlink">
<g id="graph0" class="graph" transform="scale(1 1) rotate(0) translate(4 92)">
<title>C:/Temp/out/FMT/Include/FMTpredictor.hpp</title>
<!-- Node1 -->
<g id="Node000001" class="node">
<title>Node1</title>
<g id="a_Node000001"><a xlink:title=" ">
<polygon fill="#999999" stroke="#666666" points="169.5,-88 44,-88 44,-56 169.5,-56 169.5,-88"/>
<text text-anchor="start" x="52" y="-74.5" font-family="Helvetica,sans-Serif" font-size="10.00">C:/Temp/out/FMT/Include</text>
<text text-anchor="middle" x="106.75" y="-62.5" font-family="Helvetica,sans-Serif" font-size="10.00">/FMTpredictor.hpp</text>
</a>
</g>
</g>
<!-- Node2 -->
<g id="Node000002" class="node">
<title>Node2</title>
<g id="a_Node000002"><a xlink:title=" ">
<polygon fill="#e0e0e0" stroke="#999999" points="41.5,-20 0,-20 0,0 41.5,0 41.5,-20"/>
<text text-anchor="middle" x="20.75" y="-6.5" font-family="Helvetica,sans-Serif" font-size="10.00">vector</text>
</a>
</g>
</g>
<!-- Node1&#45;&gt;Node2 -->
<g id="edge1_Node000001_Node000002" class="edge">
<title>Node1&#45;&gt;Node2</title>
<g id="a_edge1_Node000001_Node000002"><a xlink:title=" ">
<path fill="none" stroke="#63b8ff" d="M84.6,-55.55C71.79,-46.61 55.71,-35.39 42.9,-26.45"/>
<polygon fill="#63b8ff" stroke="#63b8ff" points="45.44,-23.26 35.23,-20.41 41.43,-29 45.44,-23.26"/>
</a>
</g>
</g>
<!-- Node3 -->
<g id="Node000003" class="node">
<title>Node3</title>
<g id="a_Node000003"><a xlink:title=" ">
<polygon fill="#e0e0e0" stroke="#999999" points="99.75,-20 59.75,-20 59.75,0 99.75,0 99.75,-20"/>
<text text-anchor="middle" x="79.75" y="-6.5" font-family="Helvetica,sans-Serif" font-size="10.00">string</text>
</a>
</g>
</g>
<!-- Node1&#45;&gt;Node3 -->
<g id="edge2_Node000001_Node000003" class="edge">
<title>Node1&#45;&gt;Node3</title>
<g id="a_edge2_Node000001_Node000003"><a xlink:title=" ">
<path fill="none" stroke="#63b8ff" d="M99.8,-55.55C96.32,-47.82 92.08,-38.4 88.4,-30.21"/>
<polygon fill="#63b8ff" stroke="#63b8ff" points="91.28,-29.09 83.98,-21.41 84.9,-31.96 91.28,-29.09"/>
</a>
</g>
</g>
<!-- Node4 -->
<g id="Node000004" class="node">
<title>Node4</title>
<g id="a_Node000004"><a xlink:title=" ">
<polygon fill="#e0e0e0" stroke="#999999" points="152.12,-20 117.38,-20 117.38,0 152.12,0 152.12,-20"/>
<text text-anchor="middle" x="134.75" y="-6.5" font-family="Helvetica,sans-Serif" font-size="10.00">map</text>
</a>
</g>
</g>
<!-- Node1&#45;&gt;Node4 -->
<g id="edge3_Node000001_Node000004" class="edge">
<title>Node1&#45;&gt;Node4</title>
<g id="a_edge3_Node000001_Node000004"><a xlink:title=" ">
<path fill="none" stroke="#63b8ff" d="M113.96,-55.55C117.57,-47.82 121.96,-38.4 125.78,-30.21"/>
<polygon fill="#63b8ff" stroke="#63b8ff" points="129.3,-31.95 130.36,-21.41 122.96,-28.99 129.3,-31.95"/>
</a>
</g>
</g>
<!-- Node5 -->
<g id="Node000005" class="node">
<title>Node5</title>
<g id="a_Node000005"><a xlink:href="FMTutility_8hpp.html" target="_top" xlink:title=" ">
<polygon fill="white" stroke="#666666" points="247.5,-20 170,-20 170,0 247.5,0 247.5,-20"/>
<text text-anchor="middle" x="208.75" y="-6.5" font-family="Helvetica,sans-Serif" font-size="10.00">FMTutility.hpp</text>
</a>
</g>
</g>
<!-- Node1&#45;&gt;Node5 -->
<g id="edge4_Node000001_Node000005" class="edge">
<title>Node1&#45;&gt;Node5</title>
<g id="a_edge4_Node000001_Node000005"><a xlink:title=" ">
<path fill="none" stroke="#63b8ff" d="M133.02,-55.55C148.51,-46.43 168.03,-34.96 183.36,-25.93"/>
<polygon fill="#63b8ff" stroke="#63b8ff" points="184.91,-28.5 191.76,-20.41 181.36,-22.46 184.91,-28.5"/>
</a>
</g>
</g>
</g>
</svg>
