<?xml version="1.0" encoding="UTF-8" standalone="no"?>
<!DOCTYPE svg PUBLIC "-//W3C//DTD SVG 1.1//EN"
 "http://www.w3.org/Graphics/SVG/1.1/DTD/svg11.dtd">
<!-- Generated by graphviz version 8.1.0 (20230707.0739)
 -->
<!-- Title: C:/Users/CYRGU3/OneDrive &#45; BuroVirtuel/Bureau/FMT/FMT/Include/FMTparser.hpp Pages: 1 -->
<svg width="2118pt" height="212pt"
 viewBox="0.00 0.00 2117.81 212.00" xmlns="http://www.w3.org/2000/svg" xmlns:xlink="http://www.w3.org/1999/xlink">
<g id="graph0" class="graph" transform="scale(1 1) rotate(0) translate(4 208)">
<title>C:/Users/CYRGU3/OneDrive &#45; BuroVirtuel/Bureau/FMT/FMT/Include/FMTparser.hpp</title>
<!-- Node1 -->
<g id="Node000001" class="node">
<title>Node1</title>
<g id="a_Node000001"><a xlink:title=" ">
<polygon fill="#999999" stroke="#666666" points="1069.31,-204 928.81,-204 928.81,-160 1069.31,-160 1069.31,-204"/>
<text text-anchor="start" x="936.81" y="-190.5" font-family="Helvetica,sans-Serif" font-size="10.00">C:/Users/CYRGU3/OneDrive</text>
<text text-anchor="start" x="936.81" y="-178.5" font-family="Helvetica,sans-Serif" font-size="10.00"> &#45; BuroVirtuel/Bureau/FMT</text>
<text text-anchor="middle" x="999.06" y="-166.5" font-family="Helvetica,sans-Serif" font-size="10.00">/FMT/Include/FMTparser.hpp</text>
</a>
</g>
</g>
<!-- Node2 -->
<g id="Node000002" class="node">
<title>Node2</title>
<g id="a_Node000002"><a xlink:href="FMTactionparser_8hpp.html" target="_top" xlink:title=" ">
<polygon fill="white" stroke="#666666" points="1747.43,-124 1580.68,-124 1580.68,-80 1747.43,-80 1747.43,-124"/>
<text text-anchor="start" x="1588.68" y="-110.5" font-family="Helvetica,sans-Serif" font-size="10.00">C:/Users/CYRGU3/OneDrive</text>
<text text-anchor="start" x="1588.68" y="-98.5" font-family="Helvetica,sans-Serif" font-size="10.00"> &#45; BuroVirtuel/Bureau/FMT</text>
<text text-anchor="middle" x="1664.06" y="-86.5" font-family="Helvetica,sans-Serif" font-size="10.00">/FMT/Include/FMTactionparser.hpp</text>
</a>
</g>
</g>
<!-- Node1&#45;&gt;Node2 -->
<g id="edge1_Node000001_Node000002" class="edge">
<title>Node1&#45;&gt;Node2</title>
<g id="a_edge1_Node000001_Node000002"><a xlink:title=" ">
<path fill="none" stroke="#63b8ff" d="M1080.21,-176.06C1191.45,-168.58 1397.3,-152.17 1571.06,-124 1574.08,-123.51 1577.15,-122.98 1580.25,-122.42"/>
<polygon fill="#63b8ff" stroke="#63b8ff" points="1080.16,-172.62 1070.42,-176.78 1080.63,-179.61 1080.16,-172.62"/>
</a>
</g>
</g>
<!-- Node4 -->
<g id="Node000004" class="node">
<title>Node4</title>
<g id="a_Node000004"><a xlink:href="RexportParser_8hpp.html" target="_top" xlink:title=" ">
<polygon fill="white" stroke="#666666" points="988.18,-44 831.93,-44 831.93,0 988.18,0 988.18,-44"/>
<text text-anchor="start" x="839.93" y="-30.5" font-family="Helvetica,sans-Serif" font-size="10.00">C:/Users/CYRGU3/OneDrive</text>
<text text-anchor="start" x="839.93" y="-18.5" font-family="Helvetica,sans-Serif" font-size="10.00"> &#45; BuroVirtuel/Bureau/FMT</text>
<text text-anchor="middle" x="910.06" y="-6.5" font-family="Helvetica,sans-Serif" font-size="10.00">/FMT/Include/RexportParser.hpp</text>
</a>
</g>
</g>
<!-- Node1&#45;&gt;Node4 -->
<g id="edge35_Node000001_Node000004" class="edge">
<title>Node1&#45;&gt;Node4</title>
<g id="a_edge35_Node000001_Node000004"><a xlink:title=" ">
<path fill="none" stroke="#63b8ff" d="M917.87,-179.32C686.96,-174.16 41.05,-156.84 10.06,-124 -3.37,-109.78 -3.33,-94.26 10.06,-80 37.98,-50.25 617.42,-31.15 831.48,-25.09"/>
<polygon fill="#63b8ff" stroke="#63b8ff" points="917.47,-182.84 927.55,-179.56 917.63,-175.84 917.47,-182.84"/>
</a>
</g>
</g>
<!-- Node5 -->
<g id="Node000005" class="node">
<title>Node5</title>
<g id="a_Node000005"><a xlink:href="FMTareaparser_8hpp.html" target="_top" xlink:title=" ">
<polygon fill="white" stroke="#666666" points="1924.68,-124 1765.43,-124 1765.43,-80 1924.68,-80 1924.68,-124"/>
<text text-anchor="start" x="1773.43" y="-110.5" font-family="Helvetica,sans-Serif" font-size="10.00">C:/Users/CYRGU3/OneDrive</text>
<text text-anchor="start" x="1773.43" y="-98.5" font-family="Helvetica,sans-Serif" font-size="10.00"> &#45; BuroVirtuel/Bureau/FMT</text>
<text text-anchor="middle" x="1845.06" y="-86.5" font-family="Helvetica,sans-Serif" font-size="10.00">/FMT/Include/FMTareaparser.hpp</text>
</a>
</g>
</g>
<!-- Node1&#45;&gt;Node5 -->
<g id="edge4_Node000001_Node000005" class="edge">
<title>Node1&#45;&gt;Node5</title>
<g id="a_edge4_Node000001_Node000005"><a xlink:title=" ">
<path fill="none" stroke="#63b8ff" d="M1080.63,-179.04C1219.89,-174.76 1512.1,-161.73 1756.06,-124 1759.04,-123.54 1762.07,-123.03 1765.12,-122.48"/>
<polygon fill="#63b8ff" stroke="#63b8ff" points="1080.55,-175.57 1070.66,-179.37 1080.76,-182.57 1080.55,-175.57"/>
</a>
</g>
</g>
<!-- Node6 -->
<g id="Node000006" class="node">
<title>Node6</title>
<g id="a_Node000006"><a xlink:href="FMTconstantparser_8hpp.html" target="_top" xlink:title=" ">
<polygon fill="white" stroke="#666666" points="197.06,-124 19.06,-124 19.06,-80 197.06,-80 197.06,-124"/>
<text text-anchor="start" x="27.06" y="-110.5" font-family="Helvetica,sans-Serif" font-size="10.00">C:/Users/CYRGU3/OneDrive</text>
<text text-anchor="start" x="27.06" y="-98.5" font-family="Helvetica,sans-Serif" font-size="10.00"> &#45; BuroVirtuel/Bureau/FMT</text>
<text text-anchor="middle" x="108.06" y="-86.5" font-family="Helvetica,sans-Serif" font-size="10.00">/FMT/Include/FMTconstantparser.hpp</text>
</a>
</g>
</g>
<!-- Node1&#45;&gt;Node6 -->
<g id="edge7_Node000001_Node000006" class="edge">
<title>Node1&#45;&gt;Node6</title>
<g id="a_edge7_Node000001_Node000006"><a xlink:title=" ">
<path fill="none" stroke="#63b8ff" d="M917.5,-178.88C773.32,-174.31 464.26,-160.76 206.06,-124 203.21,-123.6 200.33,-123.16 197.42,-122.69"/>
<polygon fill="#63b8ff" stroke="#63b8ff" points="917.32,-182.41 927.43,-179.22 917.54,-175.41 917.32,-182.41"/>
</a>
</g>
</g>
<!-- Node7 -->
<g id="Node000007" class="node">
<title>Node7</title>
<g id="a_Node000007"><a xlink:href="FMTlandscapeparser_8hpp.html" target="_top" xlink:title=" ">
<polygon fill="white" stroke="#666666" points="399.43,-124 214.68,-124 214.68,-80 399.43,-80 399.43,-124"/>
<text text-anchor="start" x="222.68" y="-110.5" font-family="Helvetica,sans-Serif" font-size="10.00">C:/Users/CYRGU3/OneDrive</text>
<text text-anchor="start" x="222.68" y="-98.5" font-family="Helvetica,sans-Serif" font-size="10.00"> &#45; BuroVirtuel/Bureau/FMT</text>
<text text-anchor="middle" x="307.06" y="-86.5" font-family="Helvetica,sans-Serif" font-size="10.00">/FMT/Include/FMTlandscapeparser.hpp</text>
</a>
</g>
</g>
<!-- Node1&#45;&gt;Node7 -->
<g id="edge10_Node000001_Node000007" class="edge">
<title>Node1&#45;&gt;Node7</title>
<g id="a_edge10_Node000001_Node000007"><a xlink:title=" ">
<path fill="none" stroke="#63b8ff" d="M917.96,-175.98C803.76,-168.29 589.22,-151.49 408.06,-124 405.31,-123.58 402.53,-123.14 399.72,-122.68"/>
<polygon fill="#63b8ff" stroke="#63b8ff" points="917.49,-179.53 927.7,-176.7 917.95,-172.54 917.49,-179.53"/>
</a>
</g>
</g>
<!-- Node8 -->
<g id="Node000008" class="node">
<title>Node8</title>
<g id="a_Node000008"><a xlink:href="FMTlifespanparser_8hpp.html" target="_top" xlink:title=" ">
<polygon fill="white" stroke="#666666" points="590.81,-124 417.31,-124 417.31,-80 590.81,-80 590.81,-124"/>
<text text-anchor="start" x="425.31" y="-110.5" font-family="Helvetica,sans-Serif" font-size="10.00">C:/Users/CYRGU3/OneDrive</text>
<text text-anchor="start" x="425.31" y="-98.5" font-family="Helvetica,sans-Serif" font-size="10.00"> &#45; BuroVirtuel/Bureau/FMT</text>
<text text-anchor="middle" x="504.06" y="-86.5" font-family="Helvetica,sans-Serif" font-size="10.00">/FMT/Include/FMTlifespanparser.hpp</text>
</a>
</g>
</g>
<!-- Node1&#45;&gt;Node8 -->
<g id="edge13_Node000001_Node000008" class="edge">
<title>Node1&#45;&gt;Node8</title>
<g id="a_edge13_Node000001_Node000008"><a xlink:title=" ">
<path fill="none" stroke="#63b8ff" d="M917.72,-171.25C836.69,-161.11 708.87,-143.93 599.06,-124 596.48,-123.53 593.87,-123.04 591.23,-122.54"/>
<polygon fill="#63b8ff" stroke="#63b8ff" points="916.99,-174.81 927.34,-172.57 917.85,-167.86 916.99,-174.81"/>
</a>
</g>
</g>
<!-- Node9 -->
<g id="Node000009" class="node">
<title>Node9</title>
<g id="a_Node000009"><a xlink:href="FMTmodelparser_8hpp.html" target="_top" xlink:title=" ">
<polygon fill="white" stroke="#666666" points="2109.43,-124 1942.68,-124 1942.68,-80 2109.43,-80 2109.43,-124"/>
<text text-anchor="start" x="1950.68" y="-110.5" font-family="Helvetica,sans-Serif" font-size="10.00">C:/Users/CYRGU3/OneDrive</text>
<text text-anchor="start" x="1950.68" y="-98.5" font-family="Helvetica,sans-Serif" font-size="10.00"> &#45; BuroVirtuel/Bureau/FMT</text>
<text text-anchor="middle" x="2026.06" y="-86.5" font-family="Helvetica,sans-Serif" font-size="10.00">/FMT/Include/FMTmodelparser.hpp</text>
</a>
</g>
</g>
<!-- Node1&#45;&gt;Node9 -->
<g id="edge16_Node000001_Node000009" class="edge">
<title>Node1&#45;&gt;Node9</title>
<g id="a_edge16_Node000001_Node000009"><a xlink:title=" ">
<path fill="none" stroke="#63b8ff" d="M1080.42,-180.5C1243.31,-178.52 1620.71,-169 1934.06,-124 1936.81,-123.6 1939.61,-123.17 1942.43,-122.7"/>
<polygon fill="#63b8ff" stroke="#63b8ff" points="1080.49,-177.01 1070.54,-180.63 1080.57,-184.01 1080.49,-177.01"/>
</a>
</g>
</g>
<!-- Node11 -->
<g id="Node000011" class="node">
<title>Node11</title>
<g id="a_Node000011"><a xlink:href="FMToptimizationparser_8hpp.html" target="_top" xlink:title=" ">
<polygon fill="white" stroke="#666666" points="801.56,-124 608.56,-124 608.56,-80 801.56,-80 801.56,-124"/>
<text text-anchor="start" x="616.56" y="-110.5" font-family="Helvetica,sans-Serif" font-size="10.00">C:/Users/CYRGU3/OneDrive</text>
<text text-anchor="start" x="616.56" y="-98.5" font-family="Helvetica,sans-Serif" font-size="10.00"> &#45; BuroVirtuel/Bureau/FMT</text>
<text text-anchor="middle" x="705.06" y="-86.5" font-family="Helvetica,sans-Serif" font-size="10.00">/FMT/Include/FMToptimizationparser.hpp</text>
</a>
</g>
</g>
<!-- Node1&#45;&gt;Node11 -->
<g id="edge20_Node000001_Node000011" class="edge">
<title>Node1&#45;&gt;Node11</title>
<g id="a_edge20_Node000001_Node000011"><a xlink:title=" ">
<path fill="none" stroke="#63b8ff" d="M918.11,-159.52C877,-148.62 827.2,-135.41 786.08,-124.5"/>
<polygon fill="#63b8ff" stroke="#63b8ff" points="917.07,-163.14 927.64,-162.32 918.87,-156.37 917.07,-163.14"/>
</a>
</g>
</g>
<!-- Node12 -->
<g id="Node000012" class="node">
<title>Node12</title>
<g id="a_Node000012"><a xlink:href="FMToutputparser_8hpp.html" target="_top" xlink:title=" ">
<polygon fill="white" stroke="#666666" points="986.81,-124 819.31,-124 819.31,-80 986.81,-80 986.81,-124"/>
<text text-anchor="start" x="827.31" y="-110.5" font-family="Helvetica,sans-Serif" font-size="10.00">C:/Users/CYRGU3/OneDrive</text>
<text text-anchor="start" x="827.31" y="-98.5" font-family="Helvetica,sans-Serif" font-size="10.00"> &#45; BuroVirtuel/Bureau/FMT</text>
<text text-anchor="middle" x="903.06" y="-86.5" font-family="Helvetica,sans-Serif" font-size="10.00">/FMT/Include/FMToutputparser.hpp</text>
</a>
</g>
</g>
<!-- Node1&#45;&gt;Node12 -->
<g id="edge23_Node000001_Node000012" class="edge">
<title>Node1&#45;&gt;Node12</title>
<g id="a_edge23_Node000001_Node000012"><a xlink:title=" ">
<path fill="none" stroke="#63b8ff" d="M964.59,-153C952.95,-143.54 940.15,-133.14 929.26,-124.29"/>
<polygon fill="#63b8ff" stroke="#63b8ff" points="961.85,-156.1 971.82,-159.69 966.27,-150.66 961.85,-156.1"/>
</a>
</g>
</g>
<!-- Node13 -->
<g id="Node000013" class="node">
<title>Node13</title>
<g id="a_Node000013"><a xlink:href="FMTscheduleparser_8hpp.html" target="_top" xlink:title=" ">
<polygon fill="white" stroke="#666666" points="1184.81,-124 1005.31,-124 1005.31,-80 1184.81,-80 1184.81,-124"/>
<text text-anchor="start" x="1013.31" y="-110.5" font-family="Helvetica,sans-Serif" font-size="10.00">C:/Users/CYRGU3/OneDrive</text>
<text text-anchor="start" x="1013.31" y="-98.5" font-family="Helvetica,sans-Serif" font-size="10.00"> &#45; BuroVirtuel/Bureau/FMT</text>
<text text-anchor="middle" x="1095.06" y="-86.5" font-family="Helvetica,sans-Serif" font-size="10.00">/FMT/Include/FMTscheduleparser.hpp</text>
</a>
</g>
</g>
<!-- Node1&#45;&gt;Node13 -->
<g id="edge26_Node000001_Node000013" class="edge">
<title>Node1&#45;&gt;Node13</title>
<g id="a_edge26_Node000001_Node000013"><a xlink:title=" ">
<path fill="none" stroke="#63b8ff" d="M1033.52,-153C1045.16,-143.54 1057.96,-133.14 1068.85,-124.29"/>
<polygon fill="#63b8ff" stroke="#63b8ff" points="1031.84,-150.66 1026.29,-159.69 1036.26,-156.1 1031.84,-150.66"/>
</a>
</g>
</g>
<!-- Node14 -->
<g id="Node000014" class="node">
<title>Node14</title>
<g id="a_Node000014"><a xlink:href="FMTtransitionparser_8hpp.html" target="_top" xlink:title=" ">
<polygon fill="white" stroke="#666666" points="1383.18,-124 1202.93,-124 1202.93,-80 1383.18,-80 1383.18,-124"/>
<text text-anchor="start" x="1210.93" y="-110.5" font-family="Helvetica,sans-Serif" font-size="10.00">C:/Users/CYRGU3/OneDrive</text>
<text text-anchor="start" x="1210.93" y="-98.5" font-family="Helvetica,sans-Serif" font-size="10.00"> &#45; BuroVirtuel/Bureau/FMT</text>
<text text-anchor="middle" x="1293.06" y="-86.5" font-family="Helvetica,sans-Serif" font-size="10.00">/FMT/Include/FMTtransitionparser.hpp</text>
</a>
</g>
</g>
<!-- Node1&#45;&gt;Node14 -->
<g id="edge29_Node000001_Node000014" class="edge">
<title>Node1&#45;&gt;Node14</title>
<g id="a_edge29_Node000001_Node000014"><a xlink:title=" ">
<path fill="none" stroke="#63b8ff" d="M1080,-159.52C1121.11,-148.62 1170.91,-135.41 1212.03,-124.5"/>
<polygon fill="#63b8ff" stroke="#63b8ff" points="1079.24,-156.37 1070.48,-162.32 1081.04,-163.14 1079.24,-156.37"/>
</a>
</g>
</g>
<!-- Node15 -->
<g id="Node000015" class="node">
<title>Node15</title>
<g id="a_Node000015"><a xlink:href="FMTyieldparser_8hpp.html" target="_top" xlink:title=" ">
<polygon fill="white" stroke="#666666" points="1562.43,-124 1401.68,-124 1401.68,-80 1562.43,-80 1562.43,-124"/>
<text text-anchor="start" x="1409.68" y="-110.5" font-family="Helvetica,sans-Serif" font-size="10.00">C:/Users/CYRGU3/OneDrive</text>
<text text-anchor="start" x="1409.68" y="-98.5" font-family="Helvetica,sans-Serif" font-size="10.00"> &#45; BuroVirtuel/Bureau/FMT</text>
<text text-anchor="middle" x="1482.06" y="-86.5" font-family="Helvetica,sans-Serif" font-size="10.00">/FMT/Include/FMTyieldparser.hpp</text>
</a>
</g>
</g>
<!-- Node1&#45;&gt;Node15 -->
<g id="edge32_Node000001_Node000015" class="edge">
<title>Node1&#45;&gt;Node15</title>
<g id="a_edge32_Node000001_Node000015"><a xlink:title=" ">
<path fill="none" stroke="#63b8ff" d="M1080.09,-171.3C1159.79,-161.27 1284.75,-144.26 1392.06,-124 1395.21,-123.4 1398.42,-122.77 1401.66,-122.12"/>
<polygon fill="#63b8ff" stroke="#63b8ff" points="1080.13,-167.89 1070.64,-172.6 1080.99,-174.84 1080.13,-167.89"/>
</a>
</g>
</g>
<!-- Node3 -->
<g id="Node000003" class="node">
<title>Node3</title>
<g id="a_Node000003"><a xlink:href="PYexportParser_8hpp.html" target="_top" xlink:title=" ">
<polygon fill="white" stroke="#666666" points="1176.56,-44 1013.56,-44 1013.56,0 1176.56,0 1176.56,-44"/>
<text text-anchor="start" x="1021.56" y="-30.5" font-family="Helvetica,sans-Serif" font-size="10.00">C:/Users/CYRGU3/OneDrive</text>
<text text-anchor="start" x="1021.56" y="-18.5" font-family="Helvetica,sans-Serif" font-size="10.00"> &#45; BuroVirtuel/Bureau/FMT</text>
<text text-anchor="middle" x="1095.06" y="-6.5" font-family="Helvetica,sans-Serif" font-size="10.00">/FMT/Include/PYexportParser.hpp</text>
</a>
</g>
</g>
<!-- Node2&#45;&gt;Node3 -->
<g id="edge2_Node000002_Node000003" class="edge">
<title>Node2&#45;&gt;Node3</title>
<g id="a_edge2_Node000002_Node000003"><a xlink:title=" ">
<path fill="none" stroke="#63b8ff" d="M1569.46,-79.81C1425.61,-55.46 1269.49,-38.96 1176.7,-30.2"/>
<polygon fill="#63b8ff" stroke="#63b8ff" points="1568.79,-83.42 1579.23,-81.66 1569.97,-76.52 1568.79,-83.42"/>
</a>
</g>
</g>
<!-- Node2&#45;&gt;Node4 -->
<g id="edge3_Node000002_Node000004" class="edge">
<title>Node2&#45;&gt;Node4</title>
<g id="a_edge3_Node000002_Node000004"><a xlink:title=" ">
<path fill="none" stroke="#63b8ff" d="M1569.75,-79.95C1319.25,-45.04 1250.62,-79.15 1004.06,-44 999.01,-43.28 993.83,-42.43 988.62,-41.5"/>
<polygon fill="#63b8ff" stroke="#63b8ff" points="1568.88,-83.5 1579.27,-81.44 1569.86,-76.57 1568.88,-83.5"/>
</a>
</g>
</g>
<!-- Node5&#45;&gt;Node3 -->
<g id="edge5_Node000005_Node000003" class="edge">
<title>Node5&#45;&gt;Node3</title>
<g id="a_edge5_Node000005_Node000003"><a xlink:title=" ">
<path fill="none" stroke="#63b8ff" d="M1754.33,-79.84C1540.9,-46.35 1300.22,-31.92 1176.93,-26.22"/>
<polygon fill="#63b8ff" stroke="#63b8ff" points="1753.69,-83.44 1764.11,-81.56 1754.78,-76.53 1753.69,-83.44"/>
</a>
</g>
</g>
<!-- Node5&#45;&gt;Node4 -->
<g id="edge6_Node000005_Node000004" class="edge">
<title>Node5&#45;&gt;Node4</title>
<g id="a_edge6_Node000005_Node000004"><a xlink:title=" ">
<path fill="none" stroke="#63b8ff" d="M1754.25,-79.9C1422.77,-34.56 1332.11,-88.16 1004.06,-44 999,-43.32 993.82,-42.5 988.6,-41.59"/>
<polygon fill="#63b8ff" stroke="#63b8ff" points="1753.75,-83.5 1764.13,-81.41 1754.71,-76.57 1753.75,-83.5"/>
</a>
</g>
</g>
<!-- Node6&#45;&gt;Node3 -->
<g id="edge8_Node000006_Node000003" class="edge">
<title>Node6&#45;&gt;Node3</title>
<g id="a_edge8_Node000006_Node000003"><a xlink:title=" ">
<path fill="none" stroke="#63b8ff" d="M208.07,-79.86C556.97,-36.05 651.52,-88.57 997.06,-44 1002.32,-43.32 1007.72,-42.51 1013.15,-41.6"/>
<polygon fill="#63b8ff" stroke="#63b8ff" points="207.89,-76.48 198.41,-81.21 208.77,-83.42 207.89,-76.48"/>
</a>
</g>
</g>
<!-- Node6&#45;&gt;Node4 -->
<g id="edge9_Node000006_Node000004" class="edge">
<title>Node6&#45;&gt;Node4</title>
<g id="a_edge9_Node000006_Node000004"><a xlink:title=" ">
<path fill="none" stroke="#63b8ff" d="M208.09,-79.79C439.83,-46.38 703.07,-31.68 831.55,-26.01"/>
<polygon fill="#63b8ff" stroke="#63b8ff" points="207.82,-76.44 198.43,-81.35 208.83,-83.37 207.82,-76.44"/>
</a>
</g>
</g>
<!-- Node7&#45;&gt;Node3 -->
<g id="edge11_Node000007_Node000003" class="edge">
<title>Node7&#45;&gt;Node3</title>
<g id="a_edge11_Node000007_Node000003"><a xlink:title=" ">
<path fill="none" stroke="#63b8ff" d="M410.6,-79.76C669.93,-46.14 740.77,-79.09 997.06,-44 1002.31,-43.28 1007.71,-42.43 1013.14,-41.5"/>
<polygon fill="#63b8ff" stroke="#63b8ff" points="410.16,-76.42 400.7,-81.2 411.08,-83.36 410.16,-76.42"/>
</a>
</g>
</g>
<!-- Node7&#45;&gt;Node4 -->
<g id="edge12_Node000007_Node000004" class="edge">
<title>Node7&#45;&gt;Node4</title>
<g id="a_edge12_Node000007_Node000004"><a xlink:title=" ">
<path fill="none" stroke="#63b8ff" d="M410.36,-79.69C564.86,-55.33 734.65,-38.39 831.49,-29.67"/>
<polygon fill="#63b8ff" stroke="#63b8ff" points="410.06,-76.36 400.73,-81.39 411.16,-83.27 410.06,-76.36"/>
</a>
</g>
</g>
<!-- Node8&#45;&gt;Node3 -->
<g id="edge14_Node000008_Node000003" class="edge">
<title>Node8&#45;&gt;Node3</title>
<g id="a_edge14_Node000008_Node000003"><a xlink:title=" ">
<path fill="none" stroke="#63b8ff" d="M602.05,-79.63C776.5,-53.47 824.97,-70.12 997.06,-44 1002.3,-43.2 1007.69,-42.3 1013.11,-41.32"/>
<polygon fill="#63b8ff" stroke="#63b8ff" points="601.56,-76.31 592.2,-81.28 602.62,-83.23 601.56,-76.31"/>
</a>
</g>
</g>
<!-- Node8&#45;&gt;Node4 -->
<g id="edge15_Node000008_Node000004" class="edge">
<title>Node8&#45;&gt;Node4</title>
<g id="a_edge15_Node000008_Node000004"><a xlink:title=" ">
<path fill="none" stroke="#63b8ff" d="M601.95,-79.44C685.4,-62.71 771.23,-47.19 831.62,-36.56"/>
<polygon fill="#63b8ff" stroke="#63b8ff" points="601.37,-76.19 592.26,-81.59 602.75,-83.05 601.37,-76.19"/>
</a>
</g>
</g>
<!-- Node9&#45;&gt;Node3 -->
<g id="edge18_Node000009_Node000003" class="edge">
<title>Node9&#45;&gt;Node3</title>
<g id="a_edge18_Node000009_Node000003"><a xlink:title=" ">
<path fill="none" stroke="#63b8ff" d="M1931.58,-79.74C1649.98,-39.13 1325.45,-27.63 1176.79,-24.31"/>
<polygon fill="#63b8ff" stroke="#63b8ff" points="1931.02,-83.35 1941.42,-81.33 1932.03,-76.42 1931.02,-83.35"/>
</a>
</g>
</g>
<!-- Node9&#45;&gt;Node4 -->
<g id="edge19_Node000009_Node000004" class="edge">
<title>Node9&#45;&gt;Node4</title>
<g id="a_edge19_Node000009_Node000004"><a xlink:title=" ">
<path fill="none" stroke="#63b8ff" d="M1931.78,-79.83C1522.09,-26.95 1410.74,-96.86 1004.06,-44 999,-43.34 993.81,-42.54 988.6,-41.65"/>
<polygon fill="#63b8ff" stroke="#63b8ff" points="1931.07,-83.39 1941.44,-81.22 1931.98,-76.45 1931.07,-83.39"/>
</a>
</g>
</g>
<!-- Node10 -->
<g id="Node000010" class="node">
<title>Node10</title>
<g id="a_Node000010"><a xlink:href="FMTparallelwriter_8hpp.html" target="_top" xlink:title=" ">
<polygon fill="white" stroke="#666666" points="2109.81,-44 1942.31,-44 1942.31,0 2109.81,0 2109.81,-44"/>
<text text-anchor="start" x="1950.31" y="-30.5" font-family="Helvetica,sans-Serif" font-size="10.00">C:/Users/CYRGU3/OneDrive</text>
<text text-anchor="start" x="1950.31" y="-18.5" font-family="Helvetica,sans-Serif" font-size="10.00"> &#45; BuroVirtuel/Bureau/FMT</text>
<text text-anchor="middle" x="2026.06" y="-6.5" font-family="Helvetica,sans-Serif" font-size="10.00">/FMT/Include/FMTparallelwriter.hpp</text>
</a>
</g>
</g>
<!-- Node9&#45;&gt;Node10 -->
<g id="edge17_Node000009_Node000010" class="edge">
<title>Node9&#45;&gt;Node10</title>
<g id="a_edge17_Node000009_Node000010"><a xlink:title=" ">
<path fill="none" stroke="#63b8ff" d="M2026.06,-68.82C2026.06,-60.54 2026.06,-51.85 2026.06,-44.29"/>
<polygon fill="#63b8ff" stroke="#63b8ff" points="2022.56,-68.69 2026.06,-78.69 2029.56,-68.69 2022.56,-68.69"/>
</a>
</g>
</g>
<!-- Node11&#45;&gt;Node3 -->
<g id="edge21_Node000011_Node000003" class="edge">
<title>Node11&#45;&gt;Node3</title>
<g id="a_edge21_Node000011_Node000003"><a xlink:title=" ">
<path fill="none" stroke="#63b8ff" d="M812.63,-79.5C894.89,-63.45 917.44,-60.19 997.06,-44 1002.34,-42.92 1007.78,-41.8 1013.27,-40.66"/>
<polygon fill="#63b8ff" stroke="#63b8ff" points="812.16,-76.22 803.02,-81.58 813.51,-83.09 812.16,-76.22"/>
</a>
</g>
</g>
<!-- Node11&#45;&gt;Node4 -->
<g id="edge22_Node000011_Node000004" class="edge">
<title>Node11&#45;&gt;Node4</title>
<g id="a_edge22_Node000011_Node000004"><a xlink:title=" ">
<path fill="none" stroke="#63b8ff" d="M771.35,-75.78C797.99,-65.64 828.37,-54.08 853.89,-44.37"/>
<polygon fill="#63b8ff" stroke="#63b8ff" points="770.45,-72.76 762.34,-79.58 772.93,-79.3 770.45,-72.76"/>
</a>
</g>
</g>
<!-- Node12&#45;&gt;Node3 -->
<g id="edge24_Node000012_Node000003" class="edge">
<title>Node12&#45;&gt;Node3</title>
<g id="a_edge24_Node000012_Node000003"><a xlink:title=" ">
<path fill="none" stroke="#63b8ff" d="M965.81,-75.51C990.6,-65.44 1018.76,-54 1042.45,-44.37"/>
<polygon fill="#63b8ff" stroke="#63b8ff" points="964.72,-72.58 956.77,-79.58 967.36,-79.06 964.72,-72.58"/>
</a>
</g>
</g>
<!-- Node12&#45;&gt;Node4 -->
<g id="edge25_Node000012_Node000004" class="edge">
<title>Node12&#45;&gt;Node4</title>
<g id="a_edge25_Node000012_Node000004"><a xlink:title=" ">
<path fill="none" stroke="#63b8ff" d="M905.94,-68.82C906.69,-60.54 907.47,-51.85 908.15,-44.29"/>
<polygon fill="#63b8ff" stroke="#63b8ff" points="902.38,-68.41 904.97,-78.69 909.35,-69.04 902.38,-68.41"/>
</a>
</g>
</g>
<!-- Node13&#45;&gt;Node3 -->
<g id="edge27_Node000013_Node000003" class="edge">
<title>Node13&#45;&gt;Node3</title>
<g id="a_edge27_Node000013_Node000003"><a xlink:title=" ">
<path fill="none" stroke="#63b8ff" d="M1095.06,-68.82C1095.06,-60.54 1095.06,-51.85 1095.06,-44.29"/>
<polygon fill="#63b8ff" stroke="#63b8ff" points="1091.56,-68.69 1095.06,-78.69 1098.56,-68.69 1091.56,-68.69"/>
</a>
</g>
</g>
<!-- Node13&#45;&gt;Node4 -->
<g id="edge28_Node000013_Node000004" class="edge">
<title>Node13&#45;&gt;Node4</title>
<g id="a_edge28_Node000013_Node000004"><a xlink:title=" ">
<path fill="none" stroke="#63b8ff" d="M1034.51,-75.47C1010.69,-65.43 983.65,-54.03 960.87,-44.42"/>
<polygon fill="#63b8ff" stroke="#63b8ff" points="1032.93,-79.03 1043.5,-79.69 1035.65,-72.58 1032.93,-79.03"/>
</a>
</g>
</g>
<!-- Node14&#45;&gt;Node3 -->
<g id="edge30_Node000014_Node000003" class="edge">
<title>Node14&#45;&gt;Node3</title>
<g id="a_edge30_Node000014_Node000003"><a xlink:title=" ">
<path fill="none" stroke="#63b8ff" d="M1228.68,-75.64C1203.04,-65.54 1173.84,-54.04 1149.3,-44.37"/>
<polygon fill="#63b8ff" stroke="#63b8ff" points="1227.1,-79.17 1237.69,-79.58 1229.67,-72.66 1227.1,-79.17"/>
</a>
</g>
</g>
<!-- Node14&#45;&gt;Node4 -->
<g id="edge31_Node000014_Node000004" class="edge">
<title>Node14&#45;&gt;Node4</title>
<g id="a_edge31_Node000014_Node000004"><a xlink:title=" ">
<path fill="none" stroke="#63b8ff" d="M1191.9,-79.59C1108.01,-62.92 1084.94,-60.69 1004.06,-44 998.98,-42.95 993.75,-41.85 988.49,-40.72"/>
<polygon fill="#63b8ff" stroke="#63b8ff" points="1190.94,-83.17 1201.43,-81.69 1192.31,-76.3 1190.94,-83.17"/>
</a>
</g>
</g>
<!-- Node15&#45;&gt;Node3 -->
<g id="edge33_Node000015_Node000003" class="edge">
<title>Node15&#45;&gt;Node3</title>
<g id="a_edge33_Node000015_Node000003"><a xlink:title=" ">
<path fill="none" stroke="#63b8ff" d="M1391.03,-79.82C1312.43,-63.24 1234.04,-48.35 1176.85,-37.8"/>
<polygon fill="#63b8ff" stroke="#63b8ff" points="1390.11,-83.42 1400.62,-82.07 1391.56,-76.57 1390.11,-83.42"/>
</a>
</g>
</g>
<!-- Node15&#45;&gt;Node4 -->
<g id="edge34_Node000015_Node000004" class="edge">
<title>Node15&#45;&gt;Node4</title>
<g id="a_edge34_Node000015_Node000004"><a xlink:title=" ">
<path fill="none" stroke="#63b8ff" d="M1390.55,-79.88C1219.22,-52.99 1171.71,-70.4 1004.06,-44 999.02,-43.21 993.85,-42.3 988.64,-41.33"/>
<polygon fill="#63b8ff" stroke="#63b8ff" points="1389.78,-83.46 1400.21,-81.59 1390.88,-76.55 1389.78,-83.46"/>
</a>
</g>
</g>
</g>
</svg>
