<?xml version="1.0" encoding="UTF-8" standalone="no"?>
<!DOCTYPE svg PUBLIC "-//W3C//DTD SVG 1.1//EN"
 "http://www.w3.org/Graphics/SVG/1.1/DTD/svg11.dtd">
<!-- Generated by graphviz version 10.0.1 (20240210.2158)
 -->
<!-- Title: D:/FMT/Include/FMTplanningtask.hpp Pages: 1 -->
<svg width="553pt" height="84pt"
 viewBox="0.00 0.00 553.12 84.00" xmlns="http://www.w3.org/2000/svg" xmlns:xlink="http://www.w3.org/1999/xlink">
<g id="graph0" class="graph" transform="scale(1 1) rotate(0) translate(4 80)">
<title>D:/FMT/Include/FMTplanningtask.hpp</title>
<!-- Node1 -->
<g id="node1" class="node">
<title>Node1</title>
<g id="a_node1"><a xlink:title=" ">
<polygon fill="#999999" stroke="#666666" points="365.25,-76 187.25,-76 187.25,-56 365.25,-56 365.25,-76"/>
<text text-anchor="middle" x="276.25" y="-62.5" font-family="Helvetica,sans-Serif" font-size="10.00">D:/FMT/Include/FMTplanningtask.hpp</text>
</a>
</g>
</g>
<!-- Node2 -->
<g id="node2" class="node">
<title>Node2</title>
<g id="a_node2"><a xlink:href="PYexportParallel_8hpp.html" target="_top" xlink:title=" ">
<polygon fill="white" stroke="#666666" points="176.5,-20 0,-20 0,0 176.5,0 176.5,-20"/>
<text text-anchor="middle" x="88.25" y="-6.5" font-family="Helvetica,sans-Serif" font-size="10.00">D:/FMT/Include/PYexportParallel.hpp</text>
</a>
</g>
</g>
<!-- Node1&#45;&gt;Node2 -->
<g id="edge1" class="edge">
<title>Node1&#45;&gt;Node2</title>
<path fill="none" stroke="#63b8ff" d="M232.5,-52.43C198.52,-42.67 152.15,-29.35 121.25,-20.48"/>
<polygon fill="#63b8ff" stroke="#63b8ff" points="231.47,-55.78 242.05,-55.18 233.4,-49.05 231.47,-55.78"/>
</g>
<!-- Node3 -->
<g id="node3" class="node">
<title>Node3</title>
<g id="a_node3"><a xlink:href="Rdeclarations_8hpp.html" target="_top" xlink:title=" ">
<polygon fill="white" stroke="#666666" points="357.75,-20 194.75,-20 194.75,0 357.75,0 357.75,-20"/>
<text text-anchor="middle" x="276.25" y="-6.5" font-family="Helvetica,sans-Serif" font-size="10.00">D:/FMT/Include/Rdeclarations.hpp</text>
</a>
</g>
</g>
<!-- Node1&#45;&gt;Node3 -->
<g id="edge2" class="edge">
<title>Node1&#45;&gt;Node3</title>
<path fill="none" stroke="#63b8ff" d="M276.25,-44.13C276.25,-35.9 276.25,-26.85 276.25,-20.3"/>
<polygon fill="#63b8ff" stroke="#63b8ff" points="272.75,-44.08 276.25,-54.08 279.75,-44.08 272.75,-44.08"/>
</g>
<!-- Node4 -->
<g id="node4" class="node">
<title>Node4</title>
<g id="a_node4"><a xlink:href="RexportParallel_8hpp.html" target="_top" xlink:title=" ">
<polygon fill="white" stroke="#666666" points="545.12,-20 375.38,-20 375.38,0 545.12,0 545.12,-20"/>
<text text-anchor="middle" x="460.25" y="-6.5" font-family="Helvetica,sans-Serif" font-size="10.00">D:/FMT/Include/RexportParallel.hpp</text>
</a>
</g>
</g>
<!-- Node1&#45;&gt;Node4 -->
<g id="edge3" class="edge">
<title>Node1&#45;&gt;Node4</title>
<path fill="none" stroke="#63b8ff" d="M319.07,-52.43C352.32,-42.67 397.71,-29.35 427.95,-20.48"/>
<polygon fill="#63b8ff" stroke="#63b8ff" points="318.36,-48.99 309.75,-55.17 320.33,-55.71 318.36,-48.99"/>
</g>
</g>
</svg>
