<?xml version="1.0" encoding="UTF-8" standalone="no"?>
<!DOCTYPE svg PUBLIC "-//W3C//DTD SVG 1.1//EN"
 "http://www.w3.org/Graphics/SVG/1.1/DTD/svg11.dtd">
<!-- Generated by graphviz version 10.0.1 (20240210.2158)
 -->
<!-- Title: D:/FMT/Include/FMTsesmodel.hpp Pages: 1 -->
<svg width="742pt" height="140pt"
 viewBox="0.00 0.00 741.75 140.00" xmlns="http://www.w3.org/2000/svg" xmlns:xlink="http://www.w3.org/1999/xlink">
<g id="graph0" class="graph" transform="scale(1 1) rotate(0) translate(4 136)">
<title>D:/FMT/Include/FMTsesmodel.hpp</title>
<!-- Node1 -->
<g id="node1" class="node">
<title>Node1</title>
<g id="a_node1"><a xlink:title=" ">
<polygon fill="#999999" stroke="#666666" points="460.5,-132 295.25,-132 295.25,-112 460.5,-112 460.5,-132"/>
<text text-anchor="middle" x="377.88" y="-118.5" font-family="Helvetica,sans-Serif" font-size="10.00">D:/FMT/Include/FMTsesmodel.hpp</text>
</a>
</g>
</g>
<!-- Node2 -->
<g id="node2" class="node">
<title>Node2</title>
<g id="a_node2"><a xlink:href="FMTpythonpickle_8hpp.html" target="_top" xlink:title=" ">
<polygon fill="white" stroke="#666666" points="182.88,-76 4.88,-76 4.88,-56 182.88,-56 182.88,-76"/>
<text text-anchor="middle" x="93.88" y="-62.5" font-family="Helvetica,sans-Serif" font-size="10.00">D:/FMT/Include/FMTpythonpickle.hpp</text>
</a>
</g>
</g>
<!-- Node1&#45;&gt;Node2 -->
<g id="edge1" class="edge">
<title>Node1&#45;&gt;Node2</title>
<path fill="none" stroke="#63b8ff" d="M317.06,-109.44C265.31,-99.6 191.91,-85.64 143.61,-76.46"/>
<polygon fill="#63b8ff" stroke="#63b8ff" points="316.12,-112.82 326.59,-111.25 317.42,-105.94 316.12,-112.82"/>
</g>
<!-- Node4 -->
<g id="node4" class="node">
<title>Node4</title>
<g id="a_node4"><a xlink:href="PYexportModel_8hpp.html" target="_top" xlink:title=" ">
<polygon fill="white" stroke="#666666" points="371.12,-76 200.62,-76 200.62,-56 371.12,-56 371.12,-76"/>
<text text-anchor="middle" x="285.88" y="-62.5" font-family="Helvetica,sans-Serif" font-size="10.00">D:/FMT/Include/PYexportModel.hpp</text>
</a>
</g>
</g>
<!-- Node1&#45;&gt;Node4 -->
<g id="edge3" class="edge">
<title>Node1&#45;&gt;Node4</title>
<path fill="none" stroke="#63b8ff" d="M352,-105.81C335.95,-96.39 315.83,-84.58 302.03,-76.48"/>
<polygon fill="#63b8ff" stroke="#63b8ff" points="350.15,-108.78 360.54,-110.83 353.69,-102.75 350.15,-108.78"/>
</g>
<!-- Node5 -->
<g id="node5" class="node">
<title>Node5</title>
<g id="a_node5"><a xlink:href="Rdeclarations_8hpp.html" target="_top" xlink:title=" ">
<polygon fill="white" stroke="#666666" points="552.38,-76 389.38,-76 389.38,-56 552.38,-56 552.38,-76"/>
<text text-anchor="middle" x="470.88" y="-62.5" font-family="Helvetica,sans-Serif" font-size="10.00">D:/FMT/Include/Rdeclarations.hpp</text>
</a>
</g>
</g>
<!-- Node1&#45;&gt;Node5 -->
<g id="edge4" class="edge">
<title>Node1&#45;&gt;Node5</title>
<path fill="none" stroke="#63b8ff" d="M403.57,-106.08C419.87,-96.62 440.46,-84.66 454.55,-76.48"/>
<polygon fill="#63b8ff" stroke="#63b8ff" points="402.27,-102.79 395.38,-110.83 405.79,-108.84 402.27,-102.79"/>
</g>
<!-- Node6 -->
<g id="node6" class="node">
<title>Node6</title>
<g id="a_node6"><a xlink:href="RexportModel_8hpp.html" target="_top" xlink:title=" ">
<polygon fill="white" stroke="#666666" points="733.75,-76 570,-76 570,-56 733.75,-56 733.75,-76"/>
<text text-anchor="middle" x="651.88" y="-62.5" font-family="Helvetica,sans-Serif" font-size="10.00">D:/FMT/Include/RexportModel.hpp</text>
</a>
</g>
</g>
<!-- Node1&#45;&gt;Node6 -->
<g id="edge5" class="edge">
<title>Node1&#45;&gt;Node6</title>
<path fill="none" stroke="#63b8ff" d="M437.18,-109.31C487.07,-99.48 557.49,-85.6 603.89,-76.46"/>
<polygon fill="#63b8ff" stroke="#63b8ff" points="436.54,-105.87 427.4,-111.24 437.89,-112.74 436.54,-105.87"/>
</g>
<!-- Node3 -->
<g id="node3" class="node">
<title>Node3</title>
<g id="a_node3"><a xlink:href="PYexportHeuristics_8hpp.html" target="_top" xlink:title=" ">
<polygon fill="white" stroke="#666666" points="187.75,-20 0,-20 0,0 187.75,0 187.75,-20"/>
<text text-anchor="middle" x="93.88" y="-6.5" font-family="Helvetica,sans-Serif" font-size="10.00">D:/FMT/Include/PYexportHeuristics.hpp</text>
</a>
</g>
</g>
<!-- Node2&#45;&gt;Node3 -->
<g id="edge2" class="edge">
<title>Node2&#45;&gt;Node3</title>
<path fill="none" stroke="#63b8ff" d="M93.88,-44.13C93.88,-35.9 93.88,-26.85 93.88,-20.3"/>
<polygon fill="#63b8ff" stroke="#63b8ff" points="90.38,-44.08 93.88,-54.08 97.38,-44.08 90.38,-44.08"/>
</g>
</g>
</svg>
