<?xml version="1.0" encoding="UTF-8" standalone="no"?>
<!DOCTYPE svg PUBLIC "-//W3C//DTD SVG 1.1//EN"
 "http://www.w3.org/Graphics/SVG/1.1/DTD/svg11.dtd">
<!-- Generated by graphviz version 10.0.1 (20240210.2158)
 -->
<!-- Title: D:/FMT/Include/FMTsamodel.hpp Pages: 1 -->
<svg width="541pt" height="84pt"
 viewBox="0.00 0.00 541.12 84.00" xmlns="http://www.w3.org/2000/svg" xmlns:xlink="http://www.w3.org/1999/xlink">
<g id="graph0" class="graph" transform="scale(1 1) rotate(0) translate(4 80)">
<title>D:/FMT/Include/FMTsamodel.hpp</title>
<!-- Node1 -->
<g id="node1" class="node">
<title>Node1</title>
<g id="a_node1"><a xlink:title=" ">
<polygon fill="#999999" stroke="#666666" points="350.25,-76 190.25,-76 190.25,-56 350.25,-56 350.25,-76"/>
<text text-anchor="middle" x="270.25" y="-62.5" font-family="Helvetica,sans-Serif" font-size="10.00">D:/FMT/Include/FMTsamodel.hpp</text>
</a>
</g>
</g>
<!-- Node2 -->
<g id="node2" class="node">
<title>Node2</title>
<g id="a_node2"><a xlink:href="PYexportModel_8hpp.html" target="_top" xlink:title=" ">
<polygon fill="white" stroke="#666666" points="170.5,-20 0,-20 0,0 170.5,0 170.5,-20"/>
<text text-anchor="middle" x="85.25" y="-6.5" font-family="Helvetica,sans-Serif" font-size="10.00">D:/FMT/Include/PYexportModel.hpp</text>
</a>
</g>
</g>
<!-- Node1&#45;&gt;Node2 -->
<g id="edge1" class="edge">
<title>Node1&#45;&gt;Node2</title>
<path fill="none" stroke="#63b8ff" d="M227.2,-52.43C193.77,-42.67 148.13,-29.35 117.73,-20.48"/>
<polygon fill="#63b8ff" stroke="#63b8ff" points="225.99,-55.73 236.57,-55.17 227.95,-49.01 225.99,-55.73"/>
</g>
<!-- Node3 -->
<g id="node3" class="node">
<title>Node3</title>
<g id="a_node3"><a xlink:href="Rdeclarations_8hpp.html" target="_top" xlink:title=" ">
<polygon fill="white" stroke="#666666" points="351.75,-20 188.75,-20 188.75,0 351.75,0 351.75,-20"/>
<text text-anchor="middle" x="270.25" y="-6.5" font-family="Helvetica,sans-Serif" font-size="10.00">D:/FMT/Include/Rdeclarations.hpp</text>
</a>
</g>
</g>
<!-- Node1&#45;&gt;Node3 -->
<g id="edge2" class="edge">
<title>Node1&#45;&gt;Node3</title>
<path fill="none" stroke="#63b8ff" d="M270.25,-44.13C270.25,-35.9 270.25,-26.85 270.25,-20.3"/>
<polygon fill="#63b8ff" stroke="#63b8ff" points="266.75,-44.08 270.25,-54.08 273.75,-44.08 266.75,-44.08"/>
</g>
<!-- Node4 -->
<g id="node4" class="node">
<title>Node4</title>
<g id="a_node4"><a xlink:href="RexportModel_8hpp.html" target="_top" xlink:title=" ">
<polygon fill="white" stroke="#666666" points="533.12,-20 369.38,-20 369.38,0 533.12,0 533.12,-20"/>
<text text-anchor="middle" x="451.25" y="-6.5" font-family="Helvetica,sans-Serif" font-size="10.00">D:/FMT/Include/RexportModel.hpp</text>
</a>
</g>
</g>
<!-- Node1&#45;&gt;Node4 -->
<g id="edge3" class="edge">
<title>Node1&#45;&gt;Node4</title>
<path fill="none" stroke="#63b8ff" d="M312.8,-52.31C345.47,-42.56 389.86,-29.32 419.48,-20.48"/>
<polygon fill="#63b8ff" stroke="#63b8ff" points="311.81,-48.95 303.23,-55.16 313.81,-55.66 311.81,-48.95"/>
</g>
</g>
</svg>
