<?xml version="1.0" encoding="UTF-8" standalone="no"?>
<!DOCTYPE svg PUBLIC "-//W3C//DTD SVG 1.1//EN"
 "http://www.w3.org/Graphics/SVG/1.1/DTD/svg11.dtd">
<!-- Generated by graphviz version 8.1.0 (20230707.0739)
 -->
<!-- Title: C:/Temp/out/FMT/Include/FMTsolverinterface.hpp Pages: 1 -->
<!--zoomable 380 -->

<svg id="main" version="1.1" xmlns="http://www.w3.org/2000/svg" xmlns:xlink="http://www.w3.org/1999/xlink" xml:space="preserve" onload="init(evt)">
<style type="text/css"><![CDATA[
.node, .edge {opacity: 0.7;}
.node.selected, .edge.selected {opacity: 1;}
.edge:hover path { stroke: red; }
.edge:hover polygon { stroke: red; fill: red; }
]]></style>

<defs>
  <circle id="rim" cx="0" cy="0" r="7"/>
  <circle id="rim2" cx="0" cy="0" r="3.5"/>
  <g id="zoomPlus">
    <use xlink:href="#rim" fill="#404040"><set attributeName="fill" to="#808080" begin="zoomplus.mouseover" end="zoomplus.mouseout"/></use>
    <path d="M-4,0h8M0,-4v8" fill="none" stroke="white" stroke-width="1.5" pointer-events="none"/>
  </g>
  <g id="zoomMin">
    <use xlink:href="#rim" fill="#404040"><set attributeName="fill" to="#808080" begin="zoomminus.mouseover" end="zoomminus.mouseout"/></use>
    <path d="M-4,0h8" fill="none" stroke="white" stroke-width="1.5" pointer-events="none"/>
  </g>
  <g id="arrowUp" transform="translate(30 24)">
    <use xlink:href="#rim"/>
    <path pointer-events="none" fill="none" stroke="white" stroke-width="1.5" d="M0,-3.0v7 M-2.5,-0.5L0,-3.0L2.5,-0.5"/>
  </g>
  <g id="arrowRight" transform="rotate(90) translate(36 -43)">
    <use xlink:href="#rim"/>
    <path pointer-events="none" fill="none" stroke="white" stroke-width="1.5" d="M0,-3.0v7 M-2.5,-0.5L0,-3.0L2.5,-0.5"/>
  </g>
  <g id="arrowDown" transform="rotate(180) translate(-30 -48)">
    <use xlink:href="#rim"/>
    <path pointer-events="none" fill="none" stroke="white" stroke-width="1.5" d="M0,-3.0v7 M-2.5,-0.5L0,-3.0L2.5,-0.5"/>
  </g>
  <g id="arrowLeft" transform="rotate(270) translate(-36 17)">
    <use xlink:href="#rim"/>
    <path pointer-events="none" fill="none" stroke="white" stroke-width="1.5" d="M0,-3.0v7 M-2.5,-0.5L0,-3.0L2.5,-0.5"/>
  </g>
  <g id="resetDef">
    <use xlink:href="#rim2" fill="#404040"><set attributeName="fill" to="#808080" begin="reset.mouseover" end="reset.mouseout"/></use>
  </g>
</defs>
<script type="application/ecmascript">
var viewWidth = 912;
var viewHeight = 380;
var sectionId = 'dynsection-0';
</script>
<script type="application/ecmascript" xlink:href="svg.min.js"/>
<svg id="graph" class="graph">
<g id="viewport">
<title>C:/Temp/out/FMT/Include/FMTsolverinterface.hpp</title>
<!-- Node1 -->
<g id="Node000001" class="node">
<title>Node1</title>
<g id="a_Node000001"><a xlink:title=" ">
<polygon fill="#999999" stroke="#666666" points="731.38,-372 605.88,-372 605.88,-340 731.38,-340 731.38,-372"/>
<text text-anchor="start" x="613.88" y="-358.5" font-family="Helvetica,sans-Serif" font-size="10.00">C:/Temp/out/FMT/Include</text>
<text text-anchor="middle" x="668.62" y="-346.5" font-family="Helvetica,sans-Serif" font-size="10.00">/FMTsolverinterface.hpp</text>
</a>
</g>
</g>
<!-- Node2 -->
<g id="Node000002" class="node">
<title>Node2</title>
<g id="a_Node000002"><a xlink:href="FMTlpheuristic_8hpp.html" target="_top" xlink:title=" ">
<polygon fill="white" stroke="#666666" points="153.38,-236 27.88,-236 27.88,-204 153.38,-204 153.38,-236"/>
<text text-anchor="start" x="35.88" y="-222.5" font-family="Helvetica,sans-Serif" font-size="10.00">C:/Temp/out/FMT/Include</text>
<text text-anchor="middle" x="90.62" y="-210.5" font-family="Helvetica,sans-Serif" font-size="10.00">/FMTlpheuristic.hpp</text>
</a>
</g>
</g>
<!-- Node1&#45;&gt;Node2 -->
<g id="edge1_Node000001_Node000002" class="edge">
<title>Node1&#45;&gt;Node2</title>
<g id="a_edge1_Node000001_Node000002"><a xlink:title=" ">
<path fill="none" stroke="#63b8ff" d="M594.98,-337.93C480.46,-311.38 261.68,-260.66 153.87,-235.66"/>
<polygon fill="#63b8ff" stroke="#63b8ff" points="593.86,-341.49 604.39,-340.34 595.44,-334.67 593.86,-341.49"/>
</a>
</g>
</g>
<!-- Node9 -->
<g id="Node000009" class="node">
<title>Node9</title>
<g id="a_Node000009"><a xlink:href="FMTlpsolver_8hpp.html" target="_top" xlink:title=" ">
<polygon fill="white" stroke="#666666" points="731.38,-304 605.88,-304 605.88,-272 731.38,-272 731.38,-304"/>
<text text-anchor="start" x="613.88" y="-290.5" font-family="Helvetica,sans-Serif" font-size="10.00">C:/Temp/out/FMT/Include</text>
<text text-anchor="middle" x="668.62" y="-278.5" font-family="Helvetica,sans-Serif" font-size="10.00">/FMTlpsolver.hpp</text>
</a>
</g>
</g>
<!-- Node1&#45;&gt;Node9 -->
<g id="edge11_Node000001_Node000009" class="edge">
<title>Node1&#45;&gt;Node9</title>
<g id="a_edge11_Node000001_Node000009"><a xlink:title=" ">
<path fill="none" stroke="#63b8ff" d="M668.62,-328.89C668.62,-320.52 668.62,-311.54 668.62,-304.22"/>
<polygon fill="#63b8ff" stroke="#63b8ff" points="665.13,-328.69 668.62,-338.69 672.13,-328.69 665.13,-328.69"/>
</a>
</g>
</g>
<!-- Node13 -->
<g id="Node000013" class="node">
<title>Node13</title>
<g id="a_Node000013"><a xlink:href="RexportModel_8hpp.html" target="_top" xlink:title=" ">
<polygon fill="white" stroke="#666666" points="875.38,-100 749.88,-100 749.88,-68 875.38,-68 875.38,-100"/>
<text text-anchor="start" x="757.88" y="-86.5" font-family="Helvetica,sans-Serif" font-size="10.00">C:/Temp/out/FMT/Include</text>
<text text-anchor="middle" x="812.62" y="-74.5" font-family="Helvetica,sans-Serif" font-size="10.00">/RexportModel.hpp</text>
</a>
</g>
</g>
<!-- Node1&#45;&gt;Node13 -->
<g id="edge31_Node000001_Node000013" class="edge">
<title>Node1&#45;&gt;Node13</title>
<g id="a_edge31_Node000001_Node000013"><a xlink:title=" ">
<path fill="none" stroke="#63b8ff" d="M704.16,-333.56C716.47,-325.21 729.87,-314.99 740.62,-304 766.15,-277.92 769.17,-268.04 786.62,-236 802.35,-207.15 809.05,-200.19 815.62,-168 818.47,-154.07 816.04,-150.22 815.62,-136 815.27,-123.94 814.45,-110.3 813.75,-100.16"/>
<polygon fill="#63b8ff" stroke="#63b8ff" points="702.46,-331.15 696.02,-339.57 706.3,-337 702.46,-331.15"/>
</a>
</g>
</g>
<!-- Node3 -->
<g id="Node000003" class="node">
<title>Node3</title>
<g id="a_Node000003"><a xlink:href="FMToperatingareaclusterer_8hpp.html" target="_top" xlink:title=" ">
<polygon fill="white" stroke="#666666" points="153.25,-168 0,-168 0,-136 153.25,-136 153.25,-168"/>
<text text-anchor="start" x="8" y="-154.5" font-family="Helvetica,sans-Serif" font-size="10.00">C:/Temp/out/FMT/Include</text>
<text text-anchor="middle" x="76.62" y="-142.5" font-family="Helvetica,sans-Serif" font-size="10.00">/FMToperatingareaclusterer.hpp</text>
</a>
</g>
</g>
<!-- Node2&#45;&gt;Node3 -->
<g id="edge2_Node000002_Node000003" class="edge">
<title>Node2&#45;&gt;Node3</title>
<g id="a_edge2_Node000002_Node000003"><a xlink:title=" ">
<path fill="none" stroke="#63b8ff" d="M85.15,-193.17C83.35,-184.73 81.42,-175.63 79.85,-168.22"/>
<polygon fill="#63b8ff" stroke="#63b8ff" points="81.88,-193.64 87.38,-202.69 88.73,-192.18 81.88,-193.64"/>
</a>
</g>
</g>
<!-- Node6 -->
<g id="Node000006" class="node">
<title>Node6</title>
<g id="a_Node000006"><a xlink:href="FMToperatingareascheduler_8hpp.html" target="_top" xlink:title=" ">
<polygon fill="white" stroke="#666666" points="367.5,-168 209.75,-168 209.75,-136 367.5,-136 367.5,-168"/>
<text text-anchor="start" x="217.75" y="-154.5" font-family="Helvetica,sans-Serif" font-size="10.00">C:/Temp/out/FMT/Include</text>
<text text-anchor="middle" x="288.62" y="-142.5" font-family="Helvetica,sans-Serif" font-size="10.00">/FMToperatingareascheduler.hpp</text>
</a>
</g>
</g>
<!-- Node2&#45;&gt;Node6 -->
<g id="edge5_Node000002_Node000006" class="edge">
<title>Node2&#45;&gt;Node6</title>
<g id="a_edge5_Node000002_Node000006"><a xlink:title=" ">
<path fill="none" stroke="#63b8ff" d="M147.38,-200.08C177.41,-190.07 213.82,-177.94 242.15,-168.49"/>
<polygon fill="#63b8ff" stroke="#63b8ff" points="146.43,-197.04 138.05,-203.53 148.64,-203.68 146.43,-197.04"/>
</a>
</g>
</g>
<!-- Node4 -->
<g id="Node000004" class="node">
<title>Node4</title>
<g id="a_Node000004"><a xlink:href="PYexportHeuristics_8hpp.html" target="_top" xlink:title=" ">
<polygon fill="white" stroke="#666666" points="388.38,-32 262.88,-32 262.88,0 388.38,0 388.38,-32"/>
<text text-anchor="start" x="270.88" y="-18.5" font-family="Helvetica,sans-Serif" font-size="10.00">C:/Temp/out/FMT/Include</text>
<text text-anchor="middle" x="325.62" y="-6.5" font-family="Helvetica,sans-Serif" font-size="10.00">/PYexportHeuristics.hpp</text>
</a>
</g>
</g>
<!-- Node3&#45;&gt;Node4 -->
<g id="edge3_Node000003_Node000004" class="edge">
<title>Node3&#45;&gt;Node4</title>
<g id="a_edge3_Node000003_Node000004"><a xlink:title=" ">
<path fill="none" stroke="#63b8ff" d="M80.47,-125.01C84.57,-106.5 92.91,-82.43 109.62,-68 132.3,-48.42 207.13,-33.81 262.38,-25.36"/>
<polygon fill="#63b8ff" stroke="#63b8ff" points="76.87,-124.21 78.43,-134.68 83.75,-125.52 76.87,-124.21"/>
</a>
</g>
</g>
<!-- Node5 -->
<g id="Node000005" class="node">
<title>Node5</title>
<g id="a_Node000005"><a xlink:href="RexportHeuristics_8hpp.html" target="_top" xlink:title=" ">
<polygon fill="white" stroke="#666666" points="244.38,-100 118.88,-100 118.88,-68 244.38,-68 244.38,-100"/>
<text text-anchor="start" x="126.88" y="-86.5" font-family="Helvetica,sans-Serif" font-size="10.00">C:/Temp/out/FMT/Include</text>
<text text-anchor="middle" x="181.62" y="-74.5" font-family="Helvetica,sans-Serif" font-size="10.00">/RexportHeuristics.hpp</text>
</a>
</g>
</g>
<!-- Node3&#45;&gt;Node5 -->
<g id="edge4_Node000003_Node000005" class="edge">
<title>Node3&#45;&gt;Node5</title>
<g id="a_edge4_Node000003_Node000005"><a xlink:title=" ">
<path fill="none" stroke="#63b8ff" d="M110.36,-129.8C125.58,-120.23 143.23,-109.13 157.16,-100.38"/>
<polygon fill="#63b8ff" stroke="#63b8ff" points="108.85,-127.24 102.24,-135.53 112.57,-133.17 108.85,-127.24"/>
</a>
</g>
</g>
<!-- Node6&#45;&gt;Node4 -->
<g id="edge8_Node000006_Node000004" class="edge">
<title>Node6&#45;&gt;Node4</title>
<g id="a_edge8_Node000006_Node000004"><a xlink:title=" ">
<path fill="none" stroke="#63b8ff" d="M289.79,-125.11C291.09,-108.49 293.84,-86.61 299.62,-68 303.52,-55.47 310.31,-42.31 315.98,-32.49"/>
<polygon fill="#63b8ff" stroke="#63b8ff" points="286.26,-124.47 289.11,-134.67 293.25,-124.92 286.26,-124.47"/>
</a>
</g>
</g>
<!-- Node6&#45;&gt;Node5 -->
<g id="edge10_Node000006_Node000005" class="edge">
<title>Node6&#45;&gt;Node5</title>
<g id="a_edge10_Node000006_Node000005"><a xlink:title=" ">
<path fill="none" stroke="#63b8ff" d="M254.25,-129.8C238.74,-120.23 220.75,-109.13 206.55,-100.38"/>
<polygon fill="#63b8ff" stroke="#63b8ff" points="252.19,-133.25 262.54,-135.53 255.86,-127.3 252.19,-133.25"/>
</a>
</g>
</g>
<!-- Node7 -->
<g id="Node000007" class="node">
<title>Node7</title>
<g id="a_Node000007"><a xlink:href="FMTpythonpickle_8hpp.html" target="_top" xlink:title=" ">
<polygon fill="white" stroke="#666666" points="434.38,-100 308.88,-100 308.88,-68 434.38,-68 434.38,-100"/>
<text text-anchor="start" x="316.88" y="-86.5" font-family="Helvetica,sans-Serif" font-size="10.00">C:/Temp/out/FMT/Include</text>
<text text-anchor="middle" x="371.62" y="-74.5" font-family="Helvetica,sans-Serif" font-size="10.00">/FMTpythonpickle.hpp</text>
</a>
</g>
</g>
<!-- Node6&#45;&gt;Node7 -->
<g id="edge6_Node000006_Node000007" class="edge">
<title>Node6&#45;&gt;Node7</title>
<g id="a_edge6_Node000006_Node000007"><a xlink:title=" ">
<path fill="none" stroke="#63b8ff" d="M316.45,-128.87C328.18,-119.55 341.55,-108.91 352.19,-100.45"/>
<polygon fill="#63b8ff" stroke="#63b8ff" points="314.52,-126.73 308.88,-135.69 318.88,-132.21 314.52,-126.73"/>
</a>
</g>
</g>
<!-- Node8 -->
<g id="Node000008" class="node">
<title>Node8</title>
<g id="a_Node000008"><a xlink:href="Rdeclarations_8hpp.html" target="_top" xlink:title=" ">
<polygon fill="white" stroke="#666666" points="578.38,-100 452.88,-100 452.88,-68 578.38,-68 578.38,-100"/>
<text text-anchor="start" x="460.88" y="-86.5" font-family="Helvetica,sans-Serif" font-size="10.00">C:/Temp/out/FMT/Include</text>
<text text-anchor="middle" x="515.62" y="-74.5" font-family="Helvetica,sans-Serif" font-size="10.00">/Rdeclarations.hpp</text>
</a>
</g>
</g>
<!-- Node6&#45;&gt;Node8 -->
<g id="edge9_Node000006_Node000008" class="edge">
<title>Node6&#45;&gt;Node8</title>
<g id="a_edge9_Node000006_Node000008"><a xlink:title=" ">
<path fill="none" stroke="#63b8ff" d="M352.34,-132.47C387.02,-122.39 429.44,-110.06 462.34,-100.49"/>
<polygon fill="#63b8ff" stroke="#63b8ff" points="351.47,-129.37 342.85,-135.53 353.43,-136.09 351.47,-129.37"/>
</a>
</g>
</g>
<!-- Node7&#45;&gt;Node4 -->
<g id="edge7_Node000007_Node000004" class="edge">
<title>Node7&#45;&gt;Node4</title>
<g id="a_edge7_Node000007_Node000004"><a xlink:title=" ">
<path fill="none" stroke="#63b8ff" d="M354.81,-58.87C348.6,-49.96 341.74,-40.12 336.24,-32.22"/>
<polygon fill="#63b8ff" stroke="#63b8ff" points="352.37,-60.49 360.96,-66.69 358.11,-56.49 352.37,-60.49"/>
</a>
</g>
</g>
<!-- Node9&#45;&gt;Node2 -->
<g id="edge12_Node000009_Node000002" class="edge">
<title>Node9&#45;&gt;Node2</title>
<g id="a_edge12_Node000009_Node000002"><a xlink:title=" ">
<path fill="none" stroke="#63b8ff" d="M594.85,-281.6C496.91,-273.95 318.72,-258.36 167.62,-236 163.04,-235.32 158.32,-234.56 153.58,-233.75"/>
<polygon fill="#63b8ff" stroke="#63b8ff" points="594.28,-285.15 604.52,-282.43 594.82,-278.17 594.28,-285.15"/>
</a>
</g>
</g>
<!-- Node9&#45;&gt;Node4 -->
<g id="edge26_Node000009_Node000004" class="edge">
<title>Node9&#45;&gt;Node4</title>
<g id="a_edge26_Node000009_Node000004"><a xlink:title=" ">
<path fill="none" stroke="#63b8ff" d="M730.63,-267.5C749.8,-259.63 770.19,-249.22 786.62,-236 853.99,-181.84 942.91,-131.84 884.62,-68 851.71,-31.95 527.85,-21.09 388.67,-18.07"/>
<polygon fill="#63b8ff" stroke="#63b8ff" points="729.46,-264.59 721.43,-271.5 732.02,-271.1 729.46,-264.59"/>
</a>
</g>
</g>
<!-- Node9&#45;&gt;Node5 -->
<g id="edge29_Node000009_Node000005" class="edge">
<title>Node9&#45;&gt;Node5</title>
<g id="a_edge29_Node000009_Node000005"><a xlink:title=" ">
<path fill="none" stroke="#63b8ff" d="M594.9,-277.67C477.33,-261.31 255.08,-223.77 200.62,-168 182.97,-149.91 180.42,-118.96 180.68,-100.39"/>
<polygon fill="#63b8ff" stroke="#63b8ff" points="594.21,-281.25 604.6,-279.14 595.17,-274.31 594.21,-281.25"/>
</a>
</g>
</g>
<!-- Node9&#45;&gt;Node8 -->
<g id="edge28_Node000009_Node000008" class="edge">
<title>Node9&#45;&gt;Node8</title>
<g id="a_edge28_Node000009_Node000008"><a xlink:title=" ">
<path fill="none" stroke="#63b8ff" d="M595.29,-269.88C542.7,-253.35 475.55,-222.54 442.62,-168 435.28,-155.82 436.05,-148.61 442.62,-136 450.7,-120.51 465.87,-108.76 480.3,-100.46"/>
<polygon fill="#63b8ff" stroke="#63b8ff" points="594.01,-273.45 604.6,-272.99 596.04,-266.75 594.01,-273.45"/>
</a>
</g>
</g>
<!-- Node10 -->
<g id="Node000010" class="node">
<title>Node10</title>
<g id="a_Node000010"><a xlink:href="FMTsrmodel_8hpp.html" target="_top" xlink:title=" ">
<polygon fill="white" stroke="#666666" points="731.38,-236 605.88,-236 605.88,-204 731.38,-204 731.38,-236"/>
<text text-anchor="start" x="613.88" y="-222.5" font-family="Helvetica,sans-Serif" font-size="10.00">C:/Temp/out/FMT/Include</text>
<text text-anchor="middle" x="668.62" y="-210.5" font-family="Helvetica,sans-Serif" font-size="10.00">/FMTsrmodel.hpp</text>
</a>
</g>
</g>
<!-- Node9&#45;&gt;Node10 -->
<g id="edge13_Node000009_Node000010" class="edge">
<title>Node9&#45;&gt;Node10</title>
<g id="a_edge13_Node000009_Node000010"><a xlink:title=" ">
<path fill="none" stroke="#63b8ff" d="M668.62,-260.89C668.62,-252.52 668.62,-243.54 668.62,-236.22"/>
<polygon fill="#63b8ff" stroke="#63b8ff" points="665.13,-260.69 668.62,-270.69 672.13,-260.69 665.13,-260.69"/>
</a>
</g>
</g>
<!-- Node12 -->
<g id="Node000012" class="node">
<title>Node12</title>
<g id="a_Node000012"><a xlink:href="PYexportModel_8hpp.html" target="_top" xlink:title=" ">
<polygon fill="white" stroke="#666666" points="731.38,-100 605.88,-100 605.88,-68 731.38,-68 731.38,-100"/>
<text text-anchor="start" x="613.88" y="-86.5" font-family="Helvetica,sans-Serif" font-size="10.00">C:/Temp/out/FMT/Include</text>
<text text-anchor="middle" x="668.62" y="-74.5" font-family="Helvetica,sans-Serif" font-size="10.00">/PYexportModel.hpp</text>
</a>
</g>
</g>
<!-- Node9&#45;&gt;Node12 -->
<g id="edge27_Node000009_Node000012" class="edge">
<title>Node9&#45;&gt;Node12</title>
<g id="a_edge27_Node000009_Node000012"><a xlink:title=" ">
<path fill="none" stroke="#63b8ff" d="M709.3,-265.7C720.96,-257.8 732.66,-247.83 740.62,-236 765.77,-198.67 779.1,-175 756.62,-136 747.28,-119.78 730.59,-108.25 714.23,-100.31"/>
<polygon fill="#63b8ff" stroke="#63b8ff" points="707.6,-263.27 701.03,-271.59 711.35,-269.18 707.6,-263.27"/>
</a>
</g>
</g>
<!-- Node9&#45;&gt;Node13 -->
<g id="edge30_Node000009_Node000013" class="edge">
<title>Node9&#45;&gt;Node13</title>
<g id="a_edge30_Node000009_Node000013"><a xlink:title=" ">
<path fill="none" stroke="#63b8ff" d="M722.92,-266.85C737.8,-259.12 752.8,-248.96 763.62,-236 797.9,-194.97 808.37,-129.41 811.43,-100.06"/>
<polygon fill="#63b8ff" stroke="#63b8ff" points="721.66,-264.05 714.2,-271.58 724.72,-270.35 721.66,-264.05"/>
</a>
</g>
</g>
<!-- Node10&#45;&gt;Node8 -->
<g id="edge24_Node000010_Node000008" class="edge">
<title>Node10&#45;&gt;Node8</title>
<g id="a_edge24_Node000010_Node000008"><a xlink:title=" ">
<path fill="none" stroke="#63b8ff" d="M594.53,-211.28C539.21,-203.8 470.25,-190.27 452.62,-168 434.21,-144.74 465.25,-117.22 489.93,-100.44"/>
<polygon fill="#63b8ff" stroke="#63b8ff" points="594.02,-214.87 604.39,-212.69 594.93,-207.93 594.02,-214.87"/>
</a>
</g>
</g>
<!-- Node11 -->
<g id="Node000011" class="node">
<title>Node11</title>
<g id="a_Node000011"><a xlink:href="FMTlpmodel_8hpp.html" target="_top" xlink:title=" ">
<polygon fill="white" stroke="#666666" points="587.38,-168 461.88,-168 461.88,-136 587.38,-136 587.38,-168"/>
<text text-anchor="start" x="469.88" y="-154.5" font-family="Helvetica,sans-Serif" font-size="10.00">C:/Temp/out/FMT/Include</text>
<text text-anchor="middle" x="524.62" y="-142.5" font-family="Helvetica,sans-Serif" font-size="10.00">/FMTlpmodel.hpp</text>
</a>
</g>
</g>
<!-- Node10&#45;&gt;Node11 -->
<g id="edge14_Node000010_Node000011" class="edge">
<title>Node10&#45;&gt;Node11</title>
<g id="a_edge14_Node000010_Node000011"><a xlink:title=" ">
<path fill="none" stroke="#63b8ff" d="M625.01,-199.01C603.55,-189.17 578.09,-177.5 558.18,-168.38"/>
<polygon fill="#63b8ff" stroke="#63b8ff" points="623.31,-202.54 633.86,-203.53 626.23,-196.18 623.31,-202.54"/>
</a>
</g>
</g>
<!-- Node10&#45;&gt;Node12 -->
<g id="edge23_Node000010_Node000012" class="edge">
<title>Node10&#45;&gt;Node12</title>
<g id="a_edge23_Node000010_Node000012"><a xlink:title=" ">
<path fill="none" stroke="#63b8ff" d="M712.21,-197.91C723.52,-190.17 734.3,-180.24 740.62,-168 747.16,-155.37 747.16,-148.63 740.62,-136 732.6,-120.49 717.45,-108.68 703.1,-100.35"/>
<polygon fill="#63b8ff" stroke="#63b8ff" points="710.7,-195.36 704.1,-203.65 714.43,-201.28 710.7,-195.36"/>
</a>
</g>
</g>
<!-- Node10&#45;&gt;Node13 -->
<g id="edge25_Node000010_Node000013" class="edge">
<title>Node10&#45;&gt;Node13</title>
<g id="a_edge25_Node000010_Node000013"><a xlink:title=" ">
<path fill="none" stroke="#63b8ff" d="M712.79,-198.51C727.71,-190.32 743.82,-179.96 756.62,-168 778.09,-147.95 795.62,-118.2 805.06,-100.3"/>
<polygon fill="#63b8ff" stroke="#63b8ff" points="711.41,-195.81 704.2,-203.58 714.68,-202 711.41,-195.81"/>
</a>
</g>
</g>
<!-- Node14 -->
<g id="Node000014" class="node">
<title>Node14</title>
<g id="a_Node000014"><a xlink:href="FMTnssmodel_8hpp.html" target="_top" xlink:title=" ">
<polygon fill="white" stroke="#666666" points="731.38,-168 605.88,-168 605.88,-136 731.38,-136 731.38,-168"/>
<text text-anchor="start" x="613.88" y="-154.5" font-family="Helvetica,sans-Serif" font-size="10.00">C:/Temp/out/FMT/Include</text>
<text text-anchor="middle" x="668.62" y="-142.5" font-family="Helvetica,sans-Serif" font-size="10.00">/FMTnssmodel.hpp</text>
</a>
</g>
</g>
<!-- Node10&#45;&gt;Node14 -->
<g id="edge19_Node000010_Node000014" class="edge">
<title>Node10&#45;&gt;Node14</title>
<g id="a_edge19_Node000010_Node000014"><a xlink:title=" ">
<path fill="none" stroke="#63b8ff" d="M668.62,-192.89C668.62,-184.52 668.62,-175.54 668.62,-168.22"/>
<polygon fill="#63b8ff" stroke="#63b8ff" points="665.13,-192.69 668.62,-202.69 672.13,-192.69 665.13,-192.69"/>
</a>
</g>
</g>
<!-- Node11&#45;&gt;Node7 -->
<g id="edge15_Node000011_Node000007" class="edge">
<title>Node11&#45;&gt;Node7</title>
<g id="a_edge15_Node000011_Node000007"><a xlink:title=" ">
<path fill="none" stroke="#63b8ff" d="M478.94,-131.29C456.1,-121.44 428.86,-109.69 407.54,-100.49"/>
<polygon fill="#63b8ff" stroke="#63b8ff" points="477.18,-134.78 487.75,-135.53 479.96,-128.35 477.18,-134.78"/>
</a>
</g>
</g>
<!-- Node11&#45;&gt;Node8 -->
<g id="edge17_Node000011_Node000008" class="edge">
<title>Node11&#45;&gt;Node8</title>
<g id="a_edge17_Node000011_Node000008"><a xlink:title=" ">
<path fill="none" stroke="#63b8ff" d="M521.06,-124.89C519.92,-116.52 518.7,-107.54 517.7,-100.22"/>
<polygon fill="#63b8ff" stroke="#63b8ff" points="517.72,-125.26 522.54,-134.69 524.65,-124.31 517.72,-125.26"/>
</a>
</g>
</g>
<!-- Node11&#45;&gt;Node12 -->
<g id="edge16_Node000011_Node000012" class="edge">
<title>Node11&#45;&gt;Node12</title>
<g id="a_edge16_Node000011_Node000012"><a xlink:title=" ">
<path fill="none" stroke="#63b8ff" d="M568.24,-131.01C589.7,-121.17 615.16,-109.5 635.07,-100.38"/>
<polygon fill="#63b8ff" stroke="#63b8ff" points="567.02,-128.18 559.39,-135.53 569.94,-134.54 567.02,-128.18"/>
</a>
</g>
</g>
<!-- Node11&#45;&gt;Node13 -->
<g id="edge18_Node000011_Node000013" class="edge">
<title>Node11&#45;&gt;Node13</title>
<g id="a_edge18_Node000011_Node000013"><a xlink:title=" ">
<path fill="none" stroke="#63b8ff" d="M598.5,-134.07C645.26,-123.36 705.05,-109.65 749.57,-99.45"/>
<polygon fill="#63b8ff" stroke="#63b8ff" points="597.79,-130.87 588.83,-136.52 599.36,-137.69 597.79,-130.87"/>
</a>
</g>
</g>
<!-- Node14&#45;&gt;Node8 -->
<g id="edge21_Node000014_Node000008" class="edge">
<title>Node14&#45;&gt;Node8</title>
<g id="a_edge21_Node000014_Node000008"><a xlink:title=" ">
<path fill="none" stroke="#63b8ff" d="M622.94,-131.29C600.1,-121.44 572.86,-109.69 551.54,-100.49"/>
<polygon fill="#63b8ff" stroke="#63b8ff" points="621.18,-134.78 631.75,-135.53 623.96,-128.35 621.18,-134.78"/>
</a>
</g>
</g>
<!-- Node14&#45;&gt;Node12 -->
<g id="edge20_Node000014_Node000012" class="edge">
<title>Node14&#45;&gt;Node12</title>
<g id="a_edge20_Node000014_Node000012"><a xlink:title=" ">
<path fill="none" stroke="#63b8ff" d="M668.62,-124.89C668.62,-116.52 668.62,-107.54 668.62,-100.22"/>
<polygon fill="#63b8ff" stroke="#63b8ff" points="665.13,-124.69 668.62,-134.69 672.13,-124.69 665.13,-124.69"/>
</a>
</g>
</g>
<!-- Node14&#45;&gt;Node13 -->
<g id="edge22_Node000014_Node000013" class="edge">
<title>Node14&#45;&gt;Node13</title>
<g id="a_edge22_Node000014_Node000013"><a xlink:title=" ">
<path fill="none" stroke="#63b8ff" d="M712.24,-131.01C733.7,-121.17 759.16,-109.5 779.07,-100.38"/>
<polygon fill="#63b8ff" stroke="#63b8ff" points="711.02,-128.18 703.39,-135.53 713.94,-134.54 711.02,-128.18"/>
</a>
</g>
</g>
</g>
</svg>

<g id="navigator" transform="translate(0 0)" fill="#404254">
  <rect fill="#f2f5e9" fill-opacity="0.5" stroke="#606060" stroke-width=".5" x="0" y="0" width="60" height="60"/>
  <use id="zoomplus" xlink:href="#zoomPlus" x="17" y="9" onmousedown="handleZoom(evt,'in')"/>
  <use id="zoomminus" xlink:href="#zoomMin" x="42" y="9" onmousedown="handleZoom(evt,'out')"/>
  <use id="reset" xlink:href="#resetDef" x="30" y="36" onmousedown="handleReset()"/>
   <use id="arrowup" xlink:href="#arrowUp" x="0" y="0" onmousedown="handlePan(0,-1)"/>
  <use id="arrowright" xlink:href="#arrowRight" x="0" y="0" onmousedown="handlePan(1,0)"/>
  <use id="arrowdown" xlink:href="#arrowDown" x="0" y="0" onmousedown="handlePan(0,1)"/>
  <use id="arrowleft" xlink:href="#arrowLeft" x="0" y="0" onmousedown="handlePan(-1,0)"/>
</g>
<svg viewBox="0 0 15 15" width="100%" height="30px" preserveAspectRatio="xMaxYMin meet">
 <g id="arrow_out" transform="scale(0.3 0.3)">
  <a xlink:href="FMTsolverinterface_8hpp__dep__incl_org.svg" target="_base">
   <rect id="button" ry="5" rx="5" y="6" x="6" height="38" width="38"
        fill="#f2f5e9" fill-opacity="0.5" stroke="#606060" stroke-width="1.0"/>
   <path id="arrow"
     d="M 11.500037,31.436501 C 11.940474,20.09759 22.043105,11.32322 32.158766,21.979434 L 37.068811,17.246167 C 37.068811,17.246167 37.088388,32 37.088388,32 L 22.160133,31.978069 C 22.160133,31.978069 26.997745,27.140456 26.997745,27.140456 C 18.528582,18.264221 13.291696,25.230495 11.500037,31.436501 z"
     style="fill:#404040;"/>
  </a>
 </g>
</svg>

<style type='text/css'>
<![CDATA[
[data-mouse-over-selected='false'] { opacity: 0.7; }
[data-mouse-over-selected='true']  { opacity: 1.0; }
]]>
</style>
<script type="application/ecmascript"><![CDATA[
document.addEventListener('DOMContentLoaded', (event) => {
  highlightEdges();
  highlightAdjacentNodes();
});
]]></script>
</svg>
