<?xml version="1.0" encoding="UTF-8" standalone="no"?>
<!DOCTYPE svg PUBLIC "-//W3C//DTD SVG 1.1//EN"
 "http://www.w3.org/Graphics/SVG/1.1/DTD/svg11.dtd">
<!-- Generated by graphviz version 10.0.1 (20240210.2158)
 -->
<!-- Title: D:/FMT/Include/FMTspatialnodescache.hpp Pages: 1 -->
<!--zoomable 444 -->
<svg id="main" version="1.1" xmlns="http://www.w3.org/2000/svg" xmlns:xlink="http://www.w3.org/1999/xlink" xml:space="preserve" onload="init(evt)">
<style type="text/css"><![CDATA[
.edge:hover path { stroke: red; }
.edge:hover polygon { stroke: red; fill: red; }
]]></style>
<script type="text/javascript"><![CDATA[
var edges = document.getElementsByTagName('g');
if (edges && edges.length) {
  for (var i=0;i<edges.length;i++) {
    if (edges[i].id.substr(0,4)=='edge') {
      edges[i].setAttribute('class','edge');
    }
  }
}
]]></script>
        <defs>
                <circle id="rim" cx="0" cy="0" r="7"/>
                <circle id="rim2" cx="0" cy="0" r="3.5"/>
                <g id="zoomPlus">
                        <use xlink:href="#rim" fill="#404040">
                                <set attributeName="fill" to="#808080" begin="zoomplus.mouseover" end="zoomplus.mouseout"/>
                        </use>
                        <path d="M-4,0h8M0,-4v8" fill="none" stroke="white" stroke-width="1.5" pointer-events="none"/>
                </g>
                <g id="zoomMin">
                        <use xlink:href="#rim" fill="#404040">
                                <set attributeName="fill" to="#808080" begin="zoomminus.mouseover" end="zoomminus.mouseout"/>
                        </use>
                        <path d="M-4,0h8" fill="none" stroke="white" stroke-width="1.5" pointer-events="none"/>
                </g>
                <g id="dirArrow">
                        <path fill="none" stroke="white" stroke-width="1.5" d="M0,-3.0v7 M-2.5,-0.5L0,-3.0L2.5,-0.5"/>
                </g>
               <g id="resetDef">
                       <use xlink:href="#rim2" fill="#404040">
                               <set attributeName="fill" to="#808080" begin="reset.mouseover" end="reset.mouseout"/>
                       </use>
               </g>
        </defs>

<script type="text/javascript">
var viewWidth = 2678;
var viewHeight = 444;
var sectionId = 'dynsection-0';
</script>
<script xlink:href="svgpan.js"/>
<svg id="graph" class="graph">
<g id="viewport">
<title>D:/FMT/Include/FMTspatialnodescache.hpp</title>
<!-- Node1 -->
<g id="node1" class="node">
<title>Node1</title>
<g id="a_node1"><a xlink:title=" ">
<polygon fill="#999999" stroke="#666666" points="1271.12,-436 1066.88,-436 1066.88,-416 1271.12,-416 1271.12,-436"/>
<text text-anchor="middle" x="1169" y="-422.5" font-family="Helvetica,sans-Serif" font-size="10.00">D:/FMT/Include/FMTspatialnodescache.hpp</text>
</a>
</g>
</g>
<!-- Node2 -->
<g id="node2" class="node">
<title>Node2</title>
<g id="a_node2"><a xlink:title=" ">
<polygon fill="#e0e0e0" stroke="#999999" points="224.38,-150 141.62,-150 141.62,-130 224.38,-130 224.38,-150"/>
<text text-anchor="middle" x="183" y="-136.5" font-family="Helvetica,sans-Serif" font-size="10.00">unordered_map</text>
</a>
</g>
</g>
<!-- Node1&#45;&gt;Node2 -->
<g id="edge1" class="edge">
<title>Node1&#45;&gt;Node2</title>
<path fill="none" stroke="#63b8ff" d="M1066.4,-424.92C801.29,-423.35 114,-410.13 114,-315 114,-315 114,-315 114,-257 114,-217.43 144.03,-179.59 164.46,-158.41"/>
<polygon fill="#63b8ff" stroke="#63b8ff" points="166.82,-161 171.45,-151.47 161.89,-156.04 166.82,-161"/>
</g>
<!-- Node3 -->
<g id="node3" class="node">
<title>Node3</title>
<g id="a_node3"><a xlink:title=" ">
<polygon fill="#e0e0e0" stroke="#999999" points="2656.38,-150 2621.62,-150 2621.62,-130 2656.38,-130 2656.38,-150"/>
<text text-anchor="middle" x="2639" y="-136.5" font-family="Helvetica,sans-Serif" font-size="10.00">map</text>
</a>
</g>
</g>
<!-- Node1&#45;&gt;Node3 -->
<g id="edge2" class="edge">
<title>Node1&#45;&gt;Node3</title>
<path fill="none" stroke="#63b8ff" d="M1271.58,-422.86C1610.06,-415.11 2670,-385.26 2670,-315 2670,-315 2670,-315 2670,-257 2670,-222.21 2656.82,-183.47 2647.65,-160.73"/>
<polygon fill="#63b8ff" stroke="#63b8ff" points="2651,-159.66 2643.9,-151.79 2644.54,-162.37 2651,-159.66"/>
</g>
<!-- Node4 -->
<g id="node4" class="node">
<title>Node4</title>
<g id="a_node4"><a xlink:href="FMTmask_8hpp.html" target="_top" xlink:title=" ">
<polygon fill="white" stroke="#666666" points="1585.12,-212 1506.88,-212 1506.88,-192 1585.12,-192 1585.12,-212"/>
<text text-anchor="middle" x="1546" y="-198.5" font-family="Helvetica,sans-Serif" font-size="10.00">FMTmask.hpp</text>
</a>
</g>
</g>
<!-- Node1&#45;&gt;Node4 -->
<g id="edge3" class="edge">
<title>Node1&#45;&gt;Node4</title>
<path fill="none" stroke="#63b8ff" d="M1174.55,-415.85C1193.02,-386.21 1255.75,-292.27 1334,-248 1384.16,-219.62 1450.19,-209.09 1495.14,-205.21"/>
<polygon fill="#63b8ff" stroke="#63b8ff" points="1495.17,-208.72 1504.87,-204.46 1494.63,-201.74 1495.17,-208.72"/>
</g>
<!-- Node20 -->
<g id="node20" class="node">
<title>Node20</title>
<g id="a_node20"><a xlink:href="FMTutility_8hpp.html" target="_top" xlink:title=" ">
<polygon fill="white" stroke="#666666" points="114.75,-20 37.25,-20 37.25,0 114.75,0 114.75,-20"/>
<text text-anchor="middle" x="76" y="-6.5" font-family="Helvetica,sans-Serif" font-size="10.00">FMTutility.hpp</text>
</a>
</g>
</g>
<!-- Node1&#45;&gt;Node20 -->
<g id="edge74" class="edge">
<title>Node1&#45;&gt;Node20</title>
<path fill="none" stroke="#63b8ff" d="M1066.56,-424.15C849.53,-421.72 349.69,-412.65 183,-380 98.3,-363.41 0,-401.31 0,-315 0,-315 0,-315 0,-139 0,-94.08 35.03,-51.16 57.52,-28.22"/>
<polygon fill="#63b8ff" stroke="#63b8ff" points="59.67,-31.02 64.35,-21.51 54.77,-26.03 59.67,-31.02"/>
</g>
<!-- Node22 -->
<g id="node22" class="node">
<title>Node22</title>
<g id="a_node22"><a xlink:href="FMToutputnode_8hpp.html" target="_top" xlink:title=" ">
<polygon fill="white" stroke="#666666" points="1358.12,-380 1255.88,-380 1255.88,-360 1358.12,-360 1358.12,-380"/>
<text text-anchor="middle" x="1307" y="-366.5" font-family="Helvetica,sans-Serif" font-size="10.00">FMToutputnode.hpp</text>
</a>
</g>
</g>
<!-- Node1&#45;&gt;Node22 -->
<g id="edge22" class="edge">
<title>Node1&#45;&gt;Node22</title>
<path fill="none" stroke="#63b8ff" d="M1193.04,-415.59C1214.97,-407.01 1247.63,-394.23 1272.37,-384.55"/>
<polygon fill="#63b8ff" stroke="#63b8ff" points="1273.33,-387.93 1281.37,-381.03 1270.78,-381.42 1273.33,-387.93"/>
</g>
<!-- Node5 -->
<g id="node5" class="node">
<title>Node5</title>
<g id="a_node5"><a xlink:title=" ">
<polygon fill="#e0e0e0" stroke="#999999" points="1505.88,-150 1378.12,-150 1378.12,-130 1505.88,-130 1505.88,-150"/>
<text text-anchor="middle" x="1442" y="-136.5" font-family="Helvetica,sans-Serif" font-size="10.00">boost/dynamic_bitset.hpp</text>
</a>
</g>
</g>
<!-- Node4&#45;&gt;Node5 -->
<g id="edge4" class="edge">
<title>Node4&#45;&gt;Node5</title>
<path fill="none" stroke="#63b8ff" d="M1529.75,-191.62C1513.19,-182.07 1487.25,-167.11 1467.86,-155.92"/>
<polygon fill="#63b8ff" stroke="#63b8ff" points="1469.86,-153.03 1459.45,-151.07 1466.36,-159.09 1469.86,-153.03"/>
</g>
<!-- Node6 -->
<g id="node6" class="node">
<title>Node6</title>
<g id="a_node6"><a xlink:title=" ">
<polygon fill="#e0e0e0" stroke="#999999" points="1652.25,-150 1523.75,-150 1523.75,-130 1652.25,-130 1652.25,-150"/>
<text text-anchor="middle" x="1588" y="-136.5" font-family="Helvetica,sans-Serif" font-size="10.00">boost/unordered_map.hpp</text>
</a>
</g>
</g>
<!-- Node4&#45;&gt;Node6 -->
<g id="edge5" class="edge">
<title>Node4&#45;&gt;Node6</title>
<path fill="none" stroke="#63b8ff" d="M1552.56,-191.62C1558.58,-183.03 1567.65,-170.07 1575.11,-159.41"/>
<polygon fill="#63b8ff" stroke="#63b8ff" points="1577.89,-161.55 1580.75,-151.35 1572.15,-157.54 1577.89,-161.55"/>
</g>
<!-- Node7 -->
<g id="node7" class="node">
<title>Node7</title>
<g id="a_node7"><a xlink:title=" ">
<polygon fill="#e0e0e0" stroke="#999999" points="1799.25,-150 1670.75,-150 1670.75,-130 1799.25,-130 1799.25,-150"/>
<text text-anchor="middle" x="1735" y="-136.5" font-family="Helvetica,sans-Serif" font-size="10.00">boost/algorithm/string.hpp</text>
</a>
</g>
</g>
<!-- Node4&#45;&gt;Node7 -->
<g id="edge6" class="edge">
<title>Node4&#45;&gt;Node7</title>
<path fill="none" stroke="#63b8ff" d="M1575.53,-191.62C1607.62,-181.44 1659.06,-165.11 1694.81,-153.76"/>
<polygon fill="#63b8ff" stroke="#63b8ff" points="1695.45,-157.23 1703.92,-150.87 1693.33,-150.56 1695.45,-157.23"/>
</g>
<!-- Node8 -->
<g id="node8" class="node">
<title>Node8</title>
<g id="a_node8"><a xlink:title=" ">
<polygon fill="#e0e0e0" stroke="#999999" points="1359.88,-156 1250.12,-156 1250.12,-124 1359.88,-124 1359.88,-156"/>
<text text-anchor="start" x="1258.12" y="-142.5" font-family="Helvetica,sans-Serif" font-size="10.00">boost/algorithm/string</text>
<text text-anchor="middle" x="1305" y="-130.5" font-family="Helvetica,sans-Serif" font-size="10.00">/join.hpp</text>
</a>
</g>
</g>
<!-- Node4&#45;&gt;Node8 -->
<g id="edge7" class="edge">
<title>Node4&#45;&gt;Node8</title>
<path fill="none" stroke="#63b8ff" d="M1508.08,-191.56C1471.42,-182.43 1415.11,-168.41 1371.08,-157.45"/>
<polygon fill="#63b8ff" stroke="#63b8ff" points="1372.18,-154.12 1361.63,-155.1 1370.49,-160.91 1372.18,-154.12"/>
</g>
<!-- Node9 -->
<g id="node9" class="node">
<title>Node9</title>
<g id="a_node9"><a xlink:title=" ">
<polygon fill="#e0e0e0" stroke="#999999" points="2245.5,-150 2118.5,-150 2118.5,-130 2245.5,-130 2245.5,-150"/>
<text text-anchor="middle" x="2182" y="-136.5" font-family="Helvetica,sans-Serif" font-size="10.00">boost/functional/hash.hpp</text>
</a>
</g>
</g>
<!-- Node4&#45;&gt;Node9 -->
<g id="edge8" class="edge">
<title>Node4&#45;&gt;Node9</title>
<path fill="none" stroke="#63b8ff" d="M1585.43,-199.52C1677.5,-195.69 1913.63,-183.77 2109,-156 2115.56,-155.07 2122.43,-153.91 2129.2,-152.65"/>
<polygon fill="#63b8ff" stroke="#63b8ff" points="2129.83,-156.09 2138.98,-150.74 2128.49,-149.22 2129.83,-156.09"/>
</g>
<!-- Node10 -->
<g id="node10" class="node">
<title>Node10</title>
<g id="a_node10"><a xlink:title=" ">
<polygon fill="#e0e0e0" stroke="#999999" points="2100.38,-156 2005.62,-156 2005.62,-124 2100.38,-124 2100.38,-156"/>
<text text-anchor="start" x="2013.62" y="-142.5" font-family="Helvetica,sans-Serif" font-size="10.00">boost/serialization</text>
<text text-anchor="middle" x="2053" y="-130.5" font-family="Helvetica,sans-Serif" font-size="10.00">/serialization.hpp</text>
</a>
</g>
</g>
<!-- Node4&#45;&gt;Node10 -->
<g id="edge9" class="edge">
<title>Node4&#45;&gt;Node10</title>
<path fill="none" stroke="#63b8ff" d="M1585.33,-198.89C1663.34,-194.31 1843.03,-181.7 1992,-156 1992.67,-155.88 1993.35,-155.76 1994.03,-155.64"/>
<polygon fill="#63b8ff" stroke="#63b8ff" points="1994.57,-159.1 2003.7,-153.73 1993.21,-152.24 1994.57,-159.1"/>
</g>
<!-- Node11 -->
<g id="node11" class="node">
<title>Node11</title>
<g id="a_node11"><a xlink:title=" ">
<polygon fill="#e0e0e0" stroke="#999999" points="1912.38,-156 1817.62,-156 1817.62,-124 1912.38,-124 1912.38,-156"/>
<text text-anchor="start" x="1825.62" y="-142.5" font-family="Helvetica,sans-Serif" font-size="10.00">boost/serialization</text>
<text text-anchor="middle" x="1865" y="-130.5" font-family="Helvetica,sans-Serif" font-size="10.00">/split_free.hpp</text>
</a>
</g>
</g>
<!-- Node4&#45;&gt;Node11 -->
<g id="edge10" class="edge">
<title>Node4&#45;&gt;Node11</title>
<path fill="none" stroke="#63b8ff" d="M1585.27,-195.35C1634.53,-188.02 1721.8,-174.25 1806.11,-156.29"/>
<polygon fill="#63b8ff" stroke="#63b8ff" points="1806.66,-159.76 1815.7,-154.23 1805.19,-152.91 1806.66,-159.76"/>
</g>
<!-- Node12 -->
<g id="node12" class="node">
<title>Node12</title>
<g id="a_node12"><a xlink:title=" ">
<polygon fill="#e0e0e0" stroke="#999999" points="1096.38,-156 1001.62,-156 1001.62,-124 1096.38,-124 1096.38,-156"/>
<text text-anchor="start" x="1009.62" y="-142.5" font-family="Helvetica,sans-Serif" font-size="10.00">boost/serialization</text>
<text text-anchor="middle" x="1049" y="-130.5" font-family="Helvetica,sans-Serif" font-size="10.00">/nvp.hpp</text>
</a>
</g>
</g>
<!-- Node4&#45;&gt;Node12 -->
<g id="edge11" class="edge">
<title>Node4&#45;&gt;Node12</title>
<path fill="none" stroke="#63b8ff" d="M1506.45,-197.21C1434.17,-190.14 1275.9,-174.01 1143,-156 1131.7,-154.47 1119.66,-152.67 1108.11,-150.87"/>
<polygon fill="#63b8ff" stroke="#63b8ff" points="1108.68,-147.41 1098.25,-149.3 1107.58,-154.33 1108.68,-147.41"/>
</g>
<!-- Node13 -->
<g id="node13" class="node">
<title>Node13</title>
<g id="a_node13"><a xlink:title=" ">
<polygon fill="#e0e0e0" stroke="#999999" points="450.38,-88 355.62,-88 355.62,-56 450.38,-56 450.38,-88"/>
<text text-anchor="start" x="363.62" y="-74.5" font-family="Helvetica,sans-Serif" font-size="10.00">boost/serialization</text>
<text text-anchor="middle" x="403" y="-62.5" font-family="Helvetica,sans-Serif" font-size="10.00">/export.hpp</text>
</a>
</g>
</g>
<!-- Node4&#45;&gt;Node13 -->
<g id="edge12" class="edge">
<title>Node4&#45;&gt;Node13</title>
<path fill="none" stroke="#63b8ff" d="M1506.48,-195.75C1426.71,-185.08 1253,-161.41 1241,-156 1220.87,-146.93 1223.55,-132.07 1203,-124 1052.36,-64.85 641.14,-111.14 461.95,-87.93"/>
<polygon fill="#63b8ff" stroke="#63b8ff" points="462.63,-84.49 452.24,-86.55 461.65,-91.42 462.63,-84.49"/>
</g>
<!-- Node14 -->
<g id="node14" class="node">
<title>Node14</title>
<g id="a_node14"><a xlink:title=" ">
<polygon fill="#e0e0e0" stroke="#999999" points="2358.38,-156 2263.62,-156 2263.62,-124 2358.38,-124 2358.38,-156"/>
<text text-anchor="start" x="2271.62" y="-142.5" font-family="Helvetica,sans-Serif" font-size="10.00">boost/serialization</text>
<text text-anchor="middle" x="2311" y="-130.5" font-family="Helvetica,sans-Serif" font-size="10.00">/string.hpp</text>
</a>
</g>
</g>
<!-- Node4&#45;&gt;Node14 -->
<g id="edge13" class="edge">
<title>Node4&#45;&gt;Node14</title>
<path fill="none" stroke="#63b8ff" d="M1585.51,-201.23C1691.97,-201.26 1993.74,-197.53 2252.07,-156.28"/>
<polygon fill="#63b8ff" stroke="#63b8ff" points="2252.37,-159.78 2261.68,-154.72 2251.25,-152.87 2252.37,-159.78"/>
</g>
<!-- Node15 -->
<g id="node15" class="node">
<title>Node15</title>
<g id="a_node15"><a xlink:href="FMTexception_8hpp.html" target="_top" xlink:title=" ">
<polygon fill="white" stroke="#666666" points="1248.12,-82 1151.88,-82 1151.88,-62 1248.12,-62 1248.12,-82"/>
<text text-anchor="middle" x="1200" y="-68.5" font-family="Helvetica,sans-Serif" font-size="10.00">FMTexception.hpp</text>
</a>
</g>
</g>
<!-- Node4&#45;&gt;Node15 -->
<g id="edge14" class="edge">
<title>Node4&#45;&gt;Node15</title>
<path fill="none" stroke="#63b8ff" d="M1585.4,-199.18C1677.15,-194.54 1898.97,-180.83 1921,-156 1930.44,-145.36 1930.7,-134.41 1921,-124 1876.33,-76.06 1424.62,-72.4 1259.79,-72.67"/>
<polygon fill="#63b8ff" stroke="#63b8ff" points="1259.93,-69.17 1249.94,-72.7 1259.95,-76.17 1259.93,-69.17"/>
</g>
<!-- Node17 -->
<g id="node17" class="node">
<title>Node17</title>
<g id="a_node17"><a xlink:title=" ">
<polygon fill="#e0e0e0" stroke="#999999" points="1813,-20 1773,-20 1773,0 1813,0 1813,-20"/>
<text text-anchor="middle" x="1793" y="-6.5" font-family="Helvetica,sans-Serif" font-size="10.00">string</text>
</a>
</g>
</g>
<!-- Node4&#45;&gt;Node17 -->
<g id="edge21" class="edge">
<title>Node4&#45;&gt;Node17</title>
<path fill="none" stroke="#63b8ff" d="M1585.42,-195.9C1595.7,-194.6 1606.76,-193.22 1617,-192 1688.27,-183.49 1890.16,-209.51 1938,-156 1983.72,-104.87 1878.5,-48.58 1823.64,-23.85"/>
<polygon fill="#63b8ff" stroke="#63b8ff" points="1825.34,-20.77 1814.78,-19.94 1822.52,-27.18 1825.34,-20.77"/>
</g>
<!-- Node21 -->
<g id="node21" class="node">
<title>Node21</title>
<g id="a_node21"><a xlink:title=" ">
<polygon fill="#e0e0e0" stroke="#999999" points="1193.75,-150 1152.25,-150 1152.25,-130 1193.75,-130 1193.75,-150"/>
<text text-anchor="middle" x="1173" y="-136.5" font-family="Helvetica,sans-Serif" font-size="10.00">vector</text>
</a>
</g>
</g>
<!-- Node4&#45;&gt;Node21 -->
<g id="edge20" class="edge">
<title>Node4&#45;&gt;Node21</title>
<path fill="none" stroke="#63b8ff" d="M1506.6,-196.05C1420.54,-185.18 1222.27,-159.93 1208,-156 1206.2,-155.51 1204.38,-154.94 1202.55,-154.32"/>
<polygon fill="#63b8ff" stroke="#63b8ff" points="1204.29,-151.24 1193.7,-150.92 1201.78,-157.77 1204.29,-151.24"/>
</g>
<!-- Node16 -->
<g id="node16" class="node">
<title>Node16</title>
<g id="a_node16"><a xlink:title=" ">
<polygon fill="#e0e0e0" stroke="#999999" points="1266,-20 1208,-20 1208,0 1266,0 1266,-20"/>
<text text-anchor="middle" x="1237" y="-6.5" font-family="Helvetica,sans-Serif" font-size="10.00">exception</text>
</a>
</g>
</g>
<!-- Node15&#45;&gt;Node16 -->
<g id="edge15" class="edge">
<title>Node15&#45;&gt;Node16</title>
<path fill="none" stroke="#63b8ff" d="M1205.78,-61.62C1211.03,-53.12 1218.91,-40.33 1225.45,-29.74"/>
<polygon fill="#63b8ff" stroke="#63b8ff" points="1228.32,-31.75 1230.59,-21.4 1222.36,-28.08 1228.32,-31.75"/>
</g>
<!-- Node15&#45;&gt;Node17 -->
<g id="edge16" class="edge">
<title>Node15&#45;&gt;Node17</title>
<path fill="none" stroke="#63b8ff" d="M1248.53,-66.09C1366.04,-54.2 1663.4,-24.11 1761.25,-14.21"/>
<polygon fill="#63b8ff" stroke="#63b8ff" points="1761.57,-17.7 1771.17,-13.21 1760.87,-10.73 1761.57,-17.7"/>
</g>
<!-- Node18 -->
<g id="node18" class="node">
<title>Node18</title>
<g id="a_node18"><a xlink:title=" ">
<polygon fill="#e0e0e0" stroke="#999999" points="1189.75,-20 1136.25,-20 1136.25,0 1189.75,0 1189.75,-20"/>
<text text-anchor="middle" x="1163" y="-6.5" font-family="Helvetica,sans-Serif" font-size="10.00">iostream</text>
</a>
</g>
</g>
<!-- Node15&#45;&gt;Node18 -->
<g id="edge17" class="edge">
<title>Node15&#45;&gt;Node18</title>
<path fill="none" stroke="#63b8ff" d="M1194.22,-61.62C1188.97,-53.12 1181.09,-40.33 1174.55,-29.74"/>
<polygon fill="#63b8ff" stroke="#63b8ff" points="1177.64,-28.08 1169.41,-21.4 1171.68,-31.75 1177.64,-28.08"/>
</g>
<!-- Node19 -->
<g id="node19" class="node">
<title>Node19</title>
<g id="a_node19"><a xlink:title=" ">
<polygon fill="#e0e0e0" stroke="#999999" points="1058.62,-20 1007.38,-20 1007.38,0 1058.62,0 1058.62,-20"/>
<text text-anchor="middle" x="1033" y="-6.5" font-family="Helvetica,sans-Serif" font-size="10.00">memory</text>
</a>
</g>
</g>
<!-- Node15&#45;&gt;Node19 -->
<g id="edge18" class="edge">
<title>Node15&#45;&gt;Node19</title>
<path fill="none" stroke="#63b8ff" d="M1173.91,-61.62C1145.84,-51.54 1101.01,-35.43 1069.46,-24.1"/>
<polygon fill="#63b8ff" stroke="#63b8ff" points="1070.93,-20.91 1060.33,-20.82 1068.56,-27.5 1070.93,-20.91"/>
</g>
<!-- Node15&#45;&gt;Node20 -->
<g id="edge19" class="edge">
<title>Node15&#45;&gt;Node20</title>
<path fill="none" stroke="#63b8ff" d="M1151.55,-62.69C1135.22,-60.16 1116.86,-57.63 1100,-56 727.5,-19.98 275.96,-12.77 126.63,-11.35"/>
<polygon fill="#63b8ff" stroke="#63b8ff" points="126.71,-7.85 116.68,-11.26 126.65,-14.85 126.71,-7.85"/>
</g>
<!-- Node22&#45;&gt;Node3 -->
<g id="edge72" class="edge">
<title>Node22&#45;&gt;Node3</title>
<path fill="none" stroke="#63b8ff" d="M1358.37,-368.51C1587.75,-365.87 2511.33,-350.16 2608,-268 2638.89,-241.74 2641.77,-190.29 2640.68,-161.59"/>
<polygon fill="#63b8ff" stroke="#63b8ff" points="2644.18,-161.46 2640.08,-151.69 2637.19,-161.88 2644.18,-161.46"/>
</g>
<!-- Node22&#45;&gt;Node20 -->
<g id="edge73" class="edge">
<title>Node22&#45;&gt;Node20</title>
<path fill="none" stroke="#63b8ff" d="M1255.39,-366.21C1057,-354.84 344.49,-308.03 142,-212 108.75,-196.23 98.46,-188.4 81,-156 59.56,-116.21 65.72,-60.96 71.32,-31.47"/>
<polygon fill="#63b8ff" stroke="#63b8ff" points="74.75,-32.19 73.37,-21.69 67.9,-30.76 74.75,-32.19"/>
</g>
<!-- Node23 -->
<g id="node23" class="node">
<title>Node23</title>
<g id="a_node23"><a xlink:href="FMToutputsource_8hpp.html" target="_top" xlink:title=" ">
<polygon fill="white" stroke="#666666" points="1446.25,-324 1335.75,-324 1335.75,-304 1446.25,-304 1446.25,-324"/>
<text text-anchor="middle" x="1391" y="-310.5" font-family="Helvetica,sans-Serif" font-size="10.00">FMToutputsource.hpp</text>
</a>
</g>
</g>
<!-- Node22&#45;&gt;Node23 -->
<g id="edge23" class="edge">
<title>Node22&#45;&gt;Node23</title>
<path fill="none" stroke="#63b8ff" d="M1321.63,-359.59C1334.08,-351.59 1352.22,-339.93 1366.82,-330.54"/>
<polygon fill="#63b8ff" stroke="#63b8ff" points="1368.46,-333.65 1374.98,-325.3 1364.68,-327.76 1368.46,-333.65"/>
</g>
<!-- Node23&#45;&gt;Node4 -->
<g id="edge35" class="edge">
<title>Node23&#45;&gt;Node4</title>
<path fill="none" stroke="#63b8ff" d="M1375.34,-303.57C1356.03,-290.76 1327.55,-267.25 1343,-248 1361.74,-224.66 1441.38,-212.67 1495.16,-207.13"/>
<polygon fill="#63b8ff" stroke="#63b8ff" points="1495.43,-210.62 1505.04,-206.16 1494.75,-203.65 1495.43,-210.62"/>
</g>
<!-- Node23&#45;&gt;Node10 -->
<g id="edge37" class="edge">
<title>Node23&#45;&gt;Node10</title>
<path fill="none" stroke="#63b8ff" d="M1427.53,-303.51C1536.68,-275.15 1861.03,-190.88 1994.56,-156.18"/>
<polygon fill="#63b8ff" stroke="#63b8ff" points="1995.1,-159.66 2003.9,-153.76 1993.34,-152.89 1995.1,-159.66"/>
</g>
<!-- Node23&#45;&gt;Node17 -->
<g id="edge38" class="edge">
<title>Node23&#45;&gt;Node17</title>
<path fill="none" stroke="#63b8ff" d="M1446.61,-310.87C1683.2,-301.45 2594,-261.4 2594,-203 2594,-203 2594,-203 2594,-139 2594,-59.64 1972.97,-20.8 1824.57,-12.65"/>
<polygon fill="#63b8ff" stroke="#63b8ff" points="1824.89,-9.16 1814.71,-12.11 1824.51,-16.15 1824.89,-9.16"/>
</g>
<!-- Node23&#45;&gt;Node20 -->
<g id="edge39" class="edge">
<title>Node23&#45;&gt;Node20</title>
<path fill="none" stroke="#63b8ff" d="M1335.62,-309.27C1119.04,-294.55 336.06,-239.87 228,-212 168.66,-196.69 139.81,-204.22 102,-156 73.42,-119.55 72.26,-62.09 74.04,-31.6"/>
<polygon fill="#63b8ff" stroke="#63b8ff" points="77.51,-32.07 74.79,-21.83 70.53,-31.54 77.51,-32.07"/>
</g>
<!-- Node23&#45;&gt;Node21 -->
<g id="edge36" class="edge">
<title>Node23&#45;&gt;Node21</title>
<path fill="none" stroke="#63b8ff" d="M1406.55,-303.67C1425.37,-291.18 1452.91,-268.23 1439,-248 1374.27,-153.87 1302.13,-205.14 1199,-156 1198.78,-155.9 1198.56,-155.79 1198.35,-155.69"/>
<polygon fill="#63b8ff" stroke="#63b8ff" points="1200.27,-152.75 1189.8,-151.16 1197,-158.93 1200.27,-152.75"/>
</g>
<!-- Node24 -->
<g id="node24" class="node">
<title>Node24</title>
<g id="a_node24"><a xlink:href="FMTbounds_8hpp.html" target="_top" xlink:title=" ">
<polygon fill="white" stroke="#666666" points="2353.88,-212 2268.12,-212 2268.12,-192 2353.88,-192 2353.88,-212"/>
<text text-anchor="middle" x="2311" y="-198.5" font-family="Helvetica,sans-Serif" font-size="10.00">FMTbounds.hpp</text>
</a>
</g>
</g>
<!-- Node23&#45;&gt;Node24 -->
<g id="edge24" class="edge">
<title>Node23&#45;&gt;Node24</title>
<path fill="none" stroke="#63b8ff" d="M1446.65,-309.3C1540.1,-302.8 1734.43,-288.11 1898,-268 2027.09,-252.13 2177.81,-226.63 2256.63,-212.76"/>
<polygon fill="#63b8ff" stroke="#63b8ff" points="2257,-216.25 2266.24,-211.06 2255.78,-209.35 2257,-216.25"/>
</g>
<!-- Node27 -->
<g id="node27" class="node">
<title>Node27</title>
<g id="a_node27"><a xlink:title=" ">
<polygon fill="#e0e0e0" stroke="#999999" points="1429.75,-268 1352.25,-268 1352.25,-248 1429.75,-248 1429.75,-268"/>
<text text-anchor="middle" x="1391" y="-254.5" font-family="Helvetica,sans-Serif" font-size="10.00">unordered_set</text>
</a>
</g>
</g>
<!-- Node23&#45;&gt;Node27 -->
<g id="edge40" class="edge">
<title>Node23&#45;&gt;Node27</title>
<path fill="none" stroke="#63b8ff" d="M1391,-303.59C1391,-297.01 1391,-287.96 1391,-279.73"/>
<polygon fill="#63b8ff" stroke="#63b8ff" points="1394.5,-279.81 1391,-269.81 1387.5,-279.81 1394.5,-279.81"/>
</g>
<!-- Node28 -->
<g id="node28" class="node">
<title>Node28</title>
<g id="a_node28"><a xlink:href="FMTdevelopment_8hpp.html" target="_top" xlink:title=" ">
<polygon fill="white" stroke="#666666" points="1141.12,-268 1032.88,-268 1032.88,-248 1141.12,-248 1141.12,-268"/>
<text text-anchor="middle" x="1087" y="-254.5" font-family="Helvetica,sans-Serif" font-size="10.00">FMTdevelopment.hpp</text>
</a>
</g>
</g>
<!-- Node23&#45;&gt;Node28 -->
<g id="edge41" class="edge">
<title>Node23&#45;&gt;Node28</title>
<path fill="none" stroke="#63b8ff" d="M1337.7,-303.53C1285.76,-294.31 1206.75,-280.27 1151.34,-270.43"/>
<polygon fill="#63b8ff" stroke="#63b8ff" points="1152.19,-267.02 1141.73,-268.72 1150.96,-273.92 1152.19,-267.02"/>
</g>
<!-- Node24&#45;&gt;Node3 -->
<g id="edge26" class="edge">
<title>Node24&#45;&gt;Node3</title>
<path fill="none" stroke="#63b8ff" d="M2354.13,-194.48C2406.53,-186.37 2497.53,-171.67 2575,-156 2586.5,-153.67 2599.09,-150.8 2610.03,-148.19"/>
<polygon fill="#63b8ff" stroke="#63b8ff" points="2610.77,-151.61 2619.66,-145.85 2609.12,-144.81 2610.77,-151.61"/>
</g>
<!-- Node24&#45;&gt;Node9 -->
<g id="edge30" class="edge">
<title>Node24&#45;&gt;Node9</title>
<path fill="none" stroke="#63b8ff" d="M2290.84,-191.62C2269.83,-181.85 2236.64,-166.41 2212.43,-155.15"/>
<polygon fill="#63b8ff" stroke="#63b8ff" points="2213.93,-151.99 2203.39,-150.95 2210.98,-158.34 2213.93,-151.99"/>
</g>
<!-- Node24&#45;&gt;Node10 -->
<g id="edge31" class="edge">
<title>Node24&#45;&gt;Node10</title>
<path fill="none" stroke="#63b8ff" d="M2267.76,-191.81C2229.37,-183.53 2171.48,-170.8 2111.99,-156.43"/>
<polygon fill="#63b8ff" stroke="#63b8ff" points="2112.88,-153.05 2102.33,-154.09 2111.22,-159.85 2112.88,-153.05"/>
</g>
<!-- Node24&#45;&gt;Node12 -->
<g id="edge32" class="edge">
<title>Node24&#45;&gt;Node12</title>
<path fill="none" stroke="#63b8ff" d="M2267.65,-201.2C2113.91,-201.5 1580.47,-199.17 1143,-156 1131.65,-154.88 1119.59,-153.27 1108.03,-151.53"/>
<polygon fill="#63b8ff" stroke="#63b8ff" points="1108.59,-148.07 1098.17,-149.98 1107.51,-154.99 1108.59,-148.07"/>
</g>
<!-- Node24&#45;&gt;Node14 -->
<g id="edge33" class="edge">
<title>Node24&#45;&gt;Node14</title>
<path fill="none" stroke="#63b8ff" d="M2311,-191.62C2311,-185.1 2311,-176.05 2311,-167.4"/>
<polygon fill="#63b8ff" stroke="#63b8ff" points="2314.5,-167.65 2311,-157.65 2307.5,-167.65 2314.5,-167.65"/>
</g>
<!-- Node24&#45;&gt;Node15 -->
<g id="edge27" class="edge">
<title>Node24&#45;&gt;Node15</title>
<path fill="none" stroke="#63b8ff" d="M2349.99,-191.54C2368.54,-184.88 2389.03,-173.85 2400,-156 2407.45,-143.89 2409.84,-134.27 2400,-124 2360.21,-82.48 1497.53,-74.65 1260.05,-73.27"/>
<polygon fill="#63b8ff" stroke="#63b8ff" points="1260.09,-69.77 1250.08,-73.22 1260.06,-76.77 1260.09,-69.77"/>
</g>
<!-- Node24&#45;&gt;Node20 -->
<g id="edge28" class="edge">
<title>Node24&#45;&gt;Node20</title>
<path fill="none" stroke="#63b8ff" d="M2330.15,-191.52C2343.18,-183.9 2359.4,-171.86 2367,-156 2373.15,-143.17 2376.91,-134.2 2367,-124 2319.61,-75.19 1210.94,-91.45 1143,-88 751.17,-68.11 279.45,-28.61 126.5,-15.41"/>
<polygon fill="#63b8ff" stroke="#63b8ff" points="126.98,-11.94 116.71,-14.57 126.37,-18.92 126.98,-11.94"/>
</g>
<!-- Node24&#45;&gt;Node21 -->
<g id="edge29" class="edge">
<title>Node24&#45;&gt;Node21</title>
<path fill="none" stroke="#63b8ff" d="M2267.89,-200.2C2094.13,-196.8 1444.73,-182.55 1241,-156 1229.17,-154.46 1216.35,-151.88 1205.06,-149.28"/>
<polygon fill="#63b8ff" stroke="#63b8ff" points="1205.98,-145.9 1195.44,-146.97 1204.35,-152.71 1205.98,-145.9"/>
</g>
<!-- Node25 -->
<g id="node25" class="node">
<title>Node25</title>
<g id="a_node25"><a xlink:title=" ">
<polygon fill="#e0e0e0" stroke="#999999" points="2491.62,-150 2452.38,-150 2452.38,-130 2491.62,-130 2491.62,-150"/>
<text text-anchor="middle" x="2472" y="-136.5" font-family="Helvetica,sans-Serif" font-size="10.00">limits</text>
</a>
</g>
</g>
<!-- Node24&#45;&gt;Node25 -->
<g id="edge25" class="edge">
<title>Node24&#45;&gt;Node25</title>
<path fill="none" stroke="#63b8ff" d="M2339.73,-191.51C2365.62,-182.79 2404.63,-169.25 2438,-156 2439.14,-155.55 2440.3,-155.08 2441.46,-154.6"/>
<polygon fill="#63b8ff" stroke="#63b8ff" points="2442.74,-157.86 2450.58,-150.73 2440,-151.42 2442.74,-157.86"/>
</g>
<!-- Node26 -->
<g id="node26" class="node">
<title>Node26</title>
<g id="a_node26"><a xlink:title=" ">
<polygon fill="#e0e0e0" stroke="#999999" points="2565.88,-150 2510.12,-150 2510.12,-130 2565.88,-130 2565.88,-150"/>
<text text-anchor="middle" x="2538" y="-136.5" font-family="Helvetica,sans-Serif" font-size="10.00">algorithm</text>
</a>
</g>
</g>
<!-- Node24&#45;&gt;Node26 -->
<g id="edge34" class="edge">
<title>Node24&#45;&gt;Node26</title>
<path fill="none" stroke="#63b8ff" d="M2354.15,-192.74C2392.99,-184.84 2451.43,-171.82 2501,-156 2502.57,-155.5 2504.16,-154.96 2505.77,-154.4"/>
<polygon fill="#63b8ff" stroke="#63b8ff" points="2506.75,-157.77 2514.87,-150.98 2504.28,-151.22 2506.75,-157.77"/>
</g>
<!-- Node28&#45;&gt;Node4 -->
<g id="edge42" class="edge">
<title>Node28&#45;&gt;Node4</title>
<path fill="none" stroke="#63b8ff" d="M1141.55,-249.7C1146.1,-249.11 1150.63,-248.54 1155,-248 1276.98,-232.91 1420.58,-216.81 1495.2,-208.57"/>
<polygon fill="#63b8ff" stroke="#63b8ff" points="1495.51,-212.05 1505.06,-207.48 1494.74,-205.1 1495.51,-212.05"/>
</g>
<!-- Node28&#45;&gt;Node10 -->
<g id="edge43" class="edge">
<title>Node28&#45;&gt;Node10</title>
<path fill="none" stroke="#63b8ff" d="M1141.52,-253.94C1282.98,-245.35 1672.99,-217.5 1992,-156 1992.67,-155.87 1993.34,-155.74 1994.02,-155.61"/>
<polygon fill="#63b8ff" stroke="#63b8ff" points="1994.61,-159.06 2003.67,-153.57 1993.16,-152.21 1994.61,-159.06"/>
</g>
<!-- Node28&#45;&gt;Node12 -->
<g id="edge44" class="edge">
<title>Node28&#45;&gt;Node12</title>
<path fill="none" stroke="#63b8ff" d="M1083.89,-247.51C1078.2,-230.15 1065.94,-192.72 1057.58,-167.19"/>
<polygon fill="#63b8ff" stroke="#63b8ff" points="1060.96,-166.27 1054.52,-157.85 1054.31,-168.44 1060.96,-166.27"/>
</g>
<!-- Node28&#45;&gt;Node13 -->
<g id="edge57" class="edge">
<title>Node28&#45;&gt;Node13</title>
<path fill="none" stroke="#63b8ff" d="M1032.63,-255.6C838.81,-250.04 190.11,-226.28 133,-156 36.41,-37.14 -14.3,-164.22 344.41,-88.44"/>
<polygon fill="#63b8ff" stroke="#63b8ff" points="344.89,-91.91 353.94,-86.39 343.42,-85.07 344.89,-91.91"/>
</g>
<!-- Node28&#45;&gt;Node14 -->
<g id="edge45" class="edge">
<title>Node28&#45;&gt;Node14</title>
<path fill="none" stroke="#63b8ff" d="M1141.45,-253.68C1338.42,-241.46 2014.29,-197.64 2251.84,-156.38"/>
<polygon fill="#63b8ff" stroke="#63b8ff" points="2252.44,-159.83 2261.66,-154.62 2251.2,-152.94 2252.44,-159.83"/>
</g>
<!-- Node28&#45;&gt;Node19 -->
<g id="edge55" class="edge">
<title>Node28&#45;&gt;Node19</title>
<path fill="none" stroke="#63b8ff" d="M1090.82,-247.77C1099.35,-225.87 1118.17,-169.19 1105,-124 1094.1,-86.62 1066.68,-49.82 1049,-28.82"/>
<polygon fill="#63b8ff" stroke="#63b8ff" points="1051.83,-26.75 1042.64,-21.48 1046.54,-31.33 1051.83,-26.75"/>
</g>
<!-- Node28&#45;&gt;Node21 -->
<g id="edge56" class="edge">
<title>Node28&#45;&gt;Node21</title>
<path fill="none" stroke="#63b8ff" d="M1100.01,-247.81C1111.16,-239.45 1127.1,-226.26 1138,-212 1149.99,-196.32 1159.54,-175.89 1165.62,-160.97"/>
<polygon fill="#63b8ff" stroke="#63b8ff" points="1168.82,-162.39 1169.18,-151.8 1162.3,-159.86 1168.82,-162.39"/>
</g>
<!-- Node29 -->
<g id="node29" class="node">
<title>Node29</title>
<g id="a_node29"><a xlink:href="FMTobject_8hpp.html" target="_top" xlink:title=" ">
<polygon fill="white" stroke="#666666" points="976.25,-212 895.75,-212 895.75,-192 976.25,-192 976.25,-212"/>
<text text-anchor="middle" x="936" y="-198.5" font-family="Helvetica,sans-Serif" font-size="10.00">FMTobject.hpp</text>
</a>
</g>
</g>
<!-- Node28&#45;&gt;Node29 -->
<g id="edge46" class="edge">
<title>Node28&#45;&gt;Node29</title>
<path fill="none" stroke="#63b8ff" d="M1060.7,-247.59C1036.49,-238.94 1000.32,-226 973.16,-216.29"/>
<polygon fill="#63b8ff" stroke="#63b8ff" points="974.53,-213.06 963.93,-212.99 972.17,-219.65 974.53,-213.06"/>
</g>
<!-- Node33 -->
<g id="node33" class="node">
<title>Node33</title>
<g id="a_node33"><a xlink:href="FMTexceptionhandler_8hpp.html" target="_top" xlink:title=" ">
<polygon fill="white" stroke="#666666" points="537.88,-212 410.12,-212 410.12,-192 537.88,-192 537.88,-212"/>
<text text-anchor="middle" x="474" y="-198.5" font-family="Helvetica,sans-Serif" font-size="10.00">FMTexceptionhandler.hpp</text>
</a>
</g>
</g>
<!-- Node28&#45;&gt;Node33 -->
<g id="edge58" class="edge">
<title>Node28&#45;&gt;Node33</title>
<path fill="none" stroke="#63b8ff" d="M1032.6,-252.21C922.92,-242.55 675.05,-220.71 549.67,-209.67"/>
<polygon fill="#63b8ff" stroke="#63b8ff" points="550.07,-206.19 539.8,-208.8 549.45,-213.16 550.07,-206.19"/>
</g>
<!-- Node29&#45;&gt;Node12 -->
<g id="edge48" class="edge">
<title>Node29&#45;&gt;Node12</title>
<path fill="none" stroke="#63b8ff" d="M953.66,-191.62C968.7,-183.63 990.88,-171.86 1010.06,-161.68"/>
<polygon fill="#63b8ff" stroke="#63b8ff" points="1011.52,-164.86 1018.71,-157.08 1008.24,-158.68 1011.52,-164.86"/>
</g>
<!-- Node29&#45;&gt;Node13 -->
<g id="edge49" class="edge">
<title>Node29&#45;&gt;Node13</title>
<path fill="none" stroke="#63b8ff" d="M932.21,-191.63C924.81,-174.73 906.73,-139.5 879,-124 800.29,-80.01 569.13,-102.24 461.97,-87.92"/>
<polygon fill="#63b8ff" stroke="#63b8ff" points="462.67,-84.49 452.26,-86.43 461.61,-91.41 462.67,-84.49"/>
</g>
<!-- Node29&#45;&gt;Node15 -->
<g id="edge50" class="edge">
<title>Node29&#45;&gt;Node15</title>
<path fill="none" stroke="#63b8ff" d="M940.29,-191.52C948.24,-175.09 966.84,-141.43 993,-124 1036.97,-94.71 1096.27,-82.23 1140.12,-76.92"/>
<polygon fill="#63b8ff" stroke="#63b8ff" points="1140.43,-80.4 1149.98,-75.82 1139.66,-73.45 1140.43,-80.4"/>
</g>
<!-- Node29&#45;&gt;Node19 -->
<g id="edge51" class="edge">
<title>Node29&#45;&gt;Node19</title>
<path fill="none" stroke="#63b8ff" d="M937.7,-191.67C940.61,-176.85 947.29,-147.23 958,-124 974.52,-88.19 1001.52,-50.87 1018.22,-29.35"/>
<polygon fill="#63b8ff" stroke="#63b8ff" points="1020.92,-31.58 1024.36,-21.56 1015.42,-27.25 1020.92,-31.58"/>
</g>
<!-- Node29&#45;&gt;Node21 -->
<g id="edge53" class="edge">
<title>Node29&#45;&gt;Node21</title>
<path fill="none" stroke="#63b8ff" d="M973.29,-191.56C1019.38,-179.89 1097.06,-160.23 1140.71,-149.17"/>
<polygon fill="#63b8ff" stroke="#63b8ff" points="1141.51,-152.58 1150.34,-146.74 1139.79,-145.8 1141.51,-152.58"/>
</g>
<!-- Node30 -->
<g id="node30" class="node">
<title>Node30</title>
<g id="a_node30"><a xlink:title=" ">
<polygon fill="#e0e0e0" stroke="#999999" points="664.38,-156 569.62,-156 569.62,-124 664.38,-124 664.38,-156"/>
<text text-anchor="start" x="577.62" y="-142.5" font-family="Helvetica,sans-Serif" font-size="10.00">boost/serialization</text>
<text text-anchor="middle" x="617" y="-130.5" font-family="Helvetica,sans-Serif" font-size="10.00">/shared_ptr.hpp</text>
</a>
</g>
</g>
<!-- Node29&#45;&gt;Node30 -->
<g id="edge47" class="edge">
<title>Node29&#45;&gt;Node30</title>
<path fill="none" stroke="#63b8ff" d="M895.68,-195.28C846.1,-187.99 759.17,-174.38 675.79,-156.5"/>
<polygon fill="#63b8ff" stroke="#63b8ff" points="676.58,-153.09 666.06,-154.39 675.09,-159.93 676.58,-153.09"/>
</g>
<!-- Node31 -->
<g id="node31" class="node">
<title>Node31</title>
<g id="a_node31"><a xlink:title=" ">
<polygon fill="#e0e0e0" stroke="#999999" points="727.62,-150 682.38,-150 682.38,-130 727.62,-130 727.62,-150"/>
<text text-anchor="middle" x="705" y="-136.5" font-family="Helvetica,sans-Serif" font-size="10.00">chrono</text>
</a>
</g>
</g>
<!-- Node29&#45;&gt;Node31 -->
<g id="edge52" class="edge">
<title>Node29&#45;&gt;Node31</title>
<path fill="none" stroke="#63b8ff" d="M895.27,-194.45C854.54,-187.29 790.44,-174.33 737,-156 735.87,-155.61 734.72,-155.2 733.57,-154.76"/>
<polygon fill="#63b8ff" stroke="#63b8ff" points="735.3,-151.69 724.73,-151.01 732.57,-158.13 735.3,-151.69"/>
</g>
<!-- Node32 -->
<g id="node32" class="node">
<title>Node32</title>
<g id="a_node32"><a xlink:title=" ">
<polygon fill="#e0e0e0" stroke="#999999" points="870.38,-156 745.62,-156 745.62,-124 870.38,-124 870.38,-156"/>
<text text-anchor="start" x="753.62" y="-142.5" font-family="Helvetica,sans-Serif" font-size="10.00">boost/dll/runtime_symbol</text>
<text text-anchor="middle" x="808" y="-130.5" font-family="Helvetica,sans-Serif" font-size="10.00">_info.hpp</text>
</a>
</g>
</g>
<!-- Node29&#45;&gt;Node32 -->
<g id="edge54" class="edge">
<title>Node29&#45;&gt;Node32</title>
<path fill="none" stroke="#63b8ff" d="M916,-191.62C898.72,-183.52 873.14,-171.53 851.22,-161.26"/>
<polygon fill="#63b8ff" stroke="#63b8ff" points="852.71,-158.09 842.17,-157.02 849.74,-164.43 852.71,-158.09"/>
</g>
<!-- Node33&#45;&gt;Node2 -->
<g id="edge65" class="edge">
<title>Node33&#45;&gt;Node2</title>
<path fill="none" stroke="#63b8ff" d="M413.7,-191.58C364.72,-183.49 294.01,-170.8 233,-156 229.9,-155.25 226.71,-154.42 223.52,-153.55"/>
<polygon fill="#63b8ff" stroke="#63b8ff" points="224.77,-150.27 214.19,-150.9 222.85,-157 224.77,-150.27"/>
</g>
<!-- Node33&#45;&gt;Node10 -->
<g id="edge66" class="edge">
<title>Node33&#45;&gt;Node10</title>
<path fill="none" stroke="#63b8ff" d="M538.32,-199.7C781.71,-194.69 1646.35,-175.84 1921,-156 1945.01,-154.27 1971.38,-151.45 1994.2,-148.73"/>
<polygon fill="#63b8ff" stroke="#63b8ff" points="1994.43,-152.23 2003.93,-147.54 1993.58,-145.28 1994.43,-152.23"/>
</g>
<!-- Node33&#45;&gt;Node12 -->
<g id="edge67" class="edge">
<title>Node33&#45;&gt;Node12</title>
<path fill="none" stroke="#63b8ff" d="M538.29,-194.29C650.68,-182.56 881.26,-158.5 989.9,-147.17"/>
<polygon fill="#63b8ff" stroke="#63b8ff" points="990.19,-150.66 999.77,-146.14 989.46,-143.69 990.19,-150.66"/>
</g>
<!-- Node33&#45;&gt;Node13 -->
<g id="edge68" class="edge">
<title>Node33&#45;&gt;Node13</title>
<path fill="none" stroke="#63b8ff" d="M459.92,-191.54C448.84,-183.38 433.84,-170.63 425,-156 414.54,-138.69 408.99,-116.41 406.08,-99.29"/>
<polygon fill="#63b8ff" stroke="#63b8ff" points="409.61,-99.27 404.68,-89.89 402.69,-100.3 409.61,-99.27"/>
</g>
<!-- Node33&#45;&gt;Node19 -->
<g id="edge69" class="edge">
<title>Node33&#45;&gt;Node19</title>
<path fill="none" stroke="#63b8ff" d="M484.36,-191.59C506.45,-171.56 556.55,-126.32 561,-124 709.9,-46.53 912.87,-21.2 995.6,-13.78"/>
<polygon fill="#63b8ff" stroke="#63b8ff" points="995.74,-17.28 1005.4,-12.94 995.14,-10.3 995.74,-17.28"/>
</g>
<!-- Node34 -->
<g id="node34" class="node">
<title>Node34</title>
<g id="a_node34"><a xlink:href="FMTlogger_8hpp.html" target="_top" xlink:title=" ">
<polygon fill="white" stroke="#666666" points="514.25,-150 433.75,-150 433.75,-130 514.25,-130 514.25,-150"/>
<text text-anchor="middle" x="474" y="-136.5" font-family="Helvetica,sans-Serif" font-size="10.00">FMTlogger.hpp</text>
</a>
</g>
</g>
<!-- Node33&#45;&gt;Node34 -->
<g id="edge59" class="edge">
<title>Node33&#45;&gt;Node34</title>
<path fill="none" stroke="#63b8ff" d="M474,-191.62C474,-183.56 474,-171.65 474,-161.41"/>
<polygon fill="#63b8ff" stroke="#63b8ff" points="477.5,-161.63 474,-151.63 470.5,-161.63 477.5,-161.63"/>
</g>
<!-- Node37 -->
<g id="node37" class="node">
<title>Node37</title>
<g id="a_node37"><a xlink:title=" ">
<polygon fill="#e0e0e0" stroke="#999999" points="271.75,-150 242.25,-150 242.25,-130 271.75,-130 271.75,-150"/>
<text text-anchor="middle" x="257" y="-136.5" font-family="Helvetica,sans-Serif" font-size="10.00">set</text>
</a>
</g>
</g>
<!-- Node33&#45;&gt;Node37 -->
<g id="edge70" class="edge">
<title>Node33&#45;&gt;Node37</title>
<path fill="none" stroke="#63b8ff" d="M409.78,-191.5C371.43,-184.5 322.3,-173.16 281,-156 280.77,-155.91 280.55,-155.81 280.32,-155.71"/>
<polygon fill="#63b8ff" stroke="#63b8ff" points="282.1,-152.69 271.62,-151.09 278.81,-158.87 282.1,-152.69"/>
</g>
<!-- Node38 -->
<g id="node38" class="node">
<title>Node38</title>
<g id="a_node38"><a xlink:title=" ">
<polygon fill="#e0e0e0" stroke="#999999" points="378.38,-150 289.62,-150 289.62,-130 378.38,-130 378.38,-150"/>
<text text-anchor="middle" x="334" y="-136.5" font-family="Helvetica,sans-Serif" font-size="10.00">boost/thread.hpp</text>
</a>
</g>
</g>
<!-- Node33&#45;&gt;Node38 -->
<g id="edge71" class="edge">
<title>Node33&#45;&gt;Node38</title>
<path fill="none" stroke="#63b8ff" d="M452.12,-191.62C429.01,-181.72 392.32,-165.99 365.96,-154.7"/>
<polygon fill="#63b8ff" stroke="#63b8ff" points="367.68,-151.63 357.11,-150.91 364.93,-158.06 367.68,-151.63"/>
</g>
<!-- Node34&#45;&gt;Node13 -->
<g id="edge60" class="edge">
<title>Node34&#45;&gt;Node13</title>
<path fill="none" stroke="#63b8ff" d="M463.83,-129.54C454.42,-120.8 440.06,-107.45 427.65,-95.92"/>
<polygon fill="#63b8ff" stroke="#63b8ff" points="430.28,-93.58 420.57,-89.33 425.51,-98.7 430.28,-93.58"/>
</g>
<!-- Node34&#45;&gt;Node15 -->
<g id="edge64" class="edge">
<title>Node34&#45;&gt;Node15</title>
<path fill="none" stroke="#63b8ff" d="M514.6,-131.21C529.19,-128.62 545.79,-125.91 561,-124 773.22,-97.29 1026.96,-81.94 1140.26,-75.95"/>
<polygon fill="#63b8ff" stroke="#63b8ff" points="1140.44,-79.44 1150.24,-75.43 1140.07,-72.45 1140.44,-79.44"/>
</g>
<!-- Node34&#45;&gt;Node17 -->
<g id="edge63" class="edge">
<title>Node34&#45;&gt;Node17</title>
<path fill="none" stroke="#63b8ff" d="M514.58,-130.97C529.16,-128.36 545.77,-125.7 561,-124 868.83,-89.63 948.71,-118.05 1257,-88 1449.43,-69.24 1678.62,-30.93 1761.3,-16.58"/>
<polygon fill="#63b8ff" stroke="#63b8ff" points="1761.89,-20.03 1771.14,-14.87 1760.69,-13.14 1761.89,-20.03"/>
</g>
<!-- Node35 -->
<g id="node35" class="node">
<title>Node35</title>
<g id="a_node35"><a xlink:title=" ">
<polygon fill="#e0e0e0" stroke="#999999" points="337.62,-88 226.38,-88 226.38,-56 337.62,-56 337.62,-88"/>
<text text-anchor="start" x="234.38" y="-74.5" font-family="Helvetica,sans-Serif" font-size="10.00">boost/thread/recursive</text>
<text text-anchor="middle" x="282" y="-62.5" font-family="Helvetica,sans-Serif" font-size="10.00">_mutex.hpp</text>
</a>
</g>
</g>
<!-- Node34&#45;&gt;Node35 -->
<g id="edge61" class="edge">
<title>Node34&#45;&gt;Node35</title>
<path fill="none" stroke="#63b8ff" d="M446.49,-129.54C418.21,-119.82 373.37,-104.41 337.65,-92.13"/>
<polygon fill="#63b8ff" stroke="#63b8ff" points="338.91,-88.86 328.31,-88.92 336.63,-95.48 338.91,-88.86"/>
</g>
<!-- Node36 -->
<g id="node36" class="node">
<title>Node36</title>
<g id="a_node36"><a xlink:title=" ">
<polygon fill="#e0e0e0" stroke="#999999" points="517.12,-82 468.88,-82 468.88,-62 517.12,-62 517.12,-82"/>
<text text-anchor="middle" x="493" y="-68.5" font-family="Helvetica,sans-Serif" font-size="10.00">fstream</text>
</a>
</g>
</g>
<!-- Node34&#45;&gt;Node36 -->
<g id="edge62" class="edge">
<title>Node34&#45;&gt;Node36</title>
<path fill="none" stroke="#63b8ff" d="M476.72,-129.54C479.43,-120.13 483.67,-105.39 487.15,-93.32"/>
<polygon fill="#63b8ff" stroke="#63b8ff" points="490.46,-94.47 489.86,-83.89 483.73,-92.53 490.46,-94.47"/>
</g>
</g>
</svg>
        <g id="navigator" transform="translate(0 0)" fill="#404254">
                <rect fill="#f2f5e9" fill-opacity="0.5" stroke="#606060" stroke-width=".5" x="0" y="0" width="60" height="60"/>
                <use id="zoomplus" xlink:href="#zoomPlus" x="17" y="9" onmousedown="handleZoom(evt,'in')"/>
                <use id="zoomminus" xlink:href="#zoomMin" x="42" y="9" onmousedown="handleZoom(evt,'out')"/>
                <use id="reset" xlink:href="#resetDef" x="30" y="36" onmousedown="handleReset()"/>
                <g id="arrowUp" xlink:href="#dirArrow" transform="translate(30 24)" onmousedown="handlePan(0,-1)">
                  <use xlink:href="#rim" fill="#404040">
                        <set attributeName="fill" to="#808080" begin="arrowUp.mouseover" end="arrowUp.mouseout"/>
                  </use>
                  <path fill="none" stroke="white" stroke-width="1.5" d="M0,-3.0v7 M-2.5,-0.5L0,-3.0L2.5,-0.5"/>
                </g>
                <g id="arrowRight" xlink:href="#dirArrow" transform="rotate(90) translate(36 -43)" onmousedown="handlePan(1,0)">
                  <use xlink:href="#rim" fill="#404040">
                        <set attributeName="fill" to="#808080" begin="arrowRight.mouseover" end="arrowRight.mouseout"/>
                  </use>
                  <path fill="none" stroke="white" stroke-width="1.5" d="M0,-3.0v7 M-2.5,-0.5L0,-3.0L2.5,-0.5"/>
                </g>
                <g id="arrowDown" xlink:href="#dirArrow" transform="rotate(180) translate(-30 -48)" onmousedown="handlePan(0,1)">
                  <use xlink:href="#rim" fill="#404040">
                        <set attributeName="fill" to="#808080" begin="arrowDown.mouseover" end="arrowDown.mouseout"/>
                  </use>
                  <path fill="none" stroke="white" stroke-width="1.5" d="M0,-3.0v7 M-2.5,-0.5L0,-3.0L2.5,-0.5"/>
                </g>
                <g id="arrowLeft" xlink:href="#dirArrow" transform="rotate(270) translate(-36 17)" onmousedown="handlePan(-1,0)">
                  <use xlink:href="#rim" fill="#404040">
                        <set attributeName="fill" to="#808080" begin="arrowLeft.mouseover" end="arrowLeft.mouseout"/>
                  </use>
                  <path fill="none" stroke="white" stroke-width="1.5" d="M0,-3.0v7 M-2.5,-0.5L0,-3.0L2.5,-0.5"/>
                </g>
        </g>
        <svg viewBox="0 0 15 15" width="100%" height="30px" preserveAspectRatio="xMaxYMin meet">
         <g id="arrow_out" transform="scale(0.3 0.3)">
          <a xlink:href="FMTspatialnodescache_8hpp__incl_org.svg" target="_base">
           <rect id="button" ry="5" rx="5" y="6" x="6" height="38" width="38"
                fill="#f2f5e9" fill-opacity="0.5" stroke="#606060" stroke-width="1.0"/>
           <path id="arrow"
             d="M 11.500037,31.436501 C 11.940474,20.09759 22.043105,11.32322 32.158766,21.979434 L 37.068811,17.246167 C 37.068811,17.246167 37.088388,32 37.088388,32 L 22.160133,31.978069 C 22.160133,31.978069 26.997745,27.140456 26.997745,27.140456 C 18.528582,18.264221 13.291696,25.230495 11.500037,31.436501 z"
             style="fill:#404040;"/>
          </a>
         </g>
        </svg>
</svg>
