<?xml version="1.0" encoding="UTF-8" standalone="no"?>
<!DOCTYPE svg PUBLIC "-//W3C//DTD SVG 1.1//EN"
 "http://www.w3.org/Graphics/SVG/1.1/DTD/svg11.dtd">
<!-- Generated by graphviz version 8.1.0 (20230707.0739)
 -->
<!-- Title: C:/Users/CYRGU3/OneDrive &#45; BuroVirtuel/Bureau/FMT/FMT/Include/FMTsrmodel.hpp Pages: 1 -->
<svg width="704pt" height="292pt"
 viewBox="0.00 0.00 704.00 292.00" xmlns="http://www.w3.org/2000/svg" xmlns:xlink="http://www.w3.org/1999/xlink">
<g id="graph0" class="graph" transform="scale(1 1) rotate(0) translate(4 288)">
<title>C:/Users/CYRGU3/OneDrive &#45; BuroVirtuel/Bureau/FMT/FMT/Include/FMTsrmodel.hpp</title>
<!-- Node1 -->
<g id="Node000001" class="node">
<title>Node1</title>
<g id="a_Node000001"><a xlink:title=" ">
<polygon fill="#999999" stroke="#666666" points="501,-284 353,-284 353,-240 501,-240 501,-284"/>
<text text-anchor="start" x="361" y="-270.5" font-family="Helvetica,sans-Serif" font-size="10.00">C:/Users/CYRGU3/OneDrive</text>
<text text-anchor="start" x="361" y="-258.5" font-family="Helvetica,sans-Serif" font-size="10.00"> &#45; BuroVirtuel/Bureau/FMT</text>
<text text-anchor="middle" x="427" y="-246.5" font-family="Helvetica,sans-Serif" font-size="10.00">/FMT/Include/FMTsrmodel.hpp</text>
</a>
</g>
</g>
<!-- Node2 -->
<g id="Node000002" class="node">
<title>Node2</title>
<g id="a_Node000002"><a xlink:href="FMTlpmodel_8hpp.html" target="_top" xlink:title=" ">
<polygon fill="white" stroke="#666666" points="398.62,-204 251.38,-204 251.38,-160 398.62,-160 398.62,-204"/>
<text text-anchor="start" x="259.38" y="-190.5" font-family="Helvetica,sans-Serif" font-size="10.00">C:/Users/CYRGU3/OneDrive</text>
<text text-anchor="start" x="259.38" y="-178.5" font-family="Helvetica,sans-Serif" font-size="10.00"> &#45; BuroVirtuel/Bureau/FMT</text>
<text text-anchor="middle" x="325" y="-166.5" font-family="Helvetica,sans-Serif" font-size="10.00">/FMT/Include/FMTlpmodel.hpp</text>
</a>
</g>
</g>
<!-- Node1&#45;&gt;Node2 -->
<g id="edge1_Node000001_Node000002" class="edge">
<title>Node1&#45;&gt;Node2</title>
<g id="a_edge1_Node000001_Node000002"><a xlink:title=" ">
<path fill="none" stroke="#63b8ff" d="M390.74,-233.28C378.28,-223.74 364.53,-213.23 352.84,-204.29"/>
<polygon fill="#63b8ff" stroke="#63b8ff" points="388.06,-236.39 398.13,-239.69 392.31,-230.83 388.06,-236.39"/>
</a>
</g>
</g>
<!-- Node5 -->
<g id="Node000005" class="node">
<title>Node5</title>
<g id="a_Node000005"><a xlink:href="PYexportModel_8hpp.html" target="_top" xlink:title=" ">
<polygon fill="white" stroke="#666666" points="352.38,-124 191.62,-124 191.62,-80 352.38,-80 352.38,-124"/>
<text text-anchor="start" x="199.62" y="-110.5" font-family="Helvetica,sans-Serif" font-size="10.00">C:/Users/CYRGU3/OneDrive</text>
<text text-anchor="start" x="199.62" y="-98.5" font-family="Helvetica,sans-Serif" font-size="10.00"> &#45; BuroVirtuel/Bureau/FMT</text>
<text text-anchor="middle" x="272" y="-86.5" font-family="Helvetica,sans-Serif" font-size="10.00">/FMT/Include/PYexportModel.hpp</text>
</a>
</g>
</g>
<!-- Node1&#45;&gt;Node5 -->
<g id="edge11_Node000001_Node000005" class="edge">
<title>Node1&#45;&gt;Node5</title>
<g id="a_edge11_Node000001_Node000005"><a xlink:title=" ">
<path fill="none" stroke="#63b8ff" d="M341.91,-256.57C305.03,-249.9 265.07,-235.25 242,-204 224.4,-180.16 241.09,-146.05 255.72,-124.21"/>
<polygon fill="#63b8ff" stroke="#63b8ff" points="341.3,-260.18 351.73,-258.32 342.42,-253.27 341.3,-260.18"/>
</a>
</g>
</g>
<!-- Node6 -->
<g id="Node000006" class="node">
<title>Node6</title>
<g id="a_Node000006"><a xlink:href="Rdeclarations_8hpp.html" target="_top" xlink:title=" ">
<polygon fill="white" stroke="#666666" points="523.62,-124 370.38,-124 370.38,-80 523.62,-80 523.62,-124"/>
<text text-anchor="start" x="378.38" y="-110.5" font-family="Helvetica,sans-Serif" font-size="10.00">C:/Users/CYRGU3/OneDrive</text>
<text text-anchor="start" x="378.38" y="-98.5" font-family="Helvetica,sans-Serif" font-size="10.00"> &#45; BuroVirtuel/Bureau/FMT</text>
<text text-anchor="middle" x="447" y="-86.5" font-family="Helvetica,sans-Serif" font-size="10.00">/FMT/Include/Rdeclarations.hpp</text>
</a>
</g>
</g>
<!-- Node1&#45;&gt;Node6 -->
<g id="edge12_Node000001_Node000006" class="edge">
<title>Node1&#45;&gt;Node6</title>
<g id="a_edge12_Node000001_Node000006"><a xlink:title=" ">
<path fill="none" stroke="#63b8ff" d="M431.05,-228.98C435,-197.84 440.87,-151.41 444.28,-124.48"/>
<polygon fill="#63b8ff" stroke="#63b8ff" points="427.48,-228.33 429.7,-238.69 434.43,-229.21 427.48,-228.33"/>
</a>
</g>
</g>
<!-- Node7 -->
<g id="Node000007" class="node">
<title>Node7</title>
<g id="a_Node000007"><a xlink:href="RexportModel_8hpp.html" target="_top" xlink:title=" ">
<polygon fill="white" stroke="#666666" points="696,-124 542,-124 542,-80 696,-80 696,-124"/>
<text text-anchor="start" x="550" y="-110.5" font-family="Helvetica,sans-Serif" font-size="10.00">C:/Users/CYRGU3/OneDrive</text>
<text text-anchor="start" x="550" y="-98.5" font-family="Helvetica,sans-Serif" font-size="10.00"> &#45; BuroVirtuel/Bureau/FMT</text>
<text text-anchor="middle" x="619" y="-86.5" font-family="Helvetica,sans-Serif" font-size="10.00">/FMT/Include/RexportModel.hpp</text>
</a>
</g>
</g>
<!-- Node1&#45;&gt;Node7 -->
<g id="edge13_Node000001_Node000007" class="edge">
<title>Node1&#45;&gt;Node7</title>
<g id="a_edge13_Node000001_Node000007"><a xlink:title=" ">
<path fill="none" stroke="#63b8ff" d="M511.97,-246.26C557.29,-236.48 606.47,-222.11 620,-204 637.11,-181.1 632.03,-146.42 626.07,-124.24"/>
<polygon fill="#63b8ff" stroke="#63b8ff" points="511.54,-242.98 502.47,-248.46 512.97,-249.83 511.54,-242.98"/>
</a>
</g>
</g>
<!-- Node8 -->
<g id="Node000008" class="node">
<title>Node8</title>
<g id="a_Node000008"><a xlink:href="FMTnssmodel_8hpp.html" target="_top" xlink:title=" ">
<polygon fill="white" stroke="#666666" points="610.75,-204 455.25,-204 455.25,-160 610.75,-160 610.75,-204"/>
<text text-anchor="start" x="463.25" y="-190.5" font-family="Helvetica,sans-Serif" font-size="10.00">C:/Users/CYRGU3/OneDrive</text>
<text text-anchor="start" x="463.25" y="-178.5" font-family="Helvetica,sans-Serif" font-size="10.00"> &#45; BuroVirtuel/Bureau/FMT</text>
<text text-anchor="middle" x="533" y="-166.5" font-family="Helvetica,sans-Serif" font-size="10.00">/FMT/Include/FMTnssmodel.hpp</text>
</a>
</g>
</g>
<!-- Node1&#45;&gt;Node8 -->
<g id="edge7_Node000001_Node000008" class="edge">
<title>Node1&#45;&gt;Node8</title>
<g id="a_edge7_Node000001_Node000008"><a xlink:title=" ">
<path fill="none" stroke="#63b8ff" d="M464.68,-233.28C477.63,-223.74 491.92,-213.23 504.07,-204.29"/>
<polygon fill="#63b8ff" stroke="#63b8ff" points="462.94,-230.94 456.96,-239.69 467.09,-236.58 462.94,-230.94"/>
</a>
</g>
</g>
<!-- Node3 -->
<g id="Node000003" class="node">
<title>Node3</title>
<g id="a_Node000003"><a xlink:href="FMTpythonpickle_8hpp.html" target="_top" xlink:title=" ">
<polygon fill="white" stroke="#666666" points="173.12,-124 4.88,-124 4.88,-80 173.12,-80 173.12,-124"/>
<text text-anchor="start" x="12.88" y="-110.5" font-family="Helvetica,sans-Serif" font-size="10.00">C:/Users/CYRGU3/OneDrive</text>
<text text-anchor="start" x="12.88" y="-98.5" font-family="Helvetica,sans-Serif" font-size="10.00"> &#45; BuroVirtuel/Bureau/FMT</text>
<text text-anchor="middle" x="89" y="-86.5" font-family="Helvetica,sans-Serif" font-size="10.00">/FMT/Include/FMTpythonpickle.hpp</text>
</a>
</g>
</g>
<!-- Node2&#45;&gt;Node3 -->
<g id="edge2_Node000002_Node000003" class="edge">
<title>Node2&#45;&gt;Node3</title>
<g id="a_edge2_Node000002_Node000003"><a xlink:title=" ">
<path fill="none" stroke="#63b8ff" d="M249.89,-156.18C218.94,-145.95 183.43,-134.21 153.66,-124.37"/>
<polygon fill="#63b8ff" stroke="#63b8ff" points="248.61,-159.77 259.2,-159.58 250.8,-153.12 248.61,-159.77"/>
</a>
</g>
</g>
<!-- Node2&#45;&gt;Node5 -->
<g id="edge4_Node000002_Node000005" class="edge">
<title>Node2&#45;&gt;Node5</title>
<g id="a_edge4_Node000002_Node000005"><a xlink:title=" ">
<path fill="none" stroke="#63b8ff" d="M304.47,-150.78C298.46,-141.93 292.01,-132.45 286.46,-124.29"/>
<polygon fill="#63b8ff" stroke="#63b8ff" points="302,-152.38 310.52,-158.69 307.79,-148.45 302,-152.38"/>
</a>
</g>
</g>
<!-- Node2&#45;&gt;Node6 -->
<g id="edge5_Node000002_Node000006" class="edge">
<title>Node2&#45;&gt;Node6</title>
<g id="a_edge5_Node000002_Node000006"><a xlink:title=" ">
<path fill="none" stroke="#63b8ff" d="M367.51,-153.82C382.64,-144.15 399.45,-133.4 413.7,-124.29"/>
<polygon fill="#63b8ff" stroke="#63b8ff" points="365.88,-151.35 359.34,-159.69 369.65,-157.25 365.88,-151.35"/>
</a>
</g>
</g>
<!-- Node2&#45;&gt;Node7 -->
<g id="edge6_Node000002_Node000007" class="edge">
<title>Node2&#45;&gt;Node7</title>
<g id="a_edge6_Node000002_Node000007"><a xlink:title=" ">
<path fill="none" stroke="#63b8ff" d="M409.21,-158.66C450.89,-147.6 500.85,-134.35 541.56,-123.54"/>
<polygon fill="#63b8ff" stroke="#63b8ff" points="408.58,-155.47 399.81,-161.42 410.37,-162.24 408.58,-155.47"/>
</a>
</g>
</g>
<!-- Node4 -->
<g id="Node000004" class="node">
<title>Node4</title>
<g id="a_Node000004"><a xlink:href="PYexportHeuristics_8hpp.html" target="_top" xlink:title=" ">
<polygon fill="white" stroke="#666666" points="178,-44 0,-44 0,0 178,0 178,-44"/>
<text text-anchor="start" x="8" y="-30.5" font-family="Helvetica,sans-Serif" font-size="10.00">C:/Users/CYRGU3/OneDrive</text>
<text text-anchor="start" x="8" y="-18.5" font-family="Helvetica,sans-Serif" font-size="10.00"> &#45; BuroVirtuel/Bureau/FMT</text>
<text text-anchor="middle" x="89" y="-6.5" font-family="Helvetica,sans-Serif" font-size="10.00">/FMT/Include/PYexportHeuristics.hpp</text>
</a>
</g>
</g>
<!-- Node3&#45;&gt;Node4 -->
<g id="edge3_Node000003_Node000004" class="edge">
<title>Node3&#45;&gt;Node4</title>
<g id="a_edge3_Node000003_Node000004"><a xlink:title=" ">
<path fill="none" stroke="#63b8ff" d="M89,-68.82C89,-60.54 89,-51.85 89,-44.29"/>
<polygon fill="#63b8ff" stroke="#63b8ff" points="85.5,-68.69 89,-78.69 92.5,-68.69 85.5,-68.69"/>
</a>
</g>
</g>
<!-- Node8&#45;&gt;Node5 -->
<g id="edge8_Node000008_Node000005" class="edge">
<title>Node8&#45;&gt;Node5</title>
<g id="a_edge8_Node000008_Node000005"><a xlink:title=" ">
<path fill="none" stroke="#63b8ff" d="M450.83,-156.44C416.39,-146.15 376.72,-134.29 343.5,-124.37"/>
<polygon fill="#63b8ff" stroke="#63b8ff" points="449.75,-160.07 460.34,-159.58 451.76,-153.37 449.75,-160.07"/>
</a>
</g>
</g>
<!-- Node8&#45;&gt;Node6 -->
<g id="edge9_Node000008_Node000006" class="edge">
<title>Node8&#45;&gt;Node6</title>
<g id="a_edge9_Node000008_Node000006"><a xlink:title=" ">
<path fill="none" stroke="#63b8ff" d="M501.52,-152.45C491.25,-143.14 480.04,-132.97 470.47,-124.29"/>
<polygon fill="#63b8ff" stroke="#63b8ff" points="498.74,-154.56 508.5,-158.69 503.44,-149.38 498.74,-154.56"/>
</a>
</g>
</g>
<!-- Node8&#45;&gt;Node7 -->
<g id="edge10_Node000008_Node000007" class="edge">
<title>Node8&#45;&gt;Node7</title>
<g id="a_edge10_Node000008_Node000007"><a xlink:title=" ">
<path fill="none" stroke="#63b8ff" d="M564.48,-152.45C574.75,-143.14 585.96,-132.97 595.53,-124.29"/>
<polygon fill="#63b8ff" stroke="#63b8ff" points="562.56,-149.38 557.5,-158.69 567.26,-154.56 562.56,-149.38"/>
</a>
</g>
</g>
</g>
</svg>
