<?xml version="1.0" encoding="UTF-8" standalone="no"?>
<!DOCTYPE svg PUBLIC "-//W3C//DTD SVG 1.1//EN"
 "http://www.w3.org/Graphics/SVG/1.1/DTD/svg11.dtd">
<!-- Generated by graphviz version 8.1.0 (20230707.0739)
 -->
<!-- Title: C:/Users/CYRGU3/OneDrive &#45; BuroVirtuel/Bureau/FMT/FMT/Include/FMTscheduleparser.hpp Pages: 1 -->
<!--zoomable 300 -->

<svg id="main" version="1.1" xmlns="http://www.w3.org/2000/svg" xmlns:xlink="http://www.w3.org/1999/xlink" xml:space="preserve" onload="init(evt)">
<style type="text/css"><![CDATA[
.node, .edge {opacity: 0.7;}
.node.selected, .edge.selected {opacity: 1;}
.edge:hover path { stroke: red; }
.edge:hover polygon { stroke: red; fill: red; }
]]></style>

<defs>
  <circle id="rim" cx="0" cy="0" r="7"/>
  <circle id="rim2" cx="0" cy="0" r="3.5"/>
  <g id="zoomPlus">
    <use xlink:href="#rim" fill="#404040"><set attributeName="fill" to="#808080" begin="zoomplus.mouseover" end="zoomplus.mouseout"/></use>
    <path d="M-4,0h8M0,-4v8" fill="none" stroke="white" stroke-width="1.5" pointer-events="none"/>
  </g>
  <g id="zoomMin">
    <use xlink:href="#rim" fill="#404040"><set attributeName="fill" to="#808080" begin="zoomminus.mouseover" end="zoomminus.mouseout"/></use>
    <path d="M-4,0h8" fill="none" stroke="white" stroke-width="1.5" pointer-events="none"/>
  </g>
  <g id="arrowUp" transform="translate(30 24)">
    <use xlink:href="#rim"/>
    <path pointer-events="none" fill="none" stroke="white" stroke-width="1.5" d="M0,-3.0v7 M-2.5,-0.5L0,-3.0L2.5,-0.5"/>
  </g>
  <g id="arrowRight" transform="rotate(90) translate(36 -43)">
    <use xlink:href="#rim"/>
    <path pointer-events="none" fill="none" stroke="white" stroke-width="1.5" d="M0,-3.0v7 M-2.5,-0.5L0,-3.0L2.5,-0.5"/>
  </g>
  <g id="arrowDown" transform="rotate(180) translate(-30 -48)">
    <use xlink:href="#rim"/>
    <path pointer-events="none" fill="none" stroke="white" stroke-width="1.5" d="M0,-3.0v7 M-2.5,-0.5L0,-3.0L2.5,-0.5"/>
  </g>
  <g id="arrowLeft" transform="rotate(270) translate(-36 17)">
    <use xlink:href="#rim"/>
    <path pointer-events="none" fill="none" stroke="white" stroke-width="1.5" d="M0,-3.0v7 M-2.5,-0.5L0,-3.0L2.5,-0.5"/>
  </g>
  <g id="resetDef">
    <use xlink:href="#rim2" fill="#404040"><set attributeName="fill" to="#808080" begin="reset.mouseover" end="reset.mouseout"/></use>
  </g>
</defs>
<script type="application/ecmascript">
var viewWidth = 887;
var viewHeight = 300;
var sectionId = 'dynsection-0';
</script>
<script type="application/ecmascript" xlink:href="svg.min.js"/>
<svg id="graph" class="graph">
<g id="viewport">
<title>C:/Users/CYRGU3/OneDrive &#45; BuroVirtuel/Bureau/FMT/FMT/Include/FMTscheduleparser.hpp</title>
<!-- Node1 -->
<g id="Node000001" class="node">
<title>Node1</title>
<g id="a_Node000001"><a xlink:title=" ">
<polygon fill="#999999" stroke="#666666" points="309.75,-292 130.25,-292 130.25,-248 309.75,-248 309.75,-292"/>
<text text-anchor="start" x="138.25" y="-278.5" font-family="Helvetica,sans-Serif" font-size="10.00">C:/Users/CYRGU3/OneDrive</text>
<text text-anchor="start" x="138.25" y="-266.5" font-family="Helvetica,sans-Serif" font-size="10.00"> &#45; BuroVirtuel/Bureau/FMT</text>
<text text-anchor="middle" x="220" y="-254.5" font-family="Helvetica,sans-Serif" font-size="10.00">/FMT/Include/FMTscheduleparser.hpp</text>
</a>
</g>
</g>
<!-- Node2 -->
<g id="Node000002" class="node">
<title>Node2</title>
<g id="a_Node000002"><a xlink:href="FMTparser_8hpp.html" target="_top" xlink:title=" ">
<polygon fill="white" stroke="#666666" points="479.62,-212 398.38,-212 398.38,-192 479.62,-192 479.62,-212"/>
<text text-anchor="middle" x="439" y="-198.5" font-family="Helvetica,sans-Serif" font-size="10.00">FMTparser.hpp</text>
</a>
</g>
</g>
<!-- Node1&#45;&gt;Node2 -->
<g id="edge1_Node000001_Node000002" class="edge">
<title>Node1&#45;&gt;Node2</title>
<g id="a_edge1_Node000001_Node000002"><a xlink:title=" ">
<path fill="none" stroke="#63b8ff" d="M291.1,-247.57C326.14,-237.01 367.19,-224.64 397.14,-215.62"/>
<polygon fill="#63b8ff" stroke="#63b8ff" points="398.07,-218.69 406.64,-212.45 396.05,-211.99 398.07,-218.69"/>
</a>
</g>
</g>
<!-- Node7 -->
<g id="Node000007" class="node">
<title>Node7</title>
<g id="a_Node000007"><a xlink:title=" ">
<polygon fill="#e0e0e0" stroke="#999999" points="40,-20 0,-20 0,0 40,0 40,-20"/>
<text text-anchor="middle" x="20" y="-6.5" font-family="Helvetica,sans-Serif" font-size="10.00">string</text>
</a>
</g>
</g>
<!-- Node1&#45;&gt;Node7 -->
<g id="edge29_Node000001_Node000007" class="edge">
<title>Node1&#45;&gt;Node7</title>
<g id="a_edge29_Node000001_Node000007"><a xlink:title=" ">
<path fill="none" stroke="#63b8ff" d="M145.27,-247.52C123.61,-238.87 100.98,-227.24 83,-212 28.28,-165.61 20.43,-72.29 19.75,-31.2"/>
<polygon fill="#63b8ff" stroke="#63b8ff" points="23.25,-31.44 19.72,-21.45 16.25,-31.46 23.25,-31.44"/>
</a>
</g>
</g>
<!-- Node8 -->
<g id="Node000008" class="node">
<title>Node8</title>
<g id="a_Node000008"><a xlink:title=" ">
<polygon fill="#e0e0e0" stroke="#999999" points="863.75,-82 822.25,-82 822.25,-62 863.75,-62 863.75,-82"/>
<text text-anchor="middle" x="843" y="-68.5" font-family="Helvetica,sans-Serif" font-size="10.00">vector</text>
</a>
</g>
</g>
<!-- Node1&#45;&gt;Node8 -->
<g id="edge28_Node000001_Node000008" class="edge">
<title>Node1&#45;&gt;Node8</title>
<g id="a_edge28_Node000001_Node000008"><a xlink:title=" ">
<path fill="none" stroke="#63b8ff" d="M310.22,-267.97C424.81,-262.91 625.18,-241.3 771,-156 797.94,-140.24 819.85,-110.73 832.16,-91.48"/>
<polygon fill="#63b8ff" stroke="#63b8ff" points="835.59,-93.58 837.84,-83.23 829.62,-89.92 835.59,-93.58"/>
</a>
</g>
</g>
<!-- Node10 -->
<g id="Node000010" class="node">
<title>Node10</title>
<g id="a_Node000010"><a xlink:href="FMTutility_8hpp.html" target="_top" xlink:title=" ">
<polygon fill="white" stroke="#666666" points="135.75,-20 58.25,-20 58.25,0 135.75,0 135.75,-20"/>
<text text-anchor="middle" x="97" y="-6.5" font-family="Helvetica,sans-Serif" font-size="10.00">FMTutility.hpp</text>
</a>
</g>
</g>
<!-- Node1&#45;&gt;Node10 -->
<g id="edge27_Node000001_Node000010" class="edge">
<title>Node1&#45;&gt;Node10</title>
<g id="a_edge27_Node000001_Node000010"><a xlink:title=" ">
<path fill="none" stroke="#63b8ff" d="M166.36,-247.52C128.79,-229.3 81.45,-199.18 59,-156 36.99,-113.66 66.01,-57.57 84.25,-29.16"/>
<polygon fill="#63b8ff" stroke="#63b8ff" points="87.5,-31.59 90.15,-21.34 81.68,-27.7 87.5,-31.59"/>
</a>
</g>
</g>
<!-- Node3 -->
<g id="Node000003" class="node">
<title>Node3</title>
<g id="a_Node000003"><a xlink:title=" ">
<polygon fill="#e0e0e0" stroke="#999999" points="397.88,-150 312.12,-150 312.12,-130 397.88,-130 397.88,-150"/>
<text text-anchor="middle" x="355" y="-136.5" font-family="Helvetica,sans-Serif" font-size="10.00">boost/regex.hpp</text>
</a>
</g>
</g>
<!-- Node2&#45;&gt;Node3 -->
<g id="edge2_Node000002_Node000003" class="edge">
<title>Node2&#45;&gt;Node3</title>
<g id="a_edge2_Node000002_Node000003"><a xlink:title=" ">
<path fill="none" stroke="#63b8ff" d="M425.88,-191.62C412.81,-182.29 392.51,-167.79 376.98,-156.7"/>
<polygon fill="#63b8ff" stroke="#63b8ff" points="379.2,-153.27 369.03,-150.31 375.14,-158.97 379.2,-153.27"/>
</a>
</g>
</g>
<!-- Node4 -->
<g id="Node000004" class="node">
<title>Node4</title>
<g id="a_Node000004"><a xlink:title=" ">
<polygon fill="#e0e0e0" stroke="#999999" points="462,-150 416,-150 416,-130 462,-130 462,-150"/>
<text text-anchor="middle" x="439" y="-136.5" font-family="Helvetica,sans-Serif" font-size="10.00">iterator</text>
</a>
</g>
</g>
<!-- Node2&#45;&gt;Node4 -->
<g id="edge3_Node000002_Node000004" class="edge">
<title>Node2&#45;&gt;Node4</title>
<g id="a_edge3_Node000002_Node000004"><a xlink:title=" ">
<path fill="none" stroke="#63b8ff" d="M439,-191.62C439,-183.48 439,-171.39 439,-161.07"/>
<polygon fill="#63b8ff" stroke="#63b8ff" points="442.5,-161.11 439,-151.11 435.5,-161.11 442.5,-161.11"/>
</a>
</g>
</g>
<!-- Node5 -->
<g id="Node000005" class="node">
<title>Node5</title>
<g id="a_Node000005"><a xlink:title=" ">
<polygon fill="#e0e0e0" stroke="#999999" points="769.75,-20 716.25,-20 716.25,0 769.75,0 769.75,-20"/>
<text text-anchor="middle" x="743" y="-6.5" font-family="Helvetica,sans-Serif" font-size="10.00">iostream</text>
</a>
</g>
</g>
<!-- Node2&#45;&gt;Node5 -->
<g id="edge4_Node000002_Node000005" class="edge">
<title>Node2&#45;&gt;Node5</title>
<g id="a_edge4_Node000002_Node000005"><a xlink:title=" ">
<path fill="none" stroke="#63b8ff" d="M480.04,-201.29C544.22,-200.48 671.29,-193.68 771,-156 821.97,-136.74 847.29,-136.04 873,-88 879.71,-75.46 881.25,-67.59 873,-56 852.21,-26.8 811.12,-16.37 780.68,-12.74"/>
<polygon fill="#63b8ff" stroke="#63b8ff" points="781.29,-9.19 771,-11.69 780.61,-16.15 781.29,-9.19"/>
</a>
</g>
</g>
<!-- Node6 -->
<g id="Node000006" class="node">
<title>Node6</title>
<g id="a_Node000006"><a xlink:title=" ">
<polygon fill="#e0e0e0" stroke="#999999" points="702.12,-150 653.88,-150 653.88,-130 702.12,-130 702.12,-150"/>
<text text-anchor="middle" x="678" y="-136.5" font-family="Helvetica,sans-Serif" font-size="10.00">fstream</text>
</a>
</g>
</g>
<!-- Node2&#45;&gt;Node6 -->
<g id="edge5_Node000002_Node000006" class="edge">
<title>Node2&#45;&gt;Node6</title>
<g id="a_edge5_Node000002_Node000006"><a xlink:title=" ">
<path fill="none" stroke="#63b8ff" d="M479.91,-193.78C520.87,-186.1 585.48,-172.75 640,-156 641.77,-155.46 643.58,-154.87 645.39,-154.25"/>
<polygon fill="#63b8ff" stroke="#63b8ff" points="646.51,-157.2 654.7,-150.47 644.11,-150.62 646.51,-157.2"/>
</a>
</g>
</g>
<!-- Node2&#45;&gt;Node7 -->
<g id="edge6_Node000002_Node000007" class="edge">
<title>Node2&#45;&gt;Node7</title>
<g id="a_edge6_Node000002_Node000007"><a xlink:title=" ">
<path fill="none" stroke="#63b8ff" d="M397.98,-201.73C310.38,-202.44 108.94,-199.18 59,-156 22.62,-124.54 18.42,-63.11 18.91,-31.25"/>
<polygon fill="#63b8ff" stroke="#63b8ff" points="22.45,-31.38 19.29,-21.26 15.45,-31.14 22.45,-31.38"/>
</a>
</g>
</g>
<!-- Node2&#45;&gt;Node8 -->
<g id="edge7_Node000002_Node000008" class="edge">
<title>Node2&#45;&gt;Node8</title>
<g id="a_edge7_Node000002_Node000008"><a xlink:title=" ">
<path fill="none" stroke="#63b8ff" d="M479.85,-195.2C515.05,-189.03 566.44,-177.16 607,-156 626.58,-145.79 625.3,-133.97 645,-124 705.79,-93.24 728.29,-105.98 794,-88 799.79,-86.42 805.94,-84.62 811.84,-82.84"/>
<polygon fill="#63b8ff" stroke="#63b8ff" points="812.56,-85.98 821.1,-79.7 810.51,-79.29 812.56,-85.98"/>
</a>
</g>
</g>
<!-- Node9 -->
<g id="Node000009" class="node">
<title>Node9</title>
<g id="a_Node000009"><a xlink:title=" ">
<polygon fill="#e0e0e0" stroke="#999999" points="762.12,-150 719.88,-150 719.88,-130 762.12,-130 762.12,-150"/>
<text text-anchor="middle" x="741" y="-136.5" font-family="Helvetica,sans-Serif" font-size="10.00">queue</text>
</a>
</g>
</g>
<!-- Node2&#45;&gt;Node9 -->
<g id="edge8_Node000002_Node000009" class="edge">
<title>Node2&#45;&gt;Node9</title>
<g id="a_edge8_Node000002_Node000009"><a xlink:title=" ">
<path fill="none" stroke="#63b8ff" d="M480,-198.06C534.04,-193.32 631.56,-181.78 711,-156 712.11,-155.64 713.23,-155.25 714.34,-154.82"/>
<polygon fill="#63b8ff" stroke="#63b8ff" points="715.49,-157.7 723.24,-150.48 712.68,-151.29 715.49,-157.7"/>
</a>
</g>
</g>
<!-- Node2&#45;&gt;Node10 -->
<g id="edge9_Node000002_Node000010" class="edge">
<title>Node2&#45;&gt;Node10</title>
<g id="a_edge9_Node000002_Node000010"><a xlink:title=" ">
<path fill="none" stroke="#63b8ff" d="M448.68,-191.61C463.71,-175.91 489.15,-144.08 471,-124 417.83,-65.17 175.88,-139.98 116,-88 99.95,-74.06 96.35,-48.94 96.02,-31.18"/>
<polygon fill="#63b8ff" stroke="#63b8ff" points="99.53,-31.35 96.2,-21.3 92.53,-31.24 99.53,-31.35"/>
</a>
</g>
</g>
<!-- Node11 -->
<g id="Node000011" class="node">
<title>Node11</title>
<g id="a_Node000011"><a xlink:title=" ">
<polygon fill="#e0e0e0" stroke="#999999" points="105.88,-150 68.12,-150 68.12,-130 105.88,-130 105.88,-150"/>
<text text-anchor="middle" x="87" y="-136.5" font-family="Helvetica,sans-Serif" font-size="10.00">array</text>
</a>
</g>
</g>
<!-- Node2&#45;&gt;Node11 -->
<g id="edge10_Node000002_Node000011" class="edge">
<title>Node2&#45;&gt;Node11</title>
<g id="a_edge10_Node000002_Node000011"><a xlink:title=" ">
<path fill="none" stroke="#63b8ff" d="M398.07,-199.92C335.58,-197.25 213.28,-188.01 115,-156 114.06,-155.69 113.11,-155.36 112.17,-154.99"/>
<polygon fill="#63b8ff" stroke="#63b8ff" points="113.81,-151.44 103.26,-150.43 110.88,-157.79 113.81,-151.44"/>
</a>
</g>
</g>
<!-- Node12 -->
<g id="Node000012" class="node">
<title>Node12</title>
<g id="a_Node000012"><a xlink:title=" ">
<polygon fill="#e0e0e0" stroke="#999999" points="164,-150 124,-150 124,-130 164,-130 164,-150"/>
<text text-anchor="middle" x="144" y="-136.5" font-family="Helvetica,sans-Serif" font-size="10.00">ctime</text>
</a>
</g>
</g>
<!-- Node2&#45;&gt;Node12 -->
<g id="edge11_Node000002_Node000012" class="edge">
<title>Node2&#45;&gt;Node12</title>
<g id="a_edge11_Node000002_Node000012"><a xlink:title=" ">
<path fill="none" stroke="#63b8ff" d="M397.94,-198.02C344.86,-193.27 250.07,-181.75 173,-156 172.06,-155.69 171.11,-155.34 170.16,-154.98"/>
<polygon fill="#63b8ff" stroke="#63b8ff" points="171.73,-151.4 161.18,-150.48 168.86,-157.78 171.73,-151.4"/>
</a>
</g>
</g>
<!-- Node13 -->
<g id="Node000013" class="node">
<title>Node13</title>
<g id="a_Node000013"><a xlink:title=" ">
<polygon fill="#e0e0e0" stroke="#999999" points="293.62,-156 182.38,-156 182.38,-124 293.62,-124 293.62,-156"/>
<text text-anchor="start" x="190.38" y="-142.5" font-family="Helvetica,sans-Serif" font-size="10.00">boost/thread/recursive</text>
<text text-anchor="middle" x="238" y="-130.5" font-family="Helvetica,sans-Serif" font-size="10.00">_mutex.hpp</text>
</a>
</g>
</g>
<!-- Node2&#45;&gt;Node13 -->
<g id="edge12_Node000002_Node000013" class="edge">
<title>Node2&#45;&gt;Node13</title>
<g id="a_edge12_Node000002_Node000013"><a xlink:title=" ">
<path fill="none" stroke="#63b8ff" d="M407.59,-191.62C378.95,-183.08 335.8,-170.19 300.2,-159.57"/>
<polygon fill="#63b8ff" stroke="#63b8ff" points="301.48,-156 290.89,-156.49 299.47,-162.7 301.48,-156"/>
</a>
</g>
</g>
<!-- Node14 -->
<g id="Node000014" class="node">
<title>Node14</title>
<g id="a_Node000014"><a xlink:href="FMTobject_8hpp.html" target="_top" xlink:title=" ">
<polygon fill="white" stroke="#666666" points="598.25,-150 517.75,-150 517.75,-130 598.25,-130 598.25,-150"/>
<text text-anchor="middle" x="558" y="-136.5" font-family="Helvetica,sans-Serif" font-size="10.00">FMTobject.hpp</text>
</a>
</g>
</g>
<!-- Node2&#45;&gt;Node14 -->
<g id="edge13_Node000002_Node000014" class="edge">
<title>Node2&#45;&gt;Node14</title>
<g id="a_edge13_Node000002_Node000014"><a xlink:title=" ">
<path fill="none" stroke="#63b8ff" d="M457.59,-191.62C476.98,-181.85 507.6,-166.41 529.93,-155.15"/>
<polygon fill="#63b8ff" stroke="#63b8ff" points="531.18,-157.94 538.54,-150.31 528.03,-151.69 531.18,-157.94"/>
</a>
</g>
</g>
<!-- Node14&#45;&gt;Node8 -->
<g id="edge25_Node000014_Node000008" class="edge">
<title>Node14&#45;&gt;Node8</title>
<g id="a_edge25_Node000014_Node000008"><a xlink:title=" ">
<path fill="none" stroke="#63b8ff" d="M590.15,-129.56C597.31,-127.6 604.89,-125.64 612,-124 698.31,-104.13 723.21,-113.6 808,-88 809.74,-87.47 811.51,-86.89 813.28,-86.26"/>
<polygon fill="#63b8ff" stroke="#63b8ff" points="814.25,-89.25 822.3,-82.35 811.71,-82.73 814.25,-89.25"/>
</a>
</g>
</g>
<!-- Node15 -->
<g id="Node000015" class="node">
<title>Node15</title>
<g id="a_Node000015"><a xlink:title=" ">
<polygon fill="#e0e0e0" stroke="#999999" points="540.38,-88 445.62,-88 445.62,-56 540.38,-56 540.38,-88"/>
<text text-anchor="start" x="453.62" y="-74.5" font-family="Helvetica,sans-Serif" font-size="10.00">boost/serialization</text>
<text text-anchor="middle" x="493" y="-62.5" font-family="Helvetica,sans-Serif" font-size="10.00">/shared_ptr.hpp</text>
</a>
</g>
</g>
<!-- Node14&#45;&gt;Node15 -->
<g id="edge14_Node000014_Node000015" class="edge">
<title>Node14&#45;&gt;Node15</title>
<g id="a_edge14_Node000014_Node000015"><a xlink:title=" ">
<path fill="none" stroke="#63b8ff" d="M548.69,-129.54C540.07,-120.8 526.93,-107.45 515.57,-95.92"/>
<polygon fill="#63b8ff" stroke="#63b8ff" points="518.58,-93.97 509.07,-89.3 513.59,-98.88 518.58,-93.97"/>
</a>
</g>
</g>
<!-- Node16 -->
<g id="Node000016" class="node">
<title>Node16</title>
<g id="a_Node000016"><a xlink:title=" ">
<polygon fill="#e0e0e0" stroke="#999999" points="653.38,-88 558.62,-88 558.62,-56 653.38,-56 653.38,-88"/>
<text text-anchor="start" x="566.62" y="-74.5" font-family="Helvetica,sans-Serif" font-size="10.00">boost/serialization</text>
<text text-anchor="middle" x="606" y="-62.5" font-family="Helvetica,sans-Serif" font-size="10.00">/nvp.hpp</text>
</a>
</g>
</g>
<!-- Node14&#45;&gt;Node16 -->
<g id="edge15_Node000014_Node000016" class="edge">
<title>Node14&#45;&gt;Node16</title>
<g id="a_edge15_Node000014_Node000016"><a xlink:title=" ">
<path fill="none" stroke="#63b8ff" d="M564.88,-129.54C571.05,-121.05 580.39,-108.21 588.61,-96.92"/>
<polygon fill="#63b8ff" stroke="#63b8ff" points="591.82,-99.45 594.87,-89.3 586.16,-95.33 591.82,-99.45"/>
</a>
</g>
</g>
<!-- Node17 -->
<g id="Node000017" class="node">
<title>Node17</title>
<g id="a_Node000017"><a xlink:title=" ">
<polygon fill="#e0e0e0" stroke="#999999" points="766.38,-88 671.62,-88 671.62,-56 766.38,-56 766.38,-88"/>
<text text-anchor="start" x="679.62" y="-74.5" font-family="Helvetica,sans-Serif" font-size="10.00">boost/serialization</text>
<text text-anchor="middle" x="719" y="-62.5" font-family="Helvetica,sans-Serif" font-size="10.00">/export.hpp</text>
</a>
</g>
</g>
<!-- Node14&#45;&gt;Node17 -->
<g id="edge16_Node000014_Node000017" class="edge">
<title>Node14&#45;&gt;Node17</title>
<g id="a_edge16_Node000014_Node000017"><a xlink:title=" ">
<path fill="none" stroke="#63b8ff" d="M581.07,-129.54C604.58,-119.9 641.74,-104.67 671.56,-92.45"/>
<polygon fill="#63b8ff" stroke="#63b8ff" points="672.44,-95.46 680.37,-88.43 669.79,-88.98 672.44,-95.46"/>
</a>
</g>
</g>
<!-- Node18 -->
<g id="Node000018" class="node">
<title>Node18</title>
<g id="a_Node000018"><a xlink:href="FMTexception_8hpp.html" target="_top" xlink:title=" ">
<polygon fill="white" stroke="#666666" points="221.12,-82 124.88,-82 124.88,-62 221.12,-62 221.12,-82"/>
<text text-anchor="middle" x="173" y="-68.5" font-family="Helvetica,sans-Serif" font-size="10.00">FMTexception.hpp</text>
</a>
</g>
</g>
<!-- Node14&#45;&gt;Node18 -->
<g id="edge17_Node000014_Node000018" class="edge">
<title>Node14&#45;&gt;Node18</title>
<g id="a_edge17_Node000014_Node000018"><a xlink:title=" ">
<path fill="none" stroke="#63b8ff" d="M526.77,-129.52C519.35,-127.5 511.44,-125.51 504,-124 383.64,-99.5 350.52,-111.68 230,-88 225.59,-87.13 221.02,-86.13 216.48,-85.05"/>
<polygon fill="#63b8ff" stroke="#63b8ff" points="217.54,-81.46 206.99,-82.44 215.85,-88.25 217.54,-81.46"/>
</a>
</g>
</g>
<!-- Node20 -->
<g id="Node000020" class="node">
<title>Node20</title>
<g id="a_Node000020"><a xlink:title=" ">
<polygon fill="#e0e0e0" stroke="#999999" points="550.62,-20 499.38,-20 499.38,0 550.62,0 550.62,-20"/>
<text text-anchor="middle" x="525" y="-6.5" font-family="Helvetica,sans-Serif" font-size="10.00">memory</text>
</a>
</g>
</g>
<!-- Node14&#45;&gt;Node20 -->
<g id="edge23_Node000014_Node000020" class="edge">
<title>Node14&#45;&gt;Node20</title>
<g id="a_edge23_Node000014_Node000020"><a xlink:title=" ">
<path fill="none" stroke="#63b8ff" d="M591.05,-129.52C597.96,-127.62 605.2,-125.69 612,-124 688.17,-105.02 825.35,-116.22 775,-56 748.24,-23.99 624.45,-14.71 561.69,-12.05"/>
<polygon fill="#63b8ff" stroke="#63b8ff" points="561.85,-8.52 551.72,-11.63 561.58,-15.51 561.85,-8.52"/>
</a>
</g>
</g>
<!-- Node21 -->
<g id="Node000021" class="node">
<title>Node21</title>
<g id="a_Node000021"><a xlink:title=" ">
<polygon fill="#e0e0e0" stroke="#999999" points="284.62,-82 239.38,-82 239.38,-62 284.62,-62 284.62,-82"/>
<text text-anchor="middle" x="262" y="-68.5" font-family="Helvetica,sans-Serif" font-size="10.00">chrono</text>
</a>
</g>
</g>
<!-- Node14&#45;&gt;Node21 -->
<g id="edge24_Node000014_Node000021" class="edge">
<title>Node14&#45;&gt;Node21</title>
<g id="a_edge24_Node000014_Node000021"><a xlink:title=" ">
<path fill="none" stroke="#63b8ff" d="M525.87,-129.5C518.7,-127.54 511.12,-125.6 504,-124 411.6,-103.3 384.35,-116.35 294,-88 292.68,-87.59 291.35,-87.13 290.01,-86.64"/>
<polygon fill="#63b8ff" stroke="#63b8ff" points="291.51,-83.06 280.94,-82.44 288.82,-89.52 291.51,-83.06"/>
</a>
</g>
</g>
<!-- Node22 -->
<g id="Node000022" class="node">
<title>Node22</title>
<g id="a_Node000022"><a xlink:title=" ">
<polygon fill="#e0e0e0" stroke="#999999" points="427.38,-88 302.62,-88 302.62,-56 427.38,-56 427.38,-88"/>
<text text-anchor="start" x="310.62" y="-74.5" font-family="Helvetica,sans-Serif" font-size="10.00">boost/dll/runtime_symbol</text>
<text text-anchor="middle" x="365" y="-62.5" font-family="Helvetica,sans-Serif" font-size="10.00">_info.hpp</text>
</a>
</g>
</g>
<!-- Node14&#45;&gt;Node22 -->
<g id="edge26_Node000014_Node000022" class="edge">
<title>Node14&#45;&gt;Node22</title>
<g id="a_edge26_Node000014_Node000022"><a xlink:title=" ">
<path fill="none" stroke="#63b8ff" d="M530.35,-129.54C501.79,-119.78 456.46,-104.28 420.47,-91.97"/>
<polygon fill="#63b8ff" stroke="#63b8ff" points="421.71,-88.35 411.11,-88.43 419.44,-94.98 421.71,-88.35"/>
</a>
</g>
</g>
<!-- Node18&#45;&gt;Node5 -->
<g id="edge20_Node000018_Node000005" class="edge">
<title>Node18&#45;&gt;Node5</title>
<g id="a_edge20_Node000018_Node000005"><a xlink:title=" ">
<path fill="none" stroke="#63b8ff" d="M205.04,-61.55C213.13,-59.45 221.83,-57.42 230,-56 321.58,-40.05 602.89,-20.32 705.25,-13.47"/>
<polygon fill="#63b8ff" stroke="#63b8ff" points="705.24,-16.92 714.99,-12.76 704.78,-9.93 705.24,-16.92"/>
</a>
</g>
</g>
<!-- Node18&#45;&gt;Node7 -->
<g id="edge19_Node000018_Node000007" class="edge">
<title>Node18&#45;&gt;Node7</title>
<g id="a_edge19_Node000018_Node000007"><a xlink:title=" ">
<path fill="none" stroke="#63b8ff" d="M149.09,-61.62C122.45,-51.17 79.3,-34.25 50.3,-22.88"/>
<polygon fill="#63b8ff" stroke="#63b8ff" points="51.9,-19.36 41.32,-18.97 49.35,-25.88 51.9,-19.36"/>
</a>
</g>
</g>
<!-- Node18&#45;&gt;Node10 -->
<g id="edge22_Node000018_Node000010" class="edge">
<title>Node18&#45;&gt;Node10</title>
<g id="a_edge22_Node000018_Node000010"><a xlink:title=" ">
<path fill="none" stroke="#63b8ff" d="M161.12,-61.62C149.34,-52.32 131.07,-37.9 117.04,-26.82"/>
<polygon fill="#63b8ff" stroke="#63b8ff" points="119.56,-23.56 109.54,-20.11 115.22,-29.06 119.56,-23.56"/>
</a>
</g>
</g>
<!-- Node19 -->
<g id="Node000019" class="node">
<title>Node19</title>
<g id="a_Node000019"><a xlink:title=" ">
<polygon fill="#e0e0e0" stroke="#999999" points="212,-20 154,-20 154,0 212,0 212,-20"/>
<text text-anchor="middle" x="183" y="-6.5" font-family="Helvetica,sans-Serif" font-size="10.00">exception</text>
</a>
</g>
</g>
<!-- Node18&#45;&gt;Node19 -->
<g id="edge18_Node000018_Node000019" class="edge">
<title>Node18&#45;&gt;Node19</title>
<g id="a_edge18_Node000018_Node000019"><a xlink:title=" ">
<path fill="none" stroke="#63b8ff" d="M174.56,-61.62C175.94,-53.39 177.98,-41.13 179.71,-30.74"/>
<polygon fill="#63b8ff" stroke="#63b8ff" points="183.29,-31.55 181.48,-21.11 176.38,-30.4 183.29,-31.55"/>
</a>
</g>
</g>
<!-- Node18&#45;&gt;Node20 -->
<g id="edge21_Node000018_Node000020" class="edge">
<title>Node18&#45;&gt;Node20</title>
<g id="a_edge21_Node000018_Node000020"><a xlink:title=" ">
<path fill="none" stroke="#63b8ff" d="M206.62,-61.52C214.27,-59.54 222.38,-57.58 230,-56 322.31,-36.87 432.44,-22.2 488.41,-15.31"/>
<polygon fill="#63b8ff" stroke="#63b8ff" points="488.68,-18.69 498.19,-14 487.84,-11.74 488.68,-18.69"/>
</a>
</g>
</g>
</g>
</svg>

<g id="navigator" transform="translate(0 0)" fill="#404254">
  <rect fill="#f2f5e9" fill-opacity="0.5" stroke="#606060" stroke-width=".5" x="0" y="0" width="60" height="60"/>
  <use id="zoomplus" xlink:href="#zoomPlus" x="17" y="9" onmousedown="handleZoom(evt,'in')"/>
  <use id="zoomminus" xlink:href="#zoomMin" x="42" y="9" onmousedown="handleZoom(evt,'out')"/>
  <use id="reset" xlink:href="#resetDef" x="30" y="36" onmousedown="handleReset()"/>
   <use id="arrowup" xlink:href="#arrowUp" x="0" y="0" onmousedown="handlePan(0,-1)"/>
  <use id="arrowright" xlink:href="#arrowRight" x="0" y="0" onmousedown="handlePan(1,0)"/>
  <use id="arrowdown" xlink:href="#arrowDown" x="0" y="0" onmousedown="handlePan(0,1)"/>
  <use id="arrowleft" xlink:href="#arrowLeft" x="0" y="0" onmousedown="handlePan(-1,0)"/>
</g>
<svg viewBox="0 0 15 15" width="100%" height="30px" preserveAspectRatio="xMaxYMin meet">
 <g id="arrow_out" transform="scale(0.3 0.3)">
  <a xlink:href="FMTscheduleparser_8hpp__incl_org.svg" target="_base">
   <rect id="button" ry="5" rx="5" y="6" x="6" height="38" width="38"
        fill="#f2f5e9" fill-opacity="0.5" stroke="#606060" stroke-width="1.0"/>
   <path id="arrow"
     d="M 11.500037,31.436501 C 11.940474,20.09759 22.043105,11.32322 32.158766,21.979434 L 37.068811,17.246167 C 37.068811,17.246167 37.088388,32 37.088388,32 L 22.160133,31.978069 C 22.160133,31.978069 26.997745,27.140456 26.997745,27.140456 C 18.528582,18.264221 13.291696,25.230495 11.500037,31.436501 z"
     style="fill:#404040;"/>
  </a>
 </g>
</svg>

<style type='text/css'>
<![CDATA[
[data-mouse-over-selected='false'] { opacity: 0.7; }
[data-mouse-over-selected='true']  { opacity: 1.0; }
]]>
</style>
<script type="application/ecmascript"><![CDATA[
document.addEventListener('DOMContentLoaded', (event) => {
  highlightEdges();
  highlightAdjacentNodes();
});
]]></script>
</svg>
