<?xml version="1.0" encoding="UTF-8" standalone="no"?>
<!DOCTYPE svg PUBLIC "-//W3C//DTD SVG 1.1//EN"
 "http://www.w3.org/Graphics/SVG/1.1/DTD/svg11.dtd">
<!-- Generated by graphviz version 10.0.1 (20240210.2158)
 -->
<!-- Title: D:/FMT/Include/FMTtransitionmask.hpp Pages: 1 -->
<svg width="1769pt" height="208pt"
 viewBox="0.00 0.00 1769.23 208.00" xmlns="http://www.w3.org/2000/svg" xmlns:xlink="http://www.w3.org/1999/xlink">
<g id="graph0" class="graph" transform="scale(1 1) rotate(0) translate(4 204)">
<title>D:/FMT/Include/FMTtransitionmask.hpp</title>
<!-- Node1 -->
<g id="node1" class="node">
<title>Node1</title>
<g id="a_node1"><a xlink:title=" ">
<polygon fill="#999999" stroke="#666666" points="913.51,-200 726.51,-200 726.51,-180 913.51,-180 913.51,-200"/>
<text text-anchor="middle" x="820.01" y="-186.5" font-family="Helvetica,sans-Serif" font-size="10.00">D:/FMT/Include/FMTtransitionmask.hpp</text>
</a>
</g>
</g>
<!-- Node2 -->
<g id="node2" class="node">
<title>Node2</title>
<g id="a_node2"><a xlink:href="FMTbounds_8hpp.html" target="_top" xlink:title=" ">
<polygon fill="white" stroke="#666666" points="473.88,-144 388.13,-144 388.13,-124 473.88,-124 473.88,-144"/>
<text text-anchor="middle" x="431.01" y="-130.5" font-family="Helvetica,sans-Serif" font-size="10.00">FMTbounds.hpp</text>
</a>
</g>
</g>
<!-- Node1&#45;&gt;Node2 -->
<g id="edge1" class="edge">
<title>Node1&#45;&gt;Node2</title>
<path fill="none" stroke="#63b8ff" d="M751.81,-179.53C676.05,-169.02 555.27,-152.25 485.54,-142.57"/>
<polygon fill="#63b8ff" stroke="#63b8ff" points="486.27,-139.14 475.88,-141.23 485.31,-146.07 486.27,-139.14"/>
</g>
<!-- Node7 -->
<g id="node7" class="node">
<title>Node7</title>
<g id="a_node7"><a xlink:title=" ">
<polygon fill="#e0e0e0" stroke="#999999" points="1109.01,-20 1069.01,-20 1069.01,0 1109.01,0 1109.01,-20"/>
<text text-anchor="middle" x="1089.01" y="-6.5" font-family="Helvetica,sans-Serif" font-size="10.00">string</text>
</a>
</g>
</g>
<!-- Node1&#45;&gt;Node7 -->
<g id="edge39" class="edge">
<title>Node1&#45;&gt;Node7</title>
<path fill="none" stroke="#63b8ff" d="M913.92,-185.82C1139.71,-177.21 1698.51,-149.82 1754.01,-88 1763.51,-77.42 1763.72,-66.39 1754.01,-56 1710.38,-9.31 1246.92,-9.69 1120.63,-10.67"/>
<polygon fill="#63b8ff" stroke="#63b8ff" points="1120.65,-7.17 1110.68,-10.76 1120.71,-14.17 1120.65,-7.17"/>
</g>
<!-- Node10 -->
<g id="node10" class="node">
<title>Node10</title>
<g id="a_node10"><a xlink:href="FMTutility_8hpp.html" target="_top" xlink:title=" ">
<polygon fill="white" stroke="#666666" points="396.76,-20 319.26,-20 319.26,0 396.76,0 396.76,-20"/>
<text text-anchor="middle" x="358.01" y="-6.5" font-family="Helvetica,sans-Serif" font-size="10.00">FMTutility.hpp</text>
</a>
</g>
</g>
<!-- Node1&#45;&gt;Node10 -->
<g id="edge40" class="edge">
<title>Node1&#45;&gt;Node10</title>
<path fill="none" stroke="#63b8ff" d="M726.22,-184.31C522.35,-173.15 53.34,-141.83 7.01,-88 -2.27,-77.22 -2.39,-66.68 7.01,-56 26.54,-33.8 215.2,-19.54 307.56,-13.83"/>
<polygon fill="#63b8ff" stroke="#63b8ff" points="307.59,-17.34 317.36,-13.24 307.16,-10.35 307.59,-17.34"/>
</g>
<!-- Node13 -->
<g id="node13" class="node">
<title>Node13</title>
<g id="a_node13"><a xlink:title=" ">
<polygon fill="#e0e0e0" stroke="#999999" points="915.38,-88 820.63,-88 820.63,-56 915.38,-56 915.38,-88"/>
<text text-anchor="start" x="828.63" y="-74.5" font-family="Helvetica,sans-Serif" font-size="10.00">boost/serialization</text>
<text text-anchor="middle" x="868.01" y="-62.5" font-family="Helvetica,sans-Serif" font-size="10.00">/serialization.hpp</text>
</a>
</g>
</g>
<!-- Node1&#45;&gt;Node13 -->
<g id="edge38" class="edge">
<title>Node1&#45;&gt;Node13</title>
<path fill="none" stroke="#63b8ff" d="M823.97,-179.71C827.84,-170.62 833.87,-156.37 839.01,-144 845.23,-129.01 852.1,-112.2 857.6,-98.7"/>
<polygon fill="#63b8ff" stroke="#63b8ff" points="860.75,-100.24 861.27,-89.66 854.26,-97.61 860.75,-100.24"/>
</g>
<!-- Node17 -->
<g id="node17" class="node">
<title>Node17</title>
<g id="a_node17"><a xlink:href="FMTmask_8hpp.html" target="_top" xlink:title=" ">
<polygon fill="white" stroke="#666666" points="1005.13,-144 926.88,-144 926.88,-124 1005.13,-124 1005.13,-144"/>
<text text-anchor="middle" x="966.01" y="-130.5" font-family="Helvetica,sans-Serif" font-size="10.00">FMTmask.hpp</text>
</a>
</g>
</g>
<!-- Node1&#45;&gt;Node17 -->
<g id="edge17" class="edge">
<title>Node1&#45;&gt;Node17</title>
<path fill="none" stroke="#63b8ff" d="M845.44,-179.59C868.75,-170.97 903.51,-158.12 929.73,-148.42"/>
<polygon fill="#63b8ff" stroke="#63b8ff" points="930.8,-151.76 938.96,-145 928.37,-145.19 930.8,-151.76"/>
</g>
<!-- Node24 -->
<g id="node24" class="node">
<title>Node24</title>
<g id="a_node24"><a xlink:href="FMTmaskfilter_8hpp.html" target="_top" xlink:title=" ">
<polygon fill="white" stroke="#666666" points="830.13,-144 733.88,-144 733.88,-124 830.13,-124 830.13,-144"/>
<text text-anchor="middle" x="782.01" y="-130.5" font-family="Helvetica,sans-Serif" font-size="10.00">FMTmaskfilter.hpp</text>
</a>
</g>
</g>
<!-- Node1&#45;&gt;Node24 -->
<g id="edge31" class="edge">
<title>Node1&#45;&gt;Node24</title>
<path fill="none" stroke="#63b8ff" d="M813.39,-179.59C808.32,-172.39 801.17,-162.23 794.98,-153.43"/>
<polygon fill="#63b8ff" stroke="#63b8ff" points="798.04,-151.7 789.42,-145.54 792.32,-155.73 798.04,-151.7"/>
</g>
<!-- Node3 -->
<g id="node3" class="node">
<title>Node3</title>
<g id="a_node3"><a xlink:title=" ">
<polygon fill="#e0e0e0" stroke="#999999" points="129.63,-82 90.38,-82 90.38,-62 129.63,-62 129.63,-82"/>
<text text-anchor="middle" x="110.01" y="-68.5" font-family="Helvetica,sans-Serif" font-size="10.00">limits</text>
</a>
</g>
</g>
<!-- Node2&#45;&gt;Node3 -->
<g id="edge2" class="edge">
<title>Node2&#45;&gt;Node3</title>
<path fill="none" stroke="#63b8ff" d="M387.94,-130.73C330.07,-126.7 224.6,-115.9 139.01,-88 138.04,-87.68 137.07,-87.34 136.09,-86.97"/>
<polygon fill="#63b8ff" stroke="#63b8ff" points="137.8,-83.9 127.25,-82.99 134.93,-90.29 137.8,-83.9"/>
</g>
<!-- Node4 -->
<g id="node4" class="node">
<title>Node4</title>
<g id="a_node4"><a xlink:title=" ">
<polygon fill="#e0e0e0" stroke="#999999" points="182.38,-82 147.63,-82 147.63,-62 182.38,-62 182.38,-82"/>
<text text-anchor="middle" x="165.01" y="-68.5" font-family="Helvetica,sans-Serif" font-size="10.00">map</text>
</a>
</g>
</g>
<!-- Node2&#45;&gt;Node4 -->
<g id="edge3" class="edge">
<title>Node2&#45;&gt;Node4</title>
<path fill="none" stroke="#63b8ff" d="M387.7,-128.16C339.89,-122.02 261.07,-109.56 196.01,-88 194.87,-87.62 193.73,-87.22 192.58,-86.78"/>
<polygon fill="#63b8ff" stroke="#63b8ff" points="194.34,-83.73 183.77,-82.99 191.57,-90.16 194.34,-83.73"/>
</g>
<!-- Node5 -->
<g id="node5" class="node">
<title>Node5</title>
<g id="a_node5"><a xlink:href="FMTexception_8hpp.html" target="_top" xlink:title=" ">
<polygon fill="white" stroke="#666666" points="743.13,-82 646.88,-82 646.88,-62 743.13,-62 743.13,-82"/>
<text text-anchor="middle" x="695.01" y="-68.5" font-family="Helvetica,sans-Serif" font-size="10.00">FMTexception.hpp</text>
</a>
</g>
</g>
<!-- Node2&#45;&gt;Node5 -->
<g id="edge4" class="edge">
<title>Node2&#45;&gt;Node5</title>
<path fill="none" stroke="#63b8ff" d="M474.12,-124.08C515.88,-115.32 580.93,-101.37 637.01,-88 640.6,-87.14 644.31,-86.24 648.04,-85.31"/>
<polygon fill="#63b8ff" stroke="#63b8ff" points="648.87,-88.71 657.71,-82.87 647.15,-81.92 648.87,-88.71"/>
</g>
<!-- Node2&#45;&gt;Node10 -->
<g id="edge10" class="edge">
<title>Node2&#45;&gt;Node10</title>
<path fill="none" stroke="#63b8ff" d="M387.67,-129.57C334.36,-124.34 248.51,-112.32 229.01,-88 220.11,-76.9 220.77,-67.6 229.01,-56 246.82,-30.93 279.67,-19.71 307.76,-14.74"/>
<polygon fill="#63b8ff" stroke="#63b8ff" points="308.2,-18.22 317.56,-13.25 307.14,-11.3 308.2,-18.22"/>
</g>
<!-- Node11 -->
<g id="node11" class="node">
<title>Node11</title>
<g id="a_node11"><a xlink:title=" ">
<polygon fill="#e0e0e0" stroke="#999999" points="802.76,-82 761.26,-82 761.26,-62 802.76,-62 802.76,-82"/>
<text text-anchor="middle" x="782.01" y="-68.5" font-family="Helvetica,sans-Serif" font-size="10.00">vector</text>
</a>
</g>
</g>
<!-- Node2&#45;&gt;Node11 -->
<g id="edge11" class="edge">
<title>Node2&#45;&gt;Node11</title>
<path fill="none" stroke="#63b8ff" d="M474.29,-131.37C536.88,-128.02 655.69,-117.95 752.01,-88 753.15,-87.65 754.3,-87.25 755.45,-86.83"/>
<polygon fill="#63b8ff" stroke="#63b8ff" points="756.44,-90.22 764.2,-83.01 753.64,-83.8 756.44,-90.22"/>
</g>
<!-- Node12 -->
<g id="node12" class="node">
<title>Node12</title>
<g id="a_node12"><a xlink:title=" ">
<polygon fill="#e0e0e0" stroke="#999999" points="365.51,-82 238.51,-82 238.51,-62 365.51,-62 365.51,-82"/>
<text text-anchor="middle" x="302.01" y="-68.5" font-family="Helvetica,sans-Serif" font-size="10.00">boost/functional/hash.hpp</text>
</a>
</g>
</g>
<!-- Node2&#45;&gt;Node12 -->
<g id="edge12" class="edge">
<title>Node2&#45;&gt;Node12</title>
<path fill="none" stroke="#63b8ff" d="M410.85,-123.62C389.84,-113.85 356.65,-98.41 332.44,-87.15"/>
<polygon fill="#63b8ff" stroke="#63b8ff" points="333.94,-83.99 323.4,-82.95 330.99,-90.34 333.94,-83.99"/>
</g>
<!-- Node2&#45;&gt;Node13 -->
<g id="edge13" class="edge">
<title>Node2&#45;&gt;Node13</title>
<path fill="none" stroke="#63b8ff" d="M474.17,-129.94C543.12,-124.61 682.49,-112.03 809.12,-88.4"/>
<polygon fill="#63b8ff" stroke="#63b8ff" points="809.49,-91.89 818.67,-86.59 808.19,-85.01 809.49,-91.89"/>
</g>
<!-- Node14 -->
<g id="node14" class="node">
<title>Node14</title>
<g id="a_node14"><a xlink:title=" ">
<polygon fill="#e0e0e0" stroke="#999999" points="478.38,-88 383.63,-88 383.63,-56 478.38,-56 478.38,-88"/>
<text text-anchor="start" x="391.63" y="-74.5" font-family="Helvetica,sans-Serif" font-size="10.00">boost/serialization</text>
<text text-anchor="middle" x="431.01" y="-62.5" font-family="Helvetica,sans-Serif" font-size="10.00">/nvp.hpp</text>
</a>
</g>
</g>
<!-- Node2&#45;&gt;Node14 -->
<g id="edge14" class="edge">
<title>Node2&#45;&gt;Node14</title>
<path fill="none" stroke="#63b8ff" d="M431.01,-123.62C431.01,-117.1 431.01,-108.05 431.01,-99.4"/>
<polygon fill="#63b8ff" stroke="#63b8ff" points="434.51,-99.65 431.01,-89.65 427.51,-99.65 434.51,-99.65"/>
</g>
<!-- Node15 -->
<g id="node15" class="node">
<title>Node15</title>
<g id="a_node15"><a xlink:title=" ">
<polygon fill="#e0e0e0" stroke="#999999" points="628.38,-88 533.63,-88 533.63,-56 628.38,-56 628.38,-88"/>
<text text-anchor="start" x="541.63" y="-74.5" font-family="Helvetica,sans-Serif" font-size="10.00">boost/serialization</text>
<text text-anchor="middle" x="581.01" y="-62.5" font-family="Helvetica,sans-Serif" font-size="10.00">/string.hpp</text>
</a>
</g>
</g>
<!-- Node2&#45;&gt;Node15 -->
<g id="edge15" class="edge">
<title>Node2&#45;&gt;Node15</title>
<path fill="none" stroke="#63b8ff" d="M454.45,-123.62C475.09,-115.37 505.82,-103.07 531.84,-92.67"/>
<polygon fill="#63b8ff" stroke="#63b8ff" points="532.89,-96.02 540.88,-89.05 530.29,-89.52 532.89,-96.02"/>
</g>
<!-- Node16 -->
<g id="node16" class="node">
<title>Node16</title>
<g id="a_node16"><a xlink:title=" ">
<polygon fill="#e0e0e0" stroke="#999999" points="71.88,-82 16.13,-82 16.13,-62 71.88,-62 71.88,-82"/>
<text text-anchor="middle" x="44.01" y="-68.5" font-family="Helvetica,sans-Serif" font-size="10.00">algorithm</text>
</a>
</g>
</g>
<!-- Node2&#45;&gt;Node16 -->
<g id="edge16" class="edge">
<title>Node2&#45;&gt;Node16</title>
<path fill="none" stroke="#63b8ff" d="M387.77,-131.02C320.99,-127.16 189.16,-116.37 81.01,-88 79.03,-87.48 77.02,-86.88 75.01,-86.23"/>
<polygon fill="#63b8ff" stroke="#63b8ff" points="76.45,-83.03 65.86,-82.89 74.05,-89.61 76.45,-83.03"/>
</g>
<!-- Node6 -->
<g id="node6" class="node">
<title>Node6</title>
<g id="a_node6"><a xlink:title=" ">
<polygon fill="#e0e0e0" stroke="#999999" points="797.01,-20 739.01,-20 739.01,0 797.01,0 797.01,-20"/>
<text text-anchor="middle" x="768.01" y="-6.5" font-family="Helvetica,sans-Serif" font-size="10.00">exception</text>
</a>
</g>
</g>
<!-- Node5&#45;&gt;Node6 -->
<g id="edge5" class="edge">
<title>Node5&#45;&gt;Node6</title>
<path fill="none" stroke="#63b8ff" d="M706.42,-61.62C717.62,-52.41 734.95,-38.17 748.38,-27.14"/>
<polygon fill="#63b8ff" stroke="#63b8ff" points="750.25,-30.13 755.75,-21.07 745.81,-24.72 750.25,-30.13"/>
</g>
<!-- Node5&#45;&gt;Node7 -->
<g id="edge6" class="edge">
<title>Node5&#45;&gt;Node7</title>
<path fill="none" stroke="#63b8ff" d="M728,-61.57C735.83,-59.54 744.18,-57.55 752.01,-56 863.34,-34.01 997.52,-19.67 1057.44,-13.89"/>
<polygon fill="#63b8ff" stroke="#63b8ff" points="1057.6,-17.39 1067.23,-12.96 1056.94,-10.42 1057.6,-17.39"/>
</g>
<!-- Node8 -->
<g id="node8" class="node">
<title>Node8</title>
<g id="a_node8"><a xlink:title=" ">
<polygon fill="#e0e0e0" stroke="#999999" points="651.76,-20 598.26,-20 598.26,0 651.76,0 651.76,-20"/>
<text text-anchor="middle" x="625.01" y="-6.5" font-family="Helvetica,sans-Serif" font-size="10.00">iostream</text>
</a>
</g>
</g>
<!-- Node5&#45;&gt;Node8 -->
<g id="edge7" class="edge">
<title>Node5&#45;&gt;Node8</title>
<path fill="none" stroke="#63b8ff" d="M684.07,-61.62C673.43,-52.5 657.03,-38.45 644.21,-27.46"/>
<polygon fill="#63b8ff" stroke="#63b8ff" points="646.66,-24.95 636.79,-21.1 642.11,-30.26 646.66,-24.95"/>
</g>
<!-- Node9 -->
<g id="node9" class="node">
<title>Node9</title>
<g id="a_node9"><a xlink:title=" ">
<polygon fill="#e0e0e0" stroke="#999999" points="720.63,-20 669.38,-20 669.38,0 720.63,0 720.63,-20"/>
<text text-anchor="middle" x="695.01" y="-6.5" font-family="Helvetica,sans-Serif" font-size="10.00">memory</text>
</a>
</g>
</g>
<!-- Node5&#45;&gt;Node9 -->
<g id="edge8" class="edge">
<title>Node5&#45;&gt;Node9</title>
<path fill="none" stroke="#63b8ff" d="M695.01,-61.62C695.01,-53.56 695.01,-41.65 695.01,-31.41"/>
<polygon fill="#63b8ff" stroke="#63b8ff" points="698.51,-31.63 695.01,-21.63 691.51,-31.63 698.51,-31.63"/>
</g>
<!-- Node5&#45;&gt;Node10 -->
<g id="edge9" class="edge">
<title>Node5&#45;&gt;Node10</title>
<path fill="none" stroke="#63b8ff" d="M660.48,-61.51C652.78,-59.55 644.64,-57.6 637.01,-56 557.66,-39.38 464.5,-25.46 408.42,-17.69"/>
<polygon fill="#63b8ff" stroke="#63b8ff" points="408.92,-14.22 398.54,-16.33 407.97,-21.16 408.92,-14.22"/>
</g>
<!-- Node17&#45;&gt;Node5 -->
<g id="edge28" class="edge">
<title>Node17&#45;&gt;Node5</title>
<path fill="none" stroke="#63b8ff" d="M926.44,-125.3C883.39,-116.77 812.6,-102.33 752.01,-88 748.43,-87.15 744.72,-86.25 741,-85.31"/>
<polygon fill="#63b8ff" stroke="#63b8ff" points="741.93,-81.94 731.37,-82.85 740.2,-88.72 741.93,-81.94"/>
</g>
<!-- Node17&#45;&gt;Node7 -->
<g id="edge30" class="edge">
<title>Node17&#45;&gt;Node7</title>
<path fill="none" stroke="#63b8ff" d="M1005.55,-124.99C1027.54,-118.56 1053.68,-107.3 1070.01,-88 1083.26,-72.34 1087.52,-48.82 1088.77,-31.9"/>
<polygon fill="#63b8ff" stroke="#63b8ff" points="1092.27,-32.13 1089.18,-21.99 1085.27,-31.84 1092.27,-32.13"/>
</g>
<!-- Node17&#45;&gt;Node11 -->
<g id="edge29" class="edge">
<title>Node17&#45;&gt;Node11</title>
<path fill="none" stroke="#63b8ff" d="M926.44,-123.53C894.94,-115.49 850,-102.91 812.01,-88 811.24,-87.7 810.46,-87.38 809.67,-87.05"/>
<polygon fill="#63b8ff" stroke="#63b8ff" points="811.46,-84.02 800.91,-83.05 808.55,-90.39 811.46,-84.02"/>
</g>
<!-- Node17&#45;&gt;Node12 -->
<g id="edge22" class="edge">
<title>Node17&#45;&gt;Node12</title>
<path fill="none" stroke="#63b8ff" d="M926.61,-130.14C798.79,-120.84 402.33,-91.83 375.01,-88 368.44,-87.08 361.58,-85.93 354.8,-84.67"/>
<polygon fill="#63b8ff" stroke="#63b8ff" points="355.51,-81.24 345.03,-82.77 354.18,-88.11 355.51,-81.24"/>
</g>
<!-- Node17&#45;&gt;Node13 -->
<g id="edge23" class="edge">
<title>Node17&#45;&gt;Node13</title>
<path fill="none" stroke="#63b8ff" d="M950.7,-123.62C937.95,-115.82 919.3,-104.4 902.94,-94.38"/>
<polygon fill="#63b8ff" stroke="#63b8ff" points="904.77,-91.4 894.41,-89.16 901.11,-97.37 904.77,-91.4"/>
</g>
<!-- Node17&#45;&gt;Node14 -->
<g id="edge25" class="edge">
<title>Node17&#45;&gt;Node14</title>
<path fill="none" stroke="#63b8ff" d="M926.39,-129.71C849.06,-123.13 672.67,-107.3 525.01,-88 513.7,-86.52 501.66,-84.75 490.11,-82.95"/>
<polygon fill="#63b8ff" stroke="#63b8ff" points="490.67,-79.5 480.25,-81.39 489.58,-86.41 490.67,-79.5"/>
</g>
<!-- Node17&#45;&gt;Node15 -->
<g id="edge27" class="edge">
<title>Node17&#45;&gt;Node15</title>
<path fill="none" stroke="#63b8ff" d="M926.62,-129.15C866.84,-122.98 749.44,-109.53 640.05,-88.25"/>
<polygon fill="#63b8ff" stroke="#63b8ff" points="640.78,-84.82 630.29,-86.32 639.42,-91.69 640.78,-84.82"/>
</g>
<!-- Node18 -->
<g id="node18" class="node">
<title>Node18</title>
<g id="a_node18"><a xlink:title=" ">
<polygon fill="#e0e0e0" stroke="#999999" points="1060.88,-82 933.13,-82 933.13,-62 1060.88,-62 1060.88,-82"/>
<text text-anchor="middle" x="997.01" y="-68.5" font-family="Helvetica,sans-Serif" font-size="10.00">boost/dynamic_bitset.hpp</text>
</a>
</g>
</g>
<!-- Node17&#45;&gt;Node18 -->
<g id="edge18" class="edge">
<title>Node17&#45;&gt;Node18</title>
<path fill="none" stroke="#63b8ff" d="M970.85,-123.62C975.2,-115.21 981.72,-102.6 987.16,-92.07"/>
<polygon fill="#63b8ff" stroke="#63b8ff" points="990.13,-93.95 991.61,-83.46 983.91,-90.74 990.13,-93.95"/>
</g>
<!-- Node19 -->
<g id="node19" class="node">
<title>Node19</title>
<g id="a_node19"><a xlink:title=" ">
<polygon fill="#e0e0e0" stroke="#999999" points="1245.26,-82 1116.76,-82 1116.76,-62 1245.26,-62 1245.26,-82"/>
<text text-anchor="middle" x="1181.01" y="-68.5" font-family="Helvetica,sans-Serif" font-size="10.00">boost/unordered_map.hpp</text>
</a>
</g>
</g>
<!-- Node17&#45;&gt;Node19 -->
<g id="edge19" class="edge">
<title>Node17&#45;&gt;Node19</title>
<path fill="none" stroke="#63b8ff" d="M999.6,-123.62C1036.42,-113.35 1095.64,-96.82 1136.34,-85.47"/>
<polygon fill="#63b8ff" stroke="#63b8ff" points="1137.15,-88.87 1145.84,-82.81 1135.27,-82.13 1137.15,-88.87"/>
</g>
<!-- Node20 -->
<g id="node20" class="node">
<title>Node20</title>
<g id="a_node20"><a xlink:title=" ">
<polygon fill="#e0e0e0" stroke="#999999" points="1392.26,-82 1263.76,-82 1263.76,-62 1392.26,-62 1392.26,-82"/>
<text text-anchor="middle" x="1328.01" y="-68.5" font-family="Helvetica,sans-Serif" font-size="10.00">boost/algorithm/string.hpp</text>
</a>
</g>
</g>
<!-- Node17&#45;&gt;Node20 -->
<g id="edge20" class="edge">
<title>Node17&#45;&gt;Node20</title>
<path fill="none" stroke="#63b8ff" d="M1005.23,-127.44C1060.74,-119.45 1165.35,-103.9 1254.01,-88 1259.9,-86.94 1266.04,-85.79 1272.15,-84.6"/>
<polygon fill="#63b8ff" stroke="#63b8ff" points="1272.45,-88.11 1281.58,-82.74 1271.1,-81.24 1272.45,-88.11"/>
</g>
<!-- Node21 -->
<g id="node21" class="node">
<title>Node21</title>
<g id="a_node21"><a xlink:title=" ">
<polygon fill="#e0e0e0" stroke="#999999" points="1519.88,-88 1410.13,-88 1410.13,-56 1519.88,-56 1519.88,-88"/>
<text text-anchor="start" x="1418.13" y="-74.5" font-family="Helvetica,sans-Serif" font-size="10.00">boost/algorithm/string</text>
<text text-anchor="middle" x="1465.01" y="-62.5" font-family="Helvetica,sans-Serif" font-size="10.00">/join.hpp</text>
</a>
</g>
</g>
<!-- Node17&#45;&gt;Node21 -->
<g id="edge21" class="edge">
<title>Node17&#45;&gt;Node21</title>
<path fill="none" stroke="#63b8ff" d="M1005.52,-130.6C1080.32,-125.7 1247.88,-112.98 1398.66,-88.25"/>
<polygon fill="#63b8ff" stroke="#63b8ff" points="1399.16,-91.72 1408.45,-86.62 1398.01,-84.81 1399.16,-91.72"/>
</g>
<!-- Node22 -->
<g id="node22" class="node">
<title>Node22</title>
<g id="a_node22"><a xlink:title=" ">
<polygon fill="#e0e0e0" stroke="#999999" points="1632.38,-88 1537.63,-88 1537.63,-56 1632.38,-56 1632.38,-88"/>
<text text-anchor="start" x="1545.63" y="-74.5" font-family="Helvetica,sans-Serif" font-size="10.00">boost/serialization</text>
<text text-anchor="middle" x="1585.01" y="-62.5" font-family="Helvetica,sans-Serif" font-size="10.00">/split_free.hpp</text>
</a>
</g>
</g>
<!-- Node17&#45;&gt;Node22 -->
<g id="edge24" class="edge">
<title>Node17&#45;&gt;Node22</title>
<path fill="none" stroke="#63b8ff" d="M1005.56,-132.31C1096.18,-130.19 1325.81,-121.85 1525.86,-88.35"/>
<polygon fill="#63b8ff" stroke="#63b8ff" points="1526.41,-91.81 1535.68,-86.68 1525.24,-84.91 1526.41,-91.81"/>
</g>
<!-- Node23 -->
<g id="node23" class="node">
<title>Node23</title>
<g id="a_node23"><a xlink:title=" ">
<polygon fill="#e0e0e0" stroke="#999999" points="1745.38,-88 1650.63,-88 1650.63,-56 1745.38,-56 1745.38,-88"/>
<text text-anchor="start" x="1658.63" y="-74.5" font-family="Helvetica,sans-Serif" font-size="10.00">boost/serialization</text>
<text text-anchor="middle" x="1698.01" y="-62.5" font-family="Helvetica,sans-Serif" font-size="10.00">/export.hpp</text>
</a>
</g>
</g>
<!-- Node17&#45;&gt;Node23 -->
<g id="edge26" class="edge">
<title>Node17&#45;&gt;Node23</title>
<path fill="none" stroke="#63b8ff" d="M1005.49,-132.99C1108.37,-132.4 1393.15,-127.22 1638.95,-88.1"/>
<polygon fill="#63b8ff" stroke="#63b8ff" points="1639.45,-91.57 1648.76,-86.51 1638.33,-84.66 1639.45,-91.57"/>
</g>
<!-- Node24&#45;&gt;Node10 -->
<g id="edge37" class="edge">
<title>Node24&#45;&gt;Node10</title>
<path fill="none" stroke="#63b8ff" d="M733.83,-131.99C680.45,-129.22 592.94,-119.7 525.01,-88 505,-78.66 506.2,-66.93 487.01,-56 462.26,-41.9 432.33,-31.13 407.54,-23.66"/>
<polygon fill="#63b8ff" stroke="#63b8ff" points="408.58,-20.32 398,-20.88 406.63,-27.04 408.58,-20.32"/>
</g>
<!-- Node24&#45;&gt;Node11 -->
<g id="edge35" class="edge">
<title>Node24&#45;&gt;Node11</title>
<path fill="none" stroke="#63b8ff" d="M782.01,-123.62C782.01,-115.56 782.01,-103.65 782.01,-93.41"/>
<polygon fill="#63b8ff" stroke="#63b8ff" points="785.51,-93.63 782.01,-83.63 778.51,-93.63 785.51,-93.63"/>
</g>
<!-- Node24&#45;&gt;Node12 -->
<g id="edge36" class="edge">
<title>Node24&#45;&gt;Node12</title>
<path fill="none" stroke="#63b8ff" d="M733.57,-129.11C657.11,-122.63 503.87,-108.32 375.01,-88 368.71,-87.01 362.12,-85.84 355.6,-84.6"/>
<polygon fill="#63b8ff" stroke="#63b8ff" points="356.71,-81.25 346.22,-82.76 355.36,-88.12 356.71,-81.25"/>
</g>
<!-- Node24&#45;&gt;Node13 -->
<g id="edge33" class="edge">
<title>Node24&#45;&gt;Node13</title>
<path fill="none" stroke="#63b8ff" d="M795.45,-123.62C806.43,-115.97 822.39,-104.83 836.54,-94.95"/>
<polygon fill="#63b8ff" stroke="#63b8ff" points="838.53,-97.83 844.73,-89.24 834.53,-92.09 838.53,-97.83"/>
</g>
<!-- Node24&#45;&gt;Node14 -->
<g id="edge34" class="edge">
<title>Node24&#45;&gt;Node14</title>
<path fill="none" stroke="#63b8ff" d="M733.55,-126.8C675.78,-119.1 576.44,-104.9 492.01,-88 491.34,-87.87 490.67,-87.73 489.99,-87.59"/>
<polygon fill="#63b8ff" stroke="#63b8ff" points="490.87,-84.2 480.35,-85.51 489.39,-91.04 490.87,-84.2"/>
</g>
<!-- Node24&#45;&gt;Node18 -->
<g id="edge32" class="edge">
<title>Node24&#45;&gt;Node18</title>
<path fill="none" stroke="#63b8ff" d="M815.6,-123.62C852.42,-113.35 911.64,-96.82 952.34,-85.47"/>
<polygon fill="#63b8ff" stroke="#63b8ff" points="953.15,-88.87 961.84,-82.81 951.27,-82.13 953.15,-88.87"/>
</g>
</g>
</svg>
