<?xml version="1.0" encoding="UTF-8" standalone="no"?>
<!DOCTYPE svg PUBLIC "-//W3C//DTD SVG 1.1//EN"
 "http://www.w3.org/Graphics/SVG/1.1/DTD/svg11.dtd">
<!-- Generated by graphviz version 8.1.0 (20230707.0739)
 -->
<!-- Title: C:/Temp/out/FMT/Include/FMTtransitionmask.hpp Pages: 1 -->
<svg width="1418pt" height="720pt"
 viewBox="0.00 0.00 1418.30 720.00" xmlns="http://www.w3.org/2000/svg" xmlns:xlink="http://www.w3.org/1999/xlink">
<g id="graph0" class="graph" transform="scale(1 1) rotate(0) translate(4 716)">
<title>C:/Temp/out/FMT/Include/FMTtransitionmask.hpp</title>
<!-- Node1 -->
<g id="Node000001" class="node">
<title>Node1</title>
<g id="a_Node000001"><a xlink:title=" ">
<polygon fill="#999999" stroke="#666666" points="1122.75,-712 997.25,-712 997.25,-680 1122.75,-680 1122.75,-712"/>
<text text-anchor="start" x="1005.25" y="-698.5" font-family="Helvetica,sans-Serif" font-size="10.00">C:/Temp/out/FMT/Include</text>
<text text-anchor="middle" x="1060" y="-686.5" font-family="Helvetica,sans-Serif" font-size="10.00">/FMTtransitionmask.hpp</text>
</a>
</g>
</g>
<!-- Node2 -->
<g id="Node000002" class="node">
<title>Node2</title>
<g id="a_Node000002"><a xlink:href="FMTfork_8hpp.html" target="_top" xlink:title=" ">
<polygon fill="white" stroke="#666666" points="1077.75,-644 952.25,-644 952.25,-612 1077.75,-612 1077.75,-644"/>
<text text-anchor="start" x="960.25" y="-630.5" font-family="Helvetica,sans-Serif" font-size="10.00">C:/Temp/out/FMT/Include</text>
<text text-anchor="middle" x="1015" y="-618.5" font-family="Helvetica,sans-Serif" font-size="10.00">/FMTfork.hpp</text>
</a>
</g>
</g>
<!-- Node1&#45;&gt;Node2 -->
<g id="edge1_Node000001_Node000002" class="edge">
<title>Node1&#45;&gt;Node2</title>
<g id="a_edge1_Node000001_Node000002"><a xlink:title=" ">
<path fill="none" stroke="#63b8ff" d="M1043.54,-670.87C1037.47,-661.96 1030.76,-652.12 1025.38,-644.22"/>
<polygon fill="#63b8ff" stroke="#63b8ff" points="1041.03,-672.4 1049.56,-678.69 1046.82,-668.46 1041.03,-672.4"/>
</a>
</g>
</g>
<!-- Node11 -->
<g id="Node000011" class="node">
<title>Node11</title>
<g id="a_Node000011"><a xlink:href="Rdeclarations_8hpp.html" target="_top" xlink:title=" ">
<polygon fill="white" stroke="#666666" points="543.75,-100 418.25,-100 418.25,-68 543.75,-68 543.75,-100"/>
<text text-anchor="start" x="426.25" y="-86.5" font-family="Helvetica,sans-Serif" font-size="10.00">C:/Temp/out/FMT/Include</text>
<text text-anchor="middle" x="481" y="-74.5" font-family="Helvetica,sans-Serif" font-size="10.00">/Rdeclarations.hpp</text>
</a>
</g>
</g>
<!-- Node1&#45;&gt;Node11 -->
<g id="edge63_Node000001_Node000011" class="edge">
<title>Node1&#45;&gt;Node11</title>
<g id="a_edge63_Node000001_Node000011"><a xlink:title=" ">
<path fill="none" stroke="#63b8ff" d="M986.21,-689.86C793.7,-675.45 291,-631.12 291,-561 291,-561 291,-561 291,-219 291,-154.82 364.29,-118.67 419.83,-100.49"/>
<polygon fill="#63b8ff" stroke="#63b8ff" points="985.83,-693.41 996.07,-690.66 986.35,-686.43 985.83,-693.41"/>
</a>
</g>
</g>
<!-- Node28 -->
<g id="Node000028" class="node">
<title>Node28</title>
<g id="a_Node000028"><a xlink:href="PYexportCore_8hpp.html" target="_top" xlink:title=" ">
<polygon fill="white" stroke="#666666" points="1208.75,-508 1083.25,-508 1083.25,-476 1208.75,-476 1208.75,-508"/>
<text text-anchor="start" x="1091.25" y="-494.5" font-family="Helvetica,sans-Serif" font-size="10.00">C:/Temp/out/FMT/Include</text>
<text text-anchor="middle" x="1146" y="-482.5" font-family="Helvetica,sans-Serif" font-size="10.00">/PYexportCore.hpp</text>
</a>
</g>
</g>
<!-- Node1&#45;&gt;Node28 -->
<g id="edge62_Node000001_Node000028" class="edge">
<title>Node1&#45;&gt;Node28</title>
<g id="a_edge62_Node000001_Node000028"><a xlink:title=" ">
<path fill="none" stroke="#63b8ff" d="M1073.86,-670.19C1078.26,-661.96 1083.02,-652.68 1087,-644 1109.27,-595.39 1130.98,-535.76 1140.7,-508.24"/>
<polygon fill="#63b8ff" stroke="#63b8ff" points="1070.44,-668.15 1068.74,-678.61 1076.59,-671.5 1070.44,-668.15"/>
</a>
</g>
</g>
<!-- Node29 -->
<g id="Node000029" class="node">
<title>Node29</title>
<g id="a_Node000029"><a xlink:href="RexportCore_8hpp.html" target="_top" xlink:title=" ">
<polygon fill="white" stroke="#666666" points="1352.75,-508 1227.25,-508 1227.25,-476 1352.75,-476 1352.75,-508"/>
<text text-anchor="start" x="1235.25" y="-494.5" font-family="Helvetica,sans-Serif" font-size="10.00">C:/Temp/out/FMT/Include</text>
<text text-anchor="middle" x="1290" y="-482.5" font-family="Helvetica,sans-Serif" font-size="10.00">/RexportCore.hpp</text>
</a>
</g>
</g>
<!-- Node1&#45;&gt;Node29 -->
<g id="edge64_Node000001_Node000029" class="edge">
<title>Node1&#45;&gt;Node29</title>
<g id="a_edge64_Node000001_Node000029"><a xlink:title=" ">
<path fill="none" stroke="#63b8ff" d="M1085.44,-672.65C1132.54,-631.29 1232.18,-543.77 1272.51,-508.36"/>
<polygon fill="#63b8ff" stroke="#63b8ff" points="1083.49,-670.59 1078.28,-679.82 1088.11,-675.85 1083.49,-670.59"/>
</a>
</g>
</g>
<!-- Node3 -->
<g id="Node000003" class="node">
<title>Node3</title>
<g id="a_Node000003"><a xlink:href="FMTtransition_8hpp.html" target="_top" xlink:title=" ">
<polygon fill="white" stroke="#666666" points="1077.75,-576 952.25,-576 952.25,-544 1077.75,-544 1077.75,-576"/>
<text text-anchor="start" x="960.25" y="-562.5" font-family="Helvetica,sans-Serif" font-size="10.00">C:/Temp/out/FMT/Include</text>
<text text-anchor="middle" x="1015" y="-550.5" font-family="Helvetica,sans-Serif" font-size="10.00">/FMTtransition.hpp</text>
</a>
</g>
</g>
<!-- Node2&#45;&gt;Node3 -->
<g id="edge2_Node000002_Node000003" class="edge">
<title>Node2&#45;&gt;Node3</title>
<g id="a_edge2_Node000002_Node000003"><a xlink:title=" ">
<path fill="none" stroke="#63b8ff" d="M1015,-600.89C1015,-592.52 1015,-583.54 1015,-576.22"/>
<polygon fill="#63b8ff" stroke="#63b8ff" points="1011.5,-600.69 1015,-610.69 1018.5,-600.69 1011.5,-600.69"/>
</a>
</g>
</g>
<!-- Node2&#45;&gt;Node11 -->
<g id="edge61_Node000002_Node000011" class="edge">
<title>Node2&#45;&gt;Node11</title>
<g id="a_edge61_Node000002_Node000011"><a xlink:title=" ">
<path fill="none" stroke="#63b8ff" d="M941.21,-627.98C764,-628.36 329,-616.69 329,-493 329,-493 329,-493 329,-219 329,-159.72 394.85,-120.43 439.86,-100.49"/>
<polygon fill="#63b8ff" stroke="#63b8ff" points="941.01,-631.48 950.99,-627.94 940.98,-624.48 941.01,-631.48"/>
</a>
</g>
</g>
<!-- Node4 -->
<g id="Node000004" class="node">
<title>Node4</title>
<g id="a_Node000004"><a xlink:href="FMTmodel_8hpp.html" target="_top" xlink:title=" ">
<polygon fill="white" stroke="#666666" points="1064.75,-508 939.25,-508 939.25,-476 1064.75,-476 1064.75,-508"/>
<text text-anchor="start" x="947.25" y="-494.5" font-family="Helvetica,sans-Serif" font-size="10.00">C:/Temp/out/FMT/Include</text>
<text text-anchor="middle" x="1002" y="-482.5" font-family="Helvetica,sans-Serif" font-size="10.00">/FMTmodel.hpp</text>
</a>
</g>
</g>
<!-- Node3&#45;&gt;Node4 -->
<g id="edge3_Node000003_Node000004" class="edge">
<title>Node3&#45;&gt;Node4</title>
<g id="a_edge3_Node000003_Node000004"><a xlink:title=" ">
<path fill="none" stroke="#63b8ff" d="M1009.91,-533.17C1008.25,-524.73 1006.45,-515.63 1005,-508.22"/>
<polygon fill="#63b8ff" stroke="#63b8ff" points="1006.61,-533.56 1011.98,-542.69 1013.48,-532.2 1006.61,-533.56"/>
</a>
</g>
</g>
<!-- Node3&#45;&gt;Node11 -->
<g id="edge59_Node000003_Node000011" class="edge">
<title>Node3&#45;&gt;Node11</title>
<g id="a_edge59_Node000003_Node000011"><a xlink:title=" ">
<path fill="none" stroke="#63b8ff" d="M941.13,-559.12C771.2,-557.41 367,-541.14 367,-425 367,-425 367,-425 367,-219 367,-165.24 420.88,-122.07 454.56,-100.33"/>
<polygon fill="#63b8ff" stroke="#63b8ff" points="940.95,-562.63 950.98,-559.21 941.01,-555.63 940.95,-562.63"/>
</a>
</g>
</g>
<!-- Node3&#45;&gt;Node28 -->
<g id="edge58_Node000003_Node000028" class="edge">
<title>Node3&#45;&gt;Node28</title>
<g id="a_edge58_Node000003_Node000028"><a xlink:title=" ">
<path fill="none" stroke="#63b8ff" d="M1055.47,-538.61C1074.83,-528.86 1097.61,-517.38 1115.48,-508.38"/>
<polygon fill="#63b8ff" stroke="#63b8ff" points="1054.07,-535.9 1046.71,-543.53 1057.22,-542.15 1054.07,-535.9"/>
</a>
</g>
</g>
<!-- Node3&#45;&gt;Node29 -->
<g id="edge60_Node000003_Node000029" class="edge">
<title>Node3&#45;&gt;Node29</title>
<g id="a_edge60_Node000003_Node000029"><a xlink:title=" ">
<path fill="none" stroke="#63b8ff" d="M1088.55,-541.35C1131.82,-530.96 1185.95,-517.97 1227.2,-508.07"/>
<polygon fill="#63b8ff" stroke="#63b8ff" points="1087.99,-538.12 1079.09,-543.86 1089.63,-544.93 1087.99,-538.12"/>
</a>
</g>
</g>
<!-- Node5 -->
<g id="Node000005" class="node">
<title>Node5</title>
<g id="a_Node000005"><a xlink:href="FMTgraph_8hpp.html" target="_top" xlink:title=" ">
<polygon fill="white" stroke="#666666" points="944.75,-440 819.25,-440 819.25,-408 944.75,-408 944.75,-440"/>
<text text-anchor="start" x="827.25" y="-426.5" font-family="Helvetica,sans-Serif" font-size="10.00">C:/Temp/out/FMT/Include</text>
<text text-anchor="middle" x="882" y="-414.5" font-family="Helvetica,sans-Serif" font-size="10.00">/FMTgraph.hpp</text>
</a>
</g>
</g>
<!-- Node4&#45;&gt;Node5 -->
<g id="edge4_Node000004_Node000005" class="edge">
<title>Node4&#45;&gt;Node5</title>
<g id="a_edge4_Node000004_Node000005"><a xlink:title=" ">
<path fill="none" stroke="#63b8ff" d="M964.43,-470.34C946.81,-460.65 926.17,-449.3 909.96,-440.38"/>
<polygon fill="#63b8ff" stroke="#63b8ff" points="962.41,-473.77 972.86,-475.53 965.79,-467.64 962.41,-473.77"/>
</a>
</g>
</g>
<!-- Node8 -->
<g id="Node000008" class="node">
<title>Node8</title>
<g id="a_Node000008"><a xlink:href="FMTsemodel_8hpp.html" target="_top" xlink:title=" ">
<polygon fill="white" stroke="#666666" points="926.75,-236 801.25,-236 801.25,-204 926.75,-204 926.75,-236"/>
<text text-anchor="start" x="809.25" y="-222.5" font-family="Helvetica,sans-Serif" font-size="10.00">C:/Temp/out/FMT/Include</text>
<text text-anchor="middle" x="864" y="-210.5" font-family="Helvetica,sans-Serif" font-size="10.00">/FMTsemodel.hpp</text>
</a>
</g>
</g>
<!-- Node4&#45;&gt;Node8 -->
<g id="edge51_Node000004_Node000008" class="edge">
<title>Node4&#45;&gt;Node8</title>
<g id="a_edge51_Node000004_Node000008"><a xlink:title=" ">
<path fill="none" stroke="#63b8ff" d="M1047.98,-469.86C1059.53,-462.18 1070.49,-452.3 1077,-440 1097.79,-400.72 1099.49,-378.33 1077,-340 1044.41,-284.47 975.43,-252.93 924.76,-236.47"/>
<polygon fill="#63b8ff" stroke="#63b8ff" points="1046.38,-467.34 1039.66,-475.54 1050.02,-473.32 1046.38,-467.34"/>
</a>
</g>
</g>
<!-- Node10 -->
<g id="Node000010" class="node">
<title>Node10</title>
<g id="a_Node000010"><a xlink:href="PYexportModel_8hpp.html" target="_top" xlink:title=" ">
<polygon fill="white" stroke="#666666" points="1017.75,-100 892.25,-100 892.25,-68 1017.75,-68 1017.75,-100"/>
<text text-anchor="start" x="900.25" y="-86.5" font-family="Helvetica,sans-Serif" font-size="10.00">C:/Temp/out/FMT/Include</text>
<text text-anchor="middle" x="955" y="-74.5" font-family="Helvetica,sans-Serif" font-size="10.00">/PYexportModel.hpp</text>
</a>
</g>
</g>
<!-- Node4&#45;&gt;Node10 -->
<g id="edge53_Node000004_Node000010" class="edge">
<title>Node4&#45;&gt;Node10</title>
<g id="a_edge53_Node000004_Node000010"><a xlink:title=" ">
<path fill="none" stroke="#63b8ff" d="M1075.39,-473.08C1119.49,-461.69 1168.5,-447.7 1176,-440 1270.82,-342.64 1295.12,-241.13 1209,-136 1196.9,-121.23 1089.17,-103.63 1017.95,-93.44"/>
<polygon fill="#63b8ff" stroke="#63b8ff" points="1074.73,-469.89 1065.91,-475.76 1076.46,-476.68 1074.73,-469.89"/>
</a>
</g>
</g>
<!-- Node4&#45;&gt;Node11 -->
<g id="edge55_Node000004_Node000011" class="edge">
<title>Node4&#45;&gt;Node11</title>
<g id="a_edge55_Node000004_Node000011"><a xlink:title=" ">
<path fill="none" stroke="#63b8ff" d="M1020.03,-467.2C1041.69,-435.49 1071.83,-378.86 1044,-340 989.33,-263.67 734.22,-229.96 644,-204 577.28,-184.8 538.55,-219.5 492,-168 475.33,-149.56 476.02,-118.72 478.32,-100.28"/>
<polygon fill="#63b8ff" stroke="#63b8ff" points="1016.85,-464.64 1013.93,-474.82 1022.56,-468.68 1016.85,-464.64"/>
</a>
</g>
</g>
<!-- Node12 -->
<g id="Node000012" class="node">
<title>Node12</title>
<g id="a_Node000012"><a xlink:href="RexportModel_8hpp.html" target="_top" xlink:title=" ">
<polygon fill="white" stroke="#666666" points="1199.75,-100 1074.25,-100 1074.25,-68 1199.75,-68 1199.75,-100"/>
<text text-anchor="start" x="1082.25" y="-86.5" font-family="Helvetica,sans-Serif" font-size="10.00">C:/Temp/out/FMT/Include</text>
<text text-anchor="middle" x="1137" y="-74.5" font-family="Helvetica,sans-Serif" font-size="10.00">/RexportModel.hpp</text>
</a>
</g>
</g>
<!-- Node4&#45;&gt;Node12 -->
<g id="edge56_Node000004_Node000012" class="edge">
<title>Node4&#45;&gt;Node12</title>
<g id="a_edge56_Node000004_Node000012"><a xlink:title=" ">
<path fill="none" stroke="#63b8ff" d="M1075.87,-476.05C1159.88,-466.58 1338.74,-484.95 1389,-440 1417.2,-414.77 1408,-394.84 1408,-357 1408,-357 1408,-357 1408,-219 1408,-126.76 1280.27,-98.01 1200.19,-89.05"/>
<polygon fill="#63b8ff" stroke="#63b8ff" points="1075.59,-472.69 1066.15,-477.5 1076.53,-479.63 1075.59,-472.69"/>
</a>
</g>
</g>
<!-- Node14 -->
<g id="Node000014" class="node">
<title>Node14</title>
<g id="a_Node000014"><a xlink:href="FMTpythonpickle_8hpp.html" target="_top" xlink:title=" ">
<polygon fill="white" stroke="#666666" points="326.75,-100 201.25,-100 201.25,-68 326.75,-68 326.75,-100"/>
<text text-anchor="start" x="209.25" y="-86.5" font-family="Helvetica,sans-Serif" font-size="10.00">C:/Temp/out/FMT/Include</text>
<text text-anchor="middle" x="264" y="-74.5" font-family="Helvetica,sans-Serif" font-size="10.00">/FMTpythonpickle.hpp</text>
</a>
</g>
</g>
<!-- Node4&#45;&gt;Node14 -->
<g id="edge50_Node000004_Node000014" class="edge">
<title>Node4&#45;&gt;Node14</title>
<g id="a_edge50_Node000004_Node000014"><a xlink:title=" ">
<path fill="none" stroke="#63b8ff" d="M927.84,-486.8C738.67,-474.05 253,-427.82 253,-289 253,-289 253,-289 253,-219 253,-175.82 258.74,-125.07 261.93,-100.24"/>
<polygon fill="#63b8ff" stroke="#63b8ff" points="927.57,-490.35 937.78,-487.52 928.04,-483.37 927.57,-490.35"/>
</a>
</g>
</g>
<!-- Node21 -->
<g id="Node000021" class="node">
<title>Node21</title>
<g id="a_Node000021"><a xlink:href="FMTsrmodel_8hpp.html" target="_top" xlink:title=" ">
<polygon fill="white" stroke="#666666" points="1163.75,-236 1038.25,-236 1038.25,-204 1163.75,-204 1163.75,-236"/>
<text text-anchor="start" x="1046.25" y="-222.5" font-family="Helvetica,sans-Serif" font-size="10.00">C:/Temp/out/FMT/Include</text>
<text text-anchor="middle" x="1101" y="-210.5" font-family="Helvetica,sans-Serif" font-size="10.00">/FMTsrmodel.hpp</text>
</a>
</g>
</g>
<!-- Node4&#45;&gt;Node21 -->
<g id="edge52_Node000004_Node000021" class="edge">
<title>Node4&#45;&gt;Node21</title>
<g id="a_edge52_Node000004_Node000021"><a xlink:title=" ">
<path fill="none" stroke="#63b8ff" d="M1075.55,-474.75C1108.98,-465.73 1143.24,-453.6 1153,-440 1196.53,-379.34 1181.9,-340.84 1153,-272 1146.97,-257.66 1134.74,-245.33 1123.64,-236.38"/>
<polygon fill="#63b8ff" stroke="#63b8ff" points="1075.03,-471.53 1066.24,-477.45 1076.8,-478.31 1075.03,-471.53"/>
</a>
</g>
</g>
<!-- Node26 -->
<g id="Node000026" class="node">
<title>Node26</title>
<g id="a_Node000026"><a xlink:href="PYexportParallel_8hpp.html" target="_top" xlink:title=" ">
<polygon fill="white" stroke="#666666" points="1379.75,-440 1254.25,-440 1254.25,-408 1379.75,-408 1379.75,-440"/>
<text text-anchor="start" x="1262.25" y="-426.5" font-family="Helvetica,sans-Serif" font-size="10.00">C:/Temp/out/FMT/Include</text>
<text text-anchor="middle" x="1317" y="-414.5" font-family="Helvetica,sans-Serif" font-size="10.00">/PYexportParallel.hpp</text>
</a>
</g>
</g>
<!-- Node4&#45;&gt;Node26 -->
<g id="edge54_Node000004_Node000026" class="edge">
<title>Node4&#45;&gt;Node26</title>
<g id="a_edge54_Node000004_Node000026"><a xlink:title=" ">
<path fill="none" stroke="#63b8ff" d="M1075.54,-475.59C1129.63,-464.26 1202.38,-449.01 1253.85,-438.23"/>
<polygon fill="#63b8ff" stroke="#63b8ff" points="1075.05,-472.33 1065.98,-477.8 1076.49,-479.18 1075.05,-472.33"/>
</a>
</g>
</g>
<!-- Node27 -->
<g id="Node000027" class="node">
<title>Node27</title>
<g id="a_Node000027"><a xlink:href="RexportParallel_8hpp.html" target="_top" xlink:title=" ">
<polygon fill="white" stroke="#666666" points="800.75,-440 675.25,-440 675.25,-408 800.75,-408 800.75,-440"/>
<text text-anchor="start" x="683.25" y="-426.5" font-family="Helvetica,sans-Serif" font-size="10.00">C:/Temp/out/FMT/Include</text>
<text text-anchor="middle" x="738" y="-414.5" font-family="Helvetica,sans-Serif" font-size="10.00">/RexportParallel.hpp</text>
</a>
</g>
</g>
<!-- Node4&#45;&gt;Node27 -->
<g id="edge57_Node000004_Node000027" class="edge">
<title>Node4&#45;&gt;Node27</title>
<g id="a_edge57_Node000004_Node000027"><a xlink:title=" ">
<path fill="none" stroke="#63b8ff" d="M929.45,-472.86C888.84,-462.71 838.73,-450.18 799.96,-440.49"/>
<polygon fill="#63b8ff" stroke="#63b8ff" points="928.55,-476.5 939.1,-475.53 930.25,-469.71 928.55,-476.5"/>
</a>
</g>
</g>
<!-- Node6 -->
<g id="Node000006" class="node">
<title>Node6</title>
<g id="a_Node000006"><a xlink:href="FMTlinegraph_8hpp.html" target="_top" xlink:title=" ">
<polygon fill="white" stroke="#666666" points="558.75,-372 433.25,-372 433.25,-340 558.75,-340 558.75,-372"/>
<text text-anchor="start" x="441.25" y="-358.5" font-family="Helvetica,sans-Serif" font-size="10.00">C:/Temp/out/FMT/Include</text>
<text text-anchor="middle" x="496" y="-346.5" font-family="Helvetica,sans-Serif" font-size="10.00">/FMTlinegraph.hpp</text>
</a>
</g>
</g>
<!-- Node5&#45;&gt;Node6 -->
<g id="edge5_Node000005_Node000006" class="edge">
<title>Node5&#45;&gt;Node6</title>
<g id="a_edge5_Node000005_Node000006"><a xlink:title=" ">
<path fill="none" stroke="#63b8ff" d="M808.09,-407.72C703.31,-389.18 674.59,-389.6 573,-372 568.43,-371.21 563.73,-370.36 558.99,-369.49"/>
<polygon fill="#63b8ff" stroke="#63b8ff" points="807.36,-411.32 817.82,-409.63 808.59,-404.43 807.36,-411.32"/>
</a>
</g>
</g>
<!-- Node16 -->
<g id="Node000016" class="node">
<title>Node16</title>
<g id="a_Node000016"><a xlink:href="RexportSpatial_8hpp.html" target="_top" xlink:title=" ">
<polygon fill="white" stroke="#666666" points="634.75,-236 509.25,-236 509.25,-204 634.75,-204 634.75,-236"/>
<text text-anchor="start" x="517.25" y="-222.5" font-family="Helvetica,sans-Serif" font-size="10.00">C:/Temp/out/FMT/Include</text>
<text text-anchor="middle" x="572" y="-210.5" font-family="Helvetica,sans-Serif" font-size="10.00">/RexportSpatial.hpp</text>
</a>
</g>
</g>
<!-- Node5&#45;&gt;Node16 -->
<g id="edge49_Node000005_Node000016" class="edge">
<title>Node5&#45;&gt;Node16</title>
<g id="a_edge49_Node000005_Node000016"><a xlink:title=" ">
<path fill="none" stroke="#63b8ff" d="M808.2,-408.02C749.51,-400.11 633.79,-405.13 606,-372 596.86,-361.1 600.38,-353.06 606,-340 615.19,-318.63 634.8,-325.37 644,-304 649.62,-290.94 650.53,-284.63 644,-272 635.98,-256.49 620.82,-244.68 606.48,-236.35"/>
<polygon fill="#63b8ff" stroke="#63b8ff" points="807.37,-411.59 817.8,-409.72 808.48,-404.68 807.37,-411.59"/>
</a>
</g>
</g>
<!-- Node17 -->
<g id="Node000017" class="node">
<title>Node17</title>
<g id="a_Node000017"><a xlink:href="FMToperatingareascheme_8hpp.html" target="_top" xlink:title=" ">
<polygon fill="white" stroke="#666666" points="168.12,-236 17.87,-236 17.87,-204 168.12,-204 168.12,-236"/>
<text text-anchor="start" x="25.87" y="-222.5" font-family="Helvetica,sans-Serif" font-size="10.00">C:/Temp/out/FMT/Include</text>
<text text-anchor="middle" x="93" y="-210.5" font-family="Helvetica,sans-Serif" font-size="10.00">/FMToperatingareascheme.hpp</text>
</a>
</g>
</g>
<!-- Node5&#45;&gt;Node17 -->
<g id="edge24_Node000005_Node000017" class="edge">
<title>Node5&#45;&gt;Node17</title>
<g id="a_edge24_Node000005_Node000017"><a xlink:title=" ">
<path fill="none" stroke="#63b8ff" d="M807.99,-407.84C637.55,-383.75 587.07,-415.47 424,-372 304.07,-340.03 173.23,-268.17 118.89,-236.5"/>
<polygon fill="#63b8ff" stroke="#63b8ff" points="807.45,-411.44 817.85,-409.43 808.46,-404.52 807.45,-411.44"/>
</a>
</g>
</g>
<!-- Node20 -->
<g id="Node000020" class="node">
<title>Node20</title>
<g id="a_Node000020"><a xlink:href="FMToutputnodecache_8hpp.html" target="_top" xlink:title=" ">
<polygon fill="white" stroke="#666666" points="1034.75,-372 903.25,-372 903.25,-340 1034.75,-340 1034.75,-372"/>
<text text-anchor="start" x="911.25" y="-358.5" font-family="Helvetica,sans-Serif" font-size="10.00">C:/Temp/out/FMT/Include</text>
<text text-anchor="middle" x="969" y="-346.5" font-family="Helvetica,sans-Serif" font-size="10.00">/FMToutputnodecache.hpp</text>
</a>
</g>
</g>
<!-- Node5&#45;&gt;Node20 -->
<g id="edge32_Node000005_Node000020" class="edge">
<title>Node5&#45;&gt;Node20</title>
<g id="a_edge32_Node000005_Node000020"><a xlink:title=" ">
<path fill="none" stroke="#63b8ff" d="M904.75,-400.87C916.45,-391.55 930.66,-380.91 942.81,-372.45"/>
<polygon fill="#63b8ff" stroke="#63b8ff" points="902.92,-398.66 897.37,-407.69 907.34,-404.09 902.92,-398.66"/>
</a>
</g>
</g>
<!-- Node5&#45;&gt;Node21 -->
<g id="edge34_Node000005_Node000021" class="edge">
<title>Node5&#45;&gt;Node21</title>
<g id="a_edge34_Node000005_Node000021"><a xlink:title=" ">
<path fill="none" stroke="#63b8ff" d="M955.85,-414.16C986.38,-407.14 1020.14,-394.56 1044,-372 1083.7,-334.46 1095.99,-266.5 1099.59,-236.24"/>
<polygon fill="#63b8ff" stroke="#63b8ff" points="955.26,-410.92 946.2,-416.42 956.71,-417.77 955.26,-410.92"/>
</a>
</g>
</g>
<!-- Node24 -->
<g id="Node000024" class="node">
<title>Node24</title>
<g id="a_Node000024"><a xlink:href="PYexportGraph_8hpp.html" target="_top" xlink:title=" ">
<polygon fill="white" stroke="#666666" points="740.75,-372 615.25,-372 615.25,-340 740.75,-340 740.75,-372"/>
<text text-anchor="start" x="623.25" y="-358.5" font-family="Helvetica,sans-Serif" font-size="10.00">C:/Temp/out/FMT/Include</text>
<text text-anchor="middle" x="678" y="-346.5" font-family="Helvetica,sans-Serif" font-size="10.00">/PYexportGraph.hpp</text>
</a>
</g>
</g>
<!-- Node5&#45;&gt;Node24 -->
<g id="edge47_Node000005_Node000024" class="edge">
<title>Node5&#45;&gt;Node24</title>
<g id="a_edge47_Node000005_Node000024"><a xlink:title=" ">
<path fill="none" stroke="#63b8ff" d="M823.93,-404.21C792.91,-394.18 755.2,-381.98 725.88,-372.49"/>
<polygon fill="#63b8ff" stroke="#63b8ff" points="822.58,-407.78 833.17,-407.53 824.73,-401.12 822.58,-407.78"/>
</a>
</g>
</g>
<!-- Node25 -->
<g id="Node000025" class="node">
<title>Node25</title>
<g id="a_Node000025"><a xlink:href="PYexportSpatial_8hpp.html" target="_top" xlink:title=" ">
<polygon fill="white" stroke="#666666" points="884.75,-372 759.25,-372 759.25,-340 884.75,-340 884.75,-372"/>
<text text-anchor="start" x="767.25" y="-358.5" font-family="Helvetica,sans-Serif" font-size="10.00">C:/Temp/out/FMT/Include</text>
<text text-anchor="middle" x="822" y="-346.5" font-family="Helvetica,sans-Serif" font-size="10.00">/PYexportSpatial.hpp</text>
</a>
</g>
</g>
<!-- Node5&#45;&gt;Node25 -->
<g id="edge48_Node000005_Node000025" class="edge">
<title>Node5&#45;&gt;Node25</title>
<g id="a_edge48_Node000005_Node000025"><a xlink:title=" ">
<path fill="none" stroke="#63b8ff" d="M860.82,-399.71C852.53,-390.59 843.25,-380.37 835.84,-372.22"/>
<polygon fill="#63b8ff" stroke="#63b8ff" points="857.76,-401.65 867.08,-406.69 862.94,-396.94 857.76,-401.65"/>
</a>
</g>
</g>
<!-- Node7 -->
<g id="Node000007" class="node">
<title>Node7</title>
<g id="a_Node000007"><a xlink:href="FMTspatialschedule_8hpp.html" target="_top" xlink:title=" ">
<polygon fill="white" stroke="#666666" points="634.75,-304 509.25,-304 509.25,-272 634.75,-272 634.75,-304"/>
<text text-anchor="start" x="517.25" y="-290.5" font-family="Helvetica,sans-Serif" font-size="10.00">C:/Temp/out/FMT/Include</text>
<text text-anchor="middle" x="572" y="-278.5" font-family="Helvetica,sans-Serif" font-size="10.00">/FMTspatialschedule.hpp</text>
</a>
</g>
</g>
<!-- Node6&#45;&gt;Node7 -->
<g id="edge6_Node000006_Node000007" class="edge">
<title>Node6&#45;&gt;Node7</title>
<g id="a_edge6_Node000006_Node000007"><a xlink:title=" ">
<path fill="none" stroke="#63b8ff" d="M521.79,-332.6C532.46,-323.34 544.55,-312.83 554.2,-304.45"/>
<polygon fill="#63b8ff" stroke="#63b8ff" points="519.88,-330.49 514.62,-339.69 524.47,-335.78 519.88,-330.49"/>
</a>
</g>
</g>
<!-- Node6&#45;&gt;Node11 -->
<g id="edge22_Node000006_Node000011" class="edge">
<title>Node6&#45;&gt;Node11</title>
<g id="a_edge22_Node000006_Node000011"><a xlink:title=" ">
<path fill="none" stroke="#63b8ff" d="M487.35,-329.76C475.67,-294.19 455.46,-227.07 448,-168 446.21,-153.89 443.97,-149.64 448,-136 451.88,-122.85 460.33,-109.91 467.71,-100.35"/>
<polygon fill="#63b8ff" stroke="#63b8ff" points="484.2,-330.36 490.68,-338.74 490.84,-328.15 484.2,-330.36"/>
</a>
</g>
</g>
<!-- Node6&#45;&gt;Node16 -->
<g id="edge23_Node000006_Node000016" class="edge">
<title>Node6&#45;&gt;Node16</title>
<g id="a_edge23_Node000006_Node000016"><a xlink:title=" ">
<path fill="none" stroke="#63b8ff" d="M491.63,-329.1C490.02,-311.88 490.5,-289.33 500,-272 508.46,-256.55 523.85,-244.69 538.24,-236.31"/>
<polygon fill="#63b8ff" stroke="#63b8ff" points="488.22,-329.04 492.91,-338.54 495.17,-328.19 488.22,-329.04"/>
</a>
</g>
</g>
<!-- Node7&#45;&gt;Node8 -->
<g id="edge7_Node000007_Node000008" class="edge">
<title>Node7&#45;&gt;Node8</title>
<g id="a_edge7_Node000007_Node000008"><a xlink:title=" ">
<path fill="none" stroke="#63b8ff" d="M645.61,-270.36C693.47,-259.54 755.23,-245.58 800.86,-235.27"/>
<polygon fill="#63b8ff" stroke="#63b8ff" points="644.98,-267.14 636,-272.76 646.52,-273.97 644.98,-267.14"/>
</a>
</g>
</g>
<!-- Node7&#45;&gt;Node16 -->
<g id="edge21_Node000007_Node000016" class="edge">
<title>Node7&#45;&gt;Node16</title>
<g id="a_edge21_Node000007_Node000016"><a xlink:title=" ">
<path fill="none" stroke="#63b8ff" d="M572,-260.89C572,-252.52 572,-243.54 572,-236.22"/>
<polygon fill="#63b8ff" stroke="#63b8ff" points="568.5,-260.69 572,-270.69 575.5,-260.69 568.5,-260.69"/>
</a>
</g>
</g>
<!-- Node9 -->
<g id="Node000009" class="node">
<title>Node9</title>
<g id="a_Node000009"><a xlink:href="FMTsamodel_8hpp.html" target="_top" xlink:title=" ">
<polygon fill="white" stroke="#666666" points="1017.75,-168 892.25,-168 892.25,-136 1017.75,-136 1017.75,-168"/>
<text text-anchor="start" x="900.25" y="-154.5" font-family="Helvetica,sans-Serif" font-size="10.00">C:/Temp/out/FMT/Include</text>
<text text-anchor="middle" x="955" y="-142.5" font-family="Helvetica,sans-Serif" font-size="10.00">/FMTsamodel.hpp</text>
</a>
</g>
</g>
<!-- Node8&#45;&gt;Node9 -->
<g id="edge8_Node000008_Node000009" class="edge">
<title>Node8&#45;&gt;Node9</title>
<g id="a_edge8_Node000008_Node000009"><a xlink:title=" ">
<path fill="none" stroke="#63b8ff" d="M893.75,-197.42C906.79,-187.96 921.8,-177.08 933.69,-168.45"/>
<polygon fill="#63b8ff" stroke="#63b8ff" points="892.14,-194.99 886.1,-203.69 896.25,-200.65 892.14,-194.99"/>
</a>
</g>
</g>
<!-- Node8&#45;&gt;Node10 -->
<g id="edge18_Node000008_Node000010" class="edge">
<title>Node8&#45;&gt;Node10</title>
<g id="a_edge18_Node000008_Node000010"><a xlink:title=" ">
<path fill="none" stroke="#63b8ff" d="M865.16,-193.09C867.03,-175.69 871.67,-152.93 883,-136 893.05,-120.98 909.13,-108.97 923.55,-100.39"/>
<polygon fill="#63b8ff" stroke="#63b8ff" points="861.63,-192.38 864.29,-202.64 868.6,-192.96 861.63,-192.38"/>
</a>
</g>
</g>
<!-- Node8&#45;&gt;Node11 -->
<g id="edge19_Node000008_Node000011" class="edge">
<title>Node8&#45;&gt;Node11</title>
<g id="a_edge19_Node000008_Node000011"><a xlink:title=" ">
<path fill="none" stroke="#63b8ff" d="M790.15,-209.9C692.05,-197.55 529.76,-176.08 519,-168 497.07,-151.54 487.43,-119.42 483.48,-100.32"/>
<polygon fill="#63b8ff" stroke="#63b8ff" points="789.55,-213.48 799.91,-211.25 790.42,-206.53 789.55,-213.48"/>
</a>
</g>
</g>
<!-- Node8&#45;&gt;Node12 -->
<g id="edge20_Node000008_Node000012" class="edge">
<title>Node8&#45;&gt;Node12</title>
<g id="a_edge20_Node000008_Node000012"><a xlink:title=" ">
<path fill="none" stroke="#63b8ff" d="M937.99,-210.54C1036.7,-198.89 1200.19,-178.2 1209,-168 1229.37,-144.39 1194.35,-117.08 1166.39,-100.43"/>
<polygon fill="#63b8ff" stroke="#63b8ff" points="937.69,-207.16 928.17,-211.81 938.51,-214.12 937.69,-207.16"/>
</a>
</g>
</g>
<!-- Node13 -->
<g id="Node000013" class="node">
<title>Node13</title>
<g id="a_Node000013"><a xlink:href="FMTsesmodel_8hpp.html" target="_top" xlink:title=" ">
<polygon fill="white" stroke="#666666" points="653.75,-168 528.25,-168 528.25,-136 653.75,-136 653.75,-168"/>
<text text-anchor="start" x="536.25" y="-154.5" font-family="Helvetica,sans-Serif" font-size="10.00">C:/Temp/out/FMT/Include</text>
<text text-anchor="middle" x="591" y="-142.5" font-family="Helvetica,sans-Serif" font-size="10.00">/FMTsesmodel.hpp</text>
</a>
</g>
</g>
<!-- Node8&#45;&gt;Node13 -->
<g id="edge12_Node000008_Node000013" class="edge">
<title>Node8&#45;&gt;Node13</title>
<g id="a_edge12_Node000008_Node000013"><a xlink:title=" ">
<path fill="none" stroke="#63b8ff" d="M790.44,-201.22C747.85,-190.92 694.8,-178.1 654.13,-168.26"/>
<polygon fill="#63b8ff" stroke="#63b8ff" points="789.48,-204.83 800.02,-203.78 791.12,-198.02 789.48,-204.83"/>
</a>
</g>
</g>
<!-- Node9&#45;&gt;Node10 -->
<g id="edge9_Node000009_Node000010" class="edge">
<title>Node9&#45;&gt;Node10</title>
<g id="a_edge9_Node000009_Node000010"><a xlink:title=" ">
<path fill="none" stroke="#63b8ff" d="M955,-124.89C955,-116.52 955,-107.54 955,-100.22"/>
<polygon fill="#63b8ff" stroke="#63b8ff" points="951.5,-124.69 955,-134.69 958.5,-124.69 951.5,-124.69"/>
</a>
</g>
</g>
<!-- Node9&#45;&gt;Node11 -->
<g id="edge10_Node000009_Node000011" class="edge">
<title>Node9&#45;&gt;Node11</title>
<g id="a_edge10_Node000009_Node000011"><a xlink:title=" ">
<path fill="none" stroke="#63b8ff" d="M881.37,-140.75C788.83,-127.86 631.55,-105.96 544.2,-93.8"/>
<polygon fill="#63b8ff" stroke="#63b8ff" points="880.67,-144.32 891.05,-142.24 881.63,-137.39 880.67,-144.32"/>
</a>
</g>
</g>
<!-- Node9&#45;&gt;Node12 -->
<g id="edge11_Node000009_Node000012" class="edge">
<title>Node9&#45;&gt;Node12</title>
<g id="a_edge11_Node000009_Node000012"><a xlink:title=" ">
<path fill="none" stroke="#63b8ff" d="M1007.89,-131.82C1035.35,-121.86 1068.46,-109.85 1094.28,-100.49"/>
<polygon fill="#63b8ff" stroke="#63b8ff" points="1006.88,-128.83 998.67,-135.53 1009.26,-135.41 1006.88,-128.83"/>
</a>
</g>
</g>
<!-- Node13&#45;&gt;Node10 -->
<g id="edge15_Node000013_Node000010" class="edge">
<title>Node13&#45;&gt;Node10</title>
<g id="a_edge15_Node000013_Node000010"><a xlink:title=" ">
<path fill="none" stroke="#63b8ff" d="M664.42,-137.69C731.15,-125.59 828.56,-107.93 891.87,-96.45"/>
<polygon fill="#63b8ff" stroke="#63b8ff" points="664.2,-134.35 654.99,-139.58 665.45,-141.24 664.2,-134.35"/>
</a>
</g>
</g>
<!-- Node13&#45;&gt;Node11 -->
<g id="edge16_Node000013_Node000011" class="edge">
<title>Node13&#45;&gt;Node11</title>
<g id="a_edge16_Node000013_Node000011"><a xlink:title=" ">
<path fill="none" stroke="#63b8ff" d="M556.11,-130.07C540.06,-120.44 521.35,-109.21 506.63,-100.38"/>
<polygon fill="#63b8ff" stroke="#63b8ff" points="553.83,-133.38 564.21,-135.53 557.43,-127.38 553.83,-133.38"/>
</a>
</g>
</g>
<!-- Node13&#45;&gt;Node12 -->
<g id="edge17_Node000013_Node000012" class="edge">
<title>Node13&#45;&gt;Node12</title>
<g id="a_edge17_Node000013_Node000012"><a xlink:title=" ">
<path fill="none" stroke="#63b8ff" d="M664.64,-140.69C676.78,-139.07 689.23,-137.45 701,-136 845.67,-118.15 882.32,-117.85 1027,-100 1042.2,-98.12 1058.57,-95.97 1073.92,-93.88"/>
<polygon fill="#63b8ff" stroke="#63b8ff" points="664.52,-137.31 655.07,-142.12 665.45,-144.25 664.52,-137.31"/>
</a>
</g>
</g>
<!-- Node13&#45;&gt;Node14 -->
<g id="edge13_Node000013_Node000014" class="edge">
<title>Node13&#45;&gt;Node14</title>
<g id="a_edge13_Node000013_Node000014"><a xlink:title=" ">
<path fill="none" stroke="#63b8ff" d="M517.51,-136.17C460.25,-124.61 381.58,-108.73 327.13,-97.74"/>
<polygon fill="#63b8ff" stroke="#63b8ff" points="516.45,-139.73 526.95,-138.27 517.84,-132.87 516.45,-139.73"/>
</a>
</g>
</g>
<!-- Node15 -->
<g id="Node000015" class="node">
<title>Node15</title>
<g id="a_Node000015"><a xlink:href="PYexportHeuristics_8hpp.html" target="_top" xlink:title=" ">
<polygon fill="white" stroke="#666666" points="235.75,-32 110.25,-32 110.25,0 235.75,0 235.75,-32"/>
<text text-anchor="start" x="118.25" y="-18.5" font-family="Helvetica,sans-Serif" font-size="10.00">C:/Temp/out/FMT/Include</text>
<text text-anchor="middle" x="173" y="-6.5" font-family="Helvetica,sans-Serif" font-size="10.00">/PYexportHeuristics.hpp</text>
</a>
</g>
</g>
<!-- Node14&#45;&gt;Node15 -->
<g id="edge14_Node000014_Node000015" class="edge">
<title>Node14&#45;&gt;Node15</title>
<g id="a_edge14_Node000014_Node000015"><a xlink:title=" ">
<path fill="none" stroke="#63b8ff" d="M234.24,-61.42C221.2,-51.96 206.2,-41.08 194.3,-32.45"/>
<polygon fill="#63b8ff" stroke="#63b8ff" points="231.74,-64.65 241.89,-67.69 235.85,-58.99 231.74,-64.65"/>
</a>
</g>
</g>
<!-- Node17&#45;&gt;Node15 -->
<g id="edge30_Node000017_Node000015" class="edge">
<title>Node17&#45;&gt;Node15</title>
<g id="a_edge30_Node000017_Node000015"><a xlink:title=" ">
<path fill="none" stroke="#63b8ff" d="M65.1,-196.83C30.22,-166.41 -21.33,-110.62 10,-68 32.82,-36.94 74.5,-24.27 110,-19.33"/>
<polygon fill="#63b8ff" stroke="#63b8ff" points="62.23,-199.84 72.12,-203.64 66.76,-194.5 62.23,-199.84"/>
</a>
</g>
</g>
<!-- Node18 -->
<g id="Node000018" class="node">
<title>Node18</title>
<g id="a_Node000018"><a xlink:href="FMToperatingareascheduler_8hpp.html" target="_top" xlink:title=" ">
<polygon fill="white" stroke="#666666" points="224.87,-168 67.12,-168 67.12,-136 224.87,-136 224.87,-168"/>
<text text-anchor="start" x="75.12" y="-154.5" font-family="Helvetica,sans-Serif" font-size="10.00">C:/Temp/out/FMT/Include</text>
<text text-anchor="middle" x="146" y="-142.5" font-family="Helvetica,sans-Serif" font-size="10.00">/FMToperatingareascheduler.hpp</text>
</a>
</g>
</g>
<!-- Node17&#45;&gt;Node18 -->
<g id="edge25_Node000017_Node000018" class="edge">
<title>Node17&#45;&gt;Node18</title>
<g id="a_edge25_Node000017_Node000018"><a xlink:title=" ">
<path fill="none" stroke="#63b8ff" d="M112.15,-195.15C119.36,-186.17 127.36,-176.21 133.77,-168.22"/>
<polygon fill="#63b8ff" stroke="#63b8ff" points="108.82,-192.7 105.29,-202.69 114.28,-197.09 108.82,-192.7"/>
</a>
</g>
</g>
<!-- Node19 -->
<g id="Node000019" class="node">
<title>Node19</title>
<g id="a_Node000019"><a xlink:href="RexportHeuristics_8hpp.html" target="_top" xlink:title=" ">
<polygon fill="white" stroke="#666666" points="144.75,-100 19.25,-100 19.25,-68 144.75,-68 144.75,-100"/>
<text text-anchor="start" x="27.25" y="-86.5" font-family="Helvetica,sans-Serif" font-size="10.00">C:/Temp/out/FMT/Include</text>
<text text-anchor="middle" x="82" y="-74.5" font-family="Helvetica,sans-Serif" font-size="10.00">/RexportHeuristics.hpp</text>
</a>
</g>
</g>
<!-- Node17&#45;&gt;Node19 -->
<g id="edge31_Node000017_Node000019" class="edge">
<title>Node17&#45;&gt;Node19</title>
<g id="a_edge31_Node000017_Node000019"><a xlink:title=" ">
<path fill="none" stroke="#63b8ff" d="M72.36,-195.28C66.55,-187.17 61,-177.69 58,-168 50.71,-144.5 62.61,-117.05 72.1,-100.35"/>
<polygon fill="#63b8ff" stroke="#63b8ff" points="70.04,-197 78.91,-202.79 75.59,-192.73 70.04,-197"/>
</a>
</g>
</g>
<!-- Node18&#45;&gt;Node11 -->
<g id="edge28_Node000018_Node000011" class="edge">
<title>Node18&#45;&gt;Node11</title>
<g id="a_edge28_Node000018_Node000011"><a xlink:title=" ">
<path fill="none" stroke="#63b8ff" d="M235.09,-133.45C292.66,-122.1 366.19,-107.62 417.79,-97.45"/>
<polygon fill="#63b8ff" stroke="#63b8ff" points="234.67,-130.16 225.54,-135.53 236.03,-137.03 234.67,-130.16"/>
</a>
</g>
</g>
<!-- Node18&#45;&gt;Node14 -->
<g id="edge26_Node000018_Node000014" class="edge">
<title>Node18&#45;&gt;Node14</title>
<g id="a_edge26_Node000018_Node000014"><a xlink:title=" ">
<path fill="none" stroke="#63b8ff" d="M182.94,-130.34C200.26,-120.65 220.56,-109.3 236.5,-100.38"/>
<polygon fill="#63b8ff" stroke="#63b8ff" points="181.68,-127.59 174.66,-135.53 185.1,-133.7 181.68,-127.59"/>
</a>
</g>
</g>
<!-- Node18&#45;&gt;Node15 -->
<g id="edge27_Node000018_Node000015" class="edge">
<title>Node18&#45;&gt;Node15</title>
<g id="a_edge27_Node000018_Node000015"><a xlink:title=" ">
<path fill="none" stroke="#63b8ff" d="M151.2,-125.19C156.76,-97.6 165.38,-54.8 169.94,-32.19"/>
<polygon fill="#63b8ff" stroke="#63b8ff" points="147.64,-124.13 149.09,-134.63 154.5,-125.52 147.64,-124.13"/>
</a>
</g>
</g>
<!-- Node18&#45;&gt;Node19 -->
<g id="edge29_Node000018_Node000019" class="edge">
<title>Node18&#45;&gt;Node19</title>
<g id="a_edge29_Node000018_Node000019"><a xlink:title=" ">
<path fill="none" stroke="#63b8ff" d="M123.68,-127.99C114.77,-118.79 104.74,-108.46 96.76,-100.22"/>
<polygon fill="#63b8ff" stroke="#63b8ff" points="120.68,-129.95 130.15,-134.69 125.7,-125.08 120.68,-129.95"/>
</a>
</g>
</g>
<!-- Node20&#45;&gt;Node5 -->
<g id="edge33_Node000020_Node000005" class="edge">
<title>Node20&#45;&gt;Node5</title>
<g id="a_edge33_Node000020_Node000005"><a xlink:title=" ">
<path fill="none" stroke="#63b8ff" d="M946.04,-379.29C934.31,-388.63 920.1,-399.26 907.98,-407.69"/>
<polygon fill="#63b8ff" stroke="#63b8ff" points="947.89,-381.48 953.44,-372.45 943.48,-376.05 947.89,-381.48"/>
</a>
</g>
</g>
<!-- Node21&#45;&gt;Node10 -->
<g id="edge44_Node000021_Node000010" class="edge">
<title>Node21&#45;&gt;Node10</title>
<g id="a_edge44_Node000021_Node000010"><a xlink:title=" ">
<path fill="none" stroke="#63b8ff" d="M1082.26,-195.23C1068.03,-177.88 1047.46,-154.3 1027,-136 1012.26,-122.83 994.1,-109.98 979.7,-100.48"/>
<polygon fill="#63b8ff" stroke="#63b8ff" points="1080.09,-197.1 1089.1,-202.67 1085.53,-192.7 1080.09,-197.1"/>
</a>
</g>
</g>
<!-- Node21&#45;&gt;Node11 -->
<g id="edge45_Node000021_Node000011" class="edge">
<title>Node21&#45;&gt;Node11</title>
<g id="a_edge45_Node000021_Node000011"><a xlink:title=" ">
<path fill="none" stroke="#63b8ff" d="M1027.36,-211.89C920.03,-201.17 730.17,-180.79 701,-168 680.78,-159.13 682.51,-146.32 663,-136 625.87,-116.36 580.37,-103.61 544.15,-95.77"/>
<polygon fill="#63b8ff" stroke="#63b8ff" points="1026.82,-215.45 1037.12,-212.96 1027.51,-208.48 1026.82,-215.45"/>
</a>
</g>
</g>
<!-- Node21&#45;&gt;Node12 -->
<g id="edge46_Node000021_Node000012" class="edge">
<title>Node21&#45;&gt;Node12</title>
<g id="a_edge46_Node000021_Node000012"><a xlink:title=" ">
<path fill="none" stroke="#63b8ff" d="M1174.53,-209.88C1200.18,-202.77 1226.42,-190.19 1242,-168 1250.17,-156.36 1249.54,-148.05 1242,-136 1231.62,-119.42 1214.15,-108.1 1196.4,-100.42"/>
<polygon fill="#63b8ff" stroke="#63b8ff" points="1173.85,-206.7 1165,-212.52 1175.55,-213.49 1173.85,-206.7"/>
</a>
</g>
</g>
<!-- Node22 -->
<g id="Node000022" class="node">
<title>Node22</title>
<g id="a_Node000022"><a xlink:href="FMTlpmodel_8hpp.html" target="_top" xlink:title=" ">
<polygon fill="white" stroke="#666666" points="835.75,-168 710.25,-168 710.25,-136 835.75,-136 835.75,-168"/>
<text text-anchor="start" x="718.25" y="-154.5" font-family="Helvetica,sans-Serif" font-size="10.00">C:/Temp/out/FMT/Include</text>
<text text-anchor="middle" x="773" y="-142.5" font-family="Helvetica,sans-Serif" font-size="10.00">/FMTlpmodel.hpp</text>
</a>
</g>
</g>
<!-- Node21&#45;&gt;Node22 -->
<g id="edge35_Node000021_Node000022" class="edge">
<title>Node21&#45;&gt;Node22</title>
<g id="a_edge35_Node000021_Node000022"><a xlink:title=" ">
<path fill="none" stroke="#63b8ff" d="M1027.27,-204.17C969.74,-192.59 890.66,-176.68 836.04,-165.69"/>
<polygon fill="#63b8ff" stroke="#63b8ff" points="1026.26,-207.73 1036.75,-206.27 1027.64,-200.87 1026.26,-207.73"/>
</a>
</g>
</g>
<!-- Node23 -->
<g id="Node000023" class="node">
<title>Node23</title>
<g id="a_Node000023"><a xlink:href="FMTnssmodel_8hpp.html" target="_top" xlink:title=" ">
<polygon fill="white" stroke="#666666" points="1199.75,-168 1074.25,-168 1074.25,-136 1199.75,-136 1199.75,-168"/>
<text text-anchor="start" x="1082.25" y="-154.5" font-family="Helvetica,sans-Serif" font-size="10.00">C:/Temp/out/FMT/Include</text>
<text text-anchor="middle" x="1137" y="-142.5" font-family="Helvetica,sans-Serif" font-size="10.00">/FMTnssmodel.hpp</text>
</a>
</g>
</g>
<!-- Node21&#45;&gt;Node23 -->
<g id="edge40_Node000021_Node000023" class="edge">
<title>Node21&#45;&gt;Node23</title>
<g id="a_edge40_Node000021_Node000023"><a xlink:title=" ">
<path fill="none" stroke="#63b8ff" d="M1114.47,-194.3C1119.24,-185.55 1124.47,-175.96 1128.69,-168.22"/>
<polygon fill="#63b8ff" stroke="#63b8ff" points="1111.06,-192.24 1109.35,-202.69 1117.21,-195.59 1111.06,-192.24"/>
</a>
</g>
</g>
<!-- Node22&#45;&gt;Node10 -->
<g id="edge37_Node000022_Node000010" class="edge">
<title>Node22&#45;&gt;Node10</title>
<g id="a_edge37_Node000022_Node000010"><a xlink:title=" ">
<path fill="none" stroke="#63b8ff" d="M825.89,-131.82C853.35,-121.86 886.46,-109.85 912.28,-100.49"/>
<polygon fill="#63b8ff" stroke="#63b8ff" points="824.88,-128.83 816.67,-135.53 827.26,-135.41 824.88,-128.83"/>
</a>
</g>
</g>
<!-- Node22&#45;&gt;Node11 -->
<g id="edge38_Node000022_Node000011" class="edge">
<title>Node22&#45;&gt;Node11</title>
<g id="a_edge38_Node000022_Node000011"><a xlink:title=" ">
<path fill="none" stroke="#63b8ff" d="M699.39,-134.36C651.52,-123.54 589.76,-109.58 544.14,-99.27"/>
<polygon fill="#63b8ff" stroke="#63b8ff" points="698.47,-137.97 709,-136.76 700.01,-131.14 698.47,-137.97"/>
</a>
</g>
</g>
<!-- Node22&#45;&gt;Node12 -->
<g id="edge39_Node000022_Node000012" class="edge">
<title>Node22&#45;&gt;Node12</title>
<g id="a_edge39_Node000022_Node000012"><a xlink:title=" ">
<path fill="none" stroke="#63b8ff" d="M846.42,-137.69C913.15,-125.59 1010.56,-107.93 1073.87,-96.45"/>
<polygon fill="#63b8ff" stroke="#63b8ff" points="846.2,-134.35 836.99,-139.58 847.45,-141.24 846.2,-134.35"/>
</a>
</g>
</g>
<!-- Node22&#45;&gt;Node14 -->
<g id="edge36_Node000022_Node000014" class="edge">
<title>Node22&#45;&gt;Node14</title>
<g id="a_edge36_Node000022_Node000014"><a xlink:title=" ">
<path fill="none" stroke="#63b8ff" d="M699.33,-140.87C687.2,-139.22 674.75,-137.55 663,-136 544.26,-120.32 405.54,-102.76 326.9,-92.88"/>
<polygon fill="#63b8ff" stroke="#63b8ff" points="698.52,-144.42 708.9,-142.3 699.46,-137.49 698.52,-144.42"/>
</a>
</g>
</g>
<!-- Node23&#45;&gt;Node10 -->
<g id="edge41_Node000023_Node000010" class="edge">
<title>Node23&#45;&gt;Node10</title>
<g id="a_edge41_Node000023_Node000010"><a xlink:title=" ">
<path fill="none" stroke="#63b8ff" d="M1084.1,-131.82C1056.64,-121.86 1023.53,-109.85 997.72,-100.49"/>
<polygon fill="#63b8ff" stroke="#63b8ff" points="1082.73,-135.41 1093.33,-135.53 1085.12,-128.83 1082.73,-135.41"/>
</a>
</g>
</g>
<!-- Node23&#45;&gt;Node11 -->
<g id="edge42_Node000023_Node000011" class="edge">
<title>Node23&#45;&gt;Node11</title>
<g id="a_edge42_Node000023_Node000011"><a xlink:title=" ">
<path fill="none" stroke="#63b8ff" d="M1063.38,-140.52C1051.23,-138.92 1038.77,-137.35 1027,-136 852.49,-115.96 645.92,-98.32 544.14,-90.02"/>
<polygon fill="#63b8ff" stroke="#63b8ff" points="1062.57,-144.08 1072.94,-141.93 1063.49,-137.14 1062.57,-144.08"/>
</a>
</g>
</g>
<!-- Node23&#45;&gt;Node12 -->
<g id="edge43_Node000023_Node000012" class="edge">
<title>Node23&#45;&gt;Node12</title>
<g id="a_edge43_Node000023_Node000012"><a xlink:title=" ">
<path fill="none" stroke="#63b8ff" d="M1137,-124.89C1137,-116.52 1137,-107.54 1137,-100.22"/>
<polygon fill="#63b8ff" stroke="#63b8ff" points="1133.5,-124.69 1137,-134.69 1140.5,-124.69 1133.5,-124.69"/>
</a>
</g>
</g>
</g>
</svg>
