<?xml version="1.0" encoding="UTF-8" standalone="no"?>
<!DOCTYPE svg PUBLIC "-//W3C//DTD SVG 1.1//EN"
 "http://www.w3.org/Graphics/SVG/1.1/DTD/svg11.dtd">
<!-- Generated by graphviz version 8.1.0 (20230707.0739)
 -->
<!-- Title: C:/Temp/out/FMT/Include/FMTtransitionmask.hpp Pages: 1 -->
<svg width="1769pt" height="220pt"
 viewBox="0.00 0.00 1769.22 220.00" xmlns="http://www.w3.org/2000/svg" xmlns:xlink="http://www.w3.org/1999/xlink">
<g id="graph0" class="graph" transform="scale(1 1) rotate(0) translate(4 216)">
<title>C:/Temp/out/FMT/Include/FMTtransitionmask.hpp</title>
<!-- Node1 -->
<g id="Node000001" class="node">
<title>Node1</title>
<g id="a_Node000001"><a xlink:title=" ">
<polygon fill="#999999" stroke="#666666" points="882.76,-212 757.26,-212 757.26,-180 882.76,-180 882.76,-212"/>
<text text-anchor="start" x="765.26" y="-198.5" font-family="Helvetica,sans-Serif" font-size="10.00">C:/Temp/out/FMT/Include</text>
<text text-anchor="middle" x="820.01" y="-186.5" font-family="Helvetica,sans-Serif" font-size="10.00">/FMTtransitionmask.hpp</text>
</a>
</g>
</g>
<!-- Node2 -->
<g id="Node000002" class="node">
<title>Node2</title>
<g id="a_Node000002"><a xlink:href="FMTbounds_8hpp.html" target="_top" xlink:title=" ">
<polygon fill="white" stroke="#666666" points="473.88,-144 388.13,-144 388.13,-124 473.88,-124 473.88,-144"/>
<text text-anchor="middle" x="431.01" y="-130.5" font-family="Helvetica,sans-Serif" font-size="10.00">FMTbounds.hpp</text>
</a>
</g>
</g>
<!-- Node1&#45;&gt;Node2 -->
<g id="edge1_Node000001_Node000002" class="edge">
<title>Node1&#45;&gt;Node2</title>
<g id="a_edge1_Node000001_Node000002"><a xlink:title=" ">
<path fill="none" stroke="#63b8ff" d="M757.08,-185.29C681.5,-173.64 556.04,-154.28 484.79,-143.3"/>
<polygon fill="#63b8ff" stroke="#63b8ff" points="485.68,-139.74 475.26,-141.67 484.61,-146.65 485.68,-139.74"/>
</a>
</g>
</g>
<!-- Node7 -->
<g id="Node000007" class="node">
<title>Node7</title>
<g id="a_Node000007"><a xlink:title=" ">
<polygon fill="#e0e0e0" stroke="#999999" points="1109.01,-20 1069.01,-20 1069.01,0 1109.01,0 1109.01,-20"/>
<text text-anchor="middle" x="1089.01" y="-6.5" font-family="Helvetica,sans-Serif" font-size="10.00">string</text>
</a>
</g>
</g>
<!-- Node1&#45;&gt;Node7 -->
<g id="edge39_Node000001_Node000007" class="edge">
<title>Node1&#45;&gt;Node7</title>
<g id="a_edge39_Node000001_Node000007"><a xlink:title=" ">
<path fill="none" stroke="#63b8ff" d="M883.19,-192.54C1083.7,-184.08 1695.95,-153.09 1754.01,-88 1763.48,-77.39 1763.72,-66.39 1754.01,-56 1710.29,-9.22 1245.05,-9.69 1119.87,-10.68"/>
<polygon fill="#63b8ff" stroke="#63b8ff" points="1120.14,-7.18 1110.17,-10.77 1120.2,-14.18 1120.14,-7.18"/>
</a>
</g>
</g>
<!-- Node10 -->
<g id="Node000010" class="node">
<title>Node10</title>
<g id="a_Node000010"><a xlink:href="FMTutility_8hpp.html" target="_top" xlink:title=" ">
<polygon fill="white" stroke="#666666" points="396.76,-20 319.26,-20 319.26,0 396.76,0 396.76,-20"/>
<text text-anchor="middle" x="358.01" y="-6.5" font-family="Helvetica,sans-Serif" font-size="10.00">FMTutility.hpp</text>
</a>
</g>
</g>
<!-- Node1&#45;&gt;Node10 -->
<g id="edge40_Node000001_Node000010" class="edge">
<title>Node1&#45;&gt;Node10</title>
<g id="a_edge40_Node000001_Node000010"><a xlink:title=" ">
<path fill="none" stroke="#63b8ff" d="M757.05,-191.46C574.68,-180.57 55.91,-144.82 7.01,-88 -2.27,-77.22 -2.39,-66.68 7.01,-56 26.58,-33.76 215.97,-19.48 308.13,-13.8"/>
<polygon fill="#63b8ff" stroke="#63b8ff" points="308.1,-17.25 317.87,-13.15 307.67,-10.26 308.1,-17.25"/>
</a>
</g>
</g>
<!-- Node13 -->
<g id="Node000013" class="node">
<title>Node13</title>
<g id="a_Node000013"><a xlink:title=" ">
<polygon fill="#e0e0e0" stroke="#999999" points="915.38,-88 820.63,-88 820.63,-56 915.38,-56 915.38,-88"/>
<text text-anchor="start" x="828.63" y="-74.5" font-family="Helvetica,sans-Serif" font-size="10.00">boost/serialization</text>
<text text-anchor="middle" x="868.01" y="-62.5" font-family="Helvetica,sans-Serif" font-size="10.00">/serialization.hpp</text>
</a>
</g>
</g>
<!-- Node1&#45;&gt;Node13 -->
<g id="edge38_Node000001_Node000013" class="edge">
<title>Node1&#45;&gt;Node13</title>
<g id="a_edge38_Node000001_Node000013"><a xlink:title=" ">
<path fill="none" stroke="#63b8ff" d="M826.09,-179.55C834.13,-159.11 848.41,-122.81 858.04,-98.33"/>
<polygon fill="#63b8ff" stroke="#63b8ff" points="861.58,-99.91 861.98,-89.33 855.06,-97.35 861.58,-99.91"/>
</a>
</g>
</g>
<!-- Node17 -->
<g id="Node000017" class="node">
<title>Node17</title>
<g id="a_Node000017"><a xlink:href="FMTmask_8hpp.html" target="_top" xlink:title=" ">
<polygon fill="white" stroke="#666666" points="1005.13,-144 926.88,-144 926.88,-124 1005.13,-124 1005.13,-144"/>
<text text-anchor="middle" x="966.01" y="-130.5" font-family="Helvetica,sans-Serif" font-size="10.00">FMTmask.hpp</text>
</a>
</g>
</g>
<!-- Node1&#45;&gt;Node17 -->
<g id="edge17_Node000001_Node000017" class="edge">
<title>Node1&#45;&gt;Node17</title>
<g id="a_edge17_Node000001_Node000017"><a xlink:title=" ">
<path fill="none" stroke="#63b8ff" d="M857.61,-179.55C880.95,-169.96 910.66,-157.75 933.07,-148.54"/>
<polygon fill="#63b8ff" stroke="#63b8ff" points="934.2,-151.45 942.12,-144.41 931.54,-144.97 934.2,-151.45"/>
</a>
</g>
</g>
<!-- Node24 -->
<g id="Node000024" class="node">
<title>Node24</title>
<g id="a_Node000024"><a xlink:href="FMTmaskfilter_8hpp.html" target="_top" xlink:title=" ">
<polygon fill="white" stroke="#666666" points="830.13,-144 733.88,-144 733.88,-124 830.13,-124 830.13,-144"/>
<text text-anchor="middle" x="782.01" y="-130.5" font-family="Helvetica,sans-Serif" font-size="10.00">FMTmaskfilter.hpp</text>
</a>
</g>
</g>
<!-- Node1&#45;&gt;Node24 -->
<g id="edge31_Node000001_Node000024" class="edge">
<title>Node1&#45;&gt;Node24</title>
<g id="a_edge31_Node000001_Node000024"><a xlink:title=" ">
<path fill="none" stroke="#63b8ff" d="M810.22,-179.55C805.22,-171.65 799.09,-161.97 793.83,-153.66"/>
<polygon fill="#63b8ff" stroke="#63b8ff" points="796.28,-151.98 787.97,-145.41 790.36,-155.73 796.28,-151.98"/>
</a>
</g>
</g>
<!-- Node3 -->
<g id="Node000003" class="node">
<title>Node3</title>
<g id="a_Node000003"><a xlink:title=" ">
<polygon fill="#e0e0e0" stroke="#999999" points="129.63,-82 90.38,-82 90.38,-62 129.63,-62 129.63,-82"/>
<text text-anchor="middle" x="110.01" y="-68.5" font-family="Helvetica,sans-Serif" font-size="10.00">limits</text>
</a>
</g>
</g>
<!-- Node2&#45;&gt;Node3 -->
<g id="edge2_Node000002_Node000003" class="edge">
<title>Node2&#45;&gt;Node3</title>
<g id="a_edge2_Node000002_Node000003"><a xlink:title=" ">
<path fill="none" stroke="#63b8ff" d="M387.94,-130.73C330.07,-126.7 224.6,-115.9 139.01,-88 137.91,-87.64 136.79,-87.24 135.68,-86.81"/>
<polygon fill="#63b8ff" stroke="#63b8ff" points="137.42,-83.31 126.87,-82.37 134.53,-89.68 137.42,-83.31"/>
</a>
</g>
</g>
<!-- Node4 -->
<g id="Node000004" class="node">
<title>Node4</title>
<g id="a_Node000004"><a xlink:title=" ">
<polygon fill="#e0e0e0" stroke="#999999" points="182.38,-82 147.63,-82 147.63,-62 182.38,-62 182.38,-82"/>
<text text-anchor="middle" x="165.01" y="-68.5" font-family="Helvetica,sans-Serif" font-size="10.00">map</text>
</a>
</g>
</g>
<!-- Node2&#45;&gt;Node4 -->
<g id="edge3_Node000002_Node000004" class="edge">
<title>Node2&#45;&gt;Node4</title>
<g id="a_edge3_Node000002_Node000004"><a xlink:title=" ">
<path fill="none" stroke="#63b8ff" d="M387.7,-128.16C339.89,-122.02 261.07,-109.56 196.01,-88 194.73,-87.58 193.44,-87.11 192.15,-86.62"/>
<polygon fill="#63b8ff" stroke="#63b8ff" points="193.95,-83.15 183.38,-82.39 191.17,-89.57 193.95,-83.15"/>
</a>
</g>
</g>
<!-- Node5 -->
<g id="Node000005" class="node">
<title>Node5</title>
<g id="a_Node000005"><a xlink:href="FMTexception_8hpp.html" target="_top" xlink:title=" ">
<polygon fill="white" stroke="#666666" points="743.13,-82 646.88,-82 646.88,-62 743.13,-62 743.13,-82"/>
<text text-anchor="middle" x="695.01" y="-68.5" font-family="Helvetica,sans-Serif" font-size="10.00">FMTexception.hpp</text>
</a>
</g>
</g>
<!-- Node2&#45;&gt;Node5 -->
<g id="edge4_Node000002_Node000005" class="edge">
<title>Node2&#45;&gt;Node5</title>
<g id="a_edge4_Node000002_Node000005"><a xlink:title=" ">
<path fill="none" stroke="#63b8ff" d="M474.12,-124.08C515.88,-115.32 580.93,-101.37 637.01,-88 640.83,-87.09 644.78,-86.12 648.74,-85.13"/>
<polygon fill="#63b8ff" stroke="#63b8ff" points="649.34,-88.34 658.17,-82.5 647.62,-81.55 649.34,-88.34"/>
</a>
</g>
</g>
<!-- Node2&#45;&gt;Node10 -->
<g id="edge10_Node000002_Node000010" class="edge">
<title>Node2&#45;&gt;Node10</title>
<g id="a_edge10_Node000002_Node000010"><a xlink:title=" ">
<path fill="none" stroke="#63b8ff" d="M387.67,-129.57C334.36,-124.34 248.51,-112.32 229.01,-88 220.11,-76.9 220.77,-67.6 229.01,-56 246.97,-30.71 280.25,-19.51 308.51,-14.61"/>
<polygon fill="#63b8ff" stroke="#63b8ff" points="308.68,-17.98 318.05,-13.03 307.64,-11.05 308.68,-17.98"/>
</a>
</g>
</g>
<!-- Node11 -->
<g id="Node000011" class="node">
<title>Node11</title>
<g id="a_Node000011"><a xlink:title=" ">
<polygon fill="#e0e0e0" stroke="#999999" points="802.76,-82 761.26,-82 761.26,-62 802.76,-62 802.76,-82"/>
<text text-anchor="middle" x="782.01" y="-68.5" font-family="Helvetica,sans-Serif" font-size="10.00">vector</text>
</a>
</g>
</g>
<!-- Node2&#45;&gt;Node11 -->
<g id="edge11_Node000002_Node000011" class="edge">
<title>Node2&#45;&gt;Node11</title>
<g id="a_edge11_Node000002_Node000011"><a xlink:title=" ">
<path fill="none" stroke="#63b8ff" d="M474.29,-131.37C536.88,-128.02 655.69,-117.95 752.01,-88 753.29,-87.6 754.59,-87.15 755.88,-86.67"/>
<polygon fill="#63b8ff" stroke="#63b8ff" points="756.84,-89.63 764.59,-82.4 754.03,-83.22 756.84,-89.63"/>
</a>
</g>
</g>
<!-- Node12 -->
<g id="Node000012" class="node">
<title>Node12</title>
<g id="a_Node000012"><a xlink:title=" ">
<polygon fill="#e0e0e0" stroke="#999999" points="365.51,-82 238.51,-82 238.51,-62 365.51,-62 365.51,-82"/>
<text text-anchor="middle" x="302.01" y="-68.5" font-family="Helvetica,sans-Serif" font-size="10.00">boost/functional/hash.hpp</text>
</a>
</g>
</g>
<!-- Node2&#45;&gt;Node12 -->
<g id="edge12_Node000002_Node000012" class="edge">
<title>Node2&#45;&gt;Node12</title>
<g id="a_edge12_Node000002_Node000012"><a xlink:title=" ">
<path fill="none" stroke="#63b8ff" d="M410.85,-123.62C389.65,-113.76 356.05,-98.13 331.79,-86.85"/>
<polygon fill="#63b8ff" stroke="#63b8ff" points="333.57,-83.35 323.02,-82.31 330.62,-89.7 333.57,-83.35"/>
</a>
</g>
</g>
<!-- Node2&#45;&gt;Node13 -->
<g id="edge13_Node000002_Node000013" class="edge">
<title>Node2&#45;&gt;Node13</title>
<g id="a_edge13_Node000002_Node000013"><a xlink:title=" ">
<path fill="none" stroke="#63b8ff" d="M474.17,-129.94C543.19,-124.61 682.77,-112 809.5,-88.33"/>
<polygon fill="#63b8ff" stroke="#63b8ff" points="809.98,-91.61 819.15,-86.3 808.68,-84.73 809.98,-91.61"/>
</a>
</g>
</g>
<!-- Node14 -->
<g id="Node000014" class="node">
<title>Node14</title>
<g id="a_Node000014"><a xlink:title=" ">
<polygon fill="#e0e0e0" stroke="#999999" points="478.38,-88 383.63,-88 383.63,-56 478.38,-56 478.38,-88"/>
<text text-anchor="start" x="391.63" y="-74.5" font-family="Helvetica,sans-Serif" font-size="10.00">boost/serialization</text>
<text text-anchor="middle" x="431.01" y="-62.5" font-family="Helvetica,sans-Serif" font-size="10.00">/nvp.hpp</text>
</a>
</g>
</g>
<!-- Node2&#45;&gt;Node14 -->
<g id="edge14_Node000002_Node000014" class="edge">
<title>Node2&#45;&gt;Node14</title>
<g id="a_edge14_Node000002_Node000014"><a xlink:title=" ">
<path fill="none" stroke="#63b8ff" d="M431.01,-123.62C431.01,-117.02 431.01,-107.84 431.01,-99.11"/>
<polygon fill="#63b8ff" stroke="#63b8ff" points="434.51,-99.14 431.01,-89.14 427.51,-99.14 434.51,-99.14"/>
</a>
</g>
</g>
<!-- Node15 -->
<g id="Node000015" class="node">
<title>Node15</title>
<g id="a_Node000015"><a xlink:title=" ">
<polygon fill="#e0e0e0" stroke="#999999" points="628.38,-88 533.63,-88 533.63,-56 628.38,-56 628.38,-88"/>
<text text-anchor="start" x="541.63" y="-74.5" font-family="Helvetica,sans-Serif" font-size="10.00">boost/serialization</text>
<text text-anchor="middle" x="581.01" y="-62.5" font-family="Helvetica,sans-Serif" font-size="10.00">/string.hpp</text>
</a>
</g>
</g>
<!-- Node2&#45;&gt;Node15 -->
<g id="edge15_Node000002_Node000015" class="edge">
<title>Node2&#45;&gt;Node15</title>
<g id="a_edge15_Node000002_Node000015"><a xlink:title=" ">
<path fill="none" stroke="#63b8ff" d="M454.45,-123.62C475.18,-115.33 506.1,-102.96 532.19,-92.53"/>
<polygon fill="#63b8ff" stroke="#63b8ff" points="533.3,-95.45 541.28,-88.49 530.7,-88.95 533.3,-95.45"/>
</a>
</g>
</g>
<!-- Node16 -->
<g id="Node000016" class="node">
<title>Node16</title>
<g id="a_Node000016"><a xlink:title=" ">
<polygon fill="#e0e0e0" stroke="#999999" points="71.88,-82 16.13,-82 16.13,-62 71.88,-62 71.88,-82"/>
<text text-anchor="middle" x="44.01" y="-68.5" font-family="Helvetica,sans-Serif" font-size="10.00">algorithm</text>
</a>
</g>
</g>
<!-- Node2&#45;&gt;Node16 -->
<g id="edge16_Node000002_Node000016" class="edge">
<title>Node2&#45;&gt;Node16</title>
<g id="a_edge16_Node000002_Node000016"><a xlink:title=" ">
<path fill="none" stroke="#63b8ff" d="M387.77,-131.02C320.99,-127.16 189.16,-116.37 81.01,-88 78.95,-87.46 76.85,-86.83 74.75,-86.15"/>
<polygon fill="#63b8ff" stroke="#63b8ff" points="76.03,-82.52 65.43,-82.37 73.62,-89.1 76.03,-82.52"/>
</a>
</g>
</g>
<!-- Node6 -->
<g id="Node000006" class="node">
<title>Node6</title>
<g id="a_Node000006"><a xlink:title=" ">
<polygon fill="#e0e0e0" stroke="#999999" points="797.01,-20 739.01,-20 739.01,0 797.01,0 797.01,-20"/>
<text text-anchor="middle" x="768.01" y="-6.5" font-family="Helvetica,sans-Serif" font-size="10.00">exception</text>
</a>
</g>
</g>
<!-- Node5&#45;&gt;Node6 -->
<g id="edge5_Node000005_Node000006" class="edge">
<title>Node5&#45;&gt;Node6</title>
<g id="a_edge5_Node000005_Node000006"><a xlink:title=" ">
<path fill="none" stroke="#63b8ff" d="M706.42,-61.62C717.73,-52.32 735.28,-37.9 748.76,-26.82"/>
<polygon fill="#63b8ff" stroke="#63b8ff" points="750.42,-29.17 755.92,-20.11 745.97,-23.76 750.42,-29.17"/>
</a>
</g>
</g>
<!-- Node5&#45;&gt;Node7 -->
<g id="edge6_Node000005_Node000007" class="edge">
<title>Node5&#45;&gt;Node7</title>
<g id="a_edge6_Node000005_Node000007"><a xlink:title=" ">
<path fill="none" stroke="#63b8ff" d="M728,-61.57C735.83,-59.54 744.18,-57.55 752.01,-56 863.57,-33.96 998.08,-19.61 1057.81,-13.85"/>
<polygon fill="#63b8ff" stroke="#63b8ff" points="1058.11,-17.25 1067.73,-12.82 1057.45,-10.28 1058.11,-17.25"/>
</a>
</g>
</g>
<!-- Node8 -->
<g id="Node000008" class="node">
<title>Node8</title>
<g id="a_Node000008"><a xlink:title=" ">
<polygon fill="#e0e0e0" stroke="#999999" points="651.76,-20 598.26,-20 598.26,0 651.76,0 651.76,-20"/>
<text text-anchor="middle" x="625.01" y="-6.5" font-family="Helvetica,sans-Serif" font-size="10.00">iostream</text>
</a>
</g>
</g>
<!-- Node5&#45;&gt;Node8 -->
<g id="edge7_Node000005_Node000008" class="edge">
<title>Node5&#45;&gt;Node8</title>
<g id="a_edge7_Node000005_Node000008"><a xlink:title=" ">
<path fill="none" stroke="#63b8ff" d="M684.07,-61.62C673.33,-52.41 656.71,-38.17 643.84,-27.14"/>
<polygon fill="#63b8ff" stroke="#63b8ff" points="646.51,-23.96 636.64,-20.11 641.96,-29.28 646.51,-23.96"/>
</a>
</g>
</g>
<!-- Node9 -->
<g id="Node000009" class="node">
<title>Node9</title>
<g id="a_Node000009"><a xlink:title=" ">
<polygon fill="#e0e0e0" stroke="#999999" points="720.63,-20 669.38,-20 669.38,0 720.63,0 720.63,-20"/>
<text text-anchor="middle" x="695.01" y="-6.5" font-family="Helvetica,sans-Serif" font-size="10.00">memory</text>
</a>
</g>
</g>
<!-- Node5&#45;&gt;Node9 -->
<g id="edge8_Node000005_Node000009" class="edge">
<title>Node5&#45;&gt;Node9</title>
<g id="a_edge8_Node000005_Node000009"><a xlink:title=" ">
<path fill="none" stroke="#63b8ff" d="M695.01,-61.62C695.01,-53.48 695.01,-41.39 695.01,-31.07"/>
<polygon fill="#63b8ff" stroke="#63b8ff" points="698.51,-31.11 695.01,-21.11 691.51,-31.11 698.51,-31.11"/>
</a>
</g>
</g>
<!-- Node5&#45;&gt;Node10 -->
<g id="edge9_Node000005_Node000010" class="edge">
<title>Node5&#45;&gt;Node10</title>
<g id="a_edge9_Node000005_Node000010"><a xlink:title=" ">
<path fill="none" stroke="#63b8ff" d="M660.48,-61.51C652.78,-59.55 644.64,-57.6 637.01,-56 557.32,-39.31 463.72,-25.35 407.72,-17.59"/>
<polygon fill="#63b8ff" stroke="#63b8ff" points="408.42,-14.02 398.04,-16.12 407.47,-20.95 408.42,-14.02"/>
</a>
</g>
</g>
<!-- Node17&#45;&gt;Node5 -->
<g id="edge28_Node000017_Node000005" class="edge">
<title>Node17&#45;&gt;Node5</title>
<g id="a_edge28_Node000017_Node000005"><a xlink:title=" ">
<path fill="none" stroke="#63b8ff" d="M926.44,-125.3C883.39,-116.77 812.6,-102.33 752.01,-88 748.2,-87.1 744.26,-86.13 740.31,-85.14"/>
<polygon fill="#63b8ff" stroke="#63b8ff" points="741.46,-81.57 730.91,-82.48 739.73,-88.35 741.46,-81.57"/>
</a>
</g>
</g>
<!-- Node17&#45;&gt;Node7 -->
<g id="edge30_Node000017_Node000007" class="edge">
<title>Node17&#45;&gt;Node7</title>
<g id="a_edge30_Node000017_Node000007"><a xlink:title=" ">
<path fill="none" stroke="#63b8ff" d="M1005.55,-124.99C1027.54,-118.56 1053.68,-107.3 1070.01,-88 1083.39,-72.18 1087.61,-48.36 1088.81,-31.4"/>
<polygon fill="#63b8ff" stroke="#63b8ff" points="1092.34,-31.61 1089.24,-21.48 1085.35,-31.34 1092.34,-31.61"/>
</a>
</g>
</g>
<!-- Node17&#45;&gt;Node11 -->
<g id="edge29_Node000017_Node000011" class="edge">
<title>Node17&#45;&gt;Node11</title>
<g id="a_edge29_Node000017_Node000011"><a xlink:title=" ">
<path fill="none" stroke="#63b8ff" d="M926.44,-123.53C894.94,-115.49 850,-102.91 812.01,-88 811.11,-87.65 810.2,-87.28 809.28,-86.89"/>
<polygon fill="#63b8ff" stroke="#63b8ff" points="811.09,-83.41 800.54,-82.42 808.17,-89.77 811.09,-83.41"/>
</a>
</g>
</g>
<!-- Node17&#45;&gt;Node12 -->
<g id="edge22_Node000017_Node000012" class="edge">
<title>Node17&#45;&gt;Node12</title>
<g id="a_edge22_Node000017_Node000012"><a xlink:title=" ">
<path fill="none" stroke="#63b8ff" d="M926.61,-130.14C798.79,-120.84 402.33,-91.83 375.01,-88 368.28,-87.06 361.25,-85.87 354.31,-84.58"/>
<polygon fill="#63b8ff" stroke="#63b8ff" points="355.03,-80.96 344.54,-82.48 353.69,-87.83 355.03,-80.96"/>
</a>
</g>
</g>
<!-- Node17&#45;&gt;Node13 -->
<g id="edge23_Node000017_Node000013" class="edge">
<title>Node17&#45;&gt;Node13</title>
<g id="a_edge23_Node000017_Node000013"><a xlink:title=" ">
<path fill="none" stroke="#63b8ff" d="M950.7,-123.62C937.83,-115.75 918.95,-104.19 902.48,-94.1"/>
<polygon fill="#63b8ff" stroke="#63b8ff" points="904.48,-90.61 894.12,-88.37 900.82,-96.58 904.48,-90.61"/>
</a>
</g>
</g>
<!-- Node17&#45;&gt;Node14 -->
<g id="edge25_Node000017_Node000014" class="edge">
<title>Node17&#45;&gt;Node14</title>
<g id="a_edge25_Node000017_Node000014"><a xlink:title=" ">
<path fill="none" stroke="#63b8ff" d="M926.39,-129.71C849.06,-123.13 672.67,-107.3 525.01,-88 513.47,-86.49 501.16,-84.68 489.38,-82.84"/>
<polygon fill="#63b8ff" stroke="#63b8ff" points="490.18,-79.26 479.75,-81.15 489.08,-86.18 490.18,-79.26"/>
</a>
</g>
</g>
<!-- Node17&#45;&gt;Node15 -->
<g id="edge27_Node000017_Node000015" class="edge">
<title>Node17&#45;&gt;Node15</title>
<g id="a_edge27_Node000017_Node000015"><a xlink:title=" ">
<path fill="none" stroke="#63b8ff" d="M926.62,-129.15C866.72,-122.96 748.96,-109.48 639.38,-88.12"/>
<polygon fill="#63b8ff" stroke="#63b8ff" points="640.3,-84.53 629.81,-86.03 638.94,-91.4 640.3,-84.53"/>
</a>
</g>
</g>
<!-- Node18 -->
<g id="Node000018" class="node">
<title>Node18</title>
<g id="a_Node000018"><a xlink:title=" ">
<polygon fill="#e0e0e0" stroke="#999999" points="1060.88,-82 933.13,-82 933.13,-62 1060.88,-62 1060.88,-82"/>
<text text-anchor="middle" x="997.01" y="-68.5" font-family="Helvetica,sans-Serif" font-size="10.00">boost/dynamic_bitset.hpp</text>
</a>
</g>
</g>
<!-- Node17&#45;&gt;Node18 -->
<g id="edge18_Node000017_Node000018" class="edge">
<title>Node17&#45;&gt;Node18</title>
<g id="a_edge18_Node000017_Node000018"><a xlink:title=" ">
<path fill="none" stroke="#63b8ff" d="M970.85,-123.62C975.25,-115.12 981.85,-102.33 987.33,-91.74"/>
<polygon fill="#63b8ff" stroke="#63b8ff" points="990.82,-93.6 992.3,-83.11 984.6,-90.39 990.82,-93.6"/>
</a>
</g>
</g>
<!-- Node19 -->
<g id="Node000019" class="node">
<title>Node19</title>
<g id="a_Node000019"><a xlink:title=" ">
<polygon fill="#e0e0e0" stroke="#999999" points="1245.26,-82 1116.76,-82 1116.76,-62 1245.26,-62 1245.26,-82"/>
<text text-anchor="middle" x="1181.01" y="-68.5" font-family="Helvetica,sans-Serif" font-size="10.00">boost/unordered_map.hpp</text>
</a>
</g>
</g>
<!-- Node17&#45;&gt;Node19 -->
<g id="edge19_Node000017_Node000019" class="edge">
<title>Node17&#45;&gt;Node19</title>
<g id="a_edge19_Node000017_Node000019"><a xlink:title=" ">
<path fill="none" stroke="#63b8ff" d="M999.6,-123.62C1036.57,-113.31 1096.15,-96.68 1136.86,-85.32"/>
<polygon fill="#63b8ff" stroke="#63b8ff" points="1137.61,-88.47 1146.3,-82.41 1135.73,-81.72 1137.61,-88.47"/>
</a>
</g>
</g>
<!-- Node20 -->
<g id="Node000020" class="node">
<title>Node20</title>
<g id="a_Node000020"><a xlink:title=" ">
<polygon fill="#e0e0e0" stroke="#999999" points="1392.26,-82 1263.76,-82 1263.76,-62 1392.26,-62 1392.26,-82"/>
<text text-anchor="middle" x="1328.01" y="-68.5" font-family="Helvetica,sans-Serif" font-size="10.00">boost/algorithm/string.hpp</text>
</a>
</g>
</g>
<!-- Node17&#45;&gt;Node20 -->
<g id="edge20_Node000017_Node000020" class="edge">
<title>Node17&#45;&gt;Node20</title>
<g id="a_edge20_Node000017_Node000020"><a xlink:title=" ">
<path fill="none" stroke="#63b8ff" d="M1005.23,-127.44C1060.74,-119.45 1165.35,-103.9 1254.01,-88 1260.04,-86.92 1266.34,-85.73 1272.61,-84.51"/>
<polygon fill="#63b8ff" stroke="#63b8ff" points="1272.94,-87.82 1282.07,-82.45 1271.58,-80.95 1272.94,-87.82"/>
</a>
</g>
</g>
<!-- Node21 -->
<g id="Node000021" class="node">
<title>Node21</title>
<g id="a_Node000021"><a xlink:title=" ">
<polygon fill="#e0e0e0" stroke="#999999" points="1519.88,-88 1410.13,-88 1410.13,-56 1519.88,-56 1519.88,-88"/>
<text text-anchor="start" x="1418.13" y="-74.5" font-family="Helvetica,sans-Serif" font-size="10.00">boost/algorithm/string</text>
<text text-anchor="middle" x="1465.01" y="-62.5" font-family="Helvetica,sans-Serif" font-size="10.00">/join.hpp</text>
</a>
</g>
</g>
<!-- Node17&#45;&gt;Node21 -->
<g id="edge21_Node000017_Node000021" class="edge">
<title>Node17&#45;&gt;Node21</title>
<g id="a_edge21_Node000017_Node000021"><a xlink:title=" ">
<path fill="none" stroke="#63b8ff" d="M1005.52,-130.6C1080.4,-125.69 1248.21,-112.95 1399.11,-88.18"/>
<polygon fill="#63b8ff" stroke="#63b8ff" points="1399.65,-91.47 1408.94,-86.38 1398.5,-84.57 1399.65,-91.47"/>
</a>
</g>
</g>
<!-- Node22 -->
<g id="Node000022" class="node">
<title>Node22</title>
<g id="a_Node000022"><a xlink:title=" ">
<polygon fill="#e0e0e0" stroke="#999999" points="1632.38,-88 1537.63,-88 1537.63,-56 1632.38,-56 1632.38,-88"/>
<text text-anchor="start" x="1545.63" y="-74.5" font-family="Helvetica,sans-Serif" font-size="10.00">boost/serialization</text>
<text text-anchor="middle" x="1585.01" y="-62.5" font-family="Helvetica,sans-Serif" font-size="10.00">/split_free.hpp</text>
</a>
</g>
</g>
<!-- Node17&#45;&gt;Node22 -->
<g id="edge24_Node000017_Node000022" class="edge">
<title>Node17&#45;&gt;Node22</title>
<g id="a_edge24_Node000017_Node000022"><a xlink:title=" ">
<path fill="none" stroke="#63b8ff" d="M1005.56,-132.31C1096.27,-130.19 1326.27,-121.83 1526.46,-88.25"/>
<polygon fill="#63b8ff" stroke="#63b8ff" points="1526.91,-91.56 1536.18,-86.43 1525.73,-84.66 1526.91,-91.56"/>
</a>
</g>
</g>
<!-- Node23 -->
<g id="Node000023" class="node">
<title>Node23</title>
<g id="a_Node000023"><a xlink:title=" ">
<polygon fill="#e0e0e0" stroke="#999999" points="1745.38,-88 1650.63,-88 1650.63,-56 1745.38,-56 1745.38,-88"/>
<text text-anchor="start" x="1658.63" y="-74.5" font-family="Helvetica,sans-Serif" font-size="10.00">boost/serialization</text>
<text text-anchor="middle" x="1698.01" y="-62.5" font-family="Helvetica,sans-Serif" font-size="10.00">/export.hpp</text>
</a>
</g>
</g>
<!-- Node17&#45;&gt;Node23 -->
<g id="edge26_Node000017_Node000023" class="edge">
<title>Node17&#45;&gt;Node23</title>
<g id="a_edge26_Node000017_Node000023"><a xlink:title=" ">
<path fill="none" stroke="#63b8ff" d="M1005.49,-132.99C1108.47,-132.4 1393.71,-127.21 1639.68,-87.98"/>
<polygon fill="#63b8ff" stroke="#63b8ff" points="1639.95,-91.33 1649.26,-86.27 1638.83,-84.42 1639.95,-91.33"/>
</a>
</g>
</g>
<!-- Node24&#45;&gt;Node10 -->
<g id="edge37_Node000024_Node000010" class="edge">
<title>Node24&#45;&gt;Node10</title>
<g id="a_edge37_Node000024_Node000010"><a xlink:title=" ">
<path fill="none" stroke="#63b8ff" d="M733.83,-131.99C680.45,-129.22 592.94,-119.7 525.01,-88 505,-78.66 506.2,-66.93 487.01,-56 462.03,-41.77 431.79,-30.93 406.87,-23.46"/>
<polygon fill="#63b8ff" stroke="#63b8ff" points="408.13,-19.89 397.55,-20.46 406.18,-26.61 408.13,-19.89"/>
</a>
</g>
</g>
<!-- Node24&#45;&gt;Node11 -->
<g id="edge35_Node000024_Node000011" class="edge">
<title>Node24&#45;&gt;Node11</title>
<g id="a_edge35_Node000024_Node000011"><a xlink:title=" ">
<path fill="none" stroke="#63b8ff" d="M782.01,-123.62C782.01,-115.48 782.01,-103.39 782.01,-93.07"/>
<polygon fill="#63b8ff" stroke="#63b8ff" points="785.51,-93.11 782.01,-83.11 778.51,-93.11 785.51,-93.11"/>
</a>
</g>
</g>
<!-- Node24&#45;&gt;Node12 -->
<g id="edge36_Node000024_Node000012" class="edge">
<title>Node24&#45;&gt;Node12</title>
<g id="a_edge36_Node000024_Node000012"><a xlink:title=" ">
<path fill="none" stroke="#63b8ff" d="M733.57,-129.11C657.11,-122.63 503.87,-108.32 375.01,-88 368.55,-86.98 361.8,-85.78 355.12,-84.51"/>
<polygon fill="#63b8ff" stroke="#63b8ff" points="356.22,-80.96 345.74,-82.47 354.87,-87.83 356.22,-80.96"/>
</a>
</g>
</g>
<!-- Node24&#45;&gt;Node13 -->
<g id="edge33_Node000024_Node000013" class="edge">
<title>Node24&#45;&gt;Node13</title>
<g id="a_edge33_Node000024_Node000013"><a xlink:title=" ">
<path fill="none" stroke="#63b8ff" d="M795.45,-123.62C806.64,-115.82 823,-104.4 837.36,-94.38"/>
<polygon fill="#63b8ff" stroke="#63b8ff" points="838.78,-96.97 844.97,-88.37 834.77,-91.22 838.78,-96.97"/>
</a>
</g>
</g>
<!-- Node24&#45;&gt;Node14 -->
<g id="edge34_Node000024_Node000014" class="edge">
<title>Node24&#45;&gt;Node14</title>
<g id="a_edge34_Node000024_Node000014"><a xlink:title=" ">
<path fill="none" stroke="#63b8ff" d="M733.55,-126.8C675.78,-119.1 576.44,-104.9 492.01,-88 491.21,-87.84 490.4,-87.68 489.59,-87.51"/>
<polygon fill="#63b8ff" stroke="#63b8ff" points="490.39,-83.88 479.87,-85.19 488.9,-90.72 490.39,-83.88"/>
</a>
</g>
</g>
<!-- Node24&#45;&gt;Node18 -->
<g id="edge32_Node000024_Node000018" class="edge">
<title>Node24&#45;&gt;Node18</title>
<g id="a_edge32_Node000024_Node000018"><a xlink:title=" ">
<path fill="none" stroke="#63b8ff" d="M815.6,-123.62C852.57,-113.31 912.15,-96.68 952.86,-85.32"/>
<polygon fill="#63b8ff" stroke="#63b8ff" points="953.61,-88.47 962.3,-82.41 951.73,-81.72 953.61,-88.47"/>
</a>
</g>
</g>
</g>
</svg>
