<?xml version="1.0" encoding="UTF-8" standalone="no"?>
<!DOCTYPE svg PUBLIC "-//W3C//DTD SVG 1.1//EN"
 "http://www.w3.org/Graphics/SVG/1.1/DTD/svg11.dtd">
<!-- Generated by graphviz version 8.1.0 (20230707.0739)
 -->
<!-- Title: C:/Users/CYRGU3/OneDrive &#45; BuroVirtuel/Bureau/FMT/FMT/Include/FMTwarning.hpp Pages: 1 -->
<svg width="431pt" height="176pt"
 viewBox="0.00 0.00 430.75 176.00" xmlns="http://www.w3.org/2000/svg" xmlns:xlink="http://www.w3.org/1999/xlink">
<g id="graph0" class="graph" transform="scale(1 1) rotate(0) translate(4 172)">
<title>C:/Users/CYRGU3/OneDrive &#45; BuroVirtuel/Bureau/FMT/FMT/Include/FMTwarning.hpp</title>
<!-- Node1 -->
<g id="Node000001" class="node">
<title>Node1</title>
<g id="a_Node000001"><a xlink:title=" ">
<polygon fill="#999999" stroke="#666666" points="297.62,-168 151.12,-168 151.12,-124 297.62,-124 297.62,-168"/>
<text text-anchor="start" x="159.12" y="-154.5" font-family="Helvetica,sans-Serif" font-size="10.00">C:/Users/CYRGU3/OneDrive</text>
<text text-anchor="start" x="159.12" y="-142.5" font-family="Helvetica,sans-Serif" font-size="10.00"> &#45; BuroVirtuel/Bureau/FMT</text>
<text text-anchor="middle" x="224.38" y="-130.5" font-family="Helvetica,sans-Serif" font-size="10.00">/FMT/Include/FMTwarning.hpp</text>
</a>
</g>
</g>
<!-- Node2 -->
<g id="Node000002" class="node">
<title>Node2</title>
<g id="a_Node000002"><a xlink:title=" ">
<polygon fill="#e0e0e0" stroke="#999999" points="82.75,-82 0,-82 0,-62 82.75,-62 82.75,-82"/>
<text text-anchor="middle" x="41.38" y="-68.5" font-family="Helvetica,sans-Serif" font-size="10.00">unordered_map</text>
</a>
</g>
</g>
<!-- Node1&#45;&gt;Node2 -->
<g id="edge1_Node000001_Node000002" class="edge">
<title>Node1&#45;&gt;Node2</title>
<g id="a_edge1_Node000001_Node000002"><a xlink:title=" ">
<path fill="none" stroke="#63b8ff" d="M169.96,-123.59C139.27,-111.52 101.87,-96.8 75.34,-86.36"/>
<polygon fill="#63b8ff" stroke="#63b8ff" points="76.98,-82.85 66.39,-82.45 74.41,-89.37 76.98,-82.85"/>
</a>
</g>
</g>
<!-- Node3 -->
<g id="Node000003" class="node">
<title>Node3</title>
<g id="a_Node000003"><a xlink:href="FMTexception_8hpp.html" target="_top" xlink:title=" ">
<polygon fill="white" stroke="#666666" points="234.5,-82 138.25,-82 138.25,-62 234.5,-62 234.5,-82"/>
<text text-anchor="middle" x="186.38" y="-68.5" font-family="Helvetica,sans-Serif" font-size="10.00">FMTexception.hpp</text>
</a>
</g>
</g>
<!-- Node1&#45;&gt;Node3 -->
<g id="edge2_Node000001_Node000003" class="edge">
<title>Node1&#45;&gt;Node3</title>
<g id="a_edge2_Node000001_Node000003"><a xlink:title=" ">
<path fill="none" stroke="#63b8ff" d="M213.18,-123.79C207.84,-113.67 201.51,-101.68 196.34,-91.88"/>
<polygon fill="#63b8ff" stroke="#63b8ff" points="199.05,-90.52 191.29,-83.31 192.86,-93.79 199.05,-90.52"/>
</a>
</g>
</g>
<!-- Node5 -->
<g id="Node000005" class="node">
<title>Node5</title>
<g id="a_Node000005"><a xlink:title=" ">
<polygon fill="#e0e0e0" stroke="#999999" points="68.38,-20 28.38,-20 28.38,0 68.38,0 68.38,-20"/>
<text text-anchor="middle" x="48.38" y="-6.5" font-family="Helvetica,sans-Serif" font-size="10.00">string</text>
</a>
</g>
</g>
<!-- Node1&#45;&gt;Node5 -->
<g id="edge8_Node000001_Node000005" class="edge">
<title>Node1&#45;&gt;Node5</title>
<g id="a_edge8_Node000001_Node000005"><a xlink:title=" ">
<path fill="none" stroke="#63b8ff" d="M184.29,-123.56C166.85,-113.58 146.52,-101.04 129.38,-88 104.91,-69.4 79.71,-44.34 64.05,-27.93"/>
<polygon fill="#63b8ff" stroke="#63b8ff" points="67.19,-26.1 57.79,-21.22 62.1,-30.9 67.19,-26.1"/>
</a>
</g>
</g>
<!-- Node7 -->
<g id="Node000007" class="node">
<title>Node7</title>
<g id="a_Node000007"><a xlink:title=" ">
<polygon fill="#e0e0e0" stroke="#999999" points="286,-20 234.75,-20 234.75,0 286,0 286,-20"/>
<text text-anchor="middle" x="260.38" y="-6.5" font-family="Helvetica,sans-Serif" font-size="10.00">memory</text>
</a>
</g>
</g>
<!-- Node1&#45;&gt;Node7 -->
<g id="edge9_Node000001_Node000007" class="edge">
<title>Node1&#45;&gt;Node7</title>
<g id="a_edge9_Node000001_Node000007"><a xlink:title=" ">
<path fill="none" stroke="#63b8ff" d="M232.13,-123.51C235.8,-112.9 240.1,-99.86 243.38,-88 248.72,-68.65 253.52,-46.21 256.64,-30.56"/>
<polygon fill="#63b8ff" stroke="#63b8ff" points="260.21,-31.57 258.69,-21.08 253.34,-30.23 260.21,-31.57"/>
</a>
</g>
</g>
<!-- Node8 -->
<g id="Node000008" class="node">
<title>Node8</title>
<g id="a_Node000008"><a xlink:href="FMTutility_8hpp.html" target="_top" xlink:title=" ">
<polygon fill="white" stroke="#666666" points="381.12,-20 303.62,-20 303.62,0 381.12,0 381.12,-20"/>
<text text-anchor="middle" x="342.38" y="-6.5" font-family="Helvetica,sans-Serif" font-size="10.00">FMTutility.hpp</text>
</a>
</g>
</g>
<!-- Node1&#45;&gt;Node8 -->
<g id="edge10_Node000001_Node000008" class="edge">
<title>Node1&#45;&gt;Node8</title>
<g id="a_edge10_Node000001_Node000008"><a xlink:title=" ">
<path fill="none" stroke="#63b8ff" d="M243.07,-123.77C266.34,-97.35 305.62,-52.73 327.15,-28.29"/>
<polygon fill="#63b8ff" stroke="#63b8ff" points="329.23,-31.09 333.21,-21.27 323.98,-26.46 329.23,-31.09"/>
</a>
</g>
</g>
<!-- Node9 -->
<g id="Node000009" class="node">
<title>Node9</title>
<g id="a_Node000009"><a xlink:title=" ">
<polygon fill="#e0e0e0" stroke="#999999" points="422.75,-88 328,-88 328,-56 422.75,-56 422.75,-88"/>
<text text-anchor="start" x="336" y="-74.5" font-family="Helvetica,sans-Serif" font-size="10.00">boost/serialization</text>
<text text-anchor="middle" x="375.38" y="-62.5" font-family="Helvetica,sans-Serif" font-size="10.00">/nvp.hpp</text>
</a>
</g>
</g>
<!-- Node1&#45;&gt;Node9 -->
<g id="edge11_Node000001_Node000009" class="edge">
<title>Node1&#45;&gt;Node9</title>
<g id="a_edge11_Node000001_Node000009"><a xlink:title=" ">
<path fill="none" stroke="#63b8ff" d="M269.27,-123.59C289.5,-113.95 313.26,-102.62 333.16,-93.13"/>
<polygon fill="#63b8ff" stroke="#63b8ff" points="334.36,-95.96 341.88,-88.5 331.34,-89.64 334.36,-95.96"/>
</a>
</g>
</g>
<!-- Node4 -->
<g id="Node000004" class="node">
<title>Node4</title>
<g id="a_Node000004"><a xlink:title=" ">
<polygon fill="#e0e0e0" stroke="#999999" points="216.38,-20 158.38,-20 158.38,0 216.38,0 216.38,-20"/>
<text text-anchor="middle" x="187.38" y="-6.5" font-family="Helvetica,sans-Serif" font-size="10.00">exception</text>
</a>
</g>
</g>
<!-- Node3&#45;&gt;Node4 -->
<g id="edge3_Node000003_Node000004" class="edge">
<title>Node3&#45;&gt;Node4</title>
<g id="a_edge3_Node000003_Node000004"><a xlink:title=" ">
<path fill="none" stroke="#63b8ff" d="M186.53,-61.62C186.67,-53.48 186.87,-41.39 187.04,-31.07"/>
<polygon fill="#63b8ff" stroke="#63b8ff" points="190.56,-31.17 187.22,-21.11 183.56,-31.05 190.56,-31.17"/>
</a>
</g>
</g>
<!-- Node3&#45;&gt;Node5 -->
<g id="edge4_Node000003_Node000005" class="edge">
<title>Node3&#45;&gt;Node5</title>
<g id="a_edge4_Node000003_Node000005"><a xlink:title=" ">
<path fill="none" stroke="#63b8ff" d="M164.81,-61.62C141.63,-51.54 104.59,-35.44 78.53,-24.11"/>
<polygon fill="#63b8ff" stroke="#63b8ff" points="80.01,-20.5 69.44,-19.72 77.22,-26.92 80.01,-20.5"/>
</a>
</g>
</g>
<!-- Node6 -->
<g id="Node000006" class="node">
<title>Node6</title>
<g id="a_Node000006"><a xlink:title=" ">
<polygon fill="#e0e0e0" stroke="#999999" points="140.12,-20 86.62,-20 86.62,0 140.12,0 140.12,-20"/>
<text text-anchor="middle" x="113.38" y="-6.5" font-family="Helvetica,sans-Serif" font-size="10.00">iostream</text>
</a>
</g>
</g>
<!-- Node3&#45;&gt;Node6 -->
<g id="edge5_Node000003_Node000006" class="edge">
<title>Node3&#45;&gt;Node6</title>
<g id="a_edge5_Node000003_Node000006"><a xlink:title=" ">
<path fill="none" stroke="#63b8ff" d="M174.97,-61.62C163.65,-52.32 146.1,-37.9 132.62,-26.82"/>
<polygon fill="#63b8ff" stroke="#63b8ff" points="135.41,-23.76 125.46,-20.11 130.97,-29.17 135.41,-23.76"/>
</a>
</g>
</g>
<!-- Node3&#45;&gt;Node7 -->
<g id="edge6_Node000003_Node000007" class="edge">
<title>Node3&#45;&gt;Node7</title>
<g id="a_edge6_Node000003_Node000007"><a xlink:title=" ">
<path fill="none" stroke="#63b8ff" d="M197.94,-61.62C209.41,-52.32 227.2,-37.9 240.86,-26.82"/>
<polygon fill="#63b8ff" stroke="#63b8ff" points="242.57,-29.13 248.14,-20.11 238.16,-23.69 242.57,-29.13"/>
</a>
</g>
</g>
<!-- Node3&#45;&gt;Node8 -->
<g id="edge7_Node000003_Node000008" class="edge">
<title>Node3&#45;&gt;Node8</title>
<g id="a_edge7_Node000003_Node000008"><a xlink:title=" ">
<path fill="none" stroke="#63b8ff" d="M210.75,-61.62C236.78,-51.62 278.24,-35.67 307.67,-24.35"/>
<polygon fill="#63b8ff" stroke="#63b8ff" points="308.84,-27.26 316.91,-20.41 306.32,-20.73 308.84,-27.26"/>
</a>
</g>
</g>
</g>
</svg>
