<?xml version="1.0" encoding="UTF-8" standalone="no"?>
<!DOCTYPE svg PUBLIC "-//W3C//DTD SVG 1.1//EN"
 "http://www.w3.org/Graphics/SVG/1.1/DTD/svg11.dtd">
<!-- Generated by graphviz version 8.1.0 (20230707.0739)
 -->
<!-- Title: C:/Users/CYRGU3/OneDrive &#45; BuroVirtuel/Bureau/FMT/FMT/Include/FMTyieldmodel.hpp Pages: 1 -->
<svg width="747pt" height="244pt"
 viewBox="0.00 0.00 746.75 244.00" xmlns="http://www.w3.org/2000/svg" xmlns:xlink="http://www.w3.org/1999/xlink">
<g id="graph0" class="graph" transform="scale(1 1) rotate(0) translate(4 240)">
<title>C:/Users/CYRGU3/OneDrive &#45; BuroVirtuel/Bureau/FMT/FMT/Include/FMTyieldmodel.hpp</title>
<!-- Node1 -->
<g id="Node000001" class="node">
<title>Node1</title>
<g id="a_Node000001"><a xlink:title=" ">
<polygon fill="#999999" stroke="#666666" points="467.38,-236 307.38,-236 307.38,-192 467.38,-192 467.38,-236"/>
<text text-anchor="start" x="315.38" y="-222.5" font-family="Helvetica,sans-Serif" font-size="10.00">C:/Users/CYRGU3/OneDrive</text>
<text text-anchor="start" x="315.38" y="-210.5" font-family="Helvetica,sans-Serif" font-size="10.00"> &#45; BuroVirtuel/Bureau/FMT</text>
<text text-anchor="middle" x="387.38" y="-198.5" font-family="Helvetica,sans-Serif" font-size="10.00">/FMT/Include/FMTyieldmodel.hpp</text>
</a>
</g>
</g>
<!-- Node2 -->
<g id="Node000002" class="node">
<title>Node2</title>
<g id="a_Node000002"><a xlink:href="FMTobject_8hpp.html" target="_top" xlink:title=" ">
<polygon fill="white" stroke="#666666" points="427.62,-150 347.12,-150 347.12,-130 427.62,-130 427.62,-150"/>
<text text-anchor="middle" x="387.38" y="-136.5" font-family="Helvetica,sans-Serif" font-size="10.00">FMTobject.hpp</text>
</a>
</g>
</g>
<!-- Node1&#45;&gt;Node2 -->
<g id="edge1_Node000001_Node000002" class="edge">
<title>Node1&#45;&gt;Node2</title>
<g id="a_edge1_Node000001_Node000002"><a xlink:title=" ">
<path fill="none" stroke="#63b8ff" d="M387.38,-191.79C387.38,-182.1 387.38,-170.69 387.38,-161.14"/>
<polygon fill="#63b8ff" stroke="#63b8ff" points="390.88,-161.31 387.38,-151.31 383.88,-161.31 390.88,-161.31"/>
</a>
</g>
</g>
<!-- Node4 -->
<g id="Node000004" class="node">
<title>Node4</title>
<g id="a_Node000004"><a xlink:title=" ">
<polygon fill="#e0e0e0" stroke="#999999" points="94.75,-88 0,-88 0,-56 94.75,-56 94.75,-88"/>
<text text-anchor="start" x="8" y="-74.5" font-family="Helvetica,sans-Serif" font-size="10.00">boost/serialization</text>
<text text-anchor="middle" x="47.38" y="-62.5" font-family="Helvetica,sans-Serif" font-size="10.00">/nvp.hpp</text>
</a>
</g>
</g>
<!-- Node1&#45;&gt;Node4 -->
<g id="edge16_Node000001_Node000004" class="edge">
<title>Node1&#45;&gt;Node4</title>
<g id="a_edge16_Node000001_Node000004"><a xlink:title=" ">
<path fill="none" stroke="#63b8ff" d="M335.37,-191.58C269.81,-164.59 158.08,-118.58 94.78,-92.52"/>
<polygon fill="#63b8ff" stroke="#63b8ff" points="96.25,-88.93 85.67,-88.36 93.59,-95.4 96.25,-88.93"/>
</a>
</g>
</g>
<!-- Node15 -->
<g id="Node000015" class="node">
<title>Node15</title>
<g id="a_Node000015"><a xlink:title=" ">
<polygon fill="#e0e0e0" stroke="#999999" points="540.75,-156 446,-156 446,-124 540.75,-124 540.75,-156"/>
<text text-anchor="start" x="454" y="-142.5" font-family="Helvetica,sans-Serif" font-size="10.00">boost/serialization</text>
<text text-anchor="middle" x="493.38" y="-130.5" font-family="Helvetica,sans-Serif" font-size="10.00">/serialization.hpp</text>
</a>
</g>
</g>
<!-- Node1&#45;&gt;Node15 -->
<g id="edge15_Node000001_Node000015" class="edge">
<title>Node1&#45;&gt;Node15</title>
<g id="a_edge15_Node000001_Node000015"><a xlink:title=" ">
<path fill="none" stroke="#63b8ff" d="M418.89,-191.59C432.38,-182.43 448.1,-171.75 461.61,-162.57"/>
<polygon fill="#63b8ff" stroke="#63b8ff" points="463.26,-165.01 469.56,-156.5 459.32,-159.22 463.26,-165.01"/>
</a>
</g>
</g>
<!-- Node3 -->
<g id="Node000003" class="node">
<title>Node3</title>
<g id="a_Node000003"><a xlink:title=" ">
<polygon fill="#e0e0e0" stroke="#999999" points="207.75,-88 113,-88 113,-56 207.75,-56 207.75,-88"/>
<text text-anchor="start" x="121" y="-74.5" font-family="Helvetica,sans-Serif" font-size="10.00">boost/serialization</text>
<text text-anchor="middle" x="160.38" y="-62.5" font-family="Helvetica,sans-Serif" font-size="10.00">/shared_ptr.hpp</text>
</a>
</g>
</g>
<!-- Node2&#45;&gt;Node3 -->
<g id="edge2_Node000002_Node000003" class="edge">
<title>Node2&#45;&gt;Node3</title>
<g id="a_edge2_Node000002_Node000003"><a xlink:title=" ">
<path fill="none" stroke="#63b8ff" d="M354.85,-129.54C319.29,-119.2 261.6,-102.43 218.27,-89.83"/>
<polygon fill="#63b8ff" stroke="#63b8ff" points="219.44,-86.24 208.86,-86.81 217.49,-92.96 219.44,-86.24"/>
</a>
</g>
</g>
<!-- Node2&#45;&gt;Node4 -->
<g id="edge3_Node000002_Node000004" class="edge">
<title>Node2&#45;&gt;Node4</title>
<g id="a_edge3_Node000002_Node000004"><a xlink:title=" ">
<path fill="none" stroke="#63b8ff" d="M346.87,-132.73C293.8,-124.3 197.64,-108.24 105.8,-88.21"/>
<polygon fill="#63b8ff" stroke="#63b8ff" points="106.72,-84.61 96.2,-85.88 105.22,-91.45 106.72,-84.61"/>
</a>
</g>
</g>
<!-- Node5 -->
<g id="Node000005" class="node">
<title>Node5</title>
<g id="a_Node000005"><a xlink:title=" ">
<polygon fill="#e0e0e0" stroke="#999999" points="320.75,-88 226,-88 226,-56 320.75,-56 320.75,-88"/>
<text text-anchor="start" x="234" y="-74.5" font-family="Helvetica,sans-Serif" font-size="10.00">boost/serialization</text>
<text text-anchor="middle" x="273.38" y="-62.5" font-family="Helvetica,sans-Serif" font-size="10.00">/export.hpp</text>
</a>
</g>
</g>
<!-- Node2&#45;&gt;Node5 -->
<g id="edge4_Node000002_Node000005" class="edge">
<title>Node2&#45;&gt;Node5</title>
<g id="a_edge4_Node000002_Node000005"><a xlink:title=" ">
<path fill="none" stroke="#63b8ff" d="M371.04,-129.54C354.99,-120.25 329.96,-105.76 309.26,-93.78"/>
<polygon fill="#63b8ff" stroke="#63b8ff" points="311.21,-90.28 300.8,-88.3 307.7,-96.34 311.21,-90.28"/>
</a>
</g>
</g>
<!-- Node6 -->
<g id="Node000006" class="node">
<title>Node6</title>
<g id="a_Node000006"><a xlink:href="FMTexception_8hpp.html" target="_top" xlink:title=" ">
<polygon fill="white" stroke="#666666" points="435.5,-82 339.25,-82 339.25,-62 435.5,-62 435.5,-82"/>
<text text-anchor="middle" x="387.38" y="-68.5" font-family="Helvetica,sans-Serif" font-size="10.00">FMTexception.hpp</text>
</a>
</g>
</g>
<!-- Node2&#45;&gt;Node6 -->
<g id="edge5_Node000002_Node000006" class="edge">
<title>Node2&#45;&gt;Node6</title>
<g id="a_edge5_Node000002_Node000006"><a xlink:title=" ">
<path fill="none" stroke="#63b8ff" d="M387.38,-129.54C387.38,-120.13 387.38,-105.39 387.38,-93.32"/>
<polygon fill="#63b8ff" stroke="#63b8ff" points="390.88,-93.44 387.38,-83.44 383.88,-93.44 390.88,-93.44"/>
</a>
</g>
</g>
<!-- Node10 -->
<g id="Node000010" class="node">
<title>Node10</title>
<g id="a_Node000010"><a xlink:title=" ">
<polygon fill="#e0e0e0" stroke="#999999" points="537,-20 485.75,-20 485.75,0 537,0 537,-20"/>
<text text-anchor="middle" x="511.38" y="-6.5" font-family="Helvetica,sans-Serif" font-size="10.00">memory</text>
</a>
</g>
</g>
<!-- Node2&#45;&gt;Node10 -->
<g id="edge11_Node000002_Node000010" class="edge">
<title>Node2&#45;&gt;Node10</title>
<g id="a_edge11_Node000002_Node000010"><a xlink:title=" ">
<path fill="none" stroke="#63b8ff" d="M398.68,-129.62C410.46,-119.67 429.27,-103.32 444.38,-88 463.51,-68.59 483.84,-44.71 497.02,-28.74"/>
<polygon fill="#63b8ff" stroke="#63b8ff" points="500.27,-31.29 503.89,-21.34 494.85,-26.86 500.27,-31.29"/>
</a>
</g>
</g>
<!-- Node12 -->
<g id="Node000012" class="node">
<title>Node12</title>
<g id="a_Node000012"><a xlink:title=" ">
<polygon fill="#e0e0e0" stroke="#999999" points="537,-82 491.75,-82 491.75,-62 537,-62 537,-82"/>
<text text-anchor="middle" x="514.38" y="-68.5" font-family="Helvetica,sans-Serif" font-size="10.00">chrono</text>
</a>
</g>
</g>
<!-- Node2&#45;&gt;Node12 -->
<g id="edge12_Node000002_Node000012" class="edge">
<title>Node2&#45;&gt;Node12</title>
<g id="a_edge12_Node000002_Node000012"><a xlink:title=" ">
<path fill="none" stroke="#63b8ff" d="M405.57,-129.54C426.79,-118.52 462.09,-100.17 486.71,-87.38"/>
<polygon fill="#63b8ff" stroke="#63b8ff" points="487.95,-90.16 495.21,-82.44 484.73,-83.94 487.95,-90.16"/>
</a>
</g>
</g>
<!-- Node13 -->
<g id="Node000013" class="node">
<title>Node13</title>
<g id="a_Node000013"><a xlink:title=" ">
<polygon fill="#e0e0e0" stroke="#999999" points="596.12,-82 554.62,-82 554.62,-62 596.12,-62 596.12,-82"/>
<text text-anchor="middle" x="575.38" y="-68.5" font-family="Helvetica,sans-Serif" font-size="10.00">vector</text>
</a>
</g>
</g>
<!-- Node2&#45;&gt;Node13 -->
<g id="edge13_Node000002_Node000013" class="edge">
<title>Node2&#45;&gt;Node13</title>
<g id="a_edge13_Node000002_Node000013"><a xlink:title=" ">
<path fill="none" stroke="#63b8ff" d="M419.04,-129.53C458.37,-117.65 523.15,-97.65 546.38,-88 547.12,-87.69 547.87,-87.37 548.63,-87.04"/>
<polygon fill="#63b8ff" stroke="#63b8ff" points="549.9,-89.83 557.43,-82.37 546.89,-83.51 549.9,-89.83"/>
</a>
</g>
</g>
<!-- Node14 -->
<g id="Node000014" class="node">
<title>Node14</title>
<g id="a_Node000014"><a xlink:title=" ">
<polygon fill="#e0e0e0" stroke="#999999" points="738.75,-88 614,-88 614,-56 738.75,-56 738.75,-88"/>
<text text-anchor="start" x="622" y="-74.5" font-family="Helvetica,sans-Serif" font-size="10.00">boost/dll/runtime_symbol</text>
<text text-anchor="middle" x="676.38" y="-62.5" font-family="Helvetica,sans-Serif" font-size="10.00">_info.hpp</text>
</a>
</g>
</g>
<!-- Node2&#45;&gt;Node14 -->
<g id="edge14_Node000002_Node000014" class="edge">
<title>Node2&#45;&gt;Node14</title>
<g id="a_edge14_Node000002_Node000014"><a xlink:title=" ">
<path fill="none" stroke="#63b8ff" d="M417.41,-129.56C423.96,-127.62 430.88,-125.66 437.38,-124 445.54,-121.91 535.75,-102.74 602.95,-88.52"/>
<polygon fill="#63b8ff" stroke="#63b8ff" points="603.46,-91.78 612.52,-86.28 602.01,-84.93 603.46,-91.78"/>
</a>
</g>
</g>
<!-- Node7 -->
<g id="Node000007" class="node">
<title>Node7</title>
<g id="a_Node000007"><a xlink:title=" ">
<polygon fill="#e0e0e0" stroke="#999999" points="242.38,-20 184.38,-20 184.38,0 242.38,0 242.38,-20"/>
<text text-anchor="middle" x="213.38" y="-6.5" font-family="Helvetica,sans-Serif" font-size="10.00">exception</text>
</a>
</g>
</g>
<!-- Node6&#45;&gt;Node7 -->
<g id="edge6_Node000006_Node000007" class="edge">
<title>Node6&#45;&gt;Node7</title>
<g id="a_edge6_Node000006_Node000007"><a xlink:title=" ">
<path fill="none" stroke="#63b8ff" d="M360.19,-61.62C330.78,-51.48 283.69,-35.25 250.8,-23.9"/>
<polygon fill="#63b8ff" stroke="#63b8ff" points="252.25,-20.36 241.66,-20.41 249.97,-26.98 252.25,-20.36"/>
</a>
</g>
</g>
<!-- Node8 -->
<g id="Node000008" class="node">
<title>Node8</title>
<g id="a_Node000008"><a xlink:title=" ">
<polygon fill="#e0e0e0" stroke="#999999" points="300.38,-20 260.38,-20 260.38,0 300.38,0 300.38,-20"/>
<text text-anchor="middle" x="280.38" y="-6.5" font-family="Helvetica,sans-Serif" font-size="10.00">string</text>
</a>
</g>
</g>
<!-- Node6&#45;&gt;Node8 -->
<g id="edge7_Node000006_Node000008" class="edge">
<title>Node6&#45;&gt;Node8</title>
<g id="a_edge7_Node000006_Node000008"><a xlink:title=" ">
<path fill="none" stroke="#63b8ff" d="M370.66,-61.62C353.46,-51.98 326.44,-36.83 306.43,-25.61"/>
<polygon fill="#63b8ff" stroke="#63b8ff" points="308.41,-22.15 297.98,-20.31 304.99,-28.25 308.41,-22.15"/>
</a>
</g>
</g>
<!-- Node9 -->
<g id="Node000009" class="node">
<title>Node9</title>
<g id="a_Node000009"><a xlink:title=" ">
<polygon fill="#e0e0e0" stroke="#999999" points="372.12,-20 318.62,-20 318.62,0 372.12,0 372.12,-20"/>
<text text-anchor="middle" x="345.38" y="-6.5" font-family="Helvetica,sans-Serif" font-size="10.00">iostream</text>
</a>
</g>
</g>
<!-- Node6&#45;&gt;Node9 -->
<g id="edge8_Node000006_Node000009" class="edge">
<title>Node6&#45;&gt;Node9</title>
<g id="a_edge8_Node000006_Node000009"><a xlink:title=" ">
<path fill="none" stroke="#63b8ff" d="M380.81,-61.62C374.74,-52.94 365.53,-39.8 358.03,-29.08"/>
<polygon fill="#63b8ff" stroke="#63b8ff" points="360.36,-27.3 351.75,-21.11 354.62,-31.31 360.36,-27.3"/>
</a>
</g>
</g>
<!-- Node6&#45;&gt;Node10 -->
<g id="edge9_Node000006_Node000010" class="edge">
<title>Node6&#45;&gt;Node10</title>
<g id="a_edge9_Node000006_Node000010"><a xlink:title=" ">
<path fill="none" stroke="#63b8ff" d="M406.75,-61.62C427.04,-51.81 459.14,-36.27 482.44,-25"/>
<polygon fill="#63b8ff" stroke="#63b8ff" points="483.66,-27.82 491.14,-20.31 480.61,-21.51 483.66,-27.82"/>
</a>
</g>
</g>
<!-- Node11 -->
<g id="Node000011" class="node">
<title>Node11</title>
<g id="a_Node000011"><a xlink:href="FMTutility_8hpp.html" target="_top" xlink:title=" ">
<polygon fill="white" stroke="#666666" points="468.12,-20 390.62,-20 390.62,0 468.12,0 468.12,-20"/>
<text text-anchor="middle" x="429.38" y="-6.5" font-family="Helvetica,sans-Serif" font-size="10.00">FMTutility.hpp</text>
</a>
</g>
</g>
<!-- Node6&#45;&gt;Node11 -->
<g id="edge10_Node000006_Node000011" class="edge">
<title>Node6&#45;&gt;Node11</title>
<g id="a_edge10_Node000006_Node000011"><a xlink:title=" ">
<path fill="none" stroke="#63b8ff" d="M393.94,-61.62C400.01,-52.94 409.22,-39.8 416.72,-29.08"/>
<polygon fill="#63b8ff" stroke="#63b8ff" points="420.13,-31.31 423,-21.11 414.39,-27.3 420.13,-31.31"/>
</a>
</g>
</g>
</g>
</svg>
