<?xml version="1.0" encoding="UTF-8" standalone="no"?>
<!DOCTYPE svg PUBLIC "-//W3C//DTD SVG 1.1//EN"
 "http://www.w3.org/Graphics/SVG/1.1/DTD/svg11.dtd">
<!-- Generated by graphviz version 10.0.1 (20240210.2158)
 -->
<!-- Title: D:/FMT/Include/FMTyieldhandler.hpp Pages: 1 -->
<!--zoomable 208 -->
<svg id="main" version="1.1" xmlns="http://www.w3.org/2000/svg" xmlns:xlink="http://www.w3.org/1999/xlink" xml:space="preserve" onload="init(evt)">
<style type="text/css"><![CDATA[
.edge:hover path { stroke: red; }
.edge:hover polygon { stroke: red; fill: red; }
]]></style>
<script type="text/javascript"><![CDATA[
var edges = document.getElementsByTagName('g');
if (edges && edges.length) {
  for (var i=0;i<edges.length;i++) {
    if (edges[i].id.substr(0,4)=='edge') {
      edges[i].setAttribute('class','edge');
    }
  }
}
]]></script>
        <defs>
                <circle id="rim" cx="0" cy="0" r="7"/>
                <circle id="rim2" cx="0" cy="0" r="3.5"/>
                <g id="zoomPlus">
                        <use xlink:href="#rim" fill="#404040">
                                <set attributeName="fill" to="#808080" begin="zoomplus.mouseover" end="zoomplus.mouseout"/>
                        </use>
                        <path d="M-4,0h8M0,-4v8" fill="none" stroke="white" stroke-width="1.5" pointer-events="none"/>
                </g>
                <g id="zoomMin">
                        <use xlink:href="#rim" fill="#404040">
                                <set attributeName="fill" to="#808080" begin="zoomminus.mouseover" end="zoomminus.mouseout"/>
                        </use>
                        <path d="M-4,0h8" fill="none" stroke="white" stroke-width="1.5" pointer-events="none"/>
                </g>
                <g id="dirArrow">
                        <path fill="none" stroke="white" stroke-width="1.5" d="M0,-3.0v7 M-2.5,-0.5L0,-3.0L2.5,-0.5"/>
                </g>
               <g id="resetDef">
                       <use xlink:href="#rim2" fill="#404040">
                               <set attributeName="fill" to="#808080" begin="reset.mouseover" end="reset.mouseout"/>
                       </use>
               </g>
        </defs>

<script type="text/javascript">
var viewWidth = 2326;
var viewHeight = 208;
var sectionId = 'dynsection-0';
</script>
<script xlink:href="svgpan.js"/>
<svg id="graph" class="graph">
<g id="viewport">
<title>D:/FMT/Include/FMTyieldhandler.hpp</title>
<!-- Node1 -->
<g id="node1" class="node">
<title>Node1</title>
<g id="a_node1"><a xlink:title=" ">
<polygon fill="#999999" stroke="#666666" points="1191.88,-200 1016.88,-200 1016.88,-180 1191.88,-180 1191.88,-200"/>
<text text-anchor="middle" x="1104.38" y="-186.5" font-family="Helvetica,sans-Serif" font-size="10.00">D:/FMT/Include/FMTyieldhandler.hpp</text>
</a>
</g>
</g>
<!-- Node2 -->
<g id="node2" class="node">
<title>Node2</title>
<g id="a_node2"><a xlink:title=" ">
<polygon fill="#e0e0e0" stroke="#999999" points="2056.38,-20 2016.38,-20 2016.38,0 2056.38,0 2056.38,-20"/>
<text text-anchor="middle" x="2036.38" y="-6.5" font-family="Helvetica,sans-Serif" font-size="10.00">string</text>
</a>
</g>
</g>
<!-- Node1&#45;&gt;Node2 -->
<g id="edge1" class="edge">
<title>Node1&#45;&gt;Node2</title>
<path fill="none" stroke="#63b8ff" d="M1192.13,-187.14C1395.57,-182.44 1887.47,-168.66 1958.38,-144 1999.03,-129.86 2017.61,-126.23 2037.38,-88 2046.47,-70.4 2044.7,-47.37 2041.6,-31.09"/>
<polygon fill="#63b8ff" stroke="#63b8ff" points="2045.08,-30.62 2039.45,-21.64 2038.25,-32.17 2045.08,-30.62"/>
</g>
<!-- Node3 -->
<g id="node3" class="node">
<title>Node3</title>
<g id="a_node3"><a xlink:title=" ">
<polygon fill="#e0e0e0" stroke="#999999" points="390.75,-82 356,-82 356,-62 390.75,-62 390.75,-82"/>
<text text-anchor="middle" x="373.38" y="-68.5" font-family="Helvetica,sans-Serif" font-size="10.00">map</text>
</a>
</g>
</g>
<!-- Node1&#45;&gt;Node3 -->
<g id="edge2" class="edge">
<title>Node1&#45;&gt;Node3</title>
<path fill="none" stroke="#63b8ff" d="M1016.69,-181.54C932.9,-173.91 803.17,-160.82 691.38,-144 561.13,-124.41 524.16,-132.99 400.38,-88 399.75,-87.77 399.11,-87.53 398.48,-87.27"/>
<polygon fill="#63b8ff" stroke="#63b8ff" points="400.29,-84.26 389.76,-83.1 397.27,-90.58 400.29,-84.26"/>
</g>
<!-- Node4 -->
<g id="node4" class="node">
<title>Node4</title>
<g id="a_node4"><a xlink:title=" ">
<polygon fill="#e0e0e0" stroke="#999999" points="2222.75,-144 2140,-144 2140,-124 2222.75,-124 2222.75,-144"/>
<text text-anchor="middle" x="2181.38" y="-130.5" font-family="Helvetica,sans-Serif" font-size="10.00">unordered_map</text>
</a>
</g>
</g>
<!-- Node1&#45;&gt;Node4 -->
<g id="edge3" class="edge">
<title>Node1&#45;&gt;Node4</title>
<path fill="none" stroke="#63b8ff" d="M1192.13,-188.62C1369.23,-187.1 1781.89,-179.64 2126.38,-144 2127.05,-143.93 2127.73,-143.86 2128.42,-143.78"/>
<polygon fill="#63b8ff" stroke="#63b8ff" points="2128.72,-147.27 2138.2,-142.54 2127.84,-140.33 2128.72,-147.27"/>
</g>
<!-- Node5 -->
<g id="node5" class="node">
<title>Node5</title>
<g id="a_node5"><a xlink:title=" ">
<polygon fill="#e0e0e0" stroke="#999999" points="2318.12,-144 2240.62,-144 2240.62,-124 2318.12,-124 2318.12,-144"/>
<text text-anchor="middle" x="2279.38" y="-130.5" font-family="Helvetica,sans-Serif" font-size="10.00">unordered_set</text>
</a>
</g>
</g>
<!-- Node1&#45;&gt;Node5 -->
<g id="edge4" class="edge">
<title>Node1&#45;&gt;Node5</title>
<path fill="none" stroke="#63b8ff" d="M1192.02,-189.83C1380.23,-190.66 1837.07,-187.66 2228.87,-144.1"/>
<polygon fill="#63b8ff" stroke="#63b8ff" points="2229.1,-147.6 2238.65,-143 2228.32,-140.64 2229.1,-147.6"/>
</g>
<!-- Node6 -->
<g id="node6" class="node">
<title>Node6</title>
<g id="a_node6"><a xlink:title=" ">
<polygon fill="#e0e0e0" stroke="#999999" points="577.25,-82 521.5,-82 521.5,-62 577.25,-62 577.25,-82"/>
<text text-anchor="middle" x="549.38" y="-68.5" font-family="Helvetica,sans-Serif" font-size="10.00">algorithm</text>
</a>
</g>
</g>
<!-- Node1&#45;&gt;Node6 -->
<g id="edge5" class="edge">
<title>Node1&#45;&gt;Node6</title>
<path fill="none" stroke="#63b8ff" d="M1016.54,-180.74C949.68,-173.56 855.62,-161.53 774.38,-144 689.15,-125.61 668.65,-116.86 586.38,-88 585.01,-87.52 583.63,-87.02 582.23,-86.51"/>
<polygon fill="#63b8ff" stroke="#63b8ff" points="583.55,-83.27 572.96,-82.93 581.03,-89.8 583.55,-83.27"/>
</g>
<!-- Node7 -->
<g id="node7" class="node">
<title>Node7</title>
<g id="a_node7"><a xlink:title=" ">
<polygon fill="#e0e0e0" stroke="#999999" points="1474.75,-88 1380,-88 1380,-56 1474.75,-56 1474.75,-88"/>
<text text-anchor="start" x="1388" y="-74.5" font-family="Helvetica,sans-Serif" font-size="10.00">boost/serialization</text>
<text text-anchor="middle" x="1427.38" y="-62.5" font-family="Helvetica,sans-Serif" font-size="10.00">/serialization.hpp</text>
</a>
</g>
</g>
<!-- Node1&#45;&gt;Node7 -->
<g id="edge6" class="edge">
<title>Node1&#45;&gt;Node7</title>
<path fill="none" stroke="#63b8ff" d="M1139,-179.54C1169.39,-171 1214.66,-157.71 1253.38,-144 1297.69,-128.31 1347.25,-107.78 1382.1,-92.84"/>
<polygon fill="#63b8ff" stroke="#63b8ff" points="1383.23,-96.17 1391.03,-89 1380.47,-89.74 1383.23,-96.17"/>
</g>
<!-- Node8 -->
<g id="node8" class="node">
<title>Node8</title>
<g id="a_node8"><a xlink:title=" ">
<polygon fill="#e0e0e0" stroke="#999999" points="689.75,-88 595,-88 595,-56 689.75,-56 689.75,-88"/>
<text text-anchor="start" x="603" y="-74.5" font-family="Helvetica,sans-Serif" font-size="10.00">boost/serialization</text>
<text text-anchor="middle" x="642.38" y="-62.5" font-family="Helvetica,sans-Serif" font-size="10.00">/nvp.hpp</text>
</a>
</g>
</g>
<!-- Node1&#45;&gt;Node8 -->
<g id="edge7" class="edge">
<title>Node1&#45;&gt;Node8</title>
<path fill="none" stroke="#63b8ff" d="M1025.3,-179.52C971.73,-172.17 899.64,-160.44 837.38,-144 785.47,-130.3 727.93,-108.5 688.9,-92.66"/>
<polygon fill="#63b8ff" stroke="#63b8ff" points="690.38,-89.49 679.8,-88.94 687.73,-95.97 690.38,-89.49"/>
</g>
<!-- Node9 -->
<g id="node9" class="node">
<title>Node9</title>
<g id="a_node9"><a xlink:href="FMTmask_8hpp.html" target="_top" xlink:title=" ">
<polygon fill="white" stroke="#666666" points="1244.5,-144 1166.25,-144 1166.25,-124 1244.5,-124 1244.5,-144"/>
<text text-anchor="middle" x="1205.38" y="-130.5" font-family="Helvetica,sans-Serif" font-size="10.00">FMTmask.hpp</text>
</a>
</g>
</g>
<!-- Node1&#45;&gt;Node9 -->
<g id="edge8" class="edge">
<title>Node1&#45;&gt;Node9</title>
<path fill="none" stroke="#63b8ff" d="M1121.97,-179.59C1137.3,-171.4 1159.79,-159.37 1177.56,-149.87"/>
<polygon fill="#63b8ff" stroke="#63b8ff" points="1179.14,-152.99 1186.31,-145.19 1175.84,-146.82 1179.14,-152.99"/>
</g>
<!-- Node22 -->
<g id="node22" class="node">
<title>Node22</title>
<g id="a_node22"><a xlink:href="FMTutility_8hpp.html" target="_top" xlink:title=" ">
<polygon fill="white" stroke="#666666" points="938.12,-20 860.62,-20 860.62,0 938.12,0 938.12,-20"/>
<text text-anchor="middle" x="899.38" y="-6.5" font-family="Helvetica,sans-Serif" font-size="10.00">FMTutility.hpp</text>
</a>
</g>
</g>
<!-- Node1&#45;&gt;Node22 -->
<g id="edge28" class="edge">
<title>Node1&#45;&gt;Node22</title>
<path fill="none" stroke="#63b8ff" d="M1192.16,-189.41C1442.41,-189.13 2134.09,-177.51 2017.38,-56 1979.94,-17.03 1162.72,-11.81 949.75,-11.11"/>
<polygon fill="#63b8ff" stroke="#63b8ff" points="949.86,-7.61 939.85,-11.08 949.83,-14.61 949.86,-7.61"/>
</g>
<!-- Node23 -->
<g id="node23" class="node">
<title>Node23</title>
<g id="a_node23"><a xlink:title=" ">
<polygon fill="#e0e0e0" stroke="#999999" points="959.12,-82 917.62,-82 917.62,-62 959.12,-62 959.12,-82"/>
<text text-anchor="middle" x="938.38" y="-68.5" font-family="Helvetica,sans-Serif" font-size="10.00">vector</text>
</a>
</g>
</g>
<!-- Node1&#45;&gt;Node23 -->
<g id="edge27" class="edge">
<title>Node1&#45;&gt;Node23</title>
<path fill="none" stroke="#63b8ff" d="M1090.79,-179.51C1062.32,-159.61 996.13,-113.36 961.08,-88.87"/>
<polygon fill="#63b8ff" stroke="#63b8ff" points="963.13,-86.03 952.92,-83.17 959.12,-91.76 963.13,-86.03"/>
</g>
<!-- Node24 -->
<g id="node24" class="node">
<title>Node24</title>
<g id="a_node24"><a xlink:href="FMTobject_8hpp.html" target="_top" xlink:title=" ">
<polygon fill="white" stroke="#666666" points="496.62,-144 416.12,-144 416.12,-124 496.62,-124 496.62,-144"/>
<text text-anchor="middle" x="456.38" y="-130.5" font-family="Helvetica,sans-Serif" font-size="10.00">FMTobject.hpp</text>
</a>
</g>
</g>
<!-- Node1&#45;&gt;Node24 -->
<g id="edge29" class="edge">
<title>Node1&#45;&gt;Node24</title>
<path fill="none" stroke="#63b8ff" d="M1016.55,-182.84C905.22,-174.84 707.41,-159.99 538.38,-144 528.53,-143.07 518.04,-141.99 507.96,-140.9"/>
<polygon fill="#63b8ff" stroke="#63b8ff" points="508.63,-137.45 498.31,-139.85 507.87,-144.41 508.63,-137.45"/>
</g>
<!-- Node28 -->
<g id="node28" class="node">
<title>Node28</title>
<g id="a_node28"><a xlink:href="FMTbounds_8hpp.html" target="_top" xlink:title=" ">
<polygon fill="white" stroke="#666666" points="932.25,-144 846.5,-144 846.5,-124 932.25,-124 932.25,-144"/>
<text text-anchor="middle" x="889.38" y="-130.5" font-family="Helvetica,sans-Serif" font-size="10.00">FMTbounds.hpp</text>
</a>
</g>
</g>
<!-- Node1&#45;&gt;Node28 -->
<g id="edge38" class="edge">
<title>Node1&#45;&gt;Node28</title>
<path fill="none" stroke="#63b8ff" d="M1066.92,-179.59C1031.23,-170.63 977.28,-157.08 938.22,-147.27"/>
<polygon fill="#63b8ff" stroke="#63b8ff" points="939.14,-143.89 928.59,-144.85 937.43,-150.68 939.14,-143.89"/>
</g>
<!-- Node9&#45;&gt;Node2 -->
<g id="edge26" class="edge">
<title>Node9&#45;&gt;Node2</title>
<path fill="none" stroke="#63b8ff" d="M1244.81,-132.11C1403.36,-128.36 1987.33,-112.9 2017.38,-88 2033.58,-74.57 2037.21,-49.71 2037.5,-31.87"/>
<polygon fill="#63b8ff" stroke="#63b8ff" points="2041,-31.82 2037.29,-21.9 2034,-31.97 2041,-31.82"/>
</g>
<!-- Node9&#45;&gt;Node7 -->
<g id="edge14" class="edge">
<title>Node9&#45;&gt;Node7</title>
<path fill="none" stroke="#63b8ff" d="M1240.06,-123.62C1274.47,-114.33 1327.83,-99.9 1368.81,-88.83"/>
<polygon fill="#63b8ff" stroke="#63b8ff" points="1369.55,-92.25 1378.29,-86.27 1367.72,-85.5 1369.55,-92.25"/>
</g>
<!-- Node9&#45;&gt;Node8 -->
<g id="edge16" class="edge">
<title>Node9&#45;&gt;Node8</title>
<path fill="none" stroke="#63b8ff" d="M1165.95,-131.82C1082.02,-128.82 879.42,-118.94 701.36,-88.35"/>
<polygon fill="#63b8ff" stroke="#63b8ff" points="702.16,-84.93 691.7,-86.66 700.95,-91.83 702.16,-84.93"/>
</g>
<!-- Node10 -->
<g id="node10" class="node">
<title>Node10</title>
<g id="a_node10"><a xlink:title=" ">
<polygon fill="#e0e0e0" stroke="#999999" points="1362.25,-82 1234.5,-82 1234.5,-62 1362.25,-62 1362.25,-82"/>
<text text-anchor="middle" x="1298.38" y="-68.5" font-family="Helvetica,sans-Serif" font-size="10.00">boost/dynamic_bitset.hpp</text>
</a>
</g>
</g>
<!-- Node9&#45;&gt;Node10 -->
<g id="edge9" class="edge">
<title>Node9&#45;&gt;Node10</title>
<path fill="none" stroke="#63b8ff" d="M1219.91,-123.62C1234.51,-114.2 1257.27,-99.52 1274.53,-88.39"/>
<polygon fill="#63b8ff" stroke="#63b8ff" points="1276.17,-91.49 1282.67,-83.13 1272.37,-85.61 1276.17,-91.49"/>
</g>
<!-- Node11 -->
<g id="node11" class="node">
<title>Node11</title>
<g id="a_node11"><a xlink:title=" ">
<polygon fill="#e0e0e0" stroke="#999999" points="1621.62,-82 1493.12,-82 1493.12,-62 1621.62,-62 1621.62,-82"/>
<text text-anchor="middle" x="1557.38" y="-68.5" font-family="Helvetica,sans-Serif" font-size="10.00">boost/unordered_map.hpp</text>
</a>
</g>
</g>
<!-- Node9&#45;&gt;Node11 -->
<g id="edge10" class="edge">
<title>Node9&#45;&gt;Node11</title>
<path fill="none" stroke="#63b8ff" d="M1244.59,-127.15C1298.5,-119 1398.48,-103.47 1483.38,-88 1489.03,-86.97 1494.93,-85.85 1500.81,-84.71"/>
<polygon fill="#63b8ff" stroke="#63b8ff" points="1501.42,-88.15 1510.55,-82.78 1500.06,-81.29 1501.42,-88.15"/>
</g>
<!-- Node12 -->
<g id="node12" class="node">
<title>Node12</title>
<g id="a_node12"><a xlink:title=" ">
<polygon fill="#e0e0e0" stroke="#999999" points="1768.62,-82 1640.12,-82 1640.12,-62 1768.62,-62 1768.62,-82"/>
<text text-anchor="middle" x="1704.38" y="-68.5" font-family="Helvetica,sans-Serif" font-size="10.00">boost/algorithm/string.hpp</text>
</a>
</g>
</g>
<!-- Node9&#45;&gt;Node12 -->
<g id="edge11" class="edge">
<title>Node9&#45;&gt;Node12</title>
<path fill="none" stroke="#63b8ff" d="M1244.79,-130.08C1320.03,-124.23 1489.21,-109.73 1630.38,-88 1636.77,-87.02 1643.44,-85.85 1650.05,-84.62"/>
<polygon fill="#63b8ff" stroke="#63b8ff" points="1650.42,-88.11 1659.58,-82.78 1649.1,-81.24 1650.42,-88.11"/>
</g>
<!-- Node13 -->
<g id="node13" class="node">
<title>Node13</title>
<g id="a_node13"><a xlink:title=" ">
<polygon fill="#e0e0e0" stroke="#999999" points="1896.25,-88 1786.5,-88 1786.5,-56 1896.25,-56 1896.25,-88"/>
<text text-anchor="start" x="1794.5" y="-74.5" font-family="Helvetica,sans-Serif" font-size="10.00">boost/algorithm/string</text>
<text text-anchor="middle" x="1841.38" y="-62.5" font-family="Helvetica,sans-Serif" font-size="10.00">/join.hpp</text>
</a>
</g>
</g>
<!-- Node9&#45;&gt;Node13 -->
<g id="edge12" class="edge">
<title>Node9&#45;&gt;Node13</title>
<path fill="none" stroke="#63b8ff" d="M1244.8,-131.96C1336.27,-129.1 1570.14,-119.26 1775.04,-88.2"/>
<polygon fill="#63b8ff" stroke="#63b8ff" points="1775.47,-91.67 1784.83,-86.69 1774.41,-84.76 1775.47,-91.67"/>
</g>
<!-- Node14 -->
<g id="node14" class="node">
<title>Node14</title>
<g id="a_node14"><a xlink:title=" ">
<polygon fill="#e0e0e0" stroke="#999999" points="1216.88,-82 1089.88,-82 1089.88,-62 1216.88,-62 1216.88,-82"/>
<text text-anchor="middle" x="1153.38" y="-68.5" font-family="Helvetica,sans-Serif" font-size="10.00">boost/functional/hash.hpp</text>
</a>
</g>
</g>
<!-- Node9&#45;&gt;Node14 -->
<g id="edge13" class="edge">
<title>Node9&#45;&gt;Node14</title>
<path fill="none" stroke="#63b8ff" d="M1197.25,-123.62C1189.65,-114.86 1178.1,-101.53 1168.76,-90.75"/>
<polygon fill="#63b8ff" stroke="#63b8ff" points="1171.46,-88.52 1162.26,-83.26 1166.17,-93.11 1171.46,-88.52"/>
</g>
<!-- Node15 -->
<g id="node15" class="node">
<title>Node15</title>
<g id="a_node15"><a xlink:title=" ">
<polygon fill="#e0e0e0" stroke="#999999" points="2008.75,-88 1914,-88 1914,-56 2008.75,-56 2008.75,-88"/>
<text text-anchor="start" x="1922" y="-74.5" font-family="Helvetica,sans-Serif" font-size="10.00">boost/serialization</text>
<text text-anchor="middle" x="1961.38" y="-62.5" font-family="Helvetica,sans-Serif" font-size="10.00">/split_free.hpp</text>
</a>
</g>
</g>
<!-- Node9&#45;&gt;Node15 -->
<g id="edge15" class="edge">
<title>Node9&#45;&gt;Node15</title>
<path fill="none" stroke="#63b8ff" d="M1244.77,-133.18C1350.17,-133.09 1647.45,-129.07 1902.22,-88.32"/>
<polygon fill="#63b8ff" stroke="#63b8ff" points="1902.75,-91.78 1912.06,-86.72 1901.62,-84.87 1902.75,-91.78"/>
</g>
<!-- Node16 -->
<g id="node16" class="node">
<title>Node16</title>
<g id="a_node16"><a xlink:title=" ">
<polygon fill="#e0e0e0" stroke="#999999" points="503.75,-88 409,-88 409,-56 503.75,-56 503.75,-88"/>
<text text-anchor="start" x="417" y="-74.5" font-family="Helvetica,sans-Serif" font-size="10.00">boost/serialization</text>
<text text-anchor="middle" x="456.38" y="-62.5" font-family="Helvetica,sans-Serif" font-size="10.00">/export.hpp</text>
</a>
</g>
</g>
<!-- Node9&#45;&gt;Node16 -->
<g id="edge17" class="edge">
<title>Node9&#45;&gt;Node16</title>
<path fill="none" stroke="#63b8ff" d="M1165.81,-131.46C1041.76,-126.46 660.5,-109.88 515.46,-88.24"/>
<polygon fill="#63b8ff" stroke="#63b8ff" points="516.12,-84.8 505.7,-86.71 515.03,-91.72 516.12,-84.8"/>
</g>
<!-- Node17 -->
<g id="node17" class="node">
<title>Node17</title>
<g id="a_node17"><a xlink:title=" ">
<polygon fill="#e0e0e0" stroke="#999999" points="1071.75,-88 977,-88 977,-56 1071.75,-56 1071.75,-88"/>
<text text-anchor="start" x="985" y="-74.5" font-family="Helvetica,sans-Serif" font-size="10.00">boost/serialization</text>
<text text-anchor="middle" x="1024.38" y="-62.5" font-family="Helvetica,sans-Serif" font-size="10.00">/string.hpp</text>
</a>
</g>
</g>
<!-- Node9&#45;&gt;Node17 -->
<g id="edge18" class="edge">
<title>Node9&#45;&gt;Node17</title>
<path fill="none" stroke="#63b8ff" d="M1177.09,-123.62C1151.64,-115.19 1113.44,-102.53 1081.62,-91.98"/>
<polygon fill="#63b8ff" stroke="#63b8ff" points="1083.13,-88.79 1072.54,-88.97 1080.93,-95.44 1083.13,-88.79"/>
</g>
<!-- Node18 -->
<g id="node18" class="node">
<title>Node18</title>
<g id="a_node18"><a xlink:href="FMTexception_8hpp.html" target="_top" xlink:title=" ">
<polygon fill="white" stroke="#666666" points="861.5,-82 765.25,-82 765.25,-62 861.5,-62 861.5,-82"/>
<text text-anchor="middle" x="813.38" y="-68.5" font-family="Helvetica,sans-Serif" font-size="10.00">FMTexception.hpp</text>
</a>
</g>
</g>
<!-- Node9&#45;&gt;Node18 -->
<g id="edge19" class="edge">
<title>Node9&#45;&gt;Node18</title>
<path fill="none" stroke="#63b8ff" d="M1165.97,-127.11C1109.08,-118.59 1000.63,-102.27 908.38,-88 896.87,-86.22 884.59,-84.3 872.8,-82.44"/>
<polygon fill="#63b8ff" stroke="#63b8ff" points="873.61,-79.03 863.19,-80.92 872.52,-85.94 873.61,-79.03"/>
</g>
<!-- Node9&#45;&gt;Node23 -->
<g id="edge25" class="edge">
<title>Node9&#45;&gt;Node23</title>
<path fill="none" stroke="#63b8ff" d="M1165.94,-128.89C1118.21,-123.15 1035.83,-110.78 968.38,-88 967.41,-87.67 966.44,-87.32 965.46,-86.95"/>
<polygon fill="#63b8ff" stroke="#63b8ff" points="967.11,-83.85 956.54,-83.02 964.28,-90.26 967.11,-83.85"/>
</g>
<!-- Node18&#45;&gt;Node2 -->
<g id="edge21" class="edge">
<title>Node18&#45;&gt;Node2</title>
<path fill="none" stroke="#63b8ff" d="M861.56,-62.27C876.52,-59.87 893.09,-57.51 908.38,-56 1341.03,-13.36 1870.83,-10.83 2004.57,-10.91"/>
<polygon fill="#63b8ff" stroke="#63b8ff" points="2004.4,-14.41 2014.41,-10.92 2004.41,-7.41 2004.4,-14.41"/>
</g>
<!-- Node19 -->
<g id="node19" class="node">
<title>Node19</title>
<g id="a_node19"><a xlink:title=" ">
<polygon fill="#e0e0e0" stroke="#999999" points="842.38,-20 784.38,-20 784.38,0 842.38,0 842.38,-20"/>
<text text-anchor="middle" x="813.38" y="-6.5" font-family="Helvetica,sans-Serif" font-size="10.00">exception</text>
</a>
</g>
</g>
<!-- Node18&#45;&gt;Node19 -->
<g id="edge20" class="edge">
<title>Node18&#45;&gt;Node19</title>
<path fill="none" stroke="#63b8ff" d="M813.38,-61.62C813.38,-53.56 813.38,-41.65 813.38,-31.41"/>
<polygon fill="#63b8ff" stroke="#63b8ff" points="816.88,-31.63 813.38,-21.63 809.88,-31.63 816.88,-31.63"/>
</g>
<!-- Node20 -->
<g id="node20" class="node">
<title>Node20</title>
<g id="a_node20"><a xlink:title=" ">
<polygon fill="#e0e0e0" stroke="#999999" points="766.12,-20 712.62,-20 712.62,0 766.12,0 766.12,-20"/>
<text text-anchor="middle" x="739.38" y="-6.5" font-family="Helvetica,sans-Serif" font-size="10.00">iostream</text>
</a>
</g>
</g>
<!-- Node18&#45;&gt;Node20 -->
<g id="edge22" class="edge">
<title>Node18&#45;&gt;Node20</title>
<path fill="none" stroke="#63b8ff" d="M801.81,-61.62C790.45,-52.41 772.89,-38.17 759.28,-27.14"/>
<polygon fill="#63b8ff" stroke="#63b8ff" points="761.76,-24.65 751.79,-21.07 757.35,-30.08 761.76,-24.65"/>
</g>
<!-- Node21 -->
<g id="node21" class="node">
<title>Node21</title>
<g id="a_node21"><a xlink:title=" ">
<polygon fill="#e0e0e0" stroke="#999999" points="525,-20 473.75,-20 473.75,0 525,0 525,-20"/>
<text text-anchor="middle" x="499.38" y="-6.5" font-family="Helvetica,sans-Serif" font-size="10.00">memory</text>
</a>
</g>
</g>
<!-- Node18&#45;&gt;Node21 -->
<g id="edge23" class="edge">
<title>Node18&#45;&gt;Node21</title>
<path fill="none" stroke="#63b8ff" d="M779.43,-61.57C771.87,-59.61 763.87,-57.64 756.38,-56 678.74,-39.02 586.82,-24.18 536.65,-16.52"/>
<polygon fill="#63b8ff" stroke="#63b8ff" points="537.32,-13.08 526.91,-15.05 536.28,-20 537.32,-13.08"/>
</g>
<!-- Node18&#45;&gt;Node22 -->
<g id="edge24" class="edge">
<title>Node18&#45;&gt;Node22</title>
<path fill="none" stroke="#63b8ff" d="M826.81,-61.62C840.19,-52.29 860.97,-37.79 876.87,-26.7"/>
<polygon fill="#63b8ff" stroke="#63b8ff" points="878.59,-29.77 884.79,-21.18 874.59,-24.03 878.59,-29.77"/>
</g>
<!-- Node24&#45;&gt;Node8 -->
<g id="edge31" class="edge">
<title>Node24&#45;&gt;Node8</title>
<path fill="none" stroke="#63b8ff" d="M485.44,-123.62C511.69,-115.16 551.12,-102.44 583.89,-91.87"/>
<polygon fill="#63b8ff" stroke="#63b8ff" points="584.83,-95.24 593.28,-88.84 582.68,-88.58 584.83,-95.24"/>
</g>
<!-- Node24&#45;&gt;Node16 -->
<g id="edge32" class="edge">
<title>Node24&#45;&gt;Node16</title>
<path fill="none" stroke="#63b8ff" d="M456.38,-123.62C456.38,-117.1 456.38,-108.05 456.38,-99.4"/>
<polygon fill="#63b8ff" stroke="#63b8ff" points="459.88,-99.65 456.38,-89.65 452.88,-99.65 459.88,-99.65"/>
</g>
<!-- Node24&#45;&gt;Node18 -->
<g id="edge33" class="edge">
<title>Node24&#45;&gt;Node18</title>
<path fill="none" stroke="#63b8ff" d="M496.9,-128.34C554.77,-121.36 664.3,-106.96 756.38,-88 760.42,-87.17 764.61,-86.22 768.79,-85.22"/>
<polygon fill="#63b8ff" stroke="#63b8ff" points="769.43,-88.67 778.29,-82.86 767.74,-81.88 769.43,-88.67"/>
</g>
<!-- Node24&#45;&gt;Node21 -->
<g id="edge34" class="edge">
<title>Node24&#45;&gt;Node21</title>
<path fill="none" stroke="#63b8ff" d="M415.83,-127.55C391.56,-121.98 362.57,-110.72 347.38,-88 339.47,-76.18 338.86,-67.39 347.38,-56 373.64,-20.84 426.16,-12.02 462.04,-10.37"/>
<polygon fill="#63b8ff" stroke="#63b8ff" points="462.09,-13.87 472,-10.1 461.9,-6.87 462.09,-13.87"/>
</g>
<!-- Node24&#45;&gt;Node23 -->
<g id="edge36" class="edge">
<title>Node24&#45;&gt;Node23</title>
<path fill="none" stroke="#63b8ff" d="M497.12,-130.05C571.58,-124.33 734.47,-110.31 870.38,-88 882.15,-86.07 894.96,-83.39 906.25,-80.84"/>
<polygon fill="#63b8ff" stroke="#63b8ff" points="906.93,-84.27 915.88,-78.6 905.35,-77.46 906.93,-84.27"/>
</g>
<!-- Node25 -->
<g id="node25" class="node">
<title>Node25</title>
<g id="a_node25"><a xlink:title=" ">
<polygon fill="#e0e0e0" stroke="#999999" points="94.75,-88 0,-88 0,-56 94.75,-56 94.75,-88"/>
<text text-anchor="start" x="8" y="-74.5" font-family="Helvetica,sans-Serif" font-size="10.00">boost/serialization</text>
<text text-anchor="middle" x="47.38" y="-62.5" font-family="Helvetica,sans-Serif" font-size="10.00">/shared_ptr.hpp</text>
</a>
</g>
</g>
<!-- Node24&#45;&gt;Node25 -->
<g id="edge30" class="edge">
<title>Node24&#45;&gt;Node25</title>
<path fill="none" stroke="#63b8ff" d="M415.86,-129.63C351.92,-123.92 223.59,-110.88 106.2,-88.41"/>
<polygon fill="#63b8ff" stroke="#63b8ff" points="107.21,-85.04 96.72,-86.56 105.87,-91.91 107.21,-85.04"/>
</g>
<!-- Node26 -->
<g id="node26" class="node">
<title>Node26</title>
<g id="a_node26"><a xlink:title=" ">
<polygon fill="#e0e0e0" stroke="#999999" points="158,-82 112.75,-82 112.75,-62 158,-62 158,-82"/>
<text text-anchor="middle" x="135.38" y="-68.5" font-family="Helvetica,sans-Serif" font-size="10.00">chrono</text>
</a>
</g>
</g>
<!-- Node24&#45;&gt;Node26 -->
<g id="edge35" class="edge">
<title>Node24&#45;&gt;Node26</title>
<path fill="none" stroke="#63b8ff" d="M415.83,-130.33C359.18,-125.78 253.58,-114.33 167.38,-88 166.2,-87.64 165.02,-87.25 163.83,-86.83"/>
<polygon fill="#63b8ff" stroke="#63b8ff" points="165.28,-83.64 154.7,-83.06 162.61,-90.11 165.28,-83.64"/>
</g>
<!-- Node27 -->
<g id="node27" class="node">
<title>Node27</title>
<g id="a_node27"><a xlink:title=" ">
<polygon fill="#e0e0e0" stroke="#999999" points="300.75,-88 176,-88 176,-56 300.75,-56 300.75,-88"/>
<text text-anchor="start" x="184" y="-74.5" font-family="Helvetica,sans-Serif" font-size="10.00">boost/dll/runtime_symbol</text>
<text text-anchor="middle" x="238.38" y="-62.5" font-family="Helvetica,sans-Serif" font-size="10.00">_info.hpp</text>
</a>
</g>
</g>
<!-- Node24&#45;&gt;Node27 -->
<g id="edge37" class="edge">
<title>Node24&#45;&gt;Node27</title>
<path fill="none" stroke="#63b8ff" d="M422.31,-123.62C391.12,-115.04 344.05,-102.08 305.33,-91.43"/>
<polygon fill="#63b8ff" stroke="#63b8ff" points="306.69,-88.17 296.12,-88.89 304.83,-94.92 306.69,-88.17"/>
</g>
<!-- Node28&#45;&gt;Node3 -->
<g id="edge40" class="edge">
<title>Node28&#45;&gt;Node3</title>
<path fill="none" stroke="#63b8ff" d="M846.19,-131.31C742.73,-126.9 483.16,-113.56 400.38,-88 399.57,-87.75 398.76,-87.48 397.95,-87.18"/>
<polygon fill="#63b8ff" stroke="#63b8ff" points="399.65,-84.11 389.1,-83.06 396.69,-90.45 399.65,-84.11"/>
</g>
<!-- Node28&#45;&gt;Node6 -->
<g id="edge48" class="edge">
<title>Node28&#45;&gt;Node6</title>
<path fill="none" stroke="#63b8ff" d="M846.06,-129.82C786.65,-124.73 676.93,-112.7 586.38,-88 584.54,-87.5 582.67,-86.93 580.79,-86.32"/>
<polygon fill="#63b8ff" stroke="#63b8ff" points="582.22,-83.12 571.63,-82.97 579.82,-89.69 582.22,-83.12"/>
</g>
<!-- Node28&#45;&gt;Node7 -->
<g id="edge45" class="edge">
<title>Node28&#45;&gt;Node7</title>
<path fill="none" stroke="#63b8ff" d="M932.58,-131.41C1015.52,-127.83 1202.82,-117.21 1368.64,-88.31"/>
<polygon fill="#63b8ff" stroke="#63b8ff" points="1368.81,-91.84 1378.04,-86.65 1367.59,-84.95 1368.81,-91.84"/>
</g>
<!-- Node28&#45;&gt;Node8 -->
<g id="edge46" class="edge">
<title>Node28&#45;&gt;Node8</title>
<path fill="none" stroke="#63b8ff" d="M847.56,-123.53C811.22,-115.22 756.91,-102.59 701.17,-88.67"/>
<polygon fill="#63b8ff" stroke="#63b8ff" points="702.03,-85.27 691.48,-86.23 700.32,-92.06 702.03,-85.27"/>
</g>
<!-- Node28&#45;&gt;Node14 -->
<g id="edge44" class="edge">
<title>Node28&#45;&gt;Node14</title>
<path fill="none" stroke="#63b8ff" d="M930.92,-123.56C976.72,-113.15 1050.52,-96.38 1100.44,-85.03"/>
<polygon fill="#63b8ff" stroke="#63b8ff" points="1101.19,-88.45 1110.17,-82.82 1099.64,-81.62 1101.19,-88.45"/>
</g>
<!-- Node28&#45;&gt;Node17 -->
<g id="edge47" class="edge">
<title>Node28&#45;&gt;Node17</title>
<path fill="none" stroke="#63b8ff" d="M910.47,-123.62C928.8,-115.48 955.97,-103.4 979.18,-93.09"/>
<polygon fill="#63b8ff" stroke="#63b8ff" points="980.42,-96.36 988.14,-89.11 977.58,-89.97 980.42,-96.36"/>
</g>
<!-- Node28&#45;&gt;Node18 -->
<g id="edge41" class="edge">
<title>Node28&#45;&gt;Node18</title>
<path fill="none" stroke="#63b8ff" d="M877.5,-123.62C865.83,-114.41 847.79,-100.17 833.82,-89.14"/>
<polygon fill="#63b8ff" stroke="#63b8ff" points="836.12,-86.5 826.11,-83.05 831.79,-91.99 836.12,-86.5"/>
</g>
<!-- Node28&#45;&gt;Node22 -->
<g id="edge42" class="edge">
<title>Node28&#45;&gt;Node22</title>
<path fill="none" stroke="#63b8ff" d="M890.13,-123.83C891.73,-104.31 895.5,-58.25 897.7,-31.4"/>
<polygon fill="#63b8ff" stroke="#63b8ff" points="901.16,-32.04 898.49,-21.78 894.19,-31.47 901.16,-32.04"/>
</g>
<!-- Node28&#45;&gt;Node23 -->
<g id="edge43" class="edge">
<title>Node28&#45;&gt;Node23</title>
<path fill="none" stroke="#63b8ff" d="M897.03,-123.62C904.19,-114.86 915.08,-101.53 923.88,-90.75"/>
<polygon fill="#63b8ff" stroke="#63b8ff" points="926.36,-93.24 929.98,-83.28 920.94,-88.82 926.36,-93.24"/>
</g>
<!-- Node29 -->
<g id="node29" class="node">
<title>Node29</title>
<g id="a_node29"><a xlink:title=" ">
<polygon fill="#e0e0e0" stroke="#999999" points="747,-82 707.75,-82 707.75,-62 747,-62 747,-82"/>
<text text-anchor="middle" x="727.38" y="-68.5" font-family="Helvetica,sans-Serif" font-size="10.00">limits</text>
</a>
</g>
</g>
<!-- Node28&#45;&gt;Node29 -->
<g id="edge39" class="edge">
<title>Node28&#45;&gt;Node29</title>
<path fill="none" stroke="#63b8ff" d="M856.89,-123.52C829.64,-115.2 789.92,-102.25 756.38,-88 755.89,-87.79 755.41,-87.59 754.92,-87.37"/>
<polygon fill="#63b8ff" stroke="#63b8ff" points="756.55,-84.27 746.02,-83.13 753.54,-90.59 756.55,-84.27"/>
</g>
</g>
</svg>
        <g id="navigator" transform="translate(0 0)" fill="#404254">
                <rect fill="#f2f5e9" fill-opacity="0.5" stroke="#606060" stroke-width=".5" x="0" y="0" width="60" height="60"/>
                <use id="zoomplus" xlink:href="#zoomPlus" x="17" y="9" onmousedown="handleZoom(evt,'in')"/>
                <use id="zoomminus" xlink:href="#zoomMin" x="42" y="9" onmousedown="handleZoom(evt,'out')"/>
                <use id="reset" xlink:href="#resetDef" x="30" y="36" onmousedown="handleReset()"/>
                <g id="arrowUp" xlink:href="#dirArrow" transform="translate(30 24)" onmousedown="handlePan(0,-1)">
                  <use xlink:href="#rim" fill="#404040">
                        <set attributeName="fill" to="#808080" begin="arrowUp.mouseover" end="arrowUp.mouseout"/>
                  </use>
                  <path fill="none" stroke="white" stroke-width="1.5" d="M0,-3.0v7 M-2.5,-0.5L0,-3.0L2.5,-0.5"/>
                </g>
                <g id="arrowRight" xlink:href="#dirArrow" transform="rotate(90) translate(36 -43)" onmousedown="handlePan(1,0)">
                  <use xlink:href="#rim" fill="#404040">
                        <set attributeName="fill" to="#808080" begin="arrowRight.mouseover" end="arrowRight.mouseout"/>
                  </use>
                  <path fill="none" stroke="white" stroke-width="1.5" d="M0,-3.0v7 M-2.5,-0.5L0,-3.0L2.5,-0.5"/>
                </g>
                <g id="arrowDown" xlink:href="#dirArrow" transform="rotate(180) translate(-30 -48)" onmousedown="handlePan(0,1)">
                  <use xlink:href="#rim" fill="#404040">
                        <set attributeName="fill" to="#808080" begin="arrowDown.mouseover" end="arrowDown.mouseout"/>
                  </use>
                  <path fill="none" stroke="white" stroke-width="1.5" d="M0,-3.0v7 M-2.5,-0.5L0,-3.0L2.5,-0.5"/>
                </g>
                <g id="arrowLeft" xlink:href="#dirArrow" transform="rotate(270) translate(-36 17)" onmousedown="handlePan(-1,0)">
                  <use xlink:href="#rim" fill="#404040">
                        <set attributeName="fill" to="#808080" begin="arrowLeft.mouseover" end="arrowLeft.mouseout"/>
                  </use>
                  <path fill="none" stroke="white" stroke-width="1.5" d="M0,-3.0v7 M-2.5,-0.5L0,-3.0L2.5,-0.5"/>
                </g>
        </g>
        <svg viewBox="0 0 15 15" width="100%" height="30px" preserveAspectRatio="xMaxYMin meet">
         <g id="arrow_out" transform="scale(0.3 0.3)">
          <a xlink:href="FMTyieldhandler_8hpp__incl_org.svg" target="_base">
           <rect id="button" ry="5" rx="5" y="6" x="6" height="38" width="38"
                fill="#f2f5e9" fill-opacity="0.5" stroke="#606060" stroke-width="1.0"/>
           <path id="arrow"
             d="M 11.500037,31.436501 C 11.940474,20.09759 22.043105,11.32322 32.158766,21.979434 L 37.068811,17.246167 C 37.068811,17.246167 37.088388,32 37.088388,32 L 22.160133,31.978069 C 22.160133,31.978069 26.997745,27.140456 26.997745,27.140456 C 18.528582,18.264221 13.291696,25.230495 11.500037,31.436501 z"
             style="fill:#404040;"/>
          </a>
         </g>
        </svg>
</svg>
