<?xml version="1.0" encoding="UTF-8" standalone="no"?>
<!DOCTYPE svg PUBLIC "-//W3C//DTD SVG 1.1//EN"
 "http://www.w3.org/Graphics/SVG/1.1/DTD/svg11.dtd">
<!-- Generated by graphviz version 10.0.1 (20240210.2158)
 -->
<!-- Title: D:/FMT/Include/FMTyieldrequest.hpp Pages: 1 -->
<!--zoomable 208 -->
<svg id="main" version="1.1" xmlns="http://www.w3.org/2000/svg" xmlns:xlink="http://www.w3.org/1999/xlink" xml:space="preserve" onload="init(evt)">
<style type="text/css"><![CDATA[
.edge:hover path { stroke: red; }
.edge:hover polygon { stroke: red; fill: red; }
]]></style>
<script type="text/javascript"><![CDATA[
var edges = document.getElementsByTagName('g');
if (edges && edges.length) {
  for (var i=0;i<edges.length;i++) {
    if (edges[i].id.substr(0,4)=='edge') {
      edges[i].setAttribute('class','edge');
    }
  }
}
]]></script>
        <defs>
                <circle id="rim" cx="0" cy="0" r="7"/>
                <circle id="rim2" cx="0" cy="0" r="3.5"/>
                <g id="zoomPlus">
                        <use xlink:href="#rim" fill="#404040">
                                <set attributeName="fill" to="#808080" begin="zoomplus.mouseover" end="zoomplus.mouseout"/>
                        </use>
                        <path d="M-4,0h8M0,-4v8" fill="none" stroke="white" stroke-width="1.5" pointer-events="none"/>
                </g>
                <g id="zoomMin">
                        <use xlink:href="#rim" fill="#404040">
                                <set attributeName="fill" to="#808080" begin="zoomminus.mouseover" end="zoomminus.mouseout"/>
                        </use>
                        <path d="M-4,0h8" fill="none" stroke="white" stroke-width="1.5" pointer-events="none"/>
                </g>
                <g id="dirArrow">
                        <path fill="none" stroke="white" stroke-width="1.5" d="M0,-3.0v7 M-2.5,-0.5L0,-3.0L2.5,-0.5"/>
                </g>
               <g id="resetDef">
                       <use xlink:href="#rim2" fill="#404040">
                               <set attributeName="fill" to="#808080" begin="reset.mouseover" end="reset.mouseout"/>
                       </use>
               </g>
        </defs>

<script type="text/javascript">
var viewWidth = 1835;
var viewHeight = 208;
var sectionId = 'dynsection-0';
</script>
<script xlink:href="svgpan.js"/>
<svg id="graph" class="graph">
<g id="viewport">
<title>D:/FMT/Include/FMTyieldrequest.hpp</title>
<!-- Node1 -->
<g id="node1" class="node">
<title>Node1</title>
<g id="a_node1"><a xlink:title=" ">
<polygon fill="#999999" stroke="#666666" points="748.25,-200 572.5,-200 572.5,-180 748.25,-180 748.25,-200"/>
<text text-anchor="middle" x="660.38" y="-186.5" font-family="Helvetica,sans-Serif" font-size="10.00">D:/FMT/Include/FMTyieldrequest.hpp</text>
</a>
</g>
</g>
<!-- Node2 -->
<g id="node2" class="node">
<title>Node2</title>
<g id="a_node2"><a xlink:href="FMTobject_8hpp.html" target="_top" xlink:title=" ">
<polygon fill="white" stroke="#666666" points="444.62,-144 364.12,-144 364.12,-124 444.62,-124 444.62,-144"/>
<text text-anchor="middle" x="404.38" y="-130.5" font-family="Helvetica,sans-Serif" font-size="10.00">FMTobject.hpp</text>
</a>
</g>
</g>
<!-- Node1&#45;&gt;Node2 -->
<g id="edge1" class="edge">
<title>Node1&#45;&gt;Node2</title>
<path fill="none" stroke="#63b8ff" d="M615.49,-179.53C570.98,-170.14 502.84,-155.77 456.09,-145.91"/>
<polygon fill="#63b8ff" stroke="#63b8ff" points="456.97,-142.52 446.46,-143.88 455.53,-149.37 456.97,-142.52"/>
</g>
<!-- Node15 -->
<g id="node15" class="node">
<title>Node15</title>
<g id="a_node15"><a xlink:href="FMTmask_8hpp.html" target="_top" xlink:title=" ">
<polygon fill="white" stroke="#666666" points="1012.5,-144 934.25,-144 934.25,-124 1012.5,-124 1012.5,-144"/>
<text text-anchor="middle" x="973.38" y="-130.5" font-family="Helvetica,sans-Serif" font-size="10.00">FMTmask.hpp</text>
</a>
</g>
</g>
<!-- Node1&#45;&gt;Node15 -->
<g id="edge15" class="edge">
<title>Node1&#45;&gt;Node15</title>
<path fill="none" stroke="#63b8ff" d="M715.25,-179.53C773.81,-169.43 865.81,-153.56 922.7,-143.74"/>
<polygon fill="#63b8ff" stroke="#63b8ff" points="923.19,-147.21 932.45,-142.06 922,-140.31 923.19,-147.21"/>
</g>
<!-- Node3 -->
<g id="node3" class="node">
<title>Node3</title>
<g id="a_node3"><a xlink:title=" ">
<polygon fill="#e0e0e0" stroke="#999999" points="237.75,-88 143,-88 143,-56 237.75,-56 237.75,-88"/>
<text text-anchor="start" x="151" y="-74.5" font-family="Helvetica,sans-Serif" font-size="10.00">boost/serialization</text>
<text text-anchor="middle" x="190.38" y="-62.5" font-family="Helvetica,sans-Serif" font-size="10.00">/shared_ptr.hpp</text>
</a>
</g>
</g>
<!-- Node2&#45;&gt;Node3 -->
<g id="edge2" class="edge">
<title>Node2&#45;&gt;Node3</title>
<path fill="none" stroke="#63b8ff" d="M370.94,-123.62C338.34,-114.49 288.09,-100.4 248.87,-89.4"/>
<polygon fill="#63b8ff" stroke="#63b8ff" points="249.9,-86.05 239.33,-86.72 248.01,-92.79 249.9,-86.05"/>
</g>
<!-- Node4 -->
<g id="node4" class="node">
<title>Node4</title>
<g id="a_node4"><a xlink:title=" ">
<polygon fill="#e0e0e0" stroke="#999999" points="564.75,-88 470,-88 470,-56 564.75,-56 564.75,-88"/>
<text text-anchor="start" x="478" y="-74.5" font-family="Helvetica,sans-Serif" font-size="10.00">boost/serialization</text>
<text text-anchor="middle" x="517.38" y="-62.5" font-family="Helvetica,sans-Serif" font-size="10.00">/nvp.hpp</text>
</a>
</g>
</g>
<!-- Node2&#45;&gt;Node4 -->
<g id="edge3" class="edge">
<title>Node2&#45;&gt;Node4</title>
<path fill="none" stroke="#63b8ff" d="M422.03,-123.62C437.08,-115.63 459.25,-103.86 478.43,-93.68"/>
<polygon fill="#63b8ff" stroke="#63b8ff" points="479.89,-96.86 487.08,-89.08 476.61,-90.68 479.89,-96.86"/>
</g>
<!-- Node5 -->
<g id="node5" class="node">
<title>Node5</title>
<g id="a_node5"><a xlink:title=" ">
<polygon fill="#e0e0e0" stroke="#999999" points="451.75,-88 357,-88 357,-56 451.75,-56 451.75,-88"/>
<text text-anchor="start" x="365" y="-74.5" font-family="Helvetica,sans-Serif" font-size="10.00">boost/serialization</text>
<text text-anchor="middle" x="404.38" y="-62.5" font-family="Helvetica,sans-Serif" font-size="10.00">/export.hpp</text>
</a>
</g>
</g>
<!-- Node2&#45;&gt;Node5 -->
<g id="edge4" class="edge">
<title>Node2&#45;&gt;Node5</title>
<path fill="none" stroke="#63b8ff" d="M404.38,-123.62C404.38,-117.1 404.38,-108.05 404.38,-99.4"/>
<polygon fill="#63b8ff" stroke="#63b8ff" points="407.88,-99.65 404.38,-89.65 400.88,-99.65 407.88,-99.65"/>
</g>
<!-- Node6 -->
<g id="node6" class="node">
<title>Node6</title>
<g id="a_node6"><a xlink:href="FMTexception_8hpp.html" target="_top" xlink:title=" ">
<polygon fill="white" stroke="#666666" points="679.5,-82 583.25,-82 583.25,-62 679.5,-62 679.5,-82"/>
<text text-anchor="middle" x="631.38" y="-68.5" font-family="Helvetica,sans-Serif" font-size="10.00">FMTexception.hpp</text>
</a>
</g>
</g>
<!-- Node2&#45;&gt;Node6 -->
<g id="edge5" class="edge">
<title>Node2&#45;&gt;Node6</title>
<path fill="none" stroke="#63b8ff" d="M440.09,-123.56C479.06,-113.26 541.6,-96.73 584.49,-85.39"/>
<polygon fill="#63b8ff" stroke="#63b8ff" points="585.25,-88.81 594.03,-82.87 583.46,-82.04 585.25,-88.81"/>
</g>
<!-- Node10 -->
<g id="node10" class="node">
<title>Node10</title>
<g id="a_node10"><a xlink:title=" ">
<polygon fill="#e0e0e0" stroke="#999999" points="390,-20 338.75,-20 338.75,0 390,0 390,-20"/>
<text text-anchor="middle" x="364.38" y="-6.5" font-family="Helvetica,sans-Serif" font-size="10.00">memory</text>
</a>
</g>
</g>
<!-- Node2&#45;&gt;Node10 -->
<g id="edge11" class="edge">
<title>Node2&#45;&gt;Node10</title>
<path fill="none" stroke="#63b8ff" d="M363.72,-129.43C336.34,-124.66 302.12,-113.6 284.38,-88 276.27,-76.31 277.19,-68.28 284.38,-56 293.88,-39.75 311.64,-28.92 328.02,-21.96"/>
<polygon fill="#63b8ff" stroke="#63b8ff" points="329,-25.33 337.08,-18.47 326.49,-18.8 329,-25.33"/>
</g>
<!-- Node12 -->
<g id="node12" class="node">
<title>Node12</title>
<g id="a_node12"><a xlink:title=" ">
<polygon fill="#e0e0e0" stroke="#999999" points="339,-82 293.75,-82 293.75,-62 339,-62 339,-82"/>
<text text-anchor="middle" x="316.38" y="-68.5" font-family="Helvetica,sans-Serif" font-size="10.00">chrono</text>
</a>
</g>
</g>
<!-- Node2&#45;&gt;Node12 -->
<g id="edge12" class="edge">
<title>Node2&#45;&gt;Node12</title>
<path fill="none" stroke="#63b8ff" d="M390.62,-123.62C376.93,-114.29 355.67,-99.79 339.4,-88.7"/>
<polygon fill="#63b8ff" stroke="#63b8ff" points="341.51,-85.9 331.28,-83.16 337.57,-91.69 341.51,-85.9"/>
</g>
<!-- Node13 -->
<g id="node13" class="node">
<title>Node13</title>
<g id="a_node13"><a xlink:title=" ">
<polygon fill="#e0e0e0" stroke="#999999" points="739.12,-82 697.62,-82 697.62,-62 739.12,-62 739.12,-82"/>
<text text-anchor="middle" x="718.38" y="-68.5" font-family="Helvetica,sans-Serif" font-size="10.00">vector</text>
</a>
</g>
</g>
<!-- Node2&#45;&gt;Node13 -->
<g id="edge13" class="edge">
<title>Node2&#45;&gt;Node13</title>
<path fill="none" stroke="#63b8ff" d="M444.78,-130.5C500.68,-126.17 604.24,-114.99 688.38,-88 689.51,-87.64 690.66,-87.23 691.81,-86.8"/>
<polygon fill="#63b8ff" stroke="#63b8ff" points="692.81,-90.18 700.55,-82.96 689.99,-83.78 692.81,-90.18"/>
</g>
<!-- Node14 -->
<g id="node14" class="node">
<title>Node14</title>
<g id="a_node14"><a xlink:title=" ">
<polygon fill="#e0e0e0" stroke="#999999" points="124.75,-88 0,-88 0,-56 124.75,-56 124.75,-88"/>
<text text-anchor="start" x="8" y="-74.5" font-family="Helvetica,sans-Serif" font-size="10.00">boost/dll/runtime_symbol</text>
<text text-anchor="middle" x="62.38" y="-62.5" font-family="Helvetica,sans-Serif" font-size="10.00">_info.hpp</text>
</a>
</g>
</g>
<!-- Node2&#45;&gt;Node14 -->
<g id="edge14" class="edge">
<title>Node2&#45;&gt;Node14</title>
<path fill="none" stroke="#63b8ff" d="M364.03,-126.8C313.34,-118.89 223.41,-104.48 136.33,-88.32"/>
<polygon fill="#63b8ff" stroke="#63b8ff" points="137.13,-84.91 126.66,-86.52 135.85,-91.79 137.13,-84.91"/>
</g>
<!-- Node7 -->
<g id="node7" class="node">
<title>Node7</title>
<g id="a_node7"><a xlink:title=" ">
<polygon fill="#e0e0e0" stroke="#999999" points="660.38,-20 602.38,-20 602.38,0 660.38,0 660.38,-20"/>
<text text-anchor="middle" x="631.38" y="-6.5" font-family="Helvetica,sans-Serif" font-size="10.00">exception</text>
</a>
</g>
</g>
<!-- Node6&#45;&gt;Node7 -->
<g id="edge6" class="edge">
<title>Node6&#45;&gt;Node7</title>
<path fill="none" stroke="#63b8ff" d="M631.38,-61.62C631.38,-53.56 631.38,-41.65 631.38,-31.41"/>
<polygon fill="#63b8ff" stroke="#63b8ff" points="634.88,-31.63 631.38,-21.63 627.88,-31.63 634.88,-31.63"/>
</g>
<!-- Node8 -->
<g id="node8" class="node">
<title>Node8</title>
<g id="a_node8"><a xlink:title=" ">
<polygon fill="#e0e0e0" stroke="#999999" points="957.38,-20 917.38,-20 917.38,0 957.38,0 957.38,-20"/>
<text text-anchor="middle" x="937.38" y="-6.5" font-family="Helvetica,sans-Serif" font-size="10.00">string</text>
</a>
</g>
</g>
<!-- Node6&#45;&gt;Node8 -->
<g id="edge7" class="edge">
<title>Node6&#45;&gt;Node8</title>
<path fill="none" stroke="#63b8ff" d="M665.63,-61.52C673.1,-59.58 680.98,-57.64 688.38,-56 765.9,-38.82 858.09,-23.47 905.59,-15.92"/>
<polygon fill="#63b8ff" stroke="#63b8ff" points="906.1,-19.39 915.44,-14.37 905.01,-12.47 906.1,-19.39"/>
</g>
<!-- Node9 -->
<g id="node9" class="node">
<title>Node9</title>
<g id="a_node9"><a xlink:title=" ">
<polygon fill="#e0e0e0" stroke="#999999" points="732.12,-20 678.62,-20 678.62,0 732.12,0 732.12,-20"/>
<text text-anchor="middle" x="705.38" y="-6.5" font-family="Helvetica,sans-Serif" font-size="10.00">iostream</text>
</a>
</g>
</g>
<!-- Node6&#45;&gt;Node9 -->
<g id="edge8" class="edge">
<title>Node6&#45;&gt;Node9</title>
<path fill="none" stroke="#63b8ff" d="M642.94,-61.62C654.3,-52.41 671.86,-38.17 685.47,-27.14"/>
<polygon fill="#63b8ff" stroke="#63b8ff" points="687.4,-30.08 692.96,-21.07 682.99,-24.65 687.4,-30.08"/>
</g>
<!-- Node6&#45;&gt;Node10 -->
<g id="edge9" class="edge">
<title>Node6&#45;&gt;Node10</title>
<path fill="none" stroke="#63b8ff" d="M595.85,-61.57C588.44,-59.67 580.66,-57.73 573.38,-56 513.29,-41.77 443.04,-27.03 401.21,-18.45"/>
<polygon fill="#63b8ff" stroke="#63b8ff" points="402.17,-15.08 391.67,-16.51 400.77,-21.94 402.17,-15.08"/>
</g>
<!-- Node11 -->
<g id="node11" class="node">
<title>Node11</title>
<g id="a_node11"><a xlink:href="FMTutility_8hpp.html" target="_top" xlink:title=" ">
<polygon fill="white" stroke="#666666" points="584.12,-20 506.62,-20 506.62,0 584.12,0 584.12,-20"/>
<text text-anchor="middle" x="545.38" y="-6.5" font-family="Helvetica,sans-Serif" font-size="10.00">FMTutility.hpp</text>
</a>
</g>
</g>
<!-- Node6&#45;&gt;Node11 -->
<g id="edge10" class="edge">
<title>Node6&#45;&gt;Node11</title>
<path fill="none" stroke="#63b8ff" d="M617.94,-61.62C604.56,-52.29 583.78,-37.79 567.88,-26.7"/>
<polygon fill="#63b8ff" stroke="#63b8ff" points="570.16,-24.03 559.96,-21.18 566.16,-29.77 570.16,-24.03"/>
</g>
<!-- Node15&#45;&gt;Node4 -->
<g id="edge23" class="edge">
<title>Node15&#45;&gt;Node4</title>
<path fill="none" stroke="#63b8ff" d="M934.02,-130.46C864.01,-125.54 713.14,-113.08 576.24,-88.16"/>
<polygon fill="#63b8ff" stroke="#63b8ff" points="577.11,-84.76 566.64,-86.39 575.84,-91.65 577.11,-84.76"/>
</g>
<!-- Node15&#45;&gt;Node5 -->
<g id="edge24" class="edge">
<title>Node15&#45;&gt;Node5</title>
<path fill="none" stroke="#63b8ff" d="M933.9,-131.81C849.36,-128.78 644.5,-118.82 463.48,-88.15"/>
<polygon fill="#63b8ff" stroke="#63b8ff" points="464.08,-84.7 453.63,-86.46 462.89,-91.6 464.08,-84.7"/>
</g>
<!-- Node15&#45;&gt;Node6 -->
<g id="edge26" class="edge">
<title>Node15&#45;&gt;Node6</title>
<path fill="none" stroke="#63b8ff" d="M933.96,-128.06C878.75,-120.84 775.39,-106.27 688.38,-88 684.33,-87.15 680.15,-86.2 675.96,-85.19"/>
<polygon fill="#63b8ff" stroke="#63b8ff" points="677.02,-81.85 666.47,-82.82 675.32,-88.64 677.02,-81.85"/>
</g>
<!-- Node15&#45;&gt;Node8 -->
<g id="edge28" class="edge">
<title>Node15&#45;&gt;Node8</title>
<path fill="none" stroke="#63b8ff" d="M1012.84,-128.5C1038.46,-123.31 1070.02,-112.12 1086.38,-88 1094.36,-76.23 1094.85,-67.42 1086.38,-56 1059.38,-19.65 1003.89,-11.61 968.77,-10.39"/>
<polygon fill="#63b8ff" stroke="#63b8ff" points="969.28,-6.89 959.23,-10.23 969.17,-13.89 969.28,-6.89"/>
</g>
<!-- Node15&#45;&gt;Node13 -->
<g id="edge27" class="edge">
<title>Node15&#45;&gt;Node13</title>
<path fill="none" stroke="#63b8ff" d="M933.93,-128.35C888.34,-122.24 811.49,-109.65 748.38,-88 747.41,-87.67 746.44,-87.31 745.46,-86.94"/>
<polygon fill="#63b8ff" stroke="#63b8ff" points="747.11,-83.84 736.55,-82.99 744.28,-90.24 747.11,-83.84"/>
</g>
<!-- Node16 -->
<g id="node16" class="node">
<title>Node16</title>
<g id="a_node16"><a xlink:title=" ">
<polygon fill="#e0e0e0" stroke="#999999" points="1261.25,-82 1133.5,-82 1133.5,-62 1261.25,-62 1261.25,-82"/>
<text text-anchor="middle" x="1197.38" y="-68.5" font-family="Helvetica,sans-Serif" font-size="10.00">boost/dynamic_bitset.hpp</text>
</a>
</g>
</g>
<!-- Node15&#45;&gt;Node16 -->
<g id="edge16" class="edge">
<title>Node15&#45;&gt;Node16</title>
<path fill="none" stroke="#63b8ff" d="M1008.38,-123.62C1046.89,-113.31 1108.96,-96.68 1151.38,-85.32"/>
<polygon fill="#63b8ff" stroke="#63b8ff" points="1152.04,-88.77 1160.79,-82.8 1150.22,-82.01 1152.04,-88.77"/>
</g>
<!-- Node17 -->
<g id="node17" class="node">
<title>Node17</title>
<g id="a_node17"><a xlink:title=" ">
<polygon fill="#e0e0e0" stroke="#999999" points="1407.62,-82 1279.12,-82 1279.12,-62 1407.62,-62 1407.62,-82"/>
<text text-anchor="middle" x="1343.38" y="-68.5" font-family="Helvetica,sans-Serif" font-size="10.00">boost/unordered_map.hpp</text>
</a>
</g>
</g>
<!-- Node15&#45;&gt;Node17 -->
<g id="edge17" class="edge">
<title>Node15&#45;&gt;Node17</title>
<path fill="none" stroke="#63b8ff" d="M1012.88,-127.68C1069.89,-119.86 1178.48,-104.39 1270.38,-88 1276.04,-86.99 1281.94,-85.88 1287.83,-84.73"/>
<polygon fill="#63b8ff" stroke="#63b8ff" points="1288.44,-88.17 1297.57,-82.79 1287.08,-81.31 1288.44,-88.17"/>
</g>
<!-- Node18 -->
<g id="node18" class="node">
<title>Node18</title>
<g id="a_node18"><a xlink:title=" ">
<polygon fill="#e0e0e0" stroke="#999999" points="1554.62,-82 1426.12,-82 1426.12,-62 1554.62,-62 1554.62,-82"/>
<text text-anchor="middle" x="1490.38" y="-68.5" font-family="Helvetica,sans-Serif" font-size="10.00">boost/algorithm/string.hpp</text>
</a>
</g>
</g>
<!-- Node15&#45;&gt;Node18 -->
<g id="edge18" class="edge">
<title>Node15&#45;&gt;Node18</title>
<path fill="none" stroke="#63b8ff" d="M1012.95,-130.3C1090.61,-124.71 1268.29,-110.47 1416.38,-88 1422.85,-87.02 1429.62,-85.85 1436.32,-84.6"/>
<polygon fill="#63b8ff" stroke="#63b8ff" points="1436.82,-88.07 1445.97,-82.73 1435.49,-81.19 1436.82,-88.07"/>
</g>
<!-- Node19 -->
<g id="node19" class="node">
<title>Node19</title>
<g id="a_node19"><a xlink:title=" ">
<polygon fill="#e0e0e0" stroke="#999999" points="1682.25,-88 1572.5,-88 1572.5,-56 1682.25,-56 1682.25,-88"/>
<text text-anchor="start" x="1580.5" y="-74.5" font-family="Helvetica,sans-Serif" font-size="10.00">boost/algorithm/string</text>
<text text-anchor="middle" x="1627.38" y="-62.5" font-family="Helvetica,sans-Serif" font-size="10.00">/join.hpp</text>
</a>
</g>
</g>
<!-- Node15&#45;&gt;Node19 -->
<g id="edge19" class="edge">
<title>Node15&#45;&gt;Node19</title>
<path fill="none" stroke="#63b8ff" d="M1012.97,-132.08C1106.6,-129.47 1349.06,-120.08 1560.98,-88.2"/>
<polygon fill="#63b8ff" stroke="#63b8ff" points="1561.47,-91.67 1570.83,-86.7 1560.41,-84.75 1561.47,-91.67"/>
</g>
<!-- Node20 -->
<g id="node20" class="node">
<title>Node20</title>
<g id="a_node20"><a xlink:title=" ">
<polygon fill="#e0e0e0" stroke="#999999" points="1826.88,-82 1699.88,-82 1699.88,-62 1826.88,-62 1826.88,-82"/>
<text text-anchor="middle" x="1763.38" y="-68.5" font-family="Helvetica,sans-Serif" font-size="10.00">boost/functional/hash.hpp</text>
</a>
</g>
</g>
<!-- Node15&#45;&gt;Node20 -->
<g id="edge20" class="edge">
<title>Node15&#45;&gt;Node20</title>
<path fill="none" stroke="#63b8ff" d="M1012.87,-132.5C1121.59,-130.7 1434.23,-122.66 1691.38,-88 1698.1,-87.09 1705.14,-85.92 1712.07,-84.62"/>
<polygon fill="#63b8ff" stroke="#63b8ff" points="1712.57,-88.09 1721.7,-82.72 1711.21,-81.22 1712.57,-88.09"/>
</g>
<!-- Node21 -->
<g id="node21" class="node">
<title>Node21</title>
<g id="a_node21"><a xlink:title=" ">
<polygon fill="#e0e0e0" stroke="#999999" points="851.75,-88 757,-88 757,-56 851.75,-56 851.75,-88"/>
<text text-anchor="start" x="765" y="-74.5" font-family="Helvetica,sans-Serif" font-size="10.00">boost/serialization</text>
<text text-anchor="middle" x="804.38" y="-62.5" font-family="Helvetica,sans-Serif" font-size="10.00">/serialization.hpp</text>
</a>
</g>
</g>
<!-- Node15&#45;&gt;Node21 -->
<g id="edge21" class="edge">
<title>Node15&#45;&gt;Node21</title>
<path fill="none" stroke="#63b8ff" d="M946.97,-123.62C923.4,-115.26 888.16,-102.75 858.61,-92.25"/>
<polygon fill="#63b8ff" stroke="#63b8ff" points="860.03,-89.04 849.43,-89 857.69,-95.64 860.03,-89.04"/>
</g>
<!-- Node22 -->
<g id="node22" class="node">
<title>Node22</title>
<g id="a_node22"><a xlink:title=" ">
<polygon fill="#e0e0e0" stroke="#999999" points="964.75,-88 870,-88 870,-56 964.75,-56 964.75,-88"/>
<text text-anchor="start" x="878" y="-74.5" font-family="Helvetica,sans-Serif" font-size="10.00">boost/serialization</text>
<text text-anchor="middle" x="917.38" y="-62.5" font-family="Helvetica,sans-Serif" font-size="10.00">/split_free.hpp</text>
</a>
</g>
</g>
<!-- Node15&#45;&gt;Node22 -->
<g id="edge22" class="edge">
<title>Node15&#45;&gt;Node22</title>
<path fill="none" stroke="#63b8ff" d="M964.62,-123.62C957.84,-116.36 948.14,-105.96 939.29,-96.48"/>
<polygon fill="#63b8ff" stroke="#63b8ff" points="941.92,-94.17 932.54,-89.25 936.8,-98.95 941.92,-94.17"/>
</g>
<!-- Node23 -->
<g id="node23" class="node">
<title>Node23</title>
<g id="a_node23"><a xlink:title=" ">
<polygon fill="#e0e0e0" stroke="#999999" points="1077.75,-88 983,-88 983,-56 1077.75,-56 1077.75,-88"/>
<text text-anchor="start" x="991" y="-74.5" font-family="Helvetica,sans-Serif" font-size="10.00">boost/serialization</text>
<text text-anchor="middle" x="1030.38" y="-62.5" font-family="Helvetica,sans-Serif" font-size="10.00">/string.hpp</text>
</a>
</g>
</g>
<!-- Node15&#45;&gt;Node23 -->
<g id="edge25" class="edge">
<title>Node15&#45;&gt;Node23</title>
<path fill="none" stroke="#63b8ff" d="M982.28,-123.62C989.19,-116.36 999.06,-105.96 1008.07,-96.48"/>
<polygon fill="#63b8ff" stroke="#63b8ff" points="1010.6,-98.9 1014.95,-89.24 1005.52,-94.08 1010.6,-98.9"/>
</g>
</g>
</svg>
        <g id="navigator" transform="translate(0 0)" fill="#404254">
                <rect fill="#f2f5e9" fill-opacity="0.5" stroke="#606060" stroke-width=".5" x="0" y="0" width="60" height="60"/>
                <use id="zoomplus" xlink:href="#zoomPlus" x="17" y="9" onmousedown="handleZoom(evt,'in')"/>
                <use id="zoomminus" xlink:href="#zoomMin" x="42" y="9" onmousedown="handleZoom(evt,'out')"/>
                <use id="reset" xlink:href="#resetDef" x="30" y="36" onmousedown="handleReset()"/>
                <g id="arrowUp" xlink:href="#dirArrow" transform="translate(30 24)" onmousedown="handlePan(0,-1)">
                  <use xlink:href="#rim" fill="#404040">
                        <set attributeName="fill" to="#808080" begin="arrowUp.mouseover" end="arrowUp.mouseout"/>
                  </use>
                  <path fill="none" stroke="white" stroke-width="1.5" d="M0,-3.0v7 M-2.5,-0.5L0,-3.0L2.5,-0.5"/>
                </g>
                <g id="arrowRight" xlink:href="#dirArrow" transform="rotate(90) translate(36 -43)" onmousedown="handlePan(1,0)">
                  <use xlink:href="#rim" fill="#404040">
                        <set attributeName="fill" to="#808080" begin="arrowRight.mouseover" end="arrowRight.mouseout"/>
                  </use>
                  <path fill="none" stroke="white" stroke-width="1.5" d="M0,-3.0v7 M-2.5,-0.5L0,-3.0L2.5,-0.5"/>
                </g>
                <g id="arrowDown" xlink:href="#dirArrow" transform="rotate(180) translate(-30 -48)" onmousedown="handlePan(0,1)">
                  <use xlink:href="#rim" fill="#404040">
                        <set attributeName="fill" to="#808080" begin="arrowDown.mouseover" end="arrowDown.mouseout"/>
                  </use>
                  <path fill="none" stroke="white" stroke-width="1.5" d="M0,-3.0v7 M-2.5,-0.5L0,-3.0L2.5,-0.5"/>
                </g>
                <g id="arrowLeft" xlink:href="#dirArrow" transform="rotate(270) translate(-36 17)" onmousedown="handlePan(-1,0)">
                  <use xlink:href="#rim" fill="#404040">
                        <set attributeName="fill" to="#808080" begin="arrowLeft.mouseover" end="arrowLeft.mouseout"/>
                  </use>
                  <path fill="none" stroke="white" stroke-width="1.5" d="M0,-3.0v7 M-2.5,-0.5L0,-3.0L2.5,-0.5"/>
                </g>
        </g>
        <svg viewBox="0 0 15 15" width="100%" height="30px" preserveAspectRatio="xMaxYMin meet">
         <g id="arrow_out" transform="scale(0.3 0.3)">
          <a xlink:href="FMTyieldrequest_8hpp__incl_org.svg" target="_base">
           <rect id="button" ry="5" rx="5" y="6" x="6" height="38" width="38"
                fill="#f2f5e9" fill-opacity="0.5" stroke="#606060" stroke-width="1.0"/>
           <path id="arrow"
             d="M 11.500037,31.436501 C 11.940474,20.09759 22.043105,11.32322 32.158766,21.979434 L 37.068811,17.246167 C 37.068811,17.246167 37.088388,32 37.088388,32 L 22.160133,31.978069 C 22.160133,31.978069 26.997745,27.140456 26.997745,27.140456 C 18.528582,18.264221 13.291696,25.230495 11.500037,31.436501 z"
             style="fill:#404040;"/>
          </a>
         </g>
        </svg>
</svg>
