<?xml version="1.0" encoding="UTF-8" standalone="no"?>
<!DOCTYPE svg PUBLIC "-//W3C//DTD SVG 1.1//EN"
 "http://www.w3.org/Graphics/SVG/1.1/DTD/svg11.dtd">
<!-- Generated by graphviz version 8.1.0 (20230707.0739)
 -->
<!-- Title: C:/Temp/out/FMT/Include/FMTyields.hpp Pages: 1 -->
<!--zoomable 584 -->

<svg id="main" version="1.1" xmlns="http://www.w3.org/2000/svg" xmlns:xlink="http://www.w3.org/1999/xlink" xml:space="preserve" onload="init(evt)">
<style type="text/css"><![CDATA[
.node, .edge {opacity: 0.7;}
.node.selected, .edge.selected {opacity: 1;}
.edge:hover path { stroke: red; }
.edge:hover polygon { stroke: red; fill: red; }
]]></style>

<defs>
  <circle id="rim" cx="0" cy="0" r="7"/>
  <circle id="rim2" cx="0" cy="0" r="3.5"/>
  <g id="zoomPlus">
    <use xlink:href="#rim" fill="#404040"><set attributeName="fill" to="#808080" begin="zoomplus.mouseover" end="zoomplus.mouseout"/></use>
    <path d="M-4,0h8M0,-4v8" fill="none" stroke="white" stroke-width="1.5" pointer-events="none"/>
  </g>
  <g id="zoomMin">
    <use xlink:href="#rim" fill="#404040"><set attributeName="fill" to="#808080" begin="zoomminus.mouseover" end="zoomminus.mouseout"/></use>
    <path d="M-4,0h8" fill="none" stroke="white" stroke-width="1.5" pointer-events="none"/>
  </g>
  <g id="arrowUp" transform="translate(30 24)">
    <use xlink:href="#rim"/>
    <path pointer-events="none" fill="none" stroke="white" stroke-width="1.5" d="M0,-3.0v7 M-2.5,-0.5L0,-3.0L2.5,-0.5"/>
  </g>
  <g id="arrowRight" transform="rotate(90) translate(36 -43)">
    <use xlink:href="#rim"/>
    <path pointer-events="none" fill="none" stroke="white" stroke-width="1.5" d="M0,-3.0v7 M-2.5,-0.5L0,-3.0L2.5,-0.5"/>
  </g>
  <g id="arrowDown" transform="rotate(180) translate(-30 -48)">
    <use xlink:href="#rim"/>
    <path pointer-events="none" fill="none" stroke="white" stroke-width="1.5" d="M0,-3.0v7 M-2.5,-0.5L0,-3.0L2.5,-0.5"/>
  </g>
  <g id="arrowLeft" transform="rotate(270) translate(-36 17)">
    <use xlink:href="#rim"/>
    <path pointer-events="none" fill="none" stroke="white" stroke-width="1.5" d="M0,-3.0v7 M-2.5,-0.5L0,-3.0L2.5,-0.5"/>
  </g>
  <g id="resetDef">
    <use xlink:href="#rim2" fill="#404040"><set attributeName="fill" to="#808080" begin="reset.mouseover" end="reset.mouseout"/></use>
  </g>
</defs>
<script type="application/ecmascript">
var viewWidth = 1515;
var viewHeight = 584;
var sectionId = 'dynsection-1';
</script>
<script type="application/ecmascript" xlink:href="svg.min.js"/>
<svg id="graph" class="graph">
<g id="viewport">
<title>C:/Temp/out/FMT/Include/FMTyields.hpp</title>
<!-- Node1 -->
<g id="Node000001" class="node">
<title>Node1</title>
<g id="a_Node000001"><a xlink:title=" ">
<polygon fill="#999999" stroke="#666666" points="1284.75,-576 1159.25,-576 1159.25,-544 1284.75,-544 1284.75,-576"/>
<text text-anchor="start" x="1167.25" y="-562.5" font-family="Helvetica,sans-Serif" font-size="10.00">C:/Temp/out/FMT/Include</text>
<text text-anchor="middle" x="1222" y="-550.5" font-family="Helvetica,sans-Serif" font-size="10.00">/FMTyields.hpp</text>
</a>
</g>
</g>
<!-- Node2 -->
<g id="Node000002" class="node">
<title>Node2</title>
<g id="a_Node000002"><a xlink:href="FMTmodel_8hpp.html" target="_top" xlink:title=" ">
<polygon fill="white" stroke="#666666" points="1140.75,-508 1015.25,-508 1015.25,-476 1140.75,-476 1140.75,-508"/>
<text text-anchor="start" x="1023.25" y="-494.5" font-family="Helvetica,sans-Serif" font-size="10.00">C:/Temp/out/FMT/Include</text>
<text text-anchor="middle" x="1078" y="-482.5" font-family="Helvetica,sans-Serif" font-size="10.00">/FMTmodel.hpp</text>
</a>
</g>
</g>
<!-- Node1&#45;&gt;Node2 -->
<g id="edge1_Node000001_Node000002" class="edge">
<title>Node1&#45;&gt;Node2</title>
<g id="a_edge1_Node000001_Node000002"><a xlink:title=" ">
<path fill="none" stroke="#63b8ff" d="M1178.38,-539.01C1156.92,-529.17 1131.46,-517.5 1111.55,-508.38"/>
<polygon fill="#63b8ff" stroke="#63b8ff" points="1176.69,-542.54 1187.24,-543.53 1179.6,-536.18 1176.69,-542.54"/>
</a>
</g>
</g>
<!-- Node26 -->
<g id="Node000026" class="node">
<title>Node26</title>
<g id="a_Node000026"><a xlink:href="PYexportCore_8hpp.html" target="_top" xlink:title=" ">
<polygon fill="white" stroke="#666666" points="1284.75,-508 1159.25,-508 1159.25,-476 1284.75,-476 1284.75,-508"/>
<text text-anchor="start" x="1167.25" y="-494.5" font-family="Helvetica,sans-Serif" font-size="10.00">C:/Temp/out/FMT/Include</text>
<text text-anchor="middle" x="1222" y="-482.5" font-family="Helvetica,sans-Serif" font-size="10.00">/PYexportCore.hpp</text>
</a>
</g>
</g>
<!-- Node1&#45;&gt;Node26 -->
<g id="edge56_Node000001_Node000026" class="edge">
<title>Node1&#45;&gt;Node26</title>
<g id="a_edge56_Node000001_Node000026"><a xlink:title=" ">
<path fill="none" stroke="#63b8ff" d="M1222,-532.89C1222,-524.52 1222,-515.54 1222,-508.22"/>
<polygon fill="#63b8ff" stroke="#63b8ff" points="1218.5,-532.69 1222,-542.69 1225.5,-532.69 1218.5,-532.69"/>
</a>
</g>
</g>
<!-- Node27 -->
<g id="Node000027" class="node">
<title>Node27</title>
<g id="a_Node000027"><a xlink:href="RexportCore_8hpp.html" target="_top" xlink:title=" ">
<polygon fill="white" stroke="#666666" points="1428.75,-508 1303.25,-508 1303.25,-476 1428.75,-476 1428.75,-508"/>
<text text-anchor="start" x="1311.25" y="-494.5" font-family="Helvetica,sans-Serif" font-size="10.00">C:/Temp/out/FMT/Include</text>
<text text-anchor="middle" x="1366" y="-482.5" font-family="Helvetica,sans-Serif" font-size="10.00">/RexportCore.hpp</text>
</a>
</g>
</g>
<!-- Node1&#45;&gt;Node27 -->
<g id="edge57_Node000001_Node000027" class="edge">
<title>Node1&#45;&gt;Node27</title>
<g id="a_edge57_Node000001_Node000027"><a xlink:title=" ">
<path fill="none" stroke="#63b8ff" d="M1265.61,-539.01C1287.07,-529.17 1312.54,-517.5 1332.45,-508.38"/>
<polygon fill="#63b8ff" stroke="#63b8ff" points="1264.39,-536.18 1256.76,-543.53 1267.31,-542.54 1264.39,-536.18"/>
</a>
</g>
</g>
<!-- Node3 -->
<g id="Node000003" class="node">
<title>Node3</title>
<g id="a_Node000003"><a xlink:href="FMTgraph_8hpp.html" target="_top" xlink:title=" ">
<polygon fill="white" stroke="#666666" points="826.75,-440 701.25,-440 701.25,-408 826.75,-408 826.75,-440"/>
<text text-anchor="start" x="709.25" y="-426.5" font-family="Helvetica,sans-Serif" font-size="10.00">C:/Temp/out/FMT/Include</text>
<text text-anchor="middle" x="764" y="-414.5" font-family="Helvetica,sans-Serif" font-size="10.00">/FMTgraph.hpp</text>
</a>
</g>
</g>
<!-- Node2&#45;&gt;Node3 -->
<g id="edge2_Node000002_Node000003" class="edge">
<title>Node2&#45;&gt;Node3</title>
<g id="a_edge2_Node000002_Node000003"><a xlink:title=" ">
<path fill="none" stroke="#63b8ff" d="M1004.32,-475.51C950.48,-464.2 878.24,-449.01 827.06,-438.26"/>
<polygon fill="#63b8ff" stroke="#63b8ff" points="1003.33,-479.09 1013.83,-477.72 1004.77,-472.24 1003.33,-479.09"/>
</a>
</g>
</g>
<!-- Node6 -->
<g id="Node000006" class="node">
<title>Node6</title>
<g id="a_Node000006"><a xlink:href="FMTsemodel_8hpp.html" target="_top" xlink:title=" ">
<polygon fill="white" stroke="#666666" points="649.75,-236 524.25,-236 524.25,-204 649.75,-204 649.75,-236"/>
<text text-anchor="start" x="532.25" y="-222.5" font-family="Helvetica,sans-Serif" font-size="10.00">C:/Temp/out/FMT/Include</text>
<text text-anchor="middle" x="587" y="-210.5" font-family="Helvetica,sans-Serif" font-size="10.00">/FMTsemodel.hpp</text>
</a>
</g>
</g>
<!-- Node2&#45;&gt;Node6 -->
<g id="edge49_Node000002_Node000006" class="edge">
<title>Node2&#45;&gt;Node6</title>
<g id="a_edge49_Node000002_Node000006"><a xlink:title=" ">
<path fill="none" stroke="#63b8ff" d="M1068.66,-465.63C1055,-431.98 1026.36,-373.01 983,-340 882.74,-263.7 733.84,-236.09 650.1,-226.27"/>
<polygon fill="#63b8ff" stroke="#63b8ff" points="1065.66,-466.56 1072.57,-474.6 1072.18,-464.01 1065.66,-466.56"/>
</a>
</g>
</g>
<!-- Node8 -->
<g id="Node000008" class="node">
<title>Node8</title>
<g id="a_Node000008"><a xlink:href="PYexportModel_8hpp.html" target="_top" xlink:title=" ">
<polygon fill="white" stroke="#666666" points="884.75,-100 759.25,-100 759.25,-68 884.75,-68 884.75,-100"/>
<text text-anchor="start" x="767.25" y="-86.5" font-family="Helvetica,sans-Serif" font-size="10.00">C:/Temp/out/FMT/Include</text>
<text text-anchor="middle" x="822" y="-74.5" font-family="Helvetica,sans-Serif" font-size="10.00">/PYexportModel.hpp</text>
</a>
</g>
</g>
<!-- Node2&#45;&gt;Node8 -->
<g id="edge51_Node000002_Node000008" class="edge">
<title>Node2&#45;&gt;Node8</title>
<g id="a_edge51_Node000002_Node000008"><a xlink:title=" ">
<path fill="none" stroke="#63b8ff" d="M1106.29,-468.72C1133.65,-444.46 1171,-402.94 1171,-357 1171,-357 1171,-357 1171,-219 1171,-162.93 1126.28,-160.8 1076,-136 1043.12,-119.79 949.14,-103.55 885.19,-93.88"/>
<polygon fill="#63b8ff" stroke="#63b8ff" points="1104.49,-466.52 1099.18,-475.68 1109.05,-471.83 1104.49,-466.52"/>
</a>
</g>
</g>
<!-- Node9 -->
<g id="Node000009" class="node">
<title>Node9</title>
<g id="a_Node000009"><a xlink:href="Rdeclarations_8hpp.html" target="_top" xlink:title=" ">
<polygon fill="white" stroke="#666666" points="520.75,-100 395.25,-100 395.25,-68 520.75,-68 520.75,-100"/>
<text text-anchor="start" x="403.25" y="-86.5" font-family="Helvetica,sans-Serif" font-size="10.00">C:/Temp/out/FMT/Include</text>
<text text-anchor="middle" x="458" y="-74.5" font-family="Helvetica,sans-Serif" font-size="10.00">/Rdeclarations.hpp</text>
</a>
</g>
</g>
<!-- Node2&#45;&gt;Node9 -->
<g id="edge53_Node000002_Node000009" class="edge">
<title>Node2&#45;&gt;Node9</title>
<g id="a_edge53_Node000002_Node000009"><a xlink:title=" ">
<path fill="none" stroke="#63b8ff" d="M1004.17,-486.15C808.42,-472.31 291,-428.92 291,-357 291,-357 291,-357 291,-219 291,-157.48 360.79,-119.5 410.14,-100.33"/>
<polygon fill="#63b8ff" stroke="#63b8ff" points="1003.7,-489.7 1013.92,-486.9 1004.19,-482.71 1003.7,-489.7"/>
</a>
</g>
</g>
<!-- Node10 -->
<g id="Node000010" class="node">
<title>Node10</title>
<g id="a_Node000010"><a xlink:href="RexportModel_8hpp.html" target="_top" xlink:title=" ">
<polygon fill="white" stroke="#666666" points="1066.75,-100 941.25,-100 941.25,-68 1066.75,-68 1066.75,-100"/>
<text text-anchor="start" x="949.25" y="-86.5" font-family="Helvetica,sans-Serif" font-size="10.00">C:/Temp/out/FMT/Include</text>
<text text-anchor="middle" x="1004" y="-74.5" font-family="Helvetica,sans-Serif" font-size="10.00">/RexportModel.hpp</text>
</a>
</g>
</g>
<!-- Node2&#45;&gt;Node10 -->
<g id="edge54_Node000002_Node000010" class="edge">
<title>Node2&#45;&gt;Node10</title>
<g id="a_edge54_Node000002_Node000010"><a xlink:title=" ">
<path fill="none" stroke="#63b8ff" d="M1141.89,-471.17C1157.82,-463.61 1173.58,-453.45 1185,-440 1209.84,-410.72 1209,-395.4 1209,-357 1209,-357 1209,-357 1209,-219 1209,-180.6 1212.24,-163.06 1185,-136 1153.96,-105.17 1105.82,-92.64 1066.99,-87.7"/>
<polygon fill="#63b8ff" stroke="#63b8ff" points="1140.72,-468.31 1133,-475.56 1143.56,-474.71 1140.72,-468.31"/>
</a>
</g>
</g>
<!-- Node12 -->
<g id="Node000012" class="node">
<title>Node12</title>
<g id="a_Node000012"><a xlink:href="FMTpythonpickle_8hpp.html" target="_top" xlink:title=" ">
<polygon fill="white" stroke="#666666" points="326.75,-100 201.25,-100 201.25,-68 326.75,-68 326.75,-100"/>
<text text-anchor="start" x="209.25" y="-86.5" font-family="Helvetica,sans-Serif" font-size="10.00">C:/Temp/out/FMT/Include</text>
<text text-anchor="middle" x="264" y="-74.5" font-family="Helvetica,sans-Serif" font-size="10.00">/FMTpythonpickle.hpp</text>
</a>
</g>
</g>
<!-- Node2&#45;&gt;Node12 -->
<g id="edge48_Node000002_Node000012" class="edge">
<title>Node2&#45;&gt;Node12</title>
<g id="a_edge48_Node000002_Node000012"><a xlink:title=" ">
<path fill="none" stroke="#63b8ff" d="M1004.18,-490.1C849.73,-487.48 497.42,-477.47 384,-440 318.55,-418.38 253,-425.92 253,-357 253,-357 253,-357 253,-219 253,-175.82 258.74,-125.07 261.93,-100.24"/>
<polygon fill="#63b8ff" stroke="#63b8ff" points="1003.9,-493.61 1013.95,-490.28 1004.01,-486.61 1003.9,-493.61"/>
</a>
</g>
</g>
<!-- Node19 -->
<g id="Node000019" class="node">
<title>Node19</title>
<g id="a_Node000019"><a xlink:href="FMTsrmodel_8hpp.html" target="_top" xlink:title=" ">
<polygon fill="white" stroke="#666666" points="1064.75,-236 939.25,-236 939.25,-204 1064.75,-204 1064.75,-236"/>
<text text-anchor="start" x="947.25" y="-222.5" font-family="Helvetica,sans-Serif" font-size="10.00">C:/Temp/out/FMT/Include</text>
<text text-anchor="middle" x="1002" y="-210.5" font-family="Helvetica,sans-Serif" font-size="10.00">/FMTsrmodel.hpp</text>
</a>
</g>
</g>
<!-- Node2&#45;&gt;Node19 -->
<g id="edge50_Node000002_Node000019" class="edge">
<title>Node2&#45;&gt;Node19</title>
<g id="a_edge50_Node000002_Node000019"><a xlink:title=" ">
<path fill="none" stroke="#63b8ff" d="M1080.59,-464.88C1083.67,-422.19 1085,-335.84 1054,-272 1047.15,-257.9 1034.73,-245.49 1023.75,-236.45"/>
<polygon fill="#63b8ff" stroke="#63b8ff" points="1077.03,-464.45 1079.7,-474.71 1084.01,-465.03 1077.03,-464.45"/>
</a>
</g>
</g>
<!-- Node24 -->
<g id="Node000024" class="node">
<title>Node24</title>
<g id="a_Node000024"><a xlink:href="PYexportParallel_8hpp.html" target="_top" xlink:title=" ">
<polygon fill="white" stroke="#666666" points="1362.75,-440 1237.25,-440 1237.25,-408 1362.75,-408 1362.75,-440"/>
<text text-anchor="start" x="1245.25" y="-426.5" font-family="Helvetica,sans-Serif" font-size="10.00">C:/Temp/out/FMT/Include</text>
<text text-anchor="middle" x="1300" y="-414.5" font-family="Helvetica,sans-Serif" font-size="10.00">/PYexportParallel.hpp</text>
</a>
</g>
</g>
<!-- Node2&#45;&gt;Node24 -->
<g id="edge52_Node000002_Node000024" class="edge">
<title>Node2&#45;&gt;Node24</title>
<g id="a_edge52_Node000002_Node000024"><a xlink:title=" ">
<path fill="none" stroke="#63b8ff" d="M1140.31,-472.47C1174.23,-462.39 1215.71,-450.06 1247.89,-440.49"/>
<polygon fill="#63b8ff" stroke="#63b8ff" points="1139.63,-469.32 1131.05,-475.53 1141.63,-476.03 1139.63,-469.32"/>
</a>
</g>
</g>
<!-- Node25 -->
<g id="Node000025" class="node">
<title>Node25</title>
<g id="a_Node000025"><a xlink:href="RexportParallel_8hpp.html" target="_top" xlink:title=" ">
<polygon fill="white" stroke="#666666" points="1506.75,-440 1381.25,-440 1381.25,-408 1506.75,-408 1506.75,-440"/>
<text text-anchor="start" x="1389.25" y="-426.5" font-family="Helvetica,sans-Serif" font-size="10.00">C:/Temp/out/FMT/Include</text>
<text text-anchor="middle" x="1444" y="-414.5" font-family="Helvetica,sans-Serif" font-size="10.00">/RexportParallel.hpp</text>
</a>
</g>
</g>
<!-- Node2&#45;&gt;Node25 -->
<g id="edge55_Node000002_Node000025" class="edge">
<title>Node2&#45;&gt;Node25</title>
<g id="a_edge55_Node000002_Node000025"><a xlink:title=" ">
<path fill="none" stroke="#63b8ff" d="M1151.88,-475.7C1250.11,-457.81 1277.07,-457.58 1372,-440 1374.88,-439.47 1377.83,-438.91 1380.81,-438.33"/>
<polygon fill="#63b8ff" stroke="#63b8ff" points="1151.38,-472.42 1142.18,-477.67 1152.65,-479.3 1151.38,-472.42"/>
</a>
</g>
</g>
<!-- Node4 -->
<g id="Node000004" class="node">
<title>Node4</title>
<g id="a_Node000004"><a xlink:href="FMTlinegraph_8hpp.html" target="_top" xlink:title=" ">
<polygon fill="white" stroke="#666666" points="535.75,-372 410.25,-372 410.25,-340 535.75,-340 535.75,-372"/>
<text text-anchor="start" x="418.25" y="-358.5" font-family="Helvetica,sans-Serif" font-size="10.00">C:/Temp/out/FMT/Include</text>
<text text-anchor="middle" x="473" y="-346.5" font-family="Helvetica,sans-Serif" font-size="10.00">/FMTlinegraph.hpp</text>
</a>
</g>
</g>
<!-- Node3&#45;&gt;Node4 -->
<g id="edge3_Node000003_Node000004" class="edge">
<title>Node3&#45;&gt;Node4</title>
<g id="a_edge3_Node000003_Node000004"><a xlink:title=" ">
<path fill="none" stroke="#63b8ff" d="M690.3,-406.28C642.68,-395.48 581.37,-381.58 536.02,-371.29"/>
<polygon fill="#63b8ff" stroke="#63b8ff" points="689.33,-409.88 699.85,-408.68 690.88,-403.05 689.33,-409.88"/>
</a>
</g>
</g>
<!-- Node14 -->
<g id="Node000014" class="node">
<title>Node14</title>
<g id="a_Node000014"><a xlink:href="RexportSpatial_8hpp.html" target="_top" xlink:title=" ">
<polygon fill="white" stroke="#666666" points="444.75,-236 319.25,-236 319.25,-204 444.75,-204 444.75,-236"/>
<text text-anchor="start" x="327.25" y="-222.5" font-family="Helvetica,sans-Serif" font-size="10.00">C:/Temp/out/FMT/Include</text>
<text text-anchor="middle" x="382" y="-210.5" font-family="Helvetica,sans-Serif" font-size="10.00">/RexportSpatial.hpp</text>
</a>
</g>
</g>
<!-- Node3&#45;&gt;Node14 -->
<g id="edge47_Node000003_Node000014" class="edge">
<title>Node3&#45;&gt;Node14</title>
<g id="a_edge47_Node000003_Node000014"><a xlink:title=" ">
<path fill="none" stroke="#63b8ff" d="M690.21,-422.83C595.91,-420.96 440.16,-411.73 401,-372 364.83,-335.31 372.74,-266.9 378.56,-236.38"/>
<polygon fill="#63b8ff" stroke="#63b8ff" points="690.05,-426.35 700.11,-423.02 690.17,-419.35 690.05,-426.35"/>
</a>
</g>
</g>
<!-- Node15 -->
<g id="Node000015" class="node">
<title>Node15</title>
<g id="a_Node000015"><a xlink:href="FMToperatingareascheme_8hpp.html" target="_top" xlink:title=" ">
<polygon fill="white" stroke="#666666" points="168.12,-236 17.87,-236 17.87,-204 168.12,-204 168.12,-236"/>
<text text-anchor="start" x="25.87" y="-222.5" font-family="Helvetica,sans-Serif" font-size="10.00">C:/Temp/out/FMT/Include</text>
<text text-anchor="middle" x="93" y="-210.5" font-family="Helvetica,sans-Serif" font-size="10.00">/FMToperatingareascheme.hpp</text>
</a>
</g>
</g>
<!-- Node3&#45;&gt;Node15 -->
<g id="edge22_Node000003_Node000015" class="edge">
<title>Node3&#45;&gt;Node15</title>
<g id="a_edge22_Node000003_Node000015"><a xlink:title=" ">
<path fill="none" stroke="#63b8ff" d="M690,-421.06C610.83,-417.19 482.4,-405.75 377,-372 272.76,-338.63 161.66,-267.84 115.31,-236.5"/>
<polygon fill="#63b8ff" stroke="#63b8ff" points="689.69,-424.59 699.84,-421.55 690.01,-417.6 689.69,-424.59"/>
</a>
</g>
</g>
<!-- Node18 -->
<g id="Node000018" class="node">
<title>Node18</title>
<g id="a_Node000018"><a xlink:href="FMToutputnodecache_8hpp.html" target="_top" xlink:title=" ">
<polygon fill="white" stroke="#666666" points="829.75,-372 698.25,-372 698.25,-340 829.75,-340 829.75,-372"/>
<text text-anchor="start" x="706.25" y="-358.5" font-family="Helvetica,sans-Serif" font-size="10.00">C:/Temp/out/FMT/Include</text>
<text text-anchor="middle" x="764" y="-346.5" font-family="Helvetica,sans-Serif" font-size="10.00">/FMToutputnodecache.hpp</text>
</a>
</g>
</g>
<!-- Node3&#45;&gt;Node18 -->
<g id="edge30_Node000003_Node000018" class="edge">
<title>Node3&#45;&gt;Node18</title>
<g id="a_edge30_Node000003_Node000018"><a xlink:title=" ">
<path fill="none" stroke="#63b8ff" d="M757.38,-396.89C757.05,-388.52 757.33,-379.54 758.21,-372.22"/>
<polygon fill="#63b8ff" stroke="#63b8ff" points="753.95,-396.98 758.2,-406.69 760.93,-396.46 753.95,-396.98"/>
</a>
</g>
</g>
<!-- Node3&#45;&gt;Node19 -->
<g id="edge32_Node000003_Node000019" class="edge">
<title>Node3&#45;&gt;Node19</title>
<g id="a_edge32_Node000003_Node000019"><a xlink:title=" ">
<path fill="none" stroke="#63b8ff" d="M837.76,-414.88C893.52,-407.14 963.66,-393.45 983,-372 1017.49,-333.73 1010.46,-266.15 1005.15,-236.12"/>
<polygon fill="#63b8ff" stroke="#63b8ff" points="837.62,-411.5 828.17,-416.3 838.55,-418.44 837.62,-411.5"/>
</a>
</g>
</g>
<!-- Node22 -->
<g id="Node000022" class="node">
<title>Node22</title>
<g id="a_Node000022"><a xlink:href="PYexportGraph_8hpp.html" target="_top" xlink:title=" ">
<polygon fill="white" stroke="#666666" points="973.75,-372 848.25,-372 848.25,-340 973.75,-340 973.75,-372"/>
<text text-anchor="start" x="856.25" y="-358.5" font-family="Helvetica,sans-Serif" font-size="10.00">C:/Temp/out/FMT/Include</text>
<text text-anchor="middle" x="911" y="-346.5" font-family="Helvetica,sans-Serif" font-size="10.00">/PYexportGraph.hpp</text>
</a>
</g>
</g>
<!-- Node3&#45;&gt;Node22 -->
<g id="edge45_Node000003_Node000022" class="edge">
<title>Node3&#45;&gt;Node22</title>
<g id="a_edge45_Node000003_Node000022"><a xlink:title=" ">
<path fill="none" stroke="#63b8ff" d="M808.49,-403.03C830.31,-393.23 856.19,-381.61 876.49,-372.49"/>
<polygon fill="#63b8ff" stroke="#63b8ff" points="807.15,-400.24 799.46,-407.53 810.02,-406.62 807.15,-400.24"/>
</a>
</g>
</g>
<!-- Node23 -->
<g id="Node000023" class="node">
<title>Node23</title>
<g id="a_Node000023"><a xlink:href="PYexportSpatial_8hpp.html" target="_top" xlink:title=" ">
<polygon fill="white" stroke="#666666" points="679.75,-372 554.25,-372 554.25,-340 679.75,-340 679.75,-372"/>
<text text-anchor="start" x="562.25" y="-358.5" font-family="Helvetica,sans-Serif" font-size="10.00">C:/Temp/out/FMT/Include</text>
<text text-anchor="middle" x="617" y="-346.5" font-family="Helvetica,sans-Serif" font-size="10.00">/PYexportSpatial.hpp</text>
</a>
</g>
</g>
<!-- Node3&#45;&gt;Node23 -->
<g id="edge46_Node000003_Node000023" class="edge">
<title>Node3&#45;&gt;Node23</title>
<g id="a_edge46_Node000003_Node000023"><a xlink:title=" ">
<path fill="none" stroke="#63b8ff" d="M719.51,-403.03C697.69,-393.23 671.8,-381.61 651.5,-372.49"/>
<polygon fill="#63b8ff" stroke="#63b8ff" points="717.98,-406.62 728.53,-407.53 720.84,-400.24 717.98,-406.62"/>
</a>
</g>
</g>
<!-- Node5 -->
<g id="Node000005" class="node">
<title>Node5</title>
<g id="a_Node000005"><a xlink:href="FMTspatialschedule_8hpp.html" target="_top" xlink:title=" ">
<polygon fill="white" stroke="#666666" points="626.75,-304 501.25,-304 501.25,-272 626.75,-272 626.75,-304"/>
<text text-anchor="start" x="509.25" y="-290.5" font-family="Helvetica,sans-Serif" font-size="10.00">C:/Temp/out/FMT/Include</text>
<text text-anchor="middle" x="564" y="-278.5" font-family="Helvetica,sans-Serif" font-size="10.00">/FMTspatialschedule.hpp</text>
</a>
</g>
</g>
<!-- Node4&#45;&gt;Node5 -->
<g id="edge4_Node000004_Node000005" class="edge">
<title>Node4&#45;&gt;Node5</title>
<g id="a_edge4_Node000004_Node000005"><a xlink:title=" ">
<path fill="none" stroke="#63b8ff" d="M502.75,-333.42C515.79,-323.96 530.8,-313.08 542.69,-304.45"/>
<polygon fill="#63b8ff" stroke="#63b8ff" points="501.14,-330.99 495.1,-339.69 505.25,-336.65 501.14,-330.99"/>
</a>
</g>
</g>
<!-- Node4&#45;&gt;Node9 -->
<g id="edge20_Node000004_Node000009" class="edge">
<title>Node4&#45;&gt;Node9</title>
<g id="a_edge20_Node000004_Node000009"><a xlink:title=" ">
<path fill="none" stroke="#63b8ff" d="M476.88,-328.68C480.19,-296.16 480.82,-240.65 454,-204 431.45,-173.19 396.57,-200.16 376,-168 368.33,-156.02 369.09,-148.43 376,-136 384.87,-120.03 401.06,-108.41 416.71,-100.34"/>
<polygon fill="#63b8ff" stroke="#63b8ff" points="473.29,-328.2 475.58,-338.54 480.24,-329.03 473.29,-328.2"/>
</a>
</g>
</g>
<!-- Node4&#45;&gt;Node14 -->
<g id="edge21_Node000004_Node000014" class="edge">
<title>Node4&#45;&gt;Node14</title>
<g id="a_edge21_Node000004_Node000014"><a xlink:title=" ">
<path fill="none" stroke="#63b8ff" d="M456.46,-330.64C437.77,-303.13 407.94,-259.21 392.31,-236.19"/>
<polygon fill="#63b8ff" stroke="#63b8ff" points="454.04,-332.32 462.56,-338.63 459.84,-328.39 454.04,-332.32"/>
</a>
</g>
</g>
<!-- Node5&#45;&gt;Node6 -->
<g id="edge5_Node000005_Node000006" class="edge">
<title>Node5&#45;&gt;Node6</title>
<g id="a_edge5_Node000005_Node000006"><a xlink:title=" ">
<path fill="none" stroke="#63b8ff" d="M572.9,-261.45C575.87,-252.93 579.08,-243.71 581.69,-236.22"/>
<polygon fill="#63b8ff" stroke="#63b8ff" points="569.32,-260.1 569.33,-270.69 575.93,-262.4 569.32,-260.1"/>
</a>
</g>
</g>
<!-- Node5&#45;&gt;Node14 -->
<g id="edge19_Node000005_Node000014" class="edge">
<title>Node5&#45;&gt;Node14</title>
<g id="a_edge19_Node000005_Node000014"><a xlink:title=" ">
<path fill="none" stroke="#63b8ff" d="M511.1,-267.82C483.64,-257.86 450.53,-245.85 424.72,-236.49"/>
<polygon fill="#63b8ff" stroke="#63b8ff" points="509.73,-271.41 520.33,-271.53 512.12,-264.83 509.73,-271.41"/>
</a>
</g>
</g>
<!-- Node7 -->
<g id="Node000007" class="node">
<title>Node7</title>
<g id="a_Node000007"><a xlink:href="FMTsamodel_8hpp.html" target="_top" xlink:title=" ">
<polygon fill="white" stroke="#666666" points="884.75,-168 759.25,-168 759.25,-136 884.75,-136 884.75,-168"/>
<text text-anchor="start" x="767.25" y="-154.5" font-family="Helvetica,sans-Serif" font-size="10.00">C:/Temp/out/FMT/Include</text>
<text text-anchor="middle" x="822" y="-142.5" font-family="Helvetica,sans-Serif" font-size="10.00">/FMTsamodel.hpp</text>
</a>
</g>
</g>
<!-- Node6&#45;&gt;Node7 -->
<g id="edge6_Node000006_Node000007" class="edge">
<title>Node6&#45;&gt;Node7</title>
<g id="a_edge6_Node000006_Node000007"><a xlink:title=" ">
<path fill="none" stroke="#63b8ff" d="M652.5,-200.6C688.48,-190.5 732.62,-178.1 766.84,-168.49"/>
<polygon fill="#63b8ff" stroke="#63b8ff" points="651.77,-197.45 643.09,-203.53 653.67,-204.19 651.77,-197.45"/>
</a>
</g>
</g>
<!-- Node6&#45;&gt;Node8 -->
<g id="edge16_Node000006_Node000008" class="edge">
<title>Node6&#45;&gt;Node8</title>
<g id="a_edge16_Node000006_Node000008"><a xlink:title=" ">
<path fill="none" stroke="#63b8ff" d="M586.16,-192.73C587.04,-174.45 591.31,-150.78 606,-136 627.21,-114.64 702.99,-100.36 758.83,-92.47"/>
<polygon fill="#63b8ff" stroke="#63b8ff" points="582.65,-192.5 586,-202.56 589.65,-192.61 582.65,-192.5"/>
</a>
</g>
</g>
<!-- Node6&#45;&gt;Node9 -->
<g id="edge17_Node000006_Node000009" class="edge">
<title>Node6&#45;&gt;Node9</title>
<g id="a_edge17_Node000006_Node000009"><a xlink:title=" ">
<path fill="none" stroke="#63b8ff" d="M513.33,-204.86C459.36,-193.75 394.13,-178.46 386,-168 377.26,-156.77 379.46,-148.63 386,-136 394.02,-120.49 409.17,-108.68 423.52,-100.35"/>
<polygon fill="#63b8ff" stroke="#63b8ff" points="512.46,-208.46 522.96,-207.02 513.86,-201.6 512.46,-208.46"/>
</a>
</g>
</g>
<!-- Node6&#45;&gt;Node10 -->
<g id="edge18_Node000006_Node000010" class="edge">
<title>Node6&#45;&gt;Node10</title>
<g id="a_edge18_Node000006_Node000010"><a xlink:title=" ">
<path fill="none" stroke="#63b8ff" d="M660.52,-216.65C790.25,-211.75 1048.73,-198.26 1076,-168 1096.94,-144.76 1061.5,-117.23 1033.32,-100.45"/>
<polygon fill="#63b8ff" stroke="#63b8ff" points="660.76,-213.18 650.9,-217.05 661.02,-220.17 660.76,-213.18"/>
</a>
</g>
</g>
<!-- Node11 -->
<g id="Node000011" class="node">
<title>Node11</title>
<g id="a_Node000011"><a xlink:href="FMTsesmodel_8hpp.html" target="_top" xlink:title=" ">
<polygon fill="white" stroke="#666666" points="520.75,-168 395.25,-168 395.25,-136 520.75,-136 520.75,-168"/>
<text text-anchor="start" x="403.25" y="-154.5" font-family="Helvetica,sans-Serif" font-size="10.00">C:/Temp/out/FMT/Include</text>
<text text-anchor="middle" x="458" y="-142.5" font-family="Helvetica,sans-Serif" font-size="10.00">/FMTsesmodel.hpp</text>
</a>
</g>
</g>
<!-- Node6&#45;&gt;Node11 -->
<g id="edge10_Node000006_Node000011" class="edge">
<title>Node6&#45;&gt;Node11</title>
<g id="a_edge10_Node000006_Node000011"><a xlink:title=" ">
<path fill="none" stroke="#63b8ff" d="M547.14,-198.61C528.08,-188.86 505.65,-177.38 488.05,-168.38"/>
<polygon fill="#63b8ff" stroke="#63b8ff" points="545.26,-202.09 555.75,-203.53 548.44,-195.86 545.26,-202.09"/>
</a>
</g>
</g>
<!-- Node7&#45;&gt;Node8 -->
<g id="edge7_Node000007_Node000008" class="edge">
<title>Node7&#45;&gt;Node8</title>
<g id="a_edge7_Node000007_Node000008"><a xlink:title=" ">
<path fill="none" stroke="#63b8ff" d="M822,-124.89C822,-116.52 822,-107.54 822,-100.22"/>
<polygon fill="#63b8ff" stroke="#63b8ff" points="818.5,-124.69 822,-134.69 825.5,-124.69 818.5,-124.69"/>
</a>
</g>
</g>
<!-- Node7&#45;&gt;Node9 -->
<g id="edge8_Node000007_Node000009" class="edge">
<title>Node7&#45;&gt;Node9</title>
<g id="a_edge8_Node000007_Node000009"><a xlink:title=" ">
<path fill="none" stroke="#63b8ff" d="M748.02,-135.65C663.86,-119.66 577.83,-104.91 521.05,-95.4"/>
<polygon fill="#63b8ff" stroke="#63b8ff" points="747.32,-139.28 757.8,-137.71 748.64,-132.4 747.32,-139.28"/>
</a>
</g>
</g>
<!-- Node7&#45;&gt;Node10 -->
<g id="edge9_Node000007_Node000010" class="edge">
<title>Node7&#45;&gt;Node10</title>
<g id="a_edge9_Node000007_Node000010"><a xlink:title=" ">
<path fill="none" stroke="#63b8ff" d="M874.89,-131.82C902.35,-121.86 935.46,-109.85 961.28,-100.49"/>
<polygon fill="#63b8ff" stroke="#63b8ff" points="873.88,-128.83 865.67,-135.53 876.26,-135.41 873.88,-128.83"/>
</a>
</g>
</g>
<!-- Node11&#45;&gt;Node8 -->
<g id="edge13_Node000011_Node000008" class="edge">
<title>Node11&#45;&gt;Node8</title>
<g id="a_edge13_Node000011_Node000008"><a xlink:title=" ">
<path fill="none" stroke="#63b8ff" d="M531.42,-137.69C598.15,-125.59 695.56,-107.93 758.87,-96.45"/>
<polygon fill="#63b8ff" stroke="#63b8ff" points="531.2,-134.35 521.99,-139.58 532.45,-141.24 531.2,-134.35"/>
</a>
</g>
</g>
<!-- Node11&#45;&gt;Node9 -->
<g id="edge14_Node000011_Node000009" class="edge">
<title>Node11&#45;&gt;Node9</title>
<g id="a_edge14_Node000011_Node000009"><a xlink:title=" ">
<path fill="none" stroke="#63b8ff" d="M458,-124.89C458,-116.52 458,-107.54 458,-100.22"/>
<polygon fill="#63b8ff" stroke="#63b8ff" points="454.5,-124.69 458,-134.69 461.5,-124.69 454.5,-124.69"/>
</a>
</g>
</g>
<!-- Node11&#45;&gt;Node10 -->
<g id="edge15_Node000011_Node000010" class="edge">
<title>Node11&#45;&gt;Node10</title>
<g id="a_edge15_Node000011_Node000010"><a xlink:title=" ">
<path fill="none" stroke="#63b8ff" d="M532.01,-142.78C618.79,-133.04 766.93,-116.09 894,-100 909.2,-98.07 925.57,-95.9 940.91,-93.81"/>
<polygon fill="#63b8ff" stroke="#63b8ff" points="531.77,-139.4 522.22,-143.99 532.55,-146.35 531.77,-139.4"/>
</a>
</g>
</g>
<!-- Node11&#45;&gt;Node12 -->
<g id="edge11_Node000011_Node000012" class="edge">
<title>Node11&#45;&gt;Node12</title>
<g id="a_edge11_Node000011_Node000012"><a xlink:title=" ">
<path fill="none" stroke="#63b8ff" d="M402.39,-132.08C372.97,-122.07 337.29,-109.94 309.53,-100.49"/>
<polygon fill="#63b8ff" stroke="#63b8ff" points="400.92,-135.62 411.51,-135.53 403.17,-128.99 400.92,-135.62"/>
</a>
</g>
</g>
<!-- Node13 -->
<g id="Node000013" class="node">
<title>Node13</title>
<g id="a_Node000013"><a xlink:href="PYexportHeuristics_8hpp.html" target="_top" xlink:title=" ">
<polygon fill="white" stroke="#666666" points="235.75,-32 110.25,-32 110.25,0 235.75,0 235.75,-32"/>
<text text-anchor="start" x="118.25" y="-18.5" font-family="Helvetica,sans-Serif" font-size="10.00">C:/Temp/out/FMT/Include</text>
<text text-anchor="middle" x="173" y="-6.5" font-family="Helvetica,sans-Serif" font-size="10.00">/PYexportHeuristics.hpp</text>
</a>
</g>
</g>
<!-- Node12&#45;&gt;Node13 -->
<g id="edge12_Node000012_Node000013" class="edge">
<title>Node12&#45;&gt;Node13</title>
<g id="a_edge12_Node000012_Node000013"><a xlink:title=" ">
<path fill="none" stroke="#63b8ff" d="M234.24,-61.42C221.2,-51.96 206.2,-41.08 194.3,-32.45"/>
<polygon fill="#63b8ff" stroke="#63b8ff" points="231.74,-64.65 241.89,-67.69 235.85,-58.99 231.74,-64.65"/>
</a>
</g>
</g>
<!-- Node15&#45;&gt;Node13 -->
<g id="edge28_Node000015_Node000013" class="edge">
<title>Node15&#45;&gt;Node13</title>
<g id="a_edge28_Node000015_Node000013"><a xlink:title=" ">
<path fill="none" stroke="#63b8ff" d="M65.1,-196.83C30.22,-166.41 -21.33,-110.62 10,-68 32.82,-36.94 74.5,-24.27 110,-19.33"/>
<polygon fill="#63b8ff" stroke="#63b8ff" points="62.23,-199.84 72.12,-203.64 66.76,-194.5 62.23,-199.84"/>
</a>
</g>
</g>
<!-- Node16 -->
<g id="Node000016" class="node">
<title>Node16</title>
<g id="a_Node000016"><a xlink:href="FMToperatingareascheduler_8hpp.html" target="_top" xlink:title=" ">
<polygon fill="white" stroke="#666666" points="224.87,-168 67.12,-168 67.12,-136 224.87,-136 224.87,-168"/>
<text text-anchor="start" x="75.12" y="-154.5" font-family="Helvetica,sans-Serif" font-size="10.00">C:/Temp/out/FMT/Include</text>
<text text-anchor="middle" x="146" y="-142.5" font-family="Helvetica,sans-Serif" font-size="10.00">/FMToperatingareascheduler.hpp</text>
</a>
</g>
</g>
<!-- Node15&#45;&gt;Node16 -->
<g id="edge23_Node000015_Node000016" class="edge">
<title>Node15&#45;&gt;Node16</title>
<g id="a_edge23_Node000015_Node000016"><a xlink:title=" ">
<path fill="none" stroke="#63b8ff" d="M112.15,-195.15C119.36,-186.17 127.36,-176.21 133.77,-168.22"/>
<polygon fill="#63b8ff" stroke="#63b8ff" points="108.82,-192.7 105.29,-202.69 114.28,-197.09 108.82,-192.7"/>
</a>
</g>
</g>
<!-- Node17 -->
<g id="Node000017" class="node">
<title>Node17</title>
<g id="a_Node000017"><a xlink:href="RexportHeuristics_8hpp.html" target="_top" xlink:title=" ">
<polygon fill="white" stroke="#666666" points="144.75,-100 19.25,-100 19.25,-68 144.75,-68 144.75,-100"/>
<text text-anchor="start" x="27.25" y="-86.5" font-family="Helvetica,sans-Serif" font-size="10.00">C:/Temp/out/FMT/Include</text>
<text text-anchor="middle" x="82" y="-74.5" font-family="Helvetica,sans-Serif" font-size="10.00">/RexportHeuristics.hpp</text>
</a>
</g>
</g>
<!-- Node15&#45;&gt;Node17 -->
<g id="edge29_Node000015_Node000017" class="edge">
<title>Node15&#45;&gt;Node17</title>
<g id="a_edge29_Node000015_Node000017"><a xlink:title=" ">
<path fill="none" stroke="#63b8ff" d="M72.36,-195.28C66.55,-187.17 61,-177.69 58,-168 50.71,-144.5 62.61,-117.05 72.1,-100.35"/>
<polygon fill="#63b8ff" stroke="#63b8ff" points="70.04,-197 78.91,-202.79 75.59,-192.73 70.04,-197"/>
</a>
</g>
</g>
<!-- Node16&#45;&gt;Node9 -->
<g id="edge26_Node000016_Node000009" class="edge">
<title>Node16&#45;&gt;Node9</title>
<g id="a_edge26_Node000016_Node000009"><a xlink:title=" ">
<path fill="none" stroke="#63b8ff" d="M229.67,-133.3C281.59,-122.32 347.24,-108.43 394.8,-98.37"/>
<polygon fill="#63b8ff" stroke="#63b8ff" points="229.21,-130.03 220.15,-135.53 230.65,-136.88 229.21,-130.03"/>
</a>
</g>
</g>
<!-- Node16&#45;&gt;Node12 -->
<g id="edge24_Node000016_Node000012" class="edge">
<title>Node16&#45;&gt;Node12</title>
<g id="a_edge24_Node000016_Node000012"><a xlink:title=" ">
<path fill="none" stroke="#63b8ff" d="M182.94,-130.34C200.26,-120.65 220.56,-109.3 236.5,-100.38"/>
<polygon fill="#63b8ff" stroke="#63b8ff" points="181.68,-127.59 174.66,-135.53 185.1,-133.7 181.68,-127.59"/>
</a>
</g>
</g>
<!-- Node16&#45;&gt;Node13 -->
<g id="edge25_Node000016_Node000013" class="edge">
<title>Node16&#45;&gt;Node13</title>
<g id="a_edge25_Node000016_Node000013"><a xlink:title=" ">
<path fill="none" stroke="#63b8ff" d="M151.2,-125.19C156.76,-97.6 165.38,-54.8 169.94,-32.19"/>
<polygon fill="#63b8ff" stroke="#63b8ff" points="147.64,-124.13 149.09,-134.63 154.5,-125.52 147.64,-124.13"/>
</a>
</g>
</g>
<!-- Node16&#45;&gt;Node17 -->
<g id="edge27_Node000016_Node000017" class="edge">
<title>Node16&#45;&gt;Node17</title>
<g id="a_edge27_Node000016_Node000017"><a xlink:title=" ">
<path fill="none" stroke="#63b8ff" d="M123.68,-127.99C114.77,-118.79 104.74,-108.46 96.76,-100.22"/>
<polygon fill="#63b8ff" stroke="#63b8ff" points="120.68,-129.95 130.15,-134.69 125.7,-125.08 120.68,-129.95"/>
</a>
</g>
</g>
<!-- Node18&#45;&gt;Node3 -->
<g id="edge31_Node000018_Node000003" class="edge">
<title>Node18&#45;&gt;Node3</title>
<g id="a_edge31_Node000018_Node000003"><a xlink:title=" ">
<path fill="none" stroke="#63b8ff" d="M770.61,-383.02C770.94,-391.38 770.67,-400.36 769.8,-407.69"/>
<polygon fill="#63b8ff" stroke="#63b8ff" points="774.04,-382.93 769.79,-373.22 767.06,-383.46 774.04,-382.93"/>
</a>
</g>
</g>
<!-- Node19&#45;&gt;Node8 -->
<g id="edge42_Node000019_Node000008" class="edge">
<title>Node19&#45;&gt;Node8</title>
<g id="a_edge42_Node000019_Node000008"><a xlink:title=" ">
<path fill="none" stroke="#63b8ff" d="M971.34,-197.37C958.97,-188.47 944.66,-177.93 932,-168 914.62,-154.38 911.47,-149.5 894,-136 877.88,-123.54 859.07,-110.26 844.73,-100.38"/>
<polygon fill="#63b8ff" stroke="#63b8ff" points="968.78,-200.56 978.95,-203.54 972.85,-194.87 968.78,-200.56"/>
</a>
</g>
</g>
<!-- Node19&#45;&gt;Node9 -->
<g id="edge43_Node000019_Node000009" class="edge">
<title>Node19&#45;&gt;Node9</title>
<g id="a_edge43_Node000019_Node000009"><a xlink:title=" ">
<path fill="none" stroke="#63b8ff" d="M928.4,-217.86C847.45,-214.71 714.48,-203.9 606,-168 557.61,-151.99 507.03,-119.71 479.32,-100.47"/>
<polygon fill="#63b8ff" stroke="#63b8ff" points="927.86,-221.38 937.98,-218.24 928.11,-214.38 927.86,-221.38"/>
</a>
</g>
</g>
<!-- Node19&#45;&gt;Node10 -->
<g id="edge44_Node000019_Node000010" class="edge">
<title>Node19&#45;&gt;Node10</title>
<g id="a_edge44_Node000019_Node000010"><a xlink:title=" ">
<path fill="none" stroke="#63b8ff" d="M1072.64,-199.1C1087.03,-191.7 1100.39,-181.63 1109,-168 1116.59,-155.97 1116.54,-148.05 1109,-136 1098.62,-119.42 1081.15,-108.1 1063.4,-100.42"/>
<polygon fill="#63b8ff" stroke="#63b8ff" points="1071.63,-196.18 1064.07,-203.59 1074.61,-202.51 1071.63,-196.18"/>
</a>
</g>
</g>
<!-- Node20 -->
<g id="Node000020" class="node">
<title>Node20</title>
<g id="a_Node000020"><a xlink:href="FMTlpmodel_8hpp.html" target="_top" xlink:title=" ">
<polygon fill="white" stroke="#666666" points="740.75,-168 615.25,-168 615.25,-136 740.75,-136 740.75,-168"/>
<text text-anchor="start" x="623.25" y="-154.5" font-family="Helvetica,sans-Serif" font-size="10.00">C:/Temp/out/FMT/Include</text>
<text text-anchor="middle" x="678" y="-142.5" font-family="Helvetica,sans-Serif" font-size="10.00">/FMTlpmodel.hpp</text>
</a>
</g>
</g>
<!-- Node19&#45;&gt;Node20 -->
<g id="edge33_Node000019_Node000020" class="edge">
<title>Node19&#45;&gt;Node20</title>
<g id="a_edge33_Node000019_Node000020"><a xlink:title=" ">
<path fill="none" stroke="#63b8ff" d="M928.04,-204.15C877.81,-194.03 809.88,-180.3 750,-168 747.12,-167.41 744.18,-166.8 741.21,-166.19"/>
<polygon fill="#63b8ff" stroke="#63b8ff" points="927.31,-207.77 937.8,-206.31 928.69,-200.91 927.31,-207.77"/>
</a>
</g>
</g>
<!-- Node21 -->
<g id="Node000021" class="node">
<title>Node21</title>
<g id="a_Node000021"><a xlink:href="FMTnssmodel_8hpp.html" target="_top" xlink:title=" ">
<polygon fill="white" stroke="#666666" points="1066.75,-168 941.25,-168 941.25,-136 1066.75,-136 1066.75,-168"/>
<text text-anchor="start" x="949.25" y="-154.5" font-family="Helvetica,sans-Serif" font-size="10.00">C:/Temp/out/FMT/Include</text>
<text text-anchor="middle" x="1004" y="-142.5" font-family="Helvetica,sans-Serif" font-size="10.00">/FMTnssmodel.hpp</text>
</a>
</g>
</g>
<!-- Node19&#45;&gt;Node21 -->
<g id="edge38_Node000019_Node000021" class="edge">
<title>Node19&#45;&gt;Node21</title>
<g id="a_edge38_Node000019_Node000021"><a xlink:title=" ">
<path fill="none" stroke="#63b8ff" d="M1002.79,-192.89C1003.04,-184.52 1003.31,-175.54 1003.54,-168.22"/>
<polygon fill="#63b8ff" stroke="#63b8ff" points="999.27,-192.59 1002.46,-202.69 1006.26,-192.8 999.27,-192.59"/>
</a>
</g>
</g>
<!-- Node20&#45;&gt;Node8 -->
<g id="edge35_Node000020_Node000008" class="edge">
<title>Node20&#45;&gt;Node8</title>
<g id="a_edge35_Node000020_Node000008"><a xlink:title=" ">
<path fill="none" stroke="#63b8ff" d="M721.61,-131.01C743.07,-121.17 768.54,-109.5 788.45,-100.38"/>
<polygon fill="#63b8ff" stroke="#63b8ff" points="720.39,-128.18 712.76,-135.53 723.31,-134.54 720.39,-128.18"/>
</a>
</g>
</g>
<!-- Node20&#45;&gt;Node9 -->
<g id="edge36_Node000020_Node000009" class="edge">
<title>Node20&#45;&gt;Node9</title>
<g id="a_edge36_Node000020_Node000009"><a xlink:title=" ">
<path fill="none" stroke="#63b8ff" d="M616.24,-132.47C582.63,-122.39 541.53,-110.06 509.63,-100.49"/>
<polygon fill="#63b8ff" stroke="#63b8ff" points="614.83,-136 625.42,-135.53 616.84,-129.3 614.83,-136"/>
</a>
</g>
</g>
<!-- Node20&#45;&gt;Node10 -->
<g id="edge37_Node000020_Node000010" class="edge">
<title>Node20&#45;&gt;Node10</title>
<g id="a_edge37_Node000020_Node000010"><a xlink:title=" ">
<path fill="none" stroke="#63b8ff" d="M751.59,-135.68C821.92,-121.32 891.82,-107.32 940.82,-97.55"/>
<polygon fill="#63b8ff" stroke="#63b8ff" points="751.3,-132.37 742.21,-137.8 752.71,-139.23 751.3,-132.37"/>
</a>
</g>
</g>
<!-- Node20&#45;&gt;Node12 -->
<g id="edge34_Node000020_Node000012" class="edge">
<title>Node20&#45;&gt;Node12</title>
<g id="a_edge34_Node000020_Node000012"><a xlink:title=" ">
<path fill="none" stroke="#63b8ff" d="M604.3,-139.25C525.44,-126.68 401.66,-106.95 327.13,-95.06"/>
<polygon fill="#63b8ff" stroke="#63b8ff" points="603.69,-142.86 614.12,-140.98 604.79,-135.95 603.69,-142.86"/>
</a>
</g>
</g>
<!-- Node21&#45;&gt;Node8 -->
<g id="edge39_Node000021_Node000008" class="edge">
<title>Node21&#45;&gt;Node8</title>
<g id="a_edge39_Node000021_Node000008"><a xlink:title=" ">
<path fill="none" stroke="#63b8ff" d="M951.1,-131.82C923.64,-121.86 890.53,-109.85 864.72,-100.49"/>
<polygon fill="#63b8ff" stroke="#63b8ff" points="949.73,-135.41 960.33,-135.53 952.12,-128.83 949.73,-135.41"/>
</a>
</g>
</g>
<!-- Node21&#45;&gt;Node9 -->
<g id="edge40_Node000021_Node000009" class="edge">
<title>Node21&#45;&gt;Node9</title>
<g id="a_edge40_Node000021_Node000009"><a xlink:title=" ">
<path fill="none" stroke="#63b8ff" d="M930.35,-140.76C918.21,-139.13 905.75,-137.49 894,-136 761.5,-119.22 606.08,-101.51 521.22,-92.01"/>
<polygon fill="#63b8ff" stroke="#63b8ff" points="929.53,-144.32 939.91,-142.19 930.47,-137.38 929.53,-144.32"/>
</a>
</g>
</g>
<!-- Node21&#45;&gt;Node10 -->
<g id="edge41_Node000021_Node000010" class="edge">
<title>Node21&#45;&gt;Node10</title>
<g id="a_edge41_Node000021_Node000010"><a xlink:title=" ">
<path fill="none" stroke="#63b8ff" d="M1004,-124.89C1004,-116.52 1004,-107.54 1004,-100.22"/>
<polygon fill="#63b8ff" stroke="#63b8ff" points="1000.5,-124.69 1004,-134.69 1007.5,-124.69 1000.5,-124.69"/>
</a>
</g>
</g>
</g>
</svg>

<g id="navigator" transform="translate(0 0)" fill="#404254">
  <rect fill="#f2f5e9" fill-opacity="0.5" stroke="#606060" stroke-width=".5" x="0" y="0" width="60" height="60"/>
  <use id="zoomplus" xlink:href="#zoomPlus" x="17" y="9" onmousedown="handleZoom(evt,'in')"/>
  <use id="zoomminus" xlink:href="#zoomMin" x="42" y="9" onmousedown="handleZoom(evt,'out')"/>
  <use id="reset" xlink:href="#resetDef" x="30" y="36" onmousedown="handleReset()"/>
   <use id="arrowup" xlink:href="#arrowUp" x="0" y="0" onmousedown="handlePan(0,-1)"/>
  <use id="arrowright" xlink:href="#arrowRight" x="0" y="0" onmousedown="handlePan(1,0)"/>
  <use id="arrowdown" xlink:href="#arrowDown" x="0" y="0" onmousedown="handlePan(0,1)"/>
  <use id="arrowleft" xlink:href="#arrowLeft" x="0" y="0" onmousedown="handlePan(-1,0)"/>
</g>
<svg viewBox="0 0 15 15" width="100%" height="30px" preserveAspectRatio="xMaxYMin meet">
 <g id="arrow_out" transform="scale(0.3 0.3)">
  <a xlink:href="FMTyields_8hpp__dep__incl_org.svg" target="_base">
   <rect id="button" ry="5" rx="5" y="6" x="6" height="38" width="38"
        fill="#f2f5e9" fill-opacity="0.5" stroke="#606060" stroke-width="1.0"/>
   <path id="arrow"
     d="M 11.500037,31.436501 C 11.940474,20.09759 22.043105,11.32322 32.158766,21.979434 L 37.068811,17.246167 C 37.068811,17.246167 37.088388,32 37.088388,32 L 22.160133,31.978069 C 22.160133,31.978069 26.997745,27.140456 26.997745,27.140456 C 18.528582,18.264221 13.291696,25.230495 11.500037,31.436501 z"
     style="fill:#404040;"/>
  </a>
 </g>
</svg>

<style type='text/css'>
<![CDATA[
[data-mouse-over-selected='false'] { opacity: 0.7; }
[data-mouse-over-selected='true']  { opacity: 1.0; }
]]>
</style>
<script type="application/ecmascript"><![CDATA[
document.addEventListener('DOMContentLoaded', (event) => {
  highlightEdges();
  highlightAdjacentNodes();
});
]]></script>
</svg>
