<?xml version="1.0" encoding="UTF-8" standalone="no"?>
<!DOCTYPE svg PUBLIC "-//W3C//DTD SVG 1.1//EN"
 "http://www.w3.org/Graphics/SVG/1.1/DTD/svg11.dtd">
<!-- Generated by graphviz version 10.0.1 (20240210.2158)
 -->
<!-- Title: D:/FMT/Include/FMTyieldmodeldecisiontree.hpp Pages: 1 -->
<!--zoomable 288 -->
<svg id="main" version="1.1" xmlns="http://www.w3.org/2000/svg" xmlns:xlink="http://www.w3.org/1999/xlink" xml:space="preserve" onload="init(evt)">
<style type="text/css"><![CDATA[
.edge:hover path { stroke: red; }
.edge:hover polygon { stroke: red; fill: red; }
]]></style>
<script type="text/javascript"><![CDATA[
var edges = document.getElementsByTagName('g');
if (edges && edges.length) {
  for (var i=0;i<edges.length;i++) {
    if (edges[i].id.substr(0,4)=='edge') {
      edges[i].setAttribute('class','edge');
    }
  }
}
]]></script>
        <defs>
                <circle id="rim" cx="0" cy="0" r="7"/>
                <circle id="rim2" cx="0" cy="0" r="3.5"/>
                <g id="zoomPlus">
                        <use xlink:href="#rim" fill="#404040">
                                <set attributeName="fill" to="#808080" begin="zoomplus.mouseover" end="zoomplus.mouseout"/>
                        </use>
                        <path d="M-4,0h8M0,-4v8" fill="none" stroke="white" stroke-width="1.5" pointer-events="none"/>
                </g>
                <g id="zoomMin">
                        <use xlink:href="#rim" fill="#404040">
                                <set attributeName="fill" to="#808080" begin="zoomminus.mouseover" end="zoomminus.mouseout"/>
                        </use>
                        <path d="M-4,0h8" fill="none" stroke="white" stroke-width="1.5" pointer-events="none"/>
                </g>
                <g id="dirArrow">
                        <path fill="none" stroke="white" stroke-width="1.5" d="M0,-3.0v7 M-2.5,-0.5L0,-3.0L2.5,-0.5"/>
                </g>
               <g id="resetDef">
                       <use xlink:href="#rim2" fill="#404040">
                               <set attributeName="fill" to="#808080" begin="reset.mouseover" end="reset.mouseout"/>
                       </use>
               </g>
        </defs>

<script type="text/javascript">
var viewWidth = 932;
var viewHeight = 288;
var sectionId = 'dynsection-0';
</script>
<script xlink:href="svgpan.js"/>
<svg id="graph" class="graph">
<g id="viewport">
<title>D:/FMT/Include/FMTyieldmodeldecisiontree.hpp</title>
<!-- Node1 -->
<g id="node1" class="node">
<title>Node1</title>
<g id="a_node1"><a xlink:title=" ">
<polygon fill="#999999" stroke="#666666" points="846.51,-280 624.26,-280 624.26,-260 846.51,-260 846.51,-280"/>
<text text-anchor="middle" x="735.38" y="-266.5" font-family="Helvetica,sans-Serif" font-size="10.00">D:/FMT/Include/FMTyieldmodeldecisiontree.hpp</text>
</a>
</g>
</g>
<!-- Node2 -->
<g id="node2" class="node">
<title>Node2</title>
<g id="a_node2"><a xlink:href="FMTyieldmodel_8hpp.html" target="_top" xlink:title=" ">
<polygon fill="white" stroke="#666666" points="543.76,-218 443.01,-218 443.01,-198 543.76,-198 543.76,-218"/>
<text text-anchor="middle" x="493.38" y="-204.5" font-family="Helvetica,sans-Serif" font-size="10.00">FMTyieldmodel.hpp</text>
</a>
</g>
</g>
<!-- Node1&#45;&gt;Node2 -->
<g id="edge1" class="edge">
<title>Node1&#45;&gt;Node2</title>
<path fill="none" stroke="#63b8ff" d="M697.31,-259.56C655.59,-249.22 588.52,-232.59 542.78,-221.25"/>
<polygon fill="#63b8ff" stroke="#63b8ff" points="543.66,-217.86 533.11,-218.85 541.97,-224.65 543.66,-217.86"/>
</g>
<!-- Node9 -->
<g id="node9" class="node">
<title>Node9</title>
<g id="a_node9"><a xlink:title=" ">
<polygon fill="#e0e0e0" stroke="#999999" points="238.38,-20 198.38,-20 198.38,0 238.38,0 238.38,-20"/>
<text text-anchor="middle" x="218.38" y="-6.5" font-family="Helvetica,sans-Serif" font-size="10.00">string</text>
</a>
</g>
</g>
<!-- Node1&#45;&gt;Node9 -->
<g id="edge19" class="edge">
<title>Node1&#45;&gt;Node9</title>
<path fill="none" stroke="#63b8ff" d="M634.54,-259.51C452.7,-240.03 81.89,-188.63 8.38,-88 -37.53,-25.14 117.23,-13.51 186.54,-11.42"/>
<polygon fill="#63b8ff" stroke="#63b8ff" points="186.61,-14.92 196.53,-11.18 186.44,-7.93 186.61,-14.92"/>
</g>
<!-- Node11 -->
<g id="node11" class="node">
<title>Node11</title>
<g id="a_node11"><a xlink:title=" ">
<polygon fill="#e0e0e0" stroke="#999999" points="746.01,-20 694.76,-20 694.76,0 746.01,0 746.01,-20"/>
<text text-anchor="middle" x="720.38" y="-6.5" font-family="Helvetica,sans-Serif" font-size="10.00">memory</text>
</a>
</g>
</g>
<!-- Node1&#45;&gt;Node11 -->
<g id="edge20" class="edge">
<title>Node1&#45;&gt;Node11</title>
<path fill="none" stroke="#63b8ff" d="M740.01,-259.64C754.46,-229.07 795.97,-129.83 765.38,-56 760.74,-44.79 751.8,-34.91 743.1,-27.29"/>
<polygon fill="#63b8ff" stroke="#63b8ff" points="745.47,-24.71 735.49,-21.15 741.08,-30.16 745.47,-24.71"/>
</g>
<!-- Node14 -->
<g id="node14" class="node">
<title>Node14</title>
<g id="a_node14"><a xlink:title=" ">
<polygon fill="#e0e0e0" stroke="#999999" points="756.13,-82 714.63,-82 714.63,-62 756.13,-62 756.13,-82"/>
<text text-anchor="middle" x="735.38" y="-68.5" font-family="Helvetica,sans-Serif" font-size="10.00">vector</text>
</a>
</g>
</g>
<!-- Node1&#45;&gt;Node14 -->
<g id="edge18" class="edge">
<title>Node1&#45;&gt;Node14</title>
<path fill="none" stroke="#63b8ff" d="M735.38,-259.55C735.38,-229.54 735.38,-135.92 735.38,-93.85"/>
<polygon fill="#63b8ff" stroke="#63b8ff" points="738.88,-93.87 735.38,-83.87 731.88,-93.87 738.88,-93.87"/>
</g>
<!-- Node17 -->
<g id="node17" class="node">
<title>Node17</title>
<g id="a_node17"><a xlink:title=" ">
<polygon fill="#e0e0e0" stroke="#999999" points="924.01,-224 812.76,-224 812.76,-192 924.01,-192 924.01,-224"/>
<text text-anchor="start" x="820.76" y="-210.5" font-family="Helvetica,sans-Serif" font-size="10.00">boost/thread/recursive</text>
<text text-anchor="middle" x="868.38" y="-198.5" font-family="Helvetica,sans-Serif" font-size="10.00">_mutex.hpp</text>
</a>
</g>
</g>
<!-- Node1&#45;&gt;Node17 -->
<g id="edge21" class="edge">
<title>Node1&#45;&gt;Node17</title>
<path fill="none" stroke="#63b8ff" d="M756.17,-259.62C774.22,-251.48 800.99,-239.4 823.86,-229.09"/>
<polygon fill="#63b8ff" stroke="#63b8ff" points="824.99,-232.42 832.67,-225.11 822.11,-226.03 824.99,-232.42"/>
</g>
<!-- Node3 -->
<g id="node3" class="node">
<title>Node3</title>
<g id="a_node3"><a xlink:href="FMTobject_8hpp.html" target="_top" xlink:title=" ">
<polygon fill="white" stroke="#666666" points="480.63,-150 400.13,-150 400.13,-130 480.63,-130 480.63,-150"/>
<text text-anchor="middle" x="440.38" y="-136.5" font-family="Helvetica,sans-Serif" font-size="10.00">FMTobject.hpp</text>
</a>
</g>
</g>
<!-- Node2&#45;&gt;Node3 -->
<g id="edge2" class="edge">
<title>Node2&#45;&gt;Node3</title>
<path fill="none" stroke="#63b8ff" d="M485.79,-197.54C477.76,-187.55 464.9,-171.53 454.91,-159.09"/>
<polygon fill="#63b8ff" stroke="#63b8ff" points="457.9,-157.22 448.91,-151.62 452.44,-161.61 457.9,-157.22"/>
</g>
<!-- Node5 -->
<g id="node5" class="node">
<title>Node5</title>
<g id="a_node5"><a xlink:title=" ">
<polygon fill="#e0e0e0" stroke="#999999" points="111.76,-88 17.01,-88 17.01,-56 111.76,-56 111.76,-88"/>
<text text-anchor="start" x="25.01" y="-74.5" font-family="Helvetica,sans-Serif" font-size="10.00">boost/serialization</text>
<text text-anchor="middle" x="64.38" y="-62.5" font-family="Helvetica,sans-Serif" font-size="10.00">/nvp.hpp</text>
</a>
</g>
</g>
<!-- Node2&#45;&gt;Node5 -->
<g id="edge17" class="edge">
<title>Node2&#45;&gt;Node5</title>
<path fill="none" stroke="#63b8ff" d="M463.22,-197.58C392.57,-175.51 215.37,-120.16 122.79,-91.24"/>
<polygon fill="#63b8ff" stroke="#63b8ff" points="123.96,-87.94 113.37,-88.3 121.87,-94.62 123.96,-87.94"/>
</g>
<!-- Node16 -->
<g id="node16" class="node">
<title>Node16</title>
<g id="a_node16"><a xlink:title=" ">
<polygon fill="#e0e0e0" stroke="#999999" points="593.76,-156 499.01,-156 499.01,-124 593.76,-124 593.76,-156"/>
<text text-anchor="start" x="507.01" y="-142.5" font-family="Helvetica,sans-Serif" font-size="10.00">boost/serialization</text>
<text text-anchor="middle" x="546.38" y="-130.5" font-family="Helvetica,sans-Serif" font-size="10.00">/serialization.hpp</text>
</a>
</g>
</g>
<!-- Node2&#45;&gt;Node16 -->
<g id="edge16" class="edge">
<title>Node2&#45;&gt;Node16</title>
<path fill="none" stroke="#63b8ff" d="M500.98,-197.54C507.73,-189.13 517.9,-176.47 526.91,-165.25"/>
<polygon fill="#63b8ff" stroke="#63b8ff" points="529.62,-167.47 533.15,-157.48 524.16,-163.09 529.62,-167.47"/>
</g>
<!-- Node4 -->
<g id="node4" class="node">
<title>Node4</title>
<g id="a_node4"><a xlink:title=" ">
<polygon fill="#e0e0e0" stroke="#999999" points="430.76,-88 336.01,-88 336.01,-56 430.76,-56 430.76,-88"/>
<text text-anchor="start" x="344.01" y="-74.5" font-family="Helvetica,sans-Serif" font-size="10.00">boost/serialization</text>
<text text-anchor="middle" x="383.38" y="-62.5" font-family="Helvetica,sans-Serif" font-size="10.00">/shared_ptr.hpp</text>
</a>
</g>
</g>
<!-- Node3&#45;&gt;Node4 -->
<g id="edge3" class="edge">
<title>Node3&#45;&gt;Node4</title>
<path fill="none" stroke="#63b8ff" d="M432.22,-129.54C424.88,-121.05 413.8,-108.21 404.04,-96.92"/>
<polygon fill="#63b8ff" stroke="#63b8ff" points="406.77,-94.73 397.59,-89.45 401.48,-99.3 406.77,-94.73"/>
</g>
<!-- Node3&#45;&gt;Node5 -->
<g id="edge4" class="edge">
<title>Node3&#45;&gt;Node5</title>
<path fill="none" stroke="#63b8ff" d="M399.72,-133.9C340.79,-126.2 228.02,-110.35 123.07,-88.45"/>
<polygon fill="#63b8ff" stroke="#63b8ff" points="123.95,-85.06 113.44,-86.42 122.5,-91.91 123.95,-85.06"/>
</g>
<!-- Node6 -->
<g id="node6" class="node">
<title>Node6</title>
<g id="a_node6"><a xlink:title=" ">
<polygon fill="#e0e0e0" stroke="#999999" points="543.76,-88 449.01,-88 449.01,-56 543.76,-56 543.76,-88"/>
<text text-anchor="start" x="457.01" y="-74.5" font-family="Helvetica,sans-Serif" font-size="10.00">boost/serialization</text>
<text text-anchor="middle" x="496.38" y="-62.5" font-family="Helvetica,sans-Serif" font-size="10.00">/export.hpp</text>
</a>
</g>
</g>
<!-- Node3&#45;&gt;Node6 -->
<g id="edge5" class="edge">
<title>Node3&#45;&gt;Node6</title>
<path fill="none" stroke="#63b8ff" d="M448.41,-129.54C455.61,-121.05 466.51,-108.21 476.09,-96.92"/>
<polygon fill="#63b8ff" stroke="#63b8ff" points="478.62,-99.34 482.42,-89.46 473.28,-94.82 478.62,-99.34"/>
</g>
<!-- Node7 -->
<g id="node7" class="node">
<title>Node7</title>
<g id="a_node7"><a xlink:href="FMTexception_8hpp.html" target="_top" xlink:title=" ">
<polygon fill="white" stroke="#666666" points="658.51,-82 562.26,-82 562.26,-62 658.51,-62 658.51,-82"/>
<text text-anchor="middle" x="610.38" y="-68.5" font-family="Helvetica,sans-Serif" font-size="10.00">FMTexception.hpp</text>
</a>
</g>
</g>
<!-- Node3&#45;&gt;Node7 -->
<g id="edge6" class="edge">
<title>Node3&#45;&gt;Node7</title>
<path fill="none" stroke="#63b8ff" d="M464.74,-129.54C493.78,-118.27 542.51,-99.35 575.53,-86.53"/>
<polygon fill="#63b8ff" stroke="#63b8ff" points="576.61,-89.87 584.66,-82.99 574.07,-83.34 576.61,-89.87"/>
</g>
<!-- Node3&#45;&gt;Node11 -->
<g id="edge12" class="edge">
<title>Node3&#45;&gt;Node11</title>
<path fill="none" stroke="#63b8ff" d="M470.4,-129.51C476.96,-127.58 483.88,-125.63 490.38,-124 568.24,-104.45 600.43,-132.28 667.38,-88 688.48,-74.05 703.54,-48.54 712.08,-30.72"/>
<polygon fill="#63b8ff" stroke="#63b8ff" points="715.23,-32.26 716.14,-21.7 708.85,-29.39 715.23,-32.26"/>
</g>
<!-- Node13 -->
<g id="node13" class="node">
<title>Node13</title>
<g id="a_node13"><a xlink:title=" ">
<polygon fill="#e0e0e0" stroke="#999999" points="175.01,-82 129.76,-82 129.76,-62 175.01,-62 175.01,-82"/>
<text text-anchor="middle" x="152.38" y="-68.5" font-family="Helvetica,sans-Serif" font-size="10.00">chrono</text>
</a>
</g>
</g>
<!-- Node3&#45;&gt;Node13 -->
<g id="edge13" class="edge">
<title>Node3&#45;&gt;Node13</title>
<path fill="none" stroke="#63b8ff" d="M399.7,-133.99C348.54,-126.99 258.44,-112.33 184.38,-88 183.22,-87.62 182.04,-87.2 180.86,-86.76"/>
<polygon fill="#63b8ff" stroke="#63b8ff" points="182.32,-83.58 171.75,-82.93 179.61,-90.04 182.32,-83.58"/>
</g>
<!-- Node3&#45;&gt;Node14 -->
<g id="edge14" class="edge">
<title>Node3&#45;&gt;Node14</title>
<path fill="none" stroke="#63b8ff" d="M469.84,-129.52C476.55,-127.54 483.68,-125.57 490.38,-124 582.57,-102.35 609.57,-114.84 700.38,-88 701.97,-87.53 703.58,-87.01 705.19,-86.45"/>
<polygon fill="#63b8ff" stroke="#63b8ff" points="706.22,-89.81 714.28,-82.94 703.69,-83.28 706.22,-89.81"/>
</g>
<!-- Node15 -->
<g id="node15" class="node">
<title>Node15</title>
<g id="a_node15"><a xlink:title=" ">
<polygon fill="#e0e0e0" stroke="#999999" points="317.76,-88 193.01,-88 193.01,-56 317.76,-56 317.76,-88"/>
<text text-anchor="start" x="201.01" y="-74.5" font-family="Helvetica,sans-Serif" font-size="10.00">boost/dll/runtime_symbol</text>
<text text-anchor="middle" x="255.38" y="-62.5" font-family="Helvetica,sans-Serif" font-size="10.00">_info.hpp</text>
</a>
</g>
</g>
<!-- Node3&#45;&gt;Node15 -->
<g id="edge15" class="edge">
<title>Node3&#45;&gt;Node15</title>
<path fill="none" stroke="#63b8ff" d="M413.88,-129.54C386.74,-119.86 343.79,-104.54 309.45,-92.29"/>
<polygon fill="#63b8ff" stroke="#63b8ff" points="310.65,-89 300.05,-88.94 308.3,-95.59 310.65,-89"/>
</g>
<!-- Node8 -->
<g id="node8" class="node">
<title>Node8</title>
<g id="a_node8"><a xlink:title=" ">
<polygon fill="#e0e0e0" stroke="#999999" points="605.38,-20 547.38,-20 547.38,0 605.38,0 605.38,-20"/>
<text text-anchor="middle" x="576.38" y="-6.5" font-family="Helvetica,sans-Serif" font-size="10.00">exception</text>
</a>
</g>
</g>
<!-- Node7&#45;&gt;Node8 -->
<g id="edge7" class="edge">
<title>Node7&#45;&gt;Node8</title>
<path fill="none" stroke="#63b8ff" d="M605.07,-61.62C600.3,-53.21 593.16,-40.6 587.19,-30.07"/>
<polygon fill="#63b8ff" stroke="#63b8ff" points="590.27,-28.4 582.29,-21.43 584.18,-31.86 590.27,-28.4"/>
</g>
<!-- Node7&#45;&gt;Node9 -->
<g id="edge8" class="edge">
<title>Node7&#45;&gt;Node9</title>
<path fill="none" stroke="#63b8ff" d="M576.5,-61.51C568.62,-59.51 560.24,-57.54 552.38,-56 442.26,-34.42 309.68,-19.92 250.1,-14"/>
<polygon fill="#63b8ff" stroke="#63b8ff" points="250.66,-10.54 240.36,-13.05 249.97,-17.5 250.66,-10.54"/>
</g>
<!-- Node10 -->
<g id="node10" class="node">
<title>Node10</title>
<g id="a_node10"><a xlink:title=" ">
<polygon fill="#e0e0e0" stroke="#999999" points="677.13,-20 623.63,-20 623.63,0 677.13,0 677.13,-20"/>
<text text-anchor="middle" x="650.38" y="-6.5" font-family="Helvetica,sans-Serif" font-size="10.00">iostream</text>
</a>
</g>
</g>
<!-- Node7&#45;&gt;Node10 -->
<g id="edge9" class="edge">
<title>Node7&#45;&gt;Node10</title>
<path fill="none" stroke="#63b8ff" d="M616.63,-61.62C622.36,-53.03 631.01,-40.07 638.11,-29.41"/>
<polygon fill="#63b8ff" stroke="#63b8ff" points="640.83,-31.63 643.47,-21.37 635.01,-27.75 640.83,-31.63"/>
</g>
<!-- Node7&#45;&gt;Node11 -->
<g id="edge10" class="edge">
<title>Node7&#45;&gt;Node11</title>
<path fill="none" stroke="#63b8ff" d="M627.57,-61.62C645.17,-52.03 672.78,-36.97 693.31,-25.77"/>
<polygon fill="#63b8ff" stroke="#63b8ff" points="694.89,-28.9 701.99,-21.03 691.53,-22.75 694.89,-28.9"/>
</g>
<!-- Node12 -->
<g id="node12" class="node">
<title>Node12</title>
<g id="a_node12"><a xlink:href="FMTutility_8hpp.html" target="_top" xlink:title=" ">
<polygon fill="white" stroke="#666666" points="529.13,-20 451.63,-20 451.63,0 529.13,0 529.13,-20"/>
<text text-anchor="middle" x="490.38" y="-6.5" font-family="Helvetica,sans-Serif" font-size="10.00">FMTutility.hpp</text>
</a>
</g>
</g>
<!-- Node7&#45;&gt;Node12 -->
<g id="edge11" class="edge">
<title>Node7&#45;&gt;Node12</title>
<path fill="none" stroke="#63b8ff" d="M591.63,-61.62C572.17,-51.89 541.49,-36.55 519,-25.31"/>
<polygon fill="#63b8ff" stroke="#63b8ff" points="520.87,-22.33 510.36,-20.99 517.74,-28.59 520.87,-22.33"/>
</g>
</g>
</svg>
        <g id="navigator" transform="translate(0 0)" fill="#404254">
                <rect fill="#f2f5e9" fill-opacity="0.5" stroke="#606060" stroke-width=".5" x="0" y="0" width="60" height="60"/>
                <use id="zoomplus" xlink:href="#zoomPlus" x="17" y="9" onmousedown="handleZoom(evt,'in')"/>
                <use id="zoomminus" xlink:href="#zoomMin" x="42" y="9" onmousedown="handleZoom(evt,'out')"/>
                <use id="reset" xlink:href="#resetDef" x="30" y="36" onmousedown="handleReset()"/>
                <g id="arrowUp" xlink:href="#dirArrow" transform="translate(30 24)" onmousedown="handlePan(0,-1)">
                  <use xlink:href="#rim" fill="#404040">
                        <set attributeName="fill" to="#808080" begin="arrowUp.mouseover" end="arrowUp.mouseout"/>
                  </use>
                  <path fill="none" stroke="white" stroke-width="1.5" d="M0,-3.0v7 M-2.5,-0.5L0,-3.0L2.5,-0.5"/>
                </g>
                <g id="arrowRight" xlink:href="#dirArrow" transform="rotate(90) translate(36 -43)" onmousedown="handlePan(1,0)">
                  <use xlink:href="#rim" fill="#404040">
                        <set attributeName="fill" to="#808080" begin="arrowRight.mouseover" end="arrowRight.mouseout"/>
                  </use>
                  <path fill="none" stroke="white" stroke-width="1.5" d="M0,-3.0v7 M-2.5,-0.5L0,-3.0L2.5,-0.5"/>
                </g>
                <g id="arrowDown" xlink:href="#dirArrow" transform="rotate(180) translate(-30 -48)" onmousedown="handlePan(0,1)">
                  <use xlink:href="#rim" fill="#404040">
                        <set attributeName="fill" to="#808080" begin="arrowDown.mouseover" end="arrowDown.mouseout"/>
                  </use>
                  <path fill="none" stroke="white" stroke-width="1.5" d="M0,-3.0v7 M-2.5,-0.5L0,-3.0L2.5,-0.5"/>
                </g>
                <g id="arrowLeft" xlink:href="#dirArrow" transform="rotate(270) translate(-36 17)" onmousedown="handlePan(-1,0)">
                  <use xlink:href="#rim" fill="#404040">
                        <set attributeName="fill" to="#808080" begin="arrowLeft.mouseover" end="arrowLeft.mouseout"/>
                  </use>
                  <path fill="none" stroke="white" stroke-width="1.5" d="M0,-3.0v7 M-2.5,-0.5L0,-3.0L2.5,-0.5"/>
                </g>
        </g>
        <svg viewBox="0 0 15 15" width="100%" height="30px" preserveAspectRatio="xMaxYMin meet">
         <g id="arrow_out" transform="scale(0.3 0.3)">
          <a xlink:href="FMTyieldmodeldecisiontree_8hpp__incl_org.svg" target="_base">
           <rect id="button" ry="5" rx="5" y="6" x="6" height="38" width="38"
                fill="#f2f5e9" fill-opacity="0.5" stroke="#606060" stroke-width="1.0"/>
           <path id="arrow"
             d="M 11.500037,31.436501 C 11.940474,20.09759 22.043105,11.32322 32.158766,21.979434 L 37.068811,17.246167 C 37.068811,17.246167 37.088388,32 37.088388,32 L 22.160133,31.978069 C 22.160133,31.978069 26.997745,27.140456 26.997745,27.140456 C 18.528582,18.264221 13.291696,25.230495 11.500037,31.436501 z"
             style="fill:#404040;"/>
          </a>
         </g>
        </svg>
</svg>
