<?xml version="1.0" encoding="UTF-8" standalone="no"?>
<!DOCTYPE svg PUBLIC "-//W3C//DTD SVG 1.1//EN"
 "http://www.w3.org/Graphics/SVG/1.1/DTD/svg11.dtd">
<!-- Generated by graphviz version 10.0.1 (20240210.2158)
 -->
<!-- Title: Graphical Class Hierarchy Pages: 1 -->
<svg width="277pt" height="104pt"
 viewBox="0.00 0.00 277.00 104.00" xmlns="http://www.w3.org/2000/svg" xmlns:xlink="http://www.w3.org/1999/xlink">
<g id="graph0" class="graph" transform="scale(1 1) rotate(0) translate(4 100)">
<title>Graphical Class Hierarchy</title>
<!-- Node0 -->
<g id="node1" class="node">
<title>Node0</title>
<g id="a_node1"><a xlink:href="classCore_1_1FMTbounds.html" target="_top" xlink:title=" ">
<polygon fill="white" stroke="#666666" points="121.75,-58 0,-58 0,-38 121.75,-38 121.75,-58"/>
<text text-anchor="middle" x="60.88" y="-44.5" font-family="Helvetica,sans-Serif" font-size="10.00">Core::FMTbounds&lt; int &gt;</text>
</a>
</g>
</g>
<!-- Node1 -->
<g id="node2" class="node">
<title>Node1</title>
<g id="a_node2"><a xlink:href="classCore_1_1FMTagebounds.html" target="_top" xlink:title=" ">
<polygon fill="white" stroke="#666666" points="267.88,-96 158.88,-96 158.88,-76 267.88,-76 267.88,-96"/>
<text text-anchor="middle" x="213.38" y="-82.5" font-family="Helvetica,sans-Serif" font-size="10.00">Core::FMTagebounds</text>
</a>
</g>
</g>
<!-- Node0&#45;&gt;Node1 -->
<g id="edge1" class="edge">
<title>Node0&#45;&gt;Node1</title>
<path fill="none" stroke="#63b8ff" d="M114.34,-61.25C132.89,-65.93 153.48,-71.13 170.99,-75.55"/>
<polygon fill="#63b8ff" stroke="#63b8ff" points="115.42,-57.91 104.87,-58.85 113.7,-64.7 115.42,-57.91"/>
</g>
<!-- Node2 -->
<g id="node3" class="node">
<title>Node2</title>
<g id="a_node3"><a xlink:href="classCore_1_1FMTlockbounds.html" target="_top" xlink:title=" ">
<polygon fill="white" stroke="#666666" points="269,-58 157.75,-58 157.75,-38 269,-38 269,-58"/>
<text text-anchor="middle" x="213.38" y="-44.5" font-family="Helvetica,sans-Serif" font-size="10.00">Core::FMTlockbounds</text>
</a>
</g>
</g>
<!-- Node0&#45;&gt;Node2 -->
<g id="edge2" class="edge">
<title>Node0&#45;&gt;Node2</title>
<path fill="none" stroke="#63b8ff" d="M133.49,-48C141.52,-48 149.6,-48 157.37,-48"/>
<polygon fill="#63b8ff" stroke="#63b8ff" points="133.74,-44.5 123.74,-48 133.74,-51.5 133.74,-44.5"/>
</g>
<!-- Node3 -->
<g id="node4" class="node">
<title>Node3</title>
<g id="a_node4"><a xlink:href="classCore_1_1FMTperbounds.html" target="_top" xlink:title=" ">
<polygon fill="white" stroke="#666666" points="266.75,-20 160,-20 160,0 266.75,0 266.75,-20"/>
<text text-anchor="middle" x="213.38" y="-6.5" font-family="Helvetica,sans-Serif" font-size="10.00">Core::FMTperbounds</text>
</a>
</g>
</g>
<!-- Node0&#45;&gt;Node3 -->
<g id="edge3" class="edge">
<title>Node0&#45;&gt;Node3</title>
<path fill="none" stroke="#63b8ff" d="M114.34,-34.75C132.89,-30.07 153.48,-24.87 170.99,-20.45"/>
<polygon fill="#63b8ff" stroke="#63b8ff" points="113.7,-31.3 104.87,-37.15 115.42,-38.09 113.7,-31.3"/>
</g>
</g>
</svg>
