<?xml version="1.0" encoding="UTF-8" standalone="no"?>
<!DOCTYPE svg PUBLIC "-//W3C//DTD SVG 1.1//EN"
 "http://www.w3.org/Graphics/SVG/1.1/DTD/svg11.dtd">
<!-- Generated by graphviz version 10.0.1 (20240210.2158)
 -->
<!-- Title: Graphical Class Hierarchy Pages: 1 -->
<svg width="403pt" height="66pt"
 viewBox="0.00 0.00 402.50 66.00" xmlns="http://www.w3.org/2000/svg" xmlns:xlink="http://www.w3.org/1999/xlink">
<g id="graph0" class="graph" transform="scale(1 1) rotate(0) translate(4 62)">
<title>Graphical Class Hierarchy</title>
<!-- Node0 -->
<g id="node1" class="node">
<title>Node0</title>
<g id="a_node1"><a xlink:title=" ">
<polygon fill="#e0e0e0" stroke="#999999" points="77.5,-39 0,-39 0,-19 77.5,-19 77.5,-39"/>
<text text-anchor="middle" x="38.75" y="-25.5" font-family="Helvetica,sans-Serif" font-size="10.00">std::exception</text>
</a>
</g>
</g>
<!-- Node1 -->
<g id="node2" class="node">
<title>Node1</title>
<g id="a_node2"><a xlink:href="classException_1_1FMTexception.html" target="_top" xlink:title=" ">
<polygon fill="white" stroke="#666666" points="240.5,-39 113.5,-39 113.5,-19 240.5,-19 240.5,-39"/>
<text text-anchor="middle" x="177" y="-25.5" font-family="Helvetica,sans-Serif" font-size="10.00">Exception::FMTexception</text>
</a>
</g>
</g>
<!-- Node0&#45;&gt;Node1 -->
<g id="edge1" class="edge">
<title>Node0&#45;&gt;Node1</title>
<path fill="none" stroke="#63b8ff" d="M89.2,-29C97,-29 105.14,-29 113.19,-29"/>
<polygon fill="#63b8ff" stroke="#63b8ff" points="89.22,-25.5 79.22,-29 89.22,-32.5 89.22,-25.5"/>
</g>
<!-- Node2 -->
<g id="node3" class="node">
<title>Node2</title>
<g id="a_node3"><a xlink:href="classException_1_1FMTerror.html" target="_top" xlink:title=" ">
<polygon fill="white" stroke="#666666" points="387.75,-58 283.25,-58 283.25,-38 387.75,-38 387.75,-58"/>
<text text-anchor="middle" x="335.5" y="-44.5" font-family="Helvetica,sans-Serif" font-size="10.00">Exception::FMTerror</text>
</a>
</g>
</g>
<!-- Node1&#45;&gt;Node2 -->
<g id="edge2" class="edge">
<title>Node1&#45;&gt;Node2</title>
<path fill="none" stroke="#63b8ff" d="M251.98,-37.98C262.39,-39.25 272.9,-40.52 282.77,-41.72"/>
<polygon fill="#63b8ff" stroke="#63b8ff" points="252.6,-34.53 242.26,-36.8 251.76,-41.48 252.6,-34.53"/>
</g>
<!-- Node3 -->
<g id="node4" class="node">
<title>Node3</title>
<g id="a_node4"><a xlink:href="classException_1_1FMTwarning.html" target="_top" xlink:title=" ">
<polygon fill="white" stroke="#666666" points="394.5,-20 276.5,-20 276.5,0 394.5,0 394.5,-20"/>
<text text-anchor="middle" x="335.5" y="-6.5" font-family="Helvetica,sans-Serif" font-size="10.00">Exception::FMTwarning</text>
</a>
</g>
</g>
<!-- Node1&#45;&gt;Node3 -->
<g id="edge3" class="edge">
<title>Node1&#45;&gt;Node3</title>
<path fill="none" stroke="#63b8ff" d="M252.06,-20.01C260.11,-19.03 268.22,-18.05 276.05,-17.1"/>
<polygon fill="#63b8ff" stroke="#63b8ff" points="251.76,-16.52 242.26,-21.2 252.6,-23.47 251.76,-16.52"/>
</g>
</g>
</svg>
