<?xml version="1.0" encoding="UTF-8" standalone="no"?>
<!DOCTYPE svg PUBLIC "-//W3C//DTD SVG 1.1//EN"
 "http://www.w3.org/Graphics/SVG/1.1/DTD/svg11.dtd">
<!-- Generated by graphviz version 8.1.0 (20230707.0739)
 -->
<!-- Title: Graphical Class Hierarchy Pages: 1 -->
<svg width="403pt" height="66pt"
 viewBox="0.00 0.00 402.50 66.00" xmlns="http://www.w3.org/2000/svg" xmlns:xlink="http://www.w3.org/1999/xlink">
<g id="graph0" class="graph" transform="scale(1 1) rotate(0) translate(4 62)">
<title>Graphical Class Hierarchy</title>
<!-- Node0 -->
<g id="Node000000" class="node">
<title>Node0</title>
<g id="a_Node000000"><a xlink:title=" ">
<polygon fill="#e0e0e0" stroke="#999999" points="77.5,-39 0,-39 0,-19 77.5,-19 77.5,-39"/>
<text text-anchor="middle" x="38.75" y="-25.5" font-family="Helvetica,sans-Serif" font-size="10.00">std::exception</text>
</a>
</g>
</g>
<!-- Node1 -->
<g id="Node000001" class="node">
<title>Node1</title>
<g id="a_Node000001"><a xlink:href="classException_1_1FMTexception.html" target="_top" xlink:title=" ">
<polygon fill="white" stroke="#666666" points="240.5,-39 113.5,-39 113.5,-19 240.5,-19 240.5,-39"/>
<text text-anchor="middle" x="177" y="-25.5" font-family="Helvetica,sans-Serif" font-size="10.00">Exception::FMTexception</text>
</a>
</g>
</g>
<!-- Node0&#45;&gt;Node1 -->
<g id="edge94_Node000000_Node000001" class="edge">
<title>Node0&#45;&gt;Node1</title>
<g id="a_edge94_Node000000_Node000001"><a xlink:title=" ">
<path fill="none" stroke="#63b8ff" d="M88.65,-29C96.61,-29 104.95,-29 113.19,-29"/>
<polygon fill="#63b8ff" stroke="#63b8ff" points="88.7,-25.5 78.7,-29 88.7,-32.5 88.7,-25.5"/>
</a>
</g>
</g>
<!-- Node2 -->
<g id="Node000002" class="node">
<title>Node2</title>
<g id="a_Node000002"><a xlink:href="classException_1_1FMTerror.html" target="_top" xlink:title=" ">
<polygon fill="white" stroke="#666666" points="387.75,-58 283.25,-58 283.25,-38 387.75,-38 387.75,-58"/>
<text text-anchor="middle" x="335.5" y="-44.5" font-family="Helvetica,sans-Serif" font-size="10.00">Exception::FMTerror</text>
</a>
</g>
</g>
<!-- Node1&#45;&gt;Node2 -->
<g id="edge95_Node000001_Node000002" class="edge">
<title>Node1&#45;&gt;Node2</title>
<g id="a_edge95_Node000001_Node000002"><a xlink:title=" ">
<path fill="none" stroke="#63b8ff" d="M251.64,-37.94C262.16,-39.22 272.8,-40.51 282.77,-41.72"/>
<polygon fill="#63b8ff" stroke="#63b8ff" points="252.1,-34.35 241.75,-36.62 251.26,-41.3 252.1,-34.35"/>
</a>
</g>
</g>
<!-- Node3 -->
<g id="Node000003" class="node">
<title>Node3</title>
<g id="a_Node000003"><a xlink:href="classException_1_1FMTwarning.html" target="_top" xlink:title=" ">
<polygon fill="white" stroke="#666666" points="394.5,-20 276.5,-20 276.5,0 394.5,0 394.5,-20"/>
<text text-anchor="middle" x="335.5" y="-6.5" font-family="Helvetica,sans-Serif" font-size="10.00">Exception::FMTwarning</text>
</a>
</g>
</g>
<!-- Node1&#45;&gt;Node3 -->
<g id="edge96_Node000001_Node000003" class="edge">
<title>Node1&#45;&gt;Node3</title>
<g id="a_edge96_Node000001_Node000003"><a xlink:title=" ">
<path fill="none" stroke="#63b8ff" d="M251.5,-20.08C259.74,-19.08 268.04,-18.07 276.05,-17.1"/>
<polygon fill="#63b8ff" stroke="#63b8ff" points="251.26,-16.7 241.75,-21.38 252.1,-23.65 251.26,-16.7"/>
</a>
</g>
</g>
</g>
</svg>
