<?xml version="1.0" encoding="UTF-8" standalone="no"?>
<!DOCTYPE svg PUBLIC "-//W3C//DTD SVG 1.1//EN"
 "http://www.w3.org/Graphics/SVG/1.1/DTD/svg11.dtd">
<!-- Generated by graphviz version 10.0.1 (20240210.2158)
 -->
<!-- Title: Graphical Class Hierarchy Pages: 1 -->
<svg width="390pt" height="142pt"
 viewBox="0.00 0.00 389.50 142.00" xmlns="http://www.w3.org/2000/svg" xmlns:xlink="http://www.w3.org/1999/xlink">
<g id="graph0" class="graph" transform="scale(1 1) rotate(0) translate(4 138)">
<title>Graphical Class Hierarchy</title>
<!-- Node0 -->
<g id="node1" class="node">
<title>Node0</title>
<g id="a_node1"><a xlink:href="classException_1_1FMTexceptionhandler.html" target="_top" xlink:title=" ">
<polygon fill="white" stroke="#666666" points="158.5,-77 0,-77 0,-57 158.5,-57 158.5,-77"/>
<text text-anchor="middle" x="79.25" y="-63.5" font-family="Helvetica,sans-Serif" font-size="10.00">Exception::FMTexceptionhandler</text>
</a>
</g>
</g>
<!-- Node1 -->
<g id="node2" class="node">
<title>Node1</title>
<g id="a_node2"><a xlink:href="classException_1_1FMTdebugexceptionhandler.html" target="_top" xlink:title=" ">
<polygon fill="white" stroke="#666666" points="380.38,-134 195.62,-134 195.62,-114 380.38,-114 380.38,-134"/>
<text text-anchor="middle" x="288" y="-120.5" font-family="Helvetica,sans-Serif" font-size="10.00">Exception::FMTdebugexceptionhandler</text>
</a>
</g>
</g>
<!-- Node0&#45;&gt;Node1 -->
<g id="edge1" class="edge">
<title>Node0&#45;&gt;Node1</title>
<path fill="none" stroke="#63b8ff" d="M119.16,-81.22C141.09,-88.91 169.11,-98.2 194.5,-105 206.06,-108.1 218.55,-110.97 230.5,-113.5"/>
<polygon fill="#63b8ff" stroke="#63b8ff" points="120.63,-78.02 110.03,-77.98 118.29,-84.62 120.63,-78.02"/>
</g>
<!-- Node2 -->
<g id="node3" class="node">
<title>Node2</title>
<g id="a_node3"><a xlink:href="classException_1_1FMTdefaultexceptionhandler.html" target="_top" xlink:title=" ">
<polygon fill="white" stroke="#666666" points="381.5,-96 194.5,-96 194.5,-76 381.5,-76 381.5,-96"/>
<text text-anchor="middle" x="288" y="-82.5" font-family="Helvetica,sans-Serif" font-size="10.00">Exception::FMTdefaultexceptionhandler</text>
</a>
</g>
</g>
<!-- Node0&#45;&gt;Node2 -->
<g id="edge2" class="edge">
<title>Node0&#45;&gt;Node2</title>
<path fill="none" stroke="#63b8ff" d="M169.91,-75.24C177.9,-75.97 186,-76.72 194.02,-77.46"/>
<polygon fill="#63b8ff" stroke="#63b8ff" points="170.49,-71.78 160.22,-74.35 169.85,-78.75 170.49,-71.78"/>
</g>
<!-- Node3 -->
<g id="node4" class="node">
<title>Node3</title>
<g id="a_node4"><a xlink:href="classException_1_1FMTfreeexceptionhandler.html" target="_top" xlink:title=" ">
<polygon fill="white" stroke="#666666" points="375.12,-58 200.88,-58 200.88,-38 375.12,-38 375.12,-58"/>
<text text-anchor="middle" x="288" y="-44.5" font-family="Helvetica,sans-Serif" font-size="10.00">Exception::FMTfreeexceptionhandler</text>
</a>
</g>
</g>
<!-- Node0&#45;&gt;Node3 -->
<g id="edge3" class="edge">
<title>Node0&#45;&gt;Node3</title>
<path fill="none" stroke="#63b8ff" d="M170.07,-58.75C180.22,-57.81 190.55,-56.86 200.65,-55.94"/>
<polygon fill="#63b8ff" stroke="#63b8ff" points="169.85,-55.25 160.22,-59.65 170.49,-62.22 169.85,-55.25"/>
</g>
<!-- Node4 -->
<g id="node5" class="node">
<title>Node4</title>
<g id="a_node5"><a xlink:href="classException_1_1FMTquietexceptionhandler.html" target="_top" xlink:title=" ">
<polygon fill="white" stroke="#666666" points="377.75,-20 198.25,-20 198.25,0 377.75,0 377.75,-20"/>
<text text-anchor="middle" x="288" y="-6.5" font-family="Helvetica,sans-Serif" font-size="10.00">Exception::FMTquietexceptionhandler</text>
</a>
</g>
</g>
<!-- Node0&#45;&gt;Node4 -->
<g id="edge4" class="edge">
<title>Node0&#45;&gt;Node4</title>
<path fill="none" stroke="#63b8ff" d="M119.16,-52.78C141.09,-45.09 169.11,-35.8 194.5,-29 206.06,-25.9 218.55,-23.03 230.5,-20.5"/>
<polygon fill="#63b8ff" stroke="#63b8ff" points="118.29,-49.38 110.03,-56.02 120.63,-55.98 118.29,-49.38"/>
</g>
</g>
</svg>
