<?xml version="1.0" encoding="UTF-8" standalone="no"?>
<!DOCTYPE svg PUBLIC "-//W3C//DTD SVG 1.1//EN"
 "http://www.w3.org/Graphics/SVG/1.1/DTD/svg11.dtd">
<!-- Generated by graphviz version 10.0.1 (20240210.2158)
 -->
<!-- Title: D:/FMT/Include/PYexportCore.hpp Pages: 1 -->
<!--zoomable 444 -->
<svg id="main" version="1.1" xmlns="http://www.w3.org/2000/svg" xmlns:xlink="http://www.w3.org/1999/xlink" xml:space="preserve" onload="init(evt)">
<style type="text/css"><![CDATA[
.edge:hover path { stroke: red; }
.edge:hover polygon { stroke: red; fill: red; }
]]></style>
<script type="text/javascript"><![CDATA[
var edges = document.getElementsByTagName('g');
if (edges && edges.length) {
  for (var i=0;i<edges.length;i++) {
    if (edges[i].id.substr(0,4)=='edge') {
      edges[i].setAttribute('class','edge');
    }
  }
}
]]></script>
        <defs>
                <circle id="rim" cx="0" cy="0" r="7"/>
                <circle id="rim2" cx="0" cy="0" r="3.5"/>
                <g id="zoomPlus">
                        <use xlink:href="#rim" fill="#404040">
                                <set attributeName="fill" to="#808080" begin="zoomplus.mouseover" end="zoomplus.mouseout"/>
                        </use>
                        <path d="M-4,0h8M0,-4v8" fill="none" stroke="white" stroke-width="1.5" pointer-events="none"/>
                </g>
                <g id="zoomMin">
                        <use xlink:href="#rim" fill="#404040">
                                <set attributeName="fill" to="#808080" begin="zoomminus.mouseover" end="zoomminus.mouseout"/>
                        </use>
                        <path d="M-4,0h8" fill="none" stroke="white" stroke-width="1.5" pointer-events="none"/>
                </g>
                <g id="dirArrow">
                        <path fill="none" stroke="white" stroke-width="1.5" d="M0,-3.0v7 M-2.5,-0.5L0,-3.0L2.5,-0.5"/>
                </g>
               <g id="resetDef">
                       <use xlink:href="#rim2" fill="#404040">
                               <set attributeName="fill" to="#808080" begin="reset.mouseover" end="reset.mouseout"/>
                       </use>
               </g>
        </defs>

<script type="text/javascript">
var viewWidth = 4078;
var viewHeight = 444;
var sectionId = 'dynsection-0';
</script>
<script xlink:href="svgpan.js"/>
<svg id="graph" class="graph">
<g id="viewport">
<title>D:/FMT/Include/PYexportCore.hpp</title>
<!-- Node1 -->
<g id="node1" class="node">
<title>Node1</title>
<g id="a_node1"><a xlink:title=" ">
<polygon fill="#999999" stroke="#666666" points="1775.02,-436 1610.52,-436 1610.52,-416 1775.02,-416 1775.02,-436"/>
<text text-anchor="middle" x="1692.77" y="-422.5" font-family="Helvetica,sans-Serif" font-size="10.00">D:/FMT/Include/PYexportCore.hpp</text>
</a>
</g>
</g>
<!-- Node2 -->
<g id="node2" class="node">
<title>Node2</title>
<g id="a_node2"><a xlink:href="FMTGCBMtransition_8hpp.html" target="_top" xlink:title=" ">
<polygon fill="white" stroke="#666666" points="1010.4,-212 887.15,-212 887.15,-192 1010.4,-192 1010.4,-212"/>
<text text-anchor="middle" x="948.77" y="-198.5" font-family="Helvetica,sans-Serif" font-size="10.00">FMTGCBMtransition.hpp</text>
</a>
</g>
</g>
<!-- Node1&#45;&gt;Node2 -->
<g id="edge1" class="edge">
<title>Node1&#45;&gt;Node2</title>
<path fill="none" stroke="#63b8ff" d="M1610.24,-425.23C1433.99,-424.96 1033.05,-419.9 986.77,-380 941.2,-340.71 942.54,-261.21 946.11,-223.6"/>
<polygon fill="#63b8ff" stroke="#63b8ff" points="949.58,-224.02 947.22,-213.69 942.63,-223.23 949.58,-224.02"/>
</g>
<!-- Node8 -->
<g id="node8" class="node">
<title>Node8</title>
<g id="a_node8"><a xlink:href="FMTobject_8hpp.html" target="_top" xlink:title=" ">
<polygon fill="white" stroke="#666666" points="1451.02,-150 1370.52,-150 1370.52,-130 1451.02,-130 1451.02,-150"/>
<text text-anchor="middle" x="1410.77" y="-136.5" font-family="Helvetica,sans-Serif" font-size="10.00">FMTobject.hpp</text>
</a>
</g>
</g>
<!-- Node1&#45;&gt;Node8 -->
<g id="edge19" class="edge">
<title>Node1&#45;&gt;Node8</title>
<path fill="none" stroke="#63b8ff" d="M1610.79,-415.55C1544.09,-404.04 1451.11,-378.8 1388.77,-324 1344.1,-284.73 1343.59,-246.77 1366.77,-192 1372.23,-179.11 1382.21,-167.12 1391.28,-158.01"/>
<polygon fill="#63b8ff" stroke="#63b8ff" points="1393.56,-160.67 1398.43,-151.26 1388.76,-155.58 1393.56,-160.67"/>
</g>
<!-- Node19 -->
<g id="node17" class="node">
<title>Node19</title>
<g id="a_node17"><a xlink:href="FMTmask_8hpp.html" target="_top" xlink:title=" ">
<polygon fill="white" stroke="#666666" points="934.9,-150 856.65,-150 856.65,-130 934.9,-130 934.9,-150"/>
<text text-anchor="middle" x="895.77" y="-136.5" font-family="Helvetica,sans-Serif" font-size="10.00">FMTmask.hpp</text>
</a>
</g>
</g>
<!-- Node1&#45;&gt;Node19 -->
<g id="edge20" class="edge">
<title>Node1&#45;&gt;Node19</title>
<path fill="none" stroke="#63b8ff" d="M1610.03,-423.63C1415.79,-419.97 942.01,-408.24 875.77,-380 771.04,-335.35 631.56,-281.62 701.77,-192 742.99,-139.39 783.4,-173.98 847.77,-156 850.33,-155.29 852.95,-154.53 855.59,-153.75"/>
<polygon fill="#63b8ff" stroke="#63b8ff" points="856.4,-157.17 864.96,-150.93 854.38,-150.47 856.4,-157.17"/>
</g>
<!-- Node26 -->
<g id="node24" class="node">
<title>Node26</title>
<g id="a_node24"><a xlink:href="FMTtheme_8hpp.html" target="_top" xlink:title=" ">
<polygon fill="white" stroke="#666666" points="2766.4,-212 2685.15,-212 2685.15,-192 2766.4,-192 2766.4,-212"/>
<text text-anchor="middle" x="2725.77" y="-198.5" font-family="Helvetica,sans-Serif" font-size="10.00">FMTtheme.hpp</text>
</a>
</g>
</g>
<!-- Node1&#45;&gt;Node26 -->
<g id="edge34" class="edge">
<title>Node1&#45;&gt;Node26</title>
<path fill="none" stroke="#63b8ff" d="M1775.5,-423.3C1938.78,-419.38 2297.02,-407.83 2416.77,-380 2542.92,-350.69 2587.29,-352.1 2685.77,-268 2700.24,-255.64 2711.06,-236.69 2717.78,-222.44"/>
<polygon fill="#63b8ff" stroke="#63b8ff" points="2720.84,-224.18 2721.66,-213.61 2714.43,-221.36 2720.84,-224.18"/>
</g>
<!-- Node36 -->
<g id="node29" class="node">
<title>Node36</title>
<g id="a_node29"><a xlink:href="FMTbounds_8hpp.html" target="_top" xlink:title=" ">
<polygon fill="white" stroke="#666666" points="248.65,-150 162.9,-150 162.9,-130 248.65,-130 248.65,-150"/>
<text text-anchor="middle" x="205.77" y="-136.5" font-family="Helvetica,sans-Serif" font-size="10.00">FMTbounds.hpp</text>
</a>
</g>
</g>
<!-- Node1&#45;&gt;Node36 -->
<g id="edge52" class="edge">
<title>Node1&#45;&gt;Node36</title>
<path fill="none" stroke="#63b8ff" d="M1610.39,-424.42C1351.88,-422.27 558.74,-413.09 303.77,-380 175.79,-363.39 20.77,-444.05 20.77,-315 20.77,-315 20.77,-315 20.77,-257 20.77,-194.76 96.87,-164.64 151.45,-151.04"/>
<polygon fill="#63b8ff" stroke="#63b8ff" points="151.99,-154.51 160.92,-148.81 150.39,-147.7 151.99,-154.51"/>
</g>
<!-- Node39 -->
<g id="node32" class="node">
<title>Node39</title>
<g id="a_node32"><a xlink:href="FMTdevelopment_8hpp.html" target="_top" xlink:title=" ">
<polygon fill="white" stroke="#666666" points="2056.9,-212 1948.65,-212 1948.65,-192 2056.9,-192 2056.9,-212"/>
<text text-anchor="middle" x="2002.77" y="-198.5" font-family="Helvetica,sans-Serif" font-size="10.00">FMTdevelopment.hpp</text>
</a>
</g>
</g>
<!-- Node1&#45;&gt;Node39 -->
<g id="edge63" class="edge">
<title>Node1&#45;&gt;Node39</title>
<path fill="none" stroke="#63b8ff" d="M1716.84,-415.62C1767.16,-395.09 1885.16,-342.02 1961.77,-268 1975.4,-254.83 1986.53,-236.27 1993.73,-222.35"/>
<polygon fill="#63b8ff" stroke="#63b8ff" points="1996.7,-224.25 1997.97,-213.73 1990.42,-221.16 1996.7,-224.25"/>
</g>
<!-- Node40 -->
<g id="node33" class="node">
<title>Node40</title>
<g id="a_node33"><a xlink:href="FMTactualdevelopment_8hpp.html" target="_top" xlink:title=" ">
<polygon fill="white" stroke="#666666" points="2648.02,-268 2513.52,-268 2513.52,-248 2648.02,-248 2648.02,-268"/>
<text text-anchor="middle" x="2580.77" y="-254.5" font-family="Helvetica,sans-Serif" font-size="10.00">FMTactualdevelopment.hpp</text>
</a>
</g>
</g>
<!-- Node1&#45;&gt;Node40 -->
<g id="edge73" class="edge">
<title>Node1&#45;&gt;Node40</title>
<path fill="none" stroke="#63b8ff" d="M1775.46,-424.42C1932.59,-422.52 2268.47,-414.43 2378.77,-380 2452.25,-357.06 2526.92,-302.4 2561.28,-275.1"/>
<polygon fill="#63b8ff" stroke="#63b8ff" points="2563.1,-278.13 2568.69,-269.12 2558.71,-272.68 2563.1,-278.13"/>
</g>
<!-- Node41 -->
<g id="node34" class="node">
<title>Node41</title>
<g id="a_node34"><a xlink:href="FMTfuturdevelopment_8hpp.html" target="_top" xlink:title=" ">
<polygon fill="white" stroke="#666666" points="2494.27,-268 2367.27,-268 2367.27,-248 2494.27,-248 2494.27,-268"/>
<text text-anchor="middle" x="2430.77" y="-254.5" font-family="Helvetica,sans-Serif" font-size="10.00">FMTfuturdevelopment.hpp</text>
</a>
</g>
</g>
<!-- Node1&#45;&gt;Node41 -->
<g id="edge78" class="edge">
<title>Node1&#45;&gt;Node41</title>
<path fill="none" stroke="#63b8ff" d="M1775.28,-423.48C1941.33,-419.84 2304.18,-408.67 2352.77,-380 2391.38,-357.21 2414.18,-306.95 2424.37,-278.91"/>
<polygon fill="#63b8ff" stroke="#63b8ff" points="2427.55,-280.42 2427.48,-269.82 2420.93,-278.15 2427.55,-280.42"/>
</g>
<!-- Node42 -->
<g id="node35" class="node">
<title>Node42</title>
<g id="a_node35"><a xlink:href="FMTaction_8hpp.html" target="_top" xlink:title=" ">
<polygon fill="white" stroke="#666666" points="1771.02,-324 1690.52,-324 1690.52,-304 1771.02,-304 1771.02,-324"/>
<text text-anchor="middle" x="1730.77" y="-310.5" font-family="Helvetica,sans-Serif" font-size="10.00">FMTaction.hpp</text>
</a>
</g>
</g>
<!-- Node1&#45;&gt;Node42 -->
<g id="edge83" class="edge">
<title>Node1&#45;&gt;Node42</title>
<path fill="none" stroke="#63b8ff" d="M1697.02,-415.81C1701.09,-406.81 1707.28,-392.62 1711.77,-380 1717.03,-365.23 1721.97,-348.2 1725.49,-335.29"/>
<polygon fill="#63b8ff" stroke="#63b8ff" points="1728.82,-336.39 1728.01,-325.83 1722.05,-334.59 1728.82,-336.39"/>
</g>
<!-- Node46 -->
<g id="node37" class="node">
<title>Node46</title>
<g id="a_node37"><a xlink:href="FMTmaskfilter_8hpp.html" target="_top" xlink:title=" ">
<polygon fill="white" stroke="#666666" points="838.9,-150 742.65,-150 742.65,-130 838.9,-130 838.9,-150"/>
<text text-anchor="middle" x="790.77" y="-136.5" font-family="Helvetica,sans-Serif" font-size="10.00">FMTmaskfilter.hpp</text>
</a>
</g>
</g>
<!-- Node1&#45;&gt;Node46 -->
<g id="edge189" class="edge">
<title>Node1&#45;&gt;Node46</title>
<path fill="none" stroke="#63b8ff" d="M1610.32,-425.22C1423.62,-425 973.46,-420.17 827.77,-380 748.59,-358.17 706.3,-346.07 680.77,-268 675.05,-250.5 677.15,-204.5 685.77,-192 698.2,-173.98 718.83,-162.09 738.53,-154.36"/>
<polygon fill="#63b8ff" stroke="#63b8ff" points="739.67,-157.67 747.89,-151 737.3,-151.09 739.67,-157.67"/>
</g>
<!-- Node56 -->
<g id="node39" class="node">
<title>Node56</title>
<g id="a_node39"><a xlink:href="FMTtransition_8hpp.html" target="_top" xlink:title=" ">
<polygon fill="white" stroke="#666666" points="1525.77,-324 1431.77,-324 1431.77,-304 1525.77,-304 1525.77,-324"/>
<text text-anchor="middle" x="1478.77" y="-310.5" font-family="Helvetica,sans-Serif" font-size="10.00">FMTtransition.hpp</text>
</a>
</g>
</g>
<!-- Node1&#45;&gt;Node56 -->
<g id="edge111" class="edge">
<title>Node1&#45;&gt;Node56</title>
<path fill="none" stroke="#63b8ff" d="M1672.7,-415.59C1653.78,-406.65 1624.7,-392.72 1599.77,-380 1567.21,-363.38 1530.25,-343.36 1505.84,-329.96"/>
<polygon fill="#63b8ff" stroke="#63b8ff" points="1507.66,-326.97 1497.21,-325.22 1504.28,-333.1 1507.66,-326.97"/>
</g>
<!-- Node58 -->
<g id="node41" class="node">
<title>Node58</title>
<g id="a_node41"><a xlink:href="FMTtransitionmask_8hpp.html" target="_top" xlink:title=" ">
<polygon fill="white" stroke="#666666" points="558.77,-212 440.77,-212 440.77,-192 558.77,-192 558.77,-212"/>
<text text-anchor="middle" x="499.77" y="-198.5" font-family="Helvetica,sans-Serif" font-size="10.00">FMTtransitionmask.hpp</text>
</a>
</g>
</g>
<!-- Node1&#45;&gt;Node58 -->
<g id="edge190" class="edge">
<title>Node1&#45;&gt;Node58</title>
<path fill="none" stroke="#63b8ff" d="M1610.2,-425.41C1320.82,-426.47 367.66,-426.39 322.77,-380 281.97,-337.84 286.76,-294.31 322.77,-248 336.11,-230.85 385.91,-219.16 429.3,-212.01"/>
<polygon fill="#63b8ff" stroke="#63b8ff" points="429.63,-215.5 438.96,-210.48 428.54,-208.58 429.63,-215.5"/>
</g>
<!-- Node60 -->
<g id="node42" class="node">
<title>Node60</title>
<g id="a_node42"><a xlink:href="FMToutput_8hpp.html" target="_top" xlink:title=" ">
<polygon fill="#fff0f0" stroke="red" points="792.4,-212 711.15,-212 711.15,-192 792.4,-192 792.4,-212"/>
<text text-anchor="middle" x="751.77" y="-198.5" font-family="Helvetica,sans-Serif" font-size="10.00">FMToutput.hpp</text>
</a>
</g>
</g>
<!-- Node1&#45;&gt;Node60 -->
<g id="edge133" class="edge">
<title>Node1&#45;&gt;Node60</title>
<path fill="none" stroke="#63b8ff" d="M1610.36,-423.53C1422.93,-419.71 976.1,-407.78 913.77,-380 839.32,-346.81 784.03,-260.94 762.11,-222.32"/>
<polygon fill="#63b8ff" stroke="#63b8ff" points="765.24,-220.75 757.34,-213.68 759.12,-224.13 765.24,-220.75"/>
</g>
<!-- Node64 -->
<g id="node44" class="node">
<title>Node64</title>
<g id="a_node44"><a xlink:href="FMTconstraint_8hpp.html" target="_top" xlink:title=" ">
<polygon fill="white" stroke="#666666" points="907.27,-268 810.27,-268 810.27,-248 907.27,-248 907.27,-268"/>
<text text-anchor="middle" x="858.77" y="-254.5" font-family="Helvetica,sans-Serif" font-size="10.00">FMTconstraint.hpp</text>
</a>
</g>
</g>
<!-- Node1&#45;&gt;Node64 -->
<g id="edge142" class="edge">
<title>Node1&#45;&gt;Node64</title>
<path fill="none" stroke="#63b8ff" d="M1610.22,-424.12C1427.15,-421.58 998.76,-412.23 941.77,-380 902,-357.51 877.21,-307.13 865.94,-278.99"/>
<polygon fill="#63b8ff" stroke="#63b8ff" points="869.29,-277.95 862.47,-269.85 862.75,-280.44 869.29,-277.95"/>
</g>
<!-- Node65 -->
<g id="node45" class="node">
<title>Node65</title>
<g id="a_node45"><a xlink:href="FMTschedule_8hpp.html" target="_top" xlink:title=" ">
<polygon fill="#fff0f0" stroke="red" points="1702.4,-380 1609.15,-380 1609.15,-360 1702.4,-360 1702.4,-380"/>
<text text-anchor="middle" x="1655.77" y="-366.5" font-family="Helvetica,sans-Serif" font-size="10.00">FMTschedule.hpp</text>
</a>
</g>
</g>
<!-- Node1&#45;&gt;Node65 -->
<g id="edge151" class="edge">
<title>Node1&#45;&gt;Node65</title>
<path fill="none" stroke="#63b8ff" d="M1686.33,-415.59C1681.45,-408.47 1674.58,-398.45 1668.59,-389.72"/>
<polygon fill="#63b8ff" stroke="#63b8ff" points="1671.54,-387.82 1663,-381.55 1665.76,-391.77 1671.54,-387.82"/>
</g>
<!-- Node67 -->
<g id="node46" class="node">
<title>Node67</title>
<g id="a_node46"><a xlink:href="FMTyields_8hpp.html" target="_top" xlink:title=" ">
<polygon fill="#fff0f0" stroke="red" points="2190.65,-324 2110.9,-324 2110.9,-304 2190.65,-304 2190.65,-324"/>
<text text-anchor="middle" x="2150.77" y="-310.5" font-family="Helvetica,sans-Serif" font-size="10.00">FMTyields.hpp</text>
</a>
</g>
</g>
<!-- Node1&#45;&gt;Node67 -->
<g id="edge158" class="edge">
<title>Node1&#45;&gt;Node67</title>
<path fill="none" stroke="#63b8ff" d="M1775.31,-420.45C1841.26,-415.16 1935.45,-403.87 2014.77,-380 2055.26,-367.82 2098.8,-345.12 2125.43,-330.04"/>
<polygon fill="#63b8ff" stroke="#63b8ff" points="2126.86,-333.25 2133.78,-325.23 2123.36,-327.19 2126.86,-333.25"/>
</g>
<!-- Node69 -->
<g id="node47" class="node">
<title>Node69</title>
<g id="a_node47"><a xlink:href="FMTconstants_8hpp.html" target="_top" xlink:title=" ">
<polygon fill="white" stroke="#666666" points="2210.27,-212 2113.27,-212 2113.27,-192 2210.27,-192 2210.27,-212"/>
<text text-anchor="middle" x="2161.77" y="-198.5" font-family="Helvetica,sans-Serif" font-size="10.00">FMTconstants.hpp</text>
</a>
</g>
</g>
<!-- Node1&#45;&gt;Node69 -->
<g id="edge171" class="edge">
<title>Node1&#45;&gt;Node69</title>
<path fill="none" stroke="#63b8ff" d="M1775.44,-421.9C1906.64,-414.93 2152.6,-392.79 2199.77,-324 2221.87,-291.78 2195.08,-246.09 2176.55,-221.09"/>
<polygon fill="#63b8ff" stroke="#63b8ff" points="2179.56,-219.26 2170.67,-213.5 2174.03,-223.55 2179.56,-219.26"/>
</g>
<!-- Node70 -->
<g id="node48" class="node">
<title>Node70</title>
<g id="a_node48"><a xlink:title=" ">
<polygon fill="#e0e0e0" stroke="#999999" points="4070.27,-380 3979.27,-380 3979.27,-360 4070.27,-360 4070.27,-380"/>
<text text-anchor="middle" x="4024.77" y="-366.5" font-family="Helvetica,sans-Serif" font-size="10.00">boost/python.hpp</text>
</a>
</g>
</g>
<!-- Node1&#45;&gt;Node70 -->
<g id="edge180" class="edge">
<title>Node1&#45;&gt;Node70</title>
<path fill="none" stroke="#63b8ff" d="M1775.34,-424.79C2130.11,-423.69 3526.81,-417.03 3964.77,-380 3965.78,-379.91 3966.8,-379.82 3967.83,-379.73"/>
<polygon fill="#63b8ff" stroke="#63b8ff" points="3967.92,-383.24 3977.48,-378.66 3967.15,-376.28 3967.92,-383.24"/>
</g>
<!-- Node71 -->
<g id="node49" class="node">
<title>Node71</title>
<g id="a_node49"><a xlink:href="FMTtimeyieldhandler_8hpp.html" target="_top" xlink:title=" ">
<polygon fill="#fff0f0" stroke="red" points="2847.15,-150 2722.4,-150 2722.4,-130 2847.15,-130 2847.15,-150"/>
<text text-anchor="middle" x="2784.77" y="-136.5" font-family="Helvetica,sans-Serif" font-size="10.00">FMTtimeyieldhandler.hpp</text>
</a>
</g>
</g>
<!-- Node1&#45;&gt;Node71 -->
<g id="edge181" class="edge">
<title>Node1&#45;&gt;Node71</title>
<path fill="none" stroke="#63b8ff" d="M1775.43,-423.12C1948.45,-418.73 2343.7,-406.1 2475.77,-380 2625.69,-350.37 2702.46,-346.08 2775.77,-212 2784.16,-196.65 2786.05,-176.72 2786.04,-161.88"/>
<polygon fill="#63b8ff" stroke="#63b8ff" points="2789.54,-161.79 2785.72,-151.91 2782.55,-162.02 2789.54,-161.79"/>
</g>
<!-- Node75 -->
<g id="node50" class="node">
<title>Node75</title>
<g id="a_node50"><a xlink:href="FMTageyieldhandler_8hpp.html" target="_top" xlink:title=" ">
<polygon fill="#fff0f0" stroke="red" points="3675.65,-150 3553.9,-150 3553.9,-130 3675.65,-130 3675.65,-150"/>
<text text-anchor="middle" x="3614.77" y="-136.5" font-family="Helvetica,sans-Serif" font-size="10.00">FMTageyieldhandler.hpp</text>
</a>
</g>
</g>
<!-- Node1&#45;&gt;Node75 -->
<g id="edge185" class="edge">
<title>Node1&#45;&gt;Node75</title>
<path fill="none" stroke="#63b8ff" d="M1775.44,-424.2C1927.33,-421.93 2260.85,-413.24 2539.77,-380 2944.69,-331.75 3050.64,-327.35 3441.77,-212 3493.75,-196.67 3551.5,-171.14 3585.4,-155.24"/>
<polygon fill="#63b8ff" stroke="#63b8ff" points="3586.62,-158.53 3594.16,-151.08 3583.62,-152.2 3586.62,-158.53"/>
</g>
<!-- Node3 -->
<g id="node3" class="node">
<title>Node3</title>
<g id="a_node3"><a xlink:title=" ">
<polygon fill="#e0e0e0" stroke="#999999" points="81.15,-82 46.4,-82 46.4,-62 81.15,-62 81.15,-82"/>
<text text-anchor="middle" x="63.77" y="-68.5" font-family="Helvetica,sans-Serif" font-size="10.00">map</text>
</a>
</g>
</g>
<!-- Node2&#45;&gt;Node3 -->
<g id="edge2" class="edge">
<title>Node2&#45;&gt;Node3</title>
<path fill="none" stroke="#63b8ff" d="M886.84,-196.74C783.53,-189.27 580.49,-173.01 510.77,-156 473.17,-146.83 467.36,-133.23 429.77,-124 282.2,-87.75 234.28,-134.99 89.77,-88 89.12,-87.79 88.47,-87.56 87.82,-87.31"/>
<polygon fill="#63b8ff" stroke="#63b8ff" points="89.46,-84.22 78.94,-83.04 86.43,-90.53 89.46,-84.22"/>
</g>
<!-- Node4 -->
<g id="node4" class="node">
<title>Node4</title>
<g id="a_node4"><a xlink:title=" ">
<polygon fill="#e0e0e0" stroke="#999999" points="1771.77,-20 1731.77,-20 1731.77,0 1771.77,0 1771.77,-20"/>
<text text-anchor="middle" x="1751.77" y="-6.5" font-family="Helvetica,sans-Serif" font-size="10.00">string</text>
</a>
</g>
</g>
<!-- Node2&#45;&gt;Node4 -->
<g id="edge3" class="edge">
<title>Node2&#45;&gt;Node4</title>
<path fill="none" stroke="#63b8ff" d="M886.79,-197.95C811.63,-193.25 681.49,-181.91 572.77,-156 532.29,-146.35 524.13,-137.53 484.77,-124 430.06,-105.19 333.54,-97.57 373.77,-56 422.13,-6.04 1518.18,-9.7 1719.99,-10.8"/>
<polygon fill="#63b8ff" stroke="#63b8ff" points="1719.94,-14.3 1729.96,-10.86 1719.98,-7.3 1719.94,-14.3"/>
</g>
<!-- Node5 -->
<g id="node5" class="node">
<title>Node5</title>
<g id="a_node5"><a xlink:title=" ">
<polygon fill="#e0e0e0" stroke="#999999" points="477.15,-88 382.4,-88 382.4,-56 477.15,-56 477.15,-88"/>
<text text-anchor="start" x="390.4" y="-74.5" font-family="Helvetica,sans-Serif" font-size="10.00">boost/serialization</text>
<text text-anchor="middle" x="429.77" y="-62.5" font-family="Helvetica,sans-Serif" font-size="10.00">/string.hpp</text>
</a>
</g>
</g>
<!-- Node2&#45;&gt;Node5 -->
<g id="edge4" class="edge">
<title>Node2&#45;&gt;Node5</title>
<path fill="none" stroke="#63b8ff" d="M886.67,-194.86C828.23,-188.23 738.62,-175.87 662.77,-156 623.32,-145.67 615.15,-137.8 576.77,-124 546.81,-113.23 513.28,-101.57 485.82,-92.12"/>
<polygon fill="#63b8ff" stroke="#63b8ff" points="487.25,-88.91 476.66,-88.97 484.98,-95.53 487.25,-88.91"/>
</g>
<!-- Node6 -->
<g id="node6" class="node">
<title>Node6</title>
<g id="a_node6"><a xlink:title=" ">
<polygon fill="#e0e0e0" stroke="#999999" points="2381.15,-88 2286.4,-88 2286.4,-56 2381.15,-56 2381.15,-88"/>
<text text-anchor="start" x="2294.4" y="-74.5" font-family="Helvetica,sans-Serif" font-size="10.00">boost/serialization</text>
<text text-anchor="middle" x="2333.77" y="-62.5" font-family="Helvetica,sans-Serif" font-size="10.00">/serialization.hpp</text>
</a>
</g>
</g>
<!-- Node2&#45;&gt;Node6 -->
<g id="edge5" class="edge">
<title>Node2&#45;&gt;Node6</title>
<path fill="none" stroke="#63b8ff" d="M1010.53,-195.7C1106.61,-187.42 1297.69,-170.83 1459.77,-156 1766.48,-127.93 2133.54,-92.46 2274.58,-78.76"/>
<polygon fill="#63b8ff" stroke="#63b8ff" points="2274.82,-82.26 2284.43,-77.8 2274.14,-75.29 2274.82,-82.26"/>
</g>
<!-- Node7 -->
<g id="node7" class="node">
<title>Node7</title>
<g id="a_node7"><a xlink:title=" ">
<polygon fill="#e0e0e0" stroke="#999999" points="2097.15,-88 2002.4,-88 2002.4,-56 2097.15,-56 2097.15,-88"/>
<text text-anchor="start" x="2010.4" y="-74.5" font-family="Helvetica,sans-Serif" font-size="10.00">boost/serialization</text>
<text text-anchor="middle" x="2049.77" y="-62.5" font-family="Helvetica,sans-Serif" font-size="10.00">/export.hpp</text>
</a>
</g>
</g>
<!-- Node2&#45;&gt;Node7 -->
<g id="edge6" class="edge">
<title>Node2&#45;&gt;Node7</title>
<path fill="none" stroke="#63b8ff" d="M1010.69,-197.32C1101.05,-191.31 1264.25,-177.8 1318.77,-156 1340.89,-147.15 1339.38,-132.13 1361.77,-124 1490.56,-77.22 1836.6,-108.37 1990.81,-87.94"/>
<polygon fill="#63b8ff" stroke="#63b8ff" points="1991.14,-91.43 2000.53,-86.53 1990.13,-84.5 1991.14,-91.43"/>
</g>
<!-- Node2&#45;&gt;Node8 -->
<g id="edge7" class="edge">
<title>Node2&#45;&gt;Node8</title>
<path fill="none" stroke="#63b8ff" d="M1010.75,-197.28C1091.12,-191.75 1235.36,-179.4 1356.77,-156 1360.83,-155.22 1365.03,-154.28 1369.21,-153.26"/>
<polygon fill="#63b8ff" stroke="#63b8ff" points="1369.87,-156.71 1378.67,-150.81 1368.11,-149.93 1369.87,-156.71"/>
</g>
<!-- Node8&#45;&gt;Node7 -->
<g id="edge10" class="edge">
<title>Node8&#45;&gt;Node7</title>
<path fill="none" stroke="#63b8ff" d="M1451.42,-131.58C1467.39,-128.87 1485.9,-125.99 1502.77,-124 1716.03,-98.83 1775.42,-123.1 1990.96,-88.07"/>
<polygon fill="#63b8ff" stroke="#63b8ff" points="1991.23,-91.58 2000.52,-86.5 1990.09,-84.67 1991.23,-91.58"/>
</g>
<!-- Node9 -->
<g id="node9" class="node">
<title>Node9</title>
<g id="a_node9"><a xlink:title=" ">
<polygon fill="#e0e0e0" stroke="#999999" points="1518.15,-88 1423.4,-88 1423.4,-56 1518.15,-56 1518.15,-88"/>
<text text-anchor="start" x="1431.4" y="-74.5" font-family="Helvetica,sans-Serif" font-size="10.00">boost/serialization</text>
<text text-anchor="middle" x="1470.77" y="-62.5" font-family="Helvetica,sans-Serif" font-size="10.00">/shared_ptr.hpp</text>
</a>
</g>
</g>
<!-- Node8&#45;&gt;Node9 -->
<g id="edge8" class="edge">
<title>Node8&#45;&gt;Node9</title>
<path fill="none" stroke="#63b8ff" d="M1419.37,-129.54C1427.17,-120.97 1438.99,-107.96 1449.33,-96.58"/>
<polygon fill="#63b8ff" stroke="#63b8ff" points="1451.71,-99.17 1455.84,-89.42 1446.53,-94.47 1451.71,-99.17"/>
</g>
<!-- Node10 -->
<g id="node10" class="node">
<title>Node10</title>
<g id="a_node10"><a xlink:title=" ">
<polygon fill="#e0e0e0" stroke="#999999" points="2998.15,-88 2903.4,-88 2903.4,-56 2998.15,-56 2998.15,-88"/>
<text text-anchor="start" x="2911.4" y="-74.5" font-family="Helvetica,sans-Serif" font-size="10.00">boost/serialization</text>
<text text-anchor="middle" x="2950.77" y="-62.5" font-family="Helvetica,sans-Serif" font-size="10.00">/nvp.hpp</text>
</a>
</g>
</g>
<!-- Node8&#45;&gt;Node10 -->
<g id="edge9" class="edge">
<title>Node8&#45;&gt;Node10</title>
<path fill="none" stroke="#63b8ff" d="M1451.17,-137.27C1662.44,-128.21 2640.05,-86.32 2891.61,-75.54"/>
<polygon fill="#63b8ff" stroke="#63b8ff" points="2891.69,-79.04 2901.53,-75.11 2891.39,-72.04 2891.69,-79.04"/>
</g>
<!-- Node11 -->
<g id="node11" class="node">
<title>Node11</title>
<g id="a_node11"><a xlink:href="FMTexception_8hpp.html" target="_top" xlink:title=" ">
<polygon fill="#fff0f0" stroke="red" points="1047.9,-82 951.65,-82 951.65,-62 1047.9,-62 1047.9,-82"/>
<text text-anchor="middle" x="999.77" y="-68.5" font-family="Helvetica,sans-Serif" font-size="10.00">FMTexception.hpp</text>
</a>
</g>
</g>
<!-- Node8&#45;&gt;Node11 -->
<g id="edge11" class="edge">
<title>Node8&#45;&gt;Node11</title>
<path fill="none" stroke="#63b8ff" d="M1370.02,-134.58C1304.05,-127.11 1169.93,-110.53 1057.77,-88 1053.48,-87.14 1049.03,-86.15 1044.59,-85.11"/>
<polygon fill="#63b8ff" stroke="#63b8ff" points="1045.69,-81.77 1035.14,-82.79 1044.02,-88.57 1045.69,-81.77"/>
</g>
<!-- Node14 -->
<g id="node12" class="node">
<title>Node14</title>
<g id="a_node12"><a xlink:title=" ">
<polygon fill="#e0e0e0" stroke="#999999" points="3729.4,-20 3678.15,-20 3678.15,0 3729.4,0 3729.4,-20"/>
<text text-anchor="middle" x="3703.77" y="-6.5" font-family="Helvetica,sans-Serif" font-size="10.00">memory</text>
</a>
</g>
</g>
<!-- Node8&#45;&gt;Node14 -->
<g id="edge15" class="edge">
<title>Node8&#45;&gt;Node14</title>
<path fill="none" stroke="#63b8ff" d="M1436.23,-129.57C1442.55,-127.49 1449.35,-125.47 1455.77,-124 1576.77,-96.24 1611.14,-112.84 1732.77,-88 1784.33,-77.47 1794.73,-63.81 1846.77,-56 2032.69,-28.1 3420.62,-13.69 3666.57,-11.34"/>
<polygon fill="#63b8ff" stroke="#63b8ff" points="3666.25,-14.85 3676.21,-11.25 3666.18,-7.85 3666.25,-14.85"/>
</g>
<!-- Node16 -->
<g id="node14" class="node">
<title>Node16</title>
<g id="a_node14"><a xlink:title=" ">
<polygon fill="#e0e0e0" stroke="#999999" points="1581.4,-82 1536.15,-82 1536.15,-62 1581.4,-62 1581.4,-82"/>
<text text-anchor="middle" x="1558.77" y="-68.5" font-family="Helvetica,sans-Serif" font-size="10.00">chrono</text>
</a>
</g>
</g>
<!-- Node8&#45;&gt;Node16 -->
<g id="edge16" class="edge">
<title>Node8&#45;&gt;Node16</title>
<path fill="none" stroke="#63b8ff" d="M1432.65,-129.57C1456.02,-119.45 1494.12,-102.83 1526.77,-88 1527.38,-87.72 1528,-87.44 1528.62,-87.16"/>
<polygon fill="#63b8ff" stroke="#63b8ff" points="1529.85,-90.44 1537.46,-83.07 1526.91,-84.09 1529.85,-90.44"/>
</g>
<!-- Node17 -->
<g id="node15" class="node">
<title>Node17</title>
<g id="a_node15"><a xlink:title=" ">
<polygon fill="#e0e0e0" stroke="#999999" points="1405.52,-82 1364.02,-82 1364.02,-62 1405.52,-62 1405.52,-82"/>
<text text-anchor="middle" x="1384.77" y="-68.5" font-family="Helvetica,sans-Serif" font-size="10.00">vector</text>
</a>
</g>
</g>
<!-- Node8&#45;&gt;Node17 -->
<g id="edge17" class="edge">
<title>Node8&#45;&gt;Node17</title>
<path fill="none" stroke="#63b8ff" d="M1407.05,-129.54C1403.3,-120.04 1397.41,-105.09 1392.63,-92.95"/>
<polygon fill="#63b8ff" stroke="#63b8ff" points="1395.97,-91.87 1389.04,-83.85 1389.45,-94.43 1395.97,-91.87"/>
</g>
<!-- Node18 -->
<g id="node16" class="node">
<title>Node18</title>
<g id="a_node16"><a xlink:title=" ">
<polygon fill="#e0e0e0" stroke="#999999" points="1724.15,-88 1599.4,-88 1599.4,-56 1724.15,-56 1724.15,-88"/>
<text text-anchor="start" x="1607.4" y="-74.5" font-family="Helvetica,sans-Serif" font-size="10.00">boost/dll/runtime_symbol</text>
<text text-anchor="middle" x="1661.77" y="-62.5" font-family="Helvetica,sans-Serif" font-size="10.00">_info.hpp</text>
</a>
</g>
</g>
<!-- Node8&#45;&gt;Node18 -->
<g id="edge18" class="edge">
<title>Node8&#45;&gt;Node18</title>
<path fill="none" stroke="#63b8ff" d="M1444.45,-129.55C1451.17,-127.69 1458.19,-125.77 1464.77,-124 1506.23,-112.88 1552.71,-100.82 1590.11,-91.23"/>
<polygon fill="#63b8ff" stroke="#63b8ff" points="1590.62,-94.71 1599.44,-88.84 1588.89,-87.93 1590.62,-94.71"/>
</g>
<!-- Node11&#45;&gt;Node4 -->
<g id="edge12" class="edge">
<title>Node11&#45;&gt;Node4</title>
<path fill="none" stroke="#63b8ff" d="M1032.06,-61.5C1040.37,-59.37 1049.35,-57.35 1057.77,-56 1310.72,-15.46 1621.1,-11.21 1719.96,-10.94"/>
<polygon fill="#63b8ff" stroke="#63b8ff" points="1719.95,-14.44 1729.95,-10.93 1719.94,-7.44 1719.95,-14.44"/>
</g>
<!-- Node11&#45;&gt;Node14 -->
<g id="edge13" class="edge">
<title>Node11&#45;&gt;Node14</title>
<path fill="none" stroke="#63b8ff" d="M1030.81,-61.53C1039.45,-59.29 1048.91,-57.2 1057.77,-56 1327.47,-19.36 3364.92,-11.99 3666.51,-11.1"/>
<polygon fill="#63b8ff" stroke="#63b8ff" points="3666.16,-14.6 3676.15,-11.07 3666.14,-7.6 3666.16,-14.6"/>
</g>
<!-- Node15 -->
<g id="node13" class="node">
<title>Node15</title>
<g id="a_node13"><a xlink:href="FMTutility_8hpp.html" target="_top" xlink:title=" ">
<polygon fill="white" stroke="#666666" points="205.52,-20 128.02,-20 128.02,0 205.52,0 205.52,-20"/>
<text text-anchor="middle" x="166.77" y="-6.5" font-family="Helvetica,sans-Serif" font-size="10.00">FMTutility.hpp</text>
</a>
</g>
</g>
<!-- Node11&#45;&gt;Node15 -->
<g id="edge14" class="edge">
<title>Node11&#45;&gt;Node15</title>
<path fill="none" stroke="#63b8ff" d="M968.35,-61.53C960.1,-59.38 951.16,-57.33 942.77,-56 671.64,-12.91 341.38,-9.89 217.19,-10.46"/>
<polygon fill="#63b8ff" stroke="#63b8ff" points="217.32,-6.96 207.34,-10.52 217.36,-13.96 217.32,-6.96"/>
</g>
<!-- Node19&#45;&gt;Node4 -->
<g id="edge33" class="edge">
<title>Node19&#45;&gt;Node4</title>
<path fill="none" stroke="#63b8ff" d="M920.15,-129.56C926.46,-127.43 933.3,-125.39 939.77,-124 1104.33,-88.6 1161.58,-153.17 1316.77,-88 1337.13,-79.45 1334.49,-64.73 1354.77,-56 1420.53,-27.7 1638.33,-15.78 1720.25,-12.23"/>
<polygon fill="#63b8ff" stroke="#63b8ff" points="1720.39,-15.72 1730.24,-11.81 1720.1,-8.73 1720.39,-15.72"/>
</g>
<!-- Node19&#45;&gt;Node5 -->
<g id="edge30" class="edge">
<title>Node19&#45;&gt;Node5</title>
<path fill="none" stroke="#63b8ff" d="M868.6,-129.51C861.86,-127.44 854.61,-125.43 847.77,-124 705.97,-94.25 667.35,-107.42 523.77,-88 512.47,-86.47 500.43,-84.68 488.88,-82.87"/>
<polygon fill="#63b8ff" stroke="#63b8ff" points="489.45,-79.42 479.02,-81.31 488.35,-86.33 489.45,-79.42"/>
</g>
<!-- Node19&#45;&gt;Node6 -->
<g id="edge26" class="edge">
<title>Node19&#45;&gt;Node6</title>
<path fill="none" stroke="#63b8ff" d="M935.22,-137.68C1086.71,-132.52 1645.72,-112.83 2105.77,-88 2163.29,-84.9 2228.9,-80.49 2274.93,-77.25"/>
<polygon fill="#63b8ff" stroke="#63b8ff" points="2274.95,-80.76 2284.68,-76.56 2274.46,-73.78 2274.95,-80.76"/>
</g>
<!-- Node19&#45;&gt;Node7 -->
<g id="edge29" class="edge">
<title>Node19&#45;&gt;Node7</title>
<path fill="none" stroke="#63b8ff" d="M935.24,-137.4C1117.54,-129.97 1873.79,-98.85 1990.64,-87.67"/>
<polygon fill="#63b8ff" stroke="#63b8ff" points="1991,-91.15 2000.53,-86.52 1990.19,-84.2 1991,-91.15"/>
</g>
<!-- Node19&#45;&gt;Node10 -->
<g id="edge28" class="edge">
<title>Node19&#45;&gt;Node10</title>
<path fill="none" stroke="#63b8ff" d="M935.36,-137.72C1015.73,-135.14 1203.81,-129.08 1361.77,-124 1959.11,-104.8 2682.76,-81.59 2891.7,-74.89"/>
<polygon fill="#63b8ff" stroke="#63b8ff" points="2891.6,-78.4 2901.48,-74.58 2891.38,-71.4 2891.6,-78.4"/>
</g>
<!-- Node19&#45;&gt;Node11 -->
<g id="edge31" class="edge">
<title>Node19&#45;&gt;Node11</title>
<path fill="none" stroke="#63b8ff" d="M910.67,-129.54C927.51,-118.86 955.17,-101.31 975.21,-88.59"/>
<polygon fill="#63b8ff" stroke="#63b8ff" points="977.05,-91.56 983.62,-83.25 973.3,-85.65 977.05,-91.56"/>
</g>
<!-- Node19&#45;&gt;Node17 -->
<g id="edge32" class="edge">
<title>Node19&#45;&gt;Node17</title>
<path fill="none" stroke="#63b8ff" d="M925.53,-129.53C933.05,-127.43 941.15,-125.41 948.77,-124 1124.73,-91.49 1176.27,-131.79 1349.77,-88 1351.62,-87.53 1353.5,-86.98 1355.38,-86.37"/>
<polygon fill="#63b8ff" stroke="#63b8ff" points="1356.37,-89.73 1364.48,-82.91 1353.89,-83.19 1356.37,-89.73"/>
</g>
<!-- Node20 -->
<g id="node18" class="node">
<title>Node20</title>
<g id="a_node18"><a xlink:title=" ">
<polygon fill="#e0e0e0" stroke="#999999" points="805.65,-82 677.9,-82 677.9,-62 805.65,-62 805.65,-82"/>
<text text-anchor="middle" x="741.77" y="-68.5" font-family="Helvetica,sans-Serif" font-size="10.00">boost/dynamic_bitset.hpp</text>
</a>
</g>
</g>
<!-- Node19&#45;&gt;Node20 -->
<g id="edge21" class="edge">
<title>Node19&#45;&gt;Node20</title>
<path fill="none" stroke="#63b8ff" d="M873.71,-129.54C847.63,-118.37 804.02,-99.68 774.13,-86.87"/>
<polygon fill="#63b8ff" stroke="#63b8ff" points="775.76,-83.76 765.19,-83.03 773,-90.19 775.76,-83.76"/>
</g>
<!-- Node21 -->
<g id="node19" class="node">
<title>Node21</title>
<g id="a_node19"><a xlink:title=" ">
<polygon fill="#e0e0e0" stroke="#999999" points="1984.02,-82 1855.52,-82 1855.52,-62 1984.02,-62 1984.02,-82"/>
<text text-anchor="middle" x="1919.77" y="-68.5" font-family="Helvetica,sans-Serif" font-size="10.00">boost/unordered_map.hpp</text>
</a>
</g>
</g>
<!-- Node19&#45;&gt;Node21 -->
<g id="edge22" class="edge">
<title>Node19&#45;&gt;Node21</title>
<path fill="none" stroke="#63b8ff" d="M935.01,-136.88C1054.69,-130.35 1425.63,-109.67 1732.77,-88 1769.4,-85.41 1810.04,-82.2 1844.05,-79.41"/>
<polygon fill="#63b8ff" stroke="#63b8ff" points="1844.13,-82.91 1853.81,-78.6 1843.56,-75.93 1844.13,-82.91"/>
</g>
<!-- Node22 -->
<g id="node20" class="node">
<title>Node22</title>
<g id="a_node20"><a xlink:title=" ">
<polygon fill="#e0e0e0" stroke="#999999" points="1308.02,-82 1179.52,-82 1179.52,-62 1308.02,-62 1308.02,-82"/>
<text text-anchor="middle" x="1243.77" y="-68.5" font-family="Helvetica,sans-Serif" font-size="10.00">boost/algorithm/string.hpp</text>
</a>
</g>
</g>
<!-- Node19&#45;&gt;Node22 -->
<g id="edge23" class="edge">
<title>Node19&#45;&gt;Node22</title>
<path fill="none" stroke="#63b8ff" d="M927.01,-129.52C934.12,-127.54 941.68,-125.58 948.77,-124 1045.92,-102.41 1071.88,-105.89 1169.77,-88 1175.43,-86.97 1181.32,-85.85 1187.2,-84.7"/>
<polygon fill="#63b8ff" stroke="#63b8ff" points="1187.81,-88.15 1196.94,-82.77 1186.45,-81.28 1187.81,-88.15"/>
</g>
<!-- Node23 -->
<g id="node21" class="node">
<title>Node23</title>
<g id="a_node21"><a xlink:title=" ">
<polygon fill="#e0e0e0" stroke="#999999" points="933.65,-88 823.9,-88 823.9,-56 933.65,-56 933.65,-88"/>
<text text-anchor="start" x="831.9" y="-74.5" font-family="Helvetica,sans-Serif" font-size="10.00">boost/algorithm/string</text>
<text text-anchor="middle" x="878.77" y="-62.5" font-family="Helvetica,sans-Serif" font-size="10.00">/join.hpp</text>
</a>
</g>
</g>
<!-- Node19&#45;&gt;Node23 -->
<g id="edge24" class="edge">
<title>Node19&#45;&gt;Node23</title>
<path fill="none" stroke="#63b8ff" d="M893.34,-129.54C891.3,-121.64 888.29,-109.97 885.54,-99.29"/>
<polygon fill="#63b8ff" stroke="#63b8ff" points="888.97,-98.58 883.09,-89.77 882.2,-100.32 888.97,-98.58"/>
</g>
<!-- Node24 -->
<g id="node22" class="node">
<title>Node24</title>
<g id="a_node22"><a xlink:title=" ">
<polygon fill="#e0e0e0" stroke="#999999" points="660.27,-82 533.27,-82 533.27,-62 660.27,-62 660.27,-82"/>
<text text-anchor="middle" x="596.77" y="-68.5" font-family="Helvetica,sans-Serif" font-size="10.00">boost/functional/hash.hpp</text>
</a>
</g>
</g>
<!-- Node19&#45;&gt;Node24 -->
<g id="edge25" class="edge">
<title>Node19&#45;&gt;Node24</title>
<path fill="none" stroke="#63b8ff" d="M867.23,-129.54C860.86,-127.58 854.11,-125.62 847.77,-124 769.16,-103.87 748.27,-104.28 668.77,-88 663.65,-86.95 658.32,-85.85 652.98,-84.75"/>
<polygon fill="#63b8ff" stroke="#63b8ff" points="654.07,-81.4 643.56,-82.8 652.65,-88.25 654.07,-81.4"/>
</g>
<!-- Node25 -->
<g id="node23" class="node">
<title>Node25</title>
<g id="a_node23"><a xlink:title=" ">
<polygon fill="#e0e0e0" stroke="#999999" points="1161.15,-88 1066.4,-88 1066.4,-56 1161.15,-56 1161.15,-88"/>
<text text-anchor="start" x="1074.4" y="-74.5" font-family="Helvetica,sans-Serif" font-size="10.00">boost/serialization</text>
<text text-anchor="middle" x="1113.77" y="-62.5" font-family="Helvetica,sans-Serif" font-size="10.00">/split_free.hpp</text>
</a>
</g>
</g>
<!-- Node19&#45;&gt;Node25 -->
<g id="edge27" class="edge">
<title>Node19&#45;&gt;Node25</title>
<path fill="none" stroke="#63b8ff" d="M927.01,-129.54C960.33,-119.45 1013.89,-103.24 1055.12,-90.76"/>
<polygon fill="#63b8ff" stroke="#63b8ff" points="1056.12,-94.11 1064.68,-87.86 1054.1,-87.41 1056.12,-94.11"/>
</g>
<!-- Node26&#45;&gt;Node3 -->
<g id="edge39" class="edge">
<title>Node26&#45;&gt;Node3</title>
<path fill="none" stroke="#63b8ff" d="M2684.84,-200.27C2404.96,-195.23 781.29,-165.67 677.77,-156 591.2,-147.91 571.01,-135.06 484.77,-124 309.92,-101.57 257.81,-141.29 89.77,-88 89.12,-87.79 88.47,-87.57 87.81,-87.33"/>
<polygon fill="#63b8ff" stroke="#63b8ff" points="89.46,-84.23 78.93,-83.08 86.44,-90.55 89.46,-84.23"/>
</g>
<!-- Node26&#45;&gt;Node4 -->
<g id="edge37" class="edge">
<title>Node26&#45;&gt;Node4</title>
<path fill="none" stroke="#63b8ff" d="M2766.66,-200.64C2945.65,-198.85 3652.63,-189.69 3684.77,-156 3694.59,-145.71 3694.14,-134.7 3684.77,-124 3533.51,48.67 3401.56,-74.77 3172.77,-56 2617.7,-10.47 1937.18,-10.24 1783.57,-10.83"/>
<polygon fill="#63b8ff" stroke="#63b8ff" points="1783.76,-7.33 1773.77,-10.87 1783.79,-14.33 1783.76,-7.33"/>
</g>
<!-- Node26&#45;&gt;Node5 -->
<g id="edge43" class="edge">
<title>Node26&#45;&gt;Node5</title>
<path fill="none" stroke="#63b8ff" d="M2684.7,-200.22C2402.28,-194.83 758.03,-163.16 733.77,-156 707.75,-148.32 707.12,-133.68 681.77,-124 600.86,-93.09 572.09,-107.25 488.63,-89.46"/>
<polygon fill="#63b8ff" stroke="#63b8ff" points="489.61,-86.1 479.08,-87.33 488.08,-92.93 489.61,-86.1"/>
</g>
<!-- Node26&#45;&gt;Node6 -->
<g id="edge36" class="edge">
<title>Node26&#45;&gt;Node6</title>
<path fill="none" stroke="#63b8ff" d="M2721.99,-191.54C2714.79,-174.83 2697.38,-140.32 2670.77,-124 2625.31,-96.11 2476.77,-82.21 2392.86,-76.43"/>
<polygon fill="#63b8ff" stroke="#63b8ff" points="2393.19,-72.94 2382.98,-75.76 2392.72,-79.92 2393.19,-72.94"/>
</g>
<!-- Node26&#45;&gt;Node7 -->
<g id="edge42" class="edge">
<title>Node26&#45;&gt;Node7</title>
<path fill="none" stroke="#63b8ff" d="M2696.35,-191.56C2645.26,-175.5 2536.64,-142.77 2442.77,-124 2325.5,-100.55 2186.29,-85.43 2109,-78.14"/>
<polygon fill="#63b8ff" stroke="#63b8ff" points="2109.39,-74.66 2099.11,-77.22 2108.74,-81.63 2109.39,-74.66"/>
</g>
<!-- Node26&#45;&gt;Node8 -->
<g id="edge50" class="edge">
<title>Node26&#45;&gt;Node8</title>
<path fill="none" stroke="#63b8ff" d="M2684.97,-199.14C2492.67,-190.36 1677.14,-153.15 1462.64,-143.37"/>
<polygon fill="#63b8ff" stroke="#63b8ff" points="1463.08,-139.88 1452.93,-142.92 1462.76,-146.88 1463.08,-139.88"/>
</g>
<!-- Node26&#45;&gt;Node10 -->
<g id="edge40" class="edge">
<title>Node26&#45;&gt;Node10</title>
<path fill="none" stroke="#63b8ff" d="M2766.85,-201.22C2900.2,-201.52 3314.77,-198.97 3354.77,-156 3364.46,-145.59 3364.18,-134.67 3354.77,-124 3343.48,-111.2 3119.22,-88.68 3009.8,-78.4"/>
<polygon fill="#63b8ff" stroke="#63b8ff" points="3010.42,-74.94 3000.14,-77.49 3009.77,-81.91 3010.42,-74.94"/>
</g>
<!-- Node26&#45;&gt;Node17 -->
<g id="edge38" class="edge">
<title>Node26&#45;&gt;Node17</title>
<path fill="none" stroke="#63b8ff" d="M2684.76,-197.9C2469.47,-181.58 1477.47,-105.68 1414.77,-88 1413.59,-87.67 1412.41,-87.29 1411.22,-86.87"/>
<polygon fill="#63b8ff" stroke="#63b8ff" points="1412.79,-83.74 1402.22,-83.01 1410.03,-90.17 1412.79,-83.74"/>
</g>
<!-- Node27 -->
<g id="node25" class="node">
<title>Node27</title>
<g id="a_node25"><a xlink:title=" ">
<polygon fill="#e0e0e0" stroke="#999999" points="3233.27,-156 3124.27,-156 3124.27,-124 3233.27,-124 3233.27,-156"/>
<text text-anchor="start" x="3132.27" y="-142.5" font-family="Helvetica,sans-Serif" font-size="10.00">boost/dynamic_bitset</text>
<text text-anchor="middle" x="3178.77" y="-130.5" font-family="Helvetica,sans-Serif" font-size="10.00">_fwd.hpp</text>
</a>
</g>
</g>
<!-- Node26&#45;&gt;Node27 -->
<g id="edge35" class="edge">
<title>Node26&#45;&gt;Node27</title>
<path fill="none" stroke="#63b8ff" d="M2766.71,-197.89C2836.05,-192.27 2981.19,-179 3112.81,-156.4"/>
<polygon fill="#63b8ff" stroke="#63b8ff" points="3113.13,-159.9 3122.39,-154.74 3111.93,-153 3113.13,-159.9"/>
</g>
<!-- Node28 -->
<g id="node26" class="node">
<title>Node28</title>
<g id="a_node26"><a xlink:title=" ">
<polygon fill="#e0e0e0" stroke="#999999" points="3346.15,-156 3251.4,-156 3251.4,-124 3346.15,-124 3346.15,-156"/>
<text text-anchor="start" x="3259.4" y="-142.5" font-family="Helvetica,sans-Serif" font-size="10.00">boost/serialization</text>
<text text-anchor="middle" x="3298.77" y="-130.5" font-family="Helvetica,sans-Serif" font-size="10.00">/map.hpp</text>
</a>
</g>
</g>
<!-- Node26&#45;&gt;Node28 -->
<g id="edge41" class="edge">
<title>Node26&#45;&gt;Node28</title>
<path fill="none" stroke="#63b8ff" d="M2766.88,-199.79C2852.93,-196.75 3058.36,-186.83 3239.91,-156.11"/>
<polygon fill="#63b8ff" stroke="#63b8ff" points="3240.25,-159.6 3249.52,-154.46 3239.07,-152.7 3240.25,-159.6"/>
</g>
<!-- Node29 -->
<g id="node27" class="node">
<title>Node29</title>
<g id="a_node27"><a xlink:href="FMTexceptionhandler_8hpp.html" target="_top" xlink:title=" ">
<polygon fill="#fff0f0" stroke="red" points="3106.65,-150 2978.9,-150 2978.9,-130 3106.65,-130 3106.65,-150"/>
<text text-anchor="middle" x="3042.77" y="-136.5" font-family="Helvetica,sans-Serif" font-size="10.00">FMTexceptionhandler.hpp</text>
</a>
</g>
</g>
<!-- Node26&#45;&gt;Node29 -->
<g id="edge44" class="edge">
<title>Node26&#45;&gt;Node29</title>
<path fill="none" stroke="#63b8ff" d="M2766.8,-193.32C2814.42,-184.41 2895.3,-169.22 2964.77,-156 2970.61,-154.89 2976.7,-153.73 2982.78,-152.56"/>
<polygon fill="#63b8ff" stroke="#63b8ff" points="2983.03,-156.08 2992.19,-150.76 2981.71,-149.2 2983.03,-156.08"/>
</g>
<!-- Node33 -->
<g id="node28" class="node">
<title>Node33</title>
<g id="a_node28"><a xlink:title=" ">
<polygon fill="#e0e0e0" stroke="#999999" points="3821.15,-82 3738.4,-82 3738.4,-62 3821.15,-62 3821.15,-82"/>
<text text-anchor="middle" x="3779.77" y="-68.5" font-family="Helvetica,sans-Serif" font-size="10.00">unordered_map</text>
</a>
</g>
</g>
<!-- Node26&#45;&gt;Node33 -->
<g id="edge51" class="edge">
<title>Node26&#45;&gt;Node33</title>
<path fill="none" stroke="#63b8ff" d="M2766.61,-200.54C2953.09,-198.26 3716.27,-187.07 3755.77,-156 3774.44,-141.32 3779.19,-113.05 3780.11,-93.62"/>
<polygon fill="#63b8ff" stroke="#63b8ff" points="3783.6,-93.91 3780.24,-83.87 3776.6,-93.82 3783.6,-93.91"/>
</g>
<!-- Node29&#45;&gt;Node6 -->
<g id="edge46" class="edge">
<title>Node29&#45;&gt;Node6</title>
<path fill="none" stroke="#63b8ff" d="M2978.6,-133.03C2842.11,-120.32 2524.72,-90.78 2392.86,-78.5"/>
<polygon fill="#63b8ff" stroke="#63b8ff" points="2393.22,-75.02 2382.94,-77.58 2392.57,-81.99 2393.22,-75.02"/>
</g>
<!-- Node29&#45;&gt;Node7 -->
<g id="edge48" class="edge">
<title>Node29&#45;&gt;Node7</title>
<path fill="none" stroke="#63b8ff" d="M2978.75,-133.58C2942.65,-130.6 2896.71,-126.92 2855.77,-124 2599.04,-105.71 2534.63,-104.45 2277.77,-88 2220.29,-84.32 2154.67,-79.99 2108.63,-76.93"/>
<polygon fill="#63b8ff" stroke="#63b8ff" points="2109.09,-73.45 2098.88,-76.28 2108.62,-80.44 2109.09,-73.45"/>
</g>
<!-- Node29&#45;&gt;Node10 -->
<g id="edge47" class="edge">
<title>Node29&#45;&gt;Node10</title>
<path fill="none" stroke="#63b8ff" d="M3029.59,-129.54C3017.05,-120.55 2997.71,-106.67 2981.33,-94.92"/>
<polygon fill="#63b8ff" stroke="#63b8ff" points="2983.5,-92.17 2973.33,-89.18 2979.42,-97.86 2983.5,-92.17"/>
</g>
<!-- Node29&#45;&gt;Node14 -->
<g id="edge49" class="edge">
<title>Node29&#45;&gt;Node14</title>
<path fill="none" stroke="#63b8ff" d="M3087.69,-129.53C3096.65,-127.67 3106.01,-125.75 3114.77,-124 3323.11,-82.32 3573.54,-35.29 3666.6,-17.92"/>
<polygon fill="#63b8ff" stroke="#63b8ff" points="3667.23,-21.36 3676.42,-16.09 3665.95,-14.48 3667.23,-21.36"/>
</g>
<!-- Node29&#45;&gt;Node33 -->
<g id="edge45" class="edge">
<title>Node29&#45;&gt;Node33</title>
<path fill="none" stroke="#63b8ff" d="M3083.73,-129.51C3093.83,-127.44 3104.66,-125.44 3114.77,-124 3232.71,-107.26 3590.64,-84.49 3726.6,-76.19"/>
<polygon fill="#63b8ff" stroke="#63b8ff" points="3726.63,-79.69 3736.4,-75.59 3726.21,-72.71 3726.63,-79.69"/>
</g>
<!-- Node36&#45;&gt;Node3 -->
<g id="edge54" class="edge">
<title>Node36&#45;&gt;Node3</title>
<path fill="none" stroke="#63b8ff" d="M182.32,-129.57C158.64,-119.85 121.17,-103.9 89.77,-88 89.67,-87.95 89.56,-87.89 89.46,-87.84"/>
<polygon fill="#63b8ff" stroke="#63b8ff" points="91.36,-84.89 80.9,-83.2 88.02,-91.05 91.36,-84.89"/>
</g>
<!-- Node36&#45;&gt;Node5 -->
<g id="edge61" class="edge">
<title>Node36&#45;&gt;Node5</title>
<path fill="none" stroke="#63b8ff" d="M237.87,-129.54C272.59,-119.31 328.69,-102.78 371.28,-90.23"/>
<polygon fill="#63b8ff" stroke="#63b8ff" points="372.02,-93.66 380.63,-87.48 370.04,-86.95 372.02,-93.66"/>
</g>
<!-- Node36&#45;&gt;Node6 -->
<g id="edge59" class="edge">
<title>Node36&#45;&gt;Node6</title>
<path fill="none" stroke="#63b8ff" d="M249.05,-134.26C282.51,-130.8 330.02,-126.32 371.77,-124 1141.42,-81.29 1335.66,-121.31 2105.77,-88 2163.31,-85.51 2228.93,-81.02 2274.95,-77.6"/>
<polygon fill="#63b8ff" stroke="#63b8ff" points="2274.99,-81.11 2284.7,-76.87 2274.46,-74.13 2274.99,-81.11"/>
</g>
<!-- Node36&#45;&gt;Node10 -->
<g id="edge60" class="edge">
<title>Node36&#45;&gt;Node10</title>
<path fill="none" stroke="#63b8ff" d="M249.05,-134.23C282.51,-130.74 330.02,-126.26 371.77,-124 1267.5,-75.6 1492.96,-107.99 2389.77,-88 2572.9,-83.92 2789.62,-77.74 2891.82,-74.75"/>
<polygon fill="#63b8ff" stroke="#63b8ff" points="2891.71,-78.25 2901.61,-74.46 2891.51,-71.26 2891.71,-78.25"/>
</g>
<!-- Node36&#45;&gt;Node11 -->
<g id="edge55" class="edge">
<title>Node36&#45;&gt;Node11</title>
<path fill="none" stroke="#63b8ff" d="M249.08,-134.76C282.57,-131.56 330.08,-127.2 371.77,-124 625.31,-104.56 691.74,-128.55 942.77,-88 947.49,-87.24 952.38,-86.26 957.23,-85.16"/>
<polygon fill="#63b8ff" stroke="#63b8ff" points="958,-88.57 966.88,-82.8 956.33,-81.77 958,-88.57"/>
</g>
<!-- Node36&#45;&gt;Node15 -->
<g id="edge56" class="edge">
<title>Node36&#45;&gt;Node15</title>
<path fill="none" stroke="#63b8ff" d="M201.71,-129.73C197.38,-119.61 190.5,-102.86 185.77,-88 179.71,-68.95 174.42,-46.74 170.96,-31.08"/>
<polygon fill="#63b8ff" stroke="#63b8ff" points="174.45,-30.64 168.93,-21.6 167.61,-32.11 174.45,-30.64"/>
</g>
<!-- Node36&#45;&gt;Node17 -->
<g id="edge57" class="edge">
<title>Node36&#45;&gt;Node17</title>
<path fill="none" stroke="#63b8ff" d="M249.06,-134.47C282.53,-131.11 330.04,-126.68 371.77,-124 791.21,-97.08 899.88,-141.48 1316.77,-88 1328.61,-86.48 1341.43,-83.9 1352.71,-81.31"/>
<polygon fill="#63b8ff" stroke="#63b8ff" points="1353.43,-84.74 1362.34,-79 1351.79,-77.93 1353.43,-84.74"/>
</g>
<!-- Node36&#45;&gt;Node24 -->
<g id="edge58" class="edge">
<title>Node36&#45;&gt;Node24</title>
<path fill="none" stroke="#63b8ff" d="M249.11,-131.68C317.09,-120.21 449.32,-97.89 529.67,-84.33"/>
<polygon fill="#63b8ff" stroke="#63b8ff" points="529.88,-87.84 539.16,-82.72 528.72,-80.94 529.88,-87.84"/>
</g>
<!-- Node37 -->
<g id="node30" class="node">
<title>Node37</title>
<g id="a_node30"><a xlink:title=" ">
<polygon fill="#e0e0e0" stroke="#999999" points="138.4,-82 99.15,-82 99.15,-62 138.4,-62 138.4,-82"/>
<text text-anchor="middle" x="118.77" y="-68.5" font-family="Helvetica,sans-Serif" font-size="10.00">limits</text>
</a>
</g>
</g>
<!-- Node36&#45;&gt;Node37 -->
<g id="edge53" class="edge">
<title>Node36&#45;&gt;Node37</title>
<path fill="none" stroke="#63b8ff" d="M193.31,-129.54C179.48,-119.06 156.93,-101.95 140.25,-89.29"/>
<polygon fill="#63b8ff" stroke="#63b8ff" points="142.5,-86.61 132.42,-83.35 138.27,-92.19 142.5,-86.61"/>
</g>
<!-- Node38 -->
<g id="node31" class="node">
<title>Node38</title>
<g id="a_node31"><a xlink:title=" ">
<polygon fill="#e0e0e0" stroke="#999999" points="250.65,-82 194.9,-82 194.9,-62 250.65,-62 250.65,-82"/>
<text text-anchor="middle" x="222.77" y="-68.5" font-family="Helvetica,sans-Serif" font-size="10.00">algorithm</text>
</a>
</g>
</g>
<!-- Node36&#45;&gt;Node38 -->
<g id="edge62" class="edge">
<title>Node36&#45;&gt;Node38</title>
<path fill="none" stroke="#63b8ff" d="M208.21,-129.54C210.63,-120.13 214.43,-105.39 217.54,-93.32"/>
<polygon fill="#63b8ff" stroke="#63b8ff" points="220.86,-94.46 219.96,-83.9 214.08,-92.72 220.86,-94.46"/>
</g>
<!-- Node39&#45;&gt;Node5 -->
<g id="edge67" class="edge">
<title>Node39&#45;&gt;Node5</title>
<path fill="none" stroke="#63b8ff" d="M1948.39,-200.43C1717.3,-197.84 823.04,-185.93 700.77,-156 668.72,-148.15 664.89,-134.98 633.77,-124 571.75,-102.13 551.09,-105.21 488.49,-89.67"/>
<polygon fill="#63b8ff" stroke="#63b8ff" points="489.65,-86.36 479.1,-87.27 487.92,-93.14 489.65,-86.36"/>
</g>
<!-- Node39&#45;&gt;Node6 -->
<g id="edge65" class="edge">
<title>Node39&#45;&gt;Node6</title>
<path fill="none" stroke="#63b8ff" d="M2024.92,-191.54C2059.94,-176.67 2130.33,-147.14 2190.77,-124 2219.44,-113.02 2251.61,-101.48 2278.18,-92.16"/>
<polygon fill="#63b8ff" stroke="#63b8ff" points="2279.1,-95.54 2287.38,-88.94 2276.79,-88.93 2279.1,-95.54"/>
</g>
<!-- Node39&#45;&gt;Node7 -->
<g id="edge71" class="edge">
<title>Node39&#45;&gt;Node7</title>
<path fill="none" stroke="#63b8ff" d="M2006.15,-191.79C2013.21,-172.56 2029.75,-127.54 2040.31,-98.77"/>
<polygon fill="#63b8ff" stroke="#63b8ff" points="2043.48,-100.29 2043.64,-89.69 2036.91,-97.87 2043.48,-100.29"/>
</g>
<!-- Node39&#45;&gt;Node8 -->
<g id="edge68" class="edge">
<title>Node39&#45;&gt;Node8</title>
<path fill="none" stroke="#63b8ff" d="M1948.33,-196.01C1861.91,-188.03 1688.02,-171.67 1540.77,-156 1515.05,-153.26 1486.49,-149.99 1462.7,-147.21"/>
<polygon fill="#63b8ff" stroke="#63b8ff" points="1463.29,-143.75 1452.95,-146.06 1462.47,-150.7 1463.29,-143.75"/>
</g>
<!-- Node39&#45;&gt;Node10 -->
<g id="edge66" class="edge">
<title>Node39&#45;&gt;Node10</title>
<path fill="none" stroke="#63b8ff" d="M2057.25,-195.73C2072.31,-194.39 2088.67,-193.03 2103.77,-192 2187.23,-186.29 2779.02,-189.26 2855.77,-156 2874.52,-147.88 2873.54,-137.61 2888.77,-124 2899.46,-114.45 2911.57,-104.34 2922.24,-95.66"/>
<polygon fill="#63b8ff" stroke="#63b8ff" points="2924.4,-98.41 2929.98,-89.4 2920,-92.96 2924.4,-98.41"/>
</g>
<!-- Node39&#45;&gt;Node14 -->
<g id="edge69" class="edge">
<title>Node39&#45;&gt;Node14</title>
<path fill="none" stroke="#63b8ff" d="M2057.24,-195.48C2072.3,-194.14 2088.66,-192.84 2103.77,-192 2147.63,-189.55 3652.09,-185.35 3684.77,-156 3719.63,-124.7 3714.11,-63.2 3708.31,-31.29"/>
<polygon fill="#63b8ff" stroke="#63b8ff" points="3711.8,-30.87 3706.38,-21.77 3704.94,-32.26 3711.8,-30.87"/>
</g>
<!-- Node39&#45;&gt;Node17 -->
<g id="edge70" class="edge">
<title>Node39&#45;&gt;Node17</title>
<path fill="none" stroke="#63b8ff" d="M1948.17,-199.17C1796.8,-193.84 1381.66,-177.33 1361.77,-156 1345.34,-138.37 1358.71,-110.05 1370.87,-91.48"/>
<polygon fill="#63b8ff" stroke="#63b8ff" points="1373.57,-93.73 1376.44,-83.53 1367.84,-89.71 1373.57,-93.73"/>
</g>
<!-- Node39&#45;&gt;Node19 -->
<g id="edge64" class="edge">
<title>Node39&#45;&gt;Node19</title>
<path fill="none" stroke="#63b8ff" d="M1948.25,-198.05C1758.76,-187.77 1130.33,-153.71 946.62,-143.76"/>
<polygon fill="#63b8ff" stroke="#63b8ff" points="946.86,-140.26 936.69,-143.22 946.48,-147.25 946.86,-140.26"/>
</g>
<!-- Node39&#45;&gt;Node29 -->
<g id="edge72" class="edge">
<title>Node39&#45;&gt;Node29</title>
<path fill="none" stroke="#63b8ff" d="M2057.25,-195.71C2072.31,-194.37 2088.67,-193.02 2103.77,-192 2452.24,-168.5 2540.41,-180.94 2888.77,-156 2914.45,-154.16 2942.48,-151.6 2967.5,-149.11"/>
<polygon fill="#63b8ff" stroke="#63b8ff" points="2967.67,-152.61 2977.27,-148.13 2966.96,-145.65 2967.67,-152.61"/>
</g>
<!-- Node40&#45;&gt;Node6 -->
<g id="edge75" class="edge">
<title>Node40&#45;&gt;Node6</title>
<path fill="none" stroke="#63b8ff" d="M2584.29,-247.59C2592.53,-223.74 2610.17,-160.28 2579.77,-124 2553.65,-92.82 2445.75,-97.19 2392.89,-89.12"/>
<polygon fill="#63b8ff" stroke="#63b8ff" points="2393.57,-85.69 2383.1,-87.27 2392.27,-92.57 2393.57,-85.69"/>
</g>
<!-- Node40&#45;&gt;Node7 -->
<g id="edge77" class="edge">
<title>Node40&#45;&gt;Node7</title>
<path fill="none" stroke="#63b8ff" d="M2554.7,-247.66C2493.42,-225.74 2335.39,-169.43 2202.77,-124 2171.3,-113.22 2136.08,-101.46 2107.37,-91.95"/>
<polygon fill="#63b8ff" stroke="#63b8ff" points="2108.74,-88.72 2098.15,-88.9 2106.54,-95.36 2108.74,-88.72"/>
</g>
<!-- Node40&#45;&gt;Node10 -->
<g id="edge76" class="edge">
<title>Node40&#45;&gt;Node10</title>
<path fill="none" stroke="#63b8ff" d="M2648.23,-256.47C2810.37,-254.64 3218.26,-246.64 3349.77,-212 3404.36,-197.62 3433.93,-203.91 3463.77,-156 3471.29,-143.93 3473.43,-134.44 3463.77,-124 3430.72,-88.27 3091.99,-96.15 3009.81,-88.6"/>
<polygon fill="#63b8ff" stroke="#63b8ff" points="3010.43,-85.15 3000.07,-87.37 3009.56,-92.09 3010.43,-85.15"/>
</g>
<!-- Node40&#45;&gt;Node39 -->
<g id="edge74" class="edge">
<title>Node40&#45;&gt;Node39</title>
<path fill="none" stroke="#63b8ff" d="M2513.14,-249.09C2509.63,-248.71 2506.16,-248.35 2502.77,-248 2481.52,-245.82 2199.49,-220.58 2068.63,-208.88"/>
<polygon fill="#63b8ff" stroke="#63b8ff" points="2068.98,-205.4 2058.71,-208 2068.36,-212.37 2068.98,-205.4"/>
</g>
<!-- Node41&#45;&gt;Node6 -->
<g id="edge80" class="edge">
<title>Node41&#45;&gt;Node6</title>
<path fill="none" stroke="#63b8ff" d="M2494.59,-249.66C2518.09,-243.51 2542.45,-232.32 2556.77,-212 2579.3,-180.03 2581.41,-154.37 2556.77,-124 2510.13,-66.52 2465.52,-102.96 2392.59,-89.34"/>
<polygon fill="#63b8ff" stroke="#63b8ff" points="2393.62,-85.98 2383.1,-87.27 2392.12,-92.82 2393.62,-85.98"/>
</g>
<!-- Node41&#45;&gt;Node7 -->
<g id="edge82" class="edge">
<title>Node41&#45;&gt;Node7</title>
<path fill="none" stroke="#63b8ff" d="M2411.35,-247.62C2352.3,-219.1 2173.9,-132.94 2091.86,-93.33"/>
<polygon fill="#63b8ff" stroke="#63b8ff" points="2093.54,-90.25 2083.01,-89.05 2090.5,-96.55 2093.54,-90.25"/>
</g>
<!-- Node41&#45;&gt;Node14 -->
<g id="edge81" class="edge">
<title>Node41&#45;&gt;Node14</title>
<path fill="none" stroke="#63b8ff" d="M2494.51,-248.9C2497.98,-248.57 2501.42,-248.27 2504.77,-248 2929.95,-214.22 3038.87,-249.19 3463.77,-212 3645.23,-196.12 3750.09,-293.32 3869.77,-156 3898.97,-122.49 3896.78,-91.3 3869.77,-56 3854.2,-35.64 3784.87,-22.35 3740.88,-15.81"/>
<polygon fill="#63b8ff" stroke="#63b8ff" points="3741.65,-12.38 3731.25,-14.43 3740.65,-19.31 3741.65,-12.38"/>
</g>
<!-- Node41&#45;&gt;Node39 -->
<g id="edge79" class="edge">
<title>Node41&#45;&gt;Node39</title>
<path fill="none" stroke="#63b8ff" d="M2367.16,-248.97C2286.87,-238.84 2149.47,-221.51 2068.29,-211.27"/>
<polygon fill="#63b8ff" stroke="#63b8ff" points="2069.08,-207.84 2058.72,-210.06 2068.21,-214.78 2069.08,-207.84"/>
</g>
<!-- Node42&#45;&gt;Node4 -->
<g id="edge107" class="edge">
<title>Node42&#45;&gt;Node4</title>
<path fill="none" stroke="#63b8ff" d="M1715.16,-303.77C1703.54,-295.9 1688.55,-283.44 1681.77,-268 1678.2,-259.86 1679.64,-256.63 1681.77,-248 1701,-170.02 1746.55,-165.98 1765.77,-88 1770.54,-68.66 1765.25,-46.21 1759.87,-30.56"/>
<polygon fill="#63b8ff" stroke="#63b8ff" points="1763.25,-29.61 1756.43,-21.5 1756.7,-32.09 1763.25,-29.61"/>
</g>
<!-- Node42&#45;&gt;Node5 -->
<g id="edge104" class="edge">
<title>Node42&#45;&gt;Node5</title>
<path fill="none" stroke="#63b8ff" d="M1690.14,-309.68C1609.49,-302.95 1423.53,-286.74 1267.77,-268 1093.91,-247.08 1049.39,-246.78 877.77,-212 843.54,-205.06 835.95,-199.21 801.77,-192 702.68,-171.09 669.62,-196.43 576.77,-156 555.58,-146.77 555.41,-136.19 535.77,-124 517.27,-112.51 495.78,-101.74 477.01,-93.09"/>
<polygon fill="#63b8ff" stroke="#63b8ff" points="478.54,-89.94 467.99,-89 475.65,-96.32 478.54,-89.94"/>
</g>
<!-- Node42&#45;&gt;Node6 -->
<g id="edge105" class="edge">
<title>Node42&#45;&gt;Node6</title>
<path fill="none" stroke="#63b8ff" d="M1771.23,-309.76C1898.56,-299.15 2289.42,-263.09 2404.77,-212 2452.02,-191.07 2510.73,-166.11 2480.77,-124 2477.96,-120.04 2431.91,-104.44 2392.1,-91.52"/>
<polygon fill="#63b8ff" stroke="#63b8ff" points="2393.37,-88.25 2382.78,-88.51 2391.22,-94.91 2393.37,-88.25"/>
</g>
<!-- Node42&#45;&gt;Node7 -->
<g id="edge110" class="edge">
<title>Node42&#45;&gt;Node7</title>
<path fill="none" stroke="#63b8ff" d="M1771.32,-306.19C1815.02,-298.18 1880.97,-283.94 1900.77,-268 1930.35,-244.19 1918.02,-223.12 1939.77,-192 1965.18,-155.65 2001.01,-118.94 2024.79,-96.1"/>
<polygon fill="#63b8ff" stroke="#63b8ff" points="2027.02,-98.81 2031.86,-89.39 2022.2,-93.73 2027.02,-98.81"/>
</g>
<!-- Node42&#45;&gt;Node10 -->
<g id="edge106" class="edge">
<title>Node42&#45;&gt;Node10</title>
<path fill="none" stroke="#63b8ff" d="M1771.37,-311.93C2011.9,-305.41 3245.03,-269.38 3402.77,-212 3443.22,-197.29 3462.01,-194.23 3481.77,-156 3488.3,-143.37 3491.44,-134.43 3481.77,-124 3447.35,-86.9 3094.74,-96.28 3009.96,-88.61"/>
<polygon fill="#63b8ff" stroke="#63b8ff" points="3010.43,-85.14 3000.07,-87.38 3009.56,-92.09 3010.43,-85.14"/>
</g>
<!-- Node42&#45;&gt;Node17 -->
<g id="edge108" class="edge">
<title>Node42&#45;&gt;Node17</title>
<path fill="none" stroke="#63b8ff" d="M1690.25,-310.59C1622.98,-306.01 1484.32,-294.07 1369.77,-268 1293.44,-250.63 1265.7,-258.57 1202.77,-212 1168.24,-186.45 1135.41,-157.13 1162.77,-124 1216.67,-58.74 1268.85,-112.81 1349.77,-88 1351.16,-87.57 1352.56,-87.11 1353.98,-86.62"/>
<polygon fill="#63b8ff" stroke="#63b8ff" points="1355.21,-89.9 1363.28,-83.02 1352.69,-83.37 1355.21,-89.9"/>
</g>
<!-- Node42&#45;&gt;Node29 -->
<g id="edge84" class="edge">
<title>Node42&#45;&gt;Node29</title>
<path fill="none" stroke="#63b8ff" d="M1771.35,-311.67C1938.5,-306.11 2569.04,-284.26 2656.77,-268 2792.18,-242.91 2945.52,-182.24 3010.72,-154.84"/>
<polygon fill="#63b8ff" stroke="#63b8ff" points="3011.89,-158.14 3019.73,-151.02 3009.16,-151.7 3011.89,-158.14"/>
</g>
<!-- Node42&#45;&gt;Node36 -->
<g id="edge103" class="edge">
<title>Node42&#45;&gt;Node36</title>
<path fill="none" stroke="#63b8ff" d="M1690.24,-311C1650.61,-309.07 1588.55,-306.15 1534.77,-304 1063.76,-285.19 941.71,-332.56 474.77,-268 371.41,-253.71 330.22,-274.65 246.77,-212 229.73,-199.21 218.6,-177.11 212.3,-160.95"/>
<polygon fill="#63b8ff" stroke="#63b8ff" points="215.72,-160.12 209.05,-151.88 209.13,-162.48 215.72,-160.12"/>
</g>
<!-- Node43 -->
<g id="node36" class="node">
<title>Node43</title>
<g id="a_node36"><a xlink:href="FMTlist_8hpp.html" target="_top" xlink:title=" ">
<polygon fill="#fff0f0" stroke="red" points="1892.27,-268 1825.27,-268 1825.27,-248 1892.27,-248 1892.27,-268"/>
<text text-anchor="middle" x="1858.77" y="-254.5" font-family="Helvetica,sans-Serif" font-size="10.00">FMTlist.hpp</text>
</a>
</g>
</g>
<!-- Node42&#45;&gt;Node43 -->
<g id="edge85" class="edge">
<title>Node42&#45;&gt;Node43</title>
<path fill="none" stroke="#63b8ff" d="M1753.07,-303.59C1773.13,-295.13 1802.89,-282.58 1825.72,-272.94"/>
<polygon fill="#63b8ff" stroke="#63b8ff" points="1827.05,-276.18 1834.91,-269.07 1824.33,-269.73 1827.05,-276.18"/>
</g>
<!-- Node55 -->
<g id="node38" class="node">
<title>Node55</title>
<g id="a_node38"><a xlink:title=" ">
<polygon fill="#e0e0e0" stroke="#999999" points="1768.52,-268 1691.02,-268 1691.02,-248 1768.52,-248 1768.52,-268"/>
<text text-anchor="middle" x="1729.77" y="-254.5" font-family="Helvetica,sans-Serif" font-size="10.00">unordered_set</text>
</a>
</g>
</g>
<!-- Node42&#45;&gt;Node55 -->
<g id="edge109" class="edge">
<title>Node42&#45;&gt;Node55</title>
<path fill="none" stroke="#63b8ff" d="M1730.6,-303.59C1730.48,-297.01 1730.31,-287.96 1730.16,-279.73"/>
<polygon fill="#63b8ff" stroke="#63b8ff" points="1733.66,-279.75 1729.97,-269.81 1726.66,-279.87 1733.66,-279.75"/>
</g>
<!-- Node43&#45;&gt;Node6 -->
<g id="edge96" class="edge">
<title>Node43&#45;&gt;Node6</title>
<path fill="none" stroke="#63b8ff" d="M1892.65,-255.11C1988.5,-249.54 2256.84,-232.3 2290.77,-212 2316.58,-196.56 2319.08,-184.47 2328.77,-156 2334.95,-137.86 2336.06,-116.21 2335.71,-99.57"/>
<polygon fill="#63b8ff" stroke="#63b8ff" points="2339.22,-99.81 2335.3,-89.97 2332.23,-100.11 2339.22,-99.81"/>
</g>
<!-- Node43&#45;&gt;Node7 -->
<g id="edge98" class="edge">
<title>Node43&#45;&gt;Node7</title>
<path fill="none" stroke="#63b8ff" d="M1860.65,-247.53C1865.87,-223.55 1882.76,-159.81 1920.77,-124 1931.69,-113.71 1962.53,-101.36 1991.32,-91.39"/>
<polygon fill="#63b8ff" stroke="#63b8ff" points="1992.43,-94.71 2000.78,-88.18 1990.18,-88.08 1992.43,-94.71"/>
</g>
<!-- Node43&#45;&gt;Node8 -->
<g id="edge100" class="edge">
<title>Node43&#45;&gt;Node8</title>
<path fill="none" stroke="#63b8ff" d="M1827.56,-247.57C1783.76,-234.45 1701.51,-210.27 1630.77,-192 1573.5,-177.21 1507.32,-162.14 1462.63,-152.26"/>
<polygon fill="#63b8ff" stroke="#63b8ff" points="1463.46,-148.85 1452.95,-150.12 1461.96,-155.69 1463.46,-148.85"/>
</g>
<!-- Node43&#45;&gt;Node10 -->
<g id="edge97" class="edge">
<title>Node43&#45;&gt;Node10</title>
<path fill="none" stroke="#63b8ff" d="M1892.47,-256.36C2103.9,-252.29 3240.71,-229.68 3311.77,-212 3366.55,-198.37 3395.93,-203.91 3425.77,-156 3433.29,-143.93 3435.39,-134.47 3425.77,-124 3395.67,-91.23 3087.2,-95.88 3009.89,-88.62"/>
<polygon fill="#63b8ff" stroke="#63b8ff" points="3010.44,-85.16 3000.07,-87.36 3009.55,-92.1 3010.44,-85.16"/>
</g>
<!-- Node43&#45;&gt;Node14 -->
<g id="edge101" class="edge">
<title>Node43&#45;&gt;Node14</title>
<path fill="none" stroke="#63b8ff" d="M1892.7,-256.33C2102.05,-252.16 3214.22,-229.33 3364.77,-212 3409.37,-206.87 3419.43,-198.99 3463.77,-192 3533.59,-180.99 3718.62,-191.43 3779.77,-156 3822.77,-131.09 3858.4,-96.62 3829.77,-56 3809.81,-27.67 3770.32,-17.08 3740.84,-13.17"/>
<polygon fill="#63b8ff" stroke="#63b8ff" points="3741.53,-9.72 3731.21,-12.11 3740.76,-16.68 3741.53,-9.72"/>
</g>
<!-- Node43&#45;&gt;Node17 -->
<g id="edge87" class="edge">
<title>Node43&#45;&gt;Node17</title>
<path fill="none" stroke="#63b8ff" d="M1824.94,-250.57C1711.97,-229.05 1354.61,-160.68 1350.77,-156 1334.88,-136.62 1352.41,-108.8 1367.62,-90.82"/>
<polygon fill="#63b8ff" stroke="#63b8ff" points="1370.08,-93.31 1374.16,-83.53 1364.87,-88.63 1370.08,-93.31"/>
</g>
<!-- Node43&#45;&gt;Node19 -->
<g id="edge88" class="edge">
<title>Node43&#45;&gt;Node19</title>
<path fill="none" stroke="#63b8ff" d="M1824.78,-252.91C1680.64,-235.54 1119.4,-167.94 946.66,-147.13"/>
<polygon fill="#63b8ff" stroke="#63b8ff" points="947.23,-143.67 936.88,-145.95 946.39,-150.62 947.23,-143.67"/>
</g>
<!-- Node43&#45;&gt;Node21 -->
<g id="edge86" class="edge">
<title>Node43&#45;&gt;Node21</title>
<path fill="none" stroke="#63b8ff" d="M1858.97,-247.53C1859.76,-225.1 1863.65,-167.37 1882.77,-124 1888.01,-112.11 1896.35,-100.28 1903.79,-91.01"/>
<polygon fill="#63b8ff" stroke="#63b8ff" points="1906.31,-93.45 1910.07,-83.54 1900.96,-88.94 1906.31,-93.45"/>
</g>
<!-- Node43&#45;&gt;Node26 -->
<g id="edge102" class="edge">
<title>Node43&#45;&gt;Node26</title>
<path fill="none" stroke="#63b8ff" d="M1892.76,-254.88C2025.91,-246.59 2512.62,-216.28 2673.65,-206.25"/>
<polygon fill="#63b8ff" stroke="#63b8ff" points="2673.4,-209.77 2683.16,-205.65 2672.96,-202.78 2673.4,-209.77"/>
</g>
<!-- Node43&#45;&gt;Node29 -->
<g id="edge99" class="edge">
<title>Node43&#45;&gt;Node29</title>
<path fill="none" stroke="#63b8ff" d="M1892.4,-255.18C2027.51,-247.58 2543.88,-216.03 2964.77,-156 2971.76,-155 2979.07,-153.81 2986.3,-152.53"/>
<polygon fill="#63b8ff" stroke="#63b8ff" points="2986.83,-155.99 2996.04,-150.74 2985.57,-149.1 2986.83,-155.99"/>
</g>
<!-- Node43&#45;&gt;Node46 -->
<g id="edge89" class="edge">
<title>Node43&#45;&gt;Node46</title>
<path fill="none" stroke="#63b8ff" d="M1824.9,-252.99C1810.4,-251.33 1793.27,-249.46 1777.77,-248 1364.26,-208.93 1255.79,-233.71 847.77,-156 843.43,-155.17 838.93,-154.2 834.45,-153.15"/>
<polygon fill="#63b8ff" stroke="#63b8ff" points="835.47,-149.79 824.92,-150.79 833.78,-156.59 835.47,-149.79"/>
</g>
<!-- Node46&#45;&gt;Node6 -->
<g id="edge91" class="edge">
<title>Node46&#45;&gt;Node6</title>
<path fill="none" stroke="#63b8ff" d="M821.57,-129.52C829.99,-127.31 839.16,-125.24 847.77,-124 1124.59,-84.15 1826.41,-101.18 2105.77,-88 2163.3,-85.29 2228.92,-80.82 2274.94,-77.47"/>
<polygon fill="#63b8ff" stroke="#63b8ff" points="2274.98,-80.98 2284.69,-76.76 2274.46,-74 2274.98,-80.98"/>
</g>
<!-- Node46&#45;&gt;Node10 -->
<g id="edge92" class="edge">
<title>Node46&#45;&gt;Node10</title>
<path fill="none" stroke="#63b8ff" d="M821.27,-129.57C829.77,-127.33 839.06,-125.23 847.77,-124 1187.16,-76.06 2047.12,-96.58 2389.77,-88 2572.89,-83.41 2789.61,-77.47 2891.82,-74.64"/>
<polygon fill="#63b8ff" stroke="#63b8ff" points="2891.71,-78.15 2901.6,-74.37 2891.51,-71.15 2891.71,-78.15"/>
</g>
<!-- Node46&#45;&gt;Node15 -->
<g id="edge95" class="edge">
<title>Node46&#45;&gt;Node15</title>
<path fill="none" stroke="#63b8ff" d="M753.48,-129.57C745.36,-127.63 736.79,-125.67 728.77,-124 638.21,-105.11 607.59,-127.14 523.77,-88 503.77,-78.66 505.93,-65 485.77,-56 438.84,-35.04 294.84,-20.98 217.36,-14.72"/>
<polygon fill="#63b8ff" stroke="#63b8ff" points="217.73,-11.23 207.49,-13.93 217.18,-18.21 217.73,-11.23"/>
</g>
<!-- Node46&#45;&gt;Node17 -->
<g id="edge93" class="edge">
<title>Node46&#45;&gt;Node17</title>
<path fill="none" stroke="#63b8ff" d="M822.51,-129.56C830.68,-127.43 839.5,-125.39 847.77,-124 1053.92,-89.26 1109.96,-118.59 1316.77,-88 1328.58,-86.25 1341.39,-83.62 1352.67,-81.05"/>
<polygon fill="#63b8ff" stroke="#63b8ff" points="1353.38,-84.48 1362.31,-78.78 1351.77,-77.67 1353.38,-84.48"/>
</g>
<!-- Node46&#45;&gt;Node20 -->
<g id="edge90" class="edge">
<title>Node46&#45;&gt;Node20</title>
<path fill="none" stroke="#63b8ff" d="M783.75,-129.54C776.4,-119.64 764.67,-103.84 755.48,-91.46"/>
<polygon fill="#63b8ff" stroke="#63b8ff" points="758.45,-89.6 749.68,-83.65 752.83,-93.77 758.45,-89.6"/>
</g>
<!-- Node46&#45;&gt;Node24 -->
<g id="edge94" class="edge">
<title>Node46&#45;&gt;Node24</title>
<path fill="none" stroke="#63b8ff" d="M762.98,-129.54C729.41,-118.12 672.77,-98.86 635.08,-86.03"/>
<polygon fill="#63b8ff" stroke="#63b8ff" points="636.54,-82.83 625.95,-82.93 634.29,-89.46 636.54,-82.83"/>
</g>
<!-- Node56&#45;&gt;Node3 -->
<g id="edge131" class="edge">
<title>Node56&#45;&gt;Node3</title>
<path fill="none" stroke="#63b8ff" d="M1431.35,-312.93C1197.32,-312.4 174.43,-307.82 120.77,-268 65.45,-226.94 61.36,-135.02 62.54,-93.75"/>
<polygon fill="#63b8ff" stroke="#63b8ff" points="66.02,-94.13 62.96,-83.98 59.03,-93.82 66.02,-94.13"/>
</g>
<!-- Node56&#45;&gt;Node4 -->
<g id="edge132" class="edge">
<title>Node56&#45;&gt;Node4</title>
<path fill="none" stroke="#63b8ff" d="M1494.87,-303.69C1540.08,-276.65 1669.06,-193.36 1732.77,-88 1743.23,-70.71 1747.94,-47.93 1750.06,-31.65"/>
<polygon fill="#63b8ff" stroke="#63b8ff" points="1753.54,-32.02 1751.1,-21.71 1746.58,-31.29 1753.54,-32.02"/>
</g>
<!-- Node56&#45;&gt;Node5 -->
<g id="edge128" class="edge">
<title>Node56&#45;&gt;Node5</title>
<path fill="none" stroke="#63b8ff" d="M1431.38,-312.75C1251.48,-311.12 611.97,-299.22 431.77,-212 389.16,-191.38 352.26,-167.13 371.77,-124 376.8,-112.89 385.57,-103.24 394.8,-95.41"/>
<polygon fill="#63b8ff" stroke="#63b8ff" points="396.75,-98.32 402.48,-89.41 392.44,-92.81 396.75,-98.32"/>
</g>
<!-- Node56&#45;&gt;Node6 -->
<g id="edge127" class="edge">
<title>Node56&#45;&gt;Node6</title>
<path fill="none" stroke="#63b8ff" d="M1526.22,-308.52C1698.68,-292.06 2283.94,-234.77 2316.77,-212 2350.73,-188.45 2351.91,-165 2346.77,-124 2345.76,-115.93 2343.88,-107.31 2341.86,-99.5"/>
<polygon fill="#63b8ff" stroke="#63b8ff" points="2345.24,-98.58 2339.18,-89.89 2338.49,-100.46 2345.24,-98.58"/>
</g>
<!-- Node56&#45;&gt;Node7 -->
<g id="edge129" class="edge">
<title>Node56&#45;&gt;Node7</title>
<path fill="none" stroke="#63b8ff" d="M1501.99,-303.54C1543,-286.6 1630.66,-249.35 1701.77,-212 1744.49,-189.56 1753.78,-181.45 1794.77,-156 1817.19,-142.08 1820.51,-134.37 1844.77,-124 1903.86,-98.74 1924.99,-103.97 1991.18,-88.29"/>
<polygon fill="#63b8ff" stroke="#63b8ff" points="1991.85,-91.73 2000.73,-85.95 1990.19,-84.93 1991.85,-91.73"/>
</g>
<!-- Node56&#45;&gt;Node17 -->
<g id="edge130" class="edge">
<title>Node56&#45;&gt;Node17</title>
<path fill="none" stroke="#63b8ff" d="M1431.55,-310.56C1357.51,-305.98 1218.28,-294.1 1176.77,-268 1125.84,-235.98 1118.44,-213.5 1100.77,-156 1096.59,-142.41 1091.46,-134.75 1100.77,-124 1137.37,-81.73 1295.95,-103.14 1349.77,-88 1351.36,-87.55 1352.98,-87.05 1354.59,-86.51"/>
<polygon fill="#63b8ff" stroke="#63b8ff" points="1355.6,-89.87 1363.69,-83.03 1353.1,-83.33 1355.6,-89.87"/>
</g>
<!-- Node56&#45;&gt;Node43 -->
<g id="edge126" class="edge">
<title>Node56&#45;&gt;Node43</title>
<path fill="none" stroke="#63b8ff" d="M1526.13,-306.27C1599.97,-295.78 1741.55,-275.66 1813.86,-265.38"/>
<polygon fill="#63b8ff" stroke="#63b8ff" points="1813.95,-268.91 1823.35,-264.03 1812.96,-261.97 1813.95,-268.91"/>
</g>
<!-- Node57 -->
<g id="node40" class="node">
<title>Node57</title>
<g id="a_node40"><a xlink:href="FMTfork_8hpp.html" target="_top" xlink:title=" ">
<polygon fill="#fff0f0" stroke="red" points="1448.77,-268 1378.77,-268 1378.77,-248 1448.77,-248 1448.77,-268"/>
<text text-anchor="middle" x="1413.77" y="-254.5" font-family="Helvetica,sans-Serif" font-size="10.00">FMTfork.hpp</text>
</a>
</g>
</g>
<!-- Node56&#45;&gt;Node57 -->
<g id="edge112" class="edge">
<title>Node56&#45;&gt;Node57</title>
<path fill="none" stroke="#63b8ff" d="M1467.45,-303.59C1458.13,-295.85 1444.69,-284.69 1433.59,-275.47"/>
<polygon fill="#63b8ff" stroke="#63b8ff" points="1436.06,-272.96 1426.13,-269.27 1431.58,-278.35 1436.06,-272.96"/>
</g>
<!-- Node57&#45;&gt;Node6 -->
<g id="edge122" class="edge">
<title>Node57&#45;&gt;Node6</title>
<path fill="none" stroke="#63b8ff" d="M1449.27,-255.55C1606.76,-249.09 2235.35,-222.64 2252.77,-212 2294.17,-186.71 2316.67,-131.76 2326.87,-99.04"/>
<polygon fill="#63b8ff" stroke="#63b8ff" points="2330.2,-100.11 2329.66,-89.53 2323.49,-98.14 2330.2,-100.11"/>
</g>
<!-- Node57&#45;&gt;Node7 -->
<g id="edge124" class="edge">
<title>Node57&#45;&gt;Node7</title>
<path fill="none" stroke="#63b8ff" d="M1449.17,-255.13C1499.52,-251.5 1593.99,-241.11 1668.77,-212 1736.56,-185.62 1739.2,-150.94 1806.77,-124 1881.7,-94.12 1908.43,-105.64 1990.78,-88.29"/>
<polygon fill="#63b8ff" stroke="#63b8ff" points="1991.44,-91.73 2000.46,-86.16 1989.94,-84.89 1991.44,-91.73"/>
</g>
<!-- Node57&#45;&gt;Node8 -->
<g id="edge125" class="edge">
<title>Node57&#45;&gt;Node8</title>
<path fill="none" stroke="#63b8ff" d="M1413.53,-247.51C1413.04,-228.81 1411.96,-186.82 1411.3,-161.51"/>
<polygon fill="#63b8ff" stroke="#63b8ff" points="1414.81,-161.72 1411.05,-151.81 1407.81,-161.9 1414.81,-161.72"/>
</g>
<!-- Node57&#45;&gt;Node10 -->
<g id="edge123" class="edge">
<title>Node57&#45;&gt;Node10</title>
<path fill="none" stroke="#63b8ff" d="M1448.89,-255.81C1500.1,-254.08 1598.25,-250.78 1681.77,-248 1775.8,-244.87 3309.43,-225.56 3372.77,-156 3382.35,-145.48 3382.33,-134.53 3372.77,-124 3319.53,-65.33 3102.75,-100.35 3009.8,-88.88"/>
<polygon fill="#63b8ff" stroke="#63b8ff" points="3010.49,-85.45 3000.07,-87.38 3009.42,-92.37 3010.49,-85.45"/>
</g>
<!-- Node57&#45;&gt;Node17 -->
<g id="edge121" class="edge">
<title>Node57&#45;&gt;Node17</title>
<path fill="none" stroke="#63b8ff" d="M1378.72,-255.13C1322.4,-249.92 1214.29,-230.25 1176.77,-156 1121.87,-47.35 1291.2,-106.44 1349.77,-88 1351.15,-87.56 1352.56,-87.09 1353.97,-86.6"/>
<polygon fill="#63b8ff" stroke="#63b8ff" points="1355.22,-89.87 1363.26,-82.97 1352.67,-83.34 1355.22,-89.87"/>
</g>
<!-- Node57&#45;&gt;Node36 -->
<g id="edge120" class="edge">
<title>Node57&#45;&gt;Node36</title>
<path fill="none" stroke="#63b8ff" d="M1378.44,-256.19C1213.69,-252.32 525.06,-234.89 431.77,-212 411.3,-206.98 408.54,-199.3 388.77,-192 375.83,-187.22 301.61,-166.9 251.76,-153.39"/>
<polygon fill="#63b8ff" stroke="#63b8ff" points="252.93,-150.09 242.36,-150.85 251.1,-156.84 252.93,-150.09"/>
</g>
<!-- Node57&#45;&gt;Node58 -->
<g id="edge113" class="edge">
<title>Node57&#45;&gt;Node58</title>
<path fill="none" stroke="#63b8ff" d="M1378.5,-254.92C1243.04,-246.91 754.59,-218.05 570.57,-207.18"/>
<polygon fill="#63b8ff" stroke="#63b8ff" points="570.86,-203.69 560.67,-206.6 570.44,-210.68 570.86,-203.69"/>
</g>
<!-- Node58&#45;&gt;Node4 -->
<g id="edge118" class="edge">
<title>Node58&#45;&gt;Node4</title>
<path fill="none" stroke="#63b8ff" d="M443.2,-191.54C404.27,-183.79 357.38,-171.57 344.77,-156 316.76,-121.42 308.81,-87.96 339.77,-56 389.42,-4.75 1515.91,-9.49 1720.16,-10.78"/>
<polygon fill="#63b8ff" stroke="#63b8ff" points="1719.97,-14.28 1730,-10.84 1720.02,-7.28 1719.97,-14.28"/>
</g>
<!-- Node58&#45;&gt;Node6 -->
<g id="edge117" class="edge">
<title>Node58&#45;&gt;Node6</title>
<path fill="none" stroke="#63b8ff" d="M558.97,-198.36C764.71,-189.16 1437.36,-158.94 1459.77,-156 1526.07,-147.29 1540.58,-133.48 1606.77,-124 1639.66,-119.29 2108.01,-87.98 2275.09,-76.88"/>
<polygon fill="#63b8ff" stroke="#63b8ff" points="2274.86,-80.41 2284.61,-76.25 2274.4,-73.42 2274.86,-80.41"/>
</g>
<!-- Node58&#45;&gt;Node15 -->
<g id="edge119" class="edge">
<title>Node58&#45;&gt;Node15</title>
<path fill="none" stroke="#63b8ff" d="M440.3,-200.42C370.04,-198.12 250.48,-189.1 153.77,-156 97.23,-136.65 67.48,-139.85 37.77,-88 30.7,-75.66 29.54,-67.6 37.77,-56 55.58,-30.93 88.43,-19.71 116.52,-14.74"/>
<polygon fill="#63b8ff" stroke="#63b8ff" points="116.96,-18.22 126.32,-13.25 115.91,-11.3 116.96,-18.22"/>
</g>
<!-- Node58&#45;&gt;Node19 -->
<g id="edge115" class="edge">
<title>Node58&#45;&gt;Node19</title>
<path fill="none" stroke="#63b8ff" d="M559.11,-196.5C628.82,-190.48 747.65,-177.94 847.77,-156 850.93,-155.31 854.18,-154.5 857.43,-153.63"/>
<polygon fill="#63b8ff" stroke="#63b8ff" points="858.24,-157.04 866.87,-150.9 856.29,-150.31 858.24,-157.04"/>
</g>
<!-- Node58&#45;&gt;Node36 -->
<g id="edge114" class="edge">
<title>Node58&#45;&gt;Node36</title>
<path fill="none" stroke="#63b8ff" d="M444,-191.54C395.83,-183.1 324.45,-169.95 262.77,-156 258.96,-155.14 255.02,-154.2 251.08,-153.23"/>
<polygon fill="#63b8ff" stroke="#63b8ff" points="252.06,-149.87 241.51,-150.8 250.34,-156.65 252.06,-149.87"/>
</g>
<!-- Node58&#45;&gt;Node46 -->
<g id="edge116" class="edge">
<title>Node58&#45;&gt;Node46</title>
<path fill="none" stroke="#63b8ff" d="M545.56,-191.56C596.47,-181.06 678.77,-164.09 733.8,-152.75"/>
<polygon fill="#63b8ff" stroke="#63b8ff" points="734.2,-156.24 743.29,-150.79 732.79,-149.38 734.2,-156.24"/>
</g>
<!-- Node60&#45;&gt;Node4 -->
<g id="edge135" class="edge">
<title>Node60&#45;&gt;Node4</title>
<path fill="none" stroke="#63b8ff" d="M710.72,-198.9C617.48,-193.74 395.93,-179.16 371.77,-156 339.49,-125.06 329.67,-88.12 360.77,-56 409.62,-5.55 1517.08,-9.62 1719.99,-10.79"/>
<polygon fill="#63b8ff" stroke="#63b8ff" points="1719.75,-14.29 1729.77,-10.85 1719.79,-7.29 1719.75,-14.29"/>
</g>
<!-- Node60&#45;&gt;Node5 -->
<g id="edge139" class="edge">
<title>Node60&#45;&gt;Node5</title>
<path fill="none" stroke="#63b8ff" d="M711.03,-196.71C668.97,-191.21 602.16,-179.43 548.77,-156 513.9,-140.7 478.72,-114.52 455.75,-95.66"/>
<polygon fill="#63b8ff" stroke="#63b8ff" points="458.06,-93.03 448.15,-89.29 453.57,-98.39 458.06,-93.03"/>
</g>
<!-- Node60&#45;&gt;Node6 -->
<g id="edge140" class="edge">
<title>Node60&#45;&gt;Node6</title>
<path fill="none" stroke="#63b8ff" d="M792.61,-197.85C817.27,-196.01 849.31,-193.72 877.77,-192 1201.58,-172.44 1283.45,-182.41 1606.77,-156 1856.02,-135.64 2151.82,-97.51 2275.2,-80.98"/>
<polygon fill="#63b8ff" stroke="#63b8ff" points="2275.3,-84.5 2284.74,-79.7 2274.36,-77.56 2275.3,-84.5"/>
</g>
<!-- Node60&#45;&gt;Node7 -->
<g id="edge141" class="edge">
<title>Node60&#45;&gt;Node7</title>
<path fill="none" stroke="#63b8ff" d="M792.55,-194.3C885.58,-179.26 1120.72,-142.71 1318.77,-124 1613.78,-96.14 1694.44,-133.48 1990.94,-88.04"/>
<polygon fill="#63b8ff" stroke="#63b8ff" points="1991.19,-91.55 2000.53,-86.55 1990.11,-84.63 1991.19,-91.55"/>
</g>
<!-- Node60&#45;&gt;Node8 -->
<g id="edge138" class="edge">
<title>Node60&#45;&gt;Node8</title>
<path fill="none" stroke="#63b8ff" d="M792.51,-197.96C913.74,-188.9 1266.94,-162.27 1318.77,-156 1331.82,-154.42 1345.85,-152.33 1358.92,-150.22"/>
<polygon fill="#63b8ff" stroke="#63b8ff" points="1359.33,-153.7 1368.62,-148.62 1358.18,-146.8 1359.33,-153.7"/>
</g>
<!-- Node60&#45;&gt;Node17 -->
<g id="edge134" class="edge">
<title>Node60&#45;&gt;Node17</title>
<path fill="none" stroke="#63b8ff" d="M792.69,-196.34C832.69,-190.67 894.56,-178.87 943.77,-156 965.38,-145.96 964.56,-132.6 986.77,-124 1137.97,-65.48 1192.76,-128.4 1349.77,-88 1351.58,-87.54 1353.41,-86.99 1355.24,-86.39"/>
<polygon fill="#63b8ff" stroke="#63b8ff" points="1355.99,-89.85 1364.1,-83.03 1353.51,-83.3 1355.99,-89.85"/>
</g>
<!-- Node60&#45;&gt;Node36 -->
<g id="edge137" class="edge">
<title>Node60&#45;&gt;Node36</title>
<path fill="none" stroke="#63b8ff" d="M710.73,-196.58C636.5,-188.57 474.98,-171.1 338.77,-156 312.97,-153.14 284.36,-149.92 260.3,-147.2"/>
<polygon fill="#63b8ff" stroke="#63b8ff" points="260.73,-143.72 250.4,-146.08 259.94,-150.68 260.73,-143.72"/>
</g>
<!-- Node61 -->
<g id="node43" class="node">
<title>Node61</title>
<g id="a_node43"><a xlink:title=" ">
<polygon fill="#e0e0e0" stroke="#999999" points="420.77,-150 380.77,-150 380.77,-130 420.77,-130 420.77,-150"/>
<text text-anchor="middle" x="400.77" y="-136.5" font-family="Helvetica,sans-Serif" font-size="10.00">stack</text>
</a>
</g>
</g>
<!-- Node60&#45;&gt;Node61 -->
<g id="edge136" class="edge">
<title>Node60&#45;&gt;Node61</title>
<path fill="none" stroke="#63b8ff" d="M710.75,-198.77C649.6,-194.66 531.38,-183.6 434.77,-156 433.18,-155.55 431.57,-155.03 429.96,-154.48"/>
<polygon fill="#63b8ff" stroke="#63b8ff" points="431.49,-151.32 420.9,-150.91 428.92,-157.83 431.49,-151.32"/>
</g>
<!-- Node64&#45;&gt;Node4 -->
<g id="edge145" class="edge">
<title>Node64&#45;&gt;Node4</title>
<path fill="none" stroke="#63b8ff" d="M810.01,-256.98C678.6,-256.4 319.55,-251.18 208.77,-212 111.78,-177.7 -34.01,-129.69 37.77,-56 68.3,-24.66 1489.13,-12.93 1720.17,-11.22"/>
<polygon fill="#63b8ff" stroke="#63b8ff" points="1719.93,-14.72 1729.9,-11.15 1719.88,-7.73 1719.93,-14.72"/>
</g>
<!-- Node64&#45;&gt;Node6 -->
<g id="edge148" class="edge">
<title>Node64&#45;&gt;Node6</title>
<path fill="none" stroke="#63b8ff" d="M907.59,-255.93C1147.23,-250.62 2188.75,-226.74 2218.77,-212 2244.41,-199.42 2291.87,-134.23 2317.06,-97.77"/>
<polygon fill="#63b8ff" stroke="#63b8ff" points="2319.92,-99.79 2322.68,-89.56 2314.14,-95.83 2319.92,-99.79"/>
</g>
<!-- Node64&#45;&gt;Node7 -->
<g id="edge150" class="edge">
<title>Node64&#45;&gt;Node7</title>
<path fill="none" stroke="#63b8ff" d="M907.54,-249.7C1041.84,-229.61 1428.38,-171.79 1749.77,-124 1854.28,-108.46 1883.93,-109.82 1991.01,-88.22"/>
<polygon fill="#63b8ff" stroke="#63b8ff" points="1991.39,-91.72 2000.48,-86.29 1989.99,-84.86 1991.39,-91.72"/>
</g>
<!-- Node64&#45;&gt;Node10 -->
<g id="edge149" class="edge">
<title>Node64&#45;&gt;Node10</title>
<path fill="none" stroke="#63b8ff" d="M907.61,-256.36C1086.35,-253.82 1721.75,-243.01 2244.77,-212 2348.08,-205.87 2373.64,-200.63 2476.77,-192 2526.09,-187.87 2881.44,-186.05 2920.77,-156 2938.13,-142.74 2945.46,-118.5 2948.55,-99.63"/>
<polygon fill="#63b8ff" stroke="#63b8ff" points="2951.99,-100.31 2949.8,-89.94 2945.04,-99.41 2951.99,-100.31"/>
</g>
<!-- Node64&#45;&gt;Node17 -->
<g id="edge144" class="edge">
<title>Node64&#45;&gt;Node17</title>
<path fill="none" stroke="#63b8ff" d="M858.93,-247.74C859.66,-233.84 863.06,-207.54 877.77,-192 910.82,-157.09 937.1,-178.14 979.77,-156 1001.55,-144.7 1001.84,-132.74 1024.77,-124 1160.57,-72.23 1209.24,-125.02 1349.77,-88 1351.57,-87.53 1353.4,-86.97 1355.23,-86.37"/>
<polygon fill="#63b8ff" stroke="#63b8ff" points="1355.99,-89.82 1364.09,-82.99 1353.5,-83.28 1355.99,-89.82"/>
</g>
<!-- Node64&#45;&gt;Node36 -->
<g id="edge147" class="edge">
<title>Node64&#45;&gt;Node36</title>
<path fill="none" stroke="#63b8ff" d="M809.95,-256.95C725.06,-255.82 545.27,-248.81 398.77,-212 376.36,-206.37 372.35,-200.28 350.77,-192 315.21,-178.35 274.21,-164.06 244.91,-154.09"/>
<polygon fill="#63b8ff" stroke="#63b8ff" points="246.31,-150.88 235.72,-150.98 244.07,-157.51 246.31,-150.88"/>
</g>
<!-- Node64&#45;&gt;Node37 -->
<g id="edge146" class="edge">
<title>Node64&#45;&gt;Node37</title>
<path fill="none" stroke="#63b8ff" d="M810.03,-255.73C719.05,-252.7 517.5,-242.8 350.77,-212 261.26,-195.47 221.94,-216.32 153.77,-156 135.41,-139.76 126.41,-112.29 122.2,-93.43"/>
<polygon fill="#63b8ff" stroke="#63b8ff" points="125.65,-92.87 120.31,-83.72 118.78,-94.21 125.65,-92.87"/>
</g>
<!-- Node64&#45;&gt;Node60 -->
<g id="edge143" class="edge">
<title>Node64&#45;&gt;Node60</title>
<path fill="none" stroke="#63b8ff" d="M840.13,-247.59C823.74,-239.32 799.61,-227.14 780.71,-217.6"/>
<polygon fill="#63b8ff" stroke="#63b8ff" points="782.41,-214.54 771.91,-213.16 779.26,-220.79 782.41,-214.54"/>
</g>
<!-- Node65&#45;&gt;Node3 -->
<g id="edge152" class="edge">
<title>Node65&#45;&gt;Node3</title>
<path fill="none" stroke="#63b8ff" d="M1608.96,-368.71C1363,-366.82 226.57,-353.48 97.77,-268 41.46,-230.63 51.6,-135.6 59.33,-93.55"/>
<polygon fill="#63b8ff" stroke="#63b8ff" points="62.75,-94.3 61.28,-83.81 55.88,-92.93 62.75,-94.3"/>
</g>
<!-- Node65&#45;&gt;Node7 -->
<g id="edge157" class="edge">
<title>Node65&#45;&gt;Node7</title>
<path fill="none" stroke="#63b8ff" d="M1655.36,-359.82C1654.86,-338.18 1656.36,-283.18 1681.77,-248 1689.73,-236.98 1880.37,-129.58 1892.77,-124 1924.43,-109.76 1961.28,-97.58 1991.32,-88.69"/>
<polygon fill="#63b8ff" stroke="#63b8ff" points="1991.97,-92.15 2000.6,-86 1990.02,-85.43 1991.97,-92.15"/>
</g>
<!-- Node65&#45;&gt;Node8 -->
<g id="edge156" class="edge">
<title>Node65&#45;&gt;Node8</title>
<path fill="none" stroke="#63b8ff" d="M1608.72,-368.26C1559.53,-365.66 1481.46,-356.21 1422.77,-324 1392.73,-307.52 1382.45,-299.84 1369.77,-268 1354.7,-230.16 1379.66,-184.41 1396.78,-159.45"/>
<polygon fill="#63b8ff" stroke="#63b8ff" points="1399.41,-161.79 1402.4,-151.62 1393.72,-157.7 1399.41,-161.79"/>
</g>
<!-- Node65&#45;&gt;Node17 -->
<g id="edge153" class="edge">
<title>Node65&#45;&gt;Node17</title>
<path fill="none" stroke="#63b8ff" d="M1608.89,-365.6C1464.9,-354.53 1038.77,-316.87 1038.77,-259 1038.77,-259 1038.77,-259 1038.77,-201 1038.77,-159.45 1056.42,-145.83 1091.77,-124 1190.27,-63.16 1238.24,-119.08 1349.77,-88 1351.57,-87.5 1353.39,-86.93 1355.22,-86.31"/>
<polygon fill="#63b8ff" stroke="#63b8ff" points="1356,-89.76 1364.07,-82.9 1353.48,-83.22 1356,-89.76"/>
</g>
<!-- Node65&#45;&gt;Node39 -->
<g id="edge154" class="edge">
<title>Node65&#45;&gt;Node39</title>
<path fill="none" stroke="#63b8ff" d="M1697.91,-359.57C1754.74,-345.6 1857.72,-315.78 1934.77,-268 1955.49,-255.15 1975.17,-235.18 1987.98,-220.77"/>
<polygon fill="#63b8ff" stroke="#63b8ff" points="1990.47,-223.23 1994.35,-213.37 1985.17,-218.66 1990.47,-223.23"/>
</g>
<!-- Node65&#45;&gt;Node42 -->
<g id="edge155" class="edge">
<title>Node65&#45;&gt;Node42</title>
<path fill="none" stroke="#63b8ff" d="M1668.84,-359.59C1679.74,-351.74 1695.52,-340.38 1708.43,-331.09"/>
<polygon fill="#63b8ff" stroke="#63b8ff" points="1710.31,-334.05 1716.38,-325.36 1706.22,-328.37 1710.31,-334.05"/>
</g>
<!-- Node67&#45;&gt;Node3 -->
<g id="edge163" class="edge">
<title>Node67&#45;&gt;Node3</title>
<path fill="none" stroke="#63b8ff" d="M2110.79,-311.98C1860.14,-305.58 515.4,-271.12 494.77,-268 326.57,-242.56 267.63,-254.27 128.77,-156 104.92,-139.12 85.53,-111.01 74.32,-92.24"/>
<polygon fill="#63b8ff" stroke="#63b8ff" points="77.46,-90.68 69.45,-83.74 71.39,-94.16 77.46,-90.68"/>
</g>
<!-- Node67&#45;&gt;Node4 -->
<g id="edge164" class="edge">
<title>Node67&#45;&gt;Node4</title>
<path fill="none" stroke="#63b8ff" d="M2190.74,-313.1C2466.71,-313.12 4071.21,-302.72 3829.77,-56 3792.37,-17.78 2041.51,-11.76 1783.41,-11.07"/>
<polygon fill="#63b8ff" stroke="#63b8ff" points="1783.47,-7.57 1773.46,-11.05 1783.45,-14.57 1783.47,-7.57"/>
</g>
<!-- Node67&#45;&gt;Node6 -->
<g id="edge165" class="edge">
<title>Node67&#45;&gt;Node6</title>
<path fill="none" stroke="#63b8ff" d="M2178.34,-303.53C2217.81,-290.15 2292.83,-265.42 2357.77,-248 2428.59,-229 2472.93,-269.22 2518.77,-212 2543.22,-181.48 2542.54,-155.06 2518.77,-124 2483.73,-78.22 2449.06,-101.34 2392.24,-89.42"/>
<polygon fill="#63b8ff" stroke="#63b8ff" points="2393.39,-86.1 2382.84,-87.12 2391.72,-92.9 2393.39,-86.1"/>
</g>
<!-- Node67&#45;&gt;Node7 -->
<g id="edge170" class="edge">
<title>Node67&#45;&gt;Node7</title>
<path fill="none" stroke="#63b8ff" d="M2146.17,-303.62C2137.52,-285.88 2118.4,-246.13 2103.77,-212 2093.24,-187.42 2091.47,-180.92 2081.77,-156 2074.31,-136.82 2065.94,-115.12 2059.64,-98.72"/>
<polygon fill="#63b8ff" stroke="#63b8ff" points="2063.04,-97.8 2056.18,-89.72 2056.5,-100.31 2063.04,-97.8"/>
</g>
<!-- Node67&#45;&gt;Node14 -->
<g id="edge169" class="edge">
<title>Node67&#45;&gt;Node14</title>
<path fill="none" stroke="#63b8ff" d="M2190.91,-312.31C2377.03,-309 3157.17,-293.81 3399.77,-268 3604.72,-246.2 3692.85,-289.62 3849.77,-156 3886.47,-124.75 3921.63,-93.85 3891.77,-56 3873.35,-32.64 3790.28,-20.06 3740.94,-14.52"/>
<polygon fill="#63b8ff" stroke="#63b8ff" points="3741.59,-11.07 3731.28,-13.49 3740.85,-18.03 3741.59,-11.07"/>
</g>
<!-- Node67&#45;&gt;Node15 -->
<g id="edge166" class="edge">
<title>Node67&#45;&gt;Node15</title>
<path fill="none" stroke="#63b8ff" d="M2110.65,-312.02C1845.05,-305.51 350.42,-268.87 344.77,-268 197.09,-245.23 119.28,-274.12 27.77,-156 0.36,-120.61 -10.98,-91.89 15.77,-56 38.76,-25.16 82.05,-14.62 116.4,-11.39"/>
<polygon fill="#63b8ff" stroke="#63b8ff" points="116.44,-14.9 126.16,-10.67 115.93,-7.92 116.44,-14.9"/>
</g>
<!-- Node67&#45;&gt;Node17 -->
<g id="edge162" class="edge">
<title>Node67&#45;&gt;Node17</title>
<path fill="none" stroke="#63b8ff" d="M2110.59,-312.12C2046.69,-309.72 1918.63,-300.84 1815.77,-268 1797.59,-262.2 1795.92,-253.89 1777.77,-248 1588.98,-186.74 1459.29,-315.21 1340.77,-156 1325.04,-134.86 1346.69,-107.35 1364.8,-89.92"/>
<polygon fill="#63b8ff" stroke="#63b8ff" points="1367.07,-92.59 1372.11,-83.27 1362.36,-87.41 1367.07,-92.59"/>
</g>
<!-- Node67&#45;&gt;Node26 -->
<g id="edge167" class="edge">
<title>Node67&#45;&gt;Node26</title>
<path fill="none" stroke="#63b8ff" d="M2190.89,-312.79C2295.41,-311.71 2573.7,-305.31 2656.77,-268 2679.9,-257.61 2700.17,-236.19 2712.66,-220.78"/>
<polygon fill="#63b8ff" stroke="#63b8ff" points="2715.09,-223.35 2718.45,-213.31 2709.56,-219.06 2715.09,-223.35"/>
</g>
<!-- Node67&#45;&gt;Node33 -->
<g id="edge168" class="edge">
<title>Node67&#45;&gt;Node33</title>
<path fill="none" stroke="#63b8ff" d="M2191.09,-312.05C2314.91,-308.9 2700.59,-297.26 3018.77,-268 3207.61,-250.63 3254.2,-239.95 3441.77,-212 3592.38,-189.56 3681.29,-272.14 3779.77,-156 3794.3,-138.86 3791.13,-111.81 3786.43,-93.28"/>
<polygon fill="#63b8ff" stroke="#63b8ff" points="3789.81,-92.34 3783.64,-83.73 3783.09,-94.31 3789.81,-92.34"/>
</g>
<!-- Node67&#45;&gt;Node36 -->
<g id="edge161" class="edge">
<title>Node67&#45;&gt;Node36</title>
<path fill="none" stroke="#63b8ff" d="M2110.64,-311.88C1900.76,-305.97 934.03,-278.42 800.77,-268 598.08,-252.15 541.32,-271.03 346.77,-212 303.28,-198.8 256.98,-172.92 229.75,-156.31"/>
<polygon fill="#63b8ff" stroke="#63b8ff" points="231.92,-153.54 221.58,-151.25 228.23,-159.49 231.92,-153.54"/>
</g>
<!-- Node67&#45;&gt;Node39 -->
<g id="edge160" class="edge">
<title>Node67&#45;&gt;Node39</title>
<path fill="none" stroke="#63b8ff" d="M2138.15,-303.62C2112.92,-284.87 2055.98,-242.55 2024.58,-219.21"/>
<polygon fill="#63b8ff" stroke="#63b8ff" points="2026.69,-216.41 2016.57,-213.26 2022.51,-222.03 2026.69,-216.41"/>
</g>
<!-- Node67&#45;&gt;Node43 -->
<g id="edge159" class="edge">
<title>Node67&#45;&gt;Node43</title>
<path fill="none" stroke="#63b8ff" d="M2110.48,-305.55C2056.32,-295.53 1960.34,-277.78 1903.85,-267.34"/>
<polygon fill="#63b8ff" stroke="#63b8ff" points="1904.72,-263.94 1894.25,-265.56 1903.44,-270.82 1904.72,-263.94"/>
</g>
<!-- Node69&#45;&gt;Node4 -->
<g id="edge177" class="edge">
<title>Node69&#45;&gt;Node4</title>
<path fill="none" stroke="#63b8ff" d="M2161.29,-191.65C2159.4,-165.41 2150.18,-90.77 2105.77,-56 2056,-17.02 1860.61,-11.59 1783.4,-10.99"/>
<polygon fill="#63b8ff" stroke="#63b8ff" points="1783.6,-7.49 1773.58,-10.94 1783.56,-14.49 1783.6,-7.49"/>
</g>
<!-- Node69&#45;&gt;Node6 -->
<g id="edge173" class="edge">
<title>Node69&#45;&gt;Node6</title>
<path fill="none" stroke="#63b8ff" d="M2167.48,-191.56C2177.42,-175.78 2199.28,-143.84 2224.77,-124 2240.97,-111.4 2260.78,-100.96 2279.05,-92.88"/>
<polygon fill="#63b8ff" stroke="#63b8ff" points="2280.37,-96.12 2288.2,-88.98 2277.63,-89.68 2280.37,-96.12"/>
</g>
<!-- Node69&#45;&gt;Node7 -->
<g id="edge175" class="edge">
<title>Node69&#45;&gt;Node7</title>
<path fill="none" stroke="#63b8ff" d="M2149.78,-191.65C2139.01,-182.98 2123.04,-169.42 2110.77,-156 2094.02,-137.69 2077.51,-114.84 2065.9,-97.76"/>
<polygon fill="#63b8ff" stroke="#63b8ff" points="2068.97,-96.06 2060.5,-89.7 2063.16,-99.95 2068.97,-96.06"/>
</g>
<!-- Node69&#45;&gt;Node8 -->
<g id="edge178" class="edge">
<title>Node69&#45;&gt;Node8</title>
<path fill="none" stroke="#63b8ff" d="M2112.95,-196.19C2097.84,-194.76 2081.12,-193.25 2065.77,-192 1832.66,-173.08 1773.67,-177.41 1540.77,-156 1515.01,-153.63 1486.45,-150.4 1462.67,-147.55"/>
<polygon fill="#63b8ff" stroke="#63b8ff" points="1463.27,-144.09 1452.92,-146.36 1462.42,-151.04 1463.27,-144.09"/>
</g>
<!-- Node69&#45;&gt;Node10 -->
<g id="edge174" class="edge">
<title>Node69&#45;&gt;Node10</title>
<path fill="none" stroke="#63b8ff" d="M2210.59,-198.53C2371.2,-190.33 2873.82,-164.08 2888.77,-156 2912.13,-143.37 2929.17,-117.7 2939.41,-98.23"/>
<polygon fill="#63b8ff" stroke="#63b8ff" points="2942.42,-100.05 2943.72,-89.53 2936.15,-96.94 2942.42,-100.05"/>
</g>
<!-- Node69&#45;&gt;Node17 -->
<g id="edge176" class="edge">
<title>Node69&#45;&gt;Node17</title>
<path fill="none" stroke="#63b8ff" d="M2112.87,-195.63C1968.61,-179.46 1546.68,-129.8 1414.77,-88 1413.63,-87.64 1412.49,-87.24 1411.34,-86.81"/>
<polygon fill="#63b8ff" stroke="#63b8ff" points="1413.15,-83.79 1402.59,-82.98 1410.34,-90.2 1413.15,-83.79"/>
</g>
<!-- Node69&#45;&gt;Node21 -->
<g id="edge172" class="edge">
<title>Node69&#45;&gt;Node21</title>
<path fill="none" stroke="#63b8ff" d="M2143.98,-191.59C2102.28,-169.53 1998.01,-114.38 1947.74,-87.79"/>
<polygon fill="#63b8ff" stroke="#63b8ff" points="1949.41,-84.72 1938.93,-83.13 1946.13,-90.9 1949.41,-84.72"/>
</g>
<!-- Node69&#45;&gt;Node29 -->
<g id="edge179" class="edge">
<title>Node69&#45;&gt;Node29</title>
<path fill="none" stroke="#63b8ff" d="M2210.64,-199.31C2332.01,-194.86 2656.89,-181.36 2926.77,-156 2939.88,-154.77 2953.79,-153.2 2967.26,-151.54"/>
<polygon fill="#63b8ff" stroke="#63b8ff" points="2967.45,-155.04 2976.93,-150.32 2966.57,-148.1 2967.45,-155.04"/>
</g>
<!-- Node71&#45;&gt;Node4 -->
<g id="edge182" class="edge">
<title>Node71&#45;&gt;Node4</title>
<path fill="none" stroke="#63b8ff" d="M2748.04,-129.52C2678.58,-111.99 2523.02,-74.61 2389.77,-56 2158.76,-23.74 1877.28,-14.12 1783.71,-11.71"/>
<polygon fill="#63b8ff" stroke="#63b8ff" points="1783.86,-8.21 1773.77,-11.46 1783.68,-15.21 1783.86,-8.21"/>
</g>
<!-- Node71&#45;&gt;Node6 -->
<g id="edge183" class="edge">
<title>Node71&#45;&gt;Node6</title>
<path fill="none" stroke="#63b8ff" d="M2739.04,-129.51C2729.08,-127.58 2718.59,-125.63 2708.77,-124 2597.57,-105.48 2466.99,-88.88 2392.95,-79.94"/>
<polygon fill="#63b8ff" stroke="#63b8ff" points="2393.41,-76.47 2383.06,-78.75 2392.58,-83.42 2393.41,-76.47"/>
</g>
<!-- Node71&#45;&gt;Node10 -->
<g id="edge184" class="edge">
<title>Node71&#45;&gt;Node10</title>
<path fill="none" stroke="#63b8ff" d="M2808.56,-129.54C2832.69,-119.95 2870.77,-104.81 2901.46,-92.61"/>
<polygon fill="#63b8ff" stroke="#63b8ff" points="2902.56,-95.93 2910.56,-88.99 2899.98,-89.43 2902.56,-95.93"/>
</g>
<!-- Node75&#45;&gt;Node4 -->
<g id="edge186" class="edge">
<title>Node75&#45;&gt;Node4</title>
<path fill="none" stroke="#63b8ff" d="M3570.05,-129.52C3560.11,-127.56 3549.6,-125.61 3539.77,-124 3304.09,-85.45 3244.79,-75.41 3006.77,-56 2520.61,-16.35 1925.66,-11.63 1783.4,-11.07"/>
<polygon fill="#63b8ff" stroke="#63b8ff" points="1783.65,-7.58 1773.64,-11.04 1783.62,-14.58 1783.65,-7.58"/>
</g>
<!-- Node75&#45;&gt;Node6 -->
<g id="edge187" class="edge">
<title>Node75&#45;&gt;Node6</title>
<path fill="none" stroke="#63b8ff" d="M3553.58,-135.34C3500.89,-132.21 3422.83,-127.66 3354.77,-124 2989.1,-104.32 2549.61,-83.23 2392.85,-75.79"/>
<polygon fill="#63b8ff" stroke="#63b8ff" points="2393.29,-72.31 2383.13,-75.33 2392.96,-79.3 2393.29,-72.31"/>
</g>
<!-- Node75&#45;&gt;Node10 -->
<g id="edge188" class="edge">
<title>Node75&#45;&gt;Node10</title>
<path fill="none" stroke="#63b8ff" d="M3571.68,-129.53C3561.27,-127.48 3550.16,-125.48 3539.77,-124 3438.43,-109.52 3137.39,-86.64 3009.41,-77.24"/>
<polygon fill="#63b8ff" stroke="#63b8ff" points="3010.04,-73.78 2999.81,-76.54 3009.53,-80.76 3010.04,-73.78"/>
</g>
</g>
</svg>
        <g id="navigator" transform="translate(0 0)" fill="#404254">
                <rect fill="#f2f5e9" fill-opacity="0.5" stroke="#606060" stroke-width=".5" x="0" y="0" width="60" height="60"/>
                <use id="zoomplus" xlink:href="#zoomPlus" x="17" y="9" onmousedown="handleZoom(evt,'in')"/>
                <use id="zoomminus" xlink:href="#zoomMin" x="42" y="9" onmousedown="handleZoom(evt,'out')"/>
                <use id="reset" xlink:href="#resetDef" x="30" y="36" onmousedown="handleReset()"/>
                <g id="arrowUp" xlink:href="#dirArrow" transform="translate(30 24)" onmousedown="handlePan(0,-1)">
                  <use xlink:href="#rim" fill="#404040">
                        <set attributeName="fill" to="#808080" begin="arrowUp.mouseover" end="arrowUp.mouseout"/>
                  </use>
                  <path fill="none" stroke="white" stroke-width="1.5" d="M0,-3.0v7 M-2.5,-0.5L0,-3.0L2.5,-0.5"/>
                </g>
                <g id="arrowRight" xlink:href="#dirArrow" transform="rotate(90) translate(36 -43)" onmousedown="handlePan(1,0)">
                  <use xlink:href="#rim" fill="#404040">
                        <set attributeName="fill" to="#808080" begin="arrowRight.mouseover" end="arrowRight.mouseout"/>
                  </use>
                  <path fill="none" stroke="white" stroke-width="1.5" d="M0,-3.0v7 M-2.5,-0.5L0,-3.0L2.5,-0.5"/>
                </g>
                <g id="arrowDown" xlink:href="#dirArrow" transform="rotate(180) translate(-30 -48)" onmousedown="handlePan(0,1)">
                  <use xlink:href="#rim" fill="#404040">
                        <set attributeName="fill" to="#808080" begin="arrowDown.mouseover" end="arrowDown.mouseout"/>
                  </use>
                  <path fill="none" stroke="white" stroke-width="1.5" d="M0,-3.0v7 M-2.5,-0.5L0,-3.0L2.5,-0.5"/>
                </g>
                <g id="arrowLeft" xlink:href="#dirArrow" transform="rotate(270) translate(-36 17)" onmousedown="handlePan(-1,0)">
                  <use xlink:href="#rim" fill="#404040">
                        <set attributeName="fill" to="#808080" begin="arrowLeft.mouseover" end="arrowLeft.mouseout"/>
                  </use>
                  <path fill="none" stroke="white" stroke-width="1.5" d="M0,-3.0v7 M-2.5,-0.5L0,-3.0L2.5,-0.5"/>
                </g>
        </g>
        <svg viewBox="0 0 15 15" width="100%" height="30px" preserveAspectRatio="xMaxYMin meet">
         <g id="arrow_out" transform="scale(0.3 0.3)">
          <a xlink:href="PYexportCore_8hpp__incl_org.svg" target="_base">
           <rect id="button" ry="5" rx="5" y="6" x="6" height="38" width="38"
                fill="#f2f5e9" fill-opacity="0.5" stroke="#606060" stroke-width="1.0"/>
           <path id="arrow"
             d="M 11.500037,31.436501 C 11.940474,20.09759 22.043105,11.32322 32.158766,21.979434 L 37.068811,17.246167 C 37.068811,17.246167 37.088388,32 37.088388,32 L 22.160133,31.978069 C 22.160133,31.978069 26.997745,27.140456 26.997745,27.140456 C 18.528582,18.264221 13.291696,25.230495 11.500037,31.436501 z"
             style="fill:#404040;"/>
          </a>
         </g>
        </svg>
</svg>
