<?xml version="1.0" encoding="UTF-8" standalone="no"?>
<!DOCTYPE svg PUBLIC "-//W3C//DTD SVG 1.1//EN"
 "http://www.w3.org/Graphics/SVG/1.1/DTD/svg11.dtd">
<!-- Generated by graphviz version 10.0.1 (20240210.2158)
 -->
<!-- Title: D:/FMT/Include/RexportGraph.hpp Pages: 1 -->
<svg width="913pt" height="276pt"
 viewBox="0.00 0.00 912.73 276.00" xmlns="http://www.w3.org/2000/svg" xmlns:xlink="http://www.w3.org/1999/xlink">
<g id="graph0" class="graph" transform="scale(1 1) rotate(0) translate(4 272)">
<title>D:/FMT/Include/RexportGraph.hpp</title>
<!-- Node1 -->
<g id="node1" class="node">
<title>Node1</title>
<g id="a_node1"><a xlink:title=" ">
<polygon fill="#999999" stroke="#666666" points="363.25,-268 199.5,-268 199.5,-248 363.25,-248 363.25,-268"/>
<text text-anchor="middle" x="281.38" y="-254.5" font-family="Helvetica,sans-Serif" font-size="10.00">D:/FMT/Include/RexportGraph.hpp</text>
</a>
</g>
</g>
<!-- Node2 -->
<g id="node2" class="node">
<title>Node2</title>
<g id="a_node2"><a xlink:href="Rdefinitions_8hpp.html" target="_top" xlink:title=" ">
<polygon fill="white" stroke="#666666" points="212.88,-212 127.88,-212 127.88,-192 212.88,-192 212.88,-212"/>
<text text-anchor="middle" x="170.38" y="-198.5" font-family="Helvetica,sans-Serif" font-size="10.00">Rdefinitions.hpp</text>
</a>
</g>
</g>
<!-- Node1&#45;&gt;Node2 -->
<g id="edge1" class="edge">
<title>Node1&#45;&gt;Node2</title>
<path fill="none" stroke="#63b8ff" d="M262.04,-247.59C244.96,-239.28 219.77,-227.03 200.12,-217.47"/>
<polygon fill="#63b8ff" stroke="#63b8ff" points="201.75,-214.37 191.22,-213.14 198.68,-220.66 201.75,-214.37"/>
</g>
<!-- Node3 -->
<g id="node3" class="node">
<title>Node3</title>
<g id="a_node3"><a xlink:href="FMTgraphstats_8hpp.html" target="_top" xlink:title=" ">
<polygon fill="white" stroke="#666666" points="331.38,-212 231.38,-212 231.38,-192 331.38,-192 331.38,-212"/>
<text text-anchor="middle" x="281.38" y="-198.5" font-family="Helvetica,sans-Serif" font-size="10.00">FMTgraphstats.hpp</text>
</a>
</g>
</g>
<!-- Node1&#45;&gt;Node3 -->
<g id="edge2" class="edge">
<title>Node1&#45;&gt;Node3</title>
<path fill="none" stroke="#63b8ff" d="M281.38,-247.59C281.38,-241.01 281.38,-231.96 281.38,-223.73"/>
<polygon fill="#63b8ff" stroke="#63b8ff" points="284.88,-223.81 281.38,-213.81 277.88,-223.81 284.88,-223.81"/>
</g>
<!-- Node18 -->
<g id="node18" class="node">
<title>Node18</title>
<g id="a_node18"><a xlink:title=" ">
<polygon fill="#e0e0e0" stroke="#999999" points="395.75,-212 349,-212 349,-192 395.75,-192 395.75,-212"/>
<text text-anchor="middle" x="372.38" y="-198.5" font-family="Helvetica,sans-Serif" font-size="10.00">Rcpp.h</text>
</a>
</g>
</g>
<!-- Node1&#45;&gt;Node18 -->
<g id="edge22" class="edge">
<title>Node1&#45;&gt;Node18</title>
<path fill="none" stroke="#63b8ff" d="M297.23,-247.59C310.84,-239.51 330.74,-227.71 346.64,-218.27"/>
<polygon fill="#63b8ff" stroke="#63b8ff" points="348.28,-221.37 355.1,-213.25 344.71,-215.35 348.28,-221.37"/>
</g>
<!-- Node4 -->
<g id="node4" class="node">
<title>Node4</title>
<g id="a_node4"><a xlink:title=" ">
<polygon fill="#e0e0e0" stroke="#999999" points="94.75,-156 0,-156 0,-124 94.75,-124 94.75,-156"/>
<text text-anchor="start" x="8" y="-142.5" font-family="Helvetica,sans-Serif" font-size="10.00">boost/serialization</text>
<text text-anchor="middle" x="47.38" y="-130.5" font-family="Helvetica,sans-Serif" font-size="10.00">/serialization.hpp</text>
</a>
</g>
</g>
<!-- Node3&#45;&gt;Node4 -->
<g id="edge3" class="edge">
<title>Node3&#45;&gt;Node4</title>
<path fill="none" stroke="#63b8ff" d="M244.56,-191.56C207.38,-182.03 149.39,-167.16 105.9,-156.01"/>
<polygon fill="#63b8ff" stroke="#63b8ff" points="106.92,-152.66 96.37,-153.56 105.18,-159.44 106.92,-152.66"/>
</g>
<!-- Node5 -->
<g id="node5" class="node">
<title>Node5</title>
<g id="a_node5"><a xlink:title=" ">
<polygon fill="#e0e0e0" stroke="#999999" points="244.75,-88 150,-88 150,-56 244.75,-56 244.75,-88"/>
<text text-anchor="start" x="158" y="-74.5" font-family="Helvetica,sans-Serif" font-size="10.00">boost/serialization</text>
<text text-anchor="middle" x="197.38" y="-62.5" font-family="Helvetica,sans-Serif" font-size="10.00">/nvp.hpp</text>
</a>
</g>
</g>
<!-- Node3&#45;&gt;Node5 -->
<g id="edge4" class="edge">
<title>Node3&#45;&gt;Node5</title>
<path fill="none" stroke="#63b8ff" d="M275.33,-191.79C262.55,-172.31 232.38,-126.34 213.54,-97.63"/>
<polygon fill="#63b8ff" stroke="#63b8ff" points="216.64,-95.98 208.23,-89.54 210.79,-99.82 216.64,-95.98"/>
</g>
<!-- Node6 -->
<g id="node6" class="node">
<title>Node6</title>
<g id="a_node6"><a xlink:title=" ">
<polygon fill="#e0e0e0" stroke="#999999" points="357.75,-88 263,-88 263,-56 357.75,-56 357.75,-88"/>
<text text-anchor="start" x="271" y="-74.5" font-family="Helvetica,sans-Serif" font-size="10.00">boost/serialization</text>
<text text-anchor="middle" x="310.38" y="-62.5" font-family="Helvetica,sans-Serif" font-size="10.00">/export.hpp</text>
</a>
</g>
</g>
<!-- Node3&#45;&gt;Node6 -->
<g id="edge5" class="edge">
<title>Node3&#45;&gt;Node6</title>
<path fill="none" stroke="#63b8ff" d="M283.46,-191.79C287.8,-172.65 297.93,-127.93 304.45,-99.15"/>
<polygon fill="#63b8ff" stroke="#63b8ff" points="307.78,-100.28 306.58,-89.75 300.96,-98.73 307.78,-100.28"/>
</g>
<!-- Node7 -->
<g id="node7" class="node">
<title>Node7</title>
<g id="a_node7"><a xlink:title=" ">
<polygon fill="#e0e0e0" stroke="#999999" points="405,-20 353.75,-20 353.75,0 405,0 405,-20"/>
<text text-anchor="middle" x="379.38" y="-6.5" font-family="Helvetica,sans-Serif" font-size="10.00">memory</text>
</a>
</g>
</g>
<!-- Node3&#45;&gt;Node7 -->
<g id="edge6" class="edge">
<title>Node3&#45;&gt;Node7</title>
<path fill="none" stroke="#63b8ff" d="M259.3,-191.63C209.52,-169.24 96.27,-110.43 141.38,-56 166.47,-25.72 281.93,-15.67 342.32,-12.45"/>
<polygon fill="#63b8ff" stroke="#63b8ff" points="342.3,-15.95 352.11,-11.96 341.95,-8.96 342.3,-15.95"/>
</g>
<!-- Node8 -->
<g id="node8" class="node">
<title>Node8</title>
<g id="a_node8"><a xlink:title=" ">
<polygon fill="#e0e0e0" stroke="#999999" points="824.38,-20 784.38,-20 784.38,0 824.38,0 824.38,-20"/>
<text text-anchor="middle" x="804.38" y="-6.5" font-family="Helvetica,sans-Serif" font-size="10.00">string</text>
</a>
</g>
</g>
<!-- Node3&#45;&gt;Node8 -->
<g id="edge7" class="edge">
<title>Node3&#45;&gt;Node8</title>
<path fill="none" stroke="#63b8ff" d="M331.79,-192.65C477.46,-168.4 889.2,-99.01 898.38,-88 907.48,-77.08 905.96,-68.03 898.38,-56 884.72,-34.33 857.43,-22.87 835.75,-16.95"/>
<polygon fill="#63b8ff" stroke="#63b8ff" points="836.73,-13.58 826.19,-14.62 835.08,-20.39 836.73,-13.58"/>
</g>
<!-- Node9 -->
<g id="node9" class="node">
<title>Node9</title>
<g id="a_node9"><a xlink:href="FMTobject_8hpp.html" target="_top" xlink:title=" ">
<polygon fill="white" stroke="#666666" points="474.62,-150 394.12,-150 394.12,-130 474.62,-130 474.62,-150"/>
<text text-anchor="middle" x="434.38" y="-136.5" font-family="Helvetica,sans-Serif" font-size="10.00">FMTobject.hpp</text>
</a>
</g>
</g>
<!-- Node3&#45;&gt;Node9 -->
<g id="edge8" class="edge">
<title>Node3&#45;&gt;Node9</title>
<path fill="none" stroke="#63b8ff" d="M305.28,-191.62C330.69,-181.66 371.12,-165.81 399.95,-154.5"/>
<polygon fill="#63b8ff" stroke="#63b8ff" points="400.94,-157.87 408.98,-150.96 398.39,-151.35 400.94,-157.87"/>
</g>
<!-- Node9&#45;&gt;Node5 -->
<g id="edge10" class="edge">
<title>Node9&#45;&gt;Node5</title>
<path fill="none" stroke="#63b8ff" d="M400.42,-129.54C362.82,-119.07 301.52,-102 256.1,-89.35"/>
<polygon fill="#63b8ff" stroke="#63b8ff" points="257.24,-86.04 246.66,-86.73 255.36,-92.78 257.24,-86.04"/>
</g>
<!-- Node9&#45;&gt;Node6 -->
<g id="edge11" class="edge">
<title>Node9&#45;&gt;Node6</title>
<path fill="none" stroke="#63b8ff" d="M416.61,-129.54C399.07,-120.21 371.68,-105.63 349.1,-93.61"/>
<polygon fill="#63b8ff" stroke="#63b8ff" points="350.93,-90.62 340.46,-89.01 347.64,-96.8 350.93,-90.62"/>
</g>
<!-- Node9&#45;&gt;Node7 -->
<g id="edge18" class="edge">
<title>Node9&#45;&gt;Node7</title>
<path fill="none" stroke="#63b8ff" d="M427.97,-129.56C421.4,-119.57 411.2,-103.18 404.38,-88 396,-69.39 389.08,-47.12 384.67,-31.33"/>
<polygon fill="#63b8ff" stroke="#63b8ff" points="388.05,-30.45 382.07,-21.71 381.3,-32.28 388.05,-30.45"/>
</g>
<!-- Node10 -->
<g id="node10" class="node">
<title>Node10</title>
<g id="a_node10"><a xlink:title=" ">
<polygon fill="#e0e0e0" stroke="#999999" points="825.75,-88 731,-88 731,-56 825.75,-56 825.75,-88"/>
<text text-anchor="start" x="739" y="-74.5" font-family="Helvetica,sans-Serif" font-size="10.00">boost/serialization</text>
<text text-anchor="middle" x="778.38" y="-62.5" font-family="Helvetica,sans-Serif" font-size="10.00">/shared_ptr.hpp</text>
</a>
</g>
</g>
<!-- Node9&#45;&gt;Node10 -->
<g id="edge9" class="edge">
<title>Node9&#45;&gt;Node10</title>
<path fill="none" stroke="#63b8ff" d="M474.98,-132.85C528.65,-124.5 626.34,-108.48 719.51,-88.3"/>
<polygon fill="#63b8ff" stroke="#63b8ff" points="720.05,-91.77 729.07,-86.21 718.55,-84.93 720.05,-91.77"/>
</g>
<!-- Node11 -->
<g id="node11" class="node">
<title>Node11</title>
<g id="a_node11"><a xlink:href="FMTexception_8hpp.html" target="_top" xlink:title=" ">
<polygon fill="white" stroke="#666666" points="569.5,-82 473.25,-82 473.25,-62 569.5,-62 569.5,-82"/>
<text text-anchor="middle" x="521.38" y="-68.5" font-family="Helvetica,sans-Serif" font-size="10.00">FMTexception.hpp</text>
</a>
</g>
</g>
<!-- Node9&#45;&gt;Node11 -->
<g id="edge12" class="edge">
<title>Node9&#45;&gt;Node11</title>
<path fill="none" stroke="#63b8ff" d="M446.84,-129.54C460.67,-119.06 483.22,-101.95 499.9,-89.29"/>
<polygon fill="#63b8ff" stroke="#63b8ff" points="501.88,-92.19 507.73,-83.35 497.65,-86.61 501.88,-92.19"/>
</g>
<!-- Node15 -->
<g id="node15" class="node">
<title>Node15</title>
<g id="a_node15"><a xlink:title=" ">
<polygon fill="#e0e0e0" stroke="#999999" points="889,-82 843.75,-82 843.75,-62 889,-62 889,-82"/>
<text text-anchor="middle" x="866.38" y="-68.5" font-family="Helvetica,sans-Serif" font-size="10.00">chrono</text>
</a>
</g>
</g>
<!-- Node9&#45;&gt;Node15 -->
<g id="edge19" class="edge">
<title>Node9&#45;&gt;Node15</title>
<path fill="none" stroke="#63b8ff" d="M474.96,-137.97C548.17,-135.22 706.64,-125.09 834.38,-88 835.73,-87.61 837.11,-87.16 838.48,-86.68"/>
<polygon fill="#63b8ff" stroke="#63b8ff" points="839.5,-90.04 847.42,-83 836.84,-83.57 839.5,-90.04"/>
</g>
<!-- Node16 -->
<g id="node16" class="node">
<title>Node16</title>
<g id="a_node16"><a xlink:title=" ">
<polygon fill="#e0e0e0" stroke="#999999" points="455.12,-82 413.62,-82 413.62,-62 455.12,-62 455.12,-82"/>
<text text-anchor="middle" x="434.38" y="-68.5" font-family="Helvetica,sans-Serif" font-size="10.00">vector</text>
</a>
</g>
</g>
<!-- Node9&#45;&gt;Node16 -->
<g id="edge20" class="edge">
<title>Node9&#45;&gt;Node16</title>
<path fill="none" stroke="#63b8ff" d="M434.38,-129.54C434.38,-120.23 434.38,-105.7 434.38,-93.7"/>
<polygon fill="#63b8ff" stroke="#63b8ff" points="437.88,-93.95 434.38,-83.95 430.88,-93.95 437.88,-93.95"/>
</g>
<!-- Node17 -->
<g id="node17" class="node">
<title>Node17</title>
<g id="a_node17"><a xlink:title=" ">
<polygon fill="#e0e0e0" stroke="#999999" points="712.75,-88 588,-88 588,-56 712.75,-56 712.75,-88"/>
<text text-anchor="start" x="596" y="-74.5" font-family="Helvetica,sans-Serif" font-size="10.00">boost/dll/runtime_symbol</text>
<text text-anchor="middle" x="650.38" y="-62.5" font-family="Helvetica,sans-Serif" font-size="10.00">_info.hpp</text>
</a>
</g>
</g>
<!-- Node9&#45;&gt;Node17 -->
<g id="edge21" class="edge">
<title>Node9&#45;&gt;Node17</title>
<path fill="none" stroke="#63b8ff" d="M465.32,-129.54C497.49,-119.72 548.67,-104.08 589.07,-91.73"/>
<polygon fill="#63b8ff" stroke="#63b8ff" points="589.9,-95.14 598.44,-88.87 587.85,-88.45 589.9,-95.14"/>
</g>
<!-- Node11&#45;&gt;Node7 -->
<g id="edge16" class="edge">
<title>Node11&#45;&gt;Node7</title>
<path fill="none" stroke="#63b8ff" d="M499.19,-61.62C475.74,-51.72 438.53,-35.99 411.8,-24.7"/>
<polygon fill="#63b8ff" stroke="#63b8ff" points="413.37,-21.57 402.8,-20.9 410.65,-28.01 413.37,-21.57"/>
</g>
<!-- Node11&#45;&gt;Node8 -->
<g id="edge14" class="edge">
<title>Node11&#45;&gt;Node8</title>
<path fill="none" stroke="#63b8ff" d="M556.57,-61.56C564.08,-59.64 571.97,-57.7 579.38,-56 648.05,-40.26 729.23,-24.79 772.86,-16.73"/>
<polygon fill="#63b8ff" stroke="#63b8ff" points="773.43,-20.18 782.64,-14.93 772.17,-13.3 773.43,-20.18"/>
</g>
<!-- Node12 -->
<g id="node12" class="node">
<title>Node12</title>
<g id="a_node12"><a xlink:title=" ">
<polygon fill="#e0e0e0" stroke="#999999" points="481.38,-20 423.38,-20 423.38,0 481.38,0 481.38,-20"/>
<text text-anchor="middle" x="452.38" y="-6.5" font-family="Helvetica,sans-Serif" font-size="10.00">exception</text>
</a>
</g>
</g>
<!-- Node11&#45;&gt;Node12 -->
<g id="edge13" class="edge">
<title>Node11&#45;&gt;Node12</title>
<path fill="none" stroke="#63b8ff" d="M510.59,-61.62C500.1,-52.5 483.94,-38.45 471.3,-27.46"/>
<polygon fill="#63b8ff" stroke="#63b8ff" points="473.84,-25.03 464,-21.11 469.25,-30.31 473.84,-25.03"/>
</g>
<!-- Node13 -->
<g id="node13" class="node">
<title>Node13</title>
<g id="a_node13"><a xlink:title=" ">
<polygon fill="#e0e0e0" stroke="#999999" points="553.12,-20 499.62,-20 499.62,0 553.12,0 553.12,-20"/>
<text text-anchor="middle" x="526.38" y="-6.5" font-family="Helvetica,sans-Serif" font-size="10.00">iostream</text>
</a>
</g>
</g>
<!-- Node11&#45;&gt;Node13 -->
<g id="edge15" class="edge">
<title>Node11&#45;&gt;Node13</title>
<path fill="none" stroke="#63b8ff" d="M522.16,-61.62C522.83,-53.56 523.82,-41.65 524.67,-31.41"/>
<polygon fill="#63b8ff" stroke="#63b8ff" points="528.15,-31.88 525.49,-21.62 521.17,-31.3 528.15,-31.88"/>
</g>
<!-- Node14 -->
<g id="node14" class="node">
<title>Node14</title>
<g id="a_node14"><a xlink:href="FMTutility_8hpp.html" target="_top" xlink:title=" ">
<polygon fill="white" stroke="#666666" points="649.12,-20 571.62,-20 571.62,0 649.12,0 649.12,-20"/>
<text text-anchor="middle" x="610.38" y="-6.5" font-family="Helvetica,sans-Serif" font-size="10.00">FMTutility.hpp</text>
</a>
</g>
</g>
<!-- Node11&#45;&gt;Node14 -->
<g id="edge17" class="edge">
<title>Node11&#45;&gt;Node14</title>
<path fill="none" stroke="#63b8ff" d="M535.28,-61.62C549.13,-52.29 570.63,-37.79 587.09,-26.7"/>
<polygon fill="#63b8ff" stroke="#63b8ff" points="588.98,-29.65 595.31,-21.16 585.06,-23.84 588.98,-29.65"/>
</g>
</g>
</svg>
