<?xml version="1.0" encoding="UTF-8" standalone="no"?>
<!DOCTYPE svg PUBLIC "-//W3C//DTD SVG 1.1//EN"
 "http://www.w3.org/Graphics/SVG/1.1/DTD/svg11.dtd">
<!-- Generated by graphviz version 8.1.0 (20230707.0739)
 -->
<!-- Title: C:/Users/CYRGU3/OneDrive &#45; BuroVirtuel/Bureau/FMT/FMT/Include/RexportVersion.hpp Pages: 1 -->
<svg width="887pt" height="288pt"
 viewBox="0.00 0.00 886.75 288.00" xmlns="http://www.w3.org/2000/svg" xmlns:xlink="http://www.w3.org/1999/xlink">
<g id="graph0" class="graph" transform="scale(1 1) rotate(0) translate(4 284)">
<title>C:/Users/CYRGU3/OneDrive &#45; BuroVirtuel/Bureau/FMT/FMT/Include/RexportVersion.hpp</title>
<!-- Node1 -->
<g id="Node000001" class="node">
<title>Node1</title>
<g id="a_Node000001"><a xlink:title=" ">
<polygon fill="#999999" stroke="#666666" points="189.75,-280 29,-280 29,-236 189.75,-236 189.75,-280"/>
<text text-anchor="start" x="37" y="-266.5" font-family="Helvetica,sans-Serif" font-size="10.00">C:/Users/CYRGU3/OneDrive</text>
<text text-anchor="start" x="37" y="-254.5" font-family="Helvetica,sans-Serif" font-size="10.00"> &#45; BuroVirtuel/Bureau/FMT</text>
<text text-anchor="middle" x="109.38" y="-242.5" font-family="Helvetica,sans-Serif" font-size="10.00">/FMT/Include/RexportVersion.hpp</text>
</a>
</g>
</g>
<!-- Node2 -->
<g id="Node000002" class="node">
<title>Node2</title>
<g id="a_Node000002"><a xlink:title=" ">
<polygon fill="#e0e0e0" stroke="#999999" points="46.75,-200 0,-200 0,-180 46.75,-180 46.75,-200"/>
<text text-anchor="middle" x="23.38" y="-186.5" font-family="Helvetica,sans-Serif" font-size="10.00">Rcpp.h</text>
</a>
</g>
</g>
<!-- Node1&#45;&gt;Node2 -->
<g id="edge1_Node000001_Node000002" class="edge">
<title>Node1&#45;&gt;Node2</title>
<g id="a_edge1_Node000001_Node000002"><a xlink:title=" ">
<path fill="none" stroke="#63b8ff" d="M81.69,-235.75C69.57,-226.45 55.58,-215.71 44.34,-207.09"/>
<polygon fill="#63b8ff" stroke="#63b8ff" points="46.71,-203.73 36.65,-200.42 42.45,-209.28 46.71,-203.73"/>
</a>
</g>
</g>
<!-- Node3 -->
<g id="Node000003" class="node">
<title>Node3</title>
<g id="a_Node000003"><a xlink:href="FMTversion_8hpp.html" target="_top" xlink:title=" ">
<polygon fill="white" stroke="#666666" points="186.5,-200 102.25,-200 102.25,-180 186.5,-180 186.5,-200"/>
<text text-anchor="middle" x="144.38" y="-186.5" font-family="Helvetica,sans-Serif" font-size="10.00">FMTversion.hpp</text>
</a>
</g>
</g>
<!-- Node1&#45;&gt;Node3 -->
<g id="edge2_Node000001_Node000003" class="edge">
<title>Node1&#45;&gt;Node3</title>
<g id="a_edge2_Node000001_Node000003"><a xlink:title=" ">
<path fill="none" stroke="#63b8ff" d="M120.64,-235.75C125.03,-227.47 130.03,-218.06 134.3,-210.01"/>
<polygon fill="#63b8ff" stroke="#63b8ff" points="137.79,-211.89 139.38,-201.42 131.6,-208.61 137.79,-211.89"/>
</a>
</g>
</g>
<!-- Node4 -->
<g id="Node000004" class="node">
<title>Node4</title>
<g id="a_Node000004"><a xlink:title=" ">
<polygon fill="#e0e0e0" stroke="#999999" points="110.38,-20 70.38,-20 70.38,0 110.38,0 110.38,-20"/>
<text text-anchor="middle" x="90.38" y="-6.5" font-family="Helvetica,sans-Serif" font-size="10.00">string</text>
</a>
</g>
</g>
<!-- Node1&#45;&gt;Node4 -->
<g id="edge20_Node000001_Node000004" class="edge">
<title>Node1&#45;&gt;Node4</title>
<g id="a_edge20_Node000001_Node000004"><a xlink:title=" ">
<path fill="none" stroke="#63b8ff" d="M101.96,-235.63C98.66,-225.05 95.12,-212 93.38,-200 84.48,-138.98 87.03,-65.7 89.01,-31.04"/>
<polygon fill="#63b8ff" stroke="#63b8ff" points="92.56,-31.31 89.69,-21.12 85.58,-30.88 92.56,-31.31"/>
</a>
</g>
</g>
<!-- Node17 -->
<g id="Node000017" class="node">
<title>Node17</title>
<g id="a_Node000017"><a xlink:href="Rdefinitions_8hpp.html" target="_top" xlink:title=" ">
<polygon fill="white" stroke="#666666" points="289.88,-200 204.88,-200 204.88,-180 289.88,-180 289.88,-200"/>
<text text-anchor="middle" x="247.38" y="-186.5" font-family="Helvetica,sans-Serif" font-size="10.00">Rdefinitions.hpp</text>
</a>
</g>
</g>
<!-- Node1&#45;&gt;Node17 -->
<g id="edge19_Node000001_Node000017" class="edge">
<title>Node1&#45;&gt;Node17</title>
<g id="a_edge19_Node000001_Node000017"><a xlink:title=" ">
<path fill="none" stroke="#63b8ff" d="M154.18,-235.57C175.07,-225.58 199.34,-213.97 217.88,-205.11"/>
<polygon fill="#63b8ff" stroke="#63b8ff" points="219.28,-207.84 226.79,-200.37 216.26,-201.52 219.28,-207.84"/>
</a>
</g>
</g>
<!-- Node3&#45;&gt;Node4 -->
<g id="edge3_Node000003_Node000004" class="edge">
<title>Node3&#45;&gt;Node4</title>
<g id="a_edge3_Node000003_Node000004"><a xlink:title=" ">
<path fill="none" stroke="#63b8ff" d="M141.62,-179.93C133.25,-152.32 107.93,-68.88 96.32,-30.59"/>
<polygon fill="#63b8ff" stroke="#63b8ff" points="99.44,-29.82 93.19,-21.27 92.74,-31.85 99.44,-29.82"/>
</a>
</g>
</g>
<!-- Node5 -->
<g id="Node000005" class="node">
<title>Node5</title>
<g id="a_Node000005"><a xlink:title=" ">
<polygon fill="#e0e0e0" stroke="#999999" points="182.12,-82 140.62,-82 140.62,-62 182.12,-62 182.12,-82"/>
<text text-anchor="middle" x="161.38" y="-68.5" font-family="Helvetica,sans-Serif" font-size="10.00">vector</text>
</a>
</g>
</g>
<!-- Node3&#45;&gt;Node5 -->
<g id="edge4_Node000003_Node000005" class="edge">
<title>Node3&#45;&gt;Node5</title>
<g id="a_edge4_Node000003_Node000005"><a xlink:title=" ">
<path fill="none" stroke="#63b8ff" d="M145.77,-179.51C148.52,-160.72 154.72,-118.44 158.42,-93.16"/>
<polygon fill="#63b8ff" stroke="#63b8ff" points="162.03,-93.7 160.01,-83.3 155.1,-92.69 162.03,-93.7"/>
</a>
</g>
</g>
<!-- Node6 -->
<g id="Node000006" class="node">
<title>Node6</title>
<g id="a_Node000006"><a xlink:href="FMTobject_8hpp.html" target="_top" xlink:title=" ">
<polygon fill="white" stroke="#666666" points="439.62,-144 359.12,-144 359.12,-124 439.62,-124 439.62,-144"/>
<text text-anchor="middle" x="399.38" y="-130.5" font-family="Helvetica,sans-Serif" font-size="10.00">FMTobject.hpp</text>
</a>
</g>
</g>
<!-- Node3&#45;&gt;Node6 -->
<g id="edge5_Node000003_Node000006" class="edge">
<title>Node3&#45;&gt;Node6</title>
<g id="a_edge5_Node000003_Node000006"><a xlink:title=" ">
<path fill="none" stroke="#63b8ff" d="M186.77,-180.02C231.18,-170.62 300.94,-155.85 348.34,-145.81"/>
<polygon fill="#63b8ff" stroke="#63b8ff" points="348.93,-149.05 357.99,-143.55 347.48,-142.2 348.93,-149.05"/>
</a>
</g>
</g>
<!-- Node6&#45;&gt;Node5 -->
<g id="edge17_Node000006_Node000005" class="edge">
<title>Node6&#45;&gt;Node5</title>
<g id="a_edge17_Node000006_Node000005"><a xlink:title=" ">
<path fill="none" stroke="#63b8ff" d="M358.67,-127.29C316.13,-120.61 247.83,-107.87 191.38,-88 190.44,-87.67 189.49,-87.32 188.54,-86.95"/>
<polygon fill="#63b8ff" stroke="#63b8ff" points="190.06,-83.35 179.5,-82.48 187.22,-89.74 190.06,-83.35"/>
</a>
</g>
</g>
<!-- Node7 -->
<g id="Node000007" class="node">
<title>Node7</title>
<g id="a_Node000007"><a xlink:title=" ">
<polygon fill="#e0e0e0" stroke="#999999" points="446.75,-88 352,-88 352,-56 446.75,-56 446.75,-88"/>
<text text-anchor="start" x="360" y="-74.5" font-family="Helvetica,sans-Serif" font-size="10.00">boost/serialization</text>
<text text-anchor="middle" x="399.38" y="-62.5" font-family="Helvetica,sans-Serif" font-size="10.00">/shared_ptr.hpp</text>
</a>
</g>
</g>
<!-- Node6&#45;&gt;Node7 -->
<g id="edge6_Node000006_Node000007" class="edge">
<title>Node6&#45;&gt;Node7</title>
<g id="a_edge6_Node000006_Node000007"><a xlink:title=" ">
<path fill="none" stroke="#63b8ff" d="M399.38,-123.62C399.38,-117.02 399.38,-107.84 399.38,-99.11"/>
<polygon fill="#63b8ff" stroke="#63b8ff" points="402.88,-99.14 399.38,-89.14 395.88,-99.14 402.88,-99.14"/>
</a>
</g>
</g>
<!-- Node8 -->
<g id="Node000008" class="node">
<title>Node8</title>
<g id="a_Node000008"><a xlink:title=" ">
<polygon fill="#e0e0e0" stroke="#999999" points="559.75,-88 465,-88 465,-56 559.75,-56 559.75,-88"/>
<text text-anchor="start" x="473" y="-74.5" font-family="Helvetica,sans-Serif" font-size="10.00">boost/serialization</text>
<text text-anchor="middle" x="512.38" y="-62.5" font-family="Helvetica,sans-Serif" font-size="10.00">/nvp.hpp</text>
</a>
</g>
</g>
<!-- Node6&#45;&gt;Node8 -->
<g id="edge7_Node000006_Node000008" class="edge">
<title>Node6&#45;&gt;Node8</title>
<g id="a_edge7_Node000006_Node000008"><a xlink:title=" ">
<path fill="none" stroke="#63b8ff" d="M417.03,-123.62C432.22,-115.56 454.66,-103.64 473.96,-93.4"/>
<polygon fill="#63b8ff" stroke="#63b8ff" points="475.23,-96.15 482.42,-88.37 471.95,-89.97 475.23,-96.15"/>
</a>
</g>
</g>
<!-- Node9 -->
<g id="Node000009" class="node">
<title>Node9</title>
<g id="a_Node000009"><a xlink:title=" ">
<polygon fill="#e0e0e0" stroke="#999999" points="672.75,-88 578,-88 578,-56 672.75,-56 672.75,-88"/>
<text text-anchor="start" x="586" y="-74.5" font-family="Helvetica,sans-Serif" font-size="10.00">boost/serialization</text>
<text text-anchor="middle" x="625.38" y="-62.5" font-family="Helvetica,sans-Serif" font-size="10.00">/export.hpp</text>
</a>
</g>
</g>
<!-- Node6&#45;&gt;Node9 -->
<g id="edge8_Node000006_Node000009" class="edge">
<title>Node6&#45;&gt;Node9</title>
<g id="a_edge8_Node000006_Node000009"><a xlink:title=" ">
<path fill="none" stroke="#63b8ff" d="M434.94,-123.56C470.39,-114.15 525.43,-99.54 567.24,-88.44"/>
<polygon fill="#63b8ff" stroke="#63b8ff" points="568.06,-91.57 576.83,-85.62 566.27,-84.81 568.06,-91.57"/>
</a>
</g>
</g>
<!-- Node10 -->
<g id="Node000010" class="node">
<title>Node10</title>
<g id="a_Node000010"><a xlink:href="FMTexception_8hpp.html" target="_top" xlink:title=" ">
<polygon fill="white" stroke="#666666" points="296.5,-82 200.25,-82 200.25,-62 296.5,-62 296.5,-82"/>
<text text-anchor="middle" x="248.38" y="-68.5" font-family="Helvetica,sans-Serif" font-size="10.00">FMTexception.hpp</text>
</a>
</g>
</g>
<!-- Node6&#45;&gt;Node10 -->
<g id="edge9_Node000006_Node000010" class="edge">
<title>Node6&#45;&gt;Node10</title>
<g id="a_edge9_Node000006_Node000010"><a xlink:title=" ">
<path fill="none" stroke="#63b8ff" d="M375.78,-123.62C350.52,-113.59 310.22,-97.57 281.72,-86.25"/>
<polygon fill="#63b8ff" stroke="#63b8ff" points="283.39,-82.75 272.8,-82.31 280.8,-89.25 283.39,-82.75"/>
</a>
</g>
</g>
<!-- Node13 -->
<g id="Node000013" class="node">
<title>Node13</title>
<g id="a_Node000013"><a xlink:title=" ">
<polygon fill="#e0e0e0" stroke="#999999" points="423,-20 371.75,-20 371.75,0 423,0 423,-20"/>
<text text-anchor="middle" x="397.38" y="-6.5" font-family="Helvetica,sans-Serif" font-size="10.00">memory</text>
</a>
</g>
</g>
<!-- Node6&#45;&gt;Node13 -->
<g id="edge15_Node000006_Node000013" class="edge">
<title>Node6&#45;&gt;Node13</title>
<g id="a_edge15_Node000006_Node000013"><a xlink:title=" ">
<path fill="none" stroke="#63b8ff" d="M380.23,-123.52C367.19,-115.9 350.98,-103.86 343.38,-88 337.23,-75.17 337.34,-68.88 343.38,-56 349.06,-43.86 359.81,-33.86 370.22,-26.39"/>
<polygon fill="#63b8ff" stroke="#63b8ff" points="371.74,-28.92 378.16,-20.49 367.89,-23.08 371.74,-28.92"/>
</a>
</g>
</g>
<!-- Node15 -->
<g id="Node000015" class="node">
<title>Node15</title>
<g id="a_Node000015"><a xlink:title=" ">
<polygon fill="#e0e0e0" stroke="#999999" points="736,-82 690.75,-82 690.75,-62 736,-62 736,-82"/>
<text text-anchor="middle" x="713.38" y="-68.5" font-family="Helvetica,sans-Serif" font-size="10.00">chrono</text>
</a>
</g>
</g>
<!-- Node6&#45;&gt;Node15 -->
<g id="edge16_Node000006_Node000015" class="edge">
<title>Node6&#45;&gt;Node15</title>
<g id="a_edge16_Node000006_Node000015"><a xlink:title=" ">
<path fill="none" stroke="#63b8ff" d="M439.87,-130.12C495.38,-125.36 597.73,-113.72 681.38,-88 682.69,-87.59 684.03,-87.14 685.37,-86.66"/>
<polygon fill="#63b8ff" stroke="#63b8ff" points="686.56,-89.54 694.45,-82.48 683.87,-83.08 686.56,-89.54"/>
</a>
</g>
</g>
<!-- Node16 -->
<g id="Node000016" class="node">
<title>Node16</title>
<g id="a_Node000016"><a xlink:title=" ">
<polygon fill="#e0e0e0" stroke="#999999" points="878.75,-88 754,-88 754,-56 878.75,-56 878.75,-88"/>
<text text-anchor="start" x="762" y="-74.5" font-family="Helvetica,sans-Serif" font-size="10.00">boost/dll/runtime_symbol</text>
<text text-anchor="middle" x="816.38" y="-62.5" font-family="Helvetica,sans-Serif" font-size="10.00">_info.hpp</text>
</a>
</g>
</g>
<!-- Node6&#45;&gt;Node16 -->
<g id="edge18_Node000006_Node000016" class="edge">
<title>Node6&#45;&gt;Node16</title>
<g id="a_edge18_Node000006_Node000016"><a xlink:title=" ">
<path fill="none" stroke="#63b8ff" d="M440.01,-128.77C502.86,-121.99 627.65,-107.63 742.94,-88.34"/>
<polygon fill="#63b8ff" stroke="#63b8ff" points="743.43,-91.64 752.71,-86.52 742.26,-84.74 743.43,-91.64"/>
</a>
</g>
</g>
<!-- Node10&#45;&gt;Node4 -->
<g id="edge11_Node000010_Node000004" class="edge">
<title>Node10&#45;&gt;Node4</title>
<g id="a_edge11_Node000010_Node000004"><a xlink:title=" ">
<path fill="none" stroke="#63b8ff" d="M223.69,-61.62C195.89,-51.07 150.71,-33.91 120.77,-22.54"/>
<polygon fill="#63b8ff" stroke="#63b8ff" points="122.46,-19.06 111.87,-18.78 119.97,-25.6 122.46,-19.06"/>
</a>
</g>
</g>
<!-- Node11 -->
<g id="Node000011" class="node">
<title>Node11</title>
<g id="a_Node000011"><a xlink:title=" ">
<polygon fill="#e0e0e0" stroke="#999999" points="186.38,-20 128.38,-20 128.38,0 186.38,0 186.38,-20"/>
<text text-anchor="middle" x="157.38" y="-6.5" font-family="Helvetica,sans-Serif" font-size="10.00">exception</text>
</a>
</g>
</g>
<!-- Node10&#45;&gt;Node11 -->
<g id="edge10_Node000010_Node000011" class="edge">
<title>Node10&#45;&gt;Node11</title>
<g id="a_edge10_Node000010_Node000011"><a xlink:title=" ">
<path fill="none" stroke="#63b8ff" d="M234.16,-61.62C219.73,-52.11 197.18,-37.24 180.24,-26.08"/>
<polygon fill="#63b8ff" stroke="#63b8ff" points="182.77,-22.89 172.49,-20.31 178.92,-28.74 182.77,-22.89"/>
</a>
</g>
</g>
<!-- Node12 -->
<g id="Node000012" class="node">
<title>Node12</title>
<g id="a_Node000012"><a xlink:title=" ">
<polygon fill="#e0e0e0" stroke="#999999" points="258.12,-20 204.62,-20 204.62,0 258.12,0 258.12,-20"/>
<text text-anchor="middle" x="231.38" y="-6.5" font-family="Helvetica,sans-Serif" font-size="10.00">iostream</text>
</a>
</g>
</g>
<!-- Node10&#45;&gt;Node12 -->
<g id="edge12_Node000010_Node000012" class="edge">
<title>Node10&#45;&gt;Node12</title>
<g id="a_edge12_Node000010_Node000012"><a xlink:title=" ">
<path fill="none" stroke="#63b8ff" d="M245.72,-61.62C243.36,-53.3 239.84,-40.86 236.87,-30.4"/>
<polygon fill="#63b8ff" stroke="#63b8ff" points="240.05,-29.78 233.96,-21.11 233.32,-31.69 240.05,-29.78"/>
</a>
</g>
</g>
<!-- Node10&#45;&gt;Node13 -->
<g id="edge13_Node000010_Node000013" class="edge">
<title>Node10&#45;&gt;Node13</title>
<g id="a_edge13_Node000010_Node000013"><a xlink:title=" ">
<path fill="none" stroke="#63b8ff" d="M271.66,-61.62C296.48,-51.63 336,-35.71 364.1,-24.4"/>
<polygon fill="#63b8ff" stroke="#63b8ff" points="365.29,-27.29 373.26,-20.31 362.67,-20.8 365.29,-27.29"/>
</a>
</g>
</g>
<!-- Node14 -->
<g id="Node000014" class="node">
<title>Node14</title>
<g id="a_Node000014"><a xlink:href="FMTutility_8hpp.html" target="_top" xlink:title=" ">
<polygon fill="white" stroke="#666666" points="354.12,-20 276.62,-20 276.62,0 354.12,0 354.12,-20"/>
<text text-anchor="middle" x="315.38" y="-6.5" font-family="Helvetica,sans-Serif" font-size="10.00">FMTutility.hpp</text>
</a>
</g>
</g>
<!-- Node10&#45;&gt;Node14 -->
<g id="edge14_Node000010_Node000014" class="edge">
<title>Node10&#45;&gt;Node14</title>
<g id="a_edge14_Node000010_Node000014"><a xlink:title=" ">
<path fill="none" stroke="#63b8ff" d="M258.84,-61.62C269.13,-52.41 285.03,-38.17 297.35,-27.14"/>
<polygon fill="#63b8ff" stroke="#63b8ff" points="299.08,-30.39 304.2,-21.11 294.41,-25.18 299.08,-30.39"/>
</a>
</g>
</g>
</g>
</svg>
